<?xml version="1.0" encoding="utf-8" standalone="no"?>
<!DOCTYPE svg PUBLIC "-//W3C//DTD SVG 1.1//EN"
  "http://www.w3.org/Graphics/SVG/1.1/DTD/svg11.dtd">
<svg xmlns:xlink="http://www.w3.org/1999/xlink" width="648pt" height="504pt" viewBox="0 0 648 504" xmlns="http://www.w3.org/2000/svg" version="1.1">
 <metadata>
  <rdf:RDF xmlns:dc="http://purl.org/dc/elements/1.1/" xmlns:cc="http://creativecommons.org/ns#" xmlns:rdf="http://www.w3.org/1999/02/22-rdf-syntax-ns#">
   <cc:Work>
    <dc:type rdf:resource="http://purl.org/dc/dcmitype/StillImage"/>
    <dc:date>2026-02-28T02:31:27.258410</dc:date>
    <dc:format>image/svg+xml</dc:format>
    <dc:creator>
     <cc:Agent>
      <dc:title>Matplotlib v3.10.8, https://matplotlib.org/</dc:title>
     </cc:Agent>
    </dc:creator>
   </cc:Work>
  </rdf:RDF>
 </metadata>
 <defs>
  <style type="text/css">*{stroke-linejoin: round; stroke-linecap: butt}</style>
 </defs>
 <g id="figure_1">
  <g id="patch_1">
   <path d="M 0 504 
L 648 504 
L 648 0 
L 0 0 
z
" style="fill: #ffffff"/>
  </g>
  <g id="axes_1">
   <g id="patch_2">
    <path d="M 56.357054 221.272 
L 628.183658 221.272 
L 628.183658 41.856 
L 56.357054 41.856 
z
" style="fill: #ffffff"/>
   </g>
   <g id="matplotlib.axis_1">
    <g id="xtick_1">
     <g id="line2d_1">
      <path d="M 82.349172 221.272 
L 82.349172 41.856 
" clip-path="url(#p2d40c52fbe)" style="fill: none; stroke: #b0b0b0; stroke-opacity: 0.25; stroke-width: 0.8; stroke-linecap: square"/>
     </g>
     <g id="line2d_2">
      <defs>
       <path id="m2f164313a1" d="M 0 0 
L 0 3.5 
" style="stroke: #000000; stroke-width: 0.8"/>
      </defs>
      <g>
       <use xlink:href="#m2f164313a1" x="82.349172" y="221.272" style="stroke: #000000; stroke-width: 0.8"/>
      </g>
     </g>
     <g id="text_1">
      <!-- 0 -->
      <g transform="translate(79.167922 235.870437) scale(0.1 -0.1)">
       <defs>
        <path id="DejaVuSans-30" d="M 2034 4250 
Q 1547 4250 1301 3770 
Q 1056 3291 1056 2328 
Q 1056 1369 1301 889 
Q 1547 409 2034 409 
Q 2525 409 2770 889 
Q 3016 1369 3016 2328 
Q 3016 3291 2770 3770 
Q 2525 4250 2034 4250 
z
M 2034 4750 
Q 2819 4750 3233 4129 
Q 3647 3509 3647 2328 
Q 3647 1150 3233 529 
Q 2819 -91 2034 -91 
Q 1250 -91 836 529 
Q 422 1150 422 2328 
Q 422 3509 836 4129 
Q 1250 4750 2034 4750 
z
" transform="scale(0.015625)"/>
       </defs>
       <use xlink:href="#DejaVuSans-30"/>
      </g>
     </g>
    </g>
    <g id="xtick_2">
     <g id="line2d_3">
      <path d="M 186.343035 221.272 
L 186.343035 41.856 
" clip-path="url(#p2d40c52fbe)" style="fill: none; stroke: #b0b0b0; stroke-opacity: 0.25; stroke-width: 0.8; stroke-linecap: square"/>
     </g>
     <g id="line2d_4">
      <g>
       <use xlink:href="#m2f164313a1" x="186.343035" y="221.272" style="stroke: #000000; stroke-width: 0.8"/>
      </g>
     </g>
     <g id="text_2">
      <!-- 2 -->
      <g transform="translate(183.161785 235.870437) scale(0.1 -0.1)">
       <defs>
        <path id="DejaVuSans-32" d="M 1228 531 
L 3431 531 
L 3431 0 
L 469 0 
L 469 531 
Q 828 903 1448 1529 
Q 2069 2156 2228 2338 
Q 2531 2678 2651 2914 
Q 2772 3150 2772 3378 
Q 2772 3750 2511 3984 
Q 2250 4219 1831 4219 
Q 1534 4219 1204 4116 
Q 875 4013 500 3803 
L 500 4441 
Q 881 4594 1212 4672 
Q 1544 4750 1819 4750 
Q 2544 4750 2975 4387 
Q 3406 4025 3406 3419 
Q 3406 3131 3298 2873 
Q 3191 2616 2906 2266 
Q 2828 2175 2409 1742 
Q 1991 1309 1228 531 
z
" transform="scale(0.015625)"/>
       </defs>
       <use xlink:href="#DejaVuSans-32"/>
      </g>
     </g>
    </g>
    <g id="xtick_3">
     <g id="line2d_5">
      <path d="M 290.336897 221.272 
L 290.336897 41.856 
" clip-path="url(#p2d40c52fbe)" style="fill: none; stroke: #b0b0b0; stroke-opacity: 0.25; stroke-width: 0.8; stroke-linecap: square"/>
     </g>
     <g id="line2d_6">
      <g>
       <use xlink:href="#m2f164313a1" x="290.336897" y="221.272" style="stroke: #000000; stroke-width: 0.8"/>
      </g>
     </g>
     <g id="text_3">
      <!-- 4 -->
      <g transform="translate(287.155647 235.870437) scale(0.1 -0.1)">
       <defs>
        <path id="DejaVuSans-34" d="M 2419 4116 
L 825 1625 
L 2419 1625 
L 2419 4116 
z
M 2253 4666 
L 3047 4666 
L 3047 1625 
L 3713 1625 
L 3713 1100 
L 3047 1100 
L 3047 0 
L 2419 0 
L 2419 1100 
L 313 1100 
L 313 1709 
L 2253 4666 
z
" transform="scale(0.015625)"/>
       </defs>
       <use xlink:href="#DejaVuSans-34"/>
      </g>
     </g>
    </g>
    <g id="xtick_4">
     <g id="line2d_7">
      <path d="M 394.33076 221.272 
L 394.33076 41.856 
" clip-path="url(#p2d40c52fbe)" style="fill: none; stroke: #b0b0b0; stroke-opacity: 0.25; stroke-width: 0.8; stroke-linecap: square"/>
     </g>
     <g id="line2d_8">
      <g>
       <use xlink:href="#m2f164313a1" x="394.33076" y="221.272" style="stroke: #000000; stroke-width: 0.8"/>
      </g>
     </g>
     <g id="text_4">
      <!-- 6 -->
      <g transform="translate(391.14951 235.870437) scale(0.1 -0.1)">
       <defs>
        <path id="DejaVuSans-36" d="M 2113 2584 
Q 1688 2584 1439 2293 
Q 1191 2003 1191 1497 
Q 1191 994 1439 701 
Q 1688 409 2113 409 
Q 2538 409 2786 701 
Q 3034 994 3034 1497 
Q 3034 2003 2786 2293 
Q 2538 2584 2113 2584 
z
M 3366 4563 
L 3366 3988 
Q 3128 4100 2886 4159 
Q 2644 4219 2406 4219 
Q 1781 4219 1451 3797 
Q 1122 3375 1075 2522 
Q 1259 2794 1537 2939 
Q 1816 3084 2150 3084 
Q 2853 3084 3261 2657 
Q 3669 2231 3669 1497 
Q 3669 778 3244 343 
Q 2819 -91 2113 -91 
Q 1303 -91 875 529 
Q 447 1150 447 2328 
Q 447 3434 972 4092 
Q 1497 4750 2381 4750 
Q 2619 4750 2861 4703 
Q 3103 4656 3366 4563 
z
" transform="scale(0.015625)"/>
       </defs>
       <use xlink:href="#DejaVuSans-36"/>
      </g>
     </g>
    </g>
    <g id="xtick_5">
     <g id="line2d_9">
      <path d="M 498.324622 221.272 
L 498.324622 41.856 
" clip-path="url(#p2d40c52fbe)" style="fill: none; stroke: #b0b0b0; stroke-opacity: 0.25; stroke-width: 0.8; stroke-linecap: square"/>
     </g>
     <g id="line2d_10">
      <g>
       <use xlink:href="#m2f164313a1" x="498.324622" y="221.272" style="stroke: #000000; stroke-width: 0.8"/>
      </g>
     </g>
     <g id="text_5">
      <!-- 8 -->
      <g transform="translate(495.143372 235.870437) scale(0.1 -0.1)">
       <defs>
        <path id="DejaVuSans-38" d="M 2034 2216 
Q 1584 2216 1326 1975 
Q 1069 1734 1069 1313 
Q 1069 891 1326 650 
Q 1584 409 2034 409 
Q 2484 409 2743 651 
Q 3003 894 3003 1313 
Q 3003 1734 2745 1975 
Q 2488 2216 2034 2216 
z
M 1403 2484 
Q 997 2584 770 2862 
Q 544 3141 544 3541 
Q 544 4100 942 4425 
Q 1341 4750 2034 4750 
Q 2731 4750 3128 4425 
Q 3525 4100 3525 3541 
Q 3525 3141 3298 2862 
Q 3072 2584 2669 2484 
Q 3125 2378 3379 2068 
Q 3634 1759 3634 1313 
Q 3634 634 3220 271 
Q 2806 -91 2034 -91 
Q 1263 -91 848 271 
Q 434 634 434 1313 
Q 434 1759 690 2068 
Q 947 2378 1403 2484 
z
M 1172 3481 
Q 1172 3119 1398 2916 
Q 1625 2713 2034 2713 
Q 2441 2713 2670 2916 
Q 2900 3119 2900 3481 
Q 2900 3844 2670 4047 
Q 2441 4250 2034 4250 
Q 1625 4250 1398 4047 
Q 1172 3844 1172 3481 
z
" transform="scale(0.015625)"/>
       </defs>
       <use xlink:href="#DejaVuSans-38"/>
      </g>
     </g>
    </g>
    <g id="xtick_6">
     <g id="line2d_11">
      <path d="M 602.318485 221.272 
L 602.318485 41.856 
" clip-path="url(#p2d40c52fbe)" style="fill: none; stroke: #b0b0b0; stroke-opacity: 0.25; stroke-width: 0.8; stroke-linecap: square"/>
     </g>
     <g id="line2d_12">
      <g>
       <use xlink:href="#m2f164313a1" x="602.318485" y="221.272" style="stroke: #000000; stroke-width: 0.8"/>
      </g>
     </g>
     <g id="text_6">
      <!-- 10 -->
      <g transform="translate(595.955985 235.870437) scale(0.1 -0.1)">
       <defs>
        <path id="DejaVuSans-31" d="M 794 531 
L 1825 531 
L 1825 4091 
L 703 3866 
L 703 4441 
L 1819 4666 
L 2450 4666 
L 2450 531 
L 3481 531 
L 3481 0 
L 794 0 
L 794 531 
z
" transform="scale(0.015625)"/>
       </defs>
       <use xlink:href="#DejaVuSans-31"/>
       <use xlink:href="#DejaVuSans-30" transform="translate(63.623047 0)"/>
      </g>
     </g>
    </g>
    <g id="text_7">
     <!-- t [arb.] -->
     <g transform="translate(324.936762 249.548563) scale(0.1 -0.1)">
      <defs>
       <path id="DejaVuSans-74" d="M 1172 4494 
L 1172 3500 
L 2356 3500 
L 2356 3053 
L 1172 3053 
L 1172 1153 
Q 1172 725 1289 603 
Q 1406 481 1766 481 
L 2356 481 
L 2356 0 
L 1766 0 
Q 1100 0 847 248 
Q 594 497 594 1153 
L 594 3053 
L 172 3053 
L 172 3500 
L 594 3500 
L 594 4494 
L 1172 4494 
z
" transform="scale(0.015625)"/>
       <path id="DejaVuSans-20" transform="scale(0.015625)"/>
       <path id="DejaVuSans-5b" d="M 550 4863 
L 1875 4863 
L 1875 4416 
L 1125 4416 
L 1125 -397 
L 1875 -397 
L 1875 -844 
L 550 -844 
L 550 4863 
z
" transform="scale(0.015625)"/>
       <path id="DejaVuSans-61" d="M 2194 1759 
Q 1497 1759 1228 1600 
Q 959 1441 959 1056 
Q 959 750 1161 570 
Q 1363 391 1709 391 
Q 2188 391 2477 730 
Q 2766 1069 2766 1631 
L 2766 1759 
L 2194 1759 
z
M 3341 1997 
L 3341 0 
L 2766 0 
L 2766 531 
Q 2569 213 2275 61 
Q 1981 -91 1556 -91 
Q 1019 -91 701 211 
Q 384 513 384 1019 
Q 384 1609 779 1909 
Q 1175 2209 1959 2209 
L 2766 2209 
L 2766 2266 
Q 2766 2663 2505 2880 
Q 2244 3097 1772 3097 
Q 1472 3097 1187 3025 
Q 903 2953 641 2809 
L 641 3341 
Q 956 3463 1253 3523 
Q 1550 3584 1831 3584 
Q 2591 3584 2966 3190 
Q 3341 2797 3341 1997 
z
" transform="scale(0.015625)"/>
       <path id="DejaVuSans-72" d="M 2631 2963 
Q 2534 3019 2420 3045 
Q 2306 3072 2169 3072 
Q 1681 3072 1420 2755 
Q 1159 2438 1159 1844 
L 1159 0 
L 581 0 
L 581 3500 
L 1159 3500 
L 1159 2956 
Q 1341 3275 1631 3429 
Q 1922 3584 2338 3584 
Q 2397 3584 2469 3576 
Q 2541 3569 2628 3553 
L 2631 2963 
z
" transform="scale(0.015625)"/>
       <path id="DejaVuSans-62" d="M 3116 1747 
Q 3116 2381 2855 2742 
Q 2594 3103 2138 3103 
Q 1681 3103 1420 2742 
Q 1159 2381 1159 1747 
Q 1159 1113 1420 752 
Q 1681 391 2138 391 
Q 2594 391 2855 752 
Q 3116 1113 3116 1747 
z
M 1159 2969 
Q 1341 3281 1617 3432 
Q 1894 3584 2278 3584 
Q 2916 3584 3314 3078 
Q 3713 2572 3713 1747 
Q 3713 922 3314 415 
Q 2916 -91 2278 -91 
Q 1894 -91 1617 61 
Q 1341 213 1159 525 
L 1159 0 
L 581 0 
L 581 4863 
L 1159 4863 
L 1159 2969 
z
" transform="scale(0.015625)"/>
       <path id="DejaVuSans-2e" d="M 684 794 
L 1344 794 
L 1344 0 
L 684 0 
L 684 794 
z
" transform="scale(0.015625)"/>
       <path id="DejaVuSans-5d" d="M 1947 4863 
L 1947 -844 
L 622 -844 
L 622 -397 
L 1369 -397 
L 1369 4416 
L 622 4416 
L 622 4863 
L 1947 4863 
z
" transform="scale(0.015625)"/>
      </defs>
      <use xlink:href="#DejaVuSans-74"/>
      <use xlink:href="#DejaVuSans-20" transform="translate(39.208984 0)"/>
      <use xlink:href="#DejaVuSans-5b" transform="translate(70.996094 0)"/>
      <use xlink:href="#DejaVuSans-61" transform="translate(110.009766 0)"/>
      <use xlink:href="#DejaVuSans-72" transform="translate(171.289062 0)"/>
      <use xlink:href="#DejaVuSans-62" transform="translate(212.402344 0)"/>
      <use xlink:href="#DejaVuSans-2e" transform="translate(275.878906 0)"/>
      <use xlink:href="#DejaVuSans-5d" transform="translate(307.666016 0)"/>
     </g>
    </g>
   </g>
   <g id="matplotlib.axis_2">
    <g id="ytick_1">
     <g id="line2d_13">
      <path d="M 56.357054 213.550108 
L 628.183658 213.550108 
" clip-path="url(#p2d40c52fbe)" style="fill: none; stroke: #b0b0b0; stroke-opacity: 0.25; stroke-width: 0.8; stroke-linecap: square"/>
     </g>
     <g id="line2d_14">
      <defs>
       <path id="m7827bc575a" d="M 0 0 
L -3.5 0 
" style="stroke: #000000; stroke-width: 0.8"/>
      </defs>
      <g>
       <use xlink:href="#m7827bc575a" x="56.357054" y="213.550108" style="stroke: #000000; stroke-width: 0.8"/>
      </g>
     </g>
     <g id="text_8">
      <!-- −1.5 -->
      <g transform="translate(25.074241 217.349326) scale(0.1 -0.1)">
       <defs>
        <path id="DejaVuSans-2212" d="M 678 2272 
L 4684 2272 
L 4684 1741 
L 678 1741 
L 678 2272 
z
" transform="scale(0.015625)"/>
        <path id="DejaVuSans-35" d="M 691 4666 
L 3169 4666 
L 3169 4134 
L 1269 4134 
L 1269 2991 
Q 1406 3038 1543 3061 
Q 1681 3084 1819 3084 
Q 2600 3084 3056 2656 
Q 3513 2228 3513 1497 
Q 3513 744 3044 326 
Q 2575 -91 1722 -91 
Q 1428 -91 1123 -41 
Q 819 9 494 109 
L 494 744 
Q 775 591 1075 516 
Q 1375 441 1709 441 
Q 2250 441 2565 725 
Q 2881 1009 2881 1497 
Q 2881 1984 2565 2268 
Q 2250 2553 1709 2553 
Q 1456 2553 1204 2497 
Q 953 2441 691 2322 
L 691 4666 
z
" transform="scale(0.015625)"/>
       </defs>
       <use xlink:href="#DejaVuSans-2212"/>
       <use xlink:href="#DejaVuSans-31" transform="translate(83.789062 0)"/>
       <use xlink:href="#DejaVuSans-2e" transform="translate(147.412109 0)"/>
       <use xlink:href="#DejaVuSans-35" transform="translate(179.199219 0)"/>
      </g>
     </g>
    </g>
    <g id="ytick_2">
     <g id="line2d_15">
      <path d="M 56.357054 185.440566 
L 628.183658 185.440566 
" clip-path="url(#p2d40c52fbe)" style="fill: none; stroke: #b0b0b0; stroke-opacity: 0.25; stroke-width: 0.8; stroke-linecap: square"/>
     </g>
     <g id="line2d_16">
      <g>
       <use xlink:href="#m7827bc575a" x="56.357054" y="185.440566" style="stroke: #000000; stroke-width: 0.8"/>
      </g>
     </g>
     <g id="text_9">
      <!-- −1.0 -->
      <g transform="translate(25.074241 189.239785) scale(0.1 -0.1)">
       <use xlink:href="#DejaVuSans-2212"/>
       <use xlink:href="#DejaVuSans-31" transform="translate(83.789062 0)"/>
       <use xlink:href="#DejaVuSans-2e" transform="translate(147.412109 0)"/>
       <use xlink:href="#DejaVuSans-30" transform="translate(179.199219 0)"/>
      </g>
     </g>
    </g>
    <g id="ytick_3">
     <g id="line2d_17">
      <path d="M 56.357054 157.331025 
L 628.183658 157.331025 
" clip-path="url(#p2d40c52fbe)" style="fill: none; stroke: #b0b0b0; stroke-opacity: 0.25; stroke-width: 0.8; stroke-linecap: square"/>
     </g>
     <g id="line2d_18">
      <g>
       <use xlink:href="#m7827bc575a" x="56.357054" y="157.331025" style="stroke: #000000; stroke-width: 0.8"/>
      </g>
     </g>
     <g id="text_10">
      <!-- −0.5 -->
      <g transform="translate(25.074241 161.130244) scale(0.1 -0.1)">
       <use xlink:href="#DejaVuSans-2212"/>
       <use xlink:href="#DejaVuSans-30" transform="translate(83.789062 0)"/>
       <use xlink:href="#DejaVuSans-2e" transform="translate(147.412109 0)"/>
       <use xlink:href="#DejaVuSans-35" transform="translate(179.199219 0)"/>
      </g>
     </g>
    </g>
    <g id="ytick_4">
     <g id="line2d_19">
      <path d="M 56.357054 129.221483 
L 628.183658 129.221483 
" clip-path="url(#p2d40c52fbe)" style="fill: none; stroke: #b0b0b0; stroke-opacity: 0.25; stroke-width: 0.8; stroke-linecap: square"/>
     </g>
     <g id="line2d_20">
      <g>
       <use xlink:href="#m7827bc575a" x="56.357054" y="129.221483" style="stroke: #000000; stroke-width: 0.8"/>
      </g>
     </g>
     <g id="text_11">
      <!-- 0.0 -->
      <g transform="translate(33.453929 133.020702) scale(0.1 -0.1)">
       <use xlink:href="#DejaVuSans-30"/>
       <use xlink:href="#DejaVuSans-2e" transform="translate(63.623047 0)"/>
       <use xlink:href="#DejaVuSans-30" transform="translate(95.410156 0)"/>
      </g>
     </g>
    </g>
    <g id="ytick_5">
     <g id="line2d_21">
      <path d="M 56.357054 101.111942 
L 628.183658 101.111942 
" clip-path="url(#p2d40c52fbe)" style="fill: none; stroke: #b0b0b0; stroke-opacity: 0.25; stroke-width: 0.8; stroke-linecap: square"/>
     </g>
     <g id="line2d_22">
      <g>
       <use xlink:href="#m7827bc575a" x="56.357054" y="101.111942" style="stroke: #000000; stroke-width: 0.8"/>
      </g>
     </g>
     <g id="text_12">
      <!-- 0.5 -->
      <g transform="translate(33.453929 104.911161) scale(0.1 -0.1)">
       <use xlink:href="#DejaVuSans-30"/>
       <use xlink:href="#DejaVuSans-2e" transform="translate(63.623047 0)"/>
       <use xlink:href="#DejaVuSans-35" transform="translate(95.410156 0)"/>
      </g>
     </g>
    </g>
    <g id="ytick_6">
     <g id="line2d_23">
      <path d="M 56.357054 73.002401 
L 628.183658 73.002401 
" clip-path="url(#p2d40c52fbe)" style="fill: none; stroke: #b0b0b0; stroke-opacity: 0.25; stroke-width: 0.8; stroke-linecap: square"/>
     </g>
     <g id="line2d_24">
      <g>
       <use xlink:href="#m7827bc575a" x="56.357054" y="73.002401" style="stroke: #000000; stroke-width: 0.8"/>
      </g>
     </g>
     <g id="text_13">
      <!-- 1.0 -->
      <g transform="translate(33.453929 76.801619) scale(0.1 -0.1)">
       <use xlink:href="#DejaVuSans-31"/>
       <use xlink:href="#DejaVuSans-2e" transform="translate(63.623047 0)"/>
       <use xlink:href="#DejaVuSans-30" transform="translate(95.410156 0)"/>
      </g>
     </g>
    </g>
    <g id="ytick_7">
     <g id="line2d_25">
      <path d="M 56.357054 44.892859 
L 628.183658 44.892859 
" clip-path="url(#p2d40c52fbe)" style="fill: none; stroke: #b0b0b0; stroke-opacity: 0.25; stroke-width: 0.8; stroke-linecap: square"/>
     </g>
     <g id="line2d_26">
      <g>
       <use xlink:href="#m7827bc575a" x="56.357054" y="44.892859" style="stroke: #000000; stroke-width: 0.8"/>
      </g>
     </g>
     <g id="text_14">
      <!-- 1.5 -->
      <g transform="translate(33.453929 48.692078) scale(0.1 -0.1)">
       <use xlink:href="#DejaVuSans-31"/>
       <use xlink:href="#DejaVuSans-2e" transform="translate(63.623047 0)"/>
       <use xlink:href="#DejaVuSans-35" transform="translate(95.410156 0)"/>
      </g>
     </g>
    </g>
    <g id="text_15">
     <!-- [arb.] -->
     <g transform="translate(18.994554 145.348375) rotate(-90) scale(0.1 -0.1)">
      <use xlink:href="#DejaVuSans-5b"/>
      <use xlink:href="#DejaVuSans-61" transform="translate(39.013672 0)"/>
      <use xlink:href="#DejaVuSans-72" transform="translate(100.292969 0)"/>
      <use xlink:href="#DejaVuSans-62" transform="translate(141.40625 0)"/>
      <use xlink:href="#DejaVuSans-2e" transform="translate(204.882812 0)"/>
      <use xlink:href="#DejaVuSans-5d" transform="translate(236.669922 0)"/>
     </g>
    </g>
   </g>
   <g id="line2d_27">
    <path d="M 82.349172 129.221483 
L 85.141976 93.724389 
L 86.665324 77.102114 
L 87.807834 66.770349 
L 88.8234 59.465632 
L 89.712019 54.698193 
L 90.346747 52.283802 
L 90.981475 50.726726 
L 91.489258 50.110317 
L 91.870095 50.018289 
L 92.250932 50.244171 
L 92.631769 50.787056 
L 93.139551 52.000071 
L 93.774279 54.289638 
L 94.535953 58.136365 
L 95.424572 64.059885 
L 96.440138 72.561707 
L 97.582648 84.041508 
L 99.105996 101.799713 
L 101.644908 134.677178 
L 104.183821 166.595449 
L 105.707169 182.913918 
L 106.849679 192.950547 
L 107.865244 199.953898 
L 108.626918 203.893003 
L 109.261646 206.262806 
L 109.769429 207.541499 
L 110.277212 208.261465 
L 110.658048 208.431536 
L 111.038885 208.283668 
L 111.419722 207.818457 
L 111.927505 206.707938 
L 112.435287 205.04464 
L 113.070015 202.206617 
L 113.831689 197.730898 
L 114.720309 191.126442 
L 115.735874 181.934219 
L 117.00533 168.367327 
L 118.782569 146.60105 
L 123.606503 85.718297 
L 125.002905 71.645514 
L 126.145416 62.403751 
L 127.034035 56.865975 
L 127.795709 53.372286 
L 128.430437 51.388404 
L 128.93822 50.425011 
L 129.319056 50.071136 
L 129.699893 50.034958 
L 130.08073 50.316624 
L 130.461567 50.915002 
L 130.96935 52.20117 
L 131.604078 54.580101 
L 132.365752 58.529708 
L 133.254371 64.565169 
L 134.269936 73.181291 
L 135.539392 86.163017 
L 137.06274 104.210282 
L 139.98249 142.196661 
L 142.140565 168.828066 
L 143.536967 183.558754 
L 144.679478 193.470166 
L 145.695043 200.346342 
L 146.456717 204.182518 
L 147.091445 206.462928 
L 147.599228 207.668451 
L 148.10701 208.314343 
L 148.487847 208.428581 
L 148.868684 208.224892 
L 149.249521 207.704096 
L 149.757303 206.520216 
L 150.392032 204.26627 
L 151.153705 200.460592 
L 152.042325 194.581797 
L 153.05789 186.125727 
L 154.200401 174.689015 
L 155.723748 156.971931 
L 158.135715 125.78624 
L 160.801573 92.157028 
L 162.324921 75.787357 
L 163.467432 65.701274 
L 164.482997 58.647584 
L 165.244671 54.667679 
L 165.879399 52.262405 
L 166.514127 50.714683 
L 167.021909 50.105859 
L 167.402746 50.019543 
L 167.783583 50.251133 
L 168.16442 50.799698 
L 168.672203 52.020204 
L 169.306931 54.318925 
L 170.068605 58.176198 
L 170.957224 64.111202 
L 171.972789 72.624765 
L 173.1153 84.115613 
L 174.638647 101.884339 
L 177.17756 134.767145 
L 179.716473 166.674939 
L 181.23982 182.980188 
L 182.382331 193.004064 
L 183.397896 199.994446 
L 184.15957 203.923044 
L 184.794298 206.283716 
L 185.302081 207.554931 
L 185.809863 208.267324 
L 186.1907 208.431684 
L 186.571537 208.278105 
L 186.952374 207.807205 
L 187.460156 206.689176 
L 187.967939 205.018501 
L 188.602667 202.171525 
L 189.364341 197.685587 
L 190.25296 191.070138 
L 191.268525 181.86687 
L 192.537982 168.2889 
L 194.315221 146.513052 
L 199.139155 85.642959 
L 200.535557 71.583615 
L 201.678067 62.35536 
L 202.566687 56.829324 
L 203.32836 53.346343 
L 203.963089 51.371711 
L 204.470871 50.415856 
L 204.851708 50.06768 
L 205.232545 50.037216 
L 205.613382 50.324586 
L 205.994219 50.928637 
L 206.502001 52.22228 
L 207.136729 54.610336 
L 207.898403 58.570439 
L 208.787023 64.617309 
L 209.802588 73.245064 
L 211.072044 86.238741 
L 212.595392 104.295869 
L 215.642087 143.932738 
L 217.673217 168.906141 
L 219.069619 183.624338 
L 220.21213 193.522872 
L 221.227695 200.385991 
L 221.989369 204.211611 
L 222.624097 206.48286 
L 223.131879 207.68089 
L 223.639662 208.3192 
L 224.020499 208.427725 
L 224.401336 208.218328 
L 224.782172 207.691849 
L 225.289955 206.500474 
L 225.924683 204.237361 
L 226.686357 200.421117 
L 227.574976 194.530808 
L 228.590541 186.062954 
L 229.733052 174.615138 
L 231.2564 156.887444 
L 233.668367 125.696143 
L 236.334225 92.07735 
L 237.857573 75.720817 
L 239.000083 65.647436 
L 240.015648 58.606681 
L 240.777322 54.637262 
L 241.41205 52.241107 
L 242.046779 50.702741 
L 242.427615 50.198996 
L 242.808452 50.012436 
L 243.189289 50.143809 
L 243.570126 50.592589 
L 244.077909 51.681409 
L 244.585691 53.323391 
L 245.220419 56.135538 
L 245.982093 60.581714 
L 246.870713 67.154376 
L 247.886278 76.314633 
L 249.155734 89.849435 
L 250.806027 109.960884 
L 256.010798 175.269675 
L 257.280254 187.758393 
L 258.29582 195.898983 
L 259.184439 201.470619 
L 259.946113 204.99521 
L 260.580841 207.005788 
L 261.088623 207.990944 
L 261.46946 208.361277 
L 261.850297 208.413954 
L 262.231134 208.148764 
L 262.611971 207.566772 
L 263.119754 206.302198 
L 263.754482 203.949636 
L 264.516156 200.030371 
L 265.404775 194.027902 
L 266.42034 185.445435 
L 267.689796 172.49832 
L 269.213144 154.479669 
L 272.132894 116.503302 
L 274.290969 89.840663 
L 275.687371 75.074009 
L 276.829882 65.125478 
L 277.845447 58.211643 
L 278.607121 54.34501 
L 279.241849 52.038163 
L 279.749632 50.811008 
L 280.257414 50.143225 
L 280.638251 50.012492 
L 281.019088 50.199692 
L 281.399925 50.704075 
L 281.907707 51.866297 
L 282.542435 54.093757 
L 283.177164 57.158362 
L 283.938837 61.892205 
L 284.827457 68.773606 
L 285.969968 79.534886 
L 287.36637 95.074155 
L 289.270554 119.041054 
L 293.078923 167.52841 
L 294.475325 182.463063 
L 295.617836 192.585752 
L 296.633401 199.676743 
L 297.395075 203.686904 
L 298.029803 206.118496 
L 298.664531 207.693227 
L 299.172313 208.323954 
L 299.55315 208.426767 
L 299.933987 208.211661 
L 300.314824 207.679501 
L 300.822607 206.48063 
L 301.457335 204.208355 
L 302.219009 200.381551 
L 303.107628 194.479734 
L 304.123193 186.000108 
L 305.265704 174.541202 
L 306.789051 156.802921 
L 309.327964 123.935656 
L 311.866877 91.99772 
L 313.390224 75.654348 
L 314.532735 65.593681 
L 315.5483 58.565868 
L 316.309974 54.606942 
L 316.944702 52.219909 
L 317.452485 50.927103 
L 317.960267 50.192841 
L 318.341104 50.011991 
L 318.721941 50.149076 
L 319.102778 50.603546 
L 319.61056 51.699881 
L 320.118343 53.349246 
L 320.753071 56.170357 
L 321.514745 60.626768 
L 322.403364 67.210448 
L 323.418929 76.381785 
L 324.688386 89.927715 
L 326.338679 110.048374 
L 331.416504 173.972638 
L 332.68596 186.680391 
L 333.828471 195.947623 
L 334.717091 201.507542 
L 335.478764 205.021436 
L 336.113493 207.022772 
L 336.621275 208.000394 
L 337.002112 208.365028 
L 337.382949 208.411992 
L 337.763786 208.141097 
L 338.144623 207.55343 
L 338.652405 206.281377 
L 339.287133 203.919681 
L 340.048807 199.989905 
L 340.937427 193.976004 
L 341.952992 185.381873 
L 343.222448 172.422757 
L 344.745796 154.394176 
L 347.665545 116.414295 
L 349.823621 89.76244 
L 351.220023 75.008222 
L 352.362534 65.072531 
L 353.378099 58.171728 
L 354.139772 54.315637 
L 354.774501 52.017942 
L 355.282283 50.798276 
L 355.790066 50.138072 
L 356.170903 50.013051 
L 356.551739 50.205961 
L 356.932576 50.716028 
L 357.440359 51.885751 
L 358.075087 54.122385 
L 358.709815 57.195846 
L 359.471489 61.939755 
L 360.360108 68.831926 
L 361.502619 79.605154 
L 362.899021 95.155551 
L 364.803206 119.130497 
L 368.611575 167.607323 
L 370.007977 182.529802 
L 371.150487 192.639827 
L 372.166052 199.717911 
L 372.927726 203.7176 
L 373.562454 206.140082 
L 374.197182 207.705462 
L 374.704965 208.328606 
L 375.085802 208.425706 
L 375.466639 208.204892 
L 375.847476 207.66705 
L 376.355258 206.460687 
L 376.989986 204.179251 
L 377.75166 200.341892 
L 378.64028 194.428576 
L 379.655845 185.937188 
L 380.798355 174.467208 
L 382.321703 156.718363 
L 384.860616 123.845676 
L 387.399528 91.918138 
L 388.922876 75.587947 
L 390.065387 65.540007 
L 391.080952 58.525148 
L 391.842625 54.576718 
L 392.477354 52.19881 
L 392.985136 50.91348 
L 393.492919 50.186789 
L 393.873756 50.011649 
L 394.254592 50.154445 
L 394.635429 50.614605 
L 395.143212 51.718454 
L 395.650994 53.3752 
L 396.285723 56.20527 
L 397.047396 60.671912 
L 397.936016 67.2666 
L 398.951581 76.449005 
L 400.221037 90.006047 
L 401.87133 110.135889 
L 406.949156 174.047021 
L 408.218612 186.742431 
L 409.361123 195.996177 
L 410.249742 201.54437 
L 411.011416 205.047564 
L 411.646144 207.039656 
L 412.153927 208.009741 
L 412.534764 208.368677 
L 412.915601 208.409928 
L 413.296437 208.133328 
L 413.677274 207.539987 
L 414.185057 206.260456 
L 414.819785 203.889629 
L 415.581459 199.949347 
L 416.470078 193.924023 
L 417.485643 185.318238 
L 418.7551 172.347139 
L 420.278447 154.30865 
L 423.198197 116.325306 
L 425.356273 89.684267 
L 426.752675 74.942505 
L 427.895185 65.019668 
L 428.91075 58.131906 
L 429.672424 54.286361 
L 430.307152 51.997821 
L 430.814935 50.785645 
L 431.322717 50.133022 
L 431.703554 50.013713 
L 432.084391 50.212332 
L 432.465228 50.728082 
L 432.973011 51.905305 
L 433.607739 54.15111 
L 434.369412 57.947403 
L 435.258032 63.815968 
L 436.273597 72.261566 
L 437.416108 83.688406 
L 438.939455 101.39605 
L 441.351422 132.576725 
L 444.017281 166.215152 
L 445.540628 182.596472 
L 446.683139 192.693821 
L 447.698704 199.758987 
L 448.460378 203.7482 
L 449.095106 206.161568 
L 449.729834 207.717596 
L 450.237617 208.333155 
L 450.618454 208.424543 
L 450.99929 208.198021 
L 451.380127 207.654499 
L 451.88791 206.440644 
L 452.522638 204.15005 
L 453.284312 200.302141 
L 454.172931 194.377334 
L 455.188496 185.874195 
L 456.331007 174.393155 
L 457.854355 156.633769 
L 460.393267 123.755703 
L 462.93218 91.838605 
L 464.455527 75.521616 
L 465.598038 65.486417 
L 466.613603 58.484519 
L 467.375277 54.546591 
L 468.010005 52.177812 
L 468.517788 50.899957 
L 469.02557 50.18084 
L 469.406407 50.011409 
L 469.787244 50.159917 
L 470.168081 50.625766 
L 470.675864 51.737127 
L 471.183646 53.401252 
L 471.818374 56.240279 
L 472.580048 60.717144 
L 473.468667 67.322832 
L 474.484232 76.516294 
L 475.753689 90.084429 
L 477.530928 111.85178 
L 482.354862 172.733118 
L 483.751264 186.804396 
L 484.893774 196.044645 
L 485.782394 201.581105 
L 486.544068 205.073594 
L 487.178796 207.056439 
L 487.686578 208.018987 
L 488.067415 208.372224 
L 488.448252 208.407761 
L 488.829089 208.125456 
L 489.209926 207.526441 
L 489.717708 206.239435 
L 490.352437 203.859481 
L 491.11411 199.908697 
L 492.00273 193.871957 
L 493.018295 185.25453 
L 494.287751 172.271464 
L 495.811099 154.223092 
L 498.730848 116.236333 
L 500.888924 89.606146 
L 502.285326 74.876858 
L 503.427837 64.966888 
L 504.443402 58.092175 
L 505.205076 54.257182 
L 505.839804 51.9778 
L 506.347586 50.773116 
L 506.855369 50.128074 
L 507.236206 50.014477 
L 507.617043 50.218805 
L 507.99788 50.740239 
L 508.505662 51.924959 
L 509.14039 54.179933 
L 509.902064 57.986796 
L 510.790684 63.866882 
L 511.806249 72.324273 
L 512.948759 83.762231 
L 514.472107 101.480505 
L 516.884074 132.666827 
L 519.549932 166.294873 
L 521.07328 182.663073 
L 522.21579 192.747732 
L 523.231356 199.799972 
L 523.993029 203.778702 
L 524.627758 206.182955 
L 525.262486 207.729628 
L 525.643323 208.23842 
L 526.024159 208.43005 
L 526.404996 208.303748 
L 526.785833 207.860022 
L 527.293616 206.777875 
L 527.801398 205.142451 
L 528.436127 202.338265 
L 529.1978 197.901182 
L 530.08642 191.338309 
L 531.101985 182.187901 
L 532.371441 168.662994 
L 534.021734 148.559745 
L 539.226505 83.238469 
L 540.495962 70.73855 
L 541.511527 62.587244 
L 542.400146 57.005209 
L 543.16182 53.471126 
L 543.796548 51.452344 
L 544.304331 50.460499 
L 544.685168 50.085107 
L 545.066004 50.027357 
L 545.446841 50.28748 
L 545.827678 50.864433 
L 546.335461 52.122366 
L 546.970189 54.466815 
L 547.731863 58.376743 
L 548.620482 64.369055 
L 549.636047 72.941156 
L 550.905504 85.877602 
L 552.428851 103.887416 
L 555.348601 141.860623 
L 557.506676 168.532806 
L 558.903078 183.310486 
L 560.045589 193.270408 
L 561.061154 200.195807 
L 561.822828 204.071795 
L 562.457556 206.386766 
L 562.965339 207.620568 
L 563.473121 208.295081 
L 563.853958 208.430885 
L 564.234795 208.248754 
L 564.615632 207.74942 
L 565.123414 206.593858 
L 565.758143 204.374547 
L 566.392871 201.317808 
L 567.154545 196.592909 
L 568.043164 189.721078 
L 569.185675 178.970417 
L 570.582077 163.441047 
L 572.486261 139.481319 
L 576.29463 90.984664 
L 577.691032 76.039219 
L 578.833543 65.905298 
L 579.849108 58.802853 
L 580.610782 54.783398 
L 581.24551 52.34372 
L 581.880238 50.760689 
L 582.388021 50.123229 
L 582.768857 50.015344 
L 583.149694 50.225381 
L 583.530531 50.752497 
L 584.038314 51.944713 
L 584.673042 54.208853 
L 585.434716 58.02628 
L 586.323335 63.91788 
L 587.3389 72.387054 
L 588.481411 83.836114 
L 590.004759 101.564996 
L 592.416726 132.756924 
L 595.082584 166.374546 
L 596.605931 182.729604 
L 597.748442 192.801561 
L 598.764007 199.840866 
L 599.525681 203.809109 
L 600.160409 206.204241 
L 600.795137 207.741558 
L 601.175974 208.244666 
L 601.556811 208.430586 
L 601.937648 208.298572 
L 602.191539 208.034143 
L 602.191539 208.034143 
" clip-path="url(#p2d40c52fbe)" style="fill: none; stroke: #1f77b4; stroke-width: 1.5; stroke-linecap: square"/>
   </g>
   <g id="line2d_28">
    <path d="M 82.349172 129.221483 
L 84.634194 100.505863 
L 86.157541 84.110766 
L 87.300052 74.013788 
L 88.315617 66.95065 
L 89.077291 62.961085 
L 89.712019 60.544659 
L 90.346747 58.981937 
L 90.85453 58.357731 
L 91.235367 58.25762 
L 91.616203 58.473285 
L 91.99704 59.003635 
L 92.504823 60.196031 
L 93.139551 62.453019 
L 93.901225 66.249824 
L 94.789844 72.099014 
L 95.805409 80.493387 
L 96.94792 91.822592 
L 98.471268 109.331124 
L 101.01018 141.678666 
L 103.422147 171.509419 
L 104.945495 187.659584 
L 106.088006 197.619496 
L 107.103571 204.588735 
L 107.865244 208.521957 
L 108.499973 210.89879 
L 109.134701 212.427116 
L 109.515538 212.929033 
L 109.896375 213.116727 
L 110.277212 212.989287 
L 110.658048 212.547065 
L 111.165831 211.470755 
L 111.673613 209.845168 
L 112.308342 207.05824 
L 113.070015 202.647956 
L 113.958635 196.122675 
L 114.9742 187.02027 
L 116.243656 173.556902 
L 117.893949 153.52394 
L 123.09872 88.191805 
L 124.368177 75.609779 
L 125.510687 66.464684 
L 126.399307 61.000593 
L 127.160981 57.566441 
L 127.795709 55.628187 
L 128.303491 54.69794 
L 128.684328 54.366636 
L 129.065165 54.350844 
L 129.446002 54.650518 
L 129.826839 55.264345 
L 130.334622 56.56684 
L 130.96935 58.958796 
L 131.731023 62.912379 
L 132.619643 68.935295 
L 133.635208 77.513193 
L 134.904664 90.410202 
L 136.554958 109.879455 
L 142.394457 181.539245 
L 143.663913 193.173207 
L 144.679478 200.544836 
L 145.568097 205.398776 
L 146.329771 208.286486 
L 146.837554 209.533001 
L 147.345336 210.225455 
L 147.726173 210.377962 
L 148.10701 210.215157 
L 148.487847 209.737618 
L 148.99563 208.614677 
L 149.630358 206.44128 
L 150.265086 203.435362 
L 151.02676 198.776651 
L 151.915379 191.987132 
L 153.05789 181.346195 
L 154.454292 165.948957 
L 156.358476 142.148192 
L 160.293791 92.355777 
L 161.690193 77.620952 
L 162.832704 67.67629 
L 163.848269 60.747607 
L 164.609942 56.858106 
L 165.244671 54.524438 
L 165.752453 53.270773 
L 166.260236 52.572049 
L 166.641073 52.415258 
L 167.021909 52.574012 
L 167.402746 53.047621 
L 167.910529 54.165315 
L 168.418311 55.831036 
L 169.05304 58.665194 
L 169.814713 63.125923 
L 170.703333 69.698432 
L 171.845844 80.087333 
L 173.242245 95.225574 
L 175.14643 118.773498 
L 179.20869 169.882881 
L 180.605092 184.466921 
L 181.747603 194.277065 
L 182.763168 201.079644 
L 183.524842 204.871641 
L 184.15957 207.122785 
L 184.667352 208.309953 
L 185.175135 208.94203 
L 185.555972 209.048894 
L 185.936809 208.840385 
L 186.317646 208.317304 
L 186.825428 207.134274 
L 187.460156 204.887516 
L 188.22183 201.099115 
L 189.11045 195.251683 
L 190.126015 186.844833 
L 191.268525 175.478074 
L 192.791873 157.872475 
L 195.20384 126.88455 
L 197.869698 93.462261 
L 199.393046 77.186399 
L 200.535557 67.152748 
L 201.551122 60.13032 
L 202.312795 56.163471 
L 202.947524 53.761918 
L 203.582252 52.211227 
L 204.090034 51.595151 
L 204.470871 51.500541 
L 204.851708 51.721397 
L 205.232545 52.256807 
L 205.740328 53.456054 
L 206.375056 55.72236 
L 207.136729 59.532502 
L 208.025349 65.40189 
L 209.040914 73.827844 
L 210.183425 85.206519 
L 211.706772 102.809044 
L 214.245685 135.396316 
L 216.784598 167.025206 
L 218.307945 183.189315 
L 219.450456 193.126274 
L 220.466021 200.055436 
L 221.227695 203.948922 
L 221.862423 206.287756 
L 222.370205 207.546478 
L 222.877988 208.250853 
L 223.258825 208.412147 
L 223.639662 208.258023 
L 224.020499 207.789082 
L 224.528281 206.677516 
L 225.036064 205.017624 
L 225.670792 202.190017 
L 226.432466 197.735564 
L 227.321085 191.167385 
L 228.33665 182.030495 
L 229.606107 168.550761 
L 231.383345 146.931886 
L 236.207279 86.486815 
L 237.603681 72.518897 
L 238.746192 63.346729 
L 239.634812 57.850971 
L 240.396485 54.383937 
L 241.031213 52.415253 
L 241.538996 51.459256 
L 241.919833 51.108093 
L 242.30067 51.072172 
L 242.681507 51.351624 
L 243.062344 51.945315 
L 243.570126 53.2214 
L 244.204854 55.58163 
L 244.966528 59.500064 
L 245.855148 65.487648 
L 246.870713 74.034997 
L 248.140169 86.912279 
L 249.663517 104.812802 
L 252.710212 144.117511 
L 254.741342 168.887285 
L 256.137744 183.487375 
L 257.280254 193.30745 
L 258.29582 200.116845 
L 259.057493 203.912944 
L 259.692222 206.166983 
L 260.200004 207.356198 
L 260.707787 207.990142 
L 261.088623 208.098321 
L 261.46946 207.891079 
L 261.850297 207.369239 
L 262.35808 206.187867 
L 262.992808 203.943258 
L 263.754482 200.157687 
L 264.643101 194.314116 
L 265.658666 185.912726 
L 266.801177 174.553848 
L 268.324525 156.96228 
L 270.736492 126.006227 
L 273.40235 92.633685 
L 274.925697 76.392489 
L 276.068208 66.387252 
L 277.083773 59.391425 
L 277.845447 55.445133 
L 278.480175 53.060974 
L 279.114903 51.527813 
L 279.622686 50.925789 
L 280.003523 50.8417 
L 280.38436 51.073037 
L 280.765197 51.618864 
L 281.272979 52.831863 
L 281.907707 55.115067 
L 282.669381 58.944924 
L 283.558001 64.836329 
L 284.573566 73.285852 
L 285.716076 84.688618 
L 287.239424 102.318646 
L 289.778337 134.938567 
L 292.317249 166.583108 
L 293.840597 182.749128 
L 294.983107 192.684423 
L 295.998673 199.610284 
L 296.760346 203.500401 
L 297.395075 205.835976 
L 297.902857 207.09187 
L 298.41064 207.793277 
L 298.791476 207.952286 
L 299.172313 207.795852 
L 299.55315 207.3246 
L 300.060933 206.209988 
L 300.568715 204.547139 
L 301.203443 201.716045 
L 301.965117 197.257841 
L 302.853737 190.686093 
L 303.996247 180.293654 
L 305.392649 165.142481 
L 307.296834 141.558705 
L 311.359094 90.295266 
L 312.755496 75.635525 
L 313.898007 65.7566 
L 314.913572 58.888834 
L 315.675246 55.046103 
L 316.309974 52.751858 
L 316.817756 51.529879 
L 317.325539 50.862861 
L 317.706376 50.729799 
L 318.087213 50.912188 
L 318.46805 51.409294 
L 318.975832 52.558026 
L 319.61056 54.762665 
L 320.245288 57.798059 
L 321.006962 62.488857 
L 321.895582 69.309881 
L 323.038092 79.97947 
L 324.434494 95.389652 
L 326.338679 119.162177 
L 330.147048 167.269064 
L 331.54345 182.090408 
L 332.68596 192.138086 
L 333.701526 199.178117 
L 334.463199 203.160679 
L 335.097927 205.576583 
L 335.732656 207.142454 
L 336.240438 207.771072 
L 336.621275 207.875216 
L 337.002112 207.663931 
L 337.382949 207.138064 
L 337.890731 205.951383 
L 338.52546 203.700312 
L 339.287133 199.907376 
L 340.175753 194.055962 
L 341.191318 185.6469 
L 342.333829 174.281435 
L 343.857176 156.6851 
L 346.269143 125.732265 
L 348.935001 92.379309 
L 350.458349 76.156222 
L 351.60086 66.167295 
L 352.616425 59.187528 
L 353.378099 55.254019 
L 354.012827 52.880863 
L 354.647555 51.358916 
L 355.028392 50.861781 
L 355.409229 50.679365 
L 355.790066 50.812398 
L 356.170903 51.260344 
L 356.678685 52.344181 
L 357.186468 53.976784 
L 357.821196 56.771129 
L 358.58287 61.187287 
L 359.471489 67.713609 
L 360.487054 76.807215 
L 361.75651 90.24097 
L 363.406804 110.19861 
L 368.611575 174.98493 
L 369.881031 187.368322 
L 370.896596 195.438099 
L 371.785215 200.959316 
L 372.546889 204.450142 
L 373.181617 206.439666 
L 373.6894 207.412785 
L 374.070237 207.776952 
L 374.451074 207.825942 
L 374.831911 207.559559 
L 375.212748 206.978871 
L 375.72053 205.719908 
L 376.355258 203.38052 
L 377.116932 199.485886 
L 378.005551 193.523794 
L 379.021117 185.001707 
L 380.290573 172.148819 
L 381.81392 154.265062 
L 384.73367 116.582476 
L 386.891746 90.133128 
L 388.288148 75.487956 
L 389.430658 65.623553 
L 390.446223 58.770269 
L 391.207897 54.939143 
L 391.842625 52.65492 
L 392.350408 51.441117 
L 392.858191 50.782359 
L 393.239027 50.655514 
L 393.619864 50.844114 
L 394.000701 51.347402 
L 394.508484 52.504292 
L 395.143212 54.718921 
L 395.77794 57.763978 
L 396.539614 62.465802 
L 397.428233 69.298705 
L 398.570744 79.981654 
L 399.967146 95.404676 
L 401.87133 119.187563 
L 405.679699 167.288504 
L 407.076101 182.099339 
L 408.218612 192.135704 
L 409.234177 199.164018 
L 409.995851 203.136991 
L 410.630579 205.544516 
L 411.265307 207.10176 
L 411.77309 207.723367 
L 412.153927 207.822226 
L 412.534764 207.605657 
L 412.915601 207.07453 
L 413.423383 205.880911 
L 414.058111 203.621366 
L 414.819785 199.818684 
L 415.708404 193.956693 
L 416.723969 185.536896 
L 417.86648 174.16147 
L 419.389828 156.555988 
L 421.92874 123.942403 
L 424.467653 92.259304 
L 425.991001 76.050471 
L 427.133511 66.075031 
L 428.149076 59.108865 
L 428.91075 55.186324 
L 429.545478 52.822677 
L 430.053261 51.543848 
L 430.561043 50.819243 
L 430.94188 50.642758 
L 431.322717 50.781722 
L 431.703554 51.235576 
L 432.211337 52.327215 
L 432.719119 53.967486 
L 433.353847 56.771147 
L 434.115521 61.197961 
L 435.004141 67.735786 
L 436.019706 76.841027 
L 437.289162 90.286606 
L 438.939455 110.254373 
L 444.017281 173.670515 
L 445.286737 186.272058 
L 446.429248 195.459423 
L 447.317867 200.969464 
L 448.079541 204.450061 
L 448.714269 206.43073 
L 449.222052 207.396623 
L 449.602888 207.755321 
L 449.983725 207.798828 
L 450.364562 207.526967 
L 450.745399 206.940831 
L 451.253182 205.674689 
L 451.88791 203.326537 
L 452.649584 199.421829 
L 453.538203 193.448804 
L 454.553768 184.915603 
L 455.823224 172.051373 
L 457.346572 154.158423 
L 460.266322 116.473568 
L 462.424397 90.035775 
L 463.820799 75.403475 
L 464.96331 65.552238 
L 465.978875 58.712253 
L 466.740549 54.891857 
L 467.375277 52.616936 
L 467.88306 51.410739 
L 468.390842 50.759674 
L 468.771679 50.638625 
L 469.152516 50.833017 
L 469.533353 51.342072 
L 470.041135 52.506571 
L 470.675864 54.730508 
L 471.437537 58.492139 
L 472.326157 64.309374 
L 473.341722 72.683337 
L 474.484232 84.01551 
L 476.00758 101.579524 
L 478.419547 132.513348 
L 481.085405 165.893069 
L 482.608753 182.152109 
L 483.751264 192.176195 
L 484.766829 199.19195 
L 485.528503 203.154718 
L 486.163231 205.553356 
L 486.797959 207.101474 
L 487.305741 207.715677 
L 487.686578 207.808957 
L 488.067415 207.586813 
L 488.448252 207.050138 
L 488.956035 205.849202 
L 489.590763 203.580714 
L 490.352437 199.767732 
L 491.241056 193.894532 
L 492.256621 185.463291 
L 493.399132 174.077127 
L 494.922479 156.461491 
L 497.461392 123.843053 
L 500.000305 92.170774 
L 501.523652 75.975306 
L 502.666163 66.012704 
L 503.681728 59.05957 
L 504.443402 55.147577 
L 505.07813 52.793093 
L 505.585913 51.521764 
L 506.093695 50.804756 
L 506.474532 50.633999 
L 506.855369 50.778692 
L 507.236206 51.238253 
L 507.743988 52.337426 
L 508.251771 53.9851 
L 508.886499 56.797748 
L 509.648173 61.234826 
L 510.536792 67.783704 
L 511.552357 76.900073 
L 512.821814 90.356851 
L 514.599053 111.94935 
L 519.422987 172.359847 
L 520.819389 186.327141 
L 521.961899 195.501259 
L 522.850519 200.99977 
L 523.612192 204.469838 
L 524.246921 206.441407 
L 524.754703 207.399881 
L 525.13554 207.752968 
L 525.516377 207.790849 
L 525.897214 207.513372 
L 526.278051 206.921649 
L 526.785833 205.648145 
L 527.420561 203.291005 
L 528.182235 199.375958 
L 529.070855 193.391697 
L 530.08642 184.847047 
L 531.355876 171.971065 
L 532.879224 154.06845 
L 535.798973 116.380462 
L 537.957049 89.953616 
L 539.353451 75.333807 
L 540.495962 65.495428 
L 541.511527 58.668471 
L 542.273201 54.858605 
L 542.907929 52.592821 
L 543.415711 51.394097 
L 543.923494 50.750594 
L 544.304331 50.635242 
L 544.685168 50.835329 
L 545.066004 51.350052 
L 545.573787 52.52203 
L 546.208515 54.755114 
L 546.970189 58.527292 
L 547.858808 64.356027 
L 548.874373 72.74177 
L 550.016884 84.085062 
L 551.540232 101.659739 
L 553.952199 132.599346 
L 556.618057 165.968957 
L 558.141405 182.215084 
L 559.283915 192.226653 
L 560.29948 199.229647 
L 561.061154 203.182061 
L 561.695882 205.571692 
L 562.330611 207.110564 
L 562.838393 207.71727 
L 563.21923 207.804903 
L 563.600067 207.577117 
L 563.980904 207.034826 
L 564.488686 205.826486 
L 565.123414 203.548948 
L 565.885088 199.72554 
L 566.773708 193.840989 
L 567.789273 185.398146 
L 568.931783 174.001073 
L 570.455131 156.375064 
L 572.994044 123.75143 
L 575.532956 92.089643 
L 577.056304 75.907351 
L 578.198815 65.957443 
L 579.21438 59.017216 
L 579.976053 55.115676 
L 580.610782 52.770275 
L 581.118564 51.506385 
L 581.626347 50.79691 
L 582.007184 50.631834 
L 582.388021 50.782207 
L 582.768857 51.247427 
L 583.27664 52.354072 
L 583.784422 54.009084 
L 584.419151 56.830639 
L 585.180824 61.277886 
L 586.069444 67.837706 
L 587.085009 76.965073 
L 588.354465 90.432892 
L 590.131704 112.034956 
L 594.955638 172.433069 
L 596.35204 186.387077 
L 597.494551 195.54783 
L 598.38317 201.034721 
L 599.144844 204.494186 
L 599.779572 206.456597 
L 600.287355 207.407605 
L 600.668192 207.755048 
L 601.049029 207.78727 
L 601.429865 207.504143 
L 601.810702 206.906801 
L 602.191539 205.997644 
L 602.191539 205.997644 
" clip-path="url(#p2d40c52fbe)" style="fill: none; stroke: #ff7f0e; stroke-width: 1.5; stroke-linecap: square"/>
   </g>
   <g id="patch_3">
    <path d="M 56.357054 221.272 
L 56.357054 41.856 
" style="fill: none; stroke: #000000; stroke-width: 0.8; stroke-linejoin: miter; stroke-linecap: square"/>
   </g>
   <g id="patch_4">
    <path d="M 628.183658 221.272 
L 628.183658 41.856 
" style="fill: none; stroke: #000000; stroke-width: 0.8; stroke-linejoin: miter; stroke-linecap: square"/>
   </g>
   <g id="patch_5">
    <path d="M 56.357054 221.272 
L 628.183658 221.272 
" style="fill: none; stroke: #000000; stroke-width: 0.8; stroke-linejoin: miter; stroke-linecap: square"/>
   </g>
   <g id="patch_6">
    <path d="M 56.357054 41.856 
L 628.183658 41.856 
" style="fill: none; stroke: #000000; stroke-width: 0.8; stroke-linejoin: miter; stroke-linecap: square"/>
   </g>
   <g id="text_16">
    <!-- Daily Useless RC (2026-02-28) | verdict: feral -->
    <g transform="translate(206.829731 22.021875) scale(0.12 -0.12)">
     <defs>
      <path id="DejaVuSans-44" d="M 1259 4147 
L 1259 519 
L 2022 519 
Q 2988 519 3436 956 
Q 3884 1394 3884 2338 
Q 3884 3275 3436 3711 
Q 2988 4147 2022 4147 
L 1259 4147 
z
M 628 4666 
L 1925 4666 
Q 3281 4666 3915 4102 
Q 4550 3538 4550 2338 
Q 4550 1131 3912 565 
Q 3275 0 1925 0 
L 628 0 
L 628 4666 
z
" transform="scale(0.015625)"/>
      <path id="DejaVuSans-69" d="M 603 3500 
L 1178 3500 
L 1178 0 
L 603 0 
L 603 3500 
z
M 603 4863 
L 1178 4863 
L 1178 4134 
L 603 4134 
L 603 4863 
z
" transform="scale(0.015625)"/>
      <path id="DejaVuSans-6c" d="M 603 4863 
L 1178 4863 
L 1178 0 
L 603 0 
L 603 4863 
z
" transform="scale(0.015625)"/>
      <path id="DejaVuSans-79" d="M 2059 -325 
Q 1816 -950 1584 -1140 
Q 1353 -1331 966 -1331 
L 506 -1331 
L 506 -850 
L 844 -850 
Q 1081 -850 1212 -737 
Q 1344 -625 1503 -206 
L 1606 56 
L 191 3500 
L 800 3500 
L 1894 763 
L 2988 3500 
L 3597 3500 
L 2059 -325 
z
" transform="scale(0.015625)"/>
      <path id="DejaVuSans-55" d="M 556 4666 
L 1191 4666 
L 1191 1831 
Q 1191 1081 1462 751 
Q 1734 422 2344 422 
Q 2950 422 3222 751 
Q 3494 1081 3494 1831 
L 3494 4666 
L 4128 4666 
L 4128 1753 
Q 4128 841 3676 375 
Q 3225 -91 2344 -91 
Q 1459 -91 1007 375 
Q 556 841 556 1753 
L 556 4666 
z
" transform="scale(0.015625)"/>
      <path id="DejaVuSans-73" d="M 2834 3397 
L 2834 2853 
Q 2591 2978 2328 3040 
Q 2066 3103 1784 3103 
Q 1356 3103 1142 2972 
Q 928 2841 928 2578 
Q 928 2378 1081 2264 
Q 1234 2150 1697 2047 
L 1894 2003 
Q 2506 1872 2764 1633 
Q 3022 1394 3022 966 
Q 3022 478 2636 193 
Q 2250 -91 1575 -91 
Q 1294 -91 989 -36 
Q 684 19 347 128 
L 347 722 
Q 666 556 975 473 
Q 1284 391 1588 391 
Q 1994 391 2212 530 
Q 2431 669 2431 922 
Q 2431 1156 2273 1281 
Q 2116 1406 1581 1522 
L 1381 1569 
Q 847 1681 609 1914 
Q 372 2147 372 2553 
Q 372 3047 722 3315 
Q 1072 3584 1716 3584 
Q 2034 3584 2315 3537 
Q 2597 3491 2834 3397 
z
" transform="scale(0.015625)"/>
      <path id="DejaVuSans-65" d="M 3597 1894 
L 3597 1613 
L 953 1613 
Q 991 1019 1311 708 
Q 1631 397 2203 397 
Q 2534 397 2845 478 
Q 3156 559 3463 722 
L 3463 178 
Q 3153 47 2828 -22 
Q 2503 -91 2169 -91 
Q 1331 -91 842 396 
Q 353 884 353 1716 
Q 353 2575 817 3079 
Q 1281 3584 2069 3584 
Q 2775 3584 3186 3129 
Q 3597 2675 3597 1894 
z
M 3022 2063 
Q 3016 2534 2758 2815 
Q 2500 3097 2075 3097 
Q 1594 3097 1305 2825 
Q 1016 2553 972 2059 
L 3022 2063 
z
" transform="scale(0.015625)"/>
      <path id="DejaVuSans-52" d="M 2841 2188 
Q 3044 2119 3236 1894 
Q 3428 1669 3622 1275 
L 4263 0 
L 3584 0 
L 2988 1197 
Q 2756 1666 2539 1819 
Q 2322 1972 1947 1972 
L 1259 1972 
L 1259 0 
L 628 0 
L 628 4666 
L 2053 4666 
Q 2853 4666 3247 4331 
Q 3641 3997 3641 3322 
Q 3641 2881 3436 2590 
Q 3231 2300 2841 2188 
z
M 1259 4147 
L 1259 2491 
L 2053 2491 
Q 2509 2491 2742 2702 
Q 2975 2913 2975 3322 
Q 2975 3731 2742 3939 
Q 2509 4147 2053 4147 
L 1259 4147 
z
" transform="scale(0.015625)"/>
      <path id="DejaVuSans-43" d="M 4122 4306 
L 4122 3641 
Q 3803 3938 3442 4084 
Q 3081 4231 2675 4231 
Q 1875 4231 1450 3742 
Q 1025 3253 1025 2328 
Q 1025 1406 1450 917 
Q 1875 428 2675 428 
Q 3081 428 3442 575 
Q 3803 722 4122 1019 
L 4122 359 
Q 3791 134 3420 21 
Q 3050 -91 2638 -91 
Q 1578 -91 968 557 
Q 359 1206 359 2328 
Q 359 3453 968 4101 
Q 1578 4750 2638 4750 
Q 3056 4750 3426 4639 
Q 3797 4528 4122 4306 
z
" transform="scale(0.015625)"/>
      <path id="DejaVuSans-28" d="M 1984 4856 
Q 1566 4138 1362 3434 
Q 1159 2731 1159 2009 
Q 1159 1288 1364 580 
Q 1569 -128 1984 -844 
L 1484 -844 
Q 1016 -109 783 600 
Q 550 1309 550 2009 
Q 550 2706 781 3412 
Q 1013 4119 1484 4856 
L 1984 4856 
z
" transform="scale(0.015625)"/>
      <path id="DejaVuSans-2d" d="M 313 2009 
L 1997 2009 
L 1997 1497 
L 313 1497 
L 313 2009 
z
" transform="scale(0.015625)"/>
      <path id="DejaVuSans-29" d="M 513 4856 
L 1013 4856 
Q 1481 4119 1714 3412 
Q 1947 2706 1947 2009 
Q 1947 1309 1714 600 
Q 1481 -109 1013 -844 
L 513 -844 
Q 928 -128 1133 580 
Q 1338 1288 1338 2009 
Q 1338 2731 1133 3434 
Q 928 4138 513 4856 
z
" transform="scale(0.015625)"/>
      <path id="DejaVuSans-7c" d="M 1344 4891 
L 1344 -1509 
L 813 -1509 
L 813 4891 
L 1344 4891 
z
" transform="scale(0.015625)"/>
      <path id="DejaVuSans-76" d="M 191 3500 
L 800 3500 
L 1894 563 
L 2988 3500 
L 3597 3500 
L 2284 0 
L 1503 0 
L 191 3500 
z
" transform="scale(0.015625)"/>
      <path id="DejaVuSans-64" d="M 2906 2969 
L 2906 4863 
L 3481 4863 
L 3481 0 
L 2906 0 
L 2906 525 
Q 2725 213 2448 61 
Q 2172 -91 1784 -91 
Q 1150 -91 751 415 
Q 353 922 353 1747 
Q 353 2572 751 3078 
Q 1150 3584 1784 3584 
Q 2172 3584 2448 3432 
Q 2725 3281 2906 2969 
z
M 947 1747 
Q 947 1113 1208 752 
Q 1469 391 1925 391 
Q 2381 391 2643 752 
Q 2906 1113 2906 1747 
Q 2906 2381 2643 2742 
Q 2381 3103 1925 3103 
Q 1469 3103 1208 2742 
Q 947 2381 947 1747 
z
" transform="scale(0.015625)"/>
      <path id="DejaVuSans-63" d="M 3122 3366 
L 3122 2828 
Q 2878 2963 2633 3030 
Q 2388 3097 2138 3097 
Q 1578 3097 1268 2742 
Q 959 2388 959 1747 
Q 959 1106 1268 751 
Q 1578 397 2138 397 
Q 2388 397 2633 464 
Q 2878 531 3122 666 
L 3122 134 
Q 2881 22 2623 -34 
Q 2366 -91 2075 -91 
Q 1284 -91 818 406 
Q 353 903 353 1747 
Q 353 2603 823 3093 
Q 1294 3584 2113 3584 
Q 2378 3584 2631 3529 
Q 2884 3475 3122 3366 
z
" transform="scale(0.015625)"/>
      <path id="DejaVuSans-3a" d="M 750 794 
L 1409 794 
L 1409 0 
L 750 0 
L 750 794 
z
M 750 3309 
L 1409 3309 
L 1409 2516 
L 750 2516 
L 750 3309 
z
" transform="scale(0.015625)"/>
      <path id="DejaVuSans-66" d="M 2375 4863 
L 2375 4384 
L 1825 4384 
Q 1516 4384 1395 4259 
Q 1275 4134 1275 3809 
L 1275 3500 
L 2222 3500 
L 2222 3053 
L 1275 3053 
L 1275 0 
L 697 0 
L 697 3053 
L 147 3053 
L 147 3500 
L 697 3500 
L 697 3744 
Q 697 4328 969 4595 
Q 1241 4863 1831 4863 
L 2375 4863 
z
" transform="scale(0.015625)"/>
     </defs>
     <use xlink:href="#DejaVuSans-44"/>
     <use xlink:href="#DejaVuSans-61" transform="translate(77.001953 0)"/>
     <use xlink:href="#DejaVuSans-69" transform="translate(138.28125 0)"/>
     <use xlink:href="#DejaVuSans-6c" transform="translate(166.064453 0)"/>
     <use xlink:href="#DejaVuSans-79" transform="translate(193.847656 0)"/>
     <use xlink:href="#DejaVuSans-20" transform="translate(253.027344 0)"/>
     <use xlink:href="#DejaVuSans-55" transform="translate(284.814453 0)"/>
     <use xlink:href="#DejaVuSans-73" transform="translate(358.007812 0)"/>
     <use xlink:href="#DejaVuSans-65" transform="translate(410.107422 0)"/>
     <use xlink:href="#DejaVuSans-6c" transform="translate(471.630859 0)"/>
     <use xlink:href="#DejaVuSans-65" transform="translate(499.414062 0)"/>
     <use xlink:href="#DejaVuSans-73" transform="translate(560.9375 0)"/>
     <use xlink:href="#DejaVuSans-73" transform="translate(613.037109 0)"/>
     <use xlink:href="#DejaVuSans-20" transform="translate(665.136719 0)"/>
     <use xlink:href="#DejaVuSans-52" transform="translate(696.923828 0)"/>
     <use xlink:href="#DejaVuSans-43" transform="translate(761.40625 0)"/>
     <use xlink:href="#DejaVuSans-20" transform="translate(831.230469 0)"/>
     <use xlink:href="#DejaVuSans-28" transform="translate(863.017578 0)"/>
     <use xlink:href="#DejaVuSans-32" transform="translate(902.03125 0)"/>
     <use xlink:href="#DejaVuSans-30" transform="translate(965.654297 0)"/>
     <use xlink:href="#DejaVuSans-32" transform="translate(1029.277344 0)"/>
     <use xlink:href="#DejaVuSans-36" transform="translate(1092.900391 0)"/>
     <use xlink:href="#DejaVuSans-2d" transform="translate(1156.523438 0)"/>
     <use xlink:href="#DejaVuSans-30" transform="translate(1192.607422 0)"/>
     <use xlink:href="#DejaVuSans-32" transform="translate(1256.230469 0)"/>
     <use xlink:href="#DejaVuSans-2d" transform="translate(1319.853516 0)"/>
     <use xlink:href="#DejaVuSans-32" transform="translate(1355.9375 0)"/>
     <use xlink:href="#DejaVuSans-38" transform="translate(1419.560547 0)"/>
     <use xlink:href="#DejaVuSans-29" transform="translate(1483.183594 0)"/>
     <use xlink:href="#DejaVuSans-20" transform="translate(1522.197266 0)"/>
     <use xlink:href="#DejaVuSans-7c" transform="translate(1553.984375 0)"/>
     <use xlink:href="#DejaVuSans-20" transform="translate(1587.675781 0)"/>
     <use xlink:href="#DejaVuSans-76" transform="translate(1619.462891 0)"/>
     <use xlink:href="#DejaVuSans-65" transform="translate(1678.642578 0)"/>
     <use xlink:href="#DejaVuSans-72" transform="translate(1740.166016 0)"/>
     <use xlink:href="#DejaVuSans-64" transform="translate(1779.529297 0)"/>
     <use xlink:href="#DejaVuSans-69" transform="translate(1843.005859 0)"/>
     <use xlink:href="#DejaVuSans-63" transform="translate(1870.789062 0)"/>
     <use xlink:href="#DejaVuSans-74" transform="translate(1925.769531 0)"/>
     <use xlink:href="#DejaVuSans-3a" transform="translate(1964.978516 0)"/>
     <use xlink:href="#DejaVuSans-20" transform="translate(1998.669922 0)"/>
     <use xlink:href="#DejaVuSans-66" transform="translate(2030.457031 0)"/>
     <use xlink:href="#DejaVuSans-65" transform="translate(2065.662109 0)"/>
     <use xlink:href="#DejaVuSans-72" transform="translate(2127.185547 0)"/>
     <use xlink:href="#DejaVuSans-61" transform="translate(2168.298828 0)"/>
     <use xlink:href="#DejaVuSans-6c" transform="translate(2229.578125 0)"/>
    </g>
    <!-- Filter: high | Input: sine, sine (A=1.41, f=1.38 Hz) | R=0.50, C=2.00, τ=1.00 -->
    <g transform="translate(113.262543 35.856) scale(0.12 -0.12)">
     <defs>
      <path id="DejaVuSans-46" d="M 628 4666 
L 3309 4666 
L 3309 4134 
L 1259 4134 
L 1259 2759 
L 3109 2759 
L 3109 2228 
L 1259 2228 
L 1259 0 
L 628 0 
L 628 4666 
z
" transform="scale(0.015625)"/>
      <path id="DejaVuSans-68" d="M 3513 2113 
L 3513 0 
L 2938 0 
L 2938 2094 
Q 2938 2591 2744 2837 
Q 2550 3084 2163 3084 
Q 1697 3084 1428 2787 
Q 1159 2491 1159 1978 
L 1159 0 
L 581 0 
L 581 4863 
L 1159 4863 
L 1159 2956 
Q 1366 3272 1645 3428 
Q 1925 3584 2291 3584 
Q 2894 3584 3203 3211 
Q 3513 2838 3513 2113 
z
" transform="scale(0.015625)"/>
      <path id="DejaVuSans-67" d="M 2906 1791 
Q 2906 2416 2648 2759 
Q 2391 3103 1925 3103 
Q 1463 3103 1205 2759 
Q 947 2416 947 1791 
Q 947 1169 1205 825 
Q 1463 481 1925 481 
Q 2391 481 2648 825 
Q 2906 1169 2906 1791 
z
M 3481 434 
Q 3481 -459 3084 -895 
Q 2688 -1331 1869 -1331 
Q 1566 -1331 1297 -1286 
Q 1028 -1241 775 -1147 
L 775 -588 
Q 1028 -725 1275 -790 
Q 1522 -856 1778 -856 
Q 2344 -856 2625 -561 
Q 2906 -266 2906 331 
L 2906 616 
Q 2728 306 2450 153 
Q 2172 0 1784 0 
Q 1141 0 747 490 
Q 353 981 353 1791 
Q 353 2603 747 3093 
Q 1141 3584 1784 3584 
Q 2172 3584 2450 3431 
Q 2728 3278 2906 2969 
L 2906 3500 
L 3481 3500 
L 3481 434 
z
" transform="scale(0.015625)"/>
      <path id="DejaVuSans-49" d="M 628 4666 
L 1259 4666 
L 1259 0 
L 628 0 
L 628 4666 
z
" transform="scale(0.015625)"/>
      <path id="DejaVuSans-6e" d="M 3513 2113 
L 3513 0 
L 2938 0 
L 2938 2094 
Q 2938 2591 2744 2837 
Q 2550 3084 2163 3084 
Q 1697 3084 1428 2787 
Q 1159 2491 1159 1978 
L 1159 0 
L 581 0 
L 581 3500 
L 1159 3500 
L 1159 2956 
Q 1366 3272 1645 3428 
Q 1925 3584 2291 3584 
Q 2894 3584 3203 3211 
Q 3513 2838 3513 2113 
z
" transform="scale(0.015625)"/>
      <path id="DejaVuSans-70" d="M 1159 525 
L 1159 -1331 
L 581 -1331 
L 581 3500 
L 1159 3500 
L 1159 2969 
Q 1341 3281 1617 3432 
Q 1894 3584 2278 3584 
Q 2916 3584 3314 3078 
Q 3713 2572 3713 1747 
Q 3713 922 3314 415 
Q 2916 -91 2278 -91 
Q 1894 -91 1617 61 
Q 1341 213 1159 525 
z
M 3116 1747 
Q 3116 2381 2855 2742 
Q 2594 3103 2138 3103 
Q 1681 3103 1420 2742 
Q 1159 2381 1159 1747 
Q 1159 1113 1420 752 
Q 1681 391 2138 391 
Q 2594 391 2855 752 
Q 3116 1113 3116 1747 
z
" transform="scale(0.015625)"/>
      <path id="DejaVuSans-75" d="M 544 1381 
L 544 3500 
L 1119 3500 
L 1119 1403 
Q 1119 906 1312 657 
Q 1506 409 1894 409 
Q 2359 409 2629 706 
Q 2900 1003 2900 1516 
L 2900 3500 
L 3475 3500 
L 3475 0 
L 2900 0 
L 2900 538 
Q 2691 219 2414 64 
Q 2138 -91 1772 -91 
Q 1169 -91 856 284 
Q 544 659 544 1381 
z
M 1991 3584 
L 1991 3584 
z
" transform="scale(0.015625)"/>
      <path id="DejaVuSans-2c" d="M 750 794 
L 1409 794 
L 1409 256 
L 897 -744 
L 494 -744 
L 750 256 
L 750 794 
z
" transform="scale(0.015625)"/>
      <path id="DejaVuSans-41" d="M 2188 4044 
L 1331 1722 
L 3047 1722 
L 2188 4044 
z
M 1831 4666 
L 2547 4666 
L 4325 0 
L 3669 0 
L 3244 1197 
L 1141 1197 
L 716 0 
L 50 0 
L 1831 4666 
z
" transform="scale(0.015625)"/>
      <path id="DejaVuSans-3d" d="M 678 2906 
L 4684 2906 
L 4684 2381 
L 678 2381 
L 678 2906 
z
M 678 1631 
L 4684 1631 
L 4684 1100 
L 678 1100 
L 678 1631 
z
" transform="scale(0.015625)"/>
      <path id="DejaVuSans-33" d="M 2597 2516 
Q 3050 2419 3304 2112 
Q 3559 1806 3559 1356 
Q 3559 666 3084 287 
Q 2609 -91 1734 -91 
Q 1441 -91 1130 -33 
Q 819 25 488 141 
L 488 750 
Q 750 597 1062 519 
Q 1375 441 1716 441 
Q 2309 441 2620 675 
Q 2931 909 2931 1356 
Q 2931 1769 2642 2001 
Q 2353 2234 1838 2234 
L 1294 2234 
L 1294 2753 
L 1863 2753 
Q 2328 2753 2575 2939 
Q 2822 3125 2822 3475 
Q 2822 3834 2567 4026 
Q 2313 4219 1838 4219 
Q 1578 4219 1281 4162 
Q 984 4106 628 3988 
L 628 4550 
Q 988 4650 1302 4700 
Q 1616 4750 1894 4750 
Q 2613 4750 3031 4423 
Q 3450 4097 3450 3541 
Q 3450 3153 3228 2886 
Q 3006 2619 2597 2516 
z
" transform="scale(0.015625)"/>
      <path id="DejaVuSans-48" d="M 628 4666 
L 1259 4666 
L 1259 2753 
L 3553 2753 
L 3553 4666 
L 4184 4666 
L 4184 0 
L 3553 0 
L 3553 2222 
L 1259 2222 
L 1259 0 
L 628 0 
L 628 4666 
z
" transform="scale(0.015625)"/>
      <path id="DejaVuSans-7a" d="M 353 3500 
L 3084 3500 
L 3084 2975 
L 922 459 
L 3084 459 
L 3084 0 
L 275 0 
L 275 525 
L 2438 3041 
L 353 3041 
L 353 3500 
z
" transform="scale(0.015625)"/>
      <path id="DejaVuSans-3c4" d="M 2319 638 
Q 2431 488 2769 488 
L 3047 488 
L 3047 0 
L 2700 0 
Q 2138 0 1881 300 
Q 1625 606 1625 1269 
L 1625 2925 
L 313 2925 
L 313 3500 
L 3541 3500 
L 3541 2925 
L 2213 2925 
L 2213 1234 
Q 2213 781 2319 638 
z
" transform="scale(0.015625)"/>
     </defs>
     <use xlink:href="#DejaVuSans-46"/>
     <use xlink:href="#DejaVuSans-69" transform="translate(50.269531 0)"/>
     <use xlink:href="#DejaVuSans-6c" transform="translate(78.052734 0)"/>
     <use xlink:href="#DejaVuSans-74" transform="translate(105.835938 0)"/>
     <use xlink:href="#DejaVuSans-65" transform="translate(145.044922 0)"/>
     <use xlink:href="#DejaVuSans-72" transform="translate(206.568359 0)"/>
     <use xlink:href="#DejaVuSans-3a" transform="translate(245.931641 0)"/>
     <use xlink:href="#DejaVuSans-20" transform="translate(279.623047 0)"/>
     <use xlink:href="#DejaVuSans-68" transform="translate(311.410156 0)"/>
     <use xlink:href="#DejaVuSans-69" transform="translate(374.789062 0)"/>
     <use xlink:href="#DejaVuSans-67" transform="translate(402.572266 0)"/>
     <use xlink:href="#DejaVuSans-68" transform="translate(466.048828 0)"/>
     <use xlink:href="#DejaVuSans-20" transform="translate(529.427734 0)"/>
     <use xlink:href="#DejaVuSans-7c" transform="translate(561.214844 0)"/>
     <use xlink:href="#DejaVuSans-20" transform="translate(594.90625 0)"/>
     <use xlink:href="#DejaVuSans-49" transform="translate(626.693359 0)"/>
     <use xlink:href="#DejaVuSans-6e" transform="translate(656.185547 0)"/>
     <use xlink:href="#DejaVuSans-70" transform="translate(719.564453 0)"/>
     <use xlink:href="#DejaVuSans-75" transform="translate(783.041016 0)"/>
     <use xlink:href="#DejaVuSans-74" transform="translate(846.419922 0)"/>
     <use xlink:href="#DejaVuSans-3a" transform="translate(885.628906 0)"/>
     <use xlink:href="#DejaVuSans-20" transform="translate(919.320312 0)"/>
     <use xlink:href="#DejaVuSans-73" transform="translate(951.107422 0)"/>
     <use xlink:href="#DejaVuSans-69" transform="translate(1003.207031 0)"/>
     <use xlink:href="#DejaVuSans-6e" transform="translate(1030.990234 0)"/>
     <use xlink:href="#DejaVuSans-65" transform="translate(1094.369141 0)"/>
     <use xlink:href="#DejaVuSans-2c" transform="translate(1155.892578 0)"/>
     <use xlink:href="#DejaVuSans-20" transform="translate(1187.679688 0)"/>
     <use xlink:href="#DejaVuSans-73" transform="translate(1219.466797 0)"/>
     <use xlink:href="#DejaVuSans-69" transform="translate(1271.566406 0)"/>
     <use xlink:href="#DejaVuSans-6e" transform="translate(1299.349609 0)"/>
     <use xlink:href="#DejaVuSans-65" transform="translate(1362.728516 0)"/>
     <use xlink:href="#DejaVuSans-20" transform="translate(1424.251953 0)"/>
     <use xlink:href="#DejaVuSans-28" transform="translate(1456.039062 0)"/>
     <use xlink:href="#DejaVuSans-41" transform="translate(1495.052734 0)"/>
     <use xlink:href="#DejaVuSans-3d" transform="translate(1563.460938 0)"/>
     <use xlink:href="#DejaVuSans-31" transform="translate(1647.25 0)"/>
     <use xlink:href="#DejaVuSans-2e" transform="translate(1710.873047 0)"/>
     <use xlink:href="#DejaVuSans-34" transform="translate(1742.660156 0)"/>
     <use xlink:href="#DejaVuSans-31" transform="translate(1806.283203 0)"/>
     <use xlink:href="#DejaVuSans-2c" transform="translate(1869.90625 0)"/>
     <use xlink:href="#DejaVuSans-20" transform="translate(1901.693359 0)"/>
     <use xlink:href="#DejaVuSans-66" transform="translate(1933.480469 0)"/>
     <use xlink:href="#DejaVuSans-3d" transform="translate(1968.685547 0)"/>
     <use xlink:href="#DejaVuSans-31" transform="translate(2052.474609 0)"/>
     <use xlink:href="#DejaVuSans-2e" transform="translate(2116.097656 0)"/>
     <use xlink:href="#DejaVuSans-33" transform="translate(2147.884766 0)"/>
     <use xlink:href="#DejaVuSans-38" transform="translate(2211.507812 0)"/>
     <use xlink:href="#DejaVuSans-20" transform="translate(2275.130859 0)"/>
     <use xlink:href="#DejaVuSans-48" transform="translate(2306.917969 0)"/>
     <use xlink:href="#DejaVuSans-7a" transform="translate(2382.113281 0)"/>
     <use xlink:href="#DejaVuSans-29" transform="translate(2434.603516 0)"/>
     <use xlink:href="#DejaVuSans-20" transform="translate(2473.617188 0)"/>
     <use xlink:href="#DejaVuSans-7c" transform="translate(2505.404297 0)"/>
     <use xlink:href="#DejaVuSans-20" transform="translate(2539.095703 0)"/>
     <use xlink:href="#DejaVuSans-52" transform="translate(2570.882812 0)"/>
     <use xlink:href="#DejaVuSans-3d" transform="translate(2640.365234 0)"/>
     <use xlink:href="#DejaVuSans-30" transform="translate(2724.154297 0)"/>
     <use xlink:href="#DejaVuSans-2e" transform="translate(2787.777344 0)"/>
     <use xlink:href="#DejaVuSans-35" transform="translate(2819.564453 0)"/>
     <use xlink:href="#DejaVuSans-30" transform="translate(2883.1875 0)"/>
     <use xlink:href="#DejaVuSans-2c" transform="translate(2946.810547 0)"/>
     <use xlink:href="#DejaVuSans-20" transform="translate(2978.597656 0)"/>
     <use xlink:href="#DejaVuSans-43" transform="translate(3010.384766 0)"/>
     <use xlink:href="#DejaVuSans-3d" transform="translate(3080.208984 0)"/>
     <use xlink:href="#DejaVuSans-32" transform="translate(3163.998047 0)"/>
     <use xlink:href="#DejaVuSans-2e" transform="translate(3227.621094 0)"/>
     <use xlink:href="#DejaVuSans-30" transform="translate(3259.408203 0)"/>
     <use xlink:href="#DejaVuSans-30" transform="translate(3323.03125 0)"/>
     <use xlink:href="#DejaVuSans-2c" transform="translate(3386.654297 0)"/>
     <use xlink:href="#DejaVuSans-20" transform="translate(3418.441406 0)"/>
     <use xlink:href="#DejaVuSans-3c4" transform="translate(3450.228516 0)"/>
     <use xlink:href="#DejaVuSans-3d" transform="translate(3510.433594 0)"/>
     <use xlink:href="#DejaVuSans-31" transform="translate(3594.222656 0)"/>
     <use xlink:href="#DejaVuSans-2e" transform="translate(3657.845703 0)"/>
     <use xlink:href="#DejaVuSans-30" transform="translate(3689.632812 0)"/>
     <use xlink:href="#DejaVuSans-30" transform="translate(3753.255859 0)"/>
    </g>
   </g>
   <g id="legend_1">
    <g id="patch_7">
     <path d="M 63.357054 147.742125 
L 128.339866 147.742125 
Q 130.339866 147.742125 130.339866 145.742125 
L 130.339866 117.385875 
Q 130.339866 115.385875 128.339866 115.385875 
L 63.357054 115.385875 
Q 61.357054 115.385875 61.357054 117.385875 
L 61.357054 145.742125 
Q 61.357054 147.742125 63.357054 147.742125 
z
" style="fill: #ffffff; opacity: 0.8; stroke: #cccccc; stroke-linejoin: miter"/>
    </g>
    <g id="line2d_29">
     <path d="M 65.357054 123.484312 
L 75.357054 123.484312 
L 85.357054 123.484312 
" style="fill: none; stroke: #1f77b4; stroke-width: 1.5; stroke-linecap: square"/>
    </g>
    <g id="text_17">
     <!-- input -->
     <g transform="translate(93.357054 126.984312) scale(0.1 -0.1)">
      <use xlink:href="#DejaVuSans-69"/>
      <use xlink:href="#DejaVuSans-6e" transform="translate(27.783203 0)"/>
      <use xlink:href="#DejaVuSans-70" transform="translate(91.162109 0)"/>
      <use xlink:href="#DejaVuSans-75" transform="translate(154.638672 0)"/>
      <use xlink:href="#DejaVuSans-74" transform="translate(218.017578 0)"/>
     </g>
    </g>
    <g id="line2d_30">
     <path d="M 65.357054 138.162438 
L 75.357054 138.162438 
L 85.357054 138.162438 
" style="fill: none; stroke: #ff7f0e; stroke-width: 1.5; stroke-linecap: square"/>
    </g>
    <g id="text_18">
     <!-- output -->
     <g transform="translate(93.357054 141.662438) scale(0.1 -0.1)">
      <defs>
       <path id="DejaVuSans-6f" d="M 1959 3097 
Q 1497 3097 1228 2736 
Q 959 2375 959 1747 
Q 959 1119 1226 758 
Q 1494 397 1959 397 
Q 2419 397 2687 759 
Q 2956 1122 2956 1747 
Q 2956 2369 2687 2733 
Q 2419 3097 1959 3097 
z
M 1959 3584 
Q 2709 3584 3137 3096 
Q 3566 2609 3566 1747 
Q 3566 888 3137 398 
Q 2709 -91 1959 -91 
Q 1206 -91 779 398 
Q 353 888 353 1747 
Q 353 2609 779 3096 
Q 1206 3584 1959 3584 
z
" transform="scale(0.015625)"/>
      </defs>
      <use xlink:href="#DejaVuSans-6f"/>
      <use xlink:href="#DejaVuSans-75" transform="translate(61.181641 0)"/>
      <use xlink:href="#DejaVuSans-74" transform="translate(124.560547 0)"/>
      <use xlink:href="#DejaVuSans-70" transform="translate(163.769531 0)"/>
      <use xlink:href="#DejaVuSans-75" transform="translate(227.246094 0)"/>
      <use xlink:href="#DejaVuSans-74" transform="translate(290.625 0)"/>
     </g>
    </g>
   </g>
  </g>
  <g id="axes_2">
   <g id="patch_8">
    <path d="M 56.357054 458.728 
L 628.183658 458.728 
L 628.183658 279.312 
L 56.357054 279.312 
z
" style="fill: #ffffff"/>
   </g>
   <g id="matplotlib.axis_3">
    <g id="xtick_7">
     <g id="line2d_31">
      <path d="M 56.357054 458.728 
L 56.357054 279.312 
" clip-path="url(#p7ff5359a5c)" style="fill: none; stroke: #b0b0b0; stroke-opacity: 0.25; stroke-width: 0.8; stroke-linecap: square"/>
     </g>
     <g id="line2d_32">
      <g>
       <use xlink:href="#m2f164313a1" x="56.357054" y="458.728" style="stroke: #000000; stroke-width: 0.8"/>
      </g>
     </g>
     <g id="text_19">
      <!-- $\mathdefault{10^{-1}}$ -->
      <g transform="translate(44.607054 473.326438) scale(0.1 -0.1)">
       <use xlink:href="#DejaVuSans-31" transform="translate(0 0.684375)"/>
       <use xlink:href="#DejaVuSans-30" transform="translate(63.623047 0.684375)"/>
       <use xlink:href="#DejaVuSans-2212" transform="translate(128.203125 38.965625) scale(0.7)"/>
       <use xlink:href="#DejaVuSans-31" transform="translate(186.855469 38.965625) scale(0.7)"/>
      </g>
     </g>
    </g>
    <g id="xtick_8">
     <g id="line2d_33">
      <path d="M 342.270356 458.728 
L 342.270356 279.312 
" clip-path="url(#p7ff5359a5c)" style="fill: none; stroke: #b0b0b0; stroke-opacity: 0.25; stroke-width: 0.8; stroke-linecap: square"/>
     </g>
     <g id="line2d_34">
      <g>
       <use xlink:href="#m2f164313a1" x="342.270356" y="458.728" style="stroke: #000000; stroke-width: 0.8"/>
      </g>
     </g>
     <g id="text_20">
      <!-- $\mathdefault{10^{0}}$ -->
      <g transform="translate(333.470356 473.326438) scale(0.1 -0.1)">
       <use xlink:href="#DejaVuSans-31" transform="translate(0 0.765625)"/>
       <use xlink:href="#DejaVuSans-30" transform="translate(63.623047 0.765625)"/>
       <use xlink:href="#DejaVuSans-30" transform="translate(128.203125 39.046875) scale(0.7)"/>
      </g>
     </g>
    </g>
    <g id="xtick_9">
     <g id="line2d_35">
      <path d="M 628.183658 458.728 
L 628.183658 279.312 
" clip-path="url(#p7ff5359a5c)" style="fill: none; stroke: #b0b0b0; stroke-opacity: 0.25; stroke-width: 0.8; stroke-linecap: square"/>
     </g>
     <g id="line2d_36">
      <g>
       <use xlink:href="#m2f164313a1" x="628.183658" y="458.728" style="stroke: #000000; stroke-width: 0.8"/>
      </g>
     </g>
     <g id="text_21">
      <!-- $\mathdefault{10^{1}}$ -->
      <g transform="translate(619.383658 473.326438) scale(0.1 -0.1)">
       <use xlink:href="#DejaVuSans-31" transform="translate(0 0.684375)"/>
       <use xlink:href="#DejaVuSans-30" transform="translate(63.623047 0.684375)"/>
       <use xlink:href="#DejaVuSans-31" transform="translate(128.203125 38.965625) scale(0.7)"/>
      </g>
     </g>
    </g>
    <g id="xtick_10">
     <g id="line2d_37">
      <defs>
       <path id="m290ef5becb" d="M 0 0 
L 0 2 
" style="stroke: #000000; stroke-width: 0.6"/>
      </defs>
      <g>
       <use xlink:href="#m290ef5becb" x="142.425534" y="458.728" style="stroke: #000000; stroke-width: 0.6"/>
      </g>
     </g>
    </g>
    <g id="xtick_11">
     <g id="line2d_38">
      <g>
       <use xlink:href="#m290ef5becb" x="192.772367" y="458.728" style="stroke: #000000; stroke-width: 0.6"/>
      </g>
     </g>
    </g>
    <g id="xtick_12">
     <g id="line2d_39">
      <g>
       <use xlink:href="#m290ef5becb" x="228.494014" y="458.728" style="stroke: #000000; stroke-width: 0.6"/>
      </g>
     </g>
    </g>
    <g id="xtick_13">
     <g id="line2d_40">
      <g>
       <use xlink:href="#m290ef5becb" x="256.201876" y="458.728" style="stroke: #000000; stroke-width: 0.6"/>
      </g>
     </g>
    </g>
    <g id="xtick_14">
     <g id="line2d_41">
      <g>
       <use xlink:href="#m290ef5becb" x="278.840847" y="458.728" style="stroke: #000000; stroke-width: 0.6"/>
      </g>
     </g>
    </g>
    <g id="xtick_15">
     <g id="line2d_42">
      <g>
       <use xlink:href="#m290ef5becb" x="297.981825" y="458.728" style="stroke: #000000; stroke-width: 0.6"/>
      </g>
     </g>
    </g>
    <g id="xtick_16">
     <g id="line2d_43">
      <g>
       <use xlink:href="#m290ef5becb" x="314.562494" y="458.728" style="stroke: #000000; stroke-width: 0.6"/>
      </g>
     </g>
    </g>
    <g id="xtick_17">
     <g id="line2d_44">
      <g>
       <use xlink:href="#m290ef5becb" x="329.187681" y="458.728" style="stroke: #000000; stroke-width: 0.6"/>
      </g>
     </g>
    </g>
    <g id="xtick_18">
     <g id="line2d_45">
      <g>
       <use xlink:href="#m290ef5becb" x="428.338836" y="458.728" style="stroke: #000000; stroke-width: 0.6"/>
      </g>
     </g>
    </g>
    <g id="xtick_19">
     <g id="line2d_46">
      <g>
       <use xlink:href="#m290ef5becb" x="478.685669" y="458.728" style="stroke: #000000; stroke-width: 0.6"/>
      </g>
     </g>
    </g>
    <g id="xtick_20">
     <g id="line2d_47">
      <g>
       <use xlink:href="#m290ef5becb" x="514.407316" y="458.728" style="stroke: #000000; stroke-width: 0.6"/>
      </g>
     </g>
    </g>
    <g id="xtick_21">
     <g id="line2d_48">
      <g>
       <use xlink:href="#m290ef5becb" x="542.115178" y="458.728" style="stroke: #000000; stroke-width: 0.6"/>
      </g>
     </g>
    </g>
    <g id="xtick_22">
     <g id="line2d_49">
      <g>
       <use xlink:href="#m290ef5becb" x="564.754149" y="458.728" style="stroke: #000000; stroke-width: 0.6"/>
      </g>
     </g>
    </g>
    <g id="xtick_23">
     <g id="line2d_50">
      <g>
       <use xlink:href="#m290ef5becb" x="583.895127" y="458.728" style="stroke: #000000; stroke-width: 0.6"/>
      </g>
     </g>
    </g>
    <g id="xtick_24">
     <g id="line2d_51">
      <g>
       <use xlink:href="#m290ef5becb" x="600.475796" y="458.728" style="stroke: #000000; stroke-width: 0.6"/>
      </g>
     </g>
    </g>
    <g id="xtick_25">
     <g id="line2d_52">
      <g>
       <use xlink:href="#m290ef5becb" x="615.100982" y="458.728" style="stroke: #000000; stroke-width: 0.6"/>
      </g>
     </g>
    </g>
    <g id="text_22">
     <!-- frequency [arb.] -->
     <g transform="translate(301.820356 487.004563) scale(0.1 -0.1)">
      <defs>
       <path id="DejaVuSans-71" d="M 947 1747 
Q 947 1113 1208 752 
Q 1469 391 1925 391 
Q 2381 391 2643 752 
Q 2906 1113 2906 1747 
Q 2906 2381 2643 2742 
Q 2381 3103 1925 3103 
Q 1469 3103 1208 2742 
Q 947 2381 947 1747 
z
M 2906 525 
Q 2725 213 2448 61 
Q 2172 -91 1784 -91 
Q 1150 -91 751 415 
Q 353 922 353 1747 
Q 353 2572 751 3078 
Q 1150 3584 1784 3584 
Q 2172 3584 2448 3432 
Q 2725 3281 2906 2969 
L 2906 3500 
L 3481 3500 
L 3481 -1331 
L 2906 -1331 
L 2906 525 
z
" transform="scale(0.015625)"/>
      </defs>
      <use xlink:href="#DejaVuSans-66"/>
      <use xlink:href="#DejaVuSans-72" transform="translate(35.205078 0)"/>
      <use xlink:href="#DejaVuSans-65" transform="translate(74.068359 0)"/>
      <use xlink:href="#DejaVuSans-71" transform="translate(135.591797 0)"/>
      <use xlink:href="#DejaVuSans-75" transform="translate(199.068359 0)"/>
      <use xlink:href="#DejaVuSans-65" transform="translate(262.447266 0)"/>
      <use xlink:href="#DejaVuSans-6e" transform="translate(323.970703 0)"/>
      <use xlink:href="#DejaVuSans-63" transform="translate(387.349609 0)"/>
      <use xlink:href="#DejaVuSans-79" transform="translate(442.330078 0)"/>
      <use xlink:href="#DejaVuSans-20" transform="translate(501.509766 0)"/>
      <use xlink:href="#DejaVuSans-5b" transform="translate(533.296875 0)"/>
      <use xlink:href="#DejaVuSans-61" transform="translate(572.310547 0)"/>
      <use xlink:href="#DejaVuSans-72" transform="translate(633.589844 0)"/>
      <use xlink:href="#DejaVuSans-62" transform="translate(674.703125 0)"/>
      <use xlink:href="#DejaVuSans-2e" transform="translate(738.179688 0)"/>
      <use xlink:href="#DejaVuSans-5d" transform="translate(769.966797 0)"/>
     </g>
    </g>
   </g>
   <g id="matplotlib.axis_4">
    <g id="ytick_8">
     <g id="line2d_53">
      <path d="M 56.357054 442.000498 
L 628.183658 442.000498 
" clip-path="url(#p7ff5359a5c)" style="fill: none; stroke: #b0b0b0; stroke-opacity: 0.25; stroke-width: 0.8; stroke-linecap: square"/>
     </g>
     <g id="line2d_54">
      <g>
       <use xlink:href="#m7827bc575a" x="56.357054" y="442.000498" style="stroke: #000000; stroke-width: 0.8"/>
      </g>
     </g>
     <g id="text_23">
      <!-- $\mathdefault{10^{-8}}$ -->
      <g transform="translate(25.857054 445.799717) scale(0.1 -0.1)">
       <use xlink:href="#DejaVuSans-31" transform="translate(0 0.765625)"/>
       <use xlink:href="#DejaVuSans-30" transform="translate(63.623047 0.765625)"/>
       <use xlink:href="#DejaVuSans-2212" transform="translate(128.203125 39.046875) scale(0.7)"/>
       <use xlink:href="#DejaVuSans-38" transform="translate(186.855469 39.046875) scale(0.7)"/>
      </g>
     </g>
    </g>
    <g id="ytick_9">
     <g id="line2d_55">
      <path d="M 56.357054 414.266964 
L 628.183658 414.266964 
" clip-path="url(#p7ff5359a5c)" style="fill: none; stroke: #b0b0b0; stroke-opacity: 0.25; stroke-width: 0.8; stroke-linecap: square"/>
     </g>
     <g id="line2d_56">
      <g>
       <use xlink:href="#m7827bc575a" x="56.357054" y="414.266964" style="stroke: #000000; stroke-width: 0.8"/>
      </g>
     </g>
     <g id="text_24">
      <!-- $\mathdefault{10^{-6}}$ -->
      <g transform="translate(25.857054 418.066182) scale(0.1 -0.1)">
       <use xlink:href="#DejaVuSans-31" transform="translate(0 0.765625)"/>
       <use xlink:href="#DejaVuSans-30" transform="translate(63.623047 0.765625)"/>
       <use xlink:href="#DejaVuSans-2212" transform="translate(128.203125 39.046875) scale(0.7)"/>
       <use xlink:href="#DejaVuSans-36" transform="translate(186.855469 39.046875) scale(0.7)"/>
      </g>
     </g>
    </g>
    <g id="ytick_10">
     <g id="line2d_57">
      <path d="M 56.357054 386.533429 
L 628.183658 386.533429 
" clip-path="url(#p7ff5359a5c)" style="fill: none; stroke: #b0b0b0; stroke-opacity: 0.25; stroke-width: 0.8; stroke-linecap: square"/>
     </g>
     <g id="line2d_58">
      <g>
       <use xlink:href="#m7827bc575a" x="56.357054" y="386.533429" style="stroke: #000000; stroke-width: 0.8"/>
      </g>
     </g>
     <g id="text_25">
      <!-- $\mathdefault{10^{-4}}$ -->
      <g transform="translate(25.857054 390.332648) scale(0.1 -0.1)">
       <use xlink:href="#DejaVuSans-31" transform="translate(0 0.684375)"/>
       <use xlink:href="#DejaVuSans-30" transform="translate(63.623047 0.684375)"/>
       <use xlink:href="#DejaVuSans-2212" transform="translate(128.203125 38.965625) scale(0.7)"/>
       <use xlink:href="#DejaVuSans-34" transform="translate(186.855469 38.965625) scale(0.7)"/>
      </g>
     </g>
    </g>
    <g id="ytick_11">
     <g id="line2d_59">
      <path d="M 56.357054 358.799894 
L 628.183658 358.799894 
" clip-path="url(#p7ff5359a5c)" style="fill: none; stroke: #b0b0b0; stroke-opacity: 0.25; stroke-width: 0.8; stroke-linecap: square"/>
     </g>
     <g id="line2d_60">
      <g>
       <use xlink:href="#m7827bc575a" x="56.357054" y="358.799894" style="stroke: #000000; stroke-width: 0.8"/>
      </g>
     </g>
     <g id="text_26">
      <!-- $\mathdefault{10^{-2}}$ -->
      <g transform="translate(25.857054 362.599113) scale(0.1 -0.1)">
       <use xlink:href="#DejaVuSans-31" transform="translate(0 0.765625)"/>
       <use xlink:href="#DejaVuSans-30" transform="translate(63.623047 0.765625)"/>
       <use xlink:href="#DejaVuSans-2212" transform="translate(128.203125 39.046875) scale(0.7)"/>
       <use xlink:href="#DejaVuSans-32" transform="translate(186.855469 39.046875) scale(0.7)"/>
      </g>
     </g>
    </g>
    <g id="ytick_12">
     <g id="line2d_61">
      <path d="M 56.357054 331.06636 
L 628.183658 331.06636 
" clip-path="url(#p7ff5359a5c)" style="fill: none; stroke: #b0b0b0; stroke-opacity: 0.25; stroke-width: 0.8; stroke-linecap: square"/>
     </g>
     <g id="line2d_62">
      <g>
       <use xlink:href="#m7827bc575a" x="56.357054" y="331.06636" style="stroke: #000000; stroke-width: 0.8"/>
      </g>
     </g>
     <g id="text_27">
      <!-- $\mathdefault{10^{0}}$ -->
      <g transform="translate(31.757054 334.865579) scale(0.1 -0.1)">
       <use xlink:href="#DejaVuSans-31" transform="translate(0 0.765625)"/>
       <use xlink:href="#DejaVuSans-30" transform="translate(63.623047 0.765625)"/>
       <use xlink:href="#DejaVuSans-30" transform="translate(128.203125 39.046875) scale(0.7)"/>
      </g>
     </g>
    </g>
    <g id="ytick_13">
     <g id="line2d_63">
      <path d="M 56.357054 303.332825 
L 628.183658 303.332825 
" clip-path="url(#p7ff5359a5c)" style="fill: none; stroke: #b0b0b0; stroke-opacity: 0.25; stroke-width: 0.8; stroke-linecap: square"/>
     </g>
     <g id="line2d_64">
      <g>
       <use xlink:href="#m7827bc575a" x="56.357054" y="303.332825" style="stroke: #000000; stroke-width: 0.8"/>
      </g>
     </g>
     <g id="text_28">
      <!-- $\mathdefault{10^{2}}$ -->
      <g transform="translate(31.757054 307.132044) scale(0.1 -0.1)">
       <use xlink:href="#DejaVuSans-31" transform="translate(0 0.765625)"/>
       <use xlink:href="#DejaVuSans-30" transform="translate(63.623047 0.765625)"/>
       <use xlink:href="#DejaVuSans-32" transform="translate(128.203125 39.046875) scale(0.7)"/>
      </g>
     </g>
    </g>
    <g id="text_29">
     <!-- |FFT(.)| -->
     <g transform="translate(19.499241 386.597344) rotate(-90) scale(0.1 -0.1)">
      <defs>
       <path id="DejaVuSans-54" d="M -19 4666 
L 3928 4666 
L 3928 4134 
L 2272 4134 
L 2272 0 
L 1638 0 
L 1638 4134 
L -19 4134 
L -19 4666 
z
" transform="scale(0.015625)"/>
      </defs>
      <use xlink:href="#DejaVuSans-7c"/>
      <use xlink:href="#DejaVuSans-46" transform="translate(33.691406 0)"/>
      <use xlink:href="#DejaVuSans-46" transform="translate(91.210938 0)"/>
      <use xlink:href="#DejaVuSans-54" transform="translate(146.980469 0)"/>
      <use xlink:href="#DejaVuSans-28" transform="translate(208.064453 0)"/>
      <use xlink:href="#DejaVuSans-2e" transform="translate(247.078125 0)"/>
      <use xlink:href="#DejaVuSans-29" transform="translate(278.865234 0)"/>
      <use xlink:href="#DejaVuSans-7c" transform="translate(317.878906 0)"/>
     </g>
    </g>
   </g>
   <g id="line2d_65">
    <path d="M 56.357054 314.89197 
L 142.425534 340.739206 
L 192.772367 339.387085 
L 228.494014 337.699938 
L 256.201876 335.755837 
L 278.840847 333.548571 
L 297.981825 331.024539 
L 314.562494 328.084139 
L 329.187681 324.558453 
L 342.270356 320.14065 
L 354.105075 314.172428 
L 364.909327 304.605826 
L 374.848276 289.652346 
L 384.050305 287.467273 
L 392.617189 293.87473 
L 400.630974 309.779874 
L 408.158768 317.221347 
L 415.256161 322.358365 
L 421.969718 326.317984 
L 428.338836 329.549603 
L 434.397138 332.283148 
L 440.173555 334.653288 
L 445.693156 336.746077 
L 450.977807 338.619997 
L 456.046698 340.316664 
L 460.916756 341.866775 
L 465.602994 343.293639 
L 470.118785 344.615377 
L 474.476094 345.846365 
L 478.685669 346.998201 
L 482.7572 348.080378 
L 486.699454 349.10077 
L 490.520388 350.065978 
L 494.227248 350.981594 
L 497.826647 351.852397 
L 501.324641 352.682504 
L 504.726787 353.475487 
L 508.038198 354.234464 
L 511.263589 354.962179 
L 514.407316 355.661054 
L 517.473412 356.333238 
L 520.465618 356.980653 
L 523.387414 357.605016 
L 526.242035 358.207877 
L 529.032502 358.79063 
L 531.761636 359.354543 
L 534.432073 359.900766 
L 537.046287 360.430348 
L 539.606596 360.944248 
L 542.115178 361.443345 
L 544.574081 361.928449 
L 546.985236 362.400302 
L 549.350461 362.859594 
L 551.671474 363.30696 
L 553.949897 363.742989 
L 556.187265 364.168229 
L 558.385032 364.58319 
L 560.544574 364.988346 
L 562.6672 365.384141 
L 564.754149 365.770989 
L 566.806602 366.149278 
L 568.82568 366.519372 
L 570.812452 366.881613 
L 572.767934 367.236321 
L 574.693098 367.583798 
L 576.588868 367.92433 
L 578.45613 368.258185 
L 580.295728 368.585615 
L 582.108469 368.906862 
L 583.895127 369.222152 
L 585.656441 369.531699 
L 587.393121 369.835708 
L 589.105845 370.134371 
L 590.795267 370.427872 
L 592.462011 370.716385 
L 594.106678 371.000077 
L 595.729846 371.279104 
L 597.332069 371.553618 
L 598.913881 371.823762 
L 600.475796 372.089672 
L 602.018307 372.35148 
L 603.541892 372.609309 
L 605.047008 372.86328 
L 606.534098 373.113505 
L 608.00359 373.360095 
L 609.455894 373.603154 
L 610.891407 373.842782 
L 612.310515 374.079075 
L 613.713587 374.312124 
L 615.100982 374.54202 
L 616.473047 374.768845 
L 617.830116 374.992683 
L 619.172513 375.21361 
L 620.500554 375.431703 
L 621.81454 375.647035 
L 623.114767 375.859674 
L 624.40152 376.069688 
L 625.675076 376.277142 
L 626.935702 376.482099 
L 628.183658 376.684617 
L 629.419196 376.884757 
" clip-path="url(#p7ff5359a5c)" style="fill: none; stroke: #1f77b4; stroke-opacity: 0.6; stroke-width: 1.5; stroke-linecap: square"/>
   </g>
   <g id="line2d_66">
    <path d="M 56.357054 318.411028 
L 142.425534 324.390744 
L 192.772367 329.797198 
L 228.494014 333.799757 
L 256.201876 334.624028 
L 278.840847 333.15094 
L 297.981825 330.85665 
L 314.562494 328.026053 
L 329.187681 324.558603 
L 342.270356 320.169837 
L 354.105075 314.214365 
L 364.909327 304.652262 
L 374.848276 289.699722 
L 384.050305 287.514555 
L 392.617189 293.922125 
L 400.630974 309.8281 
L 408.158768 317.271254 
L 415.256161 322.410751 
L 421.969718 326.373516 
L 428.338836 329.608793 
L 434.397138 332.346363 
L 440.173555 334.720762 
L 445.693156 336.817938 
L 450.977807 338.696285 
L 456.046698 340.397351 
L 460.916756 341.951782 
L 465.602994 343.382849 
L 470.118785 344.708647 
L 474.476094 345.943534 
L 478.685669 347.099094 
L 482.7572 348.184819 
L 486.699454 349.208577 
L 490.520388 350.176973 
L 494.227248 351.095602 
L 497.826647 351.969247 
L 501.324641 352.802032 
L 504.726787 353.597535 
L 508.038198 354.358883 
L 511.263589 355.088826 
L 514.407316 355.789794 
L 517.473412 356.463945 
L 520.465618 357.113205 
L 523.387414 357.739303 
L 526.242035 358.343791 
L 529.032502 358.928073 
L 531.761636 359.493421 
L 534.432073 360.040991 
L 537.046287 360.571839 
L 539.606596 361.086929 
L 542.115178 361.587144 
L 544.574081 362.073299 
L 546.985236 362.546141 
L 549.350461 363.006363 
L 551.671474 363.454604 
L 553.949897 363.891458 
L 556.187265 364.317474 
L 558.385032 364.733167 
L 560.544574 365.139013 
L 562.6672 365.535459 
L 564.754149 365.922921 
L 566.806602 366.30179 
L 568.82568 366.672432 
L 570.812452 367.03519 
L 572.767934 367.390387 
L 574.693098 367.738327 
L 576.588868 368.079297 
L 578.45613 368.413567 
L 580.295728 368.741391 
L 582.108469 369.063011 
L 583.895127 369.378654 
L 585.656441 369.688537 
L 587.393121 369.992864 
L 589.105845 370.29183 
L 590.795267 370.585619 
L 592.462011 370.874406 
L 594.106678 371.158358 
L 595.729846 371.437633 
L 597.332069 371.712384 
L 598.913881 371.982753 
L 600.475796 372.248878 
L 602.018307 372.510891 
L 603.541892 372.768917 
L 605.047008 373.023075 
L 606.534098 373.27348 
L 608.00359 373.520241 
L 609.455894 373.763464 
L 610.891407 374.003249 
L 612.310515 374.239693 
L 613.713587 374.472888 
L 615.100982 374.702922 
L 616.473047 374.929881 
L 617.830116 375.153847 
L 619.172513 375.374899 
L 620.500554 375.593111 
L 621.81454 375.808557 
L 623.114767 376.021306 
L 624.40152 376.231427 
L 625.675076 376.438984 
L 626.935702 376.64404 
L 628.183658 376.846655 
L 629.419196 377.046887 
" clip-path="url(#p7ff5359a5c)" style="fill: none; stroke: #ff7f0e; stroke-width: 1.5; stroke-linecap: square"/>
   </g>
   <g id="patch_9">
    <path d="M 56.357054 458.728 
L 56.357054 279.312 
" style="fill: none; stroke: #000000; stroke-width: 0.8; stroke-linejoin: miter; stroke-linecap: square"/>
   </g>
   <g id="patch_10">
    <path d="M 628.183658 458.728 
L 628.183658 279.312 
" style="fill: none; stroke: #000000; stroke-width: 0.8; stroke-linejoin: miter; stroke-linecap: square"/>
   </g>
   <g id="patch_11">
    <path d="M 56.357054 458.728 
L 628.183658 458.728 
" style="fill: none; stroke: #000000; stroke-width: 0.8; stroke-linejoin: miter; stroke-linecap: square"/>
   </g>
   <g id="patch_12">
    <path d="M 56.357054 279.312 
L 628.183658 279.312 
" style="fill: none; stroke: #000000; stroke-width: 0.8; stroke-linejoin: miter; stroke-linecap: square"/>
   </g>
   <g id="text_30">
    <!-- Output FFT peak ≈ 1.400 (arb.), magnitude ≈ 1.383e+03 | band/flat-ish -->
    <g transform="translate(125.870981 273.312) scale(0.12 -0.12)">
     <defs>
      <path id="DejaVuSans-4f" d="M 2522 4238 
Q 1834 4238 1429 3725 
Q 1025 3213 1025 2328 
Q 1025 1447 1429 934 
Q 1834 422 2522 422 
Q 3209 422 3611 934 
Q 4013 1447 4013 2328 
Q 4013 3213 3611 3725 
Q 3209 4238 2522 4238 
z
M 2522 4750 
Q 3503 4750 4090 4092 
Q 4678 3434 4678 2328 
Q 4678 1225 4090 567 
Q 3503 -91 2522 -91 
Q 1538 -91 948 565 
Q 359 1222 359 2328 
Q 359 3434 948 4092 
Q 1538 4750 2522 4750 
z
" transform="scale(0.015625)"/>
      <path id="DejaVuSans-6b" d="M 581 4863 
L 1159 4863 
L 1159 1991 
L 2875 3500 
L 3609 3500 
L 1753 1863 
L 3688 0 
L 2938 0 
L 1159 1709 
L 1159 0 
L 581 0 
L 581 4863 
z
" transform="scale(0.015625)"/>
      <path id="DejaVuSans-2248" d="M 4684 1947 
L 4684 1388 
Q 4356 1144 4076 1036 
Q 3797 928 3494 928 
Q 3150 928 2694 1113 
Q 2663 1125 2641 1134 
Q 2622 1141 2575 1159 
Q 2091 1350 1797 1350 
Q 1522 1350 1253 1231 
Q 984 1113 678 850 
L 678 1409 
Q 1006 1653 1286 1761 
Q 1566 1869 1869 1869 
Q 2213 1869 2672 1684 
Q 2706 1669 2722 1663 
Q 2741 1656 2788 1638 
Q 3272 1447 3566 1447 
Q 3834 1447 4098 1564 
Q 4363 1681 4684 1947 
z
M 4684 3163 
L 4684 2606 
Q 4356 2359 4076 2251 
Q 3797 2144 3494 2144 
Q 3150 2144 2694 2328 
Q 2663 2341 2641 2350 
Q 2622 2356 2575 2375 
Q 2091 2566 1797 2566 
Q 1522 2566 1253 2447 
Q 984 2328 678 2069 
L 678 2625 
Q 1006 2869 1286 2976 
Q 1566 3084 1869 3084 
Q 2213 3084 2672 2900 
Q 2703 2888 2719 2881 
Q 2741 2872 2788 2853 
Q 3272 2663 3566 2663 
Q 3834 2663 4098 2780 
Q 4363 2897 4684 3163 
z
" transform="scale(0.015625)"/>
      <path id="DejaVuSans-6d" d="M 3328 2828 
Q 3544 3216 3844 3400 
Q 4144 3584 4550 3584 
Q 5097 3584 5394 3201 
Q 5691 2819 5691 2113 
L 5691 0 
L 5113 0 
L 5113 2094 
Q 5113 2597 4934 2840 
Q 4756 3084 4391 3084 
Q 3944 3084 3684 2787 
Q 3425 2491 3425 1978 
L 3425 0 
L 2847 0 
L 2847 2094 
Q 2847 2600 2669 2842 
Q 2491 3084 2119 3084 
Q 1678 3084 1418 2786 
Q 1159 2488 1159 1978 
L 1159 0 
L 581 0 
L 581 3500 
L 1159 3500 
L 1159 2956 
Q 1356 3278 1631 3431 
Q 1906 3584 2284 3584 
Q 2666 3584 2933 3390 
Q 3200 3197 3328 2828 
z
" transform="scale(0.015625)"/>
      <path id="DejaVuSans-2b" d="M 2944 4013 
L 2944 2272 
L 4684 2272 
L 4684 1741 
L 2944 1741 
L 2944 0 
L 2419 0 
L 2419 1741 
L 678 1741 
L 678 2272 
L 2419 2272 
L 2419 4013 
L 2944 4013 
z
" transform="scale(0.015625)"/>
      <path id="DejaVuSans-2f" d="M 1625 4666 
L 2156 4666 
L 531 -594 
L 0 -594 
L 1625 4666 
z
" transform="scale(0.015625)"/>
     </defs>
     <use xlink:href="#DejaVuSans-4f"/>
     <use xlink:href="#DejaVuSans-75" transform="translate(78.710938 0)"/>
     <use xlink:href="#DejaVuSans-74" transform="translate(142.089844 0)"/>
     <use xlink:href="#DejaVuSans-70" transform="translate(181.298828 0)"/>
     <use xlink:href="#DejaVuSans-75" transform="translate(244.775391 0)"/>
     <use xlink:href="#DejaVuSans-74" transform="translate(308.154297 0)"/>
     <use xlink:href="#DejaVuSans-20" transform="translate(347.363281 0)"/>
     <use xlink:href="#DejaVuSans-46" transform="translate(379.150391 0)"/>
     <use xlink:href="#DejaVuSans-46" transform="translate(436.669922 0)"/>
     <use xlink:href="#DejaVuSans-54" transform="translate(492.439453 0)"/>
     <use xlink:href="#DejaVuSans-20" transform="translate(553.523438 0)"/>
     <use xlink:href="#DejaVuSans-70" transform="translate(585.310547 0)"/>
     <use xlink:href="#DejaVuSans-65" transform="translate(648.787109 0)"/>
     <use xlink:href="#DejaVuSans-61" transform="translate(710.310547 0)"/>
     <use xlink:href="#DejaVuSans-6b" transform="translate(771.589844 0)"/>
     <use xlink:href="#DejaVuSans-20" transform="translate(829.5 0)"/>
     <use xlink:href="#DejaVuSans-2248" transform="translate(861.287109 0)"/>
     <use xlink:href="#DejaVuSans-20" transform="translate(945.076172 0)"/>
     <use xlink:href="#DejaVuSans-31" transform="translate(976.863281 0)"/>
     <use xlink:href="#DejaVuSans-2e" transform="translate(1040.486328 0)"/>
     <use xlink:href="#DejaVuSans-34" transform="translate(1072.273438 0)"/>
     <use xlink:href="#DejaVuSans-30" transform="translate(1135.896484 0)"/>
     <use xlink:href="#DejaVuSans-30" transform="translate(1199.519531 0)"/>
     <use xlink:href="#DejaVuSans-20" transform="translate(1263.142578 0)"/>
     <use xlink:href="#DejaVuSans-28" transform="translate(1294.929688 0)"/>
     <use xlink:href="#DejaVuSans-61" transform="translate(1333.943359 0)"/>
     <use xlink:href="#DejaVuSans-72" transform="translate(1395.222656 0)"/>
     <use xlink:href="#DejaVuSans-62" transform="translate(1436.335938 0)"/>
     <use xlink:href="#DejaVuSans-2e" transform="translate(1499.8125 0)"/>
     <use xlink:href="#DejaVuSans-29" transform="translate(1531.599609 0)"/>
     <use xlink:href="#DejaVuSans-2c" transform="translate(1570.613281 0)"/>
     <use xlink:href="#DejaVuSans-20" transform="translate(1602.400391 0)"/>
     <use xlink:href="#DejaVuSans-6d" transform="translate(1634.1875 0)"/>
     <use xlink:href="#DejaVuSans-61" transform="translate(1731.599609 0)"/>
     <use xlink:href="#DejaVuSans-67" transform="translate(1792.878906 0)"/>
     <use xlink:href="#DejaVuSans-6e" transform="translate(1856.355469 0)"/>
     <use xlink:href="#DejaVuSans-69" transform="translate(1919.734375 0)"/>
     <use xlink:href="#DejaVuSans-74" transform="translate(1947.517578 0)"/>
     <use xlink:href="#DejaVuSans-75" transform="translate(1986.726562 0)"/>
     <use xlink:href="#DejaVuSans-64" transform="translate(2050.105469 0)"/>
     <use xlink:href="#DejaVuSans-65" transform="translate(2113.582031 0)"/>
     <use xlink:href="#DejaVuSans-20" transform="translate(2175.105469 0)"/>
     <use xlink:href="#DejaVuSans-2248" transform="translate(2206.892578 0)"/>
     <use xlink:href="#DejaVuSans-20" transform="translate(2290.681641 0)"/>
     <use xlink:href="#DejaVuSans-31" transform="translate(2322.46875 0)"/>
     <use xlink:href="#DejaVuSans-2e" transform="translate(2386.091797 0)"/>
     <use xlink:href="#DejaVuSans-33" transform="translate(2417.878906 0)"/>
     <use xlink:href="#DejaVuSans-38" transform="translate(2481.501953 0)"/>
     <use xlink:href="#DejaVuSans-33" transform="translate(2545.125 0)"/>
     <use xlink:href="#DejaVuSans-65" transform="translate(2608.748047 0)"/>
     <use xlink:href="#DejaVuSans-2b" transform="translate(2670.271484 0)"/>
     <use xlink:href="#DejaVuSans-30" transform="translate(2754.060547 0)"/>
     <use xlink:href="#DejaVuSans-33" transform="translate(2817.683594 0)"/>
     <use xlink:href="#DejaVuSans-20" transform="translate(2881.306641 0)"/>
     <use xlink:href="#DejaVuSans-7c" transform="translate(2913.09375 0)"/>
     <use xlink:href="#DejaVuSans-20" transform="translate(2946.785156 0)"/>
     <use xlink:href="#DejaVuSans-62" transform="translate(2978.572266 0)"/>
     <use xlink:href="#DejaVuSans-61" transform="translate(3042.048828 0)"/>
     <use xlink:href="#DejaVuSans-6e" transform="translate(3103.328125 0)"/>
     <use xlink:href="#DejaVuSans-64" transform="translate(3166.707031 0)"/>
     <use xlink:href="#DejaVuSans-2f" transform="translate(3230.183594 0)"/>
     <use xlink:href="#DejaVuSans-66" transform="translate(3263.875 0)"/>
     <use xlink:href="#DejaVuSans-6c" transform="translate(3299.080078 0)"/>
     <use xlink:href="#DejaVuSans-61" transform="translate(3326.863281 0)"/>
     <use xlink:href="#DejaVuSans-74" transform="translate(3388.142578 0)"/>
     <use xlink:href="#DejaVuSans-2d" transform="translate(3427.351562 0)"/>
     <use xlink:href="#DejaVuSans-69" transform="translate(3463.435547 0)"/>
     <use xlink:href="#DejaVuSans-73" transform="translate(3491.21875 0)"/>
     <use xlink:href="#DejaVuSans-68" transform="translate(3543.318359 0)"/>
    </g>
   </g>
   <g id="legend_2">
    <g id="patch_13">
     <path d="M 535.586783 316.66825 
L 621.183658 316.66825 
Q 623.183658 316.66825 623.183658 314.66825 
L 623.183658 286.312 
Q 623.183658 284.312 621.183658 284.312 
L 535.586783 284.312 
Q 533.586783 284.312 533.586783 286.312 
L 533.586783 314.66825 
Q 533.586783 316.66825 535.586783 316.66825 
z
" style="fill: #ffffff; opacity: 0.8; stroke: #cccccc; stroke-linejoin: miter"/>
    </g>
    <g id="line2d_67">
     <path d="M 537.586783 292.410438 
L 547.586783 292.410438 
L 557.586783 292.410438 
" style="fill: none; stroke: #1f77b4; stroke-opacity: 0.6; stroke-width: 1.5; stroke-linecap: square"/>
    </g>
    <g id="text_31">
     <!-- input FFT -->
     <g transform="translate(565.586783 295.910438) scale(0.1 -0.1)">
      <use xlink:href="#DejaVuSans-69"/>
      <use xlink:href="#DejaVuSans-6e" transform="translate(27.783203 0)"/>
      <use xlink:href="#DejaVuSans-70" transform="translate(91.162109 0)"/>
      <use xlink:href="#DejaVuSans-75" transform="translate(154.638672 0)"/>
      <use xlink:href="#DejaVuSans-74" transform="translate(218.017578 0)"/>
      <use xlink:href="#DejaVuSans-20" transform="translate(257.226562 0)"/>
      <use xlink:href="#DejaVuSans-46" transform="translate(289.013672 0)"/>
      <use xlink:href="#DejaVuSans-46" transform="translate(346.533203 0)"/>
      <use xlink:href="#DejaVuSans-54" transform="translate(402.302734 0)"/>
     </g>
    </g>
    <g id="line2d_68">
     <path d="M 537.586783 307.088562 
L 547.586783 307.088562 
L 557.586783 307.088562 
" style="fill: none; stroke: #ff7f0e; stroke-width: 1.5; stroke-linecap: square"/>
    </g>
    <g id="text_32">
     <!-- output FFT -->
     <g transform="translate(565.586783 310.588562) scale(0.1 -0.1)">
      <use xlink:href="#DejaVuSans-6f"/>
      <use xlink:href="#DejaVuSans-75" transform="translate(61.181641 0)"/>
      <use xlink:href="#DejaVuSans-74" transform="translate(124.560547 0)"/>
      <use xlink:href="#DejaVuSans-70" transform="translate(163.769531 0)"/>
      <use xlink:href="#DejaVuSans-75" transform="translate(227.246094 0)"/>
      <use xlink:href="#DejaVuSans-74" transform="translate(290.625 0)"/>
      <use xlink:href="#DejaVuSans-20" transform="translate(329.833984 0)"/>
      <use xlink:href="#DejaVuSans-46" transform="translate(361.621094 0)"/>
      <use xlink:href="#DejaVuSans-46" transform="translate(419.140625 0)"/>
      <use xlink:href="#DejaVuSans-54" transform="translate(474.910156 0)"/>
     </g>
    </g>
   </g>
  </g>
 </g>
 <defs>
  <clipPath id="p2d40c52fbe">
   <rect x="56.357054" y="41.856" width="571.826604" height="179.416"/>
  </clipPath>
  <clipPath id="p7ff5359a5c">
   <rect x="56.357054" y="279.312" width="571.826604" height="179.416"/>
  </clipPath>
 </defs>
</svg>
