<?xml version="1.0" encoding="utf-8" standalone="no"?>
<!DOCTYPE svg PUBLIC "-//W3C//DTD SVG 1.1//EN"
  "http://www.w3.org/Graphics/SVG/1.1/DTD/svg11.dtd">
<svg xmlns:xlink="http://www.w3.org/1999/xlink" width="648pt" height="504pt" viewBox="0 0 648 504" xmlns="http://www.w3.org/2000/svg" version="1.1">
 <metadata>
  <rdf:RDF xmlns:dc="http://purl.org/dc/elements/1.1/" xmlns:cc="http://creativecommons.org/ns#" xmlns:rdf="http://www.w3.org/1999/02/22-rdf-syntax-ns#">
   <cc:Work>
    <dc:type rdf:resource="http://purl.org/dc/dcmitype/StillImage"/>
    <dc:date>2026-04-30T03:51:01.135651</dc:date>
    <dc:format>image/svg+xml</dc:format>
    <dc:creator>
     <cc:Agent>
      <dc:title>Matplotlib v3.10.9, https://matplotlib.org/</dc:title>
     </cc:Agent>
    </dc:creator>
   </cc:Work>
  </rdf:RDF>
 </metadata>
 <defs>
  <style type="text/css">*{stroke-linejoin: round; stroke-linecap: butt}</style>
 </defs>
 <g id="figure_1">
  <g id="patch_1">
   <path d="M 0 504 
L 648 504 
L 648 0 
L 0 0 
z
" style="fill: #ffffff"/>
  </g>
  <g id="axes_1">
   <g id="patch_2">
    <path d="M 56.312054 221.272 
L 628.183658 221.272 
L 628.183658 41.856 
L 56.312054 41.856 
z
" style="fill: #ffffff"/>
   </g>
   <g id="matplotlib.axis_1">
    <g id="xtick_1">
     <g id="line2d_1">
      <path d="M 82.306218 221.272 
L 82.306218 41.856 
" clip-path="url(#p29be5cd55d)" style="fill: none; stroke: #b0b0b0; stroke-opacity: 0.25; stroke-width: 0.8; stroke-linecap: square"/>
     </g>
     <g id="line2d_2">
      <defs>
       <path id="mfbebfd1401" d="M 0 0 
L 0 3.5 
" style="stroke: #000000; stroke-width: 0.8"/>
      </defs>
      <g>
       <use xlink:href="#mfbebfd1401" x="82.306218" y="221.272" style="stroke: #000000; stroke-width: 0.8"/>
      </g>
     </g>
     <g id="text_1">
      <!-- 0 -->
      <g transform="translate(79.124968 235.870437) scale(0.1 -0.1)">
       <defs>
        <path id="DejaVuSans-30" d="M 2034 4250 
Q 1547 4250 1301 3770 
Q 1056 3291 1056 2328 
Q 1056 1369 1301 889 
Q 1547 409 2034 409 
Q 2525 409 2770 889 
Q 3016 1369 3016 2328 
Q 3016 3291 2770 3770 
Q 2525 4250 2034 4250 
z
M 2034 4750 
Q 2819 4750 3233 4129 
Q 3647 3509 3647 2328 
Q 3647 1150 3233 529 
Q 2819 -91 2034 -91 
Q 1250 -91 836 529 
Q 422 1150 422 2328 
Q 422 3509 836 4129 
Q 1250 4750 2034 4750 
z
" transform="scale(0.015625)"/>
       </defs>
       <use xlink:href="#DejaVuSans-30"/>
      </g>
     </g>
    </g>
    <g id="xtick_2">
     <g id="line2d_3">
      <path d="M 186.308264 221.272 
L 186.308264 41.856 
" clip-path="url(#p29be5cd55d)" style="fill: none; stroke: #b0b0b0; stroke-opacity: 0.25; stroke-width: 0.8; stroke-linecap: square"/>
     </g>
     <g id="line2d_4">
      <g>
       <use xlink:href="#mfbebfd1401" x="186.308264" y="221.272" style="stroke: #000000; stroke-width: 0.8"/>
      </g>
     </g>
     <g id="text_2">
      <!-- 2 -->
      <g transform="translate(183.127014 235.870437) scale(0.1 -0.1)">
       <defs>
        <path id="DejaVuSans-32" d="M 1228 531 
L 3431 531 
L 3431 0 
L 469 0 
L 469 531 
Q 828 903 1448 1529 
Q 2069 2156 2228 2338 
Q 2531 2678 2651 2914 
Q 2772 3150 2772 3378 
Q 2772 3750 2511 3984 
Q 2250 4219 1831 4219 
Q 1534 4219 1204 4116 
Q 875 4013 500 3803 
L 500 4441 
Q 881 4594 1212 4672 
Q 1544 4750 1819 4750 
Q 2544 4750 2975 4387 
Q 3406 4025 3406 3419 
Q 3406 3131 3298 2873 
Q 3191 2616 2906 2266 
Q 2828 2175 2409 1742 
Q 1991 1309 1228 531 
z
" transform="scale(0.015625)"/>
       </defs>
       <use xlink:href="#DejaVuSans-32"/>
      </g>
     </g>
    </g>
    <g id="xtick_3">
     <g id="line2d_5">
      <path d="M 290.31031 221.272 
L 290.31031 41.856 
" clip-path="url(#p29be5cd55d)" style="fill: none; stroke: #b0b0b0; stroke-opacity: 0.25; stroke-width: 0.8; stroke-linecap: square"/>
     </g>
     <g id="line2d_6">
      <g>
       <use xlink:href="#mfbebfd1401" x="290.31031" y="221.272" style="stroke: #000000; stroke-width: 0.8"/>
      </g>
     </g>
     <g id="text_3">
      <!-- 4 -->
      <g transform="translate(287.12906 235.870437) scale(0.1 -0.1)">
       <defs>
        <path id="DejaVuSans-34" d="M 2419 4116 
L 825 1625 
L 2419 1625 
L 2419 4116 
z
M 2253 4666 
L 3047 4666 
L 3047 1625 
L 3713 1625 
L 3713 1100 
L 3047 1100 
L 3047 0 
L 2419 0 
L 2419 1100 
L 313 1100 
L 313 1709 
L 2253 4666 
z
" transform="scale(0.015625)"/>
       </defs>
       <use xlink:href="#DejaVuSans-34"/>
      </g>
     </g>
    </g>
    <g id="xtick_4">
     <g id="line2d_7">
      <path d="M 394.312357 221.272 
L 394.312357 41.856 
" clip-path="url(#p29be5cd55d)" style="fill: none; stroke: #b0b0b0; stroke-opacity: 0.25; stroke-width: 0.8; stroke-linecap: square"/>
     </g>
     <g id="line2d_8">
      <g>
       <use xlink:href="#mfbebfd1401" x="394.312357" y="221.272" style="stroke: #000000; stroke-width: 0.8"/>
      </g>
     </g>
     <g id="text_4">
      <!-- 6 -->
      <g transform="translate(391.131107 235.870437) scale(0.1 -0.1)">
       <defs>
        <path id="DejaVuSans-36" d="M 2113 2584 
Q 1688 2584 1439 2293 
Q 1191 2003 1191 1497 
Q 1191 994 1439 701 
Q 1688 409 2113 409 
Q 2538 409 2786 701 
Q 3034 994 3034 1497 
Q 3034 2003 2786 2293 
Q 2538 2584 2113 2584 
z
M 3366 4563 
L 3366 3988 
Q 3128 4100 2886 4159 
Q 2644 4219 2406 4219 
Q 1781 4219 1451 3797 
Q 1122 3375 1075 2522 
Q 1259 2794 1537 2939 
Q 1816 3084 2150 3084 
Q 2853 3084 3261 2657 
Q 3669 2231 3669 1497 
Q 3669 778 3244 343 
Q 2819 -91 2113 -91 
Q 1303 -91 875 529 
Q 447 1150 447 2328 
Q 447 3434 972 4092 
Q 1497 4750 2381 4750 
Q 2619 4750 2861 4703 
Q 3103 4656 3366 4563 
z
" transform="scale(0.015625)"/>
       </defs>
       <use xlink:href="#DejaVuSans-36"/>
      </g>
     </g>
    </g>
    <g id="xtick_5">
     <g id="line2d_9">
      <path d="M 498.314403 221.272 
L 498.314403 41.856 
" clip-path="url(#p29be5cd55d)" style="fill: none; stroke: #b0b0b0; stroke-opacity: 0.25; stroke-width: 0.8; stroke-linecap: square"/>
     </g>
     <g id="line2d_10">
      <g>
       <use xlink:href="#mfbebfd1401" x="498.314403" y="221.272" style="stroke: #000000; stroke-width: 0.8"/>
      </g>
     </g>
     <g id="text_5">
      <!-- 8 -->
      <g transform="translate(495.133153 235.870437) scale(0.1 -0.1)">
       <defs>
        <path id="DejaVuSans-38" d="M 2034 2216 
Q 1584 2216 1326 1975 
Q 1069 1734 1069 1313 
Q 1069 891 1326 650 
Q 1584 409 2034 409 
Q 2484 409 2743 651 
Q 3003 894 3003 1313 
Q 3003 1734 2745 1975 
Q 2488 2216 2034 2216 
z
M 1403 2484 
Q 997 2584 770 2862 
Q 544 3141 544 3541 
Q 544 4100 942 4425 
Q 1341 4750 2034 4750 
Q 2731 4750 3128 4425 
Q 3525 4100 3525 3541 
Q 3525 3141 3298 2862 
Q 3072 2584 2669 2484 
Q 3125 2378 3379 2068 
Q 3634 1759 3634 1313 
Q 3634 634 3220 271 
Q 2806 -91 2034 -91 
Q 1263 -91 848 271 
Q 434 634 434 1313 
Q 434 1759 690 2068 
Q 947 2378 1403 2484 
z
M 1172 3481 
Q 1172 3119 1398 2916 
Q 1625 2713 2034 2713 
Q 2441 2713 2670 2916 
Q 2900 3119 2900 3481 
Q 2900 3844 2670 4047 
Q 2441 4250 2034 4250 
Q 1625 4250 1398 4047 
Q 1172 3844 1172 3481 
z
" transform="scale(0.015625)"/>
       </defs>
       <use xlink:href="#DejaVuSans-38"/>
      </g>
     </g>
    </g>
    <g id="xtick_6">
     <g id="line2d_11">
      <path d="M 602.316449 221.272 
L 602.316449 41.856 
" clip-path="url(#p29be5cd55d)" style="fill: none; stroke: #b0b0b0; stroke-opacity: 0.25; stroke-width: 0.8; stroke-linecap: square"/>
     </g>
     <g id="line2d_12">
      <g>
       <use xlink:href="#mfbebfd1401" x="602.316449" y="221.272" style="stroke: #000000; stroke-width: 0.8"/>
      </g>
     </g>
     <g id="text_6">
      <!-- 10 -->
      <g transform="translate(595.953949 235.870437) scale(0.1 -0.1)">
       <defs>
        <path id="DejaVuSans-31" d="M 794 531 
L 1825 531 
L 1825 4091 
L 703 3866 
L 703 4441 
L 1819 4666 
L 2450 4666 
L 2450 531 
L 3481 531 
L 3481 0 
L 794 0 
L 794 531 
z
" transform="scale(0.015625)"/>
       </defs>
       <use xlink:href="#DejaVuSans-31"/>
       <use xlink:href="#DejaVuSans-30" transform="translate(63.623047 0)"/>
      </g>
     </g>
    </g>
    <g id="text_7">
     <!-- t [arb.] -->
     <g transform="translate(324.914262 249.548563) scale(0.1 -0.1)">
      <defs>
       <path id="DejaVuSans-74" d="M 1172 4494 
L 1172 3500 
L 2356 3500 
L 2356 3053 
L 1172 3053 
L 1172 1153 
Q 1172 725 1289 603 
Q 1406 481 1766 481 
L 2356 481 
L 2356 0 
L 1766 0 
Q 1100 0 847 248 
Q 594 497 594 1153 
L 594 3053 
L 172 3053 
L 172 3500 
L 594 3500 
L 594 4494 
L 1172 4494 
z
" transform="scale(0.015625)"/>
       <path id="DejaVuSans-20" transform="scale(0.015625)"/>
       <path id="DejaVuSans-5b" d="M 550 4863 
L 1875 4863 
L 1875 4416 
L 1125 4416 
L 1125 -397 
L 1875 -397 
L 1875 -844 
L 550 -844 
L 550 4863 
z
" transform="scale(0.015625)"/>
       <path id="DejaVuSans-61" d="M 2194 1759 
Q 1497 1759 1228 1600 
Q 959 1441 959 1056 
Q 959 750 1161 570 
Q 1363 391 1709 391 
Q 2188 391 2477 730 
Q 2766 1069 2766 1631 
L 2766 1759 
L 2194 1759 
z
M 3341 1997 
L 3341 0 
L 2766 0 
L 2766 531 
Q 2569 213 2275 61 
Q 1981 -91 1556 -91 
Q 1019 -91 701 211 
Q 384 513 384 1019 
Q 384 1609 779 1909 
Q 1175 2209 1959 2209 
L 2766 2209 
L 2766 2266 
Q 2766 2663 2505 2880 
Q 2244 3097 1772 3097 
Q 1472 3097 1187 3025 
Q 903 2953 641 2809 
L 641 3341 
Q 956 3463 1253 3523 
Q 1550 3584 1831 3584 
Q 2591 3584 2966 3190 
Q 3341 2797 3341 1997 
z
" transform="scale(0.015625)"/>
       <path id="DejaVuSans-72" d="M 2631 2963 
Q 2534 3019 2420 3045 
Q 2306 3072 2169 3072 
Q 1681 3072 1420 2755 
Q 1159 2438 1159 1844 
L 1159 0 
L 581 0 
L 581 3500 
L 1159 3500 
L 1159 2956 
Q 1341 3275 1631 3429 
Q 1922 3584 2338 3584 
Q 2397 3584 2469 3576 
Q 2541 3569 2628 3553 
L 2631 2963 
z
" transform="scale(0.015625)"/>
       <path id="DejaVuSans-62" d="M 3116 1747 
Q 3116 2381 2855 2742 
Q 2594 3103 2138 3103 
Q 1681 3103 1420 2742 
Q 1159 2381 1159 1747 
Q 1159 1113 1420 752 
Q 1681 391 2138 391 
Q 2594 391 2855 752 
Q 3116 1113 3116 1747 
z
M 1159 2969 
Q 1341 3281 1617 3432 
Q 1894 3584 2278 3584 
Q 2916 3584 3314 3078 
Q 3713 2572 3713 1747 
Q 3713 922 3314 415 
Q 2916 -91 2278 -91 
Q 1894 -91 1617 61 
Q 1341 213 1159 525 
L 1159 0 
L 581 0 
L 581 4863 
L 1159 4863 
L 1159 2969 
z
" transform="scale(0.015625)"/>
       <path id="DejaVuSans-2e" d="M 684 794 
L 1344 794 
L 1344 0 
L 684 0 
L 684 794 
z
" transform="scale(0.015625)"/>
       <path id="DejaVuSans-5d" d="M 1947 4863 
L 1947 -844 
L 622 -844 
L 622 -397 
L 1369 -397 
L 1369 4416 
L 622 4416 
L 622 4863 
L 1947 4863 
z
" transform="scale(0.015625)"/>
      </defs>
      <use xlink:href="#DejaVuSans-74"/>
      <use xlink:href="#DejaVuSans-20" transform="translate(39.208984 0)"/>
      <use xlink:href="#DejaVuSans-5b" transform="translate(70.996094 0)"/>
      <use xlink:href="#DejaVuSans-61" transform="translate(110.009766 0)"/>
      <use xlink:href="#DejaVuSans-72" transform="translate(171.289062 0)"/>
      <use xlink:href="#DejaVuSans-62" transform="translate(212.402344 0)"/>
      <use xlink:href="#DejaVuSans-2e" transform="translate(275.878906 0)"/>
      <use xlink:href="#DejaVuSans-5d" transform="translate(307.666016 0)"/>
     </g>
    </g>
   </g>
   <g id="matplotlib.axis_2">
    <g id="ytick_1">
     <g id="line2d_13">
      <path d="M 56.312054 218.406792 
L 628.183658 218.406792 
" clip-path="url(#p29be5cd55d)" style="fill: none; stroke: #b0b0b0; stroke-opacity: 0.25; stroke-width: 0.8; stroke-linecap: square"/>
     </g>
     <g id="line2d_14">
      <defs>
       <path id="mfc4f3b7020" d="M 0 0 
L -3.5 0 
" style="stroke: #000000; stroke-width: 0.8"/>
      </defs>
      <g>
       <use xlink:href="#mfc4f3b7020" x="56.312054" y="218.406792" style="stroke: #000000; stroke-width: 0.8"/>
      </g>
     </g>
     <g id="text_8">
      <!-- −1.0 -->
      <g transform="translate(25.029241 222.206011) scale(0.1 -0.1)">
       <defs>
        <path id="DejaVuSans-2212" d="M 678 2272 
L 4684 2272 
L 4684 1741 
L 678 1741 
L 678 2272 
z
" transform="scale(0.015625)"/>
       </defs>
       <use xlink:href="#DejaVuSans-2212"/>
       <use xlink:href="#DejaVuSans-31" transform="translate(83.789062 0)"/>
       <use xlink:href="#DejaVuSans-2e" transform="translate(147.412109 0)"/>
       <use xlink:href="#DejaVuSans-30" transform="translate(179.199219 0)"/>
      </g>
     </g>
    </g>
    <g id="ytick_2">
     <g id="line2d_15">
      <path d="M 56.312054 174.248242 
L 628.183658 174.248242 
" clip-path="url(#p29be5cd55d)" style="fill: none; stroke: #b0b0b0; stroke-opacity: 0.25; stroke-width: 0.8; stroke-linecap: square"/>
     </g>
     <g id="line2d_16">
      <g>
       <use xlink:href="#mfc4f3b7020" x="56.312054" y="174.248242" style="stroke: #000000; stroke-width: 0.8"/>
      </g>
     </g>
     <g id="text_9">
      <!-- −0.5 -->
      <g transform="translate(25.029241 178.047461) scale(0.1 -0.1)">
       <defs>
        <path id="DejaVuSans-35" d="M 691 4666 
L 3169 4666 
L 3169 4134 
L 1269 4134 
L 1269 2991 
Q 1406 3038 1543 3061 
Q 1681 3084 1819 3084 
Q 2600 3084 3056 2656 
Q 3513 2228 3513 1497 
Q 3513 744 3044 326 
Q 2575 -91 1722 -91 
Q 1428 -91 1123 -41 
Q 819 9 494 109 
L 494 744 
Q 775 591 1075 516 
Q 1375 441 1709 441 
Q 2250 441 2565 725 
Q 2881 1009 2881 1497 
Q 2881 1984 2565 2268 
Q 2250 2553 1709 2553 
Q 1456 2553 1204 2497 
Q 953 2441 691 2322 
L 691 4666 
z
" transform="scale(0.015625)"/>
       </defs>
       <use xlink:href="#DejaVuSans-2212"/>
       <use xlink:href="#DejaVuSans-30" transform="translate(83.789062 0)"/>
       <use xlink:href="#DejaVuSans-2e" transform="translate(147.412109 0)"/>
       <use xlink:href="#DejaVuSans-35" transform="translate(179.199219 0)"/>
      </g>
     </g>
    </g>
    <g id="ytick_3">
     <g id="line2d_17">
      <path d="M 56.312054 130.089692 
L 628.183658 130.089692 
" clip-path="url(#p29be5cd55d)" style="fill: none; stroke: #b0b0b0; stroke-opacity: 0.25; stroke-width: 0.8; stroke-linecap: square"/>
     </g>
     <g id="line2d_18">
      <g>
       <use xlink:href="#mfc4f3b7020" x="56.312054" y="130.089692" style="stroke: #000000; stroke-width: 0.8"/>
      </g>
     </g>
     <g id="text_10">
      <!-- 0.0 -->
      <g transform="translate(33.408929 133.888911) scale(0.1 -0.1)">
       <use xlink:href="#DejaVuSans-30"/>
       <use xlink:href="#DejaVuSans-2e" transform="translate(63.623047 0)"/>
       <use xlink:href="#DejaVuSans-30" transform="translate(95.410156 0)"/>
      </g>
     </g>
    </g>
    <g id="ytick_4">
     <g id="line2d_19">
      <path d="M 56.312054 85.931142 
L 628.183658 85.931142 
" clip-path="url(#p29be5cd55d)" style="fill: none; stroke: #b0b0b0; stroke-opacity: 0.25; stroke-width: 0.8; stroke-linecap: square"/>
     </g>
     <g id="line2d_20">
      <g>
       <use xlink:href="#mfc4f3b7020" x="56.312054" y="85.931142" style="stroke: #000000; stroke-width: 0.8"/>
      </g>
     </g>
     <g id="text_11">
      <!-- 0.5 -->
      <g transform="translate(33.408929 89.730361) scale(0.1 -0.1)">
       <use xlink:href="#DejaVuSans-30"/>
       <use xlink:href="#DejaVuSans-2e" transform="translate(63.623047 0)"/>
       <use xlink:href="#DejaVuSans-35" transform="translate(95.410156 0)"/>
      </g>
     </g>
    </g>
    <g id="text_12">
     <!-- [arb.] -->
     <g transform="translate(18.949554 145.348375) rotate(-90) scale(0.1 -0.1)">
      <use xlink:href="#DejaVuSans-5b"/>
      <use xlink:href="#DejaVuSans-61" transform="translate(39.013672 0)"/>
      <use xlink:href="#DejaVuSans-72" transform="translate(100.292969 0)"/>
      <use xlink:href="#DejaVuSans-62" transform="translate(141.40625 0)"/>
      <use xlink:href="#DejaVuSans-2e" transform="translate(204.882812 0)"/>
      <use xlink:href="#DejaVuSans-5d" transform="translate(236.669922 0)"/>
     </g>
    </g>
   </g>
   <g id="line2d_21">
    <path d="M 82.306218 130.089692 
L 87.003576 100.605855 
L 89.415733 86.830781 
L 91.447023 76.465312 
L 93.224401 68.553915 
L 94.747869 62.762537 
L 96.144381 58.335317 
L 97.286981 55.380855 
L 98.302626 53.281231 
L 99.318271 51.691831 
L 100.206961 50.728035 
L 100.968694 50.22309 
L 101.603472 50.030277 
L 102.238251 50.045276 
L 102.873029 50.26805 
L 103.634762 50.808787 
L 104.396496 51.645836 
L 105.285185 52.992663 
L 106.30083 55.011599 
L 107.316475 57.529266 
L 108.459076 60.936831 
L 109.728632 65.40338 
L 111.2521 71.644644 
L 112.902523 79.387854 
L 114.806857 89.417007 
L 117.092058 102.68185 
L 120.265949 122.529183 
L 126.359819 160.875112 
L 128.771976 174.524136 
L 130.803266 184.749139 
L 132.453689 192.000597 
L 133.977156 197.73381 
L 135.246712 201.742894 
L 136.389313 204.716417 
L 137.404958 206.833569 
L 138.420603 208.440926 
L 139.309292 209.420693 
L 140.071026 209.939455 
L 140.705804 210.143832 
L 141.340582 210.14041 
L 141.975361 209.929198 
L 142.737094 209.40227 
L 143.498828 208.578913 
L 144.387517 207.24784 
L 145.403162 205.246525 
L 146.418807 202.745956 
L 147.561408 199.35686 
L 148.830964 194.909698 
L 150.354432 188.68985 
L 152.004855 180.967219 
L 153.909189 170.957963 
L 156.19439 157.710943 
L 159.368281 137.876399 
L 165.589106 98.761543 
L 168.001263 85.166602 
L 169.905598 75.596538 
L 171.556021 68.323166 
L 173.079488 62.567468 
L 174.476 58.175528 
L 175.618601 55.251445 
L 176.634246 53.179744 
L 177.522935 51.785716 
L 178.411624 50.789987 
L 179.173358 50.257413 
L 179.808136 50.041473 
L 180.442914 50.033318 
L 181.077692 50.232967 
L 181.839426 50.74608 
L 182.60116 51.55574 
L 183.489849 52.871046 
L 184.378539 54.579131 
L 185.394184 57.000945 
L 186.536784 60.304902 
L 187.80634 64.662598 
L 189.202852 70.23822 
L 190.853275 77.790157 
L 192.75761 87.633593 
L 195.042811 100.73079 
L 198.089746 119.64508 
L 204.94535 162.70586 
L 207.230551 175.499 
L 209.134885 185.012825 
L 210.785308 192.229293 
L 212.308776 197.926635 
L 213.578332 201.903603 
L 214.720932 204.846785 
L 215.736577 206.93604 
L 216.752222 208.514819 
L 217.640912 209.46917 
L 218.402646 209.965947 
L 219.037424 210.151923 
L 219.672202 210.13008 
L 220.30698 209.900473 
L 221.068714 209.351575 
L 221.830447 208.506436 
L 222.719137 207.1503 
L 223.734782 205.120955 
L 224.750427 202.593191 
L 225.893027 199.174722 
L 227.162584 194.696729 
L 228.686051 188.442829 
L 230.336474 180.687484 
L 232.240808 170.646607 
L 234.52601 157.371279 
L 237.6999 137.516461 
L 243.79377 99.180309 
L 246.205927 85.543559 
L 248.237217 75.332151 
L 249.88764 68.093676 
L 251.411108 62.373776 
L 252.680664 58.376614 
L 253.823264 55.414356 
L 254.838909 53.307563 
L 255.854554 51.710819 
L 256.743244 50.740493 
L 257.504977 50.229897 
L 258.139756 50.032356 
L 258.774534 50.042622 
L 259.409312 50.260668 
L 260.171046 50.795759 
L 260.932779 51.627211 
L 261.821469 52.967598 
L 262.837114 54.979332 
L 263.852759 57.49001 
L 264.995359 60.890026 
L 266.264915 65.348653 
L 267.788383 71.581167 
L 269.438806 79.31597 
L 271.34314 89.336998 
L 273.628342 102.594567 
L 276.802232 122.436689 
L 283.023058 161.541421 
L 285.435214 175.12392 
L 287.339549 184.6812 
L 288.989972 191.941624 
L 290.513439 197.684037 
L 291.909951 202.062847 
L 293.052552 204.975629 
L 294.068197 207.036944 
L 294.956886 208.42168 
L 295.845576 209.407974 
L 296.607309 209.932384 
L 297.242087 210.141489 
L 297.876866 210.1428 
L 298.511644 209.936316 
L 299.273377 209.415036 
L 300.035111 208.597279 
L 300.9238 207.272651 
L 301.939445 205.278546 
L 302.95509 202.784973 
L 304.097691 199.403436 
L 305.367247 194.964211 
L 306.890715 188.753135 
L 308.541138 181.038935 
L 310.445472 171.037838 
L 312.730673 157.798135 
L 315.904564 137.968867 
L 322.12539 98.847072 
L 324.537546 85.243548 
L 326.441881 75.664657 
L 328.092304 68.382342 
L 329.615771 62.617464 
L 331.012283 58.216449 
L 332.154884 55.284554 
L 333.170529 53.205674 
L 334.186174 51.637521 
L 335.074863 50.692616 
L 335.836597 50.20401 
L 336.471375 50.024871 
L 337.106153 50.053558 
L 337.740931 50.289997 
L 338.502665 50.847055 
L 339.264399 51.700282 
L 340.153088 53.065723 
L 341.168733 55.10547 
L 342.311334 57.994775 
L 343.58089 61.914669 
L 344.977402 67.041807 
L 346.500869 73.535182 
L 348.278248 82.170864 
L 350.309538 93.22137 
L 352.84865 108.372892 
L 357.038186 135.024343 
L 361.100766 160.369064 
L 363.512923 174.067704 
L 365.544213 184.347816 
L 367.194636 191.651964 
L 368.718103 197.439261 
L 370.114615 201.862445 
L 371.257216 204.813429 
L 372.272861 206.909858 
L 373.288506 208.495983 
L 374.177195 209.456867 
L 374.938929 209.959294 
L 375.573707 210.15 
L 376.208485 210.13289 
L 376.843263 209.90801 
L 377.604997 209.364756 
L 378.36673 208.525213 
L 379.25542 207.175515 
L 380.271065 205.153369 
L 381.28671 202.632588 
L 382.42931 199.221661 
L 383.698867 194.751582 
L 385.222334 188.50642 
L 386.872757 180.759466 
L 388.777092 170.726695 
L 391.062293 157.458615 
L 394.236183 137.608969 
L 400.330053 99.266043 
L 402.74221 85.620799 
L 404.7735 75.399985 
L 406.423923 68.152528 
L 407.947391 62.423417 
L 409.216947 58.418008 
L 410.359547 55.447958 
L 411.375192 53.333998 
L 412.390837 51.729913 
L 413.279527 50.753057 
L 414.041261 50.236813 
L 414.676039 50.034543 
L 415.310817 50.040075 
L 415.945595 50.253394 
L 416.707329 50.782839 
L 417.469062 51.608692 
L 418.357752 52.942637 
L 419.373397 54.947165 
L 420.389042 57.450851 
L 421.531642 60.843316 
L 422.801199 65.294014 
L 424.324666 71.517769 
L 425.975089 79.244155 
L 427.879423 89.257043 
L 430.164625 102.50732 
L 433.338515 122.344206 
L 439.559341 161.455952 
L 441.971498 175.047062 
L 443.875832 184.613187 
L 445.526255 191.882569 
L 447.049723 197.634173 
L 448.446234 202.022066 
L 449.588835 204.942665 
L 450.60448 207.011165 
L 451.493169 208.402328 
L 452.381859 209.395149 
L 453.143592 209.925206 
L 453.778371 210.139038 
L 454.413149 210.145084 
L 455.047927 209.943327 
L 455.809661 209.427696 
L 456.571394 208.615539 
L 457.460084 207.297359 
L 458.475729 205.310465 
L 459.491374 202.823892 
L 460.633974 199.449919 
L 461.90353 195.018637 
L 463.426998 188.81634 
L 465.077421 181.110582 
L 466.981755 171.117658 
L 469.266957 157.885291 
L 472.440847 138.061325 
L 478.661673 98.932644 
L 481.073829 85.320555 
L 482.978164 75.73285 
L 484.628587 68.4416 
L 486.152054 62.66755 
L 487.548566 58.257467 
L 488.691167 55.317764 
L 489.706812 53.231707 
L 490.722457 51.656204 
L 491.611146 50.704765 
L 492.37288 50.210507 
L 493.007658 50.026639 
L 493.642436 50.050592 
L 494.277214 50.282305 
L 495.038948 50.83372 
L 495.800682 51.681353 
L 496.689371 53.040358 
L 497.705016 55.07291 
L 498.720661 57.603786 
L 499.863262 61.025615 
L 501.132818 65.507134 
L 502.656285 71.764927 
L 504.306708 79.524008 
L 506.211043 89.568495 
L 508.496244 102.847048 
L 511.79709 123.517114 
L 517.764005 161.037278 
L 520.176161 174.670237 
L 522.080496 184.279445 
L 523.730919 191.592503 
L 525.254386 197.388953 
L 526.650898 201.821191 
L 527.793499 204.779974 
L 528.809144 206.883572 
L 529.824789 208.477042 
L 530.713478 209.444458 
L 531.475212 209.952535 
L 532.10999 210.147968 
L 532.744768 210.135592 
L 533.379546 209.915439 
L 534.14128 209.377831 
L 534.903014 208.543884 
L 535.791703 207.200626 
L 536.807348 205.185682 
L 537.822993 202.671888 
L 538.965594 199.268506 
L 540.23515 194.806347 
L 541.758617 188.569932 
L 543.40904 180.83138 
L 545.313375 170.806729 
L 547.598576 157.545915 
L 550.772467 137.701467 
L 556.866336 99.351818 
L 559.278493 85.6981 
L 561.309783 75.467891 
L 562.960206 68.211463 
L 564.483674 62.47315 
L 565.75323 58.459498 
L 566.895831 55.481659 
L 567.911476 53.360537 
L 568.927121 51.749112 
L 569.81581 50.765728 
L 570.577544 50.243835 
L 571.212322 50.036838 
L 571.8471 50.037636 
L 572.481878 50.246228 
L 573.243612 50.770025 
L 574.005346 51.590279 
L 574.894035 52.91778 
L 575.90968 54.915099 
L 576.925325 57.411791 
L 578.067925 60.796698 
L 579.337482 65.239462 
L 580.860949 71.454449 
L 582.511372 79.172409 
L 584.415707 89.177144 
L 586.700908 102.420111 
L 589.874798 122.251734 
L 596.095624 161.370442 
L 598.507781 174.970142 
L 600.412115 184.5451 
L 602.062538 191.823431 
L 602.189494 192.339995 
L 602.189494 192.339995 
" clip-path="url(#p29be5cd55d)" style="fill: none; stroke: #1f77b4; stroke-width: 1.5; stroke-linecap: square"/>
   </g>
   <g id="line2d_22">
    <path d="M 82.306218 130.089692 
L 86.495753 103.884612 
L 88.90791 90.14444 
L 90.9392 79.820838 
L 92.589623 72.475888 
L 94.113091 66.646855 
L 95.509603 62.182241 
L 96.652203 59.195299 
L 97.667848 57.065495 
L 98.683493 55.444798 
L 99.572182 54.452789 
L 100.333916 53.92311 
L 100.968694 53.709337 
L 101.603472 53.703095 
L 102.238251 53.904377 
L 102.999984 54.41904 
L 103.761718 55.229763 
L 104.650407 56.545635 
L 105.666052 58.528995 
L 106.681697 61.011011 
L 107.824298 64.378563 
L 109.093854 68.801014 
L 110.617322 74.990244 
L 112.267745 82.678692 
L 114.172079 92.647471 
L 116.45728 105.844952 
L 119.631171 125.610128 
L 125.851996 164.593676 
L 128.264153 178.141598 
L 130.168488 187.676775 
L 131.818911 194.921735 
L 133.342378 200.652841 
L 134.73889 205.023697 
L 135.881491 207.931607 
L 136.897136 209.989763 
L 137.785825 211.37259 
L 138.674514 212.357728 
L 139.436248 212.88171 
L 140.071026 213.09083 
L 140.705804 213.092475 
L 141.340582 212.886621 
L 142.102316 212.366461 
L 142.86405 211.550183 
L 143.752739 210.227685 
L 144.768384 208.236468 
L 145.784029 205.746175 
L 146.92663 202.368669 
L 148.196186 197.934179 
L 149.719654 191.728866 
L 151.370077 184.020631 
L 153.274411 174.025507 
L 155.559612 160.790823 
L 158.733503 140.962839 
L 164.954328 101.816648 
L 167.366485 88.192194 
L 169.270819 78.591949 
L 170.921243 71.287691 
L 172.44471 65.499799 
L 173.841222 61.075451 
L 174.983822 58.122952 
L 175.999467 56.024678 
L 177.015112 54.436176 
L 177.903802 53.472735 
L 178.665536 52.967736 
L 179.300314 52.774603 
L 179.935092 52.789016 
L 180.56987 53.01092 
L 181.331604 53.550222 
L 182.093337 54.385386 
L 182.982027 55.729417 
L 183.997672 57.744331 
L 185.013317 60.257055 
L 186.155917 63.657917 
L 187.425474 68.115556 
L 188.948941 74.344046 
L 190.599364 82.070818 
L 192.503698 92.07766 
L 194.7889 105.31113 
L 197.96279 125.107166 
L 204.05666 163.334616 
L 206.468817 176.932036 
L 208.373151 186.516274 
L 210.023574 193.81005 
L 211.547042 199.590716 
L 212.943554 204.010213 
L 214.086154 206.959803 
L 215.101799 209.056155 
L 216.117444 210.643236 
L 217.006134 211.605752 
L 217.767867 212.110131 
L 218.402646 212.302827 
L 219.037424 212.28802 
L 219.672202 212.065734 
L 220.433936 211.525947 
L 221.195669 210.69022 
L 222.084359 209.345366 
L 223.100004 207.329195 
L 224.115649 204.814762 
L 225.258249 201.411297 
L 226.527805 196.949739 
L 228.051273 190.714848 
L 229.701696 182.978699 
L 231.60603 172.957428 
L 233.891232 159.700923 
L 237.065122 139.861531 
L 243.285948 100.759803 
L 245.698104 87.175379 
L 247.602439 77.614664 
L 249.252862 70.349662 
L 250.776329 64.601574 
L 252.172841 60.216256 
L 253.315442 57.297183 
L 254.331087 55.229525 
L 255.219776 53.838653 
L 256.108466 52.845672 
L 256.870199 52.315091 
L 257.504977 52.100536 
L 258.139756 52.093495 
L 258.774534 52.293975 
L 259.536267 52.807689 
L 260.298001 53.617495 
L 261.18669 54.93237 
L 262.202335 56.914723 
L 263.21798 59.395921 
L 264.360581 62.762834 
L 265.630137 67.185001 
L 267.153605 73.374594 
L 268.804028 81.064443 
L 270.708362 91.03633 
L 272.993563 104.239899 
L 276.167454 124.01822 
L 282.38828 163.044138 
L 284.800436 176.614148 
L 286.704771 186.168723 
L 288.355194 193.431724 
L 289.878661 199.180355 
L 291.275173 203.567892 
L 292.417774 206.489806 
L 293.433419 208.560623 
L 294.322108 209.954654 
L 295.210797 210.951079 
L 295.972531 211.484776 
L 296.607309 211.702005 
L 297.242087 211.711757 
L 297.876866 211.513997 
L 298.638599 211.003514 
L 299.400333 210.196855 
L 300.289022 208.885478 
L 301.177712 207.181737 
L 302.193357 204.76533 
L 303.335957 201.467926 
L 304.605514 197.117958 
L 306.002025 191.551194 
L 307.652448 184.009911 
L 309.556783 174.178565 
L 311.841984 161.094837 
L 314.888919 142.195246 
L 321.871478 98.401117 
L 324.156679 85.675925 
L 326.061014 76.232126 
L 327.711437 69.084658 
L 329.234904 63.456611 
L 330.504461 59.540637 
L 331.647061 56.654249 
L 332.662706 54.616542 
L 333.551396 53.252419 
L 334.440085 52.286558 
L 335.201819 51.779422 
L 335.836597 51.584481 
L 336.471375 51.597073 
L 337.106153 51.817158 
L 337.867887 52.354293 
L 338.629621 53.187329 
L 339.51831 54.528955 
L 340.533955 56.541261 
L 341.5496 59.051575 
L 342.6922 62.450019 
L 343.961757 66.905409 
L 345.485224 73.13192 
L 347.135647 80.857579 
L 349.039982 90.864653 
L 351.325183 104.100795 
L 354.499073 123.905288 
L 360.592943 162.165194 
L 363.0051 175.7811 
L 365.03639 185.979525 
L 366.686813 193.210593 
L 368.210281 198.926145 
L 369.479837 202.921476 
L 370.622437 205.88344 
L 371.638082 207.991013 
L 372.653727 209.589474 
L 373.542417 210.562041 
L 374.304151 211.075077 
L 374.938929 211.275002 
L 375.573707 211.267423 
L 376.208485 211.052352 
L 376.970219 210.52119 
L 377.731952 209.694031 
L 378.620642 208.359073 
L 379.636287 206.35404 
L 380.651932 203.850516 
L 381.794532 200.458994 
L 383.064089 196.01022 
L 384.587556 189.789886 
L 386.237979 182.068397 
L 388.142313 172.062423 
L 390.427515 158.821734 
L 393.601405 138.9993 
L 399.822231 99.913147 
L 402.234388 86.328736 
L 404.138722 76.765928 
L 405.789145 69.497784 
L 407.312613 63.74584 
L 408.709124 59.356304 
L 409.851725 56.433374 
L 410.86737 54.362039 
L 411.756059 52.967796 
L 412.644749 51.971335 
L 413.406482 51.437711 
L 414.041261 51.220592 
L 414.676039 51.210975 
L 415.310817 51.40888 
L 416.072551 51.919522 
L 416.834284 52.726297 
L 417.722974 54.037712 
L 418.611663 55.741343 
L 419.627308 58.157382 
L 420.769909 61.453983 
L 422.039465 65.802467 
L 423.435977 71.366743 
L 425.0864 78.90373 
L 426.990734 88.728029 
L 429.275935 101.799964 
L 432.32287 120.677586 
L 439.178474 163.650865 
L 441.463675 176.415743 
L 443.368009 185.907195 
L 445.018433 193.105436 
L 446.5419 198.787108 
L 447.811456 202.751977 
L 448.954057 205.685086 
L 449.969702 207.766077 
L 450.985347 209.337274 
L 451.874036 210.285572 
L 452.63577 210.777602 
L 453.270548 210.959942 
L 453.905326 210.934755 
L 454.540104 210.702101 
L 455.301838 210.149939 
L 456.063572 209.301967 
L 456.952261 207.943073 
L 457.967906 205.911294 
L 459.110507 203.031481 
L 460.380063 199.122658 
L 461.776575 194.008149 
L 463.300042 187.528842 
L 465.077421 178.909577 
L 467.108711 167.877287 
L 469.647823 152.746742 
L 473.710403 126.936644 
L 477.899939 100.791815 
L 480.312096 87.094431 
L 482.343386 76.810957 
L 483.993809 69.501032 
L 485.517276 63.705986 
L 486.913788 59.273698 
L 488.056389 56.313884 
L 489.072034 54.208601 
L 490.087679 52.612713 
L 490.976368 51.642578 
L 491.738102 51.13172 
L 492.37288 50.933653 
L 493.007658 50.94311 
L 493.642436 51.160062 
L 494.40417 51.69346 
L 495.165904 52.522802 
L 496.054593 53.8602 
L 497.070238 55.867824 
L 498.085883 58.37366 
L 499.228484 61.767368 
L 500.49804 66.217946 
L 502.021507 72.439418 
L 503.67193 80.160665 
L 505.576265 90.164189 
L 507.861466 103.398502 
L 511.035357 123.205262 
L 517.129226 161.485946 
L 519.541383 175.115793 
L 521.572673 185.328173 
L 523.223096 192.57189 
L 524.746564 198.300018 
L 526.01612 202.306387 
L 527.158721 205.278643 
L 528.174366 207.395594 
L 529.190011 209.003603 
L 530.0787 209.984622 
L 530.840434 210.504951 
L 531.475212 210.71097 
L 532.10999 210.709488 
L 532.744768 210.500504 
L 533.506502 209.976616 
L 534.268236 209.15668 
L 535.156925 207.830054 
L 536.17257 205.834378 
L 537.188215 203.339992 
L 538.330815 199.958426 
L 539.600372 195.520243 
L 541.123839 189.311846 
L 542.774262 181.602199 
L 544.678597 171.608294 
L 546.963798 158.37958 
L 550.137688 138.56883 
L 556.358514 99.488094 
L 558.770671 85.899822 
L 560.675005 76.331887 
L 562.325428 69.057985 
L 563.848896 63.299788 
L 565.245408 58.903845 
L 566.388008 55.975275 
L 567.403653 53.898685 
L 568.419298 52.332162 
L 569.307987 51.388122 
L 570.069721 50.899828 
L 570.704499 50.720641 
L 571.339277 50.748995 
L 571.974056 50.984815 
L 572.735789 51.540747 
L 573.497523 52.39243 
L 574.386212 53.755539 
L 575.401857 55.791926 
L 576.544458 58.676572 
L 577.814014 62.590219 
L 579.210526 67.709229 
L 580.733994 74.192306 
L 582.511372 82.814227 
L 584.542662 93.84695 
L 587.081775 108.973689 
L 591.27131 135.580113 
L 595.33389 160.879623 
L 597.746047 174.552308 
L 599.777337 184.8118 
L 601.42776 192.100353 
L 602.189494 195.107898 
L 602.189494 195.107898 
" clip-path="url(#p29be5cd55d)" style="fill: none; stroke: #ff7f0e; stroke-width: 1.5; stroke-linecap: square"/>
   </g>
   <g id="patch_3">
    <path d="M 56.312054 221.272 
L 56.312054 41.856 
" style="fill: none; stroke: #000000; stroke-width: 0.8; stroke-linejoin: miter; stroke-linecap: square"/>
   </g>
   <g id="patch_4">
    <path d="M 628.183658 221.272 
L 628.183658 41.856 
" style="fill: none; stroke: #000000; stroke-width: 0.8; stroke-linejoin: miter; stroke-linecap: square"/>
   </g>
   <g id="patch_5">
    <path d="M 56.312054 221.272 
L 628.183658 221.272 
" style="fill: none; stroke: #000000; stroke-width: 0.8; stroke-linejoin: miter; stroke-linecap: square"/>
   </g>
   <g id="patch_6">
    <path d="M 56.312054 41.856 
L 628.183658 41.856 
" style="fill: none; stroke: #000000; stroke-width: 0.8; stroke-linejoin: miter; stroke-linecap: square"/>
   </g>
   <g id="text_13">
    <!-- Daily Useless RL (2026-04-30) | verdict: restless -->
    <g transform="translate(197.856918 22.021875) scale(0.12 -0.12)">
     <defs>
      <path id="DejaVuSans-44" d="M 1259 4147 
L 1259 519 
L 2022 519 
Q 2988 519 3436 956 
Q 3884 1394 3884 2338 
Q 3884 3275 3436 3711 
Q 2988 4147 2022 4147 
L 1259 4147 
z
M 628 4666 
L 1925 4666 
Q 3281 4666 3915 4102 
Q 4550 3538 4550 2338 
Q 4550 1131 3912 565 
Q 3275 0 1925 0 
L 628 0 
L 628 4666 
z
" transform="scale(0.015625)"/>
      <path id="DejaVuSans-69" d="M 603 3500 
L 1178 3500 
L 1178 0 
L 603 0 
L 603 3500 
z
M 603 4863 
L 1178 4863 
L 1178 4134 
L 603 4134 
L 603 4863 
z
" transform="scale(0.015625)"/>
      <path id="DejaVuSans-6c" d="M 603 4863 
L 1178 4863 
L 1178 0 
L 603 0 
L 603 4863 
z
" transform="scale(0.015625)"/>
      <path id="DejaVuSans-79" d="M 2059 -325 
Q 1816 -950 1584 -1140 
Q 1353 -1331 966 -1331 
L 506 -1331 
L 506 -850 
L 844 -850 
Q 1081 -850 1212 -737 
Q 1344 -625 1503 -206 
L 1606 56 
L 191 3500 
L 800 3500 
L 1894 763 
L 2988 3500 
L 3597 3500 
L 2059 -325 
z
" transform="scale(0.015625)"/>
      <path id="DejaVuSans-55" d="M 556 4666 
L 1191 4666 
L 1191 1831 
Q 1191 1081 1462 751 
Q 1734 422 2344 422 
Q 2950 422 3222 751 
Q 3494 1081 3494 1831 
L 3494 4666 
L 4128 4666 
L 4128 1753 
Q 4128 841 3676 375 
Q 3225 -91 2344 -91 
Q 1459 -91 1007 375 
Q 556 841 556 1753 
L 556 4666 
z
" transform="scale(0.015625)"/>
      <path id="DejaVuSans-73" d="M 2834 3397 
L 2834 2853 
Q 2591 2978 2328 3040 
Q 2066 3103 1784 3103 
Q 1356 3103 1142 2972 
Q 928 2841 928 2578 
Q 928 2378 1081 2264 
Q 1234 2150 1697 2047 
L 1894 2003 
Q 2506 1872 2764 1633 
Q 3022 1394 3022 966 
Q 3022 478 2636 193 
Q 2250 -91 1575 -91 
Q 1294 -91 989 -36 
Q 684 19 347 128 
L 347 722 
Q 666 556 975 473 
Q 1284 391 1588 391 
Q 1994 391 2212 530 
Q 2431 669 2431 922 
Q 2431 1156 2273 1281 
Q 2116 1406 1581 1522 
L 1381 1569 
Q 847 1681 609 1914 
Q 372 2147 372 2553 
Q 372 3047 722 3315 
Q 1072 3584 1716 3584 
Q 2034 3584 2315 3537 
Q 2597 3491 2834 3397 
z
" transform="scale(0.015625)"/>
      <path id="DejaVuSans-65" d="M 3597 1894 
L 3597 1613 
L 953 1613 
Q 991 1019 1311 708 
Q 1631 397 2203 397 
Q 2534 397 2845 478 
Q 3156 559 3463 722 
L 3463 178 
Q 3153 47 2828 -22 
Q 2503 -91 2169 -91 
Q 1331 -91 842 396 
Q 353 884 353 1716 
Q 353 2575 817 3079 
Q 1281 3584 2069 3584 
Q 2775 3584 3186 3129 
Q 3597 2675 3597 1894 
z
M 3022 2063 
Q 3016 2534 2758 2815 
Q 2500 3097 2075 3097 
Q 1594 3097 1305 2825 
Q 1016 2553 972 2059 
L 3022 2063 
z
" transform="scale(0.015625)"/>
      <path id="DejaVuSans-52" d="M 2841 2188 
Q 3044 2119 3236 1894 
Q 3428 1669 3622 1275 
L 4263 0 
L 3584 0 
L 2988 1197 
Q 2756 1666 2539 1819 
Q 2322 1972 1947 1972 
L 1259 1972 
L 1259 0 
L 628 0 
L 628 4666 
L 2053 4666 
Q 2853 4666 3247 4331 
Q 3641 3997 3641 3322 
Q 3641 2881 3436 2590 
Q 3231 2300 2841 2188 
z
M 1259 4147 
L 1259 2491 
L 2053 2491 
Q 2509 2491 2742 2702 
Q 2975 2913 2975 3322 
Q 2975 3731 2742 3939 
Q 2509 4147 2053 4147 
L 1259 4147 
z
" transform="scale(0.015625)"/>
      <path id="DejaVuSans-4c" d="M 628 4666 
L 1259 4666 
L 1259 531 
L 3531 531 
L 3531 0 
L 628 0 
L 628 4666 
z
" transform="scale(0.015625)"/>
      <path id="DejaVuSans-28" d="M 1984 4856 
Q 1566 4138 1362 3434 
Q 1159 2731 1159 2009 
Q 1159 1288 1364 580 
Q 1569 -128 1984 -844 
L 1484 -844 
Q 1016 -109 783 600 
Q 550 1309 550 2009 
Q 550 2706 781 3412 
Q 1013 4119 1484 4856 
L 1984 4856 
z
" transform="scale(0.015625)"/>
      <path id="DejaVuSans-2d" d="M 313 2009 
L 1997 2009 
L 1997 1497 
L 313 1497 
L 313 2009 
z
" transform="scale(0.015625)"/>
      <path id="DejaVuSans-33" d="M 2597 2516 
Q 3050 2419 3304 2112 
Q 3559 1806 3559 1356 
Q 3559 666 3084 287 
Q 2609 -91 1734 -91 
Q 1441 -91 1130 -33 
Q 819 25 488 141 
L 488 750 
Q 750 597 1062 519 
Q 1375 441 1716 441 
Q 2309 441 2620 675 
Q 2931 909 2931 1356 
Q 2931 1769 2642 2001 
Q 2353 2234 1838 2234 
L 1294 2234 
L 1294 2753 
L 1863 2753 
Q 2328 2753 2575 2939 
Q 2822 3125 2822 3475 
Q 2822 3834 2567 4026 
Q 2313 4219 1838 4219 
Q 1578 4219 1281 4162 
Q 984 4106 628 3988 
L 628 4550 
Q 988 4650 1302 4700 
Q 1616 4750 1894 4750 
Q 2613 4750 3031 4423 
Q 3450 4097 3450 3541 
Q 3450 3153 3228 2886 
Q 3006 2619 2597 2516 
z
" transform="scale(0.015625)"/>
      <path id="DejaVuSans-29" d="M 513 4856 
L 1013 4856 
Q 1481 4119 1714 3412 
Q 1947 2706 1947 2009 
Q 1947 1309 1714 600 
Q 1481 -109 1013 -844 
L 513 -844 
Q 928 -128 1133 580 
Q 1338 1288 1338 2009 
Q 1338 2731 1133 3434 
Q 928 4138 513 4856 
z
" transform="scale(0.015625)"/>
      <path id="DejaVuSans-7c" d="M 1344 4891 
L 1344 -1509 
L 813 -1509 
L 813 4891 
L 1344 4891 
z
" transform="scale(0.015625)"/>
      <path id="DejaVuSans-76" d="M 191 3500 
L 800 3500 
L 1894 563 
L 2988 3500 
L 3597 3500 
L 2284 0 
L 1503 0 
L 191 3500 
z
" transform="scale(0.015625)"/>
      <path id="DejaVuSans-64" d="M 2906 2969 
L 2906 4863 
L 3481 4863 
L 3481 0 
L 2906 0 
L 2906 525 
Q 2725 213 2448 61 
Q 2172 -91 1784 -91 
Q 1150 -91 751 415 
Q 353 922 353 1747 
Q 353 2572 751 3078 
Q 1150 3584 1784 3584 
Q 2172 3584 2448 3432 
Q 2725 3281 2906 2969 
z
M 947 1747 
Q 947 1113 1208 752 
Q 1469 391 1925 391 
Q 2381 391 2643 752 
Q 2906 1113 2906 1747 
Q 2906 2381 2643 2742 
Q 2381 3103 1925 3103 
Q 1469 3103 1208 2742 
Q 947 2381 947 1747 
z
" transform="scale(0.015625)"/>
      <path id="DejaVuSans-63" d="M 3122 3366 
L 3122 2828 
Q 2878 2963 2633 3030 
Q 2388 3097 2138 3097 
Q 1578 3097 1268 2742 
Q 959 2388 959 1747 
Q 959 1106 1268 751 
Q 1578 397 2138 397 
Q 2388 397 2633 464 
Q 2878 531 3122 666 
L 3122 134 
Q 2881 22 2623 -34 
Q 2366 -91 2075 -91 
Q 1284 -91 818 406 
Q 353 903 353 1747 
Q 353 2603 823 3093 
Q 1294 3584 2113 3584 
Q 2378 3584 2631 3529 
Q 2884 3475 3122 3366 
z
" transform="scale(0.015625)"/>
      <path id="DejaVuSans-3a" d="M 750 794 
L 1409 794 
L 1409 0 
L 750 0 
L 750 794 
z
M 750 3309 
L 1409 3309 
L 1409 2516 
L 750 2516 
L 750 3309 
z
" transform="scale(0.015625)"/>
     </defs>
     <use xlink:href="#DejaVuSans-44"/>
     <use xlink:href="#DejaVuSans-61" transform="translate(77.001953 0)"/>
     <use xlink:href="#DejaVuSans-69" transform="translate(138.28125 0)"/>
     <use xlink:href="#DejaVuSans-6c" transform="translate(166.064453 0)"/>
     <use xlink:href="#DejaVuSans-79" transform="translate(193.847656 0)"/>
     <use xlink:href="#DejaVuSans-20" transform="translate(253.027344 0)"/>
     <use xlink:href="#DejaVuSans-55" transform="translate(284.814453 0)"/>
     <use xlink:href="#DejaVuSans-73" transform="translate(358.007812 0)"/>
     <use xlink:href="#DejaVuSans-65" transform="translate(410.107422 0)"/>
     <use xlink:href="#DejaVuSans-6c" transform="translate(471.630859 0)"/>
     <use xlink:href="#DejaVuSans-65" transform="translate(499.414062 0)"/>
     <use xlink:href="#DejaVuSans-73" transform="translate(560.9375 0)"/>
     <use xlink:href="#DejaVuSans-73" transform="translate(613.037109 0)"/>
     <use xlink:href="#DejaVuSans-20" transform="translate(665.136719 0)"/>
     <use xlink:href="#DejaVuSans-52" transform="translate(696.923828 0)"/>
     <use xlink:href="#DejaVuSans-4c" transform="translate(766.40625 0)"/>
     <use xlink:href="#DejaVuSans-20" transform="translate(822.119141 0)"/>
     <use xlink:href="#DejaVuSans-28" transform="translate(853.90625 0)"/>
     <use xlink:href="#DejaVuSans-32" transform="translate(892.919922 0)"/>
     <use xlink:href="#DejaVuSans-30" transform="translate(956.542969 0)"/>
     <use xlink:href="#DejaVuSans-32" transform="translate(1020.166016 0)"/>
     <use xlink:href="#DejaVuSans-36" transform="translate(1083.789062 0)"/>
     <use xlink:href="#DejaVuSans-2d" transform="translate(1147.412109 0)"/>
     <use xlink:href="#DejaVuSans-30" transform="translate(1183.496094 0)"/>
     <use xlink:href="#DejaVuSans-34" transform="translate(1247.119141 0)"/>
     <use xlink:href="#DejaVuSans-2d" transform="translate(1310.742188 0)"/>
     <use xlink:href="#DejaVuSans-33" transform="translate(1346.826172 0)"/>
     <use xlink:href="#DejaVuSans-30" transform="translate(1410.449219 0)"/>
     <use xlink:href="#DejaVuSans-29" transform="translate(1474.072266 0)"/>
     <use xlink:href="#DejaVuSans-20" transform="translate(1513.085938 0)"/>
     <use xlink:href="#DejaVuSans-7c" transform="translate(1544.873047 0)"/>
     <use xlink:href="#DejaVuSans-20" transform="translate(1578.564453 0)"/>
     <use xlink:href="#DejaVuSans-76" transform="translate(1610.351562 0)"/>
     <use xlink:href="#DejaVuSans-65" transform="translate(1669.53125 0)"/>
     <use xlink:href="#DejaVuSans-72" transform="translate(1731.054688 0)"/>
     <use xlink:href="#DejaVuSans-64" transform="translate(1770.417969 0)"/>
     <use xlink:href="#DejaVuSans-69" transform="translate(1833.894531 0)"/>
     <use xlink:href="#DejaVuSans-63" transform="translate(1861.677734 0)"/>
     <use xlink:href="#DejaVuSans-74" transform="translate(1916.658203 0)"/>
     <use xlink:href="#DejaVuSans-3a" transform="translate(1955.867188 0)"/>
     <use xlink:href="#DejaVuSans-20" transform="translate(1989.558594 0)"/>
     <use xlink:href="#DejaVuSans-72" transform="translate(2021.345703 0)"/>
     <use xlink:href="#DejaVuSans-65" transform="translate(2060.208984 0)"/>
     <use xlink:href="#DejaVuSans-73" transform="translate(2121.732422 0)"/>
     <use xlink:href="#DejaVuSans-74" transform="translate(2173.832031 0)"/>
     <use xlink:href="#DejaVuSans-6c" transform="translate(2213.041016 0)"/>
     <use xlink:href="#DejaVuSans-65" transform="translate(2240.824219 0)"/>
     <use xlink:href="#DejaVuSans-73" transform="translate(2302.347656 0)"/>
     <use xlink:href="#DejaVuSans-73" transform="translate(2354.447266 0)"/>
    </g>
    <!-- Filter: high | Input: sine, sine (A=0.91, f=0.66 Hz) | R=2.00, L=10.00, τ=5.00 -->
    <g transform="translate(110.269106 35.856) scale(0.12 -0.12)">
     <defs>
      <path id="DejaVuSans-46" d="M 628 4666 
L 3309 4666 
L 3309 4134 
L 1259 4134 
L 1259 2759 
L 3109 2759 
L 3109 2228 
L 1259 2228 
L 1259 0 
L 628 0 
L 628 4666 
z
" transform="scale(0.015625)"/>
      <path id="DejaVuSans-68" d="M 3513 2113 
L 3513 0 
L 2938 0 
L 2938 2094 
Q 2938 2591 2744 2837 
Q 2550 3084 2163 3084 
Q 1697 3084 1428 2787 
Q 1159 2491 1159 1978 
L 1159 0 
L 581 0 
L 581 4863 
L 1159 4863 
L 1159 2956 
Q 1366 3272 1645 3428 
Q 1925 3584 2291 3584 
Q 2894 3584 3203 3211 
Q 3513 2838 3513 2113 
z
" transform="scale(0.015625)"/>
      <path id="DejaVuSans-67" d="M 2906 1791 
Q 2906 2416 2648 2759 
Q 2391 3103 1925 3103 
Q 1463 3103 1205 2759 
Q 947 2416 947 1791 
Q 947 1169 1205 825 
Q 1463 481 1925 481 
Q 2391 481 2648 825 
Q 2906 1169 2906 1791 
z
M 3481 434 
Q 3481 -459 3084 -895 
Q 2688 -1331 1869 -1331 
Q 1566 -1331 1297 -1286 
Q 1028 -1241 775 -1147 
L 775 -588 
Q 1028 -725 1275 -790 
Q 1522 -856 1778 -856 
Q 2344 -856 2625 -561 
Q 2906 -266 2906 331 
L 2906 616 
Q 2728 306 2450 153 
Q 2172 0 1784 0 
Q 1141 0 747 490 
Q 353 981 353 1791 
Q 353 2603 747 3093 
Q 1141 3584 1784 3584 
Q 2172 3584 2450 3431 
Q 2728 3278 2906 2969 
L 2906 3500 
L 3481 3500 
L 3481 434 
z
" transform="scale(0.015625)"/>
      <path id="DejaVuSans-49" d="M 628 4666 
L 1259 4666 
L 1259 0 
L 628 0 
L 628 4666 
z
" transform="scale(0.015625)"/>
      <path id="DejaVuSans-6e" d="M 3513 2113 
L 3513 0 
L 2938 0 
L 2938 2094 
Q 2938 2591 2744 2837 
Q 2550 3084 2163 3084 
Q 1697 3084 1428 2787 
Q 1159 2491 1159 1978 
L 1159 0 
L 581 0 
L 581 3500 
L 1159 3500 
L 1159 2956 
Q 1366 3272 1645 3428 
Q 1925 3584 2291 3584 
Q 2894 3584 3203 3211 
Q 3513 2838 3513 2113 
z
" transform="scale(0.015625)"/>
      <path id="DejaVuSans-70" d="M 1159 525 
L 1159 -1331 
L 581 -1331 
L 581 3500 
L 1159 3500 
L 1159 2969 
Q 1341 3281 1617 3432 
Q 1894 3584 2278 3584 
Q 2916 3584 3314 3078 
Q 3713 2572 3713 1747 
Q 3713 922 3314 415 
Q 2916 -91 2278 -91 
Q 1894 -91 1617 61 
Q 1341 213 1159 525 
z
M 3116 1747 
Q 3116 2381 2855 2742 
Q 2594 3103 2138 3103 
Q 1681 3103 1420 2742 
Q 1159 2381 1159 1747 
Q 1159 1113 1420 752 
Q 1681 391 2138 391 
Q 2594 391 2855 752 
Q 3116 1113 3116 1747 
z
" transform="scale(0.015625)"/>
      <path id="DejaVuSans-75" d="M 544 1381 
L 544 3500 
L 1119 3500 
L 1119 1403 
Q 1119 906 1312 657 
Q 1506 409 1894 409 
Q 2359 409 2629 706 
Q 2900 1003 2900 1516 
L 2900 3500 
L 3475 3500 
L 3475 0 
L 2900 0 
L 2900 538 
Q 2691 219 2414 64 
Q 2138 -91 1772 -91 
Q 1169 -91 856 284 
Q 544 659 544 1381 
z
M 1991 3584 
L 1991 3584 
z
" transform="scale(0.015625)"/>
      <path id="DejaVuSans-2c" d="M 750 794 
L 1409 794 
L 1409 256 
L 897 -744 
L 494 -744 
L 750 256 
L 750 794 
z
" transform="scale(0.015625)"/>
      <path id="DejaVuSans-41" d="M 2188 4044 
L 1331 1722 
L 3047 1722 
L 2188 4044 
z
M 1831 4666 
L 2547 4666 
L 4325 0 
L 3669 0 
L 3244 1197 
L 1141 1197 
L 716 0 
L 50 0 
L 1831 4666 
z
" transform="scale(0.015625)"/>
      <path id="DejaVuSans-3d" d="M 678 2906 
L 4684 2906 
L 4684 2381 
L 678 2381 
L 678 2906 
z
M 678 1631 
L 4684 1631 
L 4684 1100 
L 678 1100 
L 678 1631 
z
" transform="scale(0.015625)"/>
      <path id="DejaVuSans-39" d="M 703 97 
L 703 672 
Q 941 559 1184 500 
Q 1428 441 1663 441 
Q 2288 441 2617 861 
Q 2947 1281 2994 2138 
Q 2813 1869 2534 1725 
Q 2256 1581 1919 1581 
Q 1219 1581 811 2004 
Q 403 2428 403 3163 
Q 403 3881 828 4315 
Q 1253 4750 1959 4750 
Q 2769 4750 3195 4129 
Q 3622 3509 3622 2328 
Q 3622 1225 3098 567 
Q 2575 -91 1691 -91 
Q 1453 -91 1209 -44 
Q 966 3 703 97 
z
M 1959 2075 
Q 2384 2075 2632 2365 
Q 2881 2656 2881 3163 
Q 2881 3666 2632 3958 
Q 2384 4250 1959 4250 
Q 1534 4250 1286 3958 
Q 1038 3666 1038 3163 
Q 1038 2656 1286 2365 
Q 1534 2075 1959 2075 
z
" transform="scale(0.015625)"/>
      <path id="DejaVuSans-66" d="M 2375 4863 
L 2375 4384 
L 1825 4384 
Q 1516 4384 1395 4259 
Q 1275 4134 1275 3809 
L 1275 3500 
L 2222 3500 
L 2222 3053 
L 1275 3053 
L 1275 0 
L 697 0 
L 697 3053 
L 147 3053 
L 147 3500 
L 697 3500 
L 697 3744 
Q 697 4328 969 4595 
Q 1241 4863 1831 4863 
L 2375 4863 
z
" transform="scale(0.015625)"/>
      <path id="DejaVuSans-48" d="M 628 4666 
L 1259 4666 
L 1259 2753 
L 3553 2753 
L 3553 4666 
L 4184 4666 
L 4184 0 
L 3553 0 
L 3553 2222 
L 1259 2222 
L 1259 0 
L 628 0 
L 628 4666 
z
" transform="scale(0.015625)"/>
      <path id="DejaVuSans-7a" d="M 353 3500 
L 3084 3500 
L 3084 2975 
L 922 459 
L 3084 459 
L 3084 0 
L 275 0 
L 275 525 
L 2438 3041 
L 353 3041 
L 353 3500 
z
" transform="scale(0.015625)"/>
      <path id="DejaVuSans-3c4" d="M 2319 638 
Q 2431 488 2769 488 
L 3047 488 
L 3047 0 
L 2700 0 
Q 2138 0 1881 300 
Q 1625 606 1625 1269 
L 1625 2925 
L 313 2925 
L 313 3500 
L 3541 3500 
L 3541 2925 
L 2213 2925 
L 2213 1234 
Q 2213 781 2319 638 
z
" transform="scale(0.015625)"/>
     </defs>
     <use xlink:href="#DejaVuSans-46"/>
     <use xlink:href="#DejaVuSans-69" transform="translate(50.269531 0)"/>
     <use xlink:href="#DejaVuSans-6c" transform="translate(78.052734 0)"/>
     <use xlink:href="#DejaVuSans-74" transform="translate(105.835938 0)"/>
     <use xlink:href="#DejaVuSans-65" transform="translate(145.044922 0)"/>
     <use xlink:href="#DejaVuSans-72" transform="translate(206.568359 0)"/>
     <use xlink:href="#DejaVuSans-3a" transform="translate(245.931641 0)"/>
     <use xlink:href="#DejaVuSans-20" transform="translate(279.623047 0)"/>
     <use xlink:href="#DejaVuSans-68" transform="translate(311.410156 0)"/>
     <use xlink:href="#DejaVuSans-69" transform="translate(374.789062 0)"/>
     <use xlink:href="#DejaVuSans-67" transform="translate(402.572266 0)"/>
     <use xlink:href="#DejaVuSans-68" transform="translate(466.048828 0)"/>
     <use xlink:href="#DejaVuSans-20" transform="translate(529.427734 0)"/>
     <use xlink:href="#DejaVuSans-7c" transform="translate(561.214844 0)"/>
     <use xlink:href="#DejaVuSans-20" transform="translate(594.90625 0)"/>
     <use xlink:href="#DejaVuSans-49" transform="translate(626.693359 0)"/>
     <use xlink:href="#DejaVuSans-6e" transform="translate(656.185547 0)"/>
     <use xlink:href="#DejaVuSans-70" transform="translate(719.564453 0)"/>
     <use xlink:href="#DejaVuSans-75" transform="translate(783.041016 0)"/>
     <use xlink:href="#DejaVuSans-74" transform="translate(846.419922 0)"/>
     <use xlink:href="#DejaVuSans-3a" transform="translate(885.628906 0)"/>
     <use xlink:href="#DejaVuSans-20" transform="translate(919.320312 0)"/>
     <use xlink:href="#DejaVuSans-73" transform="translate(951.107422 0)"/>
     <use xlink:href="#DejaVuSans-69" transform="translate(1003.207031 0)"/>
     <use xlink:href="#DejaVuSans-6e" transform="translate(1030.990234 0)"/>
     <use xlink:href="#DejaVuSans-65" transform="translate(1094.369141 0)"/>
     <use xlink:href="#DejaVuSans-2c" transform="translate(1155.892578 0)"/>
     <use xlink:href="#DejaVuSans-20" transform="translate(1187.679688 0)"/>
     <use xlink:href="#DejaVuSans-73" transform="translate(1219.466797 0)"/>
     <use xlink:href="#DejaVuSans-69" transform="translate(1271.566406 0)"/>
     <use xlink:href="#DejaVuSans-6e" transform="translate(1299.349609 0)"/>
     <use xlink:href="#DejaVuSans-65" transform="translate(1362.728516 0)"/>
     <use xlink:href="#DejaVuSans-20" transform="translate(1424.251953 0)"/>
     <use xlink:href="#DejaVuSans-28" transform="translate(1456.039062 0)"/>
     <use xlink:href="#DejaVuSans-41" transform="translate(1495.052734 0)"/>
     <use xlink:href="#DejaVuSans-3d" transform="translate(1563.460938 0)"/>
     <use xlink:href="#DejaVuSans-30" transform="translate(1647.25 0)"/>
     <use xlink:href="#DejaVuSans-2e" transform="translate(1710.873047 0)"/>
     <use xlink:href="#DejaVuSans-39" transform="translate(1742.660156 0)"/>
     <use xlink:href="#DejaVuSans-31" transform="translate(1806.283203 0)"/>
     <use xlink:href="#DejaVuSans-2c" transform="translate(1869.90625 0)"/>
     <use xlink:href="#DejaVuSans-20" transform="translate(1901.693359 0)"/>
     <use xlink:href="#DejaVuSans-66" transform="translate(1933.480469 0)"/>
     <use xlink:href="#DejaVuSans-3d" transform="translate(1968.685547 0)"/>
     <use xlink:href="#DejaVuSans-30" transform="translate(2052.474609 0)"/>
     <use xlink:href="#DejaVuSans-2e" transform="translate(2116.097656 0)"/>
     <use xlink:href="#DejaVuSans-36" transform="translate(2147.884766 0)"/>
     <use xlink:href="#DejaVuSans-36" transform="translate(2211.507812 0)"/>
     <use xlink:href="#DejaVuSans-20" transform="translate(2275.130859 0)"/>
     <use xlink:href="#DejaVuSans-48" transform="translate(2306.917969 0)"/>
     <use xlink:href="#DejaVuSans-7a" transform="translate(2382.113281 0)"/>
     <use xlink:href="#DejaVuSans-29" transform="translate(2434.603516 0)"/>
     <use xlink:href="#DejaVuSans-20" transform="translate(2473.617188 0)"/>
     <use xlink:href="#DejaVuSans-7c" transform="translate(2505.404297 0)"/>
     <use xlink:href="#DejaVuSans-20" transform="translate(2539.095703 0)"/>
     <use xlink:href="#DejaVuSans-52" transform="translate(2570.882812 0)"/>
     <use xlink:href="#DejaVuSans-3d" transform="translate(2640.365234 0)"/>
     <use xlink:href="#DejaVuSans-32" transform="translate(2724.154297 0)"/>
     <use xlink:href="#DejaVuSans-2e" transform="translate(2787.777344 0)"/>
     <use xlink:href="#DejaVuSans-30" transform="translate(2819.564453 0)"/>
     <use xlink:href="#DejaVuSans-30" transform="translate(2883.1875 0)"/>
     <use xlink:href="#DejaVuSans-2c" transform="translate(2946.810547 0)"/>
     <use xlink:href="#DejaVuSans-20" transform="translate(2978.597656 0)"/>
     <use xlink:href="#DejaVuSans-4c" transform="translate(3010.384766 0)"/>
     <use xlink:href="#DejaVuSans-3d" transform="translate(3066.097656 0)"/>
     <use xlink:href="#DejaVuSans-31" transform="translate(3149.886719 0)"/>
     <use xlink:href="#DejaVuSans-30" transform="translate(3213.509766 0)"/>
     <use xlink:href="#DejaVuSans-2e" transform="translate(3277.132812 0)"/>
     <use xlink:href="#DejaVuSans-30" transform="translate(3308.919922 0)"/>
     <use xlink:href="#DejaVuSans-30" transform="translate(3372.542969 0)"/>
     <use xlink:href="#DejaVuSans-2c" transform="translate(3436.166016 0)"/>
     <use xlink:href="#DejaVuSans-20" transform="translate(3467.953125 0)"/>
     <use xlink:href="#DejaVuSans-3c4" transform="translate(3499.740234 0)"/>
     <use xlink:href="#DejaVuSans-3d" transform="translate(3559.945312 0)"/>
     <use xlink:href="#DejaVuSans-35" transform="translate(3643.734375 0)"/>
     <use xlink:href="#DejaVuSans-2e" transform="translate(3707.357422 0)"/>
     <use xlink:href="#DejaVuSans-30" transform="translate(3739.144531 0)"/>
     <use xlink:href="#DejaVuSans-30" transform="translate(3802.767578 0)"/>
    </g>
   </g>
   <g id="legend_1">
    <g id="patch_7">
     <path d="M 63.312054 216.272 
L 128.294866 216.272 
Q 130.294866 216.272 130.294866 214.272 
L 130.294866 185.91575 
Q 130.294866 183.91575 128.294866 183.91575 
L 63.312054 183.91575 
Q 61.312054 183.91575 61.312054 185.91575 
L 61.312054 214.272 
Q 61.312054 216.272 63.312054 216.272 
z
" style="fill: #ffffff; opacity: 0.8; stroke: #cccccc; stroke-linejoin: miter"/>
    </g>
    <g id="line2d_23">
     <path d="M 65.312054 192.014187 
L 75.312054 192.014187 
L 85.312054 192.014187 
" style="fill: none; stroke: #1f77b4; stroke-width: 1.5; stroke-linecap: square"/>
    </g>
    <g id="text_14">
     <!-- input -->
     <g transform="translate(93.312054 195.514187) scale(0.1 -0.1)">
      <use xlink:href="#DejaVuSans-69"/>
      <use xlink:href="#DejaVuSans-6e" transform="translate(27.783203 0)"/>
      <use xlink:href="#DejaVuSans-70" transform="translate(91.162109 0)"/>
      <use xlink:href="#DejaVuSans-75" transform="translate(154.638672 0)"/>
      <use xlink:href="#DejaVuSans-74" transform="translate(218.017578 0)"/>
     </g>
    </g>
    <g id="line2d_24">
     <path d="M 65.312054 206.692313 
L 75.312054 206.692313 
L 85.312054 206.692313 
" style="fill: none; stroke: #ff7f0e; stroke-width: 1.5; stroke-linecap: square"/>
    </g>
    <g id="text_15">
     <!-- output -->
     <g transform="translate(93.312054 210.192313) scale(0.1 -0.1)">
      <defs>
       <path id="DejaVuSans-6f" d="M 1959 3097 
Q 1497 3097 1228 2736 
Q 959 2375 959 1747 
Q 959 1119 1226 758 
Q 1494 397 1959 397 
Q 2419 397 2687 759 
Q 2956 1122 2956 1747 
Q 2956 2369 2687 2733 
Q 2419 3097 1959 3097 
z
M 1959 3584 
Q 2709 3584 3137 3096 
Q 3566 2609 3566 1747 
Q 3566 888 3137 398 
Q 2709 -91 1959 -91 
Q 1206 -91 779 398 
Q 353 888 353 1747 
Q 353 2609 779 3096 
Q 1206 3584 1959 3584 
z
" transform="scale(0.015625)"/>
      </defs>
      <use xlink:href="#DejaVuSans-6f"/>
      <use xlink:href="#DejaVuSans-75" transform="translate(61.181641 0)"/>
      <use xlink:href="#DejaVuSans-74" transform="translate(124.560547 0)"/>
      <use xlink:href="#DejaVuSans-70" transform="translate(163.769531 0)"/>
      <use xlink:href="#DejaVuSans-75" transform="translate(227.246094 0)"/>
      <use xlink:href="#DejaVuSans-74" transform="translate(290.625 0)"/>
     </g>
    </g>
   </g>
  </g>
  <g id="axes_2">
   <g id="patch_8">
    <path d="M 56.312054 458.728 
L 628.183658 458.728 
L 628.183658 279.312 
L 56.312054 279.312 
z
" style="fill: #ffffff"/>
   </g>
   <g id="matplotlib.axis_3">
    <g id="xtick_7">
     <g id="line2d_25">
      <path d="M 56.312054 458.728 
L 56.312054 279.312 
" clip-path="url(#pc96b907795)" style="fill: none; stroke: #b0b0b0; stroke-opacity: 0.25; stroke-width: 0.8; stroke-linecap: square"/>
     </g>
     <g id="line2d_26">
      <g>
       <use xlink:href="#mfbebfd1401" x="56.312054" y="458.728" style="stroke: #000000; stroke-width: 0.8"/>
      </g>
     </g>
     <g id="text_16">
      <!-- $\mathdefault{10^{-1}}$ -->
      <g transform="translate(44.562054 473.326438) scale(0.1 -0.1)">
       <use xlink:href="#DejaVuSans-31" transform="translate(0 0.684375)"/>
       <use xlink:href="#DejaVuSans-30" transform="translate(63.623047 0.684375)"/>
       <use xlink:href="#DejaVuSans-2212" transform="translate(128.203125 38.965625) scale(0.7)"/>
       <use xlink:href="#DejaVuSans-31" transform="translate(186.855469 38.965625) scale(0.7)"/>
      </g>
     </g>
    </g>
    <g id="xtick_8">
     <g id="line2d_27">
      <path d="M 342.247856 458.728 
L 342.247856 279.312 
" clip-path="url(#pc96b907795)" style="fill: none; stroke: #b0b0b0; stroke-opacity: 0.25; stroke-width: 0.8; stroke-linecap: square"/>
     </g>
     <g id="line2d_28">
      <g>
       <use xlink:href="#mfbebfd1401" x="342.247856" y="458.728" style="stroke: #000000; stroke-width: 0.8"/>
      </g>
     </g>
     <g id="text_17">
      <!-- $\mathdefault{10^{0}}$ -->
      <g transform="translate(333.447856 473.326438) scale(0.1 -0.1)">
       <use xlink:href="#DejaVuSans-31" transform="translate(0 0.765625)"/>
       <use xlink:href="#DejaVuSans-30" transform="translate(63.623047 0.765625)"/>
       <use xlink:href="#DejaVuSans-30" transform="translate(128.203125 39.046875) scale(0.7)"/>
      </g>
     </g>
    </g>
    <g id="xtick_9">
     <g id="line2d_29">
      <path d="M 628.183658 458.728 
L 628.183658 279.312 
" clip-path="url(#pc96b907795)" style="fill: none; stroke: #b0b0b0; stroke-opacity: 0.25; stroke-width: 0.8; stroke-linecap: square"/>
     </g>
     <g id="line2d_30">
      <g>
       <use xlink:href="#mfbebfd1401" x="628.183658" y="458.728" style="stroke: #000000; stroke-width: 0.8"/>
      </g>
     </g>
     <g id="text_18">
      <!-- $\mathdefault{10^{1}}$ -->
      <g transform="translate(619.383658 473.326438) scale(0.1 -0.1)">
       <use xlink:href="#DejaVuSans-31" transform="translate(0 0.684375)"/>
       <use xlink:href="#DejaVuSans-30" transform="translate(63.623047 0.684375)"/>
       <use xlink:href="#DejaVuSans-31" transform="translate(128.203125 38.965625) scale(0.7)"/>
      </g>
     </g>
    </g>
    <g id="xtick_10">
     <g id="line2d_31">
      <defs>
       <path id="m54ab28d5b9" d="M 0 0 
L 0 2 
" style="stroke: #000000; stroke-width: 0.6"/>
      </defs>
      <g>
       <use xlink:href="#m54ab28d5b9" x="142.387307" y="458.728" style="stroke: #000000; stroke-width: 0.6"/>
      </g>
     </g>
    </g>
    <g id="xtick_11">
     <g id="line2d_32">
      <g>
       <use xlink:href="#m54ab28d5b9" x="192.738102" y="458.728" style="stroke: #000000; stroke-width: 0.6"/>
      </g>
     </g>
    </g>
    <g id="xtick_12">
     <g id="line2d_33">
      <g>
       <use xlink:href="#m54ab28d5b9" x="228.46256" y="458.728" style="stroke: #000000; stroke-width: 0.6"/>
      </g>
     </g>
    </g>
    <g id="xtick_13">
     <g id="line2d_34">
      <g>
       <use xlink:href="#m54ab28d5b9" x="256.172603" y="458.728" style="stroke: #000000; stroke-width: 0.6"/>
      </g>
     </g>
    </g>
    <g id="xtick_14">
     <g id="line2d_35">
      <g>
       <use xlink:href="#m54ab28d5b9" x="278.813356" y="458.728" style="stroke: #000000; stroke-width: 0.6"/>
      </g>
     </g>
    </g>
    <g id="xtick_15">
     <g id="line2d_36">
      <g>
       <use xlink:href="#m54ab28d5b9" x="297.95584" y="458.728" style="stroke: #000000; stroke-width: 0.6"/>
      </g>
     </g>
    </g>
    <g id="xtick_16">
     <g id="line2d_37">
      <g>
       <use xlink:href="#m54ab28d5b9" x="314.537813" y="458.728" style="stroke: #000000; stroke-width: 0.6"/>
      </g>
     </g>
    </g>
    <g id="xtick_17">
     <g id="line2d_38">
      <g>
       <use xlink:href="#m54ab28d5b9" x="329.164151" y="458.728" style="stroke: #000000; stroke-width: 0.6"/>
      </g>
     </g>
    </g>
    <g id="xtick_18">
     <g id="line2d_39">
      <g>
       <use xlink:href="#m54ab28d5b9" x="428.323109" y="458.728" style="stroke: #000000; stroke-width: 0.6"/>
      </g>
     </g>
    </g>
    <g id="xtick_19">
     <g id="line2d_40">
      <g>
       <use xlink:href="#m54ab28d5b9" x="478.673904" y="458.728" style="stroke: #000000; stroke-width: 0.6"/>
      </g>
     </g>
    </g>
    <g id="xtick_20">
     <g id="line2d_41">
      <g>
       <use xlink:href="#m54ab28d5b9" x="514.398362" y="458.728" style="stroke: #000000; stroke-width: 0.6"/>
      </g>
     </g>
    </g>
    <g id="xtick_21">
     <g id="line2d_42">
      <g>
       <use xlink:href="#m54ab28d5b9" x="542.108404" y="458.728" style="stroke: #000000; stroke-width: 0.6"/>
      </g>
     </g>
    </g>
    <g id="xtick_22">
     <g id="line2d_43">
      <g>
       <use xlink:href="#m54ab28d5b9" x="564.749158" y="458.728" style="stroke: #000000; stroke-width: 0.6"/>
      </g>
     </g>
    </g>
    <g id="xtick_23">
     <g id="line2d_44">
      <g>
       <use xlink:href="#m54ab28d5b9" x="583.891641" y="458.728" style="stroke: #000000; stroke-width: 0.6"/>
      </g>
     </g>
    </g>
    <g id="xtick_24">
     <g id="line2d_45">
      <g>
       <use xlink:href="#m54ab28d5b9" x="600.473615" y="458.728" style="stroke: #000000; stroke-width: 0.6"/>
      </g>
     </g>
    </g>
    <g id="xtick_25">
     <g id="line2d_46">
      <g>
       <use xlink:href="#m54ab28d5b9" x="615.099953" y="458.728" style="stroke: #000000; stroke-width: 0.6"/>
      </g>
     </g>
    </g>
    <g id="text_19">
     <!-- frequency [arb.] -->
     <g transform="translate(301.797856 487.004563) scale(0.1 -0.1)">
      <defs>
       <path id="DejaVuSans-71" d="M 947 1747 
Q 947 1113 1208 752 
Q 1469 391 1925 391 
Q 2381 391 2643 752 
Q 2906 1113 2906 1747 
Q 2906 2381 2643 2742 
Q 2381 3103 1925 3103 
Q 1469 3103 1208 2742 
Q 947 2381 947 1747 
z
M 2906 525 
Q 2725 213 2448 61 
Q 2172 -91 1784 -91 
Q 1150 -91 751 415 
Q 353 922 353 1747 
Q 353 2572 751 3078 
Q 1150 3584 1784 3584 
Q 2172 3584 2448 3432 
Q 2725 3281 2906 2969 
L 2906 3500 
L 3481 3500 
L 3481 -1331 
L 2906 -1331 
L 2906 525 
z
" transform="scale(0.015625)"/>
      </defs>
      <use xlink:href="#DejaVuSans-66"/>
      <use xlink:href="#DejaVuSans-72" transform="translate(35.205078 0)"/>
      <use xlink:href="#DejaVuSans-65" transform="translate(74.068359 0)"/>
      <use xlink:href="#DejaVuSans-71" transform="translate(135.591797 0)"/>
      <use xlink:href="#DejaVuSans-75" transform="translate(199.068359 0)"/>
      <use xlink:href="#DejaVuSans-65" transform="translate(262.447266 0)"/>
      <use xlink:href="#DejaVuSans-6e" transform="translate(323.970703 0)"/>
      <use xlink:href="#DejaVuSans-63" transform="translate(387.349609 0)"/>
      <use xlink:href="#DejaVuSans-79" transform="translate(442.330078 0)"/>
      <use xlink:href="#DejaVuSans-20" transform="translate(501.509766 0)"/>
      <use xlink:href="#DejaVuSans-5b" transform="translate(533.296875 0)"/>
      <use xlink:href="#DejaVuSans-61" transform="translate(572.310547 0)"/>
      <use xlink:href="#DejaVuSans-72" transform="translate(633.589844 0)"/>
      <use xlink:href="#DejaVuSans-62" transform="translate(674.703125 0)"/>
      <use xlink:href="#DejaVuSans-2e" transform="translate(738.179688 0)"/>
      <use xlink:href="#DejaVuSans-5d" transform="translate(769.966797 0)"/>
     </g>
    </g>
   </g>
   <g id="matplotlib.axis_4">
    <g id="ytick_5">
     <g id="line2d_47">
      <path d="M 56.312054 442.784702 
L 628.183658 442.784702 
" clip-path="url(#pc96b907795)" style="fill: none; stroke: #b0b0b0; stroke-opacity: 0.25; stroke-width: 0.8; stroke-linecap: square"/>
     </g>
     <g id="line2d_48">
      <g>
       <use xlink:href="#mfc4f3b7020" x="56.312054" y="442.784702" style="stroke: #000000; stroke-width: 0.8"/>
      </g>
     </g>
     <g id="text_20">
      <!-- $\mathdefault{10^{-9}}$ -->
      <g transform="translate(25.812054 446.583921) scale(0.1 -0.1)">
       <use xlink:href="#DejaVuSans-31" transform="translate(0 0.765625)"/>
       <use xlink:href="#DejaVuSans-30" transform="translate(63.623047 0.765625)"/>
       <use xlink:href="#DejaVuSans-2212" transform="translate(128.203125 39.046875) scale(0.7)"/>
       <use xlink:href="#DejaVuSans-39" transform="translate(186.855469 39.046875) scale(0.7)"/>
      </g>
     </g>
    </g>
    <g id="ytick_6">
     <g id="line2d_49">
      <path d="M 56.312054 416.750488 
L 628.183658 416.750488 
" clip-path="url(#pc96b907795)" style="fill: none; stroke: #b0b0b0; stroke-opacity: 0.25; stroke-width: 0.8; stroke-linecap: square"/>
     </g>
     <g id="line2d_50">
      <g>
       <use xlink:href="#mfc4f3b7020" x="56.312054" y="416.750488" style="stroke: #000000; stroke-width: 0.8"/>
      </g>
     </g>
     <g id="text_21">
      <!-- $\mathdefault{10^{-7}}$ -->
      <g transform="translate(25.812054 420.549707) scale(0.1 -0.1)">
       <defs>
        <path id="DejaVuSans-37" d="M 525 4666 
L 3525 4666 
L 3525 4397 
L 1831 0 
L 1172 0 
L 2766 4134 
L 525 4134 
L 525 4666 
z
" transform="scale(0.015625)"/>
       </defs>
       <use xlink:href="#DejaVuSans-31" transform="translate(0 0.684375)"/>
       <use xlink:href="#DejaVuSans-30" transform="translate(63.623047 0.684375)"/>
       <use xlink:href="#DejaVuSans-2212" transform="translate(128.203125 38.965625) scale(0.7)"/>
       <use xlink:href="#DejaVuSans-37" transform="translate(186.855469 38.965625) scale(0.7)"/>
      </g>
     </g>
    </g>
    <g id="ytick_7">
     <g id="line2d_51">
      <path d="M 56.312054 390.716275 
L 628.183658 390.716275 
" clip-path="url(#pc96b907795)" style="fill: none; stroke: #b0b0b0; stroke-opacity: 0.25; stroke-width: 0.8; stroke-linecap: square"/>
     </g>
     <g id="line2d_52">
      <g>
       <use xlink:href="#mfc4f3b7020" x="56.312054" y="390.716275" style="stroke: #000000; stroke-width: 0.8"/>
      </g>
     </g>
     <g id="text_22">
      <!-- $\mathdefault{10^{-5}}$ -->
      <g transform="translate(25.812054 394.515494) scale(0.1 -0.1)">
       <use xlink:href="#DejaVuSans-31" transform="translate(0 0.684375)"/>
       <use xlink:href="#DejaVuSans-30" transform="translate(63.623047 0.684375)"/>
       <use xlink:href="#DejaVuSans-2212" transform="translate(128.203125 38.965625) scale(0.7)"/>
       <use xlink:href="#DejaVuSans-35" transform="translate(186.855469 38.965625) scale(0.7)"/>
      </g>
     </g>
    </g>
    <g id="ytick_8">
     <g id="line2d_53">
      <path d="M 56.312054 364.682061 
L 628.183658 364.682061 
" clip-path="url(#pc96b907795)" style="fill: none; stroke: #b0b0b0; stroke-opacity: 0.25; stroke-width: 0.8; stroke-linecap: square"/>
     </g>
     <g id="line2d_54">
      <g>
       <use xlink:href="#mfc4f3b7020" x="56.312054" y="364.682061" style="stroke: #000000; stroke-width: 0.8"/>
      </g>
     </g>
     <g id="text_23">
      <!-- $\mathdefault{10^{-3}}$ -->
      <g transform="translate(25.812054 368.48128) scale(0.1 -0.1)">
       <use xlink:href="#DejaVuSans-31" transform="translate(0 0.765625)"/>
       <use xlink:href="#DejaVuSans-30" transform="translate(63.623047 0.765625)"/>
       <use xlink:href="#DejaVuSans-2212" transform="translate(128.203125 39.046875) scale(0.7)"/>
       <use xlink:href="#DejaVuSans-33" transform="translate(186.855469 39.046875) scale(0.7)"/>
      </g>
     </g>
    </g>
    <g id="ytick_9">
     <g id="line2d_55">
      <path d="M 56.312054 338.647847 
L 628.183658 338.647847 
" clip-path="url(#pc96b907795)" style="fill: none; stroke: #b0b0b0; stroke-opacity: 0.25; stroke-width: 0.8; stroke-linecap: square"/>
     </g>
     <g id="line2d_56">
      <g>
       <use xlink:href="#mfc4f3b7020" x="56.312054" y="338.647847" style="stroke: #000000; stroke-width: 0.8"/>
      </g>
     </g>
     <g id="text_24">
      <!-- $\mathdefault{10^{-1}}$ -->
      <g transform="translate(25.812054 342.447066) scale(0.1 -0.1)">
       <use xlink:href="#DejaVuSans-31" transform="translate(0 0.684375)"/>
       <use xlink:href="#DejaVuSans-30" transform="translate(63.623047 0.684375)"/>
       <use xlink:href="#DejaVuSans-2212" transform="translate(128.203125 38.965625) scale(0.7)"/>
       <use xlink:href="#DejaVuSans-31" transform="translate(186.855469 38.965625) scale(0.7)"/>
      </g>
     </g>
    </g>
    <g id="ytick_10">
     <g id="line2d_57">
      <path d="M 56.312054 312.613634 
L 628.183658 312.613634 
" clip-path="url(#pc96b907795)" style="fill: none; stroke: #b0b0b0; stroke-opacity: 0.25; stroke-width: 0.8; stroke-linecap: square"/>
     </g>
     <g id="line2d_58">
      <g>
       <use xlink:href="#mfc4f3b7020" x="56.312054" y="312.613634" style="stroke: #000000; stroke-width: 0.8"/>
      </g>
     </g>
     <g id="text_25">
      <!-- $\mathdefault{10^{1}}$ -->
      <g transform="translate(31.712054 316.412852) scale(0.1 -0.1)">
       <use xlink:href="#DejaVuSans-31" transform="translate(0 0.684375)"/>
       <use xlink:href="#DejaVuSans-30" transform="translate(63.623047 0.684375)"/>
       <use xlink:href="#DejaVuSans-31" transform="translate(128.203125 38.965625) scale(0.7)"/>
      </g>
     </g>
    </g>
    <g id="ytick_11">
     <g id="line2d_59">
      <path d="M 56.312054 286.57942 
L 628.183658 286.57942 
" clip-path="url(#pc96b907795)" style="fill: none; stroke: #b0b0b0; stroke-opacity: 0.25; stroke-width: 0.8; stroke-linecap: square"/>
     </g>
     <g id="line2d_60">
      <g>
       <use xlink:href="#mfc4f3b7020" x="56.312054" y="286.57942" style="stroke: #000000; stroke-width: 0.8"/>
      </g>
     </g>
     <g id="text_26">
      <!-- $\mathdefault{10^{3}}$ -->
      <g transform="translate(31.712054 290.378639) scale(0.1 -0.1)">
       <use xlink:href="#DejaVuSans-31" transform="translate(0 0.765625)"/>
       <use xlink:href="#DejaVuSans-30" transform="translate(63.623047 0.765625)"/>
       <use xlink:href="#DejaVuSans-33" transform="translate(128.203125 39.046875) scale(0.7)"/>
      </g>
     </g>
    </g>
    <g id="text_27">
     <!-- |FFT(.)| -->
     <g transform="translate(19.454241 386.597344) rotate(-90) scale(0.1 -0.1)">
      <defs>
       <path id="DejaVuSans-54" d="M -19 4666 
L 3928 4666 
L 3928 4134 
L 2272 4134 
L 2272 0 
L 1638 0 
L 1638 4134 
L -19 4134 
L -19 4666 
z
" transform="scale(0.015625)"/>
      </defs>
      <use xlink:href="#DejaVuSans-7c"/>
      <use xlink:href="#DejaVuSans-46" transform="translate(33.691406 0)"/>
      <use xlink:href="#DejaVuSans-46" transform="translate(91.210938 0)"/>
      <use xlink:href="#DejaVuSans-54" transform="translate(146.980469 0)"/>
      <use xlink:href="#DejaVuSans-28" transform="translate(208.064453 0)"/>
      <use xlink:href="#DejaVuSans-2e" transform="translate(247.078125 0)"/>
      <use xlink:href="#DejaVuSans-29" transform="translate(278.865234 0)"/>
      <use xlink:href="#DejaVuSans-7c" transform="translate(317.878906 0)"/>
     </g>
    </g>
   </g>
   <g id="line2d_61">
    <path d="M 56.312054 305.658503 
L 142.387307 319.271575 
L 192.738102 315.355265 
L 228.46256 309.620184 
L 256.172603 299.859769 
L 278.813356 288.551632 
L 297.95584 287.467273 
L 314.537813 294.804406 
L 329.164151 307.492202 
L 342.247856 314.107045 
L 354.083506 318.775573 
L 364.888609 322.418664 
L 374.82834 325.418921 
L 384.031093 327.975739 
L 392.598651 330.207064 
L 400.613067 332.188705 
L 408.141453 333.972366 
L 415.239404 335.594937 
L 421.95349 337.083681 
L 428.323109 338.459343 
L 434.381888 339.738079 
L 440.15876 340.932737 
L 445.678795 342.053705 
L 450.963862 343.10951 
L 456.033151 344.107247 
L 460.903593 345.052882 
L 465.5902 345.951488 
L 470.106346 346.807415 
L 474.463998 347.624426 
L 478.673904 348.405799 
L 482.745756 349.154408 
L 486.68832 349.87279 
L 490.509555 350.563197 
L 494.216706 351.227635 
L 497.816388 351.867902 
L 501.314657 352.485617 
L 504.717071 353.08224 
L 508.028743 353.659097 
L 511.254388 354.217393 
L 514.398362 354.758226 
L 517.464699 355.282603 
L 520.457141 355.791448 
L 523.379167 356.285609 
L 526.234013 356.765868 
L 529.0247 357.23295 
L 531.754048 357.687524 
L 534.424696 358.130211 
L 537.039115 358.561589 
L 539.599625 358.982195 
L 542.108404 359.392531 
L 544.567501 359.793066 
L 546.978846 360.184236 
L 549.344257 360.566453 
L 551.665453 360.940101 
L 553.944055 361.305542 
L 556.181599 361.663115 
L 558.379539 362.013141 
L 560.539251 362.35592 
L 562.662044 362.691737 
L 564.749158 363.020861 
L 566.801772 363.343545 
L 568.821009 363.66003 
L 570.807937 363.970542 
L 572.763573 364.275298 
L 574.688888 364.574502 
L 576.584808 364.868348 
L 578.452217 365.15702 
L 580.291959 365.440694 
L 582.104843 365.719537 
L 583.891641 365.993708 
L 585.653094 366.263358 
L 587.389911 366.528632 
L 589.10277 366.789667 
L 590.792325 367.046595 
L 592.4592 367.299542 
L 594.103997 367.548628 
L 595.727292 367.793968 
L 597.329641 368.035672 
L 598.911578 368.273846 
L 600.473615 368.50859 
L 602.016248 368.740001 
L 603.539952 368.968172 
L 605.045187 369.193192 
L 606.532395 369.415147 
L 608.002002 369.634119 
L 609.45442 369.850187 
L 610.890047 370.063427 
L 612.309266 370.273912 
L 613.712449 370.481712 
L 615.099953 370.686895 
L 616.472125 370.889526 
L 617.829301 371.089668 
L 619.171804 371.287382 
L 620.499949 371.482726 
L 621.814039 371.675756 
L 623.114368 371.866528 
L 624.401223 372.055092 
L 625.674879 372.241501 
L 626.935603 372.425804 
L 628.183658 372.608046 
L 629.419293 372.788275 
" clip-path="url(#pc96b907795)" style="fill: none; stroke: #1f77b4; stroke-opacity: 0.6; stroke-width: 1.5; stroke-linecap: square"/>
   </g>
   <g id="line2d_62">
    <path d="M 56.312054 306.171565 
L 142.387307 318.936765 
L 192.738102 315.315595 
L 228.46256 309.617786 
L 256.172603 299.866653 
L 278.813356 288.559563 
L 297.95584 287.475105 
L 314.537813 294.812323 
L 329.164151 307.500297 
L 342.247856 314.115155 
L 354.083506 318.783359 
L 364.888609 322.425707 
L 374.82834 325.42478 
L 384.031093 327.979986 
L 392.598651 330.209303 
L 400.613067 332.188578 
L 408.141453 333.969555 
L 415.239404 335.589161 
L 421.95349 337.074699 
L 428.323109 338.446944 
L 434.381888 339.722086 
L 440.15876 340.913 
L 445.678795 342.030098 
L 450.963862 343.081932 
L 456.033151 344.075616 
L 460.903593 345.017137 
L 465.5902 345.911583 
L 470.106346 346.76332 
L 474.463998 347.576125 
L 478.673904 348.353288 
L 482.745756 349.097694 
L 486.68832 349.811891 
L 490.509555 350.498137 
L 494.216706 351.158449 
L 497.816388 351.794629 
L 501.314657 352.408304 
L 504.717071 353.000938 
L 508.028743 353.573862 
L 511.254388 354.128284 
L 514.398362 354.665307 
L 517.464699 355.185939 
L 520.457141 355.691107 
L 523.379167 356.18166 
L 526.234013 356.658383 
L 529.0247 357.122001 
L 531.754048 357.573183 
L 534.424696 358.012552 
L 537.039115 358.440685 
L 539.599625 358.858119 
L 542.108404 359.265356 
L 544.567501 359.662864 
L 546.978846 360.05108 
L 549.344257 360.430413 
L 551.665453 360.801248 
L 553.944055 361.163945 
L 556.181599 361.518842 
L 558.379539 361.866259 
L 560.539251 362.206495 
L 562.662044 362.539834 
L 564.749158 362.866543 
L 566.801772 363.186874 
L 568.821009 363.501066 
L 570.807937 363.809346 
L 572.763573 364.111927 
L 574.688888 364.409013 
L 576.584808 364.700795 
L 578.452217 364.987459 
L 580.291959 365.269177 
L 582.104843 365.546115 
L 583.891641 365.818431 
L 585.653094 366.086274 
L 587.389911 366.349789 
L 589.10277 366.609111 
L 590.792325 366.864372 
L 592.4592 367.115694 
L 594.103997 367.363199 
L 595.727292 367.606998 
L 597.329641 367.847202 
L 598.911578 368.083914 
L 600.473615 368.317235 
L 602.016248 368.54726 
L 603.539952 368.77408 
L 605.045187 368.997785 
L 606.532395 369.218459 
L 608.002002 369.436182 
L 609.45442 369.651034 
L 610.890047 369.863088 
L 612.309266 370.072418 
L 613.712449 370.279092 
L 615.099953 370.483178 
L 616.472125 370.68474 
L 617.829301 370.883841 
L 619.171804 371.080539 
L 620.499949 371.274893 
L 621.814039 371.466958 
L 623.114368 371.656788 
L 624.401223 371.844435 
L 625.674879 372.029949 
L 626.935603 372.213378 
L 628.183658 372.39477 
L 629.419293 372.574169 
" clip-path="url(#pc96b907795)" style="fill: none; stroke: #ff7f0e; stroke-width: 1.5; stroke-linecap: square"/>
   </g>
   <g id="patch_9">
    <path d="M 56.312054 458.728 
L 56.312054 279.312 
" style="fill: none; stroke: #000000; stroke-width: 0.8; stroke-linejoin: miter; stroke-linecap: square"/>
   </g>
   <g id="patch_10">
    <path d="M 628.183658 458.728 
L 628.183658 279.312 
" style="fill: none; stroke: #000000; stroke-width: 0.8; stroke-linejoin: miter; stroke-linecap: square"/>
   </g>
   <g id="patch_11">
    <path d="M 56.312054 458.728 
L 628.183658 458.728 
" style="fill: none; stroke: #000000; stroke-width: 0.8; stroke-linejoin: miter; stroke-linecap: square"/>
   </g>
   <g id="patch_12">
    <path d="M 56.312054 279.312 
L 628.183658 279.312 
" style="fill: none; stroke: #000000; stroke-width: 0.8; stroke-linejoin: miter; stroke-linecap: square"/>
   </g>
   <g id="text_28">
    <!-- Output FFT peak ≈ 0.700 (arb.), magnitude ≈ 8.535e+02 | band/flat-ish -->
    <g transform="translate(125.848481 273.312) scale(0.12 -0.12)">
     <defs>
      <path id="DejaVuSans-4f" d="M 2522 4238 
Q 1834 4238 1429 3725 
Q 1025 3213 1025 2328 
Q 1025 1447 1429 934 
Q 1834 422 2522 422 
Q 3209 422 3611 934 
Q 4013 1447 4013 2328 
Q 4013 3213 3611 3725 
Q 3209 4238 2522 4238 
z
M 2522 4750 
Q 3503 4750 4090 4092 
Q 4678 3434 4678 2328 
Q 4678 1225 4090 567 
Q 3503 -91 2522 -91 
Q 1538 -91 948 565 
Q 359 1222 359 2328 
Q 359 3434 948 4092 
Q 1538 4750 2522 4750 
z
" transform="scale(0.015625)"/>
      <path id="DejaVuSans-6b" d="M 581 4863 
L 1159 4863 
L 1159 1991 
L 2875 3500 
L 3609 3500 
L 1753 1863 
L 3688 0 
L 2938 0 
L 1159 1709 
L 1159 0 
L 581 0 
L 581 4863 
z
" transform="scale(0.015625)"/>
      <path id="DejaVuSans-2248" d="M 4684 1947 
L 4684 1388 
Q 4356 1144 4076 1036 
Q 3797 928 3494 928 
Q 3150 928 2694 1113 
Q 2663 1125 2641 1134 
Q 2622 1141 2575 1159 
Q 2091 1350 1797 1350 
Q 1522 1350 1253 1231 
Q 984 1113 678 850 
L 678 1409 
Q 1006 1653 1286 1761 
Q 1566 1869 1869 1869 
Q 2213 1869 2672 1684 
Q 2706 1669 2722 1663 
Q 2741 1656 2788 1638 
Q 3272 1447 3566 1447 
Q 3834 1447 4098 1564 
Q 4363 1681 4684 1947 
z
M 4684 3163 
L 4684 2606 
Q 4356 2359 4076 2251 
Q 3797 2144 3494 2144 
Q 3150 2144 2694 2328 
Q 2663 2341 2641 2350 
Q 2622 2356 2575 2375 
Q 2091 2566 1797 2566 
Q 1522 2566 1253 2447 
Q 984 2328 678 2069 
L 678 2625 
Q 1006 2869 1286 2976 
Q 1566 3084 1869 3084 
Q 2213 3084 2672 2900 
Q 2703 2888 2719 2881 
Q 2741 2872 2788 2853 
Q 3272 2663 3566 2663 
Q 3834 2663 4098 2780 
Q 4363 2897 4684 3163 
z
" transform="scale(0.015625)"/>
      <path id="DejaVuSans-6d" d="M 3328 2828 
Q 3544 3216 3844 3400 
Q 4144 3584 4550 3584 
Q 5097 3584 5394 3201 
Q 5691 2819 5691 2113 
L 5691 0 
L 5113 0 
L 5113 2094 
Q 5113 2597 4934 2840 
Q 4756 3084 4391 3084 
Q 3944 3084 3684 2787 
Q 3425 2491 3425 1978 
L 3425 0 
L 2847 0 
L 2847 2094 
Q 2847 2600 2669 2842 
Q 2491 3084 2119 3084 
Q 1678 3084 1418 2786 
Q 1159 2488 1159 1978 
L 1159 0 
L 581 0 
L 581 3500 
L 1159 3500 
L 1159 2956 
Q 1356 3278 1631 3431 
Q 1906 3584 2284 3584 
Q 2666 3584 2933 3390 
Q 3200 3197 3328 2828 
z
" transform="scale(0.015625)"/>
      <path id="DejaVuSans-2b" d="M 2944 4013 
L 2944 2272 
L 4684 2272 
L 4684 1741 
L 2944 1741 
L 2944 0 
L 2419 0 
L 2419 1741 
L 678 1741 
L 678 2272 
L 2419 2272 
L 2419 4013 
L 2944 4013 
z
" transform="scale(0.015625)"/>
      <path id="DejaVuSans-2f" d="M 1625 4666 
L 2156 4666 
L 531 -594 
L 0 -594 
L 1625 4666 
z
" transform="scale(0.015625)"/>
     </defs>
     <use xlink:href="#DejaVuSans-4f"/>
     <use xlink:href="#DejaVuSans-75" transform="translate(78.710938 0)"/>
     <use xlink:href="#DejaVuSans-74" transform="translate(142.089844 0)"/>
     <use xlink:href="#DejaVuSans-70" transform="translate(181.298828 0)"/>
     <use xlink:href="#DejaVuSans-75" transform="translate(244.775391 0)"/>
     <use xlink:href="#DejaVuSans-74" transform="translate(308.154297 0)"/>
     <use xlink:href="#DejaVuSans-20" transform="translate(347.363281 0)"/>
     <use xlink:href="#DejaVuSans-46" transform="translate(379.150391 0)"/>
     <use xlink:href="#DejaVuSans-46" transform="translate(436.669922 0)"/>
     <use xlink:href="#DejaVuSans-54" transform="translate(492.439453 0)"/>
     <use xlink:href="#DejaVuSans-20" transform="translate(553.523438 0)"/>
     <use xlink:href="#DejaVuSans-70" transform="translate(585.310547 0)"/>
     <use xlink:href="#DejaVuSans-65" transform="translate(648.787109 0)"/>
     <use xlink:href="#DejaVuSans-61" transform="translate(710.310547 0)"/>
     <use xlink:href="#DejaVuSans-6b" transform="translate(771.589844 0)"/>
     <use xlink:href="#DejaVuSans-20" transform="translate(829.5 0)"/>
     <use xlink:href="#DejaVuSans-2248" transform="translate(861.287109 0)"/>
     <use xlink:href="#DejaVuSans-20" transform="translate(945.076172 0)"/>
     <use xlink:href="#DejaVuSans-30" transform="translate(976.863281 0)"/>
     <use xlink:href="#DejaVuSans-2e" transform="translate(1040.486328 0)"/>
     <use xlink:href="#DejaVuSans-37" transform="translate(1072.273438 0)"/>
     <use xlink:href="#DejaVuSans-30" transform="translate(1135.896484 0)"/>
     <use xlink:href="#DejaVuSans-30" transform="translate(1199.519531 0)"/>
     <use xlink:href="#DejaVuSans-20" transform="translate(1263.142578 0)"/>
     <use xlink:href="#DejaVuSans-28" transform="translate(1294.929688 0)"/>
     <use xlink:href="#DejaVuSans-61" transform="translate(1333.943359 0)"/>
     <use xlink:href="#DejaVuSans-72" transform="translate(1395.222656 0)"/>
     <use xlink:href="#DejaVuSans-62" transform="translate(1436.335938 0)"/>
     <use xlink:href="#DejaVuSans-2e" transform="translate(1499.8125 0)"/>
     <use xlink:href="#DejaVuSans-29" transform="translate(1531.599609 0)"/>
     <use xlink:href="#DejaVuSans-2c" transform="translate(1570.613281 0)"/>
     <use xlink:href="#DejaVuSans-20" transform="translate(1602.400391 0)"/>
     <use xlink:href="#DejaVuSans-6d" transform="translate(1634.1875 0)"/>
     <use xlink:href="#DejaVuSans-61" transform="translate(1731.599609 0)"/>
     <use xlink:href="#DejaVuSans-67" transform="translate(1792.878906 0)"/>
     <use xlink:href="#DejaVuSans-6e" transform="translate(1856.355469 0)"/>
     <use xlink:href="#DejaVuSans-69" transform="translate(1919.734375 0)"/>
     <use xlink:href="#DejaVuSans-74" transform="translate(1947.517578 0)"/>
     <use xlink:href="#DejaVuSans-75" transform="translate(1986.726562 0)"/>
     <use xlink:href="#DejaVuSans-64" transform="translate(2050.105469 0)"/>
     <use xlink:href="#DejaVuSans-65" transform="translate(2113.582031 0)"/>
     <use xlink:href="#DejaVuSans-20" transform="translate(2175.105469 0)"/>
     <use xlink:href="#DejaVuSans-2248" transform="translate(2206.892578 0)"/>
     <use xlink:href="#DejaVuSans-20" transform="translate(2290.681641 0)"/>
     <use xlink:href="#DejaVuSans-38" transform="translate(2322.46875 0)"/>
     <use xlink:href="#DejaVuSans-2e" transform="translate(2386.091797 0)"/>
     <use xlink:href="#DejaVuSans-35" transform="translate(2417.878906 0)"/>
     <use xlink:href="#DejaVuSans-33" transform="translate(2481.501953 0)"/>
     <use xlink:href="#DejaVuSans-35" transform="translate(2545.125 0)"/>
     <use xlink:href="#DejaVuSans-65" transform="translate(2608.748047 0)"/>
     <use xlink:href="#DejaVuSans-2b" transform="translate(2670.271484 0)"/>
     <use xlink:href="#DejaVuSans-30" transform="translate(2754.060547 0)"/>
     <use xlink:href="#DejaVuSans-32" transform="translate(2817.683594 0)"/>
     <use xlink:href="#DejaVuSans-20" transform="translate(2881.306641 0)"/>
     <use xlink:href="#DejaVuSans-7c" transform="translate(2913.09375 0)"/>
     <use xlink:href="#DejaVuSans-20" transform="translate(2946.785156 0)"/>
     <use xlink:href="#DejaVuSans-62" transform="translate(2978.572266 0)"/>
     <use xlink:href="#DejaVuSans-61" transform="translate(3042.048828 0)"/>
     <use xlink:href="#DejaVuSans-6e" transform="translate(3103.328125 0)"/>
     <use xlink:href="#DejaVuSans-64" transform="translate(3166.707031 0)"/>
     <use xlink:href="#DejaVuSans-2f" transform="translate(3230.183594 0)"/>
     <use xlink:href="#DejaVuSans-66" transform="translate(3263.875 0)"/>
     <use xlink:href="#DejaVuSans-6c" transform="translate(3299.080078 0)"/>
     <use xlink:href="#DejaVuSans-61" transform="translate(3326.863281 0)"/>
     <use xlink:href="#DejaVuSans-74" transform="translate(3388.142578 0)"/>
     <use xlink:href="#DejaVuSans-2d" transform="translate(3427.351562 0)"/>
     <use xlink:href="#DejaVuSans-69" transform="translate(3463.435547 0)"/>
     <use xlink:href="#DejaVuSans-73" transform="translate(3491.21875 0)"/>
     <use xlink:href="#DejaVuSans-68" transform="translate(3543.318359 0)"/>
    </g>
   </g>
   <g id="legend_2">
    <g id="patch_13">
     <path d="M 535.586783 316.66825 
L 621.183658 316.66825 
Q 623.183658 316.66825 623.183658 314.66825 
L 623.183658 286.312 
Q 623.183658 284.312 621.183658 284.312 
L 535.586783 284.312 
Q 533.586783 284.312 533.586783 286.312 
L 533.586783 314.66825 
Q 533.586783 316.66825 535.586783 316.66825 
z
" style="fill: #ffffff; opacity: 0.8; stroke: #cccccc; stroke-linejoin: miter"/>
    </g>
    <g id="line2d_63">
     <path d="M 537.586783 292.410438 
L 547.586783 292.410438 
L 557.586783 292.410438 
" style="fill: none; stroke: #1f77b4; stroke-opacity: 0.6; stroke-width: 1.5; stroke-linecap: square"/>
    </g>
    <g id="text_29">
     <!-- input FFT -->
     <g transform="translate(565.586783 295.910438) scale(0.1 -0.1)">
      <use xlink:href="#DejaVuSans-69"/>
      <use xlink:href="#DejaVuSans-6e" transform="translate(27.783203 0)"/>
      <use xlink:href="#DejaVuSans-70" transform="translate(91.162109 0)"/>
      <use xlink:href="#DejaVuSans-75" transform="translate(154.638672 0)"/>
      <use xlink:href="#DejaVuSans-74" transform="translate(218.017578 0)"/>
      <use xlink:href="#DejaVuSans-20" transform="translate(257.226562 0)"/>
      <use xlink:href="#DejaVuSans-46" transform="translate(289.013672 0)"/>
      <use xlink:href="#DejaVuSans-46" transform="translate(346.533203 0)"/>
      <use xlink:href="#DejaVuSans-54" transform="translate(402.302734 0)"/>
     </g>
    </g>
    <g id="line2d_64">
     <path d="M 537.586783 307.088562 
L 547.586783 307.088562 
L 557.586783 307.088562 
" style="fill: none; stroke: #ff7f0e; stroke-width: 1.5; stroke-linecap: square"/>
    </g>
    <g id="text_30">
     <!-- output FFT -->
     <g transform="translate(565.586783 310.588562) scale(0.1 -0.1)">
      <use xlink:href="#DejaVuSans-6f"/>
      <use xlink:href="#DejaVuSans-75" transform="translate(61.181641 0)"/>
      <use xlink:href="#DejaVuSans-74" transform="translate(124.560547 0)"/>
      <use xlink:href="#DejaVuSans-70" transform="translate(163.769531 0)"/>
      <use xlink:href="#DejaVuSans-75" transform="translate(227.246094 0)"/>
      <use xlink:href="#DejaVuSans-74" transform="translate(290.625 0)"/>
      <use xlink:href="#DejaVuSans-20" transform="translate(329.833984 0)"/>
      <use xlink:href="#DejaVuSans-46" transform="translate(361.621094 0)"/>
      <use xlink:href="#DejaVuSans-46" transform="translate(419.140625 0)"/>
      <use xlink:href="#DejaVuSans-54" transform="translate(474.910156 0)"/>
     </g>
    </g>
   </g>
  </g>
 </g>
 <defs>
  <clipPath id="p29be5cd55d">
   <rect x="56.312054" y="41.856" width="571.871604" height="179.416"/>
  </clipPath>
  <clipPath id="pc96b907795">
   <rect x="56.312054" y="279.312" width="571.871604" height="179.416"/>
  </clipPath>
 </defs>
</svg>
