<?xml version="1.0" encoding="utf-8" standalone="no"?>
<!DOCTYPE svg PUBLIC "-//W3C//DTD SVG 1.1//EN"
  "http://www.w3.org/Graphics/SVG/1.1/DTD/svg11.dtd">
<svg xmlns:xlink="http://www.w3.org/1999/xlink" width="648pt" height="504pt" viewBox="0 0 648 504" xmlns="http://www.w3.org/2000/svg" version="1.1">
 <metadata>
  <rdf:RDF xmlns:dc="http://purl.org/dc/elements/1.1/" xmlns:cc="http://creativecommons.org/ns#" xmlns:rdf="http://www.w3.org/1999/02/22-rdf-syntax-ns#">
   <cc:Work>
    <dc:type rdf:resource="http://purl.org/dc/dcmitype/StillImage"/>
    <dc:date>2026-06-27T04:05:55.242093</dc:date>
    <dc:format>image/svg+xml</dc:format>
    <dc:creator>
     <cc:Agent>
      <dc:title>Matplotlib v3.11.0, https://matplotlib.org/</dc:title>
     </cc:Agent>
    </dc:creator>
   </cc:Work>
  </rdf:RDF>
 </metadata>
 <defs>
  <style type="text/css">*{stroke-linejoin: round; stroke-linecap: butt}</style>
 </defs>
 <g id="figure_1">
  <g id="patch_1">
   <path d="M 0 504 
L 648 504 
L 648 0 
L 0 0 
z
" style="fill: #ffffff"/>
  </g>
  <g id="axes_1">
   <g id="patch_2">
    <path d="M 56.602344 222.319648 
L 628.2 222.319648 
L 628.2 42.006328 
L 56.602344 42.006328 
z
" style="fill: #ffffff"/>
   </g>
   <g id="matplotlib.axis_1">
    <g id="xtick_1">
     <g id="line2d_1">
      <path d="M 82.584055 222.319648 
L 82.584055 42.006328 
" clip-path="url(#p8278f92772)" style="fill: none; stroke: #b0b0b0; stroke-opacity: 0.25; stroke-width: 0.8; stroke-linecap: square"/>
     </g>
     <g id="line2d_2">
      <defs>
       <path id="m39ed165c1c" d="M 0 0 
L 0 3.5 
" style="stroke: #000000; stroke-width: 0.8"/>
      </defs>
      <g>
       <use xlink:href="#m39ed165c1c" x="82.584055" y="222.319648" style="stroke: #000000; stroke-width: 0.8"/>
      </g>
     </g>
     <g id="text_1">
      <!-- 0 -->
      <g transform="translate(79.402805 236.917305) scale(0.1 -0.1)">
       <defs>
        <path id="DejaVuSans-13" d="M 2034 4250 
Q 1547 4250 1301 3770 
Q 1056 3291 1056 2328 
Q 1056 1369 1301 889 
Q 1547 409 2034 409 
Q 2525 409 2770 889 
Q 3016 1369 3016 2328 
Q 3016 3291 2770 3770 
Q 2525 4250 2034 4250 
z
M 2034 4750 
Q 2819 4750 3233 4129 
Q 3647 3509 3647 2328 
Q 3647 1150 3233 529 
Q 2819 -91 2034 -91 
Q 1250 -91 836 529 
Q 422 1150 422 2328 
Q 422 3509 836 4129 
Q 1250 4750 2034 4750 
z
" transform="scale(0.015625)"/>
       </defs>
       <use xlink:href="#DejaVuSans-13"/>
      </g>
     </g>
    </g>
    <g id="xtick_2">
     <g id="line2d_3">
      <path d="M 186.536281 222.319648 
L 186.536281 42.006328 
" clip-path="url(#p8278f92772)" style="fill: none; stroke: #b0b0b0; stroke-opacity: 0.25; stroke-width: 0.8; stroke-linecap: square"/>
     </g>
     <g id="line2d_4">
      <g>
       <use xlink:href="#m39ed165c1c" x="186.536281" y="222.319648" style="stroke: #000000; stroke-width: 0.8"/>
      </g>
     </g>
     <g id="text_2">
      <!-- 2 -->
      <g transform="translate(183.355031 236.917305) scale(0.1 -0.1)">
       <defs>
        <path id="DejaVuSans-15" d="M 1228 531 
L 3431 531 
L 3431 0 
L 469 0 
L 469 531 
Q 828 903 1448 1529 
Q 2069 2156 2228 2338 
Q 2531 2678 2651 2914 
Q 2772 3150 2772 3378 
Q 2772 3750 2511 3984 
Q 2250 4219 1831 4219 
Q 1534 4219 1204 4116 
Q 875 4013 500 3803 
L 500 4441 
Q 881 4594 1212 4672 
Q 1544 4750 1819 4750 
Q 2544 4750 2975 4387 
Q 3406 4025 3406 3419 
Q 3406 3131 3298 2873 
Q 3191 2616 2906 2266 
Q 2828 2175 2409 1742 
Q 1991 1309 1228 531 
z
" transform="scale(0.015625)"/>
       </defs>
       <use xlink:href="#DejaVuSans-15"/>
      </g>
     </g>
    </g>
    <g id="xtick_3">
     <g id="line2d_5">
      <path d="M 290.488507 222.319648 
L 290.488507 42.006328 
" clip-path="url(#p8278f92772)" style="fill: none; stroke: #b0b0b0; stroke-opacity: 0.25; stroke-width: 0.8; stroke-linecap: square"/>
     </g>
     <g id="line2d_6">
      <g>
       <use xlink:href="#m39ed165c1c" x="290.488507" y="222.319648" style="stroke: #000000; stroke-width: 0.8"/>
      </g>
     </g>
     <g id="text_3">
      <!-- 4 -->
      <g transform="translate(287.307257 236.917305) scale(0.1 -0.1)">
       <defs>
        <path id="DejaVuSans-17" d="M 2419 4116 
L 825 1625 
L 2419 1625 
L 2419 4116 
z
M 2253 4666 
L 3047 4666 
L 3047 1625 
L 3713 1625 
L 3713 1100 
L 3047 1100 
L 3047 0 
L 2419 0 
L 2419 1100 
L 313 1100 
L 313 1709 
L 2253 4666 
z
" transform="scale(0.015625)"/>
       </defs>
       <use xlink:href="#DejaVuSans-17"/>
      </g>
     </g>
    </g>
    <g id="xtick_4">
     <g id="line2d_7">
      <path d="M 394.440732 222.319648 
L 394.440732 42.006328 
" clip-path="url(#p8278f92772)" style="fill: none; stroke: #b0b0b0; stroke-opacity: 0.25; stroke-width: 0.8; stroke-linecap: square"/>
     </g>
     <g id="line2d_8">
      <g>
       <use xlink:href="#m39ed165c1c" x="394.440732" y="222.319648" style="stroke: #000000; stroke-width: 0.8"/>
      </g>
     </g>
     <g id="text_4">
      <!-- 6 -->
      <g transform="translate(391.259482 236.917305) scale(0.1 -0.1)">
       <defs>
        <path id="DejaVuSans-19" d="M 2113 2584 
Q 1688 2584 1439 2293 
Q 1191 2003 1191 1497 
Q 1191 994 1439 701 
Q 1688 409 2113 409 
Q 2538 409 2786 701 
Q 3034 994 3034 1497 
Q 3034 2003 2786 2293 
Q 2538 2584 2113 2584 
z
M 3366 4563 
L 3366 3988 
Q 3128 4100 2886 4159 
Q 2644 4219 2406 4219 
Q 1781 4219 1451 3797 
Q 1122 3375 1075 2522 
Q 1259 2794 1537 2939 
Q 1816 3084 2150 3084 
Q 2853 3084 3261 2657 
Q 3669 2231 3669 1497 
Q 3669 778 3244 343 
Q 2819 -91 2113 -91 
Q 1303 -91 875 529 
Q 447 1150 447 2328 
Q 447 3434 972 4092 
Q 1497 4750 2381 4750 
Q 2619 4750 2861 4703 
Q 3103 4656 3366 4563 
z
" transform="scale(0.015625)"/>
       </defs>
       <use xlink:href="#DejaVuSans-19"/>
      </g>
     </g>
    </g>
    <g id="xtick_5">
     <g id="line2d_9">
      <path d="M 498.392958 222.319648 
L 498.392958 42.006328 
" clip-path="url(#p8278f92772)" style="fill: none; stroke: #b0b0b0; stroke-opacity: 0.25; stroke-width: 0.8; stroke-linecap: square"/>
     </g>
     <g id="line2d_10">
      <g>
       <use xlink:href="#m39ed165c1c" x="498.392958" y="222.319648" style="stroke: #000000; stroke-width: 0.8"/>
      </g>
     </g>
     <g id="text_5">
      <!-- 8 -->
      <g transform="translate(495.211708 236.917305) scale(0.1 -0.1)">
       <defs>
        <path id="DejaVuSans-1b" d="M 2034 2216 
Q 1584 2216 1326 1975 
Q 1069 1734 1069 1313 
Q 1069 891 1326 650 
Q 1584 409 2034 409 
Q 2484 409 2743 651 
Q 3003 894 3003 1313 
Q 3003 1734 2745 1975 
Q 2488 2216 2034 2216 
z
M 1403 2484 
Q 997 2584 770 2862 
Q 544 3141 544 3541 
Q 544 4100 942 4425 
Q 1341 4750 2034 4750 
Q 2731 4750 3128 4425 
Q 3525 4100 3525 3541 
Q 3525 3141 3298 2862 
Q 3072 2584 2669 2484 
Q 3125 2378 3379 2068 
Q 3634 1759 3634 1313 
Q 3634 634 3220 271 
Q 2806 -91 2034 -91 
Q 1263 -91 848 271 
Q 434 634 434 1313 
Q 434 1759 690 2068 
Q 947 2378 1403 2484 
z
M 1172 3481 
Q 1172 3119 1398 2916 
Q 1625 2713 2034 2713 
Q 2441 2713 2670 2916 
Q 2900 3119 2900 3481 
Q 2900 3844 2670 4047 
Q 2441 4250 2034 4250 
Q 1625 4250 1398 4047 
Q 1172 3844 1172 3481 
z
" transform="scale(0.015625)"/>
       </defs>
       <use xlink:href="#DejaVuSans-1b"/>
      </g>
     </g>
    </g>
    <g id="xtick_6">
     <g id="line2d_11">
      <path d="M 602.345183 222.319648 
L 602.345183 42.006328 
" clip-path="url(#p8278f92772)" style="fill: none; stroke: #b0b0b0; stroke-opacity: 0.25; stroke-width: 0.8; stroke-linecap: square"/>
     </g>
     <g id="line2d_12">
      <g>
       <use xlink:href="#m39ed165c1c" x="602.345183" y="222.319648" style="stroke: #000000; stroke-width: 0.8"/>
      </g>
     </g>
     <g id="text_6">
      <!-- 10 -->
      <g transform="translate(595.982683 236.917305) scale(0.1 -0.1)">
       <defs>
        <path id="DejaVuSans-14" d="M 794 531 
L 1825 531 
L 1825 4091 
L 703 3866 
L 703 4441 
L 1819 4666 
L 2450 4666 
L 2450 531 
L 3481 531 
L 3481 0 
L 794 0 
L 794 531 
z
" transform="scale(0.015625)"/>
       </defs>
       <use xlink:href="#DejaVuSans-14"/>
       <use xlink:href="#DejaVuSans-13" transform="translate(63.625 0)"/>
      </g>
     </g>
    </g>
    <g id="text_7">
     <!-- t [arb.] -->
     <g transform="translate(325.067578 250.918086) scale(0.1 -0.1)">
      <defs>
       <path id="DejaVuSans-57" d="M 1172 4494 
L 1172 3500 
L 2356 3500 
L 2356 3053 
L 1172 3053 
L 1172 1153 
Q 1172 725 1289 603 
Q 1406 481 1766 481 
L 2356 481 
L 2356 0 
L 1766 0 
Q 1100 0 847 248 
Q 594 497 594 1153 
L 594 3053 
L 172 3053 
L 172 3500 
L 594 3500 
L 594 4494 
L 1172 4494 
z
" transform="scale(0.015625)"/>
       <path id="DejaVuSans-3" transform="scale(0.015625)"/>
       <path id="DejaVuSans-3e" d="M 550 4863 
L 1875 4863 
L 1875 4416 
L 1125 4416 
L 1125 -397 
L 1875 -397 
L 1875 -844 
L 550 -844 
L 550 4863 
z
" transform="scale(0.015625)"/>
       <path id="DejaVuSans-44" d="M 2194 1759 
Q 1497 1759 1228 1600 
Q 959 1441 959 1056 
Q 959 750 1161 570 
Q 1363 391 1709 391 
Q 2188 391 2477 730 
Q 2766 1069 2766 1631 
L 2766 1759 
L 2194 1759 
z
M 3341 1997 
L 3341 0 
L 2766 0 
L 2766 531 
Q 2569 213 2275 61 
Q 1981 -91 1556 -91 
Q 1019 -91 701 211 
Q 384 513 384 1019 
Q 384 1609 779 1909 
Q 1175 2209 1959 2209 
L 2766 2209 
L 2766 2266 
Q 2766 2663 2505 2880 
Q 2244 3097 1772 3097 
Q 1472 3097 1187 3025 
Q 903 2953 641 2809 
L 641 3341 
Q 956 3463 1253 3523 
Q 1550 3584 1831 3584 
Q 2591 3584 2966 3190 
Q 3341 2797 3341 1997 
z
" transform="scale(0.015625)"/>
       <path id="DejaVuSans-55" d="M 2631 2963 
Q 2534 3019 2420 3045 
Q 2306 3072 2169 3072 
Q 1681 3072 1420 2755 
Q 1159 2438 1159 1844 
L 1159 0 
L 581 0 
L 581 3500 
L 1159 3500 
L 1159 2956 
Q 1341 3275 1631 3429 
Q 1922 3584 2338 3584 
Q 2397 3584 2469 3576 
Q 2541 3569 2628 3553 
L 2631 2963 
z
" transform="scale(0.015625)"/>
       <path id="DejaVuSans-45" d="M 3116 1747 
Q 3116 2381 2855 2742 
Q 2594 3103 2138 3103 
Q 1681 3103 1420 2742 
Q 1159 2381 1159 1747 
Q 1159 1113 1420 752 
Q 1681 391 2138 391 
Q 2594 391 2855 752 
Q 3116 1113 3116 1747 
z
M 1159 2969 
Q 1341 3281 1617 3432 
Q 1894 3584 2278 3584 
Q 2916 3584 3314 3078 
Q 3713 2572 3713 1747 
Q 3713 922 3314 415 
Q 2916 -91 2278 -91 
Q 1894 -91 1617 61 
Q 1341 213 1159 525 
L 1159 0 
L 581 0 
L 581 4863 
L 1159 4863 
L 1159 2969 
z
" transform="scale(0.015625)"/>
       <path id="DejaVuSans-11" d="M 684 794 
L 1344 794 
L 1344 0 
L 684 0 
L 684 794 
z
" transform="scale(0.015625)"/>
       <path id="DejaVuSans-40" d="M 1947 4863 
L 1947 -844 
L 622 -844 
L 622 -397 
L 1369 -397 
L 1369 4416 
L 622 4416 
L 622 4863 
L 1947 4863 
z
" transform="scale(0.015625)"/>
      </defs>
      <use xlink:href="#DejaVuSans-57"/>
      <use xlink:href="#DejaVuSans-3" transform="translate(39.203125 0)"/>
      <use xlink:href="#DejaVuSans-3e" transform="translate(70.984375 0)"/>
      <use xlink:href="#DejaVuSans-44" transform="translate(110 0)"/>
      <use xlink:href="#DejaVuSans-55" transform="translate(171.28125 0)"/>
      <use xlink:href="#DejaVuSans-45" transform="translate(212.390625 0)"/>
      <use xlink:href="#DejaVuSans-11" transform="translate(275.875 0)"/>
      <use xlink:href="#DejaVuSans-40" transform="translate(307.65625 0)"/>
     </g>
    </g>
   </g>
   <g id="matplotlib.axis_2">
    <g id="ytick_1">
     <g id="line2d_13">
      <path d="M 56.602344 217.614886 
L 628.2 217.614886 
" clip-path="url(#p8278f92772)" style="fill: none; stroke: #b0b0b0; stroke-opacity: 0.25; stroke-width: 0.8; stroke-linecap: square"/>
     </g>
     <g id="line2d_14">
      <defs>
       <path id="ma200c20bd5" d="M 0 0 
L -3.5 0 
" style="stroke: #000000; stroke-width: 0.8"/>
      </defs>
      <g>
       <use xlink:href="#ma200c20bd5" x="56.602344" y="217.614886" style="stroke: #000000; stroke-width: 0.8"/>
      </g>
     </g>
     <g id="text_8">
      <!-- −1.5 -->
      <g transform="translate(25.319531 221.413714) scale(0.1 -0.1)">
       <defs>
        <path id="DejaVuSans-c9c" d="M 678 2272 
L 4684 2272 
L 4684 1741 
L 678 1741 
L 678 2272 
z
" transform="scale(0.015625)"/>
        <path id="DejaVuSans-18" d="M 691 4666 
L 3169 4666 
L 3169 4134 
L 1269 4134 
L 1269 2991 
Q 1406 3038 1543 3061 
Q 1681 3084 1819 3084 
Q 2600 3084 3056 2656 
Q 3513 2228 3513 1497 
Q 3513 744 3044 326 
Q 2575 -91 1722 -91 
Q 1428 -91 1123 -41 
Q 819 9 494 109 
L 494 744 
Q 775 591 1075 516 
Q 1375 441 1709 441 
Q 2250 441 2565 725 
Q 2881 1009 2881 1497 
Q 2881 1984 2565 2268 
Q 2250 2553 1709 2553 
Q 1456 2553 1204 2497 
Q 953 2441 691 2322 
L 691 4666 
z
" transform="scale(0.015625)"/>
       </defs>
       <use xlink:href="#DejaVuSans-c9c"/>
       <use xlink:href="#DejaVuSans-14" transform="translate(83.796875 0)"/>
       <use xlink:href="#DejaVuSans-11" transform="translate(147.421875 0)"/>
       <use xlink:href="#DejaVuSans-18" transform="translate(179.203125 0)"/>
      </g>
     </g>
    </g>
    <g id="ytick_2">
     <g id="line2d_15">
      <path d="M 56.602344 189.078243 
L 628.2 189.078243 
" clip-path="url(#p8278f92772)" style="fill: none; stroke: #b0b0b0; stroke-opacity: 0.25; stroke-width: 0.8; stroke-linecap: square"/>
     </g>
     <g id="line2d_16">
      <g>
       <use xlink:href="#ma200c20bd5" x="56.602344" y="189.078243" style="stroke: #000000; stroke-width: 0.8"/>
      </g>
     </g>
     <g id="text_9">
      <!-- −1.0 -->
      <g transform="translate(25.319531 192.877071) scale(0.1 -0.1)">
       <use xlink:href="#DejaVuSans-c9c"/>
       <use xlink:href="#DejaVuSans-14" transform="translate(83.796875 0)"/>
       <use xlink:href="#DejaVuSans-11" transform="translate(147.421875 0)"/>
       <use xlink:href="#DejaVuSans-13" transform="translate(179.203125 0)"/>
      </g>
     </g>
    </g>
    <g id="ytick_3">
     <g id="line2d_17">
      <path d="M 56.602344 160.541599 
L 628.2 160.541599 
" clip-path="url(#p8278f92772)" style="fill: none; stroke: #b0b0b0; stroke-opacity: 0.25; stroke-width: 0.8; stroke-linecap: square"/>
     </g>
     <g id="line2d_18">
      <g>
       <use xlink:href="#ma200c20bd5" x="56.602344" y="160.541599" style="stroke: #000000; stroke-width: 0.8"/>
      </g>
     </g>
     <g id="text_10">
      <!-- −0.5 -->
      <g transform="translate(25.319531 164.340427) scale(0.1 -0.1)">
       <use xlink:href="#DejaVuSans-c9c"/>
       <use xlink:href="#DejaVuSans-13" transform="translate(83.796875 0)"/>
       <use xlink:href="#DejaVuSans-11" transform="translate(147.421875 0)"/>
       <use xlink:href="#DejaVuSans-18" transform="translate(179.203125 0)"/>
      </g>
     </g>
    </g>
    <g id="ytick_4">
     <g id="line2d_19">
      <path d="M 56.602344 132.004955 
L 628.2 132.004955 
" clip-path="url(#p8278f92772)" style="fill: none; stroke: #b0b0b0; stroke-opacity: 0.25; stroke-width: 0.8; stroke-linecap: square"/>
     </g>
     <g id="line2d_20">
      <g>
       <use xlink:href="#ma200c20bd5" x="56.602344" y="132.004955" style="stroke: #000000; stroke-width: 0.8"/>
      </g>
     </g>
     <g id="text_11">
      <!-- 0.0 -->
      <g transform="translate(33.699219 135.803783) scale(0.1 -0.1)">
       <use xlink:href="#DejaVuSans-13"/>
       <use xlink:href="#DejaVuSans-11" transform="translate(63.625 0)"/>
       <use xlink:href="#DejaVuSans-13" transform="translate(95.40625 0)"/>
      </g>
     </g>
    </g>
    <g id="ytick_5">
     <g id="line2d_21">
      <path d="M 56.602344 103.468312 
L 628.2 103.468312 
" clip-path="url(#p8278f92772)" style="fill: none; stroke: #b0b0b0; stroke-opacity: 0.25; stroke-width: 0.8; stroke-linecap: square"/>
     </g>
     <g id="line2d_22">
      <g>
       <use xlink:href="#ma200c20bd5" x="56.602344" y="103.468312" style="stroke: #000000; stroke-width: 0.8"/>
      </g>
     </g>
     <g id="text_12">
      <!-- 0.5 -->
      <g transform="translate(33.699219 107.26714) scale(0.1 -0.1)">
       <use xlink:href="#DejaVuSans-13"/>
       <use xlink:href="#DejaVuSans-11" transform="translate(63.625 0)"/>
       <use xlink:href="#DejaVuSans-18" transform="translate(95.40625 0)"/>
      </g>
     </g>
    </g>
    <g id="ytick_6">
     <g id="line2d_23">
      <path d="M 56.602344 74.931668 
L 628.2 74.931668 
" clip-path="url(#p8278f92772)" style="fill: none; stroke: #b0b0b0; stroke-opacity: 0.25; stroke-width: 0.8; stroke-linecap: square"/>
     </g>
     <g id="line2d_24">
      <g>
       <use xlink:href="#ma200c20bd5" x="56.602344" y="74.931668" style="stroke: #000000; stroke-width: 0.8"/>
      </g>
     </g>
     <g id="text_13">
      <!-- 1.0 -->
      <g transform="translate(33.699219 78.730496) scale(0.1 -0.1)">
       <use xlink:href="#DejaVuSans-14"/>
       <use xlink:href="#DejaVuSans-11" transform="translate(63.625 0)"/>
       <use xlink:href="#DejaVuSans-13" transform="translate(95.40625 0)"/>
      </g>
     </g>
    </g>
    <g id="ytick_7">
     <g id="line2d_25">
      <path d="M 56.602344 46.395024 
L 628.2 46.395024 
" clip-path="url(#p8278f92772)" style="fill: none; stroke: #b0b0b0; stroke-opacity: 0.25; stroke-width: 0.8; stroke-linecap: square"/>
     </g>
     <g id="line2d_26">
      <g>
       <use xlink:href="#ma200c20bd5" x="56.602344" y="46.395024" style="stroke: #000000; stroke-width: 0.8"/>
      </g>
     </g>
     <g id="text_14">
      <!-- 1.5 -->
      <g transform="translate(33.699219 50.193852) scale(0.1 -0.1)">
       <use xlink:href="#DejaVuSans-14"/>
       <use xlink:href="#DejaVuSans-11" transform="translate(63.625 0)"/>
       <use xlink:href="#DejaVuSans-18" transform="translate(95.40625 0)"/>
      </g>
     </g>
    </g>
    <g id="text_15">
     <!-- [arb.] -->
     <g transform="translate(18.917188 145.947363) rotate(-90) scale(0.1 -0.1)">
      <use xlink:href="#DejaVuSans-3e"/>
      <use xlink:href="#DejaVuSans-44" transform="translate(39.015625 0)"/>
      <use xlink:href="#DejaVuSans-55" transform="translate(100.296875 0)"/>
      <use xlink:href="#DejaVuSans-45" transform="translate(141.40625 0)"/>
      <use xlink:href="#DejaVuSans-11" transform="translate(204.890625 0)"/>
      <use xlink:href="#DejaVuSans-40" transform="translate(236.671875 0)"/>
     </g>
    </g>
   </g>
   <g id="line2d_27">
    <path d="M 82.584055 132.004955 
L 86.644689 100.669293 
L 88.801901 85.684037 
L 90.578428 74.828444 
L 92.101166 66.855577 
L 93.370114 61.284641 
L 94.512167 57.180103 
L 95.527326 54.297399 
L 96.415589 52.389441 
L 97.176958 51.221933 
L 97.811432 50.583922 
L 98.445906 50.253005 
L 98.953485 50.210257 
L 99.461065 50.364972 
L 100.095539 50.835437 
L 100.730013 51.612047 
L 101.491382 52.943886 
L 102.379645 55.039696 
L 103.394804 58.130291 
L 104.536857 62.457649 
L 105.805805 68.259251 
L 107.201648 75.746936 
L 108.85128 85.906611 
L 110.754702 99.069124 
L 113.292599 118.271118 
L 119.891129 169.06078 
L 121.921445 182.589619 
L 123.571078 192.169116 
L 124.966921 199.087568 
L 126.235869 204.318593 
L 127.377922 208.096524 
L 128.393081 210.675796 
L 129.281344 212.310523 
L 130.042713 213.239696 
L 130.677187 213.677165 
L 131.184766 213.805392 
L 131.692346 213.736139 
L 132.199925 213.469576 
L 132.834399 212.85993 
L 133.468873 211.945324 
L 134.230242 210.450189 
L 135.118505 208.168154 
L 136.133664 204.872067 
L 137.275717 200.325249 
L 138.544665 194.297487 
L 139.940508 186.586444 
L 141.59014 176.202496 
L 143.620457 161.908531 
L 146.412143 140.494482 
L 151.86862 98.330034 
L 154.025832 83.605643 
L 155.675464 73.734207 
L 157.198202 65.933285 
L 158.46715 60.521092 
L 159.609203 56.569334 
L 160.624361 53.828756 
L 161.512625 52.048917 
L 162.273994 50.993264 
L 162.908468 50.44944 
L 163.542942 50.213218 
L 164.050521 50.24635 
L 164.5581 50.47686 
L 165.192574 51.041665 
L 165.827049 51.911838 
L 166.588417 53.354429 
L 167.476681 55.576591 
L 168.491839 58.806676 
L 169.633893 63.283094 
L 170.902841 69.23842 
L 172.298684 76.878073 
L 173.948316 87.190564 
L 175.978633 101.41829 
L 178.770319 122.784562 
L 184.35369 165.925512 
L 186.510902 180.62146 
L 188.160534 190.464697 
L 189.683272 198.2353 
L 190.95222 203.619569 
L 192.094273 207.544498 
L 193.109432 210.260151 
L 193.997696 212.017547 
L 194.759064 213.053624 
L 195.393538 213.580977 
L 196.028012 213.800652 
L 196.535592 213.754267 
L 197.043171 213.510527 
L 197.677645 212.929264 
L 198.312119 212.042781 
L 199.073488 210.580898 
L 199.961751 208.336749 
L 200.97691 205.082417 
L 202.118963 200.580128 
L 203.387911 194.59817 
L 204.783754 186.932253 
L 206.433387 176.593448 
L 208.463704 162.341286 
L 211.255389 140.957284 
L 216.838761 97.839133 
L 218.869078 83.981669 
L 220.645605 73.356856 
L 222.168343 65.616655 
L 223.437291 60.260369 
L 224.579344 56.362313 
L 225.594502 53.671614 
L 226.482766 51.936679 
L 227.244135 50.920189 
L 227.878609 50.409313 
L 228.513083 50.206189 
L 229.020662 50.265826 
L 229.528241 50.522793 
L 230.162715 51.120507 
L 230.797189 52.023291 
L 231.558558 53.504449 
L 232.446822 55.770562 
L 233.46198 59.049104 
L 234.604034 63.577216 
L 235.872982 69.585741 
L 237.268825 77.277839 
L 238.918457 87.642846 
L 240.948774 101.919289 
L 243.74046 123.320788 
L 249.196936 165.501412 
L 251.354148 180.24634 
L 253.003781 190.138171 
L 254.526518 197.961039 
L 255.795466 203.393458 
L 256.93752 207.364656 
L 257.952678 210.123301 
L 258.840942 211.919413 
L 259.602311 212.989263 
L 260.236785 213.545035 
L 260.871259 213.793263 
L 261.378838 213.769747 
L 261.886417 213.548839 
L 262.520891 212.995979 
L 263.155365 212.137647 
L 263.916734 210.709064 
L 264.804998 208.502872 
L 265.820156 205.290402 
L 266.962209 200.832788 
L 268.231157 194.896827 
L 269.627 187.276283 
L 271.276633 176.982957 
L 273.30695 162.773058 
L 276.098635 141.419797 
L 281.682007 98.262598 
L 283.839219 83.545996 
L 285.488851 73.682286 
L 287.011589 65.889675 
L 288.280537 60.485138 
L 289.42259 56.540738 
L 290.437749 53.806996 
L 291.326012 52.033313 
L 292.087381 50.98303 
L 292.721855 50.443725 
L 293.356329 50.212043 
L 293.863908 50.248812 
L 294.371488 50.482952 
L 295.005962 51.052273 
L 295.640436 51.926923 
L 296.401804 53.374809 
L 297.290068 55.603006 
L 298.305227 58.839748 
L 299.44728 63.323269 
L 300.716228 69.285909 
L 302.112071 76.932777 
L 303.761703 87.252499 
L 305.79202 101.486946 
L 308.583706 122.858105 
L 314.167077 165.992846 
L 316.197394 179.869659 
L 317.973922 190.516443 
L 319.496659 198.278713 
L 320.765607 203.65531 
L 321.907661 207.572869 
L 322.922819 210.281678 
L 323.811083 212.032913 
L 324.572452 213.063617 
L 325.206926 213.586449 
L 325.8414 213.801582 
L 326.348979 213.751561 
L 326.856558 213.504192 
L 327.491032 212.918415 
L 328.125506 212.027458 
L 328.886875 210.560284 
L 329.775139 208.310106 
L 330.790297 205.049128 
L 331.93235 200.539749 
L 333.201298 194.550494 
L 334.597141 186.877385 
L 336.246774 176.53138 
L 338.277091 162.272539 
L 341.068776 140.883714 
L 346.652148 97.7719 
L 348.682465 83.921774 
L 350.458992 73.305285 
L 351.98173 65.57344 
L 353.250678 60.224843 
L 354.392731 56.334168 
L 355.40789 53.650321 
L 356.296153 51.921552 
L 357.057522 50.910439 
L 357.691996 50.404085 
L 358.32647 50.205503 
L 358.834049 50.268775 
L 359.341629 50.529371 
L 359.976103 51.131598 
L 360.610577 52.038853 
L 361.371945 53.525298 
L 362.260209 55.797432 
L 363.275368 59.082611 
L 364.417421 63.6178 
L 365.686369 69.633603 
L 367.082212 77.332871 
L 368.731844 87.705047 
L 370.762161 101.988126 
L 373.553847 123.394384 
L 379.010324 165.56892 
L 381.167535 180.306092 
L 382.817168 190.190218 
L 384.339905 198.004792 
L 385.608854 203.429566 
L 386.750907 207.393416 
L 387.766065 210.145231 
L 388.654329 211.93519 
L 389.415698 212.999672 
L 390.050172 213.550926 
L 390.684646 213.794615 
L 391.192225 213.767463 
L 391.699804 213.542924 
L 392.334278 212.985546 
L 392.968752 212.122736 
L 393.730121 210.688855 
L 394.618385 208.476623 
L 395.633543 205.257489 
L 396.775596 200.792761 
L 398.044545 194.849474 
L 399.440387 187.221699 
L 401.09002 176.921119 
L 403.120337 162.704469 
L 405.912023 141.346274 
L 411.495394 98.19519 
L 413.652606 83.486388 
L 415.302238 73.630414 
L 416.824976 65.846119 
L 418.093924 60.449243 
L 419.235977 56.512203 
L 420.251136 53.7853 
L 421.139399 52.017774 
L 421.900768 50.972863 
L 422.535242 50.438077 
L 423.169716 50.210935 
L 423.677295 50.25134 
L 424.184875 50.48911 
L 424.819349 51.062948 
L 425.453823 51.942073 
L 426.215192 53.395253 
L 427.103455 55.629483 
L 428.118614 58.872879 
L 429.260667 63.3635 
L 430.529615 69.333449 
L 431.925458 76.987526 
L 433.57509 87.314471 
L 435.605407 101.555626 
L 438.397093 122.931656 
L 443.980465 166.060153 
L 446.010781 179.929658 
L 447.787309 190.568141 
L 449.310046 198.322071 
L 450.578994 203.690991 
L 451.721048 207.601178 
L 452.736206 210.303141 
L 453.62447 212.048213 
L 454.385839 213.073543 
L 455.020313 213.591854 
L 455.654787 213.802446 
L 456.162366 213.748789 
L 456.669945 213.49779 
L 457.304419 212.907499 
L 457.938893 212.012069 
L 458.700262 210.539606 
L 459.588526 208.283401 
L 460.603684 205.015779 
L 461.745737 200.499313 
L 463.014686 194.502767 
L 464.410528 186.822472 
L 466.060161 176.469275 
L 468.090478 162.203768 
L 470.882164 140.810136 
L 476.33864 98.619575 
L 478.495852 83.861917 
L 480.272379 73.253761 
L 481.795117 65.53028 
L 483.064065 60.189375 
L 484.206118 56.306084 
L 485.221277 53.629091 
L 486.10954 51.906491 
L 486.870909 50.900755 
L 487.505383 50.398923 
L 488.139857 50.204883 
L 488.647436 50.271792 
L 489.155016 50.536016 
L 489.78949 51.142755 
L 490.423964 52.05448 
L 491.185333 53.54621 
L 492.073596 55.824365 
L 493.088755 59.116178 
L 494.230808 63.65844 
L 495.499756 69.681517 
L 496.895599 77.387947 
L 498.545231 87.767284 
L 500.575548 102.056987 
L 503.367234 123.467988 
L 508.823711 165.636401 
L 510.980922 180.365805 
L 512.630555 190.242216 
L 514.153293 198.048491 
L 515.422241 203.465616 
L 516.564294 207.422114 
L 517.579452 210.167096 
L 518.467716 211.950902 
L 519.229085 213.010015 
L 519.863559 213.556751 
L 520.498033 213.7959 
L 521.005612 213.765111 
L 521.513191 213.536942 
L 522.147665 212.975047 
L 522.782139 212.107759 
L 523.543508 210.668581 
L 524.431772 208.450311 
L 525.44693 205.224516 
L 526.588984 200.752679 
L 527.857932 194.80207 
L 529.253775 187.167069 
L 530.903407 176.859244 
L 532.933724 162.635854 
L 535.72541 141.272743 
L 541.308781 98.12781 
L 543.465993 83.42682 
L 545.115625 73.578589 
L 546.638363 65.802618 
L 547.907311 60.413406 
L 549.049364 56.48373 
L 550.064523 53.763667 
L 550.952786 52.002301 
L 551.714155 50.962761 
L 552.348629 50.432495 
L 552.983103 50.209894 
L 553.490683 50.253935 
L 553.998262 50.495336 
L 554.632736 51.073689 
L 555.26721 51.957288 
L 556.028579 53.415761 
L 556.916842 55.656024 
L 557.932001 58.90607 
L 559.074054 63.403788 
L 560.343002 69.381041 
L 561.738845 77.04232 
L 563.388478 87.376479 
L 565.418794 101.624332 
L 568.21048 123.005215 
L 573.793852 166.127432 
L 575.824169 179.989618 
L 577.600696 190.619792 
L 579.123434 198.365375 
L 580.392382 203.726614 
L 581.534435 207.629425 
L 582.549593 210.324539 
L 583.437857 212.063447 
L 584.199226 213.083402 
L 584.8337 213.597192 
L 585.468174 213.803243 
L 585.975753 213.74595 
L 586.483332 213.491322 
L 587.117806 212.896517 
L 587.75228 211.996615 
L 588.513649 210.518864 
L 589.401913 208.256633 
L 590.417071 204.98237 
L 591.559125 200.458821 
L 592.828073 194.454989 
L 594.223916 186.767514 
L 595.873548 176.407133 
L 597.903865 162.134972 
L 600.695551 140.736551 
L 602.218288 128.695044 
L 602.218288 128.695044 
" clip-path="url(#p8278f92772)" style="fill: none; stroke: #1f77b4; stroke-width: 1.5; stroke-linecap: square"/>
   </g>
   <g id="line2d_28">
    <path d="M 82.584055 132.004955 
L 86.644689 100.694845 
L 88.801901 85.742269 
L 90.578428 74.922351 
L 92.101166 66.985516 
L 93.370114 61.447857 
L 94.512167 57.375353 
L 95.527326 54.522453 
L 96.415589 52.641363 
L 97.176958 51.497312 
L 97.811432 50.879053 
L 98.445906 50.567994 
L 98.953485 50.541158 
L 99.461065 50.711767 
L 100.095539 51.202014 
L 100.730013 51.998241 
L 101.491382 53.353298 
L 102.379645 55.475593 
L 103.394804 58.595421 
L 104.536857 62.954008 
L 105.805805 68.7878 
L 107.201648 76.307287 
L 108.85128 86.498902 
L 110.754702 99.689674 
L 113.419493 119.905745 
L 119.764234 168.772794 
L 121.794551 182.372283 
L 123.444183 192.024579 
L 124.840026 199.013949 
L 126.108974 204.315708 
L 127.251027 208.161488 
L 128.266186 210.803708 
L 129.154449 212.495052 
L 129.915818 213.473563 
L 130.550292 213.952514 
L 131.057872 214.114051 
L 131.565451 214.078136 
L 132.07303 213.844854 
L 132.707504 213.276608 
L 133.341978 212.403035 
L 134.103347 210.956433 
L 134.991611 208.729717 
L 136.006769 205.494628 
L 137.148822 201.012898 
L 138.41777 195.052134 
L 139.813613 187.407155 
L 141.463246 177.089382 
L 143.493563 162.856836 
L 146.285248 141.487253 
L 151.86862 98.351661 
L 153.898937 84.473214 
L 155.675464 73.824472 
L 157.198202 66.060171 
L 158.46715 60.681665 
L 159.609203 56.76224 
L 160.624361 54.051675 
L 161.512625 52.298839 
L 162.273994 51.266725 
L 162.908468 50.742696 
L 163.542942 50.526351 
L 164.050521 50.575394 
L 164.5581 50.821781 
L 165.192574 51.406328 
L 165.827049 52.296054 
L 166.588417 53.761758 
L 167.476681 56.01024 
L 168.491839 59.269319 
L 169.633893 63.776632 
L 170.902841 69.763705 
L 172.298684 77.43459 
L 173.948316 87.778252 
L 175.978633 102.034709 
L 178.770319 123.421295 
L 184.35369 166.53264 
L 186.384007 180.383921 
L 188.160534 191.001947 
L 189.683272 198.735461 
L 190.95222 204.085667 
L 192.094273 207.977935 
L 193.109432 210.663297 
L 193.997696 212.393453 
L 194.759064 213.405795 
L 195.393538 213.913194 
L 196.028012 214.112835 
L 196.535592 214.050418 
L 197.043171 213.790682 
L 197.677645 213.189534 
L 198.312119 212.283356 
L 199.073488 210.798197 
L 199.961751 208.527544 
L 200.97691 205.244018 
L 202.118963 200.710619 
L 203.387911 194.696687 
L 204.783754 186.999304 
L 206.433387 176.629069 
L 208.463704 162.347876 
L 211.255389 140.943172 
L 216.711866 98.767816 
L 218.869078 84.028912 
L 220.51871 74.142972 
L 222.041448 66.326384 
L 223.310396 60.899712 
L 224.452449 56.934007 
L 225.467608 54.180444 
L 226.355871 52.38889 
L 227.11724 51.323002 
L 227.751714 50.770555 
L 228.386188 50.525657 
L 228.893767 50.551834 
L 229.401347 50.775393 
L 230.035821 51.331542 
L 230.670295 52.193124 
L 231.431664 53.625536 
L 232.319927 55.836073 
L 233.335086 59.053308 
L 234.477139 63.515968 
L 235.746087 69.457072 
L 237.14193 77.082619 
L 238.791562 87.380848 
L 240.821879 101.595104 
L 243.613565 122.951041 
L 249.196936 166.101616 
L 251.354148 180.811652 
L 253.003781 190.66906 
L 254.526518 198.455016 
L 255.795466 203.853496 
L 256.93752 207.792126 
L 257.952678 210.520542 
L 258.840942 212.289455 
L 259.602311 213.335595 
L 260.236785 213.871425 
L 260.871259 214.099627 
L 261.378838 214.060079 
L 261.886417 213.82317 
L 262.520891 213.250412 
L 263.155365 212.372367 
L 263.916734 210.920476 
L 264.804998 208.68773 
L 265.820156 205.445994 
L 266.962209 200.95717 
L 268.231157 194.989103 
L 269.627 187.336923 
L 271.276633 177.011935 
L 273.30695 162.772689 
L 276.098635 141.398249 
L 281.682007 98.268924 
L 283.712324 84.397794 
L 285.488851 73.757361 
L 287.011589 66.001408 
L 288.280537 60.630584 
L 289.42259 56.718538 
L 290.437749 54.014824 
L 291.326012 52.268155 
L 292.087381 51.24142 
L 292.721855 50.721915 
L 293.356329 50.510114 
L 293.863908 50.562797 
L 294.371488 50.812817 
L 295.005962 51.401881 
L 295.640436 52.296084 
L 296.401804 53.767082 
L 297.290068 56.021597 
L 298.305227 59.287326 
L 299.44728 63.801733 
L 300.716228 69.796106 
L 302.112071 77.474186 
L 303.761703 87.825052 
L 305.79202 102.088189 
L 308.583706 123.479603 
L 314.167077 166.584617 
L 316.197394 180.428564 
L 317.973922 191.03827 
L 319.496659 198.763432 
L 320.765607 204.105953 
L 321.907661 207.990845 
L 322.922819 210.669359 
L 323.811083 212.393354 
L 324.572452 213.400323 
L 325.206926 213.903203 
L 325.8414 214.098307 
L 326.348979 214.032257 
L 326.856558 213.768895 
L 327.491032 213.163238 
L 328.125506 212.252594 
L 328.886875 210.762155 
L 329.775139 208.485486 
L 330.790297 205.195331 
L 331.93235 200.654865 
L 333.201298 194.633667 
L 334.597141 186.929127 
L 336.246774 176.551738 
L 338.277091 162.263931 
L 341.068776 140.854496 
L 346.525253 98.685286 
L 348.682465 83.95416 
L 350.332097 74.075941 
L 351.854835 66.26766 
L 353.123783 60.848642 
L 354.265836 56.890295 
L 355.280995 54.143569 
L 356.169258 52.358173 
L 356.930627 51.297658 
L 357.565101 50.749733 
L 358.199575 50.509378 
L 358.707155 50.539195 
L 359.214734 50.766387 
L 359.849208 51.327057 
L 360.483682 52.193119 
L 361.245051 53.630833 
L 362.133314 55.847414 
L 363.148473 59.071316 
L 364.290526 63.541093 
L 365.559474 69.489527 
L 366.955317 77.122309 
L 368.604949 87.427795 
L 370.635266 101.648804 
L 373.426952 123.009678 
L 379.010324 166.154143 
L 381.167535 180.856383 
L 382.817168 190.706059 
L 384.339905 198.483703 
L 385.608854 203.874526 
L 386.750907 207.8058 
L 387.766065 210.527382 
L 388.654329 212.290142 
L 389.415698 213.330914 
L 390.050172 213.862229 
L 390.684646 214.085894 
L 391.192225 214.042712 
L 391.699804 213.802176 
L 392.334278 213.224906 
L 392.968752 212.34239 
L 393.730121 210.885211 
L 394.618385 208.646438 
L 395.633543 205.398056 
L 396.775596 200.902141 
L 398.044545 194.926777 
L 399.440387 187.267401 
L 401.09002 176.935206 
L 403.120337 162.689272 
L 405.912023 141.30999 
L 411.495394 98.186968 
L 413.525711 84.323164 
L 415.302238 73.691049 
L 416.824976 65.943448 
L 418.093924 60.580312 
L 419.235977 56.675646 
L 420.251136 53.978786 
L 421.139399 52.238286 
L 421.900768 51.216929 
L 422.535242 50.701949 
L 423.169716 50.494694 
L 423.677295 50.551015 
L 424.184875 50.804667 
L 424.819349 51.398248 
L 425.453823 52.296927 
L 426.215192 53.773217 
L 427.103455 56.033763 
L 428.118614 59.306139 
L 429.260667 63.827636 
L 430.529615 69.829304 
L 431.925458 77.514573 
L 433.57509 87.872633 
L 435.605407 102.142439 
L 438.397093 123.538662 
L 443.85357 165.722753 
L 446.010781 180.473909 
L 447.787309 191.075286 
L 449.310046 198.792089 
L 450.578994 204.126922 
L 451.721048 208.004434 
L 452.736206 210.676098 
L 453.62447 212.393928 
L 454.385839 213.395524 
L 455.020313 213.893885 
L 455.654787 214.084451 
L 456.162366 214.014768 
L 456.669945 213.74778 
L 457.304419 213.137615 
L 457.938893 212.222505 
L 458.700262 210.726786 
L 459.588526 208.444103 
L 460.603684 205.147322 
L 461.745737 200.599792 
L 463.014686 194.571331 
L 464.410528 186.859642 
L 466.060161 176.475107 
L 468.090478 162.180697 
L 470.882164 140.766548 
L 476.33864 98.603516 
L 478.495852 83.880179 
L 480.145484 74.009689 
L 481.668222 66.20972 
L 482.93717 60.798362 
L 484.079223 56.847375 
L 485.094382 54.107489 
L 485.982646 52.328252 
L 486.744014 51.273111 
L 487.378488 50.729707 
L 488.012962 50.493896 
L 488.520542 50.527352 
L 489.028121 50.758177 
L 489.662595 51.323367 
L 490.297069 52.19391 
L 491.058438 53.636924 
L 491.946701 55.859547 
L 492.96186 59.090112 
L 494.103913 63.567003 
L 495.372861 69.522762 
L 496.768704 77.162771 
L 498.418337 87.475505 
L 500.448653 101.703255 
L 503.240339 123.069049 
L 508.823711 166.207367 
L 510.980922 180.901797 
L 512.630555 190.743734 
L 514.153293 198.513058 
L 515.422241 203.89622 
L 516.564294 207.820134 
L 517.579452 210.53488 
L 518.467716 212.291484 
L 519.229085 213.326888 
L 519.863559 213.853687 
L 520.498033 214.072814 
L 521.005612 214.025999 
L 521.513191 213.781836 
L 522.147665 213.200055 
L 522.782139 212.313068 
L 523.543508 210.850601 
L 524.431772 208.605803 
L 525.44693 205.350778 
L 526.588984 200.847776 
L 527.857932 194.865118 
L 529.253775 187.198552 
L 530.903407 176.859158 
L 532.933724 162.606547 
L 535.72541 141.22244 
L 541.308781 98.105754 
L 543.339098 84.249288 
L 545.115625 73.625498 
L 546.638363 65.886257 
L 547.907311 60.530811 
L 549.049364 56.63353 
L 550.064523 53.943524 
L 550.952786 52.209195 
L 551.714155 51.193217 
L 552.348629 50.682762 
L 552.983103 50.480051 
L 553.490683 50.540011 
L 553.998262 50.797295 
L 554.632736 51.395393 
L 555.26721 52.298547 
L 556.028579 53.780128 
L 556.916842 56.046702 
L 557.932001 59.325723 
L 559.074054 63.854306 
L 560.343002 69.863262 
L 561.738845 77.555713 
L 563.388478 87.92096 
L 565.418794 102.197422 
L 568.21048 123.598435 
L 573.666957 165.776499 
L 575.824169 180.519921 
L 577.473801 190.41046 
L 578.996539 198.232054 
L 580.265487 203.663371 
L 581.40754 207.633559 
L 582.422699 210.391299 
L 583.310962 212.186621 
L 584.072331 213.2558 
L 584.706805 213.811018 
L 585.341279 214.058701 
L 585.848858 214.034755 
L 586.356438 213.813424 
L 586.990912 213.260046 
L 587.625386 212.40121 
L 588.386754 210.972043 
L 589.275018 208.765203 
L 590.290177 205.552038 
L 591.43223 201.09371 
L 592.701178 195.157048 
L 594.097021 187.535854 
L 595.746653 177.241936 
L 597.77697 163.031584 
L 600.568656 141.678213 
L 602.218288 128.636522 
L 602.218288 128.636522 
" clip-path="url(#p8278f92772)" style="fill: none; stroke: #ff7f0e; stroke-width: 1.5; stroke-linecap: square"/>
   </g>
   <g id="patch_3">
    <path d="M 56.602344 222.319648 
L 56.602344 42.006328 
" style="fill: none; stroke: #000000; stroke-width: 0.8; stroke-linejoin: miter; stroke-linecap: square"/>
   </g>
   <g id="patch_4">
    <path d="M 628.2 222.319648 
L 628.2 42.006328 
" style="fill: none; stroke: #000000; stroke-width: 0.8; stroke-linejoin: miter; stroke-linecap: square"/>
   </g>
   <g id="patch_5">
    <path d="M 56.602344 222.319648 
L 628.2 222.319648 
" style="fill: none; stroke: #000000; stroke-width: 0.8; stroke-linejoin: miter; stroke-linecap: square"/>
   </g>
   <g id="patch_6">
    <path d="M 56.602344 42.006328 
L 628.2 42.006328 
" style="fill: none; stroke: #000000; stroke-width: 0.8; stroke-linejoin: miter; stroke-linecap: square"/>
   </g>
   <g id="text_16">
    <!-- Daily Useless RC (2026-06-27) | verdict: feral -->
    <g transform="translate(206.959609 21.550547) scale(0.12 -0.12)">
     <defs>
      <path id="DejaVuSans-27" d="M 1259 4147 
L 1259 519 
L 2022 519 
Q 2988 519 3436 956 
Q 3884 1394 3884 2338 
Q 3884 3275 3436 3711 
Q 2988 4147 2022 4147 
L 1259 4147 
z
M 628 4666 
L 1925 4666 
Q 3281 4666 3915 4102 
Q 4550 3538 4550 2338 
Q 4550 1131 3912 565 
Q 3275 0 1925 0 
L 628 0 
L 628 4666 
z
" transform="scale(0.015625)"/>
      <path id="DejaVuSans-4c" d="M 603 3500 
L 1178 3500 
L 1178 0 
L 603 0 
L 603 3500 
z
M 603 4863 
L 1178 4863 
L 1178 4134 
L 603 4134 
L 603 4863 
z
" transform="scale(0.015625)"/>
      <path id="DejaVuSans-4f" d="M 603 4863 
L 1178 4863 
L 1178 0 
L 603 0 
L 603 4863 
z
" transform="scale(0.015625)"/>
      <path id="DejaVuSans-5c" d="M 2059 -325 
Q 1816 -950 1584 -1140 
Q 1353 -1331 966 -1331 
L 506 -1331 
L 506 -850 
L 844 -850 
Q 1081 -850 1212 -737 
Q 1344 -625 1503 -206 
L 1606 56 
L 191 3500 
L 800 3500 
L 1894 763 
L 2988 3500 
L 3597 3500 
L 2059 -325 
z
" transform="scale(0.015625)"/>
      <path id="DejaVuSans-38" d="M 556 4666 
L 1191 4666 
L 1191 1831 
Q 1191 1081 1462 751 
Q 1734 422 2344 422 
Q 2950 422 3222 751 
Q 3494 1081 3494 1831 
L 3494 4666 
L 4128 4666 
L 4128 1753 
Q 4128 841 3676 375 
Q 3225 -91 2344 -91 
Q 1459 -91 1007 375 
Q 556 841 556 1753 
L 556 4666 
z
" transform="scale(0.015625)"/>
      <path id="DejaVuSans-56" d="M 2834 3397 
L 2834 2853 
Q 2591 2978 2328 3040 
Q 2066 3103 1784 3103 
Q 1356 3103 1142 2972 
Q 928 2841 928 2578 
Q 928 2378 1081 2264 
Q 1234 2150 1697 2047 
L 1894 2003 
Q 2506 1872 2764 1633 
Q 3022 1394 3022 966 
Q 3022 478 2636 193 
Q 2250 -91 1575 -91 
Q 1294 -91 989 -36 
Q 684 19 347 128 
L 347 722 
Q 666 556 975 473 
Q 1284 391 1588 391 
Q 1994 391 2212 530 
Q 2431 669 2431 922 
Q 2431 1156 2273 1281 
Q 2116 1406 1581 1522 
L 1381 1569 
Q 847 1681 609 1914 
Q 372 2147 372 2553 
Q 372 3047 722 3315 
Q 1072 3584 1716 3584 
Q 2034 3584 2315 3537 
Q 2597 3491 2834 3397 
z
" transform="scale(0.015625)"/>
      <path id="DejaVuSans-48" d="M 3597 1894 
L 3597 1613 
L 953 1613 
Q 991 1019 1311 708 
Q 1631 397 2203 397 
Q 2534 397 2845 478 
Q 3156 559 3463 722 
L 3463 178 
Q 3153 47 2828 -22 
Q 2503 -91 2169 -91 
Q 1331 -91 842 396 
Q 353 884 353 1716 
Q 353 2575 817 3079 
Q 1281 3584 2069 3584 
Q 2775 3584 3186 3129 
Q 3597 2675 3597 1894 
z
M 3022 2063 
Q 3016 2534 2758 2815 
Q 2500 3097 2075 3097 
Q 1594 3097 1305 2825 
Q 1016 2553 972 2059 
L 3022 2063 
z
" transform="scale(0.015625)"/>
      <path id="DejaVuSans-35" d="M 2841 2188 
Q 3044 2119 3236 1894 
Q 3428 1669 3622 1275 
L 4263 0 
L 3584 0 
L 2988 1197 
Q 2756 1666 2539 1819 
Q 2322 1972 1947 1972 
L 1259 1972 
L 1259 0 
L 628 0 
L 628 4666 
L 2053 4666 
Q 2853 4666 3247 4331 
Q 3641 3997 3641 3322 
Q 3641 2881 3436 2590 
Q 3231 2300 2841 2188 
z
M 1259 4147 
L 1259 2491 
L 2053 2491 
Q 2509 2491 2742 2702 
Q 2975 2913 2975 3322 
Q 2975 3731 2742 3939 
Q 2509 4147 2053 4147 
L 1259 4147 
z
" transform="scale(0.015625)"/>
      <path id="DejaVuSans-26" d="M 4122 4306 
L 4122 3641 
Q 3803 3938 3442 4084 
Q 3081 4231 2675 4231 
Q 1875 4231 1450 3742 
Q 1025 3253 1025 2328 
Q 1025 1406 1450 917 
Q 1875 428 2675 428 
Q 3081 428 3442 575 
Q 3803 722 4122 1019 
L 4122 359 
Q 3791 134 3420 21 
Q 3050 -91 2638 -91 
Q 1578 -91 968 557 
Q 359 1206 359 2328 
Q 359 3453 968 4101 
Q 1578 4750 2638 4750 
Q 3056 4750 3426 4639 
Q 3797 4528 4122 4306 
z
" transform="scale(0.015625)"/>
      <path id="DejaVuSans-b" d="M 1984 4856 
Q 1566 4138 1362 3434 
Q 1159 2731 1159 2009 
Q 1159 1288 1364 580 
Q 1569 -128 1984 -844 
L 1484 -844 
Q 1016 -109 783 600 
Q 550 1309 550 2009 
Q 550 2706 781 3412 
Q 1013 4119 1484 4856 
L 1984 4856 
z
" transform="scale(0.015625)"/>
      <path id="DejaVuSans-10" d="M 313 2009 
L 1997 2009 
L 1997 1497 
L 313 1497 
L 313 2009 
z
" transform="scale(0.015625)"/>
      <path id="DejaVuSans-1a" d="M 525 4666 
L 3525 4666 
L 3525 4397 
L 1831 0 
L 1172 0 
L 2766 4134 
L 525 4134 
L 525 4666 
z
" transform="scale(0.015625)"/>
      <path id="DejaVuSans-c" d="M 513 4856 
L 1013 4856 
Q 1481 4119 1714 3412 
Q 1947 2706 1947 2009 
Q 1947 1309 1714 600 
Q 1481 -109 1013 -844 
L 513 -844 
Q 928 -128 1133 580 
Q 1338 1288 1338 2009 
Q 1338 2731 1133 3434 
Q 928 4138 513 4856 
z
" transform="scale(0.015625)"/>
      <path id="DejaVuSans-5f" d="M 1344 4891 
L 1344 -1509 
L 813 -1509 
L 813 4891 
L 1344 4891 
z
" transform="scale(0.015625)"/>
      <path id="DejaVuSans-59" d="M 191 3500 
L 800 3500 
L 1894 563 
L 2988 3500 
L 3597 3500 
L 2284 0 
L 1503 0 
L 191 3500 
z
" transform="scale(0.015625)"/>
      <path id="DejaVuSans-47" d="M 2906 2969 
L 2906 4863 
L 3481 4863 
L 3481 0 
L 2906 0 
L 2906 525 
Q 2725 213 2448 61 
Q 2172 -91 1784 -91 
Q 1150 -91 751 415 
Q 353 922 353 1747 
Q 353 2572 751 3078 
Q 1150 3584 1784 3584 
Q 2172 3584 2448 3432 
Q 2725 3281 2906 2969 
z
M 947 1747 
Q 947 1113 1208 752 
Q 1469 391 1925 391 
Q 2381 391 2643 752 
Q 2906 1113 2906 1747 
Q 2906 2381 2643 2742 
Q 2381 3103 1925 3103 
Q 1469 3103 1208 2742 
Q 947 2381 947 1747 
z
" transform="scale(0.015625)"/>
      <path id="DejaVuSans-46" d="M 3122 3366 
L 3122 2828 
Q 2878 2963 2633 3030 
Q 2388 3097 2138 3097 
Q 1578 3097 1268 2742 
Q 959 2388 959 1747 
Q 959 1106 1268 751 
Q 1578 397 2138 397 
Q 2388 397 2633 464 
Q 2878 531 3122 666 
L 3122 134 
Q 2881 22 2623 -34 
Q 2366 -91 2075 -91 
Q 1284 -91 818 406 
Q 353 903 353 1747 
Q 353 2603 823 3093 
Q 1294 3584 2113 3584 
Q 2378 3584 2631 3529 
Q 2884 3475 3122 3366 
z
" transform="scale(0.015625)"/>
      <path id="DejaVuSans-1d" d="M 750 794 
L 1409 794 
L 1409 0 
L 750 0 
L 750 794 
z
M 750 3309 
L 1409 3309 
L 1409 2516 
L 750 2516 
L 750 3309 
z
" transform="scale(0.015625)"/>
      <path id="DejaVuSans-49" d="M 2375 4863 
L 2375 4384 
L 1825 4384 
Q 1516 4384 1395 4259 
Q 1275 4134 1275 3809 
L 1275 3500 
L 2222 3500 
L 2222 3053 
L 1275 3053 
L 1275 0 
L 697 0 
L 697 3053 
L 147 3053 
L 147 3500 
L 697 3500 
L 697 3744 
Q 697 4328 969 4595 
Q 1241 4863 1831 4863 
L 2375 4863 
z
" transform="scale(0.015625)"/>
     </defs>
     <use xlink:href="#DejaVuSans-27"/>
     <use xlink:href="#DejaVuSans-44" transform="translate(77 0)"/>
     <use xlink:href="#DejaVuSans-4c" transform="translate(138.28125 0)"/>
     <use xlink:href="#DejaVuSans-4f" transform="translate(166.0625 0)"/>
     <use xlink:href="#DejaVuSans-5c" transform="translate(193.84375 0)"/>
     <use xlink:href="#DejaVuSans-3" transform="translate(253.03125 0)"/>
     <use xlink:href="#DejaVuSans-38" transform="translate(284.8125 0)"/>
     <use xlink:href="#DejaVuSans-56" transform="translate(358 0)"/>
     <use xlink:href="#DejaVuSans-48" transform="translate(410.09375 0)"/>
     <use xlink:href="#DejaVuSans-4f" transform="translate(471.625 0)"/>
     <use xlink:href="#DejaVuSans-48" transform="translate(499.40625 0)"/>
     <use xlink:href="#DejaVuSans-56" transform="translate(560.9375 0)"/>
     <use xlink:href="#DejaVuSans-56" transform="translate(613.03125 0)"/>
     <use xlink:href="#DejaVuSans-3" transform="translate(665.125 0)"/>
     <use xlink:href="#DejaVuSans-35" transform="translate(696.90625 0)"/>
     <use xlink:href="#DejaVuSans-26" transform="translate(761.40625 0)"/>
     <use xlink:href="#DejaVuSans-3" transform="translate(831.234375 0)"/>
     <use xlink:href="#DejaVuSans-b" transform="translate(863.015625 0)"/>
     <use xlink:href="#DejaVuSans-15" transform="translate(902.03125 0)"/>
     <use xlink:href="#DejaVuSans-13" transform="translate(965.65625 0)"/>
     <use xlink:href="#DejaVuSans-15" transform="translate(1029.28125 0)"/>
     <use xlink:href="#DejaVuSans-19" transform="translate(1092.90625 0)"/>
     <use xlink:href="#DejaVuSans-10" transform="translate(1156.53125 0)"/>
     <use xlink:href="#DejaVuSans-13" transform="translate(1192.609375 0)"/>
     <use xlink:href="#DejaVuSans-19" transform="translate(1256.234375 0)"/>
     <use xlink:href="#DejaVuSans-10" transform="translate(1319.859375 0)"/>
     <use xlink:href="#DejaVuSans-15" transform="translate(1355.9375 0)"/>
     <use xlink:href="#DejaVuSans-1a" transform="translate(1419.5625 0)"/>
     <use xlink:href="#DejaVuSans-c" transform="translate(1483.1875 0)"/>
     <use xlink:href="#DejaVuSans-3" transform="translate(1522.203125 0)"/>
     <use xlink:href="#DejaVuSans-5f" transform="translate(1553.984375 0)"/>
     <use xlink:href="#DejaVuSans-3" transform="translate(1587.671875 0)"/>
     <use xlink:href="#DejaVuSans-59" transform="translate(1619.453125 0)"/>
     <use xlink:href="#DejaVuSans-48" transform="translate(1678.640625 0)"/>
     <use xlink:href="#DejaVuSans-55" transform="translate(1740.171875 0)"/>
     <use xlink:href="#DejaVuSans-47" transform="translate(1779.53125 0)"/>
     <use xlink:href="#DejaVuSans-4c" transform="translate(1843.015625 0)"/>
     <use xlink:href="#DejaVuSans-46" transform="translate(1870.796875 0)"/>
     <use xlink:href="#DejaVuSans-57" transform="translate(1925.78125 0)"/>
     <use xlink:href="#DejaVuSans-1d" transform="translate(1964.984375 0)"/>
     <use xlink:href="#DejaVuSans-3" transform="translate(1998.671875 0)"/>
     <use xlink:href="#DejaVuSans-49" transform="translate(2030.453125 0)"/>
     <use xlink:href="#DejaVuSans-48" transform="translate(2065.65625 0)"/>
     <use xlink:href="#DejaVuSans-55" transform="translate(2127.1875 0)"/>
     <use xlink:href="#DejaVuSans-44" transform="translate(2168.296875 0)"/>
     <use xlink:href="#DejaVuSans-4f" transform="translate(2229.578125 0)"/>
    </g>
    <!-- Filter: high | Input: sine, sine (A=1.43, f=0.80 Hz) | R=10.00, C=5.00, τ=50.00 -->
    <g transform="translate(105.760234 36.006328) scale(0.12 -0.12)">
     <defs>
      <path id="DejaVuSans-29" d="M 628 4666 
L 3309 4666 
L 3309 4134 
L 1259 4134 
L 1259 2759 
L 3109 2759 
L 3109 2228 
L 1259 2228 
L 1259 0 
L 628 0 
L 628 4666 
z
" transform="scale(0.015625)"/>
      <path id="DejaVuSans-4b" d="M 3513 2113 
L 3513 0 
L 2938 0 
L 2938 2094 
Q 2938 2591 2744 2837 
Q 2550 3084 2163 3084 
Q 1697 3084 1428 2787 
Q 1159 2491 1159 1978 
L 1159 0 
L 581 0 
L 581 4863 
L 1159 4863 
L 1159 2956 
Q 1366 3272 1645 3428 
Q 1925 3584 2291 3584 
Q 2894 3584 3203 3211 
Q 3513 2838 3513 2113 
z
" transform="scale(0.015625)"/>
      <path id="DejaVuSans-4a" d="M 2906 1791 
Q 2906 2416 2648 2759 
Q 2391 3103 1925 3103 
Q 1463 3103 1205 2759 
Q 947 2416 947 1791 
Q 947 1169 1205 825 
Q 1463 481 1925 481 
Q 2391 481 2648 825 
Q 2906 1169 2906 1791 
z
M 3481 434 
Q 3481 -459 3084 -895 
Q 2688 -1331 1869 -1331 
Q 1566 -1331 1297 -1286 
Q 1028 -1241 775 -1147 
L 775 -588 
Q 1028 -725 1275 -790 
Q 1522 -856 1778 -856 
Q 2344 -856 2625 -561 
Q 2906 -266 2906 331 
L 2906 616 
Q 2728 306 2450 153 
Q 2172 0 1784 0 
Q 1141 0 747 490 
Q 353 981 353 1791 
Q 353 2603 747 3093 
Q 1141 3584 1784 3584 
Q 2172 3584 2450 3431 
Q 2728 3278 2906 2969 
L 2906 3500 
L 3481 3500 
L 3481 434 
z
" transform="scale(0.015625)"/>
      <path id="DejaVuSans-2c" d="M 628 4666 
L 1259 4666 
L 1259 0 
L 628 0 
L 628 4666 
z
" transform="scale(0.015625)"/>
      <path id="DejaVuSans-51" d="M 3513 2113 
L 3513 0 
L 2938 0 
L 2938 2094 
Q 2938 2591 2744 2837 
Q 2550 3084 2163 3084 
Q 1697 3084 1428 2787 
Q 1159 2491 1159 1978 
L 1159 0 
L 581 0 
L 581 3500 
L 1159 3500 
L 1159 2956 
Q 1366 3272 1645 3428 
Q 1925 3584 2291 3584 
Q 2894 3584 3203 3211 
Q 3513 2838 3513 2113 
z
" transform="scale(0.015625)"/>
      <path id="DejaVuSans-53" d="M 1159 525 
L 1159 -1331 
L 581 -1331 
L 581 3500 
L 1159 3500 
L 1159 2969 
Q 1341 3281 1617 3432 
Q 1894 3584 2278 3584 
Q 2916 3584 3314 3078 
Q 3713 2572 3713 1747 
Q 3713 922 3314 415 
Q 2916 -91 2278 -91 
Q 1894 -91 1617 61 
Q 1341 213 1159 525 
z
M 3116 1747 
Q 3116 2381 2855 2742 
Q 2594 3103 2138 3103 
Q 1681 3103 1420 2742 
Q 1159 2381 1159 1747 
Q 1159 1113 1420 752 
Q 1681 391 2138 391 
Q 2594 391 2855 752 
Q 3116 1113 3116 1747 
z
" transform="scale(0.015625)"/>
      <path id="DejaVuSans-58" d="M 544 1381 
L 544 3500 
L 1119 3500 
L 1119 1403 
Q 1119 906 1312 657 
Q 1506 409 1894 409 
Q 2359 409 2629 706 
Q 2900 1003 2900 1516 
L 2900 3500 
L 3475 3500 
L 3475 0 
L 2900 0 
L 2900 538 
Q 2691 219 2414 64 
Q 2138 -91 1772 -91 
Q 1169 -91 856 284 
Q 544 659 544 1381 
z
M 1991 3584 
L 1991 3584 
z
" transform="scale(0.015625)"/>
      <path id="DejaVuSans-f" d="M 750 794 
L 1409 794 
L 1409 256 
L 897 -744 
L 494 -744 
L 750 256 
L 750 794 
z
" transform="scale(0.015625)"/>
      <path id="DejaVuSans-24" d="M 2188 4044 
L 1331 1722 
L 3047 1722 
L 2188 4044 
z
M 1831 4666 
L 2547 4666 
L 4325 0 
L 3669 0 
L 3244 1197 
L 1141 1197 
L 716 0 
L 50 0 
L 1831 4666 
z
" transform="scale(0.015625)"/>
      <path id="DejaVuSans-20" d="M 678 2906 
L 4684 2906 
L 4684 2381 
L 678 2381 
L 678 2906 
z
M 678 1631 
L 4684 1631 
L 4684 1100 
L 678 1100 
L 678 1631 
z
" transform="scale(0.015625)"/>
      <path id="DejaVuSans-16" d="M 2597 2516 
Q 3050 2419 3304 2112 
Q 3559 1806 3559 1356 
Q 3559 666 3084 287 
Q 2609 -91 1734 -91 
Q 1441 -91 1130 -33 
Q 819 25 488 141 
L 488 750 
Q 750 597 1062 519 
Q 1375 441 1716 441 
Q 2309 441 2620 675 
Q 2931 909 2931 1356 
Q 2931 1769 2642 2001 
Q 2353 2234 1838 2234 
L 1294 2234 
L 1294 2753 
L 1863 2753 
Q 2328 2753 2575 2939 
Q 2822 3125 2822 3475 
Q 2822 3834 2567 4026 
Q 2313 4219 1838 4219 
Q 1578 4219 1281 4162 
Q 984 4106 628 3988 
L 628 4550 
Q 988 4650 1302 4700 
Q 1616 4750 1894 4750 
Q 2613 4750 3031 4423 
Q 3450 4097 3450 3541 
Q 3450 3153 3228 2886 
Q 3006 2619 2597 2516 
z
" transform="scale(0.015625)"/>
      <path id="DejaVuSans-2b" d="M 628 4666 
L 1259 4666 
L 1259 2753 
L 3553 2753 
L 3553 4666 
L 4184 4666 
L 4184 0 
L 3553 0 
L 3553 2222 
L 1259 2222 
L 1259 0 
L 628 0 
L 628 4666 
z
" transform="scale(0.015625)"/>
      <path id="DejaVuSans-5d" d="M 353 3500 
L 3084 3500 
L 3084 2975 
L 922 459 
L 3084 459 
L 3084 0 
L 275 0 
L 275 525 
L 2438 3041 
L 353 3041 
L 353 3500 
z
" transform="scale(0.015625)"/>
      <path id="DejaVuSans-358" d="M 2319 638 
Q 2431 488 2769 488 
L 3047 488 
L 3047 0 
L 2700 0 
Q 2138 0 1881 300 
Q 1625 606 1625 1269 
L 1625 2925 
L 313 2925 
L 313 3500 
L 3541 3500 
L 3541 2925 
L 2213 2925 
L 2213 1234 
Q 2213 781 2319 638 
z
" transform="scale(0.015625)"/>
     </defs>
     <use xlink:href="#DejaVuSans-29"/>
     <use xlink:href="#DejaVuSans-4c" transform="translate(50.234375 0)"/>
     <use xlink:href="#DejaVuSans-4f" transform="translate(78.015625 0)"/>
     <use xlink:href="#DejaVuSans-57" transform="translate(105.796875 0)"/>
     <use xlink:href="#DejaVuSans-48" transform="translate(145 0)"/>
     <use xlink:href="#DejaVuSans-55" transform="translate(206.53125 0)"/>
     <use xlink:href="#DejaVuSans-1d" transform="translate(245.890625 0)"/>
     <use xlink:href="#DejaVuSans-3" transform="translate(279.578125 0)"/>
     <use xlink:href="#DejaVuSans-4b" transform="translate(311.359375 0)"/>
     <use xlink:href="#DejaVuSans-4c" transform="translate(374.734375 0)"/>
     <use xlink:href="#DejaVuSans-4a" transform="translate(402.515625 0)"/>
     <use xlink:href="#DejaVuSans-4b" transform="translate(466 0)"/>
     <use xlink:href="#DejaVuSans-3" transform="translate(529.375 0)"/>
     <use xlink:href="#DejaVuSans-5f" transform="translate(561.15625 0)"/>
     <use xlink:href="#DejaVuSans-3" transform="translate(594.84375 0)"/>
     <use xlink:href="#DejaVuSans-2c" transform="translate(626.625 0)"/>
     <use xlink:href="#DejaVuSans-51" transform="translate(656.125 0)"/>
     <use xlink:href="#DejaVuSans-53" transform="translate(719.5 0)"/>
     <use xlink:href="#DejaVuSans-58" transform="translate(782.984375 0)"/>
     <use xlink:href="#DejaVuSans-57" transform="translate(846.359375 0)"/>
     <use xlink:href="#DejaVuSans-1d" transform="translate(885.5625 0)"/>
     <use xlink:href="#DejaVuSans-3" transform="translate(919.25 0)"/>
     <use xlink:href="#DejaVuSans-56" transform="translate(951.03125 0)"/>
     <use xlink:href="#DejaVuSans-4c" transform="translate(1003.125 0)"/>
     <use xlink:href="#DejaVuSans-51" transform="translate(1030.90625 0)"/>
     <use xlink:href="#DejaVuSans-48" transform="translate(1094.28125 0)"/>
     <use xlink:href="#DejaVuSans-f" transform="translate(1155.8125 0)"/>
     <use xlink:href="#DejaVuSans-3" transform="translate(1187.59375 0)"/>
     <use xlink:href="#DejaVuSans-56" transform="translate(1219.375 0)"/>
     <use xlink:href="#DejaVuSans-4c" transform="translate(1271.46875 0)"/>
     <use xlink:href="#DejaVuSans-51" transform="translate(1299.25 0)"/>
     <use xlink:href="#DejaVuSans-48" transform="translate(1362.625 0)"/>
     <use xlink:href="#DejaVuSans-3" transform="translate(1424.15625 0)"/>
     <use xlink:href="#DejaVuSans-b" transform="translate(1455.9375 0)"/>
     <use xlink:href="#DejaVuSans-24" transform="translate(1494.953125 0)"/>
     <use xlink:href="#DejaVuSans-20" transform="translate(1563.359375 0)"/>
     <use xlink:href="#DejaVuSans-14" transform="translate(1647.15625 0)"/>
     <use xlink:href="#DejaVuSans-11" transform="translate(1710.78125 0)"/>
     <use xlink:href="#DejaVuSans-17" transform="translate(1742.5625 0)"/>
     <use xlink:href="#DejaVuSans-16" transform="translate(1806.1875 0)"/>
     <use xlink:href="#DejaVuSans-f" transform="translate(1869.8125 0)"/>
     <use xlink:href="#DejaVuSans-3" transform="translate(1901.59375 0)"/>
     <use xlink:href="#DejaVuSans-49" transform="translate(1933.375 0)"/>
     <use xlink:href="#DejaVuSans-20" transform="translate(1968.578125 0)"/>
     <use xlink:href="#DejaVuSans-13" transform="translate(2052.375 0)"/>
     <use xlink:href="#DejaVuSans-11" transform="translate(2116 0)"/>
     <use xlink:href="#DejaVuSans-1b" transform="translate(2147.78125 0)"/>
     <use xlink:href="#DejaVuSans-13" transform="translate(2211.40625 0)"/>
     <use xlink:href="#DejaVuSans-3" transform="translate(2275.03125 0)"/>
     <use xlink:href="#DejaVuSans-2b" transform="translate(2306.8125 0)"/>
     <use xlink:href="#DejaVuSans-5d" transform="translate(2382.015625 0)"/>
     <use xlink:href="#DejaVuSans-c" transform="translate(2434.5 0)"/>
     <use xlink:href="#DejaVuSans-3" transform="translate(2473.515625 0)"/>
     <use xlink:href="#DejaVuSans-5f" transform="translate(2505.296875 0)"/>
     <use xlink:href="#DejaVuSans-3" transform="translate(2538.984375 0)"/>
     <use xlink:href="#DejaVuSans-35" transform="translate(2570.765625 0)"/>
     <use xlink:href="#DejaVuSans-20" transform="translate(2640.25 0)"/>
     <use xlink:href="#DejaVuSans-14" transform="translate(2724.046875 0)"/>
     <use xlink:href="#DejaVuSans-13" transform="translate(2787.671875 0)"/>
     <use xlink:href="#DejaVuSans-11" transform="translate(2851.296875 0)"/>
     <use xlink:href="#DejaVuSans-13" transform="translate(2883.078125 0)"/>
     <use xlink:href="#DejaVuSans-13" transform="translate(2946.703125 0)"/>
     <use xlink:href="#DejaVuSans-f" transform="translate(3010.328125 0)"/>
     <use xlink:href="#DejaVuSans-3" transform="translate(3042.109375 0)"/>
     <use xlink:href="#DejaVuSans-26" transform="translate(3073.890625 0)"/>
     <use xlink:href="#DejaVuSans-20" transform="translate(3143.71875 0)"/>
     <use xlink:href="#DejaVuSans-18" transform="translate(3227.515625 0)"/>
     <use xlink:href="#DejaVuSans-11" transform="translate(3291.140625 0)"/>
     <use xlink:href="#DejaVuSans-13" transform="translate(3322.921875 0)"/>
     <use xlink:href="#DejaVuSans-13" transform="translate(3386.546875 0)"/>
     <use xlink:href="#DejaVuSans-f" transform="translate(3450.171875 0)"/>
     <use xlink:href="#DejaVuSans-3" transform="translate(3481.953125 0)"/>
     <use xlink:href="#DejaVuSans-358" transform="translate(3513.734375 0)"/>
     <use xlink:href="#DejaVuSans-20" transform="translate(3573.9375 0)"/>
     <use xlink:href="#DejaVuSans-18" transform="translate(3657.734375 0)"/>
     <use xlink:href="#DejaVuSans-13" transform="translate(3721.359375 0)"/>
     <use xlink:href="#DejaVuSans-11" transform="translate(3784.984375 0)"/>
     <use xlink:href="#DejaVuSans-13" transform="translate(3816.765625 0)"/>
     <use xlink:href="#DejaVuSans-13" transform="translate(3880.390625 0)"/>
    </g>
   </g>
   <g id="legend_1">
    <g id="patch_7">
     <path d="M 63.602344 148.66377 
L 128.585156 148.66377 
Q 130.585156 148.66377 130.585156 146.66377 
L 130.585156 117.662207 
Q 130.585156 115.662207 128.585156 115.662207 
L 63.602344 115.662207 
Q 61.602344 115.662207 61.602344 117.662207 
L 61.602344 146.66377 
Q 61.602344 148.66377 63.602344 148.66377 
z
" style="fill: #ffffff; opacity: 0.8; stroke: #cccccc; stroke-linejoin: miter"/>
    </g>
    <g id="line2d_29">
     <path d="M 65.602344 123.760645 
L 75.602344 123.760645 
L 85.602344 123.760645 
" style="fill: none; stroke: #1f77b4; stroke-width: 1.5; stroke-linecap: square"/>
    </g>
    <g id="text_17">
     <!-- input -->
     <g transform="translate(93.602344 127.260645) scale(0.1 -0.1)">
      <use xlink:href="#DejaVuSans-4c"/>
      <use xlink:href="#DejaVuSans-51" transform="translate(27.78125 0)"/>
      <use xlink:href="#DejaVuSans-53" transform="translate(91.15625 0)"/>
      <use xlink:href="#DejaVuSans-58" transform="translate(154.640625 0)"/>
      <use xlink:href="#DejaVuSans-57" transform="translate(218.015625 0)"/>
     </g>
    </g>
    <g id="line2d_30">
     <path d="M 65.602344 138.761426 
L 75.602344 138.761426 
L 85.602344 138.761426 
" style="fill: none; stroke: #ff7f0e; stroke-width: 1.5; stroke-linecap: square"/>
    </g>
    <g id="text_18">
     <!-- output -->
     <g transform="translate(93.602344 142.261426) scale(0.1 -0.1)">
      <defs>
       <path id="DejaVuSans-52" d="M 1959 3097 
Q 1497 3097 1228 2736 
Q 959 2375 959 1747 
Q 959 1119 1226 758 
Q 1494 397 1959 397 
Q 2419 397 2687 759 
Q 2956 1122 2956 1747 
Q 2956 2369 2687 2733 
Q 2419 3097 1959 3097 
z
M 1959 3584 
Q 2709 3584 3137 3096 
Q 3566 2609 3566 1747 
Q 3566 888 3137 398 
Q 2709 -91 1959 -91 
Q 1206 -91 779 398 
Q 353 888 353 1747 
Q 353 2609 779 3096 
Q 1206 3584 1959 3584 
z
" transform="scale(0.015625)"/>
      </defs>
      <use xlink:href="#DejaVuSans-52"/>
      <use xlink:href="#DejaVuSans-58" transform="translate(61.1875 0)"/>
      <use xlink:href="#DejaVuSans-57" transform="translate(124.5625 0)"/>
      <use xlink:href="#DejaVuSans-53" transform="translate(163.765625 0)"/>
      <use xlink:href="#DejaVuSans-58" transform="translate(227.25 0)"/>
      <use xlink:href="#DejaVuSans-57" transform="translate(290.625 0)"/>
     </g>
    </g>
   </g>
  </g>
  <g id="axes_2">
   <g id="patch_8">
    <path d="M 56.602344 460.115313 
L 628.2 460.115313 
L 628.2 279.801992 
L 56.602344 279.801992 
z
" style="fill: #ffffff"/>
   </g>
   <g id="matplotlib.axis_3">
    <g id="xtick_7">
     <g id="line2d_31">
      <path d="M 56.602344 460.115313 
L 56.602344 279.801992 
" clip-path="url(#pb63dbd3490)" style="fill: none; stroke: #b0b0b0; stroke-opacity: 0.25; stroke-width: 0.8; stroke-linecap: square"/>
     </g>
     <g id="line2d_32">
      <g>
       <use xlink:href="#m39ed165c1c" x="56.602344" y="460.115313" style="stroke: #000000; stroke-width: 0.8"/>
      </g>
     </g>
     <g id="text_19">
      <!-- $\mathdefault{10^{-1}}$ -->
      <g transform="translate(44.852344 476.415313) scale(0.1 -0.1)">
       <use xlink:href="#DejaVuSans-14" transform="translate(0 0.665625)"/>
       <use xlink:href="#DejaVuSans-13" transform="translate(63.623047 0.665625)"/>
       <use xlink:href="#DejaVuSans-c9c" transform="translate(128.203125 41.965625) scale(0.7)"/>
       <use xlink:href="#DejaVuSans-14" transform="translate(186.855469 41.965625) scale(0.7)"/>
      </g>
     </g>
    </g>
    <g id="xtick_8">
     <g id="line2d_33">
      <path d="M 342.401172 460.115313 
L 342.401172 279.801992 
" clip-path="url(#pb63dbd3490)" style="fill: none; stroke: #b0b0b0; stroke-opacity: 0.25; stroke-width: 0.8; stroke-linecap: square"/>
     </g>
     <g id="line2d_34">
      <g>
       <use xlink:href="#m39ed165c1c" x="342.401172" y="460.115313" style="stroke: #000000; stroke-width: 0.8"/>
      </g>
     </g>
     <g id="text_20">
      <!-- $\mathdefault{10^{0}}$ -->
      <g transform="translate(333.601172 476.515313) scale(0.1 -0.1)">
       <use xlink:href="#DejaVuSans-14" transform="translate(0 0.746875)"/>
       <use xlink:href="#DejaVuSans-13" transform="translate(63.623047 0.746875)"/>
       <use xlink:href="#DejaVuSans-13" transform="translate(128.203125 42.046875) scale(0.7)"/>
      </g>
     </g>
    </g>
    <g id="xtick_9">
     <g id="line2d_35">
      <path d="M 628.2 460.115313 
L 628.2 279.801992 
" clip-path="url(#pb63dbd3490)" style="fill: none; stroke: #b0b0b0; stroke-opacity: 0.25; stroke-width: 0.8; stroke-linecap: square"/>
     </g>
     <g id="line2d_36">
      <g>
       <use xlink:href="#m39ed165c1c" x="628.2" y="460.115313" style="stroke: #000000; stroke-width: 0.8"/>
      </g>
     </g>
     <g id="text_21">
      <!-- $\mathdefault{10^{1}}$ -->
      <g transform="translate(619.4 476.415313) scale(0.1 -0.1)">
       <use xlink:href="#DejaVuSans-14" transform="translate(0 0.665625)"/>
       <use xlink:href="#DejaVuSans-13" transform="translate(63.623047 0.665625)"/>
       <use xlink:href="#DejaVuSans-14" transform="translate(128.203125 41.965625) scale(0.7)"/>
      </g>
     </g>
    </g>
    <g id="xtick_10">
     <g id="line2d_37">
      <defs>
       <path id="m213f690b97" d="M 0 0 
L 0 2 
" style="stroke: #000000; stroke-width: 0.6"/>
      </defs>
      <g>
       <use xlink:href="#m213f690b97" x="142.636364" y="460.115313" style="stroke: #000000; stroke-width: 0.6"/>
      </g>
     </g>
    </g>
    <g id="xtick_11">
     <g id="line2d_38">
      <g>
       <use xlink:href="#m213f690b97" x="192.963039" y="460.115313" style="stroke: #000000; stroke-width: 0.6"/>
      </g>
     </g>
    </g>
    <g id="xtick_12">
     <g id="line2d_39">
      <g>
       <use xlink:href="#m213f690b97" x="228.670384" y="460.115313" style="stroke: #000000; stroke-width: 0.6"/>
      </g>
     </g>
    </g>
    <g id="xtick_13">
     <g id="line2d_40">
      <g>
       <use xlink:href="#m213f690b97" x="256.367152" y="460.115313" style="stroke: #000000; stroke-width: 0.6"/>
      </g>
     </g>
    </g>
    <g id="xtick_14">
     <g id="line2d_41">
      <g>
       <use xlink:href="#m213f690b97" x="278.997059" y="460.115313" style="stroke: #000000; stroke-width: 0.6"/>
      </g>
     </g>
    </g>
    <g id="xtick_15">
     <g id="line2d_42">
      <g>
       <use xlink:href="#m213f690b97" x="298.130373" y="460.115313" style="stroke: #000000; stroke-width: 0.6"/>
      </g>
     </g>
    </g>
    <g id="xtick_16">
     <g id="line2d_43">
      <g>
       <use xlink:href="#m213f690b97" x="314.704404" y="460.115313" style="stroke: #000000; stroke-width: 0.6"/>
      </g>
     </g>
    </g>
    <g id="xtick_17">
     <g id="line2d_44">
      <g>
       <use xlink:href="#m213f690b97" x="329.323735" y="460.115313" style="stroke: #000000; stroke-width: 0.6"/>
      </g>
     </g>
    </g>
    <g id="xtick_18">
     <g id="line2d_45">
      <g>
       <use xlink:href="#m213f690b97" x="428.435192" y="460.115313" style="stroke: #000000; stroke-width: 0.6"/>
      </g>
     </g>
    </g>
    <g id="xtick_19">
     <g id="line2d_46">
      <g>
       <use xlink:href="#m213f690b97" x="478.761867" y="460.115313" style="stroke: #000000; stroke-width: 0.6"/>
      </g>
     </g>
    </g>
    <g id="xtick_20">
     <g id="line2d_47">
      <g>
       <use xlink:href="#m213f690b97" x="514.469212" y="460.115313" style="stroke: #000000; stroke-width: 0.6"/>
      </g>
     </g>
    </g>
    <g id="xtick_21">
     <g id="line2d_48">
      <g>
       <use xlink:href="#m213f690b97" x="542.16598" y="460.115313" style="stroke: #000000; stroke-width: 0.6"/>
      </g>
     </g>
    </g>
    <g id="xtick_22">
     <g id="line2d_49">
      <g>
       <use xlink:href="#m213f690b97" x="564.795887" y="460.115313" style="stroke: #000000; stroke-width: 0.6"/>
      </g>
     </g>
    </g>
    <g id="xtick_23">
     <g id="line2d_50">
      <g>
       <use xlink:href="#m213f690b97" x="583.929201" y="460.115313" style="stroke: #000000; stroke-width: 0.6"/>
      </g>
     </g>
    </g>
    <g id="xtick_24">
     <g id="line2d_51">
      <g>
       <use xlink:href="#m213f690b97" x="600.503232" y="460.115313" style="stroke: #000000; stroke-width: 0.6"/>
      </g>
     </g>
    </g>
    <g id="xtick_25">
     <g id="line2d_52">
      <g>
       <use xlink:href="#m213f690b97" x="615.122563" y="460.115313" style="stroke: #000000; stroke-width: 0.6"/>
      </g>
     </g>
    </g>
    <g id="text_22">
     <!-- frequency [arb.] -->
     <g transform="translate(301.948828 490.516094) scale(0.1 -0.1)">
      <defs>
       <path id="DejaVuSans-54" d="M 947 1747 
Q 947 1113 1208 752 
Q 1469 391 1925 391 
Q 2381 391 2643 752 
Q 2906 1113 2906 1747 
Q 2906 2381 2643 2742 
Q 2381 3103 1925 3103 
Q 1469 3103 1208 2742 
Q 947 2381 947 1747 
z
M 2906 525 
Q 2725 213 2448 61 
Q 2172 -91 1784 -91 
Q 1150 -91 751 415 
Q 353 922 353 1747 
Q 353 2572 751 3078 
Q 1150 3584 1784 3584 
Q 2172 3584 2448 3432 
Q 2725 3281 2906 2969 
L 2906 3500 
L 3481 3500 
L 3481 -1331 
L 2906 -1331 
L 2906 525 
z
" transform="scale(0.015625)"/>
      </defs>
      <use xlink:href="#DejaVuSans-49"/>
      <use xlink:href="#DejaVuSans-55" transform="translate(35.203125 0)"/>
      <use xlink:href="#DejaVuSans-48" transform="translate(74.109375 0)"/>
      <use xlink:href="#DejaVuSans-54" transform="translate(135.640625 0)"/>
      <use xlink:href="#DejaVuSans-58" transform="translate(199.125 0)"/>
      <use xlink:href="#DejaVuSans-48" transform="translate(262.5 0)"/>
      <use xlink:href="#DejaVuSans-51" transform="translate(324.03125 0)"/>
      <use xlink:href="#DejaVuSans-46" transform="translate(387.40625 0)"/>
      <use xlink:href="#DejaVuSans-5c" transform="translate(442.390625 0)"/>
      <use xlink:href="#DejaVuSans-3" transform="translate(501.578125 0)"/>
      <use xlink:href="#DejaVuSans-3e" transform="translate(533.359375 0)"/>
      <use xlink:href="#DejaVuSans-44" transform="translate(572.375 0)"/>
      <use xlink:href="#DejaVuSans-55" transform="translate(633.65625 0)"/>
      <use xlink:href="#DejaVuSans-45" transform="translate(674.765625 0)"/>
      <use xlink:href="#DejaVuSans-11" transform="translate(738.25 0)"/>
      <use xlink:href="#DejaVuSans-40" transform="translate(770.03125 0)"/>
     </g>
    </g>
   </g>
   <g id="matplotlib.axis_4">
    <g id="ytick_8">
     <g id="line2d_53">
      <path d="M 56.602344 457.682509 
L 628.2 457.682509 
" clip-path="url(#pb63dbd3490)" style="fill: none; stroke: #b0b0b0; stroke-opacity: 0.25; stroke-width: 0.8; stroke-linecap: square"/>
     </g>
     <g id="line2d_54">
      <g>
       <use xlink:href="#ma200c20bd5" x="56.602344" y="457.682509" style="stroke: #000000; stroke-width: 0.8"/>
      </g>
     </g>
     <g id="text_23">
      <!-- $\mathdefault{10^{-9}}$ -->
      <g transform="translate(26.102344 462.382509) scale(0.1 -0.1)">
       <defs>
        <path id="DejaVuSans-1c" d="M 703 97 
L 703 672 
Q 941 559 1184 500 
Q 1428 441 1663 441 
Q 2288 441 2617 861 
Q 2947 1281 2994 2138 
Q 2813 1869 2534 1725 
Q 2256 1581 1919 1581 
Q 1219 1581 811 2004 
Q 403 2428 403 3163 
Q 403 3881 828 4315 
Q 1253 4750 1959 4750 
Q 2769 4750 3195 4129 
Q 3622 3509 3622 2328 
Q 3622 1225 3098 567 
Q 2575 -91 1691 -91 
Q 1453 -91 1209 -44 
Q 966 3 703 97 
z
M 1959 2075 
Q 2384 2075 2632 2365 
Q 2881 2656 2881 3163 
Q 2881 3666 2632 3958 
Q 2384 4250 1959 4250 
Q 1534 4250 1286 3958 
Q 1038 3666 1038 3163 
Q 1038 2656 1286 2365 
Q 1534 2075 1959 2075 
z
" transform="scale(0.015625)"/>
       </defs>
       <use xlink:href="#DejaVuSans-14" transform="translate(0 0.746875)"/>
       <use xlink:href="#DejaVuSans-13" transform="translate(63.623047 0.746875)"/>
       <use xlink:href="#DejaVuSans-c9c" transform="translate(128.203125 42.046875) scale(0.7)"/>
       <use xlink:href="#DejaVuSans-1c" transform="translate(186.855469 42.046875) scale(0.7)"/>
      </g>
     </g>
    </g>
    <g id="ytick_9">
     <g id="line2d_55">
      <path d="M 56.602344 429.788812 
L 628.2 429.788812 
" clip-path="url(#pb63dbd3490)" style="fill: none; stroke: #b0b0b0; stroke-opacity: 0.25; stroke-width: 0.8; stroke-linecap: square"/>
     </g>
     <g id="line2d_56">
      <g>
       <use xlink:href="#ma200c20bd5" x="56.602344" y="429.788812" style="stroke: #000000; stroke-width: 0.8"/>
      </g>
     </g>
     <g id="text_24">
      <!-- $\mathdefault{10^{-7}}$ -->
      <g transform="translate(26.102344 434.438812) scale(0.1 -0.1)">
       <use xlink:href="#DejaVuSans-14" transform="translate(0 0.665625)"/>
       <use xlink:href="#DejaVuSans-13" transform="translate(63.623047 0.665625)"/>
       <use xlink:href="#DejaVuSans-c9c" transform="translate(128.203125 41.965625) scale(0.7)"/>
       <use xlink:href="#DejaVuSans-1a" transform="translate(186.855469 41.965625) scale(0.7)"/>
      </g>
     </g>
    </g>
    <g id="ytick_10">
     <g id="line2d_57">
      <path d="M 56.602344 401.895116 
L 628.2 401.895116 
" clip-path="url(#pb63dbd3490)" style="fill: none; stroke: #b0b0b0; stroke-opacity: 0.25; stroke-width: 0.8; stroke-linecap: square"/>
     </g>
     <g id="line2d_58">
      <g>
       <use xlink:href="#ma200c20bd5" x="56.602344" y="401.895116" style="stroke: #000000; stroke-width: 0.8"/>
      </g>
     </g>
     <g id="text_25">
      <!-- $\mathdefault{10^{-5}}$ -->
      <g transform="translate(26.102344 406.545116) scale(0.1 -0.1)">
       <use xlink:href="#DejaVuSans-14" transform="translate(0 0.665625)"/>
       <use xlink:href="#DejaVuSans-13" transform="translate(63.623047 0.665625)"/>
       <use xlink:href="#DejaVuSans-c9c" transform="translate(128.203125 41.965625) scale(0.7)"/>
       <use xlink:href="#DejaVuSans-18" transform="translate(186.855469 41.965625) scale(0.7)"/>
      </g>
     </g>
    </g>
    <g id="ytick_11">
     <g id="line2d_59">
      <path d="M 56.602344 374.001419 
L 628.2 374.001419 
" clip-path="url(#pb63dbd3490)" style="fill: none; stroke: #b0b0b0; stroke-opacity: 0.25; stroke-width: 0.8; stroke-linecap: square"/>
     </g>
     <g id="line2d_60">
      <g>
       <use xlink:href="#ma200c20bd5" x="56.602344" y="374.001419" style="stroke: #000000; stroke-width: 0.8"/>
      </g>
     </g>
     <g id="text_26">
      <!-- $\mathdefault{10^{-3}}$ -->
      <g transform="translate(26.102344 378.701419) scale(0.1 -0.1)">
       <use xlink:href="#DejaVuSans-14" transform="translate(0 0.746875)"/>
       <use xlink:href="#DejaVuSans-13" transform="translate(63.623047 0.746875)"/>
       <use xlink:href="#DejaVuSans-c9c" transform="translate(128.203125 42.046875) scale(0.7)"/>
       <use xlink:href="#DejaVuSans-16" transform="translate(186.855469 42.046875) scale(0.7)"/>
      </g>
     </g>
    </g>
    <g id="ytick_12">
     <g id="line2d_61">
      <path d="M 56.602344 346.107722 
L 628.2 346.107722 
" clip-path="url(#pb63dbd3490)" style="fill: none; stroke: #b0b0b0; stroke-opacity: 0.25; stroke-width: 0.8; stroke-linecap: square"/>
     </g>
     <g id="line2d_62">
      <g>
       <use xlink:href="#ma200c20bd5" x="56.602344" y="346.107722" style="stroke: #000000; stroke-width: 0.8"/>
      </g>
     </g>
     <g id="text_27">
      <!-- $\mathdefault{10^{-1}}$ -->
      <g transform="translate(26.102344 350.757722) scale(0.1 -0.1)">
       <use xlink:href="#DejaVuSans-14" transform="translate(0 0.665625)"/>
       <use xlink:href="#DejaVuSans-13" transform="translate(63.623047 0.665625)"/>
       <use xlink:href="#DejaVuSans-c9c" transform="translate(128.203125 41.965625) scale(0.7)"/>
       <use xlink:href="#DejaVuSans-14" transform="translate(186.855469 41.965625) scale(0.7)"/>
      </g>
     </g>
    </g>
    <g id="ytick_13">
     <g id="line2d_63">
      <path d="M 56.602344 318.214026 
L 628.2 318.214026 
" clip-path="url(#pb63dbd3490)" style="fill: none; stroke: #b0b0b0; stroke-opacity: 0.25; stroke-width: 0.8; stroke-linecap: square"/>
     </g>
     <g id="line2d_64">
      <g>
       <use xlink:href="#ma200c20bd5" x="56.602344" y="318.214026" style="stroke: #000000; stroke-width: 0.8"/>
      </g>
     </g>
     <g id="text_28">
      <!-- $\mathdefault{10^{1}}$ -->
      <g transform="translate(32.002344 322.864026) scale(0.1 -0.1)">
       <use xlink:href="#DejaVuSans-14" transform="translate(0 0.665625)"/>
       <use xlink:href="#DejaVuSans-13" transform="translate(63.623047 0.665625)"/>
       <use xlink:href="#DejaVuSans-14" transform="translate(128.203125 41.965625) scale(0.7)"/>
      </g>
     </g>
    </g>
    <g id="ytick_14">
     <g id="line2d_65">
      <path d="M 56.602344 290.320329 
L 628.2 290.320329 
" clip-path="url(#pb63dbd3490)" style="fill: none; stroke: #b0b0b0; stroke-opacity: 0.25; stroke-width: 0.8; stroke-linecap: square"/>
     </g>
     <g id="line2d_66">
      <g>
       <use xlink:href="#ma200c20bd5" x="56.602344" y="290.320329" style="stroke: #000000; stroke-width: 0.8"/>
      </g>
     </g>
     <g id="text_29">
      <!-- $\mathdefault{10^{3}}$ -->
      <g transform="translate(32.002344 295.020329) scale(0.1 -0.1)">
       <use xlink:href="#DejaVuSans-14" transform="translate(0 0.746875)"/>
       <use xlink:href="#DejaVuSans-13" transform="translate(63.623047 0.746875)"/>
       <use xlink:href="#DejaVuSans-16" transform="translate(128.203125 42.046875) scale(0.7)"/>
      </g>
     </g>
    </g>
    <g id="text_30">
     <!-- |FFT(.)| -->
     <g transform="translate(19.7 387.535996) rotate(-90) scale(0.1 -0.1)">
      <defs>
       <path id="DejaVuSans-37" d="M -19 4666 
L 3928 4666 
L 3928 4134 
L 2272 4134 
L 2272 0 
L 1638 0 
L 1638 4134 
L -19 4134 
L -19 4666 
z
" transform="scale(0.015625)"/>
      </defs>
      <use xlink:href="#DejaVuSans-5f"/>
      <use xlink:href="#DejaVuSans-29" transform="translate(33.6875 0)"/>
      <use xlink:href="#DejaVuSans-29" transform="translate(91.203125 0)"/>
      <use xlink:href="#DejaVuSans-37" transform="translate(146.96875 0)"/>
      <use xlink:href="#DejaVuSans-b" transform="translate(208.046875 0)"/>
      <use xlink:href="#DejaVuSans-11" transform="translate(247.0625 0)"/>
      <use xlink:href="#DejaVuSans-c" transform="translate(278.84375 0)"/>
      <use xlink:href="#DejaVuSans-5f" transform="translate(317.859375 0)"/>
     </g>
    </g>
   </g>
   <g id="line2d_67">
    <path d="M 56.602344 352.553887 
L 142.636364 351.741924 
L 192.963039 347.384334 
L 228.670384 342.694476 
L 256.367152 336.850571 
L 278.997059 328.263802 
L 298.130373 292.270684 
L 314.704404 287.998052 
L 329.323735 292.118185 
L 342.401172 327.360779 
L 354.231153 335.626529 
L 365.031079 341.023913 
L 374.966048 345.06558 
L 384.164393 348.298977 
L 392.727847 350.992237 
L 400.738424 353.298412 
L 408.263204 355.313594 
L 415.357755 357.102211 
L 422.068624 358.709599 
L 428.435192 360.168872 
L 434.491069 361.504939 
L 440.265173 362.736998 
L 445.782564 363.880147 
L 451.065099 364.946461 
L 456.13196 365.945744 
L 461.000068 366.886059 
L 465.68443 367.774111 
L 470.198413 368.615533 
L 474.553978 369.415101 
L 478.761867 370.176898 
L 482.831768 370.904437 
L 486.772444 371.600767 
L 490.591848 372.268545 
L 494.297224 372.910103 
L 497.895181 373.527497 
L 501.391775 374.122551 
L 504.792559 374.696887 
L 508.102644 375.251955 
L 511.326744 375.789058 
L 514.469212 376.30937 
L 517.53408 376.81395 
L 520.525089 377.303761 
L 523.445714 377.779679 
L 526.299193 378.242501 
L 529.088543 378.692958 
L 531.816584 379.13172 
L 534.485952 379.559405 
L 537.099119 379.976579 
L 539.658403 380.383767 
L 542.16598 380.781456 
L 544.623899 381.170094 
L 547.034088 381.550102 
L 549.398367 381.921868 
L 551.71845 382.285756 
L 553.995961 382.642105 
L 556.232433 382.991233 
L 558.42932 383.333436 
L 560.587998 383.668994 
L 562.709773 383.99817 
L 564.795887 384.32121 
L 566.847518 384.638345 
L 568.865788 384.949796 
L 570.851764 385.255769 
L 572.806464 385.55646 
L 574.730857 385.852054 
L 576.625868 386.142726 
L 578.492382 386.428643 
L 580.331244 386.709962 
L 582.143259 386.986833 
L 583.929201 387.259399 
L 585.68981 387.527796 
L 587.425795 387.792152 
L 589.137834 388.052592 
L 590.826579 388.309232 
L 592.492655 388.562185 
L 594.136664 388.811559 
L 595.759182 389.057455 
L 597.360764 389.299972 
L 598.941943 389.539204 
L 600.503232 389.775241 
L 602.045126 390.00817 
L 603.5681 390.238072 
L 605.072614 390.465028 
L 606.559109 390.689114 
L 608.028012 390.910404 
L 609.479734 391.128967 
L 610.914673 391.344872 
L 612.333213 391.558184 
L 613.735723 391.768966 
L 615.122563 391.977279 
L 616.494078 392.183181 
L 617.850603 392.386728 
L 619.192464 392.587975 
L 620.519972 392.786974 
L 621.833432 392.983776 
L 623.133139 393.17843 
L 624.419377 393.370983 
L 625.692423 393.561481 
L 626.952544 393.749968 
L 628.2 393.936487 
L 629.435044 394.12108 
" clip-path="url(#pb63dbd3490)" style="fill: none; stroke: #1f77b4; stroke-opacity: 0.6; stroke-width: 1.5; stroke-linecap: square"/>
   </g>
   <g id="line2d_68">
    <path d="M 56.602344 340.094876 
L 142.636364 356.942025 
L 192.963039 348.537078 
L 228.670384 342.891367 
L 256.367152 336.887748 
L 278.997059 328.269104 
L 298.130373 292.270888 
L 314.704404 287.998245 
L 329.323735 292.118385 
L 342.401172 327.360042 
L 354.231153 335.623989 
L 365.031079 341.01898 
L 374.966048 345.057924 
L 384.164393 348.288463 
L 392.727847 350.978863 
L 400.738424 353.282258 
L 408.263204 355.29479 
L 415.357755 357.080914 
L 422.068624 358.685977 
L 428.435192 360.143093 
L 434.491069 361.477168 
L 440.265173 362.707391 
L 445.782564 363.848849 
L 451.065099 364.913608 
L 456.13196 365.91146 
L 461.000068 366.850458 
L 465.68443 367.737296 
L 470.198413 368.5776 
L 474.553978 369.376135 
L 478.761867 370.136977 
L 482.831768 370.863633 
L 486.772444 371.559144 
L 490.591848 372.226162 
L 494.297224 372.867013 
L 497.895181 373.48375 
L 501.391775 374.078191 
L 504.792559 374.651954 
L 508.102644 375.206487 
L 511.326744 375.743089 
L 514.469212 376.262931 
L 517.53408 376.76707 
L 520.525089 377.256466 
L 523.445714 377.731993 
L 526.299193 378.194446 
L 529.088543 378.644555 
L 531.816584 379.082989 
L 534.485952 379.510362 
L 537.099119 379.927241 
L 539.658403 380.334149 
L 542.16598 380.731571 
L 544.623899 381.119956 
L 547.034088 381.499723 
L 549.398367 381.871259 
L 551.71845 382.234927 
L 553.995961 382.591066 
L 556.232433 382.939992 
L 558.42932 383.282003 
L 560.587998 383.617377 
L 562.709773 383.946375 
L 564.795887 384.269244 
L 566.847518 384.586216 
L 568.865788 384.897509 
L 570.851764 385.203329 
L 572.806464 385.503873 
L 574.730857 385.799325 
L 576.625868 386.089859 
L 578.492382 386.375643 
L 580.331244 386.656833 
L 582.143259 386.933579 
L 583.929201 387.206024 
L 585.68981 387.474303 
L 587.425795 387.738545 
L 589.137834 387.998873 
L 590.826579 388.255404 
L 592.492655 388.508251 
L 594.136664 388.757521 
L 595.759182 389.003316 
L 597.360764 389.245735 
L 598.941943 389.48487 
L 600.503232 389.720812 
L 602.045126 389.953648 
L 603.5681 390.18346 
L 605.072614 390.410326 
L 606.559109 390.634325 
L 608.028012 390.855528 
L 609.479734 391.074007 
L 610.914673 391.289828 
L 612.333213 391.503058 
L 613.735723 391.713759 
L 615.122563 391.921992 
L 616.494078 392.127815 
L 617.850603 392.331285 
L 619.192464 392.532455 
L 620.519972 392.731378 
L 621.833432 392.928106 
L 623.133139 393.122685 
L 624.419377 393.315165 
L 625.692423 393.50559 
L 626.952544 393.694005 
L 628.2 393.880453 
L 629.435044 394.064975 
" clip-path="url(#pb63dbd3490)" style="fill: none; stroke: #ff7f0e; stroke-width: 1.5; stroke-linecap: square"/>
   </g>
   <g id="patch_9">
    <path d="M 56.602344 460.115313 
L 56.602344 279.801992 
" style="fill: none; stroke: #000000; stroke-width: 0.8; stroke-linejoin: miter; stroke-linecap: square"/>
   </g>
   <g id="patch_10">
    <path d="M 628.2 460.115313 
L 628.2 279.801992 
" style="fill: none; stroke: #000000; stroke-width: 0.8; stroke-linejoin: miter; stroke-linecap: square"/>
   </g>
   <g id="patch_11">
    <path d="M 56.602344 460.115313 
L 628.2 460.115313 
" style="fill: none; stroke: #000000; stroke-width: 0.8; stroke-linejoin: miter; stroke-linecap: square"/>
   </g>
   <g id="patch_12">
    <path d="M 56.602344 279.801992 
L 628.2 279.801992 
" style="fill: none; stroke: #000000; stroke-width: 0.8; stroke-linejoin: miter; stroke-linecap: square"/>
   </g>
   <g id="text_31">
    <!-- Output FFT peak ≈ 0.800 (arb.), magnitude ≈ 1.467e+03 | band/flat-ish -->
    <g transform="translate(126.001797 273.801992) scale(0.12 -0.12)">
     <defs>
      <path id="DejaVuSans-32" d="M 2522 4238 
Q 1834 4238 1429 3725 
Q 1025 3213 1025 2328 
Q 1025 1447 1429 934 
Q 1834 422 2522 422 
Q 3209 422 3611 934 
Q 4013 1447 4013 2328 
Q 4013 3213 3611 3725 
Q 3209 4238 2522 4238 
z
M 2522 4750 
Q 3503 4750 4090 4092 
Q 4678 3434 4678 2328 
Q 4678 1225 4090 567 
Q 3503 -91 2522 -91 
Q 1538 -91 948 565 
Q 359 1222 359 2328 
Q 359 3434 948 4092 
Q 1538 4750 2522 4750 
z
" transform="scale(0.015625)"/>
      <path id="DejaVuSans-4e" d="M 581 4863 
L 1159 4863 
L 1159 1991 
L 2875 3500 
L 3609 3500 
L 1753 1863 
L 3688 0 
L 2938 0 
L 1159 1709 
L 1159 0 
L 581 0 
L 581 4863 
z
" transform="scale(0.015625)"/>
      <path id="DejaVuSans-cd2" d="M 4684 1947 
L 4684 1388 
Q 4356 1144 4076 1036 
Q 3797 928 3494 928 
Q 3150 928 2694 1113 
Q 2663 1125 2641 1134 
Q 2622 1141 2575 1159 
Q 2091 1350 1797 1350 
Q 1522 1350 1253 1231 
Q 984 1113 678 850 
L 678 1409 
Q 1006 1653 1286 1761 
Q 1566 1869 1869 1869 
Q 2213 1869 2672 1684 
Q 2706 1669 2722 1663 
Q 2741 1656 2788 1638 
Q 3272 1447 3566 1447 
Q 3834 1447 4098 1564 
Q 4363 1681 4684 1947 
z
M 4684 3163 
L 4684 2606 
Q 4356 2359 4076 2251 
Q 3797 2144 3494 2144 
Q 3150 2144 2694 2328 
Q 2663 2341 2641 2350 
Q 2622 2356 2575 2375 
Q 2091 2566 1797 2566 
Q 1522 2566 1253 2447 
Q 984 2328 678 2069 
L 678 2625 
Q 1006 2869 1286 2976 
Q 1566 3084 1869 3084 
Q 2213 3084 2672 2900 
Q 2703 2888 2719 2881 
Q 2741 2872 2788 2853 
Q 3272 2663 3566 2663 
Q 3834 2663 4098 2780 
Q 4363 2897 4684 3163 
z
" transform="scale(0.015625)"/>
      <path id="DejaVuSans-50" d="M 3328 2828 
Q 3544 3216 3844 3400 
Q 4144 3584 4550 3584 
Q 5097 3584 5394 3201 
Q 5691 2819 5691 2113 
L 5691 0 
L 5113 0 
L 5113 2094 
Q 5113 2597 4934 2840 
Q 4756 3084 4391 3084 
Q 3944 3084 3684 2787 
Q 3425 2491 3425 1978 
L 3425 0 
L 2847 0 
L 2847 2094 
Q 2847 2600 2669 2842 
Q 2491 3084 2119 3084 
Q 1678 3084 1418 2786 
Q 1159 2488 1159 1978 
L 1159 0 
L 581 0 
L 581 3500 
L 1159 3500 
L 1159 2956 
Q 1356 3278 1631 3431 
Q 1906 3584 2284 3584 
Q 2666 3584 2933 3390 
Q 3200 3197 3328 2828 
z
" transform="scale(0.015625)"/>
      <path id="DejaVuSans-e" d="M 2944 4013 
L 2944 2272 
L 4684 2272 
L 4684 1741 
L 2944 1741 
L 2944 0 
L 2419 0 
L 2419 1741 
L 678 1741 
L 678 2272 
L 2419 2272 
L 2419 4013 
L 2944 4013 
z
" transform="scale(0.015625)"/>
      <path id="DejaVuSans-12" d="M 1625 4666 
L 2156 4666 
L 531 -594 
L 0 -594 
L 1625 4666 
z
" transform="scale(0.015625)"/>
      <path id="DejaVuSans-13b0" d="M 1831 4863 
L 3431 4863 
L 3431 0 
L 2853 0 
L 2853 4384 
L 1825 4384 
Q 1516 4384 1395 4259 
Q 1275 4134 1275 3809 
L 1275 3500 
L 2222 3500 
L 2222 3053 
L 1275 3053 
L 1275 0 
L 697 0 
L 697 3053 
L 147 3053 
L 147 3500 
L 697 3500 
L 697 3744 
Q 697 4328 969 4595 
Q 1241 4863 1831 4863 
z
" transform="scale(0.015625)"/>
     </defs>
     <use xlink:href="#DejaVuSans-32"/>
     <use xlink:href="#DejaVuSans-58" transform="translate(78.71875 0)"/>
     <use xlink:href="#DejaVuSans-57" transform="translate(142.09375 0)"/>
     <use xlink:href="#DejaVuSans-53" transform="translate(181.296875 0)"/>
     <use xlink:href="#DejaVuSans-58" transform="translate(244.78125 0)"/>
     <use xlink:href="#DejaVuSans-57" transform="translate(308.15625 0)"/>
     <use xlink:href="#DejaVuSans-3" transform="translate(347.359375 0)"/>
     <use xlink:href="#DejaVuSans-29" transform="translate(379.140625 0)"/>
     <use xlink:href="#DejaVuSans-29" transform="translate(436.65625 0)"/>
     <use xlink:href="#DejaVuSans-37" transform="translate(492.421875 0)"/>
     <use xlink:href="#DejaVuSans-3" transform="translate(553.5 0)"/>
     <use xlink:href="#DejaVuSans-53" transform="translate(585.28125 0)"/>
     <use xlink:href="#DejaVuSans-48" transform="translate(648.765625 0)"/>
     <use xlink:href="#DejaVuSans-44" transform="translate(710.296875 0)"/>
     <use xlink:href="#DejaVuSans-4e" transform="translate(771.578125 0)"/>
     <use xlink:href="#DejaVuSans-3" transform="translate(829.484375 0)"/>
     <use xlink:href="#DejaVuSans-cd2" transform="translate(861.265625 0)"/>
     <use xlink:href="#DejaVuSans-3" transform="translate(945.0625 0)"/>
     <use xlink:href="#DejaVuSans-13" transform="translate(976.84375 0)"/>
     <use xlink:href="#DejaVuSans-11" transform="translate(1040.46875 0)"/>
     <use xlink:href="#DejaVuSans-1b" transform="translate(1072.25 0)"/>
     <use xlink:href="#DejaVuSans-13" transform="translate(1135.875 0)"/>
     <use xlink:href="#DejaVuSans-13" transform="translate(1199.5 0)"/>
     <use xlink:href="#DejaVuSans-3" transform="translate(1263.125 0)"/>
     <use xlink:href="#DejaVuSans-b" transform="translate(1294.90625 0)"/>
     <use xlink:href="#DejaVuSans-44" transform="translate(1333.921875 0)"/>
     <use xlink:href="#DejaVuSans-55" transform="translate(1395.203125 0)"/>
     <use xlink:href="#DejaVuSans-45" transform="translate(1436.3125 0)"/>
     <use xlink:href="#DejaVuSans-11" transform="translate(1499.796875 0)"/>
     <use xlink:href="#DejaVuSans-c" transform="translate(1531.578125 0)"/>
     <use xlink:href="#DejaVuSans-f" transform="translate(1570.59375 0)"/>
     <use xlink:href="#DejaVuSans-3" transform="translate(1602.375 0)"/>
     <use xlink:href="#DejaVuSans-50" transform="translate(1634.15625 0)"/>
     <use xlink:href="#DejaVuSans-44" transform="translate(1731.5625 0)"/>
     <use xlink:href="#DejaVuSans-4a" transform="translate(1792.84375 0)"/>
     <use xlink:href="#DejaVuSans-51" transform="translate(1856.328125 0)"/>
     <use xlink:href="#DejaVuSans-4c" transform="translate(1919.703125 0)"/>
     <use xlink:href="#DejaVuSans-57" transform="translate(1947.484375 0)"/>
     <use xlink:href="#DejaVuSans-58" transform="translate(1986.6875 0)"/>
     <use xlink:href="#DejaVuSans-47" transform="translate(2050.0625 0)"/>
     <use xlink:href="#DejaVuSans-48" transform="translate(2113.546875 0)"/>
     <use xlink:href="#DejaVuSans-3" transform="translate(2175.078125 0)"/>
     <use xlink:href="#DejaVuSans-cd2" transform="translate(2206.859375 0)"/>
     <use xlink:href="#DejaVuSans-3" transform="translate(2290.65625 0)"/>
     <use xlink:href="#DejaVuSans-14" transform="translate(2322.4375 0)"/>
     <use xlink:href="#DejaVuSans-11" transform="translate(2386.0625 0)"/>
     <use xlink:href="#DejaVuSans-17" transform="translate(2417.84375 0)"/>
     <use xlink:href="#DejaVuSans-19" transform="translate(2481.46875 0)"/>
     <use xlink:href="#DejaVuSans-1a" transform="translate(2545.09375 0)"/>
     <use xlink:href="#DejaVuSans-48" transform="translate(2608.71875 0)"/>
     <use xlink:href="#DejaVuSans-e" transform="translate(2670.25 0)"/>
     <use xlink:href="#DejaVuSans-13" transform="translate(2754.046875 0)"/>
     <use xlink:href="#DejaVuSans-16" transform="translate(2817.671875 0)"/>
     <use xlink:href="#DejaVuSans-3" transform="translate(2881.296875 0)"/>
     <use xlink:href="#DejaVuSans-5f" transform="translate(2913.078125 0)"/>
     <use xlink:href="#DejaVuSans-3" transform="translate(2946.765625 0)"/>
     <use xlink:href="#DejaVuSans-45" transform="translate(2978.546875 0)"/>
     <use xlink:href="#DejaVuSans-44" transform="translate(3042.03125 0)"/>
     <use xlink:href="#DejaVuSans-51" transform="translate(3103.3125 0)"/>
     <use xlink:href="#DejaVuSans-47" transform="translate(3166.6875 0)"/>
     <use xlink:href="#DejaVuSans-12" transform="translate(3230.171875 0)"/>
     <use xlink:href="#DejaVuSans-13b0" transform="translate(3263.859375 0)"/>
     <use xlink:href="#DejaVuSans-44" transform="translate(3326.84375 0)"/>
     <use xlink:href="#DejaVuSans-57" transform="translate(3388.125 0)"/>
     <use xlink:href="#DejaVuSans-10" transform="translate(3427.328125 0)"/>
     <use xlink:href="#DejaVuSans-4c" transform="translate(3463.40625 0)"/>
     <use xlink:href="#DejaVuSans-56" transform="translate(3491.1875 0)"/>
     <use xlink:href="#DejaVuSans-4b" transform="translate(3543.28125 0)"/>
    </g>
   </g>
   <g id="legend_2">
    <g id="patch_13">
     <path d="M 535.603125 317.803555 
L 621.2 317.803555 
Q 623.2 317.803555 623.2 315.803555 
L 623.2 286.801992 
Q 623.2 284.801992 621.2 284.801992 
L 535.603125 284.801992 
Q 533.603125 284.801992 533.603125 286.801992 
L 533.603125 315.803555 
Q 533.603125 317.803555 535.603125 317.803555 
z
" style="fill: #ffffff; opacity: 0.8; stroke: #cccccc; stroke-linejoin: miter"/>
    </g>
    <g id="line2d_69">
     <path d="M 537.603125 292.90043 
L 547.603125 292.90043 
L 557.603125 292.90043 
" style="fill: none; stroke: #1f77b4; stroke-opacity: 0.6; stroke-width: 1.5; stroke-linecap: square"/>
    </g>
    <g id="text_32">
     <!-- input FFT -->
     <g transform="translate(565.603125 296.40043) scale(0.1 -0.1)">
      <use xlink:href="#DejaVuSans-4c"/>
      <use xlink:href="#DejaVuSans-51" transform="translate(27.78125 0)"/>
      <use xlink:href="#DejaVuSans-53" transform="translate(91.15625 0)"/>
      <use xlink:href="#DejaVuSans-58" transform="translate(154.640625 0)"/>
      <use xlink:href="#DejaVuSans-57" transform="translate(218.015625 0)"/>
      <use xlink:href="#DejaVuSans-3" transform="translate(257.21875 0)"/>
      <use xlink:href="#DejaVuSans-29" transform="translate(289 0)"/>
      <use xlink:href="#DejaVuSans-29" transform="translate(346.515625 0)"/>
      <use xlink:href="#DejaVuSans-37" transform="translate(402.28125 0)"/>
     </g>
    </g>
    <g id="line2d_70">
     <path d="M 537.603125 307.901211 
L 547.603125 307.901211 
L 557.603125 307.901211 
" style="fill: none; stroke: #ff7f0e; stroke-width: 1.5; stroke-linecap: square"/>
    </g>
    <g id="text_33">
     <!-- output FFT -->
     <g transform="translate(565.603125 311.401211) scale(0.1 -0.1)">
      <use xlink:href="#DejaVuSans-52"/>
      <use xlink:href="#DejaVuSans-58" transform="translate(61.1875 0)"/>
      <use xlink:href="#DejaVuSans-57" transform="translate(124.5625 0)"/>
      <use xlink:href="#DejaVuSans-53" transform="translate(163.765625 0)"/>
      <use xlink:href="#DejaVuSans-58" transform="translate(227.25 0)"/>
      <use xlink:href="#DejaVuSans-57" transform="translate(290.625 0)"/>
      <use xlink:href="#DejaVuSans-3" transform="translate(329.828125 0)"/>
      <use xlink:href="#DejaVuSans-29" transform="translate(361.609375 0)"/>
      <use xlink:href="#DejaVuSans-29" transform="translate(419.125 0)"/>
      <use xlink:href="#DejaVuSans-37" transform="translate(474.890625 0)"/>
     </g>
    </g>
   </g>
  </g>
 </g>
 <defs>
  <clipPath id="p8278f92772">
   <rect x="56.602344" y="42.006328" width="571.597656" height="180.31332"/>
  </clipPath>
  <clipPath id="pb63dbd3490">
   <rect x="56.602344" y="279.801992" width="571.597656" height="180.31332"/>
  </clipPath>
 </defs>
</svg>
