<?xml version="1.0" encoding="utf-8" standalone="no"?>
<!DOCTYPE svg PUBLIC "-//W3C//DTD SVG 1.1//EN"
  "http://www.w3.org/Graphics/SVG/1.1/DTD/svg11.dtd">
<svg xmlns:xlink="http://www.w3.org/1999/xlink" width="648pt" height="504pt" viewBox="0 0 648 504" xmlns="http://www.w3.org/2000/svg" version="1.1">
 <metadata>
  <rdf:RDF xmlns:dc="http://purl.org/dc/elements/1.1/" xmlns:cc="http://creativecommons.org/ns#" xmlns:rdf="http://www.w3.org/1999/02/22-rdf-syntax-ns#">
   <cc:Work>
    <dc:type rdf:resource="http://purl.org/dc/dcmitype/StillImage"/>
    <dc:date>2026-02-16T02:50:52.067611</dc:date>
    <dc:format>image/svg+xml</dc:format>
    <dc:creator>
     <cc:Agent>
      <dc:title>Matplotlib v3.10.8, https://matplotlib.org/</dc:title>
     </cc:Agent>
    </dc:creator>
   </cc:Work>
  </rdf:RDF>
 </metadata>
 <defs>
  <style type="text/css">*{stroke-linejoin: round; stroke-linecap: butt}</style>
 </defs>
 <g id="figure_1">
  <g id="patch_1">
   <path d="M 0 504 
L 648 504 
L 648 0 
L 0 0 
z
" style="fill: #ffffff"/>
  </g>
  <g id="axes_1">
   <g id="patch_2">
    <path d="M 62.3 221.272 
L 628.183658 221.272 
L 628.183658 41.856 
L 62.3 41.856 
z
" style="fill: #ffffff"/>
   </g>
   <g id="matplotlib.axis_1">
    <g id="xtick_1">
     <g id="line2d_1">
      <path d="M 88.021984 221.272 
L 88.021984 41.856 
" clip-path="url(#p2a230a0ed5)" style="fill: none; stroke: #b0b0b0; stroke-opacity: 0.25; stroke-width: 0.8; stroke-linecap: square"/>
     </g>
     <g id="line2d_2">
      <defs>
       <path id="mec39d388d1" d="M 0 0 
L 0 3.5 
" style="stroke: #000000; stroke-width: 0.8"/>
      </defs>
      <g>
       <use xlink:href="#mec39d388d1" x="88.021984" y="221.272" style="stroke: #000000; stroke-width: 0.8"/>
      </g>
     </g>
     <g id="text_1">
      <!-- 0 -->
      <g transform="translate(84.840734 235.870437) scale(0.1 -0.1)">
       <defs>
        <path id="DejaVuSans-30" d="M 2034 4250 
Q 1547 4250 1301 3770 
Q 1056 3291 1056 2328 
Q 1056 1369 1301 889 
Q 1547 409 2034 409 
Q 2525 409 2770 889 
Q 3016 1369 3016 2328 
Q 3016 3291 2770 3770 
Q 2525 4250 2034 4250 
z
M 2034 4750 
Q 2819 4750 3233 4129 
Q 3647 3509 3647 2328 
Q 3647 1150 3233 529 
Q 2819 -91 2034 -91 
Q 1250 -91 836 529 
Q 422 1150 422 2328 
Q 422 3509 836 4129 
Q 1250 4750 2034 4750 
z
" transform="scale(0.015625)"/>
       </defs>
       <use xlink:href="#DejaVuSans-30"/>
      </g>
     </g>
    </g>
    <g id="xtick_2">
     <g id="line2d_3">
      <path d="M 190.935047 221.272 
L 190.935047 41.856 
" clip-path="url(#p2a230a0ed5)" style="fill: none; stroke: #b0b0b0; stroke-opacity: 0.25; stroke-width: 0.8; stroke-linecap: square"/>
     </g>
     <g id="line2d_4">
      <g>
       <use xlink:href="#mec39d388d1" x="190.935047" y="221.272" style="stroke: #000000; stroke-width: 0.8"/>
      </g>
     </g>
     <g id="text_2">
      <!-- 2 -->
      <g transform="translate(187.753797 235.870437) scale(0.1 -0.1)">
       <defs>
        <path id="DejaVuSans-32" d="M 1228 531 
L 3431 531 
L 3431 0 
L 469 0 
L 469 531 
Q 828 903 1448 1529 
Q 2069 2156 2228 2338 
Q 2531 2678 2651 2914 
Q 2772 3150 2772 3378 
Q 2772 3750 2511 3984 
Q 2250 4219 1831 4219 
Q 1534 4219 1204 4116 
Q 875 4013 500 3803 
L 500 4441 
Q 881 4594 1212 4672 
Q 1544 4750 1819 4750 
Q 2544 4750 2975 4387 
Q 3406 4025 3406 3419 
Q 3406 3131 3298 2873 
Q 3191 2616 2906 2266 
Q 2828 2175 2409 1742 
Q 1991 1309 1228 531 
z
" transform="scale(0.015625)"/>
       </defs>
       <use xlink:href="#DejaVuSans-32"/>
      </g>
     </g>
    </g>
    <g id="xtick_3">
     <g id="line2d_5">
      <path d="M 293.84811 221.272 
L 293.84811 41.856 
" clip-path="url(#p2a230a0ed5)" style="fill: none; stroke: #b0b0b0; stroke-opacity: 0.25; stroke-width: 0.8; stroke-linecap: square"/>
     </g>
     <g id="line2d_6">
      <g>
       <use xlink:href="#mec39d388d1" x="293.84811" y="221.272" style="stroke: #000000; stroke-width: 0.8"/>
      </g>
     </g>
     <g id="text_3">
      <!-- 4 -->
      <g transform="translate(290.66686 235.870437) scale(0.1 -0.1)">
       <defs>
        <path id="DejaVuSans-34" d="M 2419 4116 
L 825 1625 
L 2419 1625 
L 2419 4116 
z
M 2253 4666 
L 3047 4666 
L 3047 1625 
L 3713 1625 
L 3713 1100 
L 3047 1100 
L 3047 0 
L 2419 0 
L 2419 1100 
L 313 1100 
L 313 1709 
L 2253 4666 
z
" transform="scale(0.015625)"/>
       </defs>
       <use xlink:href="#DejaVuSans-34"/>
      </g>
     </g>
    </g>
    <g id="xtick_4">
     <g id="line2d_7">
      <path d="M 396.761173 221.272 
L 396.761173 41.856 
" clip-path="url(#p2a230a0ed5)" style="fill: none; stroke: #b0b0b0; stroke-opacity: 0.25; stroke-width: 0.8; stroke-linecap: square"/>
     </g>
     <g id="line2d_8">
      <g>
       <use xlink:href="#mec39d388d1" x="396.761173" y="221.272" style="stroke: #000000; stroke-width: 0.8"/>
      </g>
     </g>
     <g id="text_4">
      <!-- 6 -->
      <g transform="translate(393.579923 235.870437) scale(0.1 -0.1)">
       <defs>
        <path id="DejaVuSans-36" d="M 2113 2584 
Q 1688 2584 1439 2293 
Q 1191 2003 1191 1497 
Q 1191 994 1439 701 
Q 1688 409 2113 409 
Q 2538 409 2786 701 
Q 3034 994 3034 1497 
Q 3034 2003 2786 2293 
Q 2538 2584 2113 2584 
z
M 3366 4563 
L 3366 3988 
Q 3128 4100 2886 4159 
Q 2644 4219 2406 4219 
Q 1781 4219 1451 3797 
Q 1122 3375 1075 2522 
Q 1259 2794 1537 2939 
Q 1816 3084 2150 3084 
Q 2853 3084 3261 2657 
Q 3669 2231 3669 1497 
Q 3669 778 3244 343 
Q 2819 -91 2113 -91 
Q 1303 -91 875 529 
Q 447 1150 447 2328 
Q 447 3434 972 4092 
Q 1497 4750 2381 4750 
Q 2619 4750 2861 4703 
Q 3103 4656 3366 4563 
z
" transform="scale(0.015625)"/>
       </defs>
       <use xlink:href="#DejaVuSans-36"/>
      </g>
     </g>
    </g>
    <g id="xtick_5">
     <g id="line2d_9">
      <path d="M 499.674236 221.272 
L 499.674236 41.856 
" clip-path="url(#p2a230a0ed5)" style="fill: none; stroke: #b0b0b0; stroke-opacity: 0.25; stroke-width: 0.8; stroke-linecap: square"/>
     </g>
     <g id="line2d_10">
      <g>
       <use xlink:href="#mec39d388d1" x="499.674236" y="221.272" style="stroke: #000000; stroke-width: 0.8"/>
      </g>
     </g>
     <g id="text_5">
      <!-- 8 -->
      <g transform="translate(496.492986 235.870437) scale(0.1 -0.1)">
       <defs>
        <path id="DejaVuSans-38" d="M 2034 2216 
Q 1584 2216 1326 1975 
Q 1069 1734 1069 1313 
Q 1069 891 1326 650 
Q 1584 409 2034 409 
Q 2484 409 2743 651 
Q 3003 894 3003 1313 
Q 3003 1734 2745 1975 
Q 2488 2216 2034 2216 
z
M 1403 2484 
Q 997 2584 770 2862 
Q 544 3141 544 3541 
Q 544 4100 942 4425 
Q 1341 4750 2034 4750 
Q 2731 4750 3128 4425 
Q 3525 4100 3525 3541 
Q 3525 3141 3298 2862 
Q 3072 2584 2669 2484 
Q 3125 2378 3379 2068 
Q 3634 1759 3634 1313 
Q 3634 634 3220 271 
Q 2806 -91 2034 -91 
Q 1263 -91 848 271 
Q 434 634 434 1313 
Q 434 1759 690 2068 
Q 947 2378 1403 2484 
z
M 1172 3481 
Q 1172 3119 1398 2916 
Q 1625 2713 2034 2713 
Q 2441 2713 2670 2916 
Q 2900 3119 2900 3481 
Q 2900 3844 2670 4047 
Q 2441 4250 2034 4250 
Q 1625 4250 1398 4047 
Q 1172 3844 1172 3481 
z
" transform="scale(0.015625)"/>
       </defs>
       <use xlink:href="#DejaVuSans-38"/>
      </g>
     </g>
    </g>
    <g id="xtick_6">
     <g id="line2d_11">
      <path d="M 602.587299 221.272 
L 602.587299 41.856 
" clip-path="url(#p2a230a0ed5)" style="fill: none; stroke: #b0b0b0; stroke-opacity: 0.25; stroke-width: 0.8; stroke-linecap: square"/>
     </g>
     <g id="line2d_12">
      <g>
       <use xlink:href="#mec39d388d1" x="602.587299" y="221.272" style="stroke: #000000; stroke-width: 0.8"/>
      </g>
     </g>
     <g id="text_6">
      <!-- 10 -->
      <g transform="translate(596.224799 235.870437) scale(0.1 -0.1)">
       <defs>
        <path id="DejaVuSans-31" d="M 794 531 
L 1825 531 
L 1825 4091 
L 703 3866 
L 703 4441 
L 1819 4666 
L 2450 4666 
L 2450 531 
L 3481 531 
L 3481 0 
L 794 0 
L 794 531 
z
" transform="scale(0.015625)"/>
       </defs>
       <use xlink:href="#DejaVuSans-31"/>
       <use xlink:href="#DejaVuSans-30" transform="translate(63.623047 0)"/>
      </g>
     </g>
    </g>
    <g id="text_7">
     <!-- t [arb.] -->
     <g transform="translate(327.908235 249.548563) scale(0.1 -0.1)">
      <defs>
       <path id="DejaVuSans-74" d="M 1172 4494 
L 1172 3500 
L 2356 3500 
L 2356 3053 
L 1172 3053 
L 1172 1153 
Q 1172 725 1289 603 
Q 1406 481 1766 481 
L 2356 481 
L 2356 0 
L 1766 0 
Q 1100 0 847 248 
Q 594 497 594 1153 
L 594 3053 
L 172 3053 
L 172 3500 
L 594 3500 
L 594 4494 
L 1172 4494 
z
" transform="scale(0.015625)"/>
       <path id="DejaVuSans-20" transform="scale(0.015625)"/>
       <path id="DejaVuSans-5b" d="M 550 4863 
L 1875 4863 
L 1875 4416 
L 1125 4416 
L 1125 -397 
L 1875 -397 
L 1875 -844 
L 550 -844 
L 550 4863 
z
" transform="scale(0.015625)"/>
       <path id="DejaVuSans-61" d="M 2194 1759 
Q 1497 1759 1228 1600 
Q 959 1441 959 1056 
Q 959 750 1161 570 
Q 1363 391 1709 391 
Q 2188 391 2477 730 
Q 2766 1069 2766 1631 
L 2766 1759 
L 2194 1759 
z
M 3341 1997 
L 3341 0 
L 2766 0 
L 2766 531 
Q 2569 213 2275 61 
Q 1981 -91 1556 -91 
Q 1019 -91 701 211 
Q 384 513 384 1019 
Q 384 1609 779 1909 
Q 1175 2209 1959 2209 
L 2766 2209 
L 2766 2266 
Q 2766 2663 2505 2880 
Q 2244 3097 1772 3097 
Q 1472 3097 1187 3025 
Q 903 2953 641 2809 
L 641 3341 
Q 956 3463 1253 3523 
Q 1550 3584 1831 3584 
Q 2591 3584 2966 3190 
Q 3341 2797 3341 1997 
z
" transform="scale(0.015625)"/>
       <path id="DejaVuSans-72" d="M 2631 2963 
Q 2534 3019 2420 3045 
Q 2306 3072 2169 3072 
Q 1681 3072 1420 2755 
Q 1159 2438 1159 1844 
L 1159 0 
L 581 0 
L 581 3500 
L 1159 3500 
L 1159 2956 
Q 1341 3275 1631 3429 
Q 1922 3584 2338 3584 
Q 2397 3584 2469 3576 
Q 2541 3569 2628 3553 
L 2631 2963 
z
" transform="scale(0.015625)"/>
       <path id="DejaVuSans-62" d="M 3116 1747 
Q 3116 2381 2855 2742 
Q 2594 3103 2138 3103 
Q 1681 3103 1420 2742 
Q 1159 2381 1159 1747 
Q 1159 1113 1420 752 
Q 1681 391 2138 391 
Q 2594 391 2855 752 
Q 3116 1113 3116 1747 
z
M 1159 2969 
Q 1341 3281 1617 3432 
Q 1894 3584 2278 3584 
Q 2916 3584 3314 3078 
Q 3713 2572 3713 1747 
Q 3713 922 3314 415 
Q 2916 -91 2278 -91 
Q 1894 -91 1617 61 
Q 1341 213 1159 525 
L 1159 0 
L 581 0 
L 581 4863 
L 1159 4863 
L 1159 2969 
z
" transform="scale(0.015625)"/>
       <path id="DejaVuSans-2e" d="M 684 794 
L 1344 794 
L 1344 0 
L 684 0 
L 684 794 
z
" transform="scale(0.015625)"/>
       <path id="DejaVuSans-5d" d="M 1947 4863 
L 1947 -844 
L 622 -844 
L 622 -397 
L 1369 -397 
L 1369 4416 
L 622 4416 
L 622 4863 
L 1947 4863 
z
" transform="scale(0.015625)"/>
      </defs>
      <use xlink:href="#DejaVuSans-74"/>
      <use xlink:href="#DejaVuSans-20" transform="translate(39.208984 0)"/>
      <use xlink:href="#DejaVuSans-5b" transform="translate(70.996094 0)"/>
      <use xlink:href="#DejaVuSans-61" transform="translate(110.009766 0)"/>
      <use xlink:href="#DejaVuSans-72" transform="translate(171.289062 0)"/>
      <use xlink:href="#DejaVuSans-62" transform="translate(212.402344 0)"/>
      <use xlink:href="#DejaVuSans-2e" transform="translate(275.878906 0)"/>
      <use xlink:href="#DejaVuSans-5d" transform="translate(307.666016 0)"/>
     </g>
    </g>
   </g>
   <g id="matplotlib.axis_2">
    <g id="ytick_1">
     <g id="line2d_13">
      <path d="M 62.3 202.375692 
L 628.183658 202.375692 
" clip-path="url(#p2a230a0ed5)" style="fill: none; stroke: #b0b0b0; stroke-opacity: 0.25; stroke-width: 0.8; stroke-linecap: square"/>
     </g>
     <g id="line2d_14">
      <defs>
       <path id="mafa9968ec6" d="M 0 0 
L -3.5 0 
" style="stroke: #000000; stroke-width: 0.8"/>
      </defs>
      <g>
       <use xlink:href="#mafa9968ec6" x="62.3" y="202.375692" style="stroke: #000000; stroke-width: 0.8"/>
      </g>
     </g>
     <g id="text_8">
      <!-- −0.75 -->
      <g transform="translate(24.654688 206.174911) scale(0.1 -0.1)">
       <defs>
        <path id="DejaVuSans-2212" d="M 678 2272 
L 4684 2272 
L 4684 1741 
L 678 1741 
L 678 2272 
z
" transform="scale(0.015625)"/>
        <path id="DejaVuSans-37" d="M 525 4666 
L 3525 4666 
L 3525 4397 
L 1831 0 
L 1172 0 
L 2766 4134 
L 525 4134 
L 525 4666 
z
" transform="scale(0.015625)"/>
        <path id="DejaVuSans-35" d="M 691 4666 
L 3169 4666 
L 3169 4134 
L 1269 4134 
L 1269 2991 
Q 1406 3038 1543 3061 
Q 1681 3084 1819 3084 
Q 2600 3084 3056 2656 
Q 3513 2228 3513 1497 
Q 3513 744 3044 326 
Q 2575 -91 1722 -91 
Q 1428 -91 1123 -41 
Q 819 9 494 109 
L 494 744 
Q 775 591 1075 516 
Q 1375 441 1709 441 
Q 2250 441 2565 725 
Q 2881 1009 2881 1497 
Q 2881 1984 2565 2268 
Q 2250 2553 1709 2553 
Q 1456 2553 1204 2497 
Q 953 2441 691 2322 
L 691 4666 
z
" transform="scale(0.015625)"/>
       </defs>
       <use xlink:href="#DejaVuSans-2212"/>
       <use xlink:href="#DejaVuSans-30" transform="translate(83.789062 0)"/>
       <use xlink:href="#DejaVuSans-2e" transform="translate(147.412109 0)"/>
       <use xlink:href="#DejaVuSans-37" transform="translate(179.199219 0)"/>
       <use xlink:href="#DejaVuSans-35" transform="translate(242.822266 0)"/>
      </g>
     </g>
    </g>
    <g id="ytick_2">
     <g id="line2d_15">
      <path d="M 62.3 178.771797 
L 628.183658 178.771797 
" clip-path="url(#p2a230a0ed5)" style="fill: none; stroke: #b0b0b0; stroke-opacity: 0.25; stroke-width: 0.8; stroke-linecap: square"/>
     </g>
     <g id="line2d_16">
      <g>
       <use xlink:href="#mafa9968ec6" x="62.3" y="178.771797" style="stroke: #000000; stroke-width: 0.8"/>
      </g>
     </g>
     <g id="text_9">
      <!-- −0.50 -->
      <g transform="translate(24.654688 182.571015) scale(0.1 -0.1)">
       <use xlink:href="#DejaVuSans-2212"/>
       <use xlink:href="#DejaVuSans-30" transform="translate(83.789062 0)"/>
       <use xlink:href="#DejaVuSans-2e" transform="translate(147.412109 0)"/>
       <use xlink:href="#DejaVuSans-35" transform="translate(179.199219 0)"/>
       <use xlink:href="#DejaVuSans-30" transform="translate(242.822266 0)"/>
      </g>
     </g>
    </g>
    <g id="ytick_3">
     <g id="line2d_17">
      <path d="M 62.3 155.167901 
L 628.183658 155.167901 
" clip-path="url(#p2a230a0ed5)" style="fill: none; stroke: #b0b0b0; stroke-opacity: 0.25; stroke-width: 0.8; stroke-linecap: square"/>
     </g>
     <g id="line2d_18">
      <g>
       <use xlink:href="#mafa9968ec6" x="62.3" y="155.167901" style="stroke: #000000; stroke-width: 0.8"/>
      </g>
     </g>
     <g id="text_10">
      <!-- −0.25 -->
      <g transform="translate(24.654688 158.96712) scale(0.1 -0.1)">
       <use xlink:href="#DejaVuSans-2212"/>
       <use xlink:href="#DejaVuSans-30" transform="translate(83.789062 0)"/>
       <use xlink:href="#DejaVuSans-2e" transform="translate(147.412109 0)"/>
       <use xlink:href="#DejaVuSans-32" transform="translate(179.199219 0)"/>
       <use xlink:href="#DejaVuSans-35" transform="translate(242.822266 0)"/>
      </g>
     </g>
    </g>
    <g id="ytick_4">
     <g id="line2d_19">
      <path d="M 62.3 131.564006 
L 628.183658 131.564006 
" clip-path="url(#p2a230a0ed5)" style="fill: none; stroke: #b0b0b0; stroke-opacity: 0.25; stroke-width: 0.8; stroke-linecap: square"/>
     </g>
     <g id="line2d_20">
      <g>
       <use xlink:href="#mafa9968ec6" x="62.3" y="131.564006" style="stroke: #000000; stroke-width: 0.8"/>
      </g>
     </g>
     <g id="text_11">
      <!-- 0.00 -->
      <g transform="translate(33.034375 135.363225) scale(0.1 -0.1)">
       <use xlink:href="#DejaVuSans-30"/>
       <use xlink:href="#DejaVuSans-2e" transform="translate(63.623047 0)"/>
       <use xlink:href="#DejaVuSans-30" transform="translate(95.410156 0)"/>
       <use xlink:href="#DejaVuSans-30" transform="translate(159.033203 0)"/>
      </g>
     </g>
    </g>
    <g id="ytick_5">
     <g id="line2d_21">
      <path d="M 62.3 107.960111 
L 628.183658 107.960111 
" clip-path="url(#p2a230a0ed5)" style="fill: none; stroke: #b0b0b0; stroke-opacity: 0.25; stroke-width: 0.8; stroke-linecap: square"/>
     </g>
     <g id="line2d_22">
      <g>
       <use xlink:href="#mafa9968ec6" x="62.3" y="107.960111" style="stroke: #000000; stroke-width: 0.8"/>
      </g>
     </g>
     <g id="text_12">
      <!-- 0.25 -->
      <g transform="translate(33.034375 111.75933) scale(0.1 -0.1)">
       <use xlink:href="#DejaVuSans-30"/>
       <use xlink:href="#DejaVuSans-2e" transform="translate(63.623047 0)"/>
       <use xlink:href="#DejaVuSans-32" transform="translate(95.410156 0)"/>
       <use xlink:href="#DejaVuSans-35" transform="translate(159.033203 0)"/>
      </g>
     </g>
    </g>
    <g id="ytick_6">
     <g id="line2d_23">
      <path d="M 62.3 84.356216 
L 628.183658 84.356216 
" clip-path="url(#p2a230a0ed5)" style="fill: none; stroke: #b0b0b0; stroke-opacity: 0.25; stroke-width: 0.8; stroke-linecap: square"/>
     </g>
     <g id="line2d_24">
      <g>
       <use xlink:href="#mafa9968ec6" x="62.3" y="84.356216" style="stroke: #000000; stroke-width: 0.8"/>
      </g>
     </g>
     <g id="text_13">
      <!-- 0.50 -->
      <g transform="translate(33.034375 88.155434) scale(0.1 -0.1)">
       <use xlink:href="#DejaVuSans-30"/>
       <use xlink:href="#DejaVuSans-2e" transform="translate(63.623047 0)"/>
       <use xlink:href="#DejaVuSans-35" transform="translate(95.410156 0)"/>
       <use xlink:href="#DejaVuSans-30" transform="translate(159.033203 0)"/>
      </g>
     </g>
    </g>
    <g id="ytick_7">
     <g id="line2d_25">
      <path d="M 62.3 60.75232 
L 628.183658 60.75232 
" clip-path="url(#p2a230a0ed5)" style="fill: none; stroke: #b0b0b0; stroke-opacity: 0.25; stroke-width: 0.8; stroke-linecap: square"/>
     </g>
     <g id="line2d_26">
      <g>
       <use xlink:href="#mafa9968ec6" x="62.3" y="60.75232" style="stroke: #000000; stroke-width: 0.8"/>
      </g>
     </g>
     <g id="text_14">
      <!-- 0.75 -->
      <g transform="translate(33.034375 64.551539) scale(0.1 -0.1)">
       <use xlink:href="#DejaVuSans-30"/>
       <use xlink:href="#DejaVuSans-2e" transform="translate(63.623047 0)"/>
       <use xlink:href="#DejaVuSans-37" transform="translate(95.410156 0)"/>
       <use xlink:href="#DejaVuSans-35" transform="translate(159.033203 0)"/>
      </g>
     </g>
    </g>
    <g id="text_15">
     <!-- [arb.] -->
     <g transform="translate(18.575 145.348375) rotate(-90) scale(0.1 -0.1)">
      <use xlink:href="#DejaVuSans-5b"/>
      <use xlink:href="#DejaVuSans-61" transform="translate(39.013672 0)"/>
      <use xlink:href="#DejaVuSans-72" transform="translate(100.292969 0)"/>
      <use xlink:href="#DejaVuSans-62" transform="translate(141.40625 0)"/>
      <use xlink:href="#DejaVuSans-2e" transform="translate(204.882812 0)"/>
      <use xlink:href="#DejaVuSans-5d" transform="translate(236.669922 0)"/>
     </g>
    </g>
   </g>
   <g id="line2d_27">
    <path d="M 88.021984 131.564006 
L 90.53451 93.462 
L 91.9164 75.765953 
L 92.92141 65.324973 
L 93.800794 58.225969 
L 94.554552 53.820684 
L 95.182683 51.40754 
L 95.685189 50.327265 
L 96.062067 50.020317 
L 96.31332 50.056452 
L 96.564573 50.285168 
L 96.941452 50.988022 
L 97.443957 52.590349 
L 98.072088 55.639779 
L 98.825846 60.772386 
L 99.70523 68.650577 
L 100.71024 79.863267 
L 101.966503 96.562724 
L 103.850898 125.128496 
L 106.865929 170.974178 
L 108.247818 188.437066 
L 109.252829 198.659323 
L 110.132213 205.540154 
L 110.885971 209.743513 
L 111.514102 211.981121 
L 112.016607 212.918074 
L 112.393486 213.116727 
L 112.644739 213.008334 
L 113.021618 212.485141 
L 113.398497 211.531866 
L 113.901002 209.600899 
L 114.529133 206.15347 
L 115.282891 200.569752 
L 116.162275 192.213814 
L 117.292912 178.936512 
L 118.674801 159.715133 
L 121.187327 120.693784 
L 123.197348 90.858767 
L 124.453611 75.047076 
L 125.458621 64.751556 
L 126.338005 57.797768 
L 127.091763 53.526965 
L 127.719894 51.230779 
L 128.2224 50.246032 
L 128.599279 50.011283 
L 128.850531 50.095602 
L 129.22741 50.582807 
L 129.604289 51.500413 
L 130.106794 53.384645 
L 130.734926 56.775599 
L 131.488683 62.295491 
L 132.368067 70.584105 
L 133.373078 82.196855 
L 134.754967 101.100829 
L 136.890614 134.041829 
L 139.277514 170.103796 
L 140.659403 187.72272 
L 141.664414 198.091125 
L 142.543798 205.117613 
L 143.297555 209.455703 
L 143.925687 211.81038 
L 144.428192 212.842887 
L 144.805071 213.113721 
L 145.056324 213.05348 
L 145.307576 212.800703 
L 145.684455 212.061959 
L 146.18696 210.412457 
L 146.815092 207.305774 
L 147.56885 202.108087 
L 148.448234 194.160702 
L 149.453244 182.880239 
L 150.709507 166.116696 
L 152.593901 137.505 
L 155.608933 91.720371 
L 156.990822 74.336551 
L 157.995832 64.188012 
L 158.875216 57.380467 
L 159.628974 53.244778 
L 160.257106 51.065889 
L 160.633984 50.32722 
L 161.010863 50.02031 
L 161.262116 50.056469 
L 161.513369 50.285209 
L 161.890247 50.988101 
L 162.392753 52.590477 
L 163.020884 55.639965 
L 163.774642 60.772639 
L 164.654026 68.650902 
L 165.659036 79.863662 
L 166.915299 96.563185 
L 168.799694 125.129005 
L 171.814725 170.974625 
L 173.196614 188.437432 
L 174.201625 198.659613 
L 175.081009 205.540369 
L 175.834766 209.743658 
L 176.462898 211.981206 
L 176.965403 212.91811 
L 177.342282 213.116726 
L 177.593535 213.008308 
L 177.970414 212.485077 
L 178.347292 211.531766 
L 178.849798 209.600751 
L 179.477929 206.153264 
L 180.231687 200.569479 
L 181.111071 192.213473 
L 182.241708 178.936096 
L 183.623597 159.714654 
L 186.136123 120.693278 
L 188.146144 90.858324 
L 189.402407 75.046708 
L 190.407417 64.751263 
L 191.286801 57.79755 
L 192.040559 53.526816 
L 192.66869 51.230691 
L 193.171196 50.245993 
L 193.548074 50.011282 
L 193.799327 50.095625 
L 194.176206 50.582867 
L 194.553085 51.50051 
L 195.05559 53.38479 
L 195.683721 56.775802 
L 196.437479 62.295761 
L 197.316863 70.584444 
L 198.321874 82.197261 
L 199.703763 101.101303 
L 201.83941 134.04234 
L 204.22631 170.104246 
L 205.608199 187.72309 
L 206.613209 198.09142 
L 207.492593 205.117833 
L 208.246351 209.455854 
L 208.874483 211.810471 
L 209.376988 212.842928 
L 209.753867 213.113725 
L 210.005119 213.05346 
L 210.256372 212.800658 
L 210.633251 212.061877 
L 211.135756 210.412327 
L 211.763888 207.305585 
L 212.517645 202.107831 
L 213.397029 194.160375 
L 214.40204 182.879843 
L 215.658303 166.116233 
L 217.542697 137.504491 
L 220.557728 91.719926 
L 221.939618 74.336188 
L 222.944628 64.187724 
L 223.824012 57.380255 
L 224.57777 53.244635 
L 225.205901 51.065807 
L 225.58278 50.327175 
L 225.959659 50.020302 
L 226.210912 50.056487 
L 226.462164 50.285251 
L 226.839043 50.988179 
L 227.341548 52.590604 
L 227.96968 55.640151 
L 228.723438 60.772893 
L 229.602822 68.651227 
L 230.607832 79.864057 
L 231.864095 96.563646 
L 233.74849 125.129514 
L 236.763521 170.975072 
L 238.14541 188.437798 
L 239.15042 198.659903 
L 240.029805 205.540583 
L 240.783562 209.743803 
L 241.411694 211.981291 
L 241.914199 212.918145 
L 242.291078 213.116724 
L 242.542331 213.008281 
L 242.919209 212.485014 
L 243.296088 211.531665 
L 243.798593 209.600603 
L 244.426725 206.153057 
L 245.180483 200.569207 
L 246.059867 192.213131 
L 247.190504 178.93568 
L 248.572393 159.714174 
L 251.084919 120.692772 
L 253.09494 90.857882 
L 254.351202 75.04634 
L 255.356213 64.75097 
L 256.235597 57.797333 
L 256.989355 53.526668 
L 257.617486 51.230603 
L 258.119991 50.245954 
L 258.49687 50.01128 
L 258.748123 50.095648 
L 259.125002 50.582928 
L 259.501881 51.500607 
L 260.004386 53.384936 
L 260.632517 56.776006 
L 261.386275 62.29603 
L 262.265659 70.584783 
L 263.27067 82.197668 
L 264.652559 101.101777 
L 266.788206 134.04285 
L 269.175106 170.104696 
L 270.556995 187.72346 
L 271.562005 198.091715 
L 272.441389 205.118054 
L 273.195147 209.456005 
L 273.823279 211.810562 
L 274.325784 212.84297 
L 274.702663 213.11373 
L 274.953915 213.05344 
L 275.205168 212.800613 
L 275.582047 212.061796 
L 276.084552 210.412196 
L 276.712683 207.305396 
L 277.466441 202.107575 
L 278.345825 194.160048 
L 279.350836 182.879446 
L 280.607099 166.115771 
L 282.491493 137.503981 
L 285.506524 91.71948 
L 286.888414 74.335824 
L 287.893424 64.187436 
L 288.772808 57.380043 
L 289.526566 53.244493 
L 290.154697 51.065726 
L 290.531576 50.32713 
L 290.908455 50.020294 
L 291.159708 50.056504 
L 291.41096 50.285293 
L 291.787839 50.988258 
L 292.290344 52.590732 
L 292.918476 55.640338 
L 293.672234 60.773146 
L 294.551618 68.651552 
L 295.556628 79.864452 
L 296.812891 96.564108 
L 298.697286 125.130023 
L 301.712317 170.975519 
L 303.094206 188.438164 
L 304.099216 198.660194 
L 304.9786 205.540798 
L 305.732358 209.743949 
L 306.36049 211.981376 
L 306.862995 212.918181 
L 307.239874 213.116723 
L 307.491126 213.008255 
L 307.868005 212.48495 
L 308.244884 211.531565 
L 308.747389 209.600454 
L 309.375521 206.152851 
L 310.129279 200.568935 
L 311.008663 192.21279 
L 312.139299 178.935265 
L 313.521189 159.713695 
L 316.033715 120.692266 
L 318.043735 90.85744 
L 319.299998 75.045972 
L 320.305009 64.750677 
L 321.184393 57.797115 
L 321.938151 53.52652 
L 322.566282 51.230515 
L 323.068787 50.245915 
L 323.445666 50.011279 
L 323.696919 50.095672 
L 324.073798 50.582988 
L 324.450677 51.500704 
L 324.953182 53.385081 
L 325.581313 56.77621 
L 326.335071 62.2963 
L 327.214455 70.585122 
L 328.219465 82.198074 
L 329.601355 101.10225 
L 331.737002 134.04336 
L 334.123901 170.105146 
L 335.505791 187.723831 
L 336.510801 198.092011 
L 337.390185 205.118274 
L 338.143943 209.456156 
L 338.772074 211.810653 
L 339.27458 212.843012 
L 339.651459 213.113735 
L 339.902711 213.05342 
L 340.153964 212.800568 
L 340.530843 212.061714 
L 341.033348 210.412066 
L 341.661479 207.305206 
L 342.415237 202.107319 
L 343.294621 194.159721 
L 344.299632 182.879049 
L 345.555895 166.115308 
L 347.440289 137.503472 
L 350.45532 91.719035 
L 351.837209 74.33546 
L 352.84222 64.187149 
L 353.721604 57.379831 
L 354.475362 53.244351 
L 355.103493 51.065644 
L 355.480372 50.327085 
L 355.857251 50.020286 
L 356.108504 50.056521 
L 356.359756 50.285335 
L 356.736635 50.988337 
L 357.23914 52.590859 
L 357.867272 55.640524 
L 358.62103 60.7734 
L 359.500414 68.651877 
L 360.505424 79.864847 
L 361.761687 96.564569 
L 363.646081 125.130532 
L 366.661113 170.975966 
L 368.043002 188.43853 
L 369.048012 198.660484 
L 369.927396 205.541013 
L 370.681154 209.744094 
L 371.309286 211.981461 
L 371.811791 212.918216 
L 372.18867 213.116721 
L 372.439922 213.008228 
L 372.816801 212.484887 
L 373.19368 211.531465 
L 373.696185 209.600306 
L 374.324317 206.152644 
L 375.078074 200.568663 
L 375.957459 192.212449 
L 377.088095 178.934849 
L 378.469985 159.713216 
L 380.98251 120.691759 
L 382.992531 90.856997 
L 384.248794 75.045604 
L 385.253805 64.750385 
L 386.133189 57.796897 
L 386.886946 53.526372 
L 387.515078 51.230427 
L 388.017583 50.245877 
L 388.394462 50.011277 
L 388.645715 50.095695 
L 389.022594 50.583048 
L 389.399472 51.500802 
L 389.901978 53.385226 
L 390.530109 56.776413 
L 391.283867 62.296569 
L 392.163251 70.585461 
L 393.168261 82.198481 
L 394.550151 101.102724 
L 396.685798 134.043871 
L 399.072697 170.105596 
L 400.454587 187.724201 
L 401.459597 198.092306 
L 402.338981 205.118495 
L 403.092739 209.456308 
L 403.72087 211.810744 
L 404.223376 212.843054 
L 404.600254 213.113739 
L 404.851507 213.0534 
L 405.10276 212.800523 
L 405.479639 212.061632 
L 405.982144 210.411936 
L 406.610275 207.305017 
L 407.364033 202.107062 
L 408.243417 194.159393 
L 409.248427 182.878652 
L 410.50469 166.114846 
L 412.389085 137.502963 
L 415.404116 91.718589 
L 416.786005 74.335096 
L 417.791016 64.186861 
L 418.6704 57.379619 
L 419.424158 53.244208 
L 420.052289 51.065562 
L 420.429168 50.32704 
L 420.806047 50.020279 
L 421.057299 50.056538 
L 421.308552 50.285377 
L 421.685431 50.988416 
L 422.187936 52.590987 
L 422.816068 55.640711 
L 423.569825 60.773653 
L 424.449209 68.652202 
L 425.45422 79.865242 
L 426.710483 96.56503 
L 428.594877 125.131041 
L 431.609908 170.976413 
L 432.991798 188.438896 
L 433.996808 198.660774 
L 434.876192 205.541228 
L 435.62995 209.744239 
L 436.258081 211.981546 
L 436.760587 212.918252 
L 437.137466 213.116719 
L 437.388718 213.008202 
L 437.765597 212.484824 
L 438.142476 211.531365 
L 438.644981 209.600158 
L 439.273113 206.152438 
L 440.02687 200.568391 
L 440.906254 192.212107 
L 442.036891 178.934434 
L 443.41878 159.712737 
L 445.931306 120.691253 
L 447.941327 90.856555 
L 449.19759 75.045236 
L 450.2026 64.750092 
L 451.081985 57.796679 
L 451.835742 53.526223 
L 452.463874 51.230339 
L 452.966379 50.245838 
L 453.343258 50.011276 
L 453.594511 50.095718 
L 453.971389 50.583109 
L 454.348268 51.500899 
L 454.850773 53.385372 
L 455.478905 56.776617 
L 456.232663 62.296839 
L 457.112047 70.5858 
L 458.117057 82.198887 
L 459.498946 101.103197 
L 461.634594 134.044381 
L 464.021493 170.106046 
L 465.403382 187.724571 
L 466.408393 198.092601 
L 467.287777 205.118715 
L 468.041535 209.456459 
L 468.669666 211.810835 
L 469.172171 212.843096 
L 469.54905 213.113744 
L 469.800303 213.05338 
L 470.051555 212.800478 
L 470.428434 212.06155 
L 470.93094 210.411805 
L 471.559071 207.304828 
L 472.312829 202.106806 
L 473.192213 194.159066 
L 474.197223 182.878255 
L 475.453486 166.114383 
L 477.337881 137.502454 
L 480.352912 91.718144 
L 481.734801 74.334733 
L 482.739812 64.186573 
L 483.619196 57.379407 
L 484.372953 53.244066 
L 485.001085 51.06548 
L 485.377964 50.326995 
L 485.754843 50.020271 
L 486.006095 50.056555 
L 486.257348 50.285419 
L 486.634227 50.988495 
L 487.136732 52.591114 
L 487.764863 55.640897 
L 488.518621 60.773907 
L 489.398005 68.652526 
L 490.403016 79.865637 
L 491.659279 96.565491 
L 493.543673 125.13155 
L 496.558704 170.97686 
L 497.940594 188.439262 
L 498.945604 198.661064 
L 499.824988 205.541443 
L 500.578746 209.744385 
L 501.206877 211.981631 
L 501.709382 212.918288 
L 502.086261 213.116718 
L 502.337514 213.008176 
L 502.714393 212.48476 
L 503.091272 211.531265 
L 503.593777 209.600009 
L 504.221908 206.152232 
L 504.975666 200.568119 
L 505.85505 192.211766 
L 506.985687 178.934018 
L 508.367576 159.712258 
L 510.880102 120.690747 
L 512.890123 90.856112 
L 514.146386 75.044868 
L 515.151396 64.749799 
L 516.03078 57.796462 
L 516.784538 53.526075 
L 517.41267 51.230251 
L 517.915175 50.245799 
L 518.292054 50.011274 
L 518.543306 50.095741 
L 518.920185 50.583169 
L 519.297064 51.500996 
L 519.799569 53.385517 
L 520.427701 56.77682 
L 521.181459 62.297108 
L 522.060843 70.586139 
L 523.065853 82.199293 
L 524.447742 101.103671 
L 526.583389 134.044891 
L 528.970289 170.106496 
L 530.352178 187.724941 
L 531.357189 198.092897 
L 532.236573 205.118936 
L 532.990331 209.45661 
L 533.618462 211.810927 
L 534.120967 212.843137 
L 534.497846 213.113748 
L 534.749099 213.053359 
L 535.000351 212.800433 
L 535.37723 212.061468 
L 535.879735 210.411675 
L 536.507867 207.304638 
L 537.261625 202.10655 
L 538.141009 194.158739 
L 539.146019 182.877858 
L 540.402282 166.113921 
L 542.286677 137.501944 
L 545.301708 91.717698 
L 546.683597 74.334369 
L 547.688607 64.186286 
L 548.567992 57.379195 
L 549.321749 53.243924 
L 549.949881 51.065398 
L 550.32676 50.32695 
L 550.703639 50.020263 
L 550.954891 50.056572 
L 551.206144 50.285461 
L 551.583023 50.988574 
L 552.085528 52.591241 
L 552.713659 55.641083 
L 553.467417 60.77416 
L 554.346801 68.652851 
L 555.351812 79.866032 
L 556.608075 96.565952 
L 558.492469 125.132059 
L 561.5075 170.977307 
L 562.889389 188.439628 
L 563.8944 198.661354 
L 564.773784 205.541658 
L 565.527542 209.74453 
L 566.155673 211.981715 
L 566.658178 212.918323 
L 567.035057 213.116716 
L 567.28631 213.008149 
L 567.663189 212.484697 
L 568.040068 211.531164 
L 568.542573 209.599861 
L 569.170704 206.152025 
L 569.924462 200.567847 
L 570.803846 192.211425 
L 571.934483 178.933602 
L 573.316372 159.711778 
L 575.828898 120.690241 
L 577.838919 90.85567 
L 579.095182 75.0445 
L 580.100192 64.749506 
L 580.979576 57.796244 
L 581.733334 53.525927 
L 582.361466 51.230163 
L 582.863971 50.24576 
L 583.24085 50.011273 
L 583.492102 50.095765 
L 583.868981 50.58323 
L 584.24586 51.501093 
L 584.748365 53.385662 
L 585.376497 56.777024 
L 586.130254 62.297378 
L 587.009639 70.586478 
L 588.014649 82.1997 
L 589.396538 101.104145 
L 591.532185 134.045402 
L 593.919085 170.106946 
L 595.300974 187.725312 
L 596.305985 198.093192 
L 597.185369 205.119156 
L 597.939126 209.456761 
L 598.567258 211.811018 
L 599.069763 212.843179 
L 599.446642 213.113753 
L 599.697895 213.053339 
L 599.949147 212.800388 
L 600.326026 212.061386 
L 600.828531 210.411544 
L 601.456663 207.304449 
L 602.210421 202.106294 
L 602.461673 200.034364 
L 602.461673 200.034364 
" clip-path="url(#p2a230a0ed5)" style="fill: none; stroke: #1f77b4; stroke-width: 1.5; stroke-linecap: square"/>
   </g>
   <g id="line2d_28">
    <path d="M 88.021984 131.564006 
L 89.655126 131.44693 
L 91.288268 131.108952 
L 93.172663 130.49288 
L 96.062067 129.276041 
L 99.328351 127.950175 
L 101.212746 127.42016 
L 102.845888 127.18096 
L 104.353403 127.169431 
L 105.986545 127.390417 
L 107.619687 127.838594 
L 109.504081 128.587731 
L 112.393486 130.017132 
L 115.785396 131.644539 
L 117.669791 132.306954 
L 119.302933 132.661229 
L 120.936074 132.782455 
L 122.569216 132.66718 
L 124.327984 132.302115 
L 126.338005 131.646989 
L 133.373078 129.118889 
L 135.00622 128.874488 
L 136.639362 128.858599 
L 138.272503 129.082041 
L 139.905645 129.531911 
L 141.79004 130.285149 
L 144.553818 131.665116 
L 148.196981 133.449884 
L 150.081375 134.124039 
L 151.714517 134.486112 
L 153.347659 134.612073 
L 154.980801 134.497595 
L 156.613943 134.161964 
L 158.623964 133.507428 
L 162.1415 132.057563 
L 164.779652 131.087464 
L 166.664047 130.633214 
L 168.297189 130.465011 
L 169.93033 130.530739 
L 171.563472 130.829449 
L 173.322241 131.383303 
L 175.583514 132.355511 
L 181.236697 134.931353 
L 182.995465 135.435628 
L 184.628607 135.676409 
L 186.136123 135.684552 
L 187.769265 135.462644 
L 189.528033 134.98291 
L 191.66368 134.147211 
L 198.070621 131.450017 
L 199.829389 131.049181 
L 201.462531 130.908075 
L 203.095673 131.003165 
L 204.728815 131.323607 
L 206.613209 131.928614 
L 209.251362 133.041276 
L 213.020151 134.621382 
L 214.904545 135.167254 
L 216.537687 135.420362 
L 218.045202 135.445208 
L 219.678344 135.239551 
L 221.311486 134.808033 
L 223.195881 134.080219 
L 226.085286 132.688648 
L 229.351569 131.163911 
L 231.235964 130.517751 
L 232.869106 130.175602 
L 234.502247 130.065963 
L 236.135389 130.193604 
L 237.894157 130.574313 
L 239.904178 131.251946 
L 247.190504 133.965694 
L 248.823645 134.215616 
L 250.456787 134.234826 
L 252.089929 134.014723 
L 253.723071 133.570415 
L 255.607465 132.828895 
L 258.49687 131.416671 
L 261.763154 129.868137 
L 263.647549 129.2088 
L 265.28069 128.856477 
L 266.913832 128.738686 
L 268.546974 128.861084 
L 270.180116 129.205681 
L 272.190137 129.874323 
L 275.45642 131.253223 
L 278.220199 132.327761 
L 280.104593 132.829354 
L 281.737735 133.042863 
L 283.370877 133.023213 
L 285.004019 132.768128 
L 286.762787 132.254993 
L 288.898434 131.378251 
L 295.431002 128.496891 
L 297.18977 128.071738 
L 298.822912 127.913391 
L 300.330427 127.982297 
L 301.963569 128.281426 
L 303.722337 128.828984 
L 306.109237 129.829456 
L 310.883036 131.896826 
L 312.767431 132.431513 
L 314.400573 132.66963 
L 316.033715 132.673415 
L 317.666856 132.443236 
L 319.425625 131.961451 
L 321.561272 131.132726 
L 327.71696 128.588368 
L 329.475728 128.190478 
L 331.10887 128.053542 
L 332.616386 128.141179 
L 334.249528 128.46196 
L 336.008296 129.03713 
L 338.269569 130.026204 
L 343.545874 132.43815 
L 345.430268 132.993385 
L 347.06341 133.243563 
L 348.696552 133.256758 
L 350.329694 133.036025 
L 352.088462 132.567353 
L 354.349735 131.709597 
L 359.877292 129.490182 
L 361.636061 129.075382 
L 363.269203 128.914703 
L 364.776718 128.977453 
L 366.40986 129.272327 
L 368.168628 129.825578 
L 370.304275 130.742698 
L 376.459964 133.545966 
L 378.218732 134.018682 
L 379.851874 134.225764 
L 381.359389 134.2037 
L 382.992531 133.955126 
L 384.751299 133.459368 
L 387.012573 132.575252 
L 392.288877 130.420258 
L 394.047645 129.981883 
L 395.680787 129.796265 
L 397.313929 129.84656 
L 398.947071 130.130936 
L 400.705839 130.669626 
L 402.967113 131.621421 
L 408.620296 134.137271 
L 410.379064 134.621272 
L 412.012206 134.843747 
L 413.519722 134.83622 
L 415.152863 134.599526 
L 416.911632 134.10738 
L 419.047279 133.262741 
L 425.202967 130.658814 
L 426.961735 130.239431 
L 428.594877 130.079633 
L 430.228019 130.157349 
L 431.861161 130.464425 
L 433.745555 131.06216 
L 436.258081 132.126949 
L 440.529376 133.959353 
L 442.41377 134.504161 
L 444.046912 134.752755 
L 445.554427 134.772732 
L 447.187569 134.563562 
L 448.946337 134.09164 
L 450.956358 133.305156 
L 454.9764 131.405327 
L 457.363299 130.432273 
L 459.122068 129.939422 
L 460.755209 129.706487 
L 462.388351 129.710937 
L 464.021493 129.949229 
L 465.780261 130.436191 
L 468.041535 131.315787 
L 473.443466 133.539246 
L 475.202234 133.981188 
L 476.835376 134.169041 
L 478.342891 134.13187 
L 479.976033 133.86393 
L 481.734801 133.337297 
L 483.870448 132.447238 
L 490.151763 129.639262 
L 491.910531 129.184286 
L 493.543673 128.993948 
L 495.051189 129.031283 
L 496.684331 129.295752 
L 498.443099 129.807378 
L 500.704372 130.709302 
L 505.85505 132.852473 
L 507.739445 133.336458 
L 509.372587 133.526166 
L 511.005729 133.479305 
L 512.63887 133.198157 
L 514.397639 132.663191 
L 516.658912 131.717233 
L 522.312095 129.223346 
L 524.070863 128.747815 
L 525.704005 128.533292 
L 527.211521 128.547843 
L 528.844663 128.79137 
L 530.603431 129.28949 
L 532.739078 130.138833 
L 538.76914 132.699679 
L 540.527908 133.130288 
L 542.16105 133.301677 
L 543.794192 133.235312 
L 545.427334 132.93799 
L 547.311729 132.347905 
L 549.698628 131.34231 
L 554.221175 129.385366 
L 556.105569 128.838109 
L 557.738711 128.587763 
L 559.371853 128.573605 
L 561.004995 128.798395 
L 562.763763 129.283359 
L 564.773784 130.077043 
L 571.808857 133.092647 
L 573.567625 133.468323 
L 575.200767 133.578981 
L 576.833908 133.450805 
L 578.46705 133.098715 
L 580.351445 132.463721 
L 583.24085 131.214465 
L 586.507133 129.848485 
L 588.391528 129.293128 
L 590.02467 129.029865 
L 591.657812 128.999974 
L 593.290953 129.208943 
L 595.049722 129.679795 
L 597.059742 130.464578 
L 601.079784 132.36117 
L 602.461673 132.957922 
L 602.461673 132.957922 
" clip-path="url(#p2a230a0ed5)" style="fill: none; stroke: #ff7f0e; stroke-width: 1.5; stroke-linecap: square"/>
   </g>
   <g id="patch_3">
    <path d="M 62.3 221.272 
L 62.3 41.856 
" style="fill: none; stroke: #000000; stroke-width: 0.8; stroke-linejoin: miter; stroke-linecap: square"/>
   </g>
   <g id="patch_4">
    <path d="M 628.183658 221.272 
L 628.183658 41.856 
" style="fill: none; stroke: #000000; stroke-width: 0.8; stroke-linejoin: miter; stroke-linecap: square"/>
   </g>
   <g id="patch_5">
    <path d="M 62.3 221.272 
L 628.183658 221.272 
" style="fill: none; stroke: #000000; stroke-width: 0.8; stroke-linejoin: miter; stroke-linecap: square"/>
   </g>
   <g id="patch_6">
    <path d="M 62.3 41.856 
L 628.183658 41.856 
" style="fill: none; stroke: #000000; stroke-width: 0.8; stroke-linejoin: miter; stroke-linecap: square"/>
   </g>
   <g id="text_16">
    <!-- Daily Useless RLC (2026-02-16) | verdict: feral -->
    <g transform="translate(206.158079 22.021875) scale(0.12 -0.12)">
     <defs>
      <path id="DejaVuSans-44" d="M 1259 4147 
L 1259 519 
L 2022 519 
Q 2988 519 3436 956 
Q 3884 1394 3884 2338 
Q 3884 3275 3436 3711 
Q 2988 4147 2022 4147 
L 1259 4147 
z
M 628 4666 
L 1925 4666 
Q 3281 4666 3915 4102 
Q 4550 3538 4550 2338 
Q 4550 1131 3912 565 
Q 3275 0 1925 0 
L 628 0 
L 628 4666 
z
" transform="scale(0.015625)"/>
      <path id="DejaVuSans-69" d="M 603 3500 
L 1178 3500 
L 1178 0 
L 603 0 
L 603 3500 
z
M 603 4863 
L 1178 4863 
L 1178 4134 
L 603 4134 
L 603 4863 
z
" transform="scale(0.015625)"/>
      <path id="DejaVuSans-6c" d="M 603 4863 
L 1178 4863 
L 1178 0 
L 603 0 
L 603 4863 
z
" transform="scale(0.015625)"/>
      <path id="DejaVuSans-79" d="M 2059 -325 
Q 1816 -950 1584 -1140 
Q 1353 -1331 966 -1331 
L 506 -1331 
L 506 -850 
L 844 -850 
Q 1081 -850 1212 -737 
Q 1344 -625 1503 -206 
L 1606 56 
L 191 3500 
L 800 3500 
L 1894 763 
L 2988 3500 
L 3597 3500 
L 2059 -325 
z
" transform="scale(0.015625)"/>
      <path id="DejaVuSans-55" d="M 556 4666 
L 1191 4666 
L 1191 1831 
Q 1191 1081 1462 751 
Q 1734 422 2344 422 
Q 2950 422 3222 751 
Q 3494 1081 3494 1831 
L 3494 4666 
L 4128 4666 
L 4128 1753 
Q 4128 841 3676 375 
Q 3225 -91 2344 -91 
Q 1459 -91 1007 375 
Q 556 841 556 1753 
L 556 4666 
z
" transform="scale(0.015625)"/>
      <path id="DejaVuSans-73" d="M 2834 3397 
L 2834 2853 
Q 2591 2978 2328 3040 
Q 2066 3103 1784 3103 
Q 1356 3103 1142 2972 
Q 928 2841 928 2578 
Q 928 2378 1081 2264 
Q 1234 2150 1697 2047 
L 1894 2003 
Q 2506 1872 2764 1633 
Q 3022 1394 3022 966 
Q 3022 478 2636 193 
Q 2250 -91 1575 -91 
Q 1294 -91 989 -36 
Q 684 19 347 128 
L 347 722 
Q 666 556 975 473 
Q 1284 391 1588 391 
Q 1994 391 2212 530 
Q 2431 669 2431 922 
Q 2431 1156 2273 1281 
Q 2116 1406 1581 1522 
L 1381 1569 
Q 847 1681 609 1914 
Q 372 2147 372 2553 
Q 372 3047 722 3315 
Q 1072 3584 1716 3584 
Q 2034 3584 2315 3537 
Q 2597 3491 2834 3397 
z
" transform="scale(0.015625)"/>
      <path id="DejaVuSans-65" d="M 3597 1894 
L 3597 1613 
L 953 1613 
Q 991 1019 1311 708 
Q 1631 397 2203 397 
Q 2534 397 2845 478 
Q 3156 559 3463 722 
L 3463 178 
Q 3153 47 2828 -22 
Q 2503 -91 2169 -91 
Q 1331 -91 842 396 
Q 353 884 353 1716 
Q 353 2575 817 3079 
Q 1281 3584 2069 3584 
Q 2775 3584 3186 3129 
Q 3597 2675 3597 1894 
z
M 3022 2063 
Q 3016 2534 2758 2815 
Q 2500 3097 2075 3097 
Q 1594 3097 1305 2825 
Q 1016 2553 972 2059 
L 3022 2063 
z
" transform="scale(0.015625)"/>
      <path id="DejaVuSans-52" d="M 2841 2188 
Q 3044 2119 3236 1894 
Q 3428 1669 3622 1275 
L 4263 0 
L 3584 0 
L 2988 1197 
Q 2756 1666 2539 1819 
Q 2322 1972 1947 1972 
L 1259 1972 
L 1259 0 
L 628 0 
L 628 4666 
L 2053 4666 
Q 2853 4666 3247 4331 
Q 3641 3997 3641 3322 
Q 3641 2881 3436 2590 
Q 3231 2300 2841 2188 
z
M 1259 4147 
L 1259 2491 
L 2053 2491 
Q 2509 2491 2742 2702 
Q 2975 2913 2975 3322 
Q 2975 3731 2742 3939 
Q 2509 4147 2053 4147 
L 1259 4147 
z
" transform="scale(0.015625)"/>
      <path id="DejaVuSans-4c" d="M 628 4666 
L 1259 4666 
L 1259 531 
L 3531 531 
L 3531 0 
L 628 0 
L 628 4666 
z
" transform="scale(0.015625)"/>
      <path id="DejaVuSans-43" d="M 4122 4306 
L 4122 3641 
Q 3803 3938 3442 4084 
Q 3081 4231 2675 4231 
Q 1875 4231 1450 3742 
Q 1025 3253 1025 2328 
Q 1025 1406 1450 917 
Q 1875 428 2675 428 
Q 3081 428 3442 575 
Q 3803 722 4122 1019 
L 4122 359 
Q 3791 134 3420 21 
Q 3050 -91 2638 -91 
Q 1578 -91 968 557 
Q 359 1206 359 2328 
Q 359 3453 968 4101 
Q 1578 4750 2638 4750 
Q 3056 4750 3426 4639 
Q 3797 4528 4122 4306 
z
" transform="scale(0.015625)"/>
      <path id="DejaVuSans-28" d="M 1984 4856 
Q 1566 4138 1362 3434 
Q 1159 2731 1159 2009 
Q 1159 1288 1364 580 
Q 1569 -128 1984 -844 
L 1484 -844 
Q 1016 -109 783 600 
Q 550 1309 550 2009 
Q 550 2706 781 3412 
Q 1013 4119 1484 4856 
L 1984 4856 
z
" transform="scale(0.015625)"/>
      <path id="DejaVuSans-2d" d="M 313 2009 
L 1997 2009 
L 1997 1497 
L 313 1497 
L 313 2009 
z
" transform="scale(0.015625)"/>
      <path id="DejaVuSans-29" d="M 513 4856 
L 1013 4856 
Q 1481 4119 1714 3412 
Q 1947 2706 1947 2009 
Q 1947 1309 1714 600 
Q 1481 -109 1013 -844 
L 513 -844 
Q 928 -128 1133 580 
Q 1338 1288 1338 2009 
Q 1338 2731 1133 3434 
Q 928 4138 513 4856 
z
" transform="scale(0.015625)"/>
      <path id="DejaVuSans-7c" d="M 1344 4891 
L 1344 -1509 
L 813 -1509 
L 813 4891 
L 1344 4891 
z
" transform="scale(0.015625)"/>
      <path id="DejaVuSans-76" d="M 191 3500 
L 800 3500 
L 1894 563 
L 2988 3500 
L 3597 3500 
L 2284 0 
L 1503 0 
L 191 3500 
z
" transform="scale(0.015625)"/>
      <path id="DejaVuSans-64" d="M 2906 2969 
L 2906 4863 
L 3481 4863 
L 3481 0 
L 2906 0 
L 2906 525 
Q 2725 213 2448 61 
Q 2172 -91 1784 -91 
Q 1150 -91 751 415 
Q 353 922 353 1747 
Q 353 2572 751 3078 
Q 1150 3584 1784 3584 
Q 2172 3584 2448 3432 
Q 2725 3281 2906 2969 
z
M 947 1747 
Q 947 1113 1208 752 
Q 1469 391 1925 391 
Q 2381 391 2643 752 
Q 2906 1113 2906 1747 
Q 2906 2381 2643 2742 
Q 2381 3103 1925 3103 
Q 1469 3103 1208 2742 
Q 947 2381 947 1747 
z
" transform="scale(0.015625)"/>
      <path id="DejaVuSans-63" d="M 3122 3366 
L 3122 2828 
Q 2878 2963 2633 3030 
Q 2388 3097 2138 3097 
Q 1578 3097 1268 2742 
Q 959 2388 959 1747 
Q 959 1106 1268 751 
Q 1578 397 2138 397 
Q 2388 397 2633 464 
Q 2878 531 3122 666 
L 3122 134 
Q 2881 22 2623 -34 
Q 2366 -91 2075 -91 
Q 1284 -91 818 406 
Q 353 903 353 1747 
Q 353 2603 823 3093 
Q 1294 3584 2113 3584 
Q 2378 3584 2631 3529 
Q 2884 3475 3122 3366 
z
" transform="scale(0.015625)"/>
      <path id="DejaVuSans-3a" d="M 750 794 
L 1409 794 
L 1409 0 
L 750 0 
L 750 794 
z
M 750 3309 
L 1409 3309 
L 1409 2516 
L 750 2516 
L 750 3309 
z
" transform="scale(0.015625)"/>
      <path id="DejaVuSans-66" d="M 2375 4863 
L 2375 4384 
L 1825 4384 
Q 1516 4384 1395 4259 
Q 1275 4134 1275 3809 
L 1275 3500 
L 2222 3500 
L 2222 3053 
L 1275 3053 
L 1275 0 
L 697 0 
L 697 3053 
L 147 3053 
L 147 3500 
L 697 3500 
L 697 3744 
Q 697 4328 969 4595 
Q 1241 4863 1831 4863 
L 2375 4863 
z
" transform="scale(0.015625)"/>
     </defs>
     <use xlink:href="#DejaVuSans-44"/>
     <use xlink:href="#DejaVuSans-61" transform="translate(77.001953 0)"/>
     <use xlink:href="#DejaVuSans-69" transform="translate(138.28125 0)"/>
     <use xlink:href="#DejaVuSans-6c" transform="translate(166.064453 0)"/>
     <use xlink:href="#DejaVuSans-79" transform="translate(193.847656 0)"/>
     <use xlink:href="#DejaVuSans-20" transform="translate(253.027344 0)"/>
     <use xlink:href="#DejaVuSans-55" transform="translate(284.814453 0)"/>
     <use xlink:href="#DejaVuSans-73" transform="translate(358.007812 0)"/>
     <use xlink:href="#DejaVuSans-65" transform="translate(410.107422 0)"/>
     <use xlink:href="#DejaVuSans-6c" transform="translate(471.630859 0)"/>
     <use xlink:href="#DejaVuSans-65" transform="translate(499.414062 0)"/>
     <use xlink:href="#DejaVuSans-73" transform="translate(560.9375 0)"/>
     <use xlink:href="#DejaVuSans-73" transform="translate(613.037109 0)"/>
     <use xlink:href="#DejaVuSans-20" transform="translate(665.136719 0)"/>
     <use xlink:href="#DejaVuSans-52" transform="translate(696.923828 0)"/>
     <use xlink:href="#DejaVuSans-4c" transform="translate(766.40625 0)"/>
     <use xlink:href="#DejaVuSans-43" transform="translate(822.119141 0)"/>
     <use xlink:href="#DejaVuSans-20" transform="translate(891.943359 0)"/>
     <use xlink:href="#DejaVuSans-28" transform="translate(923.730469 0)"/>
     <use xlink:href="#DejaVuSans-32" transform="translate(962.744141 0)"/>
     <use xlink:href="#DejaVuSans-30" transform="translate(1026.367188 0)"/>
     <use xlink:href="#DejaVuSans-32" transform="translate(1089.990234 0)"/>
     <use xlink:href="#DejaVuSans-36" transform="translate(1153.613281 0)"/>
     <use xlink:href="#DejaVuSans-2d" transform="translate(1217.236328 0)"/>
     <use xlink:href="#DejaVuSans-30" transform="translate(1253.320312 0)"/>
     <use xlink:href="#DejaVuSans-32" transform="translate(1316.943359 0)"/>
     <use xlink:href="#DejaVuSans-2d" transform="translate(1380.566406 0)"/>
     <use xlink:href="#DejaVuSans-31" transform="translate(1416.650391 0)"/>
     <use xlink:href="#DejaVuSans-36" transform="translate(1480.273438 0)"/>
     <use xlink:href="#DejaVuSans-29" transform="translate(1543.896484 0)"/>
     <use xlink:href="#DejaVuSans-20" transform="translate(1582.910156 0)"/>
     <use xlink:href="#DejaVuSans-7c" transform="translate(1614.697266 0)"/>
     <use xlink:href="#DejaVuSans-20" transform="translate(1648.388672 0)"/>
     <use xlink:href="#DejaVuSans-76" transform="translate(1680.175781 0)"/>
     <use xlink:href="#DejaVuSans-65" transform="translate(1739.355469 0)"/>
     <use xlink:href="#DejaVuSans-72" transform="translate(1800.878906 0)"/>
     <use xlink:href="#DejaVuSans-64" transform="translate(1840.242188 0)"/>
     <use xlink:href="#DejaVuSans-69" transform="translate(1903.71875 0)"/>
     <use xlink:href="#DejaVuSans-63" transform="translate(1931.501953 0)"/>
     <use xlink:href="#DejaVuSans-74" transform="translate(1986.482422 0)"/>
     <use xlink:href="#DejaVuSans-3a" transform="translate(2025.691406 0)"/>
     <use xlink:href="#DejaVuSans-20" transform="translate(2059.382812 0)"/>
     <use xlink:href="#DejaVuSans-66" transform="translate(2091.169922 0)"/>
     <use xlink:href="#DejaVuSans-65" transform="translate(2126.375 0)"/>
     <use xlink:href="#DejaVuSans-72" transform="translate(2187.898438 0)"/>
     <use xlink:href="#DejaVuSans-61" transform="translate(2229.011719 0)"/>
     <use xlink:href="#DejaVuSans-6c" transform="translate(2290.291016 0)"/>
    </g>
    <!-- Filter: band | Input: sine, sine (A=0.86, f=1.58 Hz) | R=0.290, L=1.00, C=0.50, ωn=1.41, ζ=0.102, Q=4.88 -->
    <g transform="translate(23.435579 35.856) scale(0.12 -0.12)">
     <defs>
      <path id="DejaVuSans-46" d="M 628 4666 
L 3309 4666 
L 3309 4134 
L 1259 4134 
L 1259 2759 
L 3109 2759 
L 3109 2228 
L 1259 2228 
L 1259 0 
L 628 0 
L 628 4666 
z
" transform="scale(0.015625)"/>
      <path id="DejaVuSans-6e" d="M 3513 2113 
L 3513 0 
L 2938 0 
L 2938 2094 
Q 2938 2591 2744 2837 
Q 2550 3084 2163 3084 
Q 1697 3084 1428 2787 
Q 1159 2491 1159 1978 
L 1159 0 
L 581 0 
L 581 3500 
L 1159 3500 
L 1159 2956 
Q 1366 3272 1645 3428 
Q 1925 3584 2291 3584 
Q 2894 3584 3203 3211 
Q 3513 2838 3513 2113 
z
" transform="scale(0.015625)"/>
      <path id="DejaVuSans-49" d="M 628 4666 
L 1259 4666 
L 1259 0 
L 628 0 
L 628 4666 
z
" transform="scale(0.015625)"/>
      <path id="DejaVuSans-70" d="M 1159 525 
L 1159 -1331 
L 581 -1331 
L 581 3500 
L 1159 3500 
L 1159 2969 
Q 1341 3281 1617 3432 
Q 1894 3584 2278 3584 
Q 2916 3584 3314 3078 
Q 3713 2572 3713 1747 
Q 3713 922 3314 415 
Q 2916 -91 2278 -91 
Q 1894 -91 1617 61 
Q 1341 213 1159 525 
z
M 3116 1747 
Q 3116 2381 2855 2742 
Q 2594 3103 2138 3103 
Q 1681 3103 1420 2742 
Q 1159 2381 1159 1747 
Q 1159 1113 1420 752 
Q 1681 391 2138 391 
Q 2594 391 2855 752 
Q 3116 1113 3116 1747 
z
" transform="scale(0.015625)"/>
      <path id="DejaVuSans-75" d="M 544 1381 
L 544 3500 
L 1119 3500 
L 1119 1403 
Q 1119 906 1312 657 
Q 1506 409 1894 409 
Q 2359 409 2629 706 
Q 2900 1003 2900 1516 
L 2900 3500 
L 3475 3500 
L 3475 0 
L 2900 0 
L 2900 538 
Q 2691 219 2414 64 
Q 2138 -91 1772 -91 
Q 1169 -91 856 284 
Q 544 659 544 1381 
z
M 1991 3584 
L 1991 3584 
z
" transform="scale(0.015625)"/>
      <path id="DejaVuSans-2c" d="M 750 794 
L 1409 794 
L 1409 256 
L 897 -744 
L 494 -744 
L 750 256 
L 750 794 
z
" transform="scale(0.015625)"/>
      <path id="DejaVuSans-41" d="M 2188 4044 
L 1331 1722 
L 3047 1722 
L 2188 4044 
z
M 1831 4666 
L 2547 4666 
L 4325 0 
L 3669 0 
L 3244 1197 
L 1141 1197 
L 716 0 
L 50 0 
L 1831 4666 
z
" transform="scale(0.015625)"/>
      <path id="DejaVuSans-3d" d="M 678 2906 
L 4684 2906 
L 4684 2381 
L 678 2381 
L 678 2906 
z
M 678 1631 
L 4684 1631 
L 4684 1100 
L 678 1100 
L 678 1631 
z
" transform="scale(0.015625)"/>
      <path id="DejaVuSans-48" d="M 628 4666 
L 1259 4666 
L 1259 2753 
L 3553 2753 
L 3553 4666 
L 4184 4666 
L 4184 0 
L 3553 0 
L 3553 2222 
L 1259 2222 
L 1259 0 
L 628 0 
L 628 4666 
z
" transform="scale(0.015625)"/>
      <path id="DejaVuSans-7a" d="M 353 3500 
L 3084 3500 
L 3084 2975 
L 922 459 
L 3084 459 
L 3084 0 
L 275 0 
L 275 525 
L 2438 3041 
L 353 3041 
L 353 3500 
z
" transform="scale(0.015625)"/>
      <path id="DejaVuSans-39" d="M 703 97 
L 703 672 
Q 941 559 1184 500 
Q 1428 441 1663 441 
Q 2288 441 2617 861 
Q 2947 1281 2994 2138 
Q 2813 1869 2534 1725 
Q 2256 1581 1919 1581 
Q 1219 1581 811 2004 
Q 403 2428 403 3163 
Q 403 3881 828 4315 
Q 1253 4750 1959 4750 
Q 2769 4750 3195 4129 
Q 3622 3509 3622 2328 
Q 3622 1225 3098 567 
Q 2575 -91 1691 -91 
Q 1453 -91 1209 -44 
Q 966 3 703 97 
z
M 1959 2075 
Q 2384 2075 2632 2365 
Q 2881 2656 2881 3163 
Q 2881 3666 2632 3958 
Q 2384 4250 1959 4250 
Q 1534 4250 1286 3958 
Q 1038 3666 1038 3163 
Q 1038 2656 1286 2365 
Q 1534 2075 1959 2075 
z
" transform="scale(0.015625)"/>
      <path id="DejaVuSans-3c9" d="M 1719 -91 
Q 422 -91 422 1766 
Q 422 2500 906 3500 
L 1525 3500 
Q 1078 2500 1078 1750 
Q 1078 397 1772 397 
Q 2406 397 2406 2078 
L 2938 2078 
Q 2938 397 3572 397 
Q 4266 397 4266 1750 
Q 4266 2500 3819 3500 
L 4438 3500 
Q 4922 2500 4922 1766 
Q 4922 -91 3625 -91 
Q 2775 -91 2672 844 
Q 2544 -91 1719 -91 
z
" transform="scale(0.015625)"/>
      <path id="DejaVuSans-3b6" d="M 2231 397 
Q 2644 394 2891 159 
Q 3153 -88 3153 -463 
Q 3153 -822 2922 -1072 
Q 2672 -1344 2163 -1344 
Q 2163 -1109 2163 -872 
Q 2378 -888 2509 -750 
Q 2609 -641 2609 -525 
Q 2609 -359 2509 -222 
Q 2413 -91 2231 -91 
Q 338 -91 334 1669 
Q 334 3206 2119 4284 
L 456 4284 
L 456 4863 
L 3175 4863 
L 3175 4284 
Q 913 3147 913 1669 
Q 913 397 2231 397 
z
" transform="scale(0.015625)"/>
      <path id="DejaVuSans-51" d="M 2522 4238 
Q 1834 4238 1429 3725 
Q 1025 3213 1025 2328 
Q 1025 1447 1429 934 
Q 1834 422 2522 422 
Q 3209 422 3611 934 
Q 4013 1447 4013 2328 
Q 4013 3213 3611 3725 
Q 3209 4238 2522 4238 
z
M 3406 84 
L 4238 -825 
L 3475 -825 
L 2784 -78 
Q 2681 -84 2626 -87 
Q 2572 -91 2522 -91 
Q 1538 -91 948 567 
Q 359 1225 359 2328 
Q 359 3434 948 4092 
Q 1538 4750 2522 4750 
Q 3503 4750 4090 4092 
Q 4678 3434 4678 2328 
Q 4678 1516 4351 937 
Q 4025 359 3406 84 
z
" transform="scale(0.015625)"/>
     </defs>
     <use xlink:href="#DejaVuSans-46"/>
     <use xlink:href="#DejaVuSans-69" transform="translate(50.269531 0)"/>
     <use xlink:href="#DejaVuSans-6c" transform="translate(78.052734 0)"/>
     <use xlink:href="#DejaVuSans-74" transform="translate(105.835938 0)"/>
     <use xlink:href="#DejaVuSans-65" transform="translate(145.044922 0)"/>
     <use xlink:href="#DejaVuSans-72" transform="translate(206.568359 0)"/>
     <use xlink:href="#DejaVuSans-3a" transform="translate(245.931641 0)"/>
     <use xlink:href="#DejaVuSans-20" transform="translate(279.623047 0)"/>
     <use xlink:href="#DejaVuSans-62" transform="translate(311.410156 0)"/>
     <use xlink:href="#DejaVuSans-61" transform="translate(374.886719 0)"/>
     <use xlink:href="#DejaVuSans-6e" transform="translate(436.166016 0)"/>
     <use xlink:href="#DejaVuSans-64" transform="translate(499.544922 0)"/>
     <use xlink:href="#DejaVuSans-20" transform="translate(563.021484 0)"/>
     <use xlink:href="#DejaVuSans-7c" transform="translate(594.808594 0)"/>
     <use xlink:href="#DejaVuSans-20" transform="translate(628.5 0)"/>
     <use xlink:href="#DejaVuSans-49" transform="translate(660.287109 0)"/>
     <use xlink:href="#DejaVuSans-6e" transform="translate(689.779297 0)"/>
     <use xlink:href="#DejaVuSans-70" transform="translate(753.158203 0)"/>
     <use xlink:href="#DejaVuSans-75" transform="translate(816.634766 0)"/>
     <use xlink:href="#DejaVuSans-74" transform="translate(880.013672 0)"/>
     <use xlink:href="#DejaVuSans-3a" transform="translate(919.222656 0)"/>
     <use xlink:href="#DejaVuSans-20" transform="translate(952.914062 0)"/>
     <use xlink:href="#DejaVuSans-73" transform="translate(984.701172 0)"/>
     <use xlink:href="#DejaVuSans-69" transform="translate(1036.800781 0)"/>
     <use xlink:href="#DejaVuSans-6e" transform="translate(1064.583984 0)"/>
     <use xlink:href="#DejaVuSans-65" transform="translate(1127.962891 0)"/>
     <use xlink:href="#DejaVuSans-2c" transform="translate(1189.486328 0)"/>
     <use xlink:href="#DejaVuSans-20" transform="translate(1221.273438 0)"/>
     <use xlink:href="#DejaVuSans-73" transform="translate(1253.060547 0)"/>
     <use xlink:href="#DejaVuSans-69" transform="translate(1305.160156 0)"/>
     <use xlink:href="#DejaVuSans-6e" transform="translate(1332.943359 0)"/>
     <use xlink:href="#DejaVuSans-65" transform="translate(1396.322266 0)"/>
     <use xlink:href="#DejaVuSans-20" transform="translate(1457.845703 0)"/>
     <use xlink:href="#DejaVuSans-28" transform="translate(1489.632812 0)"/>
     <use xlink:href="#DejaVuSans-41" transform="translate(1528.646484 0)"/>
     <use xlink:href="#DejaVuSans-3d" transform="translate(1597.054688 0)"/>
     <use xlink:href="#DejaVuSans-30" transform="translate(1680.84375 0)"/>
     <use xlink:href="#DejaVuSans-2e" transform="translate(1744.466797 0)"/>
     <use xlink:href="#DejaVuSans-38" transform="translate(1776.253906 0)"/>
     <use xlink:href="#DejaVuSans-36" transform="translate(1839.876953 0)"/>
     <use xlink:href="#DejaVuSans-2c" transform="translate(1903.5 0)"/>
     <use xlink:href="#DejaVuSans-20" transform="translate(1935.287109 0)"/>
     <use xlink:href="#DejaVuSans-66" transform="translate(1967.074219 0)"/>
     <use xlink:href="#DejaVuSans-3d" transform="translate(2002.279297 0)"/>
     <use xlink:href="#DejaVuSans-31" transform="translate(2086.068359 0)"/>
     <use xlink:href="#DejaVuSans-2e" transform="translate(2149.691406 0)"/>
     <use xlink:href="#DejaVuSans-35" transform="translate(2181.478516 0)"/>
     <use xlink:href="#DejaVuSans-38" transform="translate(2245.101562 0)"/>
     <use xlink:href="#DejaVuSans-20" transform="translate(2308.724609 0)"/>
     <use xlink:href="#DejaVuSans-48" transform="translate(2340.511719 0)"/>
     <use xlink:href="#DejaVuSans-7a" transform="translate(2415.707031 0)"/>
     <use xlink:href="#DejaVuSans-29" transform="translate(2468.197266 0)"/>
     <use xlink:href="#DejaVuSans-20" transform="translate(2507.210938 0)"/>
     <use xlink:href="#DejaVuSans-7c" transform="translate(2538.998047 0)"/>
     <use xlink:href="#DejaVuSans-20" transform="translate(2572.689453 0)"/>
     <use xlink:href="#DejaVuSans-52" transform="translate(2604.476562 0)"/>
     <use xlink:href="#DejaVuSans-3d" transform="translate(2673.958984 0)"/>
     <use xlink:href="#DejaVuSans-30" transform="translate(2757.748047 0)"/>
     <use xlink:href="#DejaVuSans-2e" transform="translate(2821.371094 0)"/>
     <use xlink:href="#DejaVuSans-32" transform="translate(2853.158203 0)"/>
     <use xlink:href="#DejaVuSans-39" transform="translate(2916.78125 0)"/>
     <use xlink:href="#DejaVuSans-30" transform="translate(2980.404297 0)"/>
     <use xlink:href="#DejaVuSans-2c" transform="translate(3044.027344 0)"/>
     <use xlink:href="#DejaVuSans-20" transform="translate(3075.814453 0)"/>
     <use xlink:href="#DejaVuSans-4c" transform="translate(3107.601562 0)"/>
     <use xlink:href="#DejaVuSans-3d" transform="translate(3163.314453 0)"/>
     <use xlink:href="#DejaVuSans-31" transform="translate(3247.103516 0)"/>
     <use xlink:href="#DejaVuSans-2e" transform="translate(3310.726562 0)"/>
     <use xlink:href="#DejaVuSans-30" transform="translate(3342.513672 0)"/>
     <use xlink:href="#DejaVuSans-30" transform="translate(3406.136719 0)"/>
     <use xlink:href="#DejaVuSans-2c" transform="translate(3469.759766 0)"/>
     <use xlink:href="#DejaVuSans-20" transform="translate(3501.546875 0)"/>
     <use xlink:href="#DejaVuSans-43" transform="translate(3533.333984 0)"/>
     <use xlink:href="#DejaVuSans-3d" transform="translate(3603.158203 0)"/>
     <use xlink:href="#DejaVuSans-30" transform="translate(3686.947266 0)"/>
     <use xlink:href="#DejaVuSans-2e" transform="translate(3750.570312 0)"/>
     <use xlink:href="#DejaVuSans-35" transform="translate(3782.357422 0)"/>
     <use xlink:href="#DejaVuSans-30" transform="translate(3845.980469 0)"/>
     <use xlink:href="#DejaVuSans-2c" transform="translate(3909.603516 0)"/>
     <use xlink:href="#DejaVuSans-20" transform="translate(3941.390625 0)"/>
     <use xlink:href="#DejaVuSans-3c9" transform="translate(3973.177734 0)"/>
     <use xlink:href="#DejaVuSans-6e" transform="translate(4056.917969 0)"/>
     <use xlink:href="#DejaVuSans-3d" transform="translate(4120.296875 0)"/>
     <use xlink:href="#DejaVuSans-31" transform="translate(4204.085938 0)"/>
     <use xlink:href="#DejaVuSans-2e" transform="translate(4267.708984 0)"/>
     <use xlink:href="#DejaVuSans-34" transform="translate(4299.496094 0)"/>
     <use xlink:href="#DejaVuSans-31" transform="translate(4363.119141 0)"/>
     <use xlink:href="#DejaVuSans-2c" transform="translate(4426.742188 0)"/>
     <use xlink:href="#DejaVuSans-20" transform="translate(4458.529297 0)"/>
     <use xlink:href="#DejaVuSans-3b6" transform="translate(4490.316406 0)"/>
     <use xlink:href="#DejaVuSans-3d" transform="translate(4544.710938 0)"/>
     <use xlink:href="#DejaVuSans-30" transform="translate(4628.5 0)"/>
     <use xlink:href="#DejaVuSans-2e" transform="translate(4692.123047 0)"/>
     <use xlink:href="#DejaVuSans-31" transform="translate(4723.910156 0)"/>
     <use xlink:href="#DejaVuSans-30" transform="translate(4787.533203 0)"/>
     <use xlink:href="#DejaVuSans-32" transform="translate(4851.15625 0)"/>
     <use xlink:href="#DejaVuSans-2c" transform="translate(4914.779297 0)"/>
     <use xlink:href="#DejaVuSans-20" transform="translate(4946.566406 0)"/>
     <use xlink:href="#DejaVuSans-51" transform="translate(4978.353516 0)"/>
     <use xlink:href="#DejaVuSans-3d" transform="translate(5057.064453 0)"/>
     <use xlink:href="#DejaVuSans-34" transform="translate(5140.853516 0)"/>
     <use xlink:href="#DejaVuSans-2e" transform="translate(5204.476562 0)"/>
     <use xlink:href="#DejaVuSans-38" transform="translate(5236.263672 0)"/>
     <use xlink:href="#DejaVuSans-38" transform="translate(5299.886719 0)"/>
    </g>
   </g>
   <g id="legend_1">
    <g id="patch_7">
     <path d="M 69.3 216.272 
L 134.282813 216.272 
Q 136.282813 216.272 136.282813 214.272 
L 136.282813 185.91575 
Q 136.282813 183.91575 134.282813 183.91575 
L 69.3 183.91575 
Q 67.3 183.91575 67.3 185.91575 
L 67.3 214.272 
Q 67.3 216.272 69.3 216.272 
z
" style="fill: #ffffff; opacity: 0.8; stroke: #cccccc; stroke-linejoin: miter"/>
    </g>
    <g id="line2d_29">
     <path d="M 71.3 192.014187 
L 81.3 192.014187 
L 91.3 192.014187 
" style="fill: none; stroke: #1f77b4; stroke-width: 1.5; stroke-linecap: square"/>
    </g>
    <g id="text_17">
     <!-- input -->
     <g transform="translate(99.3 195.514187) scale(0.1 -0.1)">
      <use xlink:href="#DejaVuSans-69"/>
      <use xlink:href="#DejaVuSans-6e" transform="translate(27.783203 0)"/>
      <use xlink:href="#DejaVuSans-70" transform="translate(91.162109 0)"/>
      <use xlink:href="#DejaVuSans-75" transform="translate(154.638672 0)"/>
      <use xlink:href="#DejaVuSans-74" transform="translate(218.017578 0)"/>
     </g>
    </g>
    <g id="line2d_30">
     <path d="M 71.3 206.692313 
L 81.3 206.692313 
L 91.3 206.692313 
" style="fill: none; stroke: #ff7f0e; stroke-width: 1.5; stroke-linecap: square"/>
    </g>
    <g id="text_18">
     <!-- output -->
     <g transform="translate(99.3 210.192313) scale(0.1 -0.1)">
      <defs>
       <path id="DejaVuSans-6f" d="M 1959 3097 
Q 1497 3097 1228 2736 
Q 959 2375 959 1747 
Q 959 1119 1226 758 
Q 1494 397 1959 397 
Q 2419 397 2687 759 
Q 2956 1122 2956 1747 
Q 2956 2369 2687 2733 
Q 2419 3097 1959 3097 
z
M 1959 3584 
Q 2709 3584 3137 3096 
Q 3566 2609 3566 1747 
Q 3566 888 3137 398 
Q 2709 -91 1959 -91 
Q 1206 -91 779 398 
Q 353 888 353 1747 
Q 353 2609 779 3096 
Q 1206 3584 1959 3584 
z
" transform="scale(0.015625)"/>
      </defs>
      <use xlink:href="#DejaVuSans-6f"/>
      <use xlink:href="#DejaVuSans-75" transform="translate(61.181641 0)"/>
      <use xlink:href="#DejaVuSans-74" transform="translate(124.560547 0)"/>
      <use xlink:href="#DejaVuSans-70" transform="translate(163.769531 0)"/>
      <use xlink:href="#DejaVuSans-75" transform="translate(227.246094 0)"/>
      <use xlink:href="#DejaVuSans-74" transform="translate(290.625 0)"/>
     </g>
    </g>
   </g>
  </g>
  <g id="axes_2">
   <g id="patch_8">
    <path d="M 62.3 458.728 
L 628.183658 458.728 
L 628.183658 279.312 
L 62.3 279.312 
z
" style="fill: #ffffff"/>
   </g>
   <g id="matplotlib.axis_3">
    <g id="xtick_7">
     <g id="line2d_31">
      <path d="M 62.3 458.728 
L 62.3 279.312 
" clip-path="url(#p9377c06ca4)" style="fill: none; stroke: #b0b0b0; stroke-opacity: 0.25; stroke-width: 0.8; stroke-linecap: square"/>
     </g>
     <g id="line2d_32">
      <g>
       <use xlink:href="#mec39d388d1" x="62.3" y="458.728" style="stroke: #000000; stroke-width: 0.8"/>
      </g>
     </g>
     <g id="text_19">
      <!-- $\mathdefault{10^{-1}}$ -->
      <g transform="translate(50.55 473.326438) scale(0.1 -0.1)">
       <use xlink:href="#DejaVuSans-31" transform="translate(0 0.684375)"/>
       <use xlink:href="#DejaVuSans-30" transform="translate(63.623047 0.684375)"/>
       <use xlink:href="#DejaVuSans-2212" transform="translate(128.203125 38.965625) scale(0.7)"/>
       <use xlink:href="#DejaVuSans-31" transform="translate(186.855469 38.965625) scale(0.7)"/>
      </g>
     </g>
    </g>
    <g id="xtick_8">
     <g id="line2d_33">
      <path d="M 345.241829 458.728 
L 345.241829 279.312 
" clip-path="url(#p9377c06ca4)" style="fill: none; stroke: #b0b0b0; stroke-opacity: 0.25; stroke-width: 0.8; stroke-linecap: square"/>
     </g>
     <g id="line2d_34">
      <g>
       <use xlink:href="#mec39d388d1" x="345.241829" y="458.728" style="stroke: #000000; stroke-width: 0.8"/>
      </g>
     </g>
     <g id="text_20">
      <!-- $\mathdefault{10^{0}}$ -->
      <g transform="translate(336.441829 473.326438) scale(0.1 -0.1)">
       <use xlink:href="#DejaVuSans-31" transform="translate(0 0.765625)"/>
       <use xlink:href="#DejaVuSans-30" transform="translate(63.623047 0.765625)"/>
       <use xlink:href="#DejaVuSans-30" transform="translate(128.203125 39.046875) scale(0.7)"/>
      </g>
     </g>
    </g>
    <g id="xtick_9">
     <g id="line2d_35">
      <path d="M 628.183658 458.728 
L 628.183658 279.312 
" clip-path="url(#p9377c06ca4)" style="fill: none; stroke: #b0b0b0; stroke-opacity: 0.25; stroke-width: 0.8; stroke-linecap: square"/>
     </g>
     <g id="line2d_36">
      <g>
       <use xlink:href="#mec39d388d1" x="628.183658" y="458.728" style="stroke: #000000; stroke-width: 0.8"/>
      </g>
     </g>
     <g id="text_21">
      <!-- $\mathdefault{10^{1}}$ -->
      <g transform="translate(619.383658 473.326438) scale(0.1 -0.1)">
       <use xlink:href="#DejaVuSans-31" transform="translate(0 0.684375)"/>
       <use xlink:href="#DejaVuSans-30" transform="translate(63.623047 0.684375)"/>
       <use xlink:href="#DejaVuSans-31" transform="translate(128.203125 38.965625) scale(0.7)"/>
      </g>
     </g>
    </g>
    <g id="xtick_10">
     <g id="line2d_37">
      <defs>
       <path id="m78c459f3ad" d="M 0 0 
L 0 2 
" style="stroke: #000000; stroke-width: 0.6"/>
      </defs>
      <g>
       <use xlink:href="#m78c459f3ad" x="147.473977" y="458.728" style="stroke: #000000; stroke-width: 0.6"/>
      </g>
     </g>
    </g>
    <g id="xtick_11">
     <g id="line2d_38">
      <g>
       <use xlink:href="#m78c459f3ad" x="197.29756" y="458.728" style="stroke: #000000; stroke-width: 0.6"/>
      </g>
     </g>
    </g>
    <g id="xtick_12">
     <g id="line2d_39">
      <g>
       <use xlink:href="#m78c459f3ad" x="232.647955" y="458.728" style="stroke: #000000; stroke-width: 0.6"/>
      </g>
     </g>
    </g>
    <g id="xtick_13">
     <g id="line2d_40">
      <g>
       <use xlink:href="#m78c459f3ad" x="260.067851" y="458.728" style="stroke: #000000; stroke-width: 0.6"/>
      </g>
     </g>
    </g>
    <g id="xtick_14">
     <g id="line2d_41">
      <g>
       <use xlink:href="#m78c459f3ad" x="282.471538" y="458.728" style="stroke: #000000; stroke-width: 0.6"/>
      </g>
     </g>
    </g>
    <g id="xtick_15">
     <g id="line2d_42">
      <g>
       <use xlink:href="#m78c459f3ad" x="301.413585" y="458.728" style="stroke: #000000; stroke-width: 0.6"/>
      </g>
     </g>
    </g>
    <g id="xtick_16">
     <g id="line2d_43">
      <g>
       <use xlink:href="#m78c459f3ad" x="317.821932" y="458.728" style="stroke: #000000; stroke-width: 0.6"/>
      </g>
     </g>
    </g>
    <g id="xtick_17">
     <g id="line2d_44">
      <g>
       <use xlink:href="#m78c459f3ad" x="332.295121" y="458.728" style="stroke: #000000; stroke-width: 0.6"/>
      </g>
     </g>
    </g>
    <g id="xtick_18">
     <g id="line2d_45">
      <g>
       <use xlink:href="#m78c459f3ad" x="430.415806" y="458.728" style="stroke: #000000; stroke-width: 0.6"/>
      </g>
     </g>
    </g>
    <g id="xtick_19">
     <g id="line2d_46">
      <g>
       <use xlink:href="#m78c459f3ad" x="480.239389" y="458.728" style="stroke: #000000; stroke-width: 0.6"/>
      </g>
     </g>
    </g>
    <g id="xtick_20">
     <g id="line2d_47">
      <g>
       <use xlink:href="#m78c459f3ad" x="515.589784" y="458.728" style="stroke: #000000; stroke-width: 0.6"/>
      </g>
     </g>
    </g>
    <g id="xtick_21">
     <g id="line2d_48">
      <g>
       <use xlink:href="#m78c459f3ad" x="543.00968" y="458.728" style="stroke: #000000; stroke-width: 0.6"/>
      </g>
     </g>
    </g>
    <g id="xtick_22">
     <g id="line2d_49">
      <g>
       <use xlink:href="#m78c459f3ad" x="565.413367" y="458.728" style="stroke: #000000; stroke-width: 0.6"/>
      </g>
     </g>
    </g>
    <g id="xtick_23">
     <g id="line2d_50">
      <g>
       <use xlink:href="#m78c459f3ad" x="584.355414" y="458.728" style="stroke: #000000; stroke-width: 0.6"/>
      </g>
     </g>
    </g>
    <g id="xtick_24">
     <g id="line2d_51">
      <g>
       <use xlink:href="#m78c459f3ad" x="600.763761" y="458.728" style="stroke: #000000; stroke-width: 0.6"/>
      </g>
     </g>
    </g>
    <g id="xtick_25">
     <g id="line2d_52">
      <g>
       <use xlink:href="#m78c459f3ad" x="615.23695" y="458.728" style="stroke: #000000; stroke-width: 0.6"/>
      </g>
     </g>
    </g>
    <g id="text_22">
     <!-- frequency [arb.] -->
     <g transform="translate(304.791829 487.004563) scale(0.1 -0.1)">
      <defs>
       <path id="DejaVuSans-71" d="M 947 1747 
Q 947 1113 1208 752 
Q 1469 391 1925 391 
Q 2381 391 2643 752 
Q 2906 1113 2906 1747 
Q 2906 2381 2643 2742 
Q 2381 3103 1925 3103 
Q 1469 3103 1208 2742 
Q 947 2381 947 1747 
z
M 2906 525 
Q 2725 213 2448 61 
Q 2172 -91 1784 -91 
Q 1150 -91 751 415 
Q 353 922 353 1747 
Q 353 2572 751 3078 
Q 1150 3584 1784 3584 
Q 2172 3584 2448 3432 
Q 2725 3281 2906 2969 
L 2906 3500 
L 3481 3500 
L 3481 -1331 
L 2906 -1331 
L 2906 525 
z
" transform="scale(0.015625)"/>
      </defs>
      <use xlink:href="#DejaVuSans-66"/>
      <use xlink:href="#DejaVuSans-72" transform="translate(35.205078 0)"/>
      <use xlink:href="#DejaVuSans-65" transform="translate(74.068359 0)"/>
      <use xlink:href="#DejaVuSans-71" transform="translate(135.591797 0)"/>
      <use xlink:href="#DejaVuSans-75" transform="translate(199.068359 0)"/>
      <use xlink:href="#DejaVuSans-65" transform="translate(262.447266 0)"/>
      <use xlink:href="#DejaVuSans-6e" transform="translate(323.970703 0)"/>
      <use xlink:href="#DejaVuSans-63" transform="translate(387.349609 0)"/>
      <use xlink:href="#DejaVuSans-79" transform="translate(442.330078 0)"/>
      <use xlink:href="#DejaVuSans-20" transform="translate(501.509766 0)"/>
      <use xlink:href="#DejaVuSans-5b" transform="translate(533.296875 0)"/>
      <use xlink:href="#DejaVuSans-61" transform="translate(572.310547 0)"/>
      <use xlink:href="#DejaVuSans-72" transform="translate(633.589844 0)"/>
      <use xlink:href="#DejaVuSans-62" transform="translate(674.703125 0)"/>
      <use xlink:href="#DejaVuSans-2e" transform="translate(738.179688 0)"/>
      <use xlink:href="#DejaVuSans-5d" transform="translate(769.966797 0)"/>
     </g>
    </g>
   </g>
   <g id="matplotlib.axis_4">
    <g id="ytick_8">
     <g id="line2d_53">
      <path d="M 62.3 445.610498 
L 628.183658 445.610498 
" clip-path="url(#p9377c06ca4)" style="fill: none; stroke: #b0b0b0; stroke-opacity: 0.25; stroke-width: 0.8; stroke-linecap: square"/>
     </g>
     <g id="line2d_54">
      <g>
       <use xlink:href="#mafa9968ec6" x="62.3" y="445.610498" style="stroke: #000000; stroke-width: 0.8"/>
      </g>
     </g>
     <g id="text_23">
      <!-- $\mathdefault{10^{-10}}$ -->
      <g transform="translate(27.4 449.409716) scale(0.1 -0.1)">
       <use xlink:href="#DejaVuSans-31" transform="translate(0 0.765625)"/>
       <use xlink:href="#DejaVuSans-30" transform="translate(63.623047 0.765625)"/>
       <use xlink:href="#DejaVuSans-2212" transform="translate(128.203125 39.046875) scale(0.7)"/>
       <use xlink:href="#DejaVuSans-31" transform="translate(186.855469 39.046875) scale(0.7)"/>
       <use xlink:href="#DejaVuSans-30" transform="translate(231.391602 39.046875) scale(0.7)"/>
      </g>
     </g>
    </g>
    <g id="ytick_9">
     <g id="line2d_55">
      <path d="M 62.3 421.167726 
L 628.183658 421.167726 
" clip-path="url(#p9377c06ca4)" style="fill: none; stroke: #b0b0b0; stroke-opacity: 0.25; stroke-width: 0.8; stroke-linecap: square"/>
     </g>
     <g id="line2d_56">
      <g>
       <use xlink:href="#mafa9968ec6" x="62.3" y="421.167726" style="stroke: #000000; stroke-width: 0.8"/>
      </g>
     </g>
     <g id="text_24">
      <!-- $\mathdefault{10^{-8}}$ -->
      <g transform="translate(31.8 424.966945) scale(0.1 -0.1)">
       <use xlink:href="#DejaVuSans-31" transform="translate(0 0.765625)"/>
       <use xlink:href="#DejaVuSans-30" transform="translate(63.623047 0.765625)"/>
       <use xlink:href="#DejaVuSans-2212" transform="translate(128.203125 39.046875) scale(0.7)"/>
       <use xlink:href="#DejaVuSans-38" transform="translate(186.855469 39.046875) scale(0.7)"/>
      </g>
     </g>
    </g>
    <g id="ytick_10">
     <g id="line2d_57">
      <path d="M 62.3 396.724955 
L 628.183658 396.724955 
" clip-path="url(#p9377c06ca4)" style="fill: none; stroke: #b0b0b0; stroke-opacity: 0.25; stroke-width: 0.8; stroke-linecap: square"/>
     </g>
     <g id="line2d_58">
      <g>
       <use xlink:href="#mafa9968ec6" x="62.3" y="396.724955" style="stroke: #000000; stroke-width: 0.8"/>
      </g>
     </g>
     <g id="text_25">
      <!-- $\mathdefault{10^{-6}}$ -->
      <g transform="translate(31.8 400.524173) scale(0.1 -0.1)">
       <use xlink:href="#DejaVuSans-31" transform="translate(0 0.765625)"/>
       <use xlink:href="#DejaVuSans-30" transform="translate(63.623047 0.765625)"/>
       <use xlink:href="#DejaVuSans-2212" transform="translate(128.203125 39.046875) scale(0.7)"/>
       <use xlink:href="#DejaVuSans-36" transform="translate(186.855469 39.046875) scale(0.7)"/>
      </g>
     </g>
    </g>
    <g id="ytick_11">
     <g id="line2d_59">
      <path d="M 62.3 372.282183 
L 628.183658 372.282183 
" clip-path="url(#p9377c06ca4)" style="fill: none; stroke: #b0b0b0; stroke-opacity: 0.25; stroke-width: 0.8; stroke-linecap: square"/>
     </g>
     <g id="line2d_60">
      <g>
       <use xlink:href="#mafa9968ec6" x="62.3" y="372.282183" style="stroke: #000000; stroke-width: 0.8"/>
      </g>
     </g>
     <g id="text_26">
      <!-- $\mathdefault{10^{-4}}$ -->
      <g transform="translate(31.8 376.081402) scale(0.1 -0.1)">
       <use xlink:href="#DejaVuSans-31" transform="translate(0 0.684375)"/>
       <use xlink:href="#DejaVuSans-30" transform="translate(63.623047 0.684375)"/>
       <use xlink:href="#DejaVuSans-2212" transform="translate(128.203125 38.965625) scale(0.7)"/>
       <use xlink:href="#DejaVuSans-34" transform="translate(186.855469 38.965625) scale(0.7)"/>
      </g>
     </g>
    </g>
    <g id="ytick_12">
     <g id="line2d_61">
      <path d="M 62.3 347.839412 
L 628.183658 347.839412 
" clip-path="url(#p9377c06ca4)" style="fill: none; stroke: #b0b0b0; stroke-opacity: 0.25; stroke-width: 0.8; stroke-linecap: square"/>
     </g>
     <g id="line2d_62">
      <g>
       <use xlink:href="#mafa9968ec6" x="62.3" y="347.839412" style="stroke: #000000; stroke-width: 0.8"/>
      </g>
     </g>
     <g id="text_27">
      <!-- $\mathdefault{10^{-2}}$ -->
      <g transform="translate(31.8 351.63863) scale(0.1 -0.1)">
       <use xlink:href="#DejaVuSans-31" transform="translate(0 0.765625)"/>
       <use xlink:href="#DejaVuSans-30" transform="translate(63.623047 0.765625)"/>
       <use xlink:href="#DejaVuSans-2212" transform="translate(128.203125 39.046875) scale(0.7)"/>
       <use xlink:href="#DejaVuSans-32" transform="translate(186.855469 39.046875) scale(0.7)"/>
      </g>
     </g>
    </g>
    <g id="ytick_13">
     <g id="line2d_63">
      <path d="M 62.3 323.39664 
L 628.183658 323.39664 
" clip-path="url(#p9377c06ca4)" style="fill: none; stroke: #b0b0b0; stroke-opacity: 0.25; stroke-width: 0.8; stroke-linecap: square"/>
     </g>
     <g id="line2d_64">
      <g>
       <use xlink:href="#mafa9968ec6" x="62.3" y="323.39664" style="stroke: #000000; stroke-width: 0.8"/>
      </g>
     </g>
     <g id="text_28">
      <!-- $\mathdefault{10^{0}}$ -->
      <g transform="translate(37.7 327.195859) scale(0.1 -0.1)">
       <use xlink:href="#DejaVuSans-31" transform="translate(0 0.765625)"/>
       <use xlink:href="#DejaVuSans-30" transform="translate(63.623047 0.765625)"/>
       <use xlink:href="#DejaVuSans-30" transform="translate(128.203125 39.046875) scale(0.7)"/>
      </g>
     </g>
    </g>
    <g id="ytick_14">
     <g id="line2d_65">
      <path d="M 62.3 298.953868 
L 628.183658 298.953868 
" clip-path="url(#p9377c06ca4)" style="fill: none; stroke: #b0b0b0; stroke-opacity: 0.25; stroke-width: 0.8; stroke-linecap: square"/>
     </g>
     <g id="line2d_66">
      <g>
       <use xlink:href="#mafa9968ec6" x="62.3" y="298.953868" style="stroke: #000000; stroke-width: 0.8"/>
      </g>
     </g>
     <g id="text_29">
      <!-- $\mathdefault{10^{2}}$ -->
      <g transform="translate(37.7 302.753087) scale(0.1 -0.1)">
       <use xlink:href="#DejaVuSans-31" transform="translate(0 0.765625)"/>
       <use xlink:href="#DejaVuSans-30" transform="translate(63.623047 0.765625)"/>
       <use xlink:href="#DejaVuSans-32" transform="translate(128.203125 39.046875) scale(0.7)"/>
      </g>
     </g>
    </g>
    <g id="text_30">
     <!-- |FFT(.)| -->
     <g transform="translate(21.042188 386.597344) rotate(-90) scale(0.1 -0.1)">
      <defs>
       <path id="DejaVuSans-54" d="M -19 4666 
L 3928 4666 
L 3928 4134 
L 2272 4134 
L 2272 0 
L 1638 0 
L 1638 4134 
L -19 4134 
L -19 4666 
z
" transform="scale(0.015625)"/>
      </defs>
      <use xlink:href="#DejaVuSans-7c"/>
      <use xlink:href="#DejaVuSans-46" transform="translate(33.691406 0)"/>
      <use xlink:href="#DejaVuSans-46" transform="translate(91.210938 0)"/>
      <use xlink:href="#DejaVuSans-54" transform="translate(146.980469 0)"/>
      <use xlink:href="#DejaVuSans-28" transform="translate(208.064453 0)"/>
      <use xlink:href="#DejaVuSans-2e" transform="translate(247.078125 0)"/>
      <use xlink:href="#DejaVuSans-29" transform="translate(278.865234 0)"/>
      <use xlink:href="#DejaVuSans-7c" transform="translate(317.878906 0)"/>
     </g>
    </g>
   </g>
   <g id="line2d_67">
    <path d="M 62.3 316.126435 
L 147.473977 340.049104 
L 197.29756 338.744879 
L 232.647955 337.271469 
L 260.067851 335.704133 
L 282.471538 334.036462 
L 301.413585 332.23513 
L 317.821932 330.251289 
L 332.295121 328.01843 
L 345.241829 325.44136 
L 356.953551 322.371499 
L 367.645515 318.548289 
L 377.481169 313.427055 
L 386.587562 305.391162 
L 395.065412 289.953967 
L 402.99591 287.467273 
L 410.445468 292.43125 
L 417.469098 308.447967 
L 424.112882 315.250565 
L 430.415806 319.885627 
L 436.411145 323.437083 
L 442.127528 326.324968 
L 447.589764 328.761311 
L 452.819493 330.869313 
L 457.835703 332.72729 
L 462.655147 334.388275 
L 467.292681 335.889911 
L 471.76154 337.259914 
L 476.073564 338.519305 
L 480.239389 339.684415 
L 484.268605 340.76819 
L 488.169887 341.781072 
L 491.951111 342.731609 
L 495.619446 343.626887 
L 499.181436 344.47285 
L 502.643076 345.274532 
L 506.009864 346.036235 
L 509.28686 346.761664 
L 512.47873 347.454037 
L 515.589784 348.116161 
L 518.624014 348.750504 
L 521.585123 349.359246 
L 524.476552 349.944322 
L 527.301506 350.507459 
L 530.062972 351.050201 
L 532.763742 351.57394 
L 535.406426 352.079929 
L 537.99347 352.569305 
L 540.52717 353.043099 
L 543.00968 353.502253 
L 545.443028 353.947624 
L 547.829124 354.379999 
L 550.169768 354.800102 
L 552.466659 355.208597 
L 554.721402 355.606097 
L 556.935517 355.993169 
L 559.110443 356.370338 
L 561.247541 356.738092 
L 563.348107 357.096884 
L 565.413367 357.447133 
L 567.444489 357.789235 
L 569.442583 358.123555 
L 571.408706 358.450437 
L 573.343865 358.770203 
L 575.249021 359.083153 
L 577.125089 359.389572 
L 578.972944 359.689726 
L 580.793423 359.983864 
L 582.587325 360.272223 
L 584.355414 360.555026 
L 586.098423 360.832483 
L 587.817053 361.104793 
L 589.511978 361.372144 
L 591.183841 361.634714 
L 592.833263 361.892672 
L 594.460837 362.146179 
L 596.067136 362.395385 
L 597.652707 362.640437 
L 599.21808 362.881471 
L 600.763761 363.118619 
L 602.290241 363.352004 
L 603.797991 363.581747 
L 605.287465 363.80796 
L 606.7591 364.030752 
L 608.213319 364.250226 
L 609.65053 364.46648 
L 611.071124 364.67961 
L 612.475483 364.889705 
L 613.863974 365.096853 
L 615.23695 365.301137 
L 616.594754 365.502635 
L 617.937719 365.701424 
L 619.266165 365.897578 
L 620.580403 366.091167 
L 621.880734 366.282258 
L 623.167448 366.470916 
L 624.440828 366.657204 
L 625.701147 366.841182 
L 626.948672 367.022907 
L 628.183658 367.202436 
L 629.406355 367.379822 
" clip-path="url(#p9377c06ca4)" style="fill: none; stroke: #1f77b4; stroke-opacity: 0.6; stroke-width: 1.5; stroke-linecap: square"/>
   </g>
   <g id="line2d_68">
    <path d="M 62.3 316.164224 
L 147.473977 309.868681 
L 197.29756 311.712935 
L 232.647955 322.860487 
L 260.067851 330.91775 
L 282.471538 335.878863 
L 301.413585 339.359456 
L 317.821932 341.747067 
L 332.295121 342.89984 
L 345.241829 342.454786 
L 356.953551 340.408931 
L 367.645515 337.000148 
L 377.481169 332.034294 
L 386.587562 324.049646 
L 395.065412 308.62354 
L 402.99591 306.136141 
L 410.445468 311.100864 
L 417.469098 327.125779 
L 424.112882 333.946307 
L 430.415806 338.609364 
L 436.411145 342.198222 
L 442.127528 345.131795 
L 447.589764 347.620821 
L 452.819493 349.787196 
L 457.835703 351.708 
L 462.655147 353.435128 
L 467.292681 355.00521 
L 471.76154 356.445069 
L 476.073564 357.774947 
L 480.239389 359.010505 
L 484.268605 360.164118 
L 488.169887 361.245745 
L 491.951111 362.263533 
L 495.619446 363.224237 
L 499.181436 364.133534 
L 502.643076 364.996248 
L 506.009864 365.816521 
L 509.28686 366.597943 
L 512.47873 367.343651 
L 515.589784 368.05641 
L 518.624014 368.738672 
L 521.585123 369.392626 
L 524.476552 370.020238 
L 527.301506 370.623282 
L 530.062972 371.203366 
L 532.763742 371.761955 
L 535.406426 372.300386 
L 537.99347 372.819886 
L 540.52717 373.321584 
L 543.00968 373.806518 
L 545.443028 374.27565 
L 547.829124 374.729868 
L 550.169768 375.169997 
L 552.466659 375.596803 
L 554.721402 376.010997 
L 556.935517 376.413245 
L 559.110443 376.804164 
L 561.247541 377.184332 
L 563.348107 377.554288 
L 565.413367 377.914538 
L 567.444489 378.265554 
L 569.442583 378.607777 
L 571.408706 378.941623 
L 573.343865 379.267482 
L 575.249021 379.585718 
L 577.125089 379.896674 
L 578.972944 380.200674 
L 580.793423 380.49802 
L 582.587325 380.788999 
L 584.355414 381.073879 
L 586.098423 381.352915 
L 587.817053 381.626345 
L 589.511978 381.894396 
L 591.183841 382.15728 
L 592.833263 382.415199 
L 594.460837 382.668345 
L 596.067136 382.916896 
L 597.652707 383.161024 
L 599.21808 383.400891 
L 600.763761 383.63665 
L 602.290241 383.868446 
L 603.797991 384.096418 
L 605.287465 384.320697 
L 606.7591 384.541407 
L 608.213319 384.758667 
L 609.65053 384.97259 
L 611.071124 385.183284 
L 612.475483 385.39085 
L 613.863974 385.595387 
L 615.23695 385.796987 
L 616.594754 385.99574 
L 617.937719 386.19173 
L 619.266165 386.385038 
L 620.580403 386.575743 
L 621.880734 386.763918 
L 623.167448 386.949634 
L 624.440828 387.132959 
L 625.701147 387.313959 
L 626.948672 387.492696 
L 628.183658 387.66923 
L 629.406355 387.843618 
" clip-path="url(#p9377c06ca4)" style="fill: none; stroke: #ff7f0e; stroke-width: 1.5; stroke-linecap: square"/>
   </g>
   <g id="patch_9">
    <path d="M 62.3 458.728 
L 62.3 279.312 
" style="fill: none; stroke: #000000; stroke-width: 0.8; stroke-linejoin: miter; stroke-linecap: square"/>
   </g>
   <g id="patch_10">
    <path d="M 628.183658 458.728 
L 628.183658 279.312 
" style="fill: none; stroke: #000000; stroke-width: 0.8; stroke-linejoin: miter; stroke-linecap: square"/>
   </g>
   <g id="patch_11">
    <path d="M 62.3 458.728 
L 628.183658 458.728 
" style="fill: none; stroke: #000000; stroke-width: 0.8; stroke-linejoin: miter; stroke-linecap: square"/>
   </g>
   <g id="patch_12">
    <path d="M 62.3 279.312 
L 628.183658 279.312 
" style="fill: none; stroke: #000000; stroke-width: 0.8; stroke-linejoin: miter; stroke-linecap: square"/>
   </g>
   <g id="text_31">
    <!-- Output FFT peak ≈ 1.600 (arb.), magnitude ≈ 2.584e+01 | band/flat-ish -->
    <g transform="translate(128.842454 273.312) scale(0.12 -0.12)">
     <defs>
      <path id="DejaVuSans-4f" d="M 2522 4238 
Q 1834 4238 1429 3725 
Q 1025 3213 1025 2328 
Q 1025 1447 1429 934 
Q 1834 422 2522 422 
Q 3209 422 3611 934 
Q 4013 1447 4013 2328 
Q 4013 3213 3611 3725 
Q 3209 4238 2522 4238 
z
M 2522 4750 
Q 3503 4750 4090 4092 
Q 4678 3434 4678 2328 
Q 4678 1225 4090 567 
Q 3503 -91 2522 -91 
Q 1538 -91 948 565 
Q 359 1222 359 2328 
Q 359 3434 948 4092 
Q 1538 4750 2522 4750 
z
" transform="scale(0.015625)"/>
      <path id="DejaVuSans-6b" d="M 581 4863 
L 1159 4863 
L 1159 1991 
L 2875 3500 
L 3609 3500 
L 1753 1863 
L 3688 0 
L 2938 0 
L 1159 1709 
L 1159 0 
L 581 0 
L 581 4863 
z
" transform="scale(0.015625)"/>
      <path id="DejaVuSans-2248" d="M 4684 1947 
L 4684 1388 
Q 4356 1144 4076 1036 
Q 3797 928 3494 928 
Q 3150 928 2694 1113 
Q 2663 1125 2641 1134 
Q 2622 1141 2575 1159 
Q 2091 1350 1797 1350 
Q 1522 1350 1253 1231 
Q 984 1113 678 850 
L 678 1409 
Q 1006 1653 1286 1761 
Q 1566 1869 1869 1869 
Q 2213 1869 2672 1684 
Q 2706 1669 2722 1663 
Q 2741 1656 2788 1638 
Q 3272 1447 3566 1447 
Q 3834 1447 4098 1564 
Q 4363 1681 4684 1947 
z
M 4684 3163 
L 4684 2606 
Q 4356 2359 4076 2251 
Q 3797 2144 3494 2144 
Q 3150 2144 2694 2328 
Q 2663 2341 2641 2350 
Q 2622 2356 2575 2375 
Q 2091 2566 1797 2566 
Q 1522 2566 1253 2447 
Q 984 2328 678 2069 
L 678 2625 
Q 1006 2869 1286 2976 
Q 1566 3084 1869 3084 
Q 2213 3084 2672 2900 
Q 2703 2888 2719 2881 
Q 2741 2872 2788 2853 
Q 3272 2663 3566 2663 
Q 3834 2663 4098 2780 
Q 4363 2897 4684 3163 
z
" transform="scale(0.015625)"/>
      <path id="DejaVuSans-6d" d="M 3328 2828 
Q 3544 3216 3844 3400 
Q 4144 3584 4550 3584 
Q 5097 3584 5394 3201 
Q 5691 2819 5691 2113 
L 5691 0 
L 5113 0 
L 5113 2094 
Q 5113 2597 4934 2840 
Q 4756 3084 4391 3084 
Q 3944 3084 3684 2787 
Q 3425 2491 3425 1978 
L 3425 0 
L 2847 0 
L 2847 2094 
Q 2847 2600 2669 2842 
Q 2491 3084 2119 3084 
Q 1678 3084 1418 2786 
Q 1159 2488 1159 1978 
L 1159 0 
L 581 0 
L 581 3500 
L 1159 3500 
L 1159 2956 
Q 1356 3278 1631 3431 
Q 1906 3584 2284 3584 
Q 2666 3584 2933 3390 
Q 3200 3197 3328 2828 
z
" transform="scale(0.015625)"/>
      <path id="DejaVuSans-67" d="M 2906 1791 
Q 2906 2416 2648 2759 
Q 2391 3103 1925 3103 
Q 1463 3103 1205 2759 
Q 947 2416 947 1791 
Q 947 1169 1205 825 
Q 1463 481 1925 481 
Q 2391 481 2648 825 
Q 2906 1169 2906 1791 
z
M 3481 434 
Q 3481 -459 3084 -895 
Q 2688 -1331 1869 -1331 
Q 1566 -1331 1297 -1286 
Q 1028 -1241 775 -1147 
L 775 -588 
Q 1028 -725 1275 -790 
Q 1522 -856 1778 -856 
Q 2344 -856 2625 -561 
Q 2906 -266 2906 331 
L 2906 616 
Q 2728 306 2450 153 
Q 2172 0 1784 0 
Q 1141 0 747 490 
Q 353 981 353 1791 
Q 353 2603 747 3093 
Q 1141 3584 1784 3584 
Q 2172 3584 2450 3431 
Q 2728 3278 2906 2969 
L 2906 3500 
L 3481 3500 
L 3481 434 
z
" transform="scale(0.015625)"/>
      <path id="DejaVuSans-2b" d="M 2944 4013 
L 2944 2272 
L 4684 2272 
L 4684 1741 
L 2944 1741 
L 2944 0 
L 2419 0 
L 2419 1741 
L 678 1741 
L 678 2272 
L 2419 2272 
L 2419 4013 
L 2944 4013 
z
" transform="scale(0.015625)"/>
      <path id="DejaVuSans-2f" d="M 1625 4666 
L 2156 4666 
L 531 -594 
L 0 -594 
L 1625 4666 
z
" transform="scale(0.015625)"/>
      <path id="DejaVuSans-68" d="M 3513 2113 
L 3513 0 
L 2938 0 
L 2938 2094 
Q 2938 2591 2744 2837 
Q 2550 3084 2163 3084 
Q 1697 3084 1428 2787 
Q 1159 2491 1159 1978 
L 1159 0 
L 581 0 
L 581 4863 
L 1159 4863 
L 1159 2956 
Q 1366 3272 1645 3428 
Q 1925 3584 2291 3584 
Q 2894 3584 3203 3211 
Q 3513 2838 3513 2113 
z
" transform="scale(0.015625)"/>
     </defs>
     <use xlink:href="#DejaVuSans-4f"/>
     <use xlink:href="#DejaVuSans-75" transform="translate(78.710938 0)"/>
     <use xlink:href="#DejaVuSans-74" transform="translate(142.089844 0)"/>
     <use xlink:href="#DejaVuSans-70" transform="translate(181.298828 0)"/>
     <use xlink:href="#DejaVuSans-75" transform="translate(244.775391 0)"/>
     <use xlink:href="#DejaVuSans-74" transform="translate(308.154297 0)"/>
     <use xlink:href="#DejaVuSans-20" transform="translate(347.363281 0)"/>
     <use xlink:href="#DejaVuSans-46" transform="translate(379.150391 0)"/>
     <use xlink:href="#DejaVuSans-46" transform="translate(436.669922 0)"/>
     <use xlink:href="#DejaVuSans-54" transform="translate(492.439453 0)"/>
     <use xlink:href="#DejaVuSans-20" transform="translate(553.523438 0)"/>
     <use xlink:href="#DejaVuSans-70" transform="translate(585.310547 0)"/>
     <use xlink:href="#DejaVuSans-65" transform="translate(648.787109 0)"/>
     <use xlink:href="#DejaVuSans-61" transform="translate(710.310547 0)"/>
     <use xlink:href="#DejaVuSans-6b" transform="translate(771.589844 0)"/>
     <use xlink:href="#DejaVuSans-20" transform="translate(829.5 0)"/>
     <use xlink:href="#DejaVuSans-2248" transform="translate(861.287109 0)"/>
     <use xlink:href="#DejaVuSans-20" transform="translate(945.076172 0)"/>
     <use xlink:href="#DejaVuSans-31" transform="translate(976.863281 0)"/>
     <use xlink:href="#DejaVuSans-2e" transform="translate(1040.486328 0)"/>
     <use xlink:href="#DejaVuSans-36" transform="translate(1072.273438 0)"/>
     <use xlink:href="#DejaVuSans-30" transform="translate(1135.896484 0)"/>
     <use xlink:href="#DejaVuSans-30" transform="translate(1199.519531 0)"/>
     <use xlink:href="#DejaVuSans-20" transform="translate(1263.142578 0)"/>
     <use xlink:href="#DejaVuSans-28" transform="translate(1294.929688 0)"/>
     <use xlink:href="#DejaVuSans-61" transform="translate(1333.943359 0)"/>
     <use xlink:href="#DejaVuSans-72" transform="translate(1395.222656 0)"/>
     <use xlink:href="#DejaVuSans-62" transform="translate(1436.335938 0)"/>
     <use xlink:href="#DejaVuSans-2e" transform="translate(1499.8125 0)"/>
     <use xlink:href="#DejaVuSans-29" transform="translate(1531.599609 0)"/>
     <use xlink:href="#DejaVuSans-2c" transform="translate(1570.613281 0)"/>
     <use xlink:href="#DejaVuSans-20" transform="translate(1602.400391 0)"/>
     <use xlink:href="#DejaVuSans-6d" transform="translate(1634.1875 0)"/>
     <use xlink:href="#DejaVuSans-61" transform="translate(1731.599609 0)"/>
     <use xlink:href="#DejaVuSans-67" transform="translate(1792.878906 0)"/>
     <use xlink:href="#DejaVuSans-6e" transform="translate(1856.355469 0)"/>
     <use xlink:href="#DejaVuSans-69" transform="translate(1919.734375 0)"/>
     <use xlink:href="#DejaVuSans-74" transform="translate(1947.517578 0)"/>
     <use xlink:href="#DejaVuSans-75" transform="translate(1986.726562 0)"/>
     <use xlink:href="#DejaVuSans-64" transform="translate(2050.105469 0)"/>
     <use xlink:href="#DejaVuSans-65" transform="translate(2113.582031 0)"/>
     <use xlink:href="#DejaVuSans-20" transform="translate(2175.105469 0)"/>
     <use xlink:href="#DejaVuSans-2248" transform="translate(2206.892578 0)"/>
     <use xlink:href="#DejaVuSans-20" transform="translate(2290.681641 0)"/>
     <use xlink:href="#DejaVuSans-32" transform="translate(2322.46875 0)"/>
     <use xlink:href="#DejaVuSans-2e" transform="translate(2386.091797 0)"/>
     <use xlink:href="#DejaVuSans-35" transform="translate(2417.878906 0)"/>
     <use xlink:href="#DejaVuSans-38" transform="translate(2481.501953 0)"/>
     <use xlink:href="#DejaVuSans-34" transform="translate(2545.125 0)"/>
     <use xlink:href="#DejaVuSans-65" transform="translate(2608.748047 0)"/>
     <use xlink:href="#DejaVuSans-2b" transform="translate(2670.271484 0)"/>
     <use xlink:href="#DejaVuSans-30" transform="translate(2754.060547 0)"/>
     <use xlink:href="#DejaVuSans-31" transform="translate(2817.683594 0)"/>
     <use xlink:href="#DejaVuSans-20" transform="translate(2881.306641 0)"/>
     <use xlink:href="#DejaVuSans-7c" transform="translate(2913.09375 0)"/>
     <use xlink:href="#DejaVuSans-20" transform="translate(2946.785156 0)"/>
     <use xlink:href="#DejaVuSans-62" transform="translate(2978.572266 0)"/>
     <use xlink:href="#DejaVuSans-61" transform="translate(3042.048828 0)"/>
     <use xlink:href="#DejaVuSans-6e" transform="translate(3103.328125 0)"/>
     <use xlink:href="#DejaVuSans-64" transform="translate(3166.707031 0)"/>
     <use xlink:href="#DejaVuSans-2f" transform="translate(3230.183594 0)"/>
     <use xlink:href="#DejaVuSans-66" transform="translate(3263.875 0)"/>
     <use xlink:href="#DejaVuSans-6c" transform="translate(3299.080078 0)"/>
     <use xlink:href="#DejaVuSans-61" transform="translate(3326.863281 0)"/>
     <use xlink:href="#DejaVuSans-74" transform="translate(3388.142578 0)"/>
     <use xlink:href="#DejaVuSans-2d" transform="translate(3427.351562 0)"/>
     <use xlink:href="#DejaVuSans-69" transform="translate(3463.435547 0)"/>
     <use xlink:href="#DejaVuSans-73" transform="translate(3491.21875 0)"/>
     <use xlink:href="#DejaVuSans-68" transform="translate(3543.318359 0)"/>
    </g>
   </g>
   <g id="legend_2">
    <g id="patch_13">
     <path d="M 535.586783 316.66825 
L 621.183658 316.66825 
Q 623.183658 316.66825 623.183658 314.66825 
L 623.183658 286.312 
Q 623.183658 284.312 621.183658 284.312 
L 535.586783 284.312 
Q 533.586783 284.312 533.586783 286.312 
L 533.586783 314.66825 
Q 533.586783 316.66825 535.586783 316.66825 
z
" style="fill: #ffffff; opacity: 0.8; stroke: #cccccc; stroke-linejoin: miter"/>
    </g>
    <g id="line2d_69">
     <path d="M 537.586783 292.410438 
L 547.586783 292.410438 
L 557.586783 292.410438 
" style="fill: none; stroke: #1f77b4; stroke-opacity: 0.6; stroke-width: 1.5; stroke-linecap: square"/>
    </g>
    <g id="text_32">
     <!-- input FFT -->
     <g transform="translate(565.586783 295.910438) scale(0.1 -0.1)">
      <use xlink:href="#DejaVuSans-69"/>
      <use xlink:href="#DejaVuSans-6e" transform="translate(27.783203 0)"/>
      <use xlink:href="#DejaVuSans-70" transform="translate(91.162109 0)"/>
      <use xlink:href="#DejaVuSans-75" transform="translate(154.638672 0)"/>
      <use xlink:href="#DejaVuSans-74" transform="translate(218.017578 0)"/>
      <use xlink:href="#DejaVuSans-20" transform="translate(257.226562 0)"/>
      <use xlink:href="#DejaVuSans-46" transform="translate(289.013672 0)"/>
      <use xlink:href="#DejaVuSans-46" transform="translate(346.533203 0)"/>
      <use xlink:href="#DejaVuSans-54" transform="translate(402.302734 0)"/>
     </g>
    </g>
    <g id="line2d_70">
     <path d="M 537.586783 307.088562 
L 547.586783 307.088562 
L 557.586783 307.088562 
" style="fill: none; stroke: #ff7f0e; stroke-width: 1.5; stroke-linecap: square"/>
    </g>
    <g id="text_33">
     <!-- output FFT -->
     <g transform="translate(565.586783 310.588562) scale(0.1 -0.1)">
      <use xlink:href="#DejaVuSans-6f"/>
      <use xlink:href="#DejaVuSans-75" transform="translate(61.181641 0)"/>
      <use xlink:href="#DejaVuSans-74" transform="translate(124.560547 0)"/>
      <use xlink:href="#DejaVuSans-70" transform="translate(163.769531 0)"/>
      <use xlink:href="#DejaVuSans-75" transform="translate(227.246094 0)"/>
      <use xlink:href="#DejaVuSans-74" transform="translate(290.625 0)"/>
      <use xlink:href="#DejaVuSans-20" transform="translate(329.833984 0)"/>
      <use xlink:href="#DejaVuSans-46" transform="translate(361.621094 0)"/>
      <use xlink:href="#DejaVuSans-46" transform="translate(419.140625 0)"/>
      <use xlink:href="#DejaVuSans-54" transform="translate(474.910156 0)"/>
     </g>
    </g>
   </g>
  </g>
 </g>
 <defs>
  <clipPath id="p2a230a0ed5">
   <rect x="62.3" y="41.856" width="565.883658" height="179.416"/>
  </clipPath>
  <clipPath id="p9377c06ca4">
   <rect x="62.3" y="279.312" width="565.883658" height="179.416"/>
  </clipPath>
 </defs>
</svg>
