<?xml version="1.0" encoding="utf-8" standalone="no"?>
<!DOCTYPE svg PUBLIC "-//W3C//DTD SVG 1.1//EN"
  "http://www.w3.org/Graphics/SVG/1.1/DTD/svg11.dtd">
<svg xmlns:xlink="http://www.w3.org/1999/xlink" width="648pt" height="504pt" viewBox="0 0 648 504" xmlns="http://www.w3.org/2000/svg" version="1.1">
 <metadata>
  <rdf:RDF xmlns:dc="http://purl.org/dc/elements/1.1/" xmlns:cc="http://creativecommons.org/ns#" xmlns:rdf="http://www.w3.org/1999/02/22-rdf-syntax-ns#">
   <cc:Work>
    <dc:type rdf:resource="http://purl.org/dc/dcmitype/StillImage"/>
    <dc:date>2026-06-29T04:47:29.720244</dc:date>
    <dc:format>image/svg+xml</dc:format>
    <dc:creator>
     <cc:Agent>
      <dc:title>Matplotlib v3.11.0, https://matplotlib.org/</dc:title>
     </cc:Agent>
    </dc:creator>
   </cc:Work>
  </rdf:RDF>
 </metadata>
 <defs>
  <style type="text/css">*{stroke-linejoin: round; stroke-linecap: butt}</style>
 </defs>
 <g id="figure_1">
  <g id="patch_1">
   <path d="M 0 504 
L 648 504 
L 648 0 
L 0 0 
z
" style="fill: #ffffff"/>
  </g>
  <g id="axes_1">
   <g id="patch_2">
    <path d="M 60.202344 222.319648 
L 628.2 222.319648 
L 628.2 42.006328 
L 60.202344 42.006328 
z
" style="fill: #ffffff"/>
   </g>
   <g id="matplotlib.axis_1">
    <g id="xtick_1">
     <g id="line2d_1">
      <path d="M 86.020419 222.319648 
L 86.020419 42.006328 
" clip-path="url(#pd55789c82e)" style="fill: none; stroke: #b0b0b0; stroke-opacity: 0.25; stroke-width: 0.8; stroke-linecap: square"/>
     </g>
     <g id="line2d_2">
      <defs>
       <path id="ma498bcf731" d="M 0 0 
L 0 3.5 
" style="stroke: #000000; stroke-width: 0.8"/>
      </defs>
      <g>
       <use xlink:href="#ma498bcf731" x="86.020419" y="222.319648" style="stroke: #000000; stroke-width: 0.8"/>
      </g>
     </g>
     <g id="text_1">
      <!-- 0 -->
      <g transform="translate(82.839169 236.917305) scale(0.1 -0.1)">
       <defs>
        <path id="DejaVuSans-13" d="M 2034 4250 
Q 1547 4250 1301 3770 
Q 1056 3291 1056 2328 
Q 1056 1369 1301 889 
Q 1547 409 2034 409 
Q 2525 409 2770 889 
Q 3016 1369 3016 2328 
Q 3016 3291 2770 3770 
Q 2525 4250 2034 4250 
z
M 2034 4750 
Q 2819 4750 3233 4129 
Q 3647 3509 3647 2328 
Q 3647 1150 3233 529 
Q 2819 -91 2034 -91 
Q 1250 -91 836 529 
Q 422 1150 422 2328 
Q 422 3509 836 4129 
Q 1250 4750 2034 4750 
z
" transform="scale(0.015625)"/>
       </defs>
       <use xlink:href="#DejaVuSans-13"/>
      </g>
     </g>
    </g>
    <g id="xtick_2">
     <g id="line2d_3">
      <path d="M 189.317939 222.319648 
L 189.317939 42.006328 
" clip-path="url(#pd55789c82e)" style="fill: none; stroke: #b0b0b0; stroke-opacity: 0.25; stroke-width: 0.8; stroke-linecap: square"/>
     </g>
     <g id="line2d_4">
      <g>
       <use xlink:href="#ma498bcf731" x="189.317939" y="222.319648" style="stroke: #000000; stroke-width: 0.8"/>
      </g>
     </g>
     <g id="text_2">
      <!-- 2 -->
      <g transform="translate(186.136689 236.917305) scale(0.1 -0.1)">
       <defs>
        <path id="DejaVuSans-15" d="M 1228 531 
L 3431 531 
L 3431 0 
L 469 0 
L 469 531 
Q 828 903 1448 1529 
Q 2069 2156 2228 2338 
Q 2531 2678 2651 2914 
Q 2772 3150 2772 3378 
Q 2772 3750 2511 3984 
Q 2250 4219 1831 4219 
Q 1534 4219 1204 4116 
Q 875 4013 500 3803 
L 500 4441 
Q 881 4594 1212 4672 
Q 1544 4750 1819 4750 
Q 2544 4750 2975 4387 
Q 3406 4025 3406 3419 
Q 3406 3131 3298 2873 
Q 3191 2616 2906 2266 
Q 2828 2175 2409 1742 
Q 1991 1309 1228 531 
z
" transform="scale(0.015625)"/>
       </defs>
       <use xlink:href="#DejaVuSans-15"/>
      </g>
     </g>
    </g>
    <g id="xtick_3">
     <g id="line2d_5">
      <path d="M 292.61546 222.319648 
L 292.61546 42.006328 
" clip-path="url(#pd55789c82e)" style="fill: none; stroke: #b0b0b0; stroke-opacity: 0.25; stroke-width: 0.8; stroke-linecap: square"/>
     </g>
     <g id="line2d_6">
      <g>
       <use xlink:href="#ma498bcf731" x="292.61546" y="222.319648" style="stroke: #000000; stroke-width: 0.8"/>
      </g>
     </g>
     <g id="text_3">
      <!-- 4 -->
      <g transform="translate(289.43421 236.917305) scale(0.1 -0.1)">
       <defs>
        <path id="DejaVuSans-17" d="M 2419 4116 
L 825 1625 
L 2419 1625 
L 2419 4116 
z
M 2253 4666 
L 3047 4666 
L 3047 1625 
L 3713 1625 
L 3713 1100 
L 3047 1100 
L 3047 0 
L 2419 0 
L 2419 1100 
L 313 1100 
L 313 1709 
L 2253 4666 
z
" transform="scale(0.015625)"/>
       </defs>
       <use xlink:href="#DejaVuSans-17"/>
      </g>
     </g>
    </g>
    <g id="xtick_4">
     <g id="line2d_7">
      <path d="M 395.91298 222.319648 
L 395.91298 42.006328 
" clip-path="url(#pd55789c82e)" style="fill: none; stroke: #b0b0b0; stroke-opacity: 0.25; stroke-width: 0.8; stroke-linecap: square"/>
     </g>
     <g id="line2d_8">
      <g>
       <use xlink:href="#ma498bcf731" x="395.91298" y="222.319648" style="stroke: #000000; stroke-width: 0.8"/>
      </g>
     </g>
     <g id="text_4">
      <!-- 6 -->
      <g transform="translate(392.73173 236.917305) scale(0.1 -0.1)">
       <defs>
        <path id="DejaVuSans-19" d="M 2113 2584 
Q 1688 2584 1439 2293 
Q 1191 2003 1191 1497 
Q 1191 994 1439 701 
Q 1688 409 2113 409 
Q 2538 409 2786 701 
Q 3034 994 3034 1497 
Q 3034 2003 2786 2293 
Q 2538 2584 2113 2584 
z
M 3366 4563 
L 3366 3988 
Q 3128 4100 2886 4159 
Q 2644 4219 2406 4219 
Q 1781 4219 1451 3797 
Q 1122 3375 1075 2522 
Q 1259 2794 1537 2939 
Q 1816 3084 2150 3084 
Q 2853 3084 3261 2657 
Q 3669 2231 3669 1497 
Q 3669 778 3244 343 
Q 2819 -91 2113 -91 
Q 1303 -91 875 529 
Q 447 1150 447 2328 
Q 447 3434 972 4092 
Q 1497 4750 2381 4750 
Q 2619 4750 2861 4703 
Q 3103 4656 3366 4563 
z
" transform="scale(0.015625)"/>
       </defs>
       <use xlink:href="#DejaVuSans-19"/>
      </g>
     </g>
    </g>
    <g id="xtick_5">
     <g id="line2d_9">
      <path d="M 499.2105 222.319648 
L 499.2105 42.006328 
" clip-path="url(#pd55789c82e)" style="fill: none; stroke: #b0b0b0; stroke-opacity: 0.25; stroke-width: 0.8; stroke-linecap: square"/>
     </g>
     <g id="line2d_10">
      <g>
       <use xlink:href="#ma498bcf731" x="499.2105" y="222.319648" style="stroke: #000000; stroke-width: 0.8"/>
      </g>
     </g>
     <g id="text_5">
      <!-- 8 -->
      <g transform="translate(496.02925 236.917305) scale(0.1 -0.1)">
       <defs>
        <path id="DejaVuSans-1b" d="M 2034 2216 
Q 1584 2216 1326 1975 
Q 1069 1734 1069 1313 
Q 1069 891 1326 650 
Q 1584 409 2034 409 
Q 2484 409 2743 651 
Q 3003 894 3003 1313 
Q 3003 1734 2745 1975 
Q 2488 2216 2034 2216 
z
M 1403 2484 
Q 997 2584 770 2862 
Q 544 3141 544 3541 
Q 544 4100 942 4425 
Q 1341 4750 2034 4750 
Q 2731 4750 3128 4425 
Q 3525 4100 3525 3541 
Q 3525 3141 3298 2862 
Q 3072 2584 2669 2484 
Q 3125 2378 3379 2068 
Q 3634 1759 3634 1313 
Q 3634 634 3220 271 
Q 2806 -91 2034 -91 
Q 1263 -91 848 271 
Q 434 634 434 1313 
Q 434 1759 690 2068 
Q 947 2378 1403 2484 
z
M 1172 3481 
Q 1172 3119 1398 2916 
Q 1625 2713 2034 2713 
Q 2441 2713 2670 2916 
Q 2900 3119 2900 3481 
Q 2900 3844 2670 4047 
Q 2441 4250 2034 4250 
Q 1625 4250 1398 4047 
Q 1172 3844 1172 3481 
z
" transform="scale(0.015625)"/>
       </defs>
       <use xlink:href="#DejaVuSans-1b"/>
      </g>
     </g>
    </g>
    <g id="xtick_6">
     <g id="line2d_11">
      <path d="M 602.50802 222.319648 
L 602.50802 42.006328 
" clip-path="url(#pd55789c82e)" style="fill: none; stroke: #b0b0b0; stroke-opacity: 0.25; stroke-width: 0.8; stroke-linecap: square"/>
     </g>
     <g id="line2d_12">
      <g>
       <use xlink:href="#ma498bcf731" x="602.50802" y="222.319648" style="stroke: #000000; stroke-width: 0.8"/>
      </g>
     </g>
     <g id="text_6">
      <!-- 10 -->
      <g transform="translate(596.14552 236.917305) scale(0.1 -0.1)">
       <defs>
        <path id="DejaVuSans-14" d="M 794 531 
L 1825 531 
L 1825 4091 
L 703 3866 
L 703 4441 
L 1819 4666 
L 2450 4666 
L 2450 531 
L 3481 531 
L 3481 0 
L 794 0 
L 794 531 
z
" transform="scale(0.015625)"/>
       </defs>
       <use xlink:href="#DejaVuSans-14"/>
       <use xlink:href="#DejaVuSans-13" transform="translate(63.625 0)"/>
      </g>
     </g>
    </g>
    <g id="text_7">
     <!-- t [arb.] -->
     <g transform="translate(326.867578 250.918086) scale(0.1 -0.1)">
      <defs>
       <path id="DejaVuSans-57" d="M 1172 4494 
L 1172 3500 
L 2356 3500 
L 2356 3053 
L 1172 3053 
L 1172 1153 
Q 1172 725 1289 603 
Q 1406 481 1766 481 
L 2356 481 
L 2356 0 
L 1766 0 
Q 1100 0 847 248 
Q 594 497 594 1153 
L 594 3053 
L 172 3053 
L 172 3500 
L 594 3500 
L 594 4494 
L 1172 4494 
z
" transform="scale(0.015625)"/>
       <path id="DejaVuSans-3" transform="scale(0.015625)"/>
       <path id="DejaVuSans-3e" d="M 550 4863 
L 1875 4863 
L 1875 4416 
L 1125 4416 
L 1125 -397 
L 1875 -397 
L 1875 -844 
L 550 -844 
L 550 4863 
z
" transform="scale(0.015625)"/>
       <path id="DejaVuSans-44" d="M 2194 1759 
Q 1497 1759 1228 1600 
Q 959 1441 959 1056 
Q 959 750 1161 570 
Q 1363 391 1709 391 
Q 2188 391 2477 730 
Q 2766 1069 2766 1631 
L 2766 1759 
L 2194 1759 
z
M 3341 1997 
L 3341 0 
L 2766 0 
L 2766 531 
Q 2569 213 2275 61 
Q 1981 -91 1556 -91 
Q 1019 -91 701 211 
Q 384 513 384 1019 
Q 384 1609 779 1909 
Q 1175 2209 1959 2209 
L 2766 2209 
L 2766 2266 
Q 2766 2663 2505 2880 
Q 2244 3097 1772 3097 
Q 1472 3097 1187 3025 
Q 903 2953 641 2809 
L 641 3341 
Q 956 3463 1253 3523 
Q 1550 3584 1831 3584 
Q 2591 3584 2966 3190 
Q 3341 2797 3341 1997 
z
" transform="scale(0.015625)"/>
       <path id="DejaVuSans-55" d="M 2631 2963 
Q 2534 3019 2420 3045 
Q 2306 3072 2169 3072 
Q 1681 3072 1420 2755 
Q 1159 2438 1159 1844 
L 1159 0 
L 581 0 
L 581 3500 
L 1159 3500 
L 1159 2956 
Q 1341 3275 1631 3429 
Q 1922 3584 2338 3584 
Q 2397 3584 2469 3576 
Q 2541 3569 2628 3553 
L 2631 2963 
z
" transform="scale(0.015625)"/>
       <path id="DejaVuSans-45" d="M 3116 1747 
Q 3116 2381 2855 2742 
Q 2594 3103 2138 3103 
Q 1681 3103 1420 2742 
Q 1159 2381 1159 1747 
Q 1159 1113 1420 752 
Q 1681 391 2138 391 
Q 2594 391 2855 752 
Q 3116 1113 3116 1747 
z
M 1159 2969 
Q 1341 3281 1617 3432 
Q 1894 3584 2278 3584 
Q 2916 3584 3314 3078 
Q 3713 2572 3713 1747 
Q 3713 922 3314 415 
Q 2916 -91 2278 -91 
Q 1894 -91 1617 61 
Q 1341 213 1159 525 
L 1159 0 
L 581 0 
L 581 4863 
L 1159 4863 
L 1159 2969 
z
" transform="scale(0.015625)"/>
       <path id="DejaVuSans-11" d="M 684 794 
L 1344 794 
L 1344 0 
L 684 0 
L 684 794 
z
" transform="scale(0.015625)"/>
       <path id="DejaVuSans-40" d="M 1947 4863 
L 1947 -844 
L 622 -844 
L 622 -397 
L 1369 -397 
L 1369 4416 
L 622 4416 
L 622 4863 
L 1947 4863 
z
" transform="scale(0.015625)"/>
      </defs>
      <use xlink:href="#DejaVuSans-57"/>
      <use xlink:href="#DejaVuSans-3" transform="translate(39.203125 0)"/>
      <use xlink:href="#DejaVuSans-3e" transform="translate(70.984375 0)"/>
      <use xlink:href="#DejaVuSans-44" transform="translate(110 0)"/>
      <use xlink:href="#DejaVuSans-55" transform="translate(171.28125 0)"/>
      <use xlink:href="#DejaVuSans-45" transform="translate(212.390625 0)"/>
      <use xlink:href="#DejaVuSans-11" transform="translate(275.875 0)"/>
      <use xlink:href="#DejaVuSans-40" transform="translate(307.65625 0)"/>
     </g>
    </g>
   </g>
   <g id="matplotlib.axis_2">
    <g id="ytick_1">
     <g id="line2d_13">
      <path d="M 60.202344 214.92302 
L 628.2 214.92302 
" clip-path="url(#pd55789c82e)" style="fill: none; stroke: #b0b0b0; stroke-opacity: 0.25; stroke-width: 0.8; stroke-linecap: square"/>
     </g>
     <g id="line2d_14">
      <defs>
       <path id="m082c38deb0" d="M 0 0 
L -3.5 0 
" style="stroke: #000000; stroke-width: 0.8"/>
      </defs>
      <g>
       <use xlink:href="#m082c38deb0" x="60.202344" y="214.92302" style="stroke: #000000; stroke-width: 0.8"/>
      </g>
     </g>
     <g id="text_8">
      <!-- −1.5 -->
      <g transform="translate(28.919531 218.721848) scale(0.1 -0.1)">
       <defs>
        <path id="DejaVuSans-c9c" d="M 678 2272 
L 4684 2272 
L 4684 1741 
L 678 1741 
L 678 2272 
z
" transform="scale(0.015625)"/>
        <path id="DejaVuSans-18" d="M 691 4666 
L 3169 4666 
L 3169 4134 
L 1269 4134 
L 1269 2991 
Q 1406 3038 1543 3061 
Q 1681 3084 1819 3084 
Q 2600 3084 3056 2656 
Q 3513 2228 3513 1497 
Q 3513 744 3044 326 
Q 2575 -91 1722 -91 
Q 1428 -91 1123 -41 
Q 819 9 494 109 
L 494 744 
Q 775 591 1075 516 
Q 1375 441 1709 441 
Q 2250 441 2565 725 
Q 2881 1009 2881 1497 
Q 2881 1984 2565 2268 
Q 2250 2553 1709 2553 
Q 1456 2553 1204 2497 
Q 953 2441 691 2322 
L 691 4666 
z
" transform="scale(0.015625)"/>
       </defs>
       <use xlink:href="#DejaVuSans-c9c"/>
       <use xlink:href="#DejaVuSans-14" transform="translate(83.796875 0)"/>
       <use xlink:href="#DejaVuSans-11" transform="translate(147.421875 0)"/>
       <use xlink:href="#DejaVuSans-18" transform="translate(179.203125 0)"/>
      </g>
     </g>
    </g>
    <g id="ytick_2">
     <g id="line2d_15">
      <path d="M 60.202344 187.629237 
L 628.2 187.629237 
" clip-path="url(#pd55789c82e)" style="fill: none; stroke: #b0b0b0; stroke-opacity: 0.25; stroke-width: 0.8; stroke-linecap: square"/>
     </g>
     <g id="line2d_16">
      <g>
       <use xlink:href="#m082c38deb0" x="60.202344" y="187.629237" style="stroke: #000000; stroke-width: 0.8"/>
      </g>
     </g>
     <g id="text_9">
      <!-- −1.0 -->
      <g transform="translate(28.919531 191.428066) scale(0.1 -0.1)">
       <use xlink:href="#DejaVuSans-c9c"/>
       <use xlink:href="#DejaVuSans-14" transform="translate(83.796875 0)"/>
       <use xlink:href="#DejaVuSans-11" transform="translate(147.421875 0)"/>
       <use xlink:href="#DejaVuSans-13" transform="translate(179.203125 0)"/>
      </g>
     </g>
    </g>
    <g id="ytick_3">
     <g id="line2d_17">
      <path d="M 60.202344 160.335455 
L 628.2 160.335455 
" clip-path="url(#pd55789c82e)" style="fill: none; stroke: #b0b0b0; stroke-opacity: 0.25; stroke-width: 0.8; stroke-linecap: square"/>
     </g>
     <g id="line2d_18">
      <g>
       <use xlink:href="#m082c38deb0" x="60.202344" y="160.335455" style="stroke: #000000; stroke-width: 0.8"/>
      </g>
     </g>
     <g id="text_10">
      <!-- −0.5 -->
      <g transform="translate(28.919531 164.134283) scale(0.1 -0.1)">
       <use xlink:href="#DejaVuSans-c9c"/>
       <use xlink:href="#DejaVuSans-13" transform="translate(83.796875 0)"/>
       <use xlink:href="#DejaVuSans-11" transform="translate(147.421875 0)"/>
       <use xlink:href="#DejaVuSans-18" transform="translate(179.203125 0)"/>
      </g>
     </g>
    </g>
    <g id="ytick_4">
     <g id="line2d_19">
      <path d="M 60.202344 133.041672 
L 628.2 133.041672 
" clip-path="url(#pd55789c82e)" style="fill: none; stroke: #b0b0b0; stroke-opacity: 0.25; stroke-width: 0.8; stroke-linecap: square"/>
     </g>
     <g id="line2d_20">
      <g>
       <use xlink:href="#m082c38deb0" x="60.202344" y="133.041672" style="stroke: #000000; stroke-width: 0.8"/>
      </g>
     </g>
     <g id="text_11">
      <!-- 0.0 -->
      <g transform="translate(37.299219 136.8405) scale(0.1 -0.1)">
       <use xlink:href="#DejaVuSans-13"/>
       <use xlink:href="#DejaVuSans-11" transform="translate(63.625 0)"/>
       <use xlink:href="#DejaVuSans-13" transform="translate(95.40625 0)"/>
      </g>
     </g>
    </g>
    <g id="ytick_5">
     <g id="line2d_21">
      <path d="M 60.202344 105.74789 
L 628.2 105.74789 
" clip-path="url(#pd55789c82e)" style="fill: none; stroke: #b0b0b0; stroke-opacity: 0.25; stroke-width: 0.8; stroke-linecap: square"/>
     </g>
     <g id="line2d_22">
      <g>
       <use xlink:href="#m082c38deb0" x="60.202344" y="105.74789" style="stroke: #000000; stroke-width: 0.8"/>
      </g>
     </g>
     <g id="text_12">
      <!-- 0.5 -->
      <g transform="translate(37.299219 109.546718) scale(0.1 -0.1)">
       <use xlink:href="#DejaVuSans-13"/>
       <use xlink:href="#DejaVuSans-11" transform="translate(63.625 0)"/>
       <use xlink:href="#DejaVuSans-18" transform="translate(95.40625 0)"/>
      </g>
     </g>
    </g>
    <g id="ytick_6">
     <g id="line2d_23">
      <path d="M 60.202344 78.454107 
L 628.2 78.454107 
" clip-path="url(#pd55789c82e)" style="fill: none; stroke: #b0b0b0; stroke-opacity: 0.25; stroke-width: 0.8; stroke-linecap: square"/>
     </g>
     <g id="line2d_24">
      <g>
       <use xlink:href="#m082c38deb0" x="60.202344" y="78.454107" style="stroke: #000000; stroke-width: 0.8"/>
      </g>
     </g>
     <g id="text_13">
      <!-- 1.0 -->
      <g transform="translate(37.299219 82.252935) scale(0.1 -0.1)">
       <use xlink:href="#DejaVuSans-14"/>
       <use xlink:href="#DejaVuSans-11" transform="translate(63.625 0)"/>
       <use xlink:href="#DejaVuSans-13" transform="translate(95.40625 0)"/>
      </g>
     </g>
    </g>
    <g id="ytick_7">
     <g id="line2d_25">
      <path d="M 60.202344 51.160325 
L 628.2 51.160325 
" clip-path="url(#pd55789c82e)" style="fill: none; stroke: #b0b0b0; stroke-opacity: 0.25; stroke-width: 0.8; stroke-linecap: square"/>
     </g>
     <g id="line2d_26">
      <g>
       <use xlink:href="#m082c38deb0" x="60.202344" y="51.160325" style="stroke: #000000; stroke-width: 0.8"/>
      </g>
     </g>
     <g id="text_14">
      <!-- 1.5 -->
      <g transform="translate(37.299219 54.959153) scale(0.1 -0.1)">
       <use xlink:href="#DejaVuSans-14"/>
       <use xlink:href="#DejaVuSans-11" transform="translate(63.625 0)"/>
       <use xlink:href="#DejaVuSans-18" transform="translate(95.40625 0)"/>
      </g>
     </g>
    </g>
    <g id="text_15">
     <!-- [arb.] -->
     <g transform="translate(22.517188 145.947363) rotate(-90) scale(0.1 -0.1)">
      <use xlink:href="#DejaVuSans-3e"/>
      <use xlink:href="#DejaVuSans-44" transform="translate(39.015625 0)"/>
      <use xlink:href="#DejaVuSans-55" transform="translate(100.296875 0)"/>
      <use xlink:href="#DejaVuSans-45" transform="translate(141.40625 0)"/>
      <use xlink:href="#DejaVuSans-11" transform="translate(204.890625 0)"/>
      <use xlink:href="#DejaVuSans-40" transform="translate(236.671875 0)"/>
     </g>
    </g>
   </g>
   <g id="line2d_27">
    <path d="M 86.020419 133.041672 
L 91.316434 106.216488 
L 94.216633 92.689733 
L 96.486354 83.095081 
L 98.503884 75.487092 
L 100.269222 69.650709 
L 101.908465 64.989112 
L 103.295517 61.656046 
L 104.556473 59.13721 
L 105.691334 57.301392 
L 106.826194 55.884616 
L 107.834959 54.983437 
L 108.717628 54.474749 
L 109.600297 54.229063 
L 110.356871 54.228452 
L 111.113445 54.421687 
L 111.996114 54.891468 
L 112.878783 55.622858 
L 113.887548 56.775888 
L 114.896313 58.262342 
L 116.031173 60.325002 
L 117.292129 63.088124 
L 118.679181 66.678545 
L 120.192328 71.219613 
L 121.957667 77.282308 
L 123.849101 84.603527 
L 125.992726 93.793553 
L 128.640734 106.193303 
L 132.171411 123.913602 
L 139.989338 163.486552 
L 142.637346 175.589875 
L 144.907067 184.958974 
L 146.798501 191.898151 
L 148.56384 197.561236 
L 150.076987 201.730841 
L 151.464038 204.96057 
L 152.724994 207.381618 
L 153.859855 209.126864 
L 154.86862 210.325051 
L 155.877385 211.185365 
L 156.760054 211.657984 
L 157.642723 211.867436 
L 158.399297 211.836949 
L 159.281966 211.556469 
L 160.164635 211.01316 
L 161.047304 210.208841 
L 162.056069 208.973509 
L 163.19093 207.187285 
L 164.451886 204.721976 
L 165.838937 201.445453 
L 167.352085 197.227503 
L 168.991328 191.947341 
L 170.756666 185.502877 
L 172.774196 177.283812 
L 175.170012 166.532444 
L 178.070211 152.440966 
L 183.114035 126.581147 
L 187.527382 104.432406 
L 190.301485 91.617507 
L 192.571206 82.13113 
L 194.588736 74.637356 
L 196.354074 68.913161 
L 197.867221 64.68698 
L 199.254273 61.402486 
L 200.515229 58.929635 
L 201.65009 57.136424 
L 202.78495 55.763169 
L 203.793715 54.901247 
L 204.676384 54.427208 
L 205.559053 54.216332 
L 206.315627 54.245596 
L 207.198296 54.524652 
L 208.080965 55.066545 
L 208.963635 55.869459 
L 209.9724 57.103207 
L 211.10726 58.887684 
L 212.368216 61.351106 
L 213.755268 64.625636 
L 215.268415 68.841527 
L 216.907658 74.119618 
L 218.672996 80.562064 
L 220.690526 88.779126 
L 223.086343 99.52858 
L 225.986541 113.618479 
L 231.030366 139.477623 
L 235.443712 161.627961 
L 238.217815 174.444856 
L 240.487536 183.933385 
L 242.505066 191.429423 
L 244.270404 197.155838 
L 245.783552 201.384075 
L 247.170603 204.670561 
L 248.431559 207.145298 
L 249.56642 208.940255 
L 250.70128 210.315293 
L 251.710045 211.178823 
L 252.592714 211.65428 
L 253.475384 211.866582 
L 254.231957 211.838541 
L 255.114626 211.560908 
L 255.997296 211.020432 
L 256.879965 210.218922 
L 257.88873 208.986759 
L 259.02359 207.204029 
L 260.284546 204.742493 
L 261.671598 201.469958 
L 263.184745 197.256125 
L 264.823988 191.980106 
L 266.589327 185.539679 
L 268.606856 177.324622 
L 271.002673 166.577082 
L 273.902872 152.488762 
L 278.8206 127.28006 
L 283.233946 105.086765 
L 286.00805 92.215591 
L 288.277771 82.668392 
L 290.2953 75.110538 
L 292.060639 69.323452 
L 293.699882 64.711565 
L 295.086933 61.423087 
L 296.347889 58.946466 
L 297.48275 57.149763 
L 298.61761 55.772942 
L 299.626375 54.907804 
L 300.509044 54.430928 
L 301.391714 54.217201 
L 302.148287 54.244019 
L 303.030957 54.520228 
L 303.913626 55.059287 
L 304.796295 55.859393 
L 305.80506 57.089972 
L 306.93992 58.870955 
L 308.200876 61.330603 
L 309.461832 64.280014 
L 310.97498 68.437203 
L 312.614223 73.656203 
L 314.379561 80.041009 
L 316.397091 88.200774 
L 318.792907 98.89538 
L 321.693106 112.93984 
L 326.484739 137.478004 
L 331.150277 160.973522 
L 333.92438 173.846658 
L 336.194101 183.395982 
L 338.211631 190.95608 
L 339.976969 196.74537 
L 341.616212 201.359477 
L 343.003264 204.649946 
L 344.26422 207.128453 
L 345.39908 208.926901 
L 346.533941 210.305505 
L 347.542705 211.17225 
L 348.425375 211.650545 
L 349.308044 211.865697 
L 350.064618 211.840102 
L 350.821191 211.620697 
L 351.70386 211.120516 
L 352.58653 210.358965 
L 353.595295 209.171888 
L 354.730155 207.438903 
L 355.865015 205.294307 
L 357.125971 202.443175 
L 358.513023 198.76032 
L 360.02617 194.124514 
L 361.791509 187.960539 
L 363.809039 180.021572 
L 366.078759 170.116767 
L 368.852863 156.921743 
L 372.761827 137.098084 
L 379.066607 105.132882 
L 381.84071 92.257787 
L 384.110431 82.706338 
L 386.127961 75.143998 
L 387.893299 69.352505 
L 389.532542 64.736176 
L 390.919594 61.443716 
L 392.18055 58.963325 
L 393.31541 57.163132 
L 394.450271 55.782745 
L 395.459036 54.914392 
L 396.341705 54.434678 
L 397.224374 54.218102 
L 397.980948 54.242474 
L 398.737521 54.460658 
L 399.620191 54.959421 
L 400.50286 55.719565 
L 401.511625 56.905055 
L 402.646485 58.636287 
L 403.781346 60.779176 
L 405.042302 63.628476 
L 406.429353 67.309408 
L 407.942501 71.943245 
L 409.707839 78.105118 
L 411.725369 86.041974 
L 413.99509 95.944818 
L 416.769193 109.138103 
L 420.678157 128.960636 
L 426.982937 160.9274 
L 429.75704 173.804454 
L 432.026761 183.358027 
L 434.044291 190.922608 
L 435.809629 196.716304 
L 437.448872 201.334853 
L 438.835924 204.629303 
L 440.09688 207.111578 
L 441.231741 208.913518 
L 442.366601 210.295687 
L 443.375366 211.165647 
L 444.258035 211.64678 
L 445.140704 211.864781 
L 445.897278 211.841632 
L 446.653852 211.624669 
L 447.536521 211.127324 
L 448.41919 210.368587 
L 449.427955 209.184685 
L 450.562815 207.455205 
L 451.697676 205.314023 
L 452.958632 202.466556 
L 454.345684 198.787547 
L 455.858831 194.15568 
L 457.624169 187.995909 
L 459.515603 180.582666 
L 461.785324 170.733962 
L 464.433332 158.207349 
L 468.2162 139.098346 
L 475.025363 104.570318 
L 477.799466 91.743458 
L 480.069187 82.244182 
L 482.086717 74.736835 
L 483.852055 68.99933 
L 485.491298 64.43738 
L 486.87835 61.193653 
L 488.139306 58.759368 
L 489.274166 57.00187 
L 490.282931 55.792578 
L 491.291696 54.92101 
L 492.174365 54.438459 
L 493.057035 54.219032 
L 493.813608 54.240959 
L 494.570182 54.456701 
L 495.452851 54.952628 
L 496.33552 55.709958 
L 497.344285 56.892272 
L 498.479146 58.62 
L 499.614006 60.759474 
L 500.874962 63.605108 
L 502.262014 67.282193 
L 503.775161 71.912091 
L 505.540499 78.069758 
L 507.431934 85.481011 
L 509.701654 95.327727 
L 512.349662 107.852629 
L 516.13253 126.960414 
L 522.941693 161.490032 
L 525.715796 174.318881 
L 527.985517 183.820303 
L 530.003047 191.32991 
L 531.768385 197.069632 
L 533.407628 201.633812 
L 534.79468 204.879538 
L 536.055636 207.315713 
L 537.190497 209.074961 
L 538.199261 210.285838 
L 539.208026 211.159014 
L 540.090695 211.642983 
L 540.973365 211.863835 
L 541.729938 211.843132 
L 542.486512 211.62861 
L 543.369181 211.134102 
L 544.25185 210.378178 
L 545.260615 209.197452 
L 546.395476 207.471477 
L 547.530336 205.333711 
L 548.791292 202.48991 
L 550.178344 198.814749 
L 551.691491 194.186822 
L 553.45683 188.031259 
L 555.348264 180.621996 
L 557.617985 170.777269 
L 560.265992 158.25408 
L 563.922765 139.797051 
L 570.858023 104.616311 
L 573.632127 91.785474 
L 575.901848 82.281906 
L 577.919377 74.77004 
L 579.684716 69.028102 
L 581.323959 64.461691 
L 582.71101 61.213967 
L 583.971966 58.775902 
L 585.106827 57.014905 
L 586.115592 55.802442 
L 587.124356 54.927659 
L 588.007026 54.442271 
L 588.889695 54.219994 
L 589.646269 54.239475 
L 590.402842 54.452775 
L 591.285511 54.945866 
L 592.168181 55.700382 
L 593.176945 56.87952 
L 594.311806 58.603742 
L 595.446666 60.7398 
L 596.707622 63.581768 
L 598.094674 67.255004 
L 599.607821 71.880961 
L 601.37316 78.03442 
L 602.381925 81.8868 
L 602.381925 81.8868 
" clip-path="url(#pd55789c82e)" style="fill: none; stroke: #1f77b4; stroke-width: 1.5; stroke-linecap: square"/>
   </g>
   <g id="line2d_28">
    <path d="M 86.020419 133.041672 
L 90.812052 108.83486 
L 93.586155 95.896233 
L 95.855876 86.275232 
L 97.873406 78.636659 
L 99.638744 72.766473 
L 101.277987 68.066355 
L 102.791135 64.416478 
L 104.052091 61.905914 
L 105.186951 60.073776 
L 106.321812 58.656433 
L 107.330576 57.750651 
L 108.213246 57.234394 
L 109.095915 56.977516 
L 109.978584 56.98054 
L 110.861253 57.24311 
L 111.743923 57.763999 
L 112.626592 58.541105 
L 113.635357 59.739122 
L 114.770217 61.474985 
L 116.031173 63.87333 
L 117.418225 67.062078 
L 118.931372 71.166556 
L 120.570615 76.302016 
L 122.335953 82.564447 
L 124.353483 90.541433 
L 126.7493 100.957819 
L 129.775594 115.186122 
L 140.872008 168.464433 
L 143.267824 178.316021 
L 145.285354 185.711954 
L 147.050692 191.397086 
L 148.689935 195.947513 
L 150.203082 199.477428 
L 151.464038 201.900797 
L 152.598899 203.663922 
L 153.733759 205.020774 
L 154.742524 205.879565 
L 155.625193 206.359657 
L 156.507863 206.58474 
L 157.390532 206.554041 
L 158.273201 206.26766 
L 159.15587 205.726565 
L 160.03854 204.93259 
L 161.047304 203.719039 
L 162.182165 201.969994 
L 163.443121 199.561664 
L 164.830173 196.366709 
L 166.34332 192.260013 
L 167.982563 187.126094 
L 169.747901 180.86822 
L 171.765431 172.897956 
L 174.161247 162.488647 
L 177.187542 148.263369 
L 188.410051 94.353335 
L 190.805867 84.522642 
L 192.823397 77.153549 
L 194.588736 71.499939 
L 196.227978 66.986417 
L 197.61503 63.762752 
L 198.875986 61.331109 
L 200.010847 59.564117 
L 201.145707 58.20737 
L 202.154472 57.352465 
L 203.037141 56.879026 
L 203.91981 56.66391 
L 204.80248 56.708151 
L 205.685149 57.011909 
L 206.567818 57.574469 
L 207.450487 58.394241 
L 208.459252 59.642885 
L 209.594113 61.43897 
L 210.855069 63.909488 
L 212.24212 67.185577 
L 213.755268 71.396767 
L 215.394511 76.663565 
L 217.159849 83.088275 
L 219.177379 91.280159 
L 221.573195 101.996062 
L 224.473394 116.044732 
L 229.391123 141.195005 
L 233.930565 163.96155 
L 236.704668 176.76818 
L 238.974389 186.252557 
L 240.991919 193.746578 
L 242.757257 199.471193 
L 244.270404 203.696852 
L 245.657456 206.979327 
L 246.918412 209.448411 
L 248.053272 211.236147 
L 249.062037 212.470915 
L 250.070802 213.366157 
L 250.953471 213.867575 
L 251.836141 214.103813 
L 252.592714 214.09442 
L 253.349288 213.889268 
L 254.231957 213.402977 
L 255.114626 212.652059 
L 256.123391 211.472733 
L 257.132156 209.955436 
L 258.267017 207.852263 
L 259.527973 205.036418 
L 260.915024 201.378022 
L 262.428172 196.750146 
L 264.19351 190.568553 
L 266.084944 183.097876 
L 268.228569 173.709861 
L 270.750482 161.649337 
L 274.155063 144.175035 
L 282.981755 98.293534 
L 285.629763 86.01964 
L 287.773388 77.064478 
L 289.664822 70.043051 
L 291.430161 64.332693 
L 292.943308 60.144793 
L 294.33036 56.915885 
L 295.591316 54.5098 
L 296.726176 52.789269 
L 297.734941 51.621736 
L 298.743706 50.800007 
L 299.626375 50.367458 
L 300.509044 50.203781 
L 301.265618 50.277902 
L 302.022192 50.549761 
L 302.904861 51.115922 
L 303.78753 51.948392 
L 304.796295 53.222282 
L 305.931156 55.059866 
L 307.192112 57.591915 
L 308.579163 60.953267 
L 310.092311 65.276908 
L 311.731553 70.686383 
L 313.496892 77.286437 
L 315.514422 85.702725 
L 317.910238 96.712961 
L 320.810437 111.14963 
L 325.60207 136.342386 
L 330.267607 160.460837 
L 333.041711 173.689225 
L 335.311432 183.517976 
L 337.328961 191.31678 
L 339.0943 197.306863 
L 340.733543 202.100326 
L 342.120594 205.537046 
L 343.38155 208.144036 
L 344.642506 210.240726 
L 345.777367 211.680205 
L 346.786132 212.597499 
L 347.668801 213.117424 
L 348.55147 213.371912 
L 349.308044 213.378308 
L 350.064618 213.189389 
L 350.947287 212.722986 
L 351.829956 211.993417 
L 352.838721 210.840863 
L 353.847486 209.353509 
L 354.982346 207.288623 
L 356.243302 204.522083 
L 357.630354 200.927488 
L 359.143501 196.38229 
L 360.90884 190.316598 
L 362.800274 182.995846 
L 365.069995 173.246879 
L 367.718002 160.821075 
L 371.374775 142.472731 
L 378.562224 106.199383 
L 381.336328 93.483562 
L 383.606049 84.083627 
L 385.623578 76.667848 
L 387.388917 71.010616 
L 388.902064 66.839345 
L 390.289116 63.602022 
L 391.550072 61.168552 
L 392.684932 59.407277 
L 393.819793 58.062049 
L 394.828558 57.221306 
L 395.711227 56.762595 
L 396.593896 56.563786 
L 397.35047 56.600606 
L 398.233139 56.885008 
L 399.115808 57.428279 
L 399.998477 58.228372 
L 401.007242 59.453464 
L 402.142103 61.220903 
L 403.403059 63.655834 
L 404.79011 66.886791 
L 406.303258 71.039834 
L 407.942501 76.231049 
L 409.707839 82.557348 
L 411.725369 90.612329 
L 414.121185 101.128312 
L 417.14748 115.492906 
L 428.369989 169.894792 
L 430.765805 179.819722 
L 432.783335 187.265894 
L 434.548673 192.985968 
L 436.187916 197.561064 
L 437.574968 200.837245 
L 438.835924 203.317372 
L 440.09688 205.305111 
L 441.231741 206.661582 
L 442.240505 207.516821 
L 443.123175 207.991317 
L 444.005844 208.208478 
L 444.888513 208.167534 
L 445.771182 207.868588 
L 446.653852 207.312615 
L 447.536521 206.501461 
L 448.545286 205.265478 
L 449.680146 203.487658 
L 450.941102 201.043021 
L 452.328154 197.802947 
L 453.841301 193.640985 
L 455.480544 188.44029 
L 457.245882 182.102791 
L 459.263412 174.032241 
L 461.659229 163.491902 
L 464.685523 149.08454 
L 470.864208 118.184136 
L 474.52098 100.628406 
L 477.168988 88.989332 
L 479.312613 80.508626 
L 481.204048 73.873705 
L 482.969386 68.495135 
L 484.482533 64.568344 
L 485.869585 61.559268 
L 487.130541 59.336436 
L 488.265401 57.767081 
L 489.274166 56.722851 
L 490.156836 56.084056 
L 491.039505 55.704353 
L 491.922174 55.585241 
L 492.678748 55.69105 
L 493.561417 56.05688 
L 494.444086 56.682752 
L 495.452851 57.714002 
L 496.461616 59.078217 
L 497.596476 61.003855 
L 498.857432 63.616729 
L 500.244484 67.046132 
L 501.757631 71.418952 
L 503.396874 76.852131 
L 505.288308 83.941413 
L 507.431934 92.907443 
L 509.953846 104.492809 
L 513.106236 120.091999 
L 523.067789 170.229911 
L 525.589701 181.353313 
L 527.733326 189.820512 
L 529.62476 196.394542 
L 531.264003 201.328756 
L 532.77715 205.201515 
L 534.164202 208.142297 
L 535.425158 210.288347 
L 536.560018 211.77734 
L 537.568783 212.741721 
L 538.451453 213.30454 
L 539.334122 213.602908 
L 540.090695 213.647268 
L 540.847269 213.496258 
L 541.729938 213.073533 
L 542.612608 212.386505 
L 543.621372 211.280453 
L 544.630137 209.836547 
L 545.764998 207.815874 
L 547.025954 205.091345 
L 548.413005 201.532605 
L 549.926153 197.01203 
L 551.565396 191.412374 
L 553.45683 184.124749 
L 555.600455 174.928704 
L 558.122367 163.069909 
L 561.400853 146.476965 
L 570.984119 97.219007 
L 573.506031 85.776887 
L 575.649656 77.030245 
L 577.54109 70.205221 
L 579.180333 65.051507 
L 580.693481 60.975532 
L 582.080532 57.848737 
L 583.341488 55.534394 
L 584.476349 53.895031 
L 585.485114 52.798162 
L 586.367783 52.120532 
L 587.250452 51.708569 
L 588.133121 51.563598 
L 588.889695 51.652198 
L 589.772364 52.003562 
L 590.655033 52.62082 
L 591.537703 53.501883 
L 592.546467 54.827996 
L 593.681328 56.719779 
L 594.942284 59.305959 
L 596.329336 62.718889 
L 597.842483 67.088595 
L 599.481726 72.535165 
L 601.37316 79.660465 
L 602.381925 83.793731 
L 602.381925 83.793731 
" clip-path="url(#pd55789c82e)" style="fill: none; stroke: #ff7f0e; stroke-width: 1.5; stroke-linecap: square"/>
   </g>
   <g id="patch_3">
    <path d="M 60.202344 222.319648 
L 60.202344 42.006328 
" style="fill: none; stroke: #000000; stroke-width: 0.8; stroke-linejoin: miter; stroke-linecap: square"/>
   </g>
   <g id="patch_4">
    <path d="M 628.2 222.319648 
L 628.2 42.006328 
" style="fill: none; stroke: #000000; stroke-width: 0.8; stroke-linejoin: miter; stroke-linecap: square"/>
   </g>
   <g id="patch_5">
    <path d="M 60.202344 222.319648 
L 628.2 222.319648 
" style="fill: none; stroke: #000000; stroke-width: 0.8; stroke-linejoin: miter; stroke-linecap: square"/>
   </g>
   <g id="patch_6">
    <path d="M 60.202344 42.006328 
L 628.2 42.006328 
" style="fill: none; stroke: #000000; stroke-width: 0.8; stroke-linejoin: miter; stroke-linecap: square"/>
   </g>
   <g id="text_16">
    <!-- Daily Useless RLC (2026-06-29) | verdict: restless -->
    <g transform="translate(195.617734 21.550547) scale(0.12 -0.12)">
     <defs>
      <path id="DejaVuSans-27" d="M 1259 4147 
L 1259 519 
L 2022 519 
Q 2988 519 3436 956 
Q 3884 1394 3884 2338 
Q 3884 3275 3436 3711 
Q 2988 4147 2022 4147 
L 1259 4147 
z
M 628 4666 
L 1925 4666 
Q 3281 4666 3915 4102 
Q 4550 3538 4550 2338 
Q 4550 1131 3912 565 
Q 3275 0 1925 0 
L 628 0 
L 628 4666 
z
" transform="scale(0.015625)"/>
      <path id="DejaVuSans-4c" d="M 603 3500 
L 1178 3500 
L 1178 0 
L 603 0 
L 603 3500 
z
M 603 4863 
L 1178 4863 
L 1178 4134 
L 603 4134 
L 603 4863 
z
" transform="scale(0.015625)"/>
      <path id="DejaVuSans-4f" d="M 603 4863 
L 1178 4863 
L 1178 0 
L 603 0 
L 603 4863 
z
" transform="scale(0.015625)"/>
      <path id="DejaVuSans-5c" d="M 2059 -325 
Q 1816 -950 1584 -1140 
Q 1353 -1331 966 -1331 
L 506 -1331 
L 506 -850 
L 844 -850 
Q 1081 -850 1212 -737 
Q 1344 -625 1503 -206 
L 1606 56 
L 191 3500 
L 800 3500 
L 1894 763 
L 2988 3500 
L 3597 3500 
L 2059 -325 
z
" transform="scale(0.015625)"/>
      <path id="DejaVuSans-38" d="M 556 4666 
L 1191 4666 
L 1191 1831 
Q 1191 1081 1462 751 
Q 1734 422 2344 422 
Q 2950 422 3222 751 
Q 3494 1081 3494 1831 
L 3494 4666 
L 4128 4666 
L 4128 1753 
Q 4128 841 3676 375 
Q 3225 -91 2344 -91 
Q 1459 -91 1007 375 
Q 556 841 556 1753 
L 556 4666 
z
" transform="scale(0.015625)"/>
      <path id="DejaVuSans-56" d="M 2834 3397 
L 2834 2853 
Q 2591 2978 2328 3040 
Q 2066 3103 1784 3103 
Q 1356 3103 1142 2972 
Q 928 2841 928 2578 
Q 928 2378 1081 2264 
Q 1234 2150 1697 2047 
L 1894 2003 
Q 2506 1872 2764 1633 
Q 3022 1394 3022 966 
Q 3022 478 2636 193 
Q 2250 -91 1575 -91 
Q 1294 -91 989 -36 
Q 684 19 347 128 
L 347 722 
Q 666 556 975 473 
Q 1284 391 1588 391 
Q 1994 391 2212 530 
Q 2431 669 2431 922 
Q 2431 1156 2273 1281 
Q 2116 1406 1581 1522 
L 1381 1569 
Q 847 1681 609 1914 
Q 372 2147 372 2553 
Q 372 3047 722 3315 
Q 1072 3584 1716 3584 
Q 2034 3584 2315 3537 
Q 2597 3491 2834 3397 
z
" transform="scale(0.015625)"/>
      <path id="DejaVuSans-48" d="M 3597 1894 
L 3597 1613 
L 953 1613 
Q 991 1019 1311 708 
Q 1631 397 2203 397 
Q 2534 397 2845 478 
Q 3156 559 3463 722 
L 3463 178 
Q 3153 47 2828 -22 
Q 2503 -91 2169 -91 
Q 1331 -91 842 396 
Q 353 884 353 1716 
Q 353 2575 817 3079 
Q 1281 3584 2069 3584 
Q 2775 3584 3186 3129 
Q 3597 2675 3597 1894 
z
M 3022 2063 
Q 3016 2534 2758 2815 
Q 2500 3097 2075 3097 
Q 1594 3097 1305 2825 
Q 1016 2553 972 2059 
L 3022 2063 
z
" transform="scale(0.015625)"/>
      <path id="DejaVuSans-35" d="M 2841 2188 
Q 3044 2119 3236 1894 
Q 3428 1669 3622 1275 
L 4263 0 
L 3584 0 
L 2988 1197 
Q 2756 1666 2539 1819 
Q 2322 1972 1947 1972 
L 1259 1972 
L 1259 0 
L 628 0 
L 628 4666 
L 2053 4666 
Q 2853 4666 3247 4331 
Q 3641 3997 3641 3322 
Q 3641 2881 3436 2590 
Q 3231 2300 2841 2188 
z
M 1259 4147 
L 1259 2491 
L 2053 2491 
Q 2509 2491 2742 2702 
Q 2975 2913 2975 3322 
Q 2975 3731 2742 3939 
Q 2509 4147 2053 4147 
L 1259 4147 
z
" transform="scale(0.015625)"/>
      <path id="DejaVuSans-2f" d="M 628 4666 
L 1259 4666 
L 1259 531 
L 3531 531 
L 3531 0 
L 628 0 
L 628 4666 
z
" transform="scale(0.015625)"/>
      <path id="DejaVuSans-26" d="M 4122 4306 
L 4122 3641 
Q 3803 3938 3442 4084 
Q 3081 4231 2675 4231 
Q 1875 4231 1450 3742 
Q 1025 3253 1025 2328 
Q 1025 1406 1450 917 
Q 1875 428 2675 428 
Q 3081 428 3442 575 
Q 3803 722 4122 1019 
L 4122 359 
Q 3791 134 3420 21 
Q 3050 -91 2638 -91 
Q 1578 -91 968 557 
Q 359 1206 359 2328 
Q 359 3453 968 4101 
Q 1578 4750 2638 4750 
Q 3056 4750 3426 4639 
Q 3797 4528 4122 4306 
z
" transform="scale(0.015625)"/>
      <path id="DejaVuSans-b" d="M 1984 4856 
Q 1566 4138 1362 3434 
Q 1159 2731 1159 2009 
Q 1159 1288 1364 580 
Q 1569 -128 1984 -844 
L 1484 -844 
Q 1016 -109 783 600 
Q 550 1309 550 2009 
Q 550 2706 781 3412 
Q 1013 4119 1484 4856 
L 1984 4856 
z
" transform="scale(0.015625)"/>
      <path id="DejaVuSans-10" d="M 313 2009 
L 1997 2009 
L 1997 1497 
L 313 1497 
L 313 2009 
z
" transform="scale(0.015625)"/>
      <path id="DejaVuSans-1c" d="M 703 97 
L 703 672 
Q 941 559 1184 500 
Q 1428 441 1663 441 
Q 2288 441 2617 861 
Q 2947 1281 2994 2138 
Q 2813 1869 2534 1725 
Q 2256 1581 1919 1581 
Q 1219 1581 811 2004 
Q 403 2428 403 3163 
Q 403 3881 828 4315 
Q 1253 4750 1959 4750 
Q 2769 4750 3195 4129 
Q 3622 3509 3622 2328 
Q 3622 1225 3098 567 
Q 2575 -91 1691 -91 
Q 1453 -91 1209 -44 
Q 966 3 703 97 
z
M 1959 2075 
Q 2384 2075 2632 2365 
Q 2881 2656 2881 3163 
Q 2881 3666 2632 3958 
Q 2384 4250 1959 4250 
Q 1534 4250 1286 3958 
Q 1038 3666 1038 3163 
Q 1038 2656 1286 2365 
Q 1534 2075 1959 2075 
z
" transform="scale(0.015625)"/>
      <path id="DejaVuSans-c" d="M 513 4856 
L 1013 4856 
Q 1481 4119 1714 3412 
Q 1947 2706 1947 2009 
Q 1947 1309 1714 600 
Q 1481 -109 1013 -844 
L 513 -844 
Q 928 -128 1133 580 
Q 1338 1288 1338 2009 
Q 1338 2731 1133 3434 
Q 928 4138 513 4856 
z
" transform="scale(0.015625)"/>
      <path id="DejaVuSans-5f" d="M 1344 4891 
L 1344 -1509 
L 813 -1509 
L 813 4891 
L 1344 4891 
z
" transform="scale(0.015625)"/>
      <path id="DejaVuSans-59" d="M 191 3500 
L 800 3500 
L 1894 563 
L 2988 3500 
L 3597 3500 
L 2284 0 
L 1503 0 
L 191 3500 
z
" transform="scale(0.015625)"/>
      <path id="DejaVuSans-47" d="M 2906 2969 
L 2906 4863 
L 3481 4863 
L 3481 0 
L 2906 0 
L 2906 525 
Q 2725 213 2448 61 
Q 2172 -91 1784 -91 
Q 1150 -91 751 415 
Q 353 922 353 1747 
Q 353 2572 751 3078 
Q 1150 3584 1784 3584 
Q 2172 3584 2448 3432 
Q 2725 3281 2906 2969 
z
M 947 1747 
Q 947 1113 1208 752 
Q 1469 391 1925 391 
Q 2381 391 2643 752 
Q 2906 1113 2906 1747 
Q 2906 2381 2643 2742 
Q 2381 3103 1925 3103 
Q 1469 3103 1208 2742 
Q 947 2381 947 1747 
z
" transform="scale(0.015625)"/>
      <path id="DejaVuSans-46" d="M 3122 3366 
L 3122 2828 
Q 2878 2963 2633 3030 
Q 2388 3097 2138 3097 
Q 1578 3097 1268 2742 
Q 959 2388 959 1747 
Q 959 1106 1268 751 
Q 1578 397 2138 397 
Q 2388 397 2633 464 
Q 2878 531 3122 666 
L 3122 134 
Q 2881 22 2623 -34 
Q 2366 -91 2075 -91 
Q 1284 -91 818 406 
Q 353 903 353 1747 
Q 353 2603 823 3093 
Q 1294 3584 2113 3584 
Q 2378 3584 2631 3529 
Q 2884 3475 3122 3366 
z
" transform="scale(0.015625)"/>
      <path id="DejaVuSans-1d" d="M 750 794 
L 1409 794 
L 1409 0 
L 750 0 
L 750 794 
z
M 750 3309 
L 1409 3309 
L 1409 2516 
L 750 2516 
L 750 3309 
z
" transform="scale(0.015625)"/>
     </defs>
     <use xlink:href="#DejaVuSans-27"/>
     <use xlink:href="#DejaVuSans-44" transform="translate(77 0)"/>
     <use xlink:href="#DejaVuSans-4c" transform="translate(138.28125 0)"/>
     <use xlink:href="#DejaVuSans-4f" transform="translate(166.0625 0)"/>
     <use xlink:href="#DejaVuSans-5c" transform="translate(193.84375 0)"/>
     <use xlink:href="#DejaVuSans-3" transform="translate(253.03125 0)"/>
     <use xlink:href="#DejaVuSans-38" transform="translate(284.8125 0)"/>
     <use xlink:href="#DejaVuSans-56" transform="translate(358 0)"/>
     <use xlink:href="#DejaVuSans-48" transform="translate(410.09375 0)"/>
     <use xlink:href="#DejaVuSans-4f" transform="translate(471.625 0)"/>
     <use xlink:href="#DejaVuSans-48" transform="translate(499.40625 0)"/>
     <use xlink:href="#DejaVuSans-56" transform="translate(560.9375 0)"/>
     <use xlink:href="#DejaVuSans-56" transform="translate(613.03125 0)"/>
     <use xlink:href="#DejaVuSans-3" transform="translate(665.125 0)"/>
     <use xlink:href="#DejaVuSans-35" transform="translate(696.90625 0)"/>
     <use xlink:href="#DejaVuSans-2f" transform="translate(766.390625 0)"/>
     <use xlink:href="#DejaVuSans-26" transform="translate(822.109375 0)"/>
     <use xlink:href="#DejaVuSans-3" transform="translate(891.9375 0)"/>
     <use xlink:href="#DejaVuSans-b" transform="translate(923.71875 0)"/>
     <use xlink:href="#DejaVuSans-15" transform="translate(962.734375 0)"/>
     <use xlink:href="#DejaVuSans-13" transform="translate(1026.359375 0)"/>
     <use xlink:href="#DejaVuSans-15" transform="translate(1089.984375 0)"/>
     <use xlink:href="#DejaVuSans-19" transform="translate(1153.609375 0)"/>
     <use xlink:href="#DejaVuSans-10" transform="translate(1217.234375 0)"/>
     <use xlink:href="#DejaVuSans-13" transform="translate(1253.3125 0)"/>
     <use xlink:href="#DejaVuSans-19" transform="translate(1316.9375 0)"/>
     <use xlink:href="#DejaVuSans-10" transform="translate(1380.5625 0)"/>
     <use xlink:href="#DejaVuSans-15" transform="translate(1416.640625 0)"/>
     <use xlink:href="#DejaVuSans-1c" transform="translate(1480.265625 0)"/>
     <use xlink:href="#DejaVuSans-c" transform="translate(1543.890625 0)"/>
     <use xlink:href="#DejaVuSans-3" transform="translate(1582.90625 0)"/>
     <use xlink:href="#DejaVuSans-5f" transform="translate(1614.6875 0)"/>
     <use xlink:href="#DejaVuSans-3" transform="translate(1648.375 0)"/>
     <use xlink:href="#DejaVuSans-59" transform="translate(1680.15625 0)"/>
     <use xlink:href="#DejaVuSans-48" transform="translate(1739.34375 0)"/>
     <use xlink:href="#DejaVuSans-55" transform="translate(1800.875 0)"/>
     <use xlink:href="#DejaVuSans-47" transform="translate(1840.234375 0)"/>
     <use xlink:href="#DejaVuSans-4c" transform="translate(1903.71875 0)"/>
     <use xlink:href="#DejaVuSans-46" transform="translate(1931.5 0)"/>
     <use xlink:href="#DejaVuSans-57" transform="translate(1986.484375 0)"/>
     <use xlink:href="#DejaVuSans-1d" transform="translate(2025.6875 0)"/>
     <use xlink:href="#DejaVuSans-3" transform="translate(2059.375 0)"/>
     <use xlink:href="#DejaVuSans-55" transform="translate(2091.15625 0)"/>
     <use xlink:href="#DejaVuSans-48" transform="translate(2130.0625 0)"/>
     <use xlink:href="#DejaVuSans-56" transform="translate(2191.59375 0)"/>
     <use xlink:href="#DejaVuSans-57" transform="translate(2243.6875 0)"/>
     <use xlink:href="#DejaVuSans-4f" transform="translate(2282.890625 0)"/>
     <use xlink:href="#DejaVuSans-48" transform="translate(2310.671875 0)"/>
     <use xlink:href="#DejaVuSans-56" transform="translate(2372.203125 0)"/>
     <use xlink:href="#DejaVuSans-56" transform="translate(2424.296875 0)"/>
    </g>
    <!-- Filter: notch | Input: sine, sine (A=1.44, f=0.54 Hz) | R=0.270, L=2.00, C=0.10, ωn=2.24, ζ=0.030, Q=16.54 -->
    <g transform="translate(16.749297 36.006328) scale(0.12 -0.12)">
     <defs>
      <path id="DejaVuSans-29" d="M 628 4666 
L 3309 4666 
L 3309 4134 
L 1259 4134 
L 1259 2759 
L 3109 2759 
L 3109 2228 
L 1259 2228 
L 1259 0 
L 628 0 
L 628 4666 
z
" transform="scale(0.015625)"/>
      <path id="DejaVuSans-51" d="M 3513 2113 
L 3513 0 
L 2938 0 
L 2938 2094 
Q 2938 2591 2744 2837 
Q 2550 3084 2163 3084 
Q 1697 3084 1428 2787 
Q 1159 2491 1159 1978 
L 1159 0 
L 581 0 
L 581 3500 
L 1159 3500 
L 1159 2956 
Q 1366 3272 1645 3428 
Q 1925 3584 2291 3584 
Q 2894 3584 3203 3211 
Q 3513 2838 3513 2113 
z
" transform="scale(0.015625)"/>
      <path id="DejaVuSans-52" d="M 1959 3097 
Q 1497 3097 1228 2736 
Q 959 2375 959 1747 
Q 959 1119 1226 758 
Q 1494 397 1959 397 
Q 2419 397 2687 759 
Q 2956 1122 2956 1747 
Q 2956 2369 2687 2733 
Q 2419 3097 1959 3097 
z
M 1959 3584 
Q 2709 3584 3137 3096 
Q 3566 2609 3566 1747 
Q 3566 888 3137 398 
Q 2709 -91 1959 -91 
Q 1206 -91 779 398 
Q 353 888 353 1747 
Q 353 2609 779 3096 
Q 1206 3584 1959 3584 
z
" transform="scale(0.015625)"/>
      <path id="DejaVuSans-4b" d="M 3513 2113 
L 3513 0 
L 2938 0 
L 2938 2094 
Q 2938 2591 2744 2837 
Q 2550 3084 2163 3084 
Q 1697 3084 1428 2787 
Q 1159 2491 1159 1978 
L 1159 0 
L 581 0 
L 581 4863 
L 1159 4863 
L 1159 2956 
Q 1366 3272 1645 3428 
Q 1925 3584 2291 3584 
Q 2894 3584 3203 3211 
Q 3513 2838 3513 2113 
z
" transform="scale(0.015625)"/>
      <path id="DejaVuSans-2c" d="M 628 4666 
L 1259 4666 
L 1259 0 
L 628 0 
L 628 4666 
z
" transform="scale(0.015625)"/>
      <path id="DejaVuSans-53" d="M 1159 525 
L 1159 -1331 
L 581 -1331 
L 581 3500 
L 1159 3500 
L 1159 2969 
Q 1341 3281 1617 3432 
Q 1894 3584 2278 3584 
Q 2916 3584 3314 3078 
Q 3713 2572 3713 1747 
Q 3713 922 3314 415 
Q 2916 -91 2278 -91 
Q 1894 -91 1617 61 
Q 1341 213 1159 525 
z
M 3116 1747 
Q 3116 2381 2855 2742 
Q 2594 3103 2138 3103 
Q 1681 3103 1420 2742 
Q 1159 2381 1159 1747 
Q 1159 1113 1420 752 
Q 1681 391 2138 391 
Q 2594 391 2855 752 
Q 3116 1113 3116 1747 
z
" transform="scale(0.015625)"/>
      <path id="DejaVuSans-58" d="M 544 1381 
L 544 3500 
L 1119 3500 
L 1119 1403 
Q 1119 906 1312 657 
Q 1506 409 1894 409 
Q 2359 409 2629 706 
Q 2900 1003 2900 1516 
L 2900 3500 
L 3475 3500 
L 3475 0 
L 2900 0 
L 2900 538 
Q 2691 219 2414 64 
Q 2138 -91 1772 -91 
Q 1169 -91 856 284 
Q 544 659 544 1381 
z
M 1991 3584 
L 1991 3584 
z
" transform="scale(0.015625)"/>
      <path id="DejaVuSans-f" d="M 750 794 
L 1409 794 
L 1409 256 
L 897 -744 
L 494 -744 
L 750 256 
L 750 794 
z
" transform="scale(0.015625)"/>
      <path id="DejaVuSans-24" d="M 2188 4044 
L 1331 1722 
L 3047 1722 
L 2188 4044 
z
M 1831 4666 
L 2547 4666 
L 4325 0 
L 3669 0 
L 3244 1197 
L 1141 1197 
L 716 0 
L 50 0 
L 1831 4666 
z
" transform="scale(0.015625)"/>
      <path id="DejaVuSans-20" d="M 678 2906 
L 4684 2906 
L 4684 2381 
L 678 2381 
L 678 2906 
z
M 678 1631 
L 4684 1631 
L 4684 1100 
L 678 1100 
L 678 1631 
z
" transform="scale(0.015625)"/>
      <path id="DejaVuSans-49" d="M 2375 4863 
L 2375 4384 
L 1825 4384 
Q 1516 4384 1395 4259 
Q 1275 4134 1275 3809 
L 1275 3500 
L 2222 3500 
L 2222 3053 
L 1275 3053 
L 1275 0 
L 697 0 
L 697 3053 
L 147 3053 
L 147 3500 
L 697 3500 
L 697 3744 
Q 697 4328 969 4595 
Q 1241 4863 1831 4863 
L 2375 4863 
z
" transform="scale(0.015625)"/>
      <path id="DejaVuSans-2b" d="M 628 4666 
L 1259 4666 
L 1259 2753 
L 3553 2753 
L 3553 4666 
L 4184 4666 
L 4184 0 
L 3553 0 
L 3553 2222 
L 1259 2222 
L 1259 0 
L 628 0 
L 628 4666 
z
" transform="scale(0.015625)"/>
      <path id="DejaVuSans-5d" d="M 353 3500 
L 3084 3500 
L 3084 2975 
L 922 459 
L 3084 459 
L 3084 0 
L 275 0 
L 275 525 
L 2438 3041 
L 353 3041 
L 353 3500 
z
" transform="scale(0.015625)"/>
      <path id="DejaVuSans-1a" d="M 525 4666 
L 3525 4666 
L 3525 4397 
L 1831 0 
L 1172 0 
L 2766 4134 
L 525 4134 
L 525 4666 
z
" transform="scale(0.015625)"/>
      <path id="DejaVuSans-35d" d="M 1719 -91 
Q 422 -91 422 1766 
Q 422 2500 906 3500 
L 1525 3500 
Q 1078 2500 1078 1750 
Q 1078 397 1772 397 
Q 2406 397 2406 2078 
L 2938 2078 
Q 2938 397 3572 397 
Q 4266 397 4266 1750 
Q 4266 2500 3819 3500 
L 4438 3500 
Q 4922 2500 4922 1766 
Q 4922 -91 3625 -91 
Q 2775 -91 2672 844 
Q 2544 -91 1719 -91 
z
" transform="scale(0.015625)"/>
      <path id="DejaVuSans-34a" d="M 2231 397 
Q 2644 394 2891 159 
Q 3153 -88 3153 -463 
Q 3153 -822 2922 -1072 
Q 2672 -1344 2163 -1344 
Q 2163 -1109 2163 -872 
Q 2378 -888 2509 -750 
Q 2609 -641 2609 -525 
Q 2609 -359 2509 -222 
Q 2413 -91 2231 -91 
Q 338 -91 334 1669 
Q 334 3206 2119 4284 
L 456 4284 
L 456 4863 
L 3175 4863 
L 3175 4284 
Q 913 3147 913 1669 
Q 913 397 2231 397 
z
" transform="scale(0.015625)"/>
      <path id="DejaVuSans-16" d="M 2597 2516 
Q 3050 2419 3304 2112 
Q 3559 1806 3559 1356 
Q 3559 666 3084 287 
Q 2609 -91 1734 -91 
Q 1441 -91 1130 -33 
Q 819 25 488 141 
L 488 750 
Q 750 597 1062 519 
Q 1375 441 1716 441 
Q 2309 441 2620 675 
Q 2931 909 2931 1356 
Q 2931 1769 2642 2001 
Q 2353 2234 1838 2234 
L 1294 2234 
L 1294 2753 
L 1863 2753 
Q 2328 2753 2575 2939 
Q 2822 3125 2822 3475 
Q 2822 3834 2567 4026 
Q 2313 4219 1838 4219 
Q 1578 4219 1281 4162 
Q 984 4106 628 3988 
L 628 4550 
Q 988 4650 1302 4700 
Q 1616 4750 1894 4750 
Q 2613 4750 3031 4423 
Q 3450 4097 3450 3541 
Q 3450 3153 3228 2886 
Q 3006 2619 2597 2516 
z
" transform="scale(0.015625)"/>
      <path id="DejaVuSans-34" d="M 2522 4238 
Q 1834 4238 1429 3725 
Q 1025 3213 1025 2328 
Q 1025 1447 1429 934 
Q 1834 422 2522 422 
Q 3209 422 3611 934 
Q 4013 1447 4013 2328 
Q 4013 3213 3611 3725 
Q 3209 4238 2522 4238 
z
M 3406 84 
L 4238 -825 
L 3475 -825 
L 2784 -78 
Q 2681 -84 2626 -87 
Q 2572 -91 2522 -91 
Q 1538 -91 948 567 
Q 359 1225 359 2328 
Q 359 3434 948 4092 
Q 1538 4750 2522 4750 
Q 3503 4750 4090 4092 
Q 4678 3434 4678 2328 
Q 4678 1516 4351 937 
Q 4025 359 3406 84 
z
" transform="scale(0.015625)"/>
     </defs>
     <use xlink:href="#DejaVuSans-29"/>
     <use xlink:href="#DejaVuSans-4c" transform="translate(50.234375 0)"/>
     <use xlink:href="#DejaVuSans-4f" transform="translate(78.015625 0)"/>
     <use xlink:href="#DejaVuSans-57" transform="translate(105.796875 0)"/>
     <use xlink:href="#DejaVuSans-48" transform="translate(145 0)"/>
     <use xlink:href="#DejaVuSans-55" transform="translate(206.53125 0)"/>
     <use xlink:href="#DejaVuSans-1d" transform="translate(245.890625 0)"/>
     <use xlink:href="#DejaVuSans-3" transform="translate(279.578125 0)"/>
     <use xlink:href="#DejaVuSans-51" transform="translate(311.359375 0)"/>
     <use xlink:href="#DejaVuSans-52" transform="translate(374.734375 0)"/>
     <use xlink:href="#DejaVuSans-57" transform="translate(435.921875 0)"/>
     <use xlink:href="#DejaVuSans-46" transform="translate(475.125 0)"/>
     <use xlink:href="#DejaVuSans-4b" transform="translate(530.109375 0)"/>
     <use xlink:href="#DejaVuSans-3" transform="translate(593.484375 0)"/>
     <use xlink:href="#DejaVuSans-5f" transform="translate(625.265625 0)"/>
     <use xlink:href="#DejaVuSans-3" transform="translate(658.953125 0)"/>
     <use xlink:href="#DejaVuSans-2c" transform="translate(690.734375 0)"/>
     <use xlink:href="#DejaVuSans-51" transform="translate(720.234375 0)"/>
     <use xlink:href="#DejaVuSans-53" transform="translate(783.609375 0)"/>
     <use xlink:href="#DejaVuSans-58" transform="translate(847.09375 0)"/>
     <use xlink:href="#DejaVuSans-57" transform="translate(910.46875 0)"/>
     <use xlink:href="#DejaVuSans-1d" transform="translate(949.671875 0)"/>
     <use xlink:href="#DejaVuSans-3" transform="translate(983.359375 0)"/>
     <use xlink:href="#DejaVuSans-56" transform="translate(1015.140625 0)"/>
     <use xlink:href="#DejaVuSans-4c" transform="translate(1067.234375 0)"/>
     <use xlink:href="#DejaVuSans-51" transform="translate(1095.015625 0)"/>
     <use xlink:href="#DejaVuSans-48" transform="translate(1158.390625 0)"/>
     <use xlink:href="#DejaVuSans-f" transform="translate(1219.921875 0)"/>
     <use xlink:href="#DejaVuSans-3" transform="translate(1251.703125 0)"/>
     <use xlink:href="#DejaVuSans-56" transform="translate(1283.484375 0)"/>
     <use xlink:href="#DejaVuSans-4c" transform="translate(1335.578125 0)"/>
     <use xlink:href="#DejaVuSans-51" transform="translate(1363.359375 0)"/>
     <use xlink:href="#DejaVuSans-48" transform="translate(1426.734375 0)"/>
     <use xlink:href="#DejaVuSans-3" transform="translate(1488.265625 0)"/>
     <use xlink:href="#DejaVuSans-b" transform="translate(1520.046875 0)"/>
     <use xlink:href="#DejaVuSans-24" transform="translate(1559.0625 0)"/>
     <use xlink:href="#DejaVuSans-20" transform="translate(1627.46875 0)"/>
     <use xlink:href="#DejaVuSans-14" transform="translate(1711.265625 0)"/>
     <use xlink:href="#DejaVuSans-11" transform="translate(1774.890625 0)"/>
     <use xlink:href="#DejaVuSans-17" transform="translate(1806.671875 0)"/>
     <use xlink:href="#DejaVuSans-17" transform="translate(1870.296875 0)"/>
     <use xlink:href="#DejaVuSans-f" transform="translate(1933.921875 0)"/>
     <use xlink:href="#DejaVuSans-3" transform="translate(1965.703125 0)"/>
     <use xlink:href="#DejaVuSans-49" transform="translate(1997.484375 0)"/>
     <use xlink:href="#DejaVuSans-20" transform="translate(2032.6875 0)"/>
     <use xlink:href="#DejaVuSans-13" transform="translate(2116.484375 0)"/>
     <use xlink:href="#DejaVuSans-11" transform="translate(2180.109375 0)"/>
     <use xlink:href="#DejaVuSans-18" transform="translate(2211.890625 0)"/>
     <use xlink:href="#DejaVuSans-17" transform="translate(2275.515625 0)"/>
     <use xlink:href="#DejaVuSans-3" transform="translate(2339.140625 0)"/>
     <use xlink:href="#DejaVuSans-2b" transform="translate(2370.921875 0)"/>
     <use xlink:href="#DejaVuSans-5d" transform="translate(2446.125 0)"/>
     <use xlink:href="#DejaVuSans-c" transform="translate(2498.609375 0)"/>
     <use xlink:href="#DejaVuSans-3" transform="translate(2537.625 0)"/>
     <use xlink:href="#DejaVuSans-5f" transform="translate(2569.40625 0)"/>
     <use xlink:href="#DejaVuSans-3" transform="translate(2603.09375 0)"/>
     <use xlink:href="#DejaVuSans-35" transform="translate(2634.875 0)"/>
     <use xlink:href="#DejaVuSans-20" transform="translate(2704.359375 0)"/>
     <use xlink:href="#DejaVuSans-13" transform="translate(2788.15625 0)"/>
     <use xlink:href="#DejaVuSans-11" transform="translate(2851.78125 0)"/>
     <use xlink:href="#DejaVuSans-15" transform="translate(2883.5625 0)"/>
     <use xlink:href="#DejaVuSans-1a" transform="translate(2947.1875 0)"/>
     <use xlink:href="#DejaVuSans-13" transform="translate(3010.8125 0)"/>
     <use xlink:href="#DejaVuSans-f" transform="translate(3074.4375 0)"/>
     <use xlink:href="#DejaVuSans-3" transform="translate(3106.21875 0)"/>
     <use xlink:href="#DejaVuSans-2f" transform="translate(3138 0)"/>
     <use xlink:href="#DejaVuSans-20" transform="translate(3193.71875 0)"/>
     <use xlink:href="#DejaVuSans-15" transform="translate(3277.515625 0)"/>
     <use xlink:href="#DejaVuSans-11" transform="translate(3341.140625 0)"/>
     <use xlink:href="#DejaVuSans-13" transform="translate(3372.921875 0)"/>
     <use xlink:href="#DejaVuSans-13" transform="translate(3436.546875 0)"/>
     <use xlink:href="#DejaVuSans-f" transform="translate(3500.171875 0)"/>
     <use xlink:href="#DejaVuSans-3" transform="translate(3531.953125 0)"/>
     <use xlink:href="#DejaVuSans-26" transform="translate(3563.734375 0)"/>
     <use xlink:href="#DejaVuSans-20" transform="translate(3633.5625 0)"/>
     <use xlink:href="#DejaVuSans-13" transform="translate(3717.359375 0)"/>
     <use xlink:href="#DejaVuSans-11" transform="translate(3780.984375 0)"/>
     <use xlink:href="#DejaVuSans-14" transform="translate(3812.765625 0)"/>
     <use xlink:href="#DejaVuSans-13" transform="translate(3876.390625 0)"/>
     <use xlink:href="#DejaVuSans-f" transform="translate(3940.015625 0)"/>
     <use xlink:href="#DejaVuSans-3" transform="translate(3971.796875 0)"/>
     <use xlink:href="#DejaVuSans-35d" transform="translate(4003.578125 0)"/>
     <use xlink:href="#DejaVuSans-51" transform="translate(4087.3125 0)"/>
     <use xlink:href="#DejaVuSans-20" transform="translate(4150.6875 0)"/>
     <use xlink:href="#DejaVuSans-15" transform="translate(4234.484375 0)"/>
     <use xlink:href="#DejaVuSans-11" transform="translate(4298.109375 0)"/>
     <use xlink:href="#DejaVuSans-15" transform="translate(4329.890625 0)"/>
     <use xlink:href="#DejaVuSans-17" transform="translate(4393.515625 0)"/>
     <use xlink:href="#DejaVuSans-f" transform="translate(4457.140625 0)"/>
     <use xlink:href="#DejaVuSans-3" transform="translate(4488.921875 0)"/>
     <use xlink:href="#DejaVuSans-34a" transform="translate(4520.703125 0)"/>
     <use xlink:href="#DejaVuSans-20" transform="translate(4575.09375 0)"/>
     <use xlink:href="#DejaVuSans-13" transform="translate(4658.890625 0)"/>
     <use xlink:href="#DejaVuSans-11" transform="translate(4722.515625 0)"/>
     <use xlink:href="#DejaVuSans-13" transform="translate(4754.296875 0)"/>
     <use xlink:href="#DejaVuSans-16" transform="translate(4817.921875 0)"/>
     <use xlink:href="#DejaVuSans-13" transform="translate(4881.546875 0)"/>
     <use xlink:href="#DejaVuSans-f" transform="translate(4945.171875 0)"/>
     <use xlink:href="#DejaVuSans-3" transform="translate(4976.953125 0)"/>
     <use xlink:href="#DejaVuSans-34" transform="translate(5008.734375 0)"/>
     <use xlink:href="#DejaVuSans-20" transform="translate(5087.453125 0)"/>
     <use xlink:href="#DejaVuSans-14" transform="translate(5171.25 0)"/>
     <use xlink:href="#DejaVuSans-19" transform="translate(5234.875 0)"/>
     <use xlink:href="#DejaVuSans-11" transform="translate(5298.5 0)"/>
     <use xlink:href="#DejaVuSans-18" transform="translate(5330.28125 0)"/>
     <use xlink:href="#DejaVuSans-17" transform="translate(5393.90625 0)"/>
    </g>
   </g>
   <g id="legend_1">
    <g id="patch_7">
     <path d="M 67.202344 217.319648 
L 132.185156 217.319648 
Q 134.185156 217.319648 134.185156 215.319648 
L 134.185156 186.318086 
Q 134.185156 184.318086 132.185156 184.318086 
L 67.202344 184.318086 
Q 65.202344 184.318086 65.202344 186.318086 
L 65.202344 215.319648 
Q 65.202344 217.319648 67.202344 217.319648 
z
" style="fill: #ffffff; opacity: 0.8; stroke: #cccccc; stroke-linejoin: miter"/>
    </g>
    <g id="line2d_29">
     <path d="M 69.202344 192.416523 
L 79.202344 192.416523 
L 89.202344 192.416523 
" style="fill: none; stroke: #1f77b4; stroke-width: 1.5; stroke-linecap: square"/>
    </g>
    <g id="text_17">
     <!-- input -->
     <g transform="translate(97.202344 195.916523) scale(0.1 -0.1)">
      <use xlink:href="#DejaVuSans-4c"/>
      <use xlink:href="#DejaVuSans-51" transform="translate(27.78125 0)"/>
      <use xlink:href="#DejaVuSans-53" transform="translate(91.15625 0)"/>
      <use xlink:href="#DejaVuSans-58" transform="translate(154.640625 0)"/>
      <use xlink:href="#DejaVuSans-57" transform="translate(218.015625 0)"/>
     </g>
    </g>
    <g id="line2d_30">
     <path d="M 69.202344 207.417305 
L 79.202344 207.417305 
L 89.202344 207.417305 
" style="fill: none; stroke: #ff7f0e; stroke-width: 1.5; stroke-linecap: square"/>
    </g>
    <g id="text_18">
     <!-- output -->
     <g transform="translate(97.202344 210.917305) scale(0.1 -0.1)">
      <use xlink:href="#DejaVuSans-52"/>
      <use xlink:href="#DejaVuSans-58" transform="translate(61.1875 0)"/>
      <use xlink:href="#DejaVuSans-57" transform="translate(124.5625 0)"/>
      <use xlink:href="#DejaVuSans-53" transform="translate(163.765625 0)"/>
      <use xlink:href="#DejaVuSans-58" transform="translate(227.25 0)"/>
      <use xlink:href="#DejaVuSans-57" transform="translate(290.625 0)"/>
     </g>
    </g>
   </g>
  </g>
  <g id="axes_2">
   <g id="patch_8">
    <path d="M 60.202344 460.115313 
L 628.2 460.115313 
L 628.2 279.801992 
L 60.202344 279.801992 
z
" style="fill: #ffffff"/>
   </g>
   <g id="matplotlib.axis_3">
    <g id="xtick_7">
     <g id="line2d_31">
      <path d="M 60.202344 460.115313 
L 60.202344 279.801992 
" clip-path="url(#p448bf93831)" style="fill: none; stroke: #b0b0b0; stroke-opacity: 0.25; stroke-width: 0.8; stroke-linecap: square"/>
     </g>
     <g id="line2d_32">
      <g>
       <use xlink:href="#ma498bcf731" x="60.202344" y="460.115313" style="stroke: #000000; stroke-width: 0.8"/>
      </g>
     </g>
     <g id="text_19">
      <!-- $\mathdefault{10^{-1}}$ -->
      <g transform="translate(48.452344 476.415313) scale(0.1 -0.1)">
       <use xlink:href="#DejaVuSans-14" transform="translate(0 0.665625)"/>
       <use xlink:href="#DejaVuSans-13" transform="translate(63.623047 0.665625)"/>
       <use xlink:href="#DejaVuSans-c9c" transform="translate(128.203125 41.965625) scale(0.7)"/>
       <use xlink:href="#DejaVuSans-14" transform="translate(186.855469 41.965625) scale(0.7)"/>
      </g>
     </g>
    </g>
    <g id="xtick_8">
     <g id="line2d_33">
      <path d="M 344.201172 460.115313 
L 344.201172 279.801992 
" clip-path="url(#p448bf93831)" style="fill: none; stroke: #b0b0b0; stroke-opacity: 0.25; stroke-width: 0.8; stroke-linecap: square"/>
     </g>
     <g id="line2d_34">
      <g>
       <use xlink:href="#ma498bcf731" x="344.201172" y="460.115313" style="stroke: #000000; stroke-width: 0.8"/>
      </g>
     </g>
     <g id="text_20">
      <!-- $\mathdefault{10^{0}}$ -->
      <g transform="translate(335.401172 476.515313) scale(0.1 -0.1)">
       <use xlink:href="#DejaVuSans-14" transform="translate(0 0.746875)"/>
       <use xlink:href="#DejaVuSans-13" transform="translate(63.623047 0.746875)"/>
       <use xlink:href="#DejaVuSans-13" transform="translate(128.203125 42.046875) scale(0.7)"/>
      </g>
     </g>
    </g>
    <g id="xtick_9">
     <g id="line2d_35">
      <path d="M 628.2 460.115313 
L 628.2 279.801992 
" clip-path="url(#p448bf93831)" style="fill: none; stroke: #b0b0b0; stroke-opacity: 0.25; stroke-width: 0.8; stroke-linecap: square"/>
     </g>
     <g id="line2d_36">
      <g>
       <use xlink:href="#ma498bcf731" x="628.2" y="460.115313" style="stroke: #000000; stroke-width: 0.8"/>
      </g>
     </g>
     <g id="text_21">
      <!-- $\mathdefault{10^{1}}$ -->
      <g transform="translate(619.4 476.415313) scale(0.1 -0.1)">
       <use xlink:href="#DejaVuSans-14" transform="translate(0 0.665625)"/>
       <use xlink:href="#DejaVuSans-13" transform="translate(63.623047 0.665625)"/>
       <use xlink:href="#DejaVuSans-14" transform="translate(128.203125 41.965625) scale(0.7)"/>
      </g>
     </g>
    </g>
    <g id="xtick_10">
     <g id="line2d_37">
      <defs>
       <path id="m0dcf73311c" d="M 0 0 
L 0 2 
" style="stroke: #000000; stroke-width: 0.6"/>
      </defs>
      <g>
       <use xlink:href="#m0dcf73311c" x="145.69451" y="460.115313" style="stroke: #000000; stroke-width: 0.6"/>
      </g>
     </g>
    </g>
    <g id="xtick_11">
     <g id="line2d_38">
      <g>
       <use xlink:href="#m0dcf73311c" x="195.704221" y="460.115313" style="stroke: #000000; stroke-width: 0.6"/>
      </g>
     </g>
    </g>
    <g id="xtick_12">
     <g id="line2d_39">
      <g>
       <use xlink:href="#m0dcf73311c" x="231.186676" y="460.115313" style="stroke: #000000; stroke-width: 0.6"/>
      </g>
     </g>
    </g>
    <g id="xtick_13">
     <g id="line2d_40">
      <g>
       <use xlink:href="#m0dcf73311c" x="258.709006" y="460.115313" style="stroke: #000000; stroke-width: 0.6"/>
      </g>
     </g>
    </g>
    <g id="xtick_14">
     <g id="line2d_41">
      <g>
       <use xlink:href="#m0dcf73311c" x="281.196387" y="460.115313" style="stroke: #000000; stroke-width: 0.6"/>
      </g>
     </g>
    </g>
    <g id="xtick_15">
     <g id="line2d_42">
      <g>
       <use xlink:href="#m0dcf73311c" x="300.209197" y="460.115313" style="stroke: #000000; stroke-width: 0.6"/>
      </g>
     </g>
    </g>
    <g id="xtick_16">
     <g id="line2d_43">
      <g>
       <use xlink:href="#m0dcf73311c" x="316.678842" y="460.115313" style="stroke: #000000; stroke-width: 0.6"/>
      </g>
     </g>
    </g>
    <g id="xtick_17">
     <g id="line2d_44">
      <g>
       <use xlink:href="#m0dcf73311c" x="331.206098" y="460.115313" style="stroke: #000000; stroke-width: 0.6"/>
      </g>
     </g>
    </g>
    <g id="xtick_18">
     <g id="line2d_45">
      <g>
       <use xlink:href="#m0dcf73311c" x="429.693338" y="460.115313" style="stroke: #000000; stroke-width: 0.6"/>
      </g>
     </g>
    </g>
    <g id="xtick_19">
     <g id="line2d_46">
      <g>
       <use xlink:href="#m0dcf73311c" x="479.703049" y="460.115313" style="stroke: #000000; stroke-width: 0.6"/>
      </g>
     </g>
    </g>
    <g id="xtick_20">
     <g id="line2d_47">
      <g>
       <use xlink:href="#m0dcf73311c" x="515.185504" y="460.115313" style="stroke: #000000; stroke-width: 0.6"/>
      </g>
     </g>
    </g>
    <g id="xtick_21">
     <g id="line2d_48">
      <g>
       <use xlink:href="#m0dcf73311c" x="542.707834" y="460.115313" style="stroke: #000000; stroke-width: 0.6"/>
      </g>
     </g>
    </g>
    <g id="xtick_22">
     <g id="line2d_49">
      <g>
       <use xlink:href="#m0dcf73311c" x="565.195215" y="460.115313" style="stroke: #000000; stroke-width: 0.6"/>
      </g>
     </g>
    </g>
    <g id="xtick_23">
     <g id="line2d_50">
      <g>
       <use xlink:href="#m0dcf73311c" x="584.208025" y="460.115313" style="stroke: #000000; stroke-width: 0.6"/>
      </g>
     </g>
    </g>
    <g id="xtick_24">
     <g id="line2d_51">
      <g>
       <use xlink:href="#m0dcf73311c" x="600.67767" y="460.115313" style="stroke: #000000; stroke-width: 0.6"/>
      </g>
     </g>
    </g>
    <g id="xtick_25">
     <g id="line2d_52">
      <g>
       <use xlink:href="#m0dcf73311c" x="615.204926" y="460.115313" style="stroke: #000000; stroke-width: 0.6"/>
      </g>
     </g>
    </g>
    <g id="text_22">
     <!-- frequency [arb.] -->
     <g transform="translate(303.748828 490.516094) scale(0.1 -0.1)">
      <defs>
       <path id="DejaVuSans-54" d="M 947 1747 
Q 947 1113 1208 752 
Q 1469 391 1925 391 
Q 2381 391 2643 752 
Q 2906 1113 2906 1747 
Q 2906 2381 2643 2742 
Q 2381 3103 1925 3103 
Q 1469 3103 1208 2742 
Q 947 2381 947 1747 
z
M 2906 525 
Q 2725 213 2448 61 
Q 2172 -91 1784 -91 
Q 1150 -91 751 415 
Q 353 922 353 1747 
Q 353 2572 751 3078 
Q 1150 3584 1784 3584 
Q 2172 3584 2448 3432 
Q 2725 3281 2906 2969 
L 2906 3500 
L 3481 3500 
L 3481 -1331 
L 2906 -1331 
L 2906 525 
z
" transform="scale(0.015625)"/>
      </defs>
      <use xlink:href="#DejaVuSans-49"/>
      <use xlink:href="#DejaVuSans-55" transform="translate(35.203125 0)"/>
      <use xlink:href="#DejaVuSans-48" transform="translate(74.109375 0)"/>
      <use xlink:href="#DejaVuSans-54" transform="translate(135.640625 0)"/>
      <use xlink:href="#DejaVuSans-58" transform="translate(199.125 0)"/>
      <use xlink:href="#DejaVuSans-48" transform="translate(262.5 0)"/>
      <use xlink:href="#DejaVuSans-51" transform="translate(324.03125 0)"/>
      <use xlink:href="#DejaVuSans-46" transform="translate(387.40625 0)"/>
      <use xlink:href="#DejaVuSans-5c" transform="translate(442.390625 0)"/>
      <use xlink:href="#DejaVuSans-3" transform="translate(501.578125 0)"/>
      <use xlink:href="#DejaVuSans-3e" transform="translate(533.359375 0)"/>
      <use xlink:href="#DejaVuSans-44" transform="translate(572.375 0)"/>
      <use xlink:href="#DejaVuSans-55" transform="translate(633.65625 0)"/>
      <use xlink:href="#DejaVuSans-45" transform="translate(674.765625 0)"/>
      <use xlink:href="#DejaVuSans-11" transform="translate(738.25 0)"/>
      <use xlink:href="#DejaVuSans-40" transform="translate(770.03125 0)"/>
     </g>
    </g>
   </g>
   <g id="matplotlib.axis_4">
    <g id="ytick_8">
     <g id="line2d_53">
      <path d="M 60.202344 454.643032 
L 628.2 454.643032 
" clip-path="url(#p448bf93831)" style="fill: none; stroke: #b0b0b0; stroke-opacity: 0.25; stroke-width: 0.8; stroke-linecap: square"/>
     </g>
     <g id="line2d_54">
      <g>
       <use xlink:href="#m082c38deb0" x="60.202344" y="454.643032" style="stroke: #000000; stroke-width: 0.8"/>
      </g>
     </g>
     <g id="text_23">
      <!-- $\mathdefault{10^{-10}}$ -->
      <g transform="translate(25.302344 459.343032) scale(0.1 -0.1)">
       <use xlink:href="#DejaVuSans-14" transform="translate(0 0.746875)"/>
       <use xlink:href="#DejaVuSans-13" transform="translate(63.623047 0.746875)"/>
       <use xlink:href="#DejaVuSans-c9c" transform="translate(128.203125 42.046875) scale(0.7)"/>
       <use xlink:href="#DejaVuSans-14" transform="translate(186.855469 42.046875) scale(0.7)"/>
       <use xlink:href="#DejaVuSans-13" transform="translate(231.391602 42.046875) scale(0.7)"/>
      </g>
     </g>
    </g>
    <g id="ytick_9">
     <g id="line2d_55">
      <path d="M 60.202344 429.258336 
L 628.2 429.258336 
" clip-path="url(#p448bf93831)" style="fill: none; stroke: #b0b0b0; stroke-opacity: 0.25; stroke-width: 0.8; stroke-linecap: square"/>
     </g>
     <g id="line2d_56">
      <g>
       <use xlink:href="#m082c38deb0" x="60.202344" y="429.258336" style="stroke: #000000; stroke-width: 0.8"/>
      </g>
     </g>
     <g id="text_24">
      <!-- $\mathdefault{10^{-8}}$ -->
      <g transform="translate(29.702344 433.958336) scale(0.1 -0.1)">
       <use xlink:href="#DejaVuSans-14" transform="translate(0 0.746875)"/>
       <use xlink:href="#DejaVuSans-13" transform="translate(63.623047 0.746875)"/>
       <use xlink:href="#DejaVuSans-c9c" transform="translate(128.203125 42.046875) scale(0.7)"/>
       <use xlink:href="#DejaVuSans-1b" transform="translate(186.855469 42.046875) scale(0.7)"/>
      </g>
     </g>
    </g>
    <g id="ytick_10">
     <g id="line2d_57">
      <path d="M 60.202344 403.873641 
L 628.2 403.873641 
" clip-path="url(#p448bf93831)" style="fill: none; stroke: #b0b0b0; stroke-opacity: 0.25; stroke-width: 0.8; stroke-linecap: square"/>
     </g>
     <g id="line2d_58">
      <g>
       <use xlink:href="#m082c38deb0" x="60.202344" y="403.873641" style="stroke: #000000; stroke-width: 0.8"/>
      </g>
     </g>
     <g id="text_25">
      <!-- $\mathdefault{10^{-6}}$ -->
      <g transform="translate(29.702344 408.573641) scale(0.1 -0.1)">
       <use xlink:href="#DejaVuSans-14" transform="translate(0 0.746875)"/>
       <use xlink:href="#DejaVuSans-13" transform="translate(63.623047 0.746875)"/>
       <use xlink:href="#DejaVuSans-c9c" transform="translate(128.203125 42.046875) scale(0.7)"/>
       <use xlink:href="#DejaVuSans-19" transform="translate(186.855469 42.046875) scale(0.7)"/>
      </g>
     </g>
    </g>
    <g id="ytick_11">
     <g id="line2d_59">
      <path d="M 60.202344 378.488945 
L 628.2 378.488945 
" clip-path="url(#p448bf93831)" style="fill: none; stroke: #b0b0b0; stroke-opacity: 0.25; stroke-width: 0.8; stroke-linecap: square"/>
     </g>
     <g id="line2d_60">
      <g>
       <use xlink:href="#m082c38deb0" x="60.202344" y="378.488945" style="stroke: #000000; stroke-width: 0.8"/>
      </g>
     </g>
     <g id="text_26">
      <!-- $\mathdefault{10^{-4}}$ -->
      <g transform="translate(29.702344 383.138945) scale(0.1 -0.1)">
       <use xlink:href="#DejaVuSans-14" transform="translate(0 0.665625)"/>
       <use xlink:href="#DejaVuSans-13" transform="translate(63.623047 0.665625)"/>
       <use xlink:href="#DejaVuSans-c9c" transform="translate(128.203125 41.965625) scale(0.7)"/>
       <use xlink:href="#DejaVuSans-17" transform="translate(186.855469 41.965625) scale(0.7)"/>
      </g>
     </g>
    </g>
    <g id="ytick_12">
     <g id="line2d_61">
      <path d="M 60.202344 353.104249 
L 628.2 353.104249 
" clip-path="url(#p448bf93831)" style="fill: none; stroke: #b0b0b0; stroke-opacity: 0.25; stroke-width: 0.8; stroke-linecap: square"/>
     </g>
     <g id="line2d_62">
      <g>
       <use xlink:href="#m082c38deb0" x="60.202344" y="353.104249" style="stroke: #000000; stroke-width: 0.8"/>
      </g>
     </g>
     <g id="text_27">
      <!-- $\mathdefault{10^{-2}}$ -->
      <g transform="translate(29.702344 357.804249) scale(0.1 -0.1)">
       <use xlink:href="#DejaVuSans-14" transform="translate(0 0.746875)"/>
       <use xlink:href="#DejaVuSans-13" transform="translate(63.623047 0.746875)"/>
       <use xlink:href="#DejaVuSans-c9c" transform="translate(128.203125 42.046875) scale(0.7)"/>
       <use xlink:href="#DejaVuSans-15" transform="translate(186.855469 42.046875) scale(0.7)"/>
      </g>
     </g>
    </g>
    <g id="ytick_13">
     <g id="line2d_63">
      <path d="M 60.202344 327.719554 
L 628.2 327.719554 
" clip-path="url(#p448bf93831)" style="fill: none; stroke: #b0b0b0; stroke-opacity: 0.25; stroke-width: 0.8; stroke-linecap: square"/>
     </g>
     <g id="line2d_64">
      <g>
       <use xlink:href="#m082c38deb0" x="60.202344" y="327.719554" style="stroke: #000000; stroke-width: 0.8"/>
      </g>
     </g>
     <g id="text_28">
      <!-- $\mathdefault{10^{0}}$ -->
      <g transform="translate(35.602344 332.419554) scale(0.1 -0.1)">
       <use xlink:href="#DejaVuSans-14" transform="translate(0 0.746875)"/>
       <use xlink:href="#DejaVuSans-13" transform="translate(63.623047 0.746875)"/>
       <use xlink:href="#DejaVuSans-13" transform="translate(128.203125 42.046875) scale(0.7)"/>
      </g>
     </g>
    </g>
    <g id="ytick_14">
     <g id="line2d_65">
      <path d="M 60.202344 302.334858 
L 628.2 302.334858 
" clip-path="url(#p448bf93831)" style="fill: none; stroke: #b0b0b0; stroke-opacity: 0.25; stroke-width: 0.8; stroke-linecap: square"/>
     </g>
     <g id="line2d_66">
      <g>
       <use xlink:href="#m082c38deb0" x="60.202344" y="302.334858" style="stroke: #000000; stroke-width: 0.8"/>
      </g>
     </g>
     <g id="text_29">
      <!-- $\mathdefault{10^{2}}$ -->
      <g transform="translate(35.602344 307.034858) scale(0.1 -0.1)">
       <use xlink:href="#DejaVuSans-14" transform="translate(0 0.746875)"/>
       <use xlink:href="#DejaVuSans-13" transform="translate(63.623047 0.746875)"/>
       <use xlink:href="#DejaVuSans-15" transform="translate(128.203125 42.046875) scale(0.7)"/>
      </g>
     </g>
    </g>
    <g id="text_30">
     <!-- |FFT(.)| -->
     <g transform="translate(18.9 387.535996) rotate(-90) scale(0.1 -0.1)">
      <defs>
       <path id="DejaVuSans-37" d="M -19 4666 
L 3928 4666 
L 3928 4134 
L 2272 4134 
L 2272 0 
L 1638 0 
L 1638 4134 
L -19 4134 
L -19 4666 
z
" transform="scale(0.015625)"/>
      </defs>
      <use xlink:href="#DejaVuSans-5f"/>
      <use xlink:href="#DejaVuSans-29" transform="translate(33.6875 0)"/>
      <use xlink:href="#DejaVuSans-29" transform="translate(91.203125 0)"/>
      <use xlink:href="#DejaVuSans-37" transform="translate(146.96875 0)"/>
      <use xlink:href="#DejaVuSans-b" transform="translate(208.046875 0)"/>
      <use xlink:href="#DejaVuSans-11" transform="translate(247.0625 0)"/>
      <use xlink:href="#DejaVuSans-c" transform="translate(278.84375 0)"/>
      <use xlink:href="#DejaVuSans-5f" transform="translate(317.859375 0)"/>
     </g>
    </g>
   </g>
   <g id="line2d_67">
    <path d="M 60.202344 304.281685 
L 145.69451 313.444823 
L 195.704221 307.396292 
L 231.186676 295.533982 
L 258.709006 288.031016 
L 281.196387 288.846022 
L 300.209197 299.341093 
L 316.678842 309.154546 
L 331.206098 314.984536 
L 344.201172 319.246391 
L 355.956646 322.634128 
L 366.688553 325.457665 
L 376.56095 327.884568 
L 385.701363 330.016268 
L 394.210883 331.919028 
L 402.171008 333.638612 
L 409.648395 335.208002 
L 416.698264 336.651792 
L 423.366868 337.988834 
L 429.693338 339.233915 
L 435.711074 340.398865 
L 441.448812 341.493305 
L 446.931453 342.525176 
L 452.180719 343.501114 
L 457.215668 344.426729 
L 462.053116 345.306808 
L 466.707975 346.145474 
L 471.193529 346.946307 
L 475.521661 347.712434 
L 479.703049 348.446607 
L 483.747317 349.151262 
L 487.663174 349.828567 
L 491.458523 350.480458 
L 495.140561 351.108675 
L 498.715859 351.714786 
L 502.19043 352.30021 
L 505.569796 352.866237 
L 508.859034 353.414039 
L 512.062828 353.944691 
L 515.185504 354.459176 
L 518.231069 354.958395 
L 521.20324 355.443182 
L 524.105471 355.914302 
L 526.940978 356.372467 
L 529.71276 356.818332 
L 532.423619 357.252509 
L 535.076176 357.675566 
L 537.672885 358.08803 
L 540.21605 358.490396 
L 542.707834 358.883124 
L 545.150273 359.266646 
L 547.545282 359.641366 
L 549.89467 360.007662 
L 552.200141 360.365891 
L 554.463308 360.716388 
L 556.685695 361.059467 
L 558.868745 361.395427 
L 561.013827 361.724546 
L 563.12224 362.04709 
L 565.195215 362.363309 
L 567.233925 362.67344 
L 569.239483 362.977706 
L 571.212951 363.276321 
L 573.15534 363.569485 
L 575.067613 363.857389 
L 576.950689 364.140217 
L 578.805448 364.418139 
L 580.632727 364.691321 
L 582.433331 364.95992 
L 584.208025 365.224084 
L 585.957545 365.483955 
L 587.682596 365.739669 
L 589.383852 365.991357 
L 591.061962 366.23914 
L 592.717545 366.483139 
L 594.3512 366.723465 
L 595.963499 366.960227 
L 597.554994 367.193529 
L 599.126214 367.42347 
L 600.67767 367.650145 
L 602.209853 367.873646 
L 603.723235 368.094059 
L 605.218273 368.31147 
L 606.695406 368.525959 
L 608.155058 368.737603 
L 609.597637 368.946477 
L 611.023539 369.152654 
L 612.433144 369.356201 
L 613.826821 369.557185 
L 615.204926 369.755672 
L 616.567803 369.951721 
L 617.915785 370.145393 
L 619.249194 370.336745 
L 620.568342 370.525833 
L 621.87353 370.712709 
L 623.165051 370.897425 
L 624.443188 371.080032 
L 625.708216 371.260577 
L 626.9604 371.439107 
L 628.2 371.615666 
L 629.427265 371.790298 
" clip-path="url(#p448bf93831)" style="fill: none; stroke: #1f77b4; stroke-opacity: 0.6; stroke-width: 1.5; stroke-linecap: square"/>
   </g>
   <g id="line2d_68">
    <path d="M 60.202344 304.087778 
L 145.69451 311.713411 
L 195.704221 305.43357 
L 231.186676 294.922252 
L 258.709006 287.998052 
L 281.196387 288.865393 
L 300.209197 299.343848 
L 316.678842 309.141011 
L 331.206098 314.958928 
L 344.201172 319.212349 
L 355.956646 322.594416 
L 366.688553 325.41435 
L 376.56095 327.839213 
L 385.701363 329.970076 
L 394.210883 331.87294 
L 402.171008 333.593375 
L 409.648395 335.164218 
L 416.698264 336.60995 
L 423.366868 337.949333 
L 429.693338 339.197085 
L 435.711074 340.364978 
L 441.448812 341.462584 
L 446.931453 342.497806 
L 452.180719 343.477244 
L 457.215668 344.406479 
L 462.053116 345.290274 
L 466.707975 346.13273 
L 471.193529 346.937405 
L 475.521661 347.707413 
L 479.703049 348.44549 
L 483.747317 349.154059 
L 487.663174 349.835275 
L 491.458523 350.491066 
L 495.140561 351.123162 
L 498.715859 351.733124 
L 502.19043 352.322364 
L 505.569796 352.892165 
L 508.859034 353.443696 
L 512.062828 353.978027 
L 515.185504 354.496136 
L 518.231069 354.998923 
L 521.20324 355.487217 
L 524.105471 355.961783 
L 526.940978 356.423329 
L 529.71276 356.872511 
L 532.423619 357.30994 
L 535.076176 357.736181 
L 537.672885 358.151763 
L 540.21605 358.557179 
L 542.707834 358.952891 
L 545.150273 359.339329 
L 547.545282 359.716899 
L 549.89467 360.08598 
L 552.200141 360.446928 
L 554.463308 360.80008 
L 556.685695 361.145751 
L 558.868745 361.484239 
L 561.013827 361.815826 
L 563.12224 362.140777 
L 565.195215 362.459344 
L 567.233925 362.771764 
L 569.239483 363.078263 
L 571.212951 363.379054 
L 573.15534 363.67434 
L 575.067613 363.964314 
L 576.950689 364.249159 
L 578.805448 364.529048 
L 580.632727 364.804147 
L 582.433331 365.074614 
L 584.208025 365.3406 
L 585.957545 365.602247 
L 587.682596 365.859693 
L 589.383852 366.113067 
L 591.061962 366.362496 
L 592.717545 366.608099 
L 594.3512 366.849989 
L 595.963499 367.088277 
L 597.554994 367.323066 
L 599.126214 367.554457 
L 600.67767 367.782547 
L 602.209853 368.007427 
L 603.723235 368.229186 
L 605.218273 368.44791 
L 606.695406 368.663679 
L 608.155058 368.876573 
L 609.597637 369.086667 
L 611.023539 369.294033 
L 612.433144 369.498741 
L 613.826821 369.70086 
L 615.204926 369.900453 
L 616.567803 370.097582 
L 617.915785 370.292309 
L 619.249194 370.484692 
L 620.568342 370.674785 
L 621.87353 370.862644 
L 623.165051 371.048321 
L 624.443188 371.231865 
L 625.708216 371.413327 
L 626.9604 371.592752 
L 628.2 371.770186 
L 629.427265 371.945674 
" clip-path="url(#p448bf93831)" style="fill: none; stroke: #ff7f0e; stroke-width: 1.5; stroke-linecap: square"/>
   </g>
   <g id="patch_9">
    <path d="M 60.202344 460.115313 
L 60.202344 279.801992 
" style="fill: none; stroke: #000000; stroke-width: 0.8; stroke-linejoin: miter; stroke-linecap: square"/>
   </g>
   <g id="patch_10">
    <path d="M 628.2 460.115313 
L 628.2 279.801992 
" style="fill: none; stroke: #000000; stroke-width: 0.8; stroke-linejoin: miter; stroke-linecap: square"/>
   </g>
   <g id="patch_11">
    <path d="M 60.202344 460.115313 
L 628.2 460.115313 
" style="fill: none; stroke: #000000; stroke-width: 0.8; stroke-linejoin: miter; stroke-linecap: square"/>
   </g>
   <g id="patch_12">
    <path d="M 60.202344 279.801992 
L 628.2 279.801992 
" style="fill: none; stroke: #000000; stroke-width: 0.8; stroke-linejoin: miter; stroke-linecap: square"/>
   </g>
   <g id="text_31">
    <!-- Output FFT peak ≈ 0.500 (arb.), magnitude ≈ 1.348e+03 | band/flat-ish -->
    <g transform="translate(127.801797 273.801992) scale(0.12 -0.12)">
     <defs>
      <path id="DejaVuSans-32" d="M 2522 4238 
Q 1834 4238 1429 3725 
Q 1025 3213 1025 2328 
Q 1025 1447 1429 934 
Q 1834 422 2522 422 
Q 3209 422 3611 934 
Q 4013 1447 4013 2328 
Q 4013 3213 3611 3725 
Q 3209 4238 2522 4238 
z
M 2522 4750 
Q 3503 4750 4090 4092 
Q 4678 3434 4678 2328 
Q 4678 1225 4090 567 
Q 3503 -91 2522 -91 
Q 1538 -91 948 565 
Q 359 1222 359 2328 
Q 359 3434 948 4092 
Q 1538 4750 2522 4750 
z
" transform="scale(0.015625)"/>
      <path id="DejaVuSans-4e" d="M 581 4863 
L 1159 4863 
L 1159 1991 
L 2875 3500 
L 3609 3500 
L 1753 1863 
L 3688 0 
L 2938 0 
L 1159 1709 
L 1159 0 
L 581 0 
L 581 4863 
z
" transform="scale(0.015625)"/>
      <path id="DejaVuSans-cd2" d="M 4684 1947 
L 4684 1388 
Q 4356 1144 4076 1036 
Q 3797 928 3494 928 
Q 3150 928 2694 1113 
Q 2663 1125 2641 1134 
Q 2622 1141 2575 1159 
Q 2091 1350 1797 1350 
Q 1522 1350 1253 1231 
Q 984 1113 678 850 
L 678 1409 
Q 1006 1653 1286 1761 
Q 1566 1869 1869 1869 
Q 2213 1869 2672 1684 
Q 2706 1669 2722 1663 
Q 2741 1656 2788 1638 
Q 3272 1447 3566 1447 
Q 3834 1447 4098 1564 
Q 4363 1681 4684 1947 
z
M 4684 3163 
L 4684 2606 
Q 4356 2359 4076 2251 
Q 3797 2144 3494 2144 
Q 3150 2144 2694 2328 
Q 2663 2341 2641 2350 
Q 2622 2356 2575 2375 
Q 2091 2566 1797 2566 
Q 1522 2566 1253 2447 
Q 984 2328 678 2069 
L 678 2625 
Q 1006 2869 1286 2976 
Q 1566 3084 1869 3084 
Q 2213 3084 2672 2900 
Q 2703 2888 2719 2881 
Q 2741 2872 2788 2853 
Q 3272 2663 3566 2663 
Q 3834 2663 4098 2780 
Q 4363 2897 4684 3163 
z
" transform="scale(0.015625)"/>
      <path id="DejaVuSans-50" d="M 3328 2828 
Q 3544 3216 3844 3400 
Q 4144 3584 4550 3584 
Q 5097 3584 5394 3201 
Q 5691 2819 5691 2113 
L 5691 0 
L 5113 0 
L 5113 2094 
Q 5113 2597 4934 2840 
Q 4756 3084 4391 3084 
Q 3944 3084 3684 2787 
Q 3425 2491 3425 1978 
L 3425 0 
L 2847 0 
L 2847 2094 
Q 2847 2600 2669 2842 
Q 2491 3084 2119 3084 
Q 1678 3084 1418 2786 
Q 1159 2488 1159 1978 
L 1159 0 
L 581 0 
L 581 3500 
L 1159 3500 
L 1159 2956 
Q 1356 3278 1631 3431 
Q 1906 3584 2284 3584 
Q 2666 3584 2933 3390 
Q 3200 3197 3328 2828 
z
" transform="scale(0.015625)"/>
      <path id="DejaVuSans-4a" d="M 2906 1791 
Q 2906 2416 2648 2759 
Q 2391 3103 1925 3103 
Q 1463 3103 1205 2759 
Q 947 2416 947 1791 
Q 947 1169 1205 825 
Q 1463 481 1925 481 
Q 2391 481 2648 825 
Q 2906 1169 2906 1791 
z
M 3481 434 
Q 3481 -459 3084 -895 
Q 2688 -1331 1869 -1331 
Q 1566 -1331 1297 -1286 
Q 1028 -1241 775 -1147 
L 775 -588 
Q 1028 -725 1275 -790 
Q 1522 -856 1778 -856 
Q 2344 -856 2625 -561 
Q 2906 -266 2906 331 
L 2906 616 
Q 2728 306 2450 153 
Q 2172 0 1784 0 
Q 1141 0 747 490 
Q 353 981 353 1791 
Q 353 2603 747 3093 
Q 1141 3584 1784 3584 
Q 2172 3584 2450 3431 
Q 2728 3278 2906 2969 
L 2906 3500 
L 3481 3500 
L 3481 434 
z
" transform="scale(0.015625)"/>
      <path id="DejaVuSans-e" d="M 2944 4013 
L 2944 2272 
L 4684 2272 
L 4684 1741 
L 2944 1741 
L 2944 0 
L 2419 0 
L 2419 1741 
L 678 1741 
L 678 2272 
L 2419 2272 
L 2419 4013 
L 2944 4013 
z
" transform="scale(0.015625)"/>
      <path id="DejaVuSans-12" d="M 1625 4666 
L 2156 4666 
L 531 -594 
L 0 -594 
L 1625 4666 
z
" transform="scale(0.015625)"/>
      <path id="DejaVuSans-13b0" d="M 1831 4863 
L 3431 4863 
L 3431 0 
L 2853 0 
L 2853 4384 
L 1825 4384 
Q 1516 4384 1395 4259 
Q 1275 4134 1275 3809 
L 1275 3500 
L 2222 3500 
L 2222 3053 
L 1275 3053 
L 1275 0 
L 697 0 
L 697 3053 
L 147 3053 
L 147 3500 
L 697 3500 
L 697 3744 
Q 697 4328 969 4595 
Q 1241 4863 1831 4863 
z
" transform="scale(0.015625)"/>
     </defs>
     <use xlink:href="#DejaVuSans-32"/>
     <use xlink:href="#DejaVuSans-58" transform="translate(78.71875 0)"/>
     <use xlink:href="#DejaVuSans-57" transform="translate(142.09375 0)"/>
     <use xlink:href="#DejaVuSans-53" transform="translate(181.296875 0)"/>
     <use xlink:href="#DejaVuSans-58" transform="translate(244.78125 0)"/>
     <use xlink:href="#DejaVuSans-57" transform="translate(308.15625 0)"/>
     <use xlink:href="#DejaVuSans-3" transform="translate(347.359375 0)"/>
     <use xlink:href="#DejaVuSans-29" transform="translate(379.140625 0)"/>
     <use xlink:href="#DejaVuSans-29" transform="translate(436.65625 0)"/>
     <use xlink:href="#DejaVuSans-37" transform="translate(492.421875 0)"/>
     <use xlink:href="#DejaVuSans-3" transform="translate(553.5 0)"/>
     <use xlink:href="#DejaVuSans-53" transform="translate(585.28125 0)"/>
     <use xlink:href="#DejaVuSans-48" transform="translate(648.765625 0)"/>
     <use xlink:href="#DejaVuSans-44" transform="translate(710.296875 0)"/>
     <use xlink:href="#DejaVuSans-4e" transform="translate(771.578125 0)"/>
     <use xlink:href="#DejaVuSans-3" transform="translate(829.484375 0)"/>
     <use xlink:href="#DejaVuSans-cd2" transform="translate(861.265625 0)"/>
     <use xlink:href="#DejaVuSans-3" transform="translate(945.0625 0)"/>
     <use xlink:href="#DejaVuSans-13" transform="translate(976.84375 0)"/>
     <use xlink:href="#DejaVuSans-11" transform="translate(1040.46875 0)"/>
     <use xlink:href="#DejaVuSans-18" transform="translate(1072.25 0)"/>
     <use xlink:href="#DejaVuSans-13" transform="translate(1135.875 0)"/>
     <use xlink:href="#DejaVuSans-13" transform="translate(1199.5 0)"/>
     <use xlink:href="#DejaVuSans-3" transform="translate(1263.125 0)"/>
     <use xlink:href="#DejaVuSans-b" transform="translate(1294.90625 0)"/>
     <use xlink:href="#DejaVuSans-44" transform="translate(1333.921875 0)"/>
     <use xlink:href="#DejaVuSans-55" transform="translate(1395.203125 0)"/>
     <use xlink:href="#DejaVuSans-45" transform="translate(1436.3125 0)"/>
     <use xlink:href="#DejaVuSans-11" transform="translate(1499.796875 0)"/>
     <use xlink:href="#DejaVuSans-c" transform="translate(1531.578125 0)"/>
     <use xlink:href="#DejaVuSans-f" transform="translate(1570.59375 0)"/>
     <use xlink:href="#DejaVuSans-3" transform="translate(1602.375 0)"/>
     <use xlink:href="#DejaVuSans-50" transform="translate(1634.15625 0)"/>
     <use xlink:href="#DejaVuSans-44" transform="translate(1731.5625 0)"/>
     <use xlink:href="#DejaVuSans-4a" transform="translate(1792.84375 0)"/>
     <use xlink:href="#DejaVuSans-51" transform="translate(1856.328125 0)"/>
     <use xlink:href="#DejaVuSans-4c" transform="translate(1919.703125 0)"/>
     <use xlink:href="#DejaVuSans-57" transform="translate(1947.484375 0)"/>
     <use xlink:href="#DejaVuSans-58" transform="translate(1986.6875 0)"/>
     <use xlink:href="#DejaVuSans-47" transform="translate(2050.0625 0)"/>
     <use xlink:href="#DejaVuSans-48" transform="translate(2113.546875 0)"/>
     <use xlink:href="#DejaVuSans-3" transform="translate(2175.078125 0)"/>
     <use xlink:href="#DejaVuSans-cd2" transform="translate(2206.859375 0)"/>
     <use xlink:href="#DejaVuSans-3" transform="translate(2290.65625 0)"/>
     <use xlink:href="#DejaVuSans-14" transform="translate(2322.4375 0)"/>
     <use xlink:href="#DejaVuSans-11" transform="translate(2386.0625 0)"/>
     <use xlink:href="#DejaVuSans-16" transform="translate(2417.84375 0)"/>
     <use xlink:href="#DejaVuSans-17" transform="translate(2481.46875 0)"/>
     <use xlink:href="#DejaVuSans-1b" transform="translate(2545.09375 0)"/>
     <use xlink:href="#DejaVuSans-48" transform="translate(2608.71875 0)"/>
     <use xlink:href="#DejaVuSans-e" transform="translate(2670.25 0)"/>
     <use xlink:href="#DejaVuSans-13" transform="translate(2754.046875 0)"/>
     <use xlink:href="#DejaVuSans-16" transform="translate(2817.671875 0)"/>
     <use xlink:href="#DejaVuSans-3" transform="translate(2881.296875 0)"/>
     <use xlink:href="#DejaVuSans-5f" transform="translate(2913.078125 0)"/>
     <use xlink:href="#DejaVuSans-3" transform="translate(2946.765625 0)"/>
     <use xlink:href="#DejaVuSans-45" transform="translate(2978.546875 0)"/>
     <use xlink:href="#DejaVuSans-44" transform="translate(3042.03125 0)"/>
     <use xlink:href="#DejaVuSans-51" transform="translate(3103.3125 0)"/>
     <use xlink:href="#DejaVuSans-47" transform="translate(3166.6875 0)"/>
     <use xlink:href="#DejaVuSans-12" transform="translate(3230.171875 0)"/>
     <use xlink:href="#DejaVuSans-13b0" transform="translate(3263.859375 0)"/>
     <use xlink:href="#DejaVuSans-44" transform="translate(3326.84375 0)"/>
     <use xlink:href="#DejaVuSans-57" transform="translate(3388.125 0)"/>
     <use xlink:href="#DejaVuSans-10" transform="translate(3427.328125 0)"/>
     <use xlink:href="#DejaVuSans-4c" transform="translate(3463.40625 0)"/>
     <use xlink:href="#DejaVuSans-56" transform="translate(3491.1875 0)"/>
     <use xlink:href="#DejaVuSans-4b" transform="translate(3543.28125 0)"/>
    </g>
   </g>
   <g id="legend_2">
    <g id="patch_13">
     <path d="M 535.603125 317.803555 
L 621.2 317.803555 
Q 623.2 317.803555 623.2 315.803555 
L 623.2 286.801992 
Q 623.2 284.801992 621.2 284.801992 
L 535.603125 284.801992 
Q 533.603125 284.801992 533.603125 286.801992 
L 533.603125 315.803555 
Q 533.603125 317.803555 535.603125 317.803555 
z
" style="fill: #ffffff; opacity: 0.8; stroke: #cccccc; stroke-linejoin: miter"/>
    </g>
    <g id="line2d_69">
     <path d="M 537.603125 292.90043 
L 547.603125 292.90043 
L 557.603125 292.90043 
" style="fill: none; stroke: #1f77b4; stroke-opacity: 0.6; stroke-width: 1.5; stroke-linecap: square"/>
    </g>
    <g id="text_32">
     <!-- input FFT -->
     <g transform="translate(565.603125 296.40043) scale(0.1 -0.1)">
      <use xlink:href="#DejaVuSans-4c"/>
      <use xlink:href="#DejaVuSans-51" transform="translate(27.78125 0)"/>
      <use xlink:href="#DejaVuSans-53" transform="translate(91.15625 0)"/>
      <use xlink:href="#DejaVuSans-58" transform="translate(154.640625 0)"/>
      <use xlink:href="#DejaVuSans-57" transform="translate(218.015625 0)"/>
      <use xlink:href="#DejaVuSans-3" transform="translate(257.21875 0)"/>
      <use xlink:href="#DejaVuSans-29" transform="translate(289 0)"/>
      <use xlink:href="#DejaVuSans-29" transform="translate(346.515625 0)"/>
      <use xlink:href="#DejaVuSans-37" transform="translate(402.28125 0)"/>
     </g>
    </g>
    <g id="line2d_70">
     <path d="M 537.603125 307.901211 
L 547.603125 307.901211 
L 557.603125 307.901211 
" style="fill: none; stroke: #ff7f0e; stroke-width: 1.5; stroke-linecap: square"/>
    </g>
    <g id="text_33">
     <!-- output FFT -->
     <g transform="translate(565.603125 311.401211) scale(0.1 -0.1)">
      <use xlink:href="#DejaVuSans-52"/>
      <use xlink:href="#DejaVuSans-58" transform="translate(61.1875 0)"/>
      <use xlink:href="#DejaVuSans-57" transform="translate(124.5625 0)"/>
      <use xlink:href="#DejaVuSans-53" transform="translate(163.765625 0)"/>
      <use xlink:href="#DejaVuSans-58" transform="translate(227.25 0)"/>
      <use xlink:href="#DejaVuSans-57" transform="translate(290.625 0)"/>
      <use xlink:href="#DejaVuSans-3" transform="translate(329.828125 0)"/>
      <use xlink:href="#DejaVuSans-29" transform="translate(361.609375 0)"/>
      <use xlink:href="#DejaVuSans-29" transform="translate(419.125 0)"/>
      <use xlink:href="#DejaVuSans-37" transform="translate(474.890625 0)"/>
     </g>
    </g>
   </g>
  </g>
 </g>
 <defs>
  <clipPath id="pd55789c82e">
   <rect x="60.202344" y="42.006328" width="567.997656" height="180.31332"/>
  </clipPath>
  <clipPath id="p448bf93831">
   <rect x="60.202344" y="279.801992" width="567.997656" height="180.31332"/>
  </clipPath>
 </defs>
</svg>
