<?xml version="1.0" encoding="utf-8" standalone="no"?>
<!DOCTYPE svg PUBLIC "-//W3C//DTD SVG 1.1//EN"
  "http://www.w3.org/Graphics/SVG/1.1/DTD/svg11.dtd">
<svg xmlns:xlink="http://www.w3.org/1999/xlink" width="648pt" height="504pt" viewBox="0 0 648 504" xmlns="http://www.w3.org/2000/svg" version="1.1">
 <metadata>
  <rdf:RDF xmlns:dc="http://purl.org/dc/elements/1.1/" xmlns:cc="http://creativecommons.org/ns#" xmlns:rdf="http://www.w3.org/1999/02/22-rdf-syntax-ns#">
   <cc:Work>
    <dc:type rdf:resource="http://purl.org/dc/dcmitype/StillImage"/>
    <dc:date>2026-07-23T03:31:51.426791</dc:date>
    <dc:format>image/svg+xml</dc:format>
    <dc:creator>
     <cc:Agent>
      <dc:title>Matplotlib v3.11.1, https://matplotlib.org/</dc:title>
     </cc:Agent>
    </dc:creator>
   </cc:Work>
  </rdf:RDF>
 </metadata>
 <defs>
  <style type="text/css">*{stroke-linejoin: round; stroke-linecap: butt}</style>
 </defs>
 <g id="figure_1">
  <g id="patch_1">
   <path d="M 0 504 
L 648 504 
L 648 0 
L 0 0 
z
" style="fill: #ffffff"/>
  </g>
  <g id="axes_1">
   <g id="patch_2">
    <path d="M 56.602344 222.319648 
L 628.2 222.319648 
L 628.2 42.006328 
L 56.602344 42.006328 
z
" style="fill: #ffffff"/>
   </g>
   <g id="matplotlib.axis_1">
    <g id="xtick_1">
     <g id="line2d_1">
      <path d="M 82.584055 222.319648 
L 82.584055 42.006328 
" clip-path="url(#p0dc1841738)" style="fill: none; stroke: #b0b0b0; stroke-opacity: 0.25; stroke-width: 0.8; stroke-linecap: square"/>
     </g>
     <g id="line2d_2">
      <defs>
       <path id="me3e5f9ec33" d="M 0 0 
L 0 3.5 
" style="stroke: #000000; stroke-width: 0.8"/>
      </defs>
      <g>
       <use xlink:href="#me3e5f9ec33" x="82.584055" y="222.319648" style="stroke: #000000; stroke-width: 0.8"/>
      </g>
     </g>
     <g id="text_1">
      <!-- 0 -->
      <g transform="translate(79.402805 236.917305) scale(0.1 -0.1)">
       <defs>
        <path id="DejaVuSans-13" d="M 2034 4250 
Q 1547 4250 1301 3770 
Q 1056 3291 1056 2328 
Q 1056 1369 1301 889 
Q 1547 409 2034 409 
Q 2525 409 2770 889 
Q 3016 1369 3016 2328 
Q 3016 3291 2770 3770 
Q 2525 4250 2034 4250 
z
M 2034 4750 
Q 2819 4750 3233 4129 
Q 3647 3509 3647 2328 
Q 3647 1150 3233 529 
Q 2819 -91 2034 -91 
Q 1250 -91 836 529 
Q 422 1150 422 2328 
Q 422 3509 836 4129 
Q 1250 4750 2034 4750 
z
" transform="scale(0.015625)"/>
       </defs>
       <use xlink:href="#DejaVuSans-13"/>
      </g>
     </g>
    </g>
    <g id="xtick_2">
     <g id="line2d_3">
      <path d="M 186.536281 222.319648 
L 186.536281 42.006328 
" clip-path="url(#p0dc1841738)" style="fill: none; stroke: #b0b0b0; stroke-opacity: 0.25; stroke-width: 0.8; stroke-linecap: square"/>
     </g>
     <g id="line2d_4">
      <g>
       <use xlink:href="#me3e5f9ec33" x="186.536281" y="222.319648" style="stroke: #000000; stroke-width: 0.8"/>
      </g>
     </g>
     <g id="text_2">
      <!-- 2 -->
      <g transform="translate(183.355031 236.917305) scale(0.1 -0.1)">
       <defs>
        <path id="DejaVuSans-15" d="M 1228 531 
L 3431 531 
L 3431 0 
L 469 0 
L 469 531 
Q 828 903 1448 1529 
Q 2069 2156 2228 2338 
Q 2531 2678 2651 2914 
Q 2772 3150 2772 3378 
Q 2772 3750 2511 3984 
Q 2250 4219 1831 4219 
Q 1534 4219 1204 4116 
Q 875 4013 500 3803 
L 500 4441 
Q 881 4594 1212 4672 
Q 1544 4750 1819 4750 
Q 2544 4750 2975 4387 
Q 3406 4025 3406 3419 
Q 3406 3131 3298 2873 
Q 3191 2616 2906 2266 
Q 2828 2175 2409 1742 
Q 1991 1309 1228 531 
z
" transform="scale(0.015625)"/>
       </defs>
       <use xlink:href="#DejaVuSans-15"/>
      </g>
     </g>
    </g>
    <g id="xtick_3">
     <g id="line2d_5">
      <path d="M 290.488507 222.319648 
L 290.488507 42.006328 
" clip-path="url(#p0dc1841738)" style="fill: none; stroke: #b0b0b0; stroke-opacity: 0.25; stroke-width: 0.8; stroke-linecap: square"/>
     </g>
     <g id="line2d_6">
      <g>
       <use xlink:href="#me3e5f9ec33" x="290.488507" y="222.319648" style="stroke: #000000; stroke-width: 0.8"/>
      </g>
     </g>
     <g id="text_3">
      <!-- 4 -->
      <g transform="translate(287.307257 236.917305) scale(0.1 -0.1)">
       <defs>
        <path id="DejaVuSans-17" d="M 2419 4116 
L 825 1625 
L 2419 1625 
L 2419 4116 
z
M 2253 4666 
L 3047 4666 
L 3047 1625 
L 3713 1625 
L 3713 1100 
L 3047 1100 
L 3047 0 
L 2419 0 
L 2419 1100 
L 313 1100 
L 313 1709 
L 2253 4666 
z
" transform="scale(0.015625)"/>
       </defs>
       <use xlink:href="#DejaVuSans-17"/>
      </g>
     </g>
    </g>
    <g id="xtick_4">
     <g id="line2d_7">
      <path d="M 394.440732 222.319648 
L 394.440732 42.006328 
" clip-path="url(#p0dc1841738)" style="fill: none; stroke: #b0b0b0; stroke-opacity: 0.25; stroke-width: 0.8; stroke-linecap: square"/>
     </g>
     <g id="line2d_8">
      <g>
       <use xlink:href="#me3e5f9ec33" x="394.440732" y="222.319648" style="stroke: #000000; stroke-width: 0.8"/>
      </g>
     </g>
     <g id="text_4">
      <!-- 6 -->
      <g transform="translate(391.259482 236.917305) scale(0.1 -0.1)">
       <defs>
        <path id="DejaVuSans-19" d="M 2113 2584 
Q 1688 2584 1439 2293 
Q 1191 2003 1191 1497 
Q 1191 994 1439 701 
Q 1688 409 2113 409 
Q 2538 409 2786 701 
Q 3034 994 3034 1497 
Q 3034 2003 2786 2293 
Q 2538 2584 2113 2584 
z
M 3366 4563 
L 3366 3988 
Q 3128 4100 2886 4159 
Q 2644 4219 2406 4219 
Q 1781 4219 1451 3797 
Q 1122 3375 1075 2522 
Q 1259 2794 1537 2939 
Q 1816 3084 2150 3084 
Q 2853 3084 3261 2657 
Q 3669 2231 3669 1497 
Q 3669 778 3244 343 
Q 2819 -91 2113 -91 
Q 1303 -91 875 529 
Q 447 1150 447 2328 
Q 447 3434 972 4092 
Q 1497 4750 2381 4750 
Q 2619 4750 2861 4703 
Q 3103 4656 3366 4563 
z
" transform="scale(0.015625)"/>
       </defs>
       <use xlink:href="#DejaVuSans-19"/>
      </g>
     </g>
    </g>
    <g id="xtick_5">
     <g id="line2d_9">
      <path d="M 498.392958 222.319648 
L 498.392958 42.006328 
" clip-path="url(#p0dc1841738)" style="fill: none; stroke: #b0b0b0; stroke-opacity: 0.25; stroke-width: 0.8; stroke-linecap: square"/>
     </g>
     <g id="line2d_10">
      <g>
       <use xlink:href="#me3e5f9ec33" x="498.392958" y="222.319648" style="stroke: #000000; stroke-width: 0.8"/>
      </g>
     </g>
     <g id="text_5">
      <!-- 8 -->
      <g transform="translate(495.211708 236.917305) scale(0.1 -0.1)">
       <defs>
        <path id="DejaVuSans-1b" d="M 2034 2216 
Q 1584 2216 1326 1975 
Q 1069 1734 1069 1313 
Q 1069 891 1326 650 
Q 1584 409 2034 409 
Q 2484 409 2743 651 
Q 3003 894 3003 1313 
Q 3003 1734 2745 1975 
Q 2488 2216 2034 2216 
z
M 1403 2484 
Q 997 2584 770 2862 
Q 544 3141 544 3541 
Q 544 4100 942 4425 
Q 1341 4750 2034 4750 
Q 2731 4750 3128 4425 
Q 3525 4100 3525 3541 
Q 3525 3141 3298 2862 
Q 3072 2584 2669 2484 
Q 3125 2378 3379 2068 
Q 3634 1759 3634 1313 
Q 3634 634 3220 271 
Q 2806 -91 2034 -91 
Q 1263 -91 848 271 
Q 434 634 434 1313 
Q 434 1759 690 2068 
Q 947 2378 1403 2484 
z
M 1172 3481 
Q 1172 3119 1398 2916 
Q 1625 2713 2034 2713 
Q 2441 2713 2670 2916 
Q 2900 3119 2900 3481 
Q 2900 3844 2670 4047 
Q 2441 4250 2034 4250 
Q 1625 4250 1398 4047 
Q 1172 3844 1172 3481 
z
" transform="scale(0.015625)"/>
       </defs>
       <use xlink:href="#DejaVuSans-1b"/>
      </g>
     </g>
    </g>
    <g id="xtick_6">
     <g id="line2d_11">
      <path d="M 602.345183 222.319648 
L 602.345183 42.006328 
" clip-path="url(#p0dc1841738)" style="fill: none; stroke: #b0b0b0; stroke-opacity: 0.25; stroke-width: 0.8; stroke-linecap: square"/>
     </g>
     <g id="line2d_12">
      <g>
       <use xlink:href="#me3e5f9ec33" x="602.345183" y="222.319648" style="stroke: #000000; stroke-width: 0.8"/>
      </g>
     </g>
     <g id="text_6">
      <!-- 10 -->
      <g transform="translate(595.982683 236.917305) scale(0.1 -0.1)">
       <defs>
        <path id="DejaVuSans-14" d="M 794 531 
L 1825 531 
L 1825 4091 
L 703 3866 
L 703 4441 
L 1819 4666 
L 2450 4666 
L 2450 531 
L 3481 531 
L 3481 0 
L 794 0 
L 794 531 
z
" transform="scale(0.015625)"/>
       </defs>
       <use xlink:href="#DejaVuSans-14"/>
       <use xlink:href="#DejaVuSans-13" transform="translate(63.625 0)"/>
      </g>
     </g>
    </g>
    <g id="text_7">
     <!-- t [arb.] -->
     <g transform="translate(325.067578 250.918086) scale(0.1 -0.1)">
      <defs>
       <path id="DejaVuSans-57" d="M 1172 4494 
L 1172 3500 
L 2356 3500 
L 2356 3053 
L 1172 3053 
L 1172 1153 
Q 1172 725 1289 603 
Q 1406 481 1766 481 
L 2356 481 
L 2356 0 
L 1766 0 
Q 1100 0 847 248 
Q 594 497 594 1153 
L 594 3053 
L 172 3053 
L 172 3500 
L 594 3500 
L 594 4494 
L 1172 4494 
z
" transform="scale(0.015625)"/>
       <path id="DejaVuSans-3" transform="scale(0.015625)"/>
       <path id="DejaVuSans-3e" d="M 550 4863 
L 1875 4863 
L 1875 4416 
L 1125 4416 
L 1125 -397 
L 1875 -397 
L 1875 -844 
L 550 -844 
L 550 4863 
z
" transform="scale(0.015625)"/>
       <path id="DejaVuSans-44" d="M 2194 1759 
Q 1497 1759 1228 1600 
Q 959 1441 959 1056 
Q 959 750 1161 570 
Q 1363 391 1709 391 
Q 2188 391 2477 730 
Q 2766 1069 2766 1631 
L 2766 1759 
L 2194 1759 
z
M 3341 1997 
L 3341 0 
L 2766 0 
L 2766 531 
Q 2569 213 2275 61 
Q 1981 -91 1556 -91 
Q 1019 -91 701 211 
Q 384 513 384 1019 
Q 384 1609 779 1909 
Q 1175 2209 1959 2209 
L 2766 2209 
L 2766 2266 
Q 2766 2663 2505 2880 
Q 2244 3097 1772 3097 
Q 1472 3097 1187 3025 
Q 903 2953 641 2809 
L 641 3341 
Q 956 3463 1253 3523 
Q 1550 3584 1831 3584 
Q 2591 3584 2966 3190 
Q 3341 2797 3341 1997 
z
" transform="scale(0.015625)"/>
       <path id="DejaVuSans-55" d="M 2631 2963 
Q 2534 3019 2420 3045 
Q 2306 3072 2169 3072 
Q 1681 3072 1420 2755 
Q 1159 2438 1159 1844 
L 1159 0 
L 581 0 
L 581 3500 
L 1159 3500 
L 1159 2956 
Q 1341 3275 1631 3429 
Q 1922 3584 2338 3584 
Q 2397 3584 2469 3576 
Q 2541 3569 2628 3553 
L 2631 2963 
z
" transform="scale(0.015625)"/>
       <path id="DejaVuSans-45" d="M 3116 1747 
Q 3116 2381 2855 2742 
Q 2594 3103 2138 3103 
Q 1681 3103 1420 2742 
Q 1159 2381 1159 1747 
Q 1159 1113 1420 752 
Q 1681 391 2138 391 
Q 2594 391 2855 752 
Q 3116 1113 3116 1747 
z
M 1159 2969 
Q 1341 3281 1617 3432 
Q 1894 3584 2278 3584 
Q 2916 3584 3314 3078 
Q 3713 2572 3713 1747 
Q 3713 922 3314 415 
Q 2916 -91 2278 -91 
Q 1894 -91 1617 61 
Q 1341 213 1159 525 
L 1159 0 
L 581 0 
L 581 4863 
L 1159 4863 
L 1159 2969 
z
" transform="scale(0.015625)"/>
       <path id="DejaVuSans-11" d="M 684 794 
L 1344 794 
L 1344 0 
L 684 0 
L 684 794 
z
" transform="scale(0.015625)"/>
       <path id="DejaVuSans-40" d="M 1947 4863 
L 1947 -844 
L 622 -844 
L 622 -397 
L 1369 -397 
L 1369 4416 
L 622 4416 
L 622 4863 
L 1947 4863 
z
" transform="scale(0.015625)"/>
      </defs>
      <use xlink:href="#DejaVuSans-57"/>
      <use xlink:href="#DejaVuSans-3" transform="translate(39.203125 0)"/>
      <use xlink:href="#DejaVuSans-3e" transform="translate(70.984375 0)"/>
      <use xlink:href="#DejaVuSans-44" transform="translate(110 0)"/>
      <use xlink:href="#DejaVuSans-55" transform="translate(171.28125 0)"/>
      <use xlink:href="#DejaVuSans-45" transform="translate(212.390625 0)"/>
      <use xlink:href="#DejaVuSans-11" transform="translate(275.875 0)"/>
      <use xlink:href="#DejaVuSans-40" transform="translate(307.65625 0)"/>
     </g>
    </g>
   </g>
   <g id="matplotlib.axis_2">
    <g id="ytick_1">
     <g id="line2d_13">
      <path d="M 56.602344 194.112336 
L 628.2 194.112336 
" clip-path="url(#p0dc1841738)" style="fill: none; stroke: #b0b0b0; stroke-opacity: 0.25; stroke-width: 0.8; stroke-linecap: square"/>
     </g>
     <g id="line2d_14">
      <defs>
       <path id="mc3830291d1" d="M 0 0 
L -3.5 0 
" style="stroke: #000000; stroke-width: 0.8"/>
      </defs>
      <g>
       <use xlink:href="#mc3830291d1" x="56.602344" y="194.112336" style="stroke: #000000; stroke-width: 0.8"/>
      </g>
     </g>
     <g id="text_8">
      <!-- −1.0 -->
      <g transform="translate(25.319531 197.911164) scale(0.1 -0.1)">
       <defs>
        <path id="DejaVuSans-c9c" d="M 678 2272 
L 4684 2272 
L 4684 1741 
L 678 1741 
L 678 2272 
z
" transform="scale(0.015625)"/>
       </defs>
       <use xlink:href="#DejaVuSans-c9c"/>
       <use xlink:href="#DejaVuSans-14" transform="translate(83.796875 0)"/>
       <use xlink:href="#DejaVuSans-11" transform="translate(147.421875 0)"/>
       <use xlink:href="#DejaVuSans-13" transform="translate(179.203125 0)"/>
      </g>
     </g>
    </g>
    <g id="ytick_2">
     <g id="line2d_15">
      <path d="M 56.602344 161.872738 
L 628.2 161.872738 
" clip-path="url(#p0dc1841738)" style="fill: none; stroke: #b0b0b0; stroke-opacity: 0.25; stroke-width: 0.8; stroke-linecap: square"/>
     </g>
     <g id="line2d_16">
      <g>
       <use xlink:href="#mc3830291d1" x="56.602344" y="161.872738" style="stroke: #000000; stroke-width: 0.8"/>
      </g>
     </g>
     <g id="text_9">
      <!-- −0.5 -->
      <g transform="translate(25.319531 165.671566) scale(0.1 -0.1)">
       <defs>
        <path id="DejaVuSans-18" d="M 691 4666 
L 3169 4666 
L 3169 4134 
L 1269 4134 
L 1269 2991 
Q 1406 3038 1543 3061 
Q 1681 3084 1819 3084 
Q 2600 3084 3056 2656 
Q 3513 2228 3513 1497 
Q 3513 744 3044 326 
Q 2575 -91 1722 -91 
Q 1428 -91 1123 -41 
Q 819 9 494 109 
L 494 744 
Q 775 591 1075 516 
Q 1375 441 1709 441 
Q 2250 441 2565 725 
Q 2881 1009 2881 1497 
Q 2881 1984 2565 2268 
Q 2250 2553 1709 2553 
Q 1456 2553 1204 2497 
Q 953 2441 691 2322 
L 691 4666 
z
" transform="scale(0.015625)"/>
       </defs>
       <use xlink:href="#DejaVuSans-c9c"/>
       <use xlink:href="#DejaVuSans-13" transform="translate(83.796875 0)"/>
       <use xlink:href="#DejaVuSans-11" transform="translate(147.421875 0)"/>
       <use xlink:href="#DejaVuSans-18" transform="translate(179.203125 0)"/>
      </g>
     </g>
    </g>
    <g id="ytick_3">
     <g id="line2d_17">
      <path d="M 56.602344 129.63314 
L 628.2 129.63314 
" clip-path="url(#p0dc1841738)" style="fill: none; stroke: #b0b0b0; stroke-opacity: 0.25; stroke-width: 0.8; stroke-linecap: square"/>
     </g>
     <g id="line2d_18">
      <g>
       <use xlink:href="#mc3830291d1" x="56.602344" y="129.63314" style="stroke: #000000; stroke-width: 0.8"/>
      </g>
     </g>
     <g id="text_10">
      <!-- 0.0 -->
      <g transform="translate(33.699219 133.431968) scale(0.1 -0.1)">
       <use xlink:href="#DejaVuSans-13"/>
       <use xlink:href="#DejaVuSans-11" transform="translate(63.625 0)"/>
       <use xlink:href="#DejaVuSans-13" transform="translate(95.40625 0)"/>
      </g>
     </g>
    </g>
    <g id="ytick_4">
     <g id="line2d_19">
      <path d="M 56.602344 97.393541 
L 628.2 97.393541 
" clip-path="url(#p0dc1841738)" style="fill: none; stroke: #b0b0b0; stroke-opacity: 0.25; stroke-width: 0.8; stroke-linecap: square"/>
     </g>
     <g id="line2d_20">
      <g>
       <use xlink:href="#mc3830291d1" x="56.602344" y="97.393541" style="stroke: #000000; stroke-width: 0.8"/>
      </g>
     </g>
     <g id="text_11">
      <!-- 0.5 -->
      <g transform="translate(33.699219 101.192369) scale(0.1 -0.1)">
       <use xlink:href="#DejaVuSans-13"/>
       <use xlink:href="#DejaVuSans-11" transform="translate(63.625 0)"/>
       <use xlink:href="#DejaVuSans-18" transform="translate(95.40625 0)"/>
      </g>
     </g>
    </g>
    <g id="ytick_5">
     <g id="line2d_21">
      <path d="M 56.602344 65.153943 
L 628.2 65.153943 
" clip-path="url(#p0dc1841738)" style="fill: none; stroke: #b0b0b0; stroke-opacity: 0.25; stroke-width: 0.8; stroke-linecap: square"/>
     </g>
     <g id="line2d_22">
      <g>
       <use xlink:href="#mc3830291d1" x="56.602344" y="65.153943" style="stroke: #000000; stroke-width: 0.8"/>
      </g>
     </g>
     <g id="text_12">
      <!-- 1.0 -->
      <g transform="translate(33.699219 68.952771) scale(0.1 -0.1)">
       <use xlink:href="#DejaVuSans-14"/>
       <use xlink:href="#DejaVuSans-11" transform="translate(63.625 0)"/>
       <use xlink:href="#DejaVuSans-13" transform="translate(95.40625 0)"/>
      </g>
     </g>
    </g>
    <g id="text_13">
     <!-- [arb.] -->
     <g transform="translate(18.917188 145.947363) rotate(-90) scale(0.1 -0.1)">
      <use xlink:href="#DejaVuSans-3e"/>
      <use xlink:href="#DejaVuSans-44" transform="translate(39.015625 0)"/>
      <use xlink:href="#DejaVuSans-55" transform="translate(100.296875 0)"/>
      <use xlink:href="#DejaVuSans-45" transform="translate(141.40625 0)"/>
      <use xlink:href="#DejaVuSans-11" transform="translate(204.890625 0)"/>
      <use xlink:href="#DejaVuSans-40" transform="translate(236.671875 0)"/>
     </g>
    </g>
   </g>
   <g id="line2d_23">
    <path d="M 82.584055 129.63314 
L 82.71095 54.221931 
L 116.084284 54.221931 
L 116.211179 205.044348 
L 149.584513 205.044348 
L 149.711408 54.221931 
L 183.084742 54.221931 
L 183.211637 205.044348 
L 216.711866 205.044348 
L 216.838761 54.221931 
L 250.212095 54.221931 
L 250.33899 205.044348 
L 283.712324 205.044348 
L 283.839219 54.221931 
L 317.212553 54.221931 
L 317.339448 205.044348 
L 350.839677 205.044348 
L 350.966571 54.221931 
L 384.339905 54.221931 
L 384.4668 205.044348 
L 417.840134 205.044348 
L 417.967029 54.221931 
L 451.467258 54.221931 
L 451.594153 205.044348 
L 484.967487 205.044348 
L 485.094382 54.221931 
L 518.467716 54.221931 
L 518.594611 205.044348 
L 551.967945 205.044348 
L 552.09484 54.221931 
L 585.595069 54.221931 
L 585.721963 205.044348 
L 602.218288 205.044348 
L 602.218288 205.044348 
" clip-path="url(#p0dc1841738)" style="fill: none; stroke: #1f77b4; stroke-width: 1.5; stroke-linecap: square"/>
   </g>
   <g id="line2d_24">
    <path d="M 82.584055 129.63314 
L 82.71095 54.258744 
L 97.303853 58.374555 
L 112.27744 62.364233 
L 116.084284 63.342436 
L 116.211179 214.123588 
L 130.042713 209.744353 
L 144.128037 205.517956 
L 149.584513 203.941282 
L 149.711408 53.156215 
L 164.177416 57.296918 
L 179.024108 61.313581 
L 183.084742 62.372778 
L 183.211637 213.154404 
L 197.043171 208.825402 
L 211.255389 204.610867 
L 216.711866 203.053039 
L 216.838761 52.268406 
L 231.177874 56.421439 
L 245.897671 60.452944 
L 250.212095 61.591963 
L 250.33899 212.37397 
L 264.297418 208.047122 
L 278.509637 203.874006 
L 283.712324 202.402517 
L 283.839219 51.618202 
L 298.178332 55.806138 
L 312.898129 59.871526 
L 317.212553 61.020117 
L 317.339448 211.802403 
L 331.297876 207.505445 
L 345.636989 203.325165 
L 350.839677 201.864554 
L 350.966571 51.080502 
L 365.17879 55.260997 
L 379.771692 59.32208 
L 384.339905 60.547218 
L 384.4668 211.329735 
L 398.425229 207.057494 
L 412.764342 202.901261 
L 417.840134 201.484127 
L 417.967029 50.70026 
L 432.179248 54.900991 
L 446.77215 58.981733 
L 451.467258 60.246689 
L 451.594153 211.029353 
L 465.679476 206.735164 
L 480.01859 202.596234 
L 484.967487 201.219945 
L 485.094382 50.436207 
L 499.3066 54.650991 
L 513.899503 58.745384 
L 518.467716 59.98057 
L 518.594611 210.763364 
L 532.679934 206.483207 
L 547.145942 202.322301 
L 551.967945 200.986012 
L 552.09484 50.202388 
L 566.307058 54.429616 
L 580.899961 58.536097 
L 585.595069 59.809031 
L 585.721963 210.591909 
L 599.807287 206.320798 
L 602.218288 205.61263 
L 602.218288 205.61263 
" clip-path="url(#p0dc1841738)" style="fill: none; stroke: #ff7f0e; stroke-width: 1.5; stroke-linecap: square"/>
   </g>
   <g id="patch_3">
    <path d="M 56.602344 222.319648 
L 56.602344 42.006328 
" style="fill: none; stroke: #000000; stroke-width: 0.8; stroke-linejoin: miter; stroke-linecap: square"/>
   </g>
   <g id="patch_4">
    <path d="M 628.2 222.319648 
L 628.2 42.006328 
" style="fill: none; stroke: #000000; stroke-width: 0.8; stroke-linejoin: miter; stroke-linecap: square"/>
   </g>
   <g id="patch_5">
    <path d="M 56.602344 222.319648 
L 628.2 222.319648 
" style="fill: none; stroke: #000000; stroke-width: 0.8; stroke-linejoin: miter; stroke-linecap: square"/>
   </g>
   <g id="patch_6">
    <path d="M 56.602344 42.006328 
L 628.2 42.006328 
" style="fill: none; stroke: #000000; stroke-width: 0.8; stroke-linejoin: miter; stroke-linecap: square"/>
   </g>
   <g id="text_14">
    <!-- Daily Useless RL (2026-07-23) | verdict: restless -->
    <g transform="translate(198.007422 21.550547) scale(0.12 -0.12)">
     <defs>
      <path id="DejaVuSans-27" d="M 1259 4147 
L 1259 519 
L 2022 519 
Q 2988 519 3436 956 
Q 3884 1394 3884 2338 
Q 3884 3275 3436 3711 
Q 2988 4147 2022 4147 
L 1259 4147 
z
M 628 4666 
L 1925 4666 
Q 3281 4666 3915 4102 
Q 4550 3538 4550 2338 
Q 4550 1131 3912 565 
Q 3275 0 1925 0 
L 628 0 
L 628 4666 
z
" transform="scale(0.015625)"/>
      <path id="DejaVuSans-4c" d="M 603 3500 
L 1178 3500 
L 1178 0 
L 603 0 
L 603 3500 
z
M 603 4863 
L 1178 4863 
L 1178 4134 
L 603 4134 
L 603 4863 
z
" transform="scale(0.015625)"/>
      <path id="DejaVuSans-4f" d="M 603 4863 
L 1178 4863 
L 1178 0 
L 603 0 
L 603 4863 
z
" transform="scale(0.015625)"/>
      <path id="DejaVuSans-5c" d="M 2059 -325 
Q 1816 -950 1584 -1140 
Q 1353 -1331 966 -1331 
L 506 -1331 
L 506 -850 
L 844 -850 
Q 1081 -850 1212 -737 
Q 1344 -625 1503 -206 
L 1606 56 
L 191 3500 
L 800 3500 
L 1894 763 
L 2988 3500 
L 3597 3500 
L 2059 -325 
z
" transform="scale(0.015625)"/>
      <path id="DejaVuSans-38" d="M 556 4666 
L 1191 4666 
L 1191 1831 
Q 1191 1081 1462 751 
Q 1734 422 2344 422 
Q 2950 422 3222 751 
Q 3494 1081 3494 1831 
L 3494 4666 
L 4128 4666 
L 4128 1753 
Q 4128 841 3676 375 
Q 3225 -91 2344 -91 
Q 1459 -91 1007 375 
Q 556 841 556 1753 
L 556 4666 
z
" transform="scale(0.015625)"/>
      <path id="DejaVuSans-56" d="M 2834 3397 
L 2834 2853 
Q 2591 2978 2328 3040 
Q 2066 3103 1784 3103 
Q 1356 3103 1142 2972 
Q 928 2841 928 2578 
Q 928 2378 1081 2264 
Q 1234 2150 1697 2047 
L 1894 2003 
Q 2506 1872 2764 1633 
Q 3022 1394 3022 966 
Q 3022 478 2636 193 
Q 2250 -91 1575 -91 
Q 1294 -91 989 -36 
Q 684 19 347 128 
L 347 722 
Q 666 556 975 473 
Q 1284 391 1588 391 
Q 1994 391 2212 530 
Q 2431 669 2431 922 
Q 2431 1156 2273 1281 
Q 2116 1406 1581 1522 
L 1381 1569 
Q 847 1681 609 1914 
Q 372 2147 372 2553 
Q 372 3047 722 3315 
Q 1072 3584 1716 3584 
Q 2034 3584 2315 3537 
Q 2597 3491 2834 3397 
z
" transform="scale(0.015625)"/>
      <path id="DejaVuSans-48" d="M 3597 1894 
L 3597 1613 
L 953 1613 
Q 991 1019 1311 708 
Q 1631 397 2203 397 
Q 2534 397 2845 478 
Q 3156 559 3463 722 
L 3463 178 
Q 3153 47 2828 -22 
Q 2503 -91 2169 -91 
Q 1331 -91 842 396 
Q 353 884 353 1716 
Q 353 2575 817 3079 
Q 1281 3584 2069 3584 
Q 2775 3584 3186 3129 
Q 3597 2675 3597 1894 
z
M 3022 2063 
Q 3016 2534 2758 2815 
Q 2500 3097 2075 3097 
Q 1594 3097 1305 2825 
Q 1016 2553 972 2059 
L 3022 2063 
z
" transform="scale(0.015625)"/>
      <path id="DejaVuSans-35" d="M 2841 2188 
Q 3044 2119 3236 1894 
Q 3428 1669 3622 1275 
L 4263 0 
L 3584 0 
L 2988 1197 
Q 2756 1666 2539 1819 
Q 2322 1972 1947 1972 
L 1259 1972 
L 1259 0 
L 628 0 
L 628 4666 
L 2053 4666 
Q 2853 4666 3247 4331 
Q 3641 3997 3641 3322 
Q 3641 2881 3436 2590 
Q 3231 2300 2841 2188 
z
M 1259 4147 
L 1259 2491 
L 2053 2491 
Q 2509 2491 2742 2702 
Q 2975 2913 2975 3322 
Q 2975 3731 2742 3939 
Q 2509 4147 2053 4147 
L 1259 4147 
z
" transform="scale(0.015625)"/>
      <path id="DejaVuSans-2f" d="M 628 4666 
L 1259 4666 
L 1259 531 
L 3531 531 
L 3531 0 
L 628 0 
L 628 4666 
z
" transform="scale(0.015625)"/>
      <path id="DejaVuSans-b" d="M 1984 4856 
Q 1566 4138 1362 3434 
Q 1159 2731 1159 2009 
Q 1159 1288 1364 580 
Q 1569 -128 1984 -844 
L 1484 -844 
Q 1016 -109 783 600 
Q 550 1309 550 2009 
Q 550 2706 781 3412 
Q 1013 4119 1484 4856 
L 1984 4856 
z
" transform="scale(0.015625)"/>
      <path id="DejaVuSans-10" d="M 313 2009 
L 1997 2009 
L 1997 1497 
L 313 1497 
L 313 2009 
z
" transform="scale(0.015625)"/>
      <path id="DejaVuSans-1a" d="M 525 4666 
L 3525 4666 
L 3525 4397 
L 1831 0 
L 1172 0 
L 2766 4134 
L 525 4134 
L 525 4666 
z
" transform="scale(0.015625)"/>
      <path id="DejaVuSans-16" d="M 2597 2516 
Q 3050 2419 3304 2112 
Q 3559 1806 3559 1356 
Q 3559 666 3084 287 
Q 2609 -91 1734 -91 
Q 1441 -91 1130 -33 
Q 819 25 488 141 
L 488 750 
Q 750 597 1062 519 
Q 1375 441 1716 441 
Q 2309 441 2620 675 
Q 2931 909 2931 1356 
Q 2931 1769 2642 2001 
Q 2353 2234 1838 2234 
L 1294 2234 
L 1294 2753 
L 1863 2753 
Q 2328 2753 2575 2939 
Q 2822 3125 2822 3475 
Q 2822 3834 2567 4026 
Q 2313 4219 1838 4219 
Q 1578 4219 1281 4162 
Q 984 4106 628 3988 
L 628 4550 
Q 988 4650 1302 4700 
Q 1616 4750 1894 4750 
Q 2613 4750 3031 4423 
Q 3450 4097 3450 3541 
Q 3450 3153 3228 2886 
Q 3006 2619 2597 2516 
z
" transform="scale(0.015625)"/>
      <path id="DejaVuSans-c" d="M 513 4856 
L 1013 4856 
Q 1481 4119 1714 3412 
Q 1947 2706 1947 2009 
Q 1947 1309 1714 600 
Q 1481 -109 1013 -844 
L 513 -844 
Q 928 -128 1133 580 
Q 1338 1288 1338 2009 
Q 1338 2731 1133 3434 
Q 928 4138 513 4856 
z
" transform="scale(0.015625)"/>
      <path id="DejaVuSans-5f" d="M 1344 4891 
L 1344 -1509 
L 813 -1509 
L 813 4891 
L 1344 4891 
z
" transform="scale(0.015625)"/>
      <path id="DejaVuSans-59" d="M 191 3500 
L 800 3500 
L 1894 563 
L 2988 3500 
L 3597 3500 
L 2284 0 
L 1503 0 
L 191 3500 
z
" transform="scale(0.015625)"/>
      <path id="DejaVuSans-47" d="M 2906 2969 
L 2906 4863 
L 3481 4863 
L 3481 0 
L 2906 0 
L 2906 525 
Q 2725 213 2448 61 
Q 2172 -91 1784 -91 
Q 1150 -91 751 415 
Q 353 922 353 1747 
Q 353 2572 751 3078 
Q 1150 3584 1784 3584 
Q 2172 3584 2448 3432 
Q 2725 3281 2906 2969 
z
M 947 1747 
Q 947 1113 1208 752 
Q 1469 391 1925 391 
Q 2381 391 2643 752 
Q 2906 1113 2906 1747 
Q 2906 2381 2643 2742 
Q 2381 3103 1925 3103 
Q 1469 3103 1208 2742 
Q 947 2381 947 1747 
z
" transform="scale(0.015625)"/>
      <path id="DejaVuSans-46" d="M 3122 3366 
L 3122 2828 
Q 2878 2963 2633 3030 
Q 2388 3097 2138 3097 
Q 1578 3097 1268 2742 
Q 959 2388 959 1747 
Q 959 1106 1268 751 
Q 1578 397 2138 397 
Q 2388 397 2633 464 
Q 2878 531 3122 666 
L 3122 134 
Q 2881 22 2623 -34 
Q 2366 -91 2075 -91 
Q 1284 -91 818 406 
Q 353 903 353 1747 
Q 353 2603 823 3093 
Q 1294 3584 2113 3584 
Q 2378 3584 2631 3529 
Q 2884 3475 3122 3366 
z
" transform="scale(0.015625)"/>
      <path id="DejaVuSans-1d" d="M 750 794 
L 1409 794 
L 1409 0 
L 750 0 
L 750 794 
z
M 750 3309 
L 1409 3309 
L 1409 2516 
L 750 2516 
L 750 3309 
z
" transform="scale(0.015625)"/>
     </defs>
     <use xlink:href="#DejaVuSans-27"/>
     <use xlink:href="#DejaVuSans-44" transform="translate(77 0)"/>
     <use xlink:href="#DejaVuSans-4c" transform="translate(138.28125 0)"/>
     <use xlink:href="#DejaVuSans-4f" transform="translate(166.0625 0)"/>
     <use xlink:href="#DejaVuSans-5c" transform="translate(193.84375 0)"/>
     <use xlink:href="#DejaVuSans-3" transform="translate(253.03125 0)"/>
     <use xlink:href="#DejaVuSans-38" transform="translate(284.8125 0)"/>
     <use xlink:href="#DejaVuSans-56" transform="translate(358 0)"/>
     <use xlink:href="#DejaVuSans-48" transform="translate(410.09375 0)"/>
     <use xlink:href="#DejaVuSans-4f" transform="translate(471.625 0)"/>
     <use xlink:href="#DejaVuSans-48" transform="translate(499.40625 0)"/>
     <use xlink:href="#DejaVuSans-56" transform="translate(560.9375 0)"/>
     <use xlink:href="#DejaVuSans-56" transform="translate(613.03125 0)"/>
     <use xlink:href="#DejaVuSans-3" transform="translate(665.125 0)"/>
     <use xlink:href="#DejaVuSans-35" transform="translate(696.90625 0)"/>
     <use xlink:href="#DejaVuSans-2f" transform="translate(766.390625 0)"/>
     <use xlink:href="#DejaVuSans-3" transform="translate(822.109375 0)"/>
     <use xlink:href="#DejaVuSans-b" transform="translate(853.890625 0)"/>
     <use xlink:href="#DejaVuSans-15" transform="translate(892.90625 0)"/>
     <use xlink:href="#DejaVuSans-13" transform="translate(956.53125 0)"/>
     <use xlink:href="#DejaVuSans-15" transform="translate(1020.15625 0)"/>
     <use xlink:href="#DejaVuSans-19" transform="translate(1083.78125 0)"/>
     <use xlink:href="#DejaVuSans-10" transform="translate(1147.40625 0)"/>
     <use xlink:href="#DejaVuSans-13" transform="translate(1183.484375 0)"/>
     <use xlink:href="#DejaVuSans-1a" transform="translate(1247.109375 0)"/>
     <use xlink:href="#DejaVuSans-10" transform="translate(1310.734375 0)"/>
     <use xlink:href="#DejaVuSans-15" transform="translate(1346.8125 0)"/>
     <use xlink:href="#DejaVuSans-16" transform="translate(1410.4375 0)"/>
     <use xlink:href="#DejaVuSans-c" transform="translate(1474.0625 0)"/>
     <use xlink:href="#DejaVuSans-3" transform="translate(1513.078125 0)"/>
     <use xlink:href="#DejaVuSans-5f" transform="translate(1544.859375 0)"/>
     <use xlink:href="#DejaVuSans-3" transform="translate(1578.546875 0)"/>
     <use xlink:href="#DejaVuSans-59" transform="translate(1610.328125 0)"/>
     <use xlink:href="#DejaVuSans-48" transform="translate(1669.515625 0)"/>
     <use xlink:href="#DejaVuSans-55" transform="translate(1731.046875 0)"/>
     <use xlink:href="#DejaVuSans-47" transform="translate(1770.40625 0)"/>
     <use xlink:href="#DejaVuSans-4c" transform="translate(1833.890625 0)"/>
     <use xlink:href="#DejaVuSans-46" transform="translate(1861.671875 0)"/>
     <use xlink:href="#DejaVuSans-57" transform="translate(1916.65625 0)"/>
     <use xlink:href="#DejaVuSans-1d" transform="translate(1955.859375 0)"/>
     <use xlink:href="#DejaVuSans-3" transform="translate(1989.546875 0)"/>
     <use xlink:href="#DejaVuSans-55" transform="translate(2021.328125 0)"/>
     <use xlink:href="#DejaVuSans-48" transform="translate(2060.234375 0)"/>
     <use xlink:href="#DejaVuSans-56" transform="translate(2121.765625 0)"/>
     <use xlink:href="#DejaVuSans-57" transform="translate(2173.859375 0)"/>
     <use xlink:href="#DejaVuSans-4f" transform="translate(2213.0625 0)"/>
     <use xlink:href="#DejaVuSans-48" transform="translate(2240.84375 0)"/>
     <use xlink:href="#DejaVuSans-56" transform="translate(2302.375 0)"/>
     <use xlink:href="#DejaVuSans-56" transform="translate(2354.46875 0)"/>
    </g>
    <!-- Filter: high | Input: square, square (A=1.17, f=0.77 Hz) | R=2.00, L=10.00, τ=5.00 -->
    <g transform="translate(94.117422 36.006328) scale(0.12 -0.12)">
     <defs>
      <path id="DejaVuSans-29" d="M 628 4666 
L 3309 4666 
L 3309 4134 
L 1259 4134 
L 1259 2759 
L 3109 2759 
L 3109 2228 
L 1259 2228 
L 1259 0 
L 628 0 
L 628 4666 
z
" transform="scale(0.015625)"/>
      <path id="DejaVuSans-4b" d="M 3513 2113 
L 3513 0 
L 2938 0 
L 2938 2094 
Q 2938 2591 2744 2837 
Q 2550 3084 2163 3084 
Q 1697 3084 1428 2787 
Q 1159 2491 1159 1978 
L 1159 0 
L 581 0 
L 581 4863 
L 1159 4863 
L 1159 2956 
Q 1366 3272 1645 3428 
Q 1925 3584 2291 3584 
Q 2894 3584 3203 3211 
Q 3513 2838 3513 2113 
z
" transform="scale(0.015625)"/>
      <path id="DejaVuSans-4a" d="M 2906 1791 
Q 2906 2416 2648 2759 
Q 2391 3103 1925 3103 
Q 1463 3103 1205 2759 
Q 947 2416 947 1791 
Q 947 1169 1205 825 
Q 1463 481 1925 481 
Q 2391 481 2648 825 
Q 2906 1169 2906 1791 
z
M 3481 434 
Q 3481 -459 3084 -895 
Q 2688 -1331 1869 -1331 
Q 1566 -1331 1297 -1286 
Q 1028 -1241 775 -1147 
L 775 -588 
Q 1028 -725 1275 -790 
Q 1522 -856 1778 -856 
Q 2344 -856 2625 -561 
Q 2906 -266 2906 331 
L 2906 616 
Q 2728 306 2450 153 
Q 2172 0 1784 0 
Q 1141 0 747 490 
Q 353 981 353 1791 
Q 353 2603 747 3093 
Q 1141 3584 1784 3584 
Q 2172 3584 2450 3431 
Q 2728 3278 2906 2969 
L 2906 3500 
L 3481 3500 
L 3481 434 
z
" transform="scale(0.015625)"/>
      <path id="DejaVuSans-2c" d="M 628 4666 
L 1259 4666 
L 1259 0 
L 628 0 
L 628 4666 
z
" transform="scale(0.015625)"/>
      <path id="DejaVuSans-51" d="M 3513 2113 
L 3513 0 
L 2938 0 
L 2938 2094 
Q 2938 2591 2744 2837 
Q 2550 3084 2163 3084 
Q 1697 3084 1428 2787 
Q 1159 2491 1159 1978 
L 1159 0 
L 581 0 
L 581 3500 
L 1159 3500 
L 1159 2956 
Q 1366 3272 1645 3428 
Q 1925 3584 2291 3584 
Q 2894 3584 3203 3211 
Q 3513 2838 3513 2113 
z
" transform="scale(0.015625)"/>
      <path id="DejaVuSans-53" d="M 1159 525 
L 1159 -1331 
L 581 -1331 
L 581 3500 
L 1159 3500 
L 1159 2969 
Q 1341 3281 1617 3432 
Q 1894 3584 2278 3584 
Q 2916 3584 3314 3078 
Q 3713 2572 3713 1747 
Q 3713 922 3314 415 
Q 2916 -91 2278 -91 
Q 1894 -91 1617 61 
Q 1341 213 1159 525 
z
M 3116 1747 
Q 3116 2381 2855 2742 
Q 2594 3103 2138 3103 
Q 1681 3103 1420 2742 
Q 1159 2381 1159 1747 
Q 1159 1113 1420 752 
Q 1681 391 2138 391 
Q 2594 391 2855 752 
Q 3116 1113 3116 1747 
z
" transform="scale(0.015625)"/>
      <path id="DejaVuSans-58" d="M 544 1381 
L 544 3500 
L 1119 3500 
L 1119 1403 
Q 1119 906 1312 657 
Q 1506 409 1894 409 
Q 2359 409 2629 706 
Q 2900 1003 2900 1516 
L 2900 3500 
L 3475 3500 
L 3475 0 
L 2900 0 
L 2900 538 
Q 2691 219 2414 64 
Q 2138 -91 1772 -91 
Q 1169 -91 856 284 
Q 544 659 544 1381 
z
M 1991 3584 
L 1991 3584 
z
" transform="scale(0.015625)"/>
      <path id="DejaVuSans-54" d="M 947 1747 
Q 947 1113 1208 752 
Q 1469 391 1925 391 
Q 2381 391 2643 752 
Q 2906 1113 2906 1747 
Q 2906 2381 2643 2742 
Q 2381 3103 1925 3103 
Q 1469 3103 1208 2742 
Q 947 2381 947 1747 
z
M 2906 525 
Q 2725 213 2448 61 
Q 2172 -91 1784 -91 
Q 1150 -91 751 415 
Q 353 922 353 1747 
Q 353 2572 751 3078 
Q 1150 3584 1784 3584 
Q 2172 3584 2448 3432 
Q 2725 3281 2906 2969 
L 2906 3500 
L 3481 3500 
L 3481 -1331 
L 2906 -1331 
L 2906 525 
z
" transform="scale(0.015625)"/>
      <path id="DejaVuSans-f" d="M 750 794 
L 1409 794 
L 1409 256 
L 897 -744 
L 494 -744 
L 750 256 
L 750 794 
z
" transform="scale(0.015625)"/>
      <path id="DejaVuSans-24" d="M 2188 4044 
L 1331 1722 
L 3047 1722 
L 2188 4044 
z
M 1831 4666 
L 2547 4666 
L 4325 0 
L 3669 0 
L 3244 1197 
L 1141 1197 
L 716 0 
L 50 0 
L 1831 4666 
z
" transform="scale(0.015625)"/>
      <path id="DejaVuSans-20" d="M 678 2906 
L 4684 2906 
L 4684 2381 
L 678 2381 
L 678 2906 
z
M 678 1631 
L 4684 1631 
L 4684 1100 
L 678 1100 
L 678 1631 
z
" transform="scale(0.015625)"/>
      <path id="DejaVuSans-49" d="M 2375 4863 
L 2375 4384 
L 1825 4384 
Q 1516 4384 1395 4259 
Q 1275 4134 1275 3809 
L 1275 3500 
L 2222 3500 
L 2222 3053 
L 1275 3053 
L 1275 0 
L 697 0 
L 697 3053 
L 147 3053 
L 147 3500 
L 697 3500 
L 697 3744 
Q 697 4328 969 4595 
Q 1241 4863 1831 4863 
L 2375 4863 
z
" transform="scale(0.015625)"/>
      <path id="DejaVuSans-2b" d="M 628 4666 
L 1259 4666 
L 1259 2753 
L 3553 2753 
L 3553 4666 
L 4184 4666 
L 4184 0 
L 3553 0 
L 3553 2222 
L 1259 2222 
L 1259 0 
L 628 0 
L 628 4666 
z
" transform="scale(0.015625)"/>
      <path id="DejaVuSans-5d" d="M 353 3500 
L 3084 3500 
L 3084 2975 
L 922 459 
L 3084 459 
L 3084 0 
L 275 0 
L 275 525 
L 2438 3041 
L 353 3041 
L 353 3500 
z
" transform="scale(0.015625)"/>
      <path id="DejaVuSans-358" d="M 2319 638 
Q 2431 488 2769 488 
L 3047 488 
L 3047 0 
L 2700 0 
Q 2138 0 1881 300 
Q 1625 606 1625 1269 
L 1625 2925 
L 313 2925 
L 313 3500 
L 3541 3500 
L 3541 2925 
L 2213 2925 
L 2213 1234 
Q 2213 781 2319 638 
z
" transform="scale(0.015625)"/>
     </defs>
     <use xlink:href="#DejaVuSans-29"/>
     <use xlink:href="#DejaVuSans-4c" transform="translate(50.234375 0)"/>
     <use xlink:href="#DejaVuSans-4f" transform="translate(78.015625 0)"/>
     <use xlink:href="#DejaVuSans-57" transform="translate(105.796875 0)"/>
     <use xlink:href="#DejaVuSans-48" transform="translate(145 0)"/>
     <use xlink:href="#DejaVuSans-55" transform="translate(206.53125 0)"/>
     <use xlink:href="#DejaVuSans-1d" transform="translate(245.890625 0)"/>
     <use xlink:href="#DejaVuSans-3" transform="translate(279.578125 0)"/>
     <use xlink:href="#DejaVuSans-4b" transform="translate(311.359375 0)"/>
     <use xlink:href="#DejaVuSans-4c" transform="translate(374.734375 0)"/>
     <use xlink:href="#DejaVuSans-4a" transform="translate(402.515625 0)"/>
     <use xlink:href="#DejaVuSans-4b" transform="translate(466 0)"/>
     <use xlink:href="#DejaVuSans-3" transform="translate(529.375 0)"/>
     <use xlink:href="#DejaVuSans-5f" transform="translate(561.15625 0)"/>
     <use xlink:href="#DejaVuSans-3" transform="translate(594.84375 0)"/>
     <use xlink:href="#DejaVuSans-2c" transform="translate(626.625 0)"/>
     <use xlink:href="#DejaVuSans-51" transform="translate(656.125 0)"/>
     <use xlink:href="#DejaVuSans-53" transform="translate(719.5 0)"/>
     <use xlink:href="#DejaVuSans-58" transform="translate(782.984375 0)"/>
     <use xlink:href="#DejaVuSans-57" transform="translate(846.359375 0)"/>
     <use xlink:href="#DejaVuSans-1d" transform="translate(885.5625 0)"/>
     <use xlink:href="#DejaVuSans-3" transform="translate(919.25 0)"/>
     <use xlink:href="#DejaVuSans-56" transform="translate(951.03125 0)"/>
     <use xlink:href="#DejaVuSans-54" transform="translate(1003.125 0)"/>
     <use xlink:href="#DejaVuSans-58" transform="translate(1066.609375 0)"/>
     <use xlink:href="#DejaVuSans-44" transform="translate(1129.984375 0)"/>
     <use xlink:href="#DejaVuSans-55" transform="translate(1191.265625 0)"/>
     <use xlink:href="#DejaVuSans-48" transform="translate(1230.171875 0)"/>
     <use xlink:href="#DejaVuSans-f" transform="translate(1291.703125 0)"/>
     <use xlink:href="#DejaVuSans-3" transform="translate(1323.484375 0)"/>
     <use xlink:href="#DejaVuSans-56" transform="translate(1355.265625 0)"/>
     <use xlink:href="#DejaVuSans-54" transform="translate(1407.359375 0)"/>
     <use xlink:href="#DejaVuSans-58" transform="translate(1470.84375 0)"/>
     <use xlink:href="#DejaVuSans-44" transform="translate(1534.21875 0)"/>
     <use xlink:href="#DejaVuSans-55" transform="translate(1595.5 0)"/>
     <use xlink:href="#DejaVuSans-48" transform="translate(1634.40625 0)"/>
     <use xlink:href="#DejaVuSans-3" transform="translate(1695.9375 0)"/>
     <use xlink:href="#DejaVuSans-b" transform="translate(1727.71875 0)"/>
     <use xlink:href="#DejaVuSans-24" transform="translate(1766.734375 0)"/>
     <use xlink:href="#DejaVuSans-20" transform="translate(1835.140625 0)"/>
     <use xlink:href="#DejaVuSans-14" transform="translate(1918.9375 0)"/>
     <use xlink:href="#DejaVuSans-11" transform="translate(1982.5625 0)"/>
     <use xlink:href="#DejaVuSans-14" transform="translate(2014.34375 0)"/>
     <use xlink:href="#DejaVuSans-1a" transform="translate(2077.96875 0)"/>
     <use xlink:href="#DejaVuSans-f" transform="translate(2141.59375 0)"/>
     <use xlink:href="#DejaVuSans-3" transform="translate(2173.375 0)"/>
     <use xlink:href="#DejaVuSans-49" transform="translate(2205.15625 0)"/>
     <use xlink:href="#DejaVuSans-20" transform="translate(2240.359375 0)"/>
     <use xlink:href="#DejaVuSans-13" transform="translate(2324.15625 0)"/>
     <use xlink:href="#DejaVuSans-11" transform="translate(2387.78125 0)"/>
     <use xlink:href="#DejaVuSans-1a" transform="translate(2419.5625 0)"/>
     <use xlink:href="#DejaVuSans-1a" transform="translate(2483.1875 0)"/>
     <use xlink:href="#DejaVuSans-3" transform="translate(2546.8125 0)"/>
     <use xlink:href="#DejaVuSans-2b" transform="translate(2578.59375 0)"/>
     <use xlink:href="#DejaVuSans-5d" transform="translate(2653.796875 0)"/>
     <use xlink:href="#DejaVuSans-c" transform="translate(2706.28125 0)"/>
     <use xlink:href="#DejaVuSans-3" transform="translate(2745.296875 0)"/>
     <use xlink:href="#DejaVuSans-5f" transform="translate(2777.078125 0)"/>
     <use xlink:href="#DejaVuSans-3" transform="translate(2810.765625 0)"/>
     <use xlink:href="#DejaVuSans-35" transform="translate(2842.546875 0)"/>
     <use xlink:href="#DejaVuSans-20" transform="translate(2912.03125 0)"/>
     <use xlink:href="#DejaVuSans-15" transform="translate(2995.828125 0)"/>
     <use xlink:href="#DejaVuSans-11" transform="translate(3059.453125 0)"/>
     <use xlink:href="#DejaVuSans-13" transform="translate(3091.234375 0)"/>
     <use xlink:href="#DejaVuSans-13" transform="translate(3154.859375 0)"/>
     <use xlink:href="#DejaVuSans-f" transform="translate(3218.484375 0)"/>
     <use xlink:href="#DejaVuSans-3" transform="translate(3250.265625 0)"/>
     <use xlink:href="#DejaVuSans-2f" transform="translate(3282.046875 0)"/>
     <use xlink:href="#DejaVuSans-20" transform="translate(3337.765625 0)"/>
     <use xlink:href="#DejaVuSans-14" transform="translate(3421.5625 0)"/>
     <use xlink:href="#DejaVuSans-13" transform="translate(3485.1875 0)"/>
     <use xlink:href="#DejaVuSans-11" transform="translate(3548.8125 0)"/>
     <use xlink:href="#DejaVuSans-13" transform="translate(3580.59375 0)"/>
     <use xlink:href="#DejaVuSans-13" transform="translate(3644.21875 0)"/>
     <use xlink:href="#DejaVuSans-f" transform="translate(3707.84375 0)"/>
     <use xlink:href="#DejaVuSans-3" transform="translate(3739.625 0)"/>
     <use xlink:href="#DejaVuSans-358" transform="translate(3771.40625 0)"/>
     <use xlink:href="#DejaVuSans-20" transform="translate(3831.609375 0)"/>
     <use xlink:href="#DejaVuSans-18" transform="translate(3915.40625 0)"/>
     <use xlink:href="#DejaVuSans-11" transform="translate(3979.03125 0)"/>
     <use xlink:href="#DejaVuSans-13" transform="translate(4010.8125 0)"/>
     <use xlink:href="#DejaVuSans-13" transform="translate(4074.4375 0)"/>
    </g>
   </g>
   <g id="legend_1">
    <g id="patch_7">
     <path d="M 556.217187 148.66377 
L 621.2 148.66377 
Q 623.2 148.66377 623.2 146.66377 
L 623.2 117.662207 
Q 623.2 115.662207 621.2 115.662207 
L 556.217187 115.662207 
Q 554.217187 115.662207 554.217187 117.662207 
L 554.217187 146.66377 
Q 554.217187 148.66377 556.217187 148.66377 
z
" style="fill: #ffffff; opacity: 0.8; stroke: #cccccc; stroke-linejoin: miter"/>
    </g>
    <g id="line2d_25">
     <path d="M 558.217187 123.760645 
L 568.217187 123.760645 
L 578.217187 123.760645 
" style="fill: none; stroke: #1f77b4; stroke-width: 1.5; stroke-linecap: square"/>
    </g>
    <g id="text_15">
     <!-- input -->
     <g transform="translate(586.217187 127.260645) scale(0.1 -0.1)">
      <use xlink:href="#DejaVuSans-4c"/>
      <use xlink:href="#DejaVuSans-51" transform="translate(27.78125 0)"/>
      <use xlink:href="#DejaVuSans-53" transform="translate(91.15625 0)"/>
      <use xlink:href="#DejaVuSans-58" transform="translate(154.640625 0)"/>
      <use xlink:href="#DejaVuSans-57" transform="translate(218.015625 0)"/>
     </g>
    </g>
    <g id="line2d_26">
     <path d="M 558.217187 138.761426 
L 568.217187 138.761426 
L 578.217187 138.761426 
" style="fill: none; stroke: #ff7f0e; stroke-width: 1.5; stroke-linecap: square"/>
    </g>
    <g id="text_16">
     <!-- output -->
     <g transform="translate(586.217187 142.261426) scale(0.1 -0.1)">
      <defs>
       <path id="DejaVuSans-52" d="M 1959 3097 
Q 1497 3097 1228 2736 
Q 959 2375 959 1747 
Q 959 1119 1226 758 
Q 1494 397 1959 397 
Q 2419 397 2687 759 
Q 2956 1122 2956 1747 
Q 2956 2369 2687 2733 
Q 2419 3097 1959 3097 
z
M 1959 3584 
Q 2709 3584 3137 3096 
Q 3566 2609 3566 1747 
Q 3566 888 3137 398 
Q 2709 -91 1959 -91 
Q 1206 -91 779 398 
Q 353 888 353 1747 
Q 353 2609 779 3096 
Q 1206 3584 1959 3584 
z
" transform="scale(0.015625)"/>
      </defs>
      <use xlink:href="#DejaVuSans-52"/>
      <use xlink:href="#DejaVuSans-58" transform="translate(61.1875 0)"/>
      <use xlink:href="#DejaVuSans-57" transform="translate(124.5625 0)"/>
      <use xlink:href="#DejaVuSans-53" transform="translate(163.765625 0)"/>
      <use xlink:href="#DejaVuSans-58" transform="translate(227.25 0)"/>
      <use xlink:href="#DejaVuSans-57" transform="translate(290.625 0)"/>
     </g>
    </g>
   </g>
  </g>
  <g id="axes_2">
   <g id="patch_8">
    <path d="M 56.602344 460.115313 
L 628.2 460.115313 
L 628.2 279.801992 
L 56.602344 279.801992 
z
" style="fill: #ffffff"/>
   </g>
   <g id="matplotlib.axis_3">
    <g id="xtick_7">
     <g id="line2d_27">
      <path d="M 56.602344 460.115313 
L 56.602344 279.801992 
" clip-path="url(#pd8a701f113)" style="fill: none; stroke: #b0b0b0; stroke-opacity: 0.25; stroke-width: 0.8; stroke-linecap: square"/>
     </g>
     <g id="line2d_28">
      <g>
       <use xlink:href="#me3e5f9ec33" x="56.602344" y="460.115313" style="stroke: #000000; stroke-width: 0.8"/>
      </g>
     </g>
     <g id="text_17">
      <!-- $\mathdefault{10^{-1}}$ -->
      <g transform="translate(44.852344 476.415313) scale(0.1 -0.1)">
       <use xlink:href="#DejaVuSans-14" transform="translate(0 0.665625)"/>
       <use xlink:href="#DejaVuSans-13" transform="translate(63.623047 0.665625)"/>
       <use xlink:href="#DejaVuSans-c9c" transform="translate(128.203125 41.965625) scale(0.7)"/>
       <use xlink:href="#DejaVuSans-14" transform="translate(186.855469 41.965625) scale(0.7)"/>
      </g>
     </g>
    </g>
    <g id="xtick_8">
     <g id="line2d_29">
      <path d="M 342.401172 460.115313 
L 342.401172 279.801992 
" clip-path="url(#pd8a701f113)" style="fill: none; stroke: #b0b0b0; stroke-opacity: 0.25; stroke-width: 0.8; stroke-linecap: square"/>
     </g>
     <g id="line2d_30">
      <g>
       <use xlink:href="#me3e5f9ec33" x="342.401172" y="460.115313" style="stroke: #000000; stroke-width: 0.8"/>
      </g>
     </g>
     <g id="text_18">
      <!-- $\mathdefault{10^{0}}$ -->
      <g transform="translate(333.601172 476.515313) scale(0.1 -0.1)">
       <use xlink:href="#DejaVuSans-14" transform="translate(0 0.746875)"/>
       <use xlink:href="#DejaVuSans-13" transform="translate(63.623047 0.746875)"/>
       <use xlink:href="#DejaVuSans-13" transform="translate(128.203125 42.046875) scale(0.7)"/>
      </g>
     </g>
    </g>
    <g id="xtick_9">
     <g id="line2d_31">
      <path d="M 628.2 460.115313 
L 628.2 279.801992 
" clip-path="url(#pd8a701f113)" style="fill: none; stroke: #b0b0b0; stroke-opacity: 0.25; stroke-width: 0.8; stroke-linecap: square"/>
     </g>
     <g id="line2d_32">
      <g>
       <use xlink:href="#me3e5f9ec33" x="628.2" y="460.115313" style="stroke: #000000; stroke-width: 0.8"/>
      </g>
     </g>
     <g id="text_19">
      <!-- $\mathdefault{10^{1}}$ -->
      <g transform="translate(619.4 476.415313) scale(0.1 -0.1)">
       <use xlink:href="#DejaVuSans-14" transform="translate(0 0.665625)"/>
       <use xlink:href="#DejaVuSans-13" transform="translate(63.623047 0.665625)"/>
       <use xlink:href="#DejaVuSans-14" transform="translate(128.203125 41.965625) scale(0.7)"/>
      </g>
     </g>
    </g>
    <g id="xtick_10">
     <g id="line2d_33">
      <defs>
       <path id="mc30dca7f1d" d="M 0 0 
L 0 2 
" style="stroke: #000000; stroke-width: 0.6"/>
      </defs>
      <g>
       <use xlink:href="#mc30dca7f1d" x="142.636364" y="460.115313" style="stroke: #000000; stroke-width: 0.6"/>
      </g>
     </g>
    </g>
    <g id="xtick_11">
     <g id="line2d_34">
      <g>
       <use xlink:href="#mc30dca7f1d" x="192.963039" y="460.115313" style="stroke: #000000; stroke-width: 0.6"/>
      </g>
     </g>
    </g>
    <g id="xtick_12">
     <g id="line2d_35">
      <g>
       <use xlink:href="#mc30dca7f1d" x="228.670384" y="460.115313" style="stroke: #000000; stroke-width: 0.6"/>
      </g>
     </g>
    </g>
    <g id="xtick_13">
     <g id="line2d_36">
      <g>
       <use xlink:href="#mc30dca7f1d" x="256.367152" y="460.115313" style="stroke: #000000; stroke-width: 0.6"/>
      </g>
     </g>
    </g>
    <g id="xtick_14">
     <g id="line2d_37">
      <g>
       <use xlink:href="#mc30dca7f1d" x="278.997059" y="460.115313" style="stroke: #000000; stroke-width: 0.6"/>
      </g>
     </g>
    </g>
    <g id="xtick_15">
     <g id="line2d_38">
      <g>
       <use xlink:href="#mc30dca7f1d" x="298.130373" y="460.115313" style="stroke: #000000; stroke-width: 0.6"/>
      </g>
     </g>
    </g>
    <g id="xtick_16">
     <g id="line2d_39">
      <g>
       <use xlink:href="#mc30dca7f1d" x="314.704404" y="460.115313" style="stroke: #000000; stroke-width: 0.6"/>
      </g>
     </g>
    </g>
    <g id="xtick_17">
     <g id="line2d_40">
      <g>
       <use xlink:href="#mc30dca7f1d" x="329.323735" y="460.115313" style="stroke: #000000; stroke-width: 0.6"/>
      </g>
     </g>
    </g>
    <g id="xtick_18">
     <g id="line2d_41">
      <g>
       <use xlink:href="#mc30dca7f1d" x="428.435192" y="460.115313" style="stroke: #000000; stroke-width: 0.6"/>
      </g>
     </g>
    </g>
    <g id="xtick_19">
     <g id="line2d_42">
      <g>
       <use xlink:href="#mc30dca7f1d" x="478.761867" y="460.115313" style="stroke: #000000; stroke-width: 0.6"/>
      </g>
     </g>
    </g>
    <g id="xtick_20">
     <g id="line2d_43">
      <g>
       <use xlink:href="#mc30dca7f1d" x="514.469212" y="460.115313" style="stroke: #000000; stroke-width: 0.6"/>
      </g>
     </g>
    </g>
    <g id="xtick_21">
     <g id="line2d_44">
      <g>
       <use xlink:href="#mc30dca7f1d" x="542.16598" y="460.115313" style="stroke: #000000; stroke-width: 0.6"/>
      </g>
     </g>
    </g>
    <g id="xtick_22">
     <g id="line2d_45">
      <g>
       <use xlink:href="#mc30dca7f1d" x="564.795887" y="460.115313" style="stroke: #000000; stroke-width: 0.6"/>
      </g>
     </g>
    </g>
    <g id="xtick_23">
     <g id="line2d_46">
      <g>
       <use xlink:href="#mc30dca7f1d" x="583.929201" y="460.115313" style="stroke: #000000; stroke-width: 0.6"/>
      </g>
     </g>
    </g>
    <g id="xtick_24">
     <g id="line2d_47">
      <g>
       <use xlink:href="#mc30dca7f1d" x="600.503232" y="460.115313" style="stroke: #000000; stroke-width: 0.6"/>
      </g>
     </g>
    </g>
    <g id="xtick_25">
     <g id="line2d_48">
      <g>
       <use xlink:href="#mc30dca7f1d" x="615.122563" y="460.115313" style="stroke: #000000; stroke-width: 0.6"/>
      </g>
     </g>
    </g>
    <g id="text_20">
     <!-- frequency [arb.] -->
     <g transform="translate(301.948828 490.516094) scale(0.1 -0.1)">
      <use xlink:href="#DejaVuSans-49"/>
      <use xlink:href="#DejaVuSans-55" transform="translate(35.203125 0)"/>
      <use xlink:href="#DejaVuSans-48" transform="translate(74.109375 0)"/>
      <use xlink:href="#DejaVuSans-54" transform="translate(135.640625 0)"/>
      <use xlink:href="#DejaVuSans-58" transform="translate(199.125 0)"/>
      <use xlink:href="#DejaVuSans-48" transform="translate(262.5 0)"/>
      <use xlink:href="#DejaVuSans-51" transform="translate(324.03125 0)"/>
      <use xlink:href="#DejaVuSans-46" transform="translate(387.40625 0)"/>
      <use xlink:href="#DejaVuSans-5c" transform="translate(442.390625 0)"/>
      <use xlink:href="#DejaVuSans-3" transform="translate(501.578125 0)"/>
      <use xlink:href="#DejaVuSans-3e" transform="translate(533.359375 0)"/>
      <use xlink:href="#DejaVuSans-44" transform="translate(572.375 0)"/>
      <use xlink:href="#DejaVuSans-55" transform="translate(633.65625 0)"/>
      <use xlink:href="#DejaVuSans-45" transform="translate(674.765625 0)"/>
      <use xlink:href="#DejaVuSans-11" transform="translate(738.25 0)"/>
      <use xlink:href="#DejaVuSans-40" transform="translate(770.03125 0)"/>
     </g>
    </g>
   </g>
   <g id="matplotlib.axis_4">
    <g id="ytick_6">
     <g id="line2d_49">
      <path d="M 56.602344 431.766722 
L 628.2 431.766722 
" clip-path="url(#pd8a701f113)" style="fill: none; stroke: #b0b0b0; stroke-opacity: 0.25; stroke-width: 0.8; stroke-linecap: square"/>
     </g>
     <g id="line2d_50">
      <g>
       <use xlink:href="#mc3830291d1" x="56.602344" y="431.766722" style="stroke: #000000; stroke-width: 0.8"/>
      </g>
     </g>
     <g id="text_21">
      <!-- $\mathdefault{10^{0}}$ -->
      <g transform="translate(32.002344 436.466722) scale(0.1 -0.1)">
       <use xlink:href="#DejaVuSans-14" transform="translate(0 0.746875)"/>
       <use xlink:href="#DejaVuSans-13" transform="translate(63.623047 0.746875)"/>
       <use xlink:href="#DejaVuSans-13" transform="translate(128.203125 42.046875) scale(0.7)"/>
      </g>
     </g>
    </g>
    <g id="ytick_7">
     <g id="line2d_51">
      <path d="M 56.602344 386.34843 
L 628.2 386.34843 
" clip-path="url(#pd8a701f113)" style="fill: none; stroke: #b0b0b0; stroke-opacity: 0.25; stroke-width: 0.8; stroke-linecap: square"/>
     </g>
     <g id="line2d_52">
      <g>
       <use xlink:href="#mc3830291d1" x="56.602344" y="386.34843" style="stroke: #000000; stroke-width: 0.8"/>
      </g>
     </g>
     <g id="text_22">
      <!-- $\mathdefault{10^{1}}$ -->
      <g transform="translate(32.002344 390.99843) scale(0.1 -0.1)">
       <use xlink:href="#DejaVuSans-14" transform="translate(0 0.665625)"/>
       <use xlink:href="#DejaVuSans-13" transform="translate(63.623047 0.665625)"/>
       <use xlink:href="#DejaVuSans-14" transform="translate(128.203125 41.965625) scale(0.7)"/>
      </g>
     </g>
    </g>
    <g id="ytick_8">
     <g id="line2d_53">
      <path d="M 56.602344 340.930138 
L 628.2 340.930138 
" clip-path="url(#pd8a701f113)" style="fill: none; stroke: #b0b0b0; stroke-opacity: 0.25; stroke-width: 0.8; stroke-linecap: square"/>
     </g>
     <g id="line2d_54">
      <g>
       <use xlink:href="#mc3830291d1" x="56.602344" y="340.930138" style="stroke: #000000; stroke-width: 0.8"/>
      </g>
     </g>
     <g id="text_23">
      <!-- $\mathdefault{10^{2}}$ -->
      <g transform="translate(32.002344 345.630138) scale(0.1 -0.1)">
       <use xlink:href="#DejaVuSans-14" transform="translate(0 0.746875)"/>
       <use xlink:href="#DejaVuSans-13" transform="translate(63.623047 0.746875)"/>
       <use xlink:href="#DejaVuSans-15" transform="translate(128.203125 42.046875) scale(0.7)"/>
      </g>
     </g>
    </g>
    <g id="ytick_9">
     <g id="line2d_55">
      <path d="M 56.602344 295.511846 
L 628.2 295.511846 
" clip-path="url(#pd8a701f113)" style="fill: none; stroke: #b0b0b0; stroke-opacity: 0.25; stroke-width: 0.8; stroke-linecap: square"/>
     </g>
     <g id="line2d_56">
      <g>
       <use xlink:href="#mc3830291d1" x="56.602344" y="295.511846" style="stroke: #000000; stroke-width: 0.8"/>
      </g>
     </g>
     <g id="text_24">
      <!-- $\mathdefault{10^{3}}$ -->
      <g transform="translate(32.002344 300.211846) scale(0.1 -0.1)">
       <use xlink:href="#DejaVuSans-14" transform="translate(0 0.746875)"/>
       <use xlink:href="#DejaVuSans-13" transform="translate(63.623047 0.746875)"/>
       <use xlink:href="#DejaVuSans-16" transform="translate(128.203125 42.046875) scale(0.7)"/>
      </g>
     </g>
    </g>
    <g id="ytick_10">
     <g id="line2d_57">
      <defs>
       <path id="m537eec836c" d="M 0 0 
L -2 0 
" style="stroke: #000000; stroke-width: 0.6"/>
      </defs>
      <g>
       <use xlink:href="#m537eec836c" x="56.602344" y="455.514982" style="stroke: #000000; stroke-width: 0.6"/>
      </g>
     </g>
    </g>
    <g id="ytick_11">
     <g id="line2d_58">
      <g>
       <use xlink:href="#m537eec836c" x="56.602344" y="449.840478" style="stroke: #000000; stroke-width: 0.6"/>
      </g>
     </g>
    </g>
    <g id="ytick_12">
     <g id="line2d_59">
      <g>
       <use xlink:href="#m537eec836c" x="56.602344" y="445.43899" style="stroke: #000000; stroke-width: 0.6"/>
      </g>
     </g>
    </g>
    <g id="ytick_13">
     <g id="line2d_60">
      <g>
       <use xlink:href="#m537eec836c" x="56.602344" y="441.842713" style="stroke: #000000; stroke-width: 0.6"/>
      </g>
     </g>
    </g>
    <g id="ytick_14">
     <g id="line2d_61">
      <g>
       <use xlink:href="#m537eec836c" x="56.602344" y="438.802105" style="stroke: #000000; stroke-width: 0.6"/>
      </g>
     </g>
    </g>
    <g id="ytick_15">
     <g id="line2d_62">
      <g>
       <use xlink:href="#m537eec836c" x="56.602344" y="436.168209" style="stroke: #000000; stroke-width: 0.6"/>
      </g>
     </g>
    </g>
    <g id="ytick_16">
     <g id="line2d_63">
      <g>
       <use xlink:href="#m537eec836c" x="56.602344" y="433.844949" style="stroke: #000000; stroke-width: 0.6"/>
      </g>
     </g>
    </g>
    <g id="ytick_17">
     <g id="line2d_64">
      <g>
       <use xlink:href="#m537eec836c" x="56.602344" y="418.094454" style="stroke: #000000; stroke-width: 0.6"/>
      </g>
     </g>
    </g>
    <g id="ytick_18">
     <g id="line2d_65">
      <g>
       <use xlink:href="#m537eec836c" x="56.602344" y="410.09669" style="stroke: #000000; stroke-width: 0.6"/>
      </g>
     </g>
    </g>
    <g id="ytick_19">
     <g id="line2d_66">
      <g>
       <use xlink:href="#m537eec836c" x="56.602344" y="404.422186" style="stroke: #000000; stroke-width: 0.6"/>
      </g>
     </g>
    </g>
    <g id="ytick_20">
     <g id="line2d_67">
      <g>
       <use xlink:href="#m537eec836c" x="56.602344" y="400.020698" style="stroke: #000000; stroke-width: 0.6"/>
      </g>
     </g>
    </g>
    <g id="ytick_21">
     <g id="line2d_68">
      <g>
       <use xlink:href="#m537eec836c" x="56.602344" y="396.424421" style="stroke: #000000; stroke-width: 0.6"/>
      </g>
     </g>
    </g>
    <g id="ytick_22">
     <g id="line2d_69">
      <g>
       <use xlink:href="#m537eec836c" x="56.602344" y="393.383812" style="stroke: #000000; stroke-width: 0.6"/>
      </g>
     </g>
    </g>
    <g id="ytick_23">
     <g id="line2d_70">
      <g>
       <use xlink:href="#m537eec836c" x="56.602344" y="390.749917" style="stroke: #000000; stroke-width: 0.6"/>
      </g>
     </g>
    </g>
    <g id="ytick_24">
     <g id="line2d_71">
      <g>
       <use xlink:href="#m537eec836c" x="56.602344" y="388.426657" style="stroke: #000000; stroke-width: 0.6"/>
      </g>
     </g>
    </g>
    <g id="ytick_25">
     <g id="line2d_72">
      <g>
       <use xlink:href="#m537eec836c" x="56.602344" y="372.676162" style="stroke: #000000; stroke-width: 0.6"/>
      </g>
     </g>
    </g>
    <g id="ytick_26">
     <g id="line2d_73">
      <g>
       <use xlink:href="#m537eec836c" x="56.602344" y="364.678397" style="stroke: #000000; stroke-width: 0.6"/>
      </g>
     </g>
    </g>
    <g id="ytick_27">
     <g id="line2d_74">
      <g>
       <use xlink:href="#m537eec836c" x="56.602344" y="359.003893" style="stroke: #000000; stroke-width: 0.6"/>
      </g>
     </g>
    </g>
    <g id="ytick_28">
     <g id="line2d_75">
      <g>
       <use xlink:href="#m537eec836c" x="56.602344" y="354.602406" style="stroke: #000000; stroke-width: 0.6"/>
      </g>
     </g>
    </g>
    <g id="ytick_29">
     <g id="line2d_76">
      <g>
       <use xlink:href="#m537eec836c" x="56.602344" y="351.006129" style="stroke: #000000; stroke-width: 0.6"/>
      </g>
     </g>
    </g>
    <g id="ytick_30">
     <g id="line2d_77">
      <g>
       <use xlink:href="#m537eec836c" x="56.602344" y="347.96552" style="stroke: #000000; stroke-width: 0.6"/>
      </g>
     </g>
    </g>
    <g id="ytick_31">
     <g id="line2d_78">
      <g>
       <use xlink:href="#m537eec836c" x="56.602344" y="345.331625" style="stroke: #000000; stroke-width: 0.6"/>
      </g>
     </g>
    </g>
    <g id="ytick_32">
     <g id="line2d_79">
      <g>
       <use xlink:href="#m537eec836c" x="56.602344" y="343.008365" style="stroke: #000000; stroke-width: 0.6"/>
      </g>
     </g>
    </g>
    <g id="ytick_33">
     <g id="line2d_80">
      <g>
       <use xlink:href="#m537eec836c" x="56.602344" y="327.25787" style="stroke: #000000; stroke-width: 0.6"/>
      </g>
     </g>
    </g>
    <g id="ytick_34">
     <g id="line2d_81">
      <g>
       <use xlink:href="#m537eec836c" x="56.602344" y="319.260105" style="stroke: #000000; stroke-width: 0.6"/>
      </g>
     </g>
    </g>
    <g id="ytick_35">
     <g id="line2d_82">
      <g>
       <use xlink:href="#m537eec836c" x="56.602344" y="313.585601" style="stroke: #000000; stroke-width: 0.6"/>
      </g>
     </g>
    </g>
    <g id="ytick_36">
     <g id="line2d_83">
      <g>
       <use xlink:href="#m537eec836c" x="56.602344" y="309.184114" style="stroke: #000000; stroke-width: 0.6"/>
      </g>
     </g>
    </g>
    <g id="ytick_37">
     <g id="line2d_84">
      <g>
       <use xlink:href="#m537eec836c" x="56.602344" y="305.587837" style="stroke: #000000; stroke-width: 0.6"/>
      </g>
     </g>
    </g>
    <g id="ytick_38">
     <g id="line2d_85">
      <g>
       <use xlink:href="#m537eec836c" x="56.602344" y="302.547228" style="stroke: #000000; stroke-width: 0.6"/>
      </g>
     </g>
    </g>
    <g id="ytick_39">
     <g id="line2d_86">
      <g>
       <use xlink:href="#m537eec836c" x="56.602344" y="299.913333" style="stroke: #000000; stroke-width: 0.6"/>
      </g>
     </g>
    </g>
    <g id="ytick_40">
     <g id="line2d_87">
      <g>
       <use xlink:href="#m537eec836c" x="56.602344" y="297.590073" style="stroke: #000000; stroke-width: 0.6"/>
      </g>
     </g>
    </g>
    <g id="ytick_41">
     <g id="line2d_88">
      <g>
       <use xlink:href="#m537eec836c" x="56.602344" y="281.839577" style="stroke: #000000; stroke-width: 0.6"/>
      </g>
     </g>
    </g>
    <g id="text_25">
     <!-- |FFT(.)| -->
     <g transform="translate(25.6 387.535996) rotate(-90) scale(0.1 -0.1)">
      <defs>
       <path id="DejaVuSans-37" d="M -19 4666 
L 3928 4666 
L 3928 4134 
L 2272 4134 
L 2272 0 
L 1638 0 
L 1638 4134 
L -19 4134 
L -19 4666 
z
" transform="scale(0.015625)"/>
      </defs>
      <use xlink:href="#DejaVuSans-5f"/>
      <use xlink:href="#DejaVuSans-29" transform="translate(33.6875 0)"/>
      <use xlink:href="#DejaVuSans-29" transform="translate(91.203125 0)"/>
      <use xlink:href="#DejaVuSans-37" transform="translate(146.96875 0)"/>
      <use xlink:href="#DejaVuSans-b" transform="translate(208.046875 0)"/>
      <use xlink:href="#DejaVuSans-11" transform="translate(247.0625 0)"/>
      <use xlink:href="#DejaVuSans-c" transform="translate(278.84375 0)"/>
      <use xlink:href="#DejaVuSans-5f" transform="translate(317.859375 0)"/>
     </g>
    </g>
   </g>
   <g id="line2d_89">
    <path d="M 56.602344 359.77183 
L 142.636364 407.358749 
L 192.963039 413.775238 
L 228.670384 389.09105 
L 256.367152 374.182124 
L 278.997059 341.697409 
L 298.130373 294.607452 
L 314.704404 287.998052 
L 329.323735 309.696893 
L 342.401172 359.965832 
L 354.231153 386.232318 
L 365.031079 393.52133 
L 374.966048 423.265179 
L 384.164393 410.288476 
L 392.727847 446.958734 
L 400.738424 422.123673 
L 408.263204 427.342296 
L 415.357755 410.518187 
L 422.068624 417.550205 
L 428.435192 401.377436 
L 434.491069 382.721656 
L 440.265173 331.180566 
L 445.782564 309.64718 
L 451.065099 316.352358 
L 456.13196 364.105742 
L 461.000068 393.492741 
L 465.68443 420.606801 
L 470.198413 406.438978 
L 474.553978 432.460991 
L 478.761867 418.267601 
L 482.831768 437.21346 
L 486.772444 425.448372 
L 490.591848 419.769661 
L 494.297224 413.639173 
L 497.895181 408.793348 
L 501.391775 408.133898 
L 504.792559 372.712745 
L 508.102644 326.276919 
L 511.326744 319.766696 
L 514.469212 341.626154 
L 517.53408 390.307042 
L 520.525089 426.891779 
L 523.445714 406.388757 
L 526.299193 420.921456 
L 529.088543 419.719652 
L 531.816584 431.142187 
L 534.485952 425.865921 
L 537.099119 425.245551 
L 539.658403 414.630396 
L 542.16598 413.92397 
L 544.623899 413.430475 
L 547.034088 400.258324 
L 549.398367 347.712987 
L 551.71845 326.337926 
L 553.995961 333.142451 
L 556.232433 381.517503 
L 558.42932 407.66758 
L 560.587998 421.765088 
L 562.709773 409.157249 
L 564.795887 426.926427 
L 566.847518 420.506347 
L 568.865788 436.524301 
L 570.851764 423.936207 
L 572.806464 421.3028 
L 574.730857 412.997879 
L 576.625868 412.397141 
L 578.492382 420.934466 
L 580.331244 383.550464 
L 582.143259 337.796523 
L 583.929201 331.382531 
L 585.68981 353.407423 
L 587.425795 400.397822 
L 589.137834 449.574579 
L 590.826579 408.059907 
L 592.492655 419.171673 
L 594.136664 421.160038 
L 595.759182 429.838215 
L 597.360764 426.419961 
L 598.941943 424.365554 
L 600.503232 415.69131 
L 602.045126 413.025678 
L 603.5681 418.544469 
L 605.072614 409.496603 
L 606.559109 356.44677 
L 608.028012 335.232079 
L 609.479734 342.134658 
L 610.914673 391.10884 
L 612.333213 414.173659 
L 613.735723 419.884316 
L 615.122563 409.808797 
L 616.494078 425.601615 
L 617.850603 421.254643 
L 619.192464 436.379266 
L 620.519972 423.31796 
L 621.833432 421.965634 
L 623.133139 412.738187 
L 624.419377 414.017583 
L 625.692423 428.165861 
L 626.952544 390.050079 
L 628.2 344.975553 
L 629.435044 338.658103 
" clip-path="url(#pd8a701f113)" style="fill: none; stroke: #1f77b4; stroke-opacity: 0.6; stroke-width: 1.5; stroke-linecap: square"/>
   </g>
   <g id="line2d_90">
    <path d="M 56.602344 361.70476 
L 142.636364 400.811791 
L 192.963039 409.071989 
L 228.670384 388.706516 
L 256.367152 374.110446 
L 278.997059 341.712538 
L 298.130373 294.629513 
L 314.704404 288.01924 
L 329.323735 309.718594 
L 342.401172 359.996783 
L 354.231153 386.278539 
L 365.031079 393.489685 
L 374.966048 423.631918 
L 384.164393 410.324982 
L 392.727847 446.501116 
L 400.738424 422.014594 
L 408.263204 427.435846 
L 415.357755 410.497533 
L 422.068624 417.596059 
L 428.435192 401.364034 
L 434.491069 382.721269 
L 440.265173 331.187106 
L 445.782564 309.653907 
L 451.065099 316.358939 
L 456.13196 364.112217 
L 461.000068 393.503489 
L 465.68443 420.664385 
L 470.198413 406.441648 
L 474.553978 432.475482 
L 478.761867 418.282152 
L 482.831768 437.216893 
L 486.772444 425.445152 
L 490.591848 419.780639 
L 494.297224 413.650984 
L 497.895181 408.794506 
L 501.391775 408.138015 
L 504.792559 372.71892 
L 508.102644 326.282398 
L 511.326744 319.772183 
L 514.469212 341.631562 
L 517.53408 390.31363 
L 520.525089 426.906214 
L 523.445714 406.390629 
L 526.299193 420.93323 
L 529.088543 419.725078 
L 531.816584 431.147258 
L 534.485952 425.866451 
L 537.099119 425.253418 
L 539.658403 414.634199 
L 542.16598 413.932143 
L 544.623899 413.43271 
L 547.034088 400.261653 
L 549.398367 347.718155 
L 551.71845 326.343091 
L 553.995961 333.147589 
L 556.232433 381.522371 
L 558.42932 407.673669 
L 560.587998 421.774542 
L 562.709773 409.161837 
L 564.795887 426.93261 
L 566.847518 420.512525 
L 568.865788 436.527208 
L 570.851764 423.940072 
L 572.806464 421.309015 
L 574.730857 413.003781 
L 576.625868 412.401032 
L 578.492382 420.938171 
L 580.331244 383.555812 
L 582.143259 337.801545 
L 583.929201 331.387554 
L 585.68981 353.412404 
L 587.425795 400.403408 
L 589.137834 449.593501 
L 590.826579 408.064123 
L 592.492655 419.177943 
L 594.136664 421.165067 
L 595.759182 429.84314 
L 597.360764 426.423842 
L 598.941943 424.371123 
L 600.503232 415.696032 
L 602.045126 413.031331 
L 603.5681 418.54824 
L 605.072614 409.500518 
L 606.559109 356.451739 
L 608.028012 335.237036 
L 609.479734 342.139603 
L 610.914673 391.113564 
L 612.333213 414.178982 
L 613.735723 419.890106 
L 615.122563 409.813589 
L 616.494078 425.607008 
L 617.850603 421.259895 
L 619.192464 436.383116 
L 620.519972 423.322524 
L 621.833432 421.971053 
L 623.133139 412.743379 
L 624.419377 414.022026 
L 625.692423 428.169679 
L 626.952544 390.055195 
L 628.2 344.980468 
L 629.435044 338.663018 
" clip-path="url(#pd8a701f113)" style="fill: none; stroke: #ff7f0e; stroke-width: 1.5; stroke-linecap: square"/>
   </g>
   <g id="patch_9">
    <path d="M 56.602344 460.115313 
L 56.602344 279.801992 
" style="fill: none; stroke: #000000; stroke-width: 0.8; stroke-linejoin: miter; stroke-linecap: square"/>
   </g>
   <g id="patch_10">
    <path d="M 628.2 460.115313 
L 628.2 279.801992 
" style="fill: none; stroke: #000000; stroke-width: 0.8; stroke-linejoin: miter; stroke-linecap: square"/>
   </g>
   <g id="patch_11">
    <path d="M 56.602344 460.115313 
L 628.2 460.115313 
" style="fill: none; stroke: #000000; stroke-width: 0.8; stroke-linejoin: miter; stroke-linecap: square"/>
   </g>
   <g id="patch_12">
    <path d="M 56.602344 279.801992 
L 628.2 279.801992 
" style="fill: none; stroke: #000000; stroke-width: 0.8; stroke-linejoin: miter; stroke-linecap: square"/>
   </g>
   <g id="text_26">
    <!-- Output FFT peak ≈ 0.800 (arb.), magnitude ≈ 1.462e+03 | band/flat-ish -->
    <g transform="translate(126.001797 273.801992) scale(0.12 -0.12)">
     <defs>
      <path id="DejaVuSans-32" d="M 2522 4238 
Q 1834 4238 1429 3725 
Q 1025 3213 1025 2328 
Q 1025 1447 1429 934 
Q 1834 422 2522 422 
Q 3209 422 3611 934 
Q 4013 1447 4013 2328 
Q 4013 3213 3611 3725 
Q 3209 4238 2522 4238 
z
M 2522 4750 
Q 3503 4750 4090 4092 
Q 4678 3434 4678 2328 
Q 4678 1225 4090 567 
Q 3503 -91 2522 -91 
Q 1538 -91 948 565 
Q 359 1222 359 2328 
Q 359 3434 948 4092 
Q 1538 4750 2522 4750 
z
" transform="scale(0.015625)"/>
      <path id="DejaVuSans-4e" d="M 581 4863 
L 1159 4863 
L 1159 1991 
L 2875 3500 
L 3609 3500 
L 1753 1863 
L 3688 0 
L 2938 0 
L 1159 1709 
L 1159 0 
L 581 0 
L 581 4863 
z
" transform="scale(0.015625)"/>
      <path id="DejaVuSans-cd2" d="M 4684 1947 
L 4684 1388 
Q 4356 1144 4076 1036 
Q 3797 928 3494 928 
Q 3150 928 2694 1113 
Q 2663 1125 2641 1134 
Q 2622 1141 2575 1159 
Q 2091 1350 1797 1350 
Q 1522 1350 1253 1231 
Q 984 1113 678 850 
L 678 1409 
Q 1006 1653 1286 1761 
Q 1566 1869 1869 1869 
Q 2213 1869 2672 1684 
Q 2706 1669 2722 1663 
Q 2741 1656 2788 1638 
Q 3272 1447 3566 1447 
Q 3834 1447 4098 1564 
Q 4363 1681 4684 1947 
z
M 4684 3163 
L 4684 2606 
Q 4356 2359 4076 2251 
Q 3797 2144 3494 2144 
Q 3150 2144 2694 2328 
Q 2663 2341 2641 2350 
Q 2622 2356 2575 2375 
Q 2091 2566 1797 2566 
Q 1522 2566 1253 2447 
Q 984 2328 678 2069 
L 678 2625 
Q 1006 2869 1286 2976 
Q 1566 3084 1869 3084 
Q 2213 3084 2672 2900 
Q 2703 2888 2719 2881 
Q 2741 2872 2788 2853 
Q 3272 2663 3566 2663 
Q 3834 2663 4098 2780 
Q 4363 2897 4684 3163 
z
" transform="scale(0.015625)"/>
      <path id="DejaVuSans-50" d="M 3328 2828 
Q 3544 3216 3844 3400 
Q 4144 3584 4550 3584 
Q 5097 3584 5394 3201 
Q 5691 2819 5691 2113 
L 5691 0 
L 5113 0 
L 5113 2094 
Q 5113 2597 4934 2840 
Q 4756 3084 4391 3084 
Q 3944 3084 3684 2787 
Q 3425 2491 3425 1978 
L 3425 0 
L 2847 0 
L 2847 2094 
Q 2847 2600 2669 2842 
Q 2491 3084 2119 3084 
Q 1678 3084 1418 2786 
Q 1159 2488 1159 1978 
L 1159 0 
L 581 0 
L 581 3500 
L 1159 3500 
L 1159 2956 
Q 1356 3278 1631 3431 
Q 1906 3584 2284 3584 
Q 2666 3584 2933 3390 
Q 3200 3197 3328 2828 
z
" transform="scale(0.015625)"/>
      <path id="DejaVuSans-e" d="M 2944 4013 
L 2944 2272 
L 4684 2272 
L 4684 1741 
L 2944 1741 
L 2944 0 
L 2419 0 
L 2419 1741 
L 678 1741 
L 678 2272 
L 2419 2272 
L 2419 4013 
L 2944 4013 
z
" transform="scale(0.015625)"/>
      <path id="DejaVuSans-12" d="M 1625 4666 
L 2156 4666 
L 531 -594 
L 0 -594 
L 1625 4666 
z
" transform="scale(0.015625)"/>
      <path id="DejaVuSans-13b0" d="M 1831 4863 
L 3431 4863 
L 3431 0 
L 2853 0 
L 2853 4384 
L 1825 4384 
Q 1516 4384 1395 4259 
Q 1275 4134 1275 3809 
L 1275 3500 
L 2222 3500 
L 2222 3053 
L 1275 3053 
L 1275 0 
L 697 0 
L 697 3053 
L 147 3053 
L 147 3500 
L 697 3500 
L 697 3744 
Q 697 4328 969 4595 
Q 1241 4863 1831 4863 
z
" transform="scale(0.015625)"/>
     </defs>
     <use xlink:href="#DejaVuSans-32"/>
     <use xlink:href="#DejaVuSans-58" transform="translate(78.71875 0)"/>
     <use xlink:href="#DejaVuSans-57" transform="translate(142.09375 0)"/>
     <use xlink:href="#DejaVuSans-53" transform="translate(181.296875 0)"/>
     <use xlink:href="#DejaVuSans-58" transform="translate(244.78125 0)"/>
     <use xlink:href="#DejaVuSans-57" transform="translate(308.15625 0)"/>
     <use xlink:href="#DejaVuSans-3" transform="translate(347.359375 0)"/>
     <use xlink:href="#DejaVuSans-29" transform="translate(379.140625 0)"/>
     <use xlink:href="#DejaVuSans-29" transform="translate(436.65625 0)"/>
     <use xlink:href="#DejaVuSans-37" transform="translate(492.421875 0)"/>
     <use xlink:href="#DejaVuSans-3" transform="translate(553.5 0)"/>
     <use xlink:href="#DejaVuSans-53" transform="translate(585.28125 0)"/>
     <use xlink:href="#DejaVuSans-48" transform="translate(648.765625 0)"/>
     <use xlink:href="#DejaVuSans-44" transform="translate(710.296875 0)"/>
     <use xlink:href="#DejaVuSans-4e" transform="translate(771.578125 0)"/>
     <use xlink:href="#DejaVuSans-3" transform="translate(829.484375 0)"/>
     <use xlink:href="#DejaVuSans-cd2" transform="translate(861.265625 0)"/>
     <use xlink:href="#DejaVuSans-3" transform="translate(945.0625 0)"/>
     <use xlink:href="#DejaVuSans-13" transform="translate(976.84375 0)"/>
     <use xlink:href="#DejaVuSans-11" transform="translate(1040.46875 0)"/>
     <use xlink:href="#DejaVuSans-1b" transform="translate(1072.25 0)"/>
     <use xlink:href="#DejaVuSans-13" transform="translate(1135.875 0)"/>
     <use xlink:href="#DejaVuSans-13" transform="translate(1199.5 0)"/>
     <use xlink:href="#DejaVuSans-3" transform="translate(1263.125 0)"/>
     <use xlink:href="#DejaVuSans-b" transform="translate(1294.90625 0)"/>
     <use xlink:href="#DejaVuSans-44" transform="translate(1333.921875 0)"/>
     <use xlink:href="#DejaVuSans-55" transform="translate(1395.203125 0)"/>
     <use xlink:href="#DejaVuSans-45" transform="translate(1436.3125 0)"/>
     <use xlink:href="#DejaVuSans-11" transform="translate(1499.796875 0)"/>
     <use xlink:href="#DejaVuSans-c" transform="translate(1531.578125 0)"/>
     <use xlink:href="#DejaVuSans-f" transform="translate(1570.59375 0)"/>
     <use xlink:href="#DejaVuSans-3" transform="translate(1602.375 0)"/>
     <use xlink:href="#DejaVuSans-50" transform="translate(1634.15625 0)"/>
     <use xlink:href="#DejaVuSans-44" transform="translate(1731.5625 0)"/>
     <use xlink:href="#DejaVuSans-4a" transform="translate(1792.84375 0)"/>
     <use xlink:href="#DejaVuSans-51" transform="translate(1856.328125 0)"/>
     <use xlink:href="#DejaVuSans-4c" transform="translate(1919.703125 0)"/>
     <use xlink:href="#DejaVuSans-57" transform="translate(1947.484375 0)"/>
     <use xlink:href="#DejaVuSans-58" transform="translate(1986.6875 0)"/>
     <use xlink:href="#DejaVuSans-47" transform="translate(2050.0625 0)"/>
     <use xlink:href="#DejaVuSans-48" transform="translate(2113.546875 0)"/>
     <use xlink:href="#DejaVuSans-3" transform="translate(2175.078125 0)"/>
     <use xlink:href="#DejaVuSans-cd2" transform="translate(2206.859375 0)"/>
     <use xlink:href="#DejaVuSans-3" transform="translate(2290.65625 0)"/>
     <use xlink:href="#DejaVuSans-14" transform="translate(2322.4375 0)"/>
     <use xlink:href="#DejaVuSans-11" transform="translate(2386.0625 0)"/>
     <use xlink:href="#DejaVuSans-17" transform="translate(2417.84375 0)"/>
     <use xlink:href="#DejaVuSans-19" transform="translate(2481.46875 0)"/>
     <use xlink:href="#DejaVuSans-15" transform="translate(2545.09375 0)"/>
     <use xlink:href="#DejaVuSans-48" transform="translate(2608.71875 0)"/>
     <use xlink:href="#DejaVuSans-e" transform="translate(2670.25 0)"/>
     <use xlink:href="#DejaVuSans-13" transform="translate(2754.046875 0)"/>
     <use xlink:href="#DejaVuSans-16" transform="translate(2817.671875 0)"/>
     <use xlink:href="#DejaVuSans-3" transform="translate(2881.296875 0)"/>
     <use xlink:href="#DejaVuSans-5f" transform="translate(2913.078125 0)"/>
     <use xlink:href="#DejaVuSans-3" transform="translate(2946.765625 0)"/>
     <use xlink:href="#DejaVuSans-45" transform="translate(2978.546875 0)"/>
     <use xlink:href="#DejaVuSans-44" transform="translate(3042.03125 0)"/>
     <use xlink:href="#DejaVuSans-51" transform="translate(3103.3125 0)"/>
     <use xlink:href="#DejaVuSans-47" transform="translate(3166.6875 0)"/>
     <use xlink:href="#DejaVuSans-12" transform="translate(3230.171875 0)"/>
     <use xlink:href="#DejaVuSans-13b0" transform="translate(3263.859375 0)"/>
     <use xlink:href="#DejaVuSans-44" transform="translate(3326.84375 0)"/>
     <use xlink:href="#DejaVuSans-57" transform="translate(3388.125 0)"/>
     <use xlink:href="#DejaVuSans-10" transform="translate(3427.328125 0)"/>
     <use xlink:href="#DejaVuSans-4c" transform="translate(3463.40625 0)"/>
     <use xlink:href="#DejaVuSans-56" transform="translate(3491.1875 0)"/>
     <use xlink:href="#DejaVuSans-4b" transform="translate(3543.28125 0)"/>
    </g>
   </g>
   <g id="legend_2">
    <g id="patch_13">
     <path d="M 535.603125 317.803555 
L 621.2 317.803555 
Q 623.2 317.803555 623.2 315.803555 
L 623.2 286.801992 
Q 623.2 284.801992 621.2 284.801992 
L 535.603125 284.801992 
Q 533.603125 284.801992 533.603125 286.801992 
L 533.603125 315.803555 
Q 533.603125 317.803555 535.603125 317.803555 
z
" style="fill: #ffffff; opacity: 0.8; stroke: #cccccc; stroke-linejoin: miter"/>
    </g>
    <g id="line2d_91">
     <path d="M 537.603125 292.90043 
L 547.603125 292.90043 
L 557.603125 292.90043 
" style="fill: none; stroke: #1f77b4; stroke-opacity: 0.6; stroke-width: 1.5; stroke-linecap: square"/>
    </g>
    <g id="text_27">
     <!-- input FFT -->
     <g transform="translate(565.603125 296.40043) scale(0.1 -0.1)">
      <use xlink:href="#DejaVuSans-4c"/>
      <use xlink:href="#DejaVuSans-51" transform="translate(27.78125 0)"/>
      <use xlink:href="#DejaVuSans-53" transform="translate(91.15625 0)"/>
      <use xlink:href="#DejaVuSans-58" transform="translate(154.640625 0)"/>
      <use xlink:href="#DejaVuSans-57" transform="translate(218.015625 0)"/>
      <use xlink:href="#DejaVuSans-3" transform="translate(257.21875 0)"/>
      <use xlink:href="#DejaVuSans-29" transform="translate(289 0)"/>
      <use xlink:href="#DejaVuSans-29" transform="translate(346.515625 0)"/>
      <use xlink:href="#DejaVuSans-37" transform="translate(402.28125 0)"/>
     </g>
    </g>
    <g id="line2d_92">
     <path d="M 537.603125 307.901211 
L 547.603125 307.901211 
L 557.603125 307.901211 
" style="fill: none; stroke: #ff7f0e; stroke-width: 1.5; stroke-linecap: square"/>
    </g>
    <g id="text_28">
     <!-- output FFT -->
     <g transform="translate(565.603125 311.401211) scale(0.1 -0.1)">
      <use xlink:href="#DejaVuSans-52"/>
      <use xlink:href="#DejaVuSans-58" transform="translate(61.1875 0)"/>
      <use xlink:href="#DejaVuSans-57" transform="translate(124.5625 0)"/>
      <use xlink:href="#DejaVuSans-53" transform="translate(163.765625 0)"/>
      <use xlink:href="#DejaVuSans-58" transform="translate(227.25 0)"/>
      <use xlink:href="#DejaVuSans-57" transform="translate(290.625 0)"/>
      <use xlink:href="#DejaVuSans-3" transform="translate(329.828125 0)"/>
      <use xlink:href="#DejaVuSans-29" transform="translate(361.609375 0)"/>
      <use xlink:href="#DejaVuSans-29" transform="translate(419.125 0)"/>
      <use xlink:href="#DejaVuSans-37" transform="translate(474.890625 0)"/>
     </g>
    </g>
   </g>
  </g>
 </g>
 <defs>
  <clipPath id="p0dc1841738">
   <rect x="56.602344" y="42.006328" width="571.597656" height="180.31332"/>
  </clipPath>
  <clipPath id="pd8a701f113">
   <rect x="56.602344" y="279.801992" width="571.597656" height="180.31332"/>
  </clipPath>
 </defs>
</svg>
