<?xml version="1.0" encoding="utf-8" standalone="no"?>
<!DOCTYPE svg PUBLIC "-//W3C//DTD SVG 1.1//EN"
  "http://www.w3.org/Graphics/SVG/1.1/DTD/svg11.dtd">
<svg xmlns:xlink="http://www.w3.org/1999/xlink" width="648pt" height="504pt" viewBox="0 0 648 504" xmlns="http://www.w3.org/2000/svg" version="1.1">
 <metadata>
  <rdf:RDF xmlns:dc="http://purl.org/dc/elements/1.1/" xmlns:cc="http://creativecommons.org/ns#" xmlns:rdf="http://www.w3.org/1999/02/22-rdf-syntax-ns#">
   <cc:Work>
    <dc:type rdf:resource="http://purl.org/dc/dcmitype/StillImage"/>
    <dc:date>2026-10-02T05:15:34.401561</dc:date>
    <dc:format>image/svg+xml</dc:format>
    <dc:creator>
     <cc:Agent>
      <dc:title>Matplotlib v3.11.2, https://matplotlib.org/</dc:title>
     </cc:Agent>
    </dc:creator>
   </cc:Work>
  </rdf:RDF>
 </metadata>
 <defs>
  <style type="text/css">*{stroke-linejoin: round; stroke-linecap: butt}</style>
 </defs>
 <g id="figure_1">
  <g id="patch_1">
   <path d="M 0 504 
L 648 504 
L 648 0 
L 0 0 
z
" style="fill: #ffffff"/>
  </g>
  <g id="axes_1">
   <g id="patch_2">
    <path d="M 60.202344 222.319648 
L 628.2 222.319648 
L 628.2 42.006328 
L 60.202344 42.006328 
z
" style="fill: #ffffff"/>
   </g>
   <g id="matplotlib.axis_1">
    <g id="xtick_1">
     <g id="line2d_1">
      <path d="M 86.020419 222.319648 
L 86.020419 42.006328 
" clip-path="url(#p0cb7bb53e1)" style="fill: none; stroke: #b0b0b0; stroke-opacity: 0.25; stroke-width: 0.8; stroke-linecap: square"/>
     </g>
     <g id="line2d_2">
      <defs>
       <path id="m5e7af1af4c" d="M 0 0 
L 0 3.5 
" style="stroke: #000000; stroke-width: 0.8"/>
      </defs>
      <g>
       <use xlink:href="#m5e7af1af4c" x="86.020419" y="222.319648" style="stroke: #000000; stroke-width: 0.8"/>
      </g>
     </g>
     <g id="text_1">
      <!-- 0 -->
      <g transform="translate(82.839169 236.917305) scale(0.1 -0.1)">
       <defs>
        <path id="DejaVuSans-13" d="M 2034 4250 
Q 1547 4250 1301 3770 
Q 1056 3291 1056 2328 
Q 1056 1369 1301 889 
Q 1547 409 2034 409 
Q 2525 409 2770 889 
Q 3016 1369 3016 2328 
Q 3016 3291 2770 3770 
Q 2525 4250 2034 4250 
z
M 2034 4750 
Q 2819 4750 3233 4129 
Q 3647 3509 3647 2328 
Q 3647 1150 3233 529 
Q 2819 -91 2034 -91 
Q 1250 -91 836 529 
Q 422 1150 422 2328 
Q 422 3509 836 4129 
Q 1250 4750 2034 4750 
z
" transform="scale(0.015625)"/>
       </defs>
       <use xlink:href="#DejaVuSans-13"/>
      </g>
     </g>
    </g>
    <g id="xtick_2">
     <g id="line2d_3">
      <path d="M 189.317939 222.319648 
L 189.317939 42.006328 
" clip-path="url(#p0cb7bb53e1)" style="fill: none; stroke: #b0b0b0; stroke-opacity: 0.25; stroke-width: 0.8; stroke-linecap: square"/>
     </g>
     <g id="line2d_4">
      <g>
       <use xlink:href="#m5e7af1af4c" x="189.317939" y="222.319648" style="stroke: #000000; stroke-width: 0.8"/>
      </g>
     </g>
     <g id="text_2">
      <!-- 2 -->
      <g transform="translate(186.136689 236.917305) scale(0.1 -0.1)">
       <defs>
        <path id="DejaVuSans-15" d="M 1228 531 
L 3431 531 
L 3431 0 
L 469 0 
L 469 531 
Q 828 903 1448 1529 
Q 2069 2156 2228 2338 
Q 2531 2678 2651 2914 
Q 2772 3150 2772 3378 
Q 2772 3750 2511 3984 
Q 2250 4219 1831 4219 
Q 1534 4219 1204 4116 
Q 875 4013 500 3803 
L 500 4441 
Q 881 4594 1212 4672 
Q 1544 4750 1819 4750 
Q 2544 4750 2975 4387 
Q 3406 4025 3406 3419 
Q 3406 3131 3298 2873 
Q 3191 2616 2906 2266 
Q 2828 2175 2409 1742 
Q 1991 1309 1228 531 
z
" transform="scale(0.015625)"/>
       </defs>
       <use xlink:href="#DejaVuSans-15"/>
      </g>
     </g>
    </g>
    <g id="xtick_3">
     <g id="line2d_5">
      <path d="M 292.61546 222.319648 
L 292.61546 42.006328 
" clip-path="url(#p0cb7bb53e1)" style="fill: none; stroke: #b0b0b0; stroke-opacity: 0.25; stroke-width: 0.8; stroke-linecap: square"/>
     </g>
     <g id="line2d_6">
      <g>
       <use xlink:href="#m5e7af1af4c" x="292.61546" y="222.319648" style="stroke: #000000; stroke-width: 0.8"/>
      </g>
     </g>
     <g id="text_3">
      <!-- 4 -->
      <g transform="translate(289.43421 236.917305) scale(0.1 -0.1)">
       <defs>
        <path id="DejaVuSans-17" d="M 2419 4116 
L 825 1625 
L 2419 1625 
L 2419 4116 
z
M 2253 4666 
L 3047 4666 
L 3047 1625 
L 3713 1625 
L 3713 1100 
L 3047 1100 
L 3047 0 
L 2419 0 
L 2419 1100 
L 313 1100 
L 313 1709 
L 2253 4666 
z
" transform="scale(0.015625)"/>
       </defs>
       <use xlink:href="#DejaVuSans-17"/>
      </g>
     </g>
    </g>
    <g id="xtick_4">
     <g id="line2d_7">
      <path d="M 395.91298 222.319648 
L 395.91298 42.006328 
" clip-path="url(#p0cb7bb53e1)" style="fill: none; stroke: #b0b0b0; stroke-opacity: 0.25; stroke-width: 0.8; stroke-linecap: square"/>
     </g>
     <g id="line2d_8">
      <g>
       <use xlink:href="#m5e7af1af4c" x="395.91298" y="222.319648" style="stroke: #000000; stroke-width: 0.8"/>
      </g>
     </g>
     <g id="text_4">
      <!-- 6 -->
      <g transform="translate(392.73173 236.917305) scale(0.1 -0.1)">
       <defs>
        <path id="DejaVuSans-19" d="M 2113 2584 
Q 1688 2584 1439 2293 
Q 1191 2003 1191 1497 
Q 1191 994 1439 701 
Q 1688 409 2113 409 
Q 2538 409 2786 701 
Q 3034 994 3034 1497 
Q 3034 2003 2786 2293 
Q 2538 2584 2113 2584 
z
M 3366 4563 
L 3366 3988 
Q 3128 4100 2886 4159 
Q 2644 4219 2406 4219 
Q 1781 4219 1451 3797 
Q 1122 3375 1075 2522 
Q 1259 2794 1537 2939 
Q 1816 3084 2150 3084 
Q 2853 3084 3261 2657 
Q 3669 2231 3669 1497 
Q 3669 778 3244 343 
Q 2819 -91 2113 -91 
Q 1303 -91 875 529 
Q 447 1150 447 2328 
Q 447 3434 972 4092 
Q 1497 4750 2381 4750 
Q 2619 4750 2861 4703 
Q 3103 4656 3366 4563 
z
" transform="scale(0.015625)"/>
       </defs>
       <use xlink:href="#DejaVuSans-19"/>
      </g>
     </g>
    </g>
    <g id="xtick_5">
     <g id="line2d_9">
      <path d="M 499.2105 222.319648 
L 499.2105 42.006328 
" clip-path="url(#p0cb7bb53e1)" style="fill: none; stroke: #b0b0b0; stroke-opacity: 0.25; stroke-width: 0.8; stroke-linecap: square"/>
     </g>
     <g id="line2d_10">
      <g>
       <use xlink:href="#m5e7af1af4c" x="499.2105" y="222.319648" style="stroke: #000000; stroke-width: 0.8"/>
      </g>
     </g>
     <g id="text_5">
      <!-- 8 -->
      <g transform="translate(496.02925 236.917305) scale(0.1 -0.1)">
       <defs>
        <path id="DejaVuSans-1b" d="M 2034 2216 
Q 1584 2216 1326 1975 
Q 1069 1734 1069 1313 
Q 1069 891 1326 650 
Q 1584 409 2034 409 
Q 2484 409 2743 651 
Q 3003 894 3003 1313 
Q 3003 1734 2745 1975 
Q 2488 2216 2034 2216 
z
M 1403 2484 
Q 997 2584 770 2862 
Q 544 3141 544 3541 
Q 544 4100 942 4425 
Q 1341 4750 2034 4750 
Q 2731 4750 3128 4425 
Q 3525 4100 3525 3541 
Q 3525 3141 3298 2862 
Q 3072 2584 2669 2484 
Q 3125 2378 3379 2068 
Q 3634 1759 3634 1313 
Q 3634 634 3220 271 
Q 2806 -91 2034 -91 
Q 1263 -91 848 271 
Q 434 634 434 1313 
Q 434 1759 690 2068 
Q 947 2378 1403 2484 
z
M 1172 3481 
Q 1172 3119 1398 2916 
Q 1625 2713 2034 2713 
Q 2441 2713 2670 2916 
Q 2900 3119 2900 3481 
Q 2900 3844 2670 4047 
Q 2441 4250 2034 4250 
Q 1625 4250 1398 4047 
Q 1172 3844 1172 3481 
z
" transform="scale(0.015625)"/>
       </defs>
       <use xlink:href="#DejaVuSans-1b"/>
      </g>
     </g>
    </g>
    <g id="xtick_6">
     <g id="line2d_11">
      <path d="M 602.50802 222.319648 
L 602.50802 42.006328 
" clip-path="url(#p0cb7bb53e1)" style="fill: none; stroke: #b0b0b0; stroke-opacity: 0.25; stroke-width: 0.8; stroke-linecap: square"/>
     </g>
     <g id="line2d_12">
      <g>
       <use xlink:href="#m5e7af1af4c" x="602.50802" y="222.319648" style="stroke: #000000; stroke-width: 0.8"/>
      </g>
     </g>
     <g id="text_6">
      <!-- 10 -->
      <g transform="translate(596.14552 236.917305) scale(0.1 -0.1)">
       <defs>
        <path id="DejaVuSans-14" d="M 794 531 
L 1825 531 
L 1825 4091 
L 703 3866 
L 703 4441 
L 1819 4666 
L 2450 4666 
L 2450 531 
L 3481 531 
L 3481 0 
L 794 0 
L 794 531 
z
" transform="scale(0.015625)"/>
       </defs>
       <use xlink:href="#DejaVuSans-14"/>
       <use xlink:href="#DejaVuSans-13" transform="translate(63.625 0)"/>
      </g>
     </g>
    </g>
    <g id="text_7">
     <!-- t [arb.] -->
     <g transform="translate(326.867578 250.918086) scale(0.1 -0.1)">
      <defs>
       <path id="DejaVuSans-57" d="M 1172 4494 
L 1172 3500 
L 2356 3500 
L 2356 3053 
L 1172 3053 
L 1172 1153 
Q 1172 725 1289 603 
Q 1406 481 1766 481 
L 2356 481 
L 2356 0 
L 1766 0 
Q 1100 0 847 248 
Q 594 497 594 1153 
L 594 3053 
L 172 3053 
L 172 3500 
L 594 3500 
L 594 4494 
L 1172 4494 
z
" transform="scale(0.015625)"/>
       <path id="DejaVuSans-3" transform="scale(0.015625)"/>
       <path id="DejaVuSans-3e" d="M 550 4863 
L 1875 4863 
L 1875 4416 
L 1125 4416 
L 1125 -397 
L 1875 -397 
L 1875 -844 
L 550 -844 
L 550 4863 
z
" transform="scale(0.015625)"/>
       <path id="DejaVuSans-44" d="M 2194 1759 
Q 1497 1759 1228 1600 
Q 959 1441 959 1056 
Q 959 750 1161 570 
Q 1363 391 1709 391 
Q 2188 391 2477 730 
Q 2766 1069 2766 1631 
L 2766 1759 
L 2194 1759 
z
M 3341 1997 
L 3341 0 
L 2766 0 
L 2766 531 
Q 2569 213 2275 61 
Q 1981 -91 1556 -91 
Q 1019 -91 701 211 
Q 384 513 384 1019 
Q 384 1609 779 1909 
Q 1175 2209 1959 2209 
L 2766 2209 
L 2766 2266 
Q 2766 2663 2505 2880 
Q 2244 3097 1772 3097 
Q 1472 3097 1187 3025 
Q 903 2953 641 2809 
L 641 3341 
Q 956 3463 1253 3523 
Q 1550 3584 1831 3584 
Q 2591 3584 2966 3190 
Q 3341 2797 3341 1997 
z
" transform="scale(0.015625)"/>
       <path id="DejaVuSans-55" d="M 2631 2963 
Q 2534 3019 2420 3045 
Q 2306 3072 2169 3072 
Q 1681 3072 1420 2755 
Q 1159 2438 1159 1844 
L 1159 0 
L 581 0 
L 581 3500 
L 1159 3500 
L 1159 2956 
Q 1341 3275 1631 3429 
Q 1922 3584 2338 3584 
Q 2397 3584 2469 3576 
Q 2541 3569 2628 3553 
L 2631 2963 
z
" transform="scale(0.015625)"/>
       <path id="DejaVuSans-45" d="M 3116 1747 
Q 3116 2381 2855 2742 
Q 2594 3103 2138 3103 
Q 1681 3103 1420 2742 
Q 1159 2381 1159 1747 
Q 1159 1113 1420 752 
Q 1681 391 2138 391 
Q 2594 391 2855 752 
Q 3116 1113 3116 1747 
z
M 1159 2969 
Q 1341 3281 1617 3432 
Q 1894 3584 2278 3584 
Q 2916 3584 3314 3078 
Q 3713 2572 3713 1747 
Q 3713 922 3314 415 
Q 2916 -91 2278 -91 
Q 1894 -91 1617 61 
Q 1341 213 1159 525 
L 1159 0 
L 581 0 
L 581 4863 
L 1159 4863 
L 1159 2969 
z
" transform="scale(0.015625)"/>
       <path id="DejaVuSans-11" d="M 684 794 
L 1344 794 
L 1344 0 
L 684 0 
L 684 794 
z
" transform="scale(0.015625)"/>
       <path id="DejaVuSans-40" d="M 1947 4863 
L 1947 -844 
L 622 -844 
L 622 -397 
L 1369 -397 
L 1369 4416 
L 622 4416 
L 622 4863 
L 1947 4863 
z
" transform="scale(0.015625)"/>
      </defs>
      <use xlink:href="#DejaVuSans-57"/>
      <use xlink:href="#DejaVuSans-3" transform="translate(39.203125 0)"/>
      <use xlink:href="#DejaVuSans-3e" transform="translate(70.984375 0)"/>
      <use xlink:href="#DejaVuSans-44" transform="translate(110 0)"/>
      <use xlink:href="#DejaVuSans-55" transform="translate(171.28125 0)"/>
      <use xlink:href="#DejaVuSans-45" transform="translate(212.390625 0)"/>
      <use xlink:href="#DejaVuSans-11" transform="translate(275.875 0)"/>
      <use xlink:href="#DejaVuSans-40" transform="translate(307.65625 0)"/>
     </g>
    </g>
   </g>
   <g id="matplotlib.axis_2">
    <g id="ytick_1">
     <g id="line2d_13">
      <path d="M 60.202344 192.81437 
L 628.2 192.81437 
" clip-path="url(#p0cb7bb53e1)" style="fill: none; stroke: #b0b0b0; stroke-opacity: 0.25; stroke-width: 0.8; stroke-linecap: square"/>
     </g>
     <g id="line2d_14">
      <defs>
       <path id="mb7f8e6f46f" d="M 0 0 
L -3.5 0 
" style="stroke: #000000; stroke-width: 0.8"/>
      </defs>
      <g>
       <use xlink:href="#mb7f8e6f46f" x="60.202344" y="192.81437" style="stroke: #000000; stroke-width: 0.8"/>
      </g>
     </g>
     <g id="text_8">
      <!-- −1.0 -->
      <g transform="translate(28.919531 196.613198) scale(0.1 -0.1)">
       <defs>
        <path id="DejaVuSans-c9c" d="M 678 2272 
L 4684 2272 
L 4684 1741 
L 678 1741 
L 678 2272 
z
" transform="scale(0.015625)"/>
       </defs>
       <use xlink:href="#DejaVuSans-c9c"/>
       <use xlink:href="#DejaVuSans-14" transform="translate(83.796875 0)"/>
       <use xlink:href="#DejaVuSans-11" transform="translate(147.421875 0)"/>
       <use xlink:href="#DejaVuSans-13" transform="translate(179.203125 0)"/>
      </g>
     </g>
    </g>
    <g id="ytick_2">
     <g id="line2d_15">
      <path d="M 60.202344 162.488681 
L 628.2 162.488681 
" clip-path="url(#p0cb7bb53e1)" style="fill: none; stroke: #b0b0b0; stroke-opacity: 0.25; stroke-width: 0.8; stroke-linecap: square"/>
     </g>
     <g id="line2d_16">
      <g>
       <use xlink:href="#mb7f8e6f46f" x="60.202344" y="162.488681" style="stroke: #000000; stroke-width: 0.8"/>
      </g>
     </g>
     <g id="text_9">
      <!-- −0.5 -->
      <g transform="translate(28.919531 166.28751) scale(0.1 -0.1)">
       <defs>
        <path id="DejaVuSans-18" d="M 691 4666 
L 3169 4666 
L 3169 4134 
L 1269 4134 
L 1269 2991 
Q 1406 3038 1543 3061 
Q 1681 3084 1819 3084 
Q 2600 3084 3056 2656 
Q 3513 2228 3513 1497 
Q 3513 744 3044 326 
Q 2575 -91 1722 -91 
Q 1428 -91 1123 -41 
Q 819 9 494 109 
L 494 744 
Q 775 591 1075 516 
Q 1375 441 1709 441 
Q 2250 441 2565 725 
Q 2881 1009 2881 1497 
Q 2881 1984 2565 2268 
Q 2250 2553 1709 2553 
Q 1456 2553 1204 2497 
Q 953 2441 691 2322 
L 691 4666 
z
" transform="scale(0.015625)"/>
       </defs>
       <use xlink:href="#DejaVuSans-c9c"/>
       <use xlink:href="#DejaVuSans-13" transform="translate(83.796875 0)"/>
       <use xlink:href="#DejaVuSans-11" transform="translate(147.421875 0)"/>
       <use xlink:href="#DejaVuSans-18" transform="translate(179.203125 0)"/>
      </g>
     </g>
    </g>
    <g id="ytick_3">
     <g id="line2d_17">
      <path d="M 60.202344 132.162993 
L 628.2 132.162993 
" clip-path="url(#p0cb7bb53e1)" style="fill: none; stroke: #b0b0b0; stroke-opacity: 0.25; stroke-width: 0.8; stroke-linecap: square"/>
     </g>
     <g id="line2d_18">
      <g>
       <use xlink:href="#mb7f8e6f46f" x="60.202344" y="132.162993" style="stroke: #000000; stroke-width: 0.8"/>
      </g>
     </g>
     <g id="text_10">
      <!-- 0.0 -->
      <g transform="translate(37.299219 135.961821) scale(0.1 -0.1)">
       <use xlink:href="#DejaVuSans-13"/>
       <use xlink:href="#DejaVuSans-11" transform="translate(63.625 0)"/>
       <use xlink:href="#DejaVuSans-13" transform="translate(95.40625 0)"/>
      </g>
     </g>
    </g>
    <g id="ytick_4">
     <g id="line2d_19">
      <path d="M 60.202344 101.837304 
L 628.2 101.837304 
" clip-path="url(#p0cb7bb53e1)" style="fill: none; stroke: #b0b0b0; stroke-opacity: 0.25; stroke-width: 0.8; stroke-linecap: square"/>
     </g>
     <g id="line2d_20">
      <g>
       <use xlink:href="#mb7f8e6f46f" x="60.202344" y="101.837304" style="stroke: #000000; stroke-width: 0.8"/>
      </g>
     </g>
     <g id="text_11">
      <!-- 0.5 -->
      <g transform="translate(37.299219 105.636132) scale(0.1 -0.1)">
       <use xlink:href="#DejaVuSans-13"/>
       <use xlink:href="#DejaVuSans-11" transform="translate(63.625 0)"/>
       <use xlink:href="#DejaVuSans-18" transform="translate(95.40625 0)"/>
      </g>
     </g>
    </g>
    <g id="ytick_5">
     <g id="line2d_21">
      <path d="M 60.202344 71.511615 
L 628.2 71.511615 
" clip-path="url(#p0cb7bb53e1)" style="fill: none; stroke: #b0b0b0; stroke-opacity: 0.25; stroke-width: 0.8; stroke-linecap: square"/>
     </g>
     <g id="line2d_22">
      <g>
       <use xlink:href="#mb7f8e6f46f" x="60.202344" y="71.511615" style="stroke: #000000; stroke-width: 0.8"/>
      </g>
     </g>
     <g id="text_12">
      <!-- 1.0 -->
      <g transform="translate(37.299219 75.310443) scale(0.1 -0.1)">
       <use xlink:href="#DejaVuSans-14"/>
       <use xlink:href="#DejaVuSans-11" transform="translate(63.625 0)"/>
       <use xlink:href="#DejaVuSans-13" transform="translate(95.40625 0)"/>
      </g>
     </g>
    </g>
    <g id="text_13">
     <!-- [arb.] -->
     <g transform="translate(22.517188 145.947363) rotate(-90) scale(0.1 -0.1)">
      <use xlink:href="#DejaVuSans-3e"/>
      <use xlink:href="#DejaVuSans-44" transform="translate(39.015625 0)"/>
      <use xlink:href="#DejaVuSans-55" transform="translate(100.296875 0)"/>
      <use xlink:href="#DejaVuSans-45" transform="translate(141.40625 0)"/>
      <use xlink:href="#DejaVuSans-11" transform="translate(204.890625 0)"/>
      <use xlink:href="#DejaVuSans-40" transform="translate(236.671875 0)"/>
     </g>
    </g>
   </g>
   <g id="line2d_23">
    <path d="M 86.020419 132.162993 
L 90.30767 100.883845 
L 92.577391 85.961316 
L 94.342729 75.692709 
L 95.855876 68.047825 
L 97.242928 62.110881 
L 98.503884 57.685772 
L 99.512649 54.853745 
L 100.521414 52.677495 
L 101.404083 51.325871 
L 102.160657 50.585014 
L 102.791135 50.264969 
L 103.421613 50.216409 
L 104.052091 50.439495 
L 104.682569 50.933487 
L 105.313047 51.696747 
L 106.06962 52.96447 
L 106.95229 54.920712 
L 107.961054 57.769887 
L 109.095915 61.728086 
L 110.356871 67.010658 
L 111.743923 73.81542 
L 113.383165 83.053582 
L 115.2746 95.06384 
L 117.670416 111.81301 
L 126.7493 176.961672 
L 128.640734 188.092494 
L 130.279977 196.403152 
L 131.667028 202.319213 
L 132.927984 206.723881 
L 133.936749 209.538743 
L 134.945514 211.697264 
L 135.828183 213.033031 
L 136.584757 213.760122 
L 137.215235 214.068622 
L 137.845713 214.105612 
L 138.476191 213.87097 
L 139.106669 213.365473 
L 139.863243 212.403771 
L 140.619816 211.059088 
L 141.502486 209.014908 
L 142.51125 206.068371 
L 143.646111 202.005624 
L 144.907067 196.61439 
L 146.294119 189.700878 
L 147.933361 180.351047 
L 149.824796 168.237692 
L 152.346708 150.483216 
L 160.669018 90.399417 
L 162.560452 78.89889 
L 164.199695 70.203181 
L 165.586746 63.92108 
L 166.847702 59.15686 
L 167.982563 55.69451 
L 168.991328 53.304961 
L 169.873997 51.762271 
L 170.630571 50.855341 
L 171.261049 50.395881 
L 171.891527 50.207473 
L 172.522005 50.29074 
L 173.152483 50.645406 
L 173.782961 51.270296 
L 174.539534 52.37388 
L 175.422204 54.142244 
L 176.304873 56.417392 
L 177.313638 59.619008 
L 178.448498 63.954812 
L 179.709454 69.628745 
L 181.222601 77.523677 
L 182.98794 88.039581 
L 185.131565 102.319039 
L 188.031764 123.343855 
L 193.832162 165.729521 
L 195.975787 179.633969 
L 197.741126 189.744211 
L 199.254273 197.23024 
L 200.641325 203.005538 
L 201.776185 206.88987 
L 202.78495 209.670352 
L 203.667619 211.564623 
L 204.550288 212.943141 
L 205.306862 213.70735 
L 205.93734 214.046982 
L 206.567818 214.115176 
L 207.198296 213.911706 
L 207.828774 213.437246 
L 208.459252 212.693369 
L 209.215826 211.44862 
L 210.098495 209.518648 
L 211.10726 206.698585 
L 212.24212 202.77168 
L 213.503076 197.521677 
L 214.890128 190.749568 
L 216.529371 181.54502 
L 218.420805 169.565927 
L 220.816622 152.843162 
L 225.73435 116.356249 
L 228.634549 95.853378 
L 230.778174 82.252853 
L 232.543513 72.463506 
L 234.05666 65.296619 
L 235.317616 60.293133 
L 236.452477 56.602477 
L 237.461242 54.001731 
L 238.343911 52.269331 
L 239.100484 51.197123 
L 239.857058 50.511357 
L 240.487536 50.237501 
L 241.118014 50.23522 
L 241.748492 50.504523 
L 242.37897 51.044517 
L 243.135544 52.047238 
L 243.892117 53.432343 
L 244.774787 55.522669 
L 245.783552 58.520246 
L 246.918412 62.637729 
L 248.179368 68.085761 
L 249.56642 75.055998 
L 251.205663 84.4639 
L 253.223192 97.483529 
L 255.745104 115.353586 
L 263.689128 172.815859 
L 265.706657 185.167428 
L 267.3459 193.89902 
L 268.732952 200.215429 
L 269.993908 205.01349 
L 271.128768 208.508073 
L 272.137533 210.927395 
L 273.020202 212.496798 
L 273.776776 213.426978 
L 274.407254 213.905975 
L 275.037732 214.114002 
L 275.66821 214.050368 
L 276.298688 213.715285 
L 276.929166 213.109863 
L 277.68574 212.029398 
L 278.568409 210.287533 
L 279.451078 208.038209 
L 280.459843 204.865065 
L 281.594704 200.559679 
L 282.85566 194.917157 
L 284.368807 187.056037 
L 286.134145 176.573426 
L 288.151675 163.199972 
L 290.925778 143.194521 
L 297.230559 97.191413 
L 299.374184 83.439624 
L 301.139523 73.491348 
L 302.65267 66.166839 
L 304.039721 60.555244 
L 305.174582 56.814097 
L 306.183347 54.166546 
L 307.066016 52.392031 
L 307.82259 51.28308 
L 308.579163 50.56016 
L 309.209641 50.255157 
L 309.840119 50.221671 
L 310.470597 50.459813 
L 311.101075 50.968795 
L 311.857649 51.934641 
L 312.614223 53.283409 
L 313.496892 55.332253 
L 314.505657 58.28395 
L 315.640517 62.352234 
L 316.901473 67.749216 
L 318.288525 74.668473 
L 319.927768 84.024189 
L 321.819202 96.14296 
L 324.341114 113.902104 
L 332.663424 173.978931 
L 334.554858 185.473344 
L 336.194101 194.162633 
L 337.581153 200.438599 
L 338.842109 205.19677 
L 339.976969 208.653362 
L 340.985734 211.037592 
L 341.868403 212.575511 
L 342.624977 213.47829 
L 343.255455 213.934262 
L 343.885933 214.119168 
L 344.516411 214.032397 
L 345.146889 213.674237 
L 345.777367 213.045873 
L 346.533941 211.938165 
L 347.41661 210.165075 
L 348.299279 207.885322 
L 349.308044 204.678629 
L 350.442904 200.337405 
L 351.70386 194.657876 
L 353.217008 186.756923 
L 354.982346 176.235096 
L 357.125971 161.950247 
L 360.02617 140.921611 
L 365.826568 98.540942 
L 367.970194 84.642409 
L 369.735532 74.538473 
L 371.248679 67.05875 
L 372.635731 61.289856 
L 373.770591 57.411133 
L 374.779356 54.635864 
L 375.662026 52.746293 
L 376.544695 51.372573 
L 377.301268 50.612531 
L 377.931746 50.276395 
L 378.562224 50.211705 
L 379.192702 50.418676 
L 379.823181 50.896623 
L 380.453659 51.64396 
L 381.210232 52.892811 
L 382.092901 54.827474 
L 383.101666 57.652737 
L 384.236527 61.585232 
L 385.497483 66.841055 
L 386.884534 73.619001 
L 388.523777 82.82956 
L 390.415211 94.81423 
L 392.811028 111.54173 
L 397.728757 148.029459 
L 400.628955 168.527168 
L 402.772581 182.121401 
L 404.537919 191.904168 
L 406.051067 199.064548 
L 407.312023 204.062093 
L 408.446883 207.747068 
L 409.455648 210.342551 
L 410.338317 212.070216 
L 411.094891 213.138294 
L 411.851464 213.819886 
L 412.481942 214.090244 
L 413.11242 214.08902 
L 413.742898 213.816218 
L 414.373376 213.272743 
L 415.12995 212.265883 
L 415.886524 210.876701 
L 416.769193 208.781722 
L 417.777958 205.779 
L 418.912818 201.656004 
L 420.173774 196.202253 
L 421.560826 189.226309 
L 423.200069 179.812573 
L 425.217599 166.787294 
L 427.739511 148.912819 
L 435.557438 92.279234 
L 437.574968 79.835151 
L 439.214211 71.011354 
L 440.727358 64.076652 
L 441.988314 59.284625 
L 443.123175 55.795791 
L 444.131939 53.381779 
L 445.014609 51.817142 
L 445.771182 50.891111 
L 446.40166 50.4156 
L 447.032138 50.211074 
L 447.662616 50.278212 
L 448.293094 50.616791 
L 448.923572 51.225688 
L 449.680146 52.310281 
L 450.562815 54.056878 
L 451.445485 56.310814 
L 452.454249 59.489044 
L 453.58911 63.799864 
L 454.850066 69.448 
L 456.363213 77.315165 
L 458.128552 87.803732 
L 460.146081 101.182359 
L 462.920185 121.191783 
L 469.224965 167.189613 
L 471.36859 180.935294 
L 473.133929 190.877124 
L 474.647076 198.195223 
L 476.034128 203.800334 
L 477.168988 207.535819 
L 478.177753 210.17812 
L 479.060422 211.947908 
L 479.816996 213.052735 
L 480.57357 213.771484 
L 481.204048 214.07299 
L 481.834526 214.102972 
L 482.465004 213.861329 
L 483.095482 213.348864 
L 483.852055 212.378874 
L 484.608629 211.026022 
L 485.491298 208.972515 
L 486.500063 206.015658 
L 487.634923 201.941841 
L 488.89588 196.539114 
L 490.282931 189.614116 
L 491.922174 180.252519 
L 493.813608 168.128339 
L 496.33552 150.364536 
L 504.65783 90.294714 
L 506.549264 78.806422 
L 508.188507 70.123558 
L 509.575559 63.85373 
L 510.836515 59.10161 
L 511.971375 55.65078 
L 512.98014 53.27187 
L 513.862809 51.738722 
L 514.619383 50.840094 
L 515.249861 50.387611 
L 515.880339 50.206207 
L 516.510817 50.296481 
L 517.141295 50.658137 
L 517.771773 51.289973 
L 518.528347 52.401805 
L 519.411016 54.179621 
L 520.293685 56.463977 
L 521.30245 59.675744 
L 522.437311 64.022387 
L 523.698267 69.707509 
L 525.211414 77.614478 
L 526.976752 88.142222 
L 529.120378 102.432454 
L 532.020577 123.464898 
L 537.820975 165.840546 
L 539.9646 179.733158 
L 541.729938 189.830782 
L 543.243086 197.304195 
L 544.630137 203.066682 
L 545.764998 206.939794 
L 546.773763 209.709849 
L 547.656432 211.594718 
L 548.539101 212.963639 
L 549.295675 213.719514 
L 549.926153 214.052155 
L 550.556631 214.11334 
L 551.187109 213.902868 
L 551.817587 213.421434 
L 552.448065 212.670637 
L 553.204638 211.417685 
L 554.087308 209.478331 
L 555.096073 206.647871 
L 556.230933 202.709787 
L 557.491889 197.448148 
L 558.878941 190.664369 
L 560.518184 181.447804 
L 562.409618 169.457563 
L 564.805434 152.725338 
L 569.849258 115.31197 
L 572.749457 94.901102 
L 574.766987 82.156343 
L 576.532326 72.380161 
L 578.045473 65.226293 
L 579.306429 60.234692 
L 580.441289 56.555399 
L 581.450054 53.965181 
L 582.332723 52.242252 
L 583.089297 51.178303 
L 583.845871 50.500886 
L 584.476349 50.234028 
L 585.106827 50.238757 
L 585.737305 50.515057 
L 586.367783 51.062013 
L 587.124356 52.07301 
L 587.88093 53.466269 
L 588.763599 55.565901 
L 589.772364 58.573764 
L 590.907225 62.702273 
L 592.168181 68.161739 
L 593.555232 75.143386 
L 595.194475 84.562952 
L 597.212005 97.593872 
L 599.733917 115.472757 
L 602.381925 135.176657 
L 602.381925 135.176657 
" clip-path="url(#p0cb7bb53e1)" style="fill: none; stroke: #1f77b4; stroke-width: 1.5; stroke-linecap: square"/>
   </g>
   <g id="line2d_24">
    <path d="M 86.020419 132.162993 
L 89.551096 132.047982 
L 93.207869 131.700971 
L 97.369024 131.077469 
L 103.925995 129.832163 
L 110.230775 128.713317 
L 114.265835 128.224991 
L 117.796512 128.017436 
L 121.201093 128.039373 
L 124.605674 128.283234 
L 128.262447 128.772164 
L 132.549698 129.582252 
L 140.115434 131.297616 
L 145.537545 132.410462 
L 149.446509 132.993816 
L 152.977186 133.301906 
L 156.381767 133.379501 
L 159.912444 133.233271 
L 163.695312 132.848626 
L 168.36085 132.135158 
L 180.844315 130.096225 
L 184.627183 129.781128 
L 188.15786 129.711883 
L 191.562441 129.867621 
L 195.093118 130.253264 
L 199.002082 130.909682 
L 204.045906 131.99957 
L 213.881363 134.173987 
L 217.916423 134.798989 
L 221.4471 135.122836 
L 224.851681 135.212678 
L 228.256262 135.082803 
L 231.913035 134.721521 
L 236.326381 134.049412 
L 251.079567 131.589037 
L 254.73634 131.325216 
L 258.267017 131.297849 
L 261.797693 131.502354 
L 265.454466 131.941218 
L 269.741717 132.690594 
L 277.055262 134.248148 
L 282.603468 135.323446 
L 286.512432 135.863602 
L 290.043109 136.131793 
L 293.447691 136.167027 
L 296.852272 135.980538 
L 300.509044 135.555051 
L 304.796295 134.823651 
L 320.43215 131.912794 
L 324.088923 131.603257 
L 327.493504 131.533164 
L 331.024181 131.687695 
L 334.680954 132.071355 
L 339.0943 132.770746 
L 354.225773 135.38845 
L 357.882545 135.659288 
L 361.287126 135.690485 
L 364.691708 135.500056 
L 368.34848 135.064019 
L 372.509635 134.329372 
L 378.562224 133.002882 
L 385.497483 131.535356 
L 389.532542 130.90879 
L 393.063219 130.575791 
L 396.4678 130.472583 
L 399.872382 130.586963 
L 403.529154 130.931758 
L 407.816405 131.565989 
L 423.45226 134.115664 
L 427.109033 134.338708 
L 430.513614 134.326254 
L 433.918195 134.09573 
L 437.574968 133.62358 
L 441.862219 132.834123 
L 449.301859 131.180406 
L 454.850066 130.060599 
L 458.75903 129.492243 
L 462.289707 129.199234 
L 465.694288 129.139123 
L 469.098869 129.298281 
L 472.755642 129.690041 
L 477.168988 130.396968 
L 491.796078 132.939867 
L 495.452851 133.230913 
L 498.857432 133.286323 
L 502.262014 133.1251 
L 505.918786 132.725745 
L 510.079941 132.039206 
L 516.510817 130.713551 
L 522.941693 129.456346 
L 526.976752 128.892952 
L 530.507429 128.617969 
L 533.912011 128.57385 
L 537.316592 128.751133 
L 540.973365 129.168518 
L 545.260615 129.895381 
L 552.57416 131.415093 
L 558.122367 132.461103 
L 562.157426 132.995152 
L 565.688103 133.241637 
L 569.092685 133.260664 
L 572.623362 133.054327 
L 576.40623 132.605739 
L 581.071767 131.81377 
L 593.429137 129.583306 
L 597.212005 129.19918 
L 600.742682 129.065826 
L 602.381925 129.084125 
L 602.381925 129.084125 
" clip-path="url(#p0cb7bb53e1)" style="fill: none; stroke: #ff7f0e; stroke-width: 1.5; stroke-linecap: square"/>
   </g>
   <g id="patch_3">
    <path d="M 60.202344 222.319648 
L 60.202344 42.006328 
" style="fill: none; stroke: #000000; stroke-width: 0.8; stroke-linejoin: miter; stroke-linecap: square"/>
   </g>
   <g id="patch_4">
    <path d="M 628.2 222.319648 
L 628.2 42.006328 
" style="fill: none; stroke: #000000; stroke-width: 0.8; stroke-linejoin: miter; stroke-linecap: square"/>
   </g>
   <g id="patch_5">
    <path d="M 60.202344 222.319648 
L 628.2 222.319648 
" style="fill: none; stroke: #000000; stroke-width: 0.8; stroke-linejoin: miter; stroke-linecap: square"/>
   </g>
   <g id="patch_6">
    <path d="M 60.202344 42.006328 
L 628.2 42.006328 
" style="fill: none; stroke: #000000; stroke-width: 0.8; stroke-linejoin: miter; stroke-linecap: square"/>
   </g>
   <g id="text_14">
    <!-- Daily Useless RLC (2026-10-02) | verdict: feral -->
    <g transform="translate(205.117422 21.550547) scale(0.12 -0.12)">
     <defs>
      <path id="DejaVuSans-27" d="M 1259 4147 
L 1259 519 
L 2022 519 
Q 2988 519 3436 956 
Q 3884 1394 3884 2338 
Q 3884 3275 3436 3711 
Q 2988 4147 2022 4147 
L 1259 4147 
z
M 628 4666 
L 1925 4666 
Q 3281 4666 3915 4102 
Q 4550 3538 4550 2338 
Q 4550 1131 3912 565 
Q 3275 0 1925 0 
L 628 0 
L 628 4666 
z
" transform="scale(0.015625)"/>
      <path id="DejaVuSans-4c" d="M 603 3500 
L 1178 3500 
L 1178 0 
L 603 0 
L 603 3500 
z
M 603 4863 
L 1178 4863 
L 1178 4134 
L 603 4134 
L 603 4863 
z
" transform="scale(0.015625)"/>
      <path id="DejaVuSans-4f" d="M 603 4863 
L 1178 4863 
L 1178 0 
L 603 0 
L 603 4863 
z
" transform="scale(0.015625)"/>
      <path id="DejaVuSans-5c" d="M 2059 -325 
Q 1816 -950 1584 -1140 
Q 1353 -1331 966 -1331 
L 506 -1331 
L 506 -850 
L 844 -850 
Q 1081 -850 1212 -737 
Q 1344 -625 1503 -206 
L 1606 56 
L 191 3500 
L 800 3500 
L 1894 763 
L 2988 3500 
L 3597 3500 
L 2059 -325 
z
" transform="scale(0.015625)"/>
      <path id="DejaVuSans-38" d="M 556 4666 
L 1191 4666 
L 1191 1831 
Q 1191 1081 1462 751 
Q 1734 422 2344 422 
Q 2950 422 3222 751 
Q 3494 1081 3494 1831 
L 3494 4666 
L 4128 4666 
L 4128 1753 
Q 4128 841 3676 375 
Q 3225 -91 2344 -91 
Q 1459 -91 1007 375 
Q 556 841 556 1753 
L 556 4666 
z
" transform="scale(0.015625)"/>
      <path id="DejaVuSans-56" d="M 2834 3397 
L 2834 2853 
Q 2591 2978 2328 3040 
Q 2066 3103 1784 3103 
Q 1356 3103 1142 2972 
Q 928 2841 928 2578 
Q 928 2378 1081 2264 
Q 1234 2150 1697 2047 
L 1894 2003 
Q 2506 1872 2764 1633 
Q 3022 1394 3022 966 
Q 3022 478 2636 193 
Q 2250 -91 1575 -91 
Q 1294 -91 989 -36 
Q 684 19 347 128 
L 347 722 
Q 666 556 975 473 
Q 1284 391 1588 391 
Q 1994 391 2212 530 
Q 2431 669 2431 922 
Q 2431 1156 2273 1281 
Q 2116 1406 1581 1522 
L 1381 1569 
Q 847 1681 609 1914 
Q 372 2147 372 2553 
Q 372 3047 722 3315 
Q 1072 3584 1716 3584 
Q 2034 3584 2315 3537 
Q 2597 3491 2834 3397 
z
" transform="scale(0.015625)"/>
      <path id="DejaVuSans-48" d="M 3597 1894 
L 3597 1613 
L 953 1613 
Q 991 1019 1311 708 
Q 1631 397 2203 397 
Q 2534 397 2845 478 
Q 3156 559 3463 722 
L 3463 178 
Q 3153 47 2828 -22 
Q 2503 -91 2169 -91 
Q 1331 -91 842 396 
Q 353 884 353 1716 
Q 353 2575 817 3079 
Q 1281 3584 2069 3584 
Q 2775 3584 3186 3129 
Q 3597 2675 3597 1894 
z
M 3022 2063 
Q 3016 2534 2758 2815 
Q 2500 3097 2075 3097 
Q 1594 3097 1305 2825 
Q 1016 2553 972 2059 
L 3022 2063 
z
" transform="scale(0.015625)"/>
      <path id="DejaVuSans-35" d="M 2841 2188 
Q 3044 2119 3236 1894 
Q 3428 1669 3622 1275 
L 4263 0 
L 3584 0 
L 2988 1197 
Q 2756 1666 2539 1819 
Q 2322 1972 1947 1972 
L 1259 1972 
L 1259 0 
L 628 0 
L 628 4666 
L 2053 4666 
Q 2853 4666 3247 4331 
Q 3641 3997 3641 3322 
Q 3641 2881 3436 2590 
Q 3231 2300 2841 2188 
z
M 1259 4147 
L 1259 2491 
L 2053 2491 
Q 2509 2491 2742 2702 
Q 2975 2913 2975 3322 
Q 2975 3731 2742 3939 
Q 2509 4147 2053 4147 
L 1259 4147 
z
" transform="scale(0.015625)"/>
      <path id="DejaVuSans-2f" d="M 628 4666 
L 1259 4666 
L 1259 531 
L 3531 531 
L 3531 0 
L 628 0 
L 628 4666 
z
" transform="scale(0.015625)"/>
      <path id="DejaVuSans-26" d="M 4122 4306 
L 4122 3641 
Q 3803 3938 3442 4084 
Q 3081 4231 2675 4231 
Q 1875 4231 1450 3742 
Q 1025 3253 1025 2328 
Q 1025 1406 1450 917 
Q 1875 428 2675 428 
Q 3081 428 3442 575 
Q 3803 722 4122 1019 
L 4122 359 
Q 3791 134 3420 21 
Q 3050 -91 2638 -91 
Q 1578 -91 968 557 
Q 359 1206 359 2328 
Q 359 3453 968 4101 
Q 1578 4750 2638 4750 
Q 3056 4750 3426 4639 
Q 3797 4528 4122 4306 
z
" transform="scale(0.015625)"/>
      <path id="DejaVuSans-b" d="M 1984 4856 
Q 1566 4138 1362 3434 
Q 1159 2731 1159 2009 
Q 1159 1288 1364 580 
Q 1569 -128 1984 -844 
L 1484 -844 
Q 1016 -109 783 600 
Q 550 1309 550 2009 
Q 550 2706 781 3412 
Q 1013 4119 1484 4856 
L 1984 4856 
z
" transform="scale(0.015625)"/>
      <path id="DejaVuSans-10" d="M 313 2009 
L 1997 2009 
L 1997 1497 
L 313 1497 
L 313 2009 
z
" transform="scale(0.015625)"/>
      <path id="DejaVuSans-c" d="M 513 4856 
L 1013 4856 
Q 1481 4119 1714 3412 
Q 1947 2706 1947 2009 
Q 1947 1309 1714 600 
Q 1481 -109 1013 -844 
L 513 -844 
Q 928 -128 1133 580 
Q 1338 1288 1338 2009 
Q 1338 2731 1133 3434 
Q 928 4138 513 4856 
z
" transform="scale(0.015625)"/>
      <path id="DejaVuSans-5f" d="M 1344 4891 
L 1344 -1509 
L 813 -1509 
L 813 4891 
L 1344 4891 
z
" transform="scale(0.015625)"/>
      <path id="DejaVuSans-59" d="M 191 3500 
L 800 3500 
L 1894 563 
L 2988 3500 
L 3597 3500 
L 2284 0 
L 1503 0 
L 191 3500 
z
" transform="scale(0.015625)"/>
      <path id="DejaVuSans-47" d="M 2906 2969 
L 2906 4863 
L 3481 4863 
L 3481 0 
L 2906 0 
L 2906 525 
Q 2725 213 2448 61 
Q 2172 -91 1784 -91 
Q 1150 -91 751 415 
Q 353 922 353 1747 
Q 353 2572 751 3078 
Q 1150 3584 1784 3584 
Q 2172 3584 2448 3432 
Q 2725 3281 2906 2969 
z
M 947 1747 
Q 947 1113 1208 752 
Q 1469 391 1925 391 
Q 2381 391 2643 752 
Q 2906 1113 2906 1747 
Q 2906 2381 2643 2742 
Q 2381 3103 1925 3103 
Q 1469 3103 1208 2742 
Q 947 2381 947 1747 
z
" transform="scale(0.015625)"/>
      <path id="DejaVuSans-46" d="M 3122 3366 
L 3122 2828 
Q 2878 2963 2633 3030 
Q 2388 3097 2138 3097 
Q 1578 3097 1268 2742 
Q 959 2388 959 1747 
Q 959 1106 1268 751 
Q 1578 397 2138 397 
Q 2388 397 2633 464 
Q 2878 531 3122 666 
L 3122 134 
Q 2881 22 2623 -34 
Q 2366 -91 2075 -91 
Q 1284 -91 818 406 
Q 353 903 353 1747 
Q 353 2603 823 3093 
Q 1294 3584 2113 3584 
Q 2378 3584 2631 3529 
Q 2884 3475 3122 3366 
z
" transform="scale(0.015625)"/>
      <path id="DejaVuSans-1d" d="M 750 794 
L 1409 794 
L 1409 0 
L 750 0 
L 750 794 
z
M 750 3309 
L 1409 3309 
L 1409 2516 
L 750 2516 
L 750 3309 
z
" transform="scale(0.015625)"/>
      <path id="DejaVuSans-49" d="M 2375 4863 
L 2375 4384 
L 1825 4384 
Q 1516 4384 1395 4259 
Q 1275 4134 1275 3809 
L 1275 3500 
L 2222 3500 
L 2222 3053 
L 1275 3053 
L 1275 0 
L 697 0 
L 697 3053 
L 147 3053 
L 147 3500 
L 697 3500 
L 697 3744 
Q 697 4328 969 4595 
Q 1241 4863 1831 4863 
L 2375 4863 
z
" transform="scale(0.015625)"/>
     </defs>
     <use xlink:href="#DejaVuSans-27"/>
     <use xlink:href="#DejaVuSans-44" transform="translate(77 0)"/>
     <use xlink:href="#DejaVuSans-4c" transform="translate(138.28125 0)"/>
     <use xlink:href="#DejaVuSans-4f" transform="translate(166.0625 0)"/>
     <use xlink:href="#DejaVuSans-5c" transform="translate(193.84375 0)"/>
     <use xlink:href="#DejaVuSans-3" transform="translate(253.03125 0)"/>
     <use xlink:href="#DejaVuSans-38" transform="translate(284.8125 0)"/>
     <use xlink:href="#DejaVuSans-56" transform="translate(358 0)"/>
     <use xlink:href="#DejaVuSans-48" transform="translate(410.09375 0)"/>
     <use xlink:href="#DejaVuSans-4f" transform="translate(471.625 0)"/>
     <use xlink:href="#DejaVuSans-48" transform="translate(499.40625 0)"/>
     <use xlink:href="#DejaVuSans-56" transform="translate(560.9375 0)"/>
     <use xlink:href="#DejaVuSans-56" transform="translate(613.03125 0)"/>
     <use xlink:href="#DejaVuSans-3" transform="translate(665.125 0)"/>
     <use xlink:href="#DejaVuSans-35" transform="translate(696.90625 0)"/>
     <use xlink:href="#DejaVuSans-2f" transform="translate(766.390625 0)"/>
     <use xlink:href="#DejaVuSans-26" transform="translate(822.109375 0)"/>
     <use xlink:href="#DejaVuSans-3" transform="translate(891.9375 0)"/>
     <use xlink:href="#DejaVuSans-b" transform="translate(923.71875 0)"/>
     <use xlink:href="#DejaVuSans-15" transform="translate(962.734375 0)"/>
     <use xlink:href="#DejaVuSans-13" transform="translate(1026.359375 0)"/>
     <use xlink:href="#DejaVuSans-15" transform="translate(1089.984375 0)"/>
     <use xlink:href="#DejaVuSans-19" transform="translate(1153.609375 0)"/>
     <use xlink:href="#DejaVuSans-10" transform="translate(1217.234375 0)"/>
     <use xlink:href="#DejaVuSans-14" transform="translate(1253.3125 0)"/>
     <use xlink:href="#DejaVuSans-13" transform="translate(1316.9375 0)"/>
     <use xlink:href="#DejaVuSans-10" transform="translate(1380.5625 0)"/>
     <use xlink:href="#DejaVuSans-13" transform="translate(1416.640625 0)"/>
     <use xlink:href="#DejaVuSans-15" transform="translate(1480.265625 0)"/>
     <use xlink:href="#DejaVuSans-c" transform="translate(1543.890625 0)"/>
     <use xlink:href="#DejaVuSans-3" transform="translate(1582.90625 0)"/>
     <use xlink:href="#DejaVuSans-5f" transform="translate(1614.6875 0)"/>
     <use xlink:href="#DejaVuSans-3" transform="translate(1648.375 0)"/>
     <use xlink:href="#DejaVuSans-59" transform="translate(1680.15625 0)"/>
     <use xlink:href="#DejaVuSans-48" transform="translate(1739.34375 0)"/>
     <use xlink:href="#DejaVuSans-55" transform="translate(1800.875 0)"/>
     <use xlink:href="#DejaVuSans-47" transform="translate(1840.234375 0)"/>
     <use xlink:href="#DejaVuSans-4c" transform="translate(1903.71875 0)"/>
     <use xlink:href="#DejaVuSans-46" transform="translate(1931.5 0)"/>
     <use xlink:href="#DejaVuSans-57" transform="translate(1986.484375 0)"/>
     <use xlink:href="#DejaVuSans-1d" transform="translate(2025.6875 0)"/>
     <use xlink:href="#DejaVuSans-3" transform="translate(2059.375 0)"/>
     <use xlink:href="#DejaVuSans-49" transform="translate(2091.15625 0)"/>
     <use xlink:href="#DejaVuSans-48" transform="translate(2126.359375 0)"/>
     <use xlink:href="#DejaVuSans-55" transform="translate(2187.890625 0)"/>
     <use xlink:href="#DejaVuSans-44" transform="translate(2229 0)"/>
     <use xlink:href="#DejaVuSans-4f" transform="translate(2290.28125 0)"/>
    </g>
    <!-- Filter: band | Input: sine, sine (A=1.35, f=0.75 Hz) | R=0.258, L=2.00, C=1.00, ωn=0.71, ζ=0.091, Q=5.49 -->
    <g transform="translate(22.396797 36.006328) scale(0.12 -0.12)">
     <defs>
      <path id="DejaVuSans-29" d="M 628 4666 
L 3309 4666 
L 3309 4134 
L 1259 4134 
L 1259 2759 
L 3109 2759 
L 3109 2228 
L 1259 2228 
L 1259 0 
L 628 0 
L 628 4666 
z
" transform="scale(0.015625)"/>
      <path id="DejaVuSans-51" d="M 3513 2113 
L 3513 0 
L 2938 0 
L 2938 2094 
Q 2938 2591 2744 2837 
Q 2550 3084 2163 3084 
Q 1697 3084 1428 2787 
Q 1159 2491 1159 1978 
L 1159 0 
L 581 0 
L 581 3500 
L 1159 3500 
L 1159 2956 
Q 1366 3272 1645 3428 
Q 1925 3584 2291 3584 
Q 2894 3584 3203 3211 
Q 3513 2838 3513 2113 
z
" transform="scale(0.015625)"/>
      <path id="DejaVuSans-2c" d="M 628 4666 
L 1259 4666 
L 1259 0 
L 628 0 
L 628 4666 
z
" transform="scale(0.015625)"/>
      <path id="DejaVuSans-53" d="M 1159 525 
L 1159 -1331 
L 581 -1331 
L 581 3500 
L 1159 3500 
L 1159 2969 
Q 1341 3281 1617 3432 
Q 1894 3584 2278 3584 
Q 2916 3584 3314 3078 
Q 3713 2572 3713 1747 
Q 3713 922 3314 415 
Q 2916 -91 2278 -91 
Q 1894 -91 1617 61 
Q 1341 213 1159 525 
z
M 3116 1747 
Q 3116 2381 2855 2742 
Q 2594 3103 2138 3103 
Q 1681 3103 1420 2742 
Q 1159 2381 1159 1747 
Q 1159 1113 1420 752 
Q 1681 391 2138 391 
Q 2594 391 2855 752 
Q 3116 1113 3116 1747 
z
" transform="scale(0.015625)"/>
      <path id="DejaVuSans-58" d="M 544 1381 
L 544 3500 
L 1119 3500 
L 1119 1403 
Q 1119 906 1312 657 
Q 1506 409 1894 409 
Q 2359 409 2629 706 
Q 2900 1003 2900 1516 
L 2900 3500 
L 3475 3500 
L 3475 0 
L 2900 0 
L 2900 538 
Q 2691 219 2414 64 
Q 2138 -91 1772 -91 
Q 1169 -91 856 284 
Q 544 659 544 1381 
z
M 1991 3584 
L 1991 3584 
z
" transform="scale(0.015625)"/>
      <path id="DejaVuSans-f" d="M 750 794 
L 1409 794 
L 1409 256 
L 897 -744 
L 494 -744 
L 750 256 
L 750 794 
z
" transform="scale(0.015625)"/>
      <path id="DejaVuSans-24" d="M 2188 4044 
L 1331 1722 
L 3047 1722 
L 2188 4044 
z
M 1831 4666 
L 2547 4666 
L 4325 0 
L 3669 0 
L 3244 1197 
L 1141 1197 
L 716 0 
L 50 0 
L 1831 4666 
z
" transform="scale(0.015625)"/>
      <path id="DejaVuSans-20" d="M 678 2906 
L 4684 2906 
L 4684 2381 
L 678 2381 
L 678 2906 
z
M 678 1631 
L 4684 1631 
L 4684 1100 
L 678 1100 
L 678 1631 
z
" transform="scale(0.015625)"/>
      <path id="DejaVuSans-16" d="M 2597 2516 
Q 3050 2419 3304 2112 
Q 3559 1806 3559 1356 
Q 3559 666 3084 287 
Q 2609 -91 1734 -91 
Q 1441 -91 1130 -33 
Q 819 25 488 141 
L 488 750 
Q 750 597 1062 519 
Q 1375 441 1716 441 
Q 2309 441 2620 675 
Q 2931 909 2931 1356 
Q 2931 1769 2642 2001 
Q 2353 2234 1838 2234 
L 1294 2234 
L 1294 2753 
L 1863 2753 
Q 2328 2753 2575 2939 
Q 2822 3125 2822 3475 
Q 2822 3834 2567 4026 
Q 2313 4219 1838 4219 
Q 1578 4219 1281 4162 
Q 984 4106 628 3988 
L 628 4550 
Q 988 4650 1302 4700 
Q 1616 4750 1894 4750 
Q 2613 4750 3031 4423 
Q 3450 4097 3450 3541 
Q 3450 3153 3228 2886 
Q 3006 2619 2597 2516 
z
" transform="scale(0.015625)"/>
      <path id="DejaVuSans-1a" d="M 525 4666 
L 3525 4666 
L 3525 4397 
L 1831 0 
L 1172 0 
L 2766 4134 
L 525 4134 
L 525 4666 
z
" transform="scale(0.015625)"/>
      <path id="DejaVuSans-2b" d="M 628 4666 
L 1259 4666 
L 1259 2753 
L 3553 2753 
L 3553 4666 
L 4184 4666 
L 4184 0 
L 3553 0 
L 3553 2222 
L 1259 2222 
L 1259 0 
L 628 0 
L 628 4666 
z
" transform="scale(0.015625)"/>
      <path id="DejaVuSans-5d" d="M 353 3500 
L 3084 3500 
L 3084 2975 
L 922 459 
L 3084 459 
L 3084 0 
L 275 0 
L 275 525 
L 2438 3041 
L 353 3041 
L 353 3500 
z
" transform="scale(0.015625)"/>
      <path id="DejaVuSans-35d" d="M 1719 -91 
Q 422 -91 422 1766 
Q 422 2500 906 3500 
L 1525 3500 
Q 1078 2500 1078 1750 
Q 1078 397 1772 397 
Q 2406 397 2406 2078 
L 2938 2078 
Q 2938 397 3572 397 
Q 4266 397 4266 1750 
Q 4266 2500 3819 3500 
L 4438 3500 
Q 4922 2500 4922 1766 
Q 4922 -91 3625 -91 
Q 2775 -91 2672 844 
Q 2544 -91 1719 -91 
z
" transform="scale(0.015625)"/>
      <path id="DejaVuSans-34a" d="M 2231 397 
Q 2644 394 2891 159 
Q 3153 -88 3153 -463 
Q 3153 -822 2922 -1072 
Q 2672 -1344 2163 -1344 
Q 2163 -1109 2163 -872 
Q 2378 -888 2509 -750 
Q 2609 -641 2609 -525 
Q 2609 -359 2509 -222 
Q 2413 -91 2231 -91 
Q 338 -91 334 1669 
Q 334 3206 2119 4284 
L 456 4284 
L 456 4863 
L 3175 4863 
L 3175 4284 
Q 913 3147 913 1669 
Q 913 397 2231 397 
z
" transform="scale(0.015625)"/>
      <path id="DejaVuSans-1c" d="M 703 97 
L 703 672 
Q 941 559 1184 500 
Q 1428 441 1663 441 
Q 2288 441 2617 861 
Q 2947 1281 2994 2138 
Q 2813 1869 2534 1725 
Q 2256 1581 1919 1581 
Q 1219 1581 811 2004 
Q 403 2428 403 3163 
Q 403 3881 828 4315 
Q 1253 4750 1959 4750 
Q 2769 4750 3195 4129 
Q 3622 3509 3622 2328 
Q 3622 1225 3098 567 
Q 2575 -91 1691 -91 
Q 1453 -91 1209 -44 
Q 966 3 703 97 
z
M 1959 2075 
Q 2384 2075 2632 2365 
Q 2881 2656 2881 3163 
Q 2881 3666 2632 3958 
Q 2384 4250 1959 4250 
Q 1534 4250 1286 3958 
Q 1038 3666 1038 3163 
Q 1038 2656 1286 2365 
Q 1534 2075 1959 2075 
z
" transform="scale(0.015625)"/>
      <path id="DejaVuSans-34" d="M 2522 4238 
Q 1834 4238 1429 3725 
Q 1025 3213 1025 2328 
Q 1025 1447 1429 934 
Q 1834 422 2522 422 
Q 3209 422 3611 934 
Q 4013 1447 4013 2328 
Q 4013 3213 3611 3725 
Q 3209 4238 2522 4238 
z
M 3406 84 
L 4238 -825 
L 3475 -825 
L 2784 -78 
Q 2681 -84 2626 -87 
Q 2572 -91 2522 -91 
Q 1538 -91 948 567 
Q 359 1225 359 2328 
Q 359 3434 948 4092 
Q 1538 4750 2522 4750 
Q 3503 4750 4090 4092 
Q 4678 3434 4678 2328 
Q 4678 1516 4351 937 
Q 4025 359 3406 84 
z
" transform="scale(0.015625)"/>
     </defs>
     <use xlink:href="#DejaVuSans-29"/>
     <use xlink:href="#DejaVuSans-4c" transform="translate(50.234375 0)"/>
     <use xlink:href="#DejaVuSans-4f" transform="translate(78.015625 0)"/>
     <use xlink:href="#DejaVuSans-57" transform="translate(105.796875 0)"/>
     <use xlink:href="#DejaVuSans-48" transform="translate(145 0)"/>
     <use xlink:href="#DejaVuSans-55" transform="translate(206.53125 0)"/>
     <use xlink:href="#DejaVuSans-1d" transform="translate(245.890625 0)"/>
     <use xlink:href="#DejaVuSans-3" transform="translate(279.578125 0)"/>
     <use xlink:href="#DejaVuSans-45" transform="translate(311.359375 0)"/>
     <use xlink:href="#DejaVuSans-44" transform="translate(374.84375 0)"/>
     <use xlink:href="#DejaVuSans-51" transform="translate(436.125 0)"/>
     <use xlink:href="#DejaVuSans-47" transform="translate(499.5 0)"/>
     <use xlink:href="#DejaVuSans-3" transform="translate(562.984375 0)"/>
     <use xlink:href="#DejaVuSans-5f" transform="translate(594.765625 0)"/>
     <use xlink:href="#DejaVuSans-3" transform="translate(628.453125 0)"/>
     <use xlink:href="#DejaVuSans-2c" transform="translate(660.234375 0)"/>
     <use xlink:href="#DejaVuSans-51" transform="translate(689.734375 0)"/>
     <use xlink:href="#DejaVuSans-53" transform="translate(753.109375 0)"/>
     <use xlink:href="#DejaVuSans-58" transform="translate(816.59375 0)"/>
     <use xlink:href="#DejaVuSans-57" transform="translate(879.96875 0)"/>
     <use xlink:href="#DejaVuSans-1d" transform="translate(919.171875 0)"/>
     <use xlink:href="#DejaVuSans-3" transform="translate(952.859375 0)"/>
     <use xlink:href="#DejaVuSans-56" transform="translate(984.640625 0)"/>
     <use xlink:href="#DejaVuSans-4c" transform="translate(1036.734375 0)"/>
     <use xlink:href="#DejaVuSans-51" transform="translate(1064.515625 0)"/>
     <use xlink:href="#DejaVuSans-48" transform="translate(1127.890625 0)"/>
     <use xlink:href="#DejaVuSans-f" transform="translate(1189.421875 0)"/>
     <use xlink:href="#DejaVuSans-3" transform="translate(1221.203125 0)"/>
     <use xlink:href="#DejaVuSans-56" transform="translate(1252.984375 0)"/>
     <use xlink:href="#DejaVuSans-4c" transform="translate(1305.078125 0)"/>
     <use xlink:href="#DejaVuSans-51" transform="translate(1332.859375 0)"/>
     <use xlink:href="#DejaVuSans-48" transform="translate(1396.234375 0)"/>
     <use xlink:href="#DejaVuSans-3" transform="translate(1457.765625 0)"/>
     <use xlink:href="#DejaVuSans-b" transform="translate(1489.546875 0)"/>
     <use xlink:href="#DejaVuSans-24" transform="translate(1528.5625 0)"/>
     <use xlink:href="#DejaVuSans-20" transform="translate(1596.96875 0)"/>
     <use xlink:href="#DejaVuSans-14" transform="translate(1680.765625 0)"/>
     <use xlink:href="#DejaVuSans-11" transform="translate(1744.390625 0)"/>
     <use xlink:href="#DejaVuSans-16" transform="translate(1776.171875 0)"/>
     <use xlink:href="#DejaVuSans-18" transform="translate(1839.796875 0)"/>
     <use xlink:href="#DejaVuSans-f" transform="translate(1903.421875 0)"/>
     <use xlink:href="#DejaVuSans-3" transform="translate(1935.203125 0)"/>
     <use xlink:href="#DejaVuSans-49" transform="translate(1966.984375 0)"/>
     <use xlink:href="#DejaVuSans-20" transform="translate(2002.1875 0)"/>
     <use xlink:href="#DejaVuSans-13" transform="translate(2085.984375 0)"/>
     <use xlink:href="#DejaVuSans-11" transform="translate(2149.609375 0)"/>
     <use xlink:href="#DejaVuSans-1a" transform="translate(2181.390625 0)"/>
     <use xlink:href="#DejaVuSans-18" transform="translate(2245.015625 0)"/>
     <use xlink:href="#DejaVuSans-3" transform="translate(2308.640625 0)"/>
     <use xlink:href="#DejaVuSans-2b" transform="translate(2340.421875 0)"/>
     <use xlink:href="#DejaVuSans-5d" transform="translate(2415.625 0)"/>
     <use xlink:href="#DejaVuSans-c" transform="translate(2468.109375 0)"/>
     <use xlink:href="#DejaVuSans-3" transform="translate(2507.125 0)"/>
     <use xlink:href="#DejaVuSans-5f" transform="translate(2538.90625 0)"/>
     <use xlink:href="#DejaVuSans-3" transform="translate(2572.59375 0)"/>
     <use xlink:href="#DejaVuSans-35" transform="translate(2604.375 0)"/>
     <use xlink:href="#DejaVuSans-20" transform="translate(2673.859375 0)"/>
     <use xlink:href="#DejaVuSans-13" transform="translate(2757.65625 0)"/>
     <use xlink:href="#DejaVuSans-11" transform="translate(2821.28125 0)"/>
     <use xlink:href="#DejaVuSans-15" transform="translate(2853.0625 0)"/>
     <use xlink:href="#DejaVuSans-18" transform="translate(2916.6875 0)"/>
     <use xlink:href="#DejaVuSans-1b" transform="translate(2980.3125 0)"/>
     <use xlink:href="#DejaVuSans-f" transform="translate(3043.9375 0)"/>
     <use xlink:href="#DejaVuSans-3" transform="translate(3075.71875 0)"/>
     <use xlink:href="#DejaVuSans-2f" transform="translate(3107.5 0)"/>
     <use xlink:href="#DejaVuSans-20" transform="translate(3163.21875 0)"/>
     <use xlink:href="#DejaVuSans-15" transform="translate(3247.015625 0)"/>
     <use xlink:href="#DejaVuSans-11" transform="translate(3310.640625 0)"/>
     <use xlink:href="#DejaVuSans-13" transform="translate(3342.421875 0)"/>
     <use xlink:href="#DejaVuSans-13" transform="translate(3406.046875 0)"/>
     <use xlink:href="#DejaVuSans-f" transform="translate(3469.671875 0)"/>
     <use xlink:href="#DejaVuSans-3" transform="translate(3501.453125 0)"/>
     <use xlink:href="#DejaVuSans-26" transform="translate(3533.234375 0)"/>
     <use xlink:href="#DejaVuSans-20" transform="translate(3603.0625 0)"/>
     <use xlink:href="#DejaVuSans-14" transform="translate(3686.859375 0)"/>
     <use xlink:href="#DejaVuSans-11" transform="translate(3750.484375 0)"/>
     <use xlink:href="#DejaVuSans-13" transform="translate(3782.265625 0)"/>
     <use xlink:href="#DejaVuSans-13" transform="translate(3845.890625 0)"/>
     <use xlink:href="#DejaVuSans-f" transform="translate(3909.515625 0)"/>
     <use xlink:href="#DejaVuSans-3" transform="translate(3941.296875 0)"/>
     <use xlink:href="#DejaVuSans-35d" transform="translate(3973.078125 0)"/>
     <use xlink:href="#DejaVuSans-51" transform="translate(4056.8125 0)"/>
     <use xlink:href="#DejaVuSans-20" transform="translate(4120.1875 0)"/>
     <use xlink:href="#DejaVuSans-13" transform="translate(4203.984375 0)"/>
     <use xlink:href="#DejaVuSans-11" transform="translate(4267.609375 0)"/>
     <use xlink:href="#DejaVuSans-1a" transform="translate(4299.390625 0)"/>
     <use xlink:href="#DejaVuSans-14" transform="translate(4363.015625 0)"/>
     <use xlink:href="#DejaVuSans-f" transform="translate(4426.640625 0)"/>
     <use xlink:href="#DejaVuSans-3" transform="translate(4458.421875 0)"/>
     <use xlink:href="#DejaVuSans-34a" transform="translate(4490.203125 0)"/>
     <use xlink:href="#DejaVuSans-20" transform="translate(4544.59375 0)"/>
     <use xlink:href="#DejaVuSans-13" transform="translate(4628.390625 0)"/>
     <use xlink:href="#DejaVuSans-11" transform="translate(4692.015625 0)"/>
     <use xlink:href="#DejaVuSans-13" transform="translate(4723.796875 0)"/>
     <use xlink:href="#DejaVuSans-1c" transform="translate(4787.421875 0)"/>
     <use xlink:href="#DejaVuSans-14" transform="translate(4851.046875 0)"/>
     <use xlink:href="#DejaVuSans-f" transform="translate(4914.671875 0)"/>
     <use xlink:href="#DejaVuSans-3" transform="translate(4946.453125 0)"/>
     <use xlink:href="#DejaVuSans-34" transform="translate(4978.234375 0)"/>
     <use xlink:href="#DejaVuSans-20" transform="translate(5056.953125 0)"/>
     <use xlink:href="#DejaVuSans-18" transform="translate(5140.75 0)"/>
     <use xlink:href="#DejaVuSans-11" transform="translate(5204.375 0)"/>
     <use xlink:href="#DejaVuSans-17" transform="translate(5236.15625 0)"/>
     <use xlink:href="#DejaVuSans-1c" transform="translate(5299.78125 0)"/>
    </g>
   </g>
   <g id="legend_1">
    <g id="patch_7">
     <path d="M 556.217188 217.319648 
L 621.2 217.319648 
Q 623.2 217.319648 623.2 215.319648 
L 623.2 186.318086 
Q 623.2 184.318086 621.2 184.318086 
L 556.217188 184.318086 
Q 554.217188 184.318086 554.217188 186.318086 
L 554.217188 215.319648 
Q 554.217188 217.319648 556.217188 217.319648 
z
" style="fill: #ffffff; opacity: 0.8; stroke: #cccccc; stroke-linejoin: miter"/>
    </g>
    <g id="line2d_25">
     <path d="M 558.217188 192.416523 
L 568.217188 192.416523 
L 578.217188 192.416523 
" style="fill: none; stroke: #1f77b4; stroke-width: 1.5; stroke-linecap: square"/>
    </g>
    <g id="text_15">
     <!-- input -->
     <g transform="translate(586.217188 195.916523) scale(0.1 -0.1)">
      <use xlink:href="#DejaVuSans-4c"/>
      <use xlink:href="#DejaVuSans-51" transform="translate(27.78125 0)"/>
      <use xlink:href="#DejaVuSans-53" transform="translate(91.15625 0)"/>
      <use xlink:href="#DejaVuSans-58" transform="translate(154.640625 0)"/>
      <use xlink:href="#DejaVuSans-57" transform="translate(218.015625 0)"/>
     </g>
    </g>
    <g id="line2d_26">
     <path d="M 558.217188 207.417305 
L 568.217188 207.417305 
L 578.217188 207.417305 
" style="fill: none; stroke: #ff7f0e; stroke-width: 1.5; stroke-linecap: square"/>
    </g>
    <g id="text_16">
     <!-- output -->
     <g transform="translate(586.217188 210.917305) scale(0.1 -0.1)">
      <defs>
       <path id="DejaVuSans-52" d="M 1959 3097 
Q 1497 3097 1228 2736 
Q 959 2375 959 1747 
Q 959 1119 1226 758 
Q 1494 397 1959 397 
Q 2419 397 2687 759 
Q 2956 1122 2956 1747 
Q 2956 2369 2687 2733 
Q 2419 3097 1959 3097 
z
M 1959 3584 
Q 2709 3584 3137 3096 
Q 3566 2609 3566 1747 
Q 3566 888 3137 398 
Q 2709 -91 1959 -91 
Q 1206 -91 779 398 
Q 353 888 353 1747 
Q 353 2609 779 3096 
Q 1206 3584 1959 3584 
z
" transform="scale(0.015625)"/>
      </defs>
      <use xlink:href="#DejaVuSans-52"/>
      <use xlink:href="#DejaVuSans-58" transform="translate(61.1875 0)"/>
      <use xlink:href="#DejaVuSans-57" transform="translate(124.5625 0)"/>
      <use xlink:href="#DejaVuSans-53" transform="translate(163.765625 0)"/>
      <use xlink:href="#DejaVuSans-58" transform="translate(227.25 0)"/>
      <use xlink:href="#DejaVuSans-57" transform="translate(290.625 0)"/>
     </g>
    </g>
   </g>
  </g>
  <g id="axes_2">
   <g id="patch_8">
    <path d="M 60.202344 460.115313 
L 628.2 460.115313 
L 628.2 279.801992 
L 60.202344 279.801992 
z
" style="fill: #ffffff"/>
   </g>
   <g id="matplotlib.axis_3">
    <g id="xtick_7">
     <g id="line2d_27">
      <path d="M 60.202344 460.115313 
L 60.202344 279.801992 
" clip-path="url(#pc4cc51babf)" style="fill: none; stroke: #b0b0b0; stroke-opacity: 0.25; stroke-width: 0.8; stroke-linecap: square"/>
     </g>
     <g id="line2d_28">
      <g>
       <use xlink:href="#m5e7af1af4c" x="60.202344" y="460.115313" style="stroke: #000000; stroke-width: 0.8"/>
      </g>
     </g>
     <g id="text_17">
      <!-- $\mathdefault{10^{-1}}$ -->
      <g transform="translate(48.452344 476.415313) scale(0.1 -0.1)">
       <use xlink:href="#DejaVuSans-14" transform="translate(0 0.665625)"/>
       <use xlink:href="#DejaVuSans-13" transform="translate(63.623047 0.665625)"/>
       <use xlink:href="#DejaVuSans-c9c" transform="translate(128.203125 41.965625) scale(0.7)"/>
       <use xlink:href="#DejaVuSans-14" transform="translate(186.855469 41.965625) scale(0.7)"/>
      </g>
     </g>
    </g>
    <g id="xtick_8">
     <g id="line2d_29">
      <path d="M 344.201172 460.115313 
L 344.201172 279.801992 
" clip-path="url(#pc4cc51babf)" style="fill: none; stroke: #b0b0b0; stroke-opacity: 0.25; stroke-width: 0.8; stroke-linecap: square"/>
     </g>
     <g id="line2d_30">
      <g>
       <use xlink:href="#m5e7af1af4c" x="344.201172" y="460.115313" style="stroke: #000000; stroke-width: 0.8"/>
      </g>
     </g>
     <g id="text_18">
      <!-- $\mathdefault{10^{0}}$ -->
      <g transform="translate(335.401172 476.515313) scale(0.1 -0.1)">
       <use xlink:href="#DejaVuSans-14" transform="translate(0 0.746875)"/>
       <use xlink:href="#DejaVuSans-13" transform="translate(63.623047 0.746875)"/>
       <use xlink:href="#DejaVuSans-13" transform="translate(128.203125 42.046875) scale(0.7)"/>
      </g>
     </g>
    </g>
    <g id="xtick_9">
     <g id="line2d_31">
      <path d="M 628.2 460.115313 
L 628.2 279.801992 
" clip-path="url(#pc4cc51babf)" style="fill: none; stroke: #b0b0b0; stroke-opacity: 0.25; stroke-width: 0.8; stroke-linecap: square"/>
     </g>
     <g id="line2d_32">
      <g>
       <use xlink:href="#m5e7af1af4c" x="628.2" y="460.115313" style="stroke: #000000; stroke-width: 0.8"/>
      </g>
     </g>
     <g id="text_19">
      <!-- $\mathdefault{10^{1}}$ -->
      <g transform="translate(619.4 476.415313) scale(0.1 -0.1)">
       <use xlink:href="#DejaVuSans-14" transform="translate(0 0.665625)"/>
       <use xlink:href="#DejaVuSans-13" transform="translate(63.623047 0.665625)"/>
       <use xlink:href="#DejaVuSans-14" transform="translate(128.203125 41.965625) scale(0.7)"/>
      </g>
     </g>
    </g>
    <g id="xtick_10">
     <g id="line2d_33">
      <defs>
       <path id="m2dbdad5f58" d="M 0 0 
L 0 2 
" style="stroke: #000000; stroke-width: 0.6"/>
      </defs>
      <g>
       <use xlink:href="#m2dbdad5f58" x="145.69451" y="460.115313" style="stroke: #000000; stroke-width: 0.6"/>
      </g>
     </g>
    </g>
    <g id="xtick_11">
     <g id="line2d_34">
      <g>
       <use xlink:href="#m2dbdad5f58" x="195.704221" y="460.115313" style="stroke: #000000; stroke-width: 0.6"/>
      </g>
     </g>
    </g>
    <g id="xtick_12">
     <g id="line2d_35">
      <g>
       <use xlink:href="#m2dbdad5f58" x="231.186676" y="460.115313" style="stroke: #000000; stroke-width: 0.6"/>
      </g>
     </g>
    </g>
    <g id="xtick_13">
     <g id="line2d_36">
      <g>
       <use xlink:href="#m2dbdad5f58" x="258.709006" y="460.115313" style="stroke: #000000; stroke-width: 0.6"/>
      </g>
     </g>
    </g>
    <g id="xtick_14">
     <g id="line2d_37">
      <g>
       <use xlink:href="#m2dbdad5f58" x="281.196387" y="460.115313" style="stroke: #000000; stroke-width: 0.6"/>
      </g>
     </g>
    </g>
    <g id="xtick_15">
     <g id="line2d_38">
      <g>
       <use xlink:href="#m2dbdad5f58" x="300.209197" y="460.115313" style="stroke: #000000; stroke-width: 0.6"/>
      </g>
     </g>
    </g>
    <g id="xtick_16">
     <g id="line2d_39">
      <g>
       <use xlink:href="#m2dbdad5f58" x="316.678842" y="460.115313" style="stroke: #000000; stroke-width: 0.6"/>
      </g>
     </g>
    </g>
    <g id="xtick_17">
     <g id="line2d_40">
      <g>
       <use xlink:href="#m2dbdad5f58" x="331.206098" y="460.115313" style="stroke: #000000; stroke-width: 0.6"/>
      </g>
     </g>
    </g>
    <g id="xtick_18">
     <g id="line2d_41">
      <g>
       <use xlink:href="#m2dbdad5f58" x="429.693338" y="460.115313" style="stroke: #000000; stroke-width: 0.6"/>
      </g>
     </g>
    </g>
    <g id="xtick_19">
     <g id="line2d_42">
      <g>
       <use xlink:href="#m2dbdad5f58" x="479.703049" y="460.115313" style="stroke: #000000; stroke-width: 0.6"/>
      </g>
     </g>
    </g>
    <g id="xtick_20">
     <g id="line2d_43">
      <g>
       <use xlink:href="#m2dbdad5f58" x="515.185504" y="460.115313" style="stroke: #000000; stroke-width: 0.6"/>
      </g>
     </g>
    </g>
    <g id="xtick_21">
     <g id="line2d_44">
      <g>
       <use xlink:href="#m2dbdad5f58" x="542.707834" y="460.115313" style="stroke: #000000; stroke-width: 0.6"/>
      </g>
     </g>
    </g>
    <g id="xtick_22">
     <g id="line2d_45">
      <g>
       <use xlink:href="#m2dbdad5f58" x="565.195215" y="460.115313" style="stroke: #000000; stroke-width: 0.6"/>
      </g>
     </g>
    </g>
    <g id="xtick_23">
     <g id="line2d_46">
      <g>
       <use xlink:href="#m2dbdad5f58" x="584.208025" y="460.115313" style="stroke: #000000; stroke-width: 0.6"/>
      </g>
     </g>
    </g>
    <g id="xtick_24">
     <g id="line2d_47">
      <g>
       <use xlink:href="#m2dbdad5f58" x="600.67767" y="460.115313" style="stroke: #000000; stroke-width: 0.6"/>
      </g>
     </g>
    </g>
    <g id="xtick_25">
     <g id="line2d_48">
      <g>
       <use xlink:href="#m2dbdad5f58" x="615.204926" y="460.115313" style="stroke: #000000; stroke-width: 0.6"/>
      </g>
     </g>
    </g>
    <g id="text_20">
     <!-- frequency [arb.] -->
     <g transform="translate(303.748828 490.516094) scale(0.1 -0.1)">
      <defs>
       <path id="DejaVuSans-54" d="M 947 1747 
Q 947 1113 1208 752 
Q 1469 391 1925 391 
Q 2381 391 2643 752 
Q 2906 1113 2906 1747 
Q 2906 2381 2643 2742 
Q 2381 3103 1925 3103 
Q 1469 3103 1208 2742 
Q 947 2381 947 1747 
z
M 2906 525 
Q 2725 213 2448 61 
Q 2172 -91 1784 -91 
Q 1150 -91 751 415 
Q 353 922 353 1747 
Q 353 2572 751 3078 
Q 1150 3584 1784 3584 
Q 2172 3584 2448 3432 
Q 2725 3281 2906 2969 
L 2906 3500 
L 3481 3500 
L 3481 -1331 
L 2906 -1331 
L 2906 525 
z
" transform="scale(0.015625)"/>
      </defs>
      <use xlink:href="#DejaVuSans-49"/>
      <use xlink:href="#DejaVuSans-55" transform="translate(35.203125 0)"/>
      <use xlink:href="#DejaVuSans-48" transform="translate(74.109375 0)"/>
      <use xlink:href="#DejaVuSans-54" transform="translate(135.640625 0)"/>
      <use xlink:href="#DejaVuSans-58" transform="translate(199.125 0)"/>
      <use xlink:href="#DejaVuSans-48" transform="translate(262.5 0)"/>
      <use xlink:href="#DejaVuSans-51" transform="translate(324.03125 0)"/>
      <use xlink:href="#DejaVuSans-46" transform="translate(387.40625 0)"/>
      <use xlink:href="#DejaVuSans-5c" transform="translate(442.390625 0)"/>
      <use xlink:href="#DejaVuSans-3" transform="translate(501.578125 0)"/>
      <use xlink:href="#DejaVuSans-3e" transform="translate(533.359375 0)"/>
      <use xlink:href="#DejaVuSans-44" transform="translate(572.375 0)"/>
      <use xlink:href="#DejaVuSans-55" transform="translate(633.65625 0)"/>
      <use xlink:href="#DejaVuSans-45" transform="translate(674.765625 0)"/>
      <use xlink:href="#DejaVuSans-11" transform="translate(738.25 0)"/>
      <use xlink:href="#DejaVuSans-40" transform="translate(770.03125 0)"/>
     </g>
    </g>
   </g>
   <g id="matplotlib.axis_4">
    <g id="ytick_6">
     <g id="line2d_49">
      <path d="M 60.202344 450.591242 
L 628.2 450.591242 
" clip-path="url(#pc4cc51babf)" style="fill: none; stroke: #b0b0b0; stroke-opacity: 0.25; stroke-width: 0.8; stroke-linecap: square"/>
     </g>
     <g id="line2d_50">
      <g>
       <use xlink:href="#mb7f8e6f46f" x="60.202344" y="450.591242" style="stroke: #000000; stroke-width: 0.8"/>
      </g>
     </g>
     <g id="text_21">
      <!-- $\mathdefault{10^{-12}}$ -->
      <g transform="translate(25.302344 455.291242) scale(0.1 -0.1)">
       <use xlink:href="#DejaVuSans-14" transform="translate(0 0.746875)"/>
       <use xlink:href="#DejaVuSans-13" transform="translate(63.623047 0.746875)"/>
       <use xlink:href="#DejaVuSans-c9c" transform="translate(128.203125 42.046875) scale(0.7)"/>
       <use xlink:href="#DejaVuSans-14" transform="translate(186.855469 42.046875) scale(0.7)"/>
       <use xlink:href="#DejaVuSans-15" transform="translate(231.391602 42.046875) scale(0.7)"/>
      </g>
     </g>
    </g>
    <g id="ytick_7">
     <g id="line2d_51">
      <path d="M 60.202344 429.015802 
L 628.2 429.015802 
" clip-path="url(#pc4cc51babf)" style="fill: none; stroke: #b0b0b0; stroke-opacity: 0.25; stroke-width: 0.8; stroke-linecap: square"/>
     </g>
     <g id="line2d_52">
      <g>
       <use xlink:href="#mb7f8e6f46f" x="60.202344" y="429.015802" style="stroke: #000000; stroke-width: 0.8"/>
      </g>
     </g>
     <g id="text_22">
      <!-- $\mathdefault{10^{-10}}$ -->
      <g transform="translate(25.302344 433.715802) scale(0.1 -0.1)">
       <use xlink:href="#DejaVuSans-14" transform="translate(0 0.746875)"/>
       <use xlink:href="#DejaVuSans-13" transform="translate(63.623047 0.746875)"/>
       <use xlink:href="#DejaVuSans-c9c" transform="translate(128.203125 42.046875) scale(0.7)"/>
       <use xlink:href="#DejaVuSans-14" transform="translate(186.855469 42.046875) scale(0.7)"/>
       <use xlink:href="#DejaVuSans-13" transform="translate(231.391602 42.046875) scale(0.7)"/>
      </g>
     </g>
    </g>
    <g id="ytick_8">
     <g id="line2d_53">
      <path d="M 60.202344 407.440362 
L 628.2 407.440362 
" clip-path="url(#pc4cc51babf)" style="fill: none; stroke: #b0b0b0; stroke-opacity: 0.25; stroke-width: 0.8; stroke-linecap: square"/>
     </g>
     <g id="line2d_54">
      <g>
       <use xlink:href="#mb7f8e6f46f" x="60.202344" y="407.440362" style="stroke: #000000; stroke-width: 0.8"/>
      </g>
     </g>
     <g id="text_23">
      <!-- $\mathdefault{10^{-8}}$ -->
      <g transform="translate(29.702344 412.140362) scale(0.1 -0.1)">
       <use xlink:href="#DejaVuSans-14" transform="translate(0 0.746875)"/>
       <use xlink:href="#DejaVuSans-13" transform="translate(63.623047 0.746875)"/>
       <use xlink:href="#DejaVuSans-c9c" transform="translate(128.203125 42.046875) scale(0.7)"/>
       <use xlink:href="#DejaVuSans-1b" transform="translate(186.855469 42.046875) scale(0.7)"/>
      </g>
     </g>
    </g>
    <g id="ytick_9">
     <g id="line2d_55">
      <path d="M 60.202344 385.864922 
L 628.2 385.864922 
" clip-path="url(#pc4cc51babf)" style="fill: none; stroke: #b0b0b0; stroke-opacity: 0.25; stroke-width: 0.8; stroke-linecap: square"/>
     </g>
     <g id="line2d_56">
      <g>
       <use xlink:href="#mb7f8e6f46f" x="60.202344" y="385.864922" style="stroke: #000000; stroke-width: 0.8"/>
      </g>
     </g>
     <g id="text_24">
      <!-- $\mathdefault{10^{-6}}$ -->
      <g transform="translate(29.702344 390.564922) scale(0.1 -0.1)">
       <use xlink:href="#DejaVuSans-14" transform="translate(0 0.746875)"/>
       <use xlink:href="#DejaVuSans-13" transform="translate(63.623047 0.746875)"/>
       <use xlink:href="#DejaVuSans-c9c" transform="translate(128.203125 42.046875) scale(0.7)"/>
       <use xlink:href="#DejaVuSans-19" transform="translate(186.855469 42.046875) scale(0.7)"/>
      </g>
     </g>
    </g>
    <g id="ytick_10">
     <g id="line2d_57">
      <path d="M 60.202344 364.289482 
L 628.2 364.289482 
" clip-path="url(#pc4cc51babf)" style="fill: none; stroke: #b0b0b0; stroke-opacity: 0.25; stroke-width: 0.8; stroke-linecap: square"/>
     </g>
     <g id="line2d_58">
      <g>
       <use xlink:href="#mb7f8e6f46f" x="60.202344" y="364.289482" style="stroke: #000000; stroke-width: 0.8"/>
      </g>
     </g>
     <g id="text_25">
      <!-- $\mathdefault{10^{-4}}$ -->
      <g transform="translate(29.702344 368.939482) scale(0.1 -0.1)">
       <use xlink:href="#DejaVuSans-14" transform="translate(0 0.665625)"/>
       <use xlink:href="#DejaVuSans-13" transform="translate(63.623047 0.665625)"/>
       <use xlink:href="#DejaVuSans-c9c" transform="translate(128.203125 41.965625) scale(0.7)"/>
       <use xlink:href="#DejaVuSans-17" transform="translate(186.855469 41.965625) scale(0.7)"/>
      </g>
     </g>
    </g>
    <g id="ytick_11">
     <g id="line2d_59">
      <path d="M 60.202344 342.714042 
L 628.2 342.714042 
" clip-path="url(#pc4cc51babf)" style="fill: none; stroke: #b0b0b0; stroke-opacity: 0.25; stroke-width: 0.8; stroke-linecap: square"/>
     </g>
     <g id="line2d_60">
      <g>
       <use xlink:href="#mb7f8e6f46f" x="60.202344" y="342.714042" style="stroke: #000000; stroke-width: 0.8"/>
      </g>
     </g>
     <g id="text_26">
      <!-- $\mathdefault{10^{-2}}$ -->
      <g transform="translate(29.702344 347.414042) scale(0.1 -0.1)">
       <use xlink:href="#DejaVuSans-14" transform="translate(0 0.746875)"/>
       <use xlink:href="#DejaVuSans-13" transform="translate(63.623047 0.746875)"/>
       <use xlink:href="#DejaVuSans-c9c" transform="translate(128.203125 42.046875) scale(0.7)"/>
       <use xlink:href="#DejaVuSans-15" transform="translate(186.855469 42.046875) scale(0.7)"/>
      </g>
     </g>
    </g>
    <g id="ytick_12">
     <g id="line2d_61">
      <path d="M 60.202344 321.138602 
L 628.2 321.138602 
" clip-path="url(#pc4cc51babf)" style="fill: none; stroke: #b0b0b0; stroke-opacity: 0.25; stroke-width: 0.8; stroke-linecap: square"/>
     </g>
     <g id="line2d_62">
      <g>
       <use xlink:href="#mb7f8e6f46f" x="60.202344" y="321.138602" style="stroke: #000000; stroke-width: 0.8"/>
      </g>
     </g>
     <g id="text_27">
      <!-- $\mathdefault{10^{0}}$ -->
      <g transform="translate(35.602344 325.838602) scale(0.1 -0.1)">
       <use xlink:href="#DejaVuSans-14" transform="translate(0 0.746875)"/>
       <use xlink:href="#DejaVuSans-13" transform="translate(63.623047 0.746875)"/>
       <use xlink:href="#DejaVuSans-13" transform="translate(128.203125 42.046875) scale(0.7)"/>
      </g>
     </g>
    </g>
    <g id="ytick_13">
     <g id="line2d_63">
      <path d="M 60.202344 299.563162 
L 628.2 299.563162 
" clip-path="url(#pc4cc51babf)" style="fill: none; stroke: #b0b0b0; stroke-opacity: 0.25; stroke-width: 0.8; stroke-linecap: square"/>
     </g>
     <g id="line2d_64">
      <g>
       <use xlink:href="#mb7f8e6f46f" x="60.202344" y="299.563162" style="stroke: #000000; stroke-width: 0.8"/>
      </g>
     </g>
     <g id="text_28">
      <!-- $\mathdefault{10^{2}}$ -->
      <g transform="translate(35.602344 304.263162) scale(0.1 -0.1)">
       <use xlink:href="#DejaVuSans-14" transform="translate(0 0.746875)"/>
       <use xlink:href="#DejaVuSans-13" transform="translate(63.623047 0.746875)"/>
       <use xlink:href="#DejaVuSans-15" transform="translate(128.203125 42.046875) scale(0.7)"/>
      </g>
     </g>
    </g>
    <g id="text_29">
     <!-- |FFT(.)| -->
     <g transform="translate(18.9 387.535996) rotate(-90) scale(0.1 -0.1)">
      <defs>
       <path id="DejaVuSans-37" d="M -19 4666 
L 3928 4666 
L 3928 4134 
L 2272 4134 
L 2272 0 
L 1638 0 
L 1638 4134 
L -19 4134 
L -19 4666 
z
" transform="scale(0.015625)"/>
      </defs>
      <use xlink:href="#DejaVuSans-5f"/>
      <use xlink:href="#DejaVuSans-29" transform="translate(33.6875 0)"/>
      <use xlink:href="#DejaVuSans-29" transform="translate(91.203125 0)"/>
      <use xlink:href="#DejaVuSans-37" transform="translate(146.96875 0)"/>
      <use xlink:href="#DejaVuSans-b" transform="translate(208.046875 0)"/>
      <use xlink:href="#DejaVuSans-11" transform="translate(247.0625 0)"/>
      <use xlink:href="#DejaVuSans-c" transform="translate(278.84375 0)"/>
      <use xlink:href="#DejaVuSans-5f" transform="translate(317.859375 0)"/>
     </g>
    </g>
   </g>
   <g id="line2d_65">
    <path d="M 60.202344 302.255698 
L 145.69451 315.609707 
L 195.704221 313.197975 
L 231.186676 309.73487 
L 258.709006 304.693579 
L 281.196387 295.665126 
L 300.209197 288.047099 
L 316.678842 287.998052 
L 331.206098 295.450042 
L 344.201172 304.640027 
L 355.956646 309.821201 
L 366.688553 313.549067 
L 376.56095 316.487495 
L 385.701363 318.923955 
L 394.210883 321.011442 
L 402.171008 322.841632 
L 409.648395 324.473955 
L 416.698264 325.949189 
L 423.366868 327.296548 
L 429.693338 328.537688 
L 435.711074 329.689112 
L 441.448812 330.763695 
L 446.931453 331.771673 
L 452.180719 332.721324 
L 457.215668 333.619442 
L 462.053116 334.471669 
L 466.707975 335.282749 
L 471.193529 336.056706 
L 475.521661 336.796989 
L 479.703049 337.506571 
L 483.747317 338.188041 
L 487.663174 338.843663 
L 491.458523 339.47543 
L 495.140561 340.085109 
L 498.715859 340.67427 
L 502.19043 341.244318 
L 505.569796 341.796515 
L 508.859034 342.331997 
L 512.062828 342.851793 
L 515.185504 343.356837 
L 518.231069 343.847981 
L 521.20324 344.326002 
L 524.105471 344.791613 
L 526.940978 345.245467 
L 529.71276 345.688169 
L 532.423619 346.120275 
L 535.076176 346.542299 
L 537.672885 346.95472 
L 540.21605 347.35798 
L 542.707834 347.752493 
L 545.150273 348.138644 
L 547.545282 348.516792 
L 549.89467 348.887274 
L 552.200141 349.250406 
L 554.463308 349.606483 
L 556.685695 349.955783 
L 558.868745 350.298568 
L 561.013827 350.635085 
L 563.12224 350.965566 
L 565.195215 351.29023 
L 567.233925 351.609286 
L 569.239483 351.92293 
L 571.212951 352.231349 
L 573.15534 352.534719 
L 575.067613 352.833207 
L 576.950689 353.126974 
L 578.805448 353.416171 
L 580.632727 353.700943 
L 582.433331 353.981426 
L 584.208025 354.257753 
L 585.957545 354.530048 
L 587.682596 354.798432 
L 589.383852 355.063017 
L 591.061962 355.323915 
L 592.717545 355.581228 
L 594.3512 355.835058 
L 595.963499 356.085501 
L 597.554994 356.332648 
L 599.126214 356.576588 
L 600.67767 356.817406 
L 602.209853 357.055183 
L 603.723235 357.289997 
L 605.218273 357.521924 
L 606.695406 357.751037 
L 608.155058 357.977405 
L 609.597637 358.201095 
L 611.023539 358.422171 
L 612.433144 358.640698 
L 613.826821 358.856734 
L 615.204926 359.070337 
L 616.567803 359.281564 
L 617.915785 359.49047 
L 619.249194 359.697105 
L 620.568342 359.901522 
L 621.87353 360.103768 
L 623.165051 360.303891 
L 624.443188 360.501937 
L 625.708216 360.69795 
L 626.9604 360.891973 
L 628.2 361.084047 
L 629.427265 361.274214 
" clip-path="url(#pc4cc51babf)" style="fill: none; stroke: #1f77b4; stroke-opacity: 0.6; stroke-width: 1.5; stroke-linecap: square"/>
   </g>
   <g id="line2d_66">
    <path d="M 60.202344 305.234674 
L 145.69451 307.939245 
L 195.704221 320.682199 
L 231.186676 324.082685 
L 258.709006 321.070193 
L 281.196387 312.401481 
L 300.209197 304.813816 
L 316.678842 304.76028 
L 331.206098 312.21862 
L 344.201172 321.424539 
L 355.956646 326.623949 
L 366.688553 330.366602 
L 376.56095 333.312858 
L 385.701363 335.748409 
L 394.210883 337.825614 
L 402.171008 339.636218 
L 409.648395 341.240131 
L 416.698264 342.678829 
L 423.366868 343.982321 
L 429.693338 345.173083 
L 435.711074 346.26842 
L 441.448812 347.281956 
L 446.931453 348.224625 
L 452.180719 349.105336 
L 457.215668 349.93145 
L 462.053116 350.709117 
L 466.707975 351.443528 
L 471.193529 352.139103 
L 475.521661 352.799638 
L 479.703049 353.428412 
L 483.747317 354.028278 
L 487.663174 354.601731 
L 491.458523 355.150967 
L 495.140561 355.677925 
L 498.715859 356.184327 
L 502.19043 356.671708 
L 505.569796 357.141441 
L 508.859034 357.59476 
L 512.062828 358.032775 
L 515.185504 358.456492 
L 518.231069 358.866819 
L 521.20324 359.264586 
L 524.105471 359.650546 
L 526.940978 360.025389 
L 529.71276 360.389747 
L 532.423619 360.744199 
L 535.076176 361.08928 
L 537.672885 361.425481 
L 540.21605 361.753256 
L 542.707834 362.073027 
L 545.150273 362.385183 
L 547.545282 362.690087 
L 549.89467 362.988077 
L 552.200141 363.279466 
L 554.463308 363.564547 
L 556.685695 363.843596 
L 558.868745 364.116868 
L 561.013827 364.384604 
L 563.12224 364.647031 
L 565.195215 364.904359 
L 567.233925 365.15679 
L 569.239483 365.40451 
L 571.212951 365.647698 
L 573.15534 365.886521 
L 575.067613 366.121137 
L 576.950689 366.351697 
L 578.805448 366.578341 
L 580.632727 366.801204 
L 582.433331 367.020415 
L 584.208025 367.236093 
L 585.957545 367.448355 
L 587.682596 367.65731 
L 589.383852 367.863063 
L 591.061962 368.065712 
L 592.717545 368.265352 
L 594.3512 368.462075 
L 595.963499 368.655965 
L 597.554994 368.847107 
L 599.126214 369.035579 
L 600.67767 369.221456 
L 602.209853 369.404811 
L 603.723235 369.585713 
L 605.218273 369.764229 
L 606.695406 369.940422 
L 608.155058 370.114354 
L 609.597637 370.286083 
L 611.023539 370.455666 
L 612.433144 370.623158 
L 613.826821 370.78861 
L 615.204926 370.952073 
L 616.567803 371.113595 
L 617.915785 371.273223 
L 619.249194 371.431002 
L 620.568342 371.586975 
L 621.87353 371.741184 
L 623.165051 371.89367 
L 624.443188 372.044471 
L 625.708216 372.193625 
L 626.9604 372.341169 
L 628.2 372.487137 
L 629.427265 372.631564 
" clip-path="url(#pc4cc51babf)" style="fill: none; stroke: #ff7f0e; stroke-width: 1.5; stroke-linecap: square"/>
   </g>
   <g id="patch_9">
    <path d="M 60.202344 460.115313 
L 60.202344 279.801992 
" style="fill: none; stroke: #000000; stroke-width: 0.8; stroke-linejoin: miter; stroke-linecap: square"/>
   </g>
   <g id="patch_10">
    <path d="M 628.2 460.115313 
L 628.2 279.801992 
" style="fill: none; stroke: #000000; stroke-width: 0.8; stroke-linejoin: miter; stroke-linecap: square"/>
   </g>
   <g id="patch_11">
    <path d="M 60.202344 460.115313 
L 628.2 460.115313 
" style="fill: none; stroke: #000000; stroke-width: 0.8; stroke-linejoin: miter; stroke-linecap: square"/>
   </g>
   <g id="patch_12">
    <path d="M 60.202344 279.801992 
L 628.2 279.801992 
" style="fill: none; stroke: #000000; stroke-width: 0.8; stroke-linejoin: miter; stroke-linecap: square"/>
   </g>
   <g id="text_30">
    <!-- Output FFT peak ≈ 0.800 (arb.), magnitude ≈ 3.298e+01 | low-ish -->
    <g transform="translate(144.483672 273.801992) scale(0.12 -0.12)">
     <defs>
      <path id="DejaVuSans-32" d="M 2522 4238 
Q 1834 4238 1429 3725 
Q 1025 3213 1025 2328 
Q 1025 1447 1429 934 
Q 1834 422 2522 422 
Q 3209 422 3611 934 
Q 4013 1447 4013 2328 
Q 4013 3213 3611 3725 
Q 3209 4238 2522 4238 
z
M 2522 4750 
Q 3503 4750 4090 4092 
Q 4678 3434 4678 2328 
Q 4678 1225 4090 567 
Q 3503 -91 2522 -91 
Q 1538 -91 948 565 
Q 359 1222 359 2328 
Q 359 3434 948 4092 
Q 1538 4750 2522 4750 
z
" transform="scale(0.015625)"/>
      <path id="DejaVuSans-4e" d="M 581 4863 
L 1159 4863 
L 1159 1991 
L 2875 3500 
L 3609 3500 
L 1753 1863 
L 3688 0 
L 2938 0 
L 1159 1709 
L 1159 0 
L 581 0 
L 581 4863 
z
" transform="scale(0.015625)"/>
      <path id="DejaVuSans-cd2" d="M 4684 1947 
L 4684 1388 
Q 4356 1144 4076 1036 
Q 3797 928 3494 928 
Q 3150 928 2694 1113 
Q 2663 1125 2641 1134 
Q 2622 1141 2575 1159 
Q 2091 1350 1797 1350 
Q 1522 1350 1253 1231 
Q 984 1113 678 850 
L 678 1409 
Q 1006 1653 1286 1761 
Q 1566 1869 1869 1869 
Q 2213 1869 2672 1684 
Q 2706 1669 2722 1663 
Q 2741 1656 2788 1638 
Q 3272 1447 3566 1447 
Q 3834 1447 4098 1564 
Q 4363 1681 4684 1947 
z
M 4684 3163 
L 4684 2606 
Q 4356 2359 4076 2251 
Q 3797 2144 3494 2144 
Q 3150 2144 2694 2328 
Q 2663 2341 2641 2350 
Q 2622 2356 2575 2375 
Q 2091 2566 1797 2566 
Q 1522 2566 1253 2447 
Q 984 2328 678 2069 
L 678 2625 
Q 1006 2869 1286 2976 
Q 1566 3084 1869 3084 
Q 2213 3084 2672 2900 
Q 2703 2888 2719 2881 
Q 2741 2872 2788 2853 
Q 3272 2663 3566 2663 
Q 3834 2663 4098 2780 
Q 4363 2897 4684 3163 
z
" transform="scale(0.015625)"/>
      <path id="DejaVuSans-50" d="M 3328 2828 
Q 3544 3216 3844 3400 
Q 4144 3584 4550 3584 
Q 5097 3584 5394 3201 
Q 5691 2819 5691 2113 
L 5691 0 
L 5113 0 
L 5113 2094 
Q 5113 2597 4934 2840 
Q 4756 3084 4391 3084 
Q 3944 3084 3684 2787 
Q 3425 2491 3425 1978 
L 3425 0 
L 2847 0 
L 2847 2094 
Q 2847 2600 2669 2842 
Q 2491 3084 2119 3084 
Q 1678 3084 1418 2786 
Q 1159 2488 1159 1978 
L 1159 0 
L 581 0 
L 581 3500 
L 1159 3500 
L 1159 2956 
Q 1356 3278 1631 3431 
Q 1906 3584 2284 3584 
Q 2666 3584 2933 3390 
Q 3200 3197 3328 2828 
z
" transform="scale(0.015625)"/>
      <path id="DejaVuSans-4a" d="M 2906 1791 
Q 2906 2416 2648 2759 
Q 2391 3103 1925 3103 
Q 1463 3103 1205 2759 
Q 947 2416 947 1791 
Q 947 1169 1205 825 
Q 1463 481 1925 481 
Q 2391 481 2648 825 
Q 2906 1169 2906 1791 
z
M 3481 434 
Q 3481 -459 3084 -895 
Q 2688 -1331 1869 -1331 
Q 1566 -1331 1297 -1286 
Q 1028 -1241 775 -1147 
L 775 -588 
Q 1028 -725 1275 -790 
Q 1522 -856 1778 -856 
Q 2344 -856 2625 -561 
Q 2906 -266 2906 331 
L 2906 616 
Q 2728 306 2450 153 
Q 2172 0 1784 0 
Q 1141 0 747 490 
Q 353 981 353 1791 
Q 353 2603 747 3093 
Q 1141 3584 1784 3584 
Q 2172 3584 2450 3431 
Q 2728 3278 2906 2969 
L 2906 3500 
L 3481 3500 
L 3481 434 
z
" transform="scale(0.015625)"/>
      <path id="DejaVuSans-e" d="M 2944 4013 
L 2944 2272 
L 4684 2272 
L 4684 1741 
L 2944 1741 
L 2944 0 
L 2419 0 
L 2419 1741 
L 678 1741 
L 678 2272 
L 2419 2272 
L 2419 4013 
L 2944 4013 
z
" transform="scale(0.015625)"/>
      <path id="DejaVuSans-5a" d="M 269 3500 
L 844 3500 
L 1563 769 
L 2278 3500 
L 2956 3500 
L 3675 769 
L 4391 3500 
L 4966 3500 
L 4050 0 
L 3372 0 
L 2619 2869 
L 1863 0 
L 1184 0 
L 269 3500 
z
" transform="scale(0.015625)"/>
      <path id="DejaVuSans-4b" d="M 3513 2113 
L 3513 0 
L 2938 0 
L 2938 2094 
Q 2938 2591 2744 2837 
Q 2550 3084 2163 3084 
Q 1697 3084 1428 2787 
Q 1159 2491 1159 1978 
L 1159 0 
L 581 0 
L 581 4863 
L 1159 4863 
L 1159 2956 
Q 1366 3272 1645 3428 
Q 1925 3584 2291 3584 
Q 2894 3584 3203 3211 
Q 3513 2838 3513 2113 
z
" transform="scale(0.015625)"/>
     </defs>
     <use xlink:href="#DejaVuSans-32"/>
     <use xlink:href="#DejaVuSans-58" transform="translate(78.71875 0)"/>
     <use xlink:href="#DejaVuSans-57" transform="translate(142.09375 0)"/>
     <use xlink:href="#DejaVuSans-53" transform="translate(181.296875 0)"/>
     <use xlink:href="#DejaVuSans-58" transform="translate(244.78125 0)"/>
     <use xlink:href="#DejaVuSans-57" transform="translate(308.15625 0)"/>
     <use xlink:href="#DejaVuSans-3" transform="translate(347.359375 0)"/>
     <use xlink:href="#DejaVuSans-29" transform="translate(379.140625 0)"/>
     <use xlink:href="#DejaVuSans-29" transform="translate(436.65625 0)"/>
     <use xlink:href="#DejaVuSans-37" transform="translate(492.421875 0)"/>
     <use xlink:href="#DejaVuSans-3" transform="translate(553.5 0)"/>
     <use xlink:href="#DejaVuSans-53" transform="translate(585.28125 0)"/>
     <use xlink:href="#DejaVuSans-48" transform="translate(648.765625 0)"/>
     <use xlink:href="#DejaVuSans-44" transform="translate(710.296875 0)"/>
     <use xlink:href="#DejaVuSans-4e" transform="translate(771.578125 0)"/>
     <use xlink:href="#DejaVuSans-3" transform="translate(829.484375 0)"/>
     <use xlink:href="#DejaVuSans-cd2" transform="translate(861.265625 0)"/>
     <use xlink:href="#DejaVuSans-3" transform="translate(945.0625 0)"/>
     <use xlink:href="#DejaVuSans-13" transform="translate(976.84375 0)"/>
     <use xlink:href="#DejaVuSans-11" transform="translate(1040.46875 0)"/>
     <use xlink:href="#DejaVuSans-1b" transform="translate(1072.25 0)"/>
     <use xlink:href="#DejaVuSans-13" transform="translate(1135.875 0)"/>
     <use xlink:href="#DejaVuSans-13" transform="translate(1199.5 0)"/>
     <use xlink:href="#DejaVuSans-3" transform="translate(1263.125 0)"/>
     <use xlink:href="#DejaVuSans-b" transform="translate(1294.90625 0)"/>
     <use xlink:href="#DejaVuSans-44" transform="translate(1333.921875 0)"/>
     <use xlink:href="#DejaVuSans-55" transform="translate(1395.203125 0)"/>
     <use xlink:href="#DejaVuSans-45" transform="translate(1436.3125 0)"/>
     <use xlink:href="#DejaVuSans-11" transform="translate(1499.796875 0)"/>
     <use xlink:href="#DejaVuSans-c" transform="translate(1531.578125 0)"/>
     <use xlink:href="#DejaVuSans-f" transform="translate(1570.59375 0)"/>
     <use xlink:href="#DejaVuSans-3" transform="translate(1602.375 0)"/>
     <use xlink:href="#DejaVuSans-50" transform="translate(1634.15625 0)"/>
     <use xlink:href="#DejaVuSans-44" transform="translate(1731.5625 0)"/>
     <use xlink:href="#DejaVuSans-4a" transform="translate(1792.84375 0)"/>
     <use xlink:href="#DejaVuSans-51" transform="translate(1856.328125 0)"/>
     <use xlink:href="#DejaVuSans-4c" transform="translate(1919.703125 0)"/>
     <use xlink:href="#DejaVuSans-57" transform="translate(1947.484375 0)"/>
     <use xlink:href="#DejaVuSans-58" transform="translate(1986.6875 0)"/>
     <use xlink:href="#DejaVuSans-47" transform="translate(2050.0625 0)"/>
     <use xlink:href="#DejaVuSans-48" transform="translate(2113.546875 0)"/>
     <use xlink:href="#DejaVuSans-3" transform="translate(2175.078125 0)"/>
     <use xlink:href="#DejaVuSans-cd2" transform="translate(2206.859375 0)"/>
     <use xlink:href="#DejaVuSans-3" transform="translate(2290.65625 0)"/>
     <use xlink:href="#DejaVuSans-16" transform="translate(2322.4375 0)"/>
     <use xlink:href="#DejaVuSans-11" transform="translate(2386.0625 0)"/>
     <use xlink:href="#DejaVuSans-15" transform="translate(2417.84375 0)"/>
     <use xlink:href="#DejaVuSans-1c" transform="translate(2481.46875 0)"/>
     <use xlink:href="#DejaVuSans-1b" transform="translate(2545.09375 0)"/>
     <use xlink:href="#DejaVuSans-48" transform="translate(2608.71875 0)"/>
     <use xlink:href="#DejaVuSans-e" transform="translate(2670.25 0)"/>
     <use xlink:href="#DejaVuSans-13" transform="translate(2754.046875 0)"/>
     <use xlink:href="#DejaVuSans-14" transform="translate(2817.671875 0)"/>
     <use xlink:href="#DejaVuSans-3" transform="translate(2881.296875 0)"/>
     <use xlink:href="#DejaVuSans-5f" transform="translate(2913.078125 0)"/>
     <use xlink:href="#DejaVuSans-3" transform="translate(2946.765625 0)"/>
     <use xlink:href="#DejaVuSans-4f" transform="translate(2978.546875 0)"/>
     <use xlink:href="#DejaVuSans-52" transform="translate(3006.328125 0)"/>
     <use xlink:href="#DejaVuSans-5a" transform="translate(3067.515625 0)"/>
     <use xlink:href="#DejaVuSans-10" transform="translate(3149.296875 0)"/>
     <use xlink:href="#DejaVuSans-4c" transform="translate(3185.375 0)"/>
     <use xlink:href="#DejaVuSans-56" transform="translate(3213.15625 0)"/>
     <use xlink:href="#DejaVuSans-4b" transform="translate(3265.25 0)"/>
    </g>
   </g>
   <g id="legend_2">
    <g id="patch_13">
     <path d="M 535.603125 317.803555 
L 621.2 317.803555 
Q 623.2 317.803555 623.2 315.803555 
L 623.2 286.801992 
Q 623.2 284.801992 621.2 284.801992 
L 535.603125 284.801992 
Q 533.603125 284.801992 533.603125 286.801992 
L 533.603125 315.803555 
Q 533.603125 317.803555 535.603125 317.803555 
z
" style="fill: #ffffff; opacity: 0.8; stroke: #cccccc; stroke-linejoin: miter"/>
    </g>
    <g id="line2d_67">
     <path d="M 537.603125 292.90043 
L 547.603125 292.90043 
L 557.603125 292.90043 
" style="fill: none; stroke: #1f77b4; stroke-opacity: 0.6; stroke-width: 1.5; stroke-linecap: square"/>
    </g>
    <g id="text_31">
     <!-- input FFT -->
     <g transform="translate(565.603125 296.40043) scale(0.1 -0.1)">
      <use xlink:href="#DejaVuSans-4c"/>
      <use xlink:href="#DejaVuSans-51" transform="translate(27.78125 0)"/>
      <use xlink:href="#DejaVuSans-53" transform="translate(91.15625 0)"/>
      <use xlink:href="#DejaVuSans-58" transform="translate(154.640625 0)"/>
      <use xlink:href="#DejaVuSans-57" transform="translate(218.015625 0)"/>
      <use xlink:href="#DejaVuSans-3" transform="translate(257.21875 0)"/>
      <use xlink:href="#DejaVuSans-29" transform="translate(289 0)"/>
      <use xlink:href="#DejaVuSans-29" transform="translate(346.515625 0)"/>
      <use xlink:href="#DejaVuSans-37" transform="translate(402.28125 0)"/>
     </g>
    </g>
    <g id="line2d_68">
     <path d="M 537.603125 307.901211 
L 547.603125 307.901211 
L 557.603125 307.901211 
" style="fill: none; stroke: #ff7f0e; stroke-width: 1.5; stroke-linecap: square"/>
    </g>
    <g id="text_32">
     <!-- output FFT -->
     <g transform="translate(565.603125 311.401211) scale(0.1 -0.1)">
      <use xlink:href="#DejaVuSans-52"/>
      <use xlink:href="#DejaVuSans-58" transform="translate(61.1875 0)"/>
      <use xlink:href="#DejaVuSans-57" transform="translate(124.5625 0)"/>
      <use xlink:href="#DejaVuSans-53" transform="translate(163.765625 0)"/>
      <use xlink:href="#DejaVuSans-58" transform="translate(227.25 0)"/>
      <use xlink:href="#DejaVuSans-57" transform="translate(290.625 0)"/>
      <use xlink:href="#DejaVuSans-3" transform="translate(329.828125 0)"/>
      <use xlink:href="#DejaVuSans-29" transform="translate(361.609375 0)"/>
      <use xlink:href="#DejaVuSans-29" transform="translate(419.125 0)"/>
      <use xlink:href="#DejaVuSans-37" transform="translate(474.890625 0)"/>
     </g>
    </g>
   </g>
  </g>
 </g>
 <defs>
  <clipPath id="p0cb7bb53e1">
   <rect x="60.202344" y="42.006328" width="567.997656" height="180.31332"/>
  </clipPath>
  <clipPath id="pc4cc51babf">
   <rect x="60.202344" y="279.801992" width="567.997656" height="180.31332"/>
  </clipPath>
 </defs>
</svg>
