<?xml version="1.0" encoding="utf-8" standalone="no"?>
<!DOCTYPE svg PUBLIC "-//W3C//DTD SVG 1.1//EN"
  "http://www.w3.org/Graphics/SVG/1.1/DTD/svg11.dtd">
<svg xmlns:xlink="http://www.w3.org/1999/xlink" width="648pt" height="504pt" viewBox="0 0 648 504" xmlns="http://www.w3.org/2000/svg" version="1.1">
 <metadata>
  <rdf:RDF xmlns:dc="http://purl.org/dc/elements/1.1/" xmlns:cc="http://creativecommons.org/ns#" xmlns:rdf="http://www.w3.org/1999/02/22-rdf-syntax-ns#">
   <cc:Work>
    <dc:type rdf:resource="http://purl.org/dc/dcmitype/StillImage"/>
    <dc:date>2026-07-01T04:42:30.050181</dc:date>
    <dc:format>image/svg+xml</dc:format>
    <dc:creator>
     <cc:Agent>
      <dc:title>Matplotlib v3.11.0, https://matplotlib.org/</dc:title>
     </cc:Agent>
    </dc:creator>
   </cc:Work>
  </rdf:RDF>
 </metadata>
 <defs>
  <style type="text/css">*{stroke-linejoin: round; stroke-linecap: butt}</style>
 </defs>
 <g id="figure_1">
  <g id="patch_1">
   <path d="M 0 504 
L 648 504 
L 648 0 
L 0 0 
z
" style="fill: #ffffff"/>
  </g>
  <g id="axes_1">
   <g id="patch_2">
    <path d="M 56.602344 222.319648 
L 628.2 222.319648 
L 628.2 42.006328 
L 56.602344 42.006328 
z
" style="fill: #ffffff"/>
   </g>
   <g id="matplotlib.axis_1">
    <g id="xtick_1">
     <g id="line2d_1">
      <path d="M 82.584055 222.319648 
L 82.584055 42.006328 
" clip-path="url(#pe30a1ae1dc)" style="fill: none; stroke: #b0b0b0; stroke-opacity: 0.25; stroke-width: 0.8; stroke-linecap: square"/>
     </g>
     <g id="line2d_2">
      <defs>
       <path id="m02f9c5fc8c" d="M 0 0 
L 0 3.5 
" style="stroke: #000000; stroke-width: 0.8"/>
      </defs>
      <g>
       <use xlink:href="#m02f9c5fc8c" x="82.584055" y="222.319648" style="stroke: #000000; stroke-width: 0.8"/>
      </g>
     </g>
     <g id="text_1">
      <!-- 0 -->
      <g transform="translate(79.402805 236.917305) scale(0.1 -0.1)">
       <defs>
        <path id="DejaVuSans-13" d="M 2034 4250 
Q 1547 4250 1301 3770 
Q 1056 3291 1056 2328 
Q 1056 1369 1301 889 
Q 1547 409 2034 409 
Q 2525 409 2770 889 
Q 3016 1369 3016 2328 
Q 3016 3291 2770 3770 
Q 2525 4250 2034 4250 
z
M 2034 4750 
Q 2819 4750 3233 4129 
Q 3647 3509 3647 2328 
Q 3647 1150 3233 529 
Q 2819 -91 2034 -91 
Q 1250 -91 836 529 
Q 422 1150 422 2328 
Q 422 3509 836 4129 
Q 1250 4750 2034 4750 
z
" transform="scale(0.015625)"/>
       </defs>
       <use xlink:href="#DejaVuSans-13"/>
      </g>
     </g>
    </g>
    <g id="xtick_2">
     <g id="line2d_3">
      <path d="M 186.536281 222.319648 
L 186.536281 42.006328 
" clip-path="url(#pe30a1ae1dc)" style="fill: none; stroke: #b0b0b0; stroke-opacity: 0.25; stroke-width: 0.8; stroke-linecap: square"/>
     </g>
     <g id="line2d_4">
      <g>
       <use xlink:href="#m02f9c5fc8c" x="186.536281" y="222.319648" style="stroke: #000000; stroke-width: 0.8"/>
      </g>
     </g>
     <g id="text_2">
      <!-- 2 -->
      <g transform="translate(183.355031 236.917305) scale(0.1 -0.1)">
       <defs>
        <path id="DejaVuSans-15" d="M 1228 531 
L 3431 531 
L 3431 0 
L 469 0 
L 469 531 
Q 828 903 1448 1529 
Q 2069 2156 2228 2338 
Q 2531 2678 2651 2914 
Q 2772 3150 2772 3378 
Q 2772 3750 2511 3984 
Q 2250 4219 1831 4219 
Q 1534 4219 1204 4116 
Q 875 4013 500 3803 
L 500 4441 
Q 881 4594 1212 4672 
Q 1544 4750 1819 4750 
Q 2544 4750 2975 4387 
Q 3406 4025 3406 3419 
Q 3406 3131 3298 2873 
Q 3191 2616 2906 2266 
Q 2828 2175 2409 1742 
Q 1991 1309 1228 531 
z
" transform="scale(0.015625)"/>
       </defs>
       <use xlink:href="#DejaVuSans-15"/>
      </g>
     </g>
    </g>
    <g id="xtick_3">
     <g id="line2d_5">
      <path d="M 290.488507 222.319648 
L 290.488507 42.006328 
" clip-path="url(#pe30a1ae1dc)" style="fill: none; stroke: #b0b0b0; stroke-opacity: 0.25; stroke-width: 0.8; stroke-linecap: square"/>
     </g>
     <g id="line2d_6">
      <g>
       <use xlink:href="#m02f9c5fc8c" x="290.488507" y="222.319648" style="stroke: #000000; stroke-width: 0.8"/>
      </g>
     </g>
     <g id="text_3">
      <!-- 4 -->
      <g transform="translate(287.307257 236.917305) scale(0.1 -0.1)">
       <defs>
        <path id="DejaVuSans-17" d="M 2419 4116 
L 825 1625 
L 2419 1625 
L 2419 4116 
z
M 2253 4666 
L 3047 4666 
L 3047 1625 
L 3713 1625 
L 3713 1100 
L 3047 1100 
L 3047 0 
L 2419 0 
L 2419 1100 
L 313 1100 
L 313 1709 
L 2253 4666 
z
" transform="scale(0.015625)"/>
       </defs>
       <use xlink:href="#DejaVuSans-17"/>
      </g>
     </g>
    </g>
    <g id="xtick_4">
     <g id="line2d_7">
      <path d="M 394.440732 222.319648 
L 394.440732 42.006328 
" clip-path="url(#pe30a1ae1dc)" style="fill: none; stroke: #b0b0b0; stroke-opacity: 0.25; stroke-width: 0.8; stroke-linecap: square"/>
     </g>
     <g id="line2d_8">
      <g>
       <use xlink:href="#m02f9c5fc8c" x="394.440732" y="222.319648" style="stroke: #000000; stroke-width: 0.8"/>
      </g>
     </g>
     <g id="text_4">
      <!-- 6 -->
      <g transform="translate(391.259482 236.917305) scale(0.1 -0.1)">
       <defs>
        <path id="DejaVuSans-19" d="M 2113 2584 
Q 1688 2584 1439 2293 
Q 1191 2003 1191 1497 
Q 1191 994 1439 701 
Q 1688 409 2113 409 
Q 2538 409 2786 701 
Q 3034 994 3034 1497 
Q 3034 2003 2786 2293 
Q 2538 2584 2113 2584 
z
M 3366 4563 
L 3366 3988 
Q 3128 4100 2886 4159 
Q 2644 4219 2406 4219 
Q 1781 4219 1451 3797 
Q 1122 3375 1075 2522 
Q 1259 2794 1537 2939 
Q 1816 3084 2150 3084 
Q 2853 3084 3261 2657 
Q 3669 2231 3669 1497 
Q 3669 778 3244 343 
Q 2819 -91 2113 -91 
Q 1303 -91 875 529 
Q 447 1150 447 2328 
Q 447 3434 972 4092 
Q 1497 4750 2381 4750 
Q 2619 4750 2861 4703 
Q 3103 4656 3366 4563 
z
" transform="scale(0.015625)"/>
       </defs>
       <use xlink:href="#DejaVuSans-19"/>
      </g>
     </g>
    </g>
    <g id="xtick_5">
     <g id="line2d_9">
      <path d="M 498.392958 222.319648 
L 498.392958 42.006328 
" clip-path="url(#pe30a1ae1dc)" style="fill: none; stroke: #b0b0b0; stroke-opacity: 0.25; stroke-width: 0.8; stroke-linecap: square"/>
     </g>
     <g id="line2d_10">
      <g>
       <use xlink:href="#m02f9c5fc8c" x="498.392958" y="222.319648" style="stroke: #000000; stroke-width: 0.8"/>
      </g>
     </g>
     <g id="text_5">
      <!-- 8 -->
      <g transform="translate(495.211708 236.917305) scale(0.1 -0.1)">
       <defs>
        <path id="DejaVuSans-1b" d="M 2034 2216 
Q 1584 2216 1326 1975 
Q 1069 1734 1069 1313 
Q 1069 891 1326 650 
Q 1584 409 2034 409 
Q 2484 409 2743 651 
Q 3003 894 3003 1313 
Q 3003 1734 2745 1975 
Q 2488 2216 2034 2216 
z
M 1403 2484 
Q 997 2584 770 2862 
Q 544 3141 544 3541 
Q 544 4100 942 4425 
Q 1341 4750 2034 4750 
Q 2731 4750 3128 4425 
Q 3525 4100 3525 3541 
Q 3525 3141 3298 2862 
Q 3072 2584 2669 2484 
Q 3125 2378 3379 2068 
Q 3634 1759 3634 1313 
Q 3634 634 3220 271 
Q 2806 -91 2034 -91 
Q 1263 -91 848 271 
Q 434 634 434 1313 
Q 434 1759 690 2068 
Q 947 2378 1403 2484 
z
M 1172 3481 
Q 1172 3119 1398 2916 
Q 1625 2713 2034 2713 
Q 2441 2713 2670 2916 
Q 2900 3119 2900 3481 
Q 2900 3844 2670 4047 
Q 2441 4250 2034 4250 
Q 1625 4250 1398 4047 
Q 1172 3844 1172 3481 
z
" transform="scale(0.015625)"/>
       </defs>
       <use xlink:href="#DejaVuSans-1b"/>
      </g>
     </g>
    </g>
    <g id="xtick_6">
     <g id="line2d_11">
      <path d="M 602.345183 222.319648 
L 602.345183 42.006328 
" clip-path="url(#pe30a1ae1dc)" style="fill: none; stroke: #b0b0b0; stroke-opacity: 0.25; stroke-width: 0.8; stroke-linecap: square"/>
     </g>
     <g id="line2d_12">
      <g>
       <use xlink:href="#m02f9c5fc8c" x="602.345183" y="222.319648" style="stroke: #000000; stroke-width: 0.8"/>
      </g>
     </g>
     <g id="text_6">
      <!-- 10 -->
      <g transform="translate(595.982683 236.917305) scale(0.1 -0.1)">
       <defs>
        <path id="DejaVuSans-14" d="M 794 531 
L 1825 531 
L 1825 4091 
L 703 3866 
L 703 4441 
L 1819 4666 
L 2450 4666 
L 2450 531 
L 3481 531 
L 3481 0 
L 794 0 
L 794 531 
z
" transform="scale(0.015625)"/>
       </defs>
       <use xlink:href="#DejaVuSans-14"/>
       <use xlink:href="#DejaVuSans-13" transform="translate(63.625 0)"/>
      </g>
     </g>
    </g>
    <g id="text_7">
     <!-- t [arb.] -->
     <g transform="translate(325.067578 250.918086) scale(0.1 -0.1)">
      <defs>
       <path id="DejaVuSans-57" d="M 1172 4494 
L 1172 3500 
L 2356 3500 
L 2356 3053 
L 1172 3053 
L 1172 1153 
Q 1172 725 1289 603 
Q 1406 481 1766 481 
L 2356 481 
L 2356 0 
L 1766 0 
Q 1100 0 847 248 
Q 594 497 594 1153 
L 594 3053 
L 172 3053 
L 172 3500 
L 594 3500 
L 594 4494 
L 1172 4494 
z
" transform="scale(0.015625)"/>
       <path id="DejaVuSans-3" transform="scale(0.015625)"/>
       <path id="DejaVuSans-3e" d="M 550 4863 
L 1875 4863 
L 1875 4416 
L 1125 4416 
L 1125 -397 
L 1875 -397 
L 1875 -844 
L 550 -844 
L 550 4863 
z
" transform="scale(0.015625)"/>
       <path id="DejaVuSans-44" d="M 2194 1759 
Q 1497 1759 1228 1600 
Q 959 1441 959 1056 
Q 959 750 1161 570 
Q 1363 391 1709 391 
Q 2188 391 2477 730 
Q 2766 1069 2766 1631 
L 2766 1759 
L 2194 1759 
z
M 3341 1997 
L 3341 0 
L 2766 0 
L 2766 531 
Q 2569 213 2275 61 
Q 1981 -91 1556 -91 
Q 1019 -91 701 211 
Q 384 513 384 1019 
Q 384 1609 779 1909 
Q 1175 2209 1959 2209 
L 2766 2209 
L 2766 2266 
Q 2766 2663 2505 2880 
Q 2244 3097 1772 3097 
Q 1472 3097 1187 3025 
Q 903 2953 641 2809 
L 641 3341 
Q 956 3463 1253 3523 
Q 1550 3584 1831 3584 
Q 2591 3584 2966 3190 
Q 3341 2797 3341 1997 
z
" transform="scale(0.015625)"/>
       <path id="DejaVuSans-55" d="M 2631 2963 
Q 2534 3019 2420 3045 
Q 2306 3072 2169 3072 
Q 1681 3072 1420 2755 
Q 1159 2438 1159 1844 
L 1159 0 
L 581 0 
L 581 3500 
L 1159 3500 
L 1159 2956 
Q 1341 3275 1631 3429 
Q 1922 3584 2338 3584 
Q 2397 3584 2469 3576 
Q 2541 3569 2628 3553 
L 2631 2963 
z
" transform="scale(0.015625)"/>
       <path id="DejaVuSans-45" d="M 3116 1747 
Q 3116 2381 2855 2742 
Q 2594 3103 2138 3103 
Q 1681 3103 1420 2742 
Q 1159 2381 1159 1747 
Q 1159 1113 1420 752 
Q 1681 391 2138 391 
Q 2594 391 2855 752 
Q 3116 1113 3116 1747 
z
M 1159 2969 
Q 1341 3281 1617 3432 
Q 1894 3584 2278 3584 
Q 2916 3584 3314 3078 
Q 3713 2572 3713 1747 
Q 3713 922 3314 415 
Q 2916 -91 2278 -91 
Q 1894 -91 1617 61 
Q 1341 213 1159 525 
L 1159 0 
L 581 0 
L 581 4863 
L 1159 4863 
L 1159 2969 
z
" transform="scale(0.015625)"/>
       <path id="DejaVuSans-11" d="M 684 794 
L 1344 794 
L 1344 0 
L 684 0 
L 684 794 
z
" transform="scale(0.015625)"/>
       <path id="DejaVuSans-40" d="M 1947 4863 
L 1947 -844 
L 622 -844 
L 622 -397 
L 1369 -397 
L 1369 4416 
L 622 4416 
L 622 4863 
L 1947 4863 
z
" transform="scale(0.015625)"/>
      </defs>
      <use xlink:href="#DejaVuSans-57"/>
      <use xlink:href="#DejaVuSans-3" transform="translate(39.203125 0)"/>
      <use xlink:href="#DejaVuSans-3e" transform="translate(70.984375 0)"/>
      <use xlink:href="#DejaVuSans-44" transform="translate(110 0)"/>
      <use xlink:href="#DejaVuSans-55" transform="translate(171.28125 0)"/>
      <use xlink:href="#DejaVuSans-45" transform="translate(212.390625 0)"/>
      <use xlink:href="#DejaVuSans-11" transform="translate(275.875 0)"/>
      <use xlink:href="#DejaVuSans-40" transform="translate(307.65625 0)"/>
     </g>
    </g>
   </g>
   <g id="matplotlib.axis_2">
    <g id="ytick_1">
     <g id="line2d_13">
      <path d="M 56.602344 222.211553 
L 628.2 222.211553 
" clip-path="url(#pe30a1ae1dc)" style="fill: none; stroke: #b0b0b0; stroke-opacity: 0.25; stroke-width: 0.8; stroke-linecap: square"/>
     </g>
     <g id="line2d_14">
      <defs>
       <path id="mcd66dfa5fb" d="M 0 0 
L -3.5 0 
" style="stroke: #000000; stroke-width: 0.8"/>
      </defs>
      <g>
       <use xlink:href="#mcd66dfa5fb" x="56.602344" y="222.211553" style="stroke: #000000; stroke-width: 0.8"/>
      </g>
     </g>
     <g id="text_8">
      <!-- −1.5 -->
      <g transform="translate(25.319531 226.010381) scale(0.1 -0.1)">
       <defs>
        <path id="DejaVuSans-c9c" d="M 678 2272 
L 4684 2272 
L 4684 1741 
L 678 1741 
L 678 2272 
z
" transform="scale(0.015625)"/>
        <path id="DejaVuSans-18" d="M 691 4666 
L 3169 4666 
L 3169 4134 
L 1269 4134 
L 1269 2991 
Q 1406 3038 1543 3061 
Q 1681 3084 1819 3084 
Q 2600 3084 3056 2656 
Q 3513 2228 3513 1497 
Q 3513 744 3044 326 
Q 2575 -91 1722 -91 
Q 1428 -91 1123 -41 
Q 819 9 494 109 
L 494 744 
Q 775 591 1075 516 
Q 1375 441 1709 441 
Q 2250 441 2565 725 
Q 2881 1009 2881 1497 
Q 2881 1984 2565 2268 
Q 2250 2553 1709 2553 
Q 1456 2553 1204 2497 
Q 953 2441 691 2322 
L 691 4666 
z
" transform="scale(0.015625)"/>
       </defs>
       <use xlink:href="#DejaVuSans-c9c"/>
       <use xlink:href="#DejaVuSans-14" transform="translate(83.796875 0)"/>
       <use xlink:href="#DejaVuSans-11" transform="translate(147.421875 0)"/>
       <use xlink:href="#DejaVuSans-18" transform="translate(179.203125 0)"/>
      </g>
     </g>
    </g>
    <g id="ytick_2">
     <g id="line2d_15">
      <path d="M 56.602344 191.831321 
L 628.2 191.831321 
" clip-path="url(#pe30a1ae1dc)" style="fill: none; stroke: #b0b0b0; stroke-opacity: 0.25; stroke-width: 0.8; stroke-linecap: square"/>
     </g>
     <g id="line2d_16">
      <g>
       <use xlink:href="#mcd66dfa5fb" x="56.602344" y="191.831321" style="stroke: #000000; stroke-width: 0.8"/>
      </g>
     </g>
     <g id="text_9">
      <!-- −1.0 -->
      <g transform="translate(25.319531 195.630149) scale(0.1 -0.1)">
       <use xlink:href="#DejaVuSans-c9c"/>
       <use xlink:href="#DejaVuSans-14" transform="translate(83.796875 0)"/>
       <use xlink:href="#DejaVuSans-11" transform="translate(147.421875 0)"/>
       <use xlink:href="#DejaVuSans-13" transform="translate(179.203125 0)"/>
      </g>
     </g>
    </g>
    <g id="ytick_3">
     <g id="line2d_17">
      <path d="M 56.602344 161.451088 
L 628.2 161.451088 
" clip-path="url(#pe30a1ae1dc)" style="fill: none; stroke: #b0b0b0; stroke-opacity: 0.25; stroke-width: 0.8; stroke-linecap: square"/>
     </g>
     <g id="line2d_18">
      <g>
       <use xlink:href="#mcd66dfa5fb" x="56.602344" y="161.451088" style="stroke: #000000; stroke-width: 0.8"/>
      </g>
     </g>
     <g id="text_10">
      <!-- −0.5 -->
      <g transform="translate(25.319531 165.249916) scale(0.1 -0.1)">
       <use xlink:href="#DejaVuSans-c9c"/>
       <use xlink:href="#DejaVuSans-13" transform="translate(83.796875 0)"/>
       <use xlink:href="#DejaVuSans-11" transform="translate(147.421875 0)"/>
       <use xlink:href="#DejaVuSans-18" transform="translate(179.203125 0)"/>
      </g>
     </g>
    </g>
    <g id="ytick_4">
     <g id="line2d_19">
      <path d="M 56.602344 131.070856 
L 628.2 131.070856 
" clip-path="url(#pe30a1ae1dc)" style="fill: none; stroke: #b0b0b0; stroke-opacity: 0.25; stroke-width: 0.8; stroke-linecap: square"/>
     </g>
     <g id="line2d_20">
      <g>
       <use xlink:href="#mcd66dfa5fb" x="56.602344" y="131.070856" style="stroke: #000000; stroke-width: 0.8"/>
      </g>
     </g>
     <g id="text_11">
      <!-- 0.0 -->
      <g transform="translate(33.699219 134.869684) scale(0.1 -0.1)">
       <use xlink:href="#DejaVuSans-13"/>
       <use xlink:href="#DejaVuSans-11" transform="translate(63.625 0)"/>
       <use xlink:href="#DejaVuSans-13" transform="translate(95.40625 0)"/>
      </g>
     </g>
    </g>
    <g id="ytick_5">
     <g id="line2d_21">
      <path d="M 56.602344 100.690623 
L 628.2 100.690623 
" clip-path="url(#pe30a1ae1dc)" style="fill: none; stroke: #b0b0b0; stroke-opacity: 0.25; stroke-width: 0.8; stroke-linecap: square"/>
     </g>
     <g id="line2d_22">
      <g>
       <use xlink:href="#mcd66dfa5fb" x="56.602344" y="100.690623" style="stroke: #000000; stroke-width: 0.8"/>
      </g>
     </g>
     <g id="text_12">
      <!-- 0.5 -->
      <g transform="translate(33.699219 104.489451) scale(0.1 -0.1)">
       <use xlink:href="#DejaVuSans-13"/>
       <use xlink:href="#DejaVuSans-11" transform="translate(63.625 0)"/>
       <use xlink:href="#DejaVuSans-18" transform="translate(95.40625 0)"/>
      </g>
     </g>
    </g>
    <g id="ytick_6">
     <g id="line2d_23">
      <path d="M 56.602344 70.310391 
L 628.2 70.310391 
" clip-path="url(#pe30a1ae1dc)" style="fill: none; stroke: #b0b0b0; stroke-opacity: 0.25; stroke-width: 0.8; stroke-linecap: square"/>
     </g>
     <g id="line2d_24">
      <g>
       <use xlink:href="#mcd66dfa5fb" x="56.602344" y="70.310391" style="stroke: #000000; stroke-width: 0.8"/>
      </g>
     </g>
     <g id="text_13">
      <!-- 1.0 -->
      <g transform="translate(33.699219 74.109219) scale(0.1 -0.1)">
       <use xlink:href="#DejaVuSans-14"/>
       <use xlink:href="#DejaVuSans-11" transform="translate(63.625 0)"/>
       <use xlink:href="#DejaVuSans-13" transform="translate(95.40625 0)"/>
      </g>
     </g>
    </g>
    <g id="text_14">
     <!-- [arb.] -->
     <g transform="translate(18.917188 145.947363) rotate(-90) scale(0.1 -0.1)">
      <use xlink:href="#DejaVuSans-3e"/>
      <use xlink:href="#DejaVuSans-44" transform="translate(39.015625 0)"/>
      <use xlink:href="#DejaVuSans-55" transform="translate(100.296875 0)"/>
      <use xlink:href="#DejaVuSans-45" transform="translate(141.40625 0)"/>
      <use xlink:href="#DejaVuSans-11" transform="translate(204.890625 0)"/>
      <use xlink:href="#DejaVuSans-40" transform="translate(236.671875 0)"/>
     </g>
    </g>
   </g>
   <g id="line2d_25">
    <path d="M 82.584055 131.070856 
L 86.13711 97.916856 
L 88.040532 82.212442 
L 89.56327 71.408287 
L 90.832218 63.881363 
L 91.974271 58.408014 
L 92.98943 54.663122 
L 93.750798 52.581608 
L 94.512167 51.142783 
L 95.146641 50.443366 
L 95.65422 50.213897 
L 96.1618 50.278796 
L 96.669379 50.637827 
L 97.176958 51.289683 
L 97.811432 52.512571 
L 98.572801 54.569018 
L 99.461065 57.758459 
L 100.476223 62.401294 
L 101.618276 68.814764 
L 102.887224 77.279061 
L 104.409962 89.030349 
L 106.313384 105.602351 
L 109.35886 134.441182 
L 112.658125 165.072016 
L 114.561547 180.668073 
L 116.084284 191.358084 
L 117.353232 198.774113 
L 118.495286 204.137599 
L 119.383549 207.383512 
L 120.144918 209.490066 
L 120.906287 210.954504 
L 121.540761 211.675553 
L 122.04834 211.922427 
L 122.555919 211.874952 
L 123.063499 211.533301 
L 123.571078 210.898719 
L 124.205552 209.697176 
L 124.966921 207.665821 
L 125.855184 204.504678 
L 126.870343 199.892508 
L 128.012396 193.510871 
L 129.281344 185.077949 
L 130.804082 173.3578 
L 132.707504 156.813299 
L 135.752979 127.989098 
L 139.052244 97.331944 
L 140.955666 81.70206 
L 142.478404 70.976498 
L 143.747352 63.525972 
L 144.889405 58.128338 
L 145.777669 54.854251 
L 146.539038 52.722684 
L 147.300407 51.23265 
L 147.934881 50.489979 
L 148.44246 50.225704 
L 148.950039 50.255754 
L 149.457618 50.58002 
L 149.965198 51.197321 
L 150.599672 52.377504 
L 151.361041 54.383739 
L 152.249304 57.516545 
L 153.264463 62.097991 
L 154.406516 68.447714 
L 155.675464 76.849153 
L 157.198202 88.538014 
L 159.101624 105.054802 
L 162.147099 133.864006 
L 165.446364 164.54709 
L 167.349786 180.2106 
L 168.872524 190.971577 
L 170.141472 198.456505 
L 171.283525 203.888218 
L 172.171789 207.190437 
L 173.060052 209.644503 
L 173.694527 210.8626 
L 174.329001 211.626884 
L 174.83658 211.908557 
L 175.344159 211.895932 
L 175.851738 211.589055 
L 176.359317 210.989043 
L 176.993791 209.830237 
L 177.75516 207.849145 
L 178.516529 205.239374 
L 179.404793 201.428848 
L 180.419951 196.116895 
L 181.688899 188.156515 
L 183.084742 177.910106 
L 184.86127 163.048791 
L 187.272271 140.743074 
L 192.094273 95.648406 
L 193.870801 81.194794 
L 195.393538 70.548501 
L 196.662487 63.174844 
L 197.80454 57.853266 
L 198.692803 54.641909 
L 199.454172 52.566021 
L 200.215541 51.132949 
L 200.850015 50.43839 
L 201.357594 50.212829 
L 201.865174 50.28164 
L 202.372753 50.644573 
L 202.880332 51.300305 
L 203.514806 52.527984 
L 204.276175 54.590061 
L 205.164439 57.785849 
L 206.179597 62.435561 
L 207.32165 68.856167 
L 208.590598 77.327493 
L 210.113336 89.085752 
L 212.016758 105.6639 
L 215.062233 134.505965 
L 218.361498 165.130835 
L 220.264921 180.719271 
L 221.787658 191.401281 
L 223.056606 198.809552 
L 224.19866 204.165362 
L 225.086923 207.404943 
L 225.848292 209.505878 
L 226.609661 210.964567 
L 227.244135 211.68076 
L 227.751714 211.923726 
L 228.259293 211.872339 
L 228.766873 211.526786 
L 229.274452 210.888325 
L 229.908926 209.681988 
L 230.670295 207.644997 
L 231.558558 204.477498 
L 232.573717 199.858438 
L 233.71577 193.469646 
L 234.984718 185.029671 
L 236.507456 173.302517 
L 238.410878 156.751824 
L 241.456353 127.924306 
L 244.755618 97.273027 
L 246.65904 81.650721 
L 248.181778 70.933128 
L 249.450726 63.49034 
L 250.592779 58.100366 
L 251.481043 54.832602 
L 252.242412 52.706647 
L 253.003781 51.222359 
L 253.638255 50.484542 
L 254.145834 50.224173 
L 254.653413 50.258136 
L 255.160992 50.586305 
L 255.668572 51.207487 
L 256.303046 52.392466 
L 257.064414 54.404344 
L 257.952678 57.543515 
L 258.967837 62.131864 
L 260.10989 68.48876 
L 261.378838 76.897276 
L 262.901576 88.593175 
L 264.804998 105.116203 
L 267.850473 133.928807 
L 271.149738 164.606103 
L 273.05316 180.262081 
L 274.575898 191.015118 
L 275.844846 198.49233 
L 276.986899 203.916398 
L 277.875163 207.212305 
L 278.763426 209.659815 
L 279.3979 210.87312 
L 280.032374 211.632552 
L 280.539954 211.91032 
L 281.047533 211.893782 
L 281.555112 211.583001 
L 282.062691 210.979107 
L 282.697165 209.8155 
L 283.458534 207.828761 
L 284.219903 205.213509 
L 285.108167 201.396859 
L 286.123325 196.078349 
L 287.392273 188.11057 
L 288.788116 177.857234 
L 290.564643 162.989225 
L 292.975645 140.678696 
L 297.797647 95.590129 
L 299.574175 81.143771 
L 301.096912 70.505516 
L 302.36586 63.139643 
L 303.507914 57.825759 
L 304.396177 54.620746 
L 305.157546 52.550484 
L 305.918915 51.123167 
L 306.553389 50.433466 
L 307.060968 50.211813 
L 307.568547 50.284536 
L 308.076127 50.65137 
L 308.583706 51.310979 
L 309.21818 52.543447 
L 309.979549 54.611153 
L 310.867812 57.813287 
L 311.882971 62.469873 
L 313.025024 68.89761 
L 314.293972 77.37596 
L 315.81671 89.141182 
L 317.720132 105.725465 
L 320.765607 134.570745 
L 324.064872 165.189633 
L 325.968294 180.770437 
L 327.491032 191.44444 
L 328.75998 198.844947 
L 329.902033 204.193078 
L 330.790297 207.426325 
L 331.551666 209.521639 
L 332.313035 210.974579 
L 332.947509 211.685915 
L 333.455088 211.924973 
L 333.962667 211.869674 
L 334.470246 211.520219 
L 334.977826 210.877879 
L 335.6123 209.66675 
L 336.373669 207.624124 
L 337.261932 204.45027 
L 338.277091 199.824323 
L 339.419144 193.428381 
L 340.688092 184.981358 
L 342.21083 173.247208 
L 344.114252 156.690332 
L 347.159727 127.859516 
L 350.458992 97.214132 
L 352.362414 81.599413 
L 353.885152 70.889797 
L 355.1541 63.45475 
L 356.296153 58.072441 
L 357.184417 54.811001 
L 357.945786 52.690661 
L 358.707155 51.212119 
L 359.341629 50.479156 
L 359.849208 50.222694 
L 360.356787 50.260569 
L 360.864366 50.592641 
L 361.371945 51.217703 
L 362.006419 52.407479 
L 362.767788 54.424997 
L 363.656052 57.570532 
L 364.67121 62.165782 
L 365.813264 68.529846 
L 367.082212 76.945435 
L 368.604949 88.648363 
L 370.508372 105.177621 
L 373.553847 133.993605 
L 376.853112 164.665095 
L 378.756534 180.31353 
L 380.279272 191.058621 
L 381.54822 198.528113 
L 382.690273 203.944532 
L 383.578537 207.234124 
L 384.339905 209.379461 
L 385.101274 210.883589 
L 385.735748 211.638169 
L 386.243328 211.91203 
L 386.750907 211.891581 
L 387.258486 211.576895 
L 387.766065 210.969119 
L 388.400539 209.800712 
L 389.161908 207.808327 
L 390.050172 204.691151 
L 391.06533 200.126658 
L 392.207383 193.794553 
L 393.476332 185.410506 
L 394.999069 173.738948 
L 396.902491 157.237519 
L 399.821072 129.656374 
L 403.247232 97.73953 
L 405.150654 82.057579 
L 406.673391 71.277149 
L 407.942339 63.773307 
L 409.084393 58.322847 
L 409.972656 55.005146 
L 410.86092 52.534998 
L 411.622289 51.113435 
L 412.256763 50.428594 
L 412.764342 50.210849 
L 413.271921 50.287484 
L 413.779501 50.658219 
L 414.28708 51.321704 
L 414.921554 52.558961 
L 415.682923 54.632295 
L 416.571186 57.840772 
L 417.586345 62.504228 
L 418.728398 68.939093 
L 419.997346 77.424462 
L 421.520084 89.19664 
L 423.423506 105.787047 
L 426.468981 134.635523 
L 429.768246 165.248409 
L 431.671668 180.82157 
L 433.194406 191.487559 
L 434.463354 198.880299 
L 435.605407 204.220746 
L 436.493671 207.447659 
L 437.25504 209.53735 
L 438.016409 210.984539 
L 438.650883 211.691018 
L 439.158462 211.926169 
L 439.666041 211.866958 
L 440.17362 211.5136 
L 440.6812 210.867383 
L 441.315674 209.651461 
L 442.077042 207.603202 
L 442.965306 204.422995 
L 443.980465 199.790164 
L 445.122518 193.387076 
L 446.391466 184.93301 
L 447.914204 173.191871 
L 449.817626 156.628823 
L 452.863101 127.794728 
L 456.162366 97.155259 
L 458.065788 81.548137 
L 459.588526 70.846505 
L 460.857474 63.419205 
L 461.999527 58.044563 
L 462.887791 54.789449 
L 463.64916 52.674726 
L 464.410528 51.20193 
L 465.045002 50.473822 
L 465.552582 50.221267 
L 466.060161 50.263054 
L 466.56774 50.59903 
L 467.075319 51.227971 
L 467.709793 52.422543 
L 468.471162 54.4457 
L 469.359426 57.597597 
L 470.374584 62.199744 
L 471.516638 68.570972 
L 472.785586 76.993628 
L 474.308323 88.703579 
L 476.211745 105.239056 
L 479.257221 134.058402 
L 482.556486 164.724064 
L 484.459908 180.364947 
L 485.982646 191.102085 
L 487.251594 198.563852 
L 488.393647 203.972619 
L 489.28191 207.255894 
L 490.043279 209.395621 
L 490.804648 210.894006 
L 491.439122 211.643734 
L 491.946701 211.913689 
L 492.454281 211.889327 
L 492.96186 211.570737 
L 493.469439 210.959079 
L 494.103913 209.785873 
L 494.865282 207.787843 
L 495.753546 204.664297 
L 496.768704 200.092894 
L 497.910757 193.753606 
L 499.179705 185.362468 
L 500.702443 173.683854 
L 502.605865 157.176158 
L 505.524446 129.591544 
L 508.950606 97.680465 
L 510.854028 82.006021 
L 512.376765 71.233513 
L 513.645713 63.737375 
L 514.787767 58.294552 
L 515.67603 54.983158 
L 516.564294 52.519562 
L 517.198768 51.294499 
L 517.833242 50.523162 
L 518.340821 50.23581 
L 518.8484 50.242746 
L 519.35598 50.543946 
L 519.863559 51.138312 
L 520.498033 52.290137 
L 521.259402 54.263015 
L 522.020771 56.864814 
L 522.909034 60.666433 
L 523.924193 65.968844 
L 525.193141 73.918458 
L 526.588984 84.154784 
L 528.365511 99.006349 
L 530.776512 121.305043 
L 535.598515 166.408529 
L 537.375042 180.872672 
L 538.89778 191.53064 
L 540.166728 198.915607 
L 541.308781 204.248368 
L 542.197045 207.468943 
L 542.958414 209.553011 
L 543.719783 210.994447 
L 544.354257 211.696069 
L 544.861836 211.927313 
L 545.369415 211.86419 
L 545.876994 211.50693 
L 546.384573 210.856835 
L 547.019047 209.636122 
L 547.780416 207.582231 
L 548.66868 204.395673 
L 549.683838 199.755961 
L 550.825892 193.345731 
L 552.09484 184.884628 
L 553.617577 173.136507 
L 555.521 156.567298 
L 558.566475 127.729942 
L 561.86574 97.096408 
L 563.769162 81.496893 
L 565.2919 70.803252 
L 566.560848 63.383703 
L 567.702901 58.016732 
L 568.591165 54.767946 
L 569.352533 52.658841 
L 570.113902 51.191793 
L 570.748376 50.46854 
L 571.255956 50.219892 
L 571.763535 50.265591 
L 572.271114 50.60547 
L 572.778693 51.238291 
L 573.413167 52.437657 
L 574.174536 54.466453 
L 575.0628 57.624709 
L 576.077958 62.23375 
L 577.220011 68.612138 
L 578.48896 77.041855 
L 580.011697 88.758822 
L 581.915119 105.300508 
L 584.960595 134.123197 
L 588.25986 164.783013 
L 590.163282 180.416333 
L 591.686019 191.145511 
L 592.954967 198.599548 
L 594.097021 204.000659 
L 594.985284 207.277615 
L 595.746653 209.411731 
L 596.508022 210.904372 
L 597.142496 211.649247 
L 597.650075 211.915295 
L 598.157655 211.887021 
L 598.665234 211.564528 
L 599.172813 210.948989 
L 599.807287 209.770984 
L 600.568656 207.767311 
L 601.45692 204.637396 
L 602.218288 201.300621 
L 602.218288 201.300621 
" clip-path="url(#pe30a1ae1dc)" style="fill: none; stroke: #1f77b4; stroke-width: 1.5; stroke-linecap: square"/>
   </g>
   <g id="line2d_26">
    <path d="M 82.584055 131.070856 
L 85.88332 100.362624 
L 87.786742 84.671764 
L 89.30948 73.882413 
L 90.578428 66.369759 
L 91.720481 60.910222 
L 92.73564 57.177993 
L 93.497009 55.106009 
L 94.258378 53.676588 
L 94.892852 52.984813 
L 95.400431 52.761273 
L 95.90801 52.831895 
L 96.415589 53.196404 
L 96.923169 53.853455 
L 97.557643 55.082386 
L 98.319011 57.145329 
L 99.207275 60.341167 
L 100.222434 64.989556 
L 101.364487 71.406772 
L 102.633435 79.871814 
L 104.156173 91.618867 
L 106.059595 108.177269 
L 109.10507 136.974891 
L 112.404335 167.536199 
L 114.307757 183.082552 
L 115.830495 193.729093 
L 117.099443 201.107139 
L 118.241496 206.435612 
L 119.12976 209.654053 
L 119.891129 211.737077 
L 120.652497 213.178147 
L 121.286971 213.879943 
L 121.794551 214.111617 
L 122.30213 214.049165 
L 122.809709 213.692797 
L 123.317288 213.043796 
L 123.951762 211.824704 
L 124.713131 209.773078 
L 125.601395 206.589512 
L 126.616553 201.953534 
L 127.758607 195.547692 
L 129.027555 187.09139 
L 130.550292 175.348451 
L 132.453714 158.783986 
L 135.49919 129.9478 
L 138.798455 99.303278 
L 140.701877 83.690632 
L 142.224614 72.982757 
L 143.493563 65.548858 
L 144.635616 60.167119 
L 145.523879 56.9057 
L 146.285248 54.78502 
L 147.046617 53.305755 
L 147.681091 52.571868 
L 148.18867 52.314439 
L 148.69625 52.351132 
L 149.203829 52.681799 
L 149.711408 53.305221 
L 150.345882 54.492606 
L 151.107251 56.506735 
L 151.995515 59.647574 
L 153.010673 64.23645 
L 154.152726 70.592036 
L 155.421674 78.996576 
L 156.944412 90.684032 
L 158.847834 107.190746 
L 161.89331 135.964327 
L 165.192574 166.583796 
L 167.095997 182.200919 
L 168.618734 192.921022 
L 169.887682 200.37009 
L 171.029736 205.768666 
L 171.917999 209.04485 
L 172.679368 211.17909 
L 173.440737 212.672532 
L 174.075211 213.418555 
L 174.58279 213.685813 
L 175.090369 213.658989 
L 175.597949 213.338168 
L 176.105528 212.724505 
L 176.740002 211.5491 
L 177.501371 209.548866 
L 178.389634 206.423317 
L 179.404793 201.850314 
L 180.546846 195.510011 
L 181.815794 187.11857 
L 183.338532 175.440475 
L 185.241954 158.934261 
L 188.160534 131.352121 
L 191.586694 99.441102 
L 193.490116 83.764035 
L 195.012854 72.987601 
L 196.281802 65.486789 
L 197.423855 60.038596 
L 198.312119 56.722238 
L 199.200383 54.252977 
L 199.961751 52.831758 
L 200.596226 52.146875 
L 201.103805 51.928866 
L 201.611384 52.005019 
L 202.118963 52.375045 
L 202.626542 53.037586 
L 203.261016 54.273316 
L 204.022385 56.344294 
L 204.910649 59.549275 
L 205.925807 64.207722 
L 207.067861 70.635635 
L 208.336809 79.111644 
L 209.859546 90.870367 
L 211.762968 107.440748 
L 214.935339 137.467505 
L 218.107709 166.816094 
L 220.011131 182.360488 
L 221.533869 193.003532 
L 222.802817 200.377557 
L 223.94487 205.701704 
L 224.833134 208.916411 
L 225.594502 210.996037 
L 226.355871 212.433573 
L 226.990345 213.132356 
L 227.497925 213.361594 
L 228.005504 213.296698 
L 228.513083 212.937894 
L 229.020662 212.286478 
L 229.655136 211.06442 
L 230.416505 209.009345 
L 231.304769 205.821967 
L 232.319927 201.181998 
L 233.46198 194.772252 
L 234.730928 186.312493 
L 236.253666 174.566843 
L 238.157088 158.001519 
L 241.202564 129.170469 
L 244.501829 98.540861 
L 246.405251 82.940948 
L 247.927988 72.245137 
L 249.196936 64.822364 
L 250.33899 59.451319 
L 251.227253 56.198571 
L 251.988622 54.085509 
L 252.749991 52.613987 
L 253.384465 51.886613 
L 253.892044 51.634415 
L 254.399624 51.676342 
L 254.907203 52.01223 
L 255.414782 52.640848 
L 256.049256 53.834669 
L 256.810625 55.856401 
L 257.698888 59.005885 
L 258.714047 63.604258 
L 259.8561 69.969921 
L 261.125048 78.38475 
L 262.647786 90.083073 
L 264.551208 106.600782 
L 267.596683 135.385298 
L 270.895948 166.007051 
L 272.79937 181.621259 
L 274.322108 192.337097 
L 275.591056 199.781498 
L 276.733109 205.175162 
L 277.621373 208.447154 
L 278.382742 210.577599 
L 279.144111 212.067109 
L 279.778585 212.809783 
L 280.286164 213.074337 
L 280.793743 213.044801 
L 281.301323 212.721273 
L 281.808902 212.104922 
L 282.443376 210.926209 
L 283.204745 208.922114 
L 284.093008 205.792269 
L 285.108167 201.214718 
L 286.25022 194.869881 
L 287.519168 186.474277 
L 289.041906 174.79262 
L 290.945328 158.284478 
L 293.990803 129.486229 
L 297.290068 98.807832 
L 299.19349 83.142465 
L 300.716228 72.377282 
L 301.985176 64.886932 
L 303.127229 59.448846 
L 304.015493 56.140708 
L 304.903757 53.679905 
L 305.538231 52.456513 
L 306.172705 51.686549 
L 306.680284 51.400066 
L 307.187863 51.407654 
L 307.695442 51.709278 
L 308.203022 52.303832 
L 308.837496 53.455547 
L 309.598864 55.427767 
L 310.360233 58.028316 
L 311.248497 61.827707 
L 312.263655 67.126536 
L 313.532603 75.070109 
L 314.928446 85.297805 
L 316.704974 100.13551 
L 319.115975 122.410761 
L 323.937978 167.45595 
L 325.714505 181.896759 
L 327.237242 192.534791 
L 328.506191 199.903539 
L 329.648244 205.222236 
L 330.536507 208.432339 
L 331.297876 210.507823 
L 332.059245 211.941084 
L 332.693719 212.636239 
L 333.201298 212.862549 
L 333.708878 212.79472 
L 334.216457 212.432992 
L 334.724036 211.778674 
L 335.35851 210.553041 
L 336.119879 208.49379 
L 337.008143 205.301755 
L 338.023301 200.656834 
L 339.165354 194.242107 
L 340.434302 185.777701 
L 341.95704 174.027923 
L 343.860462 157.459978 
L 346.905938 128.631276 
L 350.205202 98.013598 
L 352.108625 82.424712 
L 353.631362 71.739607 
L 354.90031 64.326835 
L 356.042364 58.965475 
L 356.930627 55.720615 
L 357.691996 53.614503 
L 358.453365 52.150056 
L 359.087839 51.428641 
L 359.595418 51.181231 
L 360.102997 51.227948 
L 360.610577 51.568616 
L 361.118156 52.201988 
L 361.75263 53.401695 
L 362.513999 55.430371 
L 363.402262 58.587733 
L 364.417421 63.194729 
L 365.559474 69.569488 
L 366.828422 77.99352 
L 368.35116 89.701415 
L 370.254582 106.228509 
L 373.300057 135.021405 
L 376.599322 165.642709 
L 378.502744 181.252441 
L 380.025482 191.962775 
L 381.29443 199.401483 
L 382.436483 204.789317 
L 383.324747 208.056405 
L 384.086116 210.182448 
L 384.847485 211.667422 
L 385.481959 212.406246 
L 385.989538 212.667695 
L 386.497117 212.635046 
L 387.004696 212.308412 
L 387.512276 211.688977 
L 388.14675 210.506459 
L 388.908118 208.49791 
L 389.796382 205.36308 
L 390.811541 200.780198 
L 391.953594 194.429947 
L 393.222542 186.02921 
L 394.74528 174.342834 
L 396.648702 157.831329 
L 399.694177 129.034236 
L 402.993442 98.366492 
L 404.896864 82.711434 
L 406.419602 71.956397 
L 407.68855 64.475592 
L 408.830603 59.046788 
L 409.718867 55.746232 
L 410.60713 53.293251 
L 411.241604 52.075552 
L 411.876078 51.311339 
L 412.383658 51.029479 
L 412.891237 51.041696 
L 413.398816 51.34794 
L 413.906395 51.94709 
L 414.540869 53.104497 
L 415.302238 55.083431 
L 416.063607 57.690524 
L 416.951871 61.497276 
L 417.967029 66.804073 
L 419.235977 74.756801 
L 420.63182 84.993348 
L 422.408347 99.840182 
L 424.819349 122.123529 
L 429.641351 167.169106 
L 431.417879 181.605025 
L 432.940616 192.237033 
L 434.209564 199.599666 
L 435.351618 204.912163 
L 436.239881 208.117082 
L 437.00125 210.187927 
L 437.762619 211.616422 
L 438.397093 212.307537 
L 438.904672 212.530594 
L 439.412252 212.459506 
L 439.919831 212.094527 
L 440.42741 211.436982 
L 441.061884 210.20737 
L 441.823253 208.14346 
L 442.711516 204.946207 
L 443.726675 200.295694 
L 444.868728 193.875272 
L 446.137676 185.405428 
L 447.660414 173.650579 
L 449.563836 157.078846 
L 452.609311 128.250641 
L 455.908576 97.642911 
L 457.811998 82.063921 
L 459.334736 71.388621 
L 460.603684 63.985101 
L 461.745737 58.632756 
L 462.634001 55.395263 
L 463.39537 53.295656 
L 464.156739 51.837841 
L 464.791213 51.122015 
L 465.298792 50.879098 
L 465.806371 50.930311 
L 466.313951 51.275464 
L 466.82153 51.913297 
L 467.456004 53.118523 
L 468.217373 55.153703 
L 469.105636 58.318431 
L 470.120795 62.933467 
L 471.262848 69.316669 
L 472.531796 77.74918 
L 474.054534 89.465781 
L 475.957956 106.001183 
L 479.003431 134.800752 
L 482.302696 165.41978 
L 484.206118 181.023995 
L 485.728856 191.727997 
L 486.997804 199.160328 
L 488.139857 204.54172 
L 489.028121 207.80343 
L 489.78949 209.924667 
L 490.550859 211.404701 
L 491.185333 212.139341 
L 491.692912 212.397417 
L 492.200491 212.361389 
L 492.70807 212.031384 
L 493.215649 211.408599 
L 493.850124 210.221947 
L 494.611492 208.20855 
L 495.499756 205.068276 
L 496.514914 200.479541 
L 497.656968 194.123295 
L 498.925916 185.716781 
L 500.448653 174.024919 
L 502.352076 157.509099 
L 505.397551 128.711653 
L 508.696816 98.05295 
L 510.600238 82.407279 
L 512.122976 71.661653 
L 513.391924 64.189783 
L 514.533977 58.769716 
L 515.422241 55.476318 
L 516.310504 53.030734 
L 516.944978 51.818427 
L 517.579452 51.059663 
L 518.087032 50.782186 
L 518.594611 50.798791 
L 519.10219 51.109415 
L 519.609769 51.712922 
L 520.244243 52.875721 
L 521.005612 54.86101 
L 521.766981 57.47429 
L 522.655245 61.287985 
L 523.670403 66.602275 
L 524.939351 74.563565 
L 526.335194 84.808312 
L 528.111721 99.663453 
L 530.522723 121.953787 
L 535.344725 166.997564 
L 537.121253 181.427796 
L 538.64399 192.053104 
L 539.912938 199.409062 
L 541.054992 204.71486 
L 541.943255 207.914207 
L 542.704624 209.980085 
L 543.465993 211.403483 
L 544.100467 212.090287 
L 544.608046 212.309872 
L 545.115625 212.235307 
L 545.623205 211.866862 
L 546.130784 211.205875 
L 546.765258 209.972015 
L 547.526627 207.903124 
L 548.41489 204.700278 
L 549.430049 200.04375 
L 550.572102 193.617157 
L 551.84105 185.141352 
L 553.363788 173.380806 
L 555.26721 156.80451 
L 558.312685 127.975577 
L 561.61195 97.376484 
L 563.515372 81.806637 
L 565.03811 71.140545 
L 566.307058 63.745782 
L 567.449111 58.402006 
L 568.337375 55.171535 
L 569.098744 53.078137 
L 569.860113 51.626659 
L 570.494587 50.916176 
L 571.002166 50.677554 
L 571.509745 50.733068 
L 572.017324 51.08251 
L 572.524904 51.724608 
L 573.159378 52.935108 
L 573.920746 54.9765 
L 574.80901 58.148253 
L 575.824169 62.770939 
L 576.966222 69.162147 
L 578.23517 77.602652 
L 579.757908 89.327381 
L 581.66133 105.870371 
L 584.706805 134.675471 
L 588.00607 165.291 
L 589.909492 180.889 
L 591.43223 191.586118 
L 592.701178 199.011613 
L 593.843231 204.386154 
L 594.731495 207.642171 
L 595.492864 209.758332 
L 596.254232 211.233157 
L 596.888706 211.963389 
L 597.396286 212.217915 
L 597.903865 212.178331 
L 598.411444 211.844778 
L 598.919023 211.218469 
L 599.553497 210.027463 
L 600.314866 208.008954 
L 601.20313 204.862933 
L 602.218288 200.267999 
L 602.218288 200.267999 
" clip-path="url(#pe30a1ae1dc)" style="fill: none; stroke: #ff7f0e; stroke-width: 1.5; stroke-linecap: square"/>
   </g>
   <g id="patch_3">
    <path d="M 56.602344 222.319648 
L 56.602344 42.006328 
" style="fill: none; stroke: #000000; stroke-width: 0.8; stroke-linejoin: miter; stroke-linecap: square"/>
   </g>
   <g id="patch_4">
    <path d="M 628.2 222.319648 
L 628.2 42.006328 
" style="fill: none; stroke: #000000; stroke-width: 0.8; stroke-linejoin: miter; stroke-linecap: square"/>
   </g>
   <g id="patch_5">
    <path d="M 56.602344 222.319648 
L 628.2 222.319648 
" style="fill: none; stroke: #000000; stroke-width: 0.8; stroke-linejoin: miter; stroke-linecap: square"/>
   </g>
   <g id="patch_6">
    <path d="M 56.602344 42.006328 
L 628.2 42.006328 
" style="fill: none; stroke: #000000; stroke-width: 0.8; stroke-linejoin: miter; stroke-linecap: square"/>
   </g>
   <g id="text_15">
    <!-- Daily Useless RC (2026-07-01) | verdict: feral -->
    <g transform="translate(206.959609 21.550547) scale(0.12 -0.12)">
     <defs>
      <path id="DejaVuSans-27" d="M 1259 4147 
L 1259 519 
L 2022 519 
Q 2988 519 3436 956 
Q 3884 1394 3884 2338 
Q 3884 3275 3436 3711 
Q 2988 4147 2022 4147 
L 1259 4147 
z
M 628 4666 
L 1925 4666 
Q 3281 4666 3915 4102 
Q 4550 3538 4550 2338 
Q 4550 1131 3912 565 
Q 3275 0 1925 0 
L 628 0 
L 628 4666 
z
" transform="scale(0.015625)"/>
      <path id="DejaVuSans-4c" d="M 603 3500 
L 1178 3500 
L 1178 0 
L 603 0 
L 603 3500 
z
M 603 4863 
L 1178 4863 
L 1178 4134 
L 603 4134 
L 603 4863 
z
" transform="scale(0.015625)"/>
      <path id="DejaVuSans-4f" d="M 603 4863 
L 1178 4863 
L 1178 0 
L 603 0 
L 603 4863 
z
" transform="scale(0.015625)"/>
      <path id="DejaVuSans-5c" d="M 2059 -325 
Q 1816 -950 1584 -1140 
Q 1353 -1331 966 -1331 
L 506 -1331 
L 506 -850 
L 844 -850 
Q 1081 -850 1212 -737 
Q 1344 -625 1503 -206 
L 1606 56 
L 191 3500 
L 800 3500 
L 1894 763 
L 2988 3500 
L 3597 3500 
L 2059 -325 
z
" transform="scale(0.015625)"/>
      <path id="DejaVuSans-38" d="M 556 4666 
L 1191 4666 
L 1191 1831 
Q 1191 1081 1462 751 
Q 1734 422 2344 422 
Q 2950 422 3222 751 
Q 3494 1081 3494 1831 
L 3494 4666 
L 4128 4666 
L 4128 1753 
Q 4128 841 3676 375 
Q 3225 -91 2344 -91 
Q 1459 -91 1007 375 
Q 556 841 556 1753 
L 556 4666 
z
" transform="scale(0.015625)"/>
      <path id="DejaVuSans-56" d="M 2834 3397 
L 2834 2853 
Q 2591 2978 2328 3040 
Q 2066 3103 1784 3103 
Q 1356 3103 1142 2972 
Q 928 2841 928 2578 
Q 928 2378 1081 2264 
Q 1234 2150 1697 2047 
L 1894 2003 
Q 2506 1872 2764 1633 
Q 3022 1394 3022 966 
Q 3022 478 2636 193 
Q 2250 -91 1575 -91 
Q 1294 -91 989 -36 
Q 684 19 347 128 
L 347 722 
Q 666 556 975 473 
Q 1284 391 1588 391 
Q 1994 391 2212 530 
Q 2431 669 2431 922 
Q 2431 1156 2273 1281 
Q 2116 1406 1581 1522 
L 1381 1569 
Q 847 1681 609 1914 
Q 372 2147 372 2553 
Q 372 3047 722 3315 
Q 1072 3584 1716 3584 
Q 2034 3584 2315 3537 
Q 2597 3491 2834 3397 
z
" transform="scale(0.015625)"/>
      <path id="DejaVuSans-48" d="M 3597 1894 
L 3597 1613 
L 953 1613 
Q 991 1019 1311 708 
Q 1631 397 2203 397 
Q 2534 397 2845 478 
Q 3156 559 3463 722 
L 3463 178 
Q 3153 47 2828 -22 
Q 2503 -91 2169 -91 
Q 1331 -91 842 396 
Q 353 884 353 1716 
Q 353 2575 817 3079 
Q 1281 3584 2069 3584 
Q 2775 3584 3186 3129 
Q 3597 2675 3597 1894 
z
M 3022 2063 
Q 3016 2534 2758 2815 
Q 2500 3097 2075 3097 
Q 1594 3097 1305 2825 
Q 1016 2553 972 2059 
L 3022 2063 
z
" transform="scale(0.015625)"/>
      <path id="DejaVuSans-35" d="M 2841 2188 
Q 3044 2119 3236 1894 
Q 3428 1669 3622 1275 
L 4263 0 
L 3584 0 
L 2988 1197 
Q 2756 1666 2539 1819 
Q 2322 1972 1947 1972 
L 1259 1972 
L 1259 0 
L 628 0 
L 628 4666 
L 2053 4666 
Q 2853 4666 3247 4331 
Q 3641 3997 3641 3322 
Q 3641 2881 3436 2590 
Q 3231 2300 2841 2188 
z
M 1259 4147 
L 1259 2491 
L 2053 2491 
Q 2509 2491 2742 2702 
Q 2975 2913 2975 3322 
Q 2975 3731 2742 3939 
Q 2509 4147 2053 4147 
L 1259 4147 
z
" transform="scale(0.015625)"/>
      <path id="DejaVuSans-26" d="M 4122 4306 
L 4122 3641 
Q 3803 3938 3442 4084 
Q 3081 4231 2675 4231 
Q 1875 4231 1450 3742 
Q 1025 3253 1025 2328 
Q 1025 1406 1450 917 
Q 1875 428 2675 428 
Q 3081 428 3442 575 
Q 3803 722 4122 1019 
L 4122 359 
Q 3791 134 3420 21 
Q 3050 -91 2638 -91 
Q 1578 -91 968 557 
Q 359 1206 359 2328 
Q 359 3453 968 4101 
Q 1578 4750 2638 4750 
Q 3056 4750 3426 4639 
Q 3797 4528 4122 4306 
z
" transform="scale(0.015625)"/>
      <path id="DejaVuSans-b" d="M 1984 4856 
Q 1566 4138 1362 3434 
Q 1159 2731 1159 2009 
Q 1159 1288 1364 580 
Q 1569 -128 1984 -844 
L 1484 -844 
Q 1016 -109 783 600 
Q 550 1309 550 2009 
Q 550 2706 781 3412 
Q 1013 4119 1484 4856 
L 1984 4856 
z
" transform="scale(0.015625)"/>
      <path id="DejaVuSans-10" d="M 313 2009 
L 1997 2009 
L 1997 1497 
L 313 1497 
L 313 2009 
z
" transform="scale(0.015625)"/>
      <path id="DejaVuSans-1a" d="M 525 4666 
L 3525 4666 
L 3525 4397 
L 1831 0 
L 1172 0 
L 2766 4134 
L 525 4134 
L 525 4666 
z
" transform="scale(0.015625)"/>
      <path id="DejaVuSans-c" d="M 513 4856 
L 1013 4856 
Q 1481 4119 1714 3412 
Q 1947 2706 1947 2009 
Q 1947 1309 1714 600 
Q 1481 -109 1013 -844 
L 513 -844 
Q 928 -128 1133 580 
Q 1338 1288 1338 2009 
Q 1338 2731 1133 3434 
Q 928 4138 513 4856 
z
" transform="scale(0.015625)"/>
      <path id="DejaVuSans-5f" d="M 1344 4891 
L 1344 -1509 
L 813 -1509 
L 813 4891 
L 1344 4891 
z
" transform="scale(0.015625)"/>
      <path id="DejaVuSans-59" d="M 191 3500 
L 800 3500 
L 1894 563 
L 2988 3500 
L 3597 3500 
L 2284 0 
L 1503 0 
L 191 3500 
z
" transform="scale(0.015625)"/>
      <path id="DejaVuSans-47" d="M 2906 2969 
L 2906 4863 
L 3481 4863 
L 3481 0 
L 2906 0 
L 2906 525 
Q 2725 213 2448 61 
Q 2172 -91 1784 -91 
Q 1150 -91 751 415 
Q 353 922 353 1747 
Q 353 2572 751 3078 
Q 1150 3584 1784 3584 
Q 2172 3584 2448 3432 
Q 2725 3281 2906 2969 
z
M 947 1747 
Q 947 1113 1208 752 
Q 1469 391 1925 391 
Q 2381 391 2643 752 
Q 2906 1113 2906 1747 
Q 2906 2381 2643 2742 
Q 2381 3103 1925 3103 
Q 1469 3103 1208 2742 
Q 947 2381 947 1747 
z
" transform="scale(0.015625)"/>
      <path id="DejaVuSans-46" d="M 3122 3366 
L 3122 2828 
Q 2878 2963 2633 3030 
Q 2388 3097 2138 3097 
Q 1578 3097 1268 2742 
Q 959 2388 959 1747 
Q 959 1106 1268 751 
Q 1578 397 2138 397 
Q 2388 397 2633 464 
Q 2878 531 3122 666 
L 3122 134 
Q 2881 22 2623 -34 
Q 2366 -91 2075 -91 
Q 1284 -91 818 406 
Q 353 903 353 1747 
Q 353 2603 823 3093 
Q 1294 3584 2113 3584 
Q 2378 3584 2631 3529 
Q 2884 3475 3122 3366 
z
" transform="scale(0.015625)"/>
      <path id="DejaVuSans-1d" d="M 750 794 
L 1409 794 
L 1409 0 
L 750 0 
L 750 794 
z
M 750 3309 
L 1409 3309 
L 1409 2516 
L 750 2516 
L 750 3309 
z
" transform="scale(0.015625)"/>
      <path id="DejaVuSans-49" d="M 2375 4863 
L 2375 4384 
L 1825 4384 
Q 1516 4384 1395 4259 
Q 1275 4134 1275 3809 
L 1275 3500 
L 2222 3500 
L 2222 3053 
L 1275 3053 
L 1275 0 
L 697 0 
L 697 3053 
L 147 3053 
L 147 3500 
L 697 3500 
L 697 3744 
Q 697 4328 969 4595 
Q 1241 4863 1831 4863 
L 2375 4863 
z
" transform="scale(0.015625)"/>
     </defs>
     <use xlink:href="#DejaVuSans-27"/>
     <use xlink:href="#DejaVuSans-44" transform="translate(77 0)"/>
     <use xlink:href="#DejaVuSans-4c" transform="translate(138.28125 0)"/>
     <use xlink:href="#DejaVuSans-4f" transform="translate(166.0625 0)"/>
     <use xlink:href="#DejaVuSans-5c" transform="translate(193.84375 0)"/>
     <use xlink:href="#DejaVuSans-3" transform="translate(253.03125 0)"/>
     <use xlink:href="#DejaVuSans-38" transform="translate(284.8125 0)"/>
     <use xlink:href="#DejaVuSans-56" transform="translate(358 0)"/>
     <use xlink:href="#DejaVuSans-48" transform="translate(410.09375 0)"/>
     <use xlink:href="#DejaVuSans-4f" transform="translate(471.625 0)"/>
     <use xlink:href="#DejaVuSans-48" transform="translate(499.40625 0)"/>
     <use xlink:href="#DejaVuSans-56" transform="translate(560.9375 0)"/>
     <use xlink:href="#DejaVuSans-56" transform="translate(613.03125 0)"/>
     <use xlink:href="#DejaVuSans-3" transform="translate(665.125 0)"/>
     <use xlink:href="#DejaVuSans-35" transform="translate(696.90625 0)"/>
     <use xlink:href="#DejaVuSans-26" transform="translate(761.40625 0)"/>
     <use xlink:href="#DejaVuSans-3" transform="translate(831.234375 0)"/>
     <use xlink:href="#DejaVuSans-b" transform="translate(863.015625 0)"/>
     <use xlink:href="#DejaVuSans-15" transform="translate(902.03125 0)"/>
     <use xlink:href="#DejaVuSans-13" transform="translate(965.65625 0)"/>
     <use xlink:href="#DejaVuSans-15" transform="translate(1029.28125 0)"/>
     <use xlink:href="#DejaVuSans-19" transform="translate(1092.90625 0)"/>
     <use xlink:href="#DejaVuSans-10" transform="translate(1156.53125 0)"/>
     <use xlink:href="#DejaVuSans-13" transform="translate(1192.609375 0)"/>
     <use xlink:href="#DejaVuSans-1a" transform="translate(1256.234375 0)"/>
     <use xlink:href="#DejaVuSans-10" transform="translate(1319.859375 0)"/>
     <use xlink:href="#DejaVuSans-13" transform="translate(1355.9375 0)"/>
     <use xlink:href="#DejaVuSans-14" transform="translate(1419.5625 0)"/>
     <use xlink:href="#DejaVuSans-c" transform="translate(1483.1875 0)"/>
     <use xlink:href="#DejaVuSans-3" transform="translate(1522.203125 0)"/>
     <use xlink:href="#DejaVuSans-5f" transform="translate(1553.984375 0)"/>
     <use xlink:href="#DejaVuSans-3" transform="translate(1587.671875 0)"/>
     <use xlink:href="#DejaVuSans-59" transform="translate(1619.453125 0)"/>
     <use xlink:href="#DejaVuSans-48" transform="translate(1678.640625 0)"/>
     <use xlink:href="#DejaVuSans-55" transform="translate(1740.171875 0)"/>
     <use xlink:href="#DejaVuSans-47" transform="translate(1779.53125 0)"/>
     <use xlink:href="#DejaVuSans-4c" transform="translate(1843.015625 0)"/>
     <use xlink:href="#DejaVuSans-46" transform="translate(1870.796875 0)"/>
     <use xlink:href="#DejaVuSans-57" transform="translate(1925.78125 0)"/>
     <use xlink:href="#DejaVuSans-1d" transform="translate(1964.984375 0)"/>
     <use xlink:href="#DejaVuSans-3" transform="translate(1998.671875 0)"/>
     <use xlink:href="#DejaVuSans-49" transform="translate(2030.453125 0)"/>
     <use xlink:href="#DejaVuSans-48" transform="translate(2065.65625 0)"/>
     <use xlink:href="#DejaVuSans-55" transform="translate(2127.1875 0)"/>
     <use xlink:href="#DejaVuSans-44" transform="translate(2168.296875 0)"/>
     <use xlink:href="#DejaVuSans-4f" transform="translate(2229.578125 0)"/>
    </g>
    <!-- Filter: high | Input: sine, sine (A=1.33, f=0.98 Hz) | R=1.00, C=5.00, τ=5.00 -->
    <g transform="translate(113.395234 36.006328) scale(0.12 -0.12)">
     <defs>
      <path id="DejaVuSans-29" d="M 628 4666 
L 3309 4666 
L 3309 4134 
L 1259 4134 
L 1259 2759 
L 3109 2759 
L 3109 2228 
L 1259 2228 
L 1259 0 
L 628 0 
L 628 4666 
z
" transform="scale(0.015625)"/>
      <path id="DejaVuSans-4b" d="M 3513 2113 
L 3513 0 
L 2938 0 
L 2938 2094 
Q 2938 2591 2744 2837 
Q 2550 3084 2163 3084 
Q 1697 3084 1428 2787 
Q 1159 2491 1159 1978 
L 1159 0 
L 581 0 
L 581 4863 
L 1159 4863 
L 1159 2956 
Q 1366 3272 1645 3428 
Q 1925 3584 2291 3584 
Q 2894 3584 3203 3211 
Q 3513 2838 3513 2113 
z
" transform="scale(0.015625)"/>
      <path id="DejaVuSans-4a" d="M 2906 1791 
Q 2906 2416 2648 2759 
Q 2391 3103 1925 3103 
Q 1463 3103 1205 2759 
Q 947 2416 947 1791 
Q 947 1169 1205 825 
Q 1463 481 1925 481 
Q 2391 481 2648 825 
Q 2906 1169 2906 1791 
z
M 3481 434 
Q 3481 -459 3084 -895 
Q 2688 -1331 1869 -1331 
Q 1566 -1331 1297 -1286 
Q 1028 -1241 775 -1147 
L 775 -588 
Q 1028 -725 1275 -790 
Q 1522 -856 1778 -856 
Q 2344 -856 2625 -561 
Q 2906 -266 2906 331 
L 2906 616 
Q 2728 306 2450 153 
Q 2172 0 1784 0 
Q 1141 0 747 490 
Q 353 981 353 1791 
Q 353 2603 747 3093 
Q 1141 3584 1784 3584 
Q 2172 3584 2450 3431 
Q 2728 3278 2906 2969 
L 2906 3500 
L 3481 3500 
L 3481 434 
z
" transform="scale(0.015625)"/>
      <path id="DejaVuSans-2c" d="M 628 4666 
L 1259 4666 
L 1259 0 
L 628 0 
L 628 4666 
z
" transform="scale(0.015625)"/>
      <path id="DejaVuSans-51" d="M 3513 2113 
L 3513 0 
L 2938 0 
L 2938 2094 
Q 2938 2591 2744 2837 
Q 2550 3084 2163 3084 
Q 1697 3084 1428 2787 
Q 1159 2491 1159 1978 
L 1159 0 
L 581 0 
L 581 3500 
L 1159 3500 
L 1159 2956 
Q 1366 3272 1645 3428 
Q 1925 3584 2291 3584 
Q 2894 3584 3203 3211 
Q 3513 2838 3513 2113 
z
" transform="scale(0.015625)"/>
      <path id="DejaVuSans-53" d="M 1159 525 
L 1159 -1331 
L 581 -1331 
L 581 3500 
L 1159 3500 
L 1159 2969 
Q 1341 3281 1617 3432 
Q 1894 3584 2278 3584 
Q 2916 3584 3314 3078 
Q 3713 2572 3713 1747 
Q 3713 922 3314 415 
Q 2916 -91 2278 -91 
Q 1894 -91 1617 61 
Q 1341 213 1159 525 
z
M 3116 1747 
Q 3116 2381 2855 2742 
Q 2594 3103 2138 3103 
Q 1681 3103 1420 2742 
Q 1159 2381 1159 1747 
Q 1159 1113 1420 752 
Q 1681 391 2138 391 
Q 2594 391 2855 752 
Q 3116 1113 3116 1747 
z
" transform="scale(0.015625)"/>
      <path id="DejaVuSans-58" d="M 544 1381 
L 544 3500 
L 1119 3500 
L 1119 1403 
Q 1119 906 1312 657 
Q 1506 409 1894 409 
Q 2359 409 2629 706 
Q 2900 1003 2900 1516 
L 2900 3500 
L 3475 3500 
L 3475 0 
L 2900 0 
L 2900 538 
Q 2691 219 2414 64 
Q 2138 -91 1772 -91 
Q 1169 -91 856 284 
Q 544 659 544 1381 
z
M 1991 3584 
L 1991 3584 
z
" transform="scale(0.015625)"/>
      <path id="DejaVuSans-f" d="M 750 794 
L 1409 794 
L 1409 256 
L 897 -744 
L 494 -744 
L 750 256 
L 750 794 
z
" transform="scale(0.015625)"/>
      <path id="DejaVuSans-24" d="M 2188 4044 
L 1331 1722 
L 3047 1722 
L 2188 4044 
z
M 1831 4666 
L 2547 4666 
L 4325 0 
L 3669 0 
L 3244 1197 
L 1141 1197 
L 716 0 
L 50 0 
L 1831 4666 
z
" transform="scale(0.015625)"/>
      <path id="DejaVuSans-20" d="M 678 2906 
L 4684 2906 
L 4684 2381 
L 678 2381 
L 678 2906 
z
M 678 1631 
L 4684 1631 
L 4684 1100 
L 678 1100 
L 678 1631 
z
" transform="scale(0.015625)"/>
      <path id="DejaVuSans-16" d="M 2597 2516 
Q 3050 2419 3304 2112 
Q 3559 1806 3559 1356 
Q 3559 666 3084 287 
Q 2609 -91 1734 -91 
Q 1441 -91 1130 -33 
Q 819 25 488 141 
L 488 750 
Q 750 597 1062 519 
Q 1375 441 1716 441 
Q 2309 441 2620 675 
Q 2931 909 2931 1356 
Q 2931 1769 2642 2001 
Q 2353 2234 1838 2234 
L 1294 2234 
L 1294 2753 
L 1863 2753 
Q 2328 2753 2575 2939 
Q 2822 3125 2822 3475 
Q 2822 3834 2567 4026 
Q 2313 4219 1838 4219 
Q 1578 4219 1281 4162 
Q 984 4106 628 3988 
L 628 4550 
Q 988 4650 1302 4700 
Q 1616 4750 1894 4750 
Q 2613 4750 3031 4423 
Q 3450 4097 3450 3541 
Q 3450 3153 3228 2886 
Q 3006 2619 2597 2516 
z
" transform="scale(0.015625)"/>
      <path id="DejaVuSans-1c" d="M 703 97 
L 703 672 
Q 941 559 1184 500 
Q 1428 441 1663 441 
Q 2288 441 2617 861 
Q 2947 1281 2994 2138 
Q 2813 1869 2534 1725 
Q 2256 1581 1919 1581 
Q 1219 1581 811 2004 
Q 403 2428 403 3163 
Q 403 3881 828 4315 
Q 1253 4750 1959 4750 
Q 2769 4750 3195 4129 
Q 3622 3509 3622 2328 
Q 3622 1225 3098 567 
Q 2575 -91 1691 -91 
Q 1453 -91 1209 -44 
Q 966 3 703 97 
z
M 1959 2075 
Q 2384 2075 2632 2365 
Q 2881 2656 2881 3163 
Q 2881 3666 2632 3958 
Q 2384 4250 1959 4250 
Q 1534 4250 1286 3958 
Q 1038 3666 1038 3163 
Q 1038 2656 1286 2365 
Q 1534 2075 1959 2075 
z
" transform="scale(0.015625)"/>
      <path id="DejaVuSans-2b" d="M 628 4666 
L 1259 4666 
L 1259 2753 
L 3553 2753 
L 3553 4666 
L 4184 4666 
L 4184 0 
L 3553 0 
L 3553 2222 
L 1259 2222 
L 1259 0 
L 628 0 
L 628 4666 
z
" transform="scale(0.015625)"/>
      <path id="DejaVuSans-5d" d="M 353 3500 
L 3084 3500 
L 3084 2975 
L 922 459 
L 3084 459 
L 3084 0 
L 275 0 
L 275 525 
L 2438 3041 
L 353 3041 
L 353 3500 
z
" transform="scale(0.015625)"/>
      <path id="DejaVuSans-358" d="M 2319 638 
Q 2431 488 2769 488 
L 3047 488 
L 3047 0 
L 2700 0 
Q 2138 0 1881 300 
Q 1625 606 1625 1269 
L 1625 2925 
L 313 2925 
L 313 3500 
L 3541 3500 
L 3541 2925 
L 2213 2925 
L 2213 1234 
Q 2213 781 2319 638 
z
" transform="scale(0.015625)"/>
     </defs>
     <use xlink:href="#DejaVuSans-29"/>
     <use xlink:href="#DejaVuSans-4c" transform="translate(50.234375 0)"/>
     <use xlink:href="#DejaVuSans-4f" transform="translate(78.015625 0)"/>
     <use xlink:href="#DejaVuSans-57" transform="translate(105.796875 0)"/>
     <use xlink:href="#DejaVuSans-48" transform="translate(145 0)"/>
     <use xlink:href="#DejaVuSans-55" transform="translate(206.53125 0)"/>
     <use xlink:href="#DejaVuSans-1d" transform="translate(245.890625 0)"/>
     <use xlink:href="#DejaVuSans-3" transform="translate(279.578125 0)"/>
     <use xlink:href="#DejaVuSans-4b" transform="translate(311.359375 0)"/>
     <use xlink:href="#DejaVuSans-4c" transform="translate(374.734375 0)"/>
     <use xlink:href="#DejaVuSans-4a" transform="translate(402.515625 0)"/>
     <use xlink:href="#DejaVuSans-4b" transform="translate(466 0)"/>
     <use xlink:href="#DejaVuSans-3" transform="translate(529.375 0)"/>
     <use xlink:href="#DejaVuSans-5f" transform="translate(561.15625 0)"/>
     <use xlink:href="#DejaVuSans-3" transform="translate(594.84375 0)"/>
     <use xlink:href="#DejaVuSans-2c" transform="translate(626.625 0)"/>
     <use xlink:href="#DejaVuSans-51" transform="translate(656.125 0)"/>
     <use xlink:href="#DejaVuSans-53" transform="translate(719.5 0)"/>
     <use xlink:href="#DejaVuSans-58" transform="translate(782.984375 0)"/>
     <use xlink:href="#DejaVuSans-57" transform="translate(846.359375 0)"/>
     <use xlink:href="#DejaVuSans-1d" transform="translate(885.5625 0)"/>
     <use xlink:href="#DejaVuSans-3" transform="translate(919.25 0)"/>
     <use xlink:href="#DejaVuSans-56" transform="translate(951.03125 0)"/>
     <use xlink:href="#DejaVuSans-4c" transform="translate(1003.125 0)"/>
     <use xlink:href="#DejaVuSans-51" transform="translate(1030.90625 0)"/>
     <use xlink:href="#DejaVuSans-48" transform="translate(1094.28125 0)"/>
     <use xlink:href="#DejaVuSans-f" transform="translate(1155.8125 0)"/>
     <use xlink:href="#DejaVuSans-3" transform="translate(1187.59375 0)"/>
     <use xlink:href="#DejaVuSans-56" transform="translate(1219.375 0)"/>
     <use xlink:href="#DejaVuSans-4c" transform="translate(1271.46875 0)"/>
     <use xlink:href="#DejaVuSans-51" transform="translate(1299.25 0)"/>
     <use xlink:href="#DejaVuSans-48" transform="translate(1362.625 0)"/>
     <use xlink:href="#DejaVuSans-3" transform="translate(1424.15625 0)"/>
     <use xlink:href="#DejaVuSans-b" transform="translate(1455.9375 0)"/>
     <use xlink:href="#DejaVuSans-24" transform="translate(1494.953125 0)"/>
     <use xlink:href="#DejaVuSans-20" transform="translate(1563.359375 0)"/>
     <use xlink:href="#DejaVuSans-14" transform="translate(1647.15625 0)"/>
     <use xlink:href="#DejaVuSans-11" transform="translate(1710.78125 0)"/>
     <use xlink:href="#DejaVuSans-16" transform="translate(1742.5625 0)"/>
     <use xlink:href="#DejaVuSans-16" transform="translate(1806.1875 0)"/>
     <use xlink:href="#DejaVuSans-f" transform="translate(1869.8125 0)"/>
     <use xlink:href="#DejaVuSans-3" transform="translate(1901.59375 0)"/>
     <use xlink:href="#DejaVuSans-49" transform="translate(1933.375 0)"/>
     <use xlink:href="#DejaVuSans-20" transform="translate(1968.578125 0)"/>
     <use xlink:href="#DejaVuSans-13" transform="translate(2052.375 0)"/>
     <use xlink:href="#DejaVuSans-11" transform="translate(2116 0)"/>
     <use xlink:href="#DejaVuSans-1c" transform="translate(2147.78125 0)"/>
     <use xlink:href="#DejaVuSans-1b" transform="translate(2211.40625 0)"/>
     <use xlink:href="#DejaVuSans-3" transform="translate(2275.03125 0)"/>
     <use xlink:href="#DejaVuSans-2b" transform="translate(2306.8125 0)"/>
     <use xlink:href="#DejaVuSans-5d" transform="translate(2382.015625 0)"/>
     <use xlink:href="#DejaVuSans-c" transform="translate(2434.5 0)"/>
     <use xlink:href="#DejaVuSans-3" transform="translate(2473.515625 0)"/>
     <use xlink:href="#DejaVuSans-5f" transform="translate(2505.296875 0)"/>
     <use xlink:href="#DejaVuSans-3" transform="translate(2538.984375 0)"/>
     <use xlink:href="#DejaVuSans-35" transform="translate(2570.765625 0)"/>
     <use xlink:href="#DejaVuSans-20" transform="translate(2640.25 0)"/>
     <use xlink:href="#DejaVuSans-14" transform="translate(2724.046875 0)"/>
     <use xlink:href="#DejaVuSans-11" transform="translate(2787.671875 0)"/>
     <use xlink:href="#DejaVuSans-13" transform="translate(2819.453125 0)"/>
     <use xlink:href="#DejaVuSans-13" transform="translate(2883.078125 0)"/>
     <use xlink:href="#DejaVuSans-f" transform="translate(2946.703125 0)"/>
     <use xlink:href="#DejaVuSans-3" transform="translate(2978.484375 0)"/>
     <use xlink:href="#DejaVuSans-26" transform="translate(3010.265625 0)"/>
     <use xlink:href="#DejaVuSans-20" transform="translate(3080.09375 0)"/>
     <use xlink:href="#DejaVuSans-18" transform="translate(3163.890625 0)"/>
     <use xlink:href="#DejaVuSans-11" transform="translate(3227.515625 0)"/>
     <use xlink:href="#DejaVuSans-13" transform="translate(3259.296875 0)"/>
     <use xlink:href="#DejaVuSans-13" transform="translate(3322.921875 0)"/>
     <use xlink:href="#DejaVuSans-f" transform="translate(3386.546875 0)"/>
     <use xlink:href="#DejaVuSans-3" transform="translate(3418.328125 0)"/>
     <use xlink:href="#DejaVuSans-358" transform="translate(3450.109375 0)"/>
     <use xlink:href="#DejaVuSans-20" transform="translate(3510.3125 0)"/>
     <use xlink:href="#DejaVuSans-18" transform="translate(3594.109375 0)"/>
     <use xlink:href="#DejaVuSans-11" transform="translate(3657.734375 0)"/>
     <use xlink:href="#DejaVuSans-13" transform="translate(3689.515625 0)"/>
     <use xlink:href="#DejaVuSans-13" transform="translate(3753.140625 0)"/>
    </g>
   </g>
   <g id="legend_1">
    <g id="patch_7">
     <path d="M 63.602344 148.66377 
L 128.585156 148.66377 
Q 130.585156 148.66377 130.585156 146.66377 
L 130.585156 117.662207 
Q 130.585156 115.662207 128.585156 115.662207 
L 63.602344 115.662207 
Q 61.602344 115.662207 61.602344 117.662207 
L 61.602344 146.66377 
Q 61.602344 148.66377 63.602344 148.66377 
z
" style="fill: #ffffff; opacity: 0.8; stroke: #cccccc; stroke-linejoin: miter"/>
    </g>
    <g id="line2d_27">
     <path d="M 65.602344 123.760645 
L 75.602344 123.760645 
L 85.602344 123.760645 
" style="fill: none; stroke: #1f77b4; stroke-width: 1.5; stroke-linecap: square"/>
    </g>
    <g id="text_16">
     <!-- input -->
     <g transform="translate(93.602344 127.260645) scale(0.1 -0.1)">
      <use xlink:href="#DejaVuSans-4c"/>
      <use xlink:href="#DejaVuSans-51" transform="translate(27.78125 0)"/>
      <use xlink:href="#DejaVuSans-53" transform="translate(91.15625 0)"/>
      <use xlink:href="#DejaVuSans-58" transform="translate(154.640625 0)"/>
      <use xlink:href="#DejaVuSans-57" transform="translate(218.015625 0)"/>
     </g>
    </g>
    <g id="line2d_28">
     <path d="M 65.602344 138.761426 
L 75.602344 138.761426 
L 85.602344 138.761426 
" style="fill: none; stroke: #ff7f0e; stroke-width: 1.5; stroke-linecap: square"/>
    </g>
    <g id="text_17">
     <!-- output -->
     <g transform="translate(93.602344 142.261426) scale(0.1 -0.1)">
      <defs>
       <path id="DejaVuSans-52" d="M 1959 3097 
Q 1497 3097 1228 2736 
Q 959 2375 959 1747 
Q 959 1119 1226 758 
Q 1494 397 1959 397 
Q 2419 397 2687 759 
Q 2956 1122 2956 1747 
Q 2956 2369 2687 2733 
Q 2419 3097 1959 3097 
z
M 1959 3584 
Q 2709 3584 3137 3096 
Q 3566 2609 3566 1747 
Q 3566 888 3137 398 
Q 2709 -91 1959 -91 
Q 1206 -91 779 398 
Q 353 888 353 1747 
Q 353 2609 779 3096 
Q 1206 3584 1959 3584 
z
" transform="scale(0.015625)"/>
      </defs>
      <use xlink:href="#DejaVuSans-52"/>
      <use xlink:href="#DejaVuSans-58" transform="translate(61.1875 0)"/>
      <use xlink:href="#DejaVuSans-57" transform="translate(124.5625 0)"/>
      <use xlink:href="#DejaVuSans-53" transform="translate(163.765625 0)"/>
      <use xlink:href="#DejaVuSans-58" transform="translate(227.25 0)"/>
      <use xlink:href="#DejaVuSans-57" transform="translate(290.625 0)"/>
     </g>
    </g>
   </g>
  </g>
  <g id="axes_2">
   <g id="patch_8">
    <path d="M 56.602344 460.115313 
L 628.2 460.115313 
L 628.2 279.801992 
L 56.602344 279.801992 
z
" style="fill: #ffffff"/>
   </g>
   <g id="matplotlib.axis_3">
    <g id="xtick_7">
     <g id="line2d_29">
      <path d="M 56.602344 460.115313 
L 56.602344 279.801992 
" clip-path="url(#p4718d3d9c3)" style="fill: none; stroke: #b0b0b0; stroke-opacity: 0.25; stroke-width: 0.8; stroke-linecap: square"/>
     </g>
     <g id="line2d_30">
      <g>
       <use xlink:href="#m02f9c5fc8c" x="56.602344" y="460.115313" style="stroke: #000000; stroke-width: 0.8"/>
      </g>
     </g>
     <g id="text_18">
      <!-- $\mathdefault{10^{-1}}$ -->
      <g transform="translate(44.852344 476.415313) scale(0.1 -0.1)">
       <use xlink:href="#DejaVuSans-14" transform="translate(0 0.665625)"/>
       <use xlink:href="#DejaVuSans-13" transform="translate(63.623047 0.665625)"/>
       <use xlink:href="#DejaVuSans-c9c" transform="translate(128.203125 41.965625) scale(0.7)"/>
       <use xlink:href="#DejaVuSans-14" transform="translate(186.855469 41.965625) scale(0.7)"/>
      </g>
     </g>
    </g>
    <g id="xtick_8">
     <g id="line2d_31">
      <path d="M 342.401172 460.115313 
L 342.401172 279.801992 
" clip-path="url(#p4718d3d9c3)" style="fill: none; stroke: #b0b0b0; stroke-opacity: 0.25; stroke-width: 0.8; stroke-linecap: square"/>
     </g>
     <g id="line2d_32">
      <g>
       <use xlink:href="#m02f9c5fc8c" x="342.401172" y="460.115313" style="stroke: #000000; stroke-width: 0.8"/>
      </g>
     </g>
     <g id="text_19">
      <!-- $\mathdefault{10^{0}}$ -->
      <g transform="translate(333.601172 476.515313) scale(0.1 -0.1)">
       <use xlink:href="#DejaVuSans-14" transform="translate(0 0.746875)"/>
       <use xlink:href="#DejaVuSans-13" transform="translate(63.623047 0.746875)"/>
       <use xlink:href="#DejaVuSans-13" transform="translate(128.203125 42.046875) scale(0.7)"/>
      </g>
     </g>
    </g>
    <g id="xtick_9">
     <g id="line2d_33">
      <path d="M 628.2 460.115313 
L 628.2 279.801992 
" clip-path="url(#p4718d3d9c3)" style="fill: none; stroke: #b0b0b0; stroke-opacity: 0.25; stroke-width: 0.8; stroke-linecap: square"/>
     </g>
     <g id="line2d_34">
      <g>
       <use xlink:href="#m02f9c5fc8c" x="628.2" y="460.115313" style="stroke: #000000; stroke-width: 0.8"/>
      </g>
     </g>
     <g id="text_20">
      <!-- $\mathdefault{10^{1}}$ -->
      <g transform="translate(619.4 476.415313) scale(0.1 -0.1)">
       <use xlink:href="#DejaVuSans-14" transform="translate(0 0.665625)"/>
       <use xlink:href="#DejaVuSans-13" transform="translate(63.623047 0.665625)"/>
       <use xlink:href="#DejaVuSans-14" transform="translate(128.203125 41.965625) scale(0.7)"/>
      </g>
     </g>
    </g>
    <g id="xtick_10">
     <g id="line2d_35">
      <defs>
       <path id="m0de9e40662" d="M 0 0 
L 0 2 
" style="stroke: #000000; stroke-width: 0.6"/>
      </defs>
      <g>
       <use xlink:href="#m0de9e40662" x="142.636364" y="460.115313" style="stroke: #000000; stroke-width: 0.6"/>
      </g>
     </g>
    </g>
    <g id="xtick_11">
     <g id="line2d_36">
      <g>
       <use xlink:href="#m0de9e40662" x="192.963039" y="460.115313" style="stroke: #000000; stroke-width: 0.6"/>
      </g>
     </g>
    </g>
    <g id="xtick_12">
     <g id="line2d_37">
      <g>
       <use xlink:href="#m0de9e40662" x="228.670384" y="460.115313" style="stroke: #000000; stroke-width: 0.6"/>
      </g>
     </g>
    </g>
    <g id="xtick_13">
     <g id="line2d_38">
      <g>
       <use xlink:href="#m0de9e40662" x="256.367152" y="460.115313" style="stroke: #000000; stroke-width: 0.6"/>
      </g>
     </g>
    </g>
    <g id="xtick_14">
     <g id="line2d_39">
      <g>
       <use xlink:href="#m0de9e40662" x="278.997059" y="460.115313" style="stroke: #000000; stroke-width: 0.6"/>
      </g>
     </g>
    </g>
    <g id="xtick_15">
     <g id="line2d_40">
      <g>
       <use xlink:href="#m0de9e40662" x="298.130373" y="460.115313" style="stroke: #000000; stroke-width: 0.6"/>
      </g>
     </g>
    </g>
    <g id="xtick_16">
     <g id="line2d_41">
      <g>
       <use xlink:href="#m0de9e40662" x="314.704404" y="460.115313" style="stroke: #000000; stroke-width: 0.6"/>
      </g>
     </g>
    </g>
    <g id="xtick_17">
     <g id="line2d_42">
      <g>
       <use xlink:href="#m0de9e40662" x="329.323735" y="460.115313" style="stroke: #000000; stroke-width: 0.6"/>
      </g>
     </g>
    </g>
    <g id="xtick_18">
     <g id="line2d_43">
      <g>
       <use xlink:href="#m0de9e40662" x="428.435192" y="460.115313" style="stroke: #000000; stroke-width: 0.6"/>
      </g>
     </g>
    </g>
    <g id="xtick_19">
     <g id="line2d_44">
      <g>
       <use xlink:href="#m0de9e40662" x="478.761867" y="460.115313" style="stroke: #000000; stroke-width: 0.6"/>
      </g>
     </g>
    </g>
    <g id="xtick_20">
     <g id="line2d_45">
      <g>
       <use xlink:href="#m0de9e40662" x="514.469212" y="460.115313" style="stroke: #000000; stroke-width: 0.6"/>
      </g>
     </g>
    </g>
    <g id="xtick_21">
     <g id="line2d_46">
      <g>
       <use xlink:href="#m0de9e40662" x="542.16598" y="460.115313" style="stroke: #000000; stroke-width: 0.6"/>
      </g>
     </g>
    </g>
    <g id="xtick_22">
     <g id="line2d_47">
      <g>
       <use xlink:href="#m0de9e40662" x="564.795887" y="460.115313" style="stroke: #000000; stroke-width: 0.6"/>
      </g>
     </g>
    </g>
    <g id="xtick_23">
     <g id="line2d_48">
      <g>
       <use xlink:href="#m0de9e40662" x="583.929201" y="460.115313" style="stroke: #000000; stroke-width: 0.6"/>
      </g>
     </g>
    </g>
    <g id="xtick_24">
     <g id="line2d_49">
      <g>
       <use xlink:href="#m0de9e40662" x="600.503232" y="460.115313" style="stroke: #000000; stroke-width: 0.6"/>
      </g>
     </g>
    </g>
    <g id="xtick_25">
     <g id="line2d_50">
      <g>
       <use xlink:href="#m0de9e40662" x="615.122563" y="460.115313" style="stroke: #000000; stroke-width: 0.6"/>
      </g>
     </g>
    </g>
    <g id="text_21">
     <!-- frequency [arb.] -->
     <g transform="translate(301.948828 490.516094) scale(0.1 -0.1)">
      <defs>
       <path id="DejaVuSans-54" d="M 947 1747 
Q 947 1113 1208 752 
Q 1469 391 1925 391 
Q 2381 391 2643 752 
Q 2906 1113 2906 1747 
Q 2906 2381 2643 2742 
Q 2381 3103 1925 3103 
Q 1469 3103 1208 2742 
Q 947 2381 947 1747 
z
M 2906 525 
Q 2725 213 2448 61 
Q 2172 -91 1784 -91 
Q 1150 -91 751 415 
Q 353 922 353 1747 
Q 353 2572 751 3078 
Q 1150 3584 1784 3584 
Q 2172 3584 2448 3432 
Q 2725 3281 2906 2969 
L 2906 3500 
L 3481 3500 
L 3481 -1331 
L 2906 -1331 
L 2906 525 
z
" transform="scale(0.015625)"/>
      </defs>
      <use xlink:href="#DejaVuSans-49"/>
      <use xlink:href="#DejaVuSans-55" transform="translate(35.203125 0)"/>
      <use xlink:href="#DejaVuSans-48" transform="translate(74.109375 0)"/>
      <use xlink:href="#DejaVuSans-54" transform="translate(135.640625 0)"/>
      <use xlink:href="#DejaVuSans-58" transform="translate(199.125 0)"/>
      <use xlink:href="#DejaVuSans-48" transform="translate(262.5 0)"/>
      <use xlink:href="#DejaVuSans-51" transform="translate(324.03125 0)"/>
      <use xlink:href="#DejaVuSans-46" transform="translate(387.40625 0)"/>
      <use xlink:href="#DejaVuSans-5c" transform="translate(442.390625 0)"/>
      <use xlink:href="#DejaVuSans-3" transform="translate(501.578125 0)"/>
      <use xlink:href="#DejaVuSans-3e" transform="translate(533.359375 0)"/>
      <use xlink:href="#DejaVuSans-44" transform="translate(572.375 0)"/>
      <use xlink:href="#DejaVuSans-55" transform="translate(633.65625 0)"/>
      <use xlink:href="#DejaVuSans-45" transform="translate(674.765625 0)"/>
      <use xlink:href="#DejaVuSans-11" transform="translate(738.25 0)"/>
      <use xlink:href="#DejaVuSans-40" transform="translate(770.03125 0)"/>
     </g>
    </g>
   </g>
   <g id="matplotlib.axis_4">
    <g id="ytick_7">
     <g id="line2d_51">
      <path d="M 56.602344 456.710095 
L 628.2 456.710095 
" clip-path="url(#p4718d3d9c3)" style="fill: none; stroke: #b0b0b0; stroke-opacity: 0.25; stroke-width: 0.8; stroke-linecap: square"/>
     </g>
     <g id="line2d_52">
      <g>
       <use xlink:href="#mcd66dfa5fb" x="56.602344" y="456.710095" style="stroke: #000000; stroke-width: 0.8"/>
      </g>
     </g>
     <g id="text_22">
      <!-- $\mathdefault{10^{-9}}$ -->
      <g transform="translate(26.102344 461.410095) scale(0.1 -0.1)">
       <use xlink:href="#DejaVuSans-14" transform="translate(0 0.746875)"/>
       <use xlink:href="#DejaVuSans-13" transform="translate(63.623047 0.746875)"/>
       <use xlink:href="#DejaVuSans-c9c" transform="translate(128.203125 42.046875) scale(0.7)"/>
       <use xlink:href="#DejaVuSans-1c" transform="translate(186.855469 42.046875) scale(0.7)"/>
      </g>
     </g>
    </g>
    <g id="ytick_8">
     <g id="line2d_53">
      <path d="M 56.602344 428.885226 
L 628.2 428.885226 
" clip-path="url(#p4718d3d9c3)" style="fill: none; stroke: #b0b0b0; stroke-opacity: 0.25; stroke-width: 0.8; stroke-linecap: square"/>
     </g>
     <g id="line2d_54">
      <g>
       <use xlink:href="#mcd66dfa5fb" x="56.602344" y="428.885226" style="stroke: #000000; stroke-width: 0.8"/>
      </g>
     </g>
     <g id="text_23">
      <!-- $\mathdefault{10^{-7}}$ -->
      <g transform="translate(26.102344 433.535226) scale(0.1 -0.1)">
       <use xlink:href="#DejaVuSans-14" transform="translate(0 0.665625)"/>
       <use xlink:href="#DejaVuSans-13" transform="translate(63.623047 0.665625)"/>
       <use xlink:href="#DejaVuSans-c9c" transform="translate(128.203125 41.965625) scale(0.7)"/>
       <use xlink:href="#DejaVuSans-1a" transform="translate(186.855469 41.965625) scale(0.7)"/>
      </g>
     </g>
    </g>
    <g id="ytick_9">
     <g id="line2d_55">
      <path d="M 56.602344 401.060357 
L 628.2 401.060357 
" clip-path="url(#p4718d3d9c3)" style="fill: none; stroke: #b0b0b0; stroke-opacity: 0.25; stroke-width: 0.8; stroke-linecap: square"/>
     </g>
     <g id="line2d_56">
      <g>
       <use xlink:href="#mcd66dfa5fb" x="56.602344" y="401.060357" style="stroke: #000000; stroke-width: 0.8"/>
      </g>
     </g>
     <g id="text_24">
      <!-- $\mathdefault{10^{-5}}$ -->
      <g transform="translate(26.102344 405.710357) scale(0.1 -0.1)">
       <use xlink:href="#DejaVuSans-14" transform="translate(0 0.665625)"/>
       <use xlink:href="#DejaVuSans-13" transform="translate(63.623047 0.665625)"/>
       <use xlink:href="#DejaVuSans-c9c" transform="translate(128.203125 41.965625) scale(0.7)"/>
       <use xlink:href="#DejaVuSans-18" transform="translate(186.855469 41.965625) scale(0.7)"/>
      </g>
     </g>
    </g>
    <g id="ytick_10">
     <g id="line2d_57">
      <path d="M 56.602344 373.235488 
L 628.2 373.235488 
" clip-path="url(#p4718d3d9c3)" style="fill: none; stroke: #b0b0b0; stroke-opacity: 0.25; stroke-width: 0.8; stroke-linecap: square"/>
     </g>
     <g id="line2d_58">
      <g>
       <use xlink:href="#mcd66dfa5fb" x="56.602344" y="373.235488" style="stroke: #000000; stroke-width: 0.8"/>
      </g>
     </g>
     <g id="text_25">
      <!-- $\mathdefault{10^{-3}}$ -->
      <g transform="translate(26.102344 377.935488) scale(0.1 -0.1)">
       <use xlink:href="#DejaVuSans-14" transform="translate(0 0.746875)"/>
       <use xlink:href="#DejaVuSans-13" transform="translate(63.623047 0.746875)"/>
       <use xlink:href="#DejaVuSans-c9c" transform="translate(128.203125 42.046875) scale(0.7)"/>
       <use xlink:href="#DejaVuSans-16" transform="translate(186.855469 42.046875) scale(0.7)"/>
      </g>
     </g>
    </g>
    <g id="ytick_11">
     <g id="line2d_59">
      <path d="M 56.602344 345.410619 
L 628.2 345.410619 
" clip-path="url(#p4718d3d9c3)" style="fill: none; stroke: #b0b0b0; stroke-opacity: 0.25; stroke-width: 0.8; stroke-linecap: square"/>
     </g>
     <g id="line2d_60">
      <g>
       <use xlink:href="#mcd66dfa5fb" x="56.602344" y="345.410619" style="stroke: #000000; stroke-width: 0.8"/>
      </g>
     </g>
     <g id="text_26">
      <!-- $\mathdefault{10^{-1}}$ -->
      <g transform="translate(26.102344 350.060619) scale(0.1 -0.1)">
       <use xlink:href="#DejaVuSans-14" transform="translate(0 0.665625)"/>
       <use xlink:href="#DejaVuSans-13" transform="translate(63.623047 0.665625)"/>
       <use xlink:href="#DejaVuSans-c9c" transform="translate(128.203125 41.965625) scale(0.7)"/>
       <use xlink:href="#DejaVuSans-14" transform="translate(186.855469 41.965625) scale(0.7)"/>
      </g>
     </g>
    </g>
    <g id="ytick_12">
     <g id="line2d_61">
      <path d="M 56.602344 317.58575 
L 628.2 317.58575 
" clip-path="url(#p4718d3d9c3)" style="fill: none; stroke: #b0b0b0; stroke-opacity: 0.25; stroke-width: 0.8; stroke-linecap: square"/>
     </g>
     <g id="line2d_62">
      <g>
       <use xlink:href="#mcd66dfa5fb" x="56.602344" y="317.58575" style="stroke: #000000; stroke-width: 0.8"/>
      </g>
     </g>
     <g id="text_27">
      <!-- $\mathdefault{10^{1}}$ -->
      <g transform="translate(32.002344 322.23575) scale(0.1 -0.1)">
       <use xlink:href="#DejaVuSans-14" transform="translate(0 0.665625)"/>
       <use xlink:href="#DejaVuSans-13" transform="translate(63.623047 0.665625)"/>
       <use xlink:href="#DejaVuSans-14" transform="translate(128.203125 41.965625) scale(0.7)"/>
      </g>
     </g>
    </g>
    <g id="ytick_13">
     <g id="line2d_63">
      <path d="M 56.602344 289.760881 
L 628.2 289.760881 
" clip-path="url(#p4718d3d9c3)" style="fill: none; stroke: #b0b0b0; stroke-opacity: 0.25; stroke-width: 0.8; stroke-linecap: square"/>
     </g>
     <g id="line2d_64">
      <g>
       <use xlink:href="#mcd66dfa5fb" x="56.602344" y="289.760881" style="stroke: #000000; stroke-width: 0.8"/>
      </g>
     </g>
     <g id="text_28">
      <!-- $\mathdefault{10^{3}}$ -->
      <g transform="translate(32.002344 294.460881) scale(0.1 -0.1)">
       <use xlink:href="#DejaVuSans-14" transform="translate(0 0.746875)"/>
       <use xlink:href="#DejaVuSans-13" transform="translate(63.623047 0.746875)"/>
       <use xlink:href="#DejaVuSans-16" transform="translate(128.203125 42.046875) scale(0.7)"/>
      </g>
     </g>
    </g>
    <g id="text_29">
     <!-- |FFT(.)| -->
     <g transform="translate(19.7 387.535996) rotate(-90) scale(0.1 -0.1)">
      <defs>
       <path id="DejaVuSans-37" d="M -19 4666 
L 3928 4666 
L 3928 4134 
L 2272 4134 
L 2272 0 
L 1638 0 
L 1638 4134 
L -19 4134 
L -19 4666 
z
" transform="scale(0.015625)"/>
      </defs>
      <use xlink:href="#DejaVuSans-5f"/>
      <use xlink:href="#DejaVuSans-29" transform="translate(33.6875 0)"/>
      <use xlink:href="#DejaVuSans-29" transform="translate(91.203125 0)"/>
      <use xlink:href="#DejaVuSans-37" transform="translate(146.96875 0)"/>
      <use xlink:href="#DejaVuSans-b" transform="translate(208.046875 0)"/>
      <use xlink:href="#DejaVuSans-11" transform="translate(247.0625 0)"/>
      <use xlink:href="#DejaVuSans-c" transform="translate(278.84375 0)"/>
      <use xlink:href="#DejaVuSans-5f" transform="translate(317.859375 0)"/>
     </g>
    </g>
   </g>
   <g id="line2d_65">
    <path d="M 56.602344 317.159814 
L 142.636364 336.864495 
L 192.963039 334.102911 
L 228.670384 331.002004 
L 256.367152 327.405941 
L 278.997059 322.993688 
L 298.130373 317.12037 
L 314.704404 307.905882 
L 329.323735 290.741195 
L 342.401172 287.998052 
L 354.231153 293.751637 
L 365.031079 311.611792 
L 374.966048 319.31281 
L 384.164393 324.566346 
L 392.727847 328.591607 
L 400.738424 331.863087 
L 408.263204 334.620888 
L 415.357755 337.00478 
L 422.068624 339.103755 
L 428.435192 340.978162 
L 434.491069 342.670895 
L 440.265173 344.213578 
L 445.782564 345.630222 
L 451.065099 346.939498 
L 456.13196 348.156221 
L 461.000068 349.292349 
L 465.68443 350.357675 
L 470.198413 351.360323 
L 474.553978 352.307106 
L 478.761867 353.203796 
L 482.831768 354.055324 
L 486.772444 354.865939 
L 490.591848 355.639324 
L 494.297224 356.378694 
L 497.895181 357.086873 
L 501.391775 357.766351 
L 504.792559 358.419338 
L 508.102644 359.047803 
L 511.326744 359.653506 
L 514.469212 360.238029 
L 517.53408 360.802796 
L 520.525089 361.349096 
L 523.445714 361.878097 
L 526.299193 362.390862 
L 529.088543 362.888361 
L 531.816584 363.371479 
L 534.485952 363.841029 
L 537.099119 364.297759 
L 539.658403 364.742356 
L 542.16598 365.175453 
L 544.623899 365.597639 
L 547.034088 366.009455 
L 549.398367 366.411406 
L 551.71845 366.80396 
L 553.995961 367.187555 
L 556.232433 367.562596 
L 558.42932 367.929464 
L 560.587998 368.288514 
L 562.709773 368.640078 
L 564.795887 368.98447 
L 566.847518 369.321981 
L 568.865788 369.652887 
L 570.851764 369.977448 
L 572.806464 370.295909 
L 574.730857 370.608498 
L 576.625868 370.915435 
L 578.492382 371.216925 
L 580.331244 371.513163 
L 582.143259 371.804333 
L 583.929201 372.09061 
L 585.68981 372.37216 
L 587.425795 372.64914 
L 589.137834 372.921701 
L 590.826579 373.189986 
L 592.492655 373.454128 
L 594.136664 373.714259 
L 595.759182 373.970502 
L 597.360764 374.222973 
L 598.941943 374.471786 
L 600.503232 374.717047 
L 602.045126 374.95886 
L 603.5681 375.197323 
L 605.072614 375.432529 
L 606.559109 375.664569 
L 608.028012 375.89353 
L 609.479734 376.119493 
L 610.914673 376.34254 
L 612.333213 376.562745 
L 613.735723 376.780183 
L 615.122563 376.994924 
L 616.494078 377.207036 
L 617.850603 377.416584 
L 619.192464 377.62363 
L 620.519972 377.828237 
L 621.833432 378.030461 
L 623.133139 378.230359 
L 624.419377 378.427986 
L 625.692423 378.623394 
L 626.952544 378.816633 
L 628.2 379.007752 
L 629.435044 379.196798 
" clip-path="url(#p4718d3d9c3)" style="fill: none; stroke: #1f77b4; stroke-opacity: 0.6; stroke-width: 1.5; stroke-linecap: square"/>
   </g>
   <g id="line2d_66">
    <path d="M 56.602344 317.217932 
L 142.636364 327.245371 
L 192.963039 331.445188 
L 228.670384 330.261641 
L 256.367152 327.190372 
L 278.997059 322.93601 
L 298.130373 317.110202 
L 314.704404 307.908388 
L 329.323735 290.745919 
L 342.401172 288.002651 
L 354.231153 293.75635 
L 365.031079 311.617504 
L 374.966048 319.320402 
L 384.164393 324.576503 
L 392.727847 328.604793 
L 400.738424 331.87958 
L 408.263204 334.640819 
L 415.357755 337.028174 
L 422.068624 339.130563 
L 428.435192 341.008285 
L 434.491069 342.704201 
L 440.265173 344.24992 
L 445.782564 345.669442 
L 451.065099 346.981435 
L 456.13196 348.200717 
L 461.000068 349.339249 
L 465.68443 350.406832 
L 470.198413 351.411597 
L 474.553978 352.360364 
L 478.761867 353.258914 
L 482.831768 354.112186 
L 486.772444 354.924437 
L 490.591848 355.699356 
L 494.297224 356.440167 
L 497.895181 357.149699 
L 501.391775 357.830449 
L 504.792559 358.484633 
L 508.102644 359.114225 
L 511.326744 359.72099 
L 514.469212 360.306515 
L 517.53408 360.872227 
L 520.525089 361.419421 
L 523.445714 361.949266 
L 526.299193 362.46283 
L 529.088543 362.961086 
L 531.816584 363.444921 
L 534.485952 363.915153 
L 537.099119 364.372529 
L 539.658403 364.81774 
L 542.16598 365.251422 
L 544.623899 365.674164 
L 547.034088 366.08651 
L 549.398367 366.488966 
L 551.71845 366.882003 
L 553.995961 367.266058 
L 556.232433 367.641539 
L 558.42932 368.008827 
L 560.587998 368.36828 
L 562.709773 368.72023 
L 564.795887 369.064991 
L 566.847518 369.402856 
L 568.865788 369.734103 
L 570.851764 370.058991 
L 572.806464 370.377765 
L 574.730857 370.690657 
L 576.625868 370.997884 
L 578.492382 371.299654 
L 580.331244 371.596162 
L 582.143259 371.887591 
L 583.929201 372.174119 
L 585.68981 372.455911 
L 587.425795 372.733126 
L 589.137834 373.005913 
L 590.826579 373.274416 
L 592.492655 373.53877 
L 594.136664 373.799106 
L 595.759182 374.055547 
L 597.360764 374.308211 
L 598.941943 374.55721 
L 600.503232 374.802653 
L 602.045126 375.044642 
L 603.5681 375.283275 
L 605.072614 375.518648 
L 606.559109 375.750849 
L 608.028012 375.979967 
L 609.479734 376.206084 
L 610.914673 376.429279 
L 612.333213 376.64963 
L 613.735723 376.86721 
L 615.122563 377.082089 
L 616.494078 377.294336 
L 617.850603 377.504015 
L 619.192464 377.711191 
L 620.519972 377.915923 
L 621.833432 378.118271 
L 623.133139 378.31829 
L 624.419377 378.516034 
L 625.692423 378.711558 
L 626.952544 378.90491 
L 628.2 379.09614 
L 629.435044 379.285295 
" clip-path="url(#p4718d3d9c3)" style="fill: none; stroke: #ff7f0e; stroke-width: 1.5; stroke-linecap: square"/>
   </g>
   <g id="patch_9">
    <path d="M 56.602344 460.115313 
L 56.602344 279.801992 
" style="fill: none; stroke: #000000; stroke-width: 0.8; stroke-linejoin: miter; stroke-linecap: square"/>
   </g>
   <g id="patch_10">
    <path d="M 628.2 460.115313 
L 628.2 279.801992 
" style="fill: none; stroke: #000000; stroke-width: 0.8; stroke-linejoin: miter; stroke-linecap: square"/>
   </g>
   <g id="patch_11">
    <path d="M 56.602344 460.115313 
L 628.2 460.115313 
" style="fill: none; stroke: #000000; stroke-width: 0.8; stroke-linejoin: miter; stroke-linecap: square"/>
   </g>
   <g id="patch_12">
    <path d="M 56.602344 279.801992 
L 628.2 279.801992 
" style="fill: none; stroke: #000000; stroke-width: 0.8; stroke-linejoin: miter; stroke-linecap: square"/>
   </g>
   <g id="text_30">
    <!-- Output FFT peak ≈ 1.000 (arb.), magnitude ≈ 1.338e+03 | band/flat-ish -->
    <g transform="translate(126.001797 273.801992) scale(0.12 -0.12)">
     <defs>
      <path id="DejaVuSans-32" d="M 2522 4238 
Q 1834 4238 1429 3725 
Q 1025 3213 1025 2328 
Q 1025 1447 1429 934 
Q 1834 422 2522 422 
Q 3209 422 3611 934 
Q 4013 1447 4013 2328 
Q 4013 3213 3611 3725 
Q 3209 4238 2522 4238 
z
M 2522 4750 
Q 3503 4750 4090 4092 
Q 4678 3434 4678 2328 
Q 4678 1225 4090 567 
Q 3503 -91 2522 -91 
Q 1538 -91 948 565 
Q 359 1222 359 2328 
Q 359 3434 948 4092 
Q 1538 4750 2522 4750 
z
" transform="scale(0.015625)"/>
      <path id="DejaVuSans-4e" d="M 581 4863 
L 1159 4863 
L 1159 1991 
L 2875 3500 
L 3609 3500 
L 1753 1863 
L 3688 0 
L 2938 0 
L 1159 1709 
L 1159 0 
L 581 0 
L 581 4863 
z
" transform="scale(0.015625)"/>
      <path id="DejaVuSans-cd2" d="M 4684 1947 
L 4684 1388 
Q 4356 1144 4076 1036 
Q 3797 928 3494 928 
Q 3150 928 2694 1113 
Q 2663 1125 2641 1134 
Q 2622 1141 2575 1159 
Q 2091 1350 1797 1350 
Q 1522 1350 1253 1231 
Q 984 1113 678 850 
L 678 1409 
Q 1006 1653 1286 1761 
Q 1566 1869 1869 1869 
Q 2213 1869 2672 1684 
Q 2706 1669 2722 1663 
Q 2741 1656 2788 1638 
Q 3272 1447 3566 1447 
Q 3834 1447 4098 1564 
Q 4363 1681 4684 1947 
z
M 4684 3163 
L 4684 2606 
Q 4356 2359 4076 2251 
Q 3797 2144 3494 2144 
Q 3150 2144 2694 2328 
Q 2663 2341 2641 2350 
Q 2622 2356 2575 2375 
Q 2091 2566 1797 2566 
Q 1522 2566 1253 2447 
Q 984 2328 678 2069 
L 678 2625 
Q 1006 2869 1286 2976 
Q 1566 3084 1869 3084 
Q 2213 3084 2672 2900 
Q 2703 2888 2719 2881 
Q 2741 2872 2788 2853 
Q 3272 2663 3566 2663 
Q 3834 2663 4098 2780 
Q 4363 2897 4684 3163 
z
" transform="scale(0.015625)"/>
      <path id="DejaVuSans-50" d="M 3328 2828 
Q 3544 3216 3844 3400 
Q 4144 3584 4550 3584 
Q 5097 3584 5394 3201 
Q 5691 2819 5691 2113 
L 5691 0 
L 5113 0 
L 5113 2094 
Q 5113 2597 4934 2840 
Q 4756 3084 4391 3084 
Q 3944 3084 3684 2787 
Q 3425 2491 3425 1978 
L 3425 0 
L 2847 0 
L 2847 2094 
Q 2847 2600 2669 2842 
Q 2491 3084 2119 3084 
Q 1678 3084 1418 2786 
Q 1159 2488 1159 1978 
L 1159 0 
L 581 0 
L 581 3500 
L 1159 3500 
L 1159 2956 
Q 1356 3278 1631 3431 
Q 1906 3584 2284 3584 
Q 2666 3584 2933 3390 
Q 3200 3197 3328 2828 
z
" transform="scale(0.015625)"/>
      <path id="DejaVuSans-e" d="M 2944 4013 
L 2944 2272 
L 4684 2272 
L 4684 1741 
L 2944 1741 
L 2944 0 
L 2419 0 
L 2419 1741 
L 678 1741 
L 678 2272 
L 2419 2272 
L 2419 4013 
L 2944 4013 
z
" transform="scale(0.015625)"/>
      <path id="DejaVuSans-12" d="M 1625 4666 
L 2156 4666 
L 531 -594 
L 0 -594 
L 1625 4666 
z
" transform="scale(0.015625)"/>
      <path id="DejaVuSans-13b0" d="M 1831 4863 
L 3431 4863 
L 3431 0 
L 2853 0 
L 2853 4384 
L 1825 4384 
Q 1516 4384 1395 4259 
Q 1275 4134 1275 3809 
L 1275 3500 
L 2222 3500 
L 2222 3053 
L 1275 3053 
L 1275 0 
L 697 0 
L 697 3053 
L 147 3053 
L 147 3500 
L 697 3500 
L 697 3744 
Q 697 4328 969 4595 
Q 1241 4863 1831 4863 
z
" transform="scale(0.015625)"/>
     </defs>
     <use xlink:href="#DejaVuSans-32"/>
     <use xlink:href="#DejaVuSans-58" transform="translate(78.71875 0)"/>
     <use xlink:href="#DejaVuSans-57" transform="translate(142.09375 0)"/>
     <use xlink:href="#DejaVuSans-53" transform="translate(181.296875 0)"/>
     <use xlink:href="#DejaVuSans-58" transform="translate(244.78125 0)"/>
     <use xlink:href="#DejaVuSans-57" transform="translate(308.15625 0)"/>
     <use xlink:href="#DejaVuSans-3" transform="translate(347.359375 0)"/>
     <use xlink:href="#DejaVuSans-29" transform="translate(379.140625 0)"/>
     <use xlink:href="#DejaVuSans-29" transform="translate(436.65625 0)"/>
     <use xlink:href="#DejaVuSans-37" transform="translate(492.421875 0)"/>
     <use xlink:href="#DejaVuSans-3" transform="translate(553.5 0)"/>
     <use xlink:href="#DejaVuSans-53" transform="translate(585.28125 0)"/>
     <use xlink:href="#DejaVuSans-48" transform="translate(648.765625 0)"/>
     <use xlink:href="#DejaVuSans-44" transform="translate(710.296875 0)"/>
     <use xlink:href="#DejaVuSans-4e" transform="translate(771.578125 0)"/>
     <use xlink:href="#DejaVuSans-3" transform="translate(829.484375 0)"/>
     <use xlink:href="#DejaVuSans-cd2" transform="translate(861.265625 0)"/>
     <use xlink:href="#DejaVuSans-3" transform="translate(945.0625 0)"/>
     <use xlink:href="#DejaVuSans-14" transform="translate(976.84375 0)"/>
     <use xlink:href="#DejaVuSans-11" transform="translate(1040.46875 0)"/>
     <use xlink:href="#DejaVuSans-13" transform="translate(1072.25 0)"/>
     <use xlink:href="#DejaVuSans-13" transform="translate(1135.875 0)"/>
     <use xlink:href="#DejaVuSans-13" transform="translate(1199.5 0)"/>
     <use xlink:href="#DejaVuSans-3" transform="translate(1263.125 0)"/>
     <use xlink:href="#DejaVuSans-b" transform="translate(1294.90625 0)"/>
     <use xlink:href="#DejaVuSans-44" transform="translate(1333.921875 0)"/>
     <use xlink:href="#DejaVuSans-55" transform="translate(1395.203125 0)"/>
     <use xlink:href="#DejaVuSans-45" transform="translate(1436.3125 0)"/>
     <use xlink:href="#DejaVuSans-11" transform="translate(1499.796875 0)"/>
     <use xlink:href="#DejaVuSans-c" transform="translate(1531.578125 0)"/>
     <use xlink:href="#DejaVuSans-f" transform="translate(1570.59375 0)"/>
     <use xlink:href="#DejaVuSans-3" transform="translate(1602.375 0)"/>
     <use xlink:href="#DejaVuSans-50" transform="translate(1634.15625 0)"/>
     <use xlink:href="#DejaVuSans-44" transform="translate(1731.5625 0)"/>
     <use xlink:href="#DejaVuSans-4a" transform="translate(1792.84375 0)"/>
     <use xlink:href="#DejaVuSans-51" transform="translate(1856.328125 0)"/>
     <use xlink:href="#DejaVuSans-4c" transform="translate(1919.703125 0)"/>
     <use xlink:href="#DejaVuSans-57" transform="translate(1947.484375 0)"/>
     <use xlink:href="#DejaVuSans-58" transform="translate(1986.6875 0)"/>
     <use xlink:href="#DejaVuSans-47" transform="translate(2050.0625 0)"/>
     <use xlink:href="#DejaVuSans-48" transform="translate(2113.546875 0)"/>
     <use xlink:href="#DejaVuSans-3" transform="translate(2175.078125 0)"/>
     <use xlink:href="#DejaVuSans-cd2" transform="translate(2206.859375 0)"/>
     <use xlink:href="#DejaVuSans-3" transform="translate(2290.65625 0)"/>
     <use xlink:href="#DejaVuSans-14" transform="translate(2322.4375 0)"/>
     <use xlink:href="#DejaVuSans-11" transform="translate(2386.0625 0)"/>
     <use xlink:href="#DejaVuSans-16" transform="translate(2417.84375 0)"/>
     <use xlink:href="#DejaVuSans-16" transform="translate(2481.46875 0)"/>
     <use xlink:href="#DejaVuSans-1b" transform="translate(2545.09375 0)"/>
     <use xlink:href="#DejaVuSans-48" transform="translate(2608.71875 0)"/>
     <use xlink:href="#DejaVuSans-e" transform="translate(2670.25 0)"/>
     <use xlink:href="#DejaVuSans-13" transform="translate(2754.046875 0)"/>
     <use xlink:href="#DejaVuSans-16" transform="translate(2817.671875 0)"/>
     <use xlink:href="#DejaVuSans-3" transform="translate(2881.296875 0)"/>
     <use xlink:href="#DejaVuSans-5f" transform="translate(2913.078125 0)"/>
     <use xlink:href="#DejaVuSans-3" transform="translate(2946.765625 0)"/>
     <use xlink:href="#DejaVuSans-45" transform="translate(2978.546875 0)"/>
     <use xlink:href="#DejaVuSans-44" transform="translate(3042.03125 0)"/>
     <use xlink:href="#DejaVuSans-51" transform="translate(3103.3125 0)"/>
     <use xlink:href="#DejaVuSans-47" transform="translate(3166.6875 0)"/>
     <use xlink:href="#DejaVuSans-12" transform="translate(3230.171875 0)"/>
     <use xlink:href="#DejaVuSans-13b0" transform="translate(3263.859375 0)"/>
     <use xlink:href="#DejaVuSans-44" transform="translate(3326.84375 0)"/>
     <use xlink:href="#DejaVuSans-57" transform="translate(3388.125 0)"/>
     <use xlink:href="#DejaVuSans-10" transform="translate(3427.328125 0)"/>
     <use xlink:href="#DejaVuSans-4c" transform="translate(3463.40625 0)"/>
     <use xlink:href="#DejaVuSans-56" transform="translate(3491.1875 0)"/>
     <use xlink:href="#DejaVuSans-4b" transform="translate(3543.28125 0)"/>
    </g>
   </g>
   <g id="legend_2">
    <g id="patch_13">
     <path d="M 535.603125 317.803555 
L 621.2 317.803555 
Q 623.2 317.803555 623.2 315.803555 
L 623.2 286.801992 
Q 623.2 284.801992 621.2 284.801992 
L 535.603125 284.801992 
Q 533.603125 284.801992 533.603125 286.801992 
L 533.603125 315.803555 
Q 533.603125 317.803555 535.603125 317.803555 
z
" style="fill: #ffffff; opacity: 0.8; stroke: #cccccc; stroke-linejoin: miter"/>
    </g>
    <g id="line2d_67">
     <path d="M 537.603125 292.90043 
L 547.603125 292.90043 
L 557.603125 292.90043 
" style="fill: none; stroke: #1f77b4; stroke-opacity: 0.6; stroke-width: 1.5; stroke-linecap: square"/>
    </g>
    <g id="text_31">
     <!-- input FFT -->
     <g transform="translate(565.603125 296.40043) scale(0.1 -0.1)">
      <use xlink:href="#DejaVuSans-4c"/>
      <use xlink:href="#DejaVuSans-51" transform="translate(27.78125 0)"/>
      <use xlink:href="#DejaVuSans-53" transform="translate(91.15625 0)"/>
      <use xlink:href="#DejaVuSans-58" transform="translate(154.640625 0)"/>
      <use xlink:href="#DejaVuSans-57" transform="translate(218.015625 0)"/>
      <use xlink:href="#DejaVuSans-3" transform="translate(257.21875 0)"/>
      <use xlink:href="#DejaVuSans-29" transform="translate(289 0)"/>
      <use xlink:href="#DejaVuSans-29" transform="translate(346.515625 0)"/>
      <use xlink:href="#DejaVuSans-37" transform="translate(402.28125 0)"/>
     </g>
    </g>
    <g id="line2d_68">
     <path d="M 537.603125 307.901211 
L 547.603125 307.901211 
L 557.603125 307.901211 
" style="fill: none; stroke: #ff7f0e; stroke-width: 1.5; stroke-linecap: square"/>
    </g>
    <g id="text_32">
     <!-- output FFT -->
     <g transform="translate(565.603125 311.401211) scale(0.1 -0.1)">
      <use xlink:href="#DejaVuSans-52"/>
      <use xlink:href="#DejaVuSans-58" transform="translate(61.1875 0)"/>
      <use xlink:href="#DejaVuSans-57" transform="translate(124.5625 0)"/>
      <use xlink:href="#DejaVuSans-53" transform="translate(163.765625 0)"/>
      <use xlink:href="#DejaVuSans-58" transform="translate(227.25 0)"/>
      <use xlink:href="#DejaVuSans-57" transform="translate(290.625 0)"/>
      <use xlink:href="#DejaVuSans-3" transform="translate(329.828125 0)"/>
      <use xlink:href="#DejaVuSans-29" transform="translate(361.609375 0)"/>
      <use xlink:href="#DejaVuSans-29" transform="translate(419.125 0)"/>
      <use xlink:href="#DejaVuSans-37" transform="translate(474.890625 0)"/>
     </g>
    </g>
   </g>
  </g>
 </g>
 <defs>
  <clipPath id="pe30a1ae1dc">
   <rect x="56.602344" y="42.006328" width="571.597656" height="180.31332"/>
  </clipPath>
  <clipPath id="p4718d3d9c3">
   <rect x="56.602344" y="279.801992" width="571.597656" height="180.31332"/>
  </clipPath>
 </defs>
</svg>
