<?xml version="1.0" encoding="utf-8" standalone="no"?>
<!DOCTYPE svg PUBLIC "-//W3C//DTD SVG 1.1//EN"
  "http://www.w3.org/Graphics/SVG/1.1/DTD/svg11.dtd">
<svg xmlns:xlink="http://www.w3.org/1999/xlink" width="648pt" height="504pt" viewBox="0 0 648 504" xmlns="http://www.w3.org/2000/svg" version="1.1">
 <metadata>
  <rdf:RDF xmlns:dc="http://purl.org/dc/elements/1.1/" xmlns:cc="http://creativecommons.org/ns#" xmlns:rdf="http://www.w3.org/1999/02/22-rdf-syntax-ns#">
   <cc:Work>
    <dc:type rdf:resource="http://purl.org/dc/dcmitype/StillImage"/>
    <dc:date>2026-03-05T02:43:38.346002</dc:date>
    <dc:format>image/svg+xml</dc:format>
    <dc:creator>
     <cc:Agent>
      <dc:title>Matplotlib v3.10.8, https://matplotlib.org/</dc:title>
     </cc:Agent>
    </dc:creator>
   </cc:Work>
  </rdf:RDF>
 </metadata>
 <defs>
  <style type="text/css">*{stroke-linejoin: round; stroke-linecap: butt}</style>
 </defs>
 <g id="figure_1">
  <g id="patch_1">
   <path d="M 0 504 
L 648 504 
L 648 0 
L 0 0 
z
" style="fill: #ffffff"/>
  </g>
  <g id="axes_1">
   <g id="patch_2">
    <path d="M 60.761214 221.272 
L 628.183658 221.272 
L 628.183658 41.856 
L 60.761214 41.856 
z
" style="fill: #ffffff"/>
   </g>
   <g id="matplotlib.axis_1">
    <g id="xtick_1">
     <g id="line2d_1">
      <path d="M 86.553143 221.272 
L 86.553143 41.856 
" clip-path="url(#pccb8c36ac5)" style="fill: none; stroke: #b0b0b0; stroke-opacity: 0.25; stroke-width: 0.8; stroke-linecap: square"/>
     </g>
     <g id="line2d_2">
      <defs>
       <path id="m019b53bbc1" d="M 0 0 
L 0 3.5 
" style="stroke: #000000; stroke-width: 0.8"/>
      </defs>
      <g>
       <use xlink:href="#m019b53bbc1" x="86.553143" y="221.272" style="stroke: #000000; stroke-width: 0.8"/>
      </g>
     </g>
     <g id="text_1">
      <!-- 0 -->
      <g transform="translate(83.371893 235.870437) scale(0.1 -0.1)">
       <defs>
        <path id="DejaVuSans-30" d="M 2034 4250 
Q 1547 4250 1301 3770 
Q 1056 3291 1056 2328 
Q 1056 1369 1301 889 
Q 1547 409 2034 409 
Q 2525 409 2770 889 
Q 3016 1369 3016 2328 
Q 3016 3291 2770 3770 
Q 2525 4250 2034 4250 
z
M 2034 4750 
Q 2819 4750 3233 4129 
Q 3647 3509 3647 2328 
Q 3647 1150 3233 529 
Q 2819 -91 2034 -91 
Q 1250 -91 836 529 
Q 422 1150 422 2328 
Q 422 3509 836 4129 
Q 1250 4750 2034 4750 
z
" transform="scale(0.015625)"/>
       </defs>
       <use xlink:href="#DejaVuSans-30"/>
      </g>
     </g>
    </g>
    <g id="xtick_2">
     <g id="line2d_3">
      <path d="M 189.746054 221.272 
L 189.746054 41.856 
" clip-path="url(#pccb8c36ac5)" style="fill: none; stroke: #b0b0b0; stroke-opacity: 0.25; stroke-width: 0.8; stroke-linecap: square"/>
     </g>
     <g id="line2d_4">
      <g>
       <use xlink:href="#m019b53bbc1" x="189.746054" y="221.272" style="stroke: #000000; stroke-width: 0.8"/>
      </g>
     </g>
     <g id="text_2">
      <!-- 2 -->
      <g transform="translate(186.564804 235.870437) scale(0.1 -0.1)">
       <defs>
        <path id="DejaVuSans-32" d="M 1228 531 
L 3431 531 
L 3431 0 
L 469 0 
L 469 531 
Q 828 903 1448 1529 
Q 2069 2156 2228 2338 
Q 2531 2678 2651 2914 
Q 2772 3150 2772 3378 
Q 2772 3750 2511 3984 
Q 2250 4219 1831 4219 
Q 1534 4219 1204 4116 
Q 875 4013 500 3803 
L 500 4441 
Q 881 4594 1212 4672 
Q 1544 4750 1819 4750 
Q 2544 4750 2975 4387 
Q 3406 4025 3406 3419 
Q 3406 3131 3298 2873 
Q 3191 2616 2906 2266 
Q 2828 2175 2409 1742 
Q 1991 1309 1228 531 
z
" transform="scale(0.015625)"/>
       </defs>
       <use xlink:href="#DejaVuSans-32"/>
      </g>
     </g>
    </g>
    <g id="xtick_3">
     <g id="line2d_5">
      <path d="M 292.938964 221.272 
L 292.938964 41.856 
" clip-path="url(#pccb8c36ac5)" style="fill: none; stroke: #b0b0b0; stroke-opacity: 0.25; stroke-width: 0.8; stroke-linecap: square"/>
     </g>
     <g id="line2d_6">
      <g>
       <use xlink:href="#m019b53bbc1" x="292.938964" y="221.272" style="stroke: #000000; stroke-width: 0.8"/>
      </g>
     </g>
     <g id="text_3">
      <!-- 4 -->
      <g transform="translate(289.757714 235.870437) scale(0.1 -0.1)">
       <defs>
        <path id="DejaVuSans-34" d="M 2419 4116 
L 825 1625 
L 2419 1625 
L 2419 4116 
z
M 2253 4666 
L 3047 4666 
L 3047 1625 
L 3713 1625 
L 3713 1100 
L 3047 1100 
L 3047 0 
L 2419 0 
L 2419 1100 
L 313 1100 
L 313 1709 
L 2253 4666 
z
" transform="scale(0.015625)"/>
       </defs>
       <use xlink:href="#DejaVuSans-34"/>
      </g>
     </g>
    </g>
    <g id="xtick_4">
     <g id="line2d_7">
      <path d="M 396.131875 221.272 
L 396.131875 41.856 
" clip-path="url(#pccb8c36ac5)" style="fill: none; stroke: #b0b0b0; stroke-opacity: 0.25; stroke-width: 0.8; stroke-linecap: square"/>
     </g>
     <g id="line2d_8">
      <g>
       <use xlink:href="#m019b53bbc1" x="396.131875" y="221.272" style="stroke: #000000; stroke-width: 0.8"/>
      </g>
     </g>
     <g id="text_4">
      <!-- 6 -->
      <g transform="translate(392.950625 235.870437) scale(0.1 -0.1)">
       <defs>
        <path id="DejaVuSans-36" d="M 2113 2584 
Q 1688 2584 1439 2293 
Q 1191 2003 1191 1497 
Q 1191 994 1439 701 
Q 1688 409 2113 409 
Q 2538 409 2786 701 
Q 3034 994 3034 1497 
Q 3034 2003 2786 2293 
Q 2538 2584 2113 2584 
z
M 3366 4563 
L 3366 3988 
Q 3128 4100 2886 4159 
Q 2644 4219 2406 4219 
Q 1781 4219 1451 3797 
Q 1122 3375 1075 2522 
Q 1259 2794 1537 2939 
Q 1816 3084 2150 3084 
Q 2853 3084 3261 2657 
Q 3669 2231 3669 1497 
Q 3669 778 3244 343 
Q 2819 -91 2113 -91 
Q 1303 -91 875 529 
Q 447 1150 447 2328 
Q 447 3434 972 4092 
Q 1497 4750 2381 4750 
Q 2619 4750 2861 4703 
Q 3103 4656 3366 4563 
z
" transform="scale(0.015625)"/>
       </defs>
       <use xlink:href="#DejaVuSans-36"/>
      </g>
     </g>
    </g>
    <g id="xtick_5">
     <g id="line2d_9">
      <path d="M 499.324786 221.272 
L 499.324786 41.856 
" clip-path="url(#pccb8c36ac5)" style="fill: none; stroke: #b0b0b0; stroke-opacity: 0.25; stroke-width: 0.8; stroke-linecap: square"/>
     </g>
     <g id="line2d_10">
      <g>
       <use xlink:href="#m019b53bbc1" x="499.324786" y="221.272" style="stroke: #000000; stroke-width: 0.8"/>
      </g>
     </g>
     <g id="text_5">
      <!-- 8 -->
      <g transform="translate(496.143536 235.870437) scale(0.1 -0.1)">
       <defs>
        <path id="DejaVuSans-38" d="M 2034 2216 
Q 1584 2216 1326 1975 
Q 1069 1734 1069 1313 
Q 1069 891 1326 650 
Q 1584 409 2034 409 
Q 2484 409 2743 651 
Q 3003 894 3003 1313 
Q 3003 1734 2745 1975 
Q 2488 2216 2034 2216 
z
M 1403 2484 
Q 997 2584 770 2862 
Q 544 3141 544 3541 
Q 544 4100 942 4425 
Q 1341 4750 2034 4750 
Q 2731 4750 3128 4425 
Q 3525 4100 3525 3541 
Q 3525 3141 3298 2862 
Q 3072 2584 2669 2484 
Q 3125 2378 3379 2068 
Q 3634 1759 3634 1313 
Q 3634 634 3220 271 
Q 2806 -91 2034 -91 
Q 1263 -91 848 271 
Q 434 634 434 1313 
Q 434 1759 690 2068 
Q 947 2378 1403 2484 
z
M 1172 3481 
Q 1172 3119 1398 2916 
Q 1625 2713 2034 2713 
Q 2441 2713 2670 2916 
Q 2900 3119 2900 3481 
Q 2900 3844 2670 4047 
Q 2441 4250 2034 4250 
Q 1625 4250 1398 4047 
Q 1172 3844 1172 3481 
z
" transform="scale(0.015625)"/>
       </defs>
       <use xlink:href="#DejaVuSans-38"/>
      </g>
     </g>
    </g>
    <g id="xtick_6">
     <g id="line2d_11">
      <path d="M 602.517696 221.272 
L 602.517696 41.856 
" clip-path="url(#pccb8c36ac5)" style="fill: none; stroke: #b0b0b0; stroke-opacity: 0.25; stroke-width: 0.8; stroke-linecap: square"/>
     </g>
     <g id="line2d_12">
      <g>
       <use xlink:href="#m019b53bbc1" x="602.517696" y="221.272" style="stroke: #000000; stroke-width: 0.8"/>
      </g>
     </g>
     <g id="text_6">
      <!-- 10 -->
      <g transform="translate(596.155196 235.870437) scale(0.1 -0.1)">
       <defs>
        <path id="DejaVuSans-31" d="M 794 531 
L 1825 531 
L 1825 4091 
L 703 3866 
L 703 4441 
L 1819 4666 
L 2450 4666 
L 2450 531 
L 3481 531 
L 3481 0 
L 794 0 
L 794 531 
z
" transform="scale(0.015625)"/>
       </defs>
       <use xlink:href="#DejaVuSans-31"/>
       <use xlink:href="#DejaVuSans-30" transform="translate(63.623047 0)"/>
      </g>
     </g>
    </g>
    <g id="text_7">
     <!-- t [arb.] -->
     <g transform="translate(327.138842 249.548563) scale(0.1 -0.1)">
      <defs>
       <path id="DejaVuSans-74" d="M 1172 4494 
L 1172 3500 
L 2356 3500 
L 2356 3053 
L 1172 3053 
L 1172 1153 
Q 1172 725 1289 603 
Q 1406 481 1766 481 
L 2356 481 
L 2356 0 
L 1766 0 
Q 1100 0 847 248 
Q 594 497 594 1153 
L 594 3053 
L 172 3053 
L 172 3500 
L 594 3500 
L 594 4494 
L 1172 4494 
z
" transform="scale(0.015625)"/>
       <path id="DejaVuSans-20" transform="scale(0.015625)"/>
       <path id="DejaVuSans-5b" d="M 550 4863 
L 1875 4863 
L 1875 4416 
L 1125 4416 
L 1125 -397 
L 1875 -397 
L 1875 -844 
L 550 -844 
L 550 4863 
z
" transform="scale(0.015625)"/>
       <path id="DejaVuSans-61" d="M 2194 1759 
Q 1497 1759 1228 1600 
Q 959 1441 959 1056 
Q 959 750 1161 570 
Q 1363 391 1709 391 
Q 2188 391 2477 730 
Q 2766 1069 2766 1631 
L 2766 1759 
L 2194 1759 
z
M 3341 1997 
L 3341 0 
L 2766 0 
L 2766 531 
Q 2569 213 2275 61 
Q 1981 -91 1556 -91 
Q 1019 -91 701 211 
Q 384 513 384 1019 
Q 384 1609 779 1909 
Q 1175 2209 1959 2209 
L 2766 2209 
L 2766 2266 
Q 2766 2663 2505 2880 
Q 2244 3097 1772 3097 
Q 1472 3097 1187 3025 
Q 903 2953 641 2809 
L 641 3341 
Q 956 3463 1253 3523 
Q 1550 3584 1831 3584 
Q 2591 3584 2966 3190 
Q 3341 2797 3341 1997 
z
" transform="scale(0.015625)"/>
       <path id="DejaVuSans-72" d="M 2631 2963 
Q 2534 3019 2420 3045 
Q 2306 3072 2169 3072 
Q 1681 3072 1420 2755 
Q 1159 2438 1159 1844 
L 1159 0 
L 581 0 
L 581 3500 
L 1159 3500 
L 1159 2956 
Q 1341 3275 1631 3429 
Q 1922 3584 2338 3584 
Q 2397 3584 2469 3576 
Q 2541 3569 2628 3553 
L 2631 2963 
z
" transform="scale(0.015625)"/>
       <path id="DejaVuSans-62" d="M 3116 1747 
Q 3116 2381 2855 2742 
Q 2594 3103 2138 3103 
Q 1681 3103 1420 2742 
Q 1159 2381 1159 1747 
Q 1159 1113 1420 752 
Q 1681 391 2138 391 
Q 2594 391 2855 752 
Q 3116 1113 3116 1747 
z
M 1159 2969 
Q 1341 3281 1617 3432 
Q 1894 3584 2278 3584 
Q 2916 3584 3314 3078 
Q 3713 2572 3713 1747 
Q 3713 922 3314 415 
Q 2916 -91 2278 -91 
Q 1894 -91 1617 61 
Q 1341 213 1159 525 
L 1159 0 
L 581 0 
L 581 4863 
L 1159 4863 
L 1159 2969 
z
" transform="scale(0.015625)"/>
       <path id="DejaVuSans-2e" d="M 684 794 
L 1344 794 
L 1344 0 
L 684 0 
L 684 794 
z
" transform="scale(0.015625)"/>
       <path id="DejaVuSans-5d" d="M 1947 4863 
L 1947 -844 
L 622 -844 
L 622 -397 
L 1369 -397 
L 1369 4416 
L 622 4416 
L 622 4863 
L 1947 4863 
z
" transform="scale(0.015625)"/>
      </defs>
      <use xlink:href="#DejaVuSans-74"/>
      <use xlink:href="#DejaVuSans-20" transform="translate(39.208984 0)"/>
      <use xlink:href="#DejaVuSans-5b" transform="translate(70.996094 0)"/>
      <use xlink:href="#DejaVuSans-61" transform="translate(110.009766 0)"/>
      <use xlink:href="#DejaVuSans-72" transform="translate(171.289062 0)"/>
      <use xlink:href="#DejaVuSans-62" transform="translate(212.402344 0)"/>
      <use xlink:href="#DejaVuSans-2e" transform="translate(275.878906 0)"/>
      <use xlink:href="#DejaVuSans-5d" transform="translate(307.666016 0)"/>
     </g>
    </g>
   </g>
   <g id="matplotlib.axis_2">
    <g id="ytick_1">
     <g id="line2d_13">
      <path d="M 60.761214 211.534828 
L 628.183658 211.534828 
" clip-path="url(#pccb8c36ac5)" style="fill: none; stroke: #b0b0b0; stroke-opacity: 0.25; stroke-width: 0.8; stroke-linecap: square"/>
     </g>
     <g id="line2d_14">
      <defs>
       <path id="m438951833b" d="M 0 0 
L -3.5 0 
" style="stroke: #000000; stroke-width: 0.8"/>
      </defs>
      <g>
       <use xlink:href="#m438951833b" x="60.761214" y="211.534828" style="stroke: #000000; stroke-width: 0.8"/>
      </g>
     </g>
     <g id="text_8">
      <!-- −1.0 -->
      <g transform="translate(29.478401 215.334046) scale(0.1 -0.1)">
       <defs>
        <path id="DejaVuSans-2212" d="M 678 2272 
L 4684 2272 
L 4684 1741 
L 678 1741 
L 678 2272 
z
" transform="scale(0.015625)"/>
       </defs>
       <use xlink:href="#DejaVuSans-2212"/>
       <use xlink:href="#DejaVuSans-31" transform="translate(83.789062 0)"/>
       <use xlink:href="#DejaVuSans-2e" transform="translate(147.412109 0)"/>
       <use xlink:href="#DejaVuSans-30" transform="translate(179.199219 0)"/>
      </g>
     </g>
    </g>
    <g id="ytick_2">
     <g id="line2d_15">
      <path d="M 60.761214 171.549422 
L 628.183658 171.549422 
" clip-path="url(#pccb8c36ac5)" style="fill: none; stroke: #b0b0b0; stroke-opacity: 0.25; stroke-width: 0.8; stroke-linecap: square"/>
     </g>
     <g id="line2d_16">
      <g>
       <use xlink:href="#m438951833b" x="60.761214" y="171.549422" style="stroke: #000000; stroke-width: 0.8"/>
      </g>
     </g>
     <g id="text_9">
      <!-- −0.5 -->
      <g transform="translate(29.478401 175.34864) scale(0.1 -0.1)">
       <defs>
        <path id="DejaVuSans-35" d="M 691 4666 
L 3169 4666 
L 3169 4134 
L 1269 4134 
L 1269 2991 
Q 1406 3038 1543 3061 
Q 1681 3084 1819 3084 
Q 2600 3084 3056 2656 
Q 3513 2228 3513 1497 
Q 3513 744 3044 326 
Q 2575 -91 1722 -91 
Q 1428 -91 1123 -41 
Q 819 9 494 109 
L 494 744 
Q 775 591 1075 516 
Q 1375 441 1709 441 
Q 2250 441 2565 725 
Q 2881 1009 2881 1497 
Q 2881 1984 2565 2268 
Q 2250 2553 1709 2553 
Q 1456 2553 1204 2497 
Q 953 2441 691 2322 
L 691 4666 
z
" transform="scale(0.015625)"/>
       </defs>
       <use xlink:href="#DejaVuSans-2212"/>
       <use xlink:href="#DejaVuSans-30" transform="translate(83.789062 0)"/>
       <use xlink:href="#DejaVuSans-2e" transform="translate(147.412109 0)"/>
       <use xlink:href="#DejaVuSans-35" transform="translate(179.199219 0)"/>
      </g>
     </g>
    </g>
    <g id="ytick_3">
     <g id="line2d_17">
      <path d="M 60.761214 131.564015 
L 628.183658 131.564015 
" clip-path="url(#pccb8c36ac5)" style="fill: none; stroke: #b0b0b0; stroke-opacity: 0.25; stroke-width: 0.8; stroke-linecap: square"/>
     </g>
     <g id="line2d_18">
      <g>
       <use xlink:href="#m438951833b" x="60.761214" y="131.564015" style="stroke: #000000; stroke-width: 0.8"/>
      </g>
     </g>
     <g id="text_10">
      <!-- 0.0 -->
      <g transform="translate(37.858089 135.363234) scale(0.1 -0.1)">
       <use xlink:href="#DejaVuSans-30"/>
       <use xlink:href="#DejaVuSans-2e" transform="translate(63.623047 0)"/>
       <use xlink:href="#DejaVuSans-30" transform="translate(95.410156 0)"/>
      </g>
     </g>
    </g>
    <g id="ytick_4">
     <g id="line2d_19">
      <path d="M 60.761214 91.578609 
L 628.183658 91.578609 
" clip-path="url(#pccb8c36ac5)" style="fill: none; stroke: #b0b0b0; stroke-opacity: 0.25; stroke-width: 0.8; stroke-linecap: square"/>
     </g>
     <g id="line2d_20">
      <g>
       <use xlink:href="#m438951833b" x="60.761214" y="91.578609" style="stroke: #000000; stroke-width: 0.8"/>
      </g>
     </g>
     <g id="text_11">
      <!-- 0.5 -->
      <g transform="translate(37.858089 95.377828) scale(0.1 -0.1)">
       <use xlink:href="#DejaVuSans-30"/>
       <use xlink:href="#DejaVuSans-2e" transform="translate(63.623047 0)"/>
       <use xlink:href="#DejaVuSans-35" transform="translate(95.410156 0)"/>
      </g>
     </g>
    </g>
    <g id="ytick_5">
     <g id="line2d_21">
      <path d="M 60.761214 51.593203 
L 628.183658 51.593203 
" clip-path="url(#pccb8c36ac5)" style="fill: none; stroke: #b0b0b0; stroke-opacity: 0.25; stroke-width: 0.8; stroke-linecap: square"/>
     </g>
     <g id="line2d_22">
      <g>
       <use xlink:href="#m438951833b" x="60.761214" y="51.593203" style="stroke: #000000; stroke-width: 0.8"/>
      </g>
     </g>
     <g id="text_12">
      <!-- 1.0 -->
      <g transform="translate(37.858089 55.392422) scale(0.1 -0.1)">
       <use xlink:href="#DejaVuSans-31"/>
       <use xlink:href="#DejaVuSans-2e" transform="translate(63.623047 0)"/>
       <use xlink:href="#DejaVuSans-30" transform="translate(95.410156 0)"/>
      </g>
     </g>
    </g>
    <g id="text_13">
     <!-- [arb.] -->
     <g transform="translate(23.398714 145.348375) rotate(-90) scale(0.1 -0.1)">
      <use xlink:href="#DejaVuSans-5b"/>
      <use xlink:href="#DejaVuSans-61" transform="translate(39.013672 0)"/>
      <use xlink:href="#DejaVuSans-72" transform="translate(100.292969 0)"/>
      <use xlink:href="#DejaVuSans-62" transform="translate(141.40625 0)"/>
      <use xlink:href="#DejaVuSans-2e" transform="translate(204.882812 0)"/>
      <use xlink:href="#DejaVuSans-5d" transform="translate(236.669922 0)"/>
     </g>
    </g>
   </g>
   <g id="line2d_23">
    <path d="M 86.553143 131.564015 
L 89.072501 91.803461 
L 90.33218 75.149762 
L 91.339923 64.402136 
L 92.221699 57.263872 
L 92.977506 53.012675 
L 93.481378 51.190841 
L 93.859282 50.370479 
L 94.237185 50.023701 
L 94.489121 50.056729 
L 94.741057 50.30111 
L 95.118961 51.06243 
L 95.622832 52.806766 
L 96.252672 56.132256 
L 97.008479 61.728552 
L 97.890255 70.302565 
L 98.897998 82.459712 
L 100.157677 100.444535 
L 102.299131 134.936941 
L 104.566554 170.642284 
L 105.826233 187.412878 
L 106.833976 198.280719 
L 107.715751 205.539463 
L 108.471559 209.902272 
L 108.975431 211.801439 
L 109.479302 212.868909 
L 109.857206 213.116727 
L 110.109142 213.017649 
L 110.487045 212.473238 
L 110.864949 211.456902 
L 111.368821 209.378322 
L 111.99866 205.649169 
L 112.754468 199.597802 
L 113.636243 190.546617 
L 114.769954 176.210185 
L 116.155601 155.603308 
L 121.06835 79.409585 
L 122.202061 66.530396 
L 123.083836 58.835907 
L 123.839644 54.067584 
L 124.469483 51.469672 
L 124.973355 50.32356 
L 125.351259 50.016277 
L 125.603194 50.075675 
L 125.85513 50.346375 
L 126.233034 51.146934 
L 126.736906 52.942782 
L 127.366745 56.330618 
L 128.122553 61.997406 
L 129.004328 70.645635 
L 130.012071 82.874166 
L 131.397718 102.858061 
L 133.791109 141.659714 
L 135.806595 172.899366 
L 137.066274 189.274948 
L 138.074017 199.738818 
L 138.955793 206.593988 
L 139.585632 210.044655 
L 140.089504 211.892457 
L 140.467408 212.732613 
L 140.845311 213.099332 
L 141.097247 213.07962 
L 141.349183 212.848534 
L 141.727087 212.107042 
L 142.230958 210.388746 
L 142.860798 207.094792 
L 143.616605 201.53418 
L 144.498381 192.997777 
L 145.506124 180.876867 
L 146.765803 162.925068 
L 148.78129 130.528314 
L 151.17468 92.715489 
L 152.434359 75.906013 
L 153.442102 64.998056 
L 154.323878 57.699033 
L 155.079685 53.298862 
L 155.583557 51.373786 
L 156.087428 50.279916 
L 156.465332 50.012142 
L 156.717268 50.097906 
L 156.969204 50.394916 
L 157.347107 51.23468 
L 157.850979 53.081968 
L 158.480819 56.532014 
L 159.236626 62.269064 
L 160.118401 70.991161 
L 161.126145 83.290584 
L 162.511792 103.343359 
L 164.905182 142.173388 
L 166.920669 173.344946 
L 168.180348 189.639686 
L 169.188091 200.021642 
L 170.069866 206.795414 
L 170.699706 210.183872 
L 171.203577 211.980236 
L 171.581481 212.781186 
L 171.959385 213.108416 
L 172.211321 213.062334 
L 172.463256 212.804924 
L 172.84116 212.024177 
L 173.345032 210.254333 
L 173.974871 206.897965 
L 174.730679 201.266747 
L 175.612454 192.655953 
L 176.620197 180.46341 
L 177.879877 162.446396 
L 180.021331 127.934983 
L 182.288753 92.260943 
L 183.548432 75.528628 
L 184.556176 64.700217 
L 185.437951 57.481026 
L 186.193759 53.154884 
L 186.69763 51.281133 
L 187.201502 50.23955 
L 187.579406 50.011295 
L 187.831341 50.123423 
L 188.209245 50.687334 
L 188.587149 51.722979 
L 189.09102 53.826817 
L 189.72086 57.586388 
L 190.476667 63.671916 
L 191.358443 72.758734 
L 192.492154 87.132584 
L 193.877801 107.769795 
L 198.790549 183.915259 
L 199.924261 196.751989 
L 200.806036 204.407746 
L 201.561843 209.139903 
L 202.191683 211.706227 
L 202.695555 212.826484 
L 203.073458 213.114211 
L 203.325394 213.041762 
L 203.57733 212.758037 
L 203.955234 211.938067 
L 204.459105 210.116747 
L 205.088945 206.6981 
L 205.844752 200.996503 
L 206.726528 192.311666 
L 207.734271 180.047981 
L 209.119918 160.02989 
L 211.513308 121.213996 
L 213.528795 90.007892 
L 214.788474 73.672245 
L 215.796217 63.24887 
L 216.677992 56.433958 
L 217.307832 53.014067 
L 217.811704 51.191718 
L 218.189607 50.370965 
L 218.567511 50.023791 
L 218.819447 50.056557 
L 219.071383 50.300674 
L 219.449286 51.061601 
L 219.953158 52.805422 
L 220.582998 56.130288 
L 221.338805 61.725878 
L 222.22058 70.299148 
L 223.228324 82.455578 
L 224.488003 100.439749 
L 226.629457 134.931767 
L 228.89688 170.637739 
L 230.156559 187.409105 
L 231.164302 198.277741 
L 232.046077 205.537284 
L 232.801885 209.900833 
L 233.305756 211.800512 
L 233.809628 212.868506 
L 234.187532 213.116719 
L 234.439467 213.017904 
L 234.817371 212.473887 
L 235.195275 211.457942 
L 235.699147 209.379871 
L 236.328986 205.651333 
L 237.084794 199.600657 
L 237.966569 190.550192 
L 239.10028 176.214518 
L 240.485927 155.608256 
L 245.398676 79.413565 
L 246.532387 66.533521 
L 247.414162 58.83825 
L 248.16997 54.069197 
L 248.799809 51.470647 
L 249.303681 50.324013 
L 249.681584 50.016335 
L 249.93352 50.075469 
L 250.185456 50.345907 
L 250.56336 51.146073 
L 251.067231 52.941407 
L 251.697071 56.32862 
L 252.452878 61.994704 
L 253.334654 70.642193 
L 254.342397 82.870013 
L 255.602076 100.91904 
L 257.743531 135.449119 
L 260.010953 171.091503 
L 261.270632 187.785374 
L 262.278375 198.574248 
L 263.160151 205.753813 
L 263.915958 210.043247 
L 264.41983 211.891563 
L 264.797733 212.732111 
L 265.175637 213.099224 
L 265.427573 213.079776 
L 265.679509 212.848954 
L 266.057413 212.107854 
L 266.561284 210.390074 
L 267.191124 207.096745 
L 267.946931 201.536839 
L 268.828707 193.001183 
L 269.83645 180.880991 
L 271.096129 162.929848 
L 273.111615 130.533491 
L 275.505006 92.720042 
L 276.764685 75.909798 
L 277.772428 65.001048 
L 278.654203 57.701228 
L 279.410011 53.300318 
L 279.913882 51.374728 
L 280.417754 50.280336 
L 280.795658 50.012167 
L 281.047594 50.097668 
L 281.299529 50.394414 
L 281.677433 51.233787 
L 282.181305 53.080561 
L 282.811144 56.529985 
L 283.566952 62.266334 
L 284.448727 70.987694 
L 285.45647 83.286411 
L 286.842117 103.338501 
L 289.235508 142.168254 
L 291.250994 173.340499 
L 292.510673 189.636051 
L 293.518417 200.018828 
L 294.400192 206.793415 
L 295.030031 210.182496 
L 295.533903 211.979374 
L 295.911807 212.780717 
L 296.289711 213.108341 
L 296.541646 213.062523 
L 296.793582 212.805376 
L 297.171486 212.025021 
L 297.675358 210.255692 
L 298.305197 206.899948 
L 299.061005 201.269435 
L 299.94278 192.659383 
L 300.950523 180.467553 
L 302.210202 162.451188 
L 304.351657 127.940155 
L 306.619079 92.26548 
L 307.878758 75.53239 
L 308.886501 64.703181 
L 309.768277 57.483191 
L 310.524084 53.156308 
L 311.027956 51.282044 
L 311.531828 50.239937 
L 311.909731 50.011287 
L 312.161667 50.123151 
L 312.539571 50.686669 
L 312.917475 51.721924 
L 313.421346 53.825252 
L 314.051186 57.584209 
L 314.806993 63.669048 
L 315.688768 72.755147 
L 316.82248 87.128242 
L 318.208127 107.764842 
L 323.120875 183.911289 
L 324.254586 196.748878 
L 325.136362 204.405417 
L 325.892169 209.138306 
L 326.522009 211.705268 
L 327.02588 212.826047 
L 327.403784 213.11417 
L 327.65572 213.041984 
L 327.907656 212.758522 
L 328.285559 211.938944 
L 328.789431 210.118138 
L 329.419271 206.700113 
L 330.175078 200.999219 
L 331.056853 192.315121 
L 332.064597 180.052144 
L 333.450244 160.034742 
L 335.843634 121.219132 
L 337.85912 90.012348 
L 339.118799 73.675892 
L 340.126543 63.251698 
L 341.008318 56.435972 
L 341.638158 53.015459 
L 342.142029 51.192596 
L 342.519933 50.371451 
L 342.897837 50.023883 
L 343.149773 50.056384 
L 343.401708 50.300238 
L 343.779612 51.060773 
L 344.283484 52.804079 
L 344.913323 56.12832 
L 345.669131 61.723205 
L 346.550906 70.29573 
L 347.558649 82.451444 
L 348.818328 100.434963 
L 350.959783 134.926594 
L 353.227205 170.633194 
L 354.486884 187.405332 
L 355.494628 198.274763 
L 356.376403 205.535104 
L 357.13221 209.899393 
L 357.636082 211.799586 
L 358.139954 212.868102 
L 358.517857 213.11671 
L 358.769793 213.018159 
L 359.147697 212.474536 
L 359.525601 211.45898 
L 360.029472 209.381421 
L 360.659312 205.653497 
L 361.415119 199.603512 
L 362.296895 190.553768 
L 363.430606 176.218851 
L 364.816253 155.613203 
L 369.729001 79.417546 
L 370.862712 66.536645 
L 371.744488 58.840593 
L 372.500295 54.07081 
L 373.130135 51.471622 
L 373.634006 50.324466 
L 374.01191 50.016393 
L 374.263846 50.075264 
L 374.515782 50.345438 
L 374.893686 51.145212 
L 375.397557 52.940031 
L 376.027397 56.326622 
L 376.783204 61.992002 
L 377.664979 70.638751 
L 378.672723 82.865859 
L 379.932402 100.914242 
L 382.073856 135.443947 
L 384.341279 171.086974 
L 385.600958 187.781623 
L 386.608701 198.571296 
L 387.490476 205.751663 
L 388.246284 210.041838 
L 388.750155 211.890668 
L 389.128059 212.731608 
L 389.505963 213.099116 
L 389.757899 213.079932 
L 390.009835 212.849373 
L 390.387738 212.108666 
L 390.89161 210.391401 
L 391.521449 207.098697 
L 392.277257 201.539499 
L 393.159032 193.004587 
L 394.166776 180.885114 
L 395.426455 162.934627 
L 397.441941 130.538668 
L 399.835331 92.724595 
L 401.09501 75.913583 
L 402.102754 65.00404 
L 402.984529 57.703423 
L 403.740337 53.301773 
L 404.244208 51.375671 
L 404.74808 50.280757 
L 405.125984 50.012192 
L 405.377919 50.09743 
L 405.629855 50.393913 
L 406.007759 51.232894 
L 406.511631 53.079154 
L 407.14147 56.527957 
L 407.897278 62.263605 
L 408.779053 70.984228 
L 409.786796 83.282238 
L 411.172443 103.333644 
L 413.565833 142.16312 
L 415.58132 173.336052 
L 416.840999 189.632415 
L 417.848742 200.016014 
L 418.730518 206.791416 
L 419.360357 210.18112 
L 419.864229 211.978512 
L 420.242133 212.780247 
L 420.620036 213.108266 
L 420.871972 213.062712 
L 421.123908 212.805828 
L 421.501812 212.025866 
L 422.005683 210.257052 
L 422.635523 206.901931 
L 423.39133 201.272122 
L 424.273106 192.662813 
L 425.280849 180.471697 
L 426.540528 162.45598 
L 428.681982 127.945328 
L 430.949405 92.270017 
L 432.209084 75.536152 
L 433.216827 64.706146 
L 434.098603 57.485356 
L 434.85441 53.157732 
L 435.358282 51.282954 
L 435.862153 50.240325 
L 436.240057 50.01128 
L 436.491993 50.12288 
L 436.869897 50.686004 
L 437.2478 51.72087 
L 437.751672 53.823687 
L 438.381511 57.58203 
L 439.137319 63.666179 
L 440.019094 72.751559 
L 441.152805 87.1239 
L 442.538452 107.75989 
L 447.451201 183.907318 
L 448.584912 196.745766 
L 449.466687 204.403089 
L 450.222495 209.136708 
L 450.852334 211.704308 
L 451.356206 212.82561 
L 451.73411 213.114128 
L 451.986046 213.042205 
L 452.237981 212.759006 
L 452.615885 211.939821 
L 453.119757 210.119529 
L 453.749596 206.702126 
L 454.505404 201.001935 
L 455.387179 192.318575 
L 456.394922 180.056308 
L 457.780569 160.039594 
L 460.17396 121.224267 
L 462.189446 90.016803 
L 463.449125 73.679539 
L 464.456868 63.254526 
L 465.338644 56.437987 
L 465.968483 53.016852 
L 466.472355 51.193474 
L 466.850259 50.371937 
L 467.228162 50.023974 
L 467.480098 50.056212 
L 467.732034 50.299803 
L 468.109938 51.059945 
L 468.613809 52.802736 
L 469.243649 56.126353 
L 469.999456 61.720531 
L 470.881232 70.292313 
L 471.888975 82.447311 
L 473.148654 100.430177 
L 475.290109 134.921421 
L 477.557531 170.628649 
L 478.81721 187.401558 
L 479.824953 198.271785 
L 480.706729 205.532923 
L 481.462536 209.897953 
L 481.966408 211.798659 
L 482.470279 212.867697 
L 482.848183 213.116701 
L 483.100119 213.018413 
L 483.478023 212.475184 
L 483.855926 211.460019 
L 484.359798 209.38297 
L 484.989638 205.655661 
L 485.745445 199.606367 
L 486.62722 190.557343 
L 487.760932 176.223183 
L 489.146579 155.618151 
L 494.059327 79.421527 
L 495.193038 66.53977 
L 496.074814 58.842937 
L 496.830621 54.072424 
L 497.460461 51.472597 
L 497.964332 50.324919 
L 498.342236 50.016452 
L 498.594172 50.075059 
L 498.846108 50.34497 
L 499.224011 51.144352 
L 499.727883 52.938656 
L 500.357722 56.324624 
L 501.11353 61.989301 
L 501.995305 70.635309 
L 503.003049 82.861706 
L 504.262728 100.909444 
L 506.404182 135.438775 
L 508.671604 171.082445 
L 509.931283 187.777872 
L 510.939027 198.568345 
L 511.820802 205.749513 
L 512.57661 210.04043 
L 513.080481 211.889774 
L 513.458385 212.731105 
L 513.836289 213.099008 
L 514.088224 213.080087 
L 514.34016 212.849792 
L 514.718064 212.109477 
L 515.221936 210.392728 
L 515.851775 207.100649 
L 516.607583 201.542158 
L 517.489358 193.007992 
L 518.497101 180.889238 
L 519.75678 162.939406 
L 521.772267 130.543846 
L 524.165657 92.729148 
L 525.425336 75.917368 
L 526.433079 65.007032 
L 527.314855 57.705618 
L 528.070662 53.30323 
L 528.574534 51.376615 
L 529.078406 50.281177 
L 529.456309 50.012218 
L 529.708245 50.097192 
L 529.960181 50.393412 
L 530.338085 51.232001 
L 530.841956 53.077747 
L 531.471796 56.525929 
L 532.227603 62.260875 
L 533.109379 70.980761 
L 534.117122 83.278066 
L 535.502769 103.328786 
L 537.896159 142.157986 
L 539.911646 173.331605 
L 541.171325 189.62878 
L 542.179068 200.013199 
L 543.060843 206.789416 
L 543.690683 210.179743 
L 544.194555 211.97765 
L 544.572458 212.779777 
L 544.950362 213.108191 
L 545.202298 213.0629 
L 545.454234 212.806279 
L 545.832137 212.02671 
L 546.336009 210.258411 
L 546.965849 206.903913 
L 547.721656 201.274809 
L 548.603431 192.666242 
L 549.611175 180.47584 
L 550.870854 162.460772 
L 553.012308 127.950501 
L 555.279731 92.274554 
L 556.53941 75.539914 
L 557.547153 64.709111 
L 558.428928 57.487522 
L 559.184736 53.159156 
L 559.688607 51.283865 
L 560.192479 50.240713 
L 560.570383 50.011273 
L 560.822319 50.12261 
L 561.200222 50.685339 
L 561.578126 51.719815 
L 562.081998 53.822123 
L 562.711837 57.579851 
L 563.467645 63.663311 
L 564.34942 72.747973 
L 565.483131 87.119559 
L 566.868778 107.754938 
L 571.781527 183.903348 
L 572.915238 196.742655 
L 573.797013 204.40076 
L 574.552821 209.13511 
L 575.18266 211.703349 
L 575.686532 212.825173 
L 576.064435 213.114085 
L 576.316371 213.042426 
L 576.568307 212.759491 
L 576.946211 211.940697 
L 577.450082 210.12092 
L 578.079922 206.704139 
L 578.835729 201.00465 
L 579.717505 192.322029 
L 580.725248 180.06047 
L 582.110895 160.044446 
L 584.504285 121.229403 
L 586.519772 90.021258 
L 587.779451 73.683187 
L 588.787194 63.257355 
L 589.66897 56.440001 
L 590.298809 53.018245 
L 590.802681 51.194353 
L 591.180584 50.372424 
L 591.558488 50.024066 
L 591.810424 50.05604 
L 592.06236 50.299368 
L 592.440264 51.059118 
L 592.944135 52.801393 
L 593.573975 56.124386 
L 594.329782 61.717858 
L 595.211558 70.288896 
L 596.219301 82.443177 
L 597.47898 100.425392 
L 599.620434 134.916247 
L 601.887857 170.624104 
L 602.391728 177.700883 
L 602.391728 177.700883 
" clip-path="url(#pccb8c36ac5)" style="fill: none; stroke: #1f77b4; stroke-width: 1.5; stroke-linecap: square"/>
   </g>
   <g id="line2d_24">
    <path d="M 86.553143 131.564015 
L 89.198469 131.449996 
L 92.347667 131.078992 
L 99.779773 130.096547 
L 102.425099 130.027203 
L 105.070425 130.175274 
L 108.345591 130.59492 
L 114.895922 131.498115 
L 117.667216 131.609634 
L 120.312542 131.49287 
L 123.46174 131.119605 
L 130.893847 130.139009 
L 133.539173 130.072021 
L 136.184499 130.222321 
L 139.459664 130.643543 
L 146.009996 131.543918 
L 148.78129 131.652545 
L 151.426616 131.533053 
L 154.575813 131.157559 
L 161.881952 130.187307 
L 164.527278 130.112338 
L 167.172604 130.255016 
L 170.44777 130.670339 
L 177.124069 131.58716 
L 179.895363 131.692903 
L 182.540689 131.570702 
L 185.689887 131.19301 
L 192.996026 130.224655 
L 195.641352 130.152062 
L 198.286678 130.297006 
L 201.561843 130.713971 
L 208.238143 131.62799 
L 211.009436 131.730857 
L 213.654763 131.605964 
L 216.80396 131.226103 
L 223.984131 130.268383 
L 226.629457 130.187851 
L 229.274783 130.325164 
L 232.549949 130.736159 
L 239.352216 131.666545 
L 242.12351 131.766546 
L 244.768836 131.638977 
L 248.044002 131.238298 
L 254.972237 130.310204 
L 257.743531 130.223052 
L 260.388857 130.362665 
L 263.664022 130.775363 
L 270.466289 131.702959 
L 273.237583 131.8001 
L 275.882909 131.669872 
L 279.158075 131.267032 
L 285.960342 130.350242 
L 288.731636 130.25485 
L 291.376962 130.386819 
L 294.52616 130.77455 
L 301.706331 131.746685 
L 304.351657 131.831642 
L 306.996983 131.69877 
L 310.272148 131.293798 
L 317.074415 130.378916 
L 319.845709 130.286033 
L 322.491036 130.420334 
L 325.766201 130.82875 
L 332.694436 131.769846 
L 335.46573 131.861288 
L 338.111056 131.725787 
L 341.386222 131.318712 
L 348.188489 130.4058 
L 350.959783 130.315439 
L 353.605109 130.452074 
L 356.880275 130.862247 
L 363.682542 131.791004 
L 366.453836 131.890365 
L 369.099162 131.762188 
L 372.374327 131.360749 
L 379.302562 130.430998 
L 382.073856 130.343173 
L 384.719182 130.482147 
L 387.994348 130.89407 
L 394.796615 131.820133 
L 397.567909 131.916673 
L 400.213235 131.785874 
L 403.488401 131.38232 
L 410.290668 130.463997 
L 413.061962 130.367969 
L 415.707288 130.499335 
L 418.856486 130.886362 
L 426.036656 131.856976 
L 428.681982 131.941394 
L 431.327309 131.807985 
L 434.602474 131.402342 
L 441.404741 130.486016 
L 444.176035 130.392532 
L 446.821361 130.526263 
L 450.096527 130.93399 
L 457.024762 131.873706 
L 459.796056 131.964618 
L 462.441382 131.828613 
L 465.716548 131.420907 
L 472.518815 130.506633 
L 475.290109 130.415705 
L 477.935435 130.551803 
L 481.2106 130.961325 
L 488.012867 131.888807 
L 490.784161 131.987671 
L 493.429487 131.859021 
L 496.704653 131.456989 
L 503.632888 130.525932 
L 506.404182 130.437571 
L 509.049508 130.576037 
L 512.324674 130.987347 
L 519.126941 131.912212 
L 521.898235 132.008285 
L 524.543561 131.877042 
L 527.818726 131.472931 
L 534.620994 130.553399 
L 537.392288 130.456865 
L 540.037614 130.587752 
L 543.186811 130.974221 
L 550.366982 131.943645 
L 553.012308 132.027645 
L 555.657634 131.89382 
L 558.9328 131.487653 
L 565.735067 130.570187 
L 568.506361 130.476226 
L 571.151687 130.609504 
L 574.426853 131.016684 
L 581.355088 131.95532 
L 584.126382 132.045822 
L 586.771708 131.909427 
L 590.046873 131.501228 
L 596.84914 130.585879 
L 599.620434 130.4945 
L 602.26576 130.630171 
L 602.391728 130.641661 
L 602.391728 130.641661 
" clip-path="url(#pccb8c36ac5)" style="fill: none; stroke: #ff7f0e; stroke-width: 1.5; stroke-linecap: square"/>
   </g>
   <g id="patch_3">
    <path d="M 60.761214 221.272 
L 60.761214 41.856 
" style="fill: none; stroke: #000000; stroke-width: 0.8; stroke-linejoin: miter; stroke-linecap: square"/>
   </g>
   <g id="patch_4">
    <path d="M 628.183658 221.272 
L 628.183658 41.856 
" style="fill: none; stroke: #000000; stroke-width: 0.8; stroke-linejoin: miter; stroke-linecap: square"/>
   </g>
   <g id="patch_5">
    <path d="M 60.761214 221.272 
L 628.183658 221.272 
" style="fill: none; stroke: #000000; stroke-width: 0.8; stroke-linejoin: miter; stroke-linecap: square"/>
   </g>
   <g id="patch_6">
    <path d="M 60.761214 41.856 
L 628.183658 41.856 
" style="fill: none; stroke: #000000; stroke-width: 0.8; stroke-linejoin: miter; stroke-linecap: square"/>
   </g>
   <g id="text_14">
    <!-- Daily Useless RL (2026-03-05) | verdict: feral -->
    <g transform="translate(209.578373 22.021875) scale(0.12 -0.12)">
     <defs>
      <path id="DejaVuSans-44" d="M 1259 4147 
L 1259 519 
L 2022 519 
Q 2988 519 3436 956 
Q 3884 1394 3884 2338 
Q 3884 3275 3436 3711 
Q 2988 4147 2022 4147 
L 1259 4147 
z
M 628 4666 
L 1925 4666 
Q 3281 4666 3915 4102 
Q 4550 3538 4550 2338 
Q 4550 1131 3912 565 
Q 3275 0 1925 0 
L 628 0 
L 628 4666 
z
" transform="scale(0.015625)"/>
      <path id="DejaVuSans-69" d="M 603 3500 
L 1178 3500 
L 1178 0 
L 603 0 
L 603 3500 
z
M 603 4863 
L 1178 4863 
L 1178 4134 
L 603 4134 
L 603 4863 
z
" transform="scale(0.015625)"/>
      <path id="DejaVuSans-6c" d="M 603 4863 
L 1178 4863 
L 1178 0 
L 603 0 
L 603 4863 
z
" transform="scale(0.015625)"/>
      <path id="DejaVuSans-79" d="M 2059 -325 
Q 1816 -950 1584 -1140 
Q 1353 -1331 966 -1331 
L 506 -1331 
L 506 -850 
L 844 -850 
Q 1081 -850 1212 -737 
Q 1344 -625 1503 -206 
L 1606 56 
L 191 3500 
L 800 3500 
L 1894 763 
L 2988 3500 
L 3597 3500 
L 2059 -325 
z
" transform="scale(0.015625)"/>
      <path id="DejaVuSans-55" d="M 556 4666 
L 1191 4666 
L 1191 1831 
Q 1191 1081 1462 751 
Q 1734 422 2344 422 
Q 2950 422 3222 751 
Q 3494 1081 3494 1831 
L 3494 4666 
L 4128 4666 
L 4128 1753 
Q 4128 841 3676 375 
Q 3225 -91 2344 -91 
Q 1459 -91 1007 375 
Q 556 841 556 1753 
L 556 4666 
z
" transform="scale(0.015625)"/>
      <path id="DejaVuSans-73" d="M 2834 3397 
L 2834 2853 
Q 2591 2978 2328 3040 
Q 2066 3103 1784 3103 
Q 1356 3103 1142 2972 
Q 928 2841 928 2578 
Q 928 2378 1081 2264 
Q 1234 2150 1697 2047 
L 1894 2003 
Q 2506 1872 2764 1633 
Q 3022 1394 3022 966 
Q 3022 478 2636 193 
Q 2250 -91 1575 -91 
Q 1294 -91 989 -36 
Q 684 19 347 128 
L 347 722 
Q 666 556 975 473 
Q 1284 391 1588 391 
Q 1994 391 2212 530 
Q 2431 669 2431 922 
Q 2431 1156 2273 1281 
Q 2116 1406 1581 1522 
L 1381 1569 
Q 847 1681 609 1914 
Q 372 2147 372 2553 
Q 372 3047 722 3315 
Q 1072 3584 1716 3584 
Q 2034 3584 2315 3537 
Q 2597 3491 2834 3397 
z
" transform="scale(0.015625)"/>
      <path id="DejaVuSans-65" d="M 3597 1894 
L 3597 1613 
L 953 1613 
Q 991 1019 1311 708 
Q 1631 397 2203 397 
Q 2534 397 2845 478 
Q 3156 559 3463 722 
L 3463 178 
Q 3153 47 2828 -22 
Q 2503 -91 2169 -91 
Q 1331 -91 842 396 
Q 353 884 353 1716 
Q 353 2575 817 3079 
Q 1281 3584 2069 3584 
Q 2775 3584 3186 3129 
Q 3597 2675 3597 1894 
z
M 3022 2063 
Q 3016 2534 2758 2815 
Q 2500 3097 2075 3097 
Q 1594 3097 1305 2825 
Q 1016 2553 972 2059 
L 3022 2063 
z
" transform="scale(0.015625)"/>
      <path id="DejaVuSans-52" d="M 2841 2188 
Q 3044 2119 3236 1894 
Q 3428 1669 3622 1275 
L 4263 0 
L 3584 0 
L 2988 1197 
Q 2756 1666 2539 1819 
Q 2322 1972 1947 1972 
L 1259 1972 
L 1259 0 
L 628 0 
L 628 4666 
L 2053 4666 
Q 2853 4666 3247 4331 
Q 3641 3997 3641 3322 
Q 3641 2881 3436 2590 
Q 3231 2300 2841 2188 
z
M 1259 4147 
L 1259 2491 
L 2053 2491 
Q 2509 2491 2742 2702 
Q 2975 2913 2975 3322 
Q 2975 3731 2742 3939 
Q 2509 4147 2053 4147 
L 1259 4147 
z
" transform="scale(0.015625)"/>
      <path id="DejaVuSans-4c" d="M 628 4666 
L 1259 4666 
L 1259 531 
L 3531 531 
L 3531 0 
L 628 0 
L 628 4666 
z
" transform="scale(0.015625)"/>
      <path id="DejaVuSans-28" d="M 1984 4856 
Q 1566 4138 1362 3434 
Q 1159 2731 1159 2009 
Q 1159 1288 1364 580 
Q 1569 -128 1984 -844 
L 1484 -844 
Q 1016 -109 783 600 
Q 550 1309 550 2009 
Q 550 2706 781 3412 
Q 1013 4119 1484 4856 
L 1984 4856 
z
" transform="scale(0.015625)"/>
      <path id="DejaVuSans-2d" d="M 313 2009 
L 1997 2009 
L 1997 1497 
L 313 1497 
L 313 2009 
z
" transform="scale(0.015625)"/>
      <path id="DejaVuSans-33" d="M 2597 2516 
Q 3050 2419 3304 2112 
Q 3559 1806 3559 1356 
Q 3559 666 3084 287 
Q 2609 -91 1734 -91 
Q 1441 -91 1130 -33 
Q 819 25 488 141 
L 488 750 
Q 750 597 1062 519 
Q 1375 441 1716 441 
Q 2309 441 2620 675 
Q 2931 909 2931 1356 
Q 2931 1769 2642 2001 
Q 2353 2234 1838 2234 
L 1294 2234 
L 1294 2753 
L 1863 2753 
Q 2328 2753 2575 2939 
Q 2822 3125 2822 3475 
Q 2822 3834 2567 4026 
Q 2313 4219 1838 4219 
Q 1578 4219 1281 4162 
Q 984 4106 628 3988 
L 628 4550 
Q 988 4650 1302 4700 
Q 1616 4750 1894 4750 
Q 2613 4750 3031 4423 
Q 3450 4097 3450 3541 
Q 3450 3153 3228 2886 
Q 3006 2619 2597 2516 
z
" transform="scale(0.015625)"/>
      <path id="DejaVuSans-29" d="M 513 4856 
L 1013 4856 
Q 1481 4119 1714 3412 
Q 1947 2706 1947 2009 
Q 1947 1309 1714 600 
Q 1481 -109 1013 -844 
L 513 -844 
Q 928 -128 1133 580 
Q 1338 1288 1338 2009 
Q 1338 2731 1133 3434 
Q 928 4138 513 4856 
z
" transform="scale(0.015625)"/>
      <path id="DejaVuSans-7c" d="M 1344 4891 
L 1344 -1509 
L 813 -1509 
L 813 4891 
L 1344 4891 
z
" transform="scale(0.015625)"/>
      <path id="DejaVuSans-76" d="M 191 3500 
L 800 3500 
L 1894 563 
L 2988 3500 
L 3597 3500 
L 2284 0 
L 1503 0 
L 191 3500 
z
" transform="scale(0.015625)"/>
      <path id="DejaVuSans-64" d="M 2906 2969 
L 2906 4863 
L 3481 4863 
L 3481 0 
L 2906 0 
L 2906 525 
Q 2725 213 2448 61 
Q 2172 -91 1784 -91 
Q 1150 -91 751 415 
Q 353 922 353 1747 
Q 353 2572 751 3078 
Q 1150 3584 1784 3584 
Q 2172 3584 2448 3432 
Q 2725 3281 2906 2969 
z
M 947 1747 
Q 947 1113 1208 752 
Q 1469 391 1925 391 
Q 2381 391 2643 752 
Q 2906 1113 2906 1747 
Q 2906 2381 2643 2742 
Q 2381 3103 1925 3103 
Q 1469 3103 1208 2742 
Q 947 2381 947 1747 
z
" transform="scale(0.015625)"/>
      <path id="DejaVuSans-63" d="M 3122 3366 
L 3122 2828 
Q 2878 2963 2633 3030 
Q 2388 3097 2138 3097 
Q 1578 3097 1268 2742 
Q 959 2388 959 1747 
Q 959 1106 1268 751 
Q 1578 397 2138 397 
Q 2388 397 2633 464 
Q 2878 531 3122 666 
L 3122 134 
Q 2881 22 2623 -34 
Q 2366 -91 2075 -91 
Q 1284 -91 818 406 
Q 353 903 353 1747 
Q 353 2603 823 3093 
Q 1294 3584 2113 3584 
Q 2378 3584 2631 3529 
Q 2884 3475 3122 3366 
z
" transform="scale(0.015625)"/>
      <path id="DejaVuSans-3a" d="M 750 794 
L 1409 794 
L 1409 0 
L 750 0 
L 750 794 
z
M 750 3309 
L 1409 3309 
L 1409 2516 
L 750 2516 
L 750 3309 
z
" transform="scale(0.015625)"/>
      <path id="DejaVuSans-66" d="M 2375 4863 
L 2375 4384 
L 1825 4384 
Q 1516 4384 1395 4259 
Q 1275 4134 1275 3809 
L 1275 3500 
L 2222 3500 
L 2222 3053 
L 1275 3053 
L 1275 0 
L 697 0 
L 697 3053 
L 147 3053 
L 147 3500 
L 697 3500 
L 697 3744 
Q 697 4328 969 4595 
Q 1241 4863 1831 4863 
L 2375 4863 
z
" transform="scale(0.015625)"/>
     </defs>
     <use xlink:href="#DejaVuSans-44"/>
     <use xlink:href="#DejaVuSans-61" transform="translate(77.001953 0)"/>
     <use xlink:href="#DejaVuSans-69" transform="translate(138.28125 0)"/>
     <use xlink:href="#DejaVuSans-6c" transform="translate(166.064453 0)"/>
     <use xlink:href="#DejaVuSans-79" transform="translate(193.847656 0)"/>
     <use xlink:href="#DejaVuSans-20" transform="translate(253.027344 0)"/>
     <use xlink:href="#DejaVuSans-55" transform="translate(284.814453 0)"/>
     <use xlink:href="#DejaVuSans-73" transform="translate(358.007812 0)"/>
     <use xlink:href="#DejaVuSans-65" transform="translate(410.107422 0)"/>
     <use xlink:href="#DejaVuSans-6c" transform="translate(471.630859 0)"/>
     <use xlink:href="#DejaVuSans-65" transform="translate(499.414062 0)"/>
     <use xlink:href="#DejaVuSans-73" transform="translate(560.9375 0)"/>
     <use xlink:href="#DejaVuSans-73" transform="translate(613.037109 0)"/>
     <use xlink:href="#DejaVuSans-20" transform="translate(665.136719 0)"/>
     <use xlink:href="#DejaVuSans-52" transform="translate(696.923828 0)"/>
     <use xlink:href="#DejaVuSans-4c" transform="translate(766.40625 0)"/>
     <use xlink:href="#DejaVuSans-20" transform="translate(822.119141 0)"/>
     <use xlink:href="#DejaVuSans-28" transform="translate(853.90625 0)"/>
     <use xlink:href="#DejaVuSans-32" transform="translate(892.919922 0)"/>
     <use xlink:href="#DejaVuSans-30" transform="translate(956.542969 0)"/>
     <use xlink:href="#DejaVuSans-32" transform="translate(1020.166016 0)"/>
     <use xlink:href="#DejaVuSans-36" transform="translate(1083.789062 0)"/>
     <use xlink:href="#DejaVuSans-2d" transform="translate(1147.412109 0)"/>
     <use xlink:href="#DejaVuSans-30" transform="translate(1183.496094 0)"/>
     <use xlink:href="#DejaVuSans-33" transform="translate(1247.119141 0)"/>
     <use xlink:href="#DejaVuSans-2d" transform="translate(1310.742188 0)"/>
     <use xlink:href="#DejaVuSans-30" transform="translate(1346.826172 0)"/>
     <use xlink:href="#DejaVuSans-35" transform="translate(1410.449219 0)"/>
     <use xlink:href="#DejaVuSans-29" transform="translate(1474.072266 0)"/>
     <use xlink:href="#DejaVuSans-20" transform="translate(1513.085938 0)"/>
     <use xlink:href="#DejaVuSans-7c" transform="translate(1544.873047 0)"/>
     <use xlink:href="#DejaVuSans-20" transform="translate(1578.564453 0)"/>
     <use xlink:href="#DejaVuSans-76" transform="translate(1610.351562 0)"/>
     <use xlink:href="#DejaVuSans-65" transform="translate(1669.53125 0)"/>
     <use xlink:href="#DejaVuSans-72" transform="translate(1731.054688 0)"/>
     <use xlink:href="#DejaVuSans-64" transform="translate(1770.417969 0)"/>
     <use xlink:href="#DejaVuSans-69" transform="translate(1833.894531 0)"/>
     <use xlink:href="#DejaVuSans-63" transform="translate(1861.677734 0)"/>
     <use xlink:href="#DejaVuSans-74" transform="translate(1916.658203 0)"/>
     <use xlink:href="#DejaVuSans-3a" transform="translate(1955.867188 0)"/>
     <use xlink:href="#DejaVuSans-20" transform="translate(1989.558594 0)"/>
     <use xlink:href="#DejaVuSans-66" transform="translate(2021.345703 0)"/>
     <use xlink:href="#DejaVuSans-65" transform="translate(2056.550781 0)"/>
     <use xlink:href="#DejaVuSans-72" transform="translate(2118.074219 0)"/>
     <use xlink:href="#DejaVuSans-61" transform="translate(2159.1875 0)"/>
     <use xlink:href="#DejaVuSans-6c" transform="translate(2220.466797 0)"/>
    </g>
    <!-- Filter: low | Input: sine, sine (A=1.02, f=1.66 Hz) | R=0.50, L=5.00, τ=10.00 -->
    <g transform="translate(115.329623 35.856) scale(0.12 -0.12)">
     <defs>
      <path id="DejaVuSans-46" d="M 628 4666 
L 3309 4666 
L 3309 4134 
L 1259 4134 
L 1259 2759 
L 3109 2759 
L 3109 2228 
L 1259 2228 
L 1259 0 
L 628 0 
L 628 4666 
z
" transform="scale(0.015625)"/>
      <path id="DejaVuSans-6f" d="M 1959 3097 
Q 1497 3097 1228 2736 
Q 959 2375 959 1747 
Q 959 1119 1226 758 
Q 1494 397 1959 397 
Q 2419 397 2687 759 
Q 2956 1122 2956 1747 
Q 2956 2369 2687 2733 
Q 2419 3097 1959 3097 
z
M 1959 3584 
Q 2709 3584 3137 3096 
Q 3566 2609 3566 1747 
Q 3566 888 3137 398 
Q 2709 -91 1959 -91 
Q 1206 -91 779 398 
Q 353 888 353 1747 
Q 353 2609 779 3096 
Q 1206 3584 1959 3584 
z
" transform="scale(0.015625)"/>
      <path id="DejaVuSans-77" d="M 269 3500 
L 844 3500 
L 1563 769 
L 2278 3500 
L 2956 3500 
L 3675 769 
L 4391 3500 
L 4966 3500 
L 4050 0 
L 3372 0 
L 2619 2869 
L 1863 0 
L 1184 0 
L 269 3500 
z
" transform="scale(0.015625)"/>
      <path id="DejaVuSans-49" d="M 628 4666 
L 1259 4666 
L 1259 0 
L 628 0 
L 628 4666 
z
" transform="scale(0.015625)"/>
      <path id="DejaVuSans-6e" d="M 3513 2113 
L 3513 0 
L 2938 0 
L 2938 2094 
Q 2938 2591 2744 2837 
Q 2550 3084 2163 3084 
Q 1697 3084 1428 2787 
Q 1159 2491 1159 1978 
L 1159 0 
L 581 0 
L 581 3500 
L 1159 3500 
L 1159 2956 
Q 1366 3272 1645 3428 
Q 1925 3584 2291 3584 
Q 2894 3584 3203 3211 
Q 3513 2838 3513 2113 
z
" transform="scale(0.015625)"/>
      <path id="DejaVuSans-70" d="M 1159 525 
L 1159 -1331 
L 581 -1331 
L 581 3500 
L 1159 3500 
L 1159 2969 
Q 1341 3281 1617 3432 
Q 1894 3584 2278 3584 
Q 2916 3584 3314 3078 
Q 3713 2572 3713 1747 
Q 3713 922 3314 415 
Q 2916 -91 2278 -91 
Q 1894 -91 1617 61 
Q 1341 213 1159 525 
z
M 3116 1747 
Q 3116 2381 2855 2742 
Q 2594 3103 2138 3103 
Q 1681 3103 1420 2742 
Q 1159 2381 1159 1747 
Q 1159 1113 1420 752 
Q 1681 391 2138 391 
Q 2594 391 2855 752 
Q 3116 1113 3116 1747 
z
" transform="scale(0.015625)"/>
      <path id="DejaVuSans-75" d="M 544 1381 
L 544 3500 
L 1119 3500 
L 1119 1403 
Q 1119 906 1312 657 
Q 1506 409 1894 409 
Q 2359 409 2629 706 
Q 2900 1003 2900 1516 
L 2900 3500 
L 3475 3500 
L 3475 0 
L 2900 0 
L 2900 538 
Q 2691 219 2414 64 
Q 2138 -91 1772 -91 
Q 1169 -91 856 284 
Q 544 659 544 1381 
z
M 1991 3584 
L 1991 3584 
z
" transform="scale(0.015625)"/>
      <path id="DejaVuSans-2c" d="M 750 794 
L 1409 794 
L 1409 256 
L 897 -744 
L 494 -744 
L 750 256 
L 750 794 
z
" transform="scale(0.015625)"/>
      <path id="DejaVuSans-41" d="M 2188 4044 
L 1331 1722 
L 3047 1722 
L 2188 4044 
z
M 1831 4666 
L 2547 4666 
L 4325 0 
L 3669 0 
L 3244 1197 
L 1141 1197 
L 716 0 
L 50 0 
L 1831 4666 
z
" transform="scale(0.015625)"/>
      <path id="DejaVuSans-3d" d="M 678 2906 
L 4684 2906 
L 4684 2381 
L 678 2381 
L 678 2906 
z
M 678 1631 
L 4684 1631 
L 4684 1100 
L 678 1100 
L 678 1631 
z
" transform="scale(0.015625)"/>
      <path id="DejaVuSans-48" d="M 628 4666 
L 1259 4666 
L 1259 2753 
L 3553 2753 
L 3553 4666 
L 4184 4666 
L 4184 0 
L 3553 0 
L 3553 2222 
L 1259 2222 
L 1259 0 
L 628 0 
L 628 4666 
z
" transform="scale(0.015625)"/>
      <path id="DejaVuSans-7a" d="M 353 3500 
L 3084 3500 
L 3084 2975 
L 922 459 
L 3084 459 
L 3084 0 
L 275 0 
L 275 525 
L 2438 3041 
L 353 3041 
L 353 3500 
z
" transform="scale(0.015625)"/>
      <path id="DejaVuSans-3c4" d="M 2319 638 
Q 2431 488 2769 488 
L 3047 488 
L 3047 0 
L 2700 0 
Q 2138 0 1881 300 
Q 1625 606 1625 1269 
L 1625 2925 
L 313 2925 
L 313 3500 
L 3541 3500 
L 3541 2925 
L 2213 2925 
L 2213 1234 
Q 2213 781 2319 638 
z
" transform="scale(0.015625)"/>
     </defs>
     <use xlink:href="#DejaVuSans-46"/>
     <use xlink:href="#DejaVuSans-69" transform="translate(50.269531 0)"/>
     <use xlink:href="#DejaVuSans-6c" transform="translate(78.052734 0)"/>
     <use xlink:href="#DejaVuSans-74" transform="translate(105.835938 0)"/>
     <use xlink:href="#DejaVuSans-65" transform="translate(145.044922 0)"/>
     <use xlink:href="#DejaVuSans-72" transform="translate(206.568359 0)"/>
     <use xlink:href="#DejaVuSans-3a" transform="translate(245.931641 0)"/>
     <use xlink:href="#DejaVuSans-20" transform="translate(279.623047 0)"/>
     <use xlink:href="#DejaVuSans-6c" transform="translate(311.410156 0)"/>
     <use xlink:href="#DejaVuSans-6f" transform="translate(339.193359 0)"/>
     <use xlink:href="#DejaVuSans-77" transform="translate(400.375 0)"/>
     <use xlink:href="#DejaVuSans-20" transform="translate(482.162109 0)"/>
     <use xlink:href="#DejaVuSans-7c" transform="translate(513.949219 0)"/>
     <use xlink:href="#DejaVuSans-20" transform="translate(547.640625 0)"/>
     <use xlink:href="#DejaVuSans-49" transform="translate(579.427734 0)"/>
     <use xlink:href="#DejaVuSans-6e" transform="translate(608.919922 0)"/>
     <use xlink:href="#DejaVuSans-70" transform="translate(672.298828 0)"/>
     <use xlink:href="#DejaVuSans-75" transform="translate(735.775391 0)"/>
     <use xlink:href="#DejaVuSans-74" transform="translate(799.154297 0)"/>
     <use xlink:href="#DejaVuSans-3a" transform="translate(838.363281 0)"/>
     <use xlink:href="#DejaVuSans-20" transform="translate(872.054688 0)"/>
     <use xlink:href="#DejaVuSans-73" transform="translate(903.841797 0)"/>
     <use xlink:href="#DejaVuSans-69" transform="translate(955.941406 0)"/>
     <use xlink:href="#DejaVuSans-6e" transform="translate(983.724609 0)"/>
     <use xlink:href="#DejaVuSans-65" transform="translate(1047.103516 0)"/>
     <use xlink:href="#DejaVuSans-2c" transform="translate(1108.626953 0)"/>
     <use xlink:href="#DejaVuSans-20" transform="translate(1140.414062 0)"/>
     <use xlink:href="#DejaVuSans-73" transform="translate(1172.201172 0)"/>
     <use xlink:href="#DejaVuSans-69" transform="translate(1224.300781 0)"/>
     <use xlink:href="#DejaVuSans-6e" transform="translate(1252.083984 0)"/>
     <use xlink:href="#DejaVuSans-65" transform="translate(1315.462891 0)"/>
     <use xlink:href="#DejaVuSans-20" transform="translate(1376.986328 0)"/>
     <use xlink:href="#DejaVuSans-28" transform="translate(1408.773438 0)"/>
     <use xlink:href="#DejaVuSans-41" transform="translate(1447.787109 0)"/>
     <use xlink:href="#DejaVuSans-3d" transform="translate(1516.195312 0)"/>
     <use xlink:href="#DejaVuSans-31" transform="translate(1599.984375 0)"/>
     <use xlink:href="#DejaVuSans-2e" transform="translate(1663.607422 0)"/>
     <use xlink:href="#DejaVuSans-30" transform="translate(1695.394531 0)"/>
     <use xlink:href="#DejaVuSans-32" transform="translate(1759.017578 0)"/>
     <use xlink:href="#DejaVuSans-2c" transform="translate(1822.640625 0)"/>
     <use xlink:href="#DejaVuSans-20" transform="translate(1854.427734 0)"/>
     <use xlink:href="#DejaVuSans-66" transform="translate(1886.214844 0)"/>
     <use xlink:href="#DejaVuSans-3d" transform="translate(1921.419922 0)"/>
     <use xlink:href="#DejaVuSans-31" transform="translate(2005.208984 0)"/>
     <use xlink:href="#DejaVuSans-2e" transform="translate(2068.832031 0)"/>
     <use xlink:href="#DejaVuSans-36" transform="translate(2100.619141 0)"/>
     <use xlink:href="#DejaVuSans-36" transform="translate(2164.242188 0)"/>
     <use xlink:href="#DejaVuSans-20" transform="translate(2227.865234 0)"/>
     <use xlink:href="#DejaVuSans-48" transform="translate(2259.652344 0)"/>
     <use xlink:href="#DejaVuSans-7a" transform="translate(2334.847656 0)"/>
     <use xlink:href="#DejaVuSans-29" transform="translate(2387.337891 0)"/>
     <use xlink:href="#DejaVuSans-20" transform="translate(2426.351562 0)"/>
     <use xlink:href="#DejaVuSans-7c" transform="translate(2458.138672 0)"/>
     <use xlink:href="#DejaVuSans-20" transform="translate(2491.830078 0)"/>
     <use xlink:href="#DejaVuSans-52" transform="translate(2523.617188 0)"/>
     <use xlink:href="#DejaVuSans-3d" transform="translate(2593.099609 0)"/>
     <use xlink:href="#DejaVuSans-30" transform="translate(2676.888672 0)"/>
     <use xlink:href="#DejaVuSans-2e" transform="translate(2740.511719 0)"/>
     <use xlink:href="#DejaVuSans-35" transform="translate(2772.298828 0)"/>
     <use xlink:href="#DejaVuSans-30" transform="translate(2835.921875 0)"/>
     <use xlink:href="#DejaVuSans-2c" transform="translate(2899.544922 0)"/>
     <use xlink:href="#DejaVuSans-20" transform="translate(2931.332031 0)"/>
     <use xlink:href="#DejaVuSans-4c" transform="translate(2963.119141 0)"/>
     <use xlink:href="#DejaVuSans-3d" transform="translate(3018.832031 0)"/>
     <use xlink:href="#DejaVuSans-35" transform="translate(3102.621094 0)"/>
     <use xlink:href="#DejaVuSans-2e" transform="translate(3166.244141 0)"/>
     <use xlink:href="#DejaVuSans-30" transform="translate(3198.03125 0)"/>
     <use xlink:href="#DejaVuSans-30" transform="translate(3261.654297 0)"/>
     <use xlink:href="#DejaVuSans-2c" transform="translate(3325.277344 0)"/>
     <use xlink:href="#DejaVuSans-20" transform="translate(3357.064453 0)"/>
     <use xlink:href="#DejaVuSans-3c4" transform="translate(3388.851562 0)"/>
     <use xlink:href="#DejaVuSans-3d" transform="translate(3449.056641 0)"/>
     <use xlink:href="#DejaVuSans-31" transform="translate(3532.845703 0)"/>
     <use xlink:href="#DejaVuSans-30" transform="translate(3596.46875 0)"/>
     <use xlink:href="#DejaVuSans-2e" transform="translate(3660.091797 0)"/>
     <use xlink:href="#DejaVuSans-30" transform="translate(3691.878906 0)"/>
     <use xlink:href="#DejaVuSans-30" transform="translate(3755.501953 0)"/>
    </g>
   </g>
   <g id="legend_1">
    <g id="patch_7">
     <path d="M 556.200845 216.272 
L 621.183658 216.272 
Q 623.183658 216.272 623.183658 214.272 
L 623.183658 185.91575 
Q 623.183658 183.91575 621.183658 183.91575 
L 556.200845 183.91575 
Q 554.200845 183.91575 554.200845 185.91575 
L 554.200845 214.272 
Q 554.200845 216.272 556.200845 216.272 
z
" style="fill: #ffffff; opacity: 0.8; stroke: #cccccc; stroke-linejoin: miter"/>
    </g>
    <g id="line2d_25">
     <path d="M 558.200845 192.014187 
L 568.200845 192.014187 
L 578.200845 192.014187 
" style="fill: none; stroke: #1f77b4; stroke-width: 1.5; stroke-linecap: square"/>
    </g>
    <g id="text_15">
     <!-- input -->
     <g transform="translate(586.200845 195.514187) scale(0.1 -0.1)">
      <use xlink:href="#DejaVuSans-69"/>
      <use xlink:href="#DejaVuSans-6e" transform="translate(27.783203 0)"/>
      <use xlink:href="#DejaVuSans-70" transform="translate(91.162109 0)"/>
      <use xlink:href="#DejaVuSans-75" transform="translate(154.638672 0)"/>
      <use xlink:href="#DejaVuSans-74" transform="translate(218.017578 0)"/>
     </g>
    </g>
    <g id="line2d_26">
     <path d="M 558.200845 206.692313 
L 568.200845 206.692313 
L 578.200845 206.692313 
" style="fill: none; stroke: #ff7f0e; stroke-width: 1.5; stroke-linecap: square"/>
    </g>
    <g id="text_16">
     <!-- output -->
     <g transform="translate(586.200845 210.192313) scale(0.1 -0.1)">
      <use xlink:href="#DejaVuSans-6f"/>
      <use xlink:href="#DejaVuSans-75" transform="translate(61.181641 0)"/>
      <use xlink:href="#DejaVuSans-74" transform="translate(124.560547 0)"/>
      <use xlink:href="#DejaVuSans-70" transform="translate(163.769531 0)"/>
      <use xlink:href="#DejaVuSans-75" transform="translate(227.246094 0)"/>
      <use xlink:href="#DejaVuSans-74" transform="translate(290.625 0)"/>
     </g>
    </g>
   </g>
  </g>
  <g id="axes_2">
   <g id="patch_8">
    <path d="M 60.761214 458.728 
L 628.183658 458.728 
L 628.183658 279.312 
L 60.761214 279.312 
z
" style="fill: #ffffff"/>
   </g>
   <g id="matplotlib.axis_3">
    <g id="xtick_7">
     <g id="line2d_27">
      <path d="M 60.761214 458.728 
L 60.761214 279.312 
" clip-path="url(#p7dd5d4f24e)" style="fill: none; stroke: #b0b0b0; stroke-opacity: 0.25; stroke-width: 0.8; stroke-linecap: square"/>
     </g>
     <g id="line2d_28">
      <g>
       <use xlink:href="#m019b53bbc1" x="60.761214" y="458.728" style="stroke: #000000; stroke-width: 0.8"/>
      </g>
     </g>
     <g id="text_17">
      <!-- $\mathdefault{10^{-1}}$ -->
      <g transform="translate(49.011214 473.326438) scale(0.1 -0.1)">
       <use xlink:href="#DejaVuSans-31" transform="translate(0 0.684375)"/>
       <use xlink:href="#DejaVuSans-30" transform="translate(63.623047 0.684375)"/>
       <use xlink:href="#DejaVuSans-2212" transform="translate(128.203125 38.965625) scale(0.7)"/>
       <use xlink:href="#DejaVuSans-31" transform="translate(186.855469 38.965625) scale(0.7)"/>
      </g>
     </g>
    </g>
    <g id="xtick_8">
     <g id="line2d_29">
      <path d="M 344.472436 458.728 
L 344.472436 279.312 
" clip-path="url(#p7dd5d4f24e)" style="fill: none; stroke: #b0b0b0; stroke-opacity: 0.25; stroke-width: 0.8; stroke-linecap: square"/>
     </g>
     <g id="line2d_30">
      <g>
       <use xlink:href="#m019b53bbc1" x="344.472436" y="458.728" style="stroke: #000000; stroke-width: 0.8"/>
      </g>
     </g>
     <g id="text_18">
      <!-- $\mathdefault{10^{0}}$ -->
      <g transform="translate(335.672436 473.326438) scale(0.1 -0.1)">
       <use xlink:href="#DejaVuSans-31" transform="translate(0 0.765625)"/>
       <use xlink:href="#DejaVuSans-30" transform="translate(63.623047 0.765625)"/>
       <use xlink:href="#DejaVuSans-30" transform="translate(128.203125 39.046875) scale(0.7)"/>
      </g>
     </g>
    </g>
    <g id="xtick_9">
     <g id="line2d_31">
      <path d="M 628.183658 458.728 
L 628.183658 279.312 
" clip-path="url(#p7dd5d4f24e)" style="fill: none; stroke: #b0b0b0; stroke-opacity: 0.25; stroke-width: 0.8; stroke-linecap: square"/>
     </g>
     <g id="line2d_32">
      <g>
       <use xlink:href="#m019b53bbc1" x="628.183658" y="458.728" style="stroke: #000000; stroke-width: 0.8"/>
      </g>
     </g>
     <g id="text_19">
      <!-- $\mathdefault{10^{1}}$ -->
      <g transform="translate(619.383658 473.326438) scale(0.1 -0.1)">
       <use xlink:href="#DejaVuSans-31" transform="translate(0 0.684375)"/>
       <use xlink:href="#DejaVuSans-30" transform="translate(63.623047 0.684375)"/>
       <use xlink:href="#DejaVuSans-31" transform="translate(128.203125 38.965625) scale(0.7)"/>
      </g>
     </g>
    </g>
    <g id="xtick_10">
     <g id="line2d_33">
      <defs>
       <path id="m85fa3afda4" d="M 0 0 
L 0 2 
" style="stroke: #000000; stroke-width: 0.6"/>
      </defs>
      <g>
       <use xlink:href="#m85fa3afda4" x="146.166802" y="458.728" style="stroke: #000000; stroke-width: 0.6"/>
      </g>
     </g>
    </g>
    <g id="xtick_11">
     <g id="line2d_34">
      <g>
       <use xlink:href="#m85fa3afda4" x="196.125868" y="458.728" style="stroke: #000000; stroke-width: 0.6"/>
      </g>
     </g>
    </g>
    <g id="xtick_12">
     <g id="line2d_35">
      <g>
       <use xlink:href="#m85fa3afda4" x="231.572389" y="458.728" style="stroke: #000000; stroke-width: 0.6"/>
      </g>
     </g>
    </g>
    <g id="xtick_13">
     <g id="line2d_36">
      <g>
       <use xlink:href="#m85fa3afda4" x="259.066848" y="458.728" style="stroke: #000000; stroke-width: 0.6"/>
      </g>
     </g>
    </g>
    <g id="xtick_14">
     <g id="line2d_37">
      <g>
       <use xlink:href="#m85fa3afda4" x="281.531456" y="458.728" style="stroke: #000000; stroke-width: 0.6"/>
      </g>
     </g>
    </g>
    <g id="xtick_15">
     <g id="line2d_38">
      <g>
       <use xlink:href="#m85fa3afda4" x="300.525011" y="458.728" style="stroke: #000000; stroke-width: 0.6"/>
      </g>
     </g>
    </g>
    <g id="xtick_16">
     <g id="line2d_39">
      <g>
       <use xlink:href="#m85fa3afda4" x="316.977977" y="458.728" style="stroke: #000000; stroke-width: 0.6"/>
      </g>
     </g>
    </g>
    <g id="xtick_17">
     <g id="line2d_40">
      <g>
       <use xlink:href="#m85fa3afda4" x="331.490522" y="458.728" style="stroke: #000000; stroke-width: 0.6"/>
      </g>
     </g>
    </g>
    <g id="xtick_18">
     <g id="line2d_41">
      <g>
       <use xlink:href="#m85fa3afda4" x="429.878024" y="458.728" style="stroke: #000000; stroke-width: 0.6"/>
      </g>
     </g>
    </g>
    <g id="xtick_19">
     <g id="line2d_42">
      <g>
       <use xlink:href="#m85fa3afda4" x="479.83709" y="458.728" style="stroke: #000000; stroke-width: 0.6"/>
      </g>
     </g>
    </g>
    <g id="xtick_20">
     <g id="line2d_43">
      <g>
       <use xlink:href="#m85fa3afda4" x="515.283611" y="458.728" style="stroke: #000000; stroke-width: 0.6"/>
      </g>
     </g>
    </g>
    <g id="xtick_21">
     <g id="line2d_44">
      <g>
       <use xlink:href="#m85fa3afda4" x="542.77807" y="458.728" style="stroke: #000000; stroke-width: 0.6"/>
      </g>
     </g>
    </g>
    <g id="xtick_22">
     <g id="line2d_45">
      <g>
       <use xlink:href="#m85fa3afda4" x="565.242678" y="458.728" style="stroke: #000000; stroke-width: 0.6"/>
      </g>
     </g>
    </g>
    <g id="xtick_23">
     <g id="line2d_46">
      <g>
       <use xlink:href="#m85fa3afda4" x="584.236233" y="458.728" style="stroke: #000000; stroke-width: 0.6"/>
      </g>
     </g>
    </g>
    <g id="xtick_24">
     <g id="line2d_47">
      <g>
       <use xlink:href="#m85fa3afda4" x="600.689199" y="458.728" style="stroke: #000000; stroke-width: 0.6"/>
      </g>
     </g>
    </g>
    <g id="xtick_25">
     <g id="line2d_48">
      <g>
       <use xlink:href="#m85fa3afda4" x="615.201744" y="458.728" style="stroke: #000000; stroke-width: 0.6"/>
      </g>
     </g>
    </g>
    <g id="text_20">
     <!-- frequency [arb.] -->
     <g transform="translate(304.022436 487.004563) scale(0.1 -0.1)">
      <defs>
       <path id="DejaVuSans-71" d="M 947 1747 
Q 947 1113 1208 752 
Q 1469 391 1925 391 
Q 2381 391 2643 752 
Q 2906 1113 2906 1747 
Q 2906 2381 2643 2742 
Q 2381 3103 1925 3103 
Q 1469 3103 1208 2742 
Q 947 2381 947 1747 
z
M 2906 525 
Q 2725 213 2448 61 
Q 2172 -91 1784 -91 
Q 1150 -91 751 415 
Q 353 922 353 1747 
Q 353 2572 751 3078 
Q 1150 3584 1784 3584 
Q 2172 3584 2448 3432 
Q 2725 3281 2906 2969 
L 2906 3500 
L 3481 3500 
L 3481 -1331 
L 2906 -1331 
L 2906 525 
z
" transform="scale(0.015625)"/>
      </defs>
      <use xlink:href="#DejaVuSans-66"/>
      <use xlink:href="#DejaVuSans-72" transform="translate(35.205078 0)"/>
      <use xlink:href="#DejaVuSans-65" transform="translate(74.068359 0)"/>
      <use xlink:href="#DejaVuSans-71" transform="translate(135.591797 0)"/>
      <use xlink:href="#DejaVuSans-75" transform="translate(199.068359 0)"/>
      <use xlink:href="#DejaVuSans-65" transform="translate(262.447266 0)"/>
      <use xlink:href="#DejaVuSans-6e" transform="translate(323.970703 0)"/>
      <use xlink:href="#DejaVuSans-63" transform="translate(387.349609 0)"/>
      <use xlink:href="#DejaVuSans-79" transform="translate(442.330078 0)"/>
      <use xlink:href="#DejaVuSans-20" transform="translate(501.509766 0)"/>
      <use xlink:href="#DejaVuSans-5b" transform="translate(533.296875 0)"/>
      <use xlink:href="#DejaVuSans-61" transform="translate(572.310547 0)"/>
      <use xlink:href="#DejaVuSans-72" transform="translate(633.589844 0)"/>
      <use xlink:href="#DejaVuSans-62" transform="translate(674.703125 0)"/>
      <use xlink:href="#DejaVuSans-2e" transform="translate(738.179688 0)"/>
      <use xlink:href="#DejaVuSans-5d" transform="translate(769.966797 0)"/>
     </g>
    </g>
   </g>
   <g id="matplotlib.axis_4">
    <g id="ytick_6">
     <g id="line2d_49">
      <path d="M 60.761214 438.345247 
L 628.183658 438.345247 
" clip-path="url(#p7dd5d4f24e)" style="fill: none; stroke: #b0b0b0; stroke-opacity: 0.25; stroke-width: 0.8; stroke-linecap: square"/>
     </g>
     <g id="line2d_50">
      <g>
       <use xlink:href="#m438951833b" x="60.761214" y="438.345247" style="stroke: #000000; stroke-width: 0.8"/>
      </g>
     </g>
     <g id="text_21">
      <!-- $\mathdefault{10^{-10}}$ -->
      <g transform="translate(25.861214 442.144466) scale(0.1 -0.1)">
       <use xlink:href="#DejaVuSans-31" transform="translate(0 0.765625)"/>
       <use xlink:href="#DejaVuSans-30" transform="translate(63.623047 0.765625)"/>
       <use xlink:href="#DejaVuSans-2212" transform="translate(128.203125 39.046875) scale(0.7)"/>
       <use xlink:href="#DejaVuSans-31" transform="translate(186.855469 39.046875) scale(0.7)"/>
       <use xlink:href="#DejaVuSans-30" transform="translate(231.391602 39.046875) scale(0.7)"/>
      </g>
     </g>
    </g>
    <g id="ytick_7">
     <g id="line2d_51">
      <path d="M 60.761214 415.085637 
L 628.183658 415.085637 
" clip-path="url(#p7dd5d4f24e)" style="fill: none; stroke: #b0b0b0; stroke-opacity: 0.25; stroke-width: 0.8; stroke-linecap: square"/>
     </g>
     <g id="line2d_52">
      <g>
       <use xlink:href="#m438951833b" x="60.761214" y="415.085637" style="stroke: #000000; stroke-width: 0.8"/>
      </g>
     </g>
     <g id="text_22">
      <!-- $\mathdefault{10^{-8}}$ -->
      <g transform="translate(30.261214 418.884856) scale(0.1 -0.1)">
       <use xlink:href="#DejaVuSans-31" transform="translate(0 0.765625)"/>
       <use xlink:href="#DejaVuSans-30" transform="translate(63.623047 0.765625)"/>
       <use xlink:href="#DejaVuSans-2212" transform="translate(128.203125 39.046875) scale(0.7)"/>
       <use xlink:href="#DejaVuSans-38" transform="translate(186.855469 39.046875) scale(0.7)"/>
      </g>
     </g>
    </g>
    <g id="ytick_8">
     <g id="line2d_53">
      <path d="M 60.761214 391.826027 
L 628.183658 391.826027 
" clip-path="url(#p7dd5d4f24e)" style="fill: none; stroke: #b0b0b0; stroke-opacity: 0.25; stroke-width: 0.8; stroke-linecap: square"/>
     </g>
     <g id="line2d_54">
      <g>
       <use xlink:href="#m438951833b" x="60.761214" y="391.826027" style="stroke: #000000; stroke-width: 0.8"/>
      </g>
     </g>
     <g id="text_23">
      <!-- $\mathdefault{10^{-6}}$ -->
      <g transform="translate(30.261214 395.625246) scale(0.1 -0.1)">
       <use xlink:href="#DejaVuSans-31" transform="translate(0 0.765625)"/>
       <use xlink:href="#DejaVuSans-30" transform="translate(63.623047 0.765625)"/>
       <use xlink:href="#DejaVuSans-2212" transform="translate(128.203125 39.046875) scale(0.7)"/>
       <use xlink:href="#DejaVuSans-36" transform="translate(186.855469 39.046875) scale(0.7)"/>
      </g>
     </g>
    </g>
    <g id="ytick_9">
     <g id="line2d_55">
      <path d="M 60.761214 368.566417 
L 628.183658 368.566417 
" clip-path="url(#p7dd5d4f24e)" style="fill: none; stroke: #b0b0b0; stroke-opacity: 0.25; stroke-width: 0.8; stroke-linecap: square"/>
     </g>
     <g id="line2d_56">
      <g>
       <use xlink:href="#m438951833b" x="60.761214" y="368.566417" style="stroke: #000000; stroke-width: 0.8"/>
      </g>
     </g>
     <g id="text_24">
      <!-- $\mathdefault{10^{-4}}$ -->
      <g transform="translate(30.261214 372.365636) scale(0.1 -0.1)">
       <use xlink:href="#DejaVuSans-31" transform="translate(0 0.684375)"/>
       <use xlink:href="#DejaVuSans-30" transform="translate(63.623047 0.684375)"/>
       <use xlink:href="#DejaVuSans-2212" transform="translate(128.203125 38.965625) scale(0.7)"/>
       <use xlink:href="#DejaVuSans-34" transform="translate(186.855469 38.965625) scale(0.7)"/>
      </g>
     </g>
    </g>
    <g id="ytick_10">
     <g id="line2d_57">
      <path d="M 60.761214 345.306807 
L 628.183658 345.306807 
" clip-path="url(#p7dd5d4f24e)" style="fill: none; stroke: #b0b0b0; stroke-opacity: 0.25; stroke-width: 0.8; stroke-linecap: square"/>
     </g>
     <g id="line2d_58">
      <g>
       <use xlink:href="#m438951833b" x="60.761214" y="345.306807" style="stroke: #000000; stroke-width: 0.8"/>
      </g>
     </g>
     <g id="text_25">
      <!-- $\mathdefault{10^{-2}}$ -->
      <g transform="translate(30.261214 349.106026) scale(0.1 -0.1)">
       <use xlink:href="#DejaVuSans-31" transform="translate(0 0.765625)"/>
       <use xlink:href="#DejaVuSans-30" transform="translate(63.623047 0.765625)"/>
       <use xlink:href="#DejaVuSans-2212" transform="translate(128.203125 39.046875) scale(0.7)"/>
       <use xlink:href="#DejaVuSans-32" transform="translate(186.855469 39.046875) scale(0.7)"/>
      </g>
     </g>
    </g>
    <g id="ytick_11">
     <g id="line2d_59">
      <path d="M 60.761214 322.047197 
L 628.183658 322.047197 
" clip-path="url(#p7dd5d4f24e)" style="fill: none; stroke: #b0b0b0; stroke-opacity: 0.25; stroke-width: 0.8; stroke-linecap: square"/>
     </g>
     <g id="line2d_60">
      <g>
       <use xlink:href="#m438951833b" x="60.761214" y="322.047197" style="stroke: #000000; stroke-width: 0.8"/>
      </g>
     </g>
     <g id="text_26">
      <!-- $\mathdefault{10^{0}}$ -->
      <g transform="translate(36.161214 325.846416) scale(0.1 -0.1)">
       <use xlink:href="#DejaVuSans-31" transform="translate(0 0.765625)"/>
       <use xlink:href="#DejaVuSans-30" transform="translate(63.623047 0.765625)"/>
       <use xlink:href="#DejaVuSans-30" transform="translate(128.203125 39.046875) scale(0.7)"/>
      </g>
     </g>
    </g>
    <g id="ytick_12">
     <g id="line2d_61">
      <path d="M 60.761214 298.787587 
L 628.183658 298.787587 
" clip-path="url(#p7dd5d4f24e)" style="fill: none; stroke: #b0b0b0; stroke-opacity: 0.25; stroke-width: 0.8; stroke-linecap: square"/>
     </g>
     <g id="line2d_62">
      <g>
       <use xlink:href="#m438951833b" x="60.761214" y="298.787587" style="stroke: #000000; stroke-width: 0.8"/>
      </g>
     </g>
     <g id="text_27">
      <!-- $\mathdefault{10^{2}}$ -->
      <g transform="translate(36.161214 302.586806) scale(0.1 -0.1)">
       <use xlink:href="#DejaVuSans-31" transform="translate(0 0.765625)"/>
       <use xlink:href="#DejaVuSans-30" transform="translate(63.623047 0.765625)"/>
       <use xlink:href="#DejaVuSans-32" transform="translate(128.203125 39.046875) scale(0.7)"/>
      </g>
     </g>
    </g>
    <g id="text_28">
     <!-- |FFT(.)| -->
     <g transform="translate(19.503401 386.597344) rotate(-90) scale(0.1 -0.1)">
      <defs>
       <path id="DejaVuSans-54" d="M -19 4666 
L 3928 4666 
L 3928 4134 
L 2272 4134 
L 2272 0 
L 1638 0 
L 1638 4134 
L -19 4134 
L -19 4666 
z
" transform="scale(0.015625)"/>
      </defs>
      <use xlink:href="#DejaVuSans-7c"/>
      <use xlink:href="#DejaVuSans-46" transform="translate(33.691406 0)"/>
      <use xlink:href="#DejaVuSans-46" transform="translate(91.210938 0)"/>
      <use xlink:href="#DejaVuSans-54" transform="translate(146.980469 0)"/>
      <use xlink:href="#DejaVuSans-28" transform="translate(208.064453 0)"/>
      <use xlink:href="#DejaVuSans-2e" transform="translate(247.078125 0)"/>
      <use xlink:href="#DejaVuSans-29" transform="translate(278.865234 0)"/>
      <use xlink:href="#DejaVuSans-7c" transform="translate(317.878906 0)"/>
     </g>
    </g>
   </g>
   <g id="line2d_63">
    <path d="M 60.761214 307.43152 
L 146.166802 331.662686 
L 196.125868 331.15866 
L 231.572389 330.397634 
L 259.066848 329.428124 
L 281.531456 328.261944 
L 300.525011 326.8971 
L 316.977977 325.318607 
L 331.490522 323.495616 
L 344.472436 321.375097 
L 356.216005 318.868941 
L 366.937044 315.825867 
L 376.799443 311.961248 
L 385.930599 306.632692 
L 394.431502 297.583193 
L 402.383565 288.139797 
L 409.853381 287.467273 
L 416.89611 294.467614 
L 423.55796 305.278096 
L 429.878024 311.064858 
L 435.889665 315.165084 
L 441.621593 318.365712 
L 447.098682 320.998915 
L 452.342632 323.23947 
L 457.372482 325.191504 
L 462.205031 326.922322 
L 466.855176 328.478034 
L 471.336187 329.891648 
L 475.659937 331.187619 
L 479.83709 332.384573 
L 483.877262 333.497029 
L 487.789153 334.53652 
L 491.580659 335.512363 
L 495.258969 336.432189 
L 498.830645 337.302327 
L 502.301698 338.128086 
L 505.677641 338.913959 
L 508.963548 339.663784 
L 512.164098 340.380866 
L 515.283611 341.068069 
L 518.326092 341.727894 
L 521.295253 342.362532 
L 524.194545 342.973923 
L 527.027181 343.563781 
L 529.796156 344.133639 
L 532.50427 344.684865 
L 535.15414 345.21869 
L 537.74822 345.736224 
L 540.288809 346.238471 
L 542.77807 346.726343 
L 545.218035 347.200671 
L 547.610619 347.662214 
L 549.957628 348.111666 
L 552.260764 348.549666 
L 554.521639 348.9768 
L 556.741775 349.393612 
L 558.922615 349.800601 
L 561.065525 350.198233 
L 563.171802 350.586938 
L 565.242678 350.967117 
L 567.279323 351.339144 
L 569.28285 351.703367 
L 571.25432 352.060114 
L 573.194741 352.409688 
L 575.105077 352.752377 
L 576.986247 353.088449 
L 578.839127 353.418157 
L 580.664557 353.74174 
L 582.463336 354.059421 
L 584.236233 354.371414 
L 585.983982 354.677917 
L 587.707286 354.979122 
L 589.406819 355.275207 
L 591.083229 355.566342 
L 592.737136 355.85269 
L 594.369136 356.134403 
L 595.979803 356.411629 
L 597.569685 356.684505 
L 599.139315 356.953164 
L 600.689199 357.217733 
L 602.21983 357.478332 
L 603.73168 357.735075 
L 605.225204 357.988074 
L 606.700841 358.237432 
L 608.159015 358.483251 
L 609.600133 358.725628 
L 611.024591 358.964654 
L 612.432769 359.200418 
L 613.825035 359.433005 
L 615.201744 359.662497 
L 616.563241 359.888972 
L 617.909858 360.112506 
L 619.241916 360.333171 
L 620.559728 360.551038 
L 621.863594 360.766173 
L 623.153807 360.978641 
L 624.43065 361.188505 
L 625.694397 361.395824 
L 626.945313 361.600658 
L 628.183658 361.803062 
L 629.40968 362.003091 
" clip-path="url(#p7dd5d4f24e)" style="fill: none; stroke: #1f77b4; stroke-opacity: 0.6; stroke-width: 1.5; stroke-linecap: square"/>
   </g>
   <g id="line2d_64">
    <path d="M 60.761214 319.999239 
L 146.166802 327.630845 
L 196.125868 334.532696 
L 231.572389 339.022479 
L 259.066848 342.221538 
L 281.531456 344.441008 
L 300.525011 345.731329 
L 316.977977 346.074558 
L 331.490522 345.503487 
L 344.472436 344.117808 
L 356.216005 342.006355 
L 366.937044 339.159383 
L 376.799443 335.384222 
L 385.930599 330.091734 
L 394.431502 321.05378 
L 402.383565 311.612325 
L 409.853381 310.939442 
L 416.89611 317.940404 
L 423.55796 328.753674 
L 429.878024 334.545544 
L 435.889665 338.652873 
L 441.621593 341.862081 
L 447.098682 344.504785 
L 452.342632 346.755239 
L 457.372482 348.71711 
L 462.205031 350.457318 
L 466.855176 352.021659 
L 471.336187 353.442894 
L 475.659937 354.745288 
L 479.83709 355.947329 
L 483.877262 357.063439 
L 487.789153 358.105088 
L 491.580659 359.081559 
L 495.258969 360.000471 
L 498.830645 360.868161 
L 502.301698 361.689958 
L 505.677641 362.470389 
L 508.963548 363.213332 
L 512.164098 363.92214 
L 515.283611 364.599731 
L 518.326092 365.248659 
L 521.295253 365.871176 
L 524.194545 366.469278 
L 527.027181 367.044742 
L 529.796156 367.599157 
L 532.50427 368.133951 
L 535.15414 368.650413 
L 537.74822 369.149708 
L 540.288809 369.632895 
L 542.77807 370.10094 
L 545.218035 370.554724 
L 547.610619 370.995054 
L 549.957628 371.422674 
L 552.260764 371.838266 
L 554.521639 372.242461 
L 556.741775 372.635843 
L 558.922615 373.018952 
L 561.065525 373.39229 
L 563.171802 373.756323 
L 565.242678 374.111488 
L 567.279323 374.458189 
L 569.28285 374.796807 
L 571.25432 375.127696 
L 573.194741 375.45119 
L 575.105077 375.7676 
L 576.986247 376.077221 
L 578.839127 376.380329 
L 580.664557 376.677184 
L 582.463336 376.968031 
L 584.236233 377.253103 
L 585.983982 377.532618 
L 587.707286 377.806783 
L 589.406819 378.075794 
L 591.083229 378.339838 
L 592.737136 378.599091 
L 594.369136 378.85372 
L 595.979803 379.103883 
L 597.569685 379.349733 
L 599.139315 379.591413 
L 600.689199 379.82906 
L 602.21983 380.062804 
L 603.73168 380.292771 
L 605.225204 380.519079 
L 606.700841 380.741841 
L 608.159015 380.961167 
L 609.600133 381.177159 
L 611.024591 381.389916 
L 612.432769 381.599535 
L 613.825035 381.806105 
L 615.201744 382.009714 
L 616.563241 382.210446 
L 617.909858 382.40838 
L 619.241916 382.603593 
L 620.559728 382.79616 
L 621.863594 382.986151 
L 623.153807 383.173635 
L 624.43065 383.358678 
L 625.694397 383.541341 
L 626.945313 383.721687 
L 628.183658 383.899774 
L 629.40968 384.075657 
" clip-path="url(#p7dd5d4f24e)" style="fill: none; stroke: #ff7f0e; stroke-width: 1.5; stroke-linecap: square"/>
   </g>
   <g id="patch_9">
    <path d="M 60.761214 458.728 
L 60.761214 279.312 
" style="fill: none; stroke: #000000; stroke-width: 0.8; stroke-linejoin: miter; stroke-linecap: square"/>
   </g>
   <g id="patch_10">
    <path d="M 628.183658 458.728 
L 628.183658 279.312 
" style="fill: none; stroke: #000000; stroke-width: 0.8; stroke-linejoin: miter; stroke-linecap: square"/>
   </g>
   <g id="patch_11">
    <path d="M 60.761214 458.728 
L 628.183658 458.728 
" style="fill: none; stroke: #000000; stroke-width: 0.8; stroke-linejoin: miter; stroke-linecap: square"/>
   </g>
   <g id="patch_12">
    <path d="M 60.761214 279.312 
L 628.183658 279.312 
" style="fill: none; stroke: #000000; stroke-width: 0.8; stroke-linejoin: miter; stroke-linecap: square"/>
   </g>
   <g id="text_29">
    <!-- Output FFT peak ≈ 1.700 (arb.), magnitude ≈ 9.018e+00 | low-ish -->
    <g transform="translate(144.754936 273.312) scale(0.12 -0.12)">
     <defs>
      <path id="DejaVuSans-4f" d="M 2522 4238 
Q 1834 4238 1429 3725 
Q 1025 3213 1025 2328 
Q 1025 1447 1429 934 
Q 1834 422 2522 422 
Q 3209 422 3611 934 
Q 4013 1447 4013 2328 
Q 4013 3213 3611 3725 
Q 3209 4238 2522 4238 
z
M 2522 4750 
Q 3503 4750 4090 4092 
Q 4678 3434 4678 2328 
Q 4678 1225 4090 567 
Q 3503 -91 2522 -91 
Q 1538 -91 948 565 
Q 359 1222 359 2328 
Q 359 3434 948 4092 
Q 1538 4750 2522 4750 
z
" transform="scale(0.015625)"/>
      <path id="DejaVuSans-6b" d="M 581 4863 
L 1159 4863 
L 1159 1991 
L 2875 3500 
L 3609 3500 
L 1753 1863 
L 3688 0 
L 2938 0 
L 1159 1709 
L 1159 0 
L 581 0 
L 581 4863 
z
" transform="scale(0.015625)"/>
      <path id="DejaVuSans-2248" d="M 4684 1947 
L 4684 1388 
Q 4356 1144 4076 1036 
Q 3797 928 3494 928 
Q 3150 928 2694 1113 
Q 2663 1125 2641 1134 
Q 2622 1141 2575 1159 
Q 2091 1350 1797 1350 
Q 1522 1350 1253 1231 
Q 984 1113 678 850 
L 678 1409 
Q 1006 1653 1286 1761 
Q 1566 1869 1869 1869 
Q 2213 1869 2672 1684 
Q 2706 1669 2722 1663 
Q 2741 1656 2788 1638 
Q 3272 1447 3566 1447 
Q 3834 1447 4098 1564 
Q 4363 1681 4684 1947 
z
M 4684 3163 
L 4684 2606 
Q 4356 2359 4076 2251 
Q 3797 2144 3494 2144 
Q 3150 2144 2694 2328 
Q 2663 2341 2641 2350 
Q 2622 2356 2575 2375 
Q 2091 2566 1797 2566 
Q 1522 2566 1253 2447 
Q 984 2328 678 2069 
L 678 2625 
Q 1006 2869 1286 2976 
Q 1566 3084 1869 3084 
Q 2213 3084 2672 2900 
Q 2703 2888 2719 2881 
Q 2741 2872 2788 2853 
Q 3272 2663 3566 2663 
Q 3834 2663 4098 2780 
Q 4363 2897 4684 3163 
z
" transform="scale(0.015625)"/>
      <path id="DejaVuSans-37" d="M 525 4666 
L 3525 4666 
L 3525 4397 
L 1831 0 
L 1172 0 
L 2766 4134 
L 525 4134 
L 525 4666 
z
" transform="scale(0.015625)"/>
      <path id="DejaVuSans-6d" d="M 3328 2828 
Q 3544 3216 3844 3400 
Q 4144 3584 4550 3584 
Q 5097 3584 5394 3201 
Q 5691 2819 5691 2113 
L 5691 0 
L 5113 0 
L 5113 2094 
Q 5113 2597 4934 2840 
Q 4756 3084 4391 3084 
Q 3944 3084 3684 2787 
Q 3425 2491 3425 1978 
L 3425 0 
L 2847 0 
L 2847 2094 
Q 2847 2600 2669 2842 
Q 2491 3084 2119 3084 
Q 1678 3084 1418 2786 
Q 1159 2488 1159 1978 
L 1159 0 
L 581 0 
L 581 3500 
L 1159 3500 
L 1159 2956 
Q 1356 3278 1631 3431 
Q 1906 3584 2284 3584 
Q 2666 3584 2933 3390 
Q 3200 3197 3328 2828 
z
" transform="scale(0.015625)"/>
      <path id="DejaVuSans-67" d="M 2906 1791 
Q 2906 2416 2648 2759 
Q 2391 3103 1925 3103 
Q 1463 3103 1205 2759 
Q 947 2416 947 1791 
Q 947 1169 1205 825 
Q 1463 481 1925 481 
Q 2391 481 2648 825 
Q 2906 1169 2906 1791 
z
M 3481 434 
Q 3481 -459 3084 -895 
Q 2688 -1331 1869 -1331 
Q 1566 -1331 1297 -1286 
Q 1028 -1241 775 -1147 
L 775 -588 
Q 1028 -725 1275 -790 
Q 1522 -856 1778 -856 
Q 2344 -856 2625 -561 
Q 2906 -266 2906 331 
L 2906 616 
Q 2728 306 2450 153 
Q 2172 0 1784 0 
Q 1141 0 747 490 
Q 353 981 353 1791 
Q 353 2603 747 3093 
Q 1141 3584 1784 3584 
Q 2172 3584 2450 3431 
Q 2728 3278 2906 2969 
L 2906 3500 
L 3481 3500 
L 3481 434 
z
" transform="scale(0.015625)"/>
      <path id="DejaVuSans-39" d="M 703 97 
L 703 672 
Q 941 559 1184 500 
Q 1428 441 1663 441 
Q 2288 441 2617 861 
Q 2947 1281 2994 2138 
Q 2813 1869 2534 1725 
Q 2256 1581 1919 1581 
Q 1219 1581 811 2004 
Q 403 2428 403 3163 
Q 403 3881 828 4315 
Q 1253 4750 1959 4750 
Q 2769 4750 3195 4129 
Q 3622 3509 3622 2328 
Q 3622 1225 3098 567 
Q 2575 -91 1691 -91 
Q 1453 -91 1209 -44 
Q 966 3 703 97 
z
M 1959 2075 
Q 2384 2075 2632 2365 
Q 2881 2656 2881 3163 
Q 2881 3666 2632 3958 
Q 2384 4250 1959 4250 
Q 1534 4250 1286 3958 
Q 1038 3666 1038 3163 
Q 1038 2656 1286 2365 
Q 1534 2075 1959 2075 
z
" transform="scale(0.015625)"/>
      <path id="DejaVuSans-2b" d="M 2944 4013 
L 2944 2272 
L 4684 2272 
L 4684 1741 
L 2944 1741 
L 2944 0 
L 2419 0 
L 2419 1741 
L 678 1741 
L 678 2272 
L 2419 2272 
L 2419 4013 
L 2944 4013 
z
" transform="scale(0.015625)"/>
      <path id="DejaVuSans-68" d="M 3513 2113 
L 3513 0 
L 2938 0 
L 2938 2094 
Q 2938 2591 2744 2837 
Q 2550 3084 2163 3084 
Q 1697 3084 1428 2787 
Q 1159 2491 1159 1978 
L 1159 0 
L 581 0 
L 581 4863 
L 1159 4863 
L 1159 2956 
Q 1366 3272 1645 3428 
Q 1925 3584 2291 3584 
Q 2894 3584 3203 3211 
Q 3513 2838 3513 2113 
z
" transform="scale(0.015625)"/>
     </defs>
     <use xlink:href="#DejaVuSans-4f"/>
     <use xlink:href="#DejaVuSans-75" transform="translate(78.710938 0)"/>
     <use xlink:href="#DejaVuSans-74" transform="translate(142.089844 0)"/>
     <use xlink:href="#DejaVuSans-70" transform="translate(181.298828 0)"/>
     <use xlink:href="#DejaVuSans-75" transform="translate(244.775391 0)"/>
     <use xlink:href="#DejaVuSans-74" transform="translate(308.154297 0)"/>
     <use xlink:href="#DejaVuSans-20" transform="translate(347.363281 0)"/>
     <use xlink:href="#DejaVuSans-46" transform="translate(379.150391 0)"/>
     <use xlink:href="#DejaVuSans-46" transform="translate(436.669922 0)"/>
     <use xlink:href="#DejaVuSans-54" transform="translate(492.439453 0)"/>
     <use xlink:href="#DejaVuSans-20" transform="translate(553.523438 0)"/>
     <use xlink:href="#DejaVuSans-70" transform="translate(585.310547 0)"/>
     <use xlink:href="#DejaVuSans-65" transform="translate(648.787109 0)"/>
     <use xlink:href="#DejaVuSans-61" transform="translate(710.310547 0)"/>
     <use xlink:href="#DejaVuSans-6b" transform="translate(771.589844 0)"/>
     <use xlink:href="#DejaVuSans-20" transform="translate(829.5 0)"/>
     <use xlink:href="#DejaVuSans-2248" transform="translate(861.287109 0)"/>
     <use xlink:href="#DejaVuSans-20" transform="translate(945.076172 0)"/>
     <use xlink:href="#DejaVuSans-31" transform="translate(976.863281 0)"/>
     <use xlink:href="#DejaVuSans-2e" transform="translate(1040.486328 0)"/>
     <use xlink:href="#DejaVuSans-37" transform="translate(1072.273438 0)"/>
     <use xlink:href="#DejaVuSans-30" transform="translate(1135.896484 0)"/>
     <use xlink:href="#DejaVuSans-30" transform="translate(1199.519531 0)"/>
     <use xlink:href="#DejaVuSans-20" transform="translate(1263.142578 0)"/>
     <use xlink:href="#DejaVuSans-28" transform="translate(1294.929688 0)"/>
     <use xlink:href="#DejaVuSans-61" transform="translate(1333.943359 0)"/>
     <use xlink:href="#DejaVuSans-72" transform="translate(1395.222656 0)"/>
     <use xlink:href="#DejaVuSans-62" transform="translate(1436.335938 0)"/>
     <use xlink:href="#DejaVuSans-2e" transform="translate(1499.8125 0)"/>
     <use xlink:href="#DejaVuSans-29" transform="translate(1531.599609 0)"/>
     <use xlink:href="#DejaVuSans-2c" transform="translate(1570.613281 0)"/>
     <use xlink:href="#DejaVuSans-20" transform="translate(1602.400391 0)"/>
     <use xlink:href="#DejaVuSans-6d" transform="translate(1634.1875 0)"/>
     <use xlink:href="#DejaVuSans-61" transform="translate(1731.599609 0)"/>
     <use xlink:href="#DejaVuSans-67" transform="translate(1792.878906 0)"/>
     <use xlink:href="#DejaVuSans-6e" transform="translate(1856.355469 0)"/>
     <use xlink:href="#DejaVuSans-69" transform="translate(1919.734375 0)"/>
     <use xlink:href="#DejaVuSans-74" transform="translate(1947.517578 0)"/>
     <use xlink:href="#DejaVuSans-75" transform="translate(1986.726562 0)"/>
     <use xlink:href="#DejaVuSans-64" transform="translate(2050.105469 0)"/>
     <use xlink:href="#DejaVuSans-65" transform="translate(2113.582031 0)"/>
     <use xlink:href="#DejaVuSans-20" transform="translate(2175.105469 0)"/>
     <use xlink:href="#DejaVuSans-2248" transform="translate(2206.892578 0)"/>
     <use xlink:href="#DejaVuSans-20" transform="translate(2290.681641 0)"/>
     <use xlink:href="#DejaVuSans-39" transform="translate(2322.46875 0)"/>
     <use xlink:href="#DejaVuSans-2e" transform="translate(2386.091797 0)"/>
     <use xlink:href="#DejaVuSans-30" transform="translate(2417.878906 0)"/>
     <use xlink:href="#DejaVuSans-31" transform="translate(2481.501953 0)"/>
     <use xlink:href="#DejaVuSans-38" transform="translate(2545.125 0)"/>
     <use xlink:href="#DejaVuSans-65" transform="translate(2608.748047 0)"/>
     <use xlink:href="#DejaVuSans-2b" transform="translate(2670.271484 0)"/>
     <use xlink:href="#DejaVuSans-30" transform="translate(2754.060547 0)"/>
     <use xlink:href="#DejaVuSans-30" transform="translate(2817.683594 0)"/>
     <use xlink:href="#DejaVuSans-20" transform="translate(2881.306641 0)"/>
     <use xlink:href="#DejaVuSans-7c" transform="translate(2913.09375 0)"/>
     <use xlink:href="#DejaVuSans-20" transform="translate(2946.785156 0)"/>
     <use xlink:href="#DejaVuSans-6c" transform="translate(2978.572266 0)"/>
     <use xlink:href="#DejaVuSans-6f" transform="translate(3006.355469 0)"/>
     <use xlink:href="#DejaVuSans-77" transform="translate(3067.537109 0)"/>
     <use xlink:href="#DejaVuSans-2d" transform="translate(3149.324219 0)"/>
     <use xlink:href="#DejaVuSans-69" transform="translate(3185.408203 0)"/>
     <use xlink:href="#DejaVuSans-73" transform="translate(3213.191406 0)"/>
     <use xlink:href="#DejaVuSans-68" transform="translate(3265.291016 0)"/>
    </g>
   </g>
   <g id="legend_2">
    <g id="patch_13">
     <path d="M 535.586783 316.66825 
L 621.183658 316.66825 
Q 623.183658 316.66825 623.183658 314.66825 
L 623.183658 286.312 
Q 623.183658 284.312 621.183658 284.312 
L 535.586783 284.312 
Q 533.586783 284.312 533.586783 286.312 
L 533.586783 314.66825 
Q 533.586783 316.66825 535.586783 316.66825 
z
" style="fill: #ffffff; opacity: 0.8; stroke: #cccccc; stroke-linejoin: miter"/>
    </g>
    <g id="line2d_65">
     <path d="M 537.586783 292.410438 
L 547.586783 292.410438 
L 557.586783 292.410438 
" style="fill: none; stroke: #1f77b4; stroke-opacity: 0.6; stroke-width: 1.5; stroke-linecap: square"/>
    </g>
    <g id="text_30">
     <!-- input FFT -->
     <g transform="translate(565.586783 295.910438) scale(0.1 -0.1)">
      <use xlink:href="#DejaVuSans-69"/>
      <use xlink:href="#DejaVuSans-6e" transform="translate(27.783203 0)"/>
      <use xlink:href="#DejaVuSans-70" transform="translate(91.162109 0)"/>
      <use xlink:href="#DejaVuSans-75" transform="translate(154.638672 0)"/>
      <use xlink:href="#DejaVuSans-74" transform="translate(218.017578 0)"/>
      <use xlink:href="#DejaVuSans-20" transform="translate(257.226562 0)"/>
      <use xlink:href="#DejaVuSans-46" transform="translate(289.013672 0)"/>
      <use xlink:href="#DejaVuSans-46" transform="translate(346.533203 0)"/>
      <use xlink:href="#DejaVuSans-54" transform="translate(402.302734 0)"/>
     </g>
    </g>
    <g id="line2d_66">
     <path d="M 537.586783 307.088562 
L 547.586783 307.088562 
L 557.586783 307.088562 
" style="fill: none; stroke: #ff7f0e; stroke-width: 1.5; stroke-linecap: square"/>
    </g>
    <g id="text_31">
     <!-- output FFT -->
     <g transform="translate(565.586783 310.588562) scale(0.1 -0.1)">
      <use xlink:href="#DejaVuSans-6f"/>
      <use xlink:href="#DejaVuSans-75" transform="translate(61.181641 0)"/>
      <use xlink:href="#DejaVuSans-74" transform="translate(124.560547 0)"/>
      <use xlink:href="#DejaVuSans-70" transform="translate(163.769531 0)"/>
      <use xlink:href="#DejaVuSans-75" transform="translate(227.246094 0)"/>
      <use xlink:href="#DejaVuSans-74" transform="translate(290.625 0)"/>
      <use xlink:href="#DejaVuSans-20" transform="translate(329.833984 0)"/>
      <use xlink:href="#DejaVuSans-46" transform="translate(361.621094 0)"/>
      <use xlink:href="#DejaVuSans-46" transform="translate(419.140625 0)"/>
      <use xlink:href="#DejaVuSans-54" transform="translate(474.910156 0)"/>
     </g>
    </g>
   </g>
  </g>
 </g>
 <defs>
  <clipPath id="pccb8c36ac5">
   <rect x="60.761214" y="41.856" width="567.422444" height="179.416"/>
  </clipPath>
  <clipPath id="p7dd5d4f24e">
   <rect x="60.761214" y="279.312" width="567.422444" height="179.416"/>
  </clipPath>
 </defs>
</svg>
