<?xml version="1.0" encoding="utf-8" standalone="no"?>
<!DOCTYPE svg PUBLIC "-//W3C//DTD SVG 1.1//EN"
  "http://www.w3.org/Graphics/SVG/1.1/DTD/svg11.dtd">
<svg xmlns:xlink="http://www.w3.org/1999/xlink" width="648pt" height="504pt" viewBox="0 0 648 504" xmlns="http://www.w3.org/2000/svg" version="1.1">
 <metadata>
  <rdf:RDF xmlns:dc="http://purl.org/dc/elements/1.1/" xmlns:cc="http://creativecommons.org/ns#" xmlns:rdf="http://www.w3.org/1999/02/22-rdf-syntax-ns#">
   <cc:Work>
    <dc:type rdf:resource="http://purl.org/dc/dcmitype/StillImage"/>
    <dc:date>2026-07-07T04:04:50.419357</dc:date>
    <dc:format>image/svg+xml</dc:format>
    <dc:creator>
     <cc:Agent>
      <dc:title>Matplotlib v3.11.0, https://matplotlib.org/</dc:title>
     </cc:Agent>
    </dc:creator>
   </cc:Work>
  </rdf:RDF>
 </metadata>
 <defs>
  <style type="text/css">*{stroke-linejoin: round; stroke-linecap: butt}</style>
 </defs>
 <g id="figure_1">
  <g id="patch_1">
   <path d="M 0 504 
L 648 504 
L 648 0 
L 0 0 
z
" style="fill: #ffffff"/>
  </g>
  <g id="axes_1">
   <g id="patch_2">
    <path d="M 56.602344 222.319648 
L 628.2 222.319648 
L 628.2 42.006328 
L 56.602344 42.006328 
z
" style="fill: #ffffff"/>
   </g>
   <g id="matplotlib.axis_1">
    <g id="xtick_1">
     <g id="line2d_1">
      <path d="M 82.584055 222.319648 
L 82.584055 42.006328 
" clip-path="url(#p93ab1b3d3a)" style="fill: none; stroke: #b0b0b0; stroke-opacity: 0.25; stroke-width: 0.8; stroke-linecap: square"/>
     </g>
     <g id="line2d_2">
      <defs>
       <path id="mb6fe12b4fe" d="M 0 0 
L 0 3.5 
" style="stroke: #000000; stroke-width: 0.8"/>
      </defs>
      <g>
       <use xlink:href="#mb6fe12b4fe" x="82.584055" y="222.319648" style="stroke: #000000; stroke-width: 0.8"/>
      </g>
     </g>
     <g id="text_1">
      <!-- 0 -->
      <g transform="translate(79.402805 236.917305) scale(0.1 -0.1)">
       <defs>
        <path id="DejaVuSans-13" d="M 2034 4250 
Q 1547 4250 1301 3770 
Q 1056 3291 1056 2328 
Q 1056 1369 1301 889 
Q 1547 409 2034 409 
Q 2525 409 2770 889 
Q 3016 1369 3016 2328 
Q 3016 3291 2770 3770 
Q 2525 4250 2034 4250 
z
M 2034 4750 
Q 2819 4750 3233 4129 
Q 3647 3509 3647 2328 
Q 3647 1150 3233 529 
Q 2819 -91 2034 -91 
Q 1250 -91 836 529 
Q 422 1150 422 2328 
Q 422 3509 836 4129 
Q 1250 4750 2034 4750 
z
" transform="scale(0.015625)"/>
       </defs>
       <use xlink:href="#DejaVuSans-13"/>
      </g>
     </g>
    </g>
    <g id="xtick_2">
     <g id="line2d_3">
      <path d="M 186.536281 222.319648 
L 186.536281 42.006328 
" clip-path="url(#p93ab1b3d3a)" style="fill: none; stroke: #b0b0b0; stroke-opacity: 0.25; stroke-width: 0.8; stroke-linecap: square"/>
     </g>
     <g id="line2d_4">
      <g>
       <use xlink:href="#mb6fe12b4fe" x="186.536281" y="222.319648" style="stroke: #000000; stroke-width: 0.8"/>
      </g>
     </g>
     <g id="text_2">
      <!-- 2 -->
      <g transform="translate(183.355031 236.917305) scale(0.1 -0.1)">
       <defs>
        <path id="DejaVuSans-15" d="M 1228 531 
L 3431 531 
L 3431 0 
L 469 0 
L 469 531 
Q 828 903 1448 1529 
Q 2069 2156 2228 2338 
Q 2531 2678 2651 2914 
Q 2772 3150 2772 3378 
Q 2772 3750 2511 3984 
Q 2250 4219 1831 4219 
Q 1534 4219 1204 4116 
Q 875 4013 500 3803 
L 500 4441 
Q 881 4594 1212 4672 
Q 1544 4750 1819 4750 
Q 2544 4750 2975 4387 
Q 3406 4025 3406 3419 
Q 3406 3131 3298 2873 
Q 3191 2616 2906 2266 
Q 2828 2175 2409 1742 
Q 1991 1309 1228 531 
z
" transform="scale(0.015625)"/>
       </defs>
       <use xlink:href="#DejaVuSans-15"/>
      </g>
     </g>
    </g>
    <g id="xtick_3">
     <g id="line2d_5">
      <path d="M 290.488507 222.319648 
L 290.488507 42.006328 
" clip-path="url(#p93ab1b3d3a)" style="fill: none; stroke: #b0b0b0; stroke-opacity: 0.25; stroke-width: 0.8; stroke-linecap: square"/>
     </g>
     <g id="line2d_6">
      <g>
       <use xlink:href="#mb6fe12b4fe" x="290.488507" y="222.319648" style="stroke: #000000; stroke-width: 0.8"/>
      </g>
     </g>
     <g id="text_3">
      <!-- 4 -->
      <g transform="translate(287.307257 236.917305) scale(0.1 -0.1)">
       <defs>
        <path id="DejaVuSans-17" d="M 2419 4116 
L 825 1625 
L 2419 1625 
L 2419 4116 
z
M 2253 4666 
L 3047 4666 
L 3047 1625 
L 3713 1625 
L 3713 1100 
L 3047 1100 
L 3047 0 
L 2419 0 
L 2419 1100 
L 313 1100 
L 313 1709 
L 2253 4666 
z
" transform="scale(0.015625)"/>
       </defs>
       <use xlink:href="#DejaVuSans-17"/>
      </g>
     </g>
    </g>
    <g id="xtick_4">
     <g id="line2d_7">
      <path d="M 394.440732 222.319648 
L 394.440732 42.006328 
" clip-path="url(#p93ab1b3d3a)" style="fill: none; stroke: #b0b0b0; stroke-opacity: 0.25; stroke-width: 0.8; stroke-linecap: square"/>
     </g>
     <g id="line2d_8">
      <g>
       <use xlink:href="#mb6fe12b4fe" x="394.440732" y="222.319648" style="stroke: #000000; stroke-width: 0.8"/>
      </g>
     </g>
     <g id="text_4">
      <!-- 6 -->
      <g transform="translate(391.259482 236.917305) scale(0.1 -0.1)">
       <defs>
        <path id="DejaVuSans-19" d="M 2113 2584 
Q 1688 2584 1439 2293 
Q 1191 2003 1191 1497 
Q 1191 994 1439 701 
Q 1688 409 2113 409 
Q 2538 409 2786 701 
Q 3034 994 3034 1497 
Q 3034 2003 2786 2293 
Q 2538 2584 2113 2584 
z
M 3366 4563 
L 3366 3988 
Q 3128 4100 2886 4159 
Q 2644 4219 2406 4219 
Q 1781 4219 1451 3797 
Q 1122 3375 1075 2522 
Q 1259 2794 1537 2939 
Q 1816 3084 2150 3084 
Q 2853 3084 3261 2657 
Q 3669 2231 3669 1497 
Q 3669 778 3244 343 
Q 2819 -91 2113 -91 
Q 1303 -91 875 529 
Q 447 1150 447 2328 
Q 447 3434 972 4092 
Q 1497 4750 2381 4750 
Q 2619 4750 2861 4703 
Q 3103 4656 3366 4563 
z
" transform="scale(0.015625)"/>
       </defs>
       <use xlink:href="#DejaVuSans-19"/>
      </g>
     </g>
    </g>
    <g id="xtick_5">
     <g id="line2d_9">
      <path d="M 498.392958 222.319648 
L 498.392958 42.006328 
" clip-path="url(#p93ab1b3d3a)" style="fill: none; stroke: #b0b0b0; stroke-opacity: 0.25; stroke-width: 0.8; stroke-linecap: square"/>
     </g>
     <g id="line2d_10">
      <g>
       <use xlink:href="#mb6fe12b4fe" x="498.392958" y="222.319648" style="stroke: #000000; stroke-width: 0.8"/>
      </g>
     </g>
     <g id="text_5">
      <!-- 8 -->
      <g transform="translate(495.211708 236.917305) scale(0.1 -0.1)">
       <defs>
        <path id="DejaVuSans-1b" d="M 2034 2216 
Q 1584 2216 1326 1975 
Q 1069 1734 1069 1313 
Q 1069 891 1326 650 
Q 1584 409 2034 409 
Q 2484 409 2743 651 
Q 3003 894 3003 1313 
Q 3003 1734 2745 1975 
Q 2488 2216 2034 2216 
z
M 1403 2484 
Q 997 2584 770 2862 
Q 544 3141 544 3541 
Q 544 4100 942 4425 
Q 1341 4750 2034 4750 
Q 2731 4750 3128 4425 
Q 3525 4100 3525 3541 
Q 3525 3141 3298 2862 
Q 3072 2584 2669 2484 
Q 3125 2378 3379 2068 
Q 3634 1759 3634 1313 
Q 3634 634 3220 271 
Q 2806 -91 2034 -91 
Q 1263 -91 848 271 
Q 434 634 434 1313 
Q 434 1759 690 2068 
Q 947 2378 1403 2484 
z
M 1172 3481 
Q 1172 3119 1398 2916 
Q 1625 2713 2034 2713 
Q 2441 2713 2670 2916 
Q 2900 3119 2900 3481 
Q 2900 3844 2670 4047 
Q 2441 4250 2034 4250 
Q 1625 4250 1398 4047 
Q 1172 3844 1172 3481 
z
" transform="scale(0.015625)"/>
       </defs>
       <use xlink:href="#DejaVuSans-1b"/>
      </g>
     </g>
    </g>
    <g id="xtick_6">
     <g id="line2d_11">
      <path d="M 602.345183 222.319648 
L 602.345183 42.006328 
" clip-path="url(#p93ab1b3d3a)" style="fill: none; stroke: #b0b0b0; stroke-opacity: 0.25; stroke-width: 0.8; stroke-linecap: square"/>
     </g>
     <g id="line2d_12">
      <g>
       <use xlink:href="#mb6fe12b4fe" x="602.345183" y="222.319648" style="stroke: #000000; stroke-width: 0.8"/>
      </g>
     </g>
     <g id="text_6">
      <!-- 10 -->
      <g transform="translate(595.982683 236.917305) scale(0.1 -0.1)">
       <defs>
        <path id="DejaVuSans-14" d="M 794 531 
L 1825 531 
L 1825 4091 
L 703 3866 
L 703 4441 
L 1819 4666 
L 2450 4666 
L 2450 531 
L 3481 531 
L 3481 0 
L 794 0 
L 794 531 
z
" transform="scale(0.015625)"/>
       </defs>
       <use xlink:href="#DejaVuSans-14"/>
       <use xlink:href="#DejaVuSans-13" transform="translate(63.625 0)"/>
      </g>
     </g>
    </g>
    <g id="text_7">
     <!-- t [arb.] -->
     <g transform="translate(325.067578 250.918086) scale(0.1 -0.1)">
      <defs>
       <path id="DejaVuSans-57" d="M 1172 4494 
L 1172 3500 
L 2356 3500 
L 2356 3053 
L 1172 3053 
L 1172 1153 
Q 1172 725 1289 603 
Q 1406 481 1766 481 
L 2356 481 
L 2356 0 
L 1766 0 
Q 1100 0 847 248 
Q 594 497 594 1153 
L 594 3053 
L 172 3053 
L 172 3500 
L 594 3500 
L 594 4494 
L 1172 4494 
z
" transform="scale(0.015625)"/>
       <path id="DejaVuSans-3" transform="scale(0.015625)"/>
       <path id="DejaVuSans-3e" d="M 550 4863 
L 1875 4863 
L 1875 4416 
L 1125 4416 
L 1125 -397 
L 1875 -397 
L 1875 -844 
L 550 -844 
L 550 4863 
z
" transform="scale(0.015625)"/>
       <path id="DejaVuSans-44" d="M 2194 1759 
Q 1497 1759 1228 1600 
Q 959 1441 959 1056 
Q 959 750 1161 570 
Q 1363 391 1709 391 
Q 2188 391 2477 730 
Q 2766 1069 2766 1631 
L 2766 1759 
L 2194 1759 
z
M 3341 1997 
L 3341 0 
L 2766 0 
L 2766 531 
Q 2569 213 2275 61 
Q 1981 -91 1556 -91 
Q 1019 -91 701 211 
Q 384 513 384 1019 
Q 384 1609 779 1909 
Q 1175 2209 1959 2209 
L 2766 2209 
L 2766 2266 
Q 2766 2663 2505 2880 
Q 2244 3097 1772 3097 
Q 1472 3097 1187 3025 
Q 903 2953 641 2809 
L 641 3341 
Q 956 3463 1253 3523 
Q 1550 3584 1831 3584 
Q 2591 3584 2966 3190 
Q 3341 2797 3341 1997 
z
" transform="scale(0.015625)"/>
       <path id="DejaVuSans-55" d="M 2631 2963 
Q 2534 3019 2420 3045 
Q 2306 3072 2169 3072 
Q 1681 3072 1420 2755 
Q 1159 2438 1159 1844 
L 1159 0 
L 581 0 
L 581 3500 
L 1159 3500 
L 1159 2956 
Q 1341 3275 1631 3429 
Q 1922 3584 2338 3584 
Q 2397 3584 2469 3576 
Q 2541 3569 2628 3553 
L 2631 2963 
z
" transform="scale(0.015625)"/>
       <path id="DejaVuSans-45" d="M 3116 1747 
Q 3116 2381 2855 2742 
Q 2594 3103 2138 3103 
Q 1681 3103 1420 2742 
Q 1159 2381 1159 1747 
Q 1159 1113 1420 752 
Q 1681 391 2138 391 
Q 2594 391 2855 752 
Q 3116 1113 3116 1747 
z
M 1159 2969 
Q 1341 3281 1617 3432 
Q 1894 3584 2278 3584 
Q 2916 3584 3314 3078 
Q 3713 2572 3713 1747 
Q 3713 922 3314 415 
Q 2916 -91 2278 -91 
Q 1894 -91 1617 61 
Q 1341 213 1159 525 
L 1159 0 
L 581 0 
L 581 4863 
L 1159 4863 
L 1159 2969 
z
" transform="scale(0.015625)"/>
       <path id="DejaVuSans-11" d="M 684 794 
L 1344 794 
L 1344 0 
L 684 0 
L 684 794 
z
" transform="scale(0.015625)"/>
       <path id="DejaVuSans-40" d="M 1947 4863 
L 1947 -844 
L 622 -844 
L 622 -397 
L 1369 -397 
L 1369 4416 
L 622 4416 
L 622 4863 
L 1947 4863 
z
" transform="scale(0.015625)"/>
      </defs>
      <use xlink:href="#DejaVuSans-57"/>
      <use xlink:href="#DejaVuSans-3" transform="translate(39.203125 0)"/>
      <use xlink:href="#DejaVuSans-3e" transform="translate(70.984375 0)"/>
      <use xlink:href="#DejaVuSans-44" transform="translate(110 0)"/>
      <use xlink:href="#DejaVuSans-55" transform="translate(171.28125 0)"/>
      <use xlink:href="#DejaVuSans-45" transform="translate(212.390625 0)"/>
      <use xlink:href="#DejaVuSans-11" transform="translate(275.875 0)"/>
      <use xlink:href="#DejaVuSans-40" transform="translate(307.65625 0)"/>
     </g>
    </g>
   </g>
   <g id="matplotlib.axis_2">
    <g id="ytick_1">
     <g id="line2d_13">
      <path d="M 56.602344 211.881958 
L 628.2 211.881958 
" clip-path="url(#p93ab1b3d3a)" style="fill: none; stroke: #b0b0b0; stroke-opacity: 0.25; stroke-width: 0.8; stroke-linecap: square"/>
     </g>
     <g id="line2d_14">
      <defs>
       <path id="mb210699116" d="M 0 0 
L -3.5 0 
" style="stroke: #000000; stroke-width: 0.8"/>
      </defs>
      <g>
       <use xlink:href="#mb210699116" x="56.602344" y="211.881958" style="stroke: #000000; stroke-width: 0.8"/>
      </g>
     </g>
     <g id="text_8">
      <!-- −1.0 -->
      <g transform="translate(25.319531 215.680786) scale(0.1 -0.1)">
       <defs>
        <path id="DejaVuSans-c9c" d="M 678 2272 
L 4684 2272 
L 4684 1741 
L 678 1741 
L 678 2272 
z
" transform="scale(0.015625)"/>
       </defs>
       <use xlink:href="#DejaVuSans-c9c"/>
       <use xlink:href="#DejaVuSans-14" transform="translate(83.796875 0)"/>
       <use xlink:href="#DejaVuSans-11" transform="translate(147.421875 0)"/>
       <use xlink:href="#DejaVuSans-13" transform="translate(179.203125 0)"/>
      </g>
     </g>
    </g>
    <g id="ytick_2">
     <g id="line2d_15">
      <path d="M 56.602344 172.022477 
L 628.2 172.022477 
" clip-path="url(#p93ab1b3d3a)" style="fill: none; stroke: #b0b0b0; stroke-opacity: 0.25; stroke-width: 0.8; stroke-linecap: square"/>
     </g>
     <g id="line2d_16">
      <g>
       <use xlink:href="#mb210699116" x="56.602344" y="172.022477" style="stroke: #000000; stroke-width: 0.8"/>
      </g>
     </g>
     <g id="text_9">
      <!-- −0.5 -->
      <g transform="translate(25.319531 175.821305) scale(0.1 -0.1)">
       <defs>
        <path id="DejaVuSans-18" d="M 691 4666 
L 3169 4666 
L 3169 4134 
L 1269 4134 
L 1269 2991 
Q 1406 3038 1543 3061 
Q 1681 3084 1819 3084 
Q 2600 3084 3056 2656 
Q 3513 2228 3513 1497 
Q 3513 744 3044 326 
Q 2575 -91 1722 -91 
Q 1428 -91 1123 -41 
Q 819 9 494 109 
L 494 744 
Q 775 591 1075 516 
Q 1375 441 1709 441 
Q 2250 441 2565 725 
Q 2881 1009 2881 1497 
Q 2881 1984 2565 2268 
Q 2250 2553 1709 2553 
Q 1456 2553 1204 2497 
Q 953 2441 691 2322 
L 691 4666 
z
" transform="scale(0.015625)"/>
       </defs>
       <use xlink:href="#DejaVuSans-c9c"/>
       <use xlink:href="#DejaVuSans-13" transform="translate(83.796875 0)"/>
       <use xlink:href="#DejaVuSans-11" transform="translate(147.421875 0)"/>
       <use xlink:href="#DejaVuSans-18" transform="translate(179.203125 0)"/>
      </g>
     </g>
    </g>
    <g id="ytick_3">
     <g id="line2d_17">
      <path d="M 56.602344 132.162996 
L 628.2 132.162996 
" clip-path="url(#p93ab1b3d3a)" style="fill: none; stroke: #b0b0b0; stroke-opacity: 0.25; stroke-width: 0.8; stroke-linecap: square"/>
     </g>
     <g id="line2d_18">
      <g>
       <use xlink:href="#mb210699116" x="56.602344" y="132.162996" style="stroke: #000000; stroke-width: 0.8"/>
      </g>
     </g>
     <g id="text_10">
      <!-- 0.0 -->
      <g transform="translate(33.699219 135.961824) scale(0.1 -0.1)">
       <use xlink:href="#DejaVuSans-13"/>
       <use xlink:href="#DejaVuSans-11" transform="translate(63.625 0)"/>
       <use xlink:href="#DejaVuSans-13" transform="translate(95.40625 0)"/>
      </g>
     </g>
    </g>
    <g id="ytick_4">
     <g id="line2d_19">
      <path d="M 56.602344 92.303514 
L 628.2 92.303514 
" clip-path="url(#p93ab1b3d3a)" style="fill: none; stroke: #b0b0b0; stroke-opacity: 0.25; stroke-width: 0.8; stroke-linecap: square"/>
     </g>
     <g id="line2d_20">
      <g>
       <use xlink:href="#mb210699116" x="56.602344" y="92.303514" style="stroke: #000000; stroke-width: 0.8"/>
      </g>
     </g>
     <g id="text_11">
      <!-- 0.5 -->
      <g transform="translate(33.699219 96.102342) scale(0.1 -0.1)">
       <use xlink:href="#DejaVuSans-13"/>
       <use xlink:href="#DejaVuSans-11" transform="translate(63.625 0)"/>
       <use xlink:href="#DejaVuSans-18" transform="translate(95.40625 0)"/>
      </g>
     </g>
    </g>
    <g id="ytick_5">
     <g id="line2d_21">
      <path d="M 56.602344 52.444033 
L 628.2 52.444033 
" clip-path="url(#p93ab1b3d3a)" style="fill: none; stroke: #b0b0b0; stroke-opacity: 0.25; stroke-width: 0.8; stroke-linecap: square"/>
     </g>
     <g id="line2d_22">
      <g>
       <use xlink:href="#mb210699116" x="56.602344" y="52.444033" style="stroke: #000000; stroke-width: 0.8"/>
      </g>
     </g>
     <g id="text_12">
      <!-- 1.0 -->
      <g transform="translate(33.699219 56.242861) scale(0.1 -0.1)">
       <use xlink:href="#DejaVuSans-14"/>
       <use xlink:href="#DejaVuSans-11" transform="translate(63.625 0)"/>
       <use xlink:href="#DejaVuSans-13" transform="translate(95.40625 0)"/>
      </g>
     </g>
    </g>
    <g id="text_13">
     <!-- [arb.] -->
     <g transform="translate(18.917188 145.947363) rotate(-90) scale(0.1 -0.1)">
      <use xlink:href="#DejaVuSans-3e"/>
      <use xlink:href="#DejaVuSans-44" transform="translate(39.015625 0)"/>
      <use xlink:href="#DejaVuSans-55" transform="translate(100.296875 0)"/>
      <use xlink:href="#DejaVuSans-45" transform="translate(141.40625 0)"/>
      <use xlink:href="#DejaVuSans-11" transform="translate(204.890625 0)"/>
      <use xlink:href="#DejaVuSans-40" transform="translate(236.671875 0)"/>
     </g>
    </g>
   </g>
   <g id="line2d_23">
    <path d="M 82.584055 132.162996 
L 86.13711 98.60989 
L 88.040532 82.710021 
L 89.56327 71.765431 
L 90.832218 64.135064 
L 91.974271 58.580794 
L 92.98943 54.774652 
L 93.750798 52.654255 
L 94.512167 51.182894 
L 95.146641 50.461377 
L 95.65422 50.217592 
L 96.1618 50.27122 
L 96.669379 50.622066 
L 97.176958 51.268856 
L 97.811432 52.489839 
L 98.572801 54.550531 
L 99.461065 57.753945 
L 100.476223 62.424585 
L 101.618276 68.884179 
L 102.887224 77.417578 
L 104.409962 89.275233 
L 106.313384 106.012759 
L 109.35886 135.177297 
L 112.658125 166.213294 
L 114.561547 182.050099 
L 116.084284 192.928153 
L 117.353232 200.493821 
L 118.495286 205.983951 
L 119.383549 209.321752 
L 120.271813 211.802467 
L 120.906287 213.034007 
L 121.540761 213.807011 
L 122.04834 214.092235 
L 122.555919 214.080105 
L 123.063499 213.770665 
L 123.571078 213.165037 
L 124.205552 211.994941 
L 124.966921 209.994099 
L 125.72829 207.357917 
L 126.616553 203.508361 
L 127.631712 198.141347 
L 128.90066 190.097291 
L 130.296503 179.741301 
L 132.07303 164.717274 
L 134.484031 142.157969 
L 139.432929 95.393872 
L 141.209456 80.875184 
L 142.732194 70.217512 
L 144.001142 62.865222 
L 145.0163 58.10656 
L 145.904564 54.821886 
L 146.665933 52.689108 
L 147.427302 51.205081 
L 148.061776 50.472866 
L 148.569355 50.220473 
L 149.076934 50.265482 
L 149.584513 50.60773 
L 150.092092 51.245975 
L 150.726567 52.456396 
L 151.487935 54.504669 
L 152.376199 57.694075 
L 153.391357 62.349529 
L 154.533411 68.79335 
L 155.802359 77.31119 
L 157.325096 89.153382 
L 159.228519 105.87721 
L 162.273994 135.034323 
L 165.573259 166.083106 
L 167.476681 181.93651 
L 168.999419 192.832053 
L 170.268367 200.414714 
L 171.41042 205.921681 
L 172.298684 209.273385 
L 173.186947 211.768538 
L 173.821421 213.010633 
L 174.455895 213.794324 
L 174.963475 214.088152 
L 175.471054 214.084641 
L 175.978633 213.783803 
L 176.486212 213.186731 
L 177.120686 212.027213 
L 177.882055 210.03882 
L 178.643424 207.414721 
L 179.531688 203.578669 
L 180.546846 198.226124 
L 181.815794 190.198402 
L 183.211637 179.857722 
L 184.988164 164.848522 
L 187.399166 142.299952 
L 192.348063 95.52179 
L 194.12459 80.986856 
L 195.647328 70.311288 
L 196.916276 62.941721 
L 198.058329 57.645462 
L 198.946593 54.467477 
L 199.707962 52.429327 
L 200.342436 51.227514 
L 200.97691 50.484604 
L 201.484489 50.223604 
L 201.992068 50.259994 
L 202.499648 50.593644 
L 203.007227 51.223341 
L 203.641701 52.423196 
L 204.40307 54.459045 
L 205.291333 57.634433 
L 206.306492 62.274685 
L 207.448545 68.702714 
L 208.717493 77.204969 
L 210.240231 89.031662 
L 212.143653 105.74174 
L 215.189128 134.891339 
L 218.488393 165.952815 
L 220.391815 181.82277 
L 221.914553 192.735768 
L 223.183501 200.335399 
L 224.325554 205.859186 
L 225.340713 209.636458 
L 226.102082 211.734368 
L 226.86345 213.182732 
L 227.497925 213.884829 
L 228.005504 214.11299 
L 228.386188 214.088927 
L 228.893767 213.796693 
L 229.401347 213.208177 
L 230.035821 212.059243 
L 230.797189 210.083303 
L 231.558558 207.471295 
L 232.446822 203.64876 
L 233.46198 198.3107 
L 234.730928 190.299336 
L 236.126771 179.973997 
L 237.903299 164.97967 
L 240.3143 142.441905 
L 245.263197 95.64982 
L 247.039725 81.098684 
L 248.562462 70.405251 
L 249.83141 63.018432 
L 250.973464 57.705147 
L 251.861727 54.513146 
L 252.623096 52.462572 
L 253.25757 51.250194 
L 253.892044 50.496591 
L 254.399624 50.226984 
L 254.907203 50.254756 
L 255.414782 50.579805 
L 255.922361 51.200953 
L 256.556835 52.390239 
L 257.318204 54.413657 
L 258.206468 57.575017 
L 259.221626 62.200055 
L 260.363679 68.612272 
L 261.632627 77.098916 
L 263.155365 88.910074 
L 265.058787 105.606351 
L 267.977368 133.51411 
L 271.403528 165.822421 
L 273.30695 181.708879 
L 274.829687 192.639298 
L 276.098635 200.255875 
L 277.240689 205.796467 
L 278.255847 209.589651 
L 279.017216 211.699955 
L 279.778585 213.160992 
L 280.413059 213.873791 
L 280.920638 214.110562 
L 281.428217 214.049912 
L 281.935797 213.692061 
L 282.443376 213.038309 
L 283.07785 211.808724 
L 283.839219 209.737918 
L 284.727482 206.523097 
L 285.742641 201.840095 
L 286.884694 195.367663 
L 288.153642 186.821606 
L 289.67638 174.951378 
L 291.579802 158.202729 
L 294.625277 129.032207 
L 297.924542 98.006698 
L 299.827964 82.183454 
L 301.350702 71.319673 
L 302.61965 63.767868 
L 303.761703 58.29147 
L 304.649967 54.965003 
L 305.411336 52.79512 
L 306.172705 51.273121 
L 306.807179 50.508826 
L 307.314758 50.230614 
L 307.822337 50.249767 
L 308.329916 50.566216 
L 308.837496 51.178812 
L 309.47197 52.357525 
L 310.233338 54.368506 
L 310.994707 57.014527 
L 311.882971 60.875078 
L 312.898129 66.253869 
L 314.167077 74.311215 
L 315.56292 84.679656 
L 317.339448 99.71573 
L 319.750449 122.283732 
L 324.572452 167.929514 
L 326.348979 182.573978 
L 327.871717 193.37064 
L 329.140665 200.857338 
L 330.282718 206.269301 
L 331.170981 209.542609 
L 331.93235 211.665299 
L 332.693719 213.139007 
L 333.328193 213.862505 
L 333.835772 214.107884 
L 334.343352 214.055853 
L 334.850931 213.706599 
L 335.35851 213.061391 
L 335.992984 211.842364 
L 336.754353 209.783972 
L 337.642617 206.583152 
L 338.657775 201.915324 
L 339.799828 195.458649 
L 341.068776 186.92813 
L 342.591514 175.073336 
L 344.494936 158.338343 
L 347.540412 129.175174 
L 350.839677 98.136802 
L 352.743099 82.296919 
L 354.265836 71.415622 
L 355.534784 63.846806 
L 356.676838 58.353556 
L 357.565101 55.013179 
L 358.453365 52.52979 
L 359.087839 51.296294 
L 359.722313 50.521311 
L 360.229892 50.234493 
L 360.737471 50.245027 
L 361.245051 50.552874 
L 361.75263 51.156917 
L 362.387104 52.325055 
L 363.148473 54.323592 
L 363.909842 56.957537 
L 364.798105 60.804592 
L 365.813264 66.168928 
L 367.082212 74.20996 
L 368.478055 84.563117 
L 370.254582 99.584401 
L 372.665583 122.141723 
L 377.614481 168.908436 
L 379.391008 183.430137 
L 380.913746 194.091125 
L 382.182694 201.446617 
L 383.197852 206.208074 
L 384.086116 209.495331 
L 384.847485 211.630401 
L 385.608854 213.116774 
L 386.243328 213.85097 
L 386.750907 214.104957 
L 387.258486 214.061544 
L 387.766065 213.720888 
L 388.273644 213.084227 
L 388.908118 211.875762 
L 389.669487 209.82979 
L 390.557751 206.642979 
L 391.572909 201.99034 
L 392.714963 195.549442 
L 393.983911 187.034487 
L 395.506648 175.195162 
L 397.410071 158.473878 
L 400.455546 129.31815 
L 403.754811 98.267009 
L 405.658233 82.410535 
L 407.180971 71.511757 
L 408.449919 63.925952 
L 409.591972 58.415868 
L 410.480236 55.06159 
L 411.368499 52.563763 
L 412.129868 51.125729 
L 412.764342 50.432353 
L 413.271921 50.211208 
L 413.652606 50.240538 
L 414.160185 50.539782 
L 414.667764 51.13527 
L 415.302238 52.292827 
L 416.063607 54.278915 
L 416.824976 56.900775 
L 417.71324 60.734324 
L 418.728398 66.084188 
L 419.997346 74.108882 
L 421.393189 84.446723 
L 423.169716 99.453172 
L 425.580718 121.999745 
L 430.529615 168.780497 
L 432.306142 183.318435 
L 433.82888 193.997315 
L 435.097828 201.370078 
L 436.239881 206.669492 
L 437.128145 209.850074 
L 437.889514 211.890525 
L 438.523988 213.094295 
L 439.158462 213.839186 
L 439.666041 214.10178 
L 440.17362 214.066986 
L 440.6812 213.734929 
L 441.188779 213.106815 
L 441.823253 211.908917 
L 442.584622 209.875371 
L 443.472885 206.70258 
L 444.488044 202.065144 
L 445.630097 195.640042 
L 446.899045 187.140677 
L 448.421783 175.316858 
L 450.325205 158.609332 
L 453.37068 129.461134 
L 456.669945 98.397319 
L 458.573367 82.524303 
L 460.096105 71.608076 
L 461.365053 64.005305 
L 462.507106 58.478405 
L 463.522265 54.698184 
L 464.283634 52.597979 
L 465.045002 51.147267 
L 465.679476 50.443188 
L 466.187056 50.213432 
L 466.56774 50.236297 
L 467.075319 50.526938 
L 467.582899 51.113869 
L 468.217373 52.260843 
L 468.978741 54.234475 
L 469.74011 56.844243 
L 470.628374 60.664274 
L 471.643532 65.999649 
L 472.91248 74.00798 
L 474.308323 84.330475 
L 476.084851 99.322043 
L 478.495852 121.857798 
L 483.444749 168.652447 
L 485.221277 183.206579 
L 486.744014 193.903316 
L 488.012962 201.293329 
L 489.155016 206.609765 
L 490.043279 209.804361 
L 490.804648 211.857235 
L 491.439122 213.071569 
L 492.073596 213.827153 
L 492.581175 214.098354 
L 493.088755 214.072178 
L 493.596334 213.748722 
L 494.103913 213.129158 
L 494.738387 211.941829 
L 495.499756 209.920715 
L 496.38802 206.761953 
L 497.403178 202.139735 
L 498.545231 195.730449 
L 499.814179 187.246699 
L 501.336917 175.438422 
L 503.240339 158.744706 
L 506.15892 130.838375 
L 509.58508 98.527732 
L 511.488502 82.638222 
L 513.011239 71.70458 
L 514.280187 64.084867 
L 515.422241 58.541165 
L 516.437399 54.745035 
L 517.198768 52.632437 
L 517.960137 51.169052 
L 518.594611 50.454271 
L 519.10219 50.215906 
L 519.609769 50.27496 
L 520.117348 50.631218 
L 520.624928 51.283388 
L 521.259402 52.511018 
L 522.020771 54.579526 
L 522.909034 57.791754 
L 523.924193 62.471947 
L 525.066246 68.941462 
L 526.335194 77.484643 
L 527.857932 89.352016 
L 529.761354 106.098139 
L 532.806829 135.267306 
L 536.106094 166.295204 
L 538.009516 182.121534 
L 539.532254 192.988561 
L 540.801202 200.543519 
L 541.943255 206.023039 
L 542.831519 209.352083 
L 543.719783 211.823703 
L 544.354257 213.048597 
L 544.988731 213.814871 
L 545.49631 214.094678 
L 546.003889 214.077121 
L 546.511468 213.762265 
L 547.019047 213.151253 
L 547.653522 211.974498 
L 548.41489 209.965822 
L 549.176259 207.322036 
L 550.064523 203.463984 
L 551.079681 198.087869 
L 552.348629 190.033543 
L 553.744472 179.66793 
L 555.521 164.634592 
L 557.932001 142.068563 
L 562.754004 96.42032 
L 564.530531 81.772908 
L 566.053268 70.972977 
L 567.322217 63.48311 
L 568.46427 58.068013 
L 569.352533 54.792121 
L 570.113902 52.667137 
L 570.875271 51.191084 
L 571.509745 50.465603 
L 572.017324 50.21863 
L 572.524904 50.269065 
L 573.032483 50.616727 
L 573.540062 51.260352 
L 574.174536 52.477423 
L 574.935905 54.533515 
L 575.824169 57.731742 
L 576.839327 62.396758 
L 577.98138 68.850512 
L 579.250328 77.37815 
L 580.773066 89.230082 
L 582.676488 105.96254 
L 585.721963 135.124338 
L 589.021228 166.165082 
L 590.924651 182.008041 
L 592.447388 192.892578 
L 593.716336 200.464543 
L 594.85839 205.960911 
L 595.746653 209.303864 
L 596.634917 211.789927 
L 597.269391 213.025378 
L 597.903865 213.802341 
L 598.411444 214.090752 
L 598.919023 214.081814 
L 599.426603 213.77556 
L 599.934182 213.173102 
L 600.568656 212.006924 
L 601.330025 210.010692 
L 602.091394 207.378985 
L 602.218288 206.880018 
L 602.218288 206.880018 
" clip-path="url(#p93ab1b3d3a)" style="fill: none; stroke: #1f77b4; stroke-width: 1.5; stroke-linecap: square"/>
   </g>
   <g id="line2d_24">
    <path d="M 82.584055 132.162996 
L 84.106793 118.542861 
L 85.502636 108.079645 
L 86.644689 101.023699 
L 87.659848 95.919588 
L 88.675006 91.929222 
L 89.56327 89.354031 
L 90.324639 87.823986 
L 90.959113 87.021416 
L 91.466692 86.684435 
L 91.974271 86.614479 
L 92.48185 86.806942 
L 92.98943 87.256499 
L 93.623904 88.170716 
L 94.385272 89.766621 
L 95.273536 92.282851 
L 96.288695 95.963021 
L 97.430748 101.032981 
L 98.826591 108.386422 
L 100.476223 118.384571 
L 102.76033 133.741895 
L 107.455437 165.693691 
L 109.231965 176.137137 
L 110.627808 183.15683 
L 111.896756 188.436893 
L 112.911914 191.812941 
L 113.800178 194.101317 
L 114.561547 195.545052 
L 115.196021 196.37239 
L 115.830495 196.851914 
L 116.338074 196.982563 
L 116.845653 196.887276 
L 117.353232 196.565953 
L 117.987706 195.847649 
L 118.62218 194.780678 
L 119.383549 193.047696 
L 120.271813 190.418626 
L 121.286971 186.647456 
L 122.429025 181.490999 
L 123.697973 174.735241 
L 125.22071 165.408187 
L 127.124133 152.314534 
L 130.423397 127.710718 
L 133.468873 105.603519 
L 135.372295 93.39748 
L 136.895033 85.040236 
L 138.163981 79.247669 
L 139.306034 75.061936 
L 140.194298 72.531175 
L 141.082561 70.665685 
L 141.84393 69.611929 
L 142.478404 69.124991 
L 142.985983 68.993572 
L 143.493563 69.092138 
L 144.001142 69.420298 
L 144.635616 70.151419 
L 145.27009 71.235102 
L 146.031459 72.992032 
L 146.919722 75.652551 
L 147.934881 79.461576 
L 149.076934 84.659363 
L 150.472777 92.18788 
L 152.122409 102.482328 
L 154.152726 116.668678 
L 161.258835 167.68666 
L 162.908468 177.199478 
L 164.177416 183.363119 
L 165.319469 187.922915 
L 166.334628 191.119574 
L 167.222891 193.216709 
L 167.98426 194.47532 
L 168.618734 195.136026 
L 169.126313 195.407692 
L 169.633893 195.449876 
L 170.141472 195.262421 
L 170.649051 194.846007 
L 171.283525 194.00589 
L 172.044894 192.535551 
L 172.806263 190.572487 
L 173.694527 187.68108 
L 174.709685 183.623802 
L 175.978633 177.510695 
L 177.374476 169.606325 
L 179.024108 158.961416 
L 181.308215 142.625087 
L 186.891586 102.001979 
L 188.668114 91.023124 
L 190.063957 83.654033 
L 191.332905 78.103369 
L 192.348063 74.539264 
L 193.236327 72.104836 
L 193.997696 70.548354 
L 194.759064 69.494849 
L 195.393538 69.007474 
L 195.901118 68.87534 
L 196.408697 68.972907 
L 196.916276 69.29982 
L 197.55075 70.029093 
L 198.185224 71.110669 
L 198.946593 72.864828 
L 199.834857 75.52192 
L 200.850015 79.326983 
L 201.992068 84.520539 
L 203.387911 92.044643 
L 205.037544 102.335585 
L 207.067861 116.521086 
L 214.17397 167.574696 
L 215.823602 177.104307 
L 217.219445 183.838862 
L 218.361498 188.303184 
L 219.376657 191.408706 
L 220.264921 193.42236 
L 221.026289 194.607391 
L 221.660763 195.205822 
L 222.168343 195.427296 
L 222.675922 195.41916 
L 223.183501 195.181442 
L 223.69108 194.715005 
L 224.325554 193.81298 
L 225.086923 192.26973 
L 225.975187 189.850248 
L 226.990345 186.302374 
L 228.132399 181.375397 
L 229.401347 174.846275 
L 230.924084 165.749908 
L 232.827506 152.878662 
L 235.746087 131.34063 
L 239.172247 106.373211 
L 241.075669 94.080494 
L 242.598406 85.61332 
L 243.867355 79.705767 
L 245.009408 75.401473 
L 246.024566 72.447869 
L 246.91283 70.572808 
L 247.674199 69.509555 
L 248.308673 69.013955 
L 248.816252 68.875206 
L 249.323831 68.966155 
L 249.83141 69.286469 
L 250.465885 70.00756 
L 251.100359 71.08107 
L 251.861727 72.825767 
L 252.749991 75.47222 
L 253.765149 79.265795 
L 254.907203 84.447483 
L 256.303046 91.958905 
L 257.952678 102.237891 
L 259.982995 116.413813 
L 267.089104 167.482953 
L 268.738737 177.026346 
L 270.13458 183.774908 
L 271.276633 188.25201 
L 272.291791 191.369685 
L 273.180055 193.394442 
L 273.941424 194.589242 
L 274.575898 195.195928 
L 275.083477 195.424049 
L 275.591056 195.422571 
L 276.098635 195.191498 
L 276.606215 194.73167 
L 277.240689 193.837818 
L 278.002058 192.304185 
L 278.890321 189.895561 
L 279.90548 186.359472 
L 281.047533 181.444753 
L 282.316481 174.927749 
L 283.839219 165.843466 
L 285.742641 152.982998 
L 288.661221 131.451081 
L 292.087381 106.474125 
L 293.990803 94.168779 
L 295.513541 85.688231 
L 296.782489 79.767647 
L 297.924542 75.450417 
L 298.939701 72.484553 
L 299.827964 70.598321 
L 300.589333 69.525263 
L 301.223807 69.02139 
L 301.731386 68.875991 
L 302.238966 68.960286 
L 302.746545 69.273968 
L 303.381019 69.986835 
L 304.015493 71.052239 
L 304.776862 72.787428 
L 305.665125 75.42319 
L 306.680284 79.205219 
L 307.822337 84.374976 
L 309.091285 91.14302 
L 310.614023 100.475953 
L 312.64434 114.468423 
L 316.451184 142.779417 
L 319.115975 161.661782 
L 320.892502 172.729354 
L 322.288345 180.186294 
L 323.557293 185.828487 
L 324.572452 189.47238 
L 325.460715 191.980424 
L 326.348979 193.82401 
L 327.110348 194.859644 
L 327.744822 195.33195 
L 328.252401 195.451975 
L 328.75998 195.3423 
L 329.267559 195.003321 
L 329.902033 194.259094 
L 330.536507 193.162783 
L 331.297876 191.391351 
L 332.18614 188.714846 
L 333.201298 184.888834 
L 334.343352 179.673648 
L 335.739195 172.126444 
L 337.388827 161.813736 
L 339.419144 147.61081 
L 346.398358 97.377896 
L 348.047991 87.755053 
L 349.443834 80.925525 
L 350.585887 76.374441 
L 351.601045 73.18633 
L 352.489309 71.097168 
L 353.250678 69.845673 
L 353.885152 69.191042 
L 354.392731 68.924302 
L 354.90031 68.88708 
L 355.40789 69.079512 
L 355.915469 69.5009 
L 356.549943 70.347194 
L 357.311312 71.824836 
L 358.07268 73.795022 
L 358.960944 76.694421 
L 359.976103 80.760294 
L 361.245051 86.883135 
L 362.640894 94.796646 
L 364.290526 105.449877 
L 366.574633 121.792682 
L 372.158004 162.404863 
L 373.934531 173.372699 
L 375.330374 180.731009 
L 376.599322 186.270511 
L 377.614481 189.824925 
L 378.502744 192.250433 
L 379.264113 193.79902 
L 380.025482 194.844469 
L 380.659956 195.325052 
L 381.167535 195.451729 
L 381.675115 195.348706 
L 382.182694 195.016357 
L 382.817168 194.280348 
L 383.451642 193.192134 
L 384.213011 191.430195 
L 385.101274 188.764359 
L 386.116433 184.94986 
L 387.258486 179.74656 
L 388.654329 172.212048 
L 390.303961 161.911291 
L 392.334278 147.71792 
L 399.440387 96.676853 
L 401.09002 87.158458 
L 402.358968 80.990453 
L 403.501021 76.426693 
L 404.51618 73.226502 
L 405.404443 71.126285 
L 406.165812 69.865053 
L 406.800286 69.202182 
L 407.307865 68.928804 
L 407.815445 68.884927 
L 408.323024 69.070712 
L 408.830603 69.485484 
L 409.465077 70.32359 
L 410.226446 71.791588 
L 410.987815 73.752401 
L 411.876078 76.641309 
L 412.891237 80.695922 
L 414.03329 86.146307 
L 415.429133 93.943348 
L 417.078766 104.489279 
L 419.235977 119.808378 
L 425.326928 163.970361 
L 426.97656 174.008735 
L 428.372403 181.267111 
L 429.641351 186.702939 
L 430.65651 190.167242 
L 431.544773 192.509784 
L 432.306142 193.984929 
L 432.940616 194.829102 
L 433.57509 195.317961 
L 434.08267 195.45129 
L 434.590249 195.35492 
L 435.097828 195.029202 
L 435.732302 194.301412 
L 436.366776 193.221299 
L 437.128145 191.468859 
L 438.016409 188.8137 
L 439.031567 185.010726 
L 440.17362 179.819328 
L 441.569463 172.297529 
L 443.219096 162.008756 
L 445.249413 147.824982 
L 452.355522 96.768382 
L 454.005154 87.236201 
L 455.400997 80.499039 
L 456.54305 76.032341 
L 457.558209 72.924562 
L 458.446472 70.908845 
L 459.207841 69.722 
L 459.842315 69.122038 
L 460.349895 68.89933 
L 460.857474 68.906231 
L 461.365053 69.142716 
L 461.872632 69.607927 
L 462.507106 70.508435 
L 463.268475 72.049902 
L 464.156739 74.467371 
L 465.171897 78.01306 
L 466.313951 82.937765 
L 467.582899 89.464641 
L 469.105636 98.558769 
L 471.009058 111.428017 
L 473.927639 132.964918 
L 477.353799 157.934105 
L 479.257221 170.229162 
L 480.779958 178.698814 
L 482.048907 184.608781 
L 483.19096 188.915472 
L 484.206118 191.871346 
L 485.094382 193.748477 
L 485.855751 194.813545 
L 486.490225 195.310677 
L 486.997804 195.450658 
L 487.505383 195.360942 
L 488.012962 195.041855 
L 488.647436 194.322287 
L 489.28191 193.250278 
L 490.043279 191.507341 
L 490.931543 188.862868 
L 491.946701 185.07143 
L 493.088755 179.89195 
L 494.484598 172.382888 
L 496.13423 162.106129 
L 498.164547 147.931996 
L 505.270656 96.860019 
L 506.920289 87.314081 
L 508.316131 80.562928 
L 509.458185 76.083463 
L 510.473343 72.963539 
L 511.361607 70.936727 
L 512.122976 69.74012 
L 512.75745 69.131906 
L 513.265029 68.902554 
L 513.772608 68.902799 
L 514.280187 69.132642 
L 514.787767 69.591246 
L 515.422241 70.483585 
L 516.183609 72.015437 
L 517.071873 74.42205 
L 518.087032 77.955956 
L 519.229085 82.868403 
L 520.498033 89.383161 
L 522.020771 98.465204 
L 523.924193 111.323672 
L 526.842773 132.854451 
L 530.395828 158.701628 
L 532.29925 170.899138 
L 533.821988 179.26593 
L 535.090936 185.075903 
L 536.232989 189.283484 
L 537.248147 192.145532 
L 538.009516 193.722923 
L 538.770885 194.797797 
L 539.405359 195.303202 
L 539.912938 195.449833 
L 540.420518 195.36677 
L 540.928097 195.054316 
L 541.562571 194.342973 
L 542.197045 193.279071 
L 542.958414 191.545643 
L 543.846677 188.911863 
L 544.861836 185.131973 
L 546.003889 179.964427 
L 547.272837 173.19855 
L 548.795575 163.867748 
L 550.825892 149.877212 
L 554.632736 121.566746 
L 557.297527 102.682313 
L 559.074054 91.612344 
L 560.469897 84.153026 
L 561.738845 78.508353 
L 562.754004 74.862296 
L 563.642267 72.352253 
L 564.530531 70.506595 
L 565.2919 69.469143 
L 565.926374 68.995304 
L 566.433953 68.874047 
L 566.941532 68.98249 
L 567.449111 69.320241 
L 568.083585 70.062947 
L 568.718059 71.157758 
L 569.479428 72.927432 
L 570.367692 75.601962 
L 571.38285 79.425842 
L 572.524904 84.638829 
L 573.920746 92.183683 
L 575.570379 102.49418 
L 577.600696 116.69534 
L 584.57991 166.931 
L 586.229543 176.556357 
L 587.625386 183.388452 
L 588.767439 187.941885 
L 589.782597 191.132234 
L 590.670861 193.223444 
L 591.43223 194.476743 
L 592.066704 195.132901 
L 592.574283 195.40087 
L 593.081862 195.439324 
L 593.589442 195.248123 
L 594.097021 194.827961 
L 594.731495 193.983183 
L 595.492864 192.507327 
L 596.254232 190.538876 
L 597.142496 187.64142 
L 598.157655 183.577631 
L 599.426603 177.45715 
L 600.822445 169.545857 
L 602.218288 160.610541 
L 602.218288 160.610541 
" clip-path="url(#p93ab1b3d3a)" style="fill: none; stroke: #ff7f0e; stroke-width: 1.5; stroke-linecap: square"/>
   </g>
   <g id="patch_3">
    <path d="M 56.602344 222.319648 
L 56.602344 42.006328 
" style="fill: none; stroke: #000000; stroke-width: 0.8; stroke-linejoin: miter; stroke-linecap: square"/>
   </g>
   <g id="patch_4">
    <path d="M 628.2 222.319648 
L 628.2 42.006328 
" style="fill: none; stroke: #000000; stroke-width: 0.8; stroke-linejoin: miter; stroke-linecap: square"/>
   </g>
   <g id="patch_5">
    <path d="M 56.602344 222.319648 
L 628.2 222.319648 
" style="fill: none; stroke: #000000; stroke-width: 0.8; stroke-linejoin: miter; stroke-linecap: square"/>
   </g>
   <g id="patch_6">
    <path d="M 56.602344 42.006328 
L 628.2 42.006328 
" style="fill: none; stroke: #000000; stroke-width: 0.8; stroke-linejoin: miter; stroke-linecap: square"/>
   </g>
   <g id="text_14">
    <!-- Daily Useless RC (2026-07-07) | verdict: feral -->
    <g transform="translate(206.959609 21.550547) scale(0.12 -0.12)">
     <defs>
      <path id="DejaVuSans-27" d="M 1259 4147 
L 1259 519 
L 2022 519 
Q 2988 519 3436 956 
Q 3884 1394 3884 2338 
Q 3884 3275 3436 3711 
Q 2988 4147 2022 4147 
L 1259 4147 
z
M 628 4666 
L 1925 4666 
Q 3281 4666 3915 4102 
Q 4550 3538 4550 2338 
Q 4550 1131 3912 565 
Q 3275 0 1925 0 
L 628 0 
L 628 4666 
z
" transform="scale(0.015625)"/>
      <path id="DejaVuSans-4c" d="M 603 3500 
L 1178 3500 
L 1178 0 
L 603 0 
L 603 3500 
z
M 603 4863 
L 1178 4863 
L 1178 4134 
L 603 4134 
L 603 4863 
z
" transform="scale(0.015625)"/>
      <path id="DejaVuSans-4f" d="M 603 4863 
L 1178 4863 
L 1178 0 
L 603 0 
L 603 4863 
z
" transform="scale(0.015625)"/>
      <path id="DejaVuSans-5c" d="M 2059 -325 
Q 1816 -950 1584 -1140 
Q 1353 -1331 966 -1331 
L 506 -1331 
L 506 -850 
L 844 -850 
Q 1081 -850 1212 -737 
Q 1344 -625 1503 -206 
L 1606 56 
L 191 3500 
L 800 3500 
L 1894 763 
L 2988 3500 
L 3597 3500 
L 2059 -325 
z
" transform="scale(0.015625)"/>
      <path id="DejaVuSans-38" d="M 556 4666 
L 1191 4666 
L 1191 1831 
Q 1191 1081 1462 751 
Q 1734 422 2344 422 
Q 2950 422 3222 751 
Q 3494 1081 3494 1831 
L 3494 4666 
L 4128 4666 
L 4128 1753 
Q 4128 841 3676 375 
Q 3225 -91 2344 -91 
Q 1459 -91 1007 375 
Q 556 841 556 1753 
L 556 4666 
z
" transform="scale(0.015625)"/>
      <path id="DejaVuSans-56" d="M 2834 3397 
L 2834 2853 
Q 2591 2978 2328 3040 
Q 2066 3103 1784 3103 
Q 1356 3103 1142 2972 
Q 928 2841 928 2578 
Q 928 2378 1081 2264 
Q 1234 2150 1697 2047 
L 1894 2003 
Q 2506 1872 2764 1633 
Q 3022 1394 3022 966 
Q 3022 478 2636 193 
Q 2250 -91 1575 -91 
Q 1294 -91 989 -36 
Q 684 19 347 128 
L 347 722 
Q 666 556 975 473 
Q 1284 391 1588 391 
Q 1994 391 2212 530 
Q 2431 669 2431 922 
Q 2431 1156 2273 1281 
Q 2116 1406 1581 1522 
L 1381 1569 
Q 847 1681 609 1914 
Q 372 2147 372 2553 
Q 372 3047 722 3315 
Q 1072 3584 1716 3584 
Q 2034 3584 2315 3537 
Q 2597 3491 2834 3397 
z
" transform="scale(0.015625)"/>
      <path id="DejaVuSans-48" d="M 3597 1894 
L 3597 1613 
L 953 1613 
Q 991 1019 1311 708 
Q 1631 397 2203 397 
Q 2534 397 2845 478 
Q 3156 559 3463 722 
L 3463 178 
Q 3153 47 2828 -22 
Q 2503 -91 2169 -91 
Q 1331 -91 842 396 
Q 353 884 353 1716 
Q 353 2575 817 3079 
Q 1281 3584 2069 3584 
Q 2775 3584 3186 3129 
Q 3597 2675 3597 1894 
z
M 3022 2063 
Q 3016 2534 2758 2815 
Q 2500 3097 2075 3097 
Q 1594 3097 1305 2825 
Q 1016 2553 972 2059 
L 3022 2063 
z
" transform="scale(0.015625)"/>
      <path id="DejaVuSans-35" d="M 2841 2188 
Q 3044 2119 3236 1894 
Q 3428 1669 3622 1275 
L 4263 0 
L 3584 0 
L 2988 1197 
Q 2756 1666 2539 1819 
Q 2322 1972 1947 1972 
L 1259 1972 
L 1259 0 
L 628 0 
L 628 4666 
L 2053 4666 
Q 2853 4666 3247 4331 
Q 3641 3997 3641 3322 
Q 3641 2881 3436 2590 
Q 3231 2300 2841 2188 
z
M 1259 4147 
L 1259 2491 
L 2053 2491 
Q 2509 2491 2742 2702 
Q 2975 2913 2975 3322 
Q 2975 3731 2742 3939 
Q 2509 4147 2053 4147 
L 1259 4147 
z
" transform="scale(0.015625)"/>
      <path id="DejaVuSans-26" d="M 4122 4306 
L 4122 3641 
Q 3803 3938 3442 4084 
Q 3081 4231 2675 4231 
Q 1875 4231 1450 3742 
Q 1025 3253 1025 2328 
Q 1025 1406 1450 917 
Q 1875 428 2675 428 
Q 3081 428 3442 575 
Q 3803 722 4122 1019 
L 4122 359 
Q 3791 134 3420 21 
Q 3050 -91 2638 -91 
Q 1578 -91 968 557 
Q 359 1206 359 2328 
Q 359 3453 968 4101 
Q 1578 4750 2638 4750 
Q 3056 4750 3426 4639 
Q 3797 4528 4122 4306 
z
" transform="scale(0.015625)"/>
      <path id="DejaVuSans-b" d="M 1984 4856 
Q 1566 4138 1362 3434 
Q 1159 2731 1159 2009 
Q 1159 1288 1364 580 
Q 1569 -128 1984 -844 
L 1484 -844 
Q 1016 -109 783 600 
Q 550 1309 550 2009 
Q 550 2706 781 3412 
Q 1013 4119 1484 4856 
L 1984 4856 
z
" transform="scale(0.015625)"/>
      <path id="DejaVuSans-10" d="M 313 2009 
L 1997 2009 
L 1997 1497 
L 313 1497 
L 313 2009 
z
" transform="scale(0.015625)"/>
      <path id="DejaVuSans-1a" d="M 525 4666 
L 3525 4666 
L 3525 4397 
L 1831 0 
L 1172 0 
L 2766 4134 
L 525 4134 
L 525 4666 
z
" transform="scale(0.015625)"/>
      <path id="DejaVuSans-c" d="M 513 4856 
L 1013 4856 
Q 1481 4119 1714 3412 
Q 1947 2706 1947 2009 
Q 1947 1309 1714 600 
Q 1481 -109 1013 -844 
L 513 -844 
Q 928 -128 1133 580 
Q 1338 1288 1338 2009 
Q 1338 2731 1133 3434 
Q 928 4138 513 4856 
z
" transform="scale(0.015625)"/>
      <path id="DejaVuSans-5f" d="M 1344 4891 
L 1344 -1509 
L 813 -1509 
L 813 4891 
L 1344 4891 
z
" transform="scale(0.015625)"/>
      <path id="DejaVuSans-59" d="M 191 3500 
L 800 3500 
L 1894 563 
L 2988 3500 
L 3597 3500 
L 2284 0 
L 1503 0 
L 191 3500 
z
" transform="scale(0.015625)"/>
      <path id="DejaVuSans-47" d="M 2906 2969 
L 2906 4863 
L 3481 4863 
L 3481 0 
L 2906 0 
L 2906 525 
Q 2725 213 2448 61 
Q 2172 -91 1784 -91 
Q 1150 -91 751 415 
Q 353 922 353 1747 
Q 353 2572 751 3078 
Q 1150 3584 1784 3584 
Q 2172 3584 2448 3432 
Q 2725 3281 2906 2969 
z
M 947 1747 
Q 947 1113 1208 752 
Q 1469 391 1925 391 
Q 2381 391 2643 752 
Q 2906 1113 2906 1747 
Q 2906 2381 2643 2742 
Q 2381 3103 1925 3103 
Q 1469 3103 1208 2742 
Q 947 2381 947 1747 
z
" transform="scale(0.015625)"/>
      <path id="DejaVuSans-46" d="M 3122 3366 
L 3122 2828 
Q 2878 2963 2633 3030 
Q 2388 3097 2138 3097 
Q 1578 3097 1268 2742 
Q 959 2388 959 1747 
Q 959 1106 1268 751 
Q 1578 397 2138 397 
Q 2388 397 2633 464 
Q 2878 531 3122 666 
L 3122 134 
Q 2881 22 2623 -34 
Q 2366 -91 2075 -91 
Q 1284 -91 818 406 
Q 353 903 353 1747 
Q 353 2603 823 3093 
Q 1294 3584 2113 3584 
Q 2378 3584 2631 3529 
Q 2884 3475 3122 3366 
z
" transform="scale(0.015625)"/>
      <path id="DejaVuSans-1d" d="M 750 794 
L 1409 794 
L 1409 0 
L 750 0 
L 750 794 
z
M 750 3309 
L 1409 3309 
L 1409 2516 
L 750 2516 
L 750 3309 
z
" transform="scale(0.015625)"/>
      <path id="DejaVuSans-49" d="M 2375 4863 
L 2375 4384 
L 1825 4384 
Q 1516 4384 1395 4259 
Q 1275 4134 1275 3809 
L 1275 3500 
L 2222 3500 
L 2222 3053 
L 1275 3053 
L 1275 0 
L 697 0 
L 697 3053 
L 147 3053 
L 147 3500 
L 697 3500 
L 697 3744 
Q 697 4328 969 4595 
Q 1241 4863 1831 4863 
L 2375 4863 
z
" transform="scale(0.015625)"/>
     </defs>
     <use xlink:href="#DejaVuSans-27"/>
     <use xlink:href="#DejaVuSans-44" transform="translate(77 0)"/>
     <use xlink:href="#DejaVuSans-4c" transform="translate(138.28125 0)"/>
     <use xlink:href="#DejaVuSans-4f" transform="translate(166.0625 0)"/>
     <use xlink:href="#DejaVuSans-5c" transform="translate(193.84375 0)"/>
     <use xlink:href="#DejaVuSans-3" transform="translate(253.03125 0)"/>
     <use xlink:href="#DejaVuSans-38" transform="translate(284.8125 0)"/>
     <use xlink:href="#DejaVuSans-56" transform="translate(358 0)"/>
     <use xlink:href="#DejaVuSans-48" transform="translate(410.09375 0)"/>
     <use xlink:href="#DejaVuSans-4f" transform="translate(471.625 0)"/>
     <use xlink:href="#DejaVuSans-48" transform="translate(499.40625 0)"/>
     <use xlink:href="#DejaVuSans-56" transform="translate(560.9375 0)"/>
     <use xlink:href="#DejaVuSans-56" transform="translate(613.03125 0)"/>
     <use xlink:href="#DejaVuSans-3" transform="translate(665.125 0)"/>
     <use xlink:href="#DejaVuSans-35" transform="translate(696.90625 0)"/>
     <use xlink:href="#DejaVuSans-26" transform="translate(761.40625 0)"/>
     <use xlink:href="#DejaVuSans-3" transform="translate(831.234375 0)"/>
     <use xlink:href="#DejaVuSans-b" transform="translate(863.015625 0)"/>
     <use xlink:href="#DejaVuSans-15" transform="translate(902.03125 0)"/>
     <use xlink:href="#DejaVuSans-13" transform="translate(965.65625 0)"/>
     <use xlink:href="#DejaVuSans-15" transform="translate(1029.28125 0)"/>
     <use xlink:href="#DejaVuSans-19" transform="translate(1092.90625 0)"/>
     <use xlink:href="#DejaVuSans-10" transform="translate(1156.53125 0)"/>
     <use xlink:href="#DejaVuSans-13" transform="translate(1192.609375 0)"/>
     <use xlink:href="#DejaVuSans-1a" transform="translate(1256.234375 0)"/>
     <use xlink:href="#DejaVuSans-10" transform="translate(1319.859375 0)"/>
     <use xlink:href="#DejaVuSans-13" transform="translate(1355.9375 0)"/>
     <use xlink:href="#DejaVuSans-1a" transform="translate(1419.5625 0)"/>
     <use xlink:href="#DejaVuSans-c" transform="translate(1483.1875 0)"/>
     <use xlink:href="#DejaVuSans-3" transform="translate(1522.203125 0)"/>
     <use xlink:href="#DejaVuSans-5f" transform="translate(1553.984375 0)"/>
     <use xlink:href="#DejaVuSans-3" transform="translate(1587.671875 0)"/>
     <use xlink:href="#DejaVuSans-59" transform="translate(1619.453125 0)"/>
     <use xlink:href="#DejaVuSans-48" transform="translate(1678.640625 0)"/>
     <use xlink:href="#DejaVuSans-55" transform="translate(1740.171875 0)"/>
     <use xlink:href="#DejaVuSans-47" transform="translate(1779.53125 0)"/>
     <use xlink:href="#DejaVuSans-4c" transform="translate(1843.015625 0)"/>
     <use xlink:href="#DejaVuSans-46" transform="translate(1870.796875 0)"/>
     <use xlink:href="#DejaVuSans-57" transform="translate(1925.78125 0)"/>
     <use xlink:href="#DejaVuSans-1d" transform="translate(1964.984375 0)"/>
     <use xlink:href="#DejaVuSans-3" transform="translate(1998.671875 0)"/>
     <use xlink:href="#DejaVuSans-49" transform="translate(2030.453125 0)"/>
     <use xlink:href="#DejaVuSans-48" transform="translate(2065.65625 0)"/>
     <use xlink:href="#DejaVuSans-55" transform="translate(2127.1875 0)"/>
     <use xlink:href="#DejaVuSans-44" transform="translate(2168.296875 0)"/>
     <use xlink:href="#DejaVuSans-4f" transform="translate(2229.578125 0)"/>
    </g>
    <!-- Filter: high | Input: sine, sine (A=1.03, f=0.98 Hz) | R=1.00, C=0.20, τ=0.20 -->
    <g transform="translate(113.395234 36.006328) scale(0.12 -0.12)">
     <defs>
      <path id="DejaVuSans-29" d="M 628 4666 
L 3309 4666 
L 3309 4134 
L 1259 4134 
L 1259 2759 
L 3109 2759 
L 3109 2228 
L 1259 2228 
L 1259 0 
L 628 0 
L 628 4666 
z
" transform="scale(0.015625)"/>
      <path id="DejaVuSans-4b" d="M 3513 2113 
L 3513 0 
L 2938 0 
L 2938 2094 
Q 2938 2591 2744 2837 
Q 2550 3084 2163 3084 
Q 1697 3084 1428 2787 
Q 1159 2491 1159 1978 
L 1159 0 
L 581 0 
L 581 4863 
L 1159 4863 
L 1159 2956 
Q 1366 3272 1645 3428 
Q 1925 3584 2291 3584 
Q 2894 3584 3203 3211 
Q 3513 2838 3513 2113 
z
" transform="scale(0.015625)"/>
      <path id="DejaVuSans-4a" d="M 2906 1791 
Q 2906 2416 2648 2759 
Q 2391 3103 1925 3103 
Q 1463 3103 1205 2759 
Q 947 2416 947 1791 
Q 947 1169 1205 825 
Q 1463 481 1925 481 
Q 2391 481 2648 825 
Q 2906 1169 2906 1791 
z
M 3481 434 
Q 3481 -459 3084 -895 
Q 2688 -1331 1869 -1331 
Q 1566 -1331 1297 -1286 
Q 1028 -1241 775 -1147 
L 775 -588 
Q 1028 -725 1275 -790 
Q 1522 -856 1778 -856 
Q 2344 -856 2625 -561 
Q 2906 -266 2906 331 
L 2906 616 
Q 2728 306 2450 153 
Q 2172 0 1784 0 
Q 1141 0 747 490 
Q 353 981 353 1791 
Q 353 2603 747 3093 
Q 1141 3584 1784 3584 
Q 2172 3584 2450 3431 
Q 2728 3278 2906 2969 
L 2906 3500 
L 3481 3500 
L 3481 434 
z
" transform="scale(0.015625)"/>
      <path id="DejaVuSans-2c" d="M 628 4666 
L 1259 4666 
L 1259 0 
L 628 0 
L 628 4666 
z
" transform="scale(0.015625)"/>
      <path id="DejaVuSans-51" d="M 3513 2113 
L 3513 0 
L 2938 0 
L 2938 2094 
Q 2938 2591 2744 2837 
Q 2550 3084 2163 3084 
Q 1697 3084 1428 2787 
Q 1159 2491 1159 1978 
L 1159 0 
L 581 0 
L 581 3500 
L 1159 3500 
L 1159 2956 
Q 1366 3272 1645 3428 
Q 1925 3584 2291 3584 
Q 2894 3584 3203 3211 
Q 3513 2838 3513 2113 
z
" transform="scale(0.015625)"/>
      <path id="DejaVuSans-53" d="M 1159 525 
L 1159 -1331 
L 581 -1331 
L 581 3500 
L 1159 3500 
L 1159 2969 
Q 1341 3281 1617 3432 
Q 1894 3584 2278 3584 
Q 2916 3584 3314 3078 
Q 3713 2572 3713 1747 
Q 3713 922 3314 415 
Q 2916 -91 2278 -91 
Q 1894 -91 1617 61 
Q 1341 213 1159 525 
z
M 3116 1747 
Q 3116 2381 2855 2742 
Q 2594 3103 2138 3103 
Q 1681 3103 1420 2742 
Q 1159 2381 1159 1747 
Q 1159 1113 1420 752 
Q 1681 391 2138 391 
Q 2594 391 2855 752 
Q 3116 1113 3116 1747 
z
" transform="scale(0.015625)"/>
      <path id="DejaVuSans-58" d="M 544 1381 
L 544 3500 
L 1119 3500 
L 1119 1403 
Q 1119 906 1312 657 
Q 1506 409 1894 409 
Q 2359 409 2629 706 
Q 2900 1003 2900 1516 
L 2900 3500 
L 3475 3500 
L 3475 0 
L 2900 0 
L 2900 538 
Q 2691 219 2414 64 
Q 2138 -91 1772 -91 
Q 1169 -91 856 284 
Q 544 659 544 1381 
z
M 1991 3584 
L 1991 3584 
z
" transform="scale(0.015625)"/>
      <path id="DejaVuSans-f" d="M 750 794 
L 1409 794 
L 1409 256 
L 897 -744 
L 494 -744 
L 750 256 
L 750 794 
z
" transform="scale(0.015625)"/>
      <path id="DejaVuSans-24" d="M 2188 4044 
L 1331 1722 
L 3047 1722 
L 2188 4044 
z
M 1831 4666 
L 2547 4666 
L 4325 0 
L 3669 0 
L 3244 1197 
L 1141 1197 
L 716 0 
L 50 0 
L 1831 4666 
z
" transform="scale(0.015625)"/>
      <path id="DejaVuSans-20" d="M 678 2906 
L 4684 2906 
L 4684 2381 
L 678 2381 
L 678 2906 
z
M 678 1631 
L 4684 1631 
L 4684 1100 
L 678 1100 
L 678 1631 
z
" transform="scale(0.015625)"/>
      <path id="DejaVuSans-16" d="M 2597 2516 
Q 3050 2419 3304 2112 
Q 3559 1806 3559 1356 
Q 3559 666 3084 287 
Q 2609 -91 1734 -91 
Q 1441 -91 1130 -33 
Q 819 25 488 141 
L 488 750 
Q 750 597 1062 519 
Q 1375 441 1716 441 
Q 2309 441 2620 675 
Q 2931 909 2931 1356 
Q 2931 1769 2642 2001 
Q 2353 2234 1838 2234 
L 1294 2234 
L 1294 2753 
L 1863 2753 
Q 2328 2753 2575 2939 
Q 2822 3125 2822 3475 
Q 2822 3834 2567 4026 
Q 2313 4219 1838 4219 
Q 1578 4219 1281 4162 
Q 984 4106 628 3988 
L 628 4550 
Q 988 4650 1302 4700 
Q 1616 4750 1894 4750 
Q 2613 4750 3031 4423 
Q 3450 4097 3450 3541 
Q 3450 3153 3228 2886 
Q 3006 2619 2597 2516 
z
" transform="scale(0.015625)"/>
      <path id="DejaVuSans-1c" d="M 703 97 
L 703 672 
Q 941 559 1184 500 
Q 1428 441 1663 441 
Q 2288 441 2617 861 
Q 2947 1281 2994 2138 
Q 2813 1869 2534 1725 
Q 2256 1581 1919 1581 
Q 1219 1581 811 2004 
Q 403 2428 403 3163 
Q 403 3881 828 4315 
Q 1253 4750 1959 4750 
Q 2769 4750 3195 4129 
Q 3622 3509 3622 2328 
Q 3622 1225 3098 567 
Q 2575 -91 1691 -91 
Q 1453 -91 1209 -44 
Q 966 3 703 97 
z
M 1959 2075 
Q 2384 2075 2632 2365 
Q 2881 2656 2881 3163 
Q 2881 3666 2632 3958 
Q 2384 4250 1959 4250 
Q 1534 4250 1286 3958 
Q 1038 3666 1038 3163 
Q 1038 2656 1286 2365 
Q 1534 2075 1959 2075 
z
" transform="scale(0.015625)"/>
      <path id="DejaVuSans-2b" d="M 628 4666 
L 1259 4666 
L 1259 2753 
L 3553 2753 
L 3553 4666 
L 4184 4666 
L 4184 0 
L 3553 0 
L 3553 2222 
L 1259 2222 
L 1259 0 
L 628 0 
L 628 4666 
z
" transform="scale(0.015625)"/>
      <path id="DejaVuSans-5d" d="M 353 3500 
L 3084 3500 
L 3084 2975 
L 922 459 
L 3084 459 
L 3084 0 
L 275 0 
L 275 525 
L 2438 3041 
L 353 3041 
L 353 3500 
z
" transform="scale(0.015625)"/>
      <path id="DejaVuSans-358" d="M 2319 638 
Q 2431 488 2769 488 
L 3047 488 
L 3047 0 
L 2700 0 
Q 2138 0 1881 300 
Q 1625 606 1625 1269 
L 1625 2925 
L 313 2925 
L 313 3500 
L 3541 3500 
L 3541 2925 
L 2213 2925 
L 2213 1234 
Q 2213 781 2319 638 
z
" transform="scale(0.015625)"/>
     </defs>
     <use xlink:href="#DejaVuSans-29"/>
     <use xlink:href="#DejaVuSans-4c" transform="translate(50.234375 0)"/>
     <use xlink:href="#DejaVuSans-4f" transform="translate(78.015625 0)"/>
     <use xlink:href="#DejaVuSans-57" transform="translate(105.796875 0)"/>
     <use xlink:href="#DejaVuSans-48" transform="translate(145 0)"/>
     <use xlink:href="#DejaVuSans-55" transform="translate(206.53125 0)"/>
     <use xlink:href="#DejaVuSans-1d" transform="translate(245.890625 0)"/>
     <use xlink:href="#DejaVuSans-3" transform="translate(279.578125 0)"/>
     <use xlink:href="#DejaVuSans-4b" transform="translate(311.359375 0)"/>
     <use xlink:href="#DejaVuSans-4c" transform="translate(374.734375 0)"/>
     <use xlink:href="#DejaVuSans-4a" transform="translate(402.515625 0)"/>
     <use xlink:href="#DejaVuSans-4b" transform="translate(466 0)"/>
     <use xlink:href="#DejaVuSans-3" transform="translate(529.375 0)"/>
     <use xlink:href="#DejaVuSans-5f" transform="translate(561.15625 0)"/>
     <use xlink:href="#DejaVuSans-3" transform="translate(594.84375 0)"/>
     <use xlink:href="#DejaVuSans-2c" transform="translate(626.625 0)"/>
     <use xlink:href="#DejaVuSans-51" transform="translate(656.125 0)"/>
     <use xlink:href="#DejaVuSans-53" transform="translate(719.5 0)"/>
     <use xlink:href="#DejaVuSans-58" transform="translate(782.984375 0)"/>
     <use xlink:href="#DejaVuSans-57" transform="translate(846.359375 0)"/>
     <use xlink:href="#DejaVuSans-1d" transform="translate(885.5625 0)"/>
     <use xlink:href="#DejaVuSans-3" transform="translate(919.25 0)"/>
     <use xlink:href="#DejaVuSans-56" transform="translate(951.03125 0)"/>
     <use xlink:href="#DejaVuSans-4c" transform="translate(1003.125 0)"/>
     <use xlink:href="#DejaVuSans-51" transform="translate(1030.90625 0)"/>
     <use xlink:href="#DejaVuSans-48" transform="translate(1094.28125 0)"/>
     <use xlink:href="#DejaVuSans-f" transform="translate(1155.8125 0)"/>
     <use xlink:href="#DejaVuSans-3" transform="translate(1187.59375 0)"/>
     <use xlink:href="#DejaVuSans-56" transform="translate(1219.375 0)"/>
     <use xlink:href="#DejaVuSans-4c" transform="translate(1271.46875 0)"/>
     <use xlink:href="#DejaVuSans-51" transform="translate(1299.25 0)"/>
     <use xlink:href="#DejaVuSans-48" transform="translate(1362.625 0)"/>
     <use xlink:href="#DejaVuSans-3" transform="translate(1424.15625 0)"/>
     <use xlink:href="#DejaVuSans-b" transform="translate(1455.9375 0)"/>
     <use xlink:href="#DejaVuSans-24" transform="translate(1494.953125 0)"/>
     <use xlink:href="#DejaVuSans-20" transform="translate(1563.359375 0)"/>
     <use xlink:href="#DejaVuSans-14" transform="translate(1647.15625 0)"/>
     <use xlink:href="#DejaVuSans-11" transform="translate(1710.78125 0)"/>
     <use xlink:href="#DejaVuSans-13" transform="translate(1742.5625 0)"/>
     <use xlink:href="#DejaVuSans-16" transform="translate(1806.1875 0)"/>
     <use xlink:href="#DejaVuSans-f" transform="translate(1869.8125 0)"/>
     <use xlink:href="#DejaVuSans-3" transform="translate(1901.59375 0)"/>
     <use xlink:href="#DejaVuSans-49" transform="translate(1933.375 0)"/>
     <use xlink:href="#DejaVuSans-20" transform="translate(1968.578125 0)"/>
     <use xlink:href="#DejaVuSans-13" transform="translate(2052.375 0)"/>
     <use xlink:href="#DejaVuSans-11" transform="translate(2116 0)"/>
     <use xlink:href="#DejaVuSans-1c" transform="translate(2147.78125 0)"/>
     <use xlink:href="#DejaVuSans-1b" transform="translate(2211.40625 0)"/>
     <use xlink:href="#DejaVuSans-3" transform="translate(2275.03125 0)"/>
     <use xlink:href="#DejaVuSans-2b" transform="translate(2306.8125 0)"/>
     <use xlink:href="#DejaVuSans-5d" transform="translate(2382.015625 0)"/>
     <use xlink:href="#DejaVuSans-c" transform="translate(2434.5 0)"/>
     <use xlink:href="#DejaVuSans-3" transform="translate(2473.515625 0)"/>
     <use xlink:href="#DejaVuSans-5f" transform="translate(2505.296875 0)"/>
     <use xlink:href="#DejaVuSans-3" transform="translate(2538.984375 0)"/>
     <use xlink:href="#DejaVuSans-35" transform="translate(2570.765625 0)"/>
     <use xlink:href="#DejaVuSans-20" transform="translate(2640.25 0)"/>
     <use xlink:href="#DejaVuSans-14" transform="translate(2724.046875 0)"/>
     <use xlink:href="#DejaVuSans-11" transform="translate(2787.671875 0)"/>
     <use xlink:href="#DejaVuSans-13" transform="translate(2819.453125 0)"/>
     <use xlink:href="#DejaVuSans-13" transform="translate(2883.078125 0)"/>
     <use xlink:href="#DejaVuSans-f" transform="translate(2946.703125 0)"/>
     <use xlink:href="#DejaVuSans-3" transform="translate(2978.484375 0)"/>
     <use xlink:href="#DejaVuSans-26" transform="translate(3010.265625 0)"/>
     <use xlink:href="#DejaVuSans-20" transform="translate(3080.09375 0)"/>
     <use xlink:href="#DejaVuSans-13" transform="translate(3163.890625 0)"/>
     <use xlink:href="#DejaVuSans-11" transform="translate(3227.515625 0)"/>
     <use xlink:href="#DejaVuSans-15" transform="translate(3259.296875 0)"/>
     <use xlink:href="#DejaVuSans-13" transform="translate(3322.921875 0)"/>
     <use xlink:href="#DejaVuSans-f" transform="translate(3386.546875 0)"/>
     <use xlink:href="#DejaVuSans-3" transform="translate(3418.328125 0)"/>
     <use xlink:href="#DejaVuSans-358" transform="translate(3450.109375 0)"/>
     <use xlink:href="#DejaVuSans-20" transform="translate(3510.3125 0)"/>
     <use xlink:href="#DejaVuSans-13" transform="translate(3594.109375 0)"/>
     <use xlink:href="#DejaVuSans-11" transform="translate(3657.734375 0)"/>
     <use xlink:href="#DejaVuSans-15" transform="translate(3689.515625 0)"/>
     <use xlink:href="#DejaVuSans-13" transform="translate(3753.140625 0)"/>
    </g>
   </g>
   <g id="legend_1">
    <g id="patch_7">
     <path d="M 556.217187 148.66377 
L 621.2 148.66377 
Q 623.2 148.66377 623.2 146.66377 
L 623.2 117.662207 
Q 623.2 115.662207 621.2 115.662207 
L 556.217187 115.662207 
Q 554.217187 115.662207 554.217187 117.662207 
L 554.217187 146.66377 
Q 554.217187 148.66377 556.217187 148.66377 
z
" style="fill: #ffffff; opacity: 0.8; stroke: #cccccc; stroke-linejoin: miter"/>
    </g>
    <g id="line2d_25">
     <path d="M 558.217187 123.760645 
L 568.217187 123.760645 
L 578.217187 123.760645 
" style="fill: none; stroke: #1f77b4; stroke-width: 1.5; stroke-linecap: square"/>
    </g>
    <g id="text_15">
     <!-- input -->
     <g transform="translate(586.217187 127.260645) scale(0.1 -0.1)">
      <use xlink:href="#DejaVuSans-4c"/>
      <use xlink:href="#DejaVuSans-51" transform="translate(27.78125 0)"/>
      <use xlink:href="#DejaVuSans-53" transform="translate(91.15625 0)"/>
      <use xlink:href="#DejaVuSans-58" transform="translate(154.640625 0)"/>
      <use xlink:href="#DejaVuSans-57" transform="translate(218.015625 0)"/>
     </g>
    </g>
    <g id="line2d_26">
     <path d="M 558.217187 138.761426 
L 568.217187 138.761426 
L 578.217187 138.761426 
" style="fill: none; stroke: #ff7f0e; stroke-width: 1.5; stroke-linecap: square"/>
    </g>
    <g id="text_16">
     <!-- output -->
     <g transform="translate(586.217187 142.261426) scale(0.1 -0.1)">
      <defs>
       <path id="DejaVuSans-52" d="M 1959 3097 
Q 1497 3097 1228 2736 
Q 959 2375 959 1747 
Q 959 1119 1226 758 
Q 1494 397 1959 397 
Q 2419 397 2687 759 
Q 2956 1122 2956 1747 
Q 2956 2369 2687 2733 
Q 2419 3097 1959 3097 
z
M 1959 3584 
Q 2709 3584 3137 3096 
Q 3566 2609 3566 1747 
Q 3566 888 3137 398 
Q 2709 -91 1959 -91 
Q 1206 -91 779 398 
Q 353 888 353 1747 
Q 353 2609 779 3096 
Q 1206 3584 1959 3584 
z
" transform="scale(0.015625)"/>
      </defs>
      <use xlink:href="#DejaVuSans-52"/>
      <use xlink:href="#DejaVuSans-58" transform="translate(61.1875 0)"/>
      <use xlink:href="#DejaVuSans-57" transform="translate(124.5625 0)"/>
      <use xlink:href="#DejaVuSans-53" transform="translate(163.765625 0)"/>
      <use xlink:href="#DejaVuSans-58" transform="translate(227.25 0)"/>
      <use xlink:href="#DejaVuSans-57" transform="translate(290.625 0)"/>
     </g>
    </g>
   </g>
  </g>
  <g id="axes_2">
   <g id="patch_8">
    <path d="M 56.602344 460.115313 
L 628.2 460.115313 
L 628.2 279.801992 
L 56.602344 279.801992 
z
" style="fill: #ffffff"/>
   </g>
   <g id="matplotlib.axis_3">
    <g id="xtick_7">
     <g id="line2d_27">
      <path d="M 56.602344 460.115313 
L 56.602344 279.801992 
" clip-path="url(#p9dcf0ae8a0)" style="fill: none; stroke: #b0b0b0; stroke-opacity: 0.25; stroke-width: 0.8; stroke-linecap: square"/>
     </g>
     <g id="line2d_28">
      <g>
       <use xlink:href="#mb6fe12b4fe" x="56.602344" y="460.115313" style="stroke: #000000; stroke-width: 0.8"/>
      </g>
     </g>
     <g id="text_17">
      <!-- $\mathdefault{10^{-1}}$ -->
      <g transform="translate(44.852344 476.415313) scale(0.1 -0.1)">
       <use xlink:href="#DejaVuSans-14" transform="translate(0 0.665625)"/>
       <use xlink:href="#DejaVuSans-13" transform="translate(63.623047 0.665625)"/>
       <use xlink:href="#DejaVuSans-c9c" transform="translate(128.203125 41.965625) scale(0.7)"/>
       <use xlink:href="#DejaVuSans-14" transform="translate(186.855469 41.965625) scale(0.7)"/>
      </g>
     </g>
    </g>
    <g id="xtick_8">
     <g id="line2d_29">
      <path d="M 342.401172 460.115313 
L 342.401172 279.801992 
" clip-path="url(#p9dcf0ae8a0)" style="fill: none; stroke: #b0b0b0; stroke-opacity: 0.25; stroke-width: 0.8; stroke-linecap: square"/>
     </g>
     <g id="line2d_30">
      <g>
       <use xlink:href="#mb6fe12b4fe" x="342.401172" y="460.115313" style="stroke: #000000; stroke-width: 0.8"/>
      </g>
     </g>
     <g id="text_18">
      <!-- $\mathdefault{10^{0}}$ -->
      <g transform="translate(333.601172 476.515313) scale(0.1 -0.1)">
       <use xlink:href="#DejaVuSans-14" transform="translate(0 0.746875)"/>
       <use xlink:href="#DejaVuSans-13" transform="translate(63.623047 0.746875)"/>
       <use xlink:href="#DejaVuSans-13" transform="translate(128.203125 42.046875) scale(0.7)"/>
      </g>
     </g>
    </g>
    <g id="xtick_9">
     <g id="line2d_31">
      <path d="M 628.2 460.115313 
L 628.2 279.801992 
" clip-path="url(#p9dcf0ae8a0)" style="fill: none; stroke: #b0b0b0; stroke-opacity: 0.25; stroke-width: 0.8; stroke-linecap: square"/>
     </g>
     <g id="line2d_32">
      <g>
       <use xlink:href="#mb6fe12b4fe" x="628.2" y="460.115313" style="stroke: #000000; stroke-width: 0.8"/>
      </g>
     </g>
     <g id="text_19">
      <!-- $\mathdefault{10^{1}}$ -->
      <g transform="translate(619.4 476.415313) scale(0.1 -0.1)">
       <use xlink:href="#DejaVuSans-14" transform="translate(0 0.665625)"/>
       <use xlink:href="#DejaVuSans-13" transform="translate(63.623047 0.665625)"/>
       <use xlink:href="#DejaVuSans-14" transform="translate(128.203125 41.965625) scale(0.7)"/>
      </g>
     </g>
    </g>
    <g id="xtick_10">
     <g id="line2d_33">
      <defs>
       <path id="mcb73894824" d="M 0 0 
L 0 2 
" style="stroke: #000000; stroke-width: 0.6"/>
      </defs>
      <g>
       <use xlink:href="#mcb73894824" x="142.636364" y="460.115313" style="stroke: #000000; stroke-width: 0.6"/>
      </g>
     </g>
    </g>
    <g id="xtick_11">
     <g id="line2d_34">
      <g>
       <use xlink:href="#mcb73894824" x="192.963039" y="460.115313" style="stroke: #000000; stroke-width: 0.6"/>
      </g>
     </g>
    </g>
    <g id="xtick_12">
     <g id="line2d_35">
      <g>
       <use xlink:href="#mcb73894824" x="228.670384" y="460.115313" style="stroke: #000000; stroke-width: 0.6"/>
      </g>
     </g>
    </g>
    <g id="xtick_13">
     <g id="line2d_36">
      <g>
       <use xlink:href="#mcb73894824" x="256.367152" y="460.115313" style="stroke: #000000; stroke-width: 0.6"/>
      </g>
     </g>
    </g>
    <g id="xtick_14">
     <g id="line2d_37">
      <g>
       <use xlink:href="#mcb73894824" x="278.997059" y="460.115313" style="stroke: #000000; stroke-width: 0.6"/>
      </g>
     </g>
    </g>
    <g id="xtick_15">
     <g id="line2d_38">
      <g>
       <use xlink:href="#mcb73894824" x="298.130373" y="460.115313" style="stroke: #000000; stroke-width: 0.6"/>
      </g>
     </g>
    </g>
    <g id="xtick_16">
     <g id="line2d_39">
      <g>
       <use xlink:href="#mcb73894824" x="314.704404" y="460.115313" style="stroke: #000000; stroke-width: 0.6"/>
      </g>
     </g>
    </g>
    <g id="xtick_17">
     <g id="line2d_40">
      <g>
       <use xlink:href="#mcb73894824" x="329.323735" y="460.115313" style="stroke: #000000; stroke-width: 0.6"/>
      </g>
     </g>
    </g>
    <g id="xtick_18">
     <g id="line2d_41">
      <g>
       <use xlink:href="#mcb73894824" x="428.435192" y="460.115313" style="stroke: #000000; stroke-width: 0.6"/>
      </g>
     </g>
    </g>
    <g id="xtick_19">
     <g id="line2d_42">
      <g>
       <use xlink:href="#mcb73894824" x="478.761867" y="460.115313" style="stroke: #000000; stroke-width: 0.6"/>
      </g>
     </g>
    </g>
    <g id="xtick_20">
     <g id="line2d_43">
      <g>
       <use xlink:href="#mcb73894824" x="514.469212" y="460.115313" style="stroke: #000000; stroke-width: 0.6"/>
      </g>
     </g>
    </g>
    <g id="xtick_21">
     <g id="line2d_44">
      <g>
       <use xlink:href="#mcb73894824" x="542.16598" y="460.115313" style="stroke: #000000; stroke-width: 0.6"/>
      </g>
     </g>
    </g>
    <g id="xtick_22">
     <g id="line2d_45">
      <g>
       <use xlink:href="#mcb73894824" x="564.795887" y="460.115313" style="stroke: #000000; stroke-width: 0.6"/>
      </g>
     </g>
    </g>
    <g id="xtick_23">
     <g id="line2d_46">
      <g>
       <use xlink:href="#mcb73894824" x="583.929201" y="460.115313" style="stroke: #000000; stroke-width: 0.6"/>
      </g>
     </g>
    </g>
    <g id="xtick_24">
     <g id="line2d_47">
      <g>
       <use xlink:href="#mcb73894824" x="600.503232" y="460.115313" style="stroke: #000000; stroke-width: 0.6"/>
      </g>
     </g>
    </g>
    <g id="xtick_25">
     <g id="line2d_48">
      <g>
       <use xlink:href="#mcb73894824" x="615.122563" y="460.115313" style="stroke: #000000; stroke-width: 0.6"/>
      </g>
     </g>
    </g>
    <g id="text_20">
     <!-- frequency [arb.] -->
     <g transform="translate(301.948828 490.516094) scale(0.1 -0.1)">
      <defs>
       <path id="DejaVuSans-54" d="M 947 1747 
Q 947 1113 1208 752 
Q 1469 391 1925 391 
Q 2381 391 2643 752 
Q 2906 1113 2906 1747 
Q 2906 2381 2643 2742 
Q 2381 3103 1925 3103 
Q 1469 3103 1208 2742 
Q 947 2381 947 1747 
z
M 2906 525 
Q 2725 213 2448 61 
Q 2172 -91 1784 -91 
Q 1150 -91 751 415 
Q 353 922 353 1747 
Q 353 2572 751 3078 
Q 1150 3584 1784 3584 
Q 2172 3584 2448 3432 
Q 2725 3281 2906 2969 
L 2906 3500 
L 3481 3500 
L 3481 -1331 
L 2906 -1331 
L 2906 525 
z
" transform="scale(0.015625)"/>
      </defs>
      <use xlink:href="#DejaVuSans-49"/>
      <use xlink:href="#DejaVuSans-55" transform="translate(35.203125 0)"/>
      <use xlink:href="#DejaVuSans-48" transform="translate(74.109375 0)"/>
      <use xlink:href="#DejaVuSans-54" transform="translate(135.640625 0)"/>
      <use xlink:href="#DejaVuSans-58" transform="translate(199.125 0)"/>
      <use xlink:href="#DejaVuSans-48" transform="translate(262.5 0)"/>
      <use xlink:href="#DejaVuSans-51" transform="translate(324.03125 0)"/>
      <use xlink:href="#DejaVuSans-46" transform="translate(387.40625 0)"/>
      <use xlink:href="#DejaVuSans-5c" transform="translate(442.390625 0)"/>
      <use xlink:href="#DejaVuSans-3" transform="translate(501.578125 0)"/>
      <use xlink:href="#DejaVuSans-3e" transform="translate(533.359375 0)"/>
      <use xlink:href="#DejaVuSans-44" transform="translate(572.375 0)"/>
      <use xlink:href="#DejaVuSans-55" transform="translate(633.65625 0)"/>
      <use xlink:href="#DejaVuSans-45" transform="translate(674.765625 0)"/>
      <use xlink:href="#DejaVuSans-11" transform="translate(738.25 0)"/>
      <use xlink:href="#DejaVuSans-40" transform="translate(770.03125 0)"/>
     </g>
    </g>
   </g>
   <g id="matplotlib.axis_4">
    <g id="ytick_6">
     <g id="line2d_49">
      <path d="M 56.602344 454.782492 
L 628.2 454.782492 
" clip-path="url(#p9dcf0ae8a0)" style="fill: none; stroke: #b0b0b0; stroke-opacity: 0.25; stroke-width: 0.8; stroke-linecap: square"/>
     </g>
     <g id="line2d_50">
      <g>
       <use xlink:href="#mb210699116" x="56.602344" y="454.782492" style="stroke: #000000; stroke-width: 0.8"/>
      </g>
     </g>
     <g id="text_21">
      <!-- $\mathdefault{10^{-9}}$ -->
      <g transform="translate(26.102344 459.482492) scale(0.1 -0.1)">
       <use xlink:href="#DejaVuSans-14" transform="translate(0 0.746875)"/>
       <use xlink:href="#DejaVuSans-13" transform="translate(63.623047 0.746875)"/>
       <use xlink:href="#DejaVuSans-c9c" transform="translate(128.203125 42.046875) scale(0.7)"/>
       <use xlink:href="#DejaVuSans-1c" transform="translate(186.855469 42.046875) scale(0.7)"/>
      </g>
     </g>
    </g>
    <g id="ytick_7">
     <g id="line2d_51">
      <path d="M 56.602344 427.015456 
L 628.2 427.015456 
" clip-path="url(#p9dcf0ae8a0)" style="fill: none; stroke: #b0b0b0; stroke-opacity: 0.25; stroke-width: 0.8; stroke-linecap: square"/>
     </g>
     <g id="line2d_52">
      <g>
       <use xlink:href="#mb210699116" x="56.602344" y="427.015456" style="stroke: #000000; stroke-width: 0.8"/>
      </g>
     </g>
     <g id="text_22">
      <!-- $\mathdefault{10^{-7}}$ -->
      <g transform="translate(26.102344 431.665456) scale(0.1 -0.1)">
       <use xlink:href="#DejaVuSans-14" transform="translate(0 0.665625)"/>
       <use xlink:href="#DejaVuSans-13" transform="translate(63.623047 0.665625)"/>
       <use xlink:href="#DejaVuSans-c9c" transform="translate(128.203125 41.965625) scale(0.7)"/>
       <use xlink:href="#DejaVuSans-1a" transform="translate(186.855469 41.965625) scale(0.7)"/>
      </g>
     </g>
    </g>
    <g id="ytick_8">
     <g id="line2d_53">
      <path d="M 56.602344 399.24842 
L 628.2 399.24842 
" clip-path="url(#p9dcf0ae8a0)" style="fill: none; stroke: #b0b0b0; stroke-opacity: 0.25; stroke-width: 0.8; stroke-linecap: square"/>
     </g>
     <g id="line2d_54">
      <g>
       <use xlink:href="#mb210699116" x="56.602344" y="399.24842" style="stroke: #000000; stroke-width: 0.8"/>
      </g>
     </g>
     <g id="text_23">
      <!-- $\mathdefault{10^{-5}}$ -->
      <g transform="translate(26.102344 403.89842) scale(0.1 -0.1)">
       <use xlink:href="#DejaVuSans-14" transform="translate(0 0.665625)"/>
       <use xlink:href="#DejaVuSans-13" transform="translate(63.623047 0.665625)"/>
       <use xlink:href="#DejaVuSans-c9c" transform="translate(128.203125 41.965625) scale(0.7)"/>
       <use xlink:href="#DejaVuSans-18" transform="translate(186.855469 41.965625) scale(0.7)"/>
      </g>
     </g>
    </g>
    <g id="ytick_9">
     <g id="line2d_55">
      <path d="M 56.602344 371.481384 
L 628.2 371.481384 
" clip-path="url(#p9dcf0ae8a0)" style="fill: none; stroke: #b0b0b0; stroke-opacity: 0.25; stroke-width: 0.8; stroke-linecap: square"/>
     </g>
     <g id="line2d_56">
      <g>
       <use xlink:href="#mb210699116" x="56.602344" y="371.481384" style="stroke: #000000; stroke-width: 0.8"/>
      </g>
     </g>
     <g id="text_24">
      <!-- $\mathdefault{10^{-3}}$ -->
      <g transform="translate(26.102344 376.181384) scale(0.1 -0.1)">
       <use xlink:href="#DejaVuSans-14" transform="translate(0 0.746875)"/>
       <use xlink:href="#DejaVuSans-13" transform="translate(63.623047 0.746875)"/>
       <use xlink:href="#DejaVuSans-c9c" transform="translate(128.203125 42.046875) scale(0.7)"/>
       <use xlink:href="#DejaVuSans-16" transform="translate(186.855469 42.046875) scale(0.7)"/>
      </g>
     </g>
    </g>
    <g id="ytick_10">
     <g id="line2d_57">
      <path d="M 56.602344 343.714347 
L 628.2 343.714347 
" clip-path="url(#p9dcf0ae8a0)" style="fill: none; stroke: #b0b0b0; stroke-opacity: 0.25; stroke-width: 0.8; stroke-linecap: square"/>
     </g>
     <g id="line2d_58">
      <g>
       <use xlink:href="#mb210699116" x="56.602344" y="343.714347" style="stroke: #000000; stroke-width: 0.8"/>
      </g>
     </g>
     <g id="text_25">
      <!-- $\mathdefault{10^{-1}}$ -->
      <g transform="translate(26.102344 348.364347) scale(0.1 -0.1)">
       <use xlink:href="#DejaVuSans-14" transform="translate(0 0.665625)"/>
       <use xlink:href="#DejaVuSans-13" transform="translate(63.623047 0.665625)"/>
       <use xlink:href="#DejaVuSans-c9c" transform="translate(128.203125 41.965625) scale(0.7)"/>
       <use xlink:href="#DejaVuSans-14" transform="translate(186.855469 41.965625) scale(0.7)"/>
      </g>
     </g>
    </g>
    <g id="ytick_11">
     <g id="line2d_59">
      <path d="M 56.602344 315.947311 
L 628.2 315.947311 
" clip-path="url(#p9dcf0ae8a0)" style="fill: none; stroke: #b0b0b0; stroke-opacity: 0.25; stroke-width: 0.8; stroke-linecap: square"/>
     </g>
     <g id="line2d_60">
      <g>
       <use xlink:href="#mb210699116" x="56.602344" y="315.947311" style="stroke: #000000; stroke-width: 0.8"/>
      </g>
     </g>
     <g id="text_26">
      <!-- $\mathdefault{10^{1}}$ -->
      <g transform="translate(32.002344 320.597311) scale(0.1 -0.1)">
       <use xlink:href="#DejaVuSans-14" transform="translate(0 0.665625)"/>
       <use xlink:href="#DejaVuSans-13" transform="translate(63.623047 0.665625)"/>
       <use xlink:href="#DejaVuSans-14" transform="translate(128.203125 41.965625) scale(0.7)"/>
      </g>
     </g>
    </g>
    <g id="ytick_12">
     <g id="line2d_61">
      <path d="M 56.602344 288.180275 
L 628.2 288.180275 
" clip-path="url(#p9dcf0ae8a0)" style="fill: none; stroke: #b0b0b0; stroke-opacity: 0.25; stroke-width: 0.8; stroke-linecap: square"/>
     </g>
     <g id="line2d_62">
      <g>
       <use xlink:href="#mb210699116" x="56.602344" y="288.180275" style="stroke: #000000; stroke-width: 0.8"/>
      </g>
     </g>
     <g id="text_27">
      <!-- $\mathdefault{10^{3}}$ -->
      <g transform="translate(32.002344 292.880275) scale(0.1 -0.1)">
       <use xlink:href="#DejaVuSans-14" transform="translate(0 0.746875)"/>
       <use xlink:href="#DejaVuSans-13" transform="translate(63.623047 0.746875)"/>
       <use xlink:href="#DejaVuSans-16" transform="translate(128.203125 42.046875) scale(0.7)"/>
      </g>
     </g>
    </g>
    <g id="text_28">
     <!-- |FFT(.)| -->
     <g transform="translate(19.7 387.535996) rotate(-90) scale(0.1 -0.1)">
      <defs>
       <path id="DejaVuSans-37" d="M -19 4666 
L 3928 4666 
L 3928 4134 
L 2272 4134 
L 2272 0 
L 1638 0 
L 1638 4134 
L -19 4134 
L -19 4666 
z
" transform="scale(0.015625)"/>
      </defs>
      <use xlink:href="#DejaVuSans-5f"/>
      <use xlink:href="#DejaVuSans-29" transform="translate(33.6875 0)"/>
      <use xlink:href="#DejaVuSans-29" transform="translate(91.203125 0)"/>
      <use xlink:href="#DejaVuSans-37" transform="translate(146.96875 0)"/>
      <use xlink:href="#DejaVuSans-b" transform="translate(208.046875 0)"/>
      <use xlink:href="#DejaVuSans-11" transform="translate(247.0625 0)"/>
      <use xlink:href="#DejaVuSans-c" transform="translate(278.84375 0)"/>
      <use xlink:href="#DejaVuSans-5f" transform="translate(317.859375 0)"/>
     </g>
    </g>
   </g>
   <g id="line2d_63">
    <path d="M 56.602344 316.124893 
L 142.636364 336.054806 
L 192.963039 333.387183 
L 228.670384 330.331236 
L 256.367152 326.754261 
L 278.997059 322.344804 
L 298.130373 316.456802 
L 314.704404 307.175999 
L 329.323735 290.607708 
L 342.401172 287.998052 
L 354.231153 293.892031 
L 365.031079 311.21316 
L 374.966048 318.84215 
L 384.164393 324.060903 
L 392.727847 328.064854 
L 400.738424 331.321926 
L 408.263204 334.069509 
L 415.357755 336.445995 
L 422.068624 338.539571 
L 428.435192 340.410075 
L 434.491069 342.10005 
L 440.265173 343.640867 
L 445.782564 345.056348 
L 451.065099 346.365019 
L 456.13196 347.581581 
L 461.000068 348.7179 
L 465.68443 349.783698 
L 470.198413 350.787037 
L 474.553978 351.734683 
L 478.761867 352.632367 
L 482.831768 353.484989 
L 486.772444 354.296769 
L 490.591848 355.071368 
L 494.297224 355.811983 
L 497.895181 356.521423 
L 501.391775 357.202167 
L 504.792559 357.856413 
L 508.102644 358.486123 
L 511.326744 359.09305 
L 514.469212 359.678772 
L 517.53408 360.244708 
L 520.525089 360.792143 
L 523.445714 361.322245 
L 526.299193 361.836074 
L 529.088543 362.334599 
L 531.816584 362.818705 
L 534.485952 363.289205 
L 537.099119 363.746845 
L 539.658403 364.192313 
L 542.16598 364.626245 
L 544.623899 365.049227 
L 547.034088 365.461803 
L 549.398367 365.864479 
L 551.71845 366.257723 
L 553.995961 366.641973 
L 556.232433 367.017637 
L 558.42932 367.385096 
L 560.587998 367.744707 
L 562.709773 368.096802 
L 564.795887 368.441696 
L 566.847518 368.779682 
L 568.865788 369.111037 
L 570.851764 369.436021 
L 572.806464 369.75488 
L 574.730857 370.067845 
L 576.625868 370.375134 
L 578.492382 370.676954 
L 580.331244 370.973502 
L 582.143259 371.264962 
L 583.929201 371.55151 
L 585.68981 371.833312 
L 587.425795 372.110528 
L 589.137834 372.383307 
L 590.826579 372.651793 
L 592.492655 372.916123 
L 594.136664 373.176425 
L 595.759182 373.432825 
L 597.360764 373.685441 
L 598.941943 373.934385 
L 600.503232 374.179765 
L 602.045126 374.421685 
L 603.5681 374.660243 
L 605.072614 374.895534 
L 606.559109 375.127648 
L 608.028012 375.356673 
L 609.479734 375.582692 
L 610.914673 375.805784 
L 612.333213 376.026026 
L 613.735723 376.243492 
L 615.122563 376.458254 
L 616.494078 376.670378 
L 617.850603 376.879931 
L 619.192464 377.086977 
L 620.519972 377.291575 
L 621.833432 377.493784 
L 623.133139 377.693662 
L 624.419377 377.891262 
L 625.692423 378.086637 
L 626.952544 378.279838 
L 628.2 378.470914 
L 629.435044 378.659912 
" clip-path="url(#p9dcf0ae8a0)" style="fill: none; stroke: #1f77b4; stroke-opacity: 0.6; stroke-width: 1.5; stroke-linecap: square"/>
   </g>
   <g id="line2d_64">
    <path d="M 56.602344 314.81216 
L 142.636364 340.373368 
L 192.963039 340.669797 
L 228.670384 334.643813 
L 256.367152 329.416574 
L 278.997059 324.289337 
L 298.130373 318.119443 
L 314.704404 308.750262 
L 329.323735 292.165841 
L 342.401172 289.557122 
L 354.231153 295.450388 
L 365.031079 312.767715 
L 374.966048 320.394172 
L 384.164393 325.616311 
L 392.727847 329.632657 
L 400.738424 332.912517 
L 408.263204 335.693387 
L 415.357755 338.112971 
L 422.068624 340.258358 
L 428.435192 342.188128 
L 434.491069 343.94356 
L 440.265173 345.554842 
L 445.782564 347.044725 
L 451.065099 348.430797 
L 456.13196 349.726951 
L 461.000068 350.944362 
L 465.68443 352.092167 
L 470.198413 353.177942 
L 474.553978 354.208044 
L 478.761867 355.187868 
L 482.831768 356.122034 
L 486.772444 357.014536 
L 490.591848 357.86885 
L 494.297224 358.688024 
L 497.895181 359.474747 
L 501.391775 360.231406 
L 504.792559 360.960127 
L 508.102644 361.662819 
L 511.326744 362.341196 
L 514.469212 362.996808 
L 517.53408 363.631063 
L 520.525089 364.245238 
L 523.445714 364.840502 
L 526.299193 365.417922 
L 529.088543 365.97848 
L 531.816584 366.523079 
L 534.485952 367.052552 
L 537.099119 367.567669 
L 539.658403 368.069142 
L 542.16598 368.557635 
L 544.623899 369.033763 
L 547.034088 369.498101 
L 549.398367 369.951183 
L 551.71845 370.393512 
L 553.995961 370.825555 
L 556.232433 371.247752 
L 558.42932 371.660517 
L 560.587998 372.064236 
L 562.709773 372.459276 
L 564.795887 372.845981 
L 566.847518 373.224675 
L 568.865788 373.595665 
L 570.851764 373.959241 
L 572.806464 374.315678 
L 574.730857 374.665235 
L 576.625868 375.00816 
L 578.492382 375.344686 
L 580.331244 375.675035 
L 582.143259 375.99942 
L 583.929201 376.318041 
L 585.68981 376.631089 
L 587.425795 376.938748 
L 589.137834 377.24119 
L 590.826579 377.538583 
L 592.492655 377.831084 
L 594.136664 378.118846 
L 595.759182 378.402012 
L 597.360764 378.680722 
L 598.941943 378.955107 
L 600.503232 379.225296 
L 602.045126 379.49141 
L 603.5681 379.753565 
L 605.072614 380.011873 
L 606.559109 380.266443 
L 608.028012 380.517376 
L 609.479734 380.764773 
L 610.914673 381.008728 
L 612.333213 381.249333 
L 613.735723 381.486677 
L 615.122563 381.720844 
L 616.494078 381.951915 
L 617.850603 382.17997 
L 619.192464 382.405085 
L 620.519972 382.627332 
L 621.833432 382.846782 
L 623.133139 383.063503 
L 624.419377 383.277561 
L 625.692423 383.48902 
L 626.952544 383.697939 
L 628.2 383.90438 
L 629.435044 384.108398 
" clip-path="url(#p9dcf0ae8a0)" style="fill: none; stroke: #ff7f0e; stroke-width: 1.5; stroke-linecap: square"/>
   </g>
   <g id="patch_9">
    <path d="M 56.602344 460.115313 
L 56.602344 279.801992 
" style="fill: none; stroke: #000000; stroke-width: 0.8; stroke-linejoin: miter; stroke-linecap: square"/>
   </g>
   <g id="patch_10">
    <path d="M 628.2 460.115313 
L 628.2 279.801992 
" style="fill: none; stroke: #000000; stroke-width: 0.8; stroke-linejoin: miter; stroke-linecap: square"/>
   </g>
   <g id="patch_11">
    <path d="M 56.602344 460.115313 
L 628.2 460.115313 
" style="fill: none; stroke: #000000; stroke-width: 0.8; stroke-linejoin: miter; stroke-linecap: square"/>
   </g>
   <g id="patch_12">
    <path d="M 56.602344 279.801992 
L 628.2 279.801992 
" style="fill: none; stroke: #000000; stroke-width: 0.8; stroke-linejoin: miter; stroke-linecap: square"/>
   </g>
   <g id="text_29">
    <!-- Output FFT peak ≈ 1.000 (arb.), magnitude ≈ 7.958e+02 | band/flat-ish -->
    <g transform="translate(126.001797 273.801992) scale(0.12 -0.12)">
     <defs>
      <path id="DejaVuSans-32" d="M 2522 4238 
Q 1834 4238 1429 3725 
Q 1025 3213 1025 2328 
Q 1025 1447 1429 934 
Q 1834 422 2522 422 
Q 3209 422 3611 934 
Q 4013 1447 4013 2328 
Q 4013 3213 3611 3725 
Q 3209 4238 2522 4238 
z
M 2522 4750 
Q 3503 4750 4090 4092 
Q 4678 3434 4678 2328 
Q 4678 1225 4090 567 
Q 3503 -91 2522 -91 
Q 1538 -91 948 565 
Q 359 1222 359 2328 
Q 359 3434 948 4092 
Q 1538 4750 2522 4750 
z
" transform="scale(0.015625)"/>
      <path id="DejaVuSans-4e" d="M 581 4863 
L 1159 4863 
L 1159 1991 
L 2875 3500 
L 3609 3500 
L 1753 1863 
L 3688 0 
L 2938 0 
L 1159 1709 
L 1159 0 
L 581 0 
L 581 4863 
z
" transform="scale(0.015625)"/>
      <path id="DejaVuSans-cd2" d="M 4684 1947 
L 4684 1388 
Q 4356 1144 4076 1036 
Q 3797 928 3494 928 
Q 3150 928 2694 1113 
Q 2663 1125 2641 1134 
Q 2622 1141 2575 1159 
Q 2091 1350 1797 1350 
Q 1522 1350 1253 1231 
Q 984 1113 678 850 
L 678 1409 
Q 1006 1653 1286 1761 
Q 1566 1869 1869 1869 
Q 2213 1869 2672 1684 
Q 2706 1669 2722 1663 
Q 2741 1656 2788 1638 
Q 3272 1447 3566 1447 
Q 3834 1447 4098 1564 
Q 4363 1681 4684 1947 
z
M 4684 3163 
L 4684 2606 
Q 4356 2359 4076 2251 
Q 3797 2144 3494 2144 
Q 3150 2144 2694 2328 
Q 2663 2341 2641 2350 
Q 2622 2356 2575 2375 
Q 2091 2566 1797 2566 
Q 1522 2566 1253 2447 
Q 984 2328 678 2069 
L 678 2625 
Q 1006 2869 1286 2976 
Q 1566 3084 1869 3084 
Q 2213 3084 2672 2900 
Q 2703 2888 2719 2881 
Q 2741 2872 2788 2853 
Q 3272 2663 3566 2663 
Q 3834 2663 4098 2780 
Q 4363 2897 4684 3163 
z
" transform="scale(0.015625)"/>
      <path id="DejaVuSans-50" d="M 3328 2828 
Q 3544 3216 3844 3400 
Q 4144 3584 4550 3584 
Q 5097 3584 5394 3201 
Q 5691 2819 5691 2113 
L 5691 0 
L 5113 0 
L 5113 2094 
Q 5113 2597 4934 2840 
Q 4756 3084 4391 3084 
Q 3944 3084 3684 2787 
Q 3425 2491 3425 1978 
L 3425 0 
L 2847 0 
L 2847 2094 
Q 2847 2600 2669 2842 
Q 2491 3084 2119 3084 
Q 1678 3084 1418 2786 
Q 1159 2488 1159 1978 
L 1159 0 
L 581 0 
L 581 3500 
L 1159 3500 
L 1159 2956 
Q 1356 3278 1631 3431 
Q 1906 3584 2284 3584 
Q 2666 3584 2933 3390 
Q 3200 3197 3328 2828 
z
" transform="scale(0.015625)"/>
      <path id="DejaVuSans-e" d="M 2944 4013 
L 2944 2272 
L 4684 2272 
L 4684 1741 
L 2944 1741 
L 2944 0 
L 2419 0 
L 2419 1741 
L 678 1741 
L 678 2272 
L 2419 2272 
L 2419 4013 
L 2944 4013 
z
" transform="scale(0.015625)"/>
      <path id="DejaVuSans-12" d="M 1625 4666 
L 2156 4666 
L 531 -594 
L 0 -594 
L 1625 4666 
z
" transform="scale(0.015625)"/>
      <path id="DejaVuSans-13b0" d="M 1831 4863 
L 3431 4863 
L 3431 0 
L 2853 0 
L 2853 4384 
L 1825 4384 
Q 1516 4384 1395 4259 
Q 1275 4134 1275 3809 
L 1275 3500 
L 2222 3500 
L 2222 3053 
L 1275 3053 
L 1275 0 
L 697 0 
L 697 3053 
L 147 3053 
L 147 3500 
L 697 3500 
L 697 3744 
Q 697 4328 969 4595 
Q 1241 4863 1831 4863 
z
" transform="scale(0.015625)"/>
     </defs>
     <use xlink:href="#DejaVuSans-32"/>
     <use xlink:href="#DejaVuSans-58" transform="translate(78.71875 0)"/>
     <use xlink:href="#DejaVuSans-57" transform="translate(142.09375 0)"/>
     <use xlink:href="#DejaVuSans-53" transform="translate(181.296875 0)"/>
     <use xlink:href="#DejaVuSans-58" transform="translate(244.78125 0)"/>
     <use xlink:href="#DejaVuSans-57" transform="translate(308.15625 0)"/>
     <use xlink:href="#DejaVuSans-3" transform="translate(347.359375 0)"/>
     <use xlink:href="#DejaVuSans-29" transform="translate(379.140625 0)"/>
     <use xlink:href="#DejaVuSans-29" transform="translate(436.65625 0)"/>
     <use xlink:href="#DejaVuSans-37" transform="translate(492.421875 0)"/>
     <use xlink:href="#DejaVuSans-3" transform="translate(553.5 0)"/>
     <use xlink:href="#DejaVuSans-53" transform="translate(585.28125 0)"/>
     <use xlink:href="#DejaVuSans-48" transform="translate(648.765625 0)"/>
     <use xlink:href="#DejaVuSans-44" transform="translate(710.296875 0)"/>
     <use xlink:href="#DejaVuSans-4e" transform="translate(771.578125 0)"/>
     <use xlink:href="#DejaVuSans-3" transform="translate(829.484375 0)"/>
     <use xlink:href="#DejaVuSans-cd2" transform="translate(861.265625 0)"/>
     <use xlink:href="#DejaVuSans-3" transform="translate(945.0625 0)"/>
     <use xlink:href="#DejaVuSans-14" transform="translate(976.84375 0)"/>
     <use xlink:href="#DejaVuSans-11" transform="translate(1040.46875 0)"/>
     <use xlink:href="#DejaVuSans-13" transform="translate(1072.25 0)"/>
     <use xlink:href="#DejaVuSans-13" transform="translate(1135.875 0)"/>
     <use xlink:href="#DejaVuSans-13" transform="translate(1199.5 0)"/>
     <use xlink:href="#DejaVuSans-3" transform="translate(1263.125 0)"/>
     <use xlink:href="#DejaVuSans-b" transform="translate(1294.90625 0)"/>
     <use xlink:href="#DejaVuSans-44" transform="translate(1333.921875 0)"/>
     <use xlink:href="#DejaVuSans-55" transform="translate(1395.203125 0)"/>
     <use xlink:href="#DejaVuSans-45" transform="translate(1436.3125 0)"/>
     <use xlink:href="#DejaVuSans-11" transform="translate(1499.796875 0)"/>
     <use xlink:href="#DejaVuSans-c" transform="translate(1531.578125 0)"/>
     <use xlink:href="#DejaVuSans-f" transform="translate(1570.59375 0)"/>
     <use xlink:href="#DejaVuSans-3" transform="translate(1602.375 0)"/>
     <use xlink:href="#DejaVuSans-50" transform="translate(1634.15625 0)"/>
     <use xlink:href="#DejaVuSans-44" transform="translate(1731.5625 0)"/>
     <use xlink:href="#DejaVuSans-4a" transform="translate(1792.84375 0)"/>
     <use xlink:href="#DejaVuSans-51" transform="translate(1856.328125 0)"/>
     <use xlink:href="#DejaVuSans-4c" transform="translate(1919.703125 0)"/>
     <use xlink:href="#DejaVuSans-57" transform="translate(1947.484375 0)"/>
     <use xlink:href="#DejaVuSans-58" transform="translate(1986.6875 0)"/>
     <use xlink:href="#DejaVuSans-47" transform="translate(2050.0625 0)"/>
     <use xlink:href="#DejaVuSans-48" transform="translate(2113.546875 0)"/>
     <use xlink:href="#DejaVuSans-3" transform="translate(2175.078125 0)"/>
     <use xlink:href="#DejaVuSans-cd2" transform="translate(2206.859375 0)"/>
     <use xlink:href="#DejaVuSans-3" transform="translate(2290.65625 0)"/>
     <use xlink:href="#DejaVuSans-1a" transform="translate(2322.4375 0)"/>
     <use xlink:href="#DejaVuSans-11" transform="translate(2386.0625 0)"/>
     <use xlink:href="#DejaVuSans-1c" transform="translate(2417.84375 0)"/>
     <use xlink:href="#DejaVuSans-18" transform="translate(2481.46875 0)"/>
     <use xlink:href="#DejaVuSans-1b" transform="translate(2545.09375 0)"/>
     <use xlink:href="#DejaVuSans-48" transform="translate(2608.71875 0)"/>
     <use xlink:href="#DejaVuSans-e" transform="translate(2670.25 0)"/>
     <use xlink:href="#DejaVuSans-13" transform="translate(2754.046875 0)"/>
     <use xlink:href="#DejaVuSans-15" transform="translate(2817.671875 0)"/>
     <use xlink:href="#DejaVuSans-3" transform="translate(2881.296875 0)"/>
     <use xlink:href="#DejaVuSans-5f" transform="translate(2913.078125 0)"/>
     <use xlink:href="#DejaVuSans-3" transform="translate(2946.765625 0)"/>
     <use xlink:href="#DejaVuSans-45" transform="translate(2978.546875 0)"/>
     <use xlink:href="#DejaVuSans-44" transform="translate(3042.03125 0)"/>
     <use xlink:href="#DejaVuSans-51" transform="translate(3103.3125 0)"/>
     <use xlink:href="#DejaVuSans-47" transform="translate(3166.6875 0)"/>
     <use xlink:href="#DejaVuSans-12" transform="translate(3230.171875 0)"/>
     <use xlink:href="#DejaVuSans-13b0" transform="translate(3263.859375 0)"/>
     <use xlink:href="#DejaVuSans-44" transform="translate(3326.84375 0)"/>
     <use xlink:href="#DejaVuSans-57" transform="translate(3388.125 0)"/>
     <use xlink:href="#DejaVuSans-10" transform="translate(3427.328125 0)"/>
     <use xlink:href="#DejaVuSans-4c" transform="translate(3463.40625 0)"/>
     <use xlink:href="#DejaVuSans-56" transform="translate(3491.1875 0)"/>
     <use xlink:href="#DejaVuSans-4b" transform="translate(3543.28125 0)"/>
    </g>
   </g>
   <g id="legend_2">
    <g id="patch_13">
     <path d="M 535.603125 317.803555 
L 621.2 317.803555 
Q 623.2 317.803555 623.2 315.803555 
L 623.2 286.801992 
Q 623.2 284.801992 621.2 284.801992 
L 535.603125 284.801992 
Q 533.603125 284.801992 533.603125 286.801992 
L 533.603125 315.803555 
Q 533.603125 317.803555 535.603125 317.803555 
z
" style="fill: #ffffff; opacity: 0.8; stroke: #cccccc; stroke-linejoin: miter"/>
    </g>
    <g id="line2d_65">
     <path d="M 537.603125 292.90043 
L 547.603125 292.90043 
L 557.603125 292.90043 
" style="fill: none; stroke: #1f77b4; stroke-opacity: 0.6; stroke-width: 1.5; stroke-linecap: square"/>
    </g>
    <g id="text_30">
     <!-- input FFT -->
     <g transform="translate(565.603125 296.40043) scale(0.1 -0.1)">
      <use xlink:href="#DejaVuSans-4c"/>
      <use xlink:href="#DejaVuSans-51" transform="translate(27.78125 0)"/>
      <use xlink:href="#DejaVuSans-53" transform="translate(91.15625 0)"/>
      <use xlink:href="#DejaVuSans-58" transform="translate(154.640625 0)"/>
      <use xlink:href="#DejaVuSans-57" transform="translate(218.015625 0)"/>
      <use xlink:href="#DejaVuSans-3" transform="translate(257.21875 0)"/>
      <use xlink:href="#DejaVuSans-29" transform="translate(289 0)"/>
      <use xlink:href="#DejaVuSans-29" transform="translate(346.515625 0)"/>
      <use xlink:href="#DejaVuSans-37" transform="translate(402.28125 0)"/>
     </g>
    </g>
    <g id="line2d_66">
     <path d="M 537.603125 307.901211 
L 547.603125 307.901211 
L 557.603125 307.901211 
" style="fill: none; stroke: #ff7f0e; stroke-width: 1.5; stroke-linecap: square"/>
    </g>
    <g id="text_31">
     <!-- output FFT -->
     <g transform="translate(565.603125 311.401211) scale(0.1 -0.1)">
      <use xlink:href="#DejaVuSans-52"/>
      <use xlink:href="#DejaVuSans-58" transform="translate(61.1875 0)"/>
      <use xlink:href="#DejaVuSans-57" transform="translate(124.5625 0)"/>
      <use xlink:href="#DejaVuSans-53" transform="translate(163.765625 0)"/>
      <use xlink:href="#DejaVuSans-58" transform="translate(227.25 0)"/>
      <use xlink:href="#DejaVuSans-57" transform="translate(290.625 0)"/>
      <use xlink:href="#DejaVuSans-3" transform="translate(329.828125 0)"/>
      <use xlink:href="#DejaVuSans-29" transform="translate(361.609375 0)"/>
      <use xlink:href="#DejaVuSans-29" transform="translate(419.125 0)"/>
      <use xlink:href="#DejaVuSans-37" transform="translate(474.890625 0)"/>
     </g>
    </g>
   </g>
  </g>
 </g>
 <defs>
  <clipPath id="p93ab1b3d3a">
   <rect x="56.602344" y="42.006328" width="571.597656" height="180.31332"/>
  </clipPath>
  <clipPath id="p9dcf0ae8a0">
   <rect x="56.602344" y="279.801992" width="571.597656" height="180.31332"/>
  </clipPath>
 </defs>
</svg>
