<?xml version="1.0" encoding="utf-8" standalone="no"?>
<!DOCTYPE svg PUBLIC "-//W3C//DTD SVG 1.1//EN"
  "http://www.w3.org/Graphics/SVG/1.1/DTD/svg11.dtd">
<svg xmlns:xlink="http://www.w3.org/1999/xlink" width="648pt" height="504pt" viewBox="0 0 648 504" xmlns="http://www.w3.org/2000/svg" version="1.1">
 <metadata>
  <rdf:RDF xmlns:dc="http://purl.org/dc/elements/1.1/" xmlns:cc="http://creativecommons.org/ns#" xmlns:rdf="http://www.w3.org/1999/02/22-rdf-syntax-ns#">
   <cc:Work>
    <dc:type rdf:resource="http://purl.org/dc/dcmitype/StillImage"/>
    <dc:date>2026-02-01T03:18:27.119527</dc:date>
    <dc:format>image/svg+xml</dc:format>
    <dc:creator>
     <cc:Agent>
      <dc:title>Matplotlib v3.10.8, https://matplotlib.org/</dc:title>
     </cc:Agent>
    </dc:creator>
   </cc:Work>
  </rdf:RDF>
 </metadata>
 <defs>
  <style type="text/css">*{stroke-linejoin: round; stroke-linecap: butt}</style>
 </defs>
 <g id="figure_1">
  <g id="patch_1">
   <path d="M 0 504 
L 648 504 
L 648 0 
L 0 0 
z
" style="fill: #ffffff"/>
  </g>
  <g id="axes_1">
   <g id="patch_2">
    <path d="M 60.761214 221.272 
L 628.183658 221.272 
L 628.183658 41.856 
L 60.761214 41.856 
z
" style="fill: #ffffff"/>
   </g>
   <g id="matplotlib.axis_1">
    <g id="xtick_1">
     <g id="line2d_1">
      <path d="M 86.553143 221.272 
L 86.553143 41.856 
" clip-path="url(#p57f87f1020)" style="fill: none; stroke: #b0b0b0; stroke-opacity: 0.25; stroke-width: 0.8; stroke-linecap: square"/>
     </g>
     <g id="line2d_2">
      <defs>
       <path id="m6b539f08c7" d="M 0 0 
L 0 3.5 
" style="stroke: #000000; stroke-width: 0.8"/>
      </defs>
      <g>
       <use xlink:href="#m6b539f08c7" x="86.553143" y="221.272" style="stroke: #000000; stroke-width: 0.8"/>
      </g>
     </g>
     <g id="text_1">
      <!-- 0 -->
      <g transform="translate(83.371893 235.870437) scale(0.1 -0.1)">
       <defs>
        <path id="DejaVuSans-30" d="M 2034 4250 
Q 1547 4250 1301 3770 
Q 1056 3291 1056 2328 
Q 1056 1369 1301 889 
Q 1547 409 2034 409 
Q 2525 409 2770 889 
Q 3016 1369 3016 2328 
Q 3016 3291 2770 3770 
Q 2525 4250 2034 4250 
z
M 2034 4750 
Q 2819 4750 3233 4129 
Q 3647 3509 3647 2328 
Q 3647 1150 3233 529 
Q 2819 -91 2034 -91 
Q 1250 -91 836 529 
Q 422 1150 422 2328 
Q 422 3509 836 4129 
Q 1250 4750 2034 4750 
z
" transform="scale(0.015625)"/>
       </defs>
       <use xlink:href="#DejaVuSans-30"/>
      </g>
     </g>
    </g>
    <g id="xtick_2">
     <g id="line2d_3">
      <path d="M 189.746054 221.272 
L 189.746054 41.856 
" clip-path="url(#p57f87f1020)" style="fill: none; stroke: #b0b0b0; stroke-opacity: 0.25; stroke-width: 0.8; stroke-linecap: square"/>
     </g>
     <g id="line2d_4">
      <g>
       <use xlink:href="#m6b539f08c7" x="189.746054" y="221.272" style="stroke: #000000; stroke-width: 0.8"/>
      </g>
     </g>
     <g id="text_2">
      <!-- 2 -->
      <g transform="translate(186.564804 235.870437) scale(0.1 -0.1)">
       <defs>
        <path id="DejaVuSans-32" d="M 1228 531 
L 3431 531 
L 3431 0 
L 469 0 
L 469 531 
Q 828 903 1448 1529 
Q 2069 2156 2228 2338 
Q 2531 2678 2651 2914 
Q 2772 3150 2772 3378 
Q 2772 3750 2511 3984 
Q 2250 4219 1831 4219 
Q 1534 4219 1204 4116 
Q 875 4013 500 3803 
L 500 4441 
Q 881 4594 1212 4672 
Q 1544 4750 1819 4750 
Q 2544 4750 2975 4387 
Q 3406 4025 3406 3419 
Q 3406 3131 3298 2873 
Q 3191 2616 2906 2266 
Q 2828 2175 2409 1742 
Q 1991 1309 1228 531 
z
" transform="scale(0.015625)"/>
       </defs>
       <use xlink:href="#DejaVuSans-32"/>
      </g>
     </g>
    </g>
    <g id="xtick_3">
     <g id="line2d_5">
      <path d="M 292.938964 221.272 
L 292.938964 41.856 
" clip-path="url(#p57f87f1020)" style="fill: none; stroke: #b0b0b0; stroke-opacity: 0.25; stroke-width: 0.8; stroke-linecap: square"/>
     </g>
     <g id="line2d_6">
      <g>
       <use xlink:href="#m6b539f08c7" x="292.938964" y="221.272" style="stroke: #000000; stroke-width: 0.8"/>
      </g>
     </g>
     <g id="text_3">
      <!-- 4 -->
      <g transform="translate(289.757714 235.870437) scale(0.1 -0.1)">
       <defs>
        <path id="DejaVuSans-34" d="M 2419 4116 
L 825 1625 
L 2419 1625 
L 2419 4116 
z
M 2253 4666 
L 3047 4666 
L 3047 1625 
L 3713 1625 
L 3713 1100 
L 3047 1100 
L 3047 0 
L 2419 0 
L 2419 1100 
L 313 1100 
L 313 1709 
L 2253 4666 
z
" transform="scale(0.015625)"/>
       </defs>
       <use xlink:href="#DejaVuSans-34"/>
      </g>
     </g>
    </g>
    <g id="xtick_4">
     <g id="line2d_7">
      <path d="M 396.131875 221.272 
L 396.131875 41.856 
" clip-path="url(#p57f87f1020)" style="fill: none; stroke: #b0b0b0; stroke-opacity: 0.25; stroke-width: 0.8; stroke-linecap: square"/>
     </g>
     <g id="line2d_8">
      <g>
       <use xlink:href="#m6b539f08c7" x="396.131875" y="221.272" style="stroke: #000000; stroke-width: 0.8"/>
      </g>
     </g>
     <g id="text_4">
      <!-- 6 -->
      <g transform="translate(392.950625 235.870437) scale(0.1 -0.1)">
       <defs>
        <path id="DejaVuSans-36" d="M 2113 2584 
Q 1688 2584 1439 2293 
Q 1191 2003 1191 1497 
Q 1191 994 1439 701 
Q 1688 409 2113 409 
Q 2538 409 2786 701 
Q 3034 994 3034 1497 
Q 3034 2003 2786 2293 
Q 2538 2584 2113 2584 
z
M 3366 4563 
L 3366 3988 
Q 3128 4100 2886 4159 
Q 2644 4219 2406 4219 
Q 1781 4219 1451 3797 
Q 1122 3375 1075 2522 
Q 1259 2794 1537 2939 
Q 1816 3084 2150 3084 
Q 2853 3084 3261 2657 
Q 3669 2231 3669 1497 
Q 3669 778 3244 343 
Q 2819 -91 2113 -91 
Q 1303 -91 875 529 
Q 447 1150 447 2328 
Q 447 3434 972 4092 
Q 1497 4750 2381 4750 
Q 2619 4750 2861 4703 
Q 3103 4656 3366 4563 
z
" transform="scale(0.015625)"/>
       </defs>
       <use xlink:href="#DejaVuSans-36"/>
      </g>
     </g>
    </g>
    <g id="xtick_5">
     <g id="line2d_9">
      <path d="M 499.324786 221.272 
L 499.324786 41.856 
" clip-path="url(#p57f87f1020)" style="fill: none; stroke: #b0b0b0; stroke-opacity: 0.25; stroke-width: 0.8; stroke-linecap: square"/>
     </g>
     <g id="line2d_10">
      <g>
       <use xlink:href="#m6b539f08c7" x="499.324786" y="221.272" style="stroke: #000000; stroke-width: 0.8"/>
      </g>
     </g>
     <g id="text_5">
      <!-- 8 -->
      <g transform="translate(496.143536 235.870437) scale(0.1 -0.1)">
       <defs>
        <path id="DejaVuSans-38" d="M 2034 2216 
Q 1584 2216 1326 1975 
Q 1069 1734 1069 1313 
Q 1069 891 1326 650 
Q 1584 409 2034 409 
Q 2484 409 2743 651 
Q 3003 894 3003 1313 
Q 3003 1734 2745 1975 
Q 2488 2216 2034 2216 
z
M 1403 2484 
Q 997 2584 770 2862 
Q 544 3141 544 3541 
Q 544 4100 942 4425 
Q 1341 4750 2034 4750 
Q 2731 4750 3128 4425 
Q 3525 4100 3525 3541 
Q 3525 3141 3298 2862 
Q 3072 2584 2669 2484 
Q 3125 2378 3379 2068 
Q 3634 1759 3634 1313 
Q 3634 634 3220 271 
Q 2806 -91 2034 -91 
Q 1263 -91 848 271 
Q 434 634 434 1313 
Q 434 1759 690 2068 
Q 947 2378 1403 2484 
z
M 1172 3481 
Q 1172 3119 1398 2916 
Q 1625 2713 2034 2713 
Q 2441 2713 2670 2916 
Q 2900 3119 2900 3481 
Q 2900 3844 2670 4047 
Q 2441 4250 2034 4250 
Q 1625 4250 1398 4047 
Q 1172 3844 1172 3481 
z
" transform="scale(0.015625)"/>
       </defs>
       <use xlink:href="#DejaVuSans-38"/>
      </g>
     </g>
    </g>
    <g id="xtick_6">
     <g id="line2d_11">
      <path d="M 602.517696 221.272 
L 602.517696 41.856 
" clip-path="url(#p57f87f1020)" style="fill: none; stroke: #b0b0b0; stroke-opacity: 0.25; stroke-width: 0.8; stroke-linecap: square"/>
     </g>
     <g id="line2d_12">
      <g>
       <use xlink:href="#m6b539f08c7" x="602.517696" y="221.272" style="stroke: #000000; stroke-width: 0.8"/>
      </g>
     </g>
     <g id="text_6">
      <!-- 10 -->
      <g transform="translate(596.155196 235.870437) scale(0.1 -0.1)">
       <defs>
        <path id="DejaVuSans-31" d="M 794 531 
L 1825 531 
L 1825 4091 
L 703 3866 
L 703 4441 
L 1819 4666 
L 2450 4666 
L 2450 531 
L 3481 531 
L 3481 0 
L 794 0 
L 794 531 
z
" transform="scale(0.015625)"/>
       </defs>
       <use xlink:href="#DejaVuSans-31"/>
       <use xlink:href="#DejaVuSans-30" transform="translate(63.623047 0)"/>
      </g>
     </g>
    </g>
    <g id="text_7">
     <!-- t [arb.] -->
     <g transform="translate(327.138842 249.548563) scale(0.1 -0.1)">
      <defs>
       <path id="DejaVuSans-74" d="M 1172 4494 
L 1172 3500 
L 2356 3500 
L 2356 3053 
L 1172 3053 
L 1172 1153 
Q 1172 725 1289 603 
Q 1406 481 1766 481 
L 2356 481 
L 2356 0 
L 1766 0 
Q 1100 0 847 248 
Q 594 497 594 1153 
L 594 3053 
L 172 3053 
L 172 3500 
L 594 3500 
L 594 4494 
L 1172 4494 
z
" transform="scale(0.015625)"/>
       <path id="DejaVuSans-20" transform="scale(0.015625)"/>
       <path id="DejaVuSans-5b" d="M 550 4863 
L 1875 4863 
L 1875 4416 
L 1125 4416 
L 1125 -397 
L 1875 -397 
L 1875 -844 
L 550 -844 
L 550 4863 
z
" transform="scale(0.015625)"/>
       <path id="DejaVuSans-61" d="M 2194 1759 
Q 1497 1759 1228 1600 
Q 959 1441 959 1056 
Q 959 750 1161 570 
Q 1363 391 1709 391 
Q 2188 391 2477 730 
Q 2766 1069 2766 1631 
L 2766 1759 
L 2194 1759 
z
M 3341 1997 
L 3341 0 
L 2766 0 
L 2766 531 
Q 2569 213 2275 61 
Q 1981 -91 1556 -91 
Q 1019 -91 701 211 
Q 384 513 384 1019 
Q 384 1609 779 1909 
Q 1175 2209 1959 2209 
L 2766 2209 
L 2766 2266 
Q 2766 2663 2505 2880 
Q 2244 3097 1772 3097 
Q 1472 3097 1187 3025 
Q 903 2953 641 2809 
L 641 3341 
Q 956 3463 1253 3523 
Q 1550 3584 1831 3584 
Q 2591 3584 2966 3190 
Q 3341 2797 3341 1997 
z
" transform="scale(0.015625)"/>
       <path id="DejaVuSans-72" d="M 2631 2963 
Q 2534 3019 2420 3045 
Q 2306 3072 2169 3072 
Q 1681 3072 1420 2755 
Q 1159 2438 1159 1844 
L 1159 0 
L 581 0 
L 581 3500 
L 1159 3500 
L 1159 2956 
Q 1341 3275 1631 3429 
Q 1922 3584 2338 3584 
Q 2397 3584 2469 3576 
Q 2541 3569 2628 3553 
L 2631 2963 
z
" transform="scale(0.015625)"/>
       <path id="DejaVuSans-62" d="M 3116 1747 
Q 3116 2381 2855 2742 
Q 2594 3103 2138 3103 
Q 1681 3103 1420 2742 
Q 1159 2381 1159 1747 
Q 1159 1113 1420 752 
Q 1681 391 2138 391 
Q 2594 391 2855 752 
Q 3116 1113 3116 1747 
z
M 1159 2969 
Q 1341 3281 1617 3432 
Q 1894 3584 2278 3584 
Q 2916 3584 3314 3078 
Q 3713 2572 3713 1747 
Q 3713 922 3314 415 
Q 2916 -91 2278 -91 
Q 1894 -91 1617 61 
Q 1341 213 1159 525 
L 1159 0 
L 581 0 
L 581 4863 
L 1159 4863 
L 1159 2969 
z
" transform="scale(0.015625)"/>
       <path id="DejaVuSans-2e" d="M 684 794 
L 1344 794 
L 1344 0 
L 684 0 
L 684 794 
z
" transform="scale(0.015625)"/>
       <path id="DejaVuSans-5d" d="M 1947 4863 
L 1947 -844 
L 622 -844 
L 622 -397 
L 1369 -397 
L 1369 4416 
L 622 4416 
L 622 4863 
L 1947 4863 
z
" transform="scale(0.015625)"/>
      </defs>
      <use xlink:href="#DejaVuSans-74"/>
      <use xlink:href="#DejaVuSans-20" transform="translate(39.208984 0)"/>
      <use xlink:href="#DejaVuSans-5b" transform="translate(70.996094 0)"/>
      <use xlink:href="#DejaVuSans-61" transform="translate(110.009766 0)"/>
      <use xlink:href="#DejaVuSans-72" transform="translate(171.289062 0)"/>
      <use xlink:href="#DejaVuSans-62" transform="translate(212.402344 0)"/>
      <use xlink:href="#DejaVuSans-2e" transform="translate(275.878906 0)"/>
      <use xlink:href="#DejaVuSans-5d" transform="translate(307.666016 0)"/>
     </g>
    </g>
   </g>
   <g id="matplotlib.axis_2">
    <g id="ytick_1">
     <g id="line2d_13">
      <path d="M 60.761214 218.719771 
L 628.183658 218.719771 
" clip-path="url(#p57f87f1020)" style="fill: none; stroke: #b0b0b0; stroke-opacity: 0.25; stroke-width: 0.8; stroke-linecap: square"/>
     </g>
     <g id="line2d_14">
      <defs>
       <path id="m9f58c1ec23" d="M 0 0 
L -3.5 0 
" style="stroke: #000000; stroke-width: 0.8"/>
      </defs>
      <g>
       <use xlink:href="#m9f58c1ec23" x="60.761214" y="218.719771" style="stroke: #000000; stroke-width: 0.8"/>
      </g>
     </g>
     <g id="text_8">
      <!-- −1.5 -->
      <g transform="translate(29.478401 222.51899) scale(0.1 -0.1)">
       <defs>
        <path id="DejaVuSans-2212" d="M 678 2272 
L 4684 2272 
L 4684 1741 
L 678 1741 
L 678 2272 
z
" transform="scale(0.015625)"/>
        <path id="DejaVuSans-35" d="M 691 4666 
L 3169 4666 
L 3169 4134 
L 1269 4134 
L 1269 2991 
Q 1406 3038 1543 3061 
Q 1681 3084 1819 3084 
Q 2600 3084 3056 2656 
Q 3513 2228 3513 1497 
Q 3513 744 3044 326 
Q 2575 -91 1722 -91 
Q 1428 -91 1123 -41 
Q 819 9 494 109 
L 494 744 
Q 775 591 1075 516 
Q 1375 441 1709 441 
Q 2250 441 2565 725 
Q 2881 1009 2881 1497 
Q 2881 1984 2565 2268 
Q 2250 2553 1709 2553 
Q 1456 2553 1204 2497 
Q 953 2441 691 2322 
L 691 4666 
z
" transform="scale(0.015625)"/>
       </defs>
       <use xlink:href="#DejaVuSans-2212"/>
       <use xlink:href="#DejaVuSans-31" transform="translate(83.789062 0)"/>
       <use xlink:href="#DejaVuSans-2e" transform="translate(147.412109 0)"/>
       <use xlink:href="#DejaVuSans-35" transform="translate(179.199219 0)"/>
      </g>
     </g>
    </g>
    <g id="ytick_2">
     <g id="line2d_15">
      <path d="M 60.761214 189.66785 
L 628.183658 189.66785 
" clip-path="url(#p57f87f1020)" style="fill: none; stroke: #b0b0b0; stroke-opacity: 0.25; stroke-width: 0.8; stroke-linecap: square"/>
     </g>
     <g id="line2d_16">
      <g>
       <use xlink:href="#m9f58c1ec23" x="60.761214" y="189.66785" style="stroke: #000000; stroke-width: 0.8"/>
      </g>
     </g>
     <g id="text_9">
      <!-- −1.0 -->
      <g transform="translate(29.478401 193.467069) scale(0.1 -0.1)">
       <use xlink:href="#DejaVuSans-2212"/>
       <use xlink:href="#DejaVuSans-31" transform="translate(83.789062 0)"/>
       <use xlink:href="#DejaVuSans-2e" transform="translate(147.412109 0)"/>
       <use xlink:href="#DejaVuSans-30" transform="translate(179.199219 0)"/>
      </g>
     </g>
    </g>
    <g id="ytick_3">
     <g id="line2d_17">
      <path d="M 60.761214 160.615929 
L 628.183658 160.615929 
" clip-path="url(#p57f87f1020)" style="fill: none; stroke: #b0b0b0; stroke-opacity: 0.25; stroke-width: 0.8; stroke-linecap: square"/>
     </g>
     <g id="line2d_18">
      <g>
       <use xlink:href="#m9f58c1ec23" x="60.761214" y="160.615929" style="stroke: #000000; stroke-width: 0.8"/>
      </g>
     </g>
     <g id="text_10">
      <!-- −0.5 -->
      <g transform="translate(29.478401 164.415148) scale(0.1 -0.1)">
       <use xlink:href="#DejaVuSans-2212"/>
       <use xlink:href="#DejaVuSans-30" transform="translate(83.789062 0)"/>
       <use xlink:href="#DejaVuSans-2e" transform="translate(147.412109 0)"/>
       <use xlink:href="#DejaVuSans-35" transform="translate(179.199219 0)"/>
      </g>
     </g>
    </g>
    <g id="ytick_4">
     <g id="line2d_19">
      <path d="M 60.761214 131.564009 
L 628.183658 131.564009 
" clip-path="url(#p57f87f1020)" style="fill: none; stroke: #b0b0b0; stroke-opacity: 0.25; stroke-width: 0.8; stroke-linecap: square"/>
     </g>
     <g id="line2d_20">
      <g>
       <use xlink:href="#m9f58c1ec23" x="60.761214" y="131.564009" style="stroke: #000000; stroke-width: 0.8"/>
      </g>
     </g>
     <g id="text_11">
      <!-- 0.0 -->
      <g transform="translate(37.858089 135.363227) scale(0.1 -0.1)">
       <use xlink:href="#DejaVuSans-30"/>
       <use xlink:href="#DejaVuSans-2e" transform="translate(63.623047 0)"/>
       <use xlink:href="#DejaVuSans-30" transform="translate(95.410156 0)"/>
      </g>
     </g>
    </g>
    <g id="ytick_5">
     <g id="line2d_21">
      <path d="M 60.761214 102.512088 
L 628.183658 102.512088 
" clip-path="url(#p57f87f1020)" style="fill: none; stroke: #b0b0b0; stroke-opacity: 0.25; stroke-width: 0.8; stroke-linecap: square"/>
     </g>
     <g id="line2d_22">
      <g>
       <use xlink:href="#m9f58c1ec23" x="60.761214" y="102.512088" style="stroke: #000000; stroke-width: 0.8"/>
      </g>
     </g>
     <g id="text_12">
      <!-- 0.5 -->
      <g transform="translate(37.858089 106.311306) scale(0.1 -0.1)">
       <use xlink:href="#DejaVuSans-30"/>
       <use xlink:href="#DejaVuSans-2e" transform="translate(63.623047 0)"/>
       <use xlink:href="#DejaVuSans-35" transform="translate(95.410156 0)"/>
      </g>
     </g>
    </g>
    <g id="ytick_6">
     <g id="line2d_23">
      <path d="M 60.761214 73.460167 
L 628.183658 73.460167 
" clip-path="url(#p57f87f1020)" style="fill: none; stroke: #b0b0b0; stroke-opacity: 0.25; stroke-width: 0.8; stroke-linecap: square"/>
     </g>
     <g id="line2d_24">
      <g>
       <use xlink:href="#m9f58c1ec23" x="60.761214" y="73.460167" style="stroke: #000000; stroke-width: 0.8"/>
      </g>
     </g>
     <g id="text_13">
      <!-- 1.0 -->
      <g transform="translate(37.858089 77.259386) scale(0.1 -0.1)">
       <use xlink:href="#DejaVuSans-31"/>
       <use xlink:href="#DejaVuSans-2e" transform="translate(63.623047 0)"/>
       <use xlink:href="#DejaVuSans-30" transform="translate(95.410156 0)"/>
      </g>
     </g>
    </g>
    <g id="ytick_7">
     <g id="line2d_25">
      <path d="M 60.761214 44.408246 
L 628.183658 44.408246 
" clip-path="url(#p57f87f1020)" style="fill: none; stroke: #b0b0b0; stroke-opacity: 0.25; stroke-width: 0.8; stroke-linecap: square"/>
     </g>
     <g id="line2d_26">
      <g>
       <use xlink:href="#m9f58c1ec23" x="60.761214" y="44.408246" style="stroke: #000000; stroke-width: 0.8"/>
      </g>
     </g>
     <g id="text_14">
      <!-- 1.5 -->
      <g transform="translate(37.858089 48.207465) scale(0.1 -0.1)">
       <use xlink:href="#DejaVuSans-31"/>
       <use xlink:href="#DejaVuSans-2e" transform="translate(63.623047 0)"/>
       <use xlink:href="#DejaVuSans-35" transform="translate(95.410156 0)"/>
      </g>
     </g>
    </g>
    <g id="text_15">
     <!-- [arb.] -->
     <g transform="translate(23.398714 145.348375) rotate(-90) scale(0.1 -0.1)">
      <use xlink:href="#DejaVuSans-5b"/>
      <use xlink:href="#DejaVuSans-61" transform="translate(39.013672 0)"/>
      <use xlink:href="#DejaVuSans-72" transform="translate(100.292969 0)"/>
      <use xlink:href="#DejaVuSans-62" transform="translate(141.40625 0)"/>
      <use xlink:href="#DejaVuSans-2e" transform="translate(204.882812 0)"/>
      <use xlink:href="#DejaVuSans-5d" transform="translate(236.669922 0)"/>
     </g>
    </g>
   </g>
   <g id="line2d_27">
    <path d="M 86.553143 131.564009 
L 91.339923 101.5654 
L 93.859282 87.216528 
L 95.874768 76.963506 
L 97.638319 69.108481 
L 99.149934 63.326348 
L 100.535581 58.871532 
L 101.79526 55.569784 
L 102.928971 53.235389 
L 103.936714 51.682949 
L 104.81849 50.73619 
L 105.574297 50.234194 
L 106.330104 50.01982 
L 106.959944 50.061463 
L 107.589784 50.303286 
L 108.345591 50.856839 
L 109.101398 51.695812 
L 109.983174 53.031339 
L 110.990917 55.02003 
L 112.124628 57.831664 
L 113.384307 61.642418 
L 114.769954 66.625533 
L 116.281569 72.939092 
L 118.04512 81.345204 
L 120.060607 92.124322 
L 122.453997 106.18679 
L 125.981098 128.39486 
L 131.27175 161.621873 
L 133.791109 175.964963 
L 135.806595 186.211836 
L 137.570146 194.060501 
L 139.081761 199.83655 
L 140.467408 204.285354 
L 141.727087 207.581337 
L 142.860798 209.910348 
L 143.868541 211.457882 
L 144.750317 212.400281 
L 145.506124 212.898507 
L 146.261931 213.109095 
L 146.891771 213.064293 
L 147.521611 212.819318 
L 148.277418 212.261999 
L 149.033225 211.419294 
L 149.915001 210.079471 
L 150.922744 208.085972 
L 152.056455 205.269096 
L 153.316134 201.452775 
L 154.701781 196.463909 
L 156.213396 190.144601 
L 157.976947 181.732581 
L 159.992434 170.947897 
L 162.385824 156.88065 
L 165.912925 134.66947 
L 171.203577 101.446905 
L 173.722936 87.109608 
L 175.738422 76.868889 
L 177.501973 69.026589 
L 179.013588 63.256628 
L 180.399235 58.813838 
L 181.658914 55.523623 
L 182.792625 53.199998 
L 183.800368 51.65737 
L 184.682144 50.719331 
L 185.437951 50.224875 
L 186.193759 50.018074 
L 186.823598 50.066034 
L 187.453438 50.314162 
L 188.209245 50.875246 
L 188.965052 51.721684 
L 189.846828 53.065802 
L 190.854571 55.064107 
L 191.988282 57.886223 
L 193.247961 61.70811 
L 194.633608 66.702723 
L 196.145223 73.027775 
L 197.908774 81.4457 
L 199.924261 92.235942 
L 202.317651 106.307961 
L 205.844752 128.522236 
L 211.135404 161.740332 
L 213.654763 176.071829 
L 215.670249 186.306386 
L 217.4338 194.142316 
L 218.945415 199.906187 
L 220.331062 204.342959 
L 221.590741 207.627405 
L 222.724452 209.945643 
L 223.732195 211.483363 
L 224.613971 212.417042 
L 225.369778 212.907727 
L 226.125586 213.110741 
L 226.755425 213.059623 
L 227.385265 212.808342 
L 228.141072 212.243494 
L 228.89688 211.393324 
L 229.778655 210.044911 
L 230.786398 208.041802 
L 231.920109 205.214448 
L 233.179788 201.386997 
L 234.565435 196.38664 
L 236.07705 190.055848 
L 237.840601 181.632023 
L 239.856088 170.836229 
L 242.249478 156.759448 
L 245.776579 134.54209 
L 250.941264 102.080764 
L 253.460622 87.682041 
L 255.476108 77.375889 
L 257.239659 69.46583 
L 258.751274 63.631013 
L 260.136921 59.124101 
L 261.3966 55.772372 
L 262.530311 53.39128 
L 263.538054 51.796279 
L 264.41983 50.811685 
L 265.175637 50.276963 
L 265.931445 50.029711 
L 266.561284 50.043925 
L 267.191124 50.258361 
L 267.946931 50.779202 
L 268.702739 51.585738 
L 269.584514 52.883921 
L 270.592257 54.830812 
L 271.725968 57.596857 
L 272.985647 61.359161 
L 274.371294 66.292211 
L 275.882909 72.555689 
L 277.64646 80.910266 
L 279.661947 91.64078 
L 282.055337 105.661374 
L 285.582438 127.841873 
L 290.999058 161.858716 
L 293.518417 176.178586 
L 295.533903 186.400803 
L 297.297454 194.223979 
L 298.809069 199.975657 
L 300.194716 204.400385 
L 301.454395 207.673288 
L 302.588106 209.980747 
L 303.595849 211.508649 
L 304.477625 212.433605 
L 305.233432 212.916748 
L 305.98924 213.112188 
L 306.619079 213.054753 
L 307.248919 212.797168 
L 308.004726 212.224792 
L 308.760534 211.36716 
L 309.642309 210.01016 
L 310.650052 207.997444 
L 311.783763 205.159619 
L 313.043442 201.32105 
L 314.429089 196.309213 
L 315.940704 189.966951 
L 317.704255 181.531344 
L 319.719742 170.724466 
L 322.2391 155.867703 
L 325.892169 132.798396 
L 330.804918 101.961953 
L 333.324276 87.574652 
L 335.339762 77.280694 
L 337.103313 69.383277 
L 338.614928 63.56057 
L 340.000575 59.065637 
L 341.260254 55.725406 
L 342.393965 53.355059 
L 343.401708 51.769853 
L 344.283484 50.793969 
L 345.039291 50.266781 
L 345.795099 50.0271 
L 346.424938 50.047631 
L 347.054778 50.268376 
L 347.810585 50.796753 
L 348.566393 51.610762 
L 349.448168 52.91755 
L 350.455911 54.874076 
L 351.589622 57.650632 
L 352.849302 61.42411 
L 354.234949 66.36871 
L 355.746563 72.643747 
L 357.510114 81.010227 
L 359.525601 91.751979 
L 361.918991 105.782274 
L 365.446092 127.969213 
L 370.736745 161.225442 
L 373.256103 175.607019 
L 375.271589 185.894871 
L 377.03514 193.785959 
L 378.546755 199.602606 
L 379.932402 204.091545 
L 381.192081 207.426025 
L 382.325792 209.790998 
L 383.333535 211.371304 
L 384.215311 212.342833 
L 384.971118 212.866252 
L 385.726926 213.102148 
L 386.356765 213.078458 
L 386.986605 212.85456 
L 387.742412 212.322415 
L 388.49822 211.50467 
L 389.379995 210.19358 
L 390.387738 208.232238 
L 391.521449 205.45043 
L 392.781129 201.671369 
L 394.166776 196.720997 
L 395.67839 190.440186 
L 397.441941 182.067763 
L 399.457428 171.320402 
L 401.850818 157.285269 
L 405.377919 135.095131 
L 410.668572 101.843214 
L 413.18793 87.46737 
L 415.203416 77.185632 
L 416.966967 69.300876 
L 418.478582 63.490293 
L 419.864229 59.007351 
L 421.123908 55.678625 
L 422.257619 53.319028 
L 423.265362 51.743622 
L 424.147138 50.776449 
L 424.902945 50.256798 
L 425.658753 50.024689 
L 426.288592 50.051537 
L 426.918432 50.278589 
L 427.674239 50.8145 
L 428.430047 51.635981 
L 429.311822 52.951372 
L 430.319565 54.917528 
L 431.453276 57.704588 
L 432.712956 61.48923 
L 434.098603 66.445369 
L 435.610217 72.73195 
L 437.373768 81.110312 
L 439.389255 91.863275 
L 441.782645 105.903237 
L 445.309746 128.096562 
L 450.600399 161.344145 
L 453.119757 175.714247 
L 455.135243 185.989866 
L 456.898794 193.868284 
L 458.410409 199.6728 
L 459.796056 204.149743 
L 461.055735 207.472714 
L 462.189446 209.826933 
L 463.197189 211.397438 
L 464.078965 212.360253 
L 464.834772 212.876136 
L 465.59058 213.10446 
L 466.220419 213.074453 
L 466.850259 212.844247 
L 467.606066 212.304569 
L 468.361874 211.479353 
L 469.243649 210.159662 
L 470.251392 208.188693 
L 471.385103 205.396384 
L 472.644783 201.606163 
L 474.03043 196.644259 
L 475.542044 190.351912 
L 477.305595 181.967616 
L 479.321082 171.209057 
L 481.714472 157.164275 
L 485.241573 134.967777 
L 490.532226 101.724548 
L 493.051584 87.360197 
L 495.06707 77.090703 
L 496.830621 69.218628 
L 498.342236 63.420183 
L 499.727883 58.949242 
L 500.987562 55.632029 
L 502.121273 53.283189 
L 503.129016 51.717586 
L 504.010792 50.759128 
L 504.766599 50.247014 
L 505.522407 50.022476 
L 506.152246 50.055641 
L 506.782086 50.289 
L 507.537893 50.832445 
L 508.293701 51.661396 
L 509.175476 52.985386 
L 510.183219 54.961167 
L 511.31693 57.758724 
L 512.57661 61.554521 
L 513.962257 66.522186 
L 515.473871 72.820296 
L 517.237422 81.21052 
L 519.252909 91.974669 
L 521.646299 106.024262 
L 525.1734 128.22392 
L 530.464053 161.462774 
L 532.983411 175.821367 
L 534.998897 186.084729 
L 536.762448 193.950457 
L 538.274063 199.742827 
L 539.65971 204.207763 
L 540.919389 207.519217 
L 542.0531 209.862676 
L 543.060843 211.423376 
L 543.942619 212.377476 
L 544.698426 212.885821 
L 545.454234 213.106572 
L 546.084073 213.070249 
L 546.713913 212.833737 
L 547.46972 212.286526 
L 548.225528 211.453841 
L 549.107303 210.125552 
L 550.115046 208.14496 
L 551.248757 205.342157 
L 552.508437 201.540786 
L 553.894084 196.567362 
L 555.405698 190.263494 
L 557.169249 181.867346 
L 559.184736 171.097616 
L 561.578126 157.043219 
L 565.105227 134.840416 
L 570.39588 101.605955 
L 572.915238 87.253131 
L 574.930724 76.995906 
L 576.694275 69.136531 
L 578.20589 63.350239 
L 579.591537 58.89131 
L 580.851216 55.585618 
L 581.984927 53.247541 
L 582.99267 51.691745 
L 583.874446 50.742003 
L 584.630253 50.237428 
L 585.386061 50.020463 
L 586.0159 50.059945 
L 586.64574 50.29961 
L 587.401547 50.850587 
L 588.157355 51.687006 
L 589.03913 53.019592 
L 590.046873 55.004993 
L 591.180584 57.813041 
L 592.440264 61.619984 
L 593.825911 66.599163 
L 595.337525 72.908786 
L 597.101076 81.310852 
L 599.116563 92.086159 
L 601.509953 106.14535 
L 602.391728 111.579253 
L 602.391728 111.579253 
" clip-path="url(#p57f87f1020)" style="fill: none; stroke: #1f77b4; stroke-width: 1.5; stroke-linecap: square"/>
   </g>
   <g id="line2d_28">
    <path d="M 86.553143 131.564009 
L 90.33218 131.457994 
L 92.473635 131.163785 
L 94.237185 130.704448 
L 95.874768 130.057977 
L 97.512351 129.167456 
L 99.149934 128.008178 
L 100.787517 126.562583 
L 102.425099 124.820655 
L 104.18865 122.610955 
L 106.078169 119.868026 
L 108.093655 116.539643 
L 110.361078 112.353512 
L 113.132372 106.728413 
L 117.163345 97.96398 
L 121.950125 87.657271 
L 124.469483 82.747201 
L 126.48497 79.270209 
L 128.248521 76.649026 
L 129.760135 74.768979 
L 131.145782 73.378224 
L 132.405462 72.413587 
L 133.539173 71.805006 
L 134.672884 71.45438 
L 135.680627 71.367297 
L 136.68837 71.497631 
L 137.696114 71.849995 
L 138.703857 72.427797 
L 139.837568 73.349953 
L 140.971279 74.561327 
L 142.230958 76.245367 
L 143.616605 78.503779 
L 145.12822 81.440868 
L 146.765803 85.158092 
L 148.529354 89.746833 
L 150.54484 95.669021 
L 152.812263 103.082306 
L 155.457589 112.531156 
L 159.110658 126.481811 
L 165.786957 152.089854 
L 168.558251 161.74551 
L 170.825674 168.846285 
L 172.715192 174.080388 
L 174.478743 178.323514 
L 175.990358 181.42047 
L 177.376005 183.79316 
L 178.635684 185.546437 
L 179.769395 186.786145 
L 180.903106 187.699474 
L 181.91085 188.234505 
L 182.918593 188.508018 
L 183.800368 188.533187 
L 184.682144 188.359742 
L 185.689887 187.921001 
L 186.69763 187.229946 
L 187.831341 186.158118 
L 188.965052 184.784447 
L 190.224732 182.919079 
L 191.610379 180.477758 
L 193.247961 177.106789 
L 195.011512 172.949674 
L 197.026999 167.628607 
L 199.546357 160.311809 
L 203.199426 148.913986 
L 208.867982 131.225213 
L 211.513308 123.720619 
L 213.654763 118.270237 
L 215.544281 114.035479 
L 217.181864 110.860608 
L 218.693479 108.373835 
L 220.079126 106.489874 
L 221.338805 105.117489 
L 222.598484 104.076281 
L 223.732195 103.425277 
L 224.865906 103.045589 
L 225.87365 102.93433 
L 226.881393 103.033139 
L 227.889136 103.337909 
L 229.022847 103.920205 
L 230.156559 104.746769 
L 231.416238 105.93768 
L 232.801885 107.557707 
L 234.3135 109.663433 
L 236.07705 112.513147 
L 238.092537 116.199782 
L 240.737863 121.544316 
L 250.185456 141.156623 
L 252.200943 144.621784 
L 253.964493 147.248039 
L 255.602076 149.293373 
L 256.987723 150.697691 
L 258.37337 151.781751 
L 259.633049 152.476218 
L 260.76676 152.856849 
L 261.900472 153.001677 
L 263.034183 152.908696 
L 264.167894 152.577966 
L 265.301605 152.011616 
L 266.561284 151.11114 
L 267.820963 149.933618 
L 269.20661 148.332302 
L 270.718225 146.242131 
L 272.481776 143.390999 
L 274.497262 139.659385 
L 276.890653 134.704719 
L 280.03985 127.621706 
L 286.590182 112.768873 
L 288.983572 107.962028 
L 290.999058 104.405186 
L 292.762609 101.747702 
L 294.274224 99.856027 
L 295.659871 98.464814 
L 296.91955 97.503072 
L 298.053261 96.895371 
L 299.186972 96.539652 
L 300.194716 96.439375 
L 301.202459 96.544864 
L 302.210202 96.857227 
L 303.343913 97.455616 
L 304.477625 98.31328 
L 305.737304 99.564968 
L 307.122951 101.294515 
L 308.634566 103.584038 
L 310.272148 106.508101 
L 312.035699 110.126357 
L 314.051186 114.779989 
L 316.444576 120.883952 
L 319.719742 129.906772 
L 326.647977 149.17036 
L 329.167335 155.417076 
L 331.182821 159.858769 
L 332.946372 163.247936 
L 334.583955 165.921686 
L 335.969602 167.795318 
L 337.229281 169.169957 
L 338.48896 170.218051 
L 339.622671 170.873851 
L 340.630414 171.223792 
L 341.638158 171.352165 
L 342.645901 171.258161 
L 343.653644 170.942314 
L 344.661387 170.406504 
L 345.795099 169.544842 
L 347.054778 168.273788 
L 348.314457 166.684212 
L 349.700104 164.585748 
L 351.337687 161.66528 
L 353.101237 158.037689 
L 355.116724 153.363817 
L 357.510114 147.23273 
L 360.911248 137.829278 
L 367.209643 120.301572 
L 369.729001 113.990935 
L 371.870456 109.217456 
L 373.634006 105.790073 
L 375.271589 103.07279 
L 376.783204 100.999042 
L 378.168851 99.487857 
L 379.42853 98.451314 
L 380.562241 97.800424 
L 381.695953 97.420842 
L 382.703696 97.312709 
L 383.711439 97.42024 
L 384.719182 97.741936 
L 385.852894 98.356261 
L 386.986605 99.232008 
L 388.246284 100.501792 
L 389.631931 102.243068 
L 391.143546 104.528338 
L 392.781129 107.418907 
L 394.670647 111.225189 
L 396.93807 116.339054 
L 399.835331 123.483706 
L 408.401149 145.028153 
L 410.668572 149.942926 
L 412.55809 153.545567 
L 414.195673 156.238277 
L 415.707288 158.328585 
L 417.092935 159.885171 
L 418.352614 160.985681 
L 419.486325 161.710729 
L 420.620036 162.178438 
L 421.62778 162.375225 
L 422.635523 162.36476 
L 423.643266 162.147281 
L 424.776977 161.657162 
L 425.910688 160.911255 
L 427.170368 159.79017 
L 428.430047 158.372609 
L 429.815694 156.488224 
L 431.453276 153.853321 
L 433.216827 150.571162 
L 435.232314 146.337658 
L 437.751672 140.48379 
L 441.404741 131.345918 
L 446.569425 118.483837 
L 449.088784 112.81331 
L 451.10427 108.779442 
L 452.867821 105.706888 
L 454.505404 103.292592 
L 455.891051 101.612001 
L 457.15073 100.391468 
L 458.410409 99.476897 
L 459.54412 98.923538 
L 460.677831 98.630959 
L 461.685574 98.592199 
L 462.693318 98.762429 
L 463.701061 99.140956 
L 464.834772 99.813216 
L 465.968483 100.741668 
L 467.228162 102.065288 
L 468.613809 103.861839 
L 470.125424 106.204981 
L 471.763007 109.158166 
L 473.652526 113.040253 
L 475.919948 118.255314 
L 478.691242 125.225822 
L 488.264803 149.82051 
L 490.406258 154.470604 
L 492.295776 158.065399 
L 493.933359 160.730561 
L 495.444974 162.77876 
L 496.830621 164.283022 
L 498.0903 165.324851 
L 499.224011 165.988254 
L 500.357722 166.386151 
L 501.365466 166.514193 
L 502.373209 166.428843 
L 503.380952 166.130491 
L 504.514663 165.54244 
L 505.648375 164.691472 
L 506.908054 163.445598 
L 508.293701 161.723868 
L 509.805316 159.448901 
L 511.442898 156.553001 
L 513.332417 152.714723 
L 515.473871 147.822693 
L 518.119198 141.182117 
L 522.528074 129.385382 
L 526.559047 118.825568 
L 529.078406 112.818117 
L 531.093892 108.533018 
L 532.857443 105.2548 
L 534.495026 102.661756 
L 536.006641 100.691309 
L 537.392288 99.266007 
L 538.651967 98.300914 
L 539.785678 97.709495 
L 540.793421 97.408063 
L 541.801164 97.319554 
L 542.808908 97.444363 
L 543.816651 97.781551 
L 544.950362 98.411872 
L 546.084073 99.302864 
L 547.343752 100.589664 
L 548.729399 102.350953 
L 550.241014 104.66112 
L 551.878597 107.584083 
L 553.768116 111.437092 
L 555.90957 116.32176 
L 558.680864 123.239414 
L 568.506361 148.367058 
L 570.647815 152.968624 
L 572.537334 156.51603 
L 574.174917 159.137895 
L 575.686532 161.145362 
L 577.072179 162.612549 
L 578.331858 163.62163 
L 579.465569 164.256916 
L 580.59928 164.628503 
L 581.607023 164.735094 
L 582.614767 164.630492 
L 583.62251 164.315452 
L 584.756221 163.712135 
L 585.889932 162.850098 
L 587.149611 161.597436 
L 588.535258 159.875665 
L 590.046873 157.610416 
L 591.684456 154.737569 
L 593.573975 150.943341 
L 595.715429 146.125278 
L 598.486723 139.291693 
L 602.391728 129.11023 
L 602.391728 129.11023 
" clip-path="url(#p57f87f1020)" style="fill: none; stroke: #ff7f0e; stroke-width: 1.5; stroke-linecap: square"/>
   </g>
   <g id="patch_3">
    <path d="M 60.761214 221.272 
L 60.761214 41.856 
" style="fill: none; stroke: #000000; stroke-width: 0.8; stroke-linejoin: miter; stroke-linecap: square"/>
   </g>
   <g id="patch_4">
    <path d="M 628.183658 221.272 
L 628.183658 41.856 
" style="fill: none; stroke: #000000; stroke-width: 0.8; stroke-linejoin: miter; stroke-linecap: square"/>
   </g>
   <g id="patch_5">
    <path d="M 60.761214 221.272 
L 628.183658 221.272 
" style="fill: none; stroke: #000000; stroke-width: 0.8; stroke-linejoin: miter; stroke-linecap: square"/>
   </g>
   <g id="patch_6">
    <path d="M 60.761214 41.856 
L 628.183658 41.856 
" style="fill: none; stroke: #000000; stroke-width: 0.8; stroke-linejoin: miter; stroke-linecap: square"/>
   </g>
   <g id="text_16">
    <!-- Daily Useless RLC (2026-02-01) | verdict: feral -->
    <g transform="translate(205.388686 22.021875) scale(0.12 -0.12)">
     <defs>
      <path id="DejaVuSans-44" d="M 1259 4147 
L 1259 519 
L 2022 519 
Q 2988 519 3436 956 
Q 3884 1394 3884 2338 
Q 3884 3275 3436 3711 
Q 2988 4147 2022 4147 
L 1259 4147 
z
M 628 4666 
L 1925 4666 
Q 3281 4666 3915 4102 
Q 4550 3538 4550 2338 
Q 4550 1131 3912 565 
Q 3275 0 1925 0 
L 628 0 
L 628 4666 
z
" transform="scale(0.015625)"/>
      <path id="DejaVuSans-69" d="M 603 3500 
L 1178 3500 
L 1178 0 
L 603 0 
L 603 3500 
z
M 603 4863 
L 1178 4863 
L 1178 4134 
L 603 4134 
L 603 4863 
z
" transform="scale(0.015625)"/>
      <path id="DejaVuSans-6c" d="M 603 4863 
L 1178 4863 
L 1178 0 
L 603 0 
L 603 4863 
z
" transform="scale(0.015625)"/>
      <path id="DejaVuSans-79" d="M 2059 -325 
Q 1816 -950 1584 -1140 
Q 1353 -1331 966 -1331 
L 506 -1331 
L 506 -850 
L 844 -850 
Q 1081 -850 1212 -737 
Q 1344 -625 1503 -206 
L 1606 56 
L 191 3500 
L 800 3500 
L 1894 763 
L 2988 3500 
L 3597 3500 
L 2059 -325 
z
" transform="scale(0.015625)"/>
      <path id="DejaVuSans-55" d="M 556 4666 
L 1191 4666 
L 1191 1831 
Q 1191 1081 1462 751 
Q 1734 422 2344 422 
Q 2950 422 3222 751 
Q 3494 1081 3494 1831 
L 3494 4666 
L 4128 4666 
L 4128 1753 
Q 4128 841 3676 375 
Q 3225 -91 2344 -91 
Q 1459 -91 1007 375 
Q 556 841 556 1753 
L 556 4666 
z
" transform="scale(0.015625)"/>
      <path id="DejaVuSans-73" d="M 2834 3397 
L 2834 2853 
Q 2591 2978 2328 3040 
Q 2066 3103 1784 3103 
Q 1356 3103 1142 2972 
Q 928 2841 928 2578 
Q 928 2378 1081 2264 
Q 1234 2150 1697 2047 
L 1894 2003 
Q 2506 1872 2764 1633 
Q 3022 1394 3022 966 
Q 3022 478 2636 193 
Q 2250 -91 1575 -91 
Q 1294 -91 989 -36 
Q 684 19 347 128 
L 347 722 
Q 666 556 975 473 
Q 1284 391 1588 391 
Q 1994 391 2212 530 
Q 2431 669 2431 922 
Q 2431 1156 2273 1281 
Q 2116 1406 1581 1522 
L 1381 1569 
Q 847 1681 609 1914 
Q 372 2147 372 2553 
Q 372 3047 722 3315 
Q 1072 3584 1716 3584 
Q 2034 3584 2315 3537 
Q 2597 3491 2834 3397 
z
" transform="scale(0.015625)"/>
      <path id="DejaVuSans-65" d="M 3597 1894 
L 3597 1613 
L 953 1613 
Q 991 1019 1311 708 
Q 1631 397 2203 397 
Q 2534 397 2845 478 
Q 3156 559 3463 722 
L 3463 178 
Q 3153 47 2828 -22 
Q 2503 -91 2169 -91 
Q 1331 -91 842 396 
Q 353 884 353 1716 
Q 353 2575 817 3079 
Q 1281 3584 2069 3584 
Q 2775 3584 3186 3129 
Q 3597 2675 3597 1894 
z
M 3022 2063 
Q 3016 2534 2758 2815 
Q 2500 3097 2075 3097 
Q 1594 3097 1305 2825 
Q 1016 2553 972 2059 
L 3022 2063 
z
" transform="scale(0.015625)"/>
      <path id="DejaVuSans-52" d="M 2841 2188 
Q 3044 2119 3236 1894 
Q 3428 1669 3622 1275 
L 4263 0 
L 3584 0 
L 2988 1197 
Q 2756 1666 2539 1819 
Q 2322 1972 1947 1972 
L 1259 1972 
L 1259 0 
L 628 0 
L 628 4666 
L 2053 4666 
Q 2853 4666 3247 4331 
Q 3641 3997 3641 3322 
Q 3641 2881 3436 2590 
Q 3231 2300 2841 2188 
z
M 1259 4147 
L 1259 2491 
L 2053 2491 
Q 2509 2491 2742 2702 
Q 2975 2913 2975 3322 
Q 2975 3731 2742 3939 
Q 2509 4147 2053 4147 
L 1259 4147 
z
" transform="scale(0.015625)"/>
      <path id="DejaVuSans-4c" d="M 628 4666 
L 1259 4666 
L 1259 531 
L 3531 531 
L 3531 0 
L 628 0 
L 628 4666 
z
" transform="scale(0.015625)"/>
      <path id="DejaVuSans-43" d="M 4122 4306 
L 4122 3641 
Q 3803 3938 3442 4084 
Q 3081 4231 2675 4231 
Q 1875 4231 1450 3742 
Q 1025 3253 1025 2328 
Q 1025 1406 1450 917 
Q 1875 428 2675 428 
Q 3081 428 3442 575 
Q 3803 722 4122 1019 
L 4122 359 
Q 3791 134 3420 21 
Q 3050 -91 2638 -91 
Q 1578 -91 968 557 
Q 359 1206 359 2328 
Q 359 3453 968 4101 
Q 1578 4750 2638 4750 
Q 3056 4750 3426 4639 
Q 3797 4528 4122 4306 
z
" transform="scale(0.015625)"/>
      <path id="DejaVuSans-28" d="M 1984 4856 
Q 1566 4138 1362 3434 
Q 1159 2731 1159 2009 
Q 1159 1288 1364 580 
Q 1569 -128 1984 -844 
L 1484 -844 
Q 1016 -109 783 600 
Q 550 1309 550 2009 
Q 550 2706 781 3412 
Q 1013 4119 1484 4856 
L 1984 4856 
z
" transform="scale(0.015625)"/>
      <path id="DejaVuSans-2d" d="M 313 2009 
L 1997 2009 
L 1997 1497 
L 313 1497 
L 313 2009 
z
" transform="scale(0.015625)"/>
      <path id="DejaVuSans-29" d="M 513 4856 
L 1013 4856 
Q 1481 4119 1714 3412 
Q 1947 2706 1947 2009 
Q 1947 1309 1714 600 
Q 1481 -109 1013 -844 
L 513 -844 
Q 928 -128 1133 580 
Q 1338 1288 1338 2009 
Q 1338 2731 1133 3434 
Q 928 4138 513 4856 
z
" transform="scale(0.015625)"/>
      <path id="DejaVuSans-7c" d="M 1344 4891 
L 1344 -1509 
L 813 -1509 
L 813 4891 
L 1344 4891 
z
" transform="scale(0.015625)"/>
      <path id="DejaVuSans-76" d="M 191 3500 
L 800 3500 
L 1894 563 
L 2988 3500 
L 3597 3500 
L 2284 0 
L 1503 0 
L 191 3500 
z
" transform="scale(0.015625)"/>
      <path id="DejaVuSans-64" d="M 2906 2969 
L 2906 4863 
L 3481 4863 
L 3481 0 
L 2906 0 
L 2906 525 
Q 2725 213 2448 61 
Q 2172 -91 1784 -91 
Q 1150 -91 751 415 
Q 353 922 353 1747 
Q 353 2572 751 3078 
Q 1150 3584 1784 3584 
Q 2172 3584 2448 3432 
Q 2725 3281 2906 2969 
z
M 947 1747 
Q 947 1113 1208 752 
Q 1469 391 1925 391 
Q 2381 391 2643 752 
Q 2906 1113 2906 1747 
Q 2906 2381 2643 2742 
Q 2381 3103 1925 3103 
Q 1469 3103 1208 2742 
Q 947 2381 947 1747 
z
" transform="scale(0.015625)"/>
      <path id="DejaVuSans-63" d="M 3122 3366 
L 3122 2828 
Q 2878 2963 2633 3030 
Q 2388 3097 2138 3097 
Q 1578 3097 1268 2742 
Q 959 2388 959 1747 
Q 959 1106 1268 751 
Q 1578 397 2138 397 
Q 2388 397 2633 464 
Q 2878 531 3122 666 
L 3122 134 
Q 2881 22 2623 -34 
Q 2366 -91 2075 -91 
Q 1284 -91 818 406 
Q 353 903 353 1747 
Q 353 2603 823 3093 
Q 1294 3584 2113 3584 
Q 2378 3584 2631 3529 
Q 2884 3475 3122 3366 
z
" transform="scale(0.015625)"/>
      <path id="DejaVuSans-3a" d="M 750 794 
L 1409 794 
L 1409 0 
L 750 0 
L 750 794 
z
M 750 3309 
L 1409 3309 
L 1409 2516 
L 750 2516 
L 750 3309 
z
" transform="scale(0.015625)"/>
      <path id="DejaVuSans-66" d="M 2375 4863 
L 2375 4384 
L 1825 4384 
Q 1516 4384 1395 4259 
Q 1275 4134 1275 3809 
L 1275 3500 
L 2222 3500 
L 2222 3053 
L 1275 3053 
L 1275 0 
L 697 0 
L 697 3053 
L 147 3053 
L 147 3500 
L 697 3500 
L 697 3744 
Q 697 4328 969 4595 
Q 1241 4863 1831 4863 
L 2375 4863 
z
" transform="scale(0.015625)"/>
     </defs>
     <use xlink:href="#DejaVuSans-44"/>
     <use xlink:href="#DejaVuSans-61" transform="translate(77.001953 0)"/>
     <use xlink:href="#DejaVuSans-69" transform="translate(138.28125 0)"/>
     <use xlink:href="#DejaVuSans-6c" transform="translate(166.064453 0)"/>
     <use xlink:href="#DejaVuSans-79" transform="translate(193.847656 0)"/>
     <use xlink:href="#DejaVuSans-20" transform="translate(253.027344 0)"/>
     <use xlink:href="#DejaVuSans-55" transform="translate(284.814453 0)"/>
     <use xlink:href="#DejaVuSans-73" transform="translate(358.007812 0)"/>
     <use xlink:href="#DejaVuSans-65" transform="translate(410.107422 0)"/>
     <use xlink:href="#DejaVuSans-6c" transform="translate(471.630859 0)"/>
     <use xlink:href="#DejaVuSans-65" transform="translate(499.414062 0)"/>
     <use xlink:href="#DejaVuSans-73" transform="translate(560.9375 0)"/>
     <use xlink:href="#DejaVuSans-73" transform="translate(613.037109 0)"/>
     <use xlink:href="#DejaVuSans-20" transform="translate(665.136719 0)"/>
     <use xlink:href="#DejaVuSans-52" transform="translate(696.923828 0)"/>
     <use xlink:href="#DejaVuSans-4c" transform="translate(766.40625 0)"/>
     <use xlink:href="#DejaVuSans-43" transform="translate(822.119141 0)"/>
     <use xlink:href="#DejaVuSans-20" transform="translate(891.943359 0)"/>
     <use xlink:href="#DejaVuSans-28" transform="translate(923.730469 0)"/>
     <use xlink:href="#DejaVuSans-32" transform="translate(962.744141 0)"/>
     <use xlink:href="#DejaVuSans-30" transform="translate(1026.367188 0)"/>
     <use xlink:href="#DejaVuSans-32" transform="translate(1089.990234 0)"/>
     <use xlink:href="#DejaVuSans-36" transform="translate(1153.613281 0)"/>
     <use xlink:href="#DejaVuSans-2d" transform="translate(1217.236328 0)"/>
     <use xlink:href="#DejaVuSans-30" transform="translate(1253.320312 0)"/>
     <use xlink:href="#DejaVuSans-32" transform="translate(1316.943359 0)"/>
     <use xlink:href="#DejaVuSans-2d" transform="translate(1380.566406 0)"/>
     <use xlink:href="#DejaVuSans-30" transform="translate(1416.650391 0)"/>
     <use xlink:href="#DejaVuSans-31" transform="translate(1480.273438 0)"/>
     <use xlink:href="#DejaVuSans-29" transform="translate(1543.896484 0)"/>
     <use xlink:href="#DejaVuSans-20" transform="translate(1582.910156 0)"/>
     <use xlink:href="#DejaVuSans-7c" transform="translate(1614.697266 0)"/>
     <use xlink:href="#DejaVuSans-20" transform="translate(1648.388672 0)"/>
     <use xlink:href="#DejaVuSans-76" transform="translate(1680.175781 0)"/>
     <use xlink:href="#DejaVuSans-65" transform="translate(1739.355469 0)"/>
     <use xlink:href="#DejaVuSans-72" transform="translate(1800.878906 0)"/>
     <use xlink:href="#DejaVuSans-64" transform="translate(1840.242188 0)"/>
     <use xlink:href="#DejaVuSans-69" transform="translate(1903.71875 0)"/>
     <use xlink:href="#DejaVuSans-63" transform="translate(1931.501953 0)"/>
     <use xlink:href="#DejaVuSans-74" transform="translate(1986.482422 0)"/>
     <use xlink:href="#DejaVuSans-3a" transform="translate(2025.691406 0)"/>
     <use xlink:href="#DejaVuSans-20" transform="translate(2059.382812 0)"/>
     <use xlink:href="#DejaVuSans-66" transform="translate(2091.169922 0)"/>
     <use xlink:href="#DejaVuSans-65" transform="translate(2126.375 0)"/>
     <use xlink:href="#DejaVuSans-72" transform="translate(2187.898438 0)"/>
     <use xlink:href="#DejaVuSans-61" transform="translate(2229.011719 0)"/>
     <use xlink:href="#DejaVuSans-6c" transform="translate(2290.291016 0)"/>
    </g>
    <!-- Filter: low | Input: sine, sine (A=1.40, f=0.65 Hz) | R=1.882, L=2.00, C=0.10, ωn=2.24, ζ=0.210, Q=2.38 -->
    <g transform="translate(27.518686 35.856) scale(0.12 -0.12)">
     <defs>
      <path id="DejaVuSans-46" d="M 628 4666 
L 3309 4666 
L 3309 4134 
L 1259 4134 
L 1259 2759 
L 3109 2759 
L 3109 2228 
L 1259 2228 
L 1259 0 
L 628 0 
L 628 4666 
z
" transform="scale(0.015625)"/>
      <path id="DejaVuSans-6f" d="M 1959 3097 
Q 1497 3097 1228 2736 
Q 959 2375 959 1747 
Q 959 1119 1226 758 
Q 1494 397 1959 397 
Q 2419 397 2687 759 
Q 2956 1122 2956 1747 
Q 2956 2369 2687 2733 
Q 2419 3097 1959 3097 
z
M 1959 3584 
Q 2709 3584 3137 3096 
Q 3566 2609 3566 1747 
Q 3566 888 3137 398 
Q 2709 -91 1959 -91 
Q 1206 -91 779 398 
Q 353 888 353 1747 
Q 353 2609 779 3096 
Q 1206 3584 1959 3584 
z
" transform="scale(0.015625)"/>
      <path id="DejaVuSans-77" d="M 269 3500 
L 844 3500 
L 1563 769 
L 2278 3500 
L 2956 3500 
L 3675 769 
L 4391 3500 
L 4966 3500 
L 4050 0 
L 3372 0 
L 2619 2869 
L 1863 0 
L 1184 0 
L 269 3500 
z
" transform="scale(0.015625)"/>
      <path id="DejaVuSans-49" d="M 628 4666 
L 1259 4666 
L 1259 0 
L 628 0 
L 628 4666 
z
" transform="scale(0.015625)"/>
      <path id="DejaVuSans-6e" d="M 3513 2113 
L 3513 0 
L 2938 0 
L 2938 2094 
Q 2938 2591 2744 2837 
Q 2550 3084 2163 3084 
Q 1697 3084 1428 2787 
Q 1159 2491 1159 1978 
L 1159 0 
L 581 0 
L 581 3500 
L 1159 3500 
L 1159 2956 
Q 1366 3272 1645 3428 
Q 1925 3584 2291 3584 
Q 2894 3584 3203 3211 
Q 3513 2838 3513 2113 
z
" transform="scale(0.015625)"/>
      <path id="DejaVuSans-70" d="M 1159 525 
L 1159 -1331 
L 581 -1331 
L 581 3500 
L 1159 3500 
L 1159 2969 
Q 1341 3281 1617 3432 
Q 1894 3584 2278 3584 
Q 2916 3584 3314 3078 
Q 3713 2572 3713 1747 
Q 3713 922 3314 415 
Q 2916 -91 2278 -91 
Q 1894 -91 1617 61 
Q 1341 213 1159 525 
z
M 3116 1747 
Q 3116 2381 2855 2742 
Q 2594 3103 2138 3103 
Q 1681 3103 1420 2742 
Q 1159 2381 1159 1747 
Q 1159 1113 1420 752 
Q 1681 391 2138 391 
Q 2594 391 2855 752 
Q 3116 1113 3116 1747 
z
" transform="scale(0.015625)"/>
      <path id="DejaVuSans-75" d="M 544 1381 
L 544 3500 
L 1119 3500 
L 1119 1403 
Q 1119 906 1312 657 
Q 1506 409 1894 409 
Q 2359 409 2629 706 
Q 2900 1003 2900 1516 
L 2900 3500 
L 3475 3500 
L 3475 0 
L 2900 0 
L 2900 538 
Q 2691 219 2414 64 
Q 2138 -91 1772 -91 
Q 1169 -91 856 284 
Q 544 659 544 1381 
z
M 1991 3584 
L 1991 3584 
z
" transform="scale(0.015625)"/>
      <path id="DejaVuSans-2c" d="M 750 794 
L 1409 794 
L 1409 256 
L 897 -744 
L 494 -744 
L 750 256 
L 750 794 
z
" transform="scale(0.015625)"/>
      <path id="DejaVuSans-41" d="M 2188 4044 
L 1331 1722 
L 3047 1722 
L 2188 4044 
z
M 1831 4666 
L 2547 4666 
L 4325 0 
L 3669 0 
L 3244 1197 
L 1141 1197 
L 716 0 
L 50 0 
L 1831 4666 
z
" transform="scale(0.015625)"/>
      <path id="DejaVuSans-3d" d="M 678 2906 
L 4684 2906 
L 4684 2381 
L 678 2381 
L 678 2906 
z
M 678 1631 
L 4684 1631 
L 4684 1100 
L 678 1100 
L 678 1631 
z
" transform="scale(0.015625)"/>
      <path id="DejaVuSans-48" d="M 628 4666 
L 1259 4666 
L 1259 2753 
L 3553 2753 
L 3553 4666 
L 4184 4666 
L 4184 0 
L 3553 0 
L 3553 2222 
L 1259 2222 
L 1259 0 
L 628 0 
L 628 4666 
z
" transform="scale(0.015625)"/>
      <path id="DejaVuSans-7a" d="M 353 3500 
L 3084 3500 
L 3084 2975 
L 922 459 
L 3084 459 
L 3084 0 
L 275 0 
L 275 525 
L 2438 3041 
L 353 3041 
L 353 3500 
z
" transform="scale(0.015625)"/>
      <path id="DejaVuSans-3c9" d="M 1719 -91 
Q 422 -91 422 1766 
Q 422 2500 906 3500 
L 1525 3500 
Q 1078 2500 1078 1750 
Q 1078 397 1772 397 
Q 2406 397 2406 2078 
L 2938 2078 
Q 2938 397 3572 397 
Q 4266 397 4266 1750 
Q 4266 2500 3819 3500 
L 4438 3500 
Q 4922 2500 4922 1766 
Q 4922 -91 3625 -91 
Q 2775 -91 2672 844 
Q 2544 -91 1719 -91 
z
" transform="scale(0.015625)"/>
      <path id="DejaVuSans-3b6" d="M 2231 397 
Q 2644 394 2891 159 
Q 3153 -88 3153 -463 
Q 3153 -822 2922 -1072 
Q 2672 -1344 2163 -1344 
Q 2163 -1109 2163 -872 
Q 2378 -888 2509 -750 
Q 2609 -641 2609 -525 
Q 2609 -359 2509 -222 
Q 2413 -91 2231 -91 
Q 338 -91 334 1669 
Q 334 3206 2119 4284 
L 456 4284 
L 456 4863 
L 3175 4863 
L 3175 4284 
Q 913 3147 913 1669 
Q 913 397 2231 397 
z
" transform="scale(0.015625)"/>
      <path id="DejaVuSans-51" d="M 2522 4238 
Q 1834 4238 1429 3725 
Q 1025 3213 1025 2328 
Q 1025 1447 1429 934 
Q 1834 422 2522 422 
Q 3209 422 3611 934 
Q 4013 1447 4013 2328 
Q 4013 3213 3611 3725 
Q 3209 4238 2522 4238 
z
M 3406 84 
L 4238 -825 
L 3475 -825 
L 2784 -78 
Q 2681 -84 2626 -87 
Q 2572 -91 2522 -91 
Q 1538 -91 948 567 
Q 359 1225 359 2328 
Q 359 3434 948 4092 
Q 1538 4750 2522 4750 
Q 3503 4750 4090 4092 
Q 4678 3434 4678 2328 
Q 4678 1516 4351 937 
Q 4025 359 3406 84 
z
" transform="scale(0.015625)"/>
      <path id="DejaVuSans-33" d="M 2597 2516 
Q 3050 2419 3304 2112 
Q 3559 1806 3559 1356 
Q 3559 666 3084 287 
Q 2609 -91 1734 -91 
Q 1441 -91 1130 -33 
Q 819 25 488 141 
L 488 750 
Q 750 597 1062 519 
Q 1375 441 1716 441 
Q 2309 441 2620 675 
Q 2931 909 2931 1356 
Q 2931 1769 2642 2001 
Q 2353 2234 1838 2234 
L 1294 2234 
L 1294 2753 
L 1863 2753 
Q 2328 2753 2575 2939 
Q 2822 3125 2822 3475 
Q 2822 3834 2567 4026 
Q 2313 4219 1838 4219 
Q 1578 4219 1281 4162 
Q 984 4106 628 3988 
L 628 4550 
Q 988 4650 1302 4700 
Q 1616 4750 1894 4750 
Q 2613 4750 3031 4423 
Q 3450 4097 3450 3541 
Q 3450 3153 3228 2886 
Q 3006 2619 2597 2516 
z
" transform="scale(0.015625)"/>
     </defs>
     <use xlink:href="#DejaVuSans-46"/>
     <use xlink:href="#DejaVuSans-69" transform="translate(50.269531 0)"/>
     <use xlink:href="#DejaVuSans-6c" transform="translate(78.052734 0)"/>
     <use xlink:href="#DejaVuSans-74" transform="translate(105.835938 0)"/>
     <use xlink:href="#DejaVuSans-65" transform="translate(145.044922 0)"/>
     <use xlink:href="#DejaVuSans-72" transform="translate(206.568359 0)"/>
     <use xlink:href="#DejaVuSans-3a" transform="translate(245.931641 0)"/>
     <use xlink:href="#DejaVuSans-20" transform="translate(279.623047 0)"/>
     <use xlink:href="#DejaVuSans-6c" transform="translate(311.410156 0)"/>
     <use xlink:href="#DejaVuSans-6f" transform="translate(339.193359 0)"/>
     <use xlink:href="#DejaVuSans-77" transform="translate(400.375 0)"/>
     <use xlink:href="#DejaVuSans-20" transform="translate(482.162109 0)"/>
     <use xlink:href="#DejaVuSans-7c" transform="translate(513.949219 0)"/>
     <use xlink:href="#DejaVuSans-20" transform="translate(547.640625 0)"/>
     <use xlink:href="#DejaVuSans-49" transform="translate(579.427734 0)"/>
     <use xlink:href="#DejaVuSans-6e" transform="translate(608.919922 0)"/>
     <use xlink:href="#DejaVuSans-70" transform="translate(672.298828 0)"/>
     <use xlink:href="#DejaVuSans-75" transform="translate(735.775391 0)"/>
     <use xlink:href="#DejaVuSans-74" transform="translate(799.154297 0)"/>
     <use xlink:href="#DejaVuSans-3a" transform="translate(838.363281 0)"/>
     <use xlink:href="#DejaVuSans-20" transform="translate(872.054688 0)"/>
     <use xlink:href="#DejaVuSans-73" transform="translate(903.841797 0)"/>
     <use xlink:href="#DejaVuSans-69" transform="translate(955.941406 0)"/>
     <use xlink:href="#DejaVuSans-6e" transform="translate(983.724609 0)"/>
     <use xlink:href="#DejaVuSans-65" transform="translate(1047.103516 0)"/>
     <use xlink:href="#DejaVuSans-2c" transform="translate(1108.626953 0)"/>
     <use xlink:href="#DejaVuSans-20" transform="translate(1140.414062 0)"/>
     <use xlink:href="#DejaVuSans-73" transform="translate(1172.201172 0)"/>
     <use xlink:href="#DejaVuSans-69" transform="translate(1224.300781 0)"/>
     <use xlink:href="#DejaVuSans-6e" transform="translate(1252.083984 0)"/>
     <use xlink:href="#DejaVuSans-65" transform="translate(1315.462891 0)"/>
     <use xlink:href="#DejaVuSans-20" transform="translate(1376.986328 0)"/>
     <use xlink:href="#DejaVuSans-28" transform="translate(1408.773438 0)"/>
     <use xlink:href="#DejaVuSans-41" transform="translate(1447.787109 0)"/>
     <use xlink:href="#DejaVuSans-3d" transform="translate(1516.195312 0)"/>
     <use xlink:href="#DejaVuSans-31" transform="translate(1599.984375 0)"/>
     <use xlink:href="#DejaVuSans-2e" transform="translate(1663.607422 0)"/>
     <use xlink:href="#DejaVuSans-34" transform="translate(1695.394531 0)"/>
     <use xlink:href="#DejaVuSans-30" transform="translate(1759.017578 0)"/>
     <use xlink:href="#DejaVuSans-2c" transform="translate(1822.640625 0)"/>
     <use xlink:href="#DejaVuSans-20" transform="translate(1854.427734 0)"/>
     <use xlink:href="#DejaVuSans-66" transform="translate(1886.214844 0)"/>
     <use xlink:href="#DejaVuSans-3d" transform="translate(1921.419922 0)"/>
     <use xlink:href="#DejaVuSans-30" transform="translate(2005.208984 0)"/>
     <use xlink:href="#DejaVuSans-2e" transform="translate(2068.832031 0)"/>
     <use xlink:href="#DejaVuSans-36" transform="translate(2100.619141 0)"/>
     <use xlink:href="#DejaVuSans-35" transform="translate(2164.242188 0)"/>
     <use xlink:href="#DejaVuSans-20" transform="translate(2227.865234 0)"/>
     <use xlink:href="#DejaVuSans-48" transform="translate(2259.652344 0)"/>
     <use xlink:href="#DejaVuSans-7a" transform="translate(2334.847656 0)"/>
     <use xlink:href="#DejaVuSans-29" transform="translate(2387.337891 0)"/>
     <use xlink:href="#DejaVuSans-20" transform="translate(2426.351562 0)"/>
     <use xlink:href="#DejaVuSans-7c" transform="translate(2458.138672 0)"/>
     <use xlink:href="#DejaVuSans-20" transform="translate(2491.830078 0)"/>
     <use xlink:href="#DejaVuSans-52" transform="translate(2523.617188 0)"/>
     <use xlink:href="#DejaVuSans-3d" transform="translate(2593.099609 0)"/>
     <use xlink:href="#DejaVuSans-31" transform="translate(2676.888672 0)"/>
     <use xlink:href="#DejaVuSans-2e" transform="translate(2740.511719 0)"/>
     <use xlink:href="#DejaVuSans-38" transform="translate(2772.298828 0)"/>
     <use xlink:href="#DejaVuSans-38" transform="translate(2835.921875 0)"/>
     <use xlink:href="#DejaVuSans-32" transform="translate(2899.544922 0)"/>
     <use xlink:href="#DejaVuSans-2c" transform="translate(2963.167969 0)"/>
     <use xlink:href="#DejaVuSans-20" transform="translate(2994.955078 0)"/>
     <use xlink:href="#DejaVuSans-4c" transform="translate(3026.742188 0)"/>
     <use xlink:href="#DejaVuSans-3d" transform="translate(3082.455078 0)"/>
     <use xlink:href="#DejaVuSans-32" transform="translate(3166.244141 0)"/>
     <use xlink:href="#DejaVuSans-2e" transform="translate(3229.867188 0)"/>
     <use xlink:href="#DejaVuSans-30" transform="translate(3261.654297 0)"/>
     <use xlink:href="#DejaVuSans-30" transform="translate(3325.277344 0)"/>
     <use xlink:href="#DejaVuSans-2c" transform="translate(3388.900391 0)"/>
     <use xlink:href="#DejaVuSans-20" transform="translate(3420.6875 0)"/>
     <use xlink:href="#DejaVuSans-43" transform="translate(3452.474609 0)"/>
     <use xlink:href="#DejaVuSans-3d" transform="translate(3522.298828 0)"/>
     <use xlink:href="#DejaVuSans-30" transform="translate(3606.087891 0)"/>
     <use xlink:href="#DejaVuSans-2e" transform="translate(3669.710938 0)"/>
     <use xlink:href="#DejaVuSans-31" transform="translate(3701.498047 0)"/>
     <use xlink:href="#DejaVuSans-30" transform="translate(3765.121094 0)"/>
     <use xlink:href="#DejaVuSans-2c" transform="translate(3828.744141 0)"/>
     <use xlink:href="#DejaVuSans-20" transform="translate(3860.53125 0)"/>
     <use xlink:href="#DejaVuSans-3c9" transform="translate(3892.318359 0)"/>
     <use xlink:href="#DejaVuSans-6e" transform="translate(3976.058594 0)"/>
     <use xlink:href="#DejaVuSans-3d" transform="translate(4039.4375 0)"/>
     <use xlink:href="#DejaVuSans-32" transform="translate(4123.226562 0)"/>
     <use xlink:href="#DejaVuSans-2e" transform="translate(4186.849609 0)"/>
     <use xlink:href="#DejaVuSans-32" transform="translate(4218.636719 0)"/>
     <use xlink:href="#DejaVuSans-34" transform="translate(4282.259766 0)"/>
     <use xlink:href="#DejaVuSans-2c" transform="translate(4345.882812 0)"/>
     <use xlink:href="#DejaVuSans-20" transform="translate(4377.669922 0)"/>
     <use xlink:href="#DejaVuSans-3b6" transform="translate(4409.457031 0)"/>
     <use xlink:href="#DejaVuSans-3d" transform="translate(4463.851562 0)"/>
     <use xlink:href="#DejaVuSans-30" transform="translate(4547.640625 0)"/>
     <use xlink:href="#DejaVuSans-2e" transform="translate(4611.263672 0)"/>
     <use xlink:href="#DejaVuSans-32" transform="translate(4643.050781 0)"/>
     <use xlink:href="#DejaVuSans-31" transform="translate(4706.673828 0)"/>
     <use xlink:href="#DejaVuSans-30" transform="translate(4770.296875 0)"/>
     <use xlink:href="#DejaVuSans-2c" transform="translate(4833.919922 0)"/>
     <use xlink:href="#DejaVuSans-20" transform="translate(4865.707031 0)"/>
     <use xlink:href="#DejaVuSans-51" transform="translate(4897.494141 0)"/>
     <use xlink:href="#DejaVuSans-3d" transform="translate(4976.205078 0)"/>
     <use xlink:href="#DejaVuSans-32" transform="translate(5059.994141 0)"/>
     <use xlink:href="#DejaVuSans-2e" transform="translate(5123.617188 0)"/>
     <use xlink:href="#DejaVuSans-33" transform="translate(5155.404297 0)"/>
     <use xlink:href="#DejaVuSans-38" transform="translate(5219.027344 0)"/>
    </g>
   </g>
   <g id="legend_1">
    <g id="patch_7">
     <path d="M 67.761214 216.272 
L 132.744026 216.272 
Q 134.744026 216.272 134.744026 214.272 
L 134.744026 185.91575 
Q 134.744026 183.91575 132.744026 183.91575 
L 67.761214 183.91575 
Q 65.761214 183.91575 65.761214 185.91575 
L 65.761214 214.272 
Q 65.761214 216.272 67.761214 216.272 
z
" style="fill: #ffffff; opacity: 0.8; stroke: #cccccc; stroke-linejoin: miter"/>
    </g>
    <g id="line2d_29">
     <path d="M 69.761214 192.014187 
L 79.761214 192.014187 
L 89.761214 192.014187 
" style="fill: none; stroke: #1f77b4; stroke-width: 1.5; stroke-linecap: square"/>
    </g>
    <g id="text_17">
     <!-- input -->
     <g transform="translate(97.761214 195.514187) scale(0.1 -0.1)">
      <use xlink:href="#DejaVuSans-69"/>
      <use xlink:href="#DejaVuSans-6e" transform="translate(27.783203 0)"/>
      <use xlink:href="#DejaVuSans-70" transform="translate(91.162109 0)"/>
      <use xlink:href="#DejaVuSans-75" transform="translate(154.638672 0)"/>
      <use xlink:href="#DejaVuSans-74" transform="translate(218.017578 0)"/>
     </g>
    </g>
    <g id="line2d_30">
     <path d="M 69.761214 206.692313 
L 79.761214 206.692313 
L 89.761214 206.692313 
" style="fill: none; stroke: #ff7f0e; stroke-width: 1.5; stroke-linecap: square"/>
    </g>
    <g id="text_18">
     <!-- output -->
     <g transform="translate(97.761214 210.192313) scale(0.1 -0.1)">
      <use xlink:href="#DejaVuSans-6f"/>
      <use xlink:href="#DejaVuSans-75" transform="translate(61.181641 0)"/>
      <use xlink:href="#DejaVuSans-74" transform="translate(124.560547 0)"/>
      <use xlink:href="#DejaVuSans-70" transform="translate(163.769531 0)"/>
      <use xlink:href="#DejaVuSans-75" transform="translate(227.246094 0)"/>
      <use xlink:href="#DejaVuSans-74" transform="translate(290.625 0)"/>
     </g>
    </g>
   </g>
  </g>
  <g id="axes_2">
   <g id="patch_8">
    <path d="M 60.761214 458.728 
L 628.183658 458.728 
L 628.183658 279.312 
L 60.761214 279.312 
z
" style="fill: #ffffff"/>
   </g>
   <g id="matplotlib.axis_3">
    <g id="xtick_7">
     <g id="line2d_31">
      <path d="M 60.761214 458.728 
L 60.761214 279.312 
" clip-path="url(#p96cba934d5)" style="fill: none; stroke: #b0b0b0; stroke-opacity: 0.25; stroke-width: 0.8; stroke-linecap: square"/>
     </g>
     <g id="line2d_32">
      <g>
       <use xlink:href="#m6b539f08c7" x="60.761214" y="458.728" style="stroke: #000000; stroke-width: 0.8"/>
      </g>
     </g>
     <g id="text_19">
      <!-- $\mathdefault{10^{-1}}$ -->
      <g transform="translate(49.011214 473.326438) scale(0.1 -0.1)">
       <use xlink:href="#DejaVuSans-31" transform="translate(0 0.684375)"/>
       <use xlink:href="#DejaVuSans-30" transform="translate(63.623047 0.684375)"/>
       <use xlink:href="#DejaVuSans-2212" transform="translate(128.203125 38.965625) scale(0.7)"/>
       <use xlink:href="#DejaVuSans-31" transform="translate(186.855469 38.965625) scale(0.7)"/>
      </g>
     </g>
    </g>
    <g id="xtick_8">
     <g id="line2d_33">
      <path d="M 344.472436 458.728 
L 344.472436 279.312 
" clip-path="url(#p96cba934d5)" style="fill: none; stroke: #b0b0b0; stroke-opacity: 0.25; stroke-width: 0.8; stroke-linecap: square"/>
     </g>
     <g id="line2d_34">
      <g>
       <use xlink:href="#m6b539f08c7" x="344.472436" y="458.728" style="stroke: #000000; stroke-width: 0.8"/>
      </g>
     </g>
     <g id="text_20">
      <!-- $\mathdefault{10^{0}}$ -->
      <g transform="translate(335.672436 473.326438) scale(0.1 -0.1)">
       <use xlink:href="#DejaVuSans-31" transform="translate(0 0.765625)"/>
       <use xlink:href="#DejaVuSans-30" transform="translate(63.623047 0.765625)"/>
       <use xlink:href="#DejaVuSans-30" transform="translate(128.203125 39.046875) scale(0.7)"/>
      </g>
     </g>
    </g>
    <g id="xtick_9">
     <g id="line2d_35">
      <path d="M 628.183658 458.728 
L 628.183658 279.312 
" clip-path="url(#p96cba934d5)" style="fill: none; stroke: #b0b0b0; stroke-opacity: 0.25; stroke-width: 0.8; stroke-linecap: square"/>
     </g>
     <g id="line2d_36">
      <g>
       <use xlink:href="#m6b539f08c7" x="628.183658" y="458.728" style="stroke: #000000; stroke-width: 0.8"/>
      </g>
     </g>
     <g id="text_21">
      <!-- $\mathdefault{10^{1}}$ -->
      <g transform="translate(619.383658 473.326438) scale(0.1 -0.1)">
       <use xlink:href="#DejaVuSans-31" transform="translate(0 0.684375)"/>
       <use xlink:href="#DejaVuSans-30" transform="translate(63.623047 0.684375)"/>
       <use xlink:href="#DejaVuSans-31" transform="translate(128.203125 38.965625) scale(0.7)"/>
      </g>
     </g>
    </g>
    <g id="xtick_10">
     <g id="line2d_37">
      <defs>
       <path id="m3507bcdb09" d="M 0 0 
L 0 2 
" style="stroke: #000000; stroke-width: 0.6"/>
      </defs>
      <g>
       <use xlink:href="#m3507bcdb09" x="146.166802" y="458.728" style="stroke: #000000; stroke-width: 0.6"/>
      </g>
     </g>
    </g>
    <g id="xtick_11">
     <g id="line2d_38">
      <g>
       <use xlink:href="#m3507bcdb09" x="196.125868" y="458.728" style="stroke: #000000; stroke-width: 0.6"/>
      </g>
     </g>
    </g>
    <g id="xtick_12">
     <g id="line2d_39">
      <g>
       <use xlink:href="#m3507bcdb09" x="231.572389" y="458.728" style="stroke: #000000; stroke-width: 0.6"/>
      </g>
     </g>
    </g>
    <g id="xtick_13">
     <g id="line2d_40">
      <g>
       <use xlink:href="#m3507bcdb09" x="259.066848" y="458.728" style="stroke: #000000; stroke-width: 0.6"/>
      </g>
     </g>
    </g>
    <g id="xtick_14">
     <g id="line2d_41">
      <g>
       <use xlink:href="#m3507bcdb09" x="281.531456" y="458.728" style="stroke: #000000; stroke-width: 0.6"/>
      </g>
     </g>
    </g>
    <g id="xtick_15">
     <g id="line2d_42">
      <g>
       <use xlink:href="#m3507bcdb09" x="300.525011" y="458.728" style="stroke: #000000; stroke-width: 0.6"/>
      </g>
     </g>
    </g>
    <g id="xtick_16">
     <g id="line2d_43">
      <g>
       <use xlink:href="#m3507bcdb09" x="316.977977" y="458.728" style="stroke: #000000; stroke-width: 0.6"/>
      </g>
     </g>
    </g>
    <g id="xtick_17">
     <g id="line2d_44">
      <g>
       <use xlink:href="#m3507bcdb09" x="331.490522" y="458.728" style="stroke: #000000; stroke-width: 0.6"/>
      </g>
     </g>
    </g>
    <g id="xtick_18">
     <g id="line2d_45">
      <g>
       <use xlink:href="#m3507bcdb09" x="429.878024" y="458.728" style="stroke: #000000; stroke-width: 0.6"/>
      </g>
     </g>
    </g>
    <g id="xtick_19">
     <g id="line2d_46">
      <g>
       <use xlink:href="#m3507bcdb09" x="479.83709" y="458.728" style="stroke: #000000; stroke-width: 0.6"/>
      </g>
     </g>
    </g>
    <g id="xtick_20">
     <g id="line2d_47">
      <g>
       <use xlink:href="#m3507bcdb09" x="515.283611" y="458.728" style="stroke: #000000; stroke-width: 0.6"/>
      </g>
     </g>
    </g>
    <g id="xtick_21">
     <g id="line2d_48">
      <g>
       <use xlink:href="#m3507bcdb09" x="542.77807" y="458.728" style="stroke: #000000; stroke-width: 0.6"/>
      </g>
     </g>
    </g>
    <g id="xtick_22">
     <g id="line2d_49">
      <g>
       <use xlink:href="#m3507bcdb09" x="565.242678" y="458.728" style="stroke: #000000; stroke-width: 0.6"/>
      </g>
     </g>
    </g>
    <g id="xtick_23">
     <g id="line2d_50">
      <g>
       <use xlink:href="#m3507bcdb09" x="584.236233" y="458.728" style="stroke: #000000; stroke-width: 0.6"/>
      </g>
     </g>
    </g>
    <g id="xtick_24">
     <g id="line2d_51">
      <g>
       <use xlink:href="#m3507bcdb09" x="600.689199" y="458.728" style="stroke: #000000; stroke-width: 0.6"/>
      </g>
     </g>
    </g>
    <g id="xtick_25">
     <g id="line2d_52">
      <g>
       <use xlink:href="#m3507bcdb09" x="615.201744" y="458.728" style="stroke: #000000; stroke-width: 0.6"/>
      </g>
     </g>
    </g>
    <g id="text_22">
     <!-- frequency [arb.] -->
     <g transform="translate(304.022436 487.004563) scale(0.1 -0.1)">
      <defs>
       <path id="DejaVuSans-71" d="M 947 1747 
Q 947 1113 1208 752 
Q 1469 391 1925 391 
Q 2381 391 2643 752 
Q 2906 1113 2906 1747 
Q 2906 2381 2643 2742 
Q 2381 3103 1925 3103 
Q 1469 3103 1208 2742 
Q 947 2381 947 1747 
z
M 2906 525 
Q 2725 213 2448 61 
Q 2172 -91 1784 -91 
Q 1150 -91 751 415 
Q 353 922 353 1747 
Q 353 2572 751 3078 
Q 1150 3584 1784 3584 
Q 2172 3584 2448 3432 
Q 2725 3281 2906 2969 
L 2906 3500 
L 3481 3500 
L 3481 -1331 
L 2906 -1331 
L 2906 525 
z
" transform="scale(0.015625)"/>
      </defs>
      <use xlink:href="#DejaVuSans-66"/>
      <use xlink:href="#DejaVuSans-72" transform="translate(35.205078 0)"/>
      <use xlink:href="#DejaVuSans-65" transform="translate(74.068359 0)"/>
      <use xlink:href="#DejaVuSans-71" transform="translate(135.591797 0)"/>
      <use xlink:href="#DejaVuSans-75" transform="translate(199.068359 0)"/>
      <use xlink:href="#DejaVuSans-65" transform="translate(262.447266 0)"/>
      <use xlink:href="#DejaVuSans-6e" transform="translate(323.970703 0)"/>
      <use xlink:href="#DejaVuSans-63" transform="translate(387.349609 0)"/>
      <use xlink:href="#DejaVuSans-79" transform="translate(442.330078 0)"/>
      <use xlink:href="#DejaVuSans-20" transform="translate(501.509766 0)"/>
      <use xlink:href="#DejaVuSans-5b" transform="translate(533.296875 0)"/>
      <use xlink:href="#DejaVuSans-61" transform="translate(572.310547 0)"/>
      <use xlink:href="#DejaVuSans-72" transform="translate(633.589844 0)"/>
      <use xlink:href="#DejaVuSans-62" transform="translate(674.703125 0)"/>
      <use xlink:href="#DejaVuSans-2e" transform="translate(738.179688 0)"/>
      <use xlink:href="#DejaVuSans-5d" transform="translate(769.966797 0)"/>
     </g>
    </g>
   </g>
   <g id="matplotlib.axis_4">
    <g id="ytick_8">
     <g id="line2d_53">
      <path d="M 60.761214 444.508368 
L 628.183658 444.508368 
" clip-path="url(#p96cba934d5)" style="fill: none; stroke: #b0b0b0; stroke-opacity: 0.25; stroke-width: 0.8; stroke-linecap: square"/>
     </g>
     <g id="line2d_54">
      <g>
       <use xlink:href="#m9f58c1ec23" x="60.761214" y="444.508368" style="stroke: #000000; stroke-width: 0.8"/>
      </g>
     </g>
     <g id="text_23">
      <!-- $\mathdefault{10^{-10}}$ -->
      <g transform="translate(25.861214 448.307587) scale(0.1 -0.1)">
       <use xlink:href="#DejaVuSans-31" transform="translate(0 0.765625)"/>
       <use xlink:href="#DejaVuSans-30" transform="translate(63.623047 0.765625)"/>
       <use xlink:href="#DejaVuSans-2212" transform="translate(128.203125 39.046875) scale(0.7)"/>
       <use xlink:href="#DejaVuSans-31" transform="translate(186.855469 39.046875) scale(0.7)"/>
       <use xlink:href="#DejaVuSans-30" transform="translate(231.391602 39.046875) scale(0.7)"/>
      </g>
     </g>
    </g>
    <g id="ytick_9">
     <g id="line2d_55">
      <path d="M 60.761214 420.526601 
L 628.183658 420.526601 
" clip-path="url(#p96cba934d5)" style="fill: none; stroke: #b0b0b0; stroke-opacity: 0.25; stroke-width: 0.8; stroke-linecap: square"/>
     </g>
     <g id="line2d_56">
      <g>
       <use xlink:href="#m9f58c1ec23" x="60.761214" y="420.526601" style="stroke: #000000; stroke-width: 0.8"/>
      </g>
     </g>
     <g id="text_24">
      <!-- $\mathdefault{10^{-8}}$ -->
      <g transform="translate(30.261214 424.32582) scale(0.1 -0.1)">
       <use xlink:href="#DejaVuSans-31" transform="translate(0 0.765625)"/>
       <use xlink:href="#DejaVuSans-30" transform="translate(63.623047 0.765625)"/>
       <use xlink:href="#DejaVuSans-2212" transform="translate(128.203125 39.046875) scale(0.7)"/>
       <use xlink:href="#DejaVuSans-38" transform="translate(186.855469 39.046875) scale(0.7)"/>
      </g>
     </g>
    </g>
    <g id="ytick_10">
     <g id="line2d_57">
      <path d="M 60.761214 396.544834 
L 628.183658 396.544834 
" clip-path="url(#p96cba934d5)" style="fill: none; stroke: #b0b0b0; stroke-opacity: 0.25; stroke-width: 0.8; stroke-linecap: square"/>
     </g>
     <g id="line2d_58">
      <g>
       <use xlink:href="#m9f58c1ec23" x="60.761214" y="396.544834" style="stroke: #000000; stroke-width: 0.8"/>
      </g>
     </g>
     <g id="text_25">
      <!-- $\mathdefault{10^{-6}}$ -->
      <g transform="translate(30.261214 400.344053) scale(0.1 -0.1)">
       <use xlink:href="#DejaVuSans-31" transform="translate(0 0.765625)"/>
       <use xlink:href="#DejaVuSans-30" transform="translate(63.623047 0.765625)"/>
       <use xlink:href="#DejaVuSans-2212" transform="translate(128.203125 39.046875) scale(0.7)"/>
       <use xlink:href="#DejaVuSans-36" transform="translate(186.855469 39.046875) scale(0.7)"/>
      </g>
     </g>
    </g>
    <g id="ytick_11">
     <g id="line2d_59">
      <path d="M 60.761214 372.563067 
L 628.183658 372.563067 
" clip-path="url(#p96cba934d5)" style="fill: none; stroke: #b0b0b0; stroke-opacity: 0.25; stroke-width: 0.8; stroke-linecap: square"/>
     </g>
     <g id="line2d_60">
      <g>
       <use xlink:href="#m9f58c1ec23" x="60.761214" y="372.563067" style="stroke: #000000; stroke-width: 0.8"/>
      </g>
     </g>
     <g id="text_26">
      <!-- $\mathdefault{10^{-4}}$ -->
      <g transform="translate(30.261214 376.362286) scale(0.1 -0.1)">
       <use xlink:href="#DejaVuSans-31" transform="translate(0 0.684375)"/>
       <use xlink:href="#DejaVuSans-30" transform="translate(63.623047 0.684375)"/>
       <use xlink:href="#DejaVuSans-2212" transform="translate(128.203125 38.965625) scale(0.7)"/>
       <use xlink:href="#DejaVuSans-34" transform="translate(186.855469 38.965625) scale(0.7)"/>
      </g>
     </g>
    </g>
    <g id="ytick_12">
     <g id="line2d_61">
      <path d="M 60.761214 348.5813 
L 628.183658 348.5813 
" clip-path="url(#p96cba934d5)" style="fill: none; stroke: #b0b0b0; stroke-opacity: 0.25; stroke-width: 0.8; stroke-linecap: square"/>
     </g>
     <g id="line2d_62">
      <g>
       <use xlink:href="#m9f58c1ec23" x="60.761214" y="348.5813" style="stroke: #000000; stroke-width: 0.8"/>
      </g>
     </g>
     <g id="text_27">
      <!-- $\mathdefault{10^{-2}}$ -->
      <g transform="translate(30.261214 352.380519) scale(0.1 -0.1)">
       <use xlink:href="#DejaVuSans-31" transform="translate(0 0.765625)"/>
       <use xlink:href="#DejaVuSans-30" transform="translate(63.623047 0.765625)"/>
       <use xlink:href="#DejaVuSans-2212" transform="translate(128.203125 39.046875) scale(0.7)"/>
       <use xlink:href="#DejaVuSans-32" transform="translate(186.855469 39.046875) scale(0.7)"/>
      </g>
     </g>
    </g>
    <g id="ytick_13">
     <g id="line2d_63">
      <path d="M 60.761214 324.599533 
L 628.183658 324.599533 
" clip-path="url(#p96cba934d5)" style="fill: none; stroke: #b0b0b0; stroke-opacity: 0.25; stroke-width: 0.8; stroke-linecap: square"/>
     </g>
     <g id="line2d_64">
      <g>
       <use xlink:href="#m9f58c1ec23" x="60.761214" y="324.599533" style="stroke: #000000; stroke-width: 0.8"/>
      </g>
     </g>
     <g id="text_28">
      <!-- $\mathdefault{10^{0}}$ -->
      <g transform="translate(36.161214 328.398752) scale(0.1 -0.1)">
       <use xlink:href="#DejaVuSans-31" transform="translate(0 0.765625)"/>
       <use xlink:href="#DejaVuSans-30" transform="translate(63.623047 0.765625)"/>
       <use xlink:href="#DejaVuSans-30" transform="translate(128.203125 39.046875) scale(0.7)"/>
      </g>
     </g>
    </g>
    <g id="ytick_14">
     <g id="line2d_65">
      <path d="M 60.761214 300.617766 
L 628.183658 300.617766 
" clip-path="url(#p96cba934d5)" style="fill: none; stroke: #b0b0b0; stroke-opacity: 0.25; stroke-width: 0.8; stroke-linecap: square"/>
     </g>
     <g id="line2d_66">
      <g>
       <use xlink:href="#m9f58c1ec23" x="60.761214" y="300.617766" style="stroke: #000000; stroke-width: 0.8"/>
      </g>
     </g>
     <g id="text_29">
      <!-- $\mathdefault{10^{2}}$ -->
      <g transform="translate(36.161214 304.416984) scale(0.1 -0.1)">
       <use xlink:href="#DejaVuSans-31" transform="translate(0 0.765625)"/>
       <use xlink:href="#DejaVuSans-30" transform="translate(63.623047 0.765625)"/>
       <use xlink:href="#DejaVuSans-32" transform="translate(128.203125 39.046875) scale(0.7)"/>
      </g>
     </g>
    </g>
    <g id="text_30">
     <!-- |FFT(.)| -->
     <g transform="translate(19.503401 386.597344) rotate(-90) scale(0.1 -0.1)">
      <defs>
       <path id="DejaVuSans-54" d="M -19 4666 
L 3928 4666 
L 3928 4134 
L 2272 4134 
L 2272 0 
L 1638 0 
L 1638 4134 
L -19 4134 
L -19 4666 
z
" transform="scale(0.015625)"/>
      </defs>
      <use xlink:href="#DejaVuSans-7c"/>
      <use xlink:href="#DejaVuSans-46" transform="translate(33.691406 0)"/>
      <use xlink:href="#DejaVuSans-46" transform="translate(91.210938 0)"/>
      <use xlink:href="#DejaVuSans-54" transform="translate(146.980469 0)"/>
      <use xlink:href="#DejaVuSans-28" transform="translate(208.064453 0)"/>
      <use xlink:href="#DejaVuSans-2e" transform="translate(247.078125 0)"/>
      <use xlink:href="#DejaVuSans-29" transform="translate(278.865234 0)"/>
      <use xlink:href="#DejaVuSans-7c" transform="translate(317.878906 0)"/>
     </g>
    </g>
   </g>
   <g id="line2d_67">
    <path d="M 60.761214 302.797331 
L 146.166802 315.153058 
L 196.125868 311.456824 
L 231.572389 305.816735 
L 259.066848 295.3778 
L 281.531456 287.467273 
L 300.525011 287.728075 
L 316.977977 296.595606 
L 331.490522 306.421692 
L 344.472436 312.084017 
L 356.216005 316.185876 
L 366.937044 319.431997 
L 376.799443 322.131192 
L 385.930599 324.448767 
L 394.431502 326.484118 
L 402.383565 328.301838 
L 409.853381 329.946335 
L 416.89611 331.449477 
L 423.55796 332.834928 
L 429.878024 334.120751 
L 435.889665 335.321059 
L 441.621593 336.44709 
L 447.098682 337.507951 
L 452.342632 338.511121 
L 457.372482 339.462829 
L 462.205031 340.368314 
L 466.855176 341.232031 
L 471.336187 342.0578 
L 475.659937 342.848923 
L 479.83709 343.608276 
L 483.877262 344.338378 
L 487.789153 345.041451 
L 491.580659 345.719466 
L 495.258969 346.374176 
L 498.830645 347.007153 
L 502.301698 347.619809 
L 505.677641 348.213418 
L 508.963548 348.789133 
L 512.164098 349.348005 
L 515.283611 349.89099 
L 518.326092 350.418963 
L 521.295253 350.932725 
L 524.194545 351.433015 
L 527.027181 351.920513 
L 529.796156 352.395846 
L 532.50427 352.859598 
L 535.15414 353.312307 
L 537.74822 353.754476 
L 540.288809 354.186572 
L 542.77807 354.609033 
L 545.218035 355.022264 
L 547.610619 355.42665 
L 549.957628 355.822547 
L 552.260764 356.210292 
L 554.521639 356.590202 
L 556.741775 356.962574 
L 558.922615 357.327688 
L 561.065525 357.685811 
L 563.171802 358.037193 
L 565.242678 358.38207 
L 567.279323 358.720668 
L 569.28285 359.053199 
L 571.25432 359.379866 
L 573.194741 359.70086 
L 575.105077 360.016365 
L 576.986247 360.326554 
L 578.839127 360.631593 
L 580.664557 360.931639 
L 582.463336 361.226845 
L 584.236233 361.517353 
L 585.983982 361.803302 
L 587.707286 362.084822 
L 589.406819 362.36204 
L 591.083229 362.635077 
L 592.737136 362.904048 
L 594.369136 363.169064 
L 595.979803 363.430231 
L 597.569685 363.687653 
L 599.139315 363.941426 
L 600.689199 364.191646 
L 602.21983 364.438403 
L 603.73168 364.681785 
L 605.225204 364.921875 
L 606.700841 365.158755 
L 608.159015 365.392503 
L 609.600133 365.623195 
L 611.024591 365.850903 
L 612.432769 366.075697 
L 613.825035 366.297645 
L 615.201744 366.516812 
L 616.563241 366.733263 
L 617.909858 366.947057 
L 619.241916 367.158255 
L 620.559728 367.366913 
L 621.863594 367.573086 
L 623.153807 367.77683 
L 624.43065 367.978195 
L 625.694397 368.177232 
L 626.945313 368.37399 
L 628.183658 368.568516 
L 629.40968 368.760856 
" clip-path="url(#p96cba934d5)" style="fill: none; stroke: #1f77b4; stroke-opacity: 0.6; stroke-width: 1.5; stroke-linecap: square"/>
   </g>
   <g id="line2d_68">
    <path d="M 60.761214 310.441383 
L 146.166802 304.594796 
L 196.125868 299.028321 
L 231.572389 299.874183 
L 259.066848 299.827363 
L 281.531456 292.136361 
L 300.525011 292.299142 
L 316.977977 301.293527 
L 331.490522 311.377452 
L 344.472436 317.333236 
L 356.216005 321.722761 
L 366.937044 325.234991 
L 376.799443 328.174016 
L 385.930599 330.705111 
L 394.431502 332.929548 
L 402.383565 334.914446 
L 409.853381 336.70683 
L 416.89611 338.341029 
L 423.55796 339.84292 
L 429.878024 341.232513 
L 435.889665 342.525605 
L 441.621593 343.734887 
L 447.098682 344.87071 
L 452.342632 345.941623 
L 457.372482 346.954766 
L 462.205031 347.916166 
L 466.855176 348.830952 
L 471.336187 349.703524 
L 475.659937 350.537687 
L 479.83709 351.336749 
L 483.877262 352.103609 
L 487.789153 352.840816 
L 491.580659 353.550625 
L 495.258969 354.235042 
L 498.830645 354.895857 
L 502.301698 355.534676 
L 505.677641 356.152942 
L 508.963548 356.75196 
L 512.164098 357.332913 
L 515.283611 357.896875 
L 518.326092 358.444826 
L 521.295253 358.977662 
L 524.194545 359.496206 
L 527.027181 360.00121 
L 529.796156 360.493372 
L 532.50427 360.973334 
L 535.15414 361.441688 
L 537.74822 361.898987 
L 540.288809 362.345742 
L 542.77807 362.78243 
L 545.218035 363.209493 
L 547.610619 363.627348 
L 549.957628 364.03638 
L 552.260764 364.436955 
L 554.521639 364.829412 
L 556.741775 365.214072 
L 558.922615 365.591235 
L 561.065525 365.961186 
L 563.171802 366.324192 
L 565.242678 366.680504 
L 567.279323 367.030363 
L 569.28285 367.373993 
L 571.25432 367.711609 
L 573.194741 368.043414 
L 575.105077 368.369599 
L 576.986247 368.690348 
L 578.839127 369.005836 
L 580.664557 369.316226 
L 582.463336 369.621678 
L 584.236233 369.922341 
L 585.983982 370.218359 
L 587.707286 370.509868 
L 589.406819 370.797 
L 591.083229 371.07988 
L 592.737136 371.358628 
L 594.369136 371.633357 
L 595.979803 371.904179 
L 597.569685 372.171198 
L 599.139315 372.434515 
L 600.689199 372.694228 
L 602.21983 372.950429 
L 603.73168 373.203209 
L 605.225204 373.452653 
L 606.700841 373.698844 
L 608.159015 373.941862 
L 609.600133 374.181784 
L 611.024591 374.418683 
L 612.432769 374.652632 
L 613.825035 374.883698 
L 615.201744 375.11195 
L 616.563241 375.337449 
L 617.909858 375.56026 
L 619.241916 375.78044 
L 620.559728 375.998049 
L 621.863594 376.213142 
L 623.153807 376.425774 
L 624.43065 376.635996 
L 625.694397 376.84386 
L 626.945313 377.049414 
L 628.183658 377.252706 
L 629.40968 377.453783 
" clip-path="url(#p96cba934d5)" style="fill: none; stroke: #ff7f0e; stroke-width: 1.5; stroke-linecap: square"/>
   </g>
   <g id="patch_9">
    <path d="M 60.761214 458.728 
L 60.761214 279.312 
" style="fill: none; stroke: #000000; stroke-width: 0.8; stroke-linejoin: miter; stroke-linecap: square"/>
   </g>
   <g id="patch_10">
    <path d="M 628.183658 458.728 
L 628.183658 279.312 
" style="fill: none; stroke: #000000; stroke-width: 0.8; stroke-linejoin: miter; stroke-linecap: square"/>
   </g>
   <g id="patch_11">
    <path d="M 60.761214 458.728 
L 628.183658 458.728 
" style="fill: none; stroke: #000000; stroke-width: 0.8; stroke-linejoin: miter; stroke-linecap: square"/>
   </g>
   <g id="patch_12">
    <path d="M 60.761214 279.312 
L 628.183658 279.312 
" style="fill: none; stroke: #000000; stroke-width: 0.8; stroke-linejoin: miter; stroke-linecap: square"/>
   </g>
   <g id="text_31">
    <!-- Output FFT peak ≈ 0.600 (arb.), magnitude ≈ 5.097e+02 | low-ish -->
    <g transform="translate(144.754936 273.312) scale(0.12 -0.12)">
     <defs>
      <path id="DejaVuSans-4f" d="M 2522 4238 
Q 1834 4238 1429 3725 
Q 1025 3213 1025 2328 
Q 1025 1447 1429 934 
Q 1834 422 2522 422 
Q 3209 422 3611 934 
Q 4013 1447 4013 2328 
Q 4013 3213 3611 3725 
Q 3209 4238 2522 4238 
z
M 2522 4750 
Q 3503 4750 4090 4092 
Q 4678 3434 4678 2328 
Q 4678 1225 4090 567 
Q 3503 -91 2522 -91 
Q 1538 -91 948 565 
Q 359 1222 359 2328 
Q 359 3434 948 4092 
Q 1538 4750 2522 4750 
z
" transform="scale(0.015625)"/>
      <path id="DejaVuSans-6b" d="M 581 4863 
L 1159 4863 
L 1159 1991 
L 2875 3500 
L 3609 3500 
L 1753 1863 
L 3688 0 
L 2938 0 
L 1159 1709 
L 1159 0 
L 581 0 
L 581 4863 
z
" transform="scale(0.015625)"/>
      <path id="DejaVuSans-2248" d="M 4684 1947 
L 4684 1388 
Q 4356 1144 4076 1036 
Q 3797 928 3494 928 
Q 3150 928 2694 1113 
Q 2663 1125 2641 1134 
Q 2622 1141 2575 1159 
Q 2091 1350 1797 1350 
Q 1522 1350 1253 1231 
Q 984 1113 678 850 
L 678 1409 
Q 1006 1653 1286 1761 
Q 1566 1869 1869 1869 
Q 2213 1869 2672 1684 
Q 2706 1669 2722 1663 
Q 2741 1656 2788 1638 
Q 3272 1447 3566 1447 
Q 3834 1447 4098 1564 
Q 4363 1681 4684 1947 
z
M 4684 3163 
L 4684 2606 
Q 4356 2359 4076 2251 
Q 3797 2144 3494 2144 
Q 3150 2144 2694 2328 
Q 2663 2341 2641 2350 
Q 2622 2356 2575 2375 
Q 2091 2566 1797 2566 
Q 1522 2566 1253 2447 
Q 984 2328 678 2069 
L 678 2625 
Q 1006 2869 1286 2976 
Q 1566 3084 1869 3084 
Q 2213 3084 2672 2900 
Q 2703 2888 2719 2881 
Q 2741 2872 2788 2853 
Q 3272 2663 3566 2663 
Q 3834 2663 4098 2780 
Q 4363 2897 4684 3163 
z
" transform="scale(0.015625)"/>
      <path id="DejaVuSans-6d" d="M 3328 2828 
Q 3544 3216 3844 3400 
Q 4144 3584 4550 3584 
Q 5097 3584 5394 3201 
Q 5691 2819 5691 2113 
L 5691 0 
L 5113 0 
L 5113 2094 
Q 5113 2597 4934 2840 
Q 4756 3084 4391 3084 
Q 3944 3084 3684 2787 
Q 3425 2491 3425 1978 
L 3425 0 
L 2847 0 
L 2847 2094 
Q 2847 2600 2669 2842 
Q 2491 3084 2119 3084 
Q 1678 3084 1418 2786 
Q 1159 2488 1159 1978 
L 1159 0 
L 581 0 
L 581 3500 
L 1159 3500 
L 1159 2956 
Q 1356 3278 1631 3431 
Q 1906 3584 2284 3584 
Q 2666 3584 2933 3390 
Q 3200 3197 3328 2828 
z
" transform="scale(0.015625)"/>
      <path id="DejaVuSans-67" d="M 2906 1791 
Q 2906 2416 2648 2759 
Q 2391 3103 1925 3103 
Q 1463 3103 1205 2759 
Q 947 2416 947 1791 
Q 947 1169 1205 825 
Q 1463 481 1925 481 
Q 2391 481 2648 825 
Q 2906 1169 2906 1791 
z
M 3481 434 
Q 3481 -459 3084 -895 
Q 2688 -1331 1869 -1331 
Q 1566 -1331 1297 -1286 
Q 1028 -1241 775 -1147 
L 775 -588 
Q 1028 -725 1275 -790 
Q 1522 -856 1778 -856 
Q 2344 -856 2625 -561 
Q 2906 -266 2906 331 
L 2906 616 
Q 2728 306 2450 153 
Q 2172 0 1784 0 
Q 1141 0 747 490 
Q 353 981 353 1791 
Q 353 2603 747 3093 
Q 1141 3584 1784 3584 
Q 2172 3584 2450 3431 
Q 2728 3278 2906 2969 
L 2906 3500 
L 3481 3500 
L 3481 434 
z
" transform="scale(0.015625)"/>
      <path id="DejaVuSans-39" d="M 703 97 
L 703 672 
Q 941 559 1184 500 
Q 1428 441 1663 441 
Q 2288 441 2617 861 
Q 2947 1281 2994 2138 
Q 2813 1869 2534 1725 
Q 2256 1581 1919 1581 
Q 1219 1581 811 2004 
Q 403 2428 403 3163 
Q 403 3881 828 4315 
Q 1253 4750 1959 4750 
Q 2769 4750 3195 4129 
Q 3622 3509 3622 2328 
Q 3622 1225 3098 567 
Q 2575 -91 1691 -91 
Q 1453 -91 1209 -44 
Q 966 3 703 97 
z
M 1959 2075 
Q 2384 2075 2632 2365 
Q 2881 2656 2881 3163 
Q 2881 3666 2632 3958 
Q 2384 4250 1959 4250 
Q 1534 4250 1286 3958 
Q 1038 3666 1038 3163 
Q 1038 2656 1286 2365 
Q 1534 2075 1959 2075 
z
" transform="scale(0.015625)"/>
      <path id="DejaVuSans-37" d="M 525 4666 
L 3525 4666 
L 3525 4397 
L 1831 0 
L 1172 0 
L 2766 4134 
L 525 4134 
L 525 4666 
z
" transform="scale(0.015625)"/>
      <path id="DejaVuSans-2b" d="M 2944 4013 
L 2944 2272 
L 4684 2272 
L 4684 1741 
L 2944 1741 
L 2944 0 
L 2419 0 
L 2419 1741 
L 678 1741 
L 678 2272 
L 2419 2272 
L 2419 4013 
L 2944 4013 
z
" transform="scale(0.015625)"/>
      <path id="DejaVuSans-68" d="M 3513 2113 
L 3513 0 
L 2938 0 
L 2938 2094 
Q 2938 2591 2744 2837 
Q 2550 3084 2163 3084 
Q 1697 3084 1428 2787 
Q 1159 2491 1159 1978 
L 1159 0 
L 581 0 
L 581 4863 
L 1159 4863 
L 1159 2956 
Q 1366 3272 1645 3428 
Q 1925 3584 2291 3584 
Q 2894 3584 3203 3211 
Q 3513 2838 3513 2113 
z
" transform="scale(0.015625)"/>
     </defs>
     <use xlink:href="#DejaVuSans-4f"/>
     <use xlink:href="#DejaVuSans-75" transform="translate(78.710938 0)"/>
     <use xlink:href="#DejaVuSans-74" transform="translate(142.089844 0)"/>
     <use xlink:href="#DejaVuSans-70" transform="translate(181.298828 0)"/>
     <use xlink:href="#DejaVuSans-75" transform="translate(244.775391 0)"/>
     <use xlink:href="#DejaVuSans-74" transform="translate(308.154297 0)"/>
     <use xlink:href="#DejaVuSans-20" transform="translate(347.363281 0)"/>
     <use xlink:href="#DejaVuSans-46" transform="translate(379.150391 0)"/>
     <use xlink:href="#DejaVuSans-46" transform="translate(436.669922 0)"/>
     <use xlink:href="#DejaVuSans-54" transform="translate(492.439453 0)"/>
     <use xlink:href="#DejaVuSans-20" transform="translate(553.523438 0)"/>
     <use xlink:href="#DejaVuSans-70" transform="translate(585.310547 0)"/>
     <use xlink:href="#DejaVuSans-65" transform="translate(648.787109 0)"/>
     <use xlink:href="#DejaVuSans-61" transform="translate(710.310547 0)"/>
     <use xlink:href="#DejaVuSans-6b" transform="translate(771.589844 0)"/>
     <use xlink:href="#DejaVuSans-20" transform="translate(829.5 0)"/>
     <use xlink:href="#DejaVuSans-2248" transform="translate(861.287109 0)"/>
     <use xlink:href="#DejaVuSans-20" transform="translate(945.076172 0)"/>
     <use xlink:href="#DejaVuSans-30" transform="translate(976.863281 0)"/>
     <use xlink:href="#DejaVuSans-2e" transform="translate(1040.486328 0)"/>
     <use xlink:href="#DejaVuSans-36" transform="translate(1072.273438 0)"/>
     <use xlink:href="#DejaVuSans-30" transform="translate(1135.896484 0)"/>
     <use xlink:href="#DejaVuSans-30" transform="translate(1199.519531 0)"/>
     <use xlink:href="#DejaVuSans-20" transform="translate(1263.142578 0)"/>
     <use xlink:href="#DejaVuSans-28" transform="translate(1294.929688 0)"/>
     <use xlink:href="#DejaVuSans-61" transform="translate(1333.943359 0)"/>
     <use xlink:href="#DejaVuSans-72" transform="translate(1395.222656 0)"/>
     <use xlink:href="#DejaVuSans-62" transform="translate(1436.335938 0)"/>
     <use xlink:href="#DejaVuSans-2e" transform="translate(1499.8125 0)"/>
     <use xlink:href="#DejaVuSans-29" transform="translate(1531.599609 0)"/>
     <use xlink:href="#DejaVuSans-2c" transform="translate(1570.613281 0)"/>
     <use xlink:href="#DejaVuSans-20" transform="translate(1602.400391 0)"/>
     <use xlink:href="#DejaVuSans-6d" transform="translate(1634.1875 0)"/>
     <use xlink:href="#DejaVuSans-61" transform="translate(1731.599609 0)"/>
     <use xlink:href="#DejaVuSans-67" transform="translate(1792.878906 0)"/>
     <use xlink:href="#DejaVuSans-6e" transform="translate(1856.355469 0)"/>
     <use xlink:href="#DejaVuSans-69" transform="translate(1919.734375 0)"/>
     <use xlink:href="#DejaVuSans-74" transform="translate(1947.517578 0)"/>
     <use xlink:href="#DejaVuSans-75" transform="translate(1986.726562 0)"/>
     <use xlink:href="#DejaVuSans-64" transform="translate(2050.105469 0)"/>
     <use xlink:href="#DejaVuSans-65" transform="translate(2113.582031 0)"/>
     <use xlink:href="#DejaVuSans-20" transform="translate(2175.105469 0)"/>
     <use xlink:href="#DejaVuSans-2248" transform="translate(2206.892578 0)"/>
     <use xlink:href="#DejaVuSans-20" transform="translate(2290.681641 0)"/>
     <use xlink:href="#DejaVuSans-35" transform="translate(2322.46875 0)"/>
     <use xlink:href="#DejaVuSans-2e" transform="translate(2386.091797 0)"/>
     <use xlink:href="#DejaVuSans-30" transform="translate(2417.878906 0)"/>
     <use xlink:href="#DejaVuSans-39" transform="translate(2481.501953 0)"/>
     <use xlink:href="#DejaVuSans-37" transform="translate(2545.125 0)"/>
     <use xlink:href="#DejaVuSans-65" transform="translate(2608.748047 0)"/>
     <use xlink:href="#DejaVuSans-2b" transform="translate(2670.271484 0)"/>
     <use xlink:href="#DejaVuSans-30" transform="translate(2754.060547 0)"/>
     <use xlink:href="#DejaVuSans-32" transform="translate(2817.683594 0)"/>
     <use xlink:href="#DejaVuSans-20" transform="translate(2881.306641 0)"/>
     <use xlink:href="#DejaVuSans-7c" transform="translate(2913.09375 0)"/>
     <use xlink:href="#DejaVuSans-20" transform="translate(2946.785156 0)"/>
     <use xlink:href="#DejaVuSans-6c" transform="translate(2978.572266 0)"/>
     <use xlink:href="#DejaVuSans-6f" transform="translate(3006.355469 0)"/>
     <use xlink:href="#DejaVuSans-77" transform="translate(3067.537109 0)"/>
     <use xlink:href="#DejaVuSans-2d" transform="translate(3149.324219 0)"/>
     <use xlink:href="#DejaVuSans-69" transform="translate(3185.408203 0)"/>
     <use xlink:href="#DejaVuSans-73" transform="translate(3213.191406 0)"/>
     <use xlink:href="#DejaVuSans-68" transform="translate(3265.291016 0)"/>
    </g>
   </g>
   <g id="legend_2">
    <g id="patch_13">
     <path d="M 535.586783 316.66825 
L 621.183658 316.66825 
Q 623.183658 316.66825 623.183658 314.66825 
L 623.183658 286.312 
Q 623.183658 284.312 621.183658 284.312 
L 535.586783 284.312 
Q 533.586783 284.312 533.586783 286.312 
L 533.586783 314.66825 
Q 533.586783 316.66825 535.586783 316.66825 
z
" style="fill: #ffffff; opacity: 0.8; stroke: #cccccc; stroke-linejoin: miter"/>
    </g>
    <g id="line2d_69">
     <path d="M 537.586783 292.410438 
L 547.586783 292.410438 
L 557.586783 292.410438 
" style="fill: none; stroke: #1f77b4; stroke-opacity: 0.6; stroke-width: 1.5; stroke-linecap: square"/>
    </g>
    <g id="text_32">
     <!-- input FFT -->
     <g transform="translate(565.586783 295.910438) scale(0.1 -0.1)">
      <use xlink:href="#DejaVuSans-69"/>
      <use xlink:href="#DejaVuSans-6e" transform="translate(27.783203 0)"/>
      <use xlink:href="#DejaVuSans-70" transform="translate(91.162109 0)"/>
      <use xlink:href="#DejaVuSans-75" transform="translate(154.638672 0)"/>
      <use xlink:href="#DejaVuSans-74" transform="translate(218.017578 0)"/>
      <use xlink:href="#DejaVuSans-20" transform="translate(257.226562 0)"/>
      <use xlink:href="#DejaVuSans-46" transform="translate(289.013672 0)"/>
      <use xlink:href="#DejaVuSans-46" transform="translate(346.533203 0)"/>
      <use xlink:href="#DejaVuSans-54" transform="translate(402.302734 0)"/>
     </g>
    </g>
    <g id="line2d_70">
     <path d="M 537.586783 307.088562 
L 547.586783 307.088562 
L 557.586783 307.088562 
" style="fill: none; stroke: #ff7f0e; stroke-width: 1.5; stroke-linecap: square"/>
    </g>
    <g id="text_33">
     <!-- output FFT -->
     <g transform="translate(565.586783 310.588562) scale(0.1 -0.1)">
      <use xlink:href="#DejaVuSans-6f"/>
      <use xlink:href="#DejaVuSans-75" transform="translate(61.181641 0)"/>
      <use xlink:href="#DejaVuSans-74" transform="translate(124.560547 0)"/>
      <use xlink:href="#DejaVuSans-70" transform="translate(163.769531 0)"/>
      <use xlink:href="#DejaVuSans-75" transform="translate(227.246094 0)"/>
      <use xlink:href="#DejaVuSans-74" transform="translate(290.625 0)"/>
      <use xlink:href="#DejaVuSans-20" transform="translate(329.833984 0)"/>
      <use xlink:href="#DejaVuSans-46" transform="translate(361.621094 0)"/>
      <use xlink:href="#DejaVuSans-46" transform="translate(419.140625 0)"/>
      <use xlink:href="#DejaVuSans-54" transform="translate(474.910156 0)"/>
     </g>
    </g>
   </g>
  </g>
 </g>
 <defs>
  <clipPath id="p57f87f1020">
   <rect x="60.761214" y="41.856" width="567.422444" height="179.416"/>
  </clipPath>
  <clipPath id="p96cba934d5">
   <rect x="60.761214" y="279.312" width="567.422444" height="179.416"/>
  </clipPath>
 </defs>
</svg>
