<?xml version="1.0" encoding="utf-8" standalone="no"?>
<!DOCTYPE svg PUBLIC "-//W3C//DTD SVG 1.1//EN"
  "http://www.w3.org/Graphics/SVG/1.1/DTD/svg11.dtd">
<svg xmlns:xlink="http://www.w3.org/1999/xlink" width="648pt" height="504pt" viewBox="0 0 648 504" xmlns="http://www.w3.org/2000/svg" version="1.1">
 <metadata>
  <rdf:RDF xmlns:dc="http://purl.org/dc/elements/1.1/" xmlns:cc="http://creativecommons.org/ns#" xmlns:rdf="http://www.w3.org/1999/02/22-rdf-syntax-ns#">
   <cc:Work>
    <dc:type rdf:resource="http://purl.org/dc/dcmitype/StillImage"/>
    <dc:date>2026-03-24T02:45:49.481006</dc:date>
    <dc:format>image/svg+xml</dc:format>
    <dc:creator>
     <cc:Agent>
      <dc:title>Matplotlib v3.10.8, https://matplotlib.org/</dc:title>
     </cc:Agent>
    </dc:creator>
   </cc:Work>
  </rdf:RDF>
 </metadata>
 <defs>
  <style type="text/css">*{stroke-linejoin: round; stroke-linecap: butt}</style>
 </defs>
 <g id="figure_1">
  <g id="patch_1">
   <path d="M 0 504 
L 648 504 
L 648 0 
L 0 0 
z
" style="fill: #ffffff"/>
  </g>
  <g id="axes_1">
   <g id="patch_2">
    <path d="M 56.312054 221.272 
L 628.183658 221.272 
L 628.183658 41.856 
L 56.312054 41.856 
z
" style="fill: #ffffff"/>
   </g>
   <g id="matplotlib.axis_1">
    <g id="xtick_1">
     <g id="line2d_1">
      <path d="M 82.306218 221.272 
L 82.306218 41.856 
" clip-path="url(#p026fecae27)" style="fill: none; stroke: #b0b0b0; stroke-opacity: 0.25; stroke-width: 0.8; stroke-linecap: square"/>
     </g>
     <g id="line2d_2">
      <defs>
       <path id="m80545fbaf0" d="M 0 0 
L 0 3.5 
" style="stroke: #000000; stroke-width: 0.8"/>
      </defs>
      <g>
       <use xlink:href="#m80545fbaf0" x="82.306218" y="221.272" style="stroke: #000000; stroke-width: 0.8"/>
      </g>
     </g>
     <g id="text_1">
      <!-- 0 -->
      <g transform="translate(79.124968 235.870437) scale(0.1 -0.1)">
       <defs>
        <path id="DejaVuSans-30" d="M 2034 4250 
Q 1547 4250 1301 3770 
Q 1056 3291 1056 2328 
Q 1056 1369 1301 889 
Q 1547 409 2034 409 
Q 2525 409 2770 889 
Q 3016 1369 3016 2328 
Q 3016 3291 2770 3770 
Q 2525 4250 2034 4250 
z
M 2034 4750 
Q 2819 4750 3233 4129 
Q 3647 3509 3647 2328 
Q 3647 1150 3233 529 
Q 2819 -91 2034 -91 
Q 1250 -91 836 529 
Q 422 1150 422 2328 
Q 422 3509 836 4129 
Q 1250 4750 2034 4750 
z
" transform="scale(0.015625)"/>
       </defs>
       <use xlink:href="#DejaVuSans-30"/>
      </g>
     </g>
    </g>
    <g id="xtick_2">
     <g id="line2d_3">
      <path d="M 186.308264 221.272 
L 186.308264 41.856 
" clip-path="url(#p026fecae27)" style="fill: none; stroke: #b0b0b0; stroke-opacity: 0.25; stroke-width: 0.8; stroke-linecap: square"/>
     </g>
     <g id="line2d_4">
      <g>
       <use xlink:href="#m80545fbaf0" x="186.308264" y="221.272" style="stroke: #000000; stroke-width: 0.8"/>
      </g>
     </g>
     <g id="text_2">
      <!-- 2 -->
      <g transform="translate(183.127014 235.870437) scale(0.1 -0.1)">
       <defs>
        <path id="DejaVuSans-32" d="M 1228 531 
L 3431 531 
L 3431 0 
L 469 0 
L 469 531 
Q 828 903 1448 1529 
Q 2069 2156 2228 2338 
Q 2531 2678 2651 2914 
Q 2772 3150 2772 3378 
Q 2772 3750 2511 3984 
Q 2250 4219 1831 4219 
Q 1534 4219 1204 4116 
Q 875 4013 500 3803 
L 500 4441 
Q 881 4594 1212 4672 
Q 1544 4750 1819 4750 
Q 2544 4750 2975 4387 
Q 3406 4025 3406 3419 
Q 3406 3131 3298 2873 
Q 3191 2616 2906 2266 
Q 2828 2175 2409 1742 
Q 1991 1309 1228 531 
z
" transform="scale(0.015625)"/>
       </defs>
       <use xlink:href="#DejaVuSans-32"/>
      </g>
     </g>
    </g>
    <g id="xtick_3">
     <g id="line2d_5">
      <path d="M 290.31031 221.272 
L 290.31031 41.856 
" clip-path="url(#p026fecae27)" style="fill: none; stroke: #b0b0b0; stroke-opacity: 0.25; stroke-width: 0.8; stroke-linecap: square"/>
     </g>
     <g id="line2d_6">
      <g>
       <use xlink:href="#m80545fbaf0" x="290.31031" y="221.272" style="stroke: #000000; stroke-width: 0.8"/>
      </g>
     </g>
     <g id="text_3">
      <!-- 4 -->
      <g transform="translate(287.12906 235.870437) scale(0.1 -0.1)">
       <defs>
        <path id="DejaVuSans-34" d="M 2419 4116 
L 825 1625 
L 2419 1625 
L 2419 4116 
z
M 2253 4666 
L 3047 4666 
L 3047 1625 
L 3713 1625 
L 3713 1100 
L 3047 1100 
L 3047 0 
L 2419 0 
L 2419 1100 
L 313 1100 
L 313 1709 
L 2253 4666 
z
" transform="scale(0.015625)"/>
       </defs>
       <use xlink:href="#DejaVuSans-34"/>
      </g>
     </g>
    </g>
    <g id="xtick_4">
     <g id="line2d_7">
      <path d="M 394.312357 221.272 
L 394.312357 41.856 
" clip-path="url(#p026fecae27)" style="fill: none; stroke: #b0b0b0; stroke-opacity: 0.25; stroke-width: 0.8; stroke-linecap: square"/>
     </g>
     <g id="line2d_8">
      <g>
       <use xlink:href="#m80545fbaf0" x="394.312357" y="221.272" style="stroke: #000000; stroke-width: 0.8"/>
      </g>
     </g>
     <g id="text_4">
      <!-- 6 -->
      <g transform="translate(391.131107 235.870437) scale(0.1 -0.1)">
       <defs>
        <path id="DejaVuSans-36" d="M 2113 2584 
Q 1688 2584 1439 2293 
Q 1191 2003 1191 1497 
Q 1191 994 1439 701 
Q 1688 409 2113 409 
Q 2538 409 2786 701 
Q 3034 994 3034 1497 
Q 3034 2003 2786 2293 
Q 2538 2584 2113 2584 
z
M 3366 4563 
L 3366 3988 
Q 3128 4100 2886 4159 
Q 2644 4219 2406 4219 
Q 1781 4219 1451 3797 
Q 1122 3375 1075 2522 
Q 1259 2794 1537 2939 
Q 1816 3084 2150 3084 
Q 2853 3084 3261 2657 
Q 3669 2231 3669 1497 
Q 3669 778 3244 343 
Q 2819 -91 2113 -91 
Q 1303 -91 875 529 
Q 447 1150 447 2328 
Q 447 3434 972 4092 
Q 1497 4750 2381 4750 
Q 2619 4750 2861 4703 
Q 3103 4656 3366 4563 
z
" transform="scale(0.015625)"/>
       </defs>
       <use xlink:href="#DejaVuSans-36"/>
      </g>
     </g>
    </g>
    <g id="xtick_5">
     <g id="line2d_9">
      <path d="M 498.314403 221.272 
L 498.314403 41.856 
" clip-path="url(#p026fecae27)" style="fill: none; stroke: #b0b0b0; stroke-opacity: 0.25; stroke-width: 0.8; stroke-linecap: square"/>
     </g>
     <g id="line2d_10">
      <g>
       <use xlink:href="#m80545fbaf0" x="498.314403" y="221.272" style="stroke: #000000; stroke-width: 0.8"/>
      </g>
     </g>
     <g id="text_5">
      <!-- 8 -->
      <g transform="translate(495.133153 235.870437) scale(0.1 -0.1)">
       <defs>
        <path id="DejaVuSans-38" d="M 2034 2216 
Q 1584 2216 1326 1975 
Q 1069 1734 1069 1313 
Q 1069 891 1326 650 
Q 1584 409 2034 409 
Q 2484 409 2743 651 
Q 3003 894 3003 1313 
Q 3003 1734 2745 1975 
Q 2488 2216 2034 2216 
z
M 1403 2484 
Q 997 2584 770 2862 
Q 544 3141 544 3541 
Q 544 4100 942 4425 
Q 1341 4750 2034 4750 
Q 2731 4750 3128 4425 
Q 3525 4100 3525 3541 
Q 3525 3141 3298 2862 
Q 3072 2584 2669 2484 
Q 3125 2378 3379 2068 
Q 3634 1759 3634 1313 
Q 3634 634 3220 271 
Q 2806 -91 2034 -91 
Q 1263 -91 848 271 
Q 434 634 434 1313 
Q 434 1759 690 2068 
Q 947 2378 1403 2484 
z
M 1172 3481 
Q 1172 3119 1398 2916 
Q 1625 2713 2034 2713 
Q 2441 2713 2670 2916 
Q 2900 3119 2900 3481 
Q 2900 3844 2670 4047 
Q 2441 4250 2034 4250 
Q 1625 4250 1398 4047 
Q 1172 3844 1172 3481 
z
" transform="scale(0.015625)"/>
       </defs>
       <use xlink:href="#DejaVuSans-38"/>
      </g>
     </g>
    </g>
    <g id="xtick_6">
     <g id="line2d_11">
      <path d="M 602.316449 221.272 
L 602.316449 41.856 
" clip-path="url(#p026fecae27)" style="fill: none; stroke: #b0b0b0; stroke-opacity: 0.25; stroke-width: 0.8; stroke-linecap: square"/>
     </g>
     <g id="line2d_12">
      <g>
       <use xlink:href="#m80545fbaf0" x="602.316449" y="221.272" style="stroke: #000000; stroke-width: 0.8"/>
      </g>
     </g>
     <g id="text_6">
      <!-- 10 -->
      <g transform="translate(595.953949 235.870437) scale(0.1 -0.1)">
       <defs>
        <path id="DejaVuSans-31" d="M 794 531 
L 1825 531 
L 1825 4091 
L 703 3866 
L 703 4441 
L 1819 4666 
L 2450 4666 
L 2450 531 
L 3481 531 
L 3481 0 
L 794 0 
L 794 531 
z
" transform="scale(0.015625)"/>
       </defs>
       <use xlink:href="#DejaVuSans-31"/>
       <use xlink:href="#DejaVuSans-30" transform="translate(63.623047 0)"/>
      </g>
     </g>
    </g>
    <g id="text_7">
     <!-- t [arb.] -->
     <g transform="translate(324.914262 249.548563) scale(0.1 -0.1)">
      <defs>
       <path id="DejaVuSans-74" d="M 1172 4494 
L 1172 3500 
L 2356 3500 
L 2356 3053 
L 1172 3053 
L 1172 1153 
Q 1172 725 1289 603 
Q 1406 481 1766 481 
L 2356 481 
L 2356 0 
L 1766 0 
Q 1100 0 847 248 
Q 594 497 594 1153 
L 594 3053 
L 172 3053 
L 172 3500 
L 594 3500 
L 594 4494 
L 1172 4494 
z
" transform="scale(0.015625)"/>
       <path id="DejaVuSans-20" transform="scale(0.015625)"/>
       <path id="DejaVuSans-5b" d="M 550 4863 
L 1875 4863 
L 1875 4416 
L 1125 4416 
L 1125 -397 
L 1875 -397 
L 1875 -844 
L 550 -844 
L 550 4863 
z
" transform="scale(0.015625)"/>
       <path id="DejaVuSans-61" d="M 2194 1759 
Q 1497 1759 1228 1600 
Q 959 1441 959 1056 
Q 959 750 1161 570 
Q 1363 391 1709 391 
Q 2188 391 2477 730 
Q 2766 1069 2766 1631 
L 2766 1759 
L 2194 1759 
z
M 3341 1997 
L 3341 0 
L 2766 0 
L 2766 531 
Q 2569 213 2275 61 
Q 1981 -91 1556 -91 
Q 1019 -91 701 211 
Q 384 513 384 1019 
Q 384 1609 779 1909 
Q 1175 2209 1959 2209 
L 2766 2209 
L 2766 2266 
Q 2766 2663 2505 2880 
Q 2244 3097 1772 3097 
Q 1472 3097 1187 3025 
Q 903 2953 641 2809 
L 641 3341 
Q 956 3463 1253 3523 
Q 1550 3584 1831 3584 
Q 2591 3584 2966 3190 
Q 3341 2797 3341 1997 
z
" transform="scale(0.015625)"/>
       <path id="DejaVuSans-72" d="M 2631 2963 
Q 2534 3019 2420 3045 
Q 2306 3072 2169 3072 
Q 1681 3072 1420 2755 
Q 1159 2438 1159 1844 
L 1159 0 
L 581 0 
L 581 3500 
L 1159 3500 
L 1159 2956 
Q 1341 3275 1631 3429 
Q 1922 3584 2338 3584 
Q 2397 3584 2469 3576 
Q 2541 3569 2628 3553 
L 2631 2963 
z
" transform="scale(0.015625)"/>
       <path id="DejaVuSans-62" d="M 3116 1747 
Q 3116 2381 2855 2742 
Q 2594 3103 2138 3103 
Q 1681 3103 1420 2742 
Q 1159 2381 1159 1747 
Q 1159 1113 1420 752 
Q 1681 391 2138 391 
Q 2594 391 2855 752 
Q 3116 1113 3116 1747 
z
M 1159 2969 
Q 1341 3281 1617 3432 
Q 1894 3584 2278 3584 
Q 2916 3584 3314 3078 
Q 3713 2572 3713 1747 
Q 3713 922 3314 415 
Q 2916 -91 2278 -91 
Q 1894 -91 1617 61 
Q 1341 213 1159 525 
L 1159 0 
L 581 0 
L 581 4863 
L 1159 4863 
L 1159 2969 
z
" transform="scale(0.015625)"/>
       <path id="DejaVuSans-2e" d="M 684 794 
L 1344 794 
L 1344 0 
L 684 0 
L 684 794 
z
" transform="scale(0.015625)"/>
       <path id="DejaVuSans-5d" d="M 1947 4863 
L 1947 -844 
L 622 -844 
L 622 -397 
L 1369 -397 
L 1369 4416 
L 622 4416 
L 622 4863 
L 1947 4863 
z
" transform="scale(0.015625)"/>
      </defs>
      <use xlink:href="#DejaVuSans-74"/>
      <use xlink:href="#DejaVuSans-20" transform="translate(39.208984 0)"/>
      <use xlink:href="#DejaVuSans-5b" transform="translate(70.996094 0)"/>
      <use xlink:href="#DejaVuSans-61" transform="translate(110.009766 0)"/>
      <use xlink:href="#DejaVuSans-72" transform="translate(171.289062 0)"/>
      <use xlink:href="#DejaVuSans-62" transform="translate(212.402344 0)"/>
      <use xlink:href="#DejaVuSans-2e" transform="translate(275.878906 0)"/>
      <use xlink:href="#DejaVuSans-5d" transform="translate(307.666016 0)"/>
     </g>
    </g>
   </g>
   <g id="matplotlib.axis_2">
    <g id="ytick_1">
     <g id="line2d_13">
      <path d="M 56.312054 201.306852 
L 628.183658 201.306852 
" clip-path="url(#p026fecae27)" style="fill: none; stroke: #b0b0b0; stroke-opacity: 0.25; stroke-width: 0.8; stroke-linecap: square"/>
     </g>
     <g id="line2d_14">
      <defs>
       <path id="m1a7d8d8e17" d="M 0 0 
L -3.5 0 
" style="stroke: #000000; stroke-width: 0.8"/>
      </defs>
      <g>
       <use xlink:href="#m1a7d8d8e17" x="56.312054" y="201.306852" style="stroke: #000000; stroke-width: 0.8"/>
      </g>
     </g>
     <g id="text_8">
      <!-- −1.0 -->
      <g transform="translate(25.029241 205.106071) scale(0.1 -0.1)">
       <defs>
        <path id="DejaVuSans-2212" d="M 678 2272 
L 4684 2272 
L 4684 1741 
L 678 1741 
L 678 2272 
z
" transform="scale(0.015625)"/>
       </defs>
       <use xlink:href="#DejaVuSans-2212"/>
       <use xlink:href="#DejaVuSans-31" transform="translate(83.789062 0)"/>
       <use xlink:href="#DejaVuSans-2e" transform="translate(147.412109 0)"/>
       <use xlink:href="#DejaVuSans-30" transform="translate(179.199219 0)"/>
      </g>
     </g>
    </g>
    <g id="ytick_2">
     <g id="line2d_15">
      <path d="M 56.312054 166.435426 
L 628.183658 166.435426 
" clip-path="url(#p026fecae27)" style="fill: none; stroke: #b0b0b0; stroke-opacity: 0.25; stroke-width: 0.8; stroke-linecap: square"/>
     </g>
     <g id="line2d_16">
      <g>
       <use xlink:href="#m1a7d8d8e17" x="56.312054" y="166.435426" style="stroke: #000000; stroke-width: 0.8"/>
      </g>
     </g>
     <g id="text_9">
      <!-- −0.5 -->
      <g transform="translate(25.029241 170.234645) scale(0.1 -0.1)">
       <defs>
        <path id="DejaVuSans-35" d="M 691 4666 
L 3169 4666 
L 3169 4134 
L 1269 4134 
L 1269 2991 
Q 1406 3038 1543 3061 
Q 1681 3084 1819 3084 
Q 2600 3084 3056 2656 
Q 3513 2228 3513 1497 
Q 3513 744 3044 326 
Q 2575 -91 1722 -91 
Q 1428 -91 1123 -41 
Q 819 9 494 109 
L 494 744 
Q 775 591 1075 516 
Q 1375 441 1709 441 
Q 2250 441 2565 725 
Q 2881 1009 2881 1497 
Q 2881 1984 2565 2268 
Q 2250 2553 1709 2553 
Q 1456 2553 1204 2497 
Q 953 2441 691 2322 
L 691 4666 
z
" transform="scale(0.015625)"/>
       </defs>
       <use xlink:href="#DejaVuSans-2212"/>
       <use xlink:href="#DejaVuSans-30" transform="translate(83.789062 0)"/>
       <use xlink:href="#DejaVuSans-2e" transform="translate(147.412109 0)"/>
       <use xlink:href="#DejaVuSans-35" transform="translate(179.199219 0)"/>
      </g>
     </g>
    </g>
    <g id="ytick_3">
     <g id="line2d_17">
      <path d="M 56.312054 131.564 
L 628.183658 131.564 
" clip-path="url(#p026fecae27)" style="fill: none; stroke: #b0b0b0; stroke-opacity: 0.25; stroke-width: 0.8; stroke-linecap: square"/>
     </g>
     <g id="line2d_18">
      <g>
       <use xlink:href="#m1a7d8d8e17" x="56.312054" y="131.564" style="stroke: #000000; stroke-width: 0.8"/>
      </g>
     </g>
     <g id="text_10">
      <!-- 0.0 -->
      <g transform="translate(33.408929 135.363219) scale(0.1 -0.1)">
       <use xlink:href="#DejaVuSans-30"/>
       <use xlink:href="#DejaVuSans-2e" transform="translate(63.623047 0)"/>
       <use xlink:href="#DejaVuSans-30" transform="translate(95.410156 0)"/>
      </g>
     </g>
    </g>
    <g id="ytick_4">
     <g id="line2d_19">
      <path d="M 56.312054 96.692574 
L 628.183658 96.692574 
" clip-path="url(#p026fecae27)" style="fill: none; stroke: #b0b0b0; stroke-opacity: 0.25; stroke-width: 0.8; stroke-linecap: square"/>
     </g>
     <g id="line2d_20">
      <g>
       <use xlink:href="#m1a7d8d8e17" x="56.312054" y="96.692574" style="stroke: #000000; stroke-width: 0.8"/>
      </g>
     </g>
     <g id="text_11">
      <!-- 0.5 -->
      <g transform="translate(33.408929 100.491793) scale(0.1 -0.1)">
       <use xlink:href="#DejaVuSans-30"/>
       <use xlink:href="#DejaVuSans-2e" transform="translate(63.623047 0)"/>
       <use xlink:href="#DejaVuSans-35" transform="translate(95.410156 0)"/>
      </g>
     </g>
    </g>
    <g id="ytick_5">
     <g id="line2d_21">
      <path d="M 56.312054 61.821148 
L 628.183658 61.821148 
" clip-path="url(#p026fecae27)" style="fill: none; stroke: #b0b0b0; stroke-opacity: 0.25; stroke-width: 0.8; stroke-linecap: square"/>
     </g>
     <g id="line2d_22">
      <g>
       <use xlink:href="#m1a7d8d8e17" x="56.312054" y="61.821148" style="stroke: #000000; stroke-width: 0.8"/>
      </g>
     </g>
     <g id="text_12">
      <!-- 1.0 -->
      <g transform="translate(33.408929 65.620367) scale(0.1 -0.1)">
       <use xlink:href="#DejaVuSans-31"/>
       <use xlink:href="#DejaVuSans-2e" transform="translate(63.623047 0)"/>
       <use xlink:href="#DejaVuSans-30" transform="translate(95.410156 0)"/>
      </g>
     </g>
    </g>
    <g id="text_13">
     <!-- [arb.] -->
     <g transform="translate(18.949554 145.348375) rotate(-90) scale(0.1 -0.1)">
      <use xlink:href="#DejaVuSans-5b"/>
      <use xlink:href="#DejaVuSans-61" transform="translate(39.013672 0)"/>
      <use xlink:href="#DejaVuSans-72" transform="translate(100.292969 0)"/>
      <use xlink:href="#DejaVuSans-62" transform="translate(141.40625 0)"/>
      <use xlink:href="#DejaVuSans-2e" transform="translate(204.882812 0)"/>
      <use xlink:href="#DejaVuSans-5d" transform="translate(236.669922 0)"/>
     </g>
    </g>
   </g>
   <g id="line2d_23">
    <path d="M 82.306218 131.564 
L 82.433173 50.011273 
L 114.552946 50.011273 
L 114.679902 213.116727 
L 146.799674 213.116727 
L 146.92663 50.011273 
L 179.046402 50.011273 
L 179.173358 213.116727 
L 211.293131 213.116727 
L 211.420086 50.011273 
L 243.666815 50.011273 
L 243.79377 213.116727 
L 275.913543 213.116727 
L 276.040498 50.011273 
L 308.160271 50.011273 
L 308.287227 213.116727 
L 340.406999 213.116727 
L 340.533955 50.011273 
L 372.780683 50.011273 
L 372.907639 213.116727 
L 405.027411 213.116727 
L 405.154367 50.011273 
L 437.27414 50.011273 
L 437.401095 213.116727 
L 469.520868 213.116727 
L 469.647823 50.011273 
L 501.894552 50.011273 
L 502.021507 213.116727 
L 534.14128 213.116727 
L 534.268236 50.011273 
L 566.388008 50.011273 
L 566.514964 213.116727 
L 598.634736 213.116727 
L 598.761692 50.011273 
L 602.189494 50.011273 
L 602.189494 50.011273 
" clip-path="url(#p026fecae27)" style="fill: none; stroke: #1f77b4; stroke-width: 1.5; stroke-linecap: square"/>
   </g>
   <g id="line2d_24">
    <path d="M 82.306218 131.564 
L 83.321863 131.351737 
L 100.080005 127.734719 
L 113.537301 125.053737 
L 114.806857 124.898723 
L 146.92663 133.094553 
L 167.874308 129.04316 
L 179.173358 127.03126 
L 203.421882 133.507832 
L 211.420086 135.513292 
L 241.76248 129.653374 
L 243.920726 129.340516 
L 263.091025 134.262654 
L 275.913543 137.349376 
L 276.421365 137.268758 
L 308.287227 130.498989 
L 326.314925 134.704483 
L 340.026132 137.678444 
L 340.66091 137.724977 
L 372.907639 130.095424 
L 392.712716 134.277169 
L 405.154367 136.698145 
L 433.084604 129.638162 
L 437.528051 128.648808 
L 462.030486 133.602341 
L 469.774779 134.998152 
L 491.738102 129.428582 
L 502.021507 126.990196 
L 533.379546 133.54819 
L 534.395191 133.666529 
L 554.073313 128.93125 
L 566.388008 126.153656 
L 566.895831 126.241538 
L 598.634736 133.409485 
L 599.142559 133.321478 
L 602.189494 132.625502 
L 602.189494 132.625502 
" clip-path="url(#p026fecae27)" style="fill: none; stroke: #ff7f0e; stroke-width: 1.5; stroke-linecap: square"/>
   </g>
   <g id="patch_3">
    <path d="M 56.312054 221.272 
L 56.312054 41.856 
" style="fill: none; stroke: #000000; stroke-width: 0.8; stroke-linejoin: miter; stroke-linecap: square"/>
   </g>
   <g id="patch_4">
    <path d="M 628.183658 221.272 
L 628.183658 41.856 
" style="fill: none; stroke: #000000; stroke-width: 0.8; stroke-linejoin: miter; stroke-linecap: square"/>
   </g>
   <g id="patch_5">
    <path d="M 56.312054 221.272 
L 628.183658 221.272 
" style="fill: none; stroke: #000000; stroke-width: 0.8; stroke-linejoin: miter; stroke-linecap: square"/>
   </g>
   <g id="patch_6">
    <path d="M 56.312054 41.856 
L 628.183658 41.856 
" style="fill: none; stroke: #000000; stroke-width: 0.8; stroke-linejoin: miter; stroke-linecap: square"/>
   </g>
   <g id="text_14">
    <!-- Daily Useless RLC (2026-03-24) | verdict: restless -->
    <g transform="translate(193.667231 22.021875) scale(0.12 -0.12)">
     <defs>
      <path id="DejaVuSans-44" d="M 1259 4147 
L 1259 519 
L 2022 519 
Q 2988 519 3436 956 
Q 3884 1394 3884 2338 
Q 3884 3275 3436 3711 
Q 2988 4147 2022 4147 
L 1259 4147 
z
M 628 4666 
L 1925 4666 
Q 3281 4666 3915 4102 
Q 4550 3538 4550 2338 
Q 4550 1131 3912 565 
Q 3275 0 1925 0 
L 628 0 
L 628 4666 
z
" transform="scale(0.015625)"/>
      <path id="DejaVuSans-69" d="M 603 3500 
L 1178 3500 
L 1178 0 
L 603 0 
L 603 3500 
z
M 603 4863 
L 1178 4863 
L 1178 4134 
L 603 4134 
L 603 4863 
z
" transform="scale(0.015625)"/>
      <path id="DejaVuSans-6c" d="M 603 4863 
L 1178 4863 
L 1178 0 
L 603 0 
L 603 4863 
z
" transform="scale(0.015625)"/>
      <path id="DejaVuSans-79" d="M 2059 -325 
Q 1816 -950 1584 -1140 
Q 1353 -1331 966 -1331 
L 506 -1331 
L 506 -850 
L 844 -850 
Q 1081 -850 1212 -737 
Q 1344 -625 1503 -206 
L 1606 56 
L 191 3500 
L 800 3500 
L 1894 763 
L 2988 3500 
L 3597 3500 
L 2059 -325 
z
" transform="scale(0.015625)"/>
      <path id="DejaVuSans-55" d="M 556 4666 
L 1191 4666 
L 1191 1831 
Q 1191 1081 1462 751 
Q 1734 422 2344 422 
Q 2950 422 3222 751 
Q 3494 1081 3494 1831 
L 3494 4666 
L 4128 4666 
L 4128 1753 
Q 4128 841 3676 375 
Q 3225 -91 2344 -91 
Q 1459 -91 1007 375 
Q 556 841 556 1753 
L 556 4666 
z
" transform="scale(0.015625)"/>
      <path id="DejaVuSans-73" d="M 2834 3397 
L 2834 2853 
Q 2591 2978 2328 3040 
Q 2066 3103 1784 3103 
Q 1356 3103 1142 2972 
Q 928 2841 928 2578 
Q 928 2378 1081 2264 
Q 1234 2150 1697 2047 
L 1894 2003 
Q 2506 1872 2764 1633 
Q 3022 1394 3022 966 
Q 3022 478 2636 193 
Q 2250 -91 1575 -91 
Q 1294 -91 989 -36 
Q 684 19 347 128 
L 347 722 
Q 666 556 975 473 
Q 1284 391 1588 391 
Q 1994 391 2212 530 
Q 2431 669 2431 922 
Q 2431 1156 2273 1281 
Q 2116 1406 1581 1522 
L 1381 1569 
Q 847 1681 609 1914 
Q 372 2147 372 2553 
Q 372 3047 722 3315 
Q 1072 3584 1716 3584 
Q 2034 3584 2315 3537 
Q 2597 3491 2834 3397 
z
" transform="scale(0.015625)"/>
      <path id="DejaVuSans-65" d="M 3597 1894 
L 3597 1613 
L 953 1613 
Q 991 1019 1311 708 
Q 1631 397 2203 397 
Q 2534 397 2845 478 
Q 3156 559 3463 722 
L 3463 178 
Q 3153 47 2828 -22 
Q 2503 -91 2169 -91 
Q 1331 -91 842 396 
Q 353 884 353 1716 
Q 353 2575 817 3079 
Q 1281 3584 2069 3584 
Q 2775 3584 3186 3129 
Q 3597 2675 3597 1894 
z
M 3022 2063 
Q 3016 2534 2758 2815 
Q 2500 3097 2075 3097 
Q 1594 3097 1305 2825 
Q 1016 2553 972 2059 
L 3022 2063 
z
" transform="scale(0.015625)"/>
      <path id="DejaVuSans-52" d="M 2841 2188 
Q 3044 2119 3236 1894 
Q 3428 1669 3622 1275 
L 4263 0 
L 3584 0 
L 2988 1197 
Q 2756 1666 2539 1819 
Q 2322 1972 1947 1972 
L 1259 1972 
L 1259 0 
L 628 0 
L 628 4666 
L 2053 4666 
Q 2853 4666 3247 4331 
Q 3641 3997 3641 3322 
Q 3641 2881 3436 2590 
Q 3231 2300 2841 2188 
z
M 1259 4147 
L 1259 2491 
L 2053 2491 
Q 2509 2491 2742 2702 
Q 2975 2913 2975 3322 
Q 2975 3731 2742 3939 
Q 2509 4147 2053 4147 
L 1259 4147 
z
" transform="scale(0.015625)"/>
      <path id="DejaVuSans-4c" d="M 628 4666 
L 1259 4666 
L 1259 531 
L 3531 531 
L 3531 0 
L 628 0 
L 628 4666 
z
" transform="scale(0.015625)"/>
      <path id="DejaVuSans-43" d="M 4122 4306 
L 4122 3641 
Q 3803 3938 3442 4084 
Q 3081 4231 2675 4231 
Q 1875 4231 1450 3742 
Q 1025 3253 1025 2328 
Q 1025 1406 1450 917 
Q 1875 428 2675 428 
Q 3081 428 3442 575 
Q 3803 722 4122 1019 
L 4122 359 
Q 3791 134 3420 21 
Q 3050 -91 2638 -91 
Q 1578 -91 968 557 
Q 359 1206 359 2328 
Q 359 3453 968 4101 
Q 1578 4750 2638 4750 
Q 3056 4750 3426 4639 
Q 3797 4528 4122 4306 
z
" transform="scale(0.015625)"/>
      <path id="DejaVuSans-28" d="M 1984 4856 
Q 1566 4138 1362 3434 
Q 1159 2731 1159 2009 
Q 1159 1288 1364 580 
Q 1569 -128 1984 -844 
L 1484 -844 
Q 1016 -109 783 600 
Q 550 1309 550 2009 
Q 550 2706 781 3412 
Q 1013 4119 1484 4856 
L 1984 4856 
z
" transform="scale(0.015625)"/>
      <path id="DejaVuSans-2d" d="M 313 2009 
L 1997 2009 
L 1997 1497 
L 313 1497 
L 313 2009 
z
" transform="scale(0.015625)"/>
      <path id="DejaVuSans-33" d="M 2597 2516 
Q 3050 2419 3304 2112 
Q 3559 1806 3559 1356 
Q 3559 666 3084 287 
Q 2609 -91 1734 -91 
Q 1441 -91 1130 -33 
Q 819 25 488 141 
L 488 750 
Q 750 597 1062 519 
Q 1375 441 1716 441 
Q 2309 441 2620 675 
Q 2931 909 2931 1356 
Q 2931 1769 2642 2001 
Q 2353 2234 1838 2234 
L 1294 2234 
L 1294 2753 
L 1863 2753 
Q 2328 2753 2575 2939 
Q 2822 3125 2822 3475 
Q 2822 3834 2567 4026 
Q 2313 4219 1838 4219 
Q 1578 4219 1281 4162 
Q 984 4106 628 3988 
L 628 4550 
Q 988 4650 1302 4700 
Q 1616 4750 1894 4750 
Q 2613 4750 3031 4423 
Q 3450 4097 3450 3541 
Q 3450 3153 3228 2886 
Q 3006 2619 2597 2516 
z
" transform="scale(0.015625)"/>
      <path id="DejaVuSans-29" d="M 513 4856 
L 1013 4856 
Q 1481 4119 1714 3412 
Q 1947 2706 1947 2009 
Q 1947 1309 1714 600 
Q 1481 -109 1013 -844 
L 513 -844 
Q 928 -128 1133 580 
Q 1338 1288 1338 2009 
Q 1338 2731 1133 3434 
Q 928 4138 513 4856 
z
" transform="scale(0.015625)"/>
      <path id="DejaVuSans-7c" d="M 1344 4891 
L 1344 -1509 
L 813 -1509 
L 813 4891 
L 1344 4891 
z
" transform="scale(0.015625)"/>
      <path id="DejaVuSans-76" d="M 191 3500 
L 800 3500 
L 1894 563 
L 2988 3500 
L 3597 3500 
L 2284 0 
L 1503 0 
L 191 3500 
z
" transform="scale(0.015625)"/>
      <path id="DejaVuSans-64" d="M 2906 2969 
L 2906 4863 
L 3481 4863 
L 3481 0 
L 2906 0 
L 2906 525 
Q 2725 213 2448 61 
Q 2172 -91 1784 -91 
Q 1150 -91 751 415 
Q 353 922 353 1747 
Q 353 2572 751 3078 
Q 1150 3584 1784 3584 
Q 2172 3584 2448 3432 
Q 2725 3281 2906 2969 
z
M 947 1747 
Q 947 1113 1208 752 
Q 1469 391 1925 391 
Q 2381 391 2643 752 
Q 2906 1113 2906 1747 
Q 2906 2381 2643 2742 
Q 2381 3103 1925 3103 
Q 1469 3103 1208 2742 
Q 947 2381 947 1747 
z
" transform="scale(0.015625)"/>
      <path id="DejaVuSans-63" d="M 3122 3366 
L 3122 2828 
Q 2878 2963 2633 3030 
Q 2388 3097 2138 3097 
Q 1578 3097 1268 2742 
Q 959 2388 959 1747 
Q 959 1106 1268 751 
Q 1578 397 2138 397 
Q 2388 397 2633 464 
Q 2878 531 3122 666 
L 3122 134 
Q 2881 22 2623 -34 
Q 2366 -91 2075 -91 
Q 1284 -91 818 406 
Q 353 903 353 1747 
Q 353 2603 823 3093 
Q 1294 3584 2113 3584 
Q 2378 3584 2631 3529 
Q 2884 3475 3122 3366 
z
" transform="scale(0.015625)"/>
      <path id="DejaVuSans-3a" d="M 750 794 
L 1409 794 
L 1409 0 
L 750 0 
L 750 794 
z
M 750 3309 
L 1409 3309 
L 1409 2516 
L 750 2516 
L 750 3309 
z
" transform="scale(0.015625)"/>
     </defs>
     <use xlink:href="#DejaVuSans-44"/>
     <use xlink:href="#DejaVuSans-61" transform="translate(77.001953 0)"/>
     <use xlink:href="#DejaVuSans-69" transform="translate(138.28125 0)"/>
     <use xlink:href="#DejaVuSans-6c" transform="translate(166.064453 0)"/>
     <use xlink:href="#DejaVuSans-79" transform="translate(193.847656 0)"/>
     <use xlink:href="#DejaVuSans-20" transform="translate(253.027344 0)"/>
     <use xlink:href="#DejaVuSans-55" transform="translate(284.814453 0)"/>
     <use xlink:href="#DejaVuSans-73" transform="translate(358.007812 0)"/>
     <use xlink:href="#DejaVuSans-65" transform="translate(410.107422 0)"/>
     <use xlink:href="#DejaVuSans-6c" transform="translate(471.630859 0)"/>
     <use xlink:href="#DejaVuSans-65" transform="translate(499.414062 0)"/>
     <use xlink:href="#DejaVuSans-73" transform="translate(560.9375 0)"/>
     <use xlink:href="#DejaVuSans-73" transform="translate(613.037109 0)"/>
     <use xlink:href="#DejaVuSans-20" transform="translate(665.136719 0)"/>
     <use xlink:href="#DejaVuSans-52" transform="translate(696.923828 0)"/>
     <use xlink:href="#DejaVuSans-4c" transform="translate(766.40625 0)"/>
     <use xlink:href="#DejaVuSans-43" transform="translate(822.119141 0)"/>
     <use xlink:href="#DejaVuSans-20" transform="translate(891.943359 0)"/>
     <use xlink:href="#DejaVuSans-28" transform="translate(923.730469 0)"/>
     <use xlink:href="#DejaVuSans-32" transform="translate(962.744141 0)"/>
     <use xlink:href="#DejaVuSans-30" transform="translate(1026.367188 0)"/>
     <use xlink:href="#DejaVuSans-32" transform="translate(1089.990234 0)"/>
     <use xlink:href="#DejaVuSans-36" transform="translate(1153.613281 0)"/>
     <use xlink:href="#DejaVuSans-2d" transform="translate(1217.236328 0)"/>
     <use xlink:href="#DejaVuSans-30" transform="translate(1253.320312 0)"/>
     <use xlink:href="#DejaVuSans-33" transform="translate(1316.943359 0)"/>
     <use xlink:href="#DejaVuSans-2d" transform="translate(1380.566406 0)"/>
     <use xlink:href="#DejaVuSans-32" transform="translate(1416.650391 0)"/>
     <use xlink:href="#DejaVuSans-34" transform="translate(1480.273438 0)"/>
     <use xlink:href="#DejaVuSans-29" transform="translate(1543.896484 0)"/>
     <use xlink:href="#DejaVuSans-20" transform="translate(1582.910156 0)"/>
     <use xlink:href="#DejaVuSans-7c" transform="translate(1614.697266 0)"/>
     <use xlink:href="#DejaVuSans-20" transform="translate(1648.388672 0)"/>
     <use xlink:href="#DejaVuSans-76" transform="translate(1680.175781 0)"/>
     <use xlink:href="#DejaVuSans-65" transform="translate(1739.355469 0)"/>
     <use xlink:href="#DejaVuSans-72" transform="translate(1800.878906 0)"/>
     <use xlink:href="#DejaVuSans-64" transform="translate(1840.242188 0)"/>
     <use xlink:href="#DejaVuSans-69" transform="translate(1903.71875 0)"/>
     <use xlink:href="#DejaVuSans-63" transform="translate(1931.501953 0)"/>
     <use xlink:href="#DejaVuSans-74" transform="translate(1986.482422 0)"/>
     <use xlink:href="#DejaVuSans-3a" transform="translate(2025.691406 0)"/>
     <use xlink:href="#DejaVuSans-20" transform="translate(2059.382812 0)"/>
     <use xlink:href="#DejaVuSans-72" transform="translate(2091.169922 0)"/>
     <use xlink:href="#DejaVuSans-65" transform="translate(2130.033203 0)"/>
     <use xlink:href="#DejaVuSans-73" transform="translate(2191.556641 0)"/>
     <use xlink:href="#DejaVuSans-74" transform="translate(2243.65625 0)"/>
     <use xlink:href="#DejaVuSans-6c" transform="translate(2282.865234 0)"/>
     <use xlink:href="#DejaVuSans-65" transform="translate(2310.648438 0)"/>
     <use xlink:href="#DejaVuSans-73" transform="translate(2372.171875 0)"/>
     <use xlink:href="#DejaVuSans-73" transform="translate(2424.271484 0)"/>
    </g>
    <!-- Filter: band | Input: square, square (A=1.17, f=0.81 Hz) | R=0.712, L=5.00, C=0.50, ωn=0.63, ζ=0.113, Q=4.44 -->
    <g transform="translate(4.140356 35.856) scale(0.12 -0.12)">
     <defs>
      <path id="DejaVuSans-46" d="M 628 4666 
L 3309 4666 
L 3309 4134 
L 1259 4134 
L 1259 2759 
L 3109 2759 
L 3109 2228 
L 1259 2228 
L 1259 0 
L 628 0 
L 628 4666 
z
" transform="scale(0.015625)"/>
      <path id="DejaVuSans-6e" d="M 3513 2113 
L 3513 0 
L 2938 0 
L 2938 2094 
Q 2938 2591 2744 2837 
Q 2550 3084 2163 3084 
Q 1697 3084 1428 2787 
Q 1159 2491 1159 1978 
L 1159 0 
L 581 0 
L 581 3500 
L 1159 3500 
L 1159 2956 
Q 1366 3272 1645 3428 
Q 1925 3584 2291 3584 
Q 2894 3584 3203 3211 
Q 3513 2838 3513 2113 
z
" transform="scale(0.015625)"/>
      <path id="DejaVuSans-49" d="M 628 4666 
L 1259 4666 
L 1259 0 
L 628 0 
L 628 4666 
z
" transform="scale(0.015625)"/>
      <path id="DejaVuSans-70" d="M 1159 525 
L 1159 -1331 
L 581 -1331 
L 581 3500 
L 1159 3500 
L 1159 2969 
Q 1341 3281 1617 3432 
Q 1894 3584 2278 3584 
Q 2916 3584 3314 3078 
Q 3713 2572 3713 1747 
Q 3713 922 3314 415 
Q 2916 -91 2278 -91 
Q 1894 -91 1617 61 
Q 1341 213 1159 525 
z
M 3116 1747 
Q 3116 2381 2855 2742 
Q 2594 3103 2138 3103 
Q 1681 3103 1420 2742 
Q 1159 2381 1159 1747 
Q 1159 1113 1420 752 
Q 1681 391 2138 391 
Q 2594 391 2855 752 
Q 3116 1113 3116 1747 
z
" transform="scale(0.015625)"/>
      <path id="DejaVuSans-75" d="M 544 1381 
L 544 3500 
L 1119 3500 
L 1119 1403 
Q 1119 906 1312 657 
Q 1506 409 1894 409 
Q 2359 409 2629 706 
Q 2900 1003 2900 1516 
L 2900 3500 
L 3475 3500 
L 3475 0 
L 2900 0 
L 2900 538 
Q 2691 219 2414 64 
Q 2138 -91 1772 -91 
Q 1169 -91 856 284 
Q 544 659 544 1381 
z
M 1991 3584 
L 1991 3584 
z
" transform="scale(0.015625)"/>
      <path id="DejaVuSans-71" d="M 947 1747 
Q 947 1113 1208 752 
Q 1469 391 1925 391 
Q 2381 391 2643 752 
Q 2906 1113 2906 1747 
Q 2906 2381 2643 2742 
Q 2381 3103 1925 3103 
Q 1469 3103 1208 2742 
Q 947 2381 947 1747 
z
M 2906 525 
Q 2725 213 2448 61 
Q 2172 -91 1784 -91 
Q 1150 -91 751 415 
Q 353 922 353 1747 
Q 353 2572 751 3078 
Q 1150 3584 1784 3584 
Q 2172 3584 2448 3432 
Q 2725 3281 2906 2969 
L 2906 3500 
L 3481 3500 
L 3481 -1331 
L 2906 -1331 
L 2906 525 
z
" transform="scale(0.015625)"/>
      <path id="DejaVuSans-2c" d="M 750 794 
L 1409 794 
L 1409 256 
L 897 -744 
L 494 -744 
L 750 256 
L 750 794 
z
" transform="scale(0.015625)"/>
      <path id="DejaVuSans-41" d="M 2188 4044 
L 1331 1722 
L 3047 1722 
L 2188 4044 
z
M 1831 4666 
L 2547 4666 
L 4325 0 
L 3669 0 
L 3244 1197 
L 1141 1197 
L 716 0 
L 50 0 
L 1831 4666 
z
" transform="scale(0.015625)"/>
      <path id="DejaVuSans-3d" d="M 678 2906 
L 4684 2906 
L 4684 2381 
L 678 2381 
L 678 2906 
z
M 678 1631 
L 4684 1631 
L 4684 1100 
L 678 1100 
L 678 1631 
z
" transform="scale(0.015625)"/>
      <path id="DejaVuSans-37" d="M 525 4666 
L 3525 4666 
L 3525 4397 
L 1831 0 
L 1172 0 
L 2766 4134 
L 525 4134 
L 525 4666 
z
" transform="scale(0.015625)"/>
      <path id="DejaVuSans-66" d="M 2375 4863 
L 2375 4384 
L 1825 4384 
Q 1516 4384 1395 4259 
Q 1275 4134 1275 3809 
L 1275 3500 
L 2222 3500 
L 2222 3053 
L 1275 3053 
L 1275 0 
L 697 0 
L 697 3053 
L 147 3053 
L 147 3500 
L 697 3500 
L 697 3744 
Q 697 4328 969 4595 
Q 1241 4863 1831 4863 
L 2375 4863 
z
" transform="scale(0.015625)"/>
      <path id="DejaVuSans-48" d="M 628 4666 
L 1259 4666 
L 1259 2753 
L 3553 2753 
L 3553 4666 
L 4184 4666 
L 4184 0 
L 3553 0 
L 3553 2222 
L 1259 2222 
L 1259 0 
L 628 0 
L 628 4666 
z
" transform="scale(0.015625)"/>
      <path id="DejaVuSans-7a" d="M 353 3500 
L 3084 3500 
L 3084 2975 
L 922 459 
L 3084 459 
L 3084 0 
L 275 0 
L 275 525 
L 2438 3041 
L 353 3041 
L 353 3500 
z
" transform="scale(0.015625)"/>
      <path id="DejaVuSans-3c9" d="M 1719 -91 
Q 422 -91 422 1766 
Q 422 2500 906 3500 
L 1525 3500 
Q 1078 2500 1078 1750 
Q 1078 397 1772 397 
Q 2406 397 2406 2078 
L 2938 2078 
Q 2938 397 3572 397 
Q 4266 397 4266 1750 
Q 4266 2500 3819 3500 
L 4438 3500 
Q 4922 2500 4922 1766 
Q 4922 -91 3625 -91 
Q 2775 -91 2672 844 
Q 2544 -91 1719 -91 
z
" transform="scale(0.015625)"/>
      <path id="DejaVuSans-3b6" d="M 2231 397 
Q 2644 394 2891 159 
Q 3153 -88 3153 -463 
Q 3153 -822 2922 -1072 
Q 2672 -1344 2163 -1344 
Q 2163 -1109 2163 -872 
Q 2378 -888 2509 -750 
Q 2609 -641 2609 -525 
Q 2609 -359 2509 -222 
Q 2413 -91 2231 -91 
Q 338 -91 334 1669 
Q 334 3206 2119 4284 
L 456 4284 
L 456 4863 
L 3175 4863 
L 3175 4284 
Q 913 3147 913 1669 
Q 913 397 2231 397 
z
" transform="scale(0.015625)"/>
      <path id="DejaVuSans-51" d="M 2522 4238 
Q 1834 4238 1429 3725 
Q 1025 3213 1025 2328 
Q 1025 1447 1429 934 
Q 1834 422 2522 422 
Q 3209 422 3611 934 
Q 4013 1447 4013 2328 
Q 4013 3213 3611 3725 
Q 3209 4238 2522 4238 
z
M 3406 84 
L 4238 -825 
L 3475 -825 
L 2784 -78 
Q 2681 -84 2626 -87 
Q 2572 -91 2522 -91 
Q 1538 -91 948 567 
Q 359 1225 359 2328 
Q 359 3434 948 4092 
Q 1538 4750 2522 4750 
Q 3503 4750 4090 4092 
Q 4678 3434 4678 2328 
Q 4678 1516 4351 937 
Q 4025 359 3406 84 
z
" transform="scale(0.015625)"/>
     </defs>
     <use xlink:href="#DejaVuSans-46"/>
     <use xlink:href="#DejaVuSans-69" transform="translate(50.269531 0)"/>
     <use xlink:href="#DejaVuSans-6c" transform="translate(78.052734 0)"/>
     <use xlink:href="#DejaVuSans-74" transform="translate(105.835938 0)"/>
     <use xlink:href="#DejaVuSans-65" transform="translate(145.044922 0)"/>
     <use xlink:href="#DejaVuSans-72" transform="translate(206.568359 0)"/>
     <use xlink:href="#DejaVuSans-3a" transform="translate(245.931641 0)"/>
     <use xlink:href="#DejaVuSans-20" transform="translate(279.623047 0)"/>
     <use xlink:href="#DejaVuSans-62" transform="translate(311.410156 0)"/>
     <use xlink:href="#DejaVuSans-61" transform="translate(374.886719 0)"/>
     <use xlink:href="#DejaVuSans-6e" transform="translate(436.166016 0)"/>
     <use xlink:href="#DejaVuSans-64" transform="translate(499.544922 0)"/>
     <use xlink:href="#DejaVuSans-20" transform="translate(563.021484 0)"/>
     <use xlink:href="#DejaVuSans-7c" transform="translate(594.808594 0)"/>
     <use xlink:href="#DejaVuSans-20" transform="translate(628.5 0)"/>
     <use xlink:href="#DejaVuSans-49" transform="translate(660.287109 0)"/>
     <use xlink:href="#DejaVuSans-6e" transform="translate(689.779297 0)"/>
     <use xlink:href="#DejaVuSans-70" transform="translate(753.158203 0)"/>
     <use xlink:href="#DejaVuSans-75" transform="translate(816.634766 0)"/>
     <use xlink:href="#DejaVuSans-74" transform="translate(880.013672 0)"/>
     <use xlink:href="#DejaVuSans-3a" transform="translate(919.222656 0)"/>
     <use xlink:href="#DejaVuSans-20" transform="translate(952.914062 0)"/>
     <use xlink:href="#DejaVuSans-73" transform="translate(984.701172 0)"/>
     <use xlink:href="#DejaVuSans-71" transform="translate(1036.800781 0)"/>
     <use xlink:href="#DejaVuSans-75" transform="translate(1100.277344 0)"/>
     <use xlink:href="#DejaVuSans-61" transform="translate(1163.65625 0)"/>
     <use xlink:href="#DejaVuSans-72" transform="translate(1224.935547 0)"/>
     <use xlink:href="#DejaVuSans-65" transform="translate(1263.798828 0)"/>
     <use xlink:href="#DejaVuSans-2c" transform="translate(1325.322266 0)"/>
     <use xlink:href="#DejaVuSans-20" transform="translate(1357.109375 0)"/>
     <use xlink:href="#DejaVuSans-73" transform="translate(1388.896484 0)"/>
     <use xlink:href="#DejaVuSans-71" transform="translate(1440.996094 0)"/>
     <use xlink:href="#DejaVuSans-75" transform="translate(1504.472656 0)"/>
     <use xlink:href="#DejaVuSans-61" transform="translate(1567.851562 0)"/>
     <use xlink:href="#DejaVuSans-72" transform="translate(1629.130859 0)"/>
     <use xlink:href="#DejaVuSans-65" transform="translate(1667.994141 0)"/>
     <use xlink:href="#DejaVuSans-20" transform="translate(1729.517578 0)"/>
     <use xlink:href="#DejaVuSans-28" transform="translate(1761.304688 0)"/>
     <use xlink:href="#DejaVuSans-41" transform="translate(1800.318359 0)"/>
     <use xlink:href="#DejaVuSans-3d" transform="translate(1868.726562 0)"/>
     <use xlink:href="#DejaVuSans-31" transform="translate(1952.515625 0)"/>
     <use xlink:href="#DejaVuSans-2e" transform="translate(2016.138672 0)"/>
     <use xlink:href="#DejaVuSans-31" transform="translate(2047.925781 0)"/>
     <use xlink:href="#DejaVuSans-37" transform="translate(2111.548828 0)"/>
     <use xlink:href="#DejaVuSans-2c" transform="translate(2175.171875 0)"/>
     <use xlink:href="#DejaVuSans-20" transform="translate(2206.958984 0)"/>
     <use xlink:href="#DejaVuSans-66" transform="translate(2238.746094 0)"/>
     <use xlink:href="#DejaVuSans-3d" transform="translate(2273.951172 0)"/>
     <use xlink:href="#DejaVuSans-30" transform="translate(2357.740234 0)"/>
     <use xlink:href="#DejaVuSans-2e" transform="translate(2421.363281 0)"/>
     <use xlink:href="#DejaVuSans-38" transform="translate(2453.150391 0)"/>
     <use xlink:href="#DejaVuSans-31" transform="translate(2516.773438 0)"/>
     <use xlink:href="#DejaVuSans-20" transform="translate(2580.396484 0)"/>
     <use xlink:href="#DejaVuSans-48" transform="translate(2612.183594 0)"/>
     <use xlink:href="#DejaVuSans-7a" transform="translate(2687.378906 0)"/>
     <use xlink:href="#DejaVuSans-29" transform="translate(2739.869141 0)"/>
     <use xlink:href="#DejaVuSans-20" transform="translate(2778.882812 0)"/>
     <use xlink:href="#DejaVuSans-7c" transform="translate(2810.669922 0)"/>
     <use xlink:href="#DejaVuSans-20" transform="translate(2844.361328 0)"/>
     <use xlink:href="#DejaVuSans-52" transform="translate(2876.148438 0)"/>
     <use xlink:href="#DejaVuSans-3d" transform="translate(2945.630859 0)"/>
     <use xlink:href="#DejaVuSans-30" transform="translate(3029.419922 0)"/>
     <use xlink:href="#DejaVuSans-2e" transform="translate(3093.042969 0)"/>
     <use xlink:href="#DejaVuSans-37" transform="translate(3124.830078 0)"/>
     <use xlink:href="#DejaVuSans-31" transform="translate(3188.453125 0)"/>
     <use xlink:href="#DejaVuSans-32" transform="translate(3252.076172 0)"/>
     <use xlink:href="#DejaVuSans-2c" transform="translate(3315.699219 0)"/>
     <use xlink:href="#DejaVuSans-20" transform="translate(3347.486328 0)"/>
     <use xlink:href="#DejaVuSans-4c" transform="translate(3379.273438 0)"/>
     <use xlink:href="#DejaVuSans-3d" transform="translate(3434.986328 0)"/>
     <use xlink:href="#DejaVuSans-35" transform="translate(3518.775391 0)"/>
     <use xlink:href="#DejaVuSans-2e" transform="translate(3582.398438 0)"/>
     <use xlink:href="#DejaVuSans-30" transform="translate(3614.185547 0)"/>
     <use xlink:href="#DejaVuSans-30" transform="translate(3677.808594 0)"/>
     <use xlink:href="#DejaVuSans-2c" transform="translate(3741.431641 0)"/>
     <use xlink:href="#DejaVuSans-20" transform="translate(3773.21875 0)"/>
     <use xlink:href="#DejaVuSans-43" transform="translate(3805.005859 0)"/>
     <use xlink:href="#DejaVuSans-3d" transform="translate(3874.830078 0)"/>
     <use xlink:href="#DejaVuSans-30" transform="translate(3958.619141 0)"/>
     <use xlink:href="#DejaVuSans-2e" transform="translate(4022.242188 0)"/>
     <use xlink:href="#DejaVuSans-35" transform="translate(4054.029297 0)"/>
     <use xlink:href="#DejaVuSans-30" transform="translate(4117.652344 0)"/>
     <use xlink:href="#DejaVuSans-2c" transform="translate(4181.275391 0)"/>
     <use xlink:href="#DejaVuSans-20" transform="translate(4213.0625 0)"/>
     <use xlink:href="#DejaVuSans-3c9" transform="translate(4244.849609 0)"/>
     <use xlink:href="#DejaVuSans-6e" transform="translate(4328.589844 0)"/>
     <use xlink:href="#DejaVuSans-3d" transform="translate(4391.96875 0)"/>
     <use xlink:href="#DejaVuSans-30" transform="translate(4475.757812 0)"/>
     <use xlink:href="#DejaVuSans-2e" transform="translate(4539.380859 0)"/>
     <use xlink:href="#DejaVuSans-36" transform="translate(4571.167969 0)"/>
     <use xlink:href="#DejaVuSans-33" transform="translate(4634.791016 0)"/>
     <use xlink:href="#DejaVuSans-2c" transform="translate(4698.414062 0)"/>
     <use xlink:href="#DejaVuSans-20" transform="translate(4730.201172 0)"/>
     <use xlink:href="#DejaVuSans-3b6" transform="translate(4761.988281 0)"/>
     <use xlink:href="#DejaVuSans-3d" transform="translate(4816.382812 0)"/>
     <use xlink:href="#DejaVuSans-30" transform="translate(4900.171875 0)"/>
     <use xlink:href="#DejaVuSans-2e" transform="translate(4963.794922 0)"/>
     <use xlink:href="#DejaVuSans-31" transform="translate(4995.582031 0)"/>
     <use xlink:href="#DejaVuSans-31" transform="translate(5059.205078 0)"/>
     <use xlink:href="#DejaVuSans-33" transform="translate(5122.828125 0)"/>
     <use xlink:href="#DejaVuSans-2c" transform="translate(5186.451172 0)"/>
     <use xlink:href="#DejaVuSans-20" transform="translate(5218.238281 0)"/>
     <use xlink:href="#DejaVuSans-51" transform="translate(5250.025391 0)"/>
     <use xlink:href="#DejaVuSans-3d" transform="translate(5328.736328 0)"/>
     <use xlink:href="#DejaVuSans-34" transform="translate(5412.525391 0)"/>
     <use xlink:href="#DejaVuSans-2e" transform="translate(5476.148438 0)"/>
     <use xlink:href="#DejaVuSans-34" transform="translate(5507.935547 0)"/>
     <use xlink:href="#DejaVuSans-34" transform="translate(5571.558594 0)"/>
    </g>
   </g>
   <g id="legend_1">
    <g id="patch_7">
     <path d="M 63.312054 216.272 
L 128.294866 216.272 
Q 130.294866 216.272 130.294866 214.272 
L 130.294866 185.91575 
Q 130.294866 183.91575 128.294866 183.91575 
L 63.312054 183.91575 
Q 61.312054 183.91575 61.312054 185.91575 
L 61.312054 214.272 
Q 61.312054 216.272 63.312054 216.272 
z
" style="fill: #ffffff; opacity: 0.8; stroke: #cccccc; stroke-linejoin: miter"/>
    </g>
    <g id="line2d_25">
     <path d="M 65.312054 192.014187 
L 75.312054 192.014187 
L 85.312054 192.014187 
" style="fill: none; stroke: #1f77b4; stroke-width: 1.5; stroke-linecap: square"/>
    </g>
    <g id="text_15">
     <!-- input -->
     <g transform="translate(93.312054 195.514187) scale(0.1 -0.1)">
      <use xlink:href="#DejaVuSans-69"/>
      <use xlink:href="#DejaVuSans-6e" transform="translate(27.783203 0)"/>
      <use xlink:href="#DejaVuSans-70" transform="translate(91.162109 0)"/>
      <use xlink:href="#DejaVuSans-75" transform="translate(154.638672 0)"/>
      <use xlink:href="#DejaVuSans-74" transform="translate(218.017578 0)"/>
     </g>
    </g>
    <g id="line2d_26">
     <path d="M 65.312054 206.692313 
L 75.312054 206.692313 
L 85.312054 206.692313 
" style="fill: none; stroke: #ff7f0e; stroke-width: 1.5; stroke-linecap: square"/>
    </g>
    <g id="text_16">
     <!-- output -->
     <g transform="translate(93.312054 210.192313) scale(0.1 -0.1)">
      <defs>
       <path id="DejaVuSans-6f" d="M 1959 3097 
Q 1497 3097 1228 2736 
Q 959 2375 959 1747 
Q 959 1119 1226 758 
Q 1494 397 1959 397 
Q 2419 397 2687 759 
Q 2956 1122 2956 1747 
Q 2956 2369 2687 2733 
Q 2419 3097 1959 3097 
z
M 1959 3584 
Q 2709 3584 3137 3096 
Q 3566 2609 3566 1747 
Q 3566 888 3137 398 
Q 2709 -91 1959 -91 
Q 1206 -91 779 398 
Q 353 888 353 1747 
Q 353 2609 779 3096 
Q 1206 3584 1959 3584 
z
" transform="scale(0.015625)"/>
      </defs>
      <use xlink:href="#DejaVuSans-6f"/>
      <use xlink:href="#DejaVuSans-75" transform="translate(61.181641 0)"/>
      <use xlink:href="#DejaVuSans-74" transform="translate(124.560547 0)"/>
      <use xlink:href="#DejaVuSans-70" transform="translate(163.769531 0)"/>
      <use xlink:href="#DejaVuSans-75" transform="translate(227.246094 0)"/>
      <use xlink:href="#DejaVuSans-74" transform="translate(290.625 0)"/>
     </g>
    </g>
   </g>
  </g>
  <g id="axes_2">
   <g id="patch_8">
    <path d="M 56.312054 458.728 
L 628.183658 458.728 
L 628.183658 279.312 
L 56.312054 279.312 
z
" style="fill: #ffffff"/>
   </g>
   <g id="matplotlib.axis_3">
    <g id="xtick_7">
     <g id="line2d_27">
      <path d="M 56.312054 458.728 
L 56.312054 279.312 
" clip-path="url(#p40f6b97111)" style="fill: none; stroke: #b0b0b0; stroke-opacity: 0.25; stroke-width: 0.8; stroke-linecap: square"/>
     </g>
     <g id="line2d_28">
      <g>
       <use xlink:href="#m80545fbaf0" x="56.312054" y="458.728" style="stroke: #000000; stroke-width: 0.8"/>
      </g>
     </g>
     <g id="text_17">
      <!-- $\mathdefault{10^{-1}}$ -->
      <g transform="translate(44.562054 473.326438) scale(0.1 -0.1)">
       <use xlink:href="#DejaVuSans-31" transform="translate(0 0.684375)"/>
       <use xlink:href="#DejaVuSans-30" transform="translate(63.623047 0.684375)"/>
       <use xlink:href="#DejaVuSans-2212" transform="translate(128.203125 38.965625) scale(0.7)"/>
       <use xlink:href="#DejaVuSans-31" transform="translate(186.855469 38.965625) scale(0.7)"/>
      </g>
     </g>
    </g>
    <g id="xtick_8">
     <g id="line2d_29">
      <path d="M 342.247856 458.728 
L 342.247856 279.312 
" clip-path="url(#p40f6b97111)" style="fill: none; stroke: #b0b0b0; stroke-opacity: 0.25; stroke-width: 0.8; stroke-linecap: square"/>
     </g>
     <g id="line2d_30">
      <g>
       <use xlink:href="#m80545fbaf0" x="342.247856" y="458.728" style="stroke: #000000; stroke-width: 0.8"/>
      </g>
     </g>
     <g id="text_18">
      <!-- $\mathdefault{10^{0}}$ -->
      <g transform="translate(333.447856 473.326438) scale(0.1 -0.1)">
       <use xlink:href="#DejaVuSans-31" transform="translate(0 0.765625)"/>
       <use xlink:href="#DejaVuSans-30" transform="translate(63.623047 0.765625)"/>
       <use xlink:href="#DejaVuSans-30" transform="translate(128.203125 39.046875) scale(0.7)"/>
      </g>
     </g>
    </g>
    <g id="xtick_9">
     <g id="line2d_31">
      <path d="M 628.183658 458.728 
L 628.183658 279.312 
" clip-path="url(#p40f6b97111)" style="fill: none; stroke: #b0b0b0; stroke-opacity: 0.25; stroke-width: 0.8; stroke-linecap: square"/>
     </g>
     <g id="line2d_32">
      <g>
       <use xlink:href="#m80545fbaf0" x="628.183658" y="458.728" style="stroke: #000000; stroke-width: 0.8"/>
      </g>
     </g>
     <g id="text_19">
      <!-- $\mathdefault{10^{1}}$ -->
      <g transform="translate(619.383658 473.326438) scale(0.1 -0.1)">
       <use xlink:href="#DejaVuSans-31" transform="translate(0 0.684375)"/>
       <use xlink:href="#DejaVuSans-30" transform="translate(63.623047 0.684375)"/>
       <use xlink:href="#DejaVuSans-31" transform="translate(128.203125 38.965625) scale(0.7)"/>
      </g>
     </g>
    </g>
    <g id="xtick_10">
     <g id="line2d_33">
      <defs>
       <path id="mbd45bf9b2b" d="M 0 0 
L 0 2 
" style="stroke: #000000; stroke-width: 0.6"/>
      </defs>
      <g>
       <use xlink:href="#mbd45bf9b2b" x="142.387307" y="458.728" style="stroke: #000000; stroke-width: 0.6"/>
      </g>
     </g>
    </g>
    <g id="xtick_11">
     <g id="line2d_34">
      <g>
       <use xlink:href="#mbd45bf9b2b" x="192.738102" y="458.728" style="stroke: #000000; stroke-width: 0.6"/>
      </g>
     </g>
    </g>
    <g id="xtick_12">
     <g id="line2d_35">
      <g>
       <use xlink:href="#mbd45bf9b2b" x="228.46256" y="458.728" style="stroke: #000000; stroke-width: 0.6"/>
      </g>
     </g>
    </g>
    <g id="xtick_13">
     <g id="line2d_36">
      <g>
       <use xlink:href="#mbd45bf9b2b" x="256.172603" y="458.728" style="stroke: #000000; stroke-width: 0.6"/>
      </g>
     </g>
    </g>
    <g id="xtick_14">
     <g id="line2d_37">
      <g>
       <use xlink:href="#mbd45bf9b2b" x="278.813356" y="458.728" style="stroke: #000000; stroke-width: 0.6"/>
      </g>
     </g>
    </g>
    <g id="xtick_15">
     <g id="line2d_38">
      <g>
       <use xlink:href="#mbd45bf9b2b" x="297.95584" y="458.728" style="stroke: #000000; stroke-width: 0.6"/>
      </g>
     </g>
    </g>
    <g id="xtick_16">
     <g id="line2d_39">
      <g>
       <use xlink:href="#mbd45bf9b2b" x="314.537813" y="458.728" style="stroke: #000000; stroke-width: 0.6"/>
      </g>
     </g>
    </g>
    <g id="xtick_17">
     <g id="line2d_40">
      <g>
       <use xlink:href="#mbd45bf9b2b" x="329.164151" y="458.728" style="stroke: #000000; stroke-width: 0.6"/>
      </g>
     </g>
    </g>
    <g id="xtick_18">
     <g id="line2d_41">
      <g>
       <use xlink:href="#mbd45bf9b2b" x="428.323109" y="458.728" style="stroke: #000000; stroke-width: 0.6"/>
      </g>
     </g>
    </g>
    <g id="xtick_19">
     <g id="line2d_42">
      <g>
       <use xlink:href="#mbd45bf9b2b" x="478.673904" y="458.728" style="stroke: #000000; stroke-width: 0.6"/>
      </g>
     </g>
    </g>
    <g id="xtick_20">
     <g id="line2d_43">
      <g>
       <use xlink:href="#mbd45bf9b2b" x="514.398362" y="458.728" style="stroke: #000000; stroke-width: 0.6"/>
      </g>
     </g>
    </g>
    <g id="xtick_21">
     <g id="line2d_44">
      <g>
       <use xlink:href="#mbd45bf9b2b" x="542.108404" y="458.728" style="stroke: #000000; stroke-width: 0.6"/>
      </g>
     </g>
    </g>
    <g id="xtick_22">
     <g id="line2d_45">
      <g>
       <use xlink:href="#mbd45bf9b2b" x="564.749158" y="458.728" style="stroke: #000000; stroke-width: 0.6"/>
      </g>
     </g>
    </g>
    <g id="xtick_23">
     <g id="line2d_46">
      <g>
       <use xlink:href="#mbd45bf9b2b" x="583.891641" y="458.728" style="stroke: #000000; stroke-width: 0.6"/>
      </g>
     </g>
    </g>
    <g id="xtick_24">
     <g id="line2d_47">
      <g>
       <use xlink:href="#mbd45bf9b2b" x="600.473615" y="458.728" style="stroke: #000000; stroke-width: 0.6"/>
      </g>
     </g>
    </g>
    <g id="xtick_25">
     <g id="line2d_48">
      <g>
       <use xlink:href="#mbd45bf9b2b" x="615.099953" y="458.728" style="stroke: #000000; stroke-width: 0.6"/>
      </g>
     </g>
    </g>
    <g id="text_20">
     <!-- frequency [arb.] -->
     <g transform="translate(301.797856 487.004563) scale(0.1 -0.1)">
      <use xlink:href="#DejaVuSans-66"/>
      <use xlink:href="#DejaVuSans-72" transform="translate(35.205078 0)"/>
      <use xlink:href="#DejaVuSans-65" transform="translate(74.068359 0)"/>
      <use xlink:href="#DejaVuSans-71" transform="translate(135.591797 0)"/>
      <use xlink:href="#DejaVuSans-75" transform="translate(199.068359 0)"/>
      <use xlink:href="#DejaVuSans-65" transform="translate(262.447266 0)"/>
      <use xlink:href="#DejaVuSans-6e" transform="translate(323.970703 0)"/>
      <use xlink:href="#DejaVuSans-63" transform="translate(387.349609 0)"/>
      <use xlink:href="#DejaVuSans-79" transform="translate(442.330078 0)"/>
      <use xlink:href="#DejaVuSans-20" transform="translate(501.509766 0)"/>
      <use xlink:href="#DejaVuSans-5b" transform="translate(533.296875 0)"/>
      <use xlink:href="#DejaVuSans-61" transform="translate(572.310547 0)"/>
      <use xlink:href="#DejaVuSans-72" transform="translate(633.589844 0)"/>
      <use xlink:href="#DejaVuSans-62" transform="translate(674.703125 0)"/>
      <use xlink:href="#DejaVuSans-2e" transform="translate(738.179688 0)"/>
      <use xlink:href="#DejaVuSans-5d" transform="translate(769.966797 0)"/>
     </g>
    </g>
   </g>
   <g id="matplotlib.axis_4">
    <g id="ytick_6">
     <g id="line2d_49">
      <path d="M 56.312054 442.255702 
L 628.183658 442.255702 
" clip-path="url(#p40f6b97111)" style="fill: none; stroke: #b0b0b0; stroke-opacity: 0.25; stroke-width: 0.8; stroke-linecap: square"/>
     </g>
     <g id="line2d_50">
      <g>
       <use xlink:href="#m1a7d8d8e17" x="56.312054" y="442.255702" style="stroke: #000000; stroke-width: 0.8"/>
      </g>
     </g>
     <g id="text_21">
      <!-- $\mathdefault{10^{-9}}$ -->
      <g transform="translate(25.812054 446.05492) scale(0.1 -0.1)">
       <defs>
        <path id="DejaVuSans-39" d="M 703 97 
L 703 672 
Q 941 559 1184 500 
Q 1428 441 1663 441 
Q 2288 441 2617 861 
Q 2947 1281 2994 2138 
Q 2813 1869 2534 1725 
Q 2256 1581 1919 1581 
Q 1219 1581 811 2004 
Q 403 2428 403 3163 
Q 403 3881 828 4315 
Q 1253 4750 1959 4750 
Q 2769 4750 3195 4129 
Q 3622 3509 3622 2328 
Q 3622 1225 3098 567 
Q 2575 -91 1691 -91 
Q 1453 -91 1209 -44 
Q 966 3 703 97 
z
M 1959 2075 
Q 2384 2075 2632 2365 
Q 2881 2656 2881 3163 
Q 2881 3666 2632 3958 
Q 2384 4250 1959 4250 
Q 1534 4250 1286 3958 
Q 1038 3666 1038 3163 
Q 1038 2656 1286 2365 
Q 1534 2075 1959 2075 
z
" transform="scale(0.015625)"/>
       </defs>
       <use xlink:href="#DejaVuSans-31" transform="translate(0 0.765625)"/>
       <use xlink:href="#DejaVuSans-30" transform="translate(63.623047 0.765625)"/>
       <use xlink:href="#DejaVuSans-2212" transform="translate(128.203125 39.046875) scale(0.7)"/>
       <use xlink:href="#DejaVuSans-39" transform="translate(186.855469 39.046875) scale(0.7)"/>
      </g>
     </g>
    </g>
    <g id="ytick_7">
     <g id="line2d_51">
      <path d="M 56.312054 416.843463 
L 628.183658 416.843463 
" clip-path="url(#p40f6b97111)" style="fill: none; stroke: #b0b0b0; stroke-opacity: 0.25; stroke-width: 0.8; stroke-linecap: square"/>
     </g>
     <g id="line2d_52">
      <g>
       <use xlink:href="#m1a7d8d8e17" x="56.312054" y="416.843463" style="stroke: #000000; stroke-width: 0.8"/>
      </g>
     </g>
     <g id="text_22">
      <!-- $\mathdefault{10^{-7}}$ -->
      <g transform="translate(25.812054 420.642682) scale(0.1 -0.1)">
       <use xlink:href="#DejaVuSans-31" transform="translate(0 0.684375)"/>
       <use xlink:href="#DejaVuSans-30" transform="translate(63.623047 0.684375)"/>
       <use xlink:href="#DejaVuSans-2212" transform="translate(128.203125 38.965625) scale(0.7)"/>
       <use xlink:href="#DejaVuSans-37" transform="translate(186.855469 38.965625) scale(0.7)"/>
      </g>
     </g>
    </g>
    <g id="ytick_8">
     <g id="line2d_53">
      <path d="M 56.312054 391.431224 
L 628.183658 391.431224 
" clip-path="url(#p40f6b97111)" style="fill: none; stroke: #b0b0b0; stroke-opacity: 0.25; stroke-width: 0.8; stroke-linecap: square"/>
     </g>
     <g id="line2d_54">
      <g>
       <use xlink:href="#m1a7d8d8e17" x="56.312054" y="391.431224" style="stroke: #000000; stroke-width: 0.8"/>
      </g>
     </g>
     <g id="text_23">
      <!-- $\mathdefault{10^{-5}}$ -->
      <g transform="translate(25.812054 395.230443) scale(0.1 -0.1)">
       <use xlink:href="#DejaVuSans-31" transform="translate(0 0.684375)"/>
       <use xlink:href="#DejaVuSans-30" transform="translate(63.623047 0.684375)"/>
       <use xlink:href="#DejaVuSans-2212" transform="translate(128.203125 38.965625) scale(0.7)"/>
       <use xlink:href="#DejaVuSans-35" transform="translate(186.855469 38.965625) scale(0.7)"/>
      </g>
     </g>
    </g>
    <g id="ytick_9">
     <g id="line2d_55">
      <path d="M 56.312054 366.018985 
L 628.183658 366.018985 
" clip-path="url(#p40f6b97111)" style="fill: none; stroke: #b0b0b0; stroke-opacity: 0.25; stroke-width: 0.8; stroke-linecap: square"/>
     </g>
     <g id="line2d_56">
      <g>
       <use xlink:href="#m1a7d8d8e17" x="56.312054" y="366.018985" style="stroke: #000000; stroke-width: 0.8"/>
      </g>
     </g>
     <g id="text_24">
      <!-- $\mathdefault{10^{-3}}$ -->
      <g transform="translate(25.812054 369.818204) scale(0.1 -0.1)">
       <use xlink:href="#DejaVuSans-31" transform="translate(0 0.765625)"/>
       <use xlink:href="#DejaVuSans-30" transform="translate(63.623047 0.765625)"/>
       <use xlink:href="#DejaVuSans-2212" transform="translate(128.203125 39.046875) scale(0.7)"/>
       <use xlink:href="#DejaVuSans-33" transform="translate(186.855469 39.046875) scale(0.7)"/>
      </g>
     </g>
    </g>
    <g id="ytick_10">
     <g id="line2d_57">
      <path d="M 56.312054 340.606746 
L 628.183658 340.606746 
" clip-path="url(#p40f6b97111)" style="fill: none; stroke: #b0b0b0; stroke-opacity: 0.25; stroke-width: 0.8; stroke-linecap: square"/>
     </g>
     <g id="line2d_58">
      <g>
       <use xlink:href="#m1a7d8d8e17" x="56.312054" y="340.606746" style="stroke: #000000; stroke-width: 0.8"/>
      </g>
     </g>
     <g id="text_25">
      <!-- $\mathdefault{10^{-1}}$ -->
      <g transform="translate(25.812054 344.405965) scale(0.1 -0.1)">
       <use xlink:href="#DejaVuSans-31" transform="translate(0 0.684375)"/>
       <use xlink:href="#DejaVuSans-30" transform="translate(63.623047 0.684375)"/>
       <use xlink:href="#DejaVuSans-2212" transform="translate(128.203125 38.965625) scale(0.7)"/>
       <use xlink:href="#DejaVuSans-31" transform="translate(186.855469 38.965625) scale(0.7)"/>
      </g>
     </g>
    </g>
    <g id="ytick_11">
     <g id="line2d_59">
      <path d="M 56.312054 315.194508 
L 628.183658 315.194508 
" clip-path="url(#p40f6b97111)" style="fill: none; stroke: #b0b0b0; stroke-opacity: 0.25; stroke-width: 0.8; stroke-linecap: square"/>
     </g>
     <g id="line2d_60">
      <g>
       <use xlink:href="#m1a7d8d8e17" x="56.312054" y="315.194508" style="stroke: #000000; stroke-width: 0.8"/>
      </g>
     </g>
     <g id="text_26">
      <!-- $\mathdefault{10^{1}}$ -->
      <g transform="translate(31.712054 318.993726) scale(0.1 -0.1)">
       <use xlink:href="#DejaVuSans-31" transform="translate(0 0.684375)"/>
       <use xlink:href="#DejaVuSans-30" transform="translate(63.623047 0.684375)"/>
       <use xlink:href="#DejaVuSans-31" transform="translate(128.203125 38.965625) scale(0.7)"/>
      </g>
     </g>
    </g>
    <g id="ytick_12">
     <g id="line2d_61">
      <path d="M 56.312054 289.782269 
L 628.183658 289.782269 
" clip-path="url(#p40f6b97111)" style="fill: none; stroke: #b0b0b0; stroke-opacity: 0.25; stroke-width: 0.8; stroke-linecap: square"/>
     </g>
     <g id="line2d_62">
      <g>
       <use xlink:href="#m1a7d8d8e17" x="56.312054" y="289.782269" style="stroke: #000000; stroke-width: 0.8"/>
      </g>
     </g>
     <g id="text_27">
      <!-- $\mathdefault{10^{3}}$ -->
      <g transform="translate(31.712054 293.581488) scale(0.1 -0.1)">
       <use xlink:href="#DejaVuSans-31" transform="translate(0 0.765625)"/>
       <use xlink:href="#DejaVuSans-30" transform="translate(63.623047 0.765625)"/>
       <use xlink:href="#DejaVuSans-33" transform="translate(128.203125 39.046875) scale(0.7)"/>
      </g>
     </g>
    </g>
    <g id="text_28">
     <!-- |FFT(.)| -->
     <g transform="translate(19.454241 386.597344) rotate(-90) scale(0.1 -0.1)">
      <defs>
       <path id="DejaVuSans-54" d="M -19 4666 
L 3928 4666 
L 3928 4134 
L 2272 4134 
L 2272 0 
L 1638 0 
L 1638 4134 
L -19 4134 
L -19 4666 
z
" transform="scale(0.015625)"/>
      </defs>
      <use xlink:href="#DejaVuSans-7c"/>
      <use xlink:href="#DejaVuSans-46" transform="translate(33.691406 0)"/>
      <use xlink:href="#DejaVuSans-46" transform="translate(91.210938 0)"/>
      <use xlink:href="#DejaVuSans-54" transform="translate(146.980469 0)"/>
      <use xlink:href="#DejaVuSans-28" transform="translate(208.064453 0)"/>
      <use xlink:href="#DejaVuSans-2e" transform="translate(247.078125 0)"/>
      <use xlink:href="#DejaVuSans-29" transform="translate(278.865234 0)"/>
      <use xlink:href="#DejaVuSans-7c" transform="translate(317.878906 0)"/>
     </g>
    </g>
   </g>
   <g id="line2d_63">
    <path d="M 56.312054 316.553366 
L 142.387307 334.189115 
L 192.738102 323.777458 
L 228.46256 322.910997 
L 256.172603 319.386094 
L 278.813356 313.973875 
L 297.95584 291.752431 
L 314.537813 287.467273 
L 329.164151 290.840619 
L 342.247856 312.743694 
L 354.083506 319.088225 
L 364.888609 323.11232 
L 374.82834 322.927724 
L 384.031093 334.210367 
L 392.598651 327.586519 
L 400.613067 323.371363 
L 408.141453 325.840286 
L 415.239404 334.466554 
L 421.95349 324.723728 
L 428.323109 322.835533 
L 434.381888 319.608523 
L 440.15876 315.234505 
L 445.678795 298.873307 
L 450.963862 293.615882 
L 456.033151 296.120648 
L 460.903593 311.77484 
L 465.5902 319.011216 
L 470.106346 323.297757 
L 474.463998 322.30142 
L 478.673904 335.411103 
L 482.745756 328.725447 
L 486.68832 323.489823 
L 490.509555 325.164731 
L 494.216706 335.123479 
L 497.816388 325.865179 
L 501.314657 322.815071 
L 504.717071 319.88433 
L 508.028743 316.719262 
L 511.254388 302.921572 
L 514.398362 296.60808 
L 517.464699 298.274064 
L 520.457141 310.895183 
L 523.379167 319.028269 
L 526.234013 323.542262 
L 529.0247 321.792358 
L 531.754048 337.315126 
L 534.424696 330.089722 
L 537.039115 323.689442 
L 539.599625 324.604294 
L 542.108404 335.639925 
L 544.567501 327.242974 
L 546.978846 322.866453 
L 549.344257 320.17135 
L 551.665453 318.475576 
L 553.944055 306.214545 
L 556.181599 298.726958 
L 558.379539 299.572999 
L 560.539251 310.113468 
L 562.662044 319.201954 
L 564.749158 323.831081 
L 566.801772 321.401382 
L 568.821009 336.955696 
L 570.807937 331.751942 
L 572.763573 323.973541 
L 574.688888 324.146779 
L 576.584808 334.850554 
L 578.452217 328.916549 
L 580.291959 323.000875 
L 582.104843 320.447625 
L 583.891641 320.623937 
L 585.653094 309.300651 
L 587.389911 300.467381 
L 589.10277 300.502681 
L 590.792325 309.422913 
L 592.4592 319.593042 
L 594.103997 324.154295 
L 595.727292 321.121828 
L 597.329641 333.521478 
L 598.911578 333.828943 
L 600.473615 324.34706 
L 602.016248 323.783689 
L 603.539952 332.992128 
L 605.045187 330.990071 
L 606.532395 323.228654 
L 608.002002 320.700301 
L 609.45442 323.407601 
L 610.890047 312.466517 
L 612.309266 302.023601 
L 613.712449 301.248349 
L 615.099953 308.817228 
L 616.472125 320.296876 
L 617.829301 324.493242 
L 619.171804 320.947369 
L 620.499949 330.635135 
L 621.814039 336.530098 
L 623.114368 324.816874 
L 624.401223 323.508871 
L 625.674879 331.096789 
L 626.935603 333.664233 
L 628.183658 323.560372 
L 629.419293 320.92525 
" clip-path="url(#p40f6b97111)" style="fill: none; stroke: #1f77b4; stroke-opacity: 0.6; stroke-width: 1.5; stroke-linecap: square"/>
   </g>
   <g id="line2d_64">
    <path d="M 56.312054 307.892858 
L 142.387307 311.664855 
L 192.738102 328.816492 
L 228.46256 339.008582 
L 256.172603 335.795151 
L 278.813356 333.463857 
L 297.95584 311.373127 
L 314.537813 307.089528 
L 329.164151 310.461936 
L 342.247856 332.387694 
L 354.083506 339.216717 
L 364.888609 346.197301 
L 374.82834 344.018323 
L 384.031093 353.133554 
L 392.598651 349.999799 
L 400.613067 347.225968 
L 408.141453 348.965271 
L 415.239404 360.498112 
L 421.95349 349.648138 
L 428.323109 347.469285 
L 434.381888 344.918891 
L 440.15876 341.011389 
L 445.678795 324.633747 
L 450.963862 319.375827 
L 456.033151 321.88079 
L 460.903593 337.534872 
L 465.5902 344.920601 
L 470.106346 350.24289 
L 474.463998 348.656771 
L 478.673904 360.440724 
L 482.745756 355.710187 
L 486.68832 350.917439 
L 490.509555 352.446256 
L 494.216706 364.592098 
L 497.816388 354.052718 
L 501.314657 350.715868 
L 504.717071 348.175401 
L 508.028743 345.325163 
L 511.254388 331.508197 
L 514.398362 325.193933 
L 517.464699 326.860158 
L 520.457141 339.481195 
L 523.379167 347.687191 
L 526.234013 352.835493 
L 529.0247 350.772213 
L 531.754048 365.208748 
L 534.424696 359.463192 
L 537.039115 353.311443 
L 539.599625 354.177989 
L 542.108404 366.442181 
L 544.567501 357.442896 
L 546.978846 352.828722 
L 549.344257 350.375031 
L 551.665453 348.947908 
L 553.944055 336.661485 
L 556.181599 329.172858 
L 558.379539 330.019126 
L 560.539251 340.559623 
L 562.662044 349.689095 
L 564.749158 354.779321 
L 566.801772 352.148989 
L 568.821009 367.566212 
L 570.807937 362.769699 
L 572.763573 355.169873 
L 574.688888 355.324708 
L 576.584808 366.403243 
L 578.452217 360.58821 
L 580.291959 354.468139 
L 582.104843 352.067467 
L 583.891641 352.497855 
L 585.653094 341.137672 
L 587.389911 332.303013 
L 589.10277 332.338515 
L 590.792325 341.258802 
L 592.4592 351.453644 
L 594.103997 356.379475 
L 595.727292 353.206063 
L 597.329641 365.767382 
L 598.911578 366.104515 
L 600.473615 356.770612 
L 602.016248 356.200649 
L 603.539952 365.470224 
L 605.045187 363.827993 
L 606.532395 355.881312 
L 608.002002 353.447791 
L 609.45442 356.412535 
L 610.890047 345.414531 
L 612.309266 334.969739 
L 613.712449 334.19466 
L 615.099953 341.763589 
L 616.472125 353.258774 
L 617.829301 357.757306 
L 619.171804 354.107683 
L 620.499949 363.894259 
L 621.814039 369.821451 
L 623.114368 358.24633 
L 624.401223 356.936983 
L 625.674879 364.52475 
L 626.935603 367.473739 
L 628.183658 357.191123 
L 629.419293 354.611763 
" clip-path="url(#p40f6b97111)" style="fill: none; stroke: #ff7f0e; stroke-width: 1.5; stroke-linecap: square"/>
   </g>
   <g id="patch_9">
    <path d="M 56.312054 458.728 
L 56.312054 279.312 
" style="fill: none; stroke: #000000; stroke-width: 0.8; stroke-linejoin: miter; stroke-linecap: square"/>
   </g>
   <g id="patch_10">
    <path d="M 628.183658 458.728 
L 628.183658 279.312 
" style="fill: none; stroke: #000000; stroke-width: 0.8; stroke-linejoin: miter; stroke-linecap: square"/>
   </g>
   <g id="patch_11">
    <path d="M 56.312054 458.728 
L 628.183658 458.728 
" style="fill: none; stroke: #000000; stroke-width: 0.8; stroke-linejoin: miter; stroke-linecap: square"/>
   </g>
   <g id="patch_12">
    <path d="M 56.312054 279.312 
L 628.183658 279.312 
" style="fill: none; stroke: #000000; stroke-width: 0.8; stroke-linejoin: miter; stroke-linecap: square"/>
   </g>
   <g id="text_29">
    <!-- Output FFT peak ≈ 0.800 (arb.), magnitude ≈ 4.344e+01 | low-ish -->
    <g transform="translate(142.530356 273.312) scale(0.12 -0.12)">
     <defs>
      <path id="DejaVuSans-4f" d="M 2522 4238 
Q 1834 4238 1429 3725 
Q 1025 3213 1025 2328 
Q 1025 1447 1429 934 
Q 1834 422 2522 422 
Q 3209 422 3611 934 
Q 4013 1447 4013 2328 
Q 4013 3213 3611 3725 
Q 3209 4238 2522 4238 
z
M 2522 4750 
Q 3503 4750 4090 4092 
Q 4678 3434 4678 2328 
Q 4678 1225 4090 567 
Q 3503 -91 2522 -91 
Q 1538 -91 948 565 
Q 359 1222 359 2328 
Q 359 3434 948 4092 
Q 1538 4750 2522 4750 
z
" transform="scale(0.015625)"/>
      <path id="DejaVuSans-6b" d="M 581 4863 
L 1159 4863 
L 1159 1991 
L 2875 3500 
L 3609 3500 
L 1753 1863 
L 3688 0 
L 2938 0 
L 1159 1709 
L 1159 0 
L 581 0 
L 581 4863 
z
" transform="scale(0.015625)"/>
      <path id="DejaVuSans-2248" d="M 4684 1947 
L 4684 1388 
Q 4356 1144 4076 1036 
Q 3797 928 3494 928 
Q 3150 928 2694 1113 
Q 2663 1125 2641 1134 
Q 2622 1141 2575 1159 
Q 2091 1350 1797 1350 
Q 1522 1350 1253 1231 
Q 984 1113 678 850 
L 678 1409 
Q 1006 1653 1286 1761 
Q 1566 1869 1869 1869 
Q 2213 1869 2672 1684 
Q 2706 1669 2722 1663 
Q 2741 1656 2788 1638 
Q 3272 1447 3566 1447 
Q 3834 1447 4098 1564 
Q 4363 1681 4684 1947 
z
M 4684 3163 
L 4684 2606 
Q 4356 2359 4076 2251 
Q 3797 2144 3494 2144 
Q 3150 2144 2694 2328 
Q 2663 2341 2641 2350 
Q 2622 2356 2575 2375 
Q 2091 2566 1797 2566 
Q 1522 2566 1253 2447 
Q 984 2328 678 2069 
L 678 2625 
Q 1006 2869 1286 2976 
Q 1566 3084 1869 3084 
Q 2213 3084 2672 2900 
Q 2703 2888 2719 2881 
Q 2741 2872 2788 2853 
Q 3272 2663 3566 2663 
Q 3834 2663 4098 2780 
Q 4363 2897 4684 3163 
z
" transform="scale(0.015625)"/>
      <path id="DejaVuSans-6d" d="M 3328 2828 
Q 3544 3216 3844 3400 
Q 4144 3584 4550 3584 
Q 5097 3584 5394 3201 
Q 5691 2819 5691 2113 
L 5691 0 
L 5113 0 
L 5113 2094 
Q 5113 2597 4934 2840 
Q 4756 3084 4391 3084 
Q 3944 3084 3684 2787 
Q 3425 2491 3425 1978 
L 3425 0 
L 2847 0 
L 2847 2094 
Q 2847 2600 2669 2842 
Q 2491 3084 2119 3084 
Q 1678 3084 1418 2786 
Q 1159 2488 1159 1978 
L 1159 0 
L 581 0 
L 581 3500 
L 1159 3500 
L 1159 2956 
Q 1356 3278 1631 3431 
Q 1906 3584 2284 3584 
Q 2666 3584 2933 3390 
Q 3200 3197 3328 2828 
z
" transform="scale(0.015625)"/>
      <path id="DejaVuSans-67" d="M 2906 1791 
Q 2906 2416 2648 2759 
Q 2391 3103 1925 3103 
Q 1463 3103 1205 2759 
Q 947 2416 947 1791 
Q 947 1169 1205 825 
Q 1463 481 1925 481 
Q 2391 481 2648 825 
Q 2906 1169 2906 1791 
z
M 3481 434 
Q 3481 -459 3084 -895 
Q 2688 -1331 1869 -1331 
Q 1566 -1331 1297 -1286 
Q 1028 -1241 775 -1147 
L 775 -588 
Q 1028 -725 1275 -790 
Q 1522 -856 1778 -856 
Q 2344 -856 2625 -561 
Q 2906 -266 2906 331 
L 2906 616 
Q 2728 306 2450 153 
Q 2172 0 1784 0 
Q 1141 0 747 490 
Q 353 981 353 1791 
Q 353 2603 747 3093 
Q 1141 3584 1784 3584 
Q 2172 3584 2450 3431 
Q 2728 3278 2906 2969 
L 2906 3500 
L 3481 3500 
L 3481 434 
z
" transform="scale(0.015625)"/>
      <path id="DejaVuSans-2b" d="M 2944 4013 
L 2944 2272 
L 4684 2272 
L 4684 1741 
L 2944 1741 
L 2944 0 
L 2419 0 
L 2419 1741 
L 678 1741 
L 678 2272 
L 2419 2272 
L 2419 4013 
L 2944 4013 
z
" transform="scale(0.015625)"/>
      <path id="DejaVuSans-77" d="M 269 3500 
L 844 3500 
L 1563 769 
L 2278 3500 
L 2956 3500 
L 3675 769 
L 4391 3500 
L 4966 3500 
L 4050 0 
L 3372 0 
L 2619 2869 
L 1863 0 
L 1184 0 
L 269 3500 
z
" transform="scale(0.015625)"/>
      <path id="DejaVuSans-68" d="M 3513 2113 
L 3513 0 
L 2938 0 
L 2938 2094 
Q 2938 2591 2744 2837 
Q 2550 3084 2163 3084 
Q 1697 3084 1428 2787 
Q 1159 2491 1159 1978 
L 1159 0 
L 581 0 
L 581 4863 
L 1159 4863 
L 1159 2956 
Q 1366 3272 1645 3428 
Q 1925 3584 2291 3584 
Q 2894 3584 3203 3211 
Q 3513 2838 3513 2113 
z
" transform="scale(0.015625)"/>
     </defs>
     <use xlink:href="#DejaVuSans-4f"/>
     <use xlink:href="#DejaVuSans-75" transform="translate(78.710938 0)"/>
     <use xlink:href="#DejaVuSans-74" transform="translate(142.089844 0)"/>
     <use xlink:href="#DejaVuSans-70" transform="translate(181.298828 0)"/>
     <use xlink:href="#DejaVuSans-75" transform="translate(244.775391 0)"/>
     <use xlink:href="#DejaVuSans-74" transform="translate(308.154297 0)"/>
     <use xlink:href="#DejaVuSans-20" transform="translate(347.363281 0)"/>
     <use xlink:href="#DejaVuSans-46" transform="translate(379.150391 0)"/>
     <use xlink:href="#DejaVuSans-46" transform="translate(436.669922 0)"/>
     <use xlink:href="#DejaVuSans-54" transform="translate(492.439453 0)"/>
     <use xlink:href="#DejaVuSans-20" transform="translate(553.523438 0)"/>
     <use xlink:href="#DejaVuSans-70" transform="translate(585.310547 0)"/>
     <use xlink:href="#DejaVuSans-65" transform="translate(648.787109 0)"/>
     <use xlink:href="#DejaVuSans-61" transform="translate(710.310547 0)"/>
     <use xlink:href="#DejaVuSans-6b" transform="translate(771.589844 0)"/>
     <use xlink:href="#DejaVuSans-20" transform="translate(829.5 0)"/>
     <use xlink:href="#DejaVuSans-2248" transform="translate(861.287109 0)"/>
     <use xlink:href="#DejaVuSans-20" transform="translate(945.076172 0)"/>
     <use xlink:href="#DejaVuSans-30" transform="translate(976.863281 0)"/>
     <use xlink:href="#DejaVuSans-2e" transform="translate(1040.486328 0)"/>
     <use xlink:href="#DejaVuSans-38" transform="translate(1072.273438 0)"/>
     <use xlink:href="#DejaVuSans-30" transform="translate(1135.896484 0)"/>
     <use xlink:href="#DejaVuSans-30" transform="translate(1199.519531 0)"/>
     <use xlink:href="#DejaVuSans-20" transform="translate(1263.142578 0)"/>
     <use xlink:href="#DejaVuSans-28" transform="translate(1294.929688 0)"/>
     <use xlink:href="#DejaVuSans-61" transform="translate(1333.943359 0)"/>
     <use xlink:href="#DejaVuSans-72" transform="translate(1395.222656 0)"/>
     <use xlink:href="#DejaVuSans-62" transform="translate(1436.335938 0)"/>
     <use xlink:href="#DejaVuSans-2e" transform="translate(1499.8125 0)"/>
     <use xlink:href="#DejaVuSans-29" transform="translate(1531.599609 0)"/>
     <use xlink:href="#DejaVuSans-2c" transform="translate(1570.613281 0)"/>
     <use xlink:href="#DejaVuSans-20" transform="translate(1602.400391 0)"/>
     <use xlink:href="#DejaVuSans-6d" transform="translate(1634.1875 0)"/>
     <use xlink:href="#DejaVuSans-61" transform="translate(1731.599609 0)"/>
     <use xlink:href="#DejaVuSans-67" transform="translate(1792.878906 0)"/>
     <use xlink:href="#DejaVuSans-6e" transform="translate(1856.355469 0)"/>
     <use xlink:href="#DejaVuSans-69" transform="translate(1919.734375 0)"/>
     <use xlink:href="#DejaVuSans-74" transform="translate(1947.517578 0)"/>
     <use xlink:href="#DejaVuSans-75" transform="translate(1986.726562 0)"/>
     <use xlink:href="#DejaVuSans-64" transform="translate(2050.105469 0)"/>
     <use xlink:href="#DejaVuSans-65" transform="translate(2113.582031 0)"/>
     <use xlink:href="#DejaVuSans-20" transform="translate(2175.105469 0)"/>
     <use xlink:href="#DejaVuSans-2248" transform="translate(2206.892578 0)"/>
     <use xlink:href="#DejaVuSans-20" transform="translate(2290.681641 0)"/>
     <use xlink:href="#DejaVuSans-34" transform="translate(2322.46875 0)"/>
     <use xlink:href="#DejaVuSans-2e" transform="translate(2386.091797 0)"/>
     <use xlink:href="#DejaVuSans-33" transform="translate(2417.878906 0)"/>
     <use xlink:href="#DejaVuSans-34" transform="translate(2481.501953 0)"/>
     <use xlink:href="#DejaVuSans-34" transform="translate(2545.125 0)"/>
     <use xlink:href="#DejaVuSans-65" transform="translate(2608.748047 0)"/>
     <use xlink:href="#DejaVuSans-2b" transform="translate(2670.271484 0)"/>
     <use xlink:href="#DejaVuSans-30" transform="translate(2754.060547 0)"/>
     <use xlink:href="#DejaVuSans-31" transform="translate(2817.683594 0)"/>
     <use xlink:href="#DejaVuSans-20" transform="translate(2881.306641 0)"/>
     <use xlink:href="#DejaVuSans-7c" transform="translate(2913.09375 0)"/>
     <use xlink:href="#DejaVuSans-20" transform="translate(2946.785156 0)"/>
     <use xlink:href="#DejaVuSans-6c" transform="translate(2978.572266 0)"/>
     <use xlink:href="#DejaVuSans-6f" transform="translate(3006.355469 0)"/>
     <use xlink:href="#DejaVuSans-77" transform="translate(3067.537109 0)"/>
     <use xlink:href="#DejaVuSans-2d" transform="translate(3149.324219 0)"/>
     <use xlink:href="#DejaVuSans-69" transform="translate(3185.408203 0)"/>
     <use xlink:href="#DejaVuSans-73" transform="translate(3213.191406 0)"/>
     <use xlink:href="#DejaVuSans-68" transform="translate(3265.291016 0)"/>
    </g>
   </g>
   <g id="legend_2">
    <g id="patch_13">
     <path d="M 63.312054 453.728 
L 148.908929 453.728 
Q 150.908929 453.728 150.908929 451.728 
L 150.908929 423.37175 
Q 150.908929 421.37175 148.908929 421.37175 
L 63.312054 421.37175 
Q 61.312054 421.37175 61.312054 423.37175 
L 61.312054 451.728 
Q 61.312054 453.728 63.312054 453.728 
z
" style="fill: #ffffff; opacity: 0.8; stroke: #cccccc; stroke-linejoin: miter"/>
    </g>
    <g id="line2d_65">
     <path d="M 65.312054 429.470188 
L 75.312054 429.470188 
L 85.312054 429.470188 
" style="fill: none; stroke: #1f77b4; stroke-opacity: 0.6; stroke-width: 1.5; stroke-linecap: square"/>
    </g>
    <g id="text_30">
     <!-- input FFT -->
     <g transform="translate(93.312054 432.970188) scale(0.1 -0.1)">
      <use xlink:href="#DejaVuSans-69"/>
      <use xlink:href="#DejaVuSans-6e" transform="translate(27.783203 0)"/>
      <use xlink:href="#DejaVuSans-70" transform="translate(91.162109 0)"/>
      <use xlink:href="#DejaVuSans-75" transform="translate(154.638672 0)"/>
      <use xlink:href="#DejaVuSans-74" transform="translate(218.017578 0)"/>
      <use xlink:href="#DejaVuSans-20" transform="translate(257.226562 0)"/>
      <use xlink:href="#DejaVuSans-46" transform="translate(289.013672 0)"/>
      <use xlink:href="#DejaVuSans-46" transform="translate(346.533203 0)"/>
      <use xlink:href="#DejaVuSans-54" transform="translate(402.302734 0)"/>
     </g>
    </g>
    <g id="line2d_66">
     <path d="M 65.312054 444.148313 
L 75.312054 444.148313 
L 85.312054 444.148313 
" style="fill: none; stroke: #ff7f0e; stroke-width: 1.5; stroke-linecap: square"/>
    </g>
    <g id="text_31">
     <!-- output FFT -->
     <g transform="translate(93.312054 447.648313) scale(0.1 -0.1)">
      <use xlink:href="#DejaVuSans-6f"/>
      <use xlink:href="#DejaVuSans-75" transform="translate(61.181641 0)"/>
      <use xlink:href="#DejaVuSans-74" transform="translate(124.560547 0)"/>
      <use xlink:href="#DejaVuSans-70" transform="translate(163.769531 0)"/>
      <use xlink:href="#DejaVuSans-75" transform="translate(227.246094 0)"/>
      <use xlink:href="#DejaVuSans-74" transform="translate(290.625 0)"/>
      <use xlink:href="#DejaVuSans-20" transform="translate(329.833984 0)"/>
      <use xlink:href="#DejaVuSans-46" transform="translate(361.621094 0)"/>
      <use xlink:href="#DejaVuSans-46" transform="translate(419.140625 0)"/>
      <use xlink:href="#DejaVuSans-54" transform="translate(474.910156 0)"/>
     </g>
    </g>
   </g>
  </g>
 </g>
 <defs>
  <clipPath id="p026fecae27">
   <rect x="56.312054" y="41.856" width="571.871604" height="179.416"/>
  </clipPath>
  <clipPath id="p40f6b97111">
   <rect x="56.312054" y="279.312" width="571.871604" height="179.416"/>
  </clipPath>
 </defs>
</svg>
