<?xml version="1.0" encoding="utf-8" standalone="no"?>
<!DOCTYPE svg PUBLIC "-//W3C//DTD SVG 1.1//EN"
  "http://www.w3.org/Graphics/SVG/1.1/DTD/svg11.dtd">
<svg xmlns:xlink="http://www.w3.org/1999/xlink" width="648pt" height="504pt" viewBox="0 0 648 504" xmlns="http://www.w3.org/2000/svg" version="1.1">
 <metadata>
  <rdf:RDF xmlns:dc="http://purl.org/dc/elements/1.1/" xmlns:cc="http://creativecommons.org/ns#" xmlns:rdf="http://www.w3.org/1999/02/22-rdf-syntax-ns#">
   <cc:Work>
    <dc:type rdf:resource="http://purl.org/dc/dcmitype/StillImage"/>
    <dc:date>2026-07-05T04:08:05.433613</dc:date>
    <dc:format>image/svg+xml</dc:format>
    <dc:creator>
     <cc:Agent>
      <dc:title>Matplotlib v3.11.0, https://matplotlib.org/</dc:title>
     </cc:Agent>
    </dc:creator>
   </cc:Work>
  </rdf:RDF>
 </metadata>
 <defs>
  <style type="text/css">*{stroke-linejoin: round; stroke-linecap: butt}</style>
 </defs>
 <g id="figure_1">
  <g id="patch_1">
   <path d="M 0 504 
L 648 504 
L 648 0 
L 0 0 
z
" style="fill: #ffffff"/>
  </g>
  <g id="axes_1">
   <g id="patch_2">
    <path d="M 56.602344 222.319648 
L 628.2 222.319648 
L 628.2 42.006328 
L 56.602344 42.006328 
z
" style="fill: #ffffff"/>
   </g>
   <g id="matplotlib.axis_1">
    <g id="xtick_1">
     <g id="line2d_1">
      <path d="M 82.584055 222.319648 
L 82.584055 42.006328 
" clip-path="url(#pe6ae2e2095)" style="fill: none; stroke: #b0b0b0; stroke-opacity: 0.25; stroke-width: 0.8; stroke-linecap: square"/>
     </g>
     <g id="line2d_2">
      <defs>
       <path id="m002aa4cf9e" d="M 0 0 
L 0 3.5 
" style="stroke: #000000; stroke-width: 0.8"/>
      </defs>
      <g>
       <use xlink:href="#m002aa4cf9e" x="82.584055" y="222.319648" style="stroke: #000000; stroke-width: 0.8"/>
      </g>
     </g>
     <g id="text_1">
      <!-- 0 -->
      <g transform="translate(79.402805 236.917305) scale(0.1 -0.1)">
       <defs>
        <path id="DejaVuSans-13" d="M 2034 4250 
Q 1547 4250 1301 3770 
Q 1056 3291 1056 2328 
Q 1056 1369 1301 889 
Q 1547 409 2034 409 
Q 2525 409 2770 889 
Q 3016 1369 3016 2328 
Q 3016 3291 2770 3770 
Q 2525 4250 2034 4250 
z
M 2034 4750 
Q 2819 4750 3233 4129 
Q 3647 3509 3647 2328 
Q 3647 1150 3233 529 
Q 2819 -91 2034 -91 
Q 1250 -91 836 529 
Q 422 1150 422 2328 
Q 422 3509 836 4129 
Q 1250 4750 2034 4750 
z
" transform="scale(0.015625)"/>
       </defs>
       <use xlink:href="#DejaVuSans-13"/>
      </g>
     </g>
    </g>
    <g id="xtick_2">
     <g id="line2d_3">
      <path d="M 186.536281 222.319648 
L 186.536281 42.006328 
" clip-path="url(#pe6ae2e2095)" style="fill: none; stroke: #b0b0b0; stroke-opacity: 0.25; stroke-width: 0.8; stroke-linecap: square"/>
     </g>
     <g id="line2d_4">
      <g>
       <use xlink:href="#m002aa4cf9e" x="186.536281" y="222.319648" style="stroke: #000000; stroke-width: 0.8"/>
      </g>
     </g>
     <g id="text_2">
      <!-- 2 -->
      <g transform="translate(183.355031 236.917305) scale(0.1 -0.1)">
       <defs>
        <path id="DejaVuSans-15" d="M 1228 531 
L 3431 531 
L 3431 0 
L 469 0 
L 469 531 
Q 828 903 1448 1529 
Q 2069 2156 2228 2338 
Q 2531 2678 2651 2914 
Q 2772 3150 2772 3378 
Q 2772 3750 2511 3984 
Q 2250 4219 1831 4219 
Q 1534 4219 1204 4116 
Q 875 4013 500 3803 
L 500 4441 
Q 881 4594 1212 4672 
Q 1544 4750 1819 4750 
Q 2544 4750 2975 4387 
Q 3406 4025 3406 3419 
Q 3406 3131 3298 2873 
Q 3191 2616 2906 2266 
Q 2828 2175 2409 1742 
Q 1991 1309 1228 531 
z
" transform="scale(0.015625)"/>
       </defs>
       <use xlink:href="#DejaVuSans-15"/>
      </g>
     </g>
    </g>
    <g id="xtick_3">
     <g id="line2d_5">
      <path d="M 290.488507 222.319648 
L 290.488507 42.006328 
" clip-path="url(#pe6ae2e2095)" style="fill: none; stroke: #b0b0b0; stroke-opacity: 0.25; stroke-width: 0.8; stroke-linecap: square"/>
     </g>
     <g id="line2d_6">
      <g>
       <use xlink:href="#m002aa4cf9e" x="290.488507" y="222.319648" style="stroke: #000000; stroke-width: 0.8"/>
      </g>
     </g>
     <g id="text_3">
      <!-- 4 -->
      <g transform="translate(287.307257 236.917305) scale(0.1 -0.1)">
       <defs>
        <path id="DejaVuSans-17" d="M 2419 4116 
L 825 1625 
L 2419 1625 
L 2419 4116 
z
M 2253 4666 
L 3047 4666 
L 3047 1625 
L 3713 1625 
L 3713 1100 
L 3047 1100 
L 3047 0 
L 2419 0 
L 2419 1100 
L 313 1100 
L 313 1709 
L 2253 4666 
z
" transform="scale(0.015625)"/>
       </defs>
       <use xlink:href="#DejaVuSans-17"/>
      </g>
     </g>
    </g>
    <g id="xtick_4">
     <g id="line2d_7">
      <path d="M 394.440732 222.319648 
L 394.440732 42.006328 
" clip-path="url(#pe6ae2e2095)" style="fill: none; stroke: #b0b0b0; stroke-opacity: 0.25; stroke-width: 0.8; stroke-linecap: square"/>
     </g>
     <g id="line2d_8">
      <g>
       <use xlink:href="#m002aa4cf9e" x="394.440732" y="222.319648" style="stroke: #000000; stroke-width: 0.8"/>
      </g>
     </g>
     <g id="text_4">
      <!-- 6 -->
      <g transform="translate(391.259482 236.917305) scale(0.1 -0.1)">
       <defs>
        <path id="DejaVuSans-19" d="M 2113 2584 
Q 1688 2584 1439 2293 
Q 1191 2003 1191 1497 
Q 1191 994 1439 701 
Q 1688 409 2113 409 
Q 2538 409 2786 701 
Q 3034 994 3034 1497 
Q 3034 2003 2786 2293 
Q 2538 2584 2113 2584 
z
M 3366 4563 
L 3366 3988 
Q 3128 4100 2886 4159 
Q 2644 4219 2406 4219 
Q 1781 4219 1451 3797 
Q 1122 3375 1075 2522 
Q 1259 2794 1537 2939 
Q 1816 3084 2150 3084 
Q 2853 3084 3261 2657 
Q 3669 2231 3669 1497 
Q 3669 778 3244 343 
Q 2819 -91 2113 -91 
Q 1303 -91 875 529 
Q 447 1150 447 2328 
Q 447 3434 972 4092 
Q 1497 4750 2381 4750 
Q 2619 4750 2861 4703 
Q 3103 4656 3366 4563 
z
" transform="scale(0.015625)"/>
       </defs>
       <use xlink:href="#DejaVuSans-19"/>
      </g>
     </g>
    </g>
    <g id="xtick_5">
     <g id="line2d_9">
      <path d="M 498.392958 222.319648 
L 498.392958 42.006328 
" clip-path="url(#pe6ae2e2095)" style="fill: none; stroke: #b0b0b0; stroke-opacity: 0.25; stroke-width: 0.8; stroke-linecap: square"/>
     </g>
     <g id="line2d_10">
      <g>
       <use xlink:href="#m002aa4cf9e" x="498.392958" y="222.319648" style="stroke: #000000; stroke-width: 0.8"/>
      </g>
     </g>
     <g id="text_5">
      <!-- 8 -->
      <g transform="translate(495.211708 236.917305) scale(0.1 -0.1)">
       <defs>
        <path id="DejaVuSans-1b" d="M 2034 2216 
Q 1584 2216 1326 1975 
Q 1069 1734 1069 1313 
Q 1069 891 1326 650 
Q 1584 409 2034 409 
Q 2484 409 2743 651 
Q 3003 894 3003 1313 
Q 3003 1734 2745 1975 
Q 2488 2216 2034 2216 
z
M 1403 2484 
Q 997 2584 770 2862 
Q 544 3141 544 3541 
Q 544 4100 942 4425 
Q 1341 4750 2034 4750 
Q 2731 4750 3128 4425 
Q 3525 4100 3525 3541 
Q 3525 3141 3298 2862 
Q 3072 2584 2669 2484 
Q 3125 2378 3379 2068 
Q 3634 1759 3634 1313 
Q 3634 634 3220 271 
Q 2806 -91 2034 -91 
Q 1263 -91 848 271 
Q 434 634 434 1313 
Q 434 1759 690 2068 
Q 947 2378 1403 2484 
z
M 1172 3481 
Q 1172 3119 1398 2916 
Q 1625 2713 2034 2713 
Q 2441 2713 2670 2916 
Q 2900 3119 2900 3481 
Q 2900 3844 2670 4047 
Q 2441 4250 2034 4250 
Q 1625 4250 1398 4047 
Q 1172 3844 1172 3481 
z
" transform="scale(0.015625)"/>
       </defs>
       <use xlink:href="#DejaVuSans-1b"/>
      </g>
     </g>
    </g>
    <g id="xtick_6">
     <g id="line2d_11">
      <path d="M 602.345183 222.319648 
L 602.345183 42.006328 
" clip-path="url(#pe6ae2e2095)" style="fill: none; stroke: #b0b0b0; stroke-opacity: 0.25; stroke-width: 0.8; stroke-linecap: square"/>
     </g>
     <g id="line2d_12">
      <g>
       <use xlink:href="#m002aa4cf9e" x="602.345183" y="222.319648" style="stroke: #000000; stroke-width: 0.8"/>
      </g>
     </g>
     <g id="text_6">
      <!-- 10 -->
      <g transform="translate(595.982683 236.917305) scale(0.1 -0.1)">
       <defs>
        <path id="DejaVuSans-14" d="M 794 531 
L 1825 531 
L 1825 4091 
L 703 3866 
L 703 4441 
L 1819 4666 
L 2450 4666 
L 2450 531 
L 3481 531 
L 3481 0 
L 794 0 
L 794 531 
z
" transform="scale(0.015625)"/>
       </defs>
       <use xlink:href="#DejaVuSans-14"/>
       <use xlink:href="#DejaVuSans-13" transform="translate(63.625 0)"/>
      </g>
     </g>
    </g>
    <g id="text_7">
     <!-- t [arb.] -->
     <g transform="translate(325.067578 250.918086) scale(0.1 -0.1)">
      <defs>
       <path id="DejaVuSans-57" d="M 1172 4494 
L 1172 3500 
L 2356 3500 
L 2356 3053 
L 1172 3053 
L 1172 1153 
Q 1172 725 1289 603 
Q 1406 481 1766 481 
L 2356 481 
L 2356 0 
L 1766 0 
Q 1100 0 847 248 
Q 594 497 594 1153 
L 594 3053 
L 172 3053 
L 172 3500 
L 594 3500 
L 594 4494 
L 1172 4494 
z
" transform="scale(0.015625)"/>
       <path id="DejaVuSans-3" transform="scale(0.015625)"/>
       <path id="DejaVuSans-3e" d="M 550 4863 
L 1875 4863 
L 1875 4416 
L 1125 4416 
L 1125 -397 
L 1875 -397 
L 1875 -844 
L 550 -844 
L 550 4863 
z
" transform="scale(0.015625)"/>
       <path id="DejaVuSans-44" d="M 2194 1759 
Q 1497 1759 1228 1600 
Q 959 1441 959 1056 
Q 959 750 1161 570 
Q 1363 391 1709 391 
Q 2188 391 2477 730 
Q 2766 1069 2766 1631 
L 2766 1759 
L 2194 1759 
z
M 3341 1997 
L 3341 0 
L 2766 0 
L 2766 531 
Q 2569 213 2275 61 
Q 1981 -91 1556 -91 
Q 1019 -91 701 211 
Q 384 513 384 1019 
Q 384 1609 779 1909 
Q 1175 2209 1959 2209 
L 2766 2209 
L 2766 2266 
Q 2766 2663 2505 2880 
Q 2244 3097 1772 3097 
Q 1472 3097 1187 3025 
Q 903 2953 641 2809 
L 641 3341 
Q 956 3463 1253 3523 
Q 1550 3584 1831 3584 
Q 2591 3584 2966 3190 
Q 3341 2797 3341 1997 
z
" transform="scale(0.015625)"/>
       <path id="DejaVuSans-55" d="M 2631 2963 
Q 2534 3019 2420 3045 
Q 2306 3072 2169 3072 
Q 1681 3072 1420 2755 
Q 1159 2438 1159 1844 
L 1159 0 
L 581 0 
L 581 3500 
L 1159 3500 
L 1159 2956 
Q 1341 3275 1631 3429 
Q 1922 3584 2338 3584 
Q 2397 3584 2469 3576 
Q 2541 3569 2628 3553 
L 2631 2963 
z
" transform="scale(0.015625)"/>
       <path id="DejaVuSans-45" d="M 3116 1747 
Q 3116 2381 2855 2742 
Q 2594 3103 2138 3103 
Q 1681 3103 1420 2742 
Q 1159 2381 1159 1747 
Q 1159 1113 1420 752 
Q 1681 391 2138 391 
Q 2594 391 2855 752 
Q 3116 1113 3116 1747 
z
M 1159 2969 
Q 1341 3281 1617 3432 
Q 1894 3584 2278 3584 
Q 2916 3584 3314 3078 
Q 3713 2572 3713 1747 
Q 3713 922 3314 415 
Q 2916 -91 2278 -91 
Q 1894 -91 1617 61 
Q 1341 213 1159 525 
L 1159 0 
L 581 0 
L 581 4863 
L 1159 4863 
L 1159 2969 
z
" transform="scale(0.015625)"/>
       <path id="DejaVuSans-11" d="M 684 794 
L 1344 794 
L 1344 0 
L 684 0 
L 684 794 
z
" transform="scale(0.015625)"/>
       <path id="DejaVuSans-40" d="M 1947 4863 
L 1947 -844 
L 622 -844 
L 622 -397 
L 1369 -397 
L 1369 4416 
L 622 4416 
L 622 4863 
L 1947 4863 
z
" transform="scale(0.015625)"/>
      </defs>
      <use xlink:href="#DejaVuSans-57"/>
      <use xlink:href="#DejaVuSans-3" transform="translate(39.203125 0)"/>
      <use xlink:href="#DejaVuSans-3e" transform="translate(70.984375 0)"/>
      <use xlink:href="#DejaVuSans-44" transform="translate(110 0)"/>
      <use xlink:href="#DejaVuSans-55" transform="translate(171.28125 0)"/>
      <use xlink:href="#DejaVuSans-45" transform="translate(212.390625 0)"/>
      <use xlink:href="#DejaVuSans-11" transform="translate(275.875 0)"/>
      <use xlink:href="#DejaVuSans-40" transform="translate(307.65625 0)"/>
     </g>
    </g>
   </g>
   <g id="matplotlib.axis_2">
    <g id="ytick_1">
     <g id="line2d_13">
      <path d="M 56.602344 198.802325 
L 628.2 198.802325 
" clip-path="url(#pe6ae2e2095)" style="fill: none; stroke: #b0b0b0; stroke-opacity: 0.25; stroke-width: 0.8; stroke-linecap: square"/>
     </g>
     <g id="line2d_14">
      <defs>
       <path id="mf833253433" d="M 0 0 
L -3.5 0 
" style="stroke: #000000; stroke-width: 0.8"/>
      </defs>
      <g>
       <use xlink:href="#mf833253433" x="56.602344" y="198.802325" style="stroke: #000000; stroke-width: 0.8"/>
      </g>
     </g>
     <g id="text_8">
      <!-- −1.0 -->
      <g transform="translate(25.319531 202.601154) scale(0.1 -0.1)">
       <defs>
        <path id="DejaVuSans-c9c" d="M 678 2272 
L 4684 2272 
L 4684 1741 
L 678 1741 
L 678 2272 
z
" transform="scale(0.015625)"/>
       </defs>
       <use xlink:href="#DejaVuSans-c9c"/>
       <use xlink:href="#DejaVuSans-14" transform="translate(83.796875 0)"/>
       <use xlink:href="#DejaVuSans-11" transform="translate(147.421875 0)"/>
       <use xlink:href="#DejaVuSans-13" transform="translate(179.203125 0)"/>
      </g>
     </g>
    </g>
    <g id="ytick_2">
     <g id="line2d_15">
      <path d="M 56.602344 165.482665 
L 628.2 165.482665 
" clip-path="url(#pe6ae2e2095)" style="fill: none; stroke: #b0b0b0; stroke-opacity: 0.25; stroke-width: 0.8; stroke-linecap: square"/>
     </g>
     <g id="line2d_16">
      <g>
       <use xlink:href="#mf833253433" x="56.602344" y="165.482665" style="stroke: #000000; stroke-width: 0.8"/>
      </g>
     </g>
     <g id="text_9">
      <!-- −0.5 -->
      <g transform="translate(25.319531 169.281493) scale(0.1 -0.1)">
       <defs>
        <path id="DejaVuSans-18" d="M 691 4666 
L 3169 4666 
L 3169 4134 
L 1269 4134 
L 1269 2991 
Q 1406 3038 1543 3061 
Q 1681 3084 1819 3084 
Q 2600 3084 3056 2656 
Q 3513 2228 3513 1497 
Q 3513 744 3044 326 
Q 2575 -91 1722 -91 
Q 1428 -91 1123 -41 
Q 819 9 494 109 
L 494 744 
Q 775 591 1075 516 
Q 1375 441 1709 441 
Q 2250 441 2565 725 
Q 2881 1009 2881 1497 
Q 2881 1984 2565 2268 
Q 2250 2553 1709 2553 
Q 1456 2553 1204 2497 
Q 953 2441 691 2322 
L 691 4666 
z
" transform="scale(0.015625)"/>
       </defs>
       <use xlink:href="#DejaVuSans-c9c"/>
       <use xlink:href="#DejaVuSans-13" transform="translate(83.796875 0)"/>
       <use xlink:href="#DejaVuSans-11" transform="translate(147.421875 0)"/>
       <use xlink:href="#DejaVuSans-18" transform="translate(179.203125 0)"/>
      </g>
     </g>
    </g>
    <g id="ytick_3">
     <g id="line2d_17">
      <path d="M 56.602344 132.163004 
L 628.2 132.163004 
" clip-path="url(#pe6ae2e2095)" style="fill: none; stroke: #b0b0b0; stroke-opacity: 0.25; stroke-width: 0.8; stroke-linecap: square"/>
     </g>
     <g id="line2d_18">
      <g>
       <use xlink:href="#mf833253433" x="56.602344" y="132.163004" style="stroke: #000000; stroke-width: 0.8"/>
      </g>
     </g>
     <g id="text_10">
      <!-- 0.0 -->
      <g transform="translate(33.699219 135.961832) scale(0.1 -0.1)">
       <use xlink:href="#DejaVuSans-13"/>
       <use xlink:href="#DejaVuSans-11" transform="translate(63.625 0)"/>
       <use xlink:href="#DejaVuSans-13" transform="translate(95.40625 0)"/>
      </g>
     </g>
    </g>
    <g id="ytick_4">
     <g id="line2d_19">
      <path d="M 56.602344 98.843343 
L 628.2 98.843343 
" clip-path="url(#pe6ae2e2095)" style="fill: none; stroke: #b0b0b0; stroke-opacity: 0.25; stroke-width: 0.8; stroke-linecap: square"/>
     </g>
     <g id="line2d_20">
      <g>
       <use xlink:href="#mf833253433" x="56.602344" y="98.843343" style="stroke: #000000; stroke-width: 0.8"/>
      </g>
     </g>
     <g id="text_11">
      <!-- 0.5 -->
      <g transform="translate(33.699219 102.642171) scale(0.1 -0.1)">
       <use xlink:href="#DejaVuSans-13"/>
       <use xlink:href="#DejaVuSans-11" transform="translate(63.625 0)"/>
       <use xlink:href="#DejaVuSans-18" transform="translate(95.40625 0)"/>
      </g>
     </g>
    </g>
    <g id="ytick_5">
     <g id="line2d_21">
      <path d="M 56.602344 65.523682 
L 628.2 65.523682 
" clip-path="url(#pe6ae2e2095)" style="fill: none; stroke: #b0b0b0; stroke-opacity: 0.25; stroke-width: 0.8; stroke-linecap: square"/>
     </g>
     <g id="line2d_22">
      <g>
       <use xlink:href="#mf833253433" x="56.602344" y="65.523682" style="stroke: #000000; stroke-width: 0.8"/>
      </g>
     </g>
     <g id="text_12">
      <!-- 1.0 -->
      <g transform="translate(33.699219 69.32251) scale(0.1 -0.1)">
       <use xlink:href="#DejaVuSans-14"/>
       <use xlink:href="#DejaVuSans-11" transform="translate(63.625 0)"/>
       <use xlink:href="#DejaVuSans-13" transform="translate(95.40625 0)"/>
      </g>
     </g>
    </g>
    <g id="text_13">
     <!-- [arb.] -->
     <g transform="translate(18.917188 145.947363) rotate(-90) scale(0.1 -0.1)">
      <use xlink:href="#DejaVuSans-3e"/>
      <use xlink:href="#DejaVuSans-44" transform="translate(39.015625 0)"/>
      <use xlink:href="#DejaVuSans-55" transform="translate(100.296875 0)"/>
      <use xlink:href="#DejaVuSans-45" transform="translate(141.40625 0)"/>
      <use xlink:href="#DejaVuSans-11" transform="translate(204.890625 0)"/>
      <use xlink:href="#DejaVuSans-40" transform="translate(236.671875 0)"/>
     </g>
    </g>
   </g>
   <g id="line2d_23">
    <path d="M 82.584055 132.163004 
L 85.629531 94.946941 
L 87.152268 78.925238 
L 88.421217 67.788994 
L 89.436375 60.644401 
L 90.324639 55.833066 
L 91.086007 52.852669 
L 91.720481 51.207919 
L 92.228061 50.453171 
L 92.608745 50.217699 
L 92.98943 50.266589 
L 93.370114 50.599669 
L 93.877693 51.483714 
L 94.385272 52.865367 
L 95.019746 55.278925 
L 95.781115 59.1504 
L 96.669379 64.942344 
L 97.684537 73.10732 
L 98.953485 85.332171 
L 100.476223 102.332041 
L 102.887224 132.213283 
L 105.805805 167.983108 
L 107.328543 184.205624 
L 108.597491 195.560267 
L 109.612649 202.90707 
L 110.500913 207.911172 
L 111.262282 211.065679 
L 111.896756 212.859944 
L 112.404335 213.736166 
L 112.785019 214.063337 
L 113.165704 214.106303 
L 113.546388 213.864914 
L 113.927073 213.340009 
L 114.434652 212.2024 
L 115.069126 210.087288 
L 115.830495 206.560474 
L 116.718758 201.146039 
L 117.733917 193.371395 
L 118.87597 182.833718 
L 120.271813 167.847379 
L 122.30213 143.295182 
L 126.362764 93.431457 
L 127.885501 77.636655 
L 129.154449 66.744567 
L 130.169608 59.824715 
L 131.057872 55.226795 
L 131.81924 52.438588 
L 132.453714 50.958498 
L 132.961294 50.337286 
L 133.341978 50.202481 
L 133.722662 50.352089 
L 134.103347 50.785592 
L 134.610926 51.802469 
L 135.2454 53.769537 
L 135.879874 56.49187 
L 136.641243 60.718196 
L 137.529507 66.896323 
L 138.67156 76.630148 
L 139.940508 89.459869 
L 141.59014 108.51096 
L 147.807986 183.031074 
L 149.076934 194.593162 
L 150.092092 202.133124 
L 150.980356 207.322053 
L 151.741725 210.64397 
L 152.376199 212.582312 
L 152.883778 213.575788 
L 153.264463 213.991589 
L 153.645147 214.123434 
L 154.025832 213.970866 
L 154.406516 213.534413 
L 154.914095 212.513637 
L 155.548569 210.541784 
L 156.183043 207.814807 
L 156.944412 203.583159 
L 157.832676 197.399259 
L 158.974729 187.65887 
L 160.243677 174.823215 
L 161.89331 155.766903 
L 168.111155 81.25552 
L 169.380103 69.700281 
L 170.395262 62.166713 
L 171.283525 56.983914 
L 172.044894 53.667558 
L 172.679368 51.734005 
L 173.186947 50.744431 
L 173.567632 50.331581 
L 173.948316 50.202697 
L 174.329001 50.358226 
L 174.709685 50.797628 
L 175.217264 51.822303 
L 175.851738 53.798939 
L 176.486212 56.530559 
L 177.247581 60.767528 
L 178.135845 66.957197 
L 179.277898 76.704147 
L 180.546846 89.545732 
L 182.196479 108.607258 
L 188.414324 183.109882 
L 189.683272 194.658268 
L 190.698431 202.185438 
L 191.586694 207.362105 
L 192.348063 210.6729 
L 192.982537 212.601661 
L 193.490116 213.587334 
L 193.870801 213.997233 
L 194.251485 214.123157 
L 194.63217 213.964667 
L 195.012854 213.522315 
L 195.520433 212.493743 
L 196.154907 210.512323 
L 196.789381 207.776062 
L 197.55075 203.533773 
L 198.439014 197.338336 
L 199.581067 187.58483 
L 200.850015 174.737321 
L 202.499648 155.670588 
L 208.717493 81.17675 
L 209.986441 69.635221 
L 211.0016 62.114452 
L 211.889863 56.94392 
L 212.651232 53.638687 
L 213.285706 51.714717 
L 213.793285 50.732946 
L 214.17397 50.325998 
L 214.554654 50.203036 
L 214.935339 50.364485 
L 215.316023 50.809787 
L 215.823602 51.842257 
L 216.458076 53.828459 
L 217.09255 56.569361 
L 217.853919 60.816967 
L 218.742183 67.01817 
L 219.884236 76.77823 
L 221.153184 89.631658 
L 222.802817 108.703591 
L 229.020662 183.188614 
L 230.28961 194.72328 
L 231.304769 202.237646 
L 232.193032 207.402043 
L 232.954401 210.701712 
L 233.588875 212.62089 
L 234.096454 213.598757 
L 234.477139 214.002754 
L 234.857823 214.122756 
L 235.238508 213.958346 
L 235.619192 213.510096 
L 236.126771 212.473728 
L 236.761245 210.482744 
L 237.395719 207.737203 
L 238.157088 203.484281 
L 239.045352 197.277314 
L 240.187405 187.510705 
L 241.456353 174.651362 
L 243.105986 155.574237 
L 249.323831 81.098056 
L 250.592779 69.570256 
L 251.607938 62.062297 
L 252.496201 56.904038 
L 253.25757 53.609934 
L 253.892044 51.695549 
L 254.399624 50.721584 
L 254.780308 50.320539 
L 255.160992 50.203499 
L 255.541677 50.370868 
L 255.922361 50.822067 
L 256.42994 51.862332 
L 257.064414 53.858098 
L 257.698888 56.608277 
L 258.460257 60.866513 
L 259.348521 67.07924 
L 260.490574 76.852396 
L 261.759522 89.717649 
L 263.409155 108.799959 
L 269.627 183.267269 
L 270.895948 194.788198 
L 271.911107 202.289748 
L 272.79937 207.441868 
L 273.560739 210.730406 
L 274.195213 212.639997 
L 274.702793 213.610058 
L 275.083477 214.008151 
L 275.464161 214.122231 
L 275.844846 213.951902 
L 276.22553 213.497754 
L 276.733109 212.453593 
L 277.367584 210.453046 
L 278.002058 207.69823 
L 278.763426 203.43468 
L 279.65169 197.216195 
L 280.793743 187.436498 
L 282.062691 174.565339 
L 283.712324 155.477852 
L 289.803275 82.287005 
L 291.072223 70.555022 
L 292.214276 62.010247 
L 293.10254 56.86427 
L 293.863908 53.581299 
L 294.498382 51.676503 
L 295.005962 50.710345 
L 295.386646 50.315203 
L 295.76733 50.204085 
L 296.148015 50.377374 
L 296.528699 50.834471 
L 297.036279 51.882528 
L 297.670753 53.887854 
L 298.305227 56.647306 
L 299.066595 60.916167 
L 299.954859 67.140409 
L 301.096912 76.926645 
L 302.36586 89.803704 
L 304.015493 108.896362 
L 310.106444 182.07889 
L 311.375392 193.804134 
L 312.517445 202.341746 
L 313.405709 207.481579 
L 314.167077 210.758981 
L 314.801551 212.658983 
L 315.309131 213.621236 
L 315.689815 214.013426 
L 316.0705 214.121584 
L 316.451184 213.945334 
L 316.831868 213.485289 
L 317.339448 212.433336 
L 317.973922 210.423231 
L 318.73529 207.018066 
L 319.623554 201.737421 
L 320.638713 194.101877 
L 321.780766 183.699025 
L 323.176609 168.840502 
L 325.080031 145.979829 
L 329.521349 91.582878 
L 331.044087 76.077827 
L 332.18614 66.442904 
L 333.201298 59.589703 
L 334.089562 55.054911 
L 334.850931 52.323442 
L 335.485405 50.891889 
L 335.992984 50.309991 
L 336.373669 50.204794 
L 336.754353 50.384003 
L 337.135037 50.846997 
L 337.642617 51.902845 
L 338.277091 53.917728 
L 339.03846 57.328432 
L 339.926723 62.615177 
L 340.941882 70.25707 
L 342.083935 80.666087 
L 343.479778 95.530475 
L 345.3832 118.395741 
L 349.824518 172.786805 
L 351.347256 188.284834 
L 352.489309 197.913134 
L 353.504467 204.759656 
L 354.392731 209.288125 
L 355.1541 212.013914 
L 355.788574 213.440611 
L 356.296153 214.018577 
L 356.676838 214.120813 
L 357.057522 213.938643 
L 357.438206 213.472702 
L 357.945786 212.412959 
L 358.58026 210.393298 
L 359.341629 206.977055 
L 360.229892 201.684214 
L 361.245051 194.035975 
L 362.387104 183.620796 
L 363.782947 168.750548 
L 365.686369 145.8807 
L 370.127687 91.495542 
L 371.650425 76.004542 
L 372.792478 66.382867 
L 373.807637 59.543028 
L 374.6959 55.020882 
L 375.457269 52.300774 
L 376.091743 50.878934 
L 376.599322 50.304901 
L 376.980007 50.205627 
L 377.360691 50.390755 
L 377.741376 50.859645 
L 378.248955 51.923283 
L 378.883429 53.94772 
L 379.644798 57.3695 
L 380.533061 62.668436 
L 381.54822 70.323019 
L 382.690273 80.744356 
L 384.086116 95.620458 
L 385.989538 118.49488 
L 390.430856 172.874111 
L 391.953594 188.358076 
L 393.095647 197.973121 
L 394.110806 204.806276 
L 394.999069 209.322096 
L 395.760438 212.036523 
L 396.394912 213.453505 
L 396.902491 214.023605 
L 397.283176 214.119918 
L 397.66386 213.93183 
L 398.044545 213.459993 
L 398.552124 212.392461 
L 399.186598 210.363248 
L 399.947967 206.935932 
L 400.83623 201.630903 
L 401.851389 193.96998 
L 402.993442 183.542488 
L 404.389285 168.660538 
L 406.292707 145.78155 
L 410.734025 91.408266 
L 412.256763 75.931341 
L 413.398816 66.32293 
L 414.413975 59.496462 
L 415.302238 54.98697 
L 416.063607 52.278225 
L 416.698081 50.866102 
L 417.20566 50.299935 
L 417.586345 50.206583 
L 417.967029 50.397631 
L 418.347714 50.872415 
L 418.855293 51.943841 
L 419.489767 53.977829 
L 420.251136 57.41068 
L 421.139399 62.721799 
L 422.154558 70.38906 
L 423.296611 80.822702 
L 424.692454 95.710495 
L 426.595876 118.59404 
L 431.037194 172.961356 
L 432.559932 188.431235 
L 433.701985 198.033009 
L 434.717144 204.852787 
L 435.605407 209.35595 
L 436.366776 212.059011 
L 437.00125 213.466276 
L 437.508829 214.02851 
L 437.889514 214.1189 
L 438.270198 213.924893 
L 438.650883 213.447161 
L 439.158462 212.371842 
L 439.792936 210.333079 
L 440.554305 206.894696 
L 441.442568 201.577488 
L 442.457727 193.903892 
L 443.59978 183.464104 
L 444.995623 168.570473 
L 446.899045 145.68238 
L 451.340363 91.321052 
L 452.863101 75.858225 
L 454.005154 66.263092 
L 455.020313 59.450006 
L 455.908576 54.953173 
L 456.669945 52.255797 
L 457.304419 50.853391 
L 457.811998 50.295092 
L 458.192683 50.207662 
L 458.573367 50.404629 
L 458.954052 50.885308 
L 459.461631 51.96452 
L 460.096105 54.008056 
L 460.857474 57.451972 
L 461.745737 62.775267 
L 462.760896 70.455195 
L 463.902949 80.901125 
L 465.298792 95.800587 
L 467.202214 118.69322 
L 471.643532 173.048539 
L 473.16627 188.504308 
L 474.308323 198.092797 
L 475.323482 204.899189 
L 476.211745 209.389689 
L 476.973114 212.081379 
L 477.607588 213.478925 
L 478.115168 214.033291 
L 478.495852 214.117759 
L 478.876536 213.917833 
L 479.257221 213.434207 
L 479.7648 212.351102 
L 480.399274 210.302793 
L 481.160643 206.853347 
L 482.048907 201.523968 
L 483.064065 193.837711 
L 484.206118 183.385642 
L 485.601961 168.480354 
L 487.505383 145.58319 
L 491.946701 91.2339 
L 493.469439 75.785194 
L 494.611492 66.203353 
L 495.626651 59.403659 
L 496.514914 54.919493 
L 497.276283 52.233489 
L 497.910757 50.840804 
L 498.418337 50.290372 
L 498.799021 50.208865 
L 499.179705 50.41175 
L 499.56039 50.898324 
L 500.067969 51.98532 
L 500.702443 54.038401 
L 501.463812 57.493377 
L 502.352076 62.828839 
L 503.367234 70.521422 
L 504.509287 80.979626 
L 505.90513 95.890734 
L 507.808552 118.79242 
L 512.24987 173.135661 
L 513.772608 188.577297 
L 514.914661 198.152487 
L 515.92982 204.945481 
L 516.818084 209.423311 
L 517.579452 212.103627 
L 518.213926 213.491452 
L 518.721506 214.037949 
L 519.10219 214.116494 
L 519.482874 213.91065 
L 519.863559 213.42113 
L 520.371138 212.330242 
L 521.005612 210.27239 
L 521.766981 206.811886 
L 522.655245 201.470343 
L 523.670403 193.771437 
L 524.812456 183.307103 
L 526.208299 168.39018 
L 528.111721 145.483979 
L 532.55304 91.146809 
L 534.075777 75.712248 
L 535.21783 66.143713 
L 536.232989 59.357422 
L 537.121253 54.885929 
L 537.882621 52.211302 
L 538.517095 50.828338 
L 539.024675 50.285775 
L 539.405359 50.210191 
L 539.786044 50.418995 
L 540.166728 50.911461 
L 540.674307 52.006241 
L 541.308781 54.068864 
L 542.07015 57.534894 
L 542.958414 62.882515 
L 543.973572 70.587742 
L 545.115625 81.058203 
L 546.511468 95.980935 
L 548.41489 118.891641 
L 552.856209 173.222721 
L 554.378946 188.650201 
L 555.521 198.212077 
L 556.536158 204.991663 
L 557.424422 209.456817 
L 558.18579 212.125754 
L 558.820265 213.503856 
L 559.327844 214.042484 
L 559.708528 214.115107 
L 560.089213 213.903344 
L 560.469897 213.407932 
L 560.977476 212.309261 
L 561.61195 210.241869 
L 562.373319 206.770312 
L 563.261583 201.416615 
L 564.276741 193.70507 
L 565.418794 183.228487 
L 566.814637 168.299951 
L 568.718059 145.384749 
L 573.159378 91.05978 
L 574.682115 75.639387 
L 575.824169 66.084173 
L 576.839327 59.311294 
L 577.727591 54.852481 
L 578.48896 52.189234 
L 579.123434 50.815995 
L 579.631013 50.281302 
L 580.011697 50.211641 
L 580.392382 50.426362 
L 580.773066 50.924721 
L 581.280645 52.027282 
L 581.915119 54.099444 
L 582.676488 57.576524 
L 583.564752 62.936296 
L 584.57991 70.654155 
L 585.721963 81.136858 
L 587.117806 96.071191 
L 589.021228 118.990882 
L 593.462547 173.309719 
L 594.985284 188.723019 
L 596.127338 198.271567 
L 597.142496 205.037736 
L 598.03076 209.490206 
L 598.792129 212.147761 
L 599.426603 213.516138 
L 599.934182 214.046896 
L 600.314866 214.113595 
L 600.695551 213.895915 
L 601.076235 213.394611 
L 601.583814 212.288159 
L 602.218288 210.21123 
L 602.218288 210.21123 
" clip-path="url(#pe6ae2e2095)" style="fill: none; stroke: #1f77b4; stroke-width: 1.5; stroke-linecap: square"/>
   </g>
   <g id="line2d_24">
    <path d="M 82.584055 132.163004 
L 83.726109 119.386176 
L 84.741267 110.491295 
L 85.629531 104.497731 
L 86.3909 100.622349 
L 87.152268 97.856628 
L 87.786742 96.361163 
L 88.294322 95.671624 
L 88.675006 95.439025 
L 89.055691 95.442107 
L 89.436375 95.673215 
L 89.943954 96.322363 
L 90.451533 97.343335 
L 91.086007 99.111381 
L 91.847376 101.899213 
L 92.73564 105.973985 
L 93.877693 112.317251 
L 95.400431 122.243132 
L 97.811432 139.765102 
L 100.476223 158.678856 
L 101.998961 167.937663 
L 103.141014 173.698119 
L 104.156173 177.787817 
L 105.044436 180.479578 
L 105.805805 182.082947 
L 106.440279 182.903252 
L 106.947858 183.214906 
L 107.328543 183.245828 
L 107.709227 183.102477 
L 108.216806 182.640833 
L 108.724386 181.872338 
L 109.35886 180.486975 
L 110.120228 178.218843 
L 111.008492 174.776884 
L 112.023651 169.872882 
L 113.292599 162.464916 
L 114.815336 152.079697 
L 117.099443 134.654629 
L 120.398708 109.547246 
L 121.921445 99.562104 
L 123.190394 92.599484 
L 124.205552 88.114702 
L 125.093816 85.078142 
L 125.855184 83.181197 
L 126.489658 82.118749 
L 126.997238 81.615748 
L 127.504817 81.42463 
L 127.885501 81.48674 
L 128.393081 81.843065 
L 128.90066 82.509844 
L 129.535134 83.773433 
L 130.296503 85.903885 
L 131.184766 89.197861 
L 132.199925 93.950958 
L 133.341978 100.416764 
L 134.737821 109.640137 
L 136.641243 123.812902 
L 141.082561 157.468519 
L 142.605299 167.039673 
L 143.747352 172.977971 
L 144.762511 177.193722 
L 145.650774 179.975486 
L 146.412143 181.643352 
L 147.046617 182.509749 
L 147.554196 182.853872 
L 147.934881 182.906835 
L 148.315565 182.783711 
L 148.823144 182.346459 
L 149.330724 181.599691 
L 149.965198 180.238169 
L 150.726567 177.99443 
L 151.61483 174.576074 
L 152.629989 169.693916 
L 153.772042 163.10333 
L 155.29478 152.856181 
L 157.451991 136.529502 
L 161.131941 108.577253 
L 162.654678 98.737731 
L 163.923626 91.929447 
L 164.938785 87.585847 
L 165.827049 84.68295 
L 166.588417 82.906181 
L 167.222891 81.946604 
L 167.730471 81.526991 
L 168.23805 81.419687 
L 168.618734 81.544633 
L 169.126313 81.984303 
L 169.633893 82.733462 
L 170.268367 84.097911 
L 171.029736 86.345034 
L 171.917999 89.767104 
L 172.933158 94.653109 
L 174.075211 101.247404 
L 175.597949 111.49829 
L 177.75516 127.827544 
L 181.43511 155.776325 
L 182.957847 165.611702 
L 184.226795 172.415533 
L 185.241954 176.755034 
L 186.130218 179.654042 
L 186.891586 181.42731 
L 187.52606 182.383888 
L 188.03364 182.80107 
L 188.541219 182.905929 
L 188.921903 182.77915 
L 189.429483 182.337051 
L 189.937062 181.58549 
L 190.571536 180.218103 
L 191.332905 177.967582 
L 192.221168 174.541788 
L 193.236327 169.651925 
L 194.37838 163.053911 
L 195.901118 152.799281 
L 198.058329 136.467446 
L 201.738279 108.522131 
L 203.261016 98.6909 
L 204.529965 91.891525 
L 205.545123 87.556121 
L 206.433387 84.661002 
L 207.194755 82.891236 
L 207.829229 81.937657 
L 208.336809 81.522907 
L 208.844388 81.420491 
L 209.225072 81.549102 
L 209.732652 81.993632 
L 210.240231 82.747593 
L 210.874705 84.117919 
L 211.636074 86.371835 
L 212.524337 89.801353 
L 213.539496 94.695072 
L 214.681549 101.296801 
L 216.204287 111.555171 
L 218.361498 127.889581 
L 221.914553 154.945332 
L 223.437291 164.903408 
L 224.706239 171.839755 
L 225.721397 176.301482 
L 226.609661 179.316712 
L 227.37103 181.194751 
L 228.005504 182.241166 
L 228.513083 182.731249 
L 229.020662 182.90944 
L 229.401347 182.837671 
L 229.908926 182.468568 
L 230.416505 181.789194 
L 231.050979 180.510221 
L 231.812348 178.362009 
L 232.700612 175.048566 
L 233.71577 170.27528 
L 234.857823 163.789933 
L 236.253666 154.548018 
L 238.283983 139.375695 
L 242.471512 107.590388 
L 243.994249 97.902362 
L 245.263197 91.256036 
L 246.278356 87.060977 
L 247.16662 84.298792 
L 247.927988 82.648507 
L 248.562462 81.797139 
L 249.070042 81.46518 
L 249.450726 81.421375 
L 249.83141 81.55365 
L 250.33899 82.003038 
L 250.846569 82.7618 
L 251.481043 84.138 
L 252.242412 86.398706 
L 253.130675 89.835667 
L 254.145834 94.737092 
L 255.414782 102.143948 
L 256.93752 112.527222 
L 259.221626 129.940713 
L 262.520891 155.00095 
L 264.043629 164.950954 
L 265.312577 171.878543 
L 266.327735 176.332172 
L 267.215999 179.339689 
L 267.977368 181.210766 
L 268.611842 182.251205 
L 269.119421 182.736435 
L 269.627 182.909741 
L 270.007685 182.834305 
L 270.515264 182.460334 
L 271.022843 181.776143 
L 271.657317 180.491264 
L 272.418686 178.336212 
L 273.30695 175.015247 
L 274.322108 170.234142 
L 275.464161 163.741218 
L 276.860004 154.492124 
L 278.890321 139.31406 
L 283.07785 107.535931 
L 284.600587 97.856457 
L 285.869536 91.219221 
L 286.884694 87.032472 
L 287.772958 84.278141 
L 288.534326 82.634904 
L 289.168801 81.789558 
L 289.67638 81.462472 
L 290.057064 81.422335 
L 290.437749 81.558274 
L 290.945328 82.012521 
L 291.452907 82.776082 
L 292.087381 84.158155 
L 292.84875 86.425646 
L 293.737014 89.870045 
L 294.752172 94.779169 
L 296.02112 102.194171 
L 297.543858 112.584649 
L 299.827964 130.002917 
L 303.127229 155.056533 
L 304.649967 164.998451 
L 305.918915 171.917271 
L 306.934073 176.362796 
L 307.822337 179.362595 
L 308.583706 181.226707 
L 309.21818 182.261169 
L 309.725759 182.741545 
L 310.233338 182.909966 
L 310.614023 182.830864 
L 311.121602 182.452025 
L 311.629181 181.763016 
L 312.263655 180.472234 
L 313.025024 178.310345 
L 313.913288 174.981862 
L 314.928446 170.192946 
L 316.0705 163.692455 
L 317.466342 154.436197 
L 319.496659 139.252414 
L 323.684188 107.481511 
L 325.206926 97.810604 
L 326.475874 91.182467 
L 327.491032 87.004034 
L 328.379296 84.257562 
L 329.140665 82.621376 
L 329.775139 81.782054 
L 330.282718 81.459841 
L 330.663402 81.423371 
L 331.044087 81.562974 
L 331.551666 82.022078 
L 332.059245 82.790438 
L 332.693719 84.178381 
L 333.455088 86.452654 
L 334.343352 89.904487 
L 335.35851 94.821302 
L 336.627458 102.244439 
L 338.150196 112.642105 
L 340.434302 130.065124 
L 343.733567 155.112082 
L 345.256305 165.045898 
L 346.525253 171.95594 
L 347.540412 176.393353 
L 348.428675 179.38543 
L 349.190044 181.242574 
L 349.824518 182.271057 
L 350.332097 182.746579 
L 350.839677 182.910114 
L 351.220361 182.827345 
L 351.72794 182.443639 
L 352.235519 181.749815 
L 352.869993 180.453131 
L 353.631362 178.284408 
L 354.519626 174.948414 
L 355.534784 170.151692 
L 356.676838 163.643645 
L 358.07268 154.380236 
L 360.102997 139.190758 
L 364.290526 107.427128 
L 365.813264 97.764802 
L 367.082212 91.145775 
L 368.09737 86.975665 
L 368.985634 84.237056 
L 369.747003 82.607923 
L 370.381477 81.774625 
L 370.889056 81.457287 
L 371.26974 81.424484 
L 371.650425 81.56775 
L 372.158004 82.031711 
L 372.665583 82.804869 
L 373.300057 84.19868 
L 374.061426 86.479732 
L 374.94969 89.938992 
L 375.964848 94.863491 
L 377.233796 102.294752 
L 378.756534 112.699591 
L 381.04064 130.127334 
L 384.339905 155.167596 
L 385.862643 165.093296 
L 387.131591 171.994549 
L 388.14675 176.423843 
L 389.035013 179.408193 
L 389.796382 181.258367 
L 390.430856 182.28087 
L 390.938435 182.751536 
L 391.446015 182.910186 
L 391.826699 182.823751 
L 392.334278 182.435178 
L 392.841857 181.73654 
L 393.476332 180.433956 
L 394.2377 178.258402 
L 395.125964 174.914901 
L 396.141122 170.110382 
L 397.283176 163.594787 
L 398.679019 154.324241 
L 400.709335 139.12909 
L 404.896864 107.372782 
L 406.419602 97.719052 
L 407.68855 91.109145 
L 408.703708 86.947364 
L 409.591972 84.216621 
L 410.353341 82.594544 
L 410.987815 81.767272 
L 411.495394 81.454808 
L 411.876078 81.425673 
L 412.256763 81.572603 
L 412.764342 82.04142 
L 413.271921 82.819374 
L 413.906395 84.219051 
L 414.667764 86.506878 
L 415.556028 89.973561 
L 416.571186 94.905736 
L 417.840134 102.34511 
L 419.362872 112.757106 
L 421.646979 130.189547 
L 424.946244 155.223076 
L 426.468981 165.140644 
L 427.737929 172.033097 
L 428.753088 176.454267 
L 429.641351 179.430886 
L 430.40272 181.274086 
L 431.037194 182.290607 
L 431.544773 182.756418 
L 432.052353 182.910181 
L 432.433037 182.82008 
L 432.940616 182.426641 
L 433.448196 181.723189 
L 434.08267 180.414708 
L 434.844038 178.232327 
L 435.732302 174.881323 
L 436.747461 170.069014 
L 437.889514 163.545882 
L 439.285357 154.268213 
L 441.315674 139.067413 
L 445.376307 108.192216 
L 446.899045 98.411023 
L 448.167993 91.665308 
L 449.183152 87.379206 
L 450.071415 84.530845 
L 450.832784 82.803147 
L 451.467258 81.885582 
L 451.974837 81.500022 
L 452.482417 81.426938 
L 452.863101 81.577531 
L 453.37068 82.051204 
L 453.878259 82.833953 
L 454.512733 84.239494 
L 455.274102 86.534093 
L 456.162366 90.008193 
L 457.177524 94.948037 
L 458.446472 102.395512 
L 459.96921 112.814651 
L 462.253317 130.251764 
L 465.552582 155.278521 
L 467.075319 165.187942 
L 468.344267 172.071586 
L 469.359426 176.484625 
L 470.24769 179.453507 
L 471.009058 181.289731 
L 471.643532 182.300269 
L 472.151112 182.761223 
L 472.658691 182.910101 
L 473.039375 182.816333 
L 473.546954 182.418029 
L 474.054534 181.709764 
L 474.689008 180.395388 
L 475.450377 178.206182 
L 476.33864 174.847682 
L 477.353799 170.02759 
L 478.495852 163.49693 
L 479.891695 154.212152 
L 481.922012 139.005725 
L 485.982646 108.137356 
L 487.505383 98.364554 
L 488.774331 91.627819 
L 489.78949 87.349956 
L 490.677753 84.509403 
L 491.439122 82.788725 
L 492.073596 81.877168 
L 492.581175 81.496475 
L 493.088755 81.42828 
L 493.469439 81.582536 
L 493.977018 82.061063 
L 494.484598 82.848606 
L 495.119072 84.260009 
L 495.88044 86.561377 
L 496.768704 90.042889 
L 497.783863 94.990395 
L 499.052811 102.44596 
L 500.575548 112.872224 
L 502.859655 130.313983 
L 506.032025 154.442858 
L 507.554763 164.472958 
L 508.823711 171.487712 
L 509.838869 176.022073 
L 510.727133 179.106569 
L 511.488502 181.047187 
L 512.122976 182.147352 
L 512.630555 182.681111 
L 513.138134 182.903287 
L 513.518819 182.864546 
L 514.026398 182.539317 
L 514.533977 181.90338 
L 515.168451 180.677681 
L 515.92982 178.591225 
L 516.818084 175.345755 
L 517.833242 170.643216 
L 518.975295 164.226547 
L 520.371138 155.049916 
L 522.27456 140.91364 
L 526.842773 106.347027 
L 528.365511 96.859429 
L 529.507564 90.999627 
L 530.522723 86.862868 
L 531.410986 84.155751 
L 532.172355 82.554856 
L 532.806829 81.745668 
L 533.314408 81.447831 
L 533.695093 81.429698 
L 534.075777 81.587617 
L 534.583356 82.070998 
L 535.090936 82.863334 
L 535.72541 84.280596 
L 536.486779 86.588729 
L 537.375042 90.077648 
L 538.390201 95.032808 
L 539.659149 102.496452 
L 541.181886 112.929826 
L 543.465993 130.376205 
L 546.638363 154.498782 
L 548.161101 164.520946 
L 549.430049 171.527036 
L 550.445207 176.05336 
L 551.333471 179.130184 
L 552.09484 181.063866 
L 552.729314 182.158069 
L 553.236893 182.686982 
L 553.744472 182.904276 
L 554.125157 182.861868 
L 554.632736 182.531765 
L 555.140315 181.891001 
L 555.774789 180.65938 
L 556.536158 178.566055 
L 557.424422 175.313019 
L 558.43958 170.602596 
L 559.581633 164.178263 
L 560.977476 154.994328 
L 562.880898 140.852304 
L 567.449111 106.293443 
L 568.971849 96.814729 
L 570.113902 90.963244 
L 571.129061 86.834839 
L 572.017324 84.135605 
L 572.778693 82.541776 
L 573.413167 81.738619 
L 573.920746 81.445657 
L 574.301431 81.431193 
L 574.682115 81.592774 
L 575.189695 82.081008 
L 575.697274 82.878135 
L 576.331748 84.301256 
L 577.093117 86.61615 
L 577.98138 90.11247 
L 578.996539 95.075278 
L 580.265487 102.546989 
L 581.788224 112.987458 
L 584.072331 130.438429 
L 587.244701 154.554672 
L 588.767439 164.568884 
L 590.036387 171.566301 
L 591.051545 176.084581 
L 591.939809 179.153729 
L 592.701178 181.080471 
L 593.335652 182.168711 
L 593.843231 182.692777 
L 594.35081 182.905189 
L 594.731495 182.859113 
L 595.239074 182.524138 
L 595.746653 181.878548 
L 596.381127 180.641007 
L 597.142496 178.540816 
L 598.03076 175.280217 
L 599.045918 170.561919 
L 600.187971 164.129931 
L 601.583814 154.938706 
L 602.218288 150.383134 
L 602.218288 150.383134 
" clip-path="url(#pe6ae2e2095)" style="fill: none; stroke: #ff7f0e; stroke-width: 1.5; stroke-linecap: square"/>
   </g>
   <g id="patch_3">
    <path d="M 56.602344 222.319648 
L 56.602344 42.006328 
" style="fill: none; stroke: #000000; stroke-width: 0.8; stroke-linejoin: miter; stroke-linecap: square"/>
   </g>
   <g id="patch_4">
    <path d="M 628.2 222.319648 
L 628.2 42.006328 
" style="fill: none; stroke: #000000; stroke-width: 0.8; stroke-linejoin: miter; stroke-linecap: square"/>
   </g>
   <g id="patch_5">
    <path d="M 56.602344 222.319648 
L 628.2 222.319648 
" style="fill: none; stroke: #000000; stroke-width: 0.8; stroke-linejoin: miter; stroke-linecap: square"/>
   </g>
   <g id="patch_6">
    <path d="M 56.602344 42.006328 
L 628.2 42.006328 
" style="fill: none; stroke: #000000; stroke-width: 0.8; stroke-linejoin: miter; stroke-linecap: square"/>
   </g>
   <g id="text_14">
    <!-- Daily Useless RC (2026-07-05) | verdict: feral -->
    <g transform="translate(206.959609 21.550547) scale(0.12 -0.12)">
     <defs>
      <path id="DejaVuSans-27" d="M 1259 4147 
L 1259 519 
L 2022 519 
Q 2988 519 3436 956 
Q 3884 1394 3884 2338 
Q 3884 3275 3436 3711 
Q 2988 4147 2022 4147 
L 1259 4147 
z
M 628 4666 
L 1925 4666 
Q 3281 4666 3915 4102 
Q 4550 3538 4550 2338 
Q 4550 1131 3912 565 
Q 3275 0 1925 0 
L 628 0 
L 628 4666 
z
" transform="scale(0.015625)"/>
      <path id="DejaVuSans-4c" d="M 603 3500 
L 1178 3500 
L 1178 0 
L 603 0 
L 603 3500 
z
M 603 4863 
L 1178 4863 
L 1178 4134 
L 603 4134 
L 603 4863 
z
" transform="scale(0.015625)"/>
      <path id="DejaVuSans-4f" d="M 603 4863 
L 1178 4863 
L 1178 0 
L 603 0 
L 603 4863 
z
" transform="scale(0.015625)"/>
      <path id="DejaVuSans-5c" d="M 2059 -325 
Q 1816 -950 1584 -1140 
Q 1353 -1331 966 -1331 
L 506 -1331 
L 506 -850 
L 844 -850 
Q 1081 -850 1212 -737 
Q 1344 -625 1503 -206 
L 1606 56 
L 191 3500 
L 800 3500 
L 1894 763 
L 2988 3500 
L 3597 3500 
L 2059 -325 
z
" transform="scale(0.015625)"/>
      <path id="DejaVuSans-38" d="M 556 4666 
L 1191 4666 
L 1191 1831 
Q 1191 1081 1462 751 
Q 1734 422 2344 422 
Q 2950 422 3222 751 
Q 3494 1081 3494 1831 
L 3494 4666 
L 4128 4666 
L 4128 1753 
Q 4128 841 3676 375 
Q 3225 -91 2344 -91 
Q 1459 -91 1007 375 
Q 556 841 556 1753 
L 556 4666 
z
" transform="scale(0.015625)"/>
      <path id="DejaVuSans-56" d="M 2834 3397 
L 2834 2853 
Q 2591 2978 2328 3040 
Q 2066 3103 1784 3103 
Q 1356 3103 1142 2972 
Q 928 2841 928 2578 
Q 928 2378 1081 2264 
Q 1234 2150 1697 2047 
L 1894 2003 
Q 2506 1872 2764 1633 
Q 3022 1394 3022 966 
Q 3022 478 2636 193 
Q 2250 -91 1575 -91 
Q 1294 -91 989 -36 
Q 684 19 347 128 
L 347 722 
Q 666 556 975 473 
Q 1284 391 1588 391 
Q 1994 391 2212 530 
Q 2431 669 2431 922 
Q 2431 1156 2273 1281 
Q 2116 1406 1581 1522 
L 1381 1569 
Q 847 1681 609 1914 
Q 372 2147 372 2553 
Q 372 3047 722 3315 
Q 1072 3584 1716 3584 
Q 2034 3584 2315 3537 
Q 2597 3491 2834 3397 
z
" transform="scale(0.015625)"/>
      <path id="DejaVuSans-48" d="M 3597 1894 
L 3597 1613 
L 953 1613 
Q 991 1019 1311 708 
Q 1631 397 2203 397 
Q 2534 397 2845 478 
Q 3156 559 3463 722 
L 3463 178 
Q 3153 47 2828 -22 
Q 2503 -91 2169 -91 
Q 1331 -91 842 396 
Q 353 884 353 1716 
Q 353 2575 817 3079 
Q 1281 3584 2069 3584 
Q 2775 3584 3186 3129 
Q 3597 2675 3597 1894 
z
M 3022 2063 
Q 3016 2534 2758 2815 
Q 2500 3097 2075 3097 
Q 1594 3097 1305 2825 
Q 1016 2553 972 2059 
L 3022 2063 
z
" transform="scale(0.015625)"/>
      <path id="DejaVuSans-35" d="M 2841 2188 
Q 3044 2119 3236 1894 
Q 3428 1669 3622 1275 
L 4263 0 
L 3584 0 
L 2988 1197 
Q 2756 1666 2539 1819 
Q 2322 1972 1947 1972 
L 1259 1972 
L 1259 0 
L 628 0 
L 628 4666 
L 2053 4666 
Q 2853 4666 3247 4331 
Q 3641 3997 3641 3322 
Q 3641 2881 3436 2590 
Q 3231 2300 2841 2188 
z
M 1259 4147 
L 1259 2491 
L 2053 2491 
Q 2509 2491 2742 2702 
Q 2975 2913 2975 3322 
Q 2975 3731 2742 3939 
Q 2509 4147 2053 4147 
L 1259 4147 
z
" transform="scale(0.015625)"/>
      <path id="DejaVuSans-26" d="M 4122 4306 
L 4122 3641 
Q 3803 3938 3442 4084 
Q 3081 4231 2675 4231 
Q 1875 4231 1450 3742 
Q 1025 3253 1025 2328 
Q 1025 1406 1450 917 
Q 1875 428 2675 428 
Q 3081 428 3442 575 
Q 3803 722 4122 1019 
L 4122 359 
Q 3791 134 3420 21 
Q 3050 -91 2638 -91 
Q 1578 -91 968 557 
Q 359 1206 359 2328 
Q 359 3453 968 4101 
Q 1578 4750 2638 4750 
Q 3056 4750 3426 4639 
Q 3797 4528 4122 4306 
z
" transform="scale(0.015625)"/>
      <path id="DejaVuSans-b" d="M 1984 4856 
Q 1566 4138 1362 3434 
Q 1159 2731 1159 2009 
Q 1159 1288 1364 580 
Q 1569 -128 1984 -844 
L 1484 -844 
Q 1016 -109 783 600 
Q 550 1309 550 2009 
Q 550 2706 781 3412 
Q 1013 4119 1484 4856 
L 1984 4856 
z
" transform="scale(0.015625)"/>
      <path id="DejaVuSans-10" d="M 313 2009 
L 1997 2009 
L 1997 1497 
L 313 1497 
L 313 2009 
z
" transform="scale(0.015625)"/>
      <path id="DejaVuSans-1a" d="M 525 4666 
L 3525 4666 
L 3525 4397 
L 1831 0 
L 1172 0 
L 2766 4134 
L 525 4134 
L 525 4666 
z
" transform="scale(0.015625)"/>
      <path id="DejaVuSans-c" d="M 513 4856 
L 1013 4856 
Q 1481 4119 1714 3412 
Q 1947 2706 1947 2009 
Q 1947 1309 1714 600 
Q 1481 -109 1013 -844 
L 513 -844 
Q 928 -128 1133 580 
Q 1338 1288 1338 2009 
Q 1338 2731 1133 3434 
Q 928 4138 513 4856 
z
" transform="scale(0.015625)"/>
      <path id="DejaVuSans-5f" d="M 1344 4891 
L 1344 -1509 
L 813 -1509 
L 813 4891 
L 1344 4891 
z
" transform="scale(0.015625)"/>
      <path id="DejaVuSans-59" d="M 191 3500 
L 800 3500 
L 1894 563 
L 2988 3500 
L 3597 3500 
L 2284 0 
L 1503 0 
L 191 3500 
z
" transform="scale(0.015625)"/>
      <path id="DejaVuSans-47" d="M 2906 2969 
L 2906 4863 
L 3481 4863 
L 3481 0 
L 2906 0 
L 2906 525 
Q 2725 213 2448 61 
Q 2172 -91 1784 -91 
Q 1150 -91 751 415 
Q 353 922 353 1747 
Q 353 2572 751 3078 
Q 1150 3584 1784 3584 
Q 2172 3584 2448 3432 
Q 2725 3281 2906 2969 
z
M 947 1747 
Q 947 1113 1208 752 
Q 1469 391 1925 391 
Q 2381 391 2643 752 
Q 2906 1113 2906 1747 
Q 2906 2381 2643 2742 
Q 2381 3103 1925 3103 
Q 1469 3103 1208 2742 
Q 947 2381 947 1747 
z
" transform="scale(0.015625)"/>
      <path id="DejaVuSans-46" d="M 3122 3366 
L 3122 2828 
Q 2878 2963 2633 3030 
Q 2388 3097 2138 3097 
Q 1578 3097 1268 2742 
Q 959 2388 959 1747 
Q 959 1106 1268 751 
Q 1578 397 2138 397 
Q 2388 397 2633 464 
Q 2878 531 3122 666 
L 3122 134 
Q 2881 22 2623 -34 
Q 2366 -91 2075 -91 
Q 1284 -91 818 406 
Q 353 903 353 1747 
Q 353 2603 823 3093 
Q 1294 3584 2113 3584 
Q 2378 3584 2631 3529 
Q 2884 3475 3122 3366 
z
" transform="scale(0.015625)"/>
      <path id="DejaVuSans-1d" d="M 750 794 
L 1409 794 
L 1409 0 
L 750 0 
L 750 794 
z
M 750 3309 
L 1409 3309 
L 1409 2516 
L 750 2516 
L 750 3309 
z
" transform="scale(0.015625)"/>
      <path id="DejaVuSans-49" d="M 2375 4863 
L 2375 4384 
L 1825 4384 
Q 1516 4384 1395 4259 
Q 1275 4134 1275 3809 
L 1275 3500 
L 2222 3500 
L 2222 3053 
L 1275 3053 
L 1275 0 
L 697 0 
L 697 3053 
L 147 3053 
L 147 3500 
L 697 3500 
L 697 3744 
Q 697 4328 969 4595 
Q 1241 4863 1831 4863 
L 2375 4863 
z
" transform="scale(0.015625)"/>
     </defs>
     <use xlink:href="#DejaVuSans-27"/>
     <use xlink:href="#DejaVuSans-44" transform="translate(77 0)"/>
     <use xlink:href="#DejaVuSans-4c" transform="translate(138.28125 0)"/>
     <use xlink:href="#DejaVuSans-4f" transform="translate(166.0625 0)"/>
     <use xlink:href="#DejaVuSans-5c" transform="translate(193.84375 0)"/>
     <use xlink:href="#DejaVuSans-3" transform="translate(253.03125 0)"/>
     <use xlink:href="#DejaVuSans-38" transform="translate(284.8125 0)"/>
     <use xlink:href="#DejaVuSans-56" transform="translate(358 0)"/>
     <use xlink:href="#DejaVuSans-48" transform="translate(410.09375 0)"/>
     <use xlink:href="#DejaVuSans-4f" transform="translate(471.625 0)"/>
     <use xlink:href="#DejaVuSans-48" transform="translate(499.40625 0)"/>
     <use xlink:href="#DejaVuSans-56" transform="translate(560.9375 0)"/>
     <use xlink:href="#DejaVuSans-56" transform="translate(613.03125 0)"/>
     <use xlink:href="#DejaVuSans-3" transform="translate(665.125 0)"/>
     <use xlink:href="#DejaVuSans-35" transform="translate(696.90625 0)"/>
     <use xlink:href="#DejaVuSans-26" transform="translate(761.40625 0)"/>
     <use xlink:href="#DejaVuSans-3" transform="translate(831.234375 0)"/>
     <use xlink:href="#DejaVuSans-b" transform="translate(863.015625 0)"/>
     <use xlink:href="#DejaVuSans-15" transform="translate(902.03125 0)"/>
     <use xlink:href="#DejaVuSans-13" transform="translate(965.65625 0)"/>
     <use xlink:href="#DejaVuSans-15" transform="translate(1029.28125 0)"/>
     <use xlink:href="#DejaVuSans-19" transform="translate(1092.90625 0)"/>
     <use xlink:href="#DejaVuSans-10" transform="translate(1156.53125 0)"/>
     <use xlink:href="#DejaVuSans-13" transform="translate(1192.609375 0)"/>
     <use xlink:href="#DejaVuSans-1a" transform="translate(1256.234375 0)"/>
     <use xlink:href="#DejaVuSans-10" transform="translate(1319.859375 0)"/>
     <use xlink:href="#DejaVuSans-13" transform="translate(1355.9375 0)"/>
     <use xlink:href="#DejaVuSans-18" transform="translate(1419.5625 0)"/>
     <use xlink:href="#DejaVuSans-c" transform="translate(1483.1875 0)"/>
     <use xlink:href="#DejaVuSans-3" transform="translate(1522.203125 0)"/>
     <use xlink:href="#DejaVuSans-5f" transform="translate(1553.984375 0)"/>
     <use xlink:href="#DejaVuSans-3" transform="translate(1587.671875 0)"/>
     <use xlink:href="#DejaVuSans-59" transform="translate(1619.453125 0)"/>
     <use xlink:href="#DejaVuSans-48" transform="translate(1678.640625 0)"/>
     <use xlink:href="#DejaVuSans-55" transform="translate(1740.171875 0)"/>
     <use xlink:href="#DejaVuSans-47" transform="translate(1779.53125 0)"/>
     <use xlink:href="#DejaVuSans-4c" transform="translate(1843.015625 0)"/>
     <use xlink:href="#DejaVuSans-46" transform="translate(1870.796875 0)"/>
     <use xlink:href="#DejaVuSans-57" transform="translate(1925.78125 0)"/>
     <use xlink:href="#DejaVuSans-1d" transform="translate(1964.984375 0)"/>
     <use xlink:href="#DejaVuSans-3" transform="translate(1998.671875 0)"/>
     <use xlink:href="#DejaVuSans-49" transform="translate(2030.453125 0)"/>
     <use xlink:href="#DejaVuSans-48" transform="translate(2065.65625 0)"/>
     <use xlink:href="#DejaVuSans-55" transform="translate(2127.1875 0)"/>
     <use xlink:href="#DejaVuSans-44" transform="translate(2168.296875 0)"/>
     <use xlink:href="#DejaVuSans-4f" transform="translate(2229.578125 0)"/>
    </g>
    <!-- Filter: high | Input: sine, sine (A=1.23, f=1.28 Hz) | R=1.00, C=0.10, τ=0.10 -->
    <g transform="translate(113.395234 36.006328) scale(0.12 -0.12)">
     <defs>
      <path id="DejaVuSans-29" d="M 628 4666 
L 3309 4666 
L 3309 4134 
L 1259 4134 
L 1259 2759 
L 3109 2759 
L 3109 2228 
L 1259 2228 
L 1259 0 
L 628 0 
L 628 4666 
z
" transform="scale(0.015625)"/>
      <path id="DejaVuSans-4b" d="M 3513 2113 
L 3513 0 
L 2938 0 
L 2938 2094 
Q 2938 2591 2744 2837 
Q 2550 3084 2163 3084 
Q 1697 3084 1428 2787 
Q 1159 2491 1159 1978 
L 1159 0 
L 581 0 
L 581 4863 
L 1159 4863 
L 1159 2956 
Q 1366 3272 1645 3428 
Q 1925 3584 2291 3584 
Q 2894 3584 3203 3211 
Q 3513 2838 3513 2113 
z
" transform="scale(0.015625)"/>
      <path id="DejaVuSans-4a" d="M 2906 1791 
Q 2906 2416 2648 2759 
Q 2391 3103 1925 3103 
Q 1463 3103 1205 2759 
Q 947 2416 947 1791 
Q 947 1169 1205 825 
Q 1463 481 1925 481 
Q 2391 481 2648 825 
Q 2906 1169 2906 1791 
z
M 3481 434 
Q 3481 -459 3084 -895 
Q 2688 -1331 1869 -1331 
Q 1566 -1331 1297 -1286 
Q 1028 -1241 775 -1147 
L 775 -588 
Q 1028 -725 1275 -790 
Q 1522 -856 1778 -856 
Q 2344 -856 2625 -561 
Q 2906 -266 2906 331 
L 2906 616 
Q 2728 306 2450 153 
Q 2172 0 1784 0 
Q 1141 0 747 490 
Q 353 981 353 1791 
Q 353 2603 747 3093 
Q 1141 3584 1784 3584 
Q 2172 3584 2450 3431 
Q 2728 3278 2906 2969 
L 2906 3500 
L 3481 3500 
L 3481 434 
z
" transform="scale(0.015625)"/>
      <path id="DejaVuSans-2c" d="M 628 4666 
L 1259 4666 
L 1259 0 
L 628 0 
L 628 4666 
z
" transform="scale(0.015625)"/>
      <path id="DejaVuSans-51" d="M 3513 2113 
L 3513 0 
L 2938 0 
L 2938 2094 
Q 2938 2591 2744 2837 
Q 2550 3084 2163 3084 
Q 1697 3084 1428 2787 
Q 1159 2491 1159 1978 
L 1159 0 
L 581 0 
L 581 3500 
L 1159 3500 
L 1159 2956 
Q 1366 3272 1645 3428 
Q 1925 3584 2291 3584 
Q 2894 3584 3203 3211 
Q 3513 2838 3513 2113 
z
" transform="scale(0.015625)"/>
      <path id="DejaVuSans-53" d="M 1159 525 
L 1159 -1331 
L 581 -1331 
L 581 3500 
L 1159 3500 
L 1159 2969 
Q 1341 3281 1617 3432 
Q 1894 3584 2278 3584 
Q 2916 3584 3314 3078 
Q 3713 2572 3713 1747 
Q 3713 922 3314 415 
Q 2916 -91 2278 -91 
Q 1894 -91 1617 61 
Q 1341 213 1159 525 
z
M 3116 1747 
Q 3116 2381 2855 2742 
Q 2594 3103 2138 3103 
Q 1681 3103 1420 2742 
Q 1159 2381 1159 1747 
Q 1159 1113 1420 752 
Q 1681 391 2138 391 
Q 2594 391 2855 752 
Q 3116 1113 3116 1747 
z
" transform="scale(0.015625)"/>
      <path id="DejaVuSans-58" d="M 544 1381 
L 544 3500 
L 1119 3500 
L 1119 1403 
Q 1119 906 1312 657 
Q 1506 409 1894 409 
Q 2359 409 2629 706 
Q 2900 1003 2900 1516 
L 2900 3500 
L 3475 3500 
L 3475 0 
L 2900 0 
L 2900 538 
Q 2691 219 2414 64 
Q 2138 -91 1772 -91 
Q 1169 -91 856 284 
Q 544 659 544 1381 
z
M 1991 3584 
L 1991 3584 
z
" transform="scale(0.015625)"/>
      <path id="DejaVuSans-f" d="M 750 794 
L 1409 794 
L 1409 256 
L 897 -744 
L 494 -744 
L 750 256 
L 750 794 
z
" transform="scale(0.015625)"/>
      <path id="DejaVuSans-24" d="M 2188 4044 
L 1331 1722 
L 3047 1722 
L 2188 4044 
z
M 1831 4666 
L 2547 4666 
L 4325 0 
L 3669 0 
L 3244 1197 
L 1141 1197 
L 716 0 
L 50 0 
L 1831 4666 
z
" transform="scale(0.015625)"/>
      <path id="DejaVuSans-20" d="M 678 2906 
L 4684 2906 
L 4684 2381 
L 678 2381 
L 678 2906 
z
M 678 1631 
L 4684 1631 
L 4684 1100 
L 678 1100 
L 678 1631 
z
" transform="scale(0.015625)"/>
      <path id="DejaVuSans-16" d="M 2597 2516 
Q 3050 2419 3304 2112 
Q 3559 1806 3559 1356 
Q 3559 666 3084 287 
Q 2609 -91 1734 -91 
Q 1441 -91 1130 -33 
Q 819 25 488 141 
L 488 750 
Q 750 597 1062 519 
Q 1375 441 1716 441 
Q 2309 441 2620 675 
Q 2931 909 2931 1356 
Q 2931 1769 2642 2001 
Q 2353 2234 1838 2234 
L 1294 2234 
L 1294 2753 
L 1863 2753 
Q 2328 2753 2575 2939 
Q 2822 3125 2822 3475 
Q 2822 3834 2567 4026 
Q 2313 4219 1838 4219 
Q 1578 4219 1281 4162 
Q 984 4106 628 3988 
L 628 4550 
Q 988 4650 1302 4700 
Q 1616 4750 1894 4750 
Q 2613 4750 3031 4423 
Q 3450 4097 3450 3541 
Q 3450 3153 3228 2886 
Q 3006 2619 2597 2516 
z
" transform="scale(0.015625)"/>
      <path id="DejaVuSans-2b" d="M 628 4666 
L 1259 4666 
L 1259 2753 
L 3553 2753 
L 3553 4666 
L 4184 4666 
L 4184 0 
L 3553 0 
L 3553 2222 
L 1259 2222 
L 1259 0 
L 628 0 
L 628 4666 
z
" transform="scale(0.015625)"/>
      <path id="DejaVuSans-5d" d="M 353 3500 
L 3084 3500 
L 3084 2975 
L 922 459 
L 3084 459 
L 3084 0 
L 275 0 
L 275 525 
L 2438 3041 
L 353 3041 
L 353 3500 
z
" transform="scale(0.015625)"/>
      <path id="DejaVuSans-358" d="M 2319 638 
Q 2431 488 2769 488 
L 3047 488 
L 3047 0 
L 2700 0 
Q 2138 0 1881 300 
Q 1625 606 1625 1269 
L 1625 2925 
L 313 2925 
L 313 3500 
L 3541 3500 
L 3541 2925 
L 2213 2925 
L 2213 1234 
Q 2213 781 2319 638 
z
" transform="scale(0.015625)"/>
     </defs>
     <use xlink:href="#DejaVuSans-29"/>
     <use xlink:href="#DejaVuSans-4c" transform="translate(50.234375 0)"/>
     <use xlink:href="#DejaVuSans-4f" transform="translate(78.015625 0)"/>
     <use xlink:href="#DejaVuSans-57" transform="translate(105.796875 0)"/>
     <use xlink:href="#DejaVuSans-48" transform="translate(145 0)"/>
     <use xlink:href="#DejaVuSans-55" transform="translate(206.53125 0)"/>
     <use xlink:href="#DejaVuSans-1d" transform="translate(245.890625 0)"/>
     <use xlink:href="#DejaVuSans-3" transform="translate(279.578125 0)"/>
     <use xlink:href="#DejaVuSans-4b" transform="translate(311.359375 0)"/>
     <use xlink:href="#DejaVuSans-4c" transform="translate(374.734375 0)"/>
     <use xlink:href="#DejaVuSans-4a" transform="translate(402.515625 0)"/>
     <use xlink:href="#DejaVuSans-4b" transform="translate(466 0)"/>
     <use xlink:href="#DejaVuSans-3" transform="translate(529.375 0)"/>
     <use xlink:href="#DejaVuSans-5f" transform="translate(561.15625 0)"/>
     <use xlink:href="#DejaVuSans-3" transform="translate(594.84375 0)"/>
     <use xlink:href="#DejaVuSans-2c" transform="translate(626.625 0)"/>
     <use xlink:href="#DejaVuSans-51" transform="translate(656.125 0)"/>
     <use xlink:href="#DejaVuSans-53" transform="translate(719.5 0)"/>
     <use xlink:href="#DejaVuSans-58" transform="translate(782.984375 0)"/>
     <use xlink:href="#DejaVuSans-57" transform="translate(846.359375 0)"/>
     <use xlink:href="#DejaVuSans-1d" transform="translate(885.5625 0)"/>
     <use xlink:href="#DejaVuSans-3" transform="translate(919.25 0)"/>
     <use xlink:href="#DejaVuSans-56" transform="translate(951.03125 0)"/>
     <use xlink:href="#DejaVuSans-4c" transform="translate(1003.125 0)"/>
     <use xlink:href="#DejaVuSans-51" transform="translate(1030.90625 0)"/>
     <use xlink:href="#DejaVuSans-48" transform="translate(1094.28125 0)"/>
     <use xlink:href="#DejaVuSans-f" transform="translate(1155.8125 0)"/>
     <use xlink:href="#DejaVuSans-3" transform="translate(1187.59375 0)"/>
     <use xlink:href="#DejaVuSans-56" transform="translate(1219.375 0)"/>
     <use xlink:href="#DejaVuSans-4c" transform="translate(1271.46875 0)"/>
     <use xlink:href="#DejaVuSans-51" transform="translate(1299.25 0)"/>
     <use xlink:href="#DejaVuSans-48" transform="translate(1362.625 0)"/>
     <use xlink:href="#DejaVuSans-3" transform="translate(1424.15625 0)"/>
     <use xlink:href="#DejaVuSans-b" transform="translate(1455.9375 0)"/>
     <use xlink:href="#DejaVuSans-24" transform="translate(1494.953125 0)"/>
     <use xlink:href="#DejaVuSans-20" transform="translate(1563.359375 0)"/>
     <use xlink:href="#DejaVuSans-14" transform="translate(1647.15625 0)"/>
     <use xlink:href="#DejaVuSans-11" transform="translate(1710.78125 0)"/>
     <use xlink:href="#DejaVuSans-15" transform="translate(1742.5625 0)"/>
     <use xlink:href="#DejaVuSans-16" transform="translate(1806.1875 0)"/>
     <use xlink:href="#DejaVuSans-f" transform="translate(1869.8125 0)"/>
     <use xlink:href="#DejaVuSans-3" transform="translate(1901.59375 0)"/>
     <use xlink:href="#DejaVuSans-49" transform="translate(1933.375 0)"/>
     <use xlink:href="#DejaVuSans-20" transform="translate(1968.578125 0)"/>
     <use xlink:href="#DejaVuSans-14" transform="translate(2052.375 0)"/>
     <use xlink:href="#DejaVuSans-11" transform="translate(2116 0)"/>
     <use xlink:href="#DejaVuSans-15" transform="translate(2147.78125 0)"/>
     <use xlink:href="#DejaVuSans-1b" transform="translate(2211.40625 0)"/>
     <use xlink:href="#DejaVuSans-3" transform="translate(2275.03125 0)"/>
     <use xlink:href="#DejaVuSans-2b" transform="translate(2306.8125 0)"/>
     <use xlink:href="#DejaVuSans-5d" transform="translate(2382.015625 0)"/>
     <use xlink:href="#DejaVuSans-c" transform="translate(2434.5 0)"/>
     <use xlink:href="#DejaVuSans-3" transform="translate(2473.515625 0)"/>
     <use xlink:href="#DejaVuSans-5f" transform="translate(2505.296875 0)"/>
     <use xlink:href="#DejaVuSans-3" transform="translate(2538.984375 0)"/>
     <use xlink:href="#DejaVuSans-35" transform="translate(2570.765625 0)"/>
     <use xlink:href="#DejaVuSans-20" transform="translate(2640.25 0)"/>
     <use xlink:href="#DejaVuSans-14" transform="translate(2724.046875 0)"/>
     <use xlink:href="#DejaVuSans-11" transform="translate(2787.671875 0)"/>
     <use xlink:href="#DejaVuSans-13" transform="translate(2819.453125 0)"/>
     <use xlink:href="#DejaVuSans-13" transform="translate(2883.078125 0)"/>
     <use xlink:href="#DejaVuSans-f" transform="translate(2946.703125 0)"/>
     <use xlink:href="#DejaVuSans-3" transform="translate(2978.484375 0)"/>
     <use xlink:href="#DejaVuSans-26" transform="translate(3010.265625 0)"/>
     <use xlink:href="#DejaVuSans-20" transform="translate(3080.09375 0)"/>
     <use xlink:href="#DejaVuSans-13" transform="translate(3163.890625 0)"/>
     <use xlink:href="#DejaVuSans-11" transform="translate(3227.515625 0)"/>
     <use xlink:href="#DejaVuSans-14" transform="translate(3259.296875 0)"/>
     <use xlink:href="#DejaVuSans-13" transform="translate(3322.921875 0)"/>
     <use xlink:href="#DejaVuSans-f" transform="translate(3386.546875 0)"/>
     <use xlink:href="#DejaVuSans-3" transform="translate(3418.328125 0)"/>
     <use xlink:href="#DejaVuSans-358" transform="translate(3450.109375 0)"/>
     <use xlink:href="#DejaVuSans-20" transform="translate(3510.3125 0)"/>
     <use xlink:href="#DejaVuSans-13" transform="translate(3594.109375 0)"/>
     <use xlink:href="#DejaVuSans-11" transform="translate(3657.734375 0)"/>
     <use xlink:href="#DejaVuSans-14" transform="translate(3689.515625 0)"/>
     <use xlink:href="#DejaVuSans-13" transform="translate(3753.140625 0)"/>
    </g>
   </g>
   <g id="legend_1">
    <g id="patch_7">
     <path d="M 63.602344 217.319648 
L 128.585156 217.319648 
Q 130.585156 217.319648 130.585156 215.319648 
L 130.585156 186.318086 
Q 130.585156 184.318086 128.585156 184.318086 
L 63.602344 184.318086 
Q 61.602344 184.318086 61.602344 186.318086 
L 61.602344 215.319648 
Q 61.602344 217.319648 63.602344 217.319648 
z
" style="fill: #ffffff; opacity: 0.8; stroke: #cccccc; stroke-linejoin: miter"/>
    </g>
    <g id="line2d_25">
     <path d="M 65.602344 192.416523 
L 75.602344 192.416523 
L 85.602344 192.416523 
" style="fill: none; stroke: #1f77b4; stroke-width: 1.5; stroke-linecap: square"/>
    </g>
    <g id="text_15">
     <!-- input -->
     <g transform="translate(93.602344 195.916523) scale(0.1 -0.1)">
      <use xlink:href="#DejaVuSans-4c"/>
      <use xlink:href="#DejaVuSans-51" transform="translate(27.78125 0)"/>
      <use xlink:href="#DejaVuSans-53" transform="translate(91.15625 0)"/>
      <use xlink:href="#DejaVuSans-58" transform="translate(154.640625 0)"/>
      <use xlink:href="#DejaVuSans-57" transform="translate(218.015625 0)"/>
     </g>
    </g>
    <g id="line2d_26">
     <path d="M 65.602344 207.417305 
L 75.602344 207.417305 
L 85.602344 207.417305 
" style="fill: none; stroke: #ff7f0e; stroke-width: 1.5; stroke-linecap: square"/>
    </g>
    <g id="text_16">
     <!-- output -->
     <g transform="translate(93.602344 210.917305) scale(0.1 -0.1)">
      <defs>
       <path id="DejaVuSans-52" d="M 1959 3097 
Q 1497 3097 1228 2736 
Q 959 2375 959 1747 
Q 959 1119 1226 758 
Q 1494 397 1959 397 
Q 2419 397 2687 759 
Q 2956 1122 2956 1747 
Q 2956 2369 2687 2733 
Q 2419 3097 1959 3097 
z
M 1959 3584 
Q 2709 3584 3137 3096 
Q 3566 2609 3566 1747 
Q 3566 888 3137 398 
Q 2709 -91 1959 -91 
Q 1206 -91 779 398 
Q 353 888 353 1747 
Q 353 2609 779 3096 
Q 1206 3584 1959 3584 
z
" transform="scale(0.015625)"/>
      </defs>
      <use xlink:href="#DejaVuSans-52"/>
      <use xlink:href="#DejaVuSans-58" transform="translate(61.1875 0)"/>
      <use xlink:href="#DejaVuSans-57" transform="translate(124.5625 0)"/>
      <use xlink:href="#DejaVuSans-53" transform="translate(163.765625 0)"/>
      <use xlink:href="#DejaVuSans-58" transform="translate(227.25 0)"/>
      <use xlink:href="#DejaVuSans-57" transform="translate(290.625 0)"/>
     </g>
    </g>
   </g>
  </g>
  <g id="axes_2">
   <g id="patch_8">
    <path d="M 56.602344 460.115313 
L 628.2 460.115313 
L 628.2 279.801992 
L 56.602344 279.801992 
z
" style="fill: #ffffff"/>
   </g>
   <g id="matplotlib.axis_3">
    <g id="xtick_7">
     <g id="line2d_27">
      <path d="M 56.602344 460.115313 
L 56.602344 279.801992 
" clip-path="url(#pc8f32504bb)" style="fill: none; stroke: #b0b0b0; stroke-opacity: 0.25; stroke-width: 0.8; stroke-linecap: square"/>
     </g>
     <g id="line2d_28">
      <g>
       <use xlink:href="#m002aa4cf9e" x="56.602344" y="460.115313" style="stroke: #000000; stroke-width: 0.8"/>
      </g>
     </g>
     <g id="text_17">
      <!-- $\mathdefault{10^{-1}}$ -->
      <g transform="translate(44.852344 476.415313) scale(0.1 -0.1)">
       <use xlink:href="#DejaVuSans-14" transform="translate(0 0.665625)"/>
       <use xlink:href="#DejaVuSans-13" transform="translate(63.623047 0.665625)"/>
       <use xlink:href="#DejaVuSans-c9c" transform="translate(128.203125 41.965625) scale(0.7)"/>
       <use xlink:href="#DejaVuSans-14" transform="translate(186.855469 41.965625) scale(0.7)"/>
      </g>
     </g>
    </g>
    <g id="xtick_8">
     <g id="line2d_29">
      <path d="M 342.401172 460.115313 
L 342.401172 279.801992 
" clip-path="url(#pc8f32504bb)" style="fill: none; stroke: #b0b0b0; stroke-opacity: 0.25; stroke-width: 0.8; stroke-linecap: square"/>
     </g>
     <g id="line2d_30">
      <g>
       <use xlink:href="#m002aa4cf9e" x="342.401172" y="460.115313" style="stroke: #000000; stroke-width: 0.8"/>
      </g>
     </g>
     <g id="text_18">
      <!-- $\mathdefault{10^{0}}$ -->
      <g transform="translate(333.601172 476.515313) scale(0.1 -0.1)">
       <use xlink:href="#DejaVuSans-14" transform="translate(0 0.746875)"/>
       <use xlink:href="#DejaVuSans-13" transform="translate(63.623047 0.746875)"/>
       <use xlink:href="#DejaVuSans-13" transform="translate(128.203125 42.046875) scale(0.7)"/>
      </g>
     </g>
    </g>
    <g id="xtick_9">
     <g id="line2d_31">
      <path d="M 628.2 460.115313 
L 628.2 279.801992 
" clip-path="url(#pc8f32504bb)" style="fill: none; stroke: #b0b0b0; stroke-opacity: 0.25; stroke-width: 0.8; stroke-linecap: square"/>
     </g>
     <g id="line2d_32">
      <g>
       <use xlink:href="#m002aa4cf9e" x="628.2" y="460.115313" style="stroke: #000000; stroke-width: 0.8"/>
      </g>
     </g>
     <g id="text_19">
      <!-- $\mathdefault{10^{1}}$ -->
      <g transform="translate(619.4 476.415313) scale(0.1 -0.1)">
       <use xlink:href="#DejaVuSans-14" transform="translate(0 0.665625)"/>
       <use xlink:href="#DejaVuSans-13" transform="translate(63.623047 0.665625)"/>
       <use xlink:href="#DejaVuSans-14" transform="translate(128.203125 41.965625) scale(0.7)"/>
      </g>
     </g>
    </g>
    <g id="xtick_10">
     <g id="line2d_33">
      <defs>
       <path id="m3309e3c5eb" d="M 0 0 
L 0 2 
" style="stroke: #000000; stroke-width: 0.6"/>
      </defs>
      <g>
       <use xlink:href="#m3309e3c5eb" x="142.636364" y="460.115313" style="stroke: #000000; stroke-width: 0.6"/>
      </g>
     </g>
    </g>
    <g id="xtick_11">
     <g id="line2d_34">
      <g>
       <use xlink:href="#m3309e3c5eb" x="192.963039" y="460.115313" style="stroke: #000000; stroke-width: 0.6"/>
      </g>
     </g>
    </g>
    <g id="xtick_12">
     <g id="line2d_35">
      <g>
       <use xlink:href="#m3309e3c5eb" x="228.670384" y="460.115313" style="stroke: #000000; stroke-width: 0.6"/>
      </g>
     </g>
    </g>
    <g id="xtick_13">
     <g id="line2d_36">
      <g>
       <use xlink:href="#m3309e3c5eb" x="256.367152" y="460.115313" style="stroke: #000000; stroke-width: 0.6"/>
      </g>
     </g>
    </g>
    <g id="xtick_14">
     <g id="line2d_37">
      <g>
       <use xlink:href="#m3309e3c5eb" x="278.997059" y="460.115313" style="stroke: #000000; stroke-width: 0.6"/>
      </g>
     </g>
    </g>
    <g id="xtick_15">
     <g id="line2d_38">
      <g>
       <use xlink:href="#m3309e3c5eb" x="298.130373" y="460.115313" style="stroke: #000000; stroke-width: 0.6"/>
      </g>
     </g>
    </g>
    <g id="xtick_16">
     <g id="line2d_39">
      <g>
       <use xlink:href="#m3309e3c5eb" x="314.704404" y="460.115313" style="stroke: #000000; stroke-width: 0.6"/>
      </g>
     </g>
    </g>
    <g id="xtick_17">
     <g id="line2d_40">
      <g>
       <use xlink:href="#m3309e3c5eb" x="329.323735" y="460.115313" style="stroke: #000000; stroke-width: 0.6"/>
      </g>
     </g>
    </g>
    <g id="xtick_18">
     <g id="line2d_41">
      <g>
       <use xlink:href="#m3309e3c5eb" x="428.435192" y="460.115313" style="stroke: #000000; stroke-width: 0.6"/>
      </g>
     </g>
    </g>
    <g id="xtick_19">
     <g id="line2d_42">
      <g>
       <use xlink:href="#m3309e3c5eb" x="478.761867" y="460.115313" style="stroke: #000000; stroke-width: 0.6"/>
      </g>
     </g>
    </g>
    <g id="xtick_20">
     <g id="line2d_43">
      <g>
       <use xlink:href="#m3309e3c5eb" x="514.469212" y="460.115313" style="stroke: #000000; stroke-width: 0.6"/>
      </g>
     </g>
    </g>
    <g id="xtick_21">
     <g id="line2d_44">
      <g>
       <use xlink:href="#m3309e3c5eb" x="542.16598" y="460.115313" style="stroke: #000000; stroke-width: 0.6"/>
      </g>
     </g>
    </g>
    <g id="xtick_22">
     <g id="line2d_45">
      <g>
       <use xlink:href="#m3309e3c5eb" x="564.795887" y="460.115313" style="stroke: #000000; stroke-width: 0.6"/>
      </g>
     </g>
    </g>
    <g id="xtick_23">
     <g id="line2d_46">
      <g>
       <use xlink:href="#m3309e3c5eb" x="583.929201" y="460.115313" style="stroke: #000000; stroke-width: 0.6"/>
      </g>
     </g>
    </g>
    <g id="xtick_24">
     <g id="line2d_47">
      <g>
       <use xlink:href="#m3309e3c5eb" x="600.503232" y="460.115313" style="stroke: #000000; stroke-width: 0.6"/>
      </g>
     </g>
    </g>
    <g id="xtick_25">
     <g id="line2d_48">
      <g>
       <use xlink:href="#m3309e3c5eb" x="615.122563" y="460.115313" style="stroke: #000000; stroke-width: 0.6"/>
      </g>
     </g>
    </g>
    <g id="text_20">
     <!-- frequency [arb.] -->
     <g transform="translate(301.948828 490.516094) scale(0.1 -0.1)">
      <defs>
       <path id="DejaVuSans-54" d="M 947 1747 
Q 947 1113 1208 752 
Q 1469 391 1925 391 
Q 2381 391 2643 752 
Q 2906 1113 2906 1747 
Q 2906 2381 2643 2742 
Q 2381 3103 1925 3103 
Q 1469 3103 1208 2742 
Q 947 2381 947 1747 
z
M 2906 525 
Q 2725 213 2448 61 
Q 2172 -91 1784 -91 
Q 1150 -91 751 415 
Q 353 922 353 1747 
Q 353 2572 751 3078 
Q 1150 3584 1784 3584 
Q 2172 3584 2448 3432 
Q 2725 3281 2906 2969 
L 2906 3500 
L 3481 3500 
L 3481 -1331 
L 2906 -1331 
L 2906 525 
z
" transform="scale(0.015625)"/>
      </defs>
      <use xlink:href="#DejaVuSans-49"/>
      <use xlink:href="#DejaVuSans-55" transform="translate(35.203125 0)"/>
      <use xlink:href="#DejaVuSans-48" transform="translate(74.109375 0)"/>
      <use xlink:href="#DejaVuSans-54" transform="translate(135.640625 0)"/>
      <use xlink:href="#DejaVuSans-58" transform="translate(199.125 0)"/>
      <use xlink:href="#DejaVuSans-48" transform="translate(262.5 0)"/>
      <use xlink:href="#DejaVuSans-51" transform="translate(324.03125 0)"/>
      <use xlink:href="#DejaVuSans-46" transform="translate(387.40625 0)"/>
      <use xlink:href="#DejaVuSans-5c" transform="translate(442.390625 0)"/>
      <use xlink:href="#DejaVuSans-3" transform="translate(501.578125 0)"/>
      <use xlink:href="#DejaVuSans-3e" transform="translate(533.359375 0)"/>
      <use xlink:href="#DejaVuSans-44" transform="translate(572.375 0)"/>
      <use xlink:href="#DejaVuSans-55" transform="translate(633.65625 0)"/>
      <use xlink:href="#DejaVuSans-45" transform="translate(674.765625 0)"/>
      <use xlink:href="#DejaVuSans-11" transform="translate(738.25 0)"/>
      <use xlink:href="#DejaVuSans-40" transform="translate(770.03125 0)"/>
     </g>
    </g>
   </g>
   <g id="matplotlib.axis_4">
    <g id="ytick_6">
     <g id="line2d_49">
      <path d="M 56.602344 457.029012 
L 628.2 457.029012 
" clip-path="url(#pc8f32504bb)" style="fill: none; stroke: #b0b0b0; stroke-opacity: 0.25; stroke-width: 0.8; stroke-linecap: square"/>
     </g>
     <g id="line2d_50">
      <g>
       <use xlink:href="#mf833253433" x="56.602344" y="457.029012" style="stroke: #000000; stroke-width: 0.8"/>
      </g>
     </g>
     <g id="text_21">
      <!-- $\mathdefault{10^{-9}}$ -->
      <g transform="translate(26.102344 461.729012) scale(0.1 -0.1)">
       <defs>
        <path id="DejaVuSans-1c" d="M 703 97 
L 703 672 
Q 941 559 1184 500 
Q 1428 441 1663 441 
Q 2288 441 2617 861 
Q 2947 1281 2994 2138 
Q 2813 1869 2534 1725 
Q 2256 1581 1919 1581 
Q 1219 1581 811 2004 
Q 403 2428 403 3163 
Q 403 3881 828 4315 
Q 1253 4750 1959 4750 
Q 2769 4750 3195 4129 
Q 3622 3509 3622 2328 
Q 3622 1225 3098 567 
Q 2575 -91 1691 -91 
Q 1453 -91 1209 -44 
Q 966 3 703 97 
z
M 1959 2075 
Q 2384 2075 2632 2365 
Q 2881 2656 2881 3163 
Q 2881 3666 2632 3958 
Q 2384 4250 1959 4250 
Q 1534 4250 1286 3958 
Q 1038 3666 1038 3163 
Q 1038 2656 1286 2365 
Q 1534 2075 1959 2075 
z
" transform="scale(0.015625)"/>
       </defs>
       <use xlink:href="#DejaVuSans-14" transform="translate(0 0.746875)"/>
       <use xlink:href="#DejaVuSans-13" transform="translate(63.623047 0.746875)"/>
       <use xlink:href="#DejaVuSans-c9c" transform="translate(128.203125 42.046875) scale(0.7)"/>
       <use xlink:href="#DejaVuSans-1c" transform="translate(186.855469 42.046875) scale(0.7)"/>
      </g>
     </g>
    </g>
    <g id="ytick_7">
     <g id="line2d_51">
      <path d="M 56.602344 429.064865 
L 628.2 429.064865 
" clip-path="url(#pc8f32504bb)" style="fill: none; stroke: #b0b0b0; stroke-opacity: 0.25; stroke-width: 0.8; stroke-linecap: square"/>
     </g>
     <g id="line2d_52">
      <g>
       <use xlink:href="#mf833253433" x="56.602344" y="429.064865" style="stroke: #000000; stroke-width: 0.8"/>
      </g>
     </g>
     <g id="text_22">
      <!-- $\mathdefault{10^{-7}}$ -->
      <g transform="translate(26.102344 433.714865) scale(0.1 -0.1)">
       <use xlink:href="#DejaVuSans-14" transform="translate(0 0.665625)"/>
       <use xlink:href="#DejaVuSans-13" transform="translate(63.623047 0.665625)"/>
       <use xlink:href="#DejaVuSans-c9c" transform="translate(128.203125 41.965625) scale(0.7)"/>
       <use xlink:href="#DejaVuSans-1a" transform="translate(186.855469 41.965625) scale(0.7)"/>
      </g>
     </g>
    </g>
    <g id="ytick_8">
     <g id="line2d_53">
      <path d="M 56.602344 401.100718 
L 628.2 401.100718 
" clip-path="url(#pc8f32504bb)" style="fill: none; stroke: #b0b0b0; stroke-opacity: 0.25; stroke-width: 0.8; stroke-linecap: square"/>
     </g>
     <g id="line2d_54">
      <g>
       <use xlink:href="#mf833253433" x="56.602344" y="401.100718" style="stroke: #000000; stroke-width: 0.8"/>
      </g>
     </g>
     <g id="text_23">
      <!-- $\mathdefault{10^{-5}}$ -->
      <g transform="translate(26.102344 405.750718) scale(0.1 -0.1)">
       <use xlink:href="#DejaVuSans-14" transform="translate(0 0.665625)"/>
       <use xlink:href="#DejaVuSans-13" transform="translate(63.623047 0.665625)"/>
       <use xlink:href="#DejaVuSans-c9c" transform="translate(128.203125 41.965625) scale(0.7)"/>
       <use xlink:href="#DejaVuSans-18" transform="translate(186.855469 41.965625) scale(0.7)"/>
      </g>
     </g>
    </g>
    <g id="ytick_9">
     <g id="line2d_55">
      <path d="M 56.602344 373.136571 
L 628.2 373.136571 
" clip-path="url(#pc8f32504bb)" style="fill: none; stroke: #b0b0b0; stroke-opacity: 0.25; stroke-width: 0.8; stroke-linecap: square"/>
     </g>
     <g id="line2d_56">
      <g>
       <use xlink:href="#mf833253433" x="56.602344" y="373.136571" style="stroke: #000000; stroke-width: 0.8"/>
      </g>
     </g>
     <g id="text_24">
      <!-- $\mathdefault{10^{-3}}$ -->
      <g transform="translate(26.102344 377.836571) scale(0.1 -0.1)">
       <use xlink:href="#DejaVuSans-14" transform="translate(0 0.746875)"/>
       <use xlink:href="#DejaVuSans-13" transform="translate(63.623047 0.746875)"/>
       <use xlink:href="#DejaVuSans-c9c" transform="translate(128.203125 42.046875) scale(0.7)"/>
       <use xlink:href="#DejaVuSans-16" transform="translate(186.855469 42.046875) scale(0.7)"/>
      </g>
     </g>
    </g>
    <g id="ytick_10">
     <g id="line2d_57">
      <path d="M 56.602344 345.172424 
L 628.2 345.172424 
" clip-path="url(#pc8f32504bb)" style="fill: none; stroke: #b0b0b0; stroke-opacity: 0.25; stroke-width: 0.8; stroke-linecap: square"/>
     </g>
     <g id="line2d_58">
      <g>
       <use xlink:href="#mf833253433" x="56.602344" y="345.172424" style="stroke: #000000; stroke-width: 0.8"/>
      </g>
     </g>
     <g id="text_25">
      <!-- $\mathdefault{10^{-1}}$ -->
      <g transform="translate(26.102344 349.822424) scale(0.1 -0.1)">
       <use xlink:href="#DejaVuSans-14" transform="translate(0 0.665625)"/>
       <use xlink:href="#DejaVuSans-13" transform="translate(63.623047 0.665625)"/>
       <use xlink:href="#DejaVuSans-c9c" transform="translate(128.203125 41.965625) scale(0.7)"/>
       <use xlink:href="#DejaVuSans-14" transform="translate(186.855469 41.965625) scale(0.7)"/>
      </g>
     </g>
    </g>
    <g id="ytick_11">
     <g id="line2d_59">
      <path d="M 56.602344 317.208277 
L 628.2 317.208277 
" clip-path="url(#pc8f32504bb)" style="fill: none; stroke: #b0b0b0; stroke-opacity: 0.25; stroke-width: 0.8; stroke-linecap: square"/>
     </g>
     <g id="line2d_60">
      <g>
       <use xlink:href="#mf833253433" x="56.602344" y="317.208277" style="stroke: #000000; stroke-width: 0.8"/>
      </g>
     </g>
     <g id="text_26">
      <!-- $\mathdefault{10^{1}}$ -->
      <g transform="translate(32.002344 321.858277) scale(0.1 -0.1)">
       <use xlink:href="#DejaVuSans-14" transform="translate(0 0.665625)"/>
       <use xlink:href="#DejaVuSans-13" transform="translate(63.623047 0.665625)"/>
       <use xlink:href="#DejaVuSans-14" transform="translate(128.203125 41.965625) scale(0.7)"/>
      </g>
     </g>
    </g>
    <g id="ytick_12">
     <g id="line2d_61">
      <path d="M 56.602344 289.244131 
L 628.2 289.244131 
" clip-path="url(#pc8f32504bb)" style="fill: none; stroke: #b0b0b0; stroke-opacity: 0.25; stroke-width: 0.8; stroke-linecap: square"/>
     </g>
     <g id="line2d_62">
      <g>
       <use xlink:href="#mf833253433" x="56.602344" y="289.244131" style="stroke: #000000; stroke-width: 0.8"/>
      </g>
     </g>
     <g id="text_27">
      <!-- $\mathdefault{10^{3}}$ -->
      <g transform="translate(32.002344 293.944131) scale(0.1 -0.1)">
       <use xlink:href="#DejaVuSans-14" transform="translate(0 0.746875)"/>
       <use xlink:href="#DejaVuSans-13" transform="translate(63.623047 0.746875)"/>
       <use xlink:href="#DejaVuSans-16" transform="translate(128.203125 42.046875) scale(0.7)"/>
      </g>
     </g>
    </g>
    <g id="text_28">
     <!-- |FFT(.)| -->
     <g transform="translate(19.7 387.535996) rotate(-90) scale(0.1 -0.1)">
      <defs>
       <path id="DejaVuSans-37" d="M -19 4666 
L 3928 4666 
L 3928 4134 
L 2272 4134 
L 2272 0 
L 1638 0 
L 1638 4134 
L -19 4134 
L -19 4666 
z
" transform="scale(0.015625)"/>
      </defs>
      <use xlink:href="#DejaVuSans-5f"/>
      <use xlink:href="#DejaVuSans-29" transform="translate(33.6875 0)"/>
      <use xlink:href="#DejaVuSans-29" transform="translate(91.203125 0)"/>
      <use xlink:href="#DejaVuSans-37" transform="translate(146.96875 0)"/>
      <use xlink:href="#DejaVuSans-b" transform="translate(208.046875 0)"/>
      <use xlink:href="#DejaVuSans-11" transform="translate(247.0625 0)"/>
      <use xlink:href="#DejaVuSans-c" transform="translate(278.84375 0)"/>
      <use xlink:href="#DejaVuSans-5f" transform="translate(317.859375 0)"/>
     </g>
    </g>
   </g>
   <g id="line2d_63">
    <path d="M 56.602344 316.858349 
L 142.636364 341.538588 
L 192.963039 339.810151 
L 228.670384 337.777827 
L 256.367152 335.494868 
L 278.997059 332.915982 
L 298.130373 329.93879 
L 314.704404 326.390927 
L 329.323735 321.965494 
L 342.401172 316.01492 
L 354.231153 306.571414 
L 365.031079 290.47993 
L 374.966048 287.998052 
L 384.164393 294.111518 
L 392.727847 311.031135 
L 400.738424 318.652763 
L 408.263204 323.884175 
L 415.357755 327.905466 
L 422.068624 331.181486 
L 428.435192 333.94871 
L 434.491069 336.345181 
L 440.265173 338.458925 
L 445.782564 340.349679 
L 451.065099 342.059915 
L 456.13196 343.620945 
L 461.000068 345.056536 
L 465.68443 346.385167 
L 470.198413 347.621492 
L 474.553978 348.777338 
L 478.761867 349.862389 
L 482.831768 350.884675 
L 486.772444 351.850933 
L 490.591848 352.766869 
L 494.297224 353.637362 
L 497.895181 354.466615 
L 501.391775 355.258275 
L 504.792559 356.015528 
L 508.102644 356.741175 
L 511.326744 357.437689 
L 514.469212 358.107266 
L 517.53408 358.751867 
L 520.525089 359.373247 
L 523.445714 359.972984 
L 526.299193 360.552505 
L 529.088543 361.113098 
L 531.816584 361.655937 
L 534.485952 362.182091 
L 537.099119 362.692537 
L 539.658403 363.188167 
L 542.16598 363.669806 
L 544.623899 364.138208 
L 547.034088 364.594071 
L 549.398367 365.03804 
L 551.71845 365.470714 
L 553.995961 365.892645 
L 556.232433 366.30435 
L 558.42932 366.706308 
L 560.587998 367.098966 
L 562.709773 367.482743 
L 564.795887 367.858029 
L 566.847518 368.225191 
L 568.865788 368.584571 
L 570.851764 368.936493 
L 572.806464 369.281259 
L 574.730857 369.619154 
L 576.625868 369.950448 
L 578.492382 370.275395 
L 580.331244 370.594233 
L 582.143259 370.90719 
L 583.929201 371.21448 
L 585.68981 371.516305 
L 587.425795 371.812858 
L 589.137834 372.104322 
L 590.826579 372.390869 
L 592.492655 372.672666 
L 594.136664 372.949868 
L 595.759182 373.222624 
L 597.360764 373.491077 
L 598.941943 373.755363 
L 600.503232 374.01561 
L 602.045126 374.271941 
L 603.5681 374.524475 
L 605.072614 374.773325 
L 606.559109 375.018597 
L 608.028012 375.260396 
L 609.479734 375.498819 
L 610.914673 375.733962 
L 612.333213 375.965915 
L 613.735723 376.194765 
L 615.122563 376.420596 
L 616.494078 376.643487 
L 617.850603 376.863517 
L 619.192464 377.080758 
L 620.519972 377.295283 
L 621.833432 377.507159 
L 623.133139 377.716454 
L 624.419377 377.923229 
L 625.692423 378.127547 
L 626.952544 378.329466 
L 628.2 378.529044 
L 629.435044 378.726335 
" clip-path="url(#pc8f32504bb)" style="fill: none; stroke: #1f77b4; stroke-opacity: 0.6; stroke-width: 1.5; stroke-linecap: square"/>
   </g>
   <g id="line2d_64">
    <path d="M 56.602344 317.786594 
L 142.636364 349.161159 
L 192.963039 345.690134 
L 228.670384 342.58741 
L 256.367152 339.591939 
L 278.997059 336.533293 
L 298.130373 333.241249 
L 314.704404 329.497533 
L 329.323735 324.960107 
L 342.401172 318.953361 
L 354.231153 309.487395 
L 365.031079 293.390601 
L 374.966048 290.909194 
L 384.164393 297.022109 
L 392.727847 313.937019 
L 400.738424 321.549257 
L 408.263204 326.767656 
L 415.357755 330.774132 
L 422.068624 334.035522 
L 428.435192 336.7901 
L 434.491069 339.17736 
L 440.265173 341.286372 
L 445.782564 343.177547 
L 451.065099 344.893709 
L 456.13196 346.466272 
L 461.000068 347.918919 
L 465.68443 349.269911 
L 470.198413 350.533602 
L 474.553978 351.721465 
L 478.761867 352.842803 
L 482.831768 353.905259 
L 486.772444 354.915187 
L 490.591848 355.877924 
L 494.297224 356.797998 
L 497.895181 357.679286 
L 501.391775 358.525131 
L 504.792559 359.338438 
L 508.102644 360.121752 
L 511.326744 360.877312 
L 514.469212 361.607102 
L 517.53408 362.312891 
L 520.525089 362.996258 
L 523.445714 363.658626 
L 526.299193 364.301279 
L 529.088543 364.925381 
L 531.816584 365.531989 
L 534.485952 366.12207 
L 537.099119 366.696508 
L 539.658403 367.256117 
L 542.16598 367.801644 
L 544.623899 368.33378 
L 547.034088 368.853164 
L 549.398367 369.36039 
L 551.71845 369.856007 
L 553.995961 370.34053 
L 556.232433 370.814438 
L 558.42932 371.278177 
L 560.587998 371.732167 
L 562.709773 372.176802 
L 564.795887 372.612449 
L 566.847518 373.039457 
L 568.865788 373.458152 
L 570.851764 373.868842 
L 572.806464 374.271819 
L 574.730857 374.667359 
L 576.625868 375.05572 
L 578.492382 375.437151 
L 580.331244 375.811885 
L 582.143259 376.180144 
L 583.929201 376.542139 
L 585.68981 376.898072 
L 587.425795 377.248132 
L 589.137834 377.592504 
L 590.826579 377.931359 
L 592.492655 378.264864 
L 594.136664 378.593178 
L 595.759182 378.916451 
L 597.360764 379.234827 
L 598.941943 379.548447 
L 600.503232 379.857441 
L 602.045126 380.161938 
L 603.5681 380.462059 
L 605.072614 380.757921 
L 606.559109 381.049637 
L 608.028012 381.337314 
L 609.479734 381.621057 
L 610.914673 381.900964 
L 612.333213 382.177132 
L 613.735723 382.449654 
L 615.122563 382.718618 
L 616.494078 382.98411 
L 617.850603 383.246214 
L 619.192464 383.505008 
L 620.519972 383.760569 
L 621.833432 384.012973 
L 623.133139 384.262292 
L 624.419377 384.508593 
L 625.692423 384.751945 
L 626.952544 384.992413 
L 628.2 385.230059 
L 629.435044 385.464944 
" clip-path="url(#pc8f32504bb)" style="fill: none; stroke: #ff7f0e; stroke-width: 1.5; stroke-linecap: square"/>
   </g>
   <g id="patch_9">
    <path d="M 56.602344 460.115313 
L 56.602344 279.801992 
" style="fill: none; stroke: #000000; stroke-width: 0.8; stroke-linejoin: miter; stroke-linecap: square"/>
   </g>
   <g id="patch_10">
    <path d="M 628.2 460.115313 
L 628.2 279.801992 
" style="fill: none; stroke: #000000; stroke-width: 0.8; stroke-linejoin: miter; stroke-linecap: square"/>
   </g>
   <g id="patch_11">
    <path d="M 56.602344 460.115313 
L 628.2 460.115313 
" style="fill: none; stroke: #000000; stroke-width: 0.8; stroke-linejoin: miter; stroke-linecap: square"/>
   </g>
   <g id="patch_12">
    <path d="M 56.602344 279.801992 
L 628.2 279.801992 
" style="fill: none; stroke: #000000; stroke-width: 0.8; stroke-linejoin: miter; stroke-linecap: square"/>
   </g>
   <g id="text_29">
    <!-- Output FFT peak ≈ 1.300 (arb.), magnitude ≈ 7.602e+02 | band/flat-ish -->
    <g transform="translate(126.001797 273.801992) scale(0.12 -0.12)">
     <defs>
      <path id="DejaVuSans-32" d="M 2522 4238 
Q 1834 4238 1429 3725 
Q 1025 3213 1025 2328 
Q 1025 1447 1429 934 
Q 1834 422 2522 422 
Q 3209 422 3611 934 
Q 4013 1447 4013 2328 
Q 4013 3213 3611 3725 
Q 3209 4238 2522 4238 
z
M 2522 4750 
Q 3503 4750 4090 4092 
Q 4678 3434 4678 2328 
Q 4678 1225 4090 567 
Q 3503 -91 2522 -91 
Q 1538 -91 948 565 
Q 359 1222 359 2328 
Q 359 3434 948 4092 
Q 1538 4750 2522 4750 
z
" transform="scale(0.015625)"/>
      <path id="DejaVuSans-4e" d="M 581 4863 
L 1159 4863 
L 1159 1991 
L 2875 3500 
L 3609 3500 
L 1753 1863 
L 3688 0 
L 2938 0 
L 1159 1709 
L 1159 0 
L 581 0 
L 581 4863 
z
" transform="scale(0.015625)"/>
      <path id="DejaVuSans-cd2" d="M 4684 1947 
L 4684 1388 
Q 4356 1144 4076 1036 
Q 3797 928 3494 928 
Q 3150 928 2694 1113 
Q 2663 1125 2641 1134 
Q 2622 1141 2575 1159 
Q 2091 1350 1797 1350 
Q 1522 1350 1253 1231 
Q 984 1113 678 850 
L 678 1409 
Q 1006 1653 1286 1761 
Q 1566 1869 1869 1869 
Q 2213 1869 2672 1684 
Q 2706 1669 2722 1663 
Q 2741 1656 2788 1638 
Q 3272 1447 3566 1447 
Q 3834 1447 4098 1564 
Q 4363 1681 4684 1947 
z
M 4684 3163 
L 4684 2606 
Q 4356 2359 4076 2251 
Q 3797 2144 3494 2144 
Q 3150 2144 2694 2328 
Q 2663 2341 2641 2350 
Q 2622 2356 2575 2375 
Q 2091 2566 1797 2566 
Q 1522 2566 1253 2447 
Q 984 2328 678 2069 
L 678 2625 
Q 1006 2869 1286 2976 
Q 1566 3084 1869 3084 
Q 2213 3084 2672 2900 
Q 2703 2888 2719 2881 
Q 2741 2872 2788 2853 
Q 3272 2663 3566 2663 
Q 3834 2663 4098 2780 
Q 4363 2897 4684 3163 
z
" transform="scale(0.015625)"/>
      <path id="DejaVuSans-50" d="M 3328 2828 
Q 3544 3216 3844 3400 
Q 4144 3584 4550 3584 
Q 5097 3584 5394 3201 
Q 5691 2819 5691 2113 
L 5691 0 
L 5113 0 
L 5113 2094 
Q 5113 2597 4934 2840 
Q 4756 3084 4391 3084 
Q 3944 3084 3684 2787 
Q 3425 2491 3425 1978 
L 3425 0 
L 2847 0 
L 2847 2094 
Q 2847 2600 2669 2842 
Q 2491 3084 2119 3084 
Q 1678 3084 1418 2786 
Q 1159 2488 1159 1978 
L 1159 0 
L 581 0 
L 581 3500 
L 1159 3500 
L 1159 2956 
Q 1356 3278 1631 3431 
Q 1906 3584 2284 3584 
Q 2666 3584 2933 3390 
Q 3200 3197 3328 2828 
z
" transform="scale(0.015625)"/>
      <path id="DejaVuSans-e" d="M 2944 4013 
L 2944 2272 
L 4684 2272 
L 4684 1741 
L 2944 1741 
L 2944 0 
L 2419 0 
L 2419 1741 
L 678 1741 
L 678 2272 
L 2419 2272 
L 2419 4013 
L 2944 4013 
z
" transform="scale(0.015625)"/>
      <path id="DejaVuSans-12" d="M 1625 4666 
L 2156 4666 
L 531 -594 
L 0 -594 
L 1625 4666 
z
" transform="scale(0.015625)"/>
      <path id="DejaVuSans-13b0" d="M 1831 4863 
L 3431 4863 
L 3431 0 
L 2853 0 
L 2853 4384 
L 1825 4384 
Q 1516 4384 1395 4259 
Q 1275 4134 1275 3809 
L 1275 3500 
L 2222 3500 
L 2222 3053 
L 1275 3053 
L 1275 0 
L 697 0 
L 697 3053 
L 147 3053 
L 147 3500 
L 697 3500 
L 697 3744 
Q 697 4328 969 4595 
Q 1241 4863 1831 4863 
z
" transform="scale(0.015625)"/>
     </defs>
     <use xlink:href="#DejaVuSans-32"/>
     <use xlink:href="#DejaVuSans-58" transform="translate(78.71875 0)"/>
     <use xlink:href="#DejaVuSans-57" transform="translate(142.09375 0)"/>
     <use xlink:href="#DejaVuSans-53" transform="translate(181.296875 0)"/>
     <use xlink:href="#DejaVuSans-58" transform="translate(244.78125 0)"/>
     <use xlink:href="#DejaVuSans-57" transform="translate(308.15625 0)"/>
     <use xlink:href="#DejaVuSans-3" transform="translate(347.359375 0)"/>
     <use xlink:href="#DejaVuSans-29" transform="translate(379.140625 0)"/>
     <use xlink:href="#DejaVuSans-29" transform="translate(436.65625 0)"/>
     <use xlink:href="#DejaVuSans-37" transform="translate(492.421875 0)"/>
     <use xlink:href="#DejaVuSans-3" transform="translate(553.5 0)"/>
     <use xlink:href="#DejaVuSans-53" transform="translate(585.28125 0)"/>
     <use xlink:href="#DejaVuSans-48" transform="translate(648.765625 0)"/>
     <use xlink:href="#DejaVuSans-44" transform="translate(710.296875 0)"/>
     <use xlink:href="#DejaVuSans-4e" transform="translate(771.578125 0)"/>
     <use xlink:href="#DejaVuSans-3" transform="translate(829.484375 0)"/>
     <use xlink:href="#DejaVuSans-cd2" transform="translate(861.265625 0)"/>
     <use xlink:href="#DejaVuSans-3" transform="translate(945.0625 0)"/>
     <use xlink:href="#DejaVuSans-14" transform="translate(976.84375 0)"/>
     <use xlink:href="#DejaVuSans-11" transform="translate(1040.46875 0)"/>
     <use xlink:href="#DejaVuSans-16" transform="translate(1072.25 0)"/>
     <use xlink:href="#DejaVuSans-13" transform="translate(1135.875 0)"/>
     <use xlink:href="#DejaVuSans-13" transform="translate(1199.5 0)"/>
     <use xlink:href="#DejaVuSans-3" transform="translate(1263.125 0)"/>
     <use xlink:href="#DejaVuSans-b" transform="translate(1294.90625 0)"/>
     <use xlink:href="#DejaVuSans-44" transform="translate(1333.921875 0)"/>
     <use xlink:href="#DejaVuSans-55" transform="translate(1395.203125 0)"/>
     <use xlink:href="#DejaVuSans-45" transform="translate(1436.3125 0)"/>
     <use xlink:href="#DejaVuSans-11" transform="translate(1499.796875 0)"/>
     <use xlink:href="#DejaVuSans-c" transform="translate(1531.578125 0)"/>
     <use xlink:href="#DejaVuSans-f" transform="translate(1570.59375 0)"/>
     <use xlink:href="#DejaVuSans-3" transform="translate(1602.375 0)"/>
     <use xlink:href="#DejaVuSans-50" transform="translate(1634.15625 0)"/>
     <use xlink:href="#DejaVuSans-44" transform="translate(1731.5625 0)"/>
     <use xlink:href="#DejaVuSans-4a" transform="translate(1792.84375 0)"/>
     <use xlink:href="#DejaVuSans-51" transform="translate(1856.328125 0)"/>
     <use xlink:href="#DejaVuSans-4c" transform="translate(1919.703125 0)"/>
     <use xlink:href="#DejaVuSans-57" transform="translate(1947.484375 0)"/>
     <use xlink:href="#DejaVuSans-58" transform="translate(1986.6875 0)"/>
     <use xlink:href="#DejaVuSans-47" transform="translate(2050.0625 0)"/>
     <use xlink:href="#DejaVuSans-48" transform="translate(2113.546875 0)"/>
     <use xlink:href="#DejaVuSans-3" transform="translate(2175.078125 0)"/>
     <use xlink:href="#DejaVuSans-cd2" transform="translate(2206.859375 0)"/>
     <use xlink:href="#DejaVuSans-3" transform="translate(2290.65625 0)"/>
     <use xlink:href="#DejaVuSans-1a" transform="translate(2322.4375 0)"/>
     <use xlink:href="#DejaVuSans-11" transform="translate(2386.0625 0)"/>
     <use xlink:href="#DejaVuSans-19" transform="translate(2417.84375 0)"/>
     <use xlink:href="#DejaVuSans-13" transform="translate(2481.46875 0)"/>
     <use xlink:href="#DejaVuSans-15" transform="translate(2545.09375 0)"/>
     <use xlink:href="#DejaVuSans-48" transform="translate(2608.71875 0)"/>
     <use xlink:href="#DejaVuSans-e" transform="translate(2670.25 0)"/>
     <use xlink:href="#DejaVuSans-13" transform="translate(2754.046875 0)"/>
     <use xlink:href="#DejaVuSans-15" transform="translate(2817.671875 0)"/>
     <use xlink:href="#DejaVuSans-3" transform="translate(2881.296875 0)"/>
     <use xlink:href="#DejaVuSans-5f" transform="translate(2913.078125 0)"/>
     <use xlink:href="#DejaVuSans-3" transform="translate(2946.765625 0)"/>
     <use xlink:href="#DejaVuSans-45" transform="translate(2978.546875 0)"/>
     <use xlink:href="#DejaVuSans-44" transform="translate(3042.03125 0)"/>
     <use xlink:href="#DejaVuSans-51" transform="translate(3103.3125 0)"/>
     <use xlink:href="#DejaVuSans-47" transform="translate(3166.6875 0)"/>
     <use xlink:href="#DejaVuSans-12" transform="translate(3230.171875 0)"/>
     <use xlink:href="#DejaVuSans-13b0" transform="translate(3263.859375 0)"/>
     <use xlink:href="#DejaVuSans-44" transform="translate(3326.84375 0)"/>
     <use xlink:href="#DejaVuSans-57" transform="translate(3388.125 0)"/>
     <use xlink:href="#DejaVuSans-10" transform="translate(3427.328125 0)"/>
     <use xlink:href="#DejaVuSans-4c" transform="translate(3463.40625 0)"/>
     <use xlink:href="#DejaVuSans-56" transform="translate(3491.1875 0)"/>
     <use xlink:href="#DejaVuSans-4b" transform="translate(3543.28125 0)"/>
    </g>
   </g>
   <g id="legend_2">
    <g id="patch_13">
     <path d="M 535.603125 317.803555 
L 621.2 317.803555 
Q 623.2 317.803555 623.2 315.803555 
L 623.2 286.801992 
Q 623.2 284.801992 621.2 284.801992 
L 535.603125 284.801992 
Q 533.603125 284.801992 533.603125 286.801992 
L 533.603125 315.803555 
Q 533.603125 317.803555 535.603125 317.803555 
z
" style="fill: #ffffff; opacity: 0.8; stroke: #cccccc; stroke-linejoin: miter"/>
    </g>
    <g id="line2d_65">
     <path d="M 537.603125 292.90043 
L 547.603125 292.90043 
L 557.603125 292.90043 
" style="fill: none; stroke: #1f77b4; stroke-opacity: 0.6; stroke-width: 1.5; stroke-linecap: square"/>
    </g>
    <g id="text_30">
     <!-- input FFT -->
     <g transform="translate(565.603125 296.40043) scale(0.1 -0.1)">
      <use xlink:href="#DejaVuSans-4c"/>
      <use xlink:href="#DejaVuSans-51" transform="translate(27.78125 0)"/>
      <use xlink:href="#DejaVuSans-53" transform="translate(91.15625 0)"/>
      <use xlink:href="#DejaVuSans-58" transform="translate(154.640625 0)"/>
      <use xlink:href="#DejaVuSans-57" transform="translate(218.015625 0)"/>
      <use xlink:href="#DejaVuSans-3" transform="translate(257.21875 0)"/>
      <use xlink:href="#DejaVuSans-29" transform="translate(289 0)"/>
      <use xlink:href="#DejaVuSans-29" transform="translate(346.515625 0)"/>
      <use xlink:href="#DejaVuSans-37" transform="translate(402.28125 0)"/>
     </g>
    </g>
    <g id="line2d_66">
     <path d="M 537.603125 307.901211 
L 547.603125 307.901211 
L 557.603125 307.901211 
" style="fill: none; stroke: #ff7f0e; stroke-width: 1.5; stroke-linecap: square"/>
    </g>
    <g id="text_31">
     <!-- output FFT -->
     <g transform="translate(565.603125 311.401211) scale(0.1 -0.1)">
      <use xlink:href="#DejaVuSans-52"/>
      <use xlink:href="#DejaVuSans-58" transform="translate(61.1875 0)"/>
      <use xlink:href="#DejaVuSans-57" transform="translate(124.5625 0)"/>
      <use xlink:href="#DejaVuSans-53" transform="translate(163.765625 0)"/>
      <use xlink:href="#DejaVuSans-58" transform="translate(227.25 0)"/>
      <use xlink:href="#DejaVuSans-57" transform="translate(290.625 0)"/>
      <use xlink:href="#DejaVuSans-3" transform="translate(329.828125 0)"/>
      <use xlink:href="#DejaVuSans-29" transform="translate(361.609375 0)"/>
      <use xlink:href="#DejaVuSans-29" transform="translate(419.125 0)"/>
      <use xlink:href="#DejaVuSans-37" transform="translate(474.890625 0)"/>
     </g>
    </g>
   </g>
  </g>
 </g>
 <defs>
  <clipPath id="pe6ae2e2095">
   <rect x="56.602344" y="42.006328" width="571.597656" height="180.31332"/>
  </clipPath>
  <clipPath id="pc8f32504bb">
   <rect x="56.602344" y="279.801992" width="571.597656" height="180.31332"/>
  </clipPath>
 </defs>
</svg>
