<?xml version="1.0" encoding="utf-8" standalone="no"?>
<!DOCTYPE svg PUBLIC "-//W3C//DTD SVG 1.1//EN"
  "http://www.w3.org/Graphics/SVG/1.1/DTD/svg11.dtd">
<svg xmlns:xlink="http://www.w3.org/1999/xlink" width="648pt" height="504pt" viewBox="0 0 648 504" xmlns="http://www.w3.org/2000/svg" version="1.1">
 <metadata>
  <rdf:RDF xmlns:dc="http://purl.org/dc/elements/1.1/" xmlns:cc="http://creativecommons.org/ns#" xmlns:rdf="http://www.w3.org/1999/02/22-rdf-syntax-ns#">
   <cc:Work>
    <dc:type rdf:resource="http://purl.org/dc/dcmitype/StillImage"/>
    <dc:date>2026-04-04T02:48:31.750611</dc:date>
    <dc:format>image/svg+xml</dc:format>
    <dc:creator>
     <cc:Agent>
      <dc:title>Matplotlib v3.10.8, https://matplotlib.org/</dc:title>
     </cc:Agent>
    </dc:creator>
   </cc:Work>
  </rdf:RDF>
 </metadata>
 <defs>
  <style type="text/css">*{stroke-linejoin: round; stroke-linecap: butt}</style>
 </defs>
 <g id="figure_1">
  <g id="patch_1">
   <path d="M 0 504 
L 648 504 
L 648 0 
L 0 0 
z
" style="fill: #ffffff"/>
  </g>
  <g id="axes_1">
   <g id="patch_2">
    <path d="M 60.761214 221.272 
L 628.183658 221.272 
L 628.183658 41.856 
L 60.761214 41.856 
z
" style="fill: #ffffff"/>
   </g>
   <g id="matplotlib.axis_1">
    <g id="xtick_1">
     <g id="line2d_1">
      <path d="M 86.553143 221.272 
L 86.553143 41.856 
" clip-path="url(#pd5590e56dd)" style="fill: none; stroke: #b0b0b0; stroke-opacity: 0.25; stroke-width: 0.8; stroke-linecap: square"/>
     </g>
     <g id="line2d_2">
      <defs>
       <path id="me6865c1996" d="M 0 0 
L 0 3.5 
" style="stroke: #000000; stroke-width: 0.8"/>
      </defs>
      <g>
       <use xlink:href="#me6865c1996" x="86.553143" y="221.272" style="stroke: #000000; stroke-width: 0.8"/>
      </g>
     </g>
     <g id="text_1">
      <!-- 0 -->
      <g transform="translate(83.371893 235.870437) scale(0.1 -0.1)">
       <defs>
        <path id="DejaVuSans-30" d="M 2034 4250 
Q 1547 4250 1301 3770 
Q 1056 3291 1056 2328 
Q 1056 1369 1301 889 
Q 1547 409 2034 409 
Q 2525 409 2770 889 
Q 3016 1369 3016 2328 
Q 3016 3291 2770 3770 
Q 2525 4250 2034 4250 
z
M 2034 4750 
Q 2819 4750 3233 4129 
Q 3647 3509 3647 2328 
Q 3647 1150 3233 529 
Q 2819 -91 2034 -91 
Q 1250 -91 836 529 
Q 422 1150 422 2328 
Q 422 3509 836 4129 
Q 1250 4750 2034 4750 
z
" transform="scale(0.015625)"/>
       </defs>
       <use xlink:href="#DejaVuSans-30"/>
      </g>
     </g>
    </g>
    <g id="xtick_2">
     <g id="line2d_3">
      <path d="M 189.746054 221.272 
L 189.746054 41.856 
" clip-path="url(#pd5590e56dd)" style="fill: none; stroke: #b0b0b0; stroke-opacity: 0.25; stroke-width: 0.8; stroke-linecap: square"/>
     </g>
     <g id="line2d_4">
      <g>
       <use xlink:href="#me6865c1996" x="189.746054" y="221.272" style="stroke: #000000; stroke-width: 0.8"/>
      </g>
     </g>
     <g id="text_2">
      <!-- 2 -->
      <g transform="translate(186.564804 235.870437) scale(0.1 -0.1)">
       <defs>
        <path id="DejaVuSans-32" d="M 1228 531 
L 3431 531 
L 3431 0 
L 469 0 
L 469 531 
Q 828 903 1448 1529 
Q 2069 2156 2228 2338 
Q 2531 2678 2651 2914 
Q 2772 3150 2772 3378 
Q 2772 3750 2511 3984 
Q 2250 4219 1831 4219 
Q 1534 4219 1204 4116 
Q 875 4013 500 3803 
L 500 4441 
Q 881 4594 1212 4672 
Q 1544 4750 1819 4750 
Q 2544 4750 2975 4387 
Q 3406 4025 3406 3419 
Q 3406 3131 3298 2873 
Q 3191 2616 2906 2266 
Q 2828 2175 2409 1742 
Q 1991 1309 1228 531 
z
" transform="scale(0.015625)"/>
       </defs>
       <use xlink:href="#DejaVuSans-32"/>
      </g>
     </g>
    </g>
    <g id="xtick_3">
     <g id="line2d_5">
      <path d="M 292.938964 221.272 
L 292.938964 41.856 
" clip-path="url(#pd5590e56dd)" style="fill: none; stroke: #b0b0b0; stroke-opacity: 0.25; stroke-width: 0.8; stroke-linecap: square"/>
     </g>
     <g id="line2d_6">
      <g>
       <use xlink:href="#me6865c1996" x="292.938964" y="221.272" style="stroke: #000000; stroke-width: 0.8"/>
      </g>
     </g>
     <g id="text_3">
      <!-- 4 -->
      <g transform="translate(289.757714 235.870437) scale(0.1 -0.1)">
       <defs>
        <path id="DejaVuSans-34" d="M 2419 4116 
L 825 1625 
L 2419 1625 
L 2419 4116 
z
M 2253 4666 
L 3047 4666 
L 3047 1625 
L 3713 1625 
L 3713 1100 
L 3047 1100 
L 3047 0 
L 2419 0 
L 2419 1100 
L 313 1100 
L 313 1709 
L 2253 4666 
z
" transform="scale(0.015625)"/>
       </defs>
       <use xlink:href="#DejaVuSans-34"/>
      </g>
     </g>
    </g>
    <g id="xtick_4">
     <g id="line2d_7">
      <path d="M 396.131875 221.272 
L 396.131875 41.856 
" clip-path="url(#pd5590e56dd)" style="fill: none; stroke: #b0b0b0; stroke-opacity: 0.25; stroke-width: 0.8; stroke-linecap: square"/>
     </g>
     <g id="line2d_8">
      <g>
       <use xlink:href="#me6865c1996" x="396.131875" y="221.272" style="stroke: #000000; stroke-width: 0.8"/>
      </g>
     </g>
     <g id="text_4">
      <!-- 6 -->
      <g transform="translate(392.950625 235.870437) scale(0.1 -0.1)">
       <defs>
        <path id="DejaVuSans-36" d="M 2113 2584 
Q 1688 2584 1439 2293 
Q 1191 2003 1191 1497 
Q 1191 994 1439 701 
Q 1688 409 2113 409 
Q 2538 409 2786 701 
Q 3034 994 3034 1497 
Q 3034 2003 2786 2293 
Q 2538 2584 2113 2584 
z
M 3366 4563 
L 3366 3988 
Q 3128 4100 2886 4159 
Q 2644 4219 2406 4219 
Q 1781 4219 1451 3797 
Q 1122 3375 1075 2522 
Q 1259 2794 1537 2939 
Q 1816 3084 2150 3084 
Q 2853 3084 3261 2657 
Q 3669 2231 3669 1497 
Q 3669 778 3244 343 
Q 2819 -91 2113 -91 
Q 1303 -91 875 529 
Q 447 1150 447 2328 
Q 447 3434 972 4092 
Q 1497 4750 2381 4750 
Q 2619 4750 2861 4703 
Q 3103 4656 3366 4563 
z
" transform="scale(0.015625)"/>
       </defs>
       <use xlink:href="#DejaVuSans-36"/>
      </g>
     </g>
    </g>
    <g id="xtick_5">
     <g id="line2d_9">
      <path d="M 499.324786 221.272 
L 499.324786 41.856 
" clip-path="url(#pd5590e56dd)" style="fill: none; stroke: #b0b0b0; stroke-opacity: 0.25; stroke-width: 0.8; stroke-linecap: square"/>
     </g>
     <g id="line2d_10">
      <g>
       <use xlink:href="#me6865c1996" x="499.324786" y="221.272" style="stroke: #000000; stroke-width: 0.8"/>
      </g>
     </g>
     <g id="text_5">
      <!-- 8 -->
      <g transform="translate(496.143536 235.870437) scale(0.1 -0.1)">
       <defs>
        <path id="DejaVuSans-38" d="M 2034 2216 
Q 1584 2216 1326 1975 
Q 1069 1734 1069 1313 
Q 1069 891 1326 650 
Q 1584 409 2034 409 
Q 2484 409 2743 651 
Q 3003 894 3003 1313 
Q 3003 1734 2745 1975 
Q 2488 2216 2034 2216 
z
M 1403 2484 
Q 997 2584 770 2862 
Q 544 3141 544 3541 
Q 544 4100 942 4425 
Q 1341 4750 2034 4750 
Q 2731 4750 3128 4425 
Q 3525 4100 3525 3541 
Q 3525 3141 3298 2862 
Q 3072 2584 2669 2484 
Q 3125 2378 3379 2068 
Q 3634 1759 3634 1313 
Q 3634 634 3220 271 
Q 2806 -91 2034 -91 
Q 1263 -91 848 271 
Q 434 634 434 1313 
Q 434 1759 690 2068 
Q 947 2378 1403 2484 
z
M 1172 3481 
Q 1172 3119 1398 2916 
Q 1625 2713 2034 2713 
Q 2441 2713 2670 2916 
Q 2900 3119 2900 3481 
Q 2900 3844 2670 4047 
Q 2441 4250 2034 4250 
Q 1625 4250 1398 4047 
Q 1172 3844 1172 3481 
z
" transform="scale(0.015625)"/>
       </defs>
       <use xlink:href="#DejaVuSans-38"/>
      </g>
     </g>
    </g>
    <g id="xtick_6">
     <g id="line2d_11">
      <path d="M 602.517696 221.272 
L 602.517696 41.856 
" clip-path="url(#pd5590e56dd)" style="fill: none; stroke: #b0b0b0; stroke-opacity: 0.25; stroke-width: 0.8; stroke-linecap: square"/>
     </g>
     <g id="line2d_12">
      <g>
       <use xlink:href="#me6865c1996" x="602.517696" y="221.272" style="stroke: #000000; stroke-width: 0.8"/>
      </g>
     </g>
     <g id="text_6">
      <!-- 10 -->
      <g transform="translate(596.155196 235.870437) scale(0.1 -0.1)">
       <defs>
        <path id="DejaVuSans-31" d="M 794 531 
L 1825 531 
L 1825 4091 
L 703 3866 
L 703 4441 
L 1819 4666 
L 2450 4666 
L 2450 531 
L 3481 531 
L 3481 0 
L 794 0 
L 794 531 
z
" transform="scale(0.015625)"/>
       </defs>
       <use xlink:href="#DejaVuSans-31"/>
       <use xlink:href="#DejaVuSans-30" transform="translate(63.623047 0)"/>
      </g>
     </g>
    </g>
    <g id="text_7">
     <!-- t [arb.] -->
     <g transform="translate(327.138842 249.548563) scale(0.1 -0.1)">
      <defs>
       <path id="DejaVuSans-74" d="M 1172 4494 
L 1172 3500 
L 2356 3500 
L 2356 3053 
L 1172 3053 
L 1172 1153 
Q 1172 725 1289 603 
Q 1406 481 1766 481 
L 2356 481 
L 2356 0 
L 1766 0 
Q 1100 0 847 248 
Q 594 497 594 1153 
L 594 3053 
L 172 3053 
L 172 3500 
L 594 3500 
L 594 4494 
L 1172 4494 
z
" transform="scale(0.015625)"/>
       <path id="DejaVuSans-20" transform="scale(0.015625)"/>
       <path id="DejaVuSans-5b" d="M 550 4863 
L 1875 4863 
L 1875 4416 
L 1125 4416 
L 1125 -397 
L 1875 -397 
L 1875 -844 
L 550 -844 
L 550 4863 
z
" transform="scale(0.015625)"/>
       <path id="DejaVuSans-61" d="M 2194 1759 
Q 1497 1759 1228 1600 
Q 959 1441 959 1056 
Q 959 750 1161 570 
Q 1363 391 1709 391 
Q 2188 391 2477 730 
Q 2766 1069 2766 1631 
L 2766 1759 
L 2194 1759 
z
M 3341 1997 
L 3341 0 
L 2766 0 
L 2766 531 
Q 2569 213 2275 61 
Q 1981 -91 1556 -91 
Q 1019 -91 701 211 
Q 384 513 384 1019 
Q 384 1609 779 1909 
Q 1175 2209 1959 2209 
L 2766 2209 
L 2766 2266 
Q 2766 2663 2505 2880 
Q 2244 3097 1772 3097 
Q 1472 3097 1187 3025 
Q 903 2953 641 2809 
L 641 3341 
Q 956 3463 1253 3523 
Q 1550 3584 1831 3584 
Q 2591 3584 2966 3190 
Q 3341 2797 3341 1997 
z
" transform="scale(0.015625)"/>
       <path id="DejaVuSans-72" d="M 2631 2963 
Q 2534 3019 2420 3045 
Q 2306 3072 2169 3072 
Q 1681 3072 1420 2755 
Q 1159 2438 1159 1844 
L 1159 0 
L 581 0 
L 581 3500 
L 1159 3500 
L 1159 2956 
Q 1341 3275 1631 3429 
Q 1922 3584 2338 3584 
Q 2397 3584 2469 3576 
Q 2541 3569 2628 3553 
L 2631 2963 
z
" transform="scale(0.015625)"/>
       <path id="DejaVuSans-62" d="M 3116 1747 
Q 3116 2381 2855 2742 
Q 2594 3103 2138 3103 
Q 1681 3103 1420 2742 
Q 1159 2381 1159 1747 
Q 1159 1113 1420 752 
Q 1681 391 2138 391 
Q 2594 391 2855 752 
Q 3116 1113 3116 1747 
z
M 1159 2969 
Q 1341 3281 1617 3432 
Q 1894 3584 2278 3584 
Q 2916 3584 3314 3078 
Q 3713 2572 3713 1747 
Q 3713 922 3314 415 
Q 2916 -91 2278 -91 
Q 1894 -91 1617 61 
Q 1341 213 1159 525 
L 1159 0 
L 581 0 
L 581 4863 
L 1159 4863 
L 1159 2969 
z
" transform="scale(0.015625)"/>
       <path id="DejaVuSans-2e" d="M 684 794 
L 1344 794 
L 1344 0 
L 684 0 
L 684 794 
z
" transform="scale(0.015625)"/>
       <path id="DejaVuSans-5d" d="M 1947 4863 
L 1947 -844 
L 622 -844 
L 622 -397 
L 1369 -397 
L 1369 4416 
L 622 4416 
L 622 4863 
L 1947 4863 
z
" transform="scale(0.015625)"/>
      </defs>
      <use xlink:href="#DejaVuSans-74"/>
      <use xlink:href="#DejaVuSans-20" transform="translate(39.208984 0)"/>
      <use xlink:href="#DejaVuSans-5b" transform="translate(70.996094 0)"/>
      <use xlink:href="#DejaVuSans-61" transform="translate(110.009766 0)"/>
      <use xlink:href="#DejaVuSans-72" transform="translate(171.289062 0)"/>
      <use xlink:href="#DejaVuSans-62" transform="translate(212.402344 0)"/>
      <use xlink:href="#DejaVuSans-2e" transform="translate(275.878906 0)"/>
      <use xlink:href="#DejaVuSans-5d" transform="translate(307.666016 0)"/>
     </g>
    </g>
   </g>
   <g id="matplotlib.axis_2">
    <g id="ytick_1">
     <g id="line2d_13">
      <path d="M 60.761214 214.406781 
L 628.183658 214.406781 
" clip-path="url(#pd5590e56dd)" style="fill: none; stroke: #b0b0b0; stroke-opacity: 0.25; stroke-width: 0.8; stroke-linecap: square"/>
     </g>
     <g id="line2d_14">
      <defs>
       <path id="m831ed63fd6" d="M 0 0 
L -3.5 0 
" style="stroke: #000000; stroke-width: 0.8"/>
      </defs>
      <g>
       <use xlink:href="#m831ed63fd6" x="60.761214" y="214.406781" style="stroke: #000000; stroke-width: 0.8"/>
      </g>
     </g>
     <g id="text_8">
      <!-- −1.5 -->
      <g transform="translate(29.478401 218.206) scale(0.1 -0.1)">
       <defs>
        <path id="DejaVuSans-2212" d="M 678 2272 
L 4684 2272 
L 4684 1741 
L 678 1741 
L 678 2272 
z
" transform="scale(0.015625)"/>
        <path id="DejaVuSans-35" d="M 691 4666 
L 3169 4666 
L 3169 4134 
L 1269 4134 
L 1269 2991 
Q 1406 3038 1543 3061 
Q 1681 3084 1819 3084 
Q 2600 3084 3056 2656 
Q 3513 2228 3513 1497 
Q 3513 744 3044 326 
Q 2575 -91 1722 -91 
Q 1428 -91 1123 -41 
Q 819 9 494 109 
L 494 744 
Q 775 591 1075 516 
Q 1375 441 1709 441 
Q 2250 441 2565 725 
Q 2881 1009 2881 1497 
Q 2881 1984 2565 2268 
Q 2250 2553 1709 2553 
Q 1456 2553 1204 2497 
Q 953 2441 691 2322 
L 691 4666 
z
" transform="scale(0.015625)"/>
       </defs>
       <use xlink:href="#DejaVuSans-2212"/>
       <use xlink:href="#DejaVuSans-31" transform="translate(83.789062 0)"/>
       <use xlink:href="#DejaVuSans-2e" transform="translate(147.412109 0)"/>
       <use xlink:href="#DejaVuSans-35" transform="translate(179.199219 0)"/>
      </g>
     </g>
    </g>
    <g id="ytick_2">
     <g id="line2d_15">
      <path d="M 60.761214 186.792518 
L 628.183658 186.792518 
" clip-path="url(#pd5590e56dd)" style="fill: none; stroke: #b0b0b0; stroke-opacity: 0.25; stroke-width: 0.8; stroke-linecap: square"/>
     </g>
     <g id="line2d_16">
      <g>
       <use xlink:href="#m831ed63fd6" x="60.761214" y="186.792518" style="stroke: #000000; stroke-width: 0.8"/>
      </g>
     </g>
     <g id="text_9">
      <!-- −1.0 -->
      <g transform="translate(29.478401 190.591737) scale(0.1 -0.1)">
       <use xlink:href="#DejaVuSans-2212"/>
       <use xlink:href="#DejaVuSans-31" transform="translate(83.789062 0)"/>
       <use xlink:href="#DejaVuSans-2e" transform="translate(147.412109 0)"/>
       <use xlink:href="#DejaVuSans-30" transform="translate(179.199219 0)"/>
      </g>
     </g>
    </g>
    <g id="ytick_3">
     <g id="line2d_17">
      <path d="M 60.761214 159.178255 
L 628.183658 159.178255 
" clip-path="url(#pd5590e56dd)" style="fill: none; stroke: #b0b0b0; stroke-opacity: 0.25; stroke-width: 0.8; stroke-linecap: square"/>
     </g>
     <g id="line2d_18">
      <g>
       <use xlink:href="#m831ed63fd6" x="60.761214" y="159.178255" style="stroke: #000000; stroke-width: 0.8"/>
      </g>
     </g>
     <g id="text_10">
      <!-- −0.5 -->
      <g transform="translate(29.478401 162.977474) scale(0.1 -0.1)">
       <use xlink:href="#DejaVuSans-2212"/>
       <use xlink:href="#DejaVuSans-30" transform="translate(83.789062 0)"/>
       <use xlink:href="#DejaVuSans-2e" transform="translate(147.412109 0)"/>
       <use xlink:href="#DejaVuSans-35" transform="translate(179.199219 0)"/>
      </g>
     </g>
    </g>
    <g id="ytick_4">
     <g id="line2d_19">
      <path d="M 60.761214 131.563992 
L 628.183658 131.563992 
" clip-path="url(#pd5590e56dd)" style="fill: none; stroke: #b0b0b0; stroke-opacity: 0.25; stroke-width: 0.8; stroke-linecap: square"/>
     </g>
     <g id="line2d_20">
      <g>
       <use xlink:href="#m831ed63fd6" x="60.761214" y="131.563992" style="stroke: #000000; stroke-width: 0.8"/>
      </g>
     </g>
     <g id="text_11">
      <!-- 0.0 -->
      <g transform="translate(37.858089 135.363211) scale(0.1 -0.1)">
       <use xlink:href="#DejaVuSans-30"/>
       <use xlink:href="#DejaVuSans-2e" transform="translate(63.623047 0)"/>
       <use xlink:href="#DejaVuSans-30" transform="translate(95.410156 0)"/>
      </g>
     </g>
    </g>
    <g id="ytick_5">
     <g id="line2d_21">
      <path d="M 60.761214 103.949729 
L 628.183658 103.949729 
" clip-path="url(#pd5590e56dd)" style="fill: none; stroke: #b0b0b0; stroke-opacity: 0.25; stroke-width: 0.8; stroke-linecap: square"/>
     </g>
     <g id="line2d_22">
      <g>
       <use xlink:href="#m831ed63fd6" x="60.761214" y="103.949729" style="stroke: #000000; stroke-width: 0.8"/>
      </g>
     </g>
     <g id="text_12">
      <!-- 0.5 -->
      <g transform="translate(37.858089 107.748948) scale(0.1 -0.1)">
       <use xlink:href="#DejaVuSans-30"/>
       <use xlink:href="#DejaVuSans-2e" transform="translate(63.623047 0)"/>
       <use xlink:href="#DejaVuSans-35" transform="translate(95.410156 0)"/>
      </g>
     </g>
    </g>
    <g id="ytick_6">
     <g id="line2d_23">
      <path d="M 60.761214 76.335466 
L 628.183658 76.335466 
" clip-path="url(#pd5590e56dd)" style="fill: none; stroke: #b0b0b0; stroke-opacity: 0.25; stroke-width: 0.8; stroke-linecap: square"/>
     </g>
     <g id="line2d_24">
      <g>
       <use xlink:href="#m831ed63fd6" x="60.761214" y="76.335466" style="stroke: #000000; stroke-width: 0.8"/>
      </g>
     </g>
     <g id="text_13">
      <!-- 1.0 -->
      <g transform="translate(37.858089 80.134685) scale(0.1 -0.1)">
       <use xlink:href="#DejaVuSans-31"/>
       <use xlink:href="#DejaVuSans-2e" transform="translate(63.623047 0)"/>
       <use xlink:href="#DejaVuSans-30" transform="translate(95.410156 0)"/>
      </g>
     </g>
    </g>
    <g id="ytick_7">
     <g id="line2d_25">
      <path d="M 60.761214 48.721203 
L 628.183658 48.721203 
" clip-path="url(#pd5590e56dd)" style="fill: none; stroke: #b0b0b0; stroke-opacity: 0.25; stroke-width: 0.8; stroke-linecap: square"/>
     </g>
     <g id="line2d_26">
      <g>
       <use xlink:href="#m831ed63fd6" x="60.761214" y="48.721203" style="stroke: #000000; stroke-width: 0.8"/>
      </g>
     </g>
     <g id="text_14">
      <!-- 1.5 -->
      <g transform="translate(37.858089 52.520421) scale(0.1 -0.1)">
       <use xlink:href="#DejaVuSans-31"/>
       <use xlink:href="#DejaVuSans-2e" transform="translate(63.623047 0)"/>
       <use xlink:href="#DejaVuSans-35" transform="translate(95.410156 0)"/>
      </g>
     </g>
    </g>
    <g id="text_15">
     <!-- [arb.] -->
     <g transform="translate(23.398714 145.348375) rotate(-90) scale(0.1 -0.1)">
      <use xlink:href="#DejaVuSans-5b"/>
      <use xlink:href="#DejaVuSans-61" transform="translate(39.013672 0)"/>
      <use xlink:href="#DejaVuSans-72" transform="translate(100.292969 0)"/>
      <use xlink:href="#DejaVuSans-62" transform="translate(141.40625 0)"/>
      <use xlink:href="#DejaVuSans-2e" transform="translate(204.882812 0)"/>
      <use xlink:href="#DejaVuSans-5d" transform="translate(236.669922 0)"/>
     </g>
    </g>
   </g>
   <g id="line2d_27">
    <path d="M 86.553143 131.563992 
L 89.072501 92.181332 
L 90.33218 75.619664 
L 91.339923 64.871331 
L 92.221699 57.670034 
L 92.977506 53.316095 
L 93.481378 51.400817 
L 93.985249 50.299279 
L 94.363153 50.014182 
L 94.615089 50.082915 
L 94.867025 50.358559 
L 95.244929 51.158308 
L 95.7488 52.937914 
L 96.37864 56.281908 
L 97.134447 61.864087 
L 98.016223 70.375537 
L 99.023966 82.409892 
L 100.283645 100.187282 
L 102.299131 132.237008 
L 104.81849 171.534651 
L 106.078169 187.996109 
L 107.085912 198.641718 
L 107.967687 205.74018 
L 108.723495 209.998873 
L 109.227366 211.848147 
L 109.731238 212.882452 
L 110.109142 213.116727 
L 110.361078 213.014087 
L 110.738981 212.47254 
L 111.116885 211.468838 
L 111.620757 209.421945 
L 112.250596 205.755117 
L 113.006404 199.808799 
L 113.888179 190.915023 
L 115.02189 176.819119 
L 116.407537 156.526121 
L 121.572221 77.662532 
L 122.705933 65.281881 
L 123.587708 57.972785 
L 124.343515 53.518834 
L 124.973355 51.164326 
L 125.351259 50.361882 
L 125.729162 50.023271 
L 125.981098 50.05628 
L 126.233034 50.296267 
L 126.610938 51.042856 
L 127.114809 52.752659 
L 127.744649 56.012126 
L 128.500456 61.498631 
L 129.382232 69.909144 
L 130.389975 81.846027 
L 131.649654 99.534069 
L 133.665141 131.528034 
L 136.184499 170.915161 
L 137.444178 187.482151 
L 138.451921 198.235952 
L 139.333697 205.44273 
L 140.089504 209.801748 
L 140.593376 211.72055 
L 141.097247 212.825678 
L 141.475151 213.113489 
L 141.727087 213.046568 
L 141.979023 212.772732 
L 142.356926 211.975678 
L 142.860798 210.19961 
L 143.490638 206.859896 
L 144.246445 201.28256 
L 145.12822 192.776213 
L 146.135964 180.74678 
L 147.395643 162.973889 
L 149.411129 130.926934 
L 151.930487 91.62468 
L 153.190166 75.15784 
L 154.19791 64.506724 
L 155.079685 57.402756 
L 155.835493 53.138966 
L 156.339364 51.286163 
L 156.843236 50.248264 
L 157.22114 50.011273 
L 157.473075 50.112102 
L 157.850979 50.650941 
L 158.228883 51.651962 
L 158.732754 53.695346 
L 159.362594 57.357945 
L 160.118401 63.299505 
L 161.000177 72.188306 
L 162.133888 86.278955 
L 163.519535 106.567634 
L 168.684219 185.438462 
L 169.81793 197.825147 
L 170.699706 205.139696 
L 171.455513 209.59871 
L 172.085353 211.957625 
L 172.463256 212.762763 
L 172.84116 213.104088 
L 173.093096 213.072891 
L 173.345032 212.834713 
L 173.722936 212.090822 
L 174.226807 210.384563 
L 174.856647 207.129389 
L 175.612454 201.647748 
L 176.49423 193.242371 
L 177.501973 181.310455 
L 178.761652 163.626981 
L 180.777138 131.635909 
L 183.296497 92.244322 
L 184.556176 75.672013 
L 185.563919 64.912746 
L 186.445694 57.70049 
L 187.201502 53.336391 
L 187.705373 51.414067 
L 188.209245 50.305349 
L 188.587149 50.014823 
L 188.839085 50.079933 
L 189.09102 50.351961 
L 189.468924 51.14632 
L 189.972796 52.918851 
L 190.602635 56.254282 
L 191.358443 61.826776 
L 192.240218 70.328016 
L 193.247961 82.352526 
L 194.50764 100.120914 
L 196.523127 132.165093 
L 199.042485 171.471949 
L 200.302164 187.944168 
L 201.309908 198.600789 
L 202.191683 205.710263 
L 202.94749 209.979148 
L 203.451362 211.83548 
L 203.955234 212.876973 
L 204.333137 213.11668 
L 204.585073 213.017662 
L 204.962977 212.48153 
L 205.340881 211.483191 
L 205.844752 209.443316 
L 206.474592 205.784947 
L 207.230399 199.848145 
L 208.112175 190.964322 
L 209.245886 176.87893 
L 210.631533 156.594576 
L 215.796217 77.716522 
L 216.929928 65.323806 
L 217.811704 58.003806 
L 218.567511 53.539729 
L 219.197351 51.176408 
L 219.575254 50.368575 
L 219.953158 50.024537 
L 220.205094 50.053922 
L 220.45703 50.290291 
L 220.834933 51.031485 
L 221.338805 52.7342 
L 221.968645 55.985079 
L 222.724452 61.461856 
L 223.606227 69.862094 
L 224.613971 81.78904 
L 225.87365 99.467944 
L 227.889136 131.456117 
L 230.408494 170.852155 
L 231.668173 187.42978 
L 232.675917 198.194511 
L 233.557692 205.412245 
L 234.3135 209.781422 
L 234.943339 212.062198 
L 235.321243 212.819576 
L 235.699147 213.112816 
L 235.951082 213.049519 
L 236.203018 212.779299 
L 236.580922 211.987635 
L 237.084794 210.218642 
L 237.714633 206.887492 
L 238.470441 201.319844 
L 239.352216 192.82371 
L 240.359959 180.804127 
L 241.619638 163.040246 
L 243.635125 130.998848 
L 246.154483 91.687398 
L 247.414162 75.209803 
L 248.421905 64.547679 
L 249.303681 57.432702 
L 250.059488 53.158722 
L 250.56336 51.298861 
L 251.067231 50.253775 
L 251.445135 50.011352 
L 251.697071 50.108558 
L 252.074975 50.641982 
L 252.452878 51.63764 
L 252.95675 53.674005 
L 253.58659 57.328143 
L 254.342397 63.260185 
L 255.224172 72.13903 
L 256.357884 86.219163 
L 257.743531 106.499188 
L 262.908215 185.384451 
L 264.041926 197.783196 
L 264.923701 205.108646 
L 265.679509 209.577785 
L 266.309348 211.945512 
L 266.687252 212.756038 
L 267.065156 213.10279 
L 267.317092 213.075217 
L 267.569027 212.840657 
L 267.946931 212.102162 
L 268.450803 210.402991 
L 269.080642 207.156407 
L 269.83645 201.684496 
L 270.718225 193.289397 
L 271.725968 181.367423 
L 272.985647 163.693094 
L 275.001134 131.707825 
L 277.520492 92.307343 
L 278.780171 75.724406 
L 279.787915 64.954214 
L 280.66969 57.731003 
L 281.425497 53.356748 
L 282.055337 51.071558 
L 282.433241 50.311483 
L 282.811144 50.015528 
L 283.06308 50.077014 
L 283.315016 50.345425 
L 283.69292 51.134395 
L 284.196791 52.899849 
L 284.826631 56.226716 
L 285.582438 61.789519 
L 286.464214 70.280543 
L 287.471957 82.295198 
L 288.731636 100.054569 
L 290.747123 132.093178 
L 293.266481 171.409216 
L 294.52616 187.892184 
L 295.533903 198.559808 
L 296.415678 205.680288 
L 297.171486 209.959361 
L 297.675358 211.822751 
L 298.179229 212.871431 
L 298.557133 213.116569 
L 298.809069 213.021174 
L 299.186972 212.490457 
L 299.564876 211.497482 
L 300.068748 209.464627 
L 300.698587 205.81472 
L 301.454395 199.887439 
L 302.33617 191.013575 
L 303.469881 176.938705 
L 304.855528 156.663012 
L 310.020213 77.770554 
L 311.153924 65.365783 
L 312.035699 58.034884 
L 312.791507 53.560684 
L 313.421346 51.188552 
L 313.79925 50.375332 
L 314.177154 50.025867 
L 314.429089 50.051628 
L 314.681025 50.284379 
L 315.058929 51.020176 
L 315.562801 52.715802 
L 316.19264 55.95809 
L 316.948448 61.425135 
L 317.830223 69.815092 
L 318.837966 81.732091 
L 320.097645 99.401843 
L 322.113132 131.384201 
L 324.63249 170.789119 
L 325.892169 187.377365 
L 326.899912 198.153017 
L 327.781688 205.381703 
L 328.537495 209.761035 
L 329.167335 212.050639 
L 329.545238 212.813411 
L 329.923142 213.11208 
L 330.175078 213.052406 
L 330.427014 212.785803 
L 330.804918 211.999529 
L 331.308789 210.237613 
L 331.938629 206.91503 
L 332.694436 201.357074 
L 333.576212 192.87116 
L 334.583955 180.861436 
L 335.843634 163.106578 
L 337.85912 131.070764 
L 340.378479 91.750147 
L 341.638158 75.261809 
L 342.645901 64.588686 
L 343.527676 57.462705 
L 344.283484 53.178539 
L 344.787355 51.311621 
L 345.291227 50.259348 
L 345.669131 50.011495 
L 345.921067 50.105078 
L 346.29897 50.633087 
L 346.676874 51.62338 
L 347.180746 53.652724 
L 347.810585 57.298399 
L 348.566393 63.220919 
L 349.448168 72.089799 
L 350.581879 86.159405 
L 351.967526 106.430762 
L 357.13221 185.330398 
L 358.265922 197.741194 
L 359.147697 205.077539 
L 359.903504 209.556799 
L 360.533344 211.933336 
L 360.911248 212.749251 
L 361.289151 213.101429 
L 361.541087 213.07748 
L 361.793023 212.846538 
L 362.170927 212.113439 
L 362.674798 210.421358 
L 363.304638 207.183366 
L 364.060445 201.721189 
L 364.942221 193.336375 
L 365.949964 181.424353 
L 367.209643 163.759182 
L 369.22513 131.779742 
L 371.744488 92.370395 
L 373.004167 75.776842 
L 374.01191 64.995733 
L 374.893686 57.761574 
L 375.649493 53.377165 
L 376.279333 51.083149 
L 376.657236 50.31768 
L 377.03514 50.016296 
L 377.287076 50.074158 
L 377.539012 50.338953 
L 377.916915 51.122531 
L 378.420787 52.880909 
L 379.050626 56.199207 
L 379.806434 61.752316 
L 380.688209 70.233118 
L 381.695953 82.237908 
L 382.955632 99.98825 
L 384.971118 132.021263 
L 387.490476 171.346452 
L 388.750155 187.840156 
L 389.757899 198.518775 
L 390.639674 205.650255 
L 391.395482 209.939513 
L 391.899353 211.809959 
L 392.403225 212.865825 
L 392.781129 213.116394 
L 393.033064 213.024623 
L 393.410968 212.499321 
L 393.788872 211.511711 
L 394.292743 209.485877 
L 394.922583 205.844436 
L 395.67839 199.926679 
L 396.560166 191.062782 
L 397.693877 176.998444 
L 399.079524 156.731428 
L 404.244208 77.824628 
L 405.377919 65.407811 
L 406.259695 58.06602 
L 407.015502 53.5817 
L 407.645342 51.200759 
L 408.023245 50.382151 
L 408.401149 50.02726 
L 408.653085 50.049397 
L 408.905021 50.27853 
L 409.282925 51.00893 
L 409.786796 52.697465 
L 410.416636 55.931161 
L 411.172443 61.388469 
L 412.054219 69.768139 
L 413.061962 81.675182 
L 414.321641 99.335768 
L 416.337127 131.312284 
L 418.856486 170.726052 
L 420.116165 187.324908 
L 421.123908 198.111472 
L 422.005683 205.351104 
L 422.761491 209.740587 
L 423.39133 212.039017 
L 423.769234 212.807182 
L 424.147138 213.111281 
L 424.399074 213.05523 
L 424.651009 212.792243 
L 425.028913 212.011361 
L 425.532785 210.256522 
L 426.162624 206.942509 
L 426.918432 201.394249 
L 427.800207 192.918561 
L 428.80795 180.918707 
L 430.067629 163.172885 
L 432.083116 131.142679 
L 434.602474 91.812926 
L 435.862153 75.313859 
L 436.869897 64.629745 
L 437.751672 57.492767 
L 438.507479 53.198418 
L 439.011351 51.324444 
L 439.515223 50.264985 
L 439.893126 50.011701 
L 440.145062 50.101661 
L 440.522966 50.624254 
L 440.90087 51.609182 
L 441.404741 53.631505 
L 442.034581 57.268713 
L 442.790388 63.181705 
L 443.672164 72.040616 
L 444.805875 86.099683 
L 446.191522 106.362355 
L 451.356206 185.276304 
L 452.489917 197.69914 
L 453.371693 205.046375 
L 454.1275 209.535753 
L 454.75734 211.921098 
L 455.135243 212.7424 
L 455.513147 213.100004 
L 455.765083 213.079679 
L 456.017019 212.852355 
L 456.394922 212.124654 
L 456.898794 210.439664 
L 457.528634 207.210266 
L 458.284441 201.757828 
L 459.166216 193.383304 
L 460.17396 181.481243 
L 461.433639 163.825245 
L 463.449125 131.851658 
L 465.968483 92.433477 
L 467.228162 75.829322 
L 468.235906 65.037304 
L 469.117681 57.792202 
L 469.873489 53.397644 
L 470.503328 51.094802 
L 470.881232 50.32394 
L 471.259136 50.017127 
L 471.511071 50.071366 
L 471.763007 50.332544 
L 472.140911 51.110731 
L 472.644783 52.86203 
L 473.274622 56.171758 
L 474.03043 61.715168 
L 474.912205 70.18574 
L 475.919948 82.180656 
L 477.179627 99.921955 
L 479.195114 131.949347 
L 481.714472 171.283657 
L 482.974151 187.788084 
L 483.981894 198.47769 
L 484.86367 205.620165 
L 485.619477 209.919605 
L 486.123349 211.797106 
L 486.62722 212.860157 
L 487.005124 213.116157 
L 487.25706 213.028008 
L 487.508996 212.732992 
L 487.886899 211.904374 
L 488.390771 210.086884 
L 489.020611 206.697052 
L 489.776418 201.063048 
L 490.658193 192.497004 
L 491.665937 180.41005 
L 493.051584 160.674456 
L 495.319006 124.34997 
L 497.460461 91.257883 
L 498.72014 74.854308 
L 499.727883 64.267842 
L 500.609658 57.22848 
L 501.365466 53.024452 
L 501.869337 51.213029 
L 502.373209 50.217252 
L 502.625145 50.028716 
L 502.877081 50.047229 
L 503.129016 50.272744 
L 503.50692 50.997747 
L 504.010792 52.67919 
L 504.640631 55.90429 
L 505.396439 61.351857 
L 506.278214 69.721233 
L 507.285957 81.61831 
L 508.545636 99.269717 
L 510.561123 131.240368 
L 513.080481 170.662954 
L 514.34016 187.272407 
L 515.347904 198.069875 
L 516.229679 205.320447 
L 516.985486 209.720079 
L 517.615326 212.027333 
L 517.99323 212.800891 
L 518.371133 213.110418 
L 518.623069 213.057991 
L 518.875005 212.798621 
L 519.252909 212.02313 
L 519.75678 210.275371 
L 520.38662 206.969929 
L 521.142427 201.43137 
L 522.024203 192.965915 
L 523.031946 180.97594 
L 524.291625 163.239168 
L 526.307112 131.214595 
L 528.82647 91.875737 
L 530.086149 75.365952 
L 531.093892 64.670857 
L 531.975667 57.522886 
L 532.731475 53.218357 
L 533.235347 51.337329 
L 533.739218 50.270685 
L 534.117122 50.01197 
L 534.369058 50.098307 
L 534.620994 50.391516 
L 534.998897 51.217441 
L 535.502769 53.031397 
L 536.132608 56.416955 
L 536.888416 62.046129 
L 537.770191 70.607087 
L 538.777935 82.689144 
L 540.163582 102.419941 
L 542.431004 138.742196 
L 544.572458 171.838838 
L 545.832137 188.247829 
L 546.839881 198.839824 
L 547.721656 205.884708 
L 548.477463 210.09384 
L 548.981335 211.908797 
L 549.485207 212.90817 
L 549.737143 213.098516 
L 549.989078 213.081815 
L 550.241014 212.85811 
L 550.618918 212.135806 
L 551.12279 210.457909 
L 551.752629 207.237107 
L 552.508437 201.794412 
L 553.390212 193.430186 
L 554.397955 181.538095 
L 555.657634 163.891282 
L 557.673121 131.923574 
L 560.192479 92.49659 
L 561.452158 75.881844 
L 562.459901 65.078927 
L 563.341677 57.822887 
L 564.097484 53.418183 
L 564.727324 51.106517 
L 565.105227 50.330263 
L 565.483131 50.018022 
L 565.735067 50.068637 
L 565.987003 50.326198 
L 566.364906 51.098993 
L 566.868778 52.843212 
L 567.498618 56.144367 
L 568.254425 61.678074 
L 569.1362 70.13841 
L 570.143944 82.123443 
L 571.403623 99.855684 
L 573.419109 131.877431 
L 575.938468 171.220831 
L 577.198147 187.735968 
L 578.20589 198.436552 
L 579.087665 205.590017 
L 579.843473 209.899635 
L 580.347344 211.784189 
L 580.851216 212.854425 
L 581.22912 213.115855 
L 581.481056 213.03133 
L 581.732991 212.739929 
L 582.110895 211.916697 
L 582.614767 210.106275 
L 583.244606 206.724991 
L 584.000414 201.100649 
L 584.882189 192.544779 
L 585.889932 180.467621 
L 587.275579 160.741624 
L 589.543002 124.421607 
L 591.684456 91.320418 
L 592.944135 74.906013 
L 593.951878 64.308491 
L 594.833654 57.258088 
L 595.589461 53.043851 
L 596.093333 51.225361 
L 596.597205 50.222392 
L 596.84914 50.030236 
L 597.101076 50.045125 
L 597.353012 50.267021 
L 597.730916 50.986626 
L 598.234787 52.660976 
L 598.738659 55.136275 
L 599.368499 59.317697 
L 600.124306 65.840144 
L 601.006081 75.332523 
L 602.139793 90.053543 
L 602.391728 93.642547 
L 602.391728 93.642547 
" clip-path="url(#pd5590e56dd)" style="fill: none; stroke: #1f77b4; stroke-width: 1.5; stroke-linecap: square"/>
   </g>
   <g id="line2d_28">
    <path d="M 86.553143 131.563992 
L 89.198469 131.451101 
L 92.347667 131.082824 
L 100.031709 130.073977 
L 102.677035 130.012707 
L 105.448329 130.178539 
L 108.849463 130.627413 
L 115.02189 131.483385 
L 117.793184 131.610543 
L 120.43851 131.510913 
L 123.587708 131.153311 
L 131.649654 130.106822 
L 134.29498 130.062388 
L 137.066274 130.244556 
L 140.593376 130.724388 
L 146.261931 131.512562 
L 149.033225 131.65346 
L 151.678552 131.567223 
L 154.701781 131.238313 
L 163.393567 130.131994 
L 166.038893 130.114885 
L 168.810187 130.322761 
L 172.589224 130.859285 
L 177.627941 131.550158 
L 180.399235 131.694394 
L 183.044561 131.611456 
L 186.067791 131.28521 
L 194.885544 130.168362 
L 197.53087 130.157862 
L 200.302164 130.371787 
L 204.081202 130.911904 
L 208.99395 131.585257 
L 211.765244 131.732834 
L 214.41057 131.653214 
L 217.4338 131.32967 
L 226.377521 130.202551 
L 229.022847 130.198675 
L 231.794141 130.418603 
L 235.699147 130.982239 
L 240.359959 131.618005 
L 243.131253 131.768923 
L 245.776579 131.692639 
L 248.799809 131.371836 
L 257.743531 130.240017 
L 260.388857 130.232368 
L 263.160151 130.448845 
L 267.065156 131.010265 
L 271.851936 131.660272 
L 274.62323 131.804277 
L 277.268556 131.721134 
L 280.291786 131.394544 
L 289.10954 130.275445 
L 291.754866 130.264034 
L 294.52616 130.477056 
L 298.305197 131.016197 
L 303.217946 131.688849 
L 305.98924 131.836228 
L 308.634566 131.756436 
L 311.657795 131.432589 
L 320.601517 130.303294 
L 323.246843 130.29854 
L 326.018137 130.517602 
L 329.923142 131.080292 
L 334.583955 131.715458 
L 337.355249 131.86621 
L 340.000575 131.789786 
L 343.023805 131.468718 
L 351.967526 130.334836 
L 354.612852 130.326339 
L 357.384146 130.54198 
L 361.163183 131.082471 
L 366.075932 131.75194 
L 368.847226 131.895812 
L 371.492552 131.812557 
L 374.515782 131.485731 
L 383.333535 130.364689 
L 385.978861 130.352459 
L 388.750155 130.564672 
L 392.529193 131.102967 
L 397.441941 131.775082 
L 400.213235 131.922356 
L 402.858561 131.84248 
L 405.881791 131.518432 
L 414.825513 130.387255 
L 417.470839 130.381708 
L 420.242133 130.599994 
L 424.147138 131.161862 
L 428.80795 131.796576 
L 431.579244 131.94725 
L 434.22457 131.870769 
L 437.2478 131.54953 
L 446.31749 130.40847 
L 448.962816 130.409617 
L 451.73411 130.633923 
L 455.639115 131.199213 
L 460.299928 131.828241 
L 463.071221 131.972062 
L 465.716548 131.888773 
L 468.739777 131.561801 
L 477.557531 130.439072 
L 480.202857 130.426098 
L 482.974151 130.637583 
L 486.753188 131.175137 
L 491.665937 131.846853 
L 494.437231 131.9941 
L 497.082557 131.914215 
L 500.105787 131.590047 
L 509.049508 130.457235 
L 511.694834 130.450967 
L 514.466128 130.66855 
L 518.371133 131.229701 
L 523.031946 131.864085 
L 525.80324 132.014754 
L 528.448566 131.938285 
L 531.471796 131.616956 
L 540.541485 130.474307 
L 543.186811 130.474754 
L 545.958105 130.698383 
L 549.86311 131.262994 
L 554.523923 131.891738 
L 557.295217 132.035578 
L 559.940543 131.95232 
L 562.963773 131.625275 
L 571.781527 130.501074 
L 574.426853 130.48742 
L 577.198147 130.698242 
L 580.977184 131.235145 
L 585.889932 131.906577 
L 588.661226 132.053861 
L 591.306552 131.974027 
L 594.329782 131.649811 
L 602.391728 130.565812 
L 602.391728 130.565812 
" clip-path="url(#pd5590e56dd)" style="fill: none; stroke: #ff7f0e; stroke-width: 1.5; stroke-linecap: square"/>
   </g>
   <g id="patch_3">
    <path d="M 60.761214 221.272 
L 60.761214 41.856 
" style="fill: none; stroke: #000000; stroke-width: 0.8; stroke-linejoin: miter; stroke-linecap: square"/>
   </g>
   <g id="patch_4">
    <path d="M 628.183658 221.272 
L 628.183658 41.856 
" style="fill: none; stroke: #000000; stroke-width: 0.8; stroke-linejoin: miter; stroke-linecap: square"/>
   </g>
   <g id="patch_5">
    <path d="M 60.761214 221.272 
L 628.183658 221.272 
" style="fill: none; stroke: #000000; stroke-width: 0.8; stroke-linejoin: miter; stroke-linecap: square"/>
   </g>
   <g id="patch_6">
    <path d="M 60.761214 41.856 
L 628.183658 41.856 
" style="fill: none; stroke: #000000; stroke-width: 0.8; stroke-linejoin: miter; stroke-linecap: square"/>
   </g>
   <g id="text_16">
    <!-- Daily Useless RL (2026-04-04) | verdict: feral -->
    <g transform="translate(209.578373 22.021875) scale(0.12 -0.12)">
     <defs>
      <path id="DejaVuSans-44" d="M 1259 4147 
L 1259 519 
L 2022 519 
Q 2988 519 3436 956 
Q 3884 1394 3884 2338 
Q 3884 3275 3436 3711 
Q 2988 4147 2022 4147 
L 1259 4147 
z
M 628 4666 
L 1925 4666 
Q 3281 4666 3915 4102 
Q 4550 3538 4550 2338 
Q 4550 1131 3912 565 
Q 3275 0 1925 0 
L 628 0 
L 628 4666 
z
" transform="scale(0.015625)"/>
      <path id="DejaVuSans-69" d="M 603 3500 
L 1178 3500 
L 1178 0 
L 603 0 
L 603 3500 
z
M 603 4863 
L 1178 4863 
L 1178 4134 
L 603 4134 
L 603 4863 
z
" transform="scale(0.015625)"/>
      <path id="DejaVuSans-6c" d="M 603 4863 
L 1178 4863 
L 1178 0 
L 603 0 
L 603 4863 
z
" transform="scale(0.015625)"/>
      <path id="DejaVuSans-79" d="M 2059 -325 
Q 1816 -950 1584 -1140 
Q 1353 -1331 966 -1331 
L 506 -1331 
L 506 -850 
L 844 -850 
Q 1081 -850 1212 -737 
Q 1344 -625 1503 -206 
L 1606 56 
L 191 3500 
L 800 3500 
L 1894 763 
L 2988 3500 
L 3597 3500 
L 2059 -325 
z
" transform="scale(0.015625)"/>
      <path id="DejaVuSans-55" d="M 556 4666 
L 1191 4666 
L 1191 1831 
Q 1191 1081 1462 751 
Q 1734 422 2344 422 
Q 2950 422 3222 751 
Q 3494 1081 3494 1831 
L 3494 4666 
L 4128 4666 
L 4128 1753 
Q 4128 841 3676 375 
Q 3225 -91 2344 -91 
Q 1459 -91 1007 375 
Q 556 841 556 1753 
L 556 4666 
z
" transform="scale(0.015625)"/>
      <path id="DejaVuSans-73" d="M 2834 3397 
L 2834 2853 
Q 2591 2978 2328 3040 
Q 2066 3103 1784 3103 
Q 1356 3103 1142 2972 
Q 928 2841 928 2578 
Q 928 2378 1081 2264 
Q 1234 2150 1697 2047 
L 1894 2003 
Q 2506 1872 2764 1633 
Q 3022 1394 3022 966 
Q 3022 478 2636 193 
Q 2250 -91 1575 -91 
Q 1294 -91 989 -36 
Q 684 19 347 128 
L 347 722 
Q 666 556 975 473 
Q 1284 391 1588 391 
Q 1994 391 2212 530 
Q 2431 669 2431 922 
Q 2431 1156 2273 1281 
Q 2116 1406 1581 1522 
L 1381 1569 
Q 847 1681 609 1914 
Q 372 2147 372 2553 
Q 372 3047 722 3315 
Q 1072 3584 1716 3584 
Q 2034 3584 2315 3537 
Q 2597 3491 2834 3397 
z
" transform="scale(0.015625)"/>
      <path id="DejaVuSans-65" d="M 3597 1894 
L 3597 1613 
L 953 1613 
Q 991 1019 1311 708 
Q 1631 397 2203 397 
Q 2534 397 2845 478 
Q 3156 559 3463 722 
L 3463 178 
Q 3153 47 2828 -22 
Q 2503 -91 2169 -91 
Q 1331 -91 842 396 
Q 353 884 353 1716 
Q 353 2575 817 3079 
Q 1281 3584 2069 3584 
Q 2775 3584 3186 3129 
Q 3597 2675 3597 1894 
z
M 3022 2063 
Q 3016 2534 2758 2815 
Q 2500 3097 2075 3097 
Q 1594 3097 1305 2825 
Q 1016 2553 972 2059 
L 3022 2063 
z
" transform="scale(0.015625)"/>
      <path id="DejaVuSans-52" d="M 2841 2188 
Q 3044 2119 3236 1894 
Q 3428 1669 3622 1275 
L 4263 0 
L 3584 0 
L 2988 1197 
Q 2756 1666 2539 1819 
Q 2322 1972 1947 1972 
L 1259 1972 
L 1259 0 
L 628 0 
L 628 4666 
L 2053 4666 
Q 2853 4666 3247 4331 
Q 3641 3997 3641 3322 
Q 3641 2881 3436 2590 
Q 3231 2300 2841 2188 
z
M 1259 4147 
L 1259 2491 
L 2053 2491 
Q 2509 2491 2742 2702 
Q 2975 2913 2975 3322 
Q 2975 3731 2742 3939 
Q 2509 4147 2053 4147 
L 1259 4147 
z
" transform="scale(0.015625)"/>
      <path id="DejaVuSans-4c" d="M 628 4666 
L 1259 4666 
L 1259 531 
L 3531 531 
L 3531 0 
L 628 0 
L 628 4666 
z
" transform="scale(0.015625)"/>
      <path id="DejaVuSans-28" d="M 1984 4856 
Q 1566 4138 1362 3434 
Q 1159 2731 1159 2009 
Q 1159 1288 1364 580 
Q 1569 -128 1984 -844 
L 1484 -844 
Q 1016 -109 783 600 
Q 550 1309 550 2009 
Q 550 2706 781 3412 
Q 1013 4119 1484 4856 
L 1984 4856 
z
" transform="scale(0.015625)"/>
      <path id="DejaVuSans-2d" d="M 313 2009 
L 1997 2009 
L 1997 1497 
L 313 1497 
L 313 2009 
z
" transform="scale(0.015625)"/>
      <path id="DejaVuSans-29" d="M 513 4856 
L 1013 4856 
Q 1481 4119 1714 3412 
Q 1947 2706 1947 2009 
Q 1947 1309 1714 600 
Q 1481 -109 1013 -844 
L 513 -844 
Q 928 -128 1133 580 
Q 1338 1288 1338 2009 
Q 1338 2731 1133 3434 
Q 928 4138 513 4856 
z
" transform="scale(0.015625)"/>
      <path id="DejaVuSans-7c" d="M 1344 4891 
L 1344 -1509 
L 813 -1509 
L 813 4891 
L 1344 4891 
z
" transform="scale(0.015625)"/>
      <path id="DejaVuSans-76" d="M 191 3500 
L 800 3500 
L 1894 563 
L 2988 3500 
L 3597 3500 
L 2284 0 
L 1503 0 
L 191 3500 
z
" transform="scale(0.015625)"/>
      <path id="DejaVuSans-64" d="M 2906 2969 
L 2906 4863 
L 3481 4863 
L 3481 0 
L 2906 0 
L 2906 525 
Q 2725 213 2448 61 
Q 2172 -91 1784 -91 
Q 1150 -91 751 415 
Q 353 922 353 1747 
Q 353 2572 751 3078 
Q 1150 3584 1784 3584 
Q 2172 3584 2448 3432 
Q 2725 3281 2906 2969 
z
M 947 1747 
Q 947 1113 1208 752 
Q 1469 391 1925 391 
Q 2381 391 2643 752 
Q 2906 1113 2906 1747 
Q 2906 2381 2643 2742 
Q 2381 3103 1925 3103 
Q 1469 3103 1208 2742 
Q 947 2381 947 1747 
z
" transform="scale(0.015625)"/>
      <path id="DejaVuSans-63" d="M 3122 3366 
L 3122 2828 
Q 2878 2963 2633 3030 
Q 2388 3097 2138 3097 
Q 1578 3097 1268 2742 
Q 959 2388 959 1747 
Q 959 1106 1268 751 
Q 1578 397 2138 397 
Q 2388 397 2633 464 
Q 2878 531 3122 666 
L 3122 134 
Q 2881 22 2623 -34 
Q 2366 -91 2075 -91 
Q 1284 -91 818 406 
Q 353 903 353 1747 
Q 353 2603 823 3093 
Q 1294 3584 2113 3584 
Q 2378 3584 2631 3529 
Q 2884 3475 3122 3366 
z
" transform="scale(0.015625)"/>
      <path id="DejaVuSans-3a" d="M 750 794 
L 1409 794 
L 1409 0 
L 750 0 
L 750 794 
z
M 750 3309 
L 1409 3309 
L 1409 2516 
L 750 2516 
L 750 3309 
z
" transform="scale(0.015625)"/>
      <path id="DejaVuSans-66" d="M 2375 4863 
L 2375 4384 
L 1825 4384 
Q 1516 4384 1395 4259 
Q 1275 4134 1275 3809 
L 1275 3500 
L 2222 3500 
L 2222 3053 
L 1275 3053 
L 1275 0 
L 697 0 
L 697 3053 
L 147 3053 
L 147 3500 
L 697 3500 
L 697 3744 
Q 697 4328 969 4595 
Q 1241 4863 1831 4863 
L 2375 4863 
z
" transform="scale(0.015625)"/>
     </defs>
     <use xlink:href="#DejaVuSans-44"/>
     <use xlink:href="#DejaVuSans-61" transform="translate(77.001953 0)"/>
     <use xlink:href="#DejaVuSans-69" transform="translate(138.28125 0)"/>
     <use xlink:href="#DejaVuSans-6c" transform="translate(166.064453 0)"/>
     <use xlink:href="#DejaVuSans-79" transform="translate(193.847656 0)"/>
     <use xlink:href="#DejaVuSans-20" transform="translate(253.027344 0)"/>
     <use xlink:href="#DejaVuSans-55" transform="translate(284.814453 0)"/>
     <use xlink:href="#DejaVuSans-73" transform="translate(358.007812 0)"/>
     <use xlink:href="#DejaVuSans-65" transform="translate(410.107422 0)"/>
     <use xlink:href="#DejaVuSans-6c" transform="translate(471.630859 0)"/>
     <use xlink:href="#DejaVuSans-65" transform="translate(499.414062 0)"/>
     <use xlink:href="#DejaVuSans-73" transform="translate(560.9375 0)"/>
     <use xlink:href="#DejaVuSans-73" transform="translate(613.037109 0)"/>
     <use xlink:href="#DejaVuSans-20" transform="translate(665.136719 0)"/>
     <use xlink:href="#DejaVuSans-52" transform="translate(696.923828 0)"/>
     <use xlink:href="#DejaVuSans-4c" transform="translate(766.40625 0)"/>
     <use xlink:href="#DejaVuSans-20" transform="translate(822.119141 0)"/>
     <use xlink:href="#DejaVuSans-28" transform="translate(853.90625 0)"/>
     <use xlink:href="#DejaVuSans-32" transform="translate(892.919922 0)"/>
     <use xlink:href="#DejaVuSans-30" transform="translate(956.542969 0)"/>
     <use xlink:href="#DejaVuSans-32" transform="translate(1020.166016 0)"/>
     <use xlink:href="#DejaVuSans-36" transform="translate(1083.789062 0)"/>
     <use xlink:href="#DejaVuSans-2d" transform="translate(1147.412109 0)"/>
     <use xlink:href="#DejaVuSans-30" transform="translate(1183.496094 0)"/>
     <use xlink:href="#DejaVuSans-34" transform="translate(1247.119141 0)"/>
     <use xlink:href="#DejaVuSans-2d" transform="translate(1310.742188 0)"/>
     <use xlink:href="#DejaVuSans-30" transform="translate(1346.826172 0)"/>
     <use xlink:href="#DejaVuSans-34" transform="translate(1410.449219 0)"/>
     <use xlink:href="#DejaVuSans-29" transform="translate(1474.072266 0)"/>
     <use xlink:href="#DejaVuSans-20" transform="translate(1513.085938 0)"/>
     <use xlink:href="#DejaVuSans-7c" transform="translate(1544.873047 0)"/>
     <use xlink:href="#DejaVuSans-20" transform="translate(1578.564453 0)"/>
     <use xlink:href="#DejaVuSans-76" transform="translate(1610.351562 0)"/>
     <use xlink:href="#DejaVuSans-65" transform="translate(1669.53125 0)"/>
     <use xlink:href="#DejaVuSans-72" transform="translate(1731.054688 0)"/>
     <use xlink:href="#DejaVuSans-64" transform="translate(1770.417969 0)"/>
     <use xlink:href="#DejaVuSans-69" transform="translate(1833.894531 0)"/>
     <use xlink:href="#DejaVuSans-63" transform="translate(1861.677734 0)"/>
     <use xlink:href="#DejaVuSans-74" transform="translate(1916.658203 0)"/>
     <use xlink:href="#DejaVuSans-3a" transform="translate(1955.867188 0)"/>
     <use xlink:href="#DejaVuSans-20" transform="translate(1989.558594 0)"/>
     <use xlink:href="#DejaVuSans-66" transform="translate(2021.345703 0)"/>
     <use xlink:href="#DejaVuSans-65" transform="translate(2056.550781 0)"/>
     <use xlink:href="#DejaVuSans-72" transform="translate(2118.074219 0)"/>
     <use xlink:href="#DejaVuSans-61" transform="translate(2159.1875 0)"/>
     <use xlink:href="#DejaVuSans-6c" transform="translate(2220.466797 0)"/>
    </g>
    <!-- Filter: low | Input: sine, sine (A=1.48, f=1.64 Hz) | R=0.50, L=5.00, τ=10.00 -->
    <g transform="translate(115.329623 35.856) scale(0.12 -0.12)">
     <defs>
      <path id="DejaVuSans-46" d="M 628 4666 
L 3309 4666 
L 3309 4134 
L 1259 4134 
L 1259 2759 
L 3109 2759 
L 3109 2228 
L 1259 2228 
L 1259 0 
L 628 0 
L 628 4666 
z
" transform="scale(0.015625)"/>
      <path id="DejaVuSans-6f" d="M 1959 3097 
Q 1497 3097 1228 2736 
Q 959 2375 959 1747 
Q 959 1119 1226 758 
Q 1494 397 1959 397 
Q 2419 397 2687 759 
Q 2956 1122 2956 1747 
Q 2956 2369 2687 2733 
Q 2419 3097 1959 3097 
z
M 1959 3584 
Q 2709 3584 3137 3096 
Q 3566 2609 3566 1747 
Q 3566 888 3137 398 
Q 2709 -91 1959 -91 
Q 1206 -91 779 398 
Q 353 888 353 1747 
Q 353 2609 779 3096 
Q 1206 3584 1959 3584 
z
" transform="scale(0.015625)"/>
      <path id="DejaVuSans-77" d="M 269 3500 
L 844 3500 
L 1563 769 
L 2278 3500 
L 2956 3500 
L 3675 769 
L 4391 3500 
L 4966 3500 
L 4050 0 
L 3372 0 
L 2619 2869 
L 1863 0 
L 1184 0 
L 269 3500 
z
" transform="scale(0.015625)"/>
      <path id="DejaVuSans-49" d="M 628 4666 
L 1259 4666 
L 1259 0 
L 628 0 
L 628 4666 
z
" transform="scale(0.015625)"/>
      <path id="DejaVuSans-6e" d="M 3513 2113 
L 3513 0 
L 2938 0 
L 2938 2094 
Q 2938 2591 2744 2837 
Q 2550 3084 2163 3084 
Q 1697 3084 1428 2787 
Q 1159 2491 1159 1978 
L 1159 0 
L 581 0 
L 581 3500 
L 1159 3500 
L 1159 2956 
Q 1366 3272 1645 3428 
Q 1925 3584 2291 3584 
Q 2894 3584 3203 3211 
Q 3513 2838 3513 2113 
z
" transform="scale(0.015625)"/>
      <path id="DejaVuSans-70" d="M 1159 525 
L 1159 -1331 
L 581 -1331 
L 581 3500 
L 1159 3500 
L 1159 2969 
Q 1341 3281 1617 3432 
Q 1894 3584 2278 3584 
Q 2916 3584 3314 3078 
Q 3713 2572 3713 1747 
Q 3713 922 3314 415 
Q 2916 -91 2278 -91 
Q 1894 -91 1617 61 
Q 1341 213 1159 525 
z
M 3116 1747 
Q 3116 2381 2855 2742 
Q 2594 3103 2138 3103 
Q 1681 3103 1420 2742 
Q 1159 2381 1159 1747 
Q 1159 1113 1420 752 
Q 1681 391 2138 391 
Q 2594 391 2855 752 
Q 3116 1113 3116 1747 
z
" transform="scale(0.015625)"/>
      <path id="DejaVuSans-75" d="M 544 1381 
L 544 3500 
L 1119 3500 
L 1119 1403 
Q 1119 906 1312 657 
Q 1506 409 1894 409 
Q 2359 409 2629 706 
Q 2900 1003 2900 1516 
L 2900 3500 
L 3475 3500 
L 3475 0 
L 2900 0 
L 2900 538 
Q 2691 219 2414 64 
Q 2138 -91 1772 -91 
Q 1169 -91 856 284 
Q 544 659 544 1381 
z
M 1991 3584 
L 1991 3584 
z
" transform="scale(0.015625)"/>
      <path id="DejaVuSans-2c" d="M 750 794 
L 1409 794 
L 1409 256 
L 897 -744 
L 494 -744 
L 750 256 
L 750 794 
z
" transform="scale(0.015625)"/>
      <path id="DejaVuSans-41" d="M 2188 4044 
L 1331 1722 
L 3047 1722 
L 2188 4044 
z
M 1831 4666 
L 2547 4666 
L 4325 0 
L 3669 0 
L 3244 1197 
L 1141 1197 
L 716 0 
L 50 0 
L 1831 4666 
z
" transform="scale(0.015625)"/>
      <path id="DejaVuSans-3d" d="M 678 2906 
L 4684 2906 
L 4684 2381 
L 678 2381 
L 678 2906 
z
M 678 1631 
L 4684 1631 
L 4684 1100 
L 678 1100 
L 678 1631 
z
" transform="scale(0.015625)"/>
      <path id="DejaVuSans-48" d="M 628 4666 
L 1259 4666 
L 1259 2753 
L 3553 2753 
L 3553 4666 
L 4184 4666 
L 4184 0 
L 3553 0 
L 3553 2222 
L 1259 2222 
L 1259 0 
L 628 0 
L 628 4666 
z
" transform="scale(0.015625)"/>
      <path id="DejaVuSans-7a" d="M 353 3500 
L 3084 3500 
L 3084 2975 
L 922 459 
L 3084 459 
L 3084 0 
L 275 0 
L 275 525 
L 2438 3041 
L 353 3041 
L 353 3500 
z
" transform="scale(0.015625)"/>
      <path id="DejaVuSans-3c4" d="M 2319 638 
Q 2431 488 2769 488 
L 3047 488 
L 3047 0 
L 2700 0 
Q 2138 0 1881 300 
Q 1625 606 1625 1269 
L 1625 2925 
L 313 2925 
L 313 3500 
L 3541 3500 
L 3541 2925 
L 2213 2925 
L 2213 1234 
Q 2213 781 2319 638 
z
" transform="scale(0.015625)"/>
     </defs>
     <use xlink:href="#DejaVuSans-46"/>
     <use xlink:href="#DejaVuSans-69" transform="translate(50.269531 0)"/>
     <use xlink:href="#DejaVuSans-6c" transform="translate(78.052734 0)"/>
     <use xlink:href="#DejaVuSans-74" transform="translate(105.835938 0)"/>
     <use xlink:href="#DejaVuSans-65" transform="translate(145.044922 0)"/>
     <use xlink:href="#DejaVuSans-72" transform="translate(206.568359 0)"/>
     <use xlink:href="#DejaVuSans-3a" transform="translate(245.931641 0)"/>
     <use xlink:href="#DejaVuSans-20" transform="translate(279.623047 0)"/>
     <use xlink:href="#DejaVuSans-6c" transform="translate(311.410156 0)"/>
     <use xlink:href="#DejaVuSans-6f" transform="translate(339.193359 0)"/>
     <use xlink:href="#DejaVuSans-77" transform="translate(400.375 0)"/>
     <use xlink:href="#DejaVuSans-20" transform="translate(482.162109 0)"/>
     <use xlink:href="#DejaVuSans-7c" transform="translate(513.949219 0)"/>
     <use xlink:href="#DejaVuSans-20" transform="translate(547.640625 0)"/>
     <use xlink:href="#DejaVuSans-49" transform="translate(579.427734 0)"/>
     <use xlink:href="#DejaVuSans-6e" transform="translate(608.919922 0)"/>
     <use xlink:href="#DejaVuSans-70" transform="translate(672.298828 0)"/>
     <use xlink:href="#DejaVuSans-75" transform="translate(735.775391 0)"/>
     <use xlink:href="#DejaVuSans-74" transform="translate(799.154297 0)"/>
     <use xlink:href="#DejaVuSans-3a" transform="translate(838.363281 0)"/>
     <use xlink:href="#DejaVuSans-20" transform="translate(872.054688 0)"/>
     <use xlink:href="#DejaVuSans-73" transform="translate(903.841797 0)"/>
     <use xlink:href="#DejaVuSans-69" transform="translate(955.941406 0)"/>
     <use xlink:href="#DejaVuSans-6e" transform="translate(983.724609 0)"/>
     <use xlink:href="#DejaVuSans-65" transform="translate(1047.103516 0)"/>
     <use xlink:href="#DejaVuSans-2c" transform="translate(1108.626953 0)"/>
     <use xlink:href="#DejaVuSans-20" transform="translate(1140.414062 0)"/>
     <use xlink:href="#DejaVuSans-73" transform="translate(1172.201172 0)"/>
     <use xlink:href="#DejaVuSans-69" transform="translate(1224.300781 0)"/>
     <use xlink:href="#DejaVuSans-6e" transform="translate(1252.083984 0)"/>
     <use xlink:href="#DejaVuSans-65" transform="translate(1315.462891 0)"/>
     <use xlink:href="#DejaVuSans-20" transform="translate(1376.986328 0)"/>
     <use xlink:href="#DejaVuSans-28" transform="translate(1408.773438 0)"/>
     <use xlink:href="#DejaVuSans-41" transform="translate(1447.787109 0)"/>
     <use xlink:href="#DejaVuSans-3d" transform="translate(1516.195312 0)"/>
     <use xlink:href="#DejaVuSans-31" transform="translate(1599.984375 0)"/>
     <use xlink:href="#DejaVuSans-2e" transform="translate(1663.607422 0)"/>
     <use xlink:href="#DejaVuSans-34" transform="translate(1695.394531 0)"/>
     <use xlink:href="#DejaVuSans-38" transform="translate(1759.017578 0)"/>
     <use xlink:href="#DejaVuSans-2c" transform="translate(1822.640625 0)"/>
     <use xlink:href="#DejaVuSans-20" transform="translate(1854.427734 0)"/>
     <use xlink:href="#DejaVuSans-66" transform="translate(1886.214844 0)"/>
     <use xlink:href="#DejaVuSans-3d" transform="translate(1921.419922 0)"/>
     <use xlink:href="#DejaVuSans-31" transform="translate(2005.208984 0)"/>
     <use xlink:href="#DejaVuSans-2e" transform="translate(2068.832031 0)"/>
     <use xlink:href="#DejaVuSans-36" transform="translate(2100.619141 0)"/>
     <use xlink:href="#DejaVuSans-34" transform="translate(2164.242188 0)"/>
     <use xlink:href="#DejaVuSans-20" transform="translate(2227.865234 0)"/>
     <use xlink:href="#DejaVuSans-48" transform="translate(2259.652344 0)"/>
     <use xlink:href="#DejaVuSans-7a" transform="translate(2334.847656 0)"/>
     <use xlink:href="#DejaVuSans-29" transform="translate(2387.337891 0)"/>
     <use xlink:href="#DejaVuSans-20" transform="translate(2426.351562 0)"/>
     <use xlink:href="#DejaVuSans-7c" transform="translate(2458.138672 0)"/>
     <use xlink:href="#DejaVuSans-20" transform="translate(2491.830078 0)"/>
     <use xlink:href="#DejaVuSans-52" transform="translate(2523.617188 0)"/>
     <use xlink:href="#DejaVuSans-3d" transform="translate(2593.099609 0)"/>
     <use xlink:href="#DejaVuSans-30" transform="translate(2676.888672 0)"/>
     <use xlink:href="#DejaVuSans-2e" transform="translate(2740.511719 0)"/>
     <use xlink:href="#DejaVuSans-35" transform="translate(2772.298828 0)"/>
     <use xlink:href="#DejaVuSans-30" transform="translate(2835.921875 0)"/>
     <use xlink:href="#DejaVuSans-2c" transform="translate(2899.544922 0)"/>
     <use xlink:href="#DejaVuSans-20" transform="translate(2931.332031 0)"/>
     <use xlink:href="#DejaVuSans-4c" transform="translate(2963.119141 0)"/>
     <use xlink:href="#DejaVuSans-3d" transform="translate(3018.832031 0)"/>
     <use xlink:href="#DejaVuSans-35" transform="translate(3102.621094 0)"/>
     <use xlink:href="#DejaVuSans-2e" transform="translate(3166.244141 0)"/>
     <use xlink:href="#DejaVuSans-30" transform="translate(3198.03125 0)"/>
     <use xlink:href="#DejaVuSans-30" transform="translate(3261.654297 0)"/>
     <use xlink:href="#DejaVuSans-2c" transform="translate(3325.277344 0)"/>
     <use xlink:href="#DejaVuSans-20" transform="translate(3357.064453 0)"/>
     <use xlink:href="#DejaVuSans-3c4" transform="translate(3388.851562 0)"/>
     <use xlink:href="#DejaVuSans-3d" transform="translate(3449.056641 0)"/>
     <use xlink:href="#DejaVuSans-31" transform="translate(3532.845703 0)"/>
     <use xlink:href="#DejaVuSans-30" transform="translate(3596.46875 0)"/>
     <use xlink:href="#DejaVuSans-2e" transform="translate(3660.091797 0)"/>
     <use xlink:href="#DejaVuSans-30" transform="translate(3691.878906 0)"/>
     <use xlink:href="#DejaVuSans-30" transform="translate(3755.501953 0)"/>
    </g>
   </g>
   <g id="legend_1">
    <g id="patch_7">
     <path d="M 67.761214 216.272 
L 132.744026 216.272 
Q 134.744026 216.272 134.744026 214.272 
L 134.744026 185.91575 
Q 134.744026 183.91575 132.744026 183.91575 
L 67.761214 183.91575 
Q 65.761214 183.91575 65.761214 185.91575 
L 65.761214 214.272 
Q 65.761214 216.272 67.761214 216.272 
z
" style="fill: #ffffff; opacity: 0.8; stroke: #cccccc; stroke-linejoin: miter"/>
    </g>
    <g id="line2d_29">
     <path d="M 69.761214 192.014187 
L 79.761214 192.014187 
L 89.761214 192.014187 
" style="fill: none; stroke: #1f77b4; stroke-width: 1.5; stroke-linecap: square"/>
    </g>
    <g id="text_17">
     <!-- input -->
     <g transform="translate(97.761214 195.514187) scale(0.1 -0.1)">
      <use xlink:href="#DejaVuSans-69"/>
      <use xlink:href="#DejaVuSans-6e" transform="translate(27.783203 0)"/>
      <use xlink:href="#DejaVuSans-70" transform="translate(91.162109 0)"/>
      <use xlink:href="#DejaVuSans-75" transform="translate(154.638672 0)"/>
      <use xlink:href="#DejaVuSans-74" transform="translate(218.017578 0)"/>
     </g>
    </g>
    <g id="line2d_30">
     <path d="M 69.761214 206.692313 
L 79.761214 206.692313 
L 89.761214 206.692313 
" style="fill: none; stroke: #ff7f0e; stroke-width: 1.5; stroke-linecap: square"/>
    </g>
    <g id="text_18">
     <!-- output -->
     <g transform="translate(97.761214 210.192313) scale(0.1 -0.1)">
      <use xlink:href="#DejaVuSans-6f"/>
      <use xlink:href="#DejaVuSans-75" transform="translate(61.181641 0)"/>
      <use xlink:href="#DejaVuSans-74" transform="translate(124.560547 0)"/>
      <use xlink:href="#DejaVuSans-70" transform="translate(163.769531 0)"/>
      <use xlink:href="#DejaVuSans-75" transform="translate(227.246094 0)"/>
      <use xlink:href="#DejaVuSans-74" transform="translate(290.625 0)"/>
     </g>
    </g>
   </g>
  </g>
  <g id="axes_2">
   <g id="patch_8">
    <path d="M 60.761214 458.728 
L 628.183658 458.728 
L 628.183658 279.312 
L 60.761214 279.312 
z
" style="fill: #ffffff"/>
   </g>
   <g id="matplotlib.axis_3">
    <g id="xtick_7">
     <g id="line2d_31">
      <path d="M 60.761214 458.728 
L 60.761214 279.312 
" clip-path="url(#p78e7e02080)" style="fill: none; stroke: #b0b0b0; stroke-opacity: 0.25; stroke-width: 0.8; stroke-linecap: square"/>
     </g>
     <g id="line2d_32">
      <g>
       <use xlink:href="#me6865c1996" x="60.761214" y="458.728" style="stroke: #000000; stroke-width: 0.8"/>
      </g>
     </g>
     <g id="text_19">
      <!-- $\mathdefault{10^{-1}}$ -->
      <g transform="translate(49.011214 473.326438) scale(0.1 -0.1)">
       <use xlink:href="#DejaVuSans-31" transform="translate(0 0.684375)"/>
       <use xlink:href="#DejaVuSans-30" transform="translate(63.623047 0.684375)"/>
       <use xlink:href="#DejaVuSans-2212" transform="translate(128.203125 38.965625) scale(0.7)"/>
       <use xlink:href="#DejaVuSans-31" transform="translate(186.855469 38.965625) scale(0.7)"/>
      </g>
     </g>
    </g>
    <g id="xtick_8">
     <g id="line2d_33">
      <path d="M 344.472436 458.728 
L 344.472436 279.312 
" clip-path="url(#p78e7e02080)" style="fill: none; stroke: #b0b0b0; stroke-opacity: 0.25; stroke-width: 0.8; stroke-linecap: square"/>
     </g>
     <g id="line2d_34">
      <g>
       <use xlink:href="#me6865c1996" x="344.472436" y="458.728" style="stroke: #000000; stroke-width: 0.8"/>
      </g>
     </g>
     <g id="text_20">
      <!-- $\mathdefault{10^{0}}$ -->
      <g transform="translate(335.672436 473.326438) scale(0.1 -0.1)">
       <use xlink:href="#DejaVuSans-31" transform="translate(0 0.765625)"/>
       <use xlink:href="#DejaVuSans-30" transform="translate(63.623047 0.765625)"/>
       <use xlink:href="#DejaVuSans-30" transform="translate(128.203125 39.046875) scale(0.7)"/>
      </g>
     </g>
    </g>
    <g id="xtick_9">
     <g id="line2d_35">
      <path d="M 628.183658 458.728 
L 628.183658 279.312 
" clip-path="url(#p78e7e02080)" style="fill: none; stroke: #b0b0b0; stroke-opacity: 0.25; stroke-width: 0.8; stroke-linecap: square"/>
     </g>
     <g id="line2d_36">
      <g>
       <use xlink:href="#me6865c1996" x="628.183658" y="458.728" style="stroke: #000000; stroke-width: 0.8"/>
      </g>
     </g>
     <g id="text_21">
      <!-- $\mathdefault{10^{1}}$ -->
      <g transform="translate(619.383658 473.326438) scale(0.1 -0.1)">
       <use xlink:href="#DejaVuSans-31" transform="translate(0 0.684375)"/>
       <use xlink:href="#DejaVuSans-30" transform="translate(63.623047 0.684375)"/>
       <use xlink:href="#DejaVuSans-31" transform="translate(128.203125 38.965625) scale(0.7)"/>
      </g>
     </g>
    </g>
    <g id="xtick_10">
     <g id="line2d_37">
      <defs>
       <path id="ma2f1149a32" d="M 0 0 
L 0 2 
" style="stroke: #000000; stroke-width: 0.6"/>
      </defs>
      <g>
       <use xlink:href="#ma2f1149a32" x="146.166802" y="458.728" style="stroke: #000000; stroke-width: 0.6"/>
      </g>
     </g>
    </g>
    <g id="xtick_11">
     <g id="line2d_38">
      <g>
       <use xlink:href="#ma2f1149a32" x="196.125868" y="458.728" style="stroke: #000000; stroke-width: 0.6"/>
      </g>
     </g>
    </g>
    <g id="xtick_12">
     <g id="line2d_39">
      <g>
       <use xlink:href="#ma2f1149a32" x="231.572389" y="458.728" style="stroke: #000000; stroke-width: 0.6"/>
      </g>
     </g>
    </g>
    <g id="xtick_13">
     <g id="line2d_40">
      <g>
       <use xlink:href="#ma2f1149a32" x="259.066848" y="458.728" style="stroke: #000000; stroke-width: 0.6"/>
      </g>
     </g>
    </g>
    <g id="xtick_14">
     <g id="line2d_41">
      <g>
       <use xlink:href="#ma2f1149a32" x="281.531456" y="458.728" style="stroke: #000000; stroke-width: 0.6"/>
      </g>
     </g>
    </g>
    <g id="xtick_15">
     <g id="line2d_42">
      <g>
       <use xlink:href="#ma2f1149a32" x="300.525011" y="458.728" style="stroke: #000000; stroke-width: 0.6"/>
      </g>
     </g>
    </g>
    <g id="xtick_16">
     <g id="line2d_43">
      <g>
       <use xlink:href="#ma2f1149a32" x="316.977977" y="458.728" style="stroke: #000000; stroke-width: 0.6"/>
      </g>
     </g>
    </g>
    <g id="xtick_17">
     <g id="line2d_44">
      <g>
       <use xlink:href="#ma2f1149a32" x="331.490522" y="458.728" style="stroke: #000000; stroke-width: 0.6"/>
      </g>
     </g>
    </g>
    <g id="xtick_18">
     <g id="line2d_45">
      <g>
       <use xlink:href="#ma2f1149a32" x="429.878024" y="458.728" style="stroke: #000000; stroke-width: 0.6"/>
      </g>
     </g>
    </g>
    <g id="xtick_19">
     <g id="line2d_46">
      <g>
       <use xlink:href="#ma2f1149a32" x="479.83709" y="458.728" style="stroke: #000000; stroke-width: 0.6"/>
      </g>
     </g>
    </g>
    <g id="xtick_20">
     <g id="line2d_47">
      <g>
       <use xlink:href="#ma2f1149a32" x="515.283611" y="458.728" style="stroke: #000000; stroke-width: 0.6"/>
      </g>
     </g>
    </g>
    <g id="xtick_21">
     <g id="line2d_48">
      <g>
       <use xlink:href="#ma2f1149a32" x="542.77807" y="458.728" style="stroke: #000000; stroke-width: 0.6"/>
      </g>
     </g>
    </g>
    <g id="xtick_22">
     <g id="line2d_49">
      <g>
       <use xlink:href="#ma2f1149a32" x="565.242678" y="458.728" style="stroke: #000000; stroke-width: 0.6"/>
      </g>
     </g>
    </g>
    <g id="xtick_23">
     <g id="line2d_50">
      <g>
       <use xlink:href="#ma2f1149a32" x="584.236233" y="458.728" style="stroke: #000000; stroke-width: 0.6"/>
      </g>
     </g>
    </g>
    <g id="xtick_24">
     <g id="line2d_51">
      <g>
       <use xlink:href="#ma2f1149a32" x="600.689199" y="458.728" style="stroke: #000000; stroke-width: 0.6"/>
      </g>
     </g>
    </g>
    <g id="xtick_25">
     <g id="line2d_52">
      <g>
       <use xlink:href="#ma2f1149a32" x="615.201744" y="458.728" style="stroke: #000000; stroke-width: 0.6"/>
      </g>
     </g>
    </g>
    <g id="text_22">
     <!-- frequency [arb.] -->
     <g transform="translate(304.022436 487.004563) scale(0.1 -0.1)">
      <defs>
       <path id="DejaVuSans-71" d="M 947 1747 
Q 947 1113 1208 752 
Q 1469 391 1925 391 
Q 2381 391 2643 752 
Q 2906 1113 2906 1747 
Q 2906 2381 2643 2742 
Q 2381 3103 1925 3103 
Q 1469 3103 1208 2742 
Q 947 2381 947 1747 
z
M 2906 525 
Q 2725 213 2448 61 
Q 2172 -91 1784 -91 
Q 1150 -91 751 415 
Q 353 922 353 1747 
Q 353 2572 751 3078 
Q 1150 3584 1784 3584 
Q 2172 3584 2448 3432 
Q 2725 3281 2906 2969 
L 2906 3500 
L 3481 3500 
L 3481 -1331 
L 2906 -1331 
L 2906 525 
z
" transform="scale(0.015625)"/>
      </defs>
      <use xlink:href="#DejaVuSans-66"/>
      <use xlink:href="#DejaVuSans-72" transform="translate(35.205078 0)"/>
      <use xlink:href="#DejaVuSans-65" transform="translate(74.068359 0)"/>
      <use xlink:href="#DejaVuSans-71" transform="translate(135.591797 0)"/>
      <use xlink:href="#DejaVuSans-75" transform="translate(199.068359 0)"/>
      <use xlink:href="#DejaVuSans-65" transform="translate(262.447266 0)"/>
      <use xlink:href="#DejaVuSans-6e" transform="translate(323.970703 0)"/>
      <use xlink:href="#DejaVuSans-63" transform="translate(387.349609 0)"/>
      <use xlink:href="#DejaVuSans-79" transform="translate(442.330078 0)"/>
      <use xlink:href="#DejaVuSans-20" transform="translate(501.509766 0)"/>
      <use xlink:href="#DejaVuSans-5b" transform="translate(533.296875 0)"/>
      <use xlink:href="#DejaVuSans-61" transform="translate(572.310547 0)"/>
      <use xlink:href="#DejaVuSans-72" transform="translate(633.589844 0)"/>
      <use xlink:href="#DejaVuSans-62" transform="translate(674.703125 0)"/>
      <use xlink:href="#DejaVuSans-2e" transform="translate(738.179688 0)"/>
      <use xlink:href="#DejaVuSans-5d" transform="translate(769.966797 0)"/>
     </g>
    </g>
   </g>
   <g id="matplotlib.axis_4">
    <g id="ytick_8">
     <g id="line2d_53">
      <path d="M 60.761214 439.900933 
L 628.183658 439.900933 
" clip-path="url(#p78e7e02080)" style="fill: none; stroke: #b0b0b0; stroke-opacity: 0.25; stroke-width: 0.8; stroke-linecap: square"/>
     </g>
     <g id="line2d_54">
      <g>
       <use xlink:href="#m831ed63fd6" x="60.761214" y="439.900933" style="stroke: #000000; stroke-width: 0.8"/>
      </g>
     </g>
     <g id="text_23">
      <!-- $\mathdefault{10^{-10}}$ -->
      <g transform="translate(25.861214 443.700152) scale(0.1 -0.1)">
       <use xlink:href="#DejaVuSans-31" transform="translate(0 0.765625)"/>
       <use xlink:href="#DejaVuSans-30" transform="translate(63.623047 0.765625)"/>
       <use xlink:href="#DejaVuSans-2212" transform="translate(128.203125 39.046875) scale(0.7)"/>
       <use xlink:href="#DejaVuSans-31" transform="translate(186.855469 39.046875) scale(0.7)"/>
       <use xlink:href="#DejaVuSans-30" transform="translate(231.391602 39.046875) scale(0.7)"/>
      </g>
     </g>
    </g>
    <g id="ytick_9">
     <g id="line2d_55">
      <path d="M 60.761214 416.677905 
L 628.183658 416.677905 
" clip-path="url(#p78e7e02080)" style="fill: none; stroke: #b0b0b0; stroke-opacity: 0.25; stroke-width: 0.8; stroke-linecap: square"/>
     </g>
     <g id="line2d_56">
      <g>
       <use xlink:href="#m831ed63fd6" x="60.761214" y="416.677905" style="stroke: #000000; stroke-width: 0.8"/>
      </g>
     </g>
     <g id="text_24">
      <!-- $\mathdefault{10^{-8}}$ -->
      <g transform="translate(30.261214 420.477124) scale(0.1 -0.1)">
       <use xlink:href="#DejaVuSans-31" transform="translate(0 0.765625)"/>
       <use xlink:href="#DejaVuSans-30" transform="translate(63.623047 0.765625)"/>
       <use xlink:href="#DejaVuSans-2212" transform="translate(128.203125 39.046875) scale(0.7)"/>
       <use xlink:href="#DejaVuSans-38" transform="translate(186.855469 39.046875) scale(0.7)"/>
      </g>
     </g>
    </g>
    <g id="ytick_10">
     <g id="line2d_57">
      <path d="M 60.761214 393.454877 
L 628.183658 393.454877 
" clip-path="url(#p78e7e02080)" style="fill: none; stroke: #b0b0b0; stroke-opacity: 0.25; stroke-width: 0.8; stroke-linecap: square"/>
     </g>
     <g id="line2d_58">
      <g>
       <use xlink:href="#m831ed63fd6" x="60.761214" y="393.454877" style="stroke: #000000; stroke-width: 0.8"/>
      </g>
     </g>
     <g id="text_25">
      <!-- $\mathdefault{10^{-6}}$ -->
      <g transform="translate(30.261214 397.254096) scale(0.1 -0.1)">
       <use xlink:href="#DejaVuSans-31" transform="translate(0 0.765625)"/>
       <use xlink:href="#DejaVuSans-30" transform="translate(63.623047 0.765625)"/>
       <use xlink:href="#DejaVuSans-2212" transform="translate(128.203125 39.046875) scale(0.7)"/>
       <use xlink:href="#DejaVuSans-36" transform="translate(186.855469 39.046875) scale(0.7)"/>
      </g>
     </g>
    </g>
    <g id="ytick_11">
     <g id="line2d_59">
      <path d="M 60.761214 370.231849 
L 628.183658 370.231849 
" clip-path="url(#p78e7e02080)" style="fill: none; stroke: #b0b0b0; stroke-opacity: 0.25; stroke-width: 0.8; stroke-linecap: square"/>
     </g>
     <g id="line2d_60">
      <g>
       <use xlink:href="#m831ed63fd6" x="60.761214" y="370.231849" style="stroke: #000000; stroke-width: 0.8"/>
      </g>
     </g>
     <g id="text_26">
      <!-- $\mathdefault{10^{-4}}$ -->
      <g transform="translate(30.261214 374.031068) scale(0.1 -0.1)">
       <use xlink:href="#DejaVuSans-31" transform="translate(0 0.684375)"/>
       <use xlink:href="#DejaVuSans-30" transform="translate(63.623047 0.684375)"/>
       <use xlink:href="#DejaVuSans-2212" transform="translate(128.203125 38.965625) scale(0.7)"/>
       <use xlink:href="#DejaVuSans-34" transform="translate(186.855469 38.965625) scale(0.7)"/>
      </g>
     </g>
    </g>
    <g id="ytick_12">
     <g id="line2d_61">
      <path d="M 60.761214 347.008821 
L 628.183658 347.008821 
" clip-path="url(#p78e7e02080)" style="fill: none; stroke: #b0b0b0; stroke-opacity: 0.25; stroke-width: 0.8; stroke-linecap: square"/>
     </g>
     <g id="line2d_62">
      <g>
       <use xlink:href="#m831ed63fd6" x="60.761214" y="347.008821" style="stroke: #000000; stroke-width: 0.8"/>
      </g>
     </g>
     <g id="text_27">
      <!-- $\mathdefault{10^{-2}}$ -->
      <g transform="translate(30.261214 350.80804) scale(0.1 -0.1)">
       <use xlink:href="#DejaVuSans-31" transform="translate(0 0.765625)"/>
       <use xlink:href="#DejaVuSans-30" transform="translate(63.623047 0.765625)"/>
       <use xlink:href="#DejaVuSans-2212" transform="translate(128.203125 39.046875) scale(0.7)"/>
       <use xlink:href="#DejaVuSans-32" transform="translate(186.855469 39.046875) scale(0.7)"/>
      </g>
     </g>
    </g>
    <g id="ytick_13">
     <g id="line2d_63">
      <path d="M 60.761214 323.785793 
L 628.183658 323.785793 
" clip-path="url(#p78e7e02080)" style="fill: none; stroke: #b0b0b0; stroke-opacity: 0.25; stroke-width: 0.8; stroke-linecap: square"/>
     </g>
     <g id="line2d_64">
      <g>
       <use xlink:href="#m831ed63fd6" x="60.761214" y="323.785793" style="stroke: #000000; stroke-width: 0.8"/>
      </g>
     </g>
     <g id="text_28">
      <!-- $\mathdefault{10^{0}}$ -->
      <g transform="translate(36.161214 327.585012) scale(0.1 -0.1)">
       <use xlink:href="#DejaVuSans-31" transform="translate(0 0.765625)"/>
       <use xlink:href="#DejaVuSans-30" transform="translate(63.623047 0.765625)"/>
       <use xlink:href="#DejaVuSans-30" transform="translate(128.203125 39.046875) scale(0.7)"/>
      </g>
     </g>
    </g>
    <g id="ytick_14">
     <g id="line2d_65">
      <path d="M 60.761214 300.562765 
L 628.183658 300.562765 
" clip-path="url(#p78e7e02080)" style="fill: none; stroke: #b0b0b0; stroke-opacity: 0.25; stroke-width: 0.8; stroke-linecap: square"/>
     </g>
     <g id="line2d_66">
      <g>
       <use xlink:href="#m831ed63fd6" x="60.761214" y="300.562765" style="stroke: #000000; stroke-width: 0.8"/>
      </g>
     </g>
     <g id="text_29">
      <!-- $\mathdefault{10^{2}}$ -->
      <g transform="translate(36.161214 304.361984) scale(0.1 -0.1)">
       <use xlink:href="#DejaVuSans-31" transform="translate(0 0.765625)"/>
       <use xlink:href="#DejaVuSans-30" transform="translate(63.623047 0.765625)"/>
       <use xlink:href="#DejaVuSans-32" transform="translate(128.203125 39.046875) scale(0.7)"/>
      </g>
     </g>
    </g>
    <g id="text_30">
     <!-- |FFT(.)| -->
     <g transform="translate(19.503401 386.597344) rotate(-90) scale(0.1 -0.1)">
      <defs>
       <path id="DejaVuSans-54" d="M -19 4666 
L 3928 4666 
L 3928 4134 
L 2272 4134 
L 2272 0 
L 1638 0 
L 1638 4134 
L -19 4134 
L -19 4666 
z
" transform="scale(0.015625)"/>
      </defs>
      <use xlink:href="#DejaVuSans-7c"/>
      <use xlink:href="#DejaVuSans-46" transform="translate(33.691406 0)"/>
      <use xlink:href="#DejaVuSans-46" transform="translate(91.210938 0)"/>
      <use xlink:href="#DejaVuSans-54" transform="translate(146.980469 0)"/>
      <use xlink:href="#DejaVuSans-28" transform="translate(208.064453 0)"/>
      <use xlink:href="#DejaVuSans-2e" transform="translate(247.078125 0)"/>
      <use xlink:href="#DejaVuSans-29" transform="translate(278.865234 0)"/>
      <use xlink:href="#DejaVuSans-7c" transform="translate(317.878906 0)"/>
     </g>
    </g>
   </g>
   <g id="line2d_67">
    <path d="M 60.761214 307.07346 
L 146.166802 331.19637 
L 196.125868 330.689994 
L 231.572389 329.924338 
L 259.066848 328.945951 
L 281.531456 327.765401 
L 300.525011 326.379587 
L 316.977977 324.772149 
L 331.490522 322.910027 
L 344.472436 320.73627 
L 356.216005 318.155371 
L 366.937044 315.000805 
L 376.799443 310.951287 
L 385.930599 305.245554 
L 394.431502 294.742389 
L 402.383565 287.467273 
L 409.853381 287.957893 
L 416.89611 297.008539 
L 423.55796 306.2401 
L 429.878024 311.62356 
L 435.889665 315.524052 
L 441.621593 318.602564 
L 447.098682 321.152426 
L 452.342632 323.332041 
L 457.372482 325.237338 
L 462.205031 326.931027 
L 466.855176 328.456434 
L 471.336187 329.844771 
L 475.659937 331.119284 
L 479.83709 332.297752 
L 483.877262 333.39408 
L 487.789153 334.41935 
L 491.580659 335.382532 
L 495.258969 336.290993 
L 498.830645 337.150852 
L 502.301698 337.967252 
L 505.677641 338.744552 
L 508.963548 339.48648 
L 512.164098 340.196252 
L 515.283611 340.876655 
L 518.326092 341.530127 
L 521.295253 342.158808 
L 524.194545 342.764589 
L 527.027181 343.349149 
L 529.796156 343.913984 
L 532.50427 344.460435 
L 535.15414 344.989708 
L 537.74822 345.50289 
L 540.288809 346.000967 
L 542.77807 346.484833 
L 545.218035 346.955303 
L 547.610619 347.413124 
L 549.957628 347.858978 
L 552.260764 348.293493 
L 554.521639 348.717246 
L 556.741775 349.130771 
L 558.922615 349.534562 
L 561.065525 349.929076 
L 563.171802 350.314737 
L 565.242678 350.691942 
L 567.279323 351.061058 
L 569.28285 351.422431 
L 571.25432 351.77638 
L 573.194741 352.12321 
L 575.105077 352.463201 
L 576.986247 352.79662 
L 578.839127 353.123717 
L 580.664557 353.444727 
L 582.463336 353.759873 
L 584.236233 354.069364 
L 585.983982 354.373398 
L 587.707286 354.672164 
L 589.406819 354.965839 
L 591.083229 355.254592 
L 592.737136 355.538583 
L 594.369136 355.817964 
L 595.979803 356.09288 
L 597.569685 356.363469 
L 599.139315 356.629862 
L 600.689199 356.892185 
L 602.21983 357.150556 
L 603.73168 357.405091 
L 605.225204 357.655899 
L 606.700841 357.903084 
L 608.159015 358.146745 
L 609.600133 358.38698 
L 611.024591 358.623879 
L 612.432769 358.857531 
L 613.825035 359.088021 
L 615.201744 359.315429 
L 616.563241 359.539834 
L 617.909858 359.761311 
L 619.241916 359.979933 
L 620.559728 360.195768 
L 621.863594 360.408883 
L 623.153807 360.619344 
L 624.43065 360.827213 
L 625.694397 361.032549 
L 626.945313 361.235411 
L 628.183658 361.435854 
L 629.40968 361.633932 
" clip-path="url(#p78e7e02080)" style="fill: none; stroke: #1f77b4; stroke-opacity: 0.6; stroke-width: 1.5; stroke-linecap: square"/>
   </g>
   <g id="line2d_68">
    <path d="M 60.761214 319.884396 
L 146.166802 327.444033 
L 196.125868 334.336876 
L 231.572389 338.817221 
L 259.066848 341.997182 
L 281.531456 344.176333 
L 300.525011 345.395917 
L 316.977977 345.641432 
L 331.490522 344.961609 
L 344.472436 343.467885 
L 356.216005 341.245419 
L 366.937044 338.265493 
L 376.799443 334.293739 
L 385.930599 328.618239 
L 394.431502 318.124085 
L 402.383565 310.850116 
L 409.853381 311.340399 
L 416.89611 320.391958 
L 423.55796 329.626559 
L 429.878024 335.015162 
L 435.889665 338.922481 
L 441.621593 342.008945 
L 447.098682 344.567313 
L 452.342632 346.755472 
L 457.372482 348.668904 
L 462.205031 350.369957 
L 466.855176 351.901666 
L 471.336187 353.295023 
L 475.659937 354.573111 
L 479.83709 355.753596 
L 483.877262 356.850312 
L 487.789153 357.874301 
L 491.580659 358.834521 
L 495.258969 359.73835 
L 498.830645 360.591934 
L 502.301698 361.400456 
L 505.677641 362.168323 
L 508.963548 362.899324 
L 512.164098 363.596733 
L 515.283611 364.263407 
L 518.326092 364.90185 
L 521.295253 365.514273 
L 524.194545 366.102635 
L 527.027181 366.668685 
L 529.796156 367.213988 
L 532.50427 367.739949 
L 535.15414 368.247839 
L 537.74822 368.738809 
L 540.288809 369.213904 
L 542.77807 369.674076 
L 545.218035 370.120197 
L 547.610619 370.553065 
L 549.957628 370.973414 
L 552.260764 371.381919 
L 554.521639 371.779205 
L 556.741775 372.165848 
L 558.922615 372.542383 
L 561.065525 372.909306 
L 563.171802 373.26708 
L 565.242678 373.616134 
L 567.279323 373.95687 
L 569.28285 374.289664 
L 571.25432 374.614865 
L 573.194741 374.932804 
L 575.105077 375.243789 
L 576.986247 375.548111 
L 578.839127 375.846041 
L 580.664557 376.137838 
L 582.463336 376.423743 
L 584.236233 376.703985 
L 585.983982 376.978781 
L 587.707286 377.248334 
L 589.406819 377.512837 
L 591.083229 377.772474 
L 592.737136 378.027419 
L 594.369136 378.277836 
L 595.979803 378.523882 
L 597.569685 378.765705 
L 599.139315 379.003448 
L 600.689199 379.237244 
L 602.21983 379.467223 
L 603.73168 379.693506 
L 605.225204 379.916211 
L 606.700841 380.135448 
L 608.159015 380.351325 
L 609.600133 380.563942 
L 611.024591 380.773398 
L 612.432769 380.979785 
L 613.825035 381.183192 
L 615.201744 381.383705 
L 616.563241 381.581406 
L 617.909858 381.776373 
L 619.241916 381.968681 
L 620.559728 382.158403 
L 621.863594 382.345609 
L 623.153807 382.530364 
L 624.43065 382.712734 
L 625.694397 382.89278 
L 626.945313 383.07056 
L 628.183658 383.246134 
L 629.40968 383.419555 
" clip-path="url(#p78e7e02080)" style="fill: none; stroke: #ff7f0e; stroke-width: 1.5; stroke-linecap: square"/>
   </g>
   <g id="patch_9">
    <path d="M 60.761214 458.728 
L 60.761214 279.312 
" style="fill: none; stroke: #000000; stroke-width: 0.8; stroke-linejoin: miter; stroke-linecap: square"/>
   </g>
   <g id="patch_10">
    <path d="M 628.183658 458.728 
L 628.183658 279.312 
" style="fill: none; stroke: #000000; stroke-width: 0.8; stroke-linejoin: miter; stroke-linecap: square"/>
   </g>
   <g id="patch_11">
    <path d="M 60.761214 458.728 
L 628.183658 458.728 
" style="fill: none; stroke: #000000; stroke-width: 0.8; stroke-linejoin: miter; stroke-linecap: square"/>
   </g>
   <g id="patch_12">
    <path d="M 60.761214 279.312 
L 628.183658 279.312 
" style="fill: none; stroke: #000000; stroke-width: 0.8; stroke-linejoin: miter; stroke-linecap: square"/>
   </g>
   <g id="text_31">
    <!-- Output FFT peak ≈ 1.600 (arb.), magnitude ≈ 1.300e+01 | low-ish -->
    <g transform="translate(144.754936 273.312) scale(0.12 -0.12)">
     <defs>
      <path id="DejaVuSans-4f" d="M 2522 4238 
Q 1834 4238 1429 3725 
Q 1025 3213 1025 2328 
Q 1025 1447 1429 934 
Q 1834 422 2522 422 
Q 3209 422 3611 934 
Q 4013 1447 4013 2328 
Q 4013 3213 3611 3725 
Q 3209 4238 2522 4238 
z
M 2522 4750 
Q 3503 4750 4090 4092 
Q 4678 3434 4678 2328 
Q 4678 1225 4090 567 
Q 3503 -91 2522 -91 
Q 1538 -91 948 565 
Q 359 1222 359 2328 
Q 359 3434 948 4092 
Q 1538 4750 2522 4750 
z
" transform="scale(0.015625)"/>
      <path id="DejaVuSans-6b" d="M 581 4863 
L 1159 4863 
L 1159 1991 
L 2875 3500 
L 3609 3500 
L 1753 1863 
L 3688 0 
L 2938 0 
L 1159 1709 
L 1159 0 
L 581 0 
L 581 4863 
z
" transform="scale(0.015625)"/>
      <path id="DejaVuSans-2248" d="M 4684 1947 
L 4684 1388 
Q 4356 1144 4076 1036 
Q 3797 928 3494 928 
Q 3150 928 2694 1113 
Q 2663 1125 2641 1134 
Q 2622 1141 2575 1159 
Q 2091 1350 1797 1350 
Q 1522 1350 1253 1231 
Q 984 1113 678 850 
L 678 1409 
Q 1006 1653 1286 1761 
Q 1566 1869 1869 1869 
Q 2213 1869 2672 1684 
Q 2706 1669 2722 1663 
Q 2741 1656 2788 1638 
Q 3272 1447 3566 1447 
Q 3834 1447 4098 1564 
Q 4363 1681 4684 1947 
z
M 4684 3163 
L 4684 2606 
Q 4356 2359 4076 2251 
Q 3797 2144 3494 2144 
Q 3150 2144 2694 2328 
Q 2663 2341 2641 2350 
Q 2622 2356 2575 2375 
Q 2091 2566 1797 2566 
Q 1522 2566 1253 2447 
Q 984 2328 678 2069 
L 678 2625 
Q 1006 2869 1286 2976 
Q 1566 3084 1869 3084 
Q 2213 3084 2672 2900 
Q 2703 2888 2719 2881 
Q 2741 2872 2788 2853 
Q 3272 2663 3566 2663 
Q 3834 2663 4098 2780 
Q 4363 2897 4684 3163 
z
" transform="scale(0.015625)"/>
      <path id="DejaVuSans-6d" d="M 3328 2828 
Q 3544 3216 3844 3400 
Q 4144 3584 4550 3584 
Q 5097 3584 5394 3201 
Q 5691 2819 5691 2113 
L 5691 0 
L 5113 0 
L 5113 2094 
Q 5113 2597 4934 2840 
Q 4756 3084 4391 3084 
Q 3944 3084 3684 2787 
Q 3425 2491 3425 1978 
L 3425 0 
L 2847 0 
L 2847 2094 
Q 2847 2600 2669 2842 
Q 2491 3084 2119 3084 
Q 1678 3084 1418 2786 
Q 1159 2488 1159 1978 
L 1159 0 
L 581 0 
L 581 3500 
L 1159 3500 
L 1159 2956 
Q 1356 3278 1631 3431 
Q 1906 3584 2284 3584 
Q 2666 3584 2933 3390 
Q 3200 3197 3328 2828 
z
" transform="scale(0.015625)"/>
      <path id="DejaVuSans-67" d="M 2906 1791 
Q 2906 2416 2648 2759 
Q 2391 3103 1925 3103 
Q 1463 3103 1205 2759 
Q 947 2416 947 1791 
Q 947 1169 1205 825 
Q 1463 481 1925 481 
Q 2391 481 2648 825 
Q 2906 1169 2906 1791 
z
M 3481 434 
Q 3481 -459 3084 -895 
Q 2688 -1331 1869 -1331 
Q 1566 -1331 1297 -1286 
Q 1028 -1241 775 -1147 
L 775 -588 
Q 1028 -725 1275 -790 
Q 1522 -856 1778 -856 
Q 2344 -856 2625 -561 
Q 2906 -266 2906 331 
L 2906 616 
Q 2728 306 2450 153 
Q 2172 0 1784 0 
Q 1141 0 747 490 
Q 353 981 353 1791 
Q 353 2603 747 3093 
Q 1141 3584 1784 3584 
Q 2172 3584 2450 3431 
Q 2728 3278 2906 2969 
L 2906 3500 
L 3481 3500 
L 3481 434 
z
" transform="scale(0.015625)"/>
      <path id="DejaVuSans-33" d="M 2597 2516 
Q 3050 2419 3304 2112 
Q 3559 1806 3559 1356 
Q 3559 666 3084 287 
Q 2609 -91 1734 -91 
Q 1441 -91 1130 -33 
Q 819 25 488 141 
L 488 750 
Q 750 597 1062 519 
Q 1375 441 1716 441 
Q 2309 441 2620 675 
Q 2931 909 2931 1356 
Q 2931 1769 2642 2001 
Q 2353 2234 1838 2234 
L 1294 2234 
L 1294 2753 
L 1863 2753 
Q 2328 2753 2575 2939 
Q 2822 3125 2822 3475 
Q 2822 3834 2567 4026 
Q 2313 4219 1838 4219 
Q 1578 4219 1281 4162 
Q 984 4106 628 3988 
L 628 4550 
Q 988 4650 1302 4700 
Q 1616 4750 1894 4750 
Q 2613 4750 3031 4423 
Q 3450 4097 3450 3541 
Q 3450 3153 3228 2886 
Q 3006 2619 2597 2516 
z
" transform="scale(0.015625)"/>
      <path id="DejaVuSans-2b" d="M 2944 4013 
L 2944 2272 
L 4684 2272 
L 4684 1741 
L 2944 1741 
L 2944 0 
L 2419 0 
L 2419 1741 
L 678 1741 
L 678 2272 
L 2419 2272 
L 2419 4013 
L 2944 4013 
z
" transform="scale(0.015625)"/>
      <path id="DejaVuSans-68" d="M 3513 2113 
L 3513 0 
L 2938 0 
L 2938 2094 
Q 2938 2591 2744 2837 
Q 2550 3084 2163 3084 
Q 1697 3084 1428 2787 
Q 1159 2491 1159 1978 
L 1159 0 
L 581 0 
L 581 4863 
L 1159 4863 
L 1159 2956 
Q 1366 3272 1645 3428 
Q 1925 3584 2291 3584 
Q 2894 3584 3203 3211 
Q 3513 2838 3513 2113 
z
" transform="scale(0.015625)"/>
     </defs>
     <use xlink:href="#DejaVuSans-4f"/>
     <use xlink:href="#DejaVuSans-75" transform="translate(78.710938 0)"/>
     <use xlink:href="#DejaVuSans-74" transform="translate(142.089844 0)"/>
     <use xlink:href="#DejaVuSans-70" transform="translate(181.298828 0)"/>
     <use xlink:href="#DejaVuSans-75" transform="translate(244.775391 0)"/>
     <use xlink:href="#DejaVuSans-74" transform="translate(308.154297 0)"/>
     <use xlink:href="#DejaVuSans-20" transform="translate(347.363281 0)"/>
     <use xlink:href="#DejaVuSans-46" transform="translate(379.150391 0)"/>
     <use xlink:href="#DejaVuSans-46" transform="translate(436.669922 0)"/>
     <use xlink:href="#DejaVuSans-54" transform="translate(492.439453 0)"/>
     <use xlink:href="#DejaVuSans-20" transform="translate(553.523438 0)"/>
     <use xlink:href="#DejaVuSans-70" transform="translate(585.310547 0)"/>
     <use xlink:href="#DejaVuSans-65" transform="translate(648.787109 0)"/>
     <use xlink:href="#DejaVuSans-61" transform="translate(710.310547 0)"/>
     <use xlink:href="#DejaVuSans-6b" transform="translate(771.589844 0)"/>
     <use xlink:href="#DejaVuSans-20" transform="translate(829.5 0)"/>
     <use xlink:href="#DejaVuSans-2248" transform="translate(861.287109 0)"/>
     <use xlink:href="#DejaVuSans-20" transform="translate(945.076172 0)"/>
     <use xlink:href="#DejaVuSans-31" transform="translate(976.863281 0)"/>
     <use xlink:href="#DejaVuSans-2e" transform="translate(1040.486328 0)"/>
     <use xlink:href="#DejaVuSans-36" transform="translate(1072.273438 0)"/>
     <use xlink:href="#DejaVuSans-30" transform="translate(1135.896484 0)"/>
     <use xlink:href="#DejaVuSans-30" transform="translate(1199.519531 0)"/>
     <use xlink:href="#DejaVuSans-20" transform="translate(1263.142578 0)"/>
     <use xlink:href="#DejaVuSans-28" transform="translate(1294.929688 0)"/>
     <use xlink:href="#DejaVuSans-61" transform="translate(1333.943359 0)"/>
     <use xlink:href="#DejaVuSans-72" transform="translate(1395.222656 0)"/>
     <use xlink:href="#DejaVuSans-62" transform="translate(1436.335938 0)"/>
     <use xlink:href="#DejaVuSans-2e" transform="translate(1499.8125 0)"/>
     <use xlink:href="#DejaVuSans-29" transform="translate(1531.599609 0)"/>
     <use xlink:href="#DejaVuSans-2c" transform="translate(1570.613281 0)"/>
     <use xlink:href="#DejaVuSans-20" transform="translate(1602.400391 0)"/>
     <use xlink:href="#DejaVuSans-6d" transform="translate(1634.1875 0)"/>
     <use xlink:href="#DejaVuSans-61" transform="translate(1731.599609 0)"/>
     <use xlink:href="#DejaVuSans-67" transform="translate(1792.878906 0)"/>
     <use xlink:href="#DejaVuSans-6e" transform="translate(1856.355469 0)"/>
     <use xlink:href="#DejaVuSans-69" transform="translate(1919.734375 0)"/>
     <use xlink:href="#DejaVuSans-74" transform="translate(1947.517578 0)"/>
     <use xlink:href="#DejaVuSans-75" transform="translate(1986.726562 0)"/>
     <use xlink:href="#DejaVuSans-64" transform="translate(2050.105469 0)"/>
     <use xlink:href="#DejaVuSans-65" transform="translate(2113.582031 0)"/>
     <use xlink:href="#DejaVuSans-20" transform="translate(2175.105469 0)"/>
     <use xlink:href="#DejaVuSans-2248" transform="translate(2206.892578 0)"/>
     <use xlink:href="#DejaVuSans-20" transform="translate(2290.681641 0)"/>
     <use xlink:href="#DejaVuSans-31" transform="translate(2322.46875 0)"/>
     <use xlink:href="#DejaVuSans-2e" transform="translate(2386.091797 0)"/>
     <use xlink:href="#DejaVuSans-33" transform="translate(2417.878906 0)"/>
     <use xlink:href="#DejaVuSans-30" transform="translate(2481.501953 0)"/>
     <use xlink:href="#DejaVuSans-30" transform="translate(2545.125 0)"/>
     <use xlink:href="#DejaVuSans-65" transform="translate(2608.748047 0)"/>
     <use xlink:href="#DejaVuSans-2b" transform="translate(2670.271484 0)"/>
     <use xlink:href="#DejaVuSans-30" transform="translate(2754.060547 0)"/>
     <use xlink:href="#DejaVuSans-31" transform="translate(2817.683594 0)"/>
     <use xlink:href="#DejaVuSans-20" transform="translate(2881.306641 0)"/>
     <use xlink:href="#DejaVuSans-7c" transform="translate(2913.09375 0)"/>
     <use xlink:href="#DejaVuSans-20" transform="translate(2946.785156 0)"/>
     <use xlink:href="#DejaVuSans-6c" transform="translate(2978.572266 0)"/>
     <use xlink:href="#DejaVuSans-6f" transform="translate(3006.355469 0)"/>
     <use xlink:href="#DejaVuSans-77" transform="translate(3067.537109 0)"/>
     <use xlink:href="#DejaVuSans-2d" transform="translate(3149.324219 0)"/>
     <use xlink:href="#DejaVuSans-69" transform="translate(3185.408203 0)"/>
     <use xlink:href="#DejaVuSans-73" transform="translate(3213.191406 0)"/>
     <use xlink:href="#DejaVuSans-68" transform="translate(3265.291016 0)"/>
    </g>
   </g>
   <g id="legend_2">
    <g id="patch_13">
     <path d="M 535.586783 316.66825 
L 621.183658 316.66825 
Q 623.183658 316.66825 623.183658 314.66825 
L 623.183658 286.312 
Q 623.183658 284.312 621.183658 284.312 
L 535.586783 284.312 
Q 533.586783 284.312 533.586783 286.312 
L 533.586783 314.66825 
Q 533.586783 316.66825 535.586783 316.66825 
z
" style="fill: #ffffff; opacity: 0.8; stroke: #cccccc; stroke-linejoin: miter"/>
    </g>
    <g id="line2d_69">
     <path d="M 537.586783 292.410438 
L 547.586783 292.410438 
L 557.586783 292.410438 
" style="fill: none; stroke: #1f77b4; stroke-opacity: 0.6; stroke-width: 1.5; stroke-linecap: square"/>
    </g>
    <g id="text_32">
     <!-- input FFT -->
     <g transform="translate(565.586783 295.910438) scale(0.1 -0.1)">
      <use xlink:href="#DejaVuSans-69"/>
      <use xlink:href="#DejaVuSans-6e" transform="translate(27.783203 0)"/>
      <use xlink:href="#DejaVuSans-70" transform="translate(91.162109 0)"/>
      <use xlink:href="#DejaVuSans-75" transform="translate(154.638672 0)"/>
      <use xlink:href="#DejaVuSans-74" transform="translate(218.017578 0)"/>
      <use xlink:href="#DejaVuSans-20" transform="translate(257.226562 0)"/>
      <use xlink:href="#DejaVuSans-46" transform="translate(289.013672 0)"/>
      <use xlink:href="#DejaVuSans-46" transform="translate(346.533203 0)"/>
      <use xlink:href="#DejaVuSans-54" transform="translate(402.302734 0)"/>
     </g>
    </g>
    <g id="line2d_70">
     <path d="M 537.586783 307.088562 
L 547.586783 307.088562 
L 557.586783 307.088562 
" style="fill: none; stroke: #ff7f0e; stroke-width: 1.5; stroke-linecap: square"/>
    </g>
    <g id="text_33">
     <!-- output FFT -->
     <g transform="translate(565.586783 310.588562) scale(0.1 -0.1)">
      <use xlink:href="#DejaVuSans-6f"/>
      <use xlink:href="#DejaVuSans-75" transform="translate(61.181641 0)"/>
      <use xlink:href="#DejaVuSans-74" transform="translate(124.560547 0)"/>
      <use xlink:href="#DejaVuSans-70" transform="translate(163.769531 0)"/>
      <use xlink:href="#DejaVuSans-75" transform="translate(227.246094 0)"/>
      <use xlink:href="#DejaVuSans-74" transform="translate(290.625 0)"/>
      <use xlink:href="#DejaVuSans-20" transform="translate(329.833984 0)"/>
      <use xlink:href="#DejaVuSans-46" transform="translate(361.621094 0)"/>
      <use xlink:href="#DejaVuSans-46" transform="translate(419.140625 0)"/>
      <use xlink:href="#DejaVuSans-54" transform="translate(474.910156 0)"/>
     </g>
    </g>
   </g>
  </g>
 </g>
 <defs>
  <clipPath id="pd5590e56dd">
   <rect x="60.761214" y="41.856" width="567.422444" height="179.416"/>
  </clipPath>
  <clipPath id="p78e7e02080">
   <rect x="60.761214" y="279.312" width="567.422444" height="179.416"/>
  </clipPath>
 </defs>
</svg>
