<?xml version="1.0" encoding="utf-8" standalone="no"?>
<!DOCTYPE svg PUBLIC "-//W3C//DTD SVG 1.1//EN"
  "http://www.w3.org/Graphics/SVG/1.1/DTD/svg11.dtd">
<svg xmlns:xlink="http://www.w3.org/1999/xlink" width="648pt" height="504pt" viewBox="0 0 648 504" xmlns="http://www.w3.org/2000/svg" version="1.1">
 <metadata>
  <rdf:RDF xmlns:dc="http://purl.org/dc/elements/1.1/" xmlns:cc="http://creativecommons.org/ns#" xmlns:rdf="http://www.w3.org/1999/02/22-rdf-syntax-ns#">
   <cc:Work>
    <dc:type rdf:resource="http://purl.org/dc/dcmitype/StillImage"/>
    <dc:date>2026-05-28T04:17:22.372115</dc:date>
    <dc:format>image/svg+xml</dc:format>
    <dc:creator>
     <cc:Agent>
      <dc:title>Matplotlib v3.10.9, https://matplotlib.org/</dc:title>
     </cc:Agent>
    </dc:creator>
   </cc:Work>
  </rdf:RDF>
 </metadata>
 <defs>
  <style type="text/css">*{stroke-linejoin: round; stroke-linecap: butt}</style>
 </defs>
 <g id="figure_1">
  <g id="patch_1">
   <path d="M 0 504 
L 648 504 
L 648 0 
L 0 0 
z
" style="fill: #ffffff"/>
  </g>
  <g id="axes_1">
   <g id="patch_2">
    <path d="M 56.357054 221.272 
L 628.183658 221.272 
L 628.183658 41.856 
L 56.357054 41.856 
z
" style="fill: #ffffff"/>
   </g>
   <g id="matplotlib.axis_1">
    <g id="xtick_1">
     <g id="line2d_1">
      <path d="M 82.349172 221.272 
L 82.349172 41.856 
" clip-path="url(#p6fa4d8e15f)" style="fill: none; stroke: #b0b0b0; stroke-opacity: 0.25; stroke-width: 0.8; stroke-linecap: square"/>
     </g>
     <g id="line2d_2">
      <defs>
       <path id="m9a2474885e" d="M 0 0 
L 0 3.5 
" style="stroke: #000000; stroke-width: 0.8"/>
      </defs>
      <g>
       <use xlink:href="#m9a2474885e" x="82.349172" y="221.272" style="stroke: #000000; stroke-width: 0.8"/>
      </g>
     </g>
     <g id="text_1">
      <!-- 0 -->
      <g transform="translate(79.167922 235.870437) scale(0.1 -0.1)">
       <defs>
        <path id="DejaVuSans-30" d="M 2034 4250 
Q 1547 4250 1301 3770 
Q 1056 3291 1056 2328 
Q 1056 1369 1301 889 
Q 1547 409 2034 409 
Q 2525 409 2770 889 
Q 3016 1369 3016 2328 
Q 3016 3291 2770 3770 
Q 2525 4250 2034 4250 
z
M 2034 4750 
Q 2819 4750 3233 4129 
Q 3647 3509 3647 2328 
Q 3647 1150 3233 529 
Q 2819 -91 2034 -91 
Q 1250 -91 836 529 
Q 422 1150 422 2328 
Q 422 3509 836 4129 
Q 1250 4750 2034 4750 
z
" transform="scale(0.015625)"/>
       </defs>
       <use xlink:href="#DejaVuSans-30"/>
      </g>
     </g>
    </g>
    <g id="xtick_2">
     <g id="line2d_3">
      <path d="M 186.343035 221.272 
L 186.343035 41.856 
" clip-path="url(#p6fa4d8e15f)" style="fill: none; stroke: #b0b0b0; stroke-opacity: 0.25; stroke-width: 0.8; stroke-linecap: square"/>
     </g>
     <g id="line2d_4">
      <g>
       <use xlink:href="#m9a2474885e" x="186.343035" y="221.272" style="stroke: #000000; stroke-width: 0.8"/>
      </g>
     </g>
     <g id="text_2">
      <!-- 2 -->
      <g transform="translate(183.161785 235.870437) scale(0.1 -0.1)">
       <defs>
        <path id="DejaVuSans-32" d="M 1228 531 
L 3431 531 
L 3431 0 
L 469 0 
L 469 531 
Q 828 903 1448 1529 
Q 2069 2156 2228 2338 
Q 2531 2678 2651 2914 
Q 2772 3150 2772 3378 
Q 2772 3750 2511 3984 
Q 2250 4219 1831 4219 
Q 1534 4219 1204 4116 
Q 875 4013 500 3803 
L 500 4441 
Q 881 4594 1212 4672 
Q 1544 4750 1819 4750 
Q 2544 4750 2975 4387 
Q 3406 4025 3406 3419 
Q 3406 3131 3298 2873 
Q 3191 2616 2906 2266 
Q 2828 2175 2409 1742 
Q 1991 1309 1228 531 
z
" transform="scale(0.015625)"/>
       </defs>
       <use xlink:href="#DejaVuSans-32"/>
      </g>
     </g>
    </g>
    <g id="xtick_3">
     <g id="line2d_5">
      <path d="M 290.336897 221.272 
L 290.336897 41.856 
" clip-path="url(#p6fa4d8e15f)" style="fill: none; stroke: #b0b0b0; stroke-opacity: 0.25; stroke-width: 0.8; stroke-linecap: square"/>
     </g>
     <g id="line2d_6">
      <g>
       <use xlink:href="#m9a2474885e" x="290.336897" y="221.272" style="stroke: #000000; stroke-width: 0.8"/>
      </g>
     </g>
     <g id="text_3">
      <!-- 4 -->
      <g transform="translate(287.155647 235.870437) scale(0.1 -0.1)">
       <defs>
        <path id="DejaVuSans-34" d="M 2419 4116 
L 825 1625 
L 2419 1625 
L 2419 4116 
z
M 2253 4666 
L 3047 4666 
L 3047 1625 
L 3713 1625 
L 3713 1100 
L 3047 1100 
L 3047 0 
L 2419 0 
L 2419 1100 
L 313 1100 
L 313 1709 
L 2253 4666 
z
" transform="scale(0.015625)"/>
       </defs>
       <use xlink:href="#DejaVuSans-34"/>
      </g>
     </g>
    </g>
    <g id="xtick_4">
     <g id="line2d_7">
      <path d="M 394.33076 221.272 
L 394.33076 41.856 
" clip-path="url(#p6fa4d8e15f)" style="fill: none; stroke: #b0b0b0; stroke-opacity: 0.25; stroke-width: 0.8; stroke-linecap: square"/>
     </g>
     <g id="line2d_8">
      <g>
       <use xlink:href="#m9a2474885e" x="394.33076" y="221.272" style="stroke: #000000; stroke-width: 0.8"/>
      </g>
     </g>
     <g id="text_4">
      <!-- 6 -->
      <g transform="translate(391.14951 235.870437) scale(0.1 -0.1)">
       <defs>
        <path id="DejaVuSans-36" d="M 2113 2584 
Q 1688 2584 1439 2293 
Q 1191 2003 1191 1497 
Q 1191 994 1439 701 
Q 1688 409 2113 409 
Q 2538 409 2786 701 
Q 3034 994 3034 1497 
Q 3034 2003 2786 2293 
Q 2538 2584 2113 2584 
z
M 3366 4563 
L 3366 3988 
Q 3128 4100 2886 4159 
Q 2644 4219 2406 4219 
Q 1781 4219 1451 3797 
Q 1122 3375 1075 2522 
Q 1259 2794 1537 2939 
Q 1816 3084 2150 3084 
Q 2853 3084 3261 2657 
Q 3669 2231 3669 1497 
Q 3669 778 3244 343 
Q 2819 -91 2113 -91 
Q 1303 -91 875 529 
Q 447 1150 447 2328 
Q 447 3434 972 4092 
Q 1497 4750 2381 4750 
Q 2619 4750 2861 4703 
Q 3103 4656 3366 4563 
z
" transform="scale(0.015625)"/>
       </defs>
       <use xlink:href="#DejaVuSans-36"/>
      </g>
     </g>
    </g>
    <g id="xtick_5">
     <g id="line2d_9">
      <path d="M 498.324622 221.272 
L 498.324622 41.856 
" clip-path="url(#p6fa4d8e15f)" style="fill: none; stroke: #b0b0b0; stroke-opacity: 0.25; stroke-width: 0.8; stroke-linecap: square"/>
     </g>
     <g id="line2d_10">
      <g>
       <use xlink:href="#m9a2474885e" x="498.324622" y="221.272" style="stroke: #000000; stroke-width: 0.8"/>
      </g>
     </g>
     <g id="text_5">
      <!-- 8 -->
      <g transform="translate(495.143372 235.870437) scale(0.1 -0.1)">
       <defs>
        <path id="DejaVuSans-38" d="M 2034 2216 
Q 1584 2216 1326 1975 
Q 1069 1734 1069 1313 
Q 1069 891 1326 650 
Q 1584 409 2034 409 
Q 2484 409 2743 651 
Q 3003 894 3003 1313 
Q 3003 1734 2745 1975 
Q 2488 2216 2034 2216 
z
M 1403 2484 
Q 997 2584 770 2862 
Q 544 3141 544 3541 
Q 544 4100 942 4425 
Q 1341 4750 2034 4750 
Q 2731 4750 3128 4425 
Q 3525 4100 3525 3541 
Q 3525 3141 3298 2862 
Q 3072 2584 2669 2484 
Q 3125 2378 3379 2068 
Q 3634 1759 3634 1313 
Q 3634 634 3220 271 
Q 2806 -91 2034 -91 
Q 1263 -91 848 271 
Q 434 634 434 1313 
Q 434 1759 690 2068 
Q 947 2378 1403 2484 
z
M 1172 3481 
Q 1172 3119 1398 2916 
Q 1625 2713 2034 2713 
Q 2441 2713 2670 2916 
Q 2900 3119 2900 3481 
Q 2900 3844 2670 4047 
Q 2441 4250 2034 4250 
Q 1625 4250 1398 4047 
Q 1172 3844 1172 3481 
z
" transform="scale(0.015625)"/>
       </defs>
       <use xlink:href="#DejaVuSans-38"/>
      </g>
     </g>
    </g>
    <g id="xtick_6">
     <g id="line2d_11">
      <path d="M 602.318485 221.272 
L 602.318485 41.856 
" clip-path="url(#p6fa4d8e15f)" style="fill: none; stroke: #b0b0b0; stroke-opacity: 0.25; stroke-width: 0.8; stroke-linecap: square"/>
     </g>
     <g id="line2d_12">
      <g>
       <use xlink:href="#m9a2474885e" x="602.318485" y="221.272" style="stroke: #000000; stroke-width: 0.8"/>
      </g>
     </g>
     <g id="text_6">
      <!-- 10 -->
      <g transform="translate(595.955985 235.870437) scale(0.1 -0.1)">
       <defs>
        <path id="DejaVuSans-31" d="M 794 531 
L 1825 531 
L 1825 4091 
L 703 3866 
L 703 4441 
L 1819 4666 
L 2450 4666 
L 2450 531 
L 3481 531 
L 3481 0 
L 794 0 
L 794 531 
z
" transform="scale(0.015625)"/>
       </defs>
       <use xlink:href="#DejaVuSans-31"/>
       <use xlink:href="#DejaVuSans-30" transform="translate(63.623047 0)"/>
      </g>
     </g>
    </g>
    <g id="text_7">
     <!-- t [arb.] -->
     <g transform="translate(324.936762 249.548563) scale(0.1 -0.1)">
      <defs>
       <path id="DejaVuSans-74" d="M 1172 4494 
L 1172 3500 
L 2356 3500 
L 2356 3053 
L 1172 3053 
L 1172 1153 
Q 1172 725 1289 603 
Q 1406 481 1766 481 
L 2356 481 
L 2356 0 
L 1766 0 
Q 1100 0 847 248 
Q 594 497 594 1153 
L 594 3053 
L 172 3053 
L 172 3500 
L 594 3500 
L 594 4494 
L 1172 4494 
z
" transform="scale(0.015625)"/>
       <path id="DejaVuSans-20" transform="scale(0.015625)"/>
       <path id="DejaVuSans-5b" d="M 550 4863 
L 1875 4863 
L 1875 4416 
L 1125 4416 
L 1125 -397 
L 1875 -397 
L 1875 -844 
L 550 -844 
L 550 4863 
z
" transform="scale(0.015625)"/>
       <path id="DejaVuSans-61" d="M 2194 1759 
Q 1497 1759 1228 1600 
Q 959 1441 959 1056 
Q 959 750 1161 570 
Q 1363 391 1709 391 
Q 2188 391 2477 730 
Q 2766 1069 2766 1631 
L 2766 1759 
L 2194 1759 
z
M 3341 1997 
L 3341 0 
L 2766 0 
L 2766 531 
Q 2569 213 2275 61 
Q 1981 -91 1556 -91 
Q 1019 -91 701 211 
Q 384 513 384 1019 
Q 384 1609 779 1909 
Q 1175 2209 1959 2209 
L 2766 2209 
L 2766 2266 
Q 2766 2663 2505 2880 
Q 2244 3097 1772 3097 
Q 1472 3097 1187 3025 
Q 903 2953 641 2809 
L 641 3341 
Q 956 3463 1253 3523 
Q 1550 3584 1831 3584 
Q 2591 3584 2966 3190 
Q 3341 2797 3341 1997 
z
" transform="scale(0.015625)"/>
       <path id="DejaVuSans-72" d="M 2631 2963 
Q 2534 3019 2420 3045 
Q 2306 3072 2169 3072 
Q 1681 3072 1420 2755 
Q 1159 2438 1159 1844 
L 1159 0 
L 581 0 
L 581 3500 
L 1159 3500 
L 1159 2956 
Q 1341 3275 1631 3429 
Q 1922 3584 2338 3584 
Q 2397 3584 2469 3576 
Q 2541 3569 2628 3553 
L 2631 2963 
z
" transform="scale(0.015625)"/>
       <path id="DejaVuSans-62" d="M 3116 1747 
Q 3116 2381 2855 2742 
Q 2594 3103 2138 3103 
Q 1681 3103 1420 2742 
Q 1159 2381 1159 1747 
Q 1159 1113 1420 752 
Q 1681 391 2138 391 
Q 2594 391 2855 752 
Q 3116 1113 3116 1747 
z
M 1159 2969 
Q 1341 3281 1617 3432 
Q 1894 3584 2278 3584 
Q 2916 3584 3314 3078 
Q 3713 2572 3713 1747 
Q 3713 922 3314 415 
Q 2916 -91 2278 -91 
Q 1894 -91 1617 61 
Q 1341 213 1159 525 
L 1159 0 
L 581 0 
L 581 4863 
L 1159 4863 
L 1159 2969 
z
" transform="scale(0.015625)"/>
       <path id="DejaVuSans-2e" d="M 684 794 
L 1344 794 
L 1344 0 
L 684 0 
L 684 794 
z
" transform="scale(0.015625)"/>
       <path id="DejaVuSans-5d" d="M 1947 4863 
L 1947 -844 
L 622 -844 
L 622 -397 
L 1369 -397 
L 1369 4416 
L 622 4416 
L 622 4863 
L 1947 4863 
z
" transform="scale(0.015625)"/>
      </defs>
      <use xlink:href="#DejaVuSans-74"/>
      <use xlink:href="#DejaVuSans-20" transform="translate(39.208984 0)"/>
      <use xlink:href="#DejaVuSans-5b" transform="translate(70.996094 0)"/>
      <use xlink:href="#DejaVuSans-61" transform="translate(110.009766 0)"/>
      <use xlink:href="#DejaVuSans-72" transform="translate(171.289062 0)"/>
      <use xlink:href="#DejaVuSans-62" transform="translate(212.402344 0)"/>
      <use xlink:href="#DejaVuSans-2e" transform="translate(275.878906 0)"/>
      <use xlink:href="#DejaVuSans-5d" transform="translate(307.666016 0)"/>
     </g>
    </g>
   </g>
   <g id="matplotlib.axis_2">
    <g id="ytick_1">
     <g id="line2d_13">
      <path d="M 56.357054 213.116727 
L 628.183658 213.116727 
" clip-path="url(#p6fa4d8e15f)" style="fill: none; stroke: #b0b0b0; stroke-opacity: 0.25; stroke-width: 0.8; stroke-linecap: square"/>
     </g>
     <g id="line2d_14">
      <defs>
       <path id="mb5ec1c4e2d" d="M 0 0 
L -3.5 0 
" style="stroke: #000000; stroke-width: 0.8"/>
      </defs>
      <g>
       <use xlink:href="#mb5ec1c4e2d" x="56.357054" y="213.116727" style="stroke: #000000; stroke-width: 0.8"/>
      </g>
     </g>
     <g id="text_8">
      <!-- 0.0 -->
      <g transform="translate(33.453929 216.915946) scale(0.1 -0.1)">
       <use xlink:href="#DejaVuSans-30"/>
       <use xlink:href="#DejaVuSans-2e" transform="translate(63.623047 0)"/>
       <use xlink:href="#DejaVuSans-30" transform="translate(95.410156 0)"/>
      </g>
     </g>
    </g>
    <g id="ytick_2">
     <g id="line2d_15">
      <path d="M 56.357054 189.75211 
L 628.183658 189.75211 
" clip-path="url(#p6fa4d8e15f)" style="fill: none; stroke: #b0b0b0; stroke-opacity: 0.25; stroke-width: 0.8; stroke-linecap: square"/>
     </g>
     <g id="line2d_16">
      <g>
       <use xlink:href="#mb5ec1c4e2d" x="56.357054" y="189.75211" style="stroke: #000000; stroke-width: 0.8"/>
      </g>
     </g>
     <g id="text_9">
      <!-- 0.2 -->
      <g transform="translate(33.453929 193.551329) scale(0.1 -0.1)">
       <use xlink:href="#DejaVuSans-30"/>
       <use xlink:href="#DejaVuSans-2e" transform="translate(63.623047 0)"/>
       <use xlink:href="#DejaVuSans-32" transform="translate(95.410156 0)"/>
      </g>
     </g>
    </g>
    <g id="ytick_3">
     <g id="line2d_17">
      <path d="M 56.357054 166.387493 
L 628.183658 166.387493 
" clip-path="url(#p6fa4d8e15f)" style="fill: none; stroke: #b0b0b0; stroke-opacity: 0.25; stroke-width: 0.8; stroke-linecap: square"/>
     </g>
     <g id="line2d_18">
      <g>
       <use xlink:href="#mb5ec1c4e2d" x="56.357054" y="166.387493" style="stroke: #000000; stroke-width: 0.8"/>
      </g>
     </g>
     <g id="text_10">
      <!-- 0.4 -->
      <g transform="translate(33.453929 170.186711) scale(0.1 -0.1)">
       <use xlink:href="#DejaVuSans-30"/>
       <use xlink:href="#DejaVuSans-2e" transform="translate(63.623047 0)"/>
       <use xlink:href="#DejaVuSans-34" transform="translate(95.410156 0)"/>
      </g>
     </g>
    </g>
    <g id="ytick_4">
     <g id="line2d_19">
      <path d="M 56.357054 143.022875 
L 628.183658 143.022875 
" clip-path="url(#p6fa4d8e15f)" style="fill: none; stroke: #b0b0b0; stroke-opacity: 0.25; stroke-width: 0.8; stroke-linecap: square"/>
     </g>
     <g id="line2d_20">
      <g>
       <use xlink:href="#mb5ec1c4e2d" x="56.357054" y="143.022875" style="stroke: #000000; stroke-width: 0.8"/>
      </g>
     </g>
     <g id="text_11">
      <!-- 0.6 -->
      <g transform="translate(33.453929 146.822094) scale(0.1 -0.1)">
       <use xlink:href="#DejaVuSans-30"/>
       <use xlink:href="#DejaVuSans-2e" transform="translate(63.623047 0)"/>
       <use xlink:href="#DejaVuSans-36" transform="translate(95.410156 0)"/>
      </g>
     </g>
    </g>
    <g id="ytick_5">
     <g id="line2d_21">
      <path d="M 56.357054 119.658258 
L 628.183658 119.658258 
" clip-path="url(#p6fa4d8e15f)" style="fill: none; stroke: #b0b0b0; stroke-opacity: 0.25; stroke-width: 0.8; stroke-linecap: square"/>
     </g>
     <g id="line2d_22">
      <g>
       <use xlink:href="#mb5ec1c4e2d" x="56.357054" y="119.658258" style="stroke: #000000; stroke-width: 0.8"/>
      </g>
     </g>
     <g id="text_12">
      <!-- 0.8 -->
      <g transform="translate(33.453929 123.457477) scale(0.1 -0.1)">
       <use xlink:href="#DejaVuSans-30"/>
       <use xlink:href="#DejaVuSans-2e" transform="translate(63.623047 0)"/>
       <use xlink:href="#DejaVuSans-38" transform="translate(95.410156 0)"/>
      </g>
     </g>
    </g>
    <g id="ytick_6">
     <g id="line2d_23">
      <path d="M 56.357054 96.293641 
L 628.183658 96.293641 
" clip-path="url(#p6fa4d8e15f)" style="fill: none; stroke: #b0b0b0; stroke-opacity: 0.25; stroke-width: 0.8; stroke-linecap: square"/>
     </g>
     <g id="line2d_24">
      <g>
       <use xlink:href="#mb5ec1c4e2d" x="56.357054" y="96.293641" style="stroke: #000000; stroke-width: 0.8"/>
      </g>
     </g>
     <g id="text_13">
      <!-- 1.0 -->
      <g transform="translate(33.453929 100.09286) scale(0.1 -0.1)">
       <use xlink:href="#DejaVuSans-31"/>
       <use xlink:href="#DejaVuSans-2e" transform="translate(63.623047 0)"/>
       <use xlink:href="#DejaVuSans-30" transform="translate(95.410156 0)"/>
      </g>
     </g>
    </g>
    <g id="ytick_7">
     <g id="line2d_25">
      <path d="M 56.357054 72.929024 
L 628.183658 72.929024 
" clip-path="url(#p6fa4d8e15f)" style="fill: none; stroke: #b0b0b0; stroke-opacity: 0.25; stroke-width: 0.8; stroke-linecap: square"/>
     </g>
     <g id="line2d_26">
      <g>
       <use xlink:href="#mb5ec1c4e2d" x="56.357054" y="72.929024" style="stroke: #000000; stroke-width: 0.8"/>
      </g>
     </g>
     <g id="text_14">
      <!-- 1.2 -->
      <g transform="translate(33.453929 76.728242) scale(0.1 -0.1)">
       <use xlink:href="#DejaVuSans-31"/>
       <use xlink:href="#DejaVuSans-2e" transform="translate(63.623047 0)"/>
       <use xlink:href="#DejaVuSans-32" transform="translate(95.410156 0)"/>
      </g>
     </g>
    </g>
    <g id="ytick_8">
     <g id="line2d_27">
      <path d="M 56.357054 49.564406 
L 628.183658 49.564406 
" clip-path="url(#p6fa4d8e15f)" style="fill: none; stroke: #b0b0b0; stroke-opacity: 0.25; stroke-width: 0.8; stroke-linecap: square"/>
     </g>
     <g id="line2d_28">
      <g>
       <use xlink:href="#mb5ec1c4e2d" x="56.357054" y="49.564406" style="stroke: #000000; stroke-width: 0.8"/>
      </g>
     </g>
     <g id="text_15">
      <!-- 1.4 -->
      <g transform="translate(33.453929 53.363625) scale(0.1 -0.1)">
       <use xlink:href="#DejaVuSans-31"/>
       <use xlink:href="#DejaVuSans-2e" transform="translate(63.623047 0)"/>
       <use xlink:href="#DejaVuSans-34" transform="translate(95.410156 0)"/>
      </g>
     </g>
    </g>
    <g id="text_16">
     <!-- [arb.] -->
     <g transform="translate(27.374241 145.348375) rotate(-90) scale(0.1 -0.1)">
      <use xlink:href="#DejaVuSans-5b"/>
      <use xlink:href="#DejaVuSans-61" transform="translate(39.013672 0)"/>
      <use xlink:href="#DejaVuSans-72" transform="translate(100.292969 0)"/>
      <use xlink:href="#DejaVuSans-62" transform="translate(141.40625 0)"/>
      <use xlink:href="#DejaVuSans-2e" transform="translate(204.882812 0)"/>
      <use xlink:href="#DejaVuSans-5d" transform="translate(236.669922 0)"/>
     </g>
    </g>
   </g>
   <g id="line2d_29">
    <path d="M 82.349172 213.116727 
L 134.269936 213.116727 
L 134.396882 50.011273 
L 602.191539 50.011273 
L 602.191539 50.011273 
" clip-path="url(#p6fa4d8e15f)" style="fill: none; stroke: #1f77b4; stroke-width: 1.5; stroke-linecap: square"/>
   </g>
   <g id="line2d_30">
    <path d="M 82.349172 213.116727 
L 134.904664 213.017206 
L 173.750028 207.040678 
L 213.357065 201.172523 
L 253.725777 195.417121 
L 294.856162 189.778448 
L 336.748221 184.260074 
L 379.528899 178.849441 
L 423.198197 173.551264 
L 467.756114 168.369783 
L 513.329596 163.29494 
L 559.918643 158.331856 
L 602.191539 154.016981 
L 602.191539 154.016981 
" clip-path="url(#p6fa4d8e15f)" style="fill: none; stroke: #ff7f0e; stroke-width: 1.5; stroke-linecap: square"/>
   </g>
   <g id="patch_3">
    <path d="M 56.357054 221.272 
L 56.357054 41.856 
" style="fill: none; stroke: #000000; stroke-width: 0.8; stroke-linejoin: miter; stroke-linecap: square"/>
   </g>
   <g id="patch_4">
    <path d="M 628.183658 221.272 
L 628.183658 41.856 
" style="fill: none; stroke: #000000; stroke-width: 0.8; stroke-linejoin: miter; stroke-linecap: square"/>
   </g>
   <g id="patch_5">
    <path d="M 56.357054 221.272 
L 628.183658 221.272 
" style="fill: none; stroke: #000000; stroke-width: 0.8; stroke-linejoin: miter; stroke-linecap: square"/>
   </g>
   <g id="patch_6">
    <path d="M 56.357054 41.856 
L 628.183658 41.856 
" style="fill: none; stroke: #000000; stroke-width: 0.8; stroke-linejoin: miter; stroke-linecap: square"/>
   </g>
   <g id="text_17">
    <!-- Daily Useless RL (2026-05-28) | verdict: calm -->
    <g transform="translate(206.503481 22.021875) scale(0.12 -0.12)">
     <defs>
      <path id="DejaVuSans-44" d="M 1259 4147 
L 1259 519 
L 2022 519 
Q 2988 519 3436 956 
Q 3884 1394 3884 2338 
Q 3884 3275 3436 3711 
Q 2988 4147 2022 4147 
L 1259 4147 
z
M 628 4666 
L 1925 4666 
Q 3281 4666 3915 4102 
Q 4550 3538 4550 2338 
Q 4550 1131 3912 565 
Q 3275 0 1925 0 
L 628 0 
L 628 4666 
z
" transform="scale(0.015625)"/>
      <path id="DejaVuSans-69" d="M 603 3500 
L 1178 3500 
L 1178 0 
L 603 0 
L 603 3500 
z
M 603 4863 
L 1178 4863 
L 1178 4134 
L 603 4134 
L 603 4863 
z
" transform="scale(0.015625)"/>
      <path id="DejaVuSans-6c" d="M 603 4863 
L 1178 4863 
L 1178 0 
L 603 0 
L 603 4863 
z
" transform="scale(0.015625)"/>
      <path id="DejaVuSans-79" d="M 2059 -325 
Q 1816 -950 1584 -1140 
Q 1353 -1331 966 -1331 
L 506 -1331 
L 506 -850 
L 844 -850 
Q 1081 -850 1212 -737 
Q 1344 -625 1503 -206 
L 1606 56 
L 191 3500 
L 800 3500 
L 1894 763 
L 2988 3500 
L 3597 3500 
L 2059 -325 
z
" transform="scale(0.015625)"/>
      <path id="DejaVuSans-55" d="M 556 4666 
L 1191 4666 
L 1191 1831 
Q 1191 1081 1462 751 
Q 1734 422 2344 422 
Q 2950 422 3222 751 
Q 3494 1081 3494 1831 
L 3494 4666 
L 4128 4666 
L 4128 1753 
Q 4128 841 3676 375 
Q 3225 -91 2344 -91 
Q 1459 -91 1007 375 
Q 556 841 556 1753 
L 556 4666 
z
" transform="scale(0.015625)"/>
      <path id="DejaVuSans-73" d="M 2834 3397 
L 2834 2853 
Q 2591 2978 2328 3040 
Q 2066 3103 1784 3103 
Q 1356 3103 1142 2972 
Q 928 2841 928 2578 
Q 928 2378 1081 2264 
Q 1234 2150 1697 2047 
L 1894 2003 
Q 2506 1872 2764 1633 
Q 3022 1394 3022 966 
Q 3022 478 2636 193 
Q 2250 -91 1575 -91 
Q 1294 -91 989 -36 
Q 684 19 347 128 
L 347 722 
Q 666 556 975 473 
Q 1284 391 1588 391 
Q 1994 391 2212 530 
Q 2431 669 2431 922 
Q 2431 1156 2273 1281 
Q 2116 1406 1581 1522 
L 1381 1569 
Q 847 1681 609 1914 
Q 372 2147 372 2553 
Q 372 3047 722 3315 
Q 1072 3584 1716 3584 
Q 2034 3584 2315 3537 
Q 2597 3491 2834 3397 
z
" transform="scale(0.015625)"/>
      <path id="DejaVuSans-65" d="M 3597 1894 
L 3597 1613 
L 953 1613 
Q 991 1019 1311 708 
Q 1631 397 2203 397 
Q 2534 397 2845 478 
Q 3156 559 3463 722 
L 3463 178 
Q 3153 47 2828 -22 
Q 2503 -91 2169 -91 
Q 1331 -91 842 396 
Q 353 884 353 1716 
Q 353 2575 817 3079 
Q 1281 3584 2069 3584 
Q 2775 3584 3186 3129 
Q 3597 2675 3597 1894 
z
M 3022 2063 
Q 3016 2534 2758 2815 
Q 2500 3097 2075 3097 
Q 1594 3097 1305 2825 
Q 1016 2553 972 2059 
L 3022 2063 
z
" transform="scale(0.015625)"/>
      <path id="DejaVuSans-52" d="M 2841 2188 
Q 3044 2119 3236 1894 
Q 3428 1669 3622 1275 
L 4263 0 
L 3584 0 
L 2988 1197 
Q 2756 1666 2539 1819 
Q 2322 1972 1947 1972 
L 1259 1972 
L 1259 0 
L 628 0 
L 628 4666 
L 2053 4666 
Q 2853 4666 3247 4331 
Q 3641 3997 3641 3322 
Q 3641 2881 3436 2590 
Q 3231 2300 2841 2188 
z
M 1259 4147 
L 1259 2491 
L 2053 2491 
Q 2509 2491 2742 2702 
Q 2975 2913 2975 3322 
Q 2975 3731 2742 3939 
Q 2509 4147 2053 4147 
L 1259 4147 
z
" transform="scale(0.015625)"/>
      <path id="DejaVuSans-4c" d="M 628 4666 
L 1259 4666 
L 1259 531 
L 3531 531 
L 3531 0 
L 628 0 
L 628 4666 
z
" transform="scale(0.015625)"/>
      <path id="DejaVuSans-28" d="M 1984 4856 
Q 1566 4138 1362 3434 
Q 1159 2731 1159 2009 
Q 1159 1288 1364 580 
Q 1569 -128 1984 -844 
L 1484 -844 
Q 1016 -109 783 600 
Q 550 1309 550 2009 
Q 550 2706 781 3412 
Q 1013 4119 1484 4856 
L 1984 4856 
z
" transform="scale(0.015625)"/>
      <path id="DejaVuSans-2d" d="M 313 2009 
L 1997 2009 
L 1997 1497 
L 313 1497 
L 313 2009 
z
" transform="scale(0.015625)"/>
      <path id="DejaVuSans-35" d="M 691 4666 
L 3169 4666 
L 3169 4134 
L 1269 4134 
L 1269 2991 
Q 1406 3038 1543 3061 
Q 1681 3084 1819 3084 
Q 2600 3084 3056 2656 
Q 3513 2228 3513 1497 
Q 3513 744 3044 326 
Q 2575 -91 1722 -91 
Q 1428 -91 1123 -41 
Q 819 9 494 109 
L 494 744 
Q 775 591 1075 516 
Q 1375 441 1709 441 
Q 2250 441 2565 725 
Q 2881 1009 2881 1497 
Q 2881 1984 2565 2268 
Q 2250 2553 1709 2553 
Q 1456 2553 1204 2497 
Q 953 2441 691 2322 
L 691 4666 
z
" transform="scale(0.015625)"/>
      <path id="DejaVuSans-29" d="M 513 4856 
L 1013 4856 
Q 1481 4119 1714 3412 
Q 1947 2706 1947 2009 
Q 1947 1309 1714 600 
Q 1481 -109 1013 -844 
L 513 -844 
Q 928 -128 1133 580 
Q 1338 1288 1338 2009 
Q 1338 2731 1133 3434 
Q 928 4138 513 4856 
z
" transform="scale(0.015625)"/>
      <path id="DejaVuSans-7c" d="M 1344 4891 
L 1344 -1509 
L 813 -1509 
L 813 4891 
L 1344 4891 
z
" transform="scale(0.015625)"/>
      <path id="DejaVuSans-76" d="M 191 3500 
L 800 3500 
L 1894 563 
L 2988 3500 
L 3597 3500 
L 2284 0 
L 1503 0 
L 191 3500 
z
" transform="scale(0.015625)"/>
      <path id="DejaVuSans-64" d="M 2906 2969 
L 2906 4863 
L 3481 4863 
L 3481 0 
L 2906 0 
L 2906 525 
Q 2725 213 2448 61 
Q 2172 -91 1784 -91 
Q 1150 -91 751 415 
Q 353 922 353 1747 
Q 353 2572 751 3078 
Q 1150 3584 1784 3584 
Q 2172 3584 2448 3432 
Q 2725 3281 2906 2969 
z
M 947 1747 
Q 947 1113 1208 752 
Q 1469 391 1925 391 
Q 2381 391 2643 752 
Q 2906 1113 2906 1747 
Q 2906 2381 2643 2742 
Q 2381 3103 1925 3103 
Q 1469 3103 1208 2742 
Q 947 2381 947 1747 
z
" transform="scale(0.015625)"/>
      <path id="DejaVuSans-63" d="M 3122 3366 
L 3122 2828 
Q 2878 2963 2633 3030 
Q 2388 3097 2138 3097 
Q 1578 3097 1268 2742 
Q 959 2388 959 1747 
Q 959 1106 1268 751 
Q 1578 397 2138 397 
Q 2388 397 2633 464 
Q 2878 531 3122 666 
L 3122 134 
Q 2881 22 2623 -34 
Q 2366 -91 2075 -91 
Q 1284 -91 818 406 
Q 353 903 353 1747 
Q 353 2603 823 3093 
Q 1294 3584 2113 3584 
Q 2378 3584 2631 3529 
Q 2884 3475 3122 3366 
z
" transform="scale(0.015625)"/>
      <path id="DejaVuSans-3a" d="M 750 794 
L 1409 794 
L 1409 0 
L 750 0 
L 750 794 
z
M 750 3309 
L 1409 3309 
L 1409 2516 
L 750 2516 
L 750 3309 
z
" transform="scale(0.015625)"/>
      <path id="DejaVuSans-6d" d="M 3328 2828 
Q 3544 3216 3844 3400 
Q 4144 3584 4550 3584 
Q 5097 3584 5394 3201 
Q 5691 2819 5691 2113 
L 5691 0 
L 5113 0 
L 5113 2094 
Q 5113 2597 4934 2840 
Q 4756 3084 4391 3084 
Q 3944 3084 3684 2787 
Q 3425 2491 3425 1978 
L 3425 0 
L 2847 0 
L 2847 2094 
Q 2847 2600 2669 2842 
Q 2491 3084 2119 3084 
Q 1678 3084 1418 2786 
Q 1159 2488 1159 1978 
L 1159 0 
L 581 0 
L 581 3500 
L 1159 3500 
L 1159 2956 
Q 1356 3278 1631 3431 
Q 1906 3584 2284 3584 
Q 2666 3584 2933 3390 
Q 3200 3197 3328 2828 
z
" transform="scale(0.015625)"/>
     </defs>
     <use xlink:href="#DejaVuSans-44"/>
     <use xlink:href="#DejaVuSans-61" transform="translate(77.001953 0)"/>
     <use xlink:href="#DejaVuSans-69" transform="translate(138.28125 0)"/>
     <use xlink:href="#DejaVuSans-6c" transform="translate(166.064453 0)"/>
     <use xlink:href="#DejaVuSans-79" transform="translate(193.847656 0)"/>
     <use xlink:href="#DejaVuSans-20" transform="translate(253.027344 0)"/>
     <use xlink:href="#DejaVuSans-55" transform="translate(284.814453 0)"/>
     <use xlink:href="#DejaVuSans-73" transform="translate(358.007812 0)"/>
     <use xlink:href="#DejaVuSans-65" transform="translate(410.107422 0)"/>
     <use xlink:href="#DejaVuSans-6c" transform="translate(471.630859 0)"/>
     <use xlink:href="#DejaVuSans-65" transform="translate(499.414062 0)"/>
     <use xlink:href="#DejaVuSans-73" transform="translate(560.9375 0)"/>
     <use xlink:href="#DejaVuSans-73" transform="translate(613.037109 0)"/>
     <use xlink:href="#DejaVuSans-20" transform="translate(665.136719 0)"/>
     <use xlink:href="#DejaVuSans-52" transform="translate(696.923828 0)"/>
     <use xlink:href="#DejaVuSans-4c" transform="translate(766.40625 0)"/>
     <use xlink:href="#DejaVuSans-20" transform="translate(822.119141 0)"/>
     <use xlink:href="#DejaVuSans-28" transform="translate(853.90625 0)"/>
     <use xlink:href="#DejaVuSans-32" transform="translate(892.919922 0)"/>
     <use xlink:href="#DejaVuSans-30" transform="translate(956.542969 0)"/>
     <use xlink:href="#DejaVuSans-32" transform="translate(1020.166016 0)"/>
     <use xlink:href="#DejaVuSans-36" transform="translate(1083.789062 0)"/>
     <use xlink:href="#DejaVuSans-2d" transform="translate(1147.412109 0)"/>
     <use xlink:href="#DejaVuSans-30" transform="translate(1183.496094 0)"/>
     <use xlink:href="#DejaVuSans-35" transform="translate(1247.119141 0)"/>
     <use xlink:href="#DejaVuSans-2d" transform="translate(1310.742188 0)"/>
     <use xlink:href="#DejaVuSans-32" transform="translate(1346.826172 0)"/>
     <use xlink:href="#DejaVuSans-38" transform="translate(1410.449219 0)"/>
     <use xlink:href="#DejaVuSans-29" transform="translate(1474.072266 0)"/>
     <use xlink:href="#DejaVuSans-20" transform="translate(1513.085938 0)"/>
     <use xlink:href="#DejaVuSans-7c" transform="translate(1544.873047 0)"/>
     <use xlink:href="#DejaVuSans-20" transform="translate(1578.564453 0)"/>
     <use xlink:href="#DejaVuSans-76" transform="translate(1610.351562 0)"/>
     <use xlink:href="#DejaVuSans-65" transform="translate(1669.53125 0)"/>
     <use xlink:href="#DejaVuSans-72" transform="translate(1731.054688 0)"/>
     <use xlink:href="#DejaVuSans-64" transform="translate(1770.417969 0)"/>
     <use xlink:href="#DejaVuSans-69" transform="translate(1833.894531 0)"/>
     <use xlink:href="#DejaVuSans-63" transform="translate(1861.677734 0)"/>
     <use xlink:href="#DejaVuSans-74" transform="translate(1916.658203 0)"/>
     <use xlink:href="#DejaVuSans-3a" transform="translate(1955.867188 0)"/>
     <use xlink:href="#DejaVuSans-20" transform="translate(1989.558594 0)"/>
     <use xlink:href="#DejaVuSans-63" transform="translate(2021.345703 0)"/>
     <use xlink:href="#DejaVuSans-61" transform="translate(2076.326172 0)"/>
     <use xlink:href="#DejaVuSans-6c" transform="translate(2137.605469 0)"/>
     <use xlink:href="#DejaVuSans-6d" transform="translate(2165.388672 0)"/>
    </g>
    <!-- Filter: low | Input: step, step (A=1.40) | R=0.50, L=10.00, τ=20.00 -->
    <g transform="translate(141.807543 35.856) scale(0.12 -0.12)">
     <defs>
      <path id="DejaVuSans-46" d="M 628 4666 
L 3309 4666 
L 3309 4134 
L 1259 4134 
L 1259 2759 
L 3109 2759 
L 3109 2228 
L 1259 2228 
L 1259 0 
L 628 0 
L 628 4666 
z
" transform="scale(0.015625)"/>
      <path id="DejaVuSans-6f" d="M 1959 3097 
Q 1497 3097 1228 2736 
Q 959 2375 959 1747 
Q 959 1119 1226 758 
Q 1494 397 1959 397 
Q 2419 397 2687 759 
Q 2956 1122 2956 1747 
Q 2956 2369 2687 2733 
Q 2419 3097 1959 3097 
z
M 1959 3584 
Q 2709 3584 3137 3096 
Q 3566 2609 3566 1747 
Q 3566 888 3137 398 
Q 2709 -91 1959 -91 
Q 1206 -91 779 398 
Q 353 888 353 1747 
Q 353 2609 779 3096 
Q 1206 3584 1959 3584 
z
" transform="scale(0.015625)"/>
      <path id="DejaVuSans-77" d="M 269 3500 
L 844 3500 
L 1563 769 
L 2278 3500 
L 2956 3500 
L 3675 769 
L 4391 3500 
L 4966 3500 
L 4050 0 
L 3372 0 
L 2619 2869 
L 1863 0 
L 1184 0 
L 269 3500 
z
" transform="scale(0.015625)"/>
      <path id="DejaVuSans-49" d="M 628 4666 
L 1259 4666 
L 1259 0 
L 628 0 
L 628 4666 
z
" transform="scale(0.015625)"/>
      <path id="DejaVuSans-6e" d="M 3513 2113 
L 3513 0 
L 2938 0 
L 2938 2094 
Q 2938 2591 2744 2837 
Q 2550 3084 2163 3084 
Q 1697 3084 1428 2787 
Q 1159 2491 1159 1978 
L 1159 0 
L 581 0 
L 581 3500 
L 1159 3500 
L 1159 2956 
Q 1366 3272 1645 3428 
Q 1925 3584 2291 3584 
Q 2894 3584 3203 3211 
Q 3513 2838 3513 2113 
z
" transform="scale(0.015625)"/>
      <path id="DejaVuSans-70" d="M 1159 525 
L 1159 -1331 
L 581 -1331 
L 581 3500 
L 1159 3500 
L 1159 2969 
Q 1341 3281 1617 3432 
Q 1894 3584 2278 3584 
Q 2916 3584 3314 3078 
Q 3713 2572 3713 1747 
Q 3713 922 3314 415 
Q 2916 -91 2278 -91 
Q 1894 -91 1617 61 
Q 1341 213 1159 525 
z
M 3116 1747 
Q 3116 2381 2855 2742 
Q 2594 3103 2138 3103 
Q 1681 3103 1420 2742 
Q 1159 2381 1159 1747 
Q 1159 1113 1420 752 
Q 1681 391 2138 391 
Q 2594 391 2855 752 
Q 3116 1113 3116 1747 
z
" transform="scale(0.015625)"/>
      <path id="DejaVuSans-75" d="M 544 1381 
L 544 3500 
L 1119 3500 
L 1119 1403 
Q 1119 906 1312 657 
Q 1506 409 1894 409 
Q 2359 409 2629 706 
Q 2900 1003 2900 1516 
L 2900 3500 
L 3475 3500 
L 3475 0 
L 2900 0 
L 2900 538 
Q 2691 219 2414 64 
Q 2138 -91 1772 -91 
Q 1169 -91 856 284 
Q 544 659 544 1381 
z
M 1991 3584 
L 1991 3584 
z
" transform="scale(0.015625)"/>
      <path id="DejaVuSans-2c" d="M 750 794 
L 1409 794 
L 1409 256 
L 897 -744 
L 494 -744 
L 750 256 
L 750 794 
z
" transform="scale(0.015625)"/>
      <path id="DejaVuSans-41" d="M 2188 4044 
L 1331 1722 
L 3047 1722 
L 2188 4044 
z
M 1831 4666 
L 2547 4666 
L 4325 0 
L 3669 0 
L 3244 1197 
L 1141 1197 
L 716 0 
L 50 0 
L 1831 4666 
z
" transform="scale(0.015625)"/>
      <path id="DejaVuSans-3d" d="M 678 2906 
L 4684 2906 
L 4684 2381 
L 678 2381 
L 678 2906 
z
M 678 1631 
L 4684 1631 
L 4684 1100 
L 678 1100 
L 678 1631 
z
" transform="scale(0.015625)"/>
      <path id="DejaVuSans-3c4" d="M 2319 638 
Q 2431 488 2769 488 
L 3047 488 
L 3047 0 
L 2700 0 
Q 2138 0 1881 300 
Q 1625 606 1625 1269 
L 1625 2925 
L 313 2925 
L 313 3500 
L 3541 3500 
L 3541 2925 
L 2213 2925 
L 2213 1234 
Q 2213 781 2319 638 
z
" transform="scale(0.015625)"/>
     </defs>
     <use xlink:href="#DejaVuSans-46"/>
     <use xlink:href="#DejaVuSans-69" transform="translate(50.269531 0)"/>
     <use xlink:href="#DejaVuSans-6c" transform="translate(78.052734 0)"/>
     <use xlink:href="#DejaVuSans-74" transform="translate(105.835938 0)"/>
     <use xlink:href="#DejaVuSans-65" transform="translate(145.044922 0)"/>
     <use xlink:href="#DejaVuSans-72" transform="translate(206.568359 0)"/>
     <use xlink:href="#DejaVuSans-3a" transform="translate(245.931641 0)"/>
     <use xlink:href="#DejaVuSans-20" transform="translate(279.623047 0)"/>
     <use xlink:href="#DejaVuSans-6c" transform="translate(311.410156 0)"/>
     <use xlink:href="#DejaVuSans-6f" transform="translate(339.193359 0)"/>
     <use xlink:href="#DejaVuSans-77" transform="translate(400.375 0)"/>
     <use xlink:href="#DejaVuSans-20" transform="translate(482.162109 0)"/>
     <use xlink:href="#DejaVuSans-7c" transform="translate(513.949219 0)"/>
     <use xlink:href="#DejaVuSans-20" transform="translate(547.640625 0)"/>
     <use xlink:href="#DejaVuSans-49" transform="translate(579.427734 0)"/>
     <use xlink:href="#DejaVuSans-6e" transform="translate(608.919922 0)"/>
     <use xlink:href="#DejaVuSans-70" transform="translate(672.298828 0)"/>
     <use xlink:href="#DejaVuSans-75" transform="translate(735.775391 0)"/>
     <use xlink:href="#DejaVuSans-74" transform="translate(799.154297 0)"/>
     <use xlink:href="#DejaVuSans-3a" transform="translate(838.363281 0)"/>
     <use xlink:href="#DejaVuSans-20" transform="translate(872.054688 0)"/>
     <use xlink:href="#DejaVuSans-73" transform="translate(903.841797 0)"/>
     <use xlink:href="#DejaVuSans-74" transform="translate(955.941406 0)"/>
     <use xlink:href="#DejaVuSans-65" transform="translate(995.150391 0)"/>
     <use xlink:href="#DejaVuSans-70" transform="translate(1056.673828 0)"/>
     <use xlink:href="#DejaVuSans-2c" transform="translate(1120.150391 0)"/>
     <use xlink:href="#DejaVuSans-20" transform="translate(1151.9375 0)"/>
     <use xlink:href="#DejaVuSans-73" transform="translate(1183.724609 0)"/>
     <use xlink:href="#DejaVuSans-74" transform="translate(1235.824219 0)"/>
     <use xlink:href="#DejaVuSans-65" transform="translate(1275.033203 0)"/>
     <use xlink:href="#DejaVuSans-70" transform="translate(1336.556641 0)"/>
     <use xlink:href="#DejaVuSans-20" transform="translate(1400.033203 0)"/>
     <use xlink:href="#DejaVuSans-28" transform="translate(1431.820312 0)"/>
     <use xlink:href="#DejaVuSans-41" transform="translate(1470.833984 0)"/>
     <use xlink:href="#DejaVuSans-3d" transform="translate(1539.242188 0)"/>
     <use xlink:href="#DejaVuSans-31" transform="translate(1623.03125 0)"/>
     <use xlink:href="#DejaVuSans-2e" transform="translate(1686.654297 0)"/>
     <use xlink:href="#DejaVuSans-34" transform="translate(1718.441406 0)"/>
     <use xlink:href="#DejaVuSans-30" transform="translate(1782.064453 0)"/>
     <use xlink:href="#DejaVuSans-29" transform="translate(1845.6875 0)"/>
     <use xlink:href="#DejaVuSans-20" transform="translate(1884.701172 0)"/>
     <use xlink:href="#DejaVuSans-7c" transform="translate(1916.488281 0)"/>
     <use xlink:href="#DejaVuSans-20" transform="translate(1950.179688 0)"/>
     <use xlink:href="#DejaVuSans-52" transform="translate(1981.966797 0)"/>
     <use xlink:href="#DejaVuSans-3d" transform="translate(2051.449219 0)"/>
     <use xlink:href="#DejaVuSans-30" transform="translate(2135.238281 0)"/>
     <use xlink:href="#DejaVuSans-2e" transform="translate(2198.861328 0)"/>
     <use xlink:href="#DejaVuSans-35" transform="translate(2230.648438 0)"/>
     <use xlink:href="#DejaVuSans-30" transform="translate(2294.271484 0)"/>
     <use xlink:href="#DejaVuSans-2c" transform="translate(2357.894531 0)"/>
     <use xlink:href="#DejaVuSans-20" transform="translate(2389.681641 0)"/>
     <use xlink:href="#DejaVuSans-4c" transform="translate(2421.46875 0)"/>
     <use xlink:href="#DejaVuSans-3d" transform="translate(2477.181641 0)"/>
     <use xlink:href="#DejaVuSans-31" transform="translate(2560.970703 0)"/>
     <use xlink:href="#DejaVuSans-30" transform="translate(2624.59375 0)"/>
     <use xlink:href="#DejaVuSans-2e" transform="translate(2688.216797 0)"/>
     <use xlink:href="#DejaVuSans-30" transform="translate(2720.003906 0)"/>
     <use xlink:href="#DejaVuSans-30" transform="translate(2783.626953 0)"/>
     <use xlink:href="#DejaVuSans-2c" transform="translate(2847.25 0)"/>
     <use xlink:href="#DejaVuSans-20" transform="translate(2879.037109 0)"/>
     <use xlink:href="#DejaVuSans-3c4" transform="translate(2910.824219 0)"/>
     <use xlink:href="#DejaVuSans-3d" transform="translate(2971.029297 0)"/>
     <use xlink:href="#DejaVuSans-32" transform="translate(3054.818359 0)"/>
     <use xlink:href="#DejaVuSans-30" transform="translate(3118.441406 0)"/>
     <use xlink:href="#DejaVuSans-2e" transform="translate(3182.064453 0)"/>
     <use xlink:href="#DejaVuSans-30" transform="translate(3213.851562 0)"/>
     <use xlink:href="#DejaVuSans-30" transform="translate(3277.474609 0)"/>
    </g>
   </g>
   <g id="legend_1">
    <g id="patch_7">
     <path d="M 63.357054 79.21225 
L 128.339866 79.21225 
Q 130.339866 79.21225 130.339866 77.21225 
L 130.339866 48.856 
Q 130.339866 46.856 128.339866 46.856 
L 63.357054 46.856 
Q 61.357054 46.856 61.357054 48.856 
L 61.357054 77.21225 
Q 61.357054 79.21225 63.357054 79.21225 
z
" style="fill: #ffffff; opacity: 0.8; stroke: #cccccc; stroke-linejoin: miter"/>
    </g>
    <g id="line2d_31">
     <path d="M 65.357054 54.954437 
L 75.357054 54.954437 
L 85.357054 54.954437 
" style="fill: none; stroke: #1f77b4; stroke-width: 1.5; stroke-linecap: square"/>
    </g>
    <g id="text_18">
     <!-- input -->
     <g transform="translate(93.357054 58.454437) scale(0.1 -0.1)">
      <use xlink:href="#DejaVuSans-69"/>
      <use xlink:href="#DejaVuSans-6e" transform="translate(27.783203 0)"/>
      <use xlink:href="#DejaVuSans-70" transform="translate(91.162109 0)"/>
      <use xlink:href="#DejaVuSans-75" transform="translate(154.638672 0)"/>
      <use xlink:href="#DejaVuSans-74" transform="translate(218.017578 0)"/>
     </g>
    </g>
    <g id="line2d_32">
     <path d="M 65.357054 69.632562 
L 75.357054 69.632562 
L 85.357054 69.632562 
" style="fill: none; stroke: #ff7f0e; stroke-width: 1.5; stroke-linecap: square"/>
    </g>
    <g id="text_19">
     <!-- output -->
     <g transform="translate(93.357054 73.132562) scale(0.1 -0.1)">
      <use xlink:href="#DejaVuSans-6f"/>
      <use xlink:href="#DejaVuSans-75" transform="translate(61.181641 0)"/>
      <use xlink:href="#DejaVuSans-74" transform="translate(124.560547 0)"/>
      <use xlink:href="#DejaVuSans-70" transform="translate(163.769531 0)"/>
      <use xlink:href="#DejaVuSans-75" transform="translate(227.246094 0)"/>
      <use xlink:href="#DejaVuSans-74" transform="translate(290.625 0)"/>
     </g>
    </g>
   </g>
  </g>
  <g id="axes_2">
   <g id="patch_8">
    <path d="M 56.357054 458.728 
L 628.183658 458.728 
L 628.183658 279.312 
L 56.357054 279.312 
z
" style="fill: #ffffff"/>
   </g>
   <g id="matplotlib.axis_3">
    <g id="xtick_7">
     <g id="line2d_33">
      <path d="M 56.357054 458.728 
L 56.357054 279.312 
" clip-path="url(#p704a6ca319)" style="fill: none; stroke: #b0b0b0; stroke-opacity: 0.25; stroke-width: 0.8; stroke-linecap: square"/>
     </g>
     <g id="line2d_34">
      <g>
       <use xlink:href="#m9a2474885e" x="56.357054" y="458.728" style="stroke: #000000; stroke-width: 0.8"/>
      </g>
     </g>
     <g id="text_20">
      <!-- $\mathdefault{10^{-1}}$ -->
      <g transform="translate(44.607054 473.326438) scale(0.1 -0.1)">
       <defs>
        <path id="DejaVuSans-2212" d="M 678 2272 
L 4684 2272 
L 4684 1741 
L 678 1741 
L 678 2272 
z
" transform="scale(0.015625)"/>
       </defs>
       <use xlink:href="#DejaVuSans-31" transform="translate(0 0.684375)"/>
       <use xlink:href="#DejaVuSans-30" transform="translate(63.623047 0.684375)"/>
       <use xlink:href="#DejaVuSans-2212" transform="translate(128.203125 38.965625) scale(0.7)"/>
       <use xlink:href="#DejaVuSans-31" transform="translate(186.855469 38.965625) scale(0.7)"/>
      </g>
     </g>
    </g>
    <g id="xtick_8">
     <g id="line2d_35">
      <path d="M 342.270356 458.728 
L 342.270356 279.312 
" clip-path="url(#p704a6ca319)" style="fill: none; stroke: #b0b0b0; stroke-opacity: 0.25; stroke-width: 0.8; stroke-linecap: square"/>
     </g>
     <g id="line2d_36">
      <g>
       <use xlink:href="#m9a2474885e" x="342.270356" y="458.728" style="stroke: #000000; stroke-width: 0.8"/>
      </g>
     </g>
     <g id="text_21">
      <!-- $\mathdefault{10^{0}}$ -->
      <g transform="translate(333.470356 473.326438) scale(0.1 -0.1)">
       <use xlink:href="#DejaVuSans-31" transform="translate(0 0.765625)"/>
       <use xlink:href="#DejaVuSans-30" transform="translate(63.623047 0.765625)"/>
       <use xlink:href="#DejaVuSans-30" transform="translate(128.203125 39.046875) scale(0.7)"/>
      </g>
     </g>
    </g>
    <g id="xtick_9">
     <g id="line2d_37">
      <path d="M 628.183658 458.728 
L 628.183658 279.312 
" clip-path="url(#p704a6ca319)" style="fill: none; stroke: #b0b0b0; stroke-opacity: 0.25; stroke-width: 0.8; stroke-linecap: square"/>
     </g>
     <g id="line2d_38">
      <g>
       <use xlink:href="#m9a2474885e" x="628.183658" y="458.728" style="stroke: #000000; stroke-width: 0.8"/>
      </g>
     </g>
     <g id="text_22">
      <!-- $\mathdefault{10^{1}}$ -->
      <g transform="translate(619.383658 473.326438) scale(0.1 -0.1)">
       <use xlink:href="#DejaVuSans-31" transform="translate(0 0.684375)"/>
       <use xlink:href="#DejaVuSans-30" transform="translate(63.623047 0.684375)"/>
       <use xlink:href="#DejaVuSans-31" transform="translate(128.203125 38.965625) scale(0.7)"/>
      </g>
     </g>
    </g>
    <g id="xtick_10">
     <g id="line2d_39">
      <defs>
       <path id="m5ed93a68a8" d="M 0 0 
L 0 2 
" style="stroke: #000000; stroke-width: 0.6"/>
      </defs>
      <g>
       <use xlink:href="#m5ed93a68a8" x="142.425534" y="458.728" style="stroke: #000000; stroke-width: 0.6"/>
      </g>
     </g>
    </g>
    <g id="xtick_11">
     <g id="line2d_40">
      <g>
       <use xlink:href="#m5ed93a68a8" x="192.772367" y="458.728" style="stroke: #000000; stroke-width: 0.6"/>
      </g>
     </g>
    </g>
    <g id="xtick_12">
     <g id="line2d_41">
      <g>
       <use xlink:href="#m5ed93a68a8" x="228.494014" y="458.728" style="stroke: #000000; stroke-width: 0.6"/>
      </g>
     </g>
    </g>
    <g id="xtick_13">
     <g id="line2d_42">
      <g>
       <use xlink:href="#m5ed93a68a8" x="256.201876" y="458.728" style="stroke: #000000; stroke-width: 0.6"/>
      </g>
     </g>
    </g>
    <g id="xtick_14">
     <g id="line2d_43">
      <g>
       <use xlink:href="#m5ed93a68a8" x="278.840847" y="458.728" style="stroke: #000000; stroke-width: 0.6"/>
      </g>
     </g>
    </g>
    <g id="xtick_15">
     <g id="line2d_44">
      <g>
       <use xlink:href="#m5ed93a68a8" x="297.981825" y="458.728" style="stroke: #000000; stroke-width: 0.6"/>
      </g>
     </g>
    </g>
    <g id="xtick_16">
     <g id="line2d_45">
      <g>
       <use xlink:href="#m5ed93a68a8" x="314.562494" y="458.728" style="stroke: #000000; stroke-width: 0.6"/>
      </g>
     </g>
    </g>
    <g id="xtick_17">
     <g id="line2d_46">
      <g>
       <use xlink:href="#m5ed93a68a8" x="329.187681" y="458.728" style="stroke: #000000; stroke-width: 0.6"/>
      </g>
     </g>
    </g>
    <g id="xtick_18">
     <g id="line2d_47">
      <g>
       <use xlink:href="#m5ed93a68a8" x="428.338836" y="458.728" style="stroke: #000000; stroke-width: 0.6"/>
      </g>
     </g>
    </g>
    <g id="xtick_19">
     <g id="line2d_48">
      <g>
       <use xlink:href="#m5ed93a68a8" x="478.685669" y="458.728" style="stroke: #000000; stroke-width: 0.6"/>
      </g>
     </g>
    </g>
    <g id="xtick_20">
     <g id="line2d_49">
      <g>
       <use xlink:href="#m5ed93a68a8" x="514.407316" y="458.728" style="stroke: #000000; stroke-width: 0.6"/>
      </g>
     </g>
    </g>
    <g id="xtick_21">
     <g id="line2d_50">
      <g>
       <use xlink:href="#m5ed93a68a8" x="542.115178" y="458.728" style="stroke: #000000; stroke-width: 0.6"/>
      </g>
     </g>
    </g>
    <g id="xtick_22">
     <g id="line2d_51">
      <g>
       <use xlink:href="#m5ed93a68a8" x="564.754149" y="458.728" style="stroke: #000000; stroke-width: 0.6"/>
      </g>
     </g>
    </g>
    <g id="xtick_23">
     <g id="line2d_52">
      <g>
       <use xlink:href="#m5ed93a68a8" x="583.895127" y="458.728" style="stroke: #000000; stroke-width: 0.6"/>
      </g>
     </g>
    </g>
    <g id="xtick_24">
     <g id="line2d_53">
      <g>
       <use xlink:href="#m5ed93a68a8" x="600.475796" y="458.728" style="stroke: #000000; stroke-width: 0.6"/>
      </g>
     </g>
    </g>
    <g id="xtick_25">
     <g id="line2d_54">
      <g>
       <use xlink:href="#m5ed93a68a8" x="615.100982" y="458.728" style="stroke: #000000; stroke-width: 0.6"/>
      </g>
     </g>
    </g>
    <g id="text_23">
     <!-- frequency [arb.] -->
     <g transform="translate(301.820356 487.004563) scale(0.1 -0.1)">
      <defs>
       <path id="DejaVuSans-66" d="M 2375 4863 
L 2375 4384 
L 1825 4384 
Q 1516 4384 1395 4259 
Q 1275 4134 1275 3809 
L 1275 3500 
L 2222 3500 
L 2222 3053 
L 1275 3053 
L 1275 0 
L 697 0 
L 697 3053 
L 147 3053 
L 147 3500 
L 697 3500 
L 697 3744 
Q 697 4328 969 4595 
Q 1241 4863 1831 4863 
L 2375 4863 
z
" transform="scale(0.015625)"/>
       <path id="DejaVuSans-71" d="M 947 1747 
Q 947 1113 1208 752 
Q 1469 391 1925 391 
Q 2381 391 2643 752 
Q 2906 1113 2906 1747 
Q 2906 2381 2643 2742 
Q 2381 3103 1925 3103 
Q 1469 3103 1208 2742 
Q 947 2381 947 1747 
z
M 2906 525 
Q 2725 213 2448 61 
Q 2172 -91 1784 -91 
Q 1150 -91 751 415 
Q 353 922 353 1747 
Q 353 2572 751 3078 
Q 1150 3584 1784 3584 
Q 2172 3584 2448 3432 
Q 2725 3281 2906 2969 
L 2906 3500 
L 3481 3500 
L 3481 -1331 
L 2906 -1331 
L 2906 525 
z
" transform="scale(0.015625)"/>
      </defs>
      <use xlink:href="#DejaVuSans-66"/>
      <use xlink:href="#DejaVuSans-72" transform="translate(35.205078 0)"/>
      <use xlink:href="#DejaVuSans-65" transform="translate(74.068359 0)"/>
      <use xlink:href="#DejaVuSans-71" transform="translate(135.591797 0)"/>
      <use xlink:href="#DejaVuSans-75" transform="translate(199.068359 0)"/>
      <use xlink:href="#DejaVuSans-65" transform="translate(262.447266 0)"/>
      <use xlink:href="#DejaVuSans-6e" transform="translate(323.970703 0)"/>
      <use xlink:href="#DejaVuSans-63" transform="translate(387.349609 0)"/>
      <use xlink:href="#DejaVuSans-79" transform="translate(442.330078 0)"/>
      <use xlink:href="#DejaVuSans-20" transform="translate(501.509766 0)"/>
      <use xlink:href="#DejaVuSans-5b" transform="translate(533.296875 0)"/>
      <use xlink:href="#DejaVuSans-61" transform="translate(572.310547 0)"/>
      <use xlink:href="#DejaVuSans-72" transform="translate(633.589844 0)"/>
      <use xlink:href="#DejaVuSans-62" transform="translate(674.703125 0)"/>
      <use xlink:href="#DejaVuSans-2e" transform="translate(738.179688 0)"/>
      <use xlink:href="#DejaVuSans-5d" transform="translate(769.966797 0)"/>
     </g>
    </g>
   </g>
   <g id="matplotlib.axis_4">
    <g id="ytick_9">
     <g id="line2d_55">
      <path d="M 56.357054 442.1633 
L 628.183658 442.1633 
" clip-path="url(#p704a6ca319)" style="fill: none; stroke: #b0b0b0; stroke-opacity: 0.25; stroke-width: 0.8; stroke-linecap: square"/>
     </g>
     <g id="line2d_56">
      <g>
       <use xlink:href="#mb5ec1c4e2d" x="56.357054" y="442.1633" style="stroke: #000000; stroke-width: 0.8"/>
      </g>
     </g>
     <g id="text_24">
      <!-- $\mathdefault{10^{-5}}$ -->
      <g transform="translate(25.857054 445.962519) scale(0.1 -0.1)">
       <use xlink:href="#DejaVuSans-31" transform="translate(0 0.684375)"/>
       <use xlink:href="#DejaVuSans-30" transform="translate(63.623047 0.684375)"/>
       <use xlink:href="#DejaVuSans-2212" transform="translate(128.203125 38.965625) scale(0.7)"/>
       <use xlink:href="#DejaVuSans-35" transform="translate(186.855469 38.965625) scale(0.7)"/>
      </g>
     </g>
    </g>
    <g id="ytick_10">
     <g id="line2d_57">
      <path d="M 56.357054 420.687213 
L 628.183658 420.687213 
" clip-path="url(#p704a6ca319)" style="fill: none; stroke: #b0b0b0; stroke-opacity: 0.25; stroke-width: 0.8; stroke-linecap: square"/>
     </g>
     <g id="line2d_58">
      <g>
       <use xlink:href="#mb5ec1c4e2d" x="56.357054" y="420.687213" style="stroke: #000000; stroke-width: 0.8"/>
      </g>
     </g>
     <g id="text_25">
      <!-- $\mathdefault{10^{-4}}$ -->
      <g transform="translate(25.857054 424.486431) scale(0.1 -0.1)">
       <use xlink:href="#DejaVuSans-31" transform="translate(0 0.684375)"/>
       <use xlink:href="#DejaVuSans-30" transform="translate(63.623047 0.684375)"/>
       <use xlink:href="#DejaVuSans-2212" transform="translate(128.203125 38.965625) scale(0.7)"/>
       <use xlink:href="#DejaVuSans-34" transform="translate(186.855469 38.965625) scale(0.7)"/>
      </g>
     </g>
    </g>
    <g id="ytick_11">
     <g id="line2d_59">
      <path d="M 56.357054 399.211125 
L 628.183658 399.211125 
" clip-path="url(#p704a6ca319)" style="fill: none; stroke: #b0b0b0; stroke-opacity: 0.25; stroke-width: 0.8; stroke-linecap: square"/>
     </g>
     <g id="line2d_60">
      <g>
       <use xlink:href="#mb5ec1c4e2d" x="56.357054" y="399.211125" style="stroke: #000000; stroke-width: 0.8"/>
      </g>
     </g>
     <g id="text_26">
      <!-- $\mathdefault{10^{-3}}$ -->
      <g transform="translate(25.857054 403.010344) scale(0.1 -0.1)">
       <defs>
        <path id="DejaVuSans-33" d="M 2597 2516 
Q 3050 2419 3304 2112 
Q 3559 1806 3559 1356 
Q 3559 666 3084 287 
Q 2609 -91 1734 -91 
Q 1441 -91 1130 -33 
Q 819 25 488 141 
L 488 750 
Q 750 597 1062 519 
Q 1375 441 1716 441 
Q 2309 441 2620 675 
Q 2931 909 2931 1356 
Q 2931 1769 2642 2001 
Q 2353 2234 1838 2234 
L 1294 2234 
L 1294 2753 
L 1863 2753 
Q 2328 2753 2575 2939 
Q 2822 3125 2822 3475 
Q 2822 3834 2567 4026 
Q 2313 4219 1838 4219 
Q 1578 4219 1281 4162 
Q 984 4106 628 3988 
L 628 4550 
Q 988 4650 1302 4700 
Q 1616 4750 1894 4750 
Q 2613 4750 3031 4423 
Q 3450 4097 3450 3541 
Q 3450 3153 3228 2886 
Q 3006 2619 2597 2516 
z
" transform="scale(0.015625)"/>
       </defs>
       <use xlink:href="#DejaVuSans-31" transform="translate(0 0.765625)"/>
       <use xlink:href="#DejaVuSans-30" transform="translate(63.623047 0.765625)"/>
       <use xlink:href="#DejaVuSans-2212" transform="translate(128.203125 39.046875) scale(0.7)"/>
       <use xlink:href="#DejaVuSans-33" transform="translate(186.855469 39.046875) scale(0.7)"/>
      </g>
     </g>
    </g>
    <g id="ytick_12">
     <g id="line2d_61">
      <path d="M 56.357054 377.735038 
L 628.183658 377.735038 
" clip-path="url(#p704a6ca319)" style="fill: none; stroke: #b0b0b0; stroke-opacity: 0.25; stroke-width: 0.8; stroke-linecap: square"/>
     </g>
     <g id="line2d_62">
      <g>
       <use xlink:href="#mb5ec1c4e2d" x="56.357054" y="377.735038" style="stroke: #000000; stroke-width: 0.8"/>
      </g>
     </g>
     <g id="text_27">
      <!-- $\mathdefault{10^{-2}}$ -->
      <g transform="translate(25.857054 381.534257) scale(0.1 -0.1)">
       <use xlink:href="#DejaVuSans-31" transform="translate(0 0.765625)"/>
       <use xlink:href="#DejaVuSans-30" transform="translate(63.623047 0.765625)"/>
       <use xlink:href="#DejaVuSans-2212" transform="translate(128.203125 39.046875) scale(0.7)"/>
       <use xlink:href="#DejaVuSans-32" transform="translate(186.855469 39.046875) scale(0.7)"/>
      </g>
     </g>
    </g>
    <g id="ytick_13">
     <g id="line2d_63">
      <path d="M 56.357054 356.258951 
L 628.183658 356.258951 
" clip-path="url(#p704a6ca319)" style="fill: none; stroke: #b0b0b0; stroke-opacity: 0.25; stroke-width: 0.8; stroke-linecap: square"/>
     </g>
     <g id="line2d_64">
      <g>
       <use xlink:href="#mb5ec1c4e2d" x="56.357054" y="356.258951" style="stroke: #000000; stroke-width: 0.8"/>
      </g>
     </g>
     <g id="text_28">
      <!-- $\mathdefault{10^{-1}}$ -->
      <g transform="translate(25.857054 360.058169) scale(0.1 -0.1)">
       <use xlink:href="#DejaVuSans-31" transform="translate(0 0.684375)"/>
       <use xlink:href="#DejaVuSans-30" transform="translate(63.623047 0.684375)"/>
       <use xlink:href="#DejaVuSans-2212" transform="translate(128.203125 38.965625) scale(0.7)"/>
       <use xlink:href="#DejaVuSans-31" transform="translate(186.855469 38.965625) scale(0.7)"/>
      </g>
     </g>
    </g>
    <g id="ytick_14">
     <g id="line2d_65">
      <path d="M 56.357054 334.782863 
L 628.183658 334.782863 
" clip-path="url(#p704a6ca319)" style="fill: none; stroke: #b0b0b0; stroke-opacity: 0.25; stroke-width: 0.8; stroke-linecap: square"/>
     </g>
     <g id="line2d_66">
      <g>
       <use xlink:href="#mb5ec1c4e2d" x="56.357054" y="334.782863" style="stroke: #000000; stroke-width: 0.8"/>
      </g>
     </g>
     <g id="text_29">
      <!-- $\mathdefault{10^{0}}$ -->
      <g transform="translate(31.757054 338.582082) scale(0.1 -0.1)">
       <use xlink:href="#DejaVuSans-31" transform="translate(0 0.765625)"/>
       <use xlink:href="#DejaVuSans-30" transform="translate(63.623047 0.765625)"/>
       <use xlink:href="#DejaVuSans-30" transform="translate(128.203125 39.046875) scale(0.7)"/>
      </g>
     </g>
    </g>
    <g id="ytick_15">
     <g id="line2d_67">
      <path d="M 56.357054 313.306776 
L 628.183658 313.306776 
" clip-path="url(#p704a6ca319)" style="fill: none; stroke: #b0b0b0; stroke-opacity: 0.25; stroke-width: 0.8; stroke-linecap: square"/>
     </g>
     <g id="line2d_68">
      <g>
       <use xlink:href="#mb5ec1c4e2d" x="56.357054" y="313.306776" style="stroke: #000000; stroke-width: 0.8"/>
      </g>
     </g>
     <g id="text_30">
      <!-- $\mathdefault{10^{1}}$ -->
      <g transform="translate(31.757054 317.105995) scale(0.1 -0.1)">
       <use xlink:href="#DejaVuSans-31" transform="translate(0 0.684375)"/>
       <use xlink:href="#DejaVuSans-30" transform="translate(63.623047 0.684375)"/>
       <use xlink:href="#DejaVuSans-31" transform="translate(128.203125 38.965625) scale(0.7)"/>
      </g>
     </g>
    </g>
    <g id="ytick_16">
     <g id="line2d_69">
      <path d="M 56.357054 291.830689 
L 628.183658 291.830689 
" clip-path="url(#p704a6ca319)" style="fill: none; stroke: #b0b0b0; stroke-opacity: 0.25; stroke-width: 0.8; stroke-linecap: square"/>
     </g>
     <g id="line2d_70">
      <g>
       <use xlink:href="#mb5ec1c4e2d" x="56.357054" y="291.830689" style="stroke: #000000; stroke-width: 0.8"/>
      </g>
     </g>
     <g id="text_31">
      <!-- $\mathdefault{10^{2}}$ -->
      <g transform="translate(31.757054 295.629907) scale(0.1 -0.1)">
       <use xlink:href="#DejaVuSans-31" transform="translate(0 0.765625)"/>
       <use xlink:href="#DejaVuSans-30" transform="translate(63.623047 0.765625)"/>
       <use xlink:href="#DejaVuSans-32" transform="translate(128.203125 39.046875) scale(0.7)"/>
      </g>
     </g>
    </g>
    <g id="ytick_17">
     <g id="line2d_71">
      <defs>
       <path id="mb032a7d553" d="M 0 0 
L -2 0 
" style="stroke: #000000; stroke-width: 0.6"/>
      </defs>
      <g>
       <use xlink:href="#mb032a7d553" x="56.357054" y="457.174441" style="stroke: #000000; stroke-width: 0.6"/>
      </g>
     </g>
    </g>
    <g id="ytick_18">
     <g id="line2d_72">
      <g>
       <use xlink:href="#mb032a7d553" x="56.357054" y="453.39269" style="stroke: #000000; stroke-width: 0.6"/>
      </g>
     </g>
    </g>
    <g id="ytick_19">
     <g id="line2d_73">
      <g>
       <use xlink:href="#mb032a7d553" x="56.357054" y="450.709494" style="stroke: #000000; stroke-width: 0.6"/>
      </g>
     </g>
    </g>
    <g id="ytick_20">
     <g id="line2d_74">
      <g>
       <use xlink:href="#mb032a7d553" x="56.357054" y="448.628247" style="stroke: #000000; stroke-width: 0.6"/>
      </g>
     </g>
    </g>
    <g id="ytick_21">
     <g id="line2d_75">
      <g>
       <use xlink:href="#mb032a7d553" x="56.357054" y="446.927743" style="stroke: #000000; stroke-width: 0.6"/>
      </g>
     </g>
    </g>
    <g id="ytick_22">
     <g id="line2d_76">
      <g>
       <use xlink:href="#mb032a7d553" x="56.357054" y="445.489988" style="stroke: #000000; stroke-width: 0.6"/>
      </g>
     </g>
    </g>
    <g id="ytick_23">
     <g id="line2d_77">
      <g>
       <use xlink:href="#mb032a7d553" x="56.357054" y="444.244548" style="stroke: #000000; stroke-width: 0.6"/>
      </g>
     </g>
    </g>
    <g id="ytick_24">
     <g id="line2d_78">
      <g>
       <use xlink:href="#mb032a7d553" x="56.357054" y="443.145992" style="stroke: #000000; stroke-width: 0.6"/>
      </g>
     </g>
    </g>
    <g id="ytick_25">
     <g id="line2d_79">
      <g>
       <use xlink:href="#mb032a7d553" x="56.357054" y="435.698354" style="stroke: #000000; stroke-width: 0.6"/>
      </g>
     </g>
    </g>
    <g id="ytick_26">
     <g id="line2d_80">
      <g>
       <use xlink:href="#mb032a7d553" x="56.357054" y="431.916602" style="stroke: #000000; stroke-width: 0.6"/>
      </g>
     </g>
    </g>
    <g id="ytick_27">
     <g id="line2d_81">
      <g>
       <use xlink:href="#mb032a7d553" x="56.357054" y="429.233407" style="stroke: #000000; stroke-width: 0.6"/>
      </g>
     </g>
    </g>
    <g id="ytick_28">
     <g id="line2d_82">
      <g>
       <use xlink:href="#mb032a7d553" x="56.357054" y="427.152159" style="stroke: #000000; stroke-width: 0.6"/>
      </g>
     </g>
    </g>
    <g id="ytick_29">
     <g id="line2d_83">
      <g>
       <use xlink:href="#mb032a7d553" x="56.357054" y="425.451656" style="stroke: #000000; stroke-width: 0.6"/>
      </g>
     </g>
    </g>
    <g id="ytick_30">
     <g id="line2d_84">
      <g>
       <use xlink:href="#mb032a7d553" x="56.357054" y="424.013901" style="stroke: #000000; stroke-width: 0.6"/>
      </g>
     </g>
    </g>
    <g id="ytick_31">
     <g id="line2d_85">
      <g>
       <use xlink:href="#mb032a7d553" x="56.357054" y="422.768461" style="stroke: #000000; stroke-width: 0.6"/>
      </g>
     </g>
    </g>
    <g id="ytick_32">
     <g id="line2d_86">
      <g>
       <use xlink:href="#mb032a7d553" x="56.357054" y="421.669905" style="stroke: #000000; stroke-width: 0.6"/>
      </g>
     </g>
    </g>
    <g id="ytick_33">
     <g id="line2d_87">
      <g>
       <use xlink:href="#mb032a7d553" x="56.357054" y="414.222266" style="stroke: #000000; stroke-width: 0.6"/>
      </g>
     </g>
    </g>
    <g id="ytick_34">
     <g id="line2d_88">
      <g>
       <use xlink:href="#mb032a7d553" x="56.357054" y="410.440515" style="stroke: #000000; stroke-width: 0.6"/>
      </g>
     </g>
    </g>
    <g id="ytick_35">
     <g id="line2d_89">
      <g>
       <use xlink:href="#mb032a7d553" x="56.357054" y="407.75732" style="stroke: #000000; stroke-width: 0.6"/>
      </g>
     </g>
    </g>
    <g id="ytick_36">
     <g id="line2d_90">
      <g>
       <use xlink:href="#mb032a7d553" x="56.357054" y="405.676072" style="stroke: #000000; stroke-width: 0.6"/>
      </g>
     </g>
    </g>
    <g id="ytick_37">
     <g id="line2d_91">
      <g>
       <use xlink:href="#mb032a7d553" x="56.357054" y="403.975568" style="stroke: #000000; stroke-width: 0.6"/>
      </g>
     </g>
    </g>
    <g id="ytick_38">
     <g id="line2d_92">
      <g>
       <use xlink:href="#mb032a7d553" x="56.357054" y="402.537813" style="stroke: #000000; stroke-width: 0.6"/>
      </g>
     </g>
    </g>
    <g id="ytick_39">
     <g id="line2d_93">
      <g>
       <use xlink:href="#mb032a7d553" x="56.357054" y="401.292373" style="stroke: #000000; stroke-width: 0.6"/>
      </g>
     </g>
    </g>
    <g id="ytick_40">
     <g id="line2d_94">
      <g>
       <use xlink:href="#mb032a7d553" x="56.357054" y="400.193817" style="stroke: #000000; stroke-width: 0.6"/>
      </g>
     </g>
    </g>
    <g id="ytick_41">
     <g id="line2d_95">
      <g>
       <use xlink:href="#mb032a7d553" x="56.357054" y="392.746179" style="stroke: #000000; stroke-width: 0.6"/>
      </g>
     </g>
    </g>
    <g id="ytick_42">
     <g id="line2d_96">
      <g>
       <use xlink:href="#mb032a7d553" x="56.357054" y="388.964428" style="stroke: #000000; stroke-width: 0.6"/>
      </g>
     </g>
    </g>
    <g id="ytick_43">
     <g id="line2d_97">
      <g>
       <use xlink:href="#mb032a7d553" x="56.357054" y="386.281232" style="stroke: #000000; stroke-width: 0.6"/>
      </g>
     </g>
    </g>
    <g id="ytick_44">
     <g id="line2d_98">
      <g>
       <use xlink:href="#mb032a7d553" x="56.357054" y="384.199984" style="stroke: #000000; stroke-width: 0.6"/>
      </g>
     </g>
    </g>
    <g id="ytick_45">
     <g id="line2d_99">
      <g>
       <use xlink:href="#mb032a7d553" x="56.357054" y="382.499481" style="stroke: #000000; stroke-width: 0.6"/>
      </g>
     </g>
    </g>
    <g id="ytick_46">
     <g id="line2d_100">
      <g>
       <use xlink:href="#mb032a7d553" x="56.357054" y="381.061726" style="stroke: #000000; stroke-width: 0.6"/>
      </g>
     </g>
    </g>
    <g id="ytick_47">
     <g id="line2d_101">
      <g>
       <use xlink:href="#mb032a7d553" x="56.357054" y="379.816286" style="stroke: #000000; stroke-width: 0.6"/>
      </g>
     </g>
    </g>
    <g id="ytick_48">
     <g id="line2d_102">
      <g>
       <use xlink:href="#mb032a7d553" x="56.357054" y="378.71773" style="stroke: #000000; stroke-width: 0.6"/>
      </g>
     </g>
    </g>
    <g id="ytick_49">
     <g id="line2d_103">
      <g>
       <use xlink:href="#mb032a7d553" x="56.357054" y="371.270091" style="stroke: #000000; stroke-width: 0.6"/>
      </g>
     </g>
    </g>
    <g id="ytick_50">
     <g id="line2d_104">
      <g>
       <use xlink:href="#mb032a7d553" x="56.357054" y="367.48834" style="stroke: #000000; stroke-width: 0.6"/>
      </g>
     </g>
    </g>
    <g id="ytick_51">
     <g id="line2d_105">
      <g>
       <use xlink:href="#mb032a7d553" x="56.357054" y="364.805145" style="stroke: #000000; stroke-width: 0.6"/>
      </g>
     </g>
    </g>
    <g id="ytick_52">
     <g id="line2d_106">
      <g>
       <use xlink:href="#mb032a7d553" x="56.357054" y="362.723897" style="stroke: #000000; stroke-width: 0.6"/>
      </g>
     </g>
    </g>
    <g id="ytick_53">
     <g id="line2d_107">
      <g>
       <use xlink:href="#mb032a7d553" x="56.357054" y="361.023394" style="stroke: #000000; stroke-width: 0.6"/>
      </g>
     </g>
    </g>
    <g id="ytick_54">
     <g id="line2d_108">
      <g>
       <use xlink:href="#mb032a7d553" x="56.357054" y="359.585639" style="stroke: #000000; stroke-width: 0.6"/>
      </g>
     </g>
    </g>
    <g id="ytick_55">
     <g id="line2d_109">
      <g>
       <use xlink:href="#mb032a7d553" x="56.357054" y="358.340199" style="stroke: #000000; stroke-width: 0.6"/>
      </g>
     </g>
    </g>
    <g id="ytick_56">
     <g id="line2d_110">
      <g>
       <use xlink:href="#mb032a7d553" x="56.357054" y="357.241642" style="stroke: #000000; stroke-width: 0.6"/>
      </g>
     </g>
    </g>
    <g id="ytick_57">
     <g id="line2d_111">
      <g>
       <use xlink:href="#mb032a7d553" x="56.357054" y="349.794004" style="stroke: #000000; stroke-width: 0.6"/>
      </g>
     </g>
    </g>
    <g id="ytick_58">
     <g id="line2d_112">
      <g>
       <use xlink:href="#mb032a7d553" x="56.357054" y="346.012253" style="stroke: #000000; stroke-width: 0.6"/>
      </g>
     </g>
    </g>
    <g id="ytick_59">
     <g id="line2d_113">
      <g>
       <use xlink:href="#mb032a7d553" x="56.357054" y="343.329058" style="stroke: #000000; stroke-width: 0.6"/>
      </g>
     </g>
    </g>
    <g id="ytick_60">
     <g id="line2d_114">
      <g>
       <use xlink:href="#mb032a7d553" x="56.357054" y="341.24781" style="stroke: #000000; stroke-width: 0.6"/>
      </g>
     </g>
    </g>
    <g id="ytick_61">
     <g id="line2d_115">
      <g>
       <use xlink:href="#mb032a7d553" x="56.357054" y="339.547306" style="stroke: #000000; stroke-width: 0.6"/>
      </g>
     </g>
    </g>
    <g id="ytick_62">
     <g id="line2d_116">
      <g>
       <use xlink:href="#mb032a7d553" x="56.357054" y="338.109551" style="stroke: #000000; stroke-width: 0.6"/>
      </g>
     </g>
    </g>
    <g id="ytick_63">
     <g id="line2d_117">
      <g>
       <use xlink:href="#mb032a7d553" x="56.357054" y="336.864111" style="stroke: #000000; stroke-width: 0.6"/>
      </g>
     </g>
    </g>
    <g id="ytick_64">
     <g id="line2d_118">
      <g>
       <use xlink:href="#mb032a7d553" x="56.357054" y="335.765555" style="stroke: #000000; stroke-width: 0.6"/>
      </g>
     </g>
    </g>
    <g id="ytick_65">
     <g id="line2d_119">
      <g>
       <use xlink:href="#mb032a7d553" x="56.357054" y="328.317917" style="stroke: #000000; stroke-width: 0.6"/>
      </g>
     </g>
    </g>
    <g id="ytick_66">
     <g id="line2d_120">
      <g>
       <use xlink:href="#mb032a7d553" x="56.357054" y="324.536165" style="stroke: #000000; stroke-width: 0.6"/>
      </g>
     </g>
    </g>
    <g id="ytick_67">
     <g id="line2d_121">
      <g>
       <use xlink:href="#mb032a7d553" x="56.357054" y="321.85297" style="stroke: #000000; stroke-width: 0.6"/>
      </g>
     </g>
    </g>
    <g id="ytick_68">
     <g id="line2d_122">
      <g>
       <use xlink:href="#mb032a7d553" x="56.357054" y="319.771722" style="stroke: #000000; stroke-width: 0.6"/>
      </g>
     </g>
    </g>
    <g id="ytick_69">
     <g id="line2d_123">
      <g>
       <use xlink:href="#mb032a7d553" x="56.357054" y="318.071219" style="stroke: #000000; stroke-width: 0.6"/>
      </g>
     </g>
    </g>
    <g id="ytick_70">
     <g id="line2d_124">
      <g>
       <use xlink:href="#mb032a7d553" x="56.357054" y="316.633464" style="stroke: #000000; stroke-width: 0.6"/>
      </g>
     </g>
    </g>
    <g id="ytick_71">
     <g id="line2d_125">
      <g>
       <use xlink:href="#mb032a7d553" x="56.357054" y="315.388024" style="stroke: #000000; stroke-width: 0.6"/>
      </g>
     </g>
    </g>
    <g id="ytick_72">
     <g id="line2d_126">
      <g>
       <use xlink:href="#mb032a7d553" x="56.357054" y="314.289468" style="stroke: #000000; stroke-width: 0.6"/>
      </g>
     </g>
    </g>
    <g id="ytick_73">
     <g id="line2d_127">
      <g>
       <use xlink:href="#mb032a7d553" x="56.357054" y="306.841829" style="stroke: #000000; stroke-width: 0.6"/>
      </g>
     </g>
    </g>
    <g id="ytick_74">
     <g id="line2d_128">
      <g>
       <use xlink:href="#mb032a7d553" x="56.357054" y="303.060078" style="stroke: #000000; stroke-width: 0.6"/>
      </g>
     </g>
    </g>
    <g id="ytick_75">
     <g id="line2d_129">
      <g>
       <use xlink:href="#mb032a7d553" x="56.357054" y="300.376883" style="stroke: #000000; stroke-width: 0.6"/>
      </g>
     </g>
    </g>
    <g id="ytick_76">
     <g id="line2d_130">
      <g>
       <use xlink:href="#mb032a7d553" x="56.357054" y="298.295635" style="stroke: #000000; stroke-width: 0.6"/>
      </g>
     </g>
    </g>
    <g id="ytick_77">
     <g id="line2d_131">
      <g>
       <use xlink:href="#mb032a7d553" x="56.357054" y="296.595132" style="stroke: #000000; stroke-width: 0.6"/>
      </g>
     </g>
    </g>
    <g id="ytick_78">
     <g id="line2d_132">
      <g>
       <use xlink:href="#mb032a7d553" x="56.357054" y="295.157377" style="stroke: #000000; stroke-width: 0.6"/>
      </g>
     </g>
    </g>
    <g id="ytick_79">
     <g id="line2d_133">
      <g>
       <use xlink:href="#mb032a7d553" x="56.357054" y="293.911936" style="stroke: #000000; stroke-width: 0.6"/>
      </g>
     </g>
    </g>
    <g id="ytick_80">
     <g id="line2d_134">
      <g>
       <use xlink:href="#mb032a7d553" x="56.357054" y="292.81338" style="stroke: #000000; stroke-width: 0.6"/>
      </g>
     </g>
    </g>
    <g id="ytick_81">
     <g id="line2d_135">
      <g>
       <use xlink:href="#mb032a7d553" x="56.357054" y="285.365742" style="stroke: #000000; stroke-width: 0.6"/>
      </g>
     </g>
    </g>
    <g id="ytick_82">
     <g id="line2d_136">
      <g>
       <use xlink:href="#mb032a7d553" x="56.357054" y="281.583991" style="stroke: #000000; stroke-width: 0.6"/>
      </g>
     </g>
    </g>
    <g id="text_32">
     <!-- |FFT(.)| -->
     <g transform="translate(19.499241 386.597344) rotate(-90) scale(0.1 -0.1)">
      <defs>
       <path id="DejaVuSans-54" d="M -19 4666 
L 3928 4666 
L 3928 4134 
L 2272 4134 
L 2272 0 
L 1638 0 
L 1638 4134 
L -19 4134 
L -19 4666 
z
" transform="scale(0.015625)"/>
      </defs>
      <use xlink:href="#DejaVuSans-7c"/>
      <use xlink:href="#DejaVuSans-46" transform="translate(33.691406 0)"/>
      <use xlink:href="#DejaVuSans-46" transform="translate(91.210938 0)"/>
      <use xlink:href="#DejaVuSans-54" transform="translate(146.980469 0)"/>
      <use xlink:href="#DejaVuSans-28" transform="translate(208.064453 0)"/>
      <use xlink:href="#DejaVuSans-2e" transform="translate(247.078125 0)"/>
      <use xlink:href="#DejaVuSans-29" transform="translate(278.865234 0)"/>
      <use xlink:href="#DejaVuSans-7c" transform="translate(317.878906 0)"/>
     </g>
    </g>
   </g>
   <g id="line2d_137">
    <path d="M 56.357054 287.467273 
L 142.425534 307.883122 
L 192.772367 308.223092 
L 228.494014 308.705233 
L 256.201876 309.323627 
L 278.840847 310.073109 
L 297.981825 310.945086 
L 314.562494 311.924819 
L 329.187681 312.988259 
L 342.270356 314.098904 
L 354.105075 315.206641 
L 364.909327 316.252161 
L 374.848276 317.180049 
L 384.050305 317.957707 
L 392.617189 318.588517 
L 400.630974 319.108205 
L 408.158768 319.56694 
L 415.256161 320.010081 
L 421.969718 320.466779 
L 428.338836 320.947048 
L 434.397138 321.444199 
L 440.173555 321.940304 
L 445.693156 322.413536 
L 450.977807 322.846164 
L 456.046698 323.230787 
L 460.916756 323.572292 
L 465.602994 323.884796 
L 470.118785 324.185528 
L 474.476094 324.488719 
L 478.685669 324.801675 
L 482.7572 325.123708 
L 486.699454 325.447619 
L 490.520388 325.762989 
L 494.227248 326.060267 
L 497.826647 326.334272 
L 501.324641 326.585859 
L 504.726787 326.821139 
L 508.038198 327.04881 
L 511.263589 327.27688 
L 514.407316 327.510079 
L 517.473412 327.748697 
L 520.465618 327.989028 
L 523.387414 328.225101 
L 526.242035 328.451062 
L 529.032502 328.663374 
L 531.761636 328.862022 
L 534.432073 329.050305 
L 537.046287 329.233405 
L 539.606596 329.416395 
L 542.115178 329.6025 
L 544.574081 329.792166 
L 546.985236 329.983177 
L 549.350461 330.171691 
L 551.671474 330.353779 
L 553.949897 330.526918 
L 556.187265 330.690875 
L 558.385032 330.847684 
L 560.544574 331.000764 
L 562.6672 331.153605 
L 564.754149 331.308523 
L 566.806602 331.465947 
L 568.82568 331.62442 
L 570.812452 331.78127 
L 572.767934 331.933685 
L 574.693098 332.079786 
L 576.588868 332.219301 
L 578.45613 332.353594 
L 580.295728 332.485086 
L 582.108469 332.616316 
L 583.895127 332.749026 
L 585.656441 332.883592 
L 587.393121 333.018986 
L 589.105845 333.153248 
L 590.795267 333.28427 
L 592.462011 333.410601 
L 594.106678 333.531979 
L 595.729846 333.649379 
L 597.332069 333.7646 
L 598.913881 333.879573 
L 600.475796 333.995651 
L 602.018307 334.113156 
L 603.541892 334.231328 
L 605.047008 334.348669 
L 606.534098 334.463539 
L 608.00359 334.57479 
L 609.455894 334.682182 
L 610.891407 334.786442 
L 612.310515 334.888962 
L 613.713587 334.991257 
L 615.100982 335.094405 
L 616.473047 335.198685 
L 617.830116 335.303512 
L 619.172513 335.407704 
L 620.500554 335.509951 
L 621.81454 335.609321 
L 623.114767 335.705599 
L 624.40152 335.79935 
L 625.675076 335.891679 
L 626.935702 335.983806 
L 628.183658 336.076614 
L 629.419196 336.170338 
" clip-path="url(#p704a6ca319)" style="fill: none; stroke: #1f77b4; stroke-opacity: 0.6; stroke-width: 1.5; stroke-linecap: square"/>
   </g>
   <g id="line2d_138">
    <path d="M 56.357054 288.67775 
L 142.425534 302.618072 
L 192.772367 315.335469 
L 228.494014 323.524747 
L 256.201876 329.569877 
L 278.840847 334.492431 
L 297.981825 338.904296 
L 314.562494 343.230349 
L 329.187681 347.823791 
L 342.270356 353.043069 
L 354.105075 359.04007 
L 364.909327 363.245265 
L 374.848276 362.14105 
L 384.050305 360.509225 
L 392.617189 359.915806 
L 400.630974 360.228459 
L 408.158768 361.312899 
L 415.256161 363.156705 
L 421.969718 365.892249 
L 428.338836 369.925621 
L 434.397138 376.580112 
L 440.173555 396.152292 
L 445.693156 380.548894 
L 450.977807 375.033167 
L 456.046698 372.787043 
L 460.916756 372.034419 
L 465.602994 372.292862 
L 470.118785 373.427358 
L 474.476094 375.495751 
L 478.685669 378.794491 
L 482.7572 384.182841 
L 486.699454 393.091252 
L 490.520388 388.546944 
L 494.227248 383.190335 
L 497.826647 380.629003 
L 501.324641 379.54387 
L 504.726787 379.47519 
L 508.038198 380.274296 
L 511.263589 381.961104 
L 514.407316 384.718152 
L 517.473412 388.910048 
L 520.465618 393.807055 
L 523.387414 392.435766 
L 526.242035 388.546545 
L 529.032502 386.149173 
L 531.761636 384.988841 
L 534.432073 384.77213 
L 537.046287 385.378388 
L 539.606596 386.808772 
L 542.115178 389.161812 
L 544.574081 392.519826 
L 546.985236 395.851204 
L 549.350461 395.32898 
L 551.671474 392.503811 
L 553.949897 390.376392 
L 556.187265 389.23705 
L 558.385032 388.95059 
L 560.544574 389.433057 
L 562.6672 390.676577 
L 564.754149 392.721874 
L 566.806602 395.500372 
L 568.82568 398.014082 
L 570.812452 397.807076 
L 572.767934 395.66257 
L 574.693098 393.79429 
L 576.588868 392.710572 
L 578.45613 392.392347 
L 580.295728 392.78939 
L 582.108469 393.889749 
L 583.895127 395.694866 
L 585.656441 398.055579 
L 587.393121 400.070908 
L 589.105845 400.005224 
L 590.795267 398.308663 
L 592.462011 396.662296 
L 594.106678 395.64424 
L 595.729846 395.313891 
L 597.332069 395.648854 
L 598.913881 396.635652 
L 600.475796 398.248977 
L 602.018307 400.29694 
L 603.541892 401.977822 
L 605.047008 401.983182 
L 606.534098 400.595563 
L 608.00359 399.133551 
L 609.455894 398.181249 
L 610.891407 397.849328 
L 612.310515 398.137378 
L 613.713587 399.031719 
L 615.100982 400.488762 
L 616.473047 402.294881 
L 617.830116 403.73614 
L 619.172513 403.779817 
L 620.500554 402.614752 
L 621.81454 401.305308 
L 623.114767 400.414984 
L 624.40152 400.087254 
L 625.675076 400.338748 
L 626.935702 401.156262 
L 628.183658 402.483702 
L 629.419196 404.09769 
" clip-path="url(#p704a6ca319)" style="fill: none; stroke: #ff7f0e; stroke-width: 1.5; stroke-linecap: square"/>
   </g>
   <g id="patch_9">
    <path d="M 56.357054 458.728 
L 56.357054 279.312 
" style="fill: none; stroke: #000000; stroke-width: 0.8; stroke-linejoin: miter; stroke-linecap: square"/>
   </g>
   <g id="patch_10">
    <path d="M 628.183658 458.728 
L 628.183658 279.312 
" style="fill: none; stroke: #000000; stroke-width: 0.8; stroke-linejoin: miter; stroke-linecap: square"/>
   </g>
   <g id="patch_11">
    <path d="M 56.357054 458.728 
L 628.183658 458.728 
" style="fill: none; stroke: #000000; stroke-width: 0.8; stroke-linejoin: miter; stroke-linecap: square"/>
   </g>
   <g id="patch_12">
    <path d="M 56.357054 279.312 
L 628.183658 279.312 
" style="fill: none; stroke: #000000; stroke-width: 0.8; stroke-linejoin: miter; stroke-linecap: square"/>
   </g>
   <g id="text_33">
    <!-- Output FFT peak ≈ 0.100 (arb.), magnitude ≈ 1.402e+02 | low-ish -->
    <g transform="translate(142.552856 273.312) scale(0.12 -0.12)">
     <defs>
      <path id="DejaVuSans-4f" d="M 2522 4238 
Q 1834 4238 1429 3725 
Q 1025 3213 1025 2328 
Q 1025 1447 1429 934 
Q 1834 422 2522 422 
Q 3209 422 3611 934 
Q 4013 1447 4013 2328 
Q 4013 3213 3611 3725 
Q 3209 4238 2522 4238 
z
M 2522 4750 
Q 3503 4750 4090 4092 
Q 4678 3434 4678 2328 
Q 4678 1225 4090 567 
Q 3503 -91 2522 -91 
Q 1538 -91 948 565 
Q 359 1222 359 2328 
Q 359 3434 948 4092 
Q 1538 4750 2522 4750 
z
" transform="scale(0.015625)"/>
      <path id="DejaVuSans-6b" d="M 581 4863 
L 1159 4863 
L 1159 1991 
L 2875 3500 
L 3609 3500 
L 1753 1863 
L 3688 0 
L 2938 0 
L 1159 1709 
L 1159 0 
L 581 0 
L 581 4863 
z
" transform="scale(0.015625)"/>
      <path id="DejaVuSans-2248" d="M 4684 1947 
L 4684 1388 
Q 4356 1144 4076 1036 
Q 3797 928 3494 928 
Q 3150 928 2694 1113 
Q 2663 1125 2641 1134 
Q 2622 1141 2575 1159 
Q 2091 1350 1797 1350 
Q 1522 1350 1253 1231 
Q 984 1113 678 850 
L 678 1409 
Q 1006 1653 1286 1761 
Q 1566 1869 1869 1869 
Q 2213 1869 2672 1684 
Q 2706 1669 2722 1663 
Q 2741 1656 2788 1638 
Q 3272 1447 3566 1447 
Q 3834 1447 4098 1564 
Q 4363 1681 4684 1947 
z
M 4684 3163 
L 4684 2606 
Q 4356 2359 4076 2251 
Q 3797 2144 3494 2144 
Q 3150 2144 2694 2328 
Q 2663 2341 2641 2350 
Q 2622 2356 2575 2375 
Q 2091 2566 1797 2566 
Q 1522 2566 1253 2447 
Q 984 2328 678 2069 
L 678 2625 
Q 1006 2869 1286 2976 
Q 1566 3084 1869 3084 
Q 2213 3084 2672 2900 
Q 2703 2888 2719 2881 
Q 2741 2872 2788 2853 
Q 3272 2663 3566 2663 
Q 3834 2663 4098 2780 
Q 4363 2897 4684 3163 
z
" transform="scale(0.015625)"/>
      <path id="DejaVuSans-67" d="M 2906 1791 
Q 2906 2416 2648 2759 
Q 2391 3103 1925 3103 
Q 1463 3103 1205 2759 
Q 947 2416 947 1791 
Q 947 1169 1205 825 
Q 1463 481 1925 481 
Q 2391 481 2648 825 
Q 2906 1169 2906 1791 
z
M 3481 434 
Q 3481 -459 3084 -895 
Q 2688 -1331 1869 -1331 
Q 1566 -1331 1297 -1286 
Q 1028 -1241 775 -1147 
L 775 -588 
Q 1028 -725 1275 -790 
Q 1522 -856 1778 -856 
Q 2344 -856 2625 -561 
Q 2906 -266 2906 331 
L 2906 616 
Q 2728 306 2450 153 
Q 2172 0 1784 0 
Q 1141 0 747 490 
Q 353 981 353 1791 
Q 353 2603 747 3093 
Q 1141 3584 1784 3584 
Q 2172 3584 2450 3431 
Q 2728 3278 2906 2969 
L 2906 3500 
L 3481 3500 
L 3481 434 
z
" transform="scale(0.015625)"/>
      <path id="DejaVuSans-2b" d="M 2944 4013 
L 2944 2272 
L 4684 2272 
L 4684 1741 
L 2944 1741 
L 2944 0 
L 2419 0 
L 2419 1741 
L 678 1741 
L 678 2272 
L 2419 2272 
L 2419 4013 
L 2944 4013 
z
" transform="scale(0.015625)"/>
      <path id="DejaVuSans-68" d="M 3513 2113 
L 3513 0 
L 2938 0 
L 2938 2094 
Q 2938 2591 2744 2837 
Q 2550 3084 2163 3084 
Q 1697 3084 1428 2787 
Q 1159 2491 1159 1978 
L 1159 0 
L 581 0 
L 581 4863 
L 1159 4863 
L 1159 2956 
Q 1366 3272 1645 3428 
Q 1925 3584 2291 3584 
Q 2894 3584 3203 3211 
Q 3513 2838 3513 2113 
z
" transform="scale(0.015625)"/>
     </defs>
     <use xlink:href="#DejaVuSans-4f"/>
     <use xlink:href="#DejaVuSans-75" transform="translate(78.710938 0)"/>
     <use xlink:href="#DejaVuSans-74" transform="translate(142.089844 0)"/>
     <use xlink:href="#DejaVuSans-70" transform="translate(181.298828 0)"/>
     <use xlink:href="#DejaVuSans-75" transform="translate(244.775391 0)"/>
     <use xlink:href="#DejaVuSans-74" transform="translate(308.154297 0)"/>
     <use xlink:href="#DejaVuSans-20" transform="translate(347.363281 0)"/>
     <use xlink:href="#DejaVuSans-46" transform="translate(379.150391 0)"/>
     <use xlink:href="#DejaVuSans-46" transform="translate(436.669922 0)"/>
     <use xlink:href="#DejaVuSans-54" transform="translate(492.439453 0)"/>
     <use xlink:href="#DejaVuSans-20" transform="translate(553.523438 0)"/>
     <use xlink:href="#DejaVuSans-70" transform="translate(585.310547 0)"/>
     <use xlink:href="#DejaVuSans-65" transform="translate(648.787109 0)"/>
     <use xlink:href="#DejaVuSans-61" transform="translate(710.310547 0)"/>
     <use xlink:href="#DejaVuSans-6b" transform="translate(771.589844 0)"/>
     <use xlink:href="#DejaVuSans-20" transform="translate(829.5 0)"/>
     <use xlink:href="#DejaVuSans-2248" transform="translate(861.287109 0)"/>
     <use xlink:href="#DejaVuSans-20" transform="translate(945.076172 0)"/>
     <use xlink:href="#DejaVuSans-30" transform="translate(976.863281 0)"/>
     <use xlink:href="#DejaVuSans-2e" transform="translate(1040.486328 0)"/>
     <use xlink:href="#DejaVuSans-31" transform="translate(1072.273438 0)"/>
     <use xlink:href="#DejaVuSans-30" transform="translate(1135.896484 0)"/>
     <use xlink:href="#DejaVuSans-30" transform="translate(1199.519531 0)"/>
     <use xlink:href="#DejaVuSans-20" transform="translate(1263.142578 0)"/>
     <use xlink:href="#DejaVuSans-28" transform="translate(1294.929688 0)"/>
     <use xlink:href="#DejaVuSans-61" transform="translate(1333.943359 0)"/>
     <use xlink:href="#DejaVuSans-72" transform="translate(1395.222656 0)"/>
     <use xlink:href="#DejaVuSans-62" transform="translate(1436.335938 0)"/>
     <use xlink:href="#DejaVuSans-2e" transform="translate(1499.8125 0)"/>
     <use xlink:href="#DejaVuSans-29" transform="translate(1531.599609 0)"/>
     <use xlink:href="#DejaVuSans-2c" transform="translate(1570.613281 0)"/>
     <use xlink:href="#DejaVuSans-20" transform="translate(1602.400391 0)"/>
     <use xlink:href="#DejaVuSans-6d" transform="translate(1634.1875 0)"/>
     <use xlink:href="#DejaVuSans-61" transform="translate(1731.599609 0)"/>
     <use xlink:href="#DejaVuSans-67" transform="translate(1792.878906 0)"/>
     <use xlink:href="#DejaVuSans-6e" transform="translate(1856.355469 0)"/>
     <use xlink:href="#DejaVuSans-69" transform="translate(1919.734375 0)"/>
     <use xlink:href="#DejaVuSans-74" transform="translate(1947.517578 0)"/>
     <use xlink:href="#DejaVuSans-75" transform="translate(1986.726562 0)"/>
     <use xlink:href="#DejaVuSans-64" transform="translate(2050.105469 0)"/>
     <use xlink:href="#DejaVuSans-65" transform="translate(2113.582031 0)"/>
     <use xlink:href="#DejaVuSans-20" transform="translate(2175.105469 0)"/>
     <use xlink:href="#DejaVuSans-2248" transform="translate(2206.892578 0)"/>
     <use xlink:href="#DejaVuSans-20" transform="translate(2290.681641 0)"/>
     <use xlink:href="#DejaVuSans-31" transform="translate(2322.46875 0)"/>
     <use xlink:href="#DejaVuSans-2e" transform="translate(2386.091797 0)"/>
     <use xlink:href="#DejaVuSans-34" transform="translate(2417.878906 0)"/>
     <use xlink:href="#DejaVuSans-30" transform="translate(2481.501953 0)"/>
     <use xlink:href="#DejaVuSans-32" transform="translate(2545.125 0)"/>
     <use xlink:href="#DejaVuSans-65" transform="translate(2608.748047 0)"/>
     <use xlink:href="#DejaVuSans-2b" transform="translate(2670.271484 0)"/>
     <use xlink:href="#DejaVuSans-30" transform="translate(2754.060547 0)"/>
     <use xlink:href="#DejaVuSans-32" transform="translate(2817.683594 0)"/>
     <use xlink:href="#DejaVuSans-20" transform="translate(2881.306641 0)"/>
     <use xlink:href="#DejaVuSans-7c" transform="translate(2913.09375 0)"/>
     <use xlink:href="#DejaVuSans-20" transform="translate(2946.785156 0)"/>
     <use xlink:href="#DejaVuSans-6c" transform="translate(2978.572266 0)"/>
     <use xlink:href="#DejaVuSans-6f" transform="translate(3006.355469 0)"/>
     <use xlink:href="#DejaVuSans-77" transform="translate(3067.537109 0)"/>
     <use xlink:href="#DejaVuSans-2d" transform="translate(3149.324219 0)"/>
     <use xlink:href="#DejaVuSans-69" transform="translate(3185.408203 0)"/>
     <use xlink:href="#DejaVuSans-73" transform="translate(3213.191406 0)"/>
     <use xlink:href="#DejaVuSans-68" transform="translate(3265.291016 0)"/>
    </g>
   </g>
   <g id="legend_2">
    <g id="patch_13">
     <path d="M 535.586783 316.66825 
L 621.183658 316.66825 
Q 623.183658 316.66825 623.183658 314.66825 
L 623.183658 286.312 
Q 623.183658 284.312 621.183658 284.312 
L 535.586783 284.312 
Q 533.586783 284.312 533.586783 286.312 
L 533.586783 314.66825 
Q 533.586783 316.66825 535.586783 316.66825 
z
" style="fill: #ffffff; opacity: 0.8; stroke: #cccccc; stroke-linejoin: miter"/>
    </g>
    <g id="line2d_139">
     <path d="M 537.586783 292.410438 
L 547.586783 292.410438 
L 557.586783 292.410438 
" style="fill: none; stroke: #1f77b4; stroke-opacity: 0.6; stroke-width: 1.5; stroke-linecap: square"/>
    </g>
    <g id="text_34">
     <!-- input FFT -->
     <g transform="translate(565.586783 295.910438) scale(0.1 -0.1)">
      <use xlink:href="#DejaVuSans-69"/>
      <use xlink:href="#DejaVuSans-6e" transform="translate(27.783203 0)"/>
      <use xlink:href="#DejaVuSans-70" transform="translate(91.162109 0)"/>
      <use xlink:href="#DejaVuSans-75" transform="translate(154.638672 0)"/>
      <use xlink:href="#DejaVuSans-74" transform="translate(218.017578 0)"/>
      <use xlink:href="#DejaVuSans-20" transform="translate(257.226562 0)"/>
      <use xlink:href="#DejaVuSans-46" transform="translate(289.013672 0)"/>
      <use xlink:href="#DejaVuSans-46" transform="translate(346.533203 0)"/>
      <use xlink:href="#DejaVuSans-54" transform="translate(402.302734 0)"/>
     </g>
    </g>
    <g id="line2d_140">
     <path d="M 537.586783 307.088562 
L 547.586783 307.088562 
L 557.586783 307.088562 
" style="fill: none; stroke: #ff7f0e; stroke-width: 1.5; stroke-linecap: square"/>
    </g>
    <g id="text_35">
     <!-- output FFT -->
     <g transform="translate(565.586783 310.588562) scale(0.1 -0.1)">
      <use xlink:href="#DejaVuSans-6f"/>
      <use xlink:href="#DejaVuSans-75" transform="translate(61.181641 0)"/>
      <use xlink:href="#DejaVuSans-74" transform="translate(124.560547 0)"/>
      <use xlink:href="#DejaVuSans-70" transform="translate(163.769531 0)"/>
      <use xlink:href="#DejaVuSans-75" transform="translate(227.246094 0)"/>
      <use xlink:href="#DejaVuSans-74" transform="translate(290.625 0)"/>
      <use xlink:href="#DejaVuSans-20" transform="translate(329.833984 0)"/>
      <use xlink:href="#DejaVuSans-46" transform="translate(361.621094 0)"/>
      <use xlink:href="#DejaVuSans-46" transform="translate(419.140625 0)"/>
      <use xlink:href="#DejaVuSans-54" transform="translate(474.910156 0)"/>
     </g>
    </g>
   </g>
  </g>
 </g>
 <defs>
  <clipPath id="p6fa4d8e15f">
   <rect x="56.357054" y="41.856" width="571.826604" height="179.416"/>
  </clipPath>
  <clipPath id="p704a6ca319">
   <rect x="56.357054" y="279.312" width="571.826604" height="179.416"/>
  </clipPath>
 </defs>
</svg>
