<?xml version="1.0" encoding="utf-8" standalone="no"?>
<!DOCTYPE svg PUBLIC "-//W3C//DTD SVG 1.1//EN"
  "http://www.w3.org/Graphics/SVG/1.1/DTD/svg11.dtd">
<svg xmlns:xlink="http://www.w3.org/1999/xlink" width="648pt" height="504pt" viewBox="0 0 648 504" xmlns="http://www.w3.org/2000/svg" version="1.1">
 <metadata>
  <rdf:RDF xmlns:dc="http://purl.org/dc/elements/1.1/" xmlns:cc="http://creativecommons.org/ns#" xmlns:rdf="http://www.w3.org/1999/02/22-rdf-syntax-ns#">
   <cc:Work>
    <dc:type rdf:resource="http://purl.org/dc/dcmitype/StillImage"/>
    <dc:date>2026-03-12T02:45:29.240738</dc:date>
    <dc:format>image/svg+xml</dc:format>
    <dc:creator>
     <cc:Agent>
      <dc:title>Matplotlib v3.10.8, https://matplotlib.org/</dc:title>
     </cc:Agent>
    </dc:creator>
   </cc:Work>
  </rdf:RDF>
 </metadata>
 <defs>
  <style type="text/css">*{stroke-linejoin: round; stroke-linecap: butt}</style>
 </defs>
 <g id="figure_1">
  <g id="patch_1">
   <path d="M 0 504 
L 648 504 
L 648 0 
L 0 0 
z
" style="fill: #ffffff"/>
  </g>
  <g id="axes_1">
   <g id="patch_2">
    <path d="M 60.761214 221.272 
L 628.183658 221.272 
L 628.183658 41.856 
L 60.761214 41.856 
z
" style="fill: #ffffff"/>
   </g>
   <g id="matplotlib.axis_1">
    <g id="xtick_1">
     <g id="line2d_1">
      <path d="M 86.553143 221.272 
L 86.553143 41.856 
" clip-path="url(#p559bfe593a)" style="fill: none; stroke: #b0b0b0; stroke-opacity: 0.25; stroke-width: 0.8; stroke-linecap: square"/>
     </g>
     <g id="line2d_2">
      <defs>
       <path id="mb4aff252cc" d="M 0 0 
L 0 3.5 
" style="stroke: #000000; stroke-width: 0.8"/>
      </defs>
      <g>
       <use xlink:href="#mb4aff252cc" x="86.553143" y="221.272" style="stroke: #000000; stroke-width: 0.8"/>
      </g>
     </g>
     <g id="text_1">
      <!-- 0 -->
      <g transform="translate(83.371893 235.870437) scale(0.1 -0.1)">
       <defs>
        <path id="DejaVuSans-30" d="M 2034 4250 
Q 1547 4250 1301 3770 
Q 1056 3291 1056 2328 
Q 1056 1369 1301 889 
Q 1547 409 2034 409 
Q 2525 409 2770 889 
Q 3016 1369 3016 2328 
Q 3016 3291 2770 3770 
Q 2525 4250 2034 4250 
z
M 2034 4750 
Q 2819 4750 3233 4129 
Q 3647 3509 3647 2328 
Q 3647 1150 3233 529 
Q 2819 -91 2034 -91 
Q 1250 -91 836 529 
Q 422 1150 422 2328 
Q 422 3509 836 4129 
Q 1250 4750 2034 4750 
z
" transform="scale(0.015625)"/>
       </defs>
       <use xlink:href="#DejaVuSans-30"/>
      </g>
     </g>
    </g>
    <g id="xtick_2">
     <g id="line2d_3">
      <path d="M 189.746054 221.272 
L 189.746054 41.856 
" clip-path="url(#p559bfe593a)" style="fill: none; stroke: #b0b0b0; stroke-opacity: 0.25; stroke-width: 0.8; stroke-linecap: square"/>
     </g>
     <g id="line2d_4">
      <g>
       <use xlink:href="#mb4aff252cc" x="189.746054" y="221.272" style="stroke: #000000; stroke-width: 0.8"/>
      </g>
     </g>
     <g id="text_2">
      <!-- 2 -->
      <g transform="translate(186.564804 235.870437) scale(0.1 -0.1)">
       <defs>
        <path id="DejaVuSans-32" d="M 1228 531 
L 3431 531 
L 3431 0 
L 469 0 
L 469 531 
Q 828 903 1448 1529 
Q 2069 2156 2228 2338 
Q 2531 2678 2651 2914 
Q 2772 3150 2772 3378 
Q 2772 3750 2511 3984 
Q 2250 4219 1831 4219 
Q 1534 4219 1204 4116 
Q 875 4013 500 3803 
L 500 4441 
Q 881 4594 1212 4672 
Q 1544 4750 1819 4750 
Q 2544 4750 2975 4387 
Q 3406 4025 3406 3419 
Q 3406 3131 3298 2873 
Q 3191 2616 2906 2266 
Q 2828 2175 2409 1742 
Q 1991 1309 1228 531 
z
" transform="scale(0.015625)"/>
       </defs>
       <use xlink:href="#DejaVuSans-32"/>
      </g>
     </g>
    </g>
    <g id="xtick_3">
     <g id="line2d_5">
      <path d="M 292.938964 221.272 
L 292.938964 41.856 
" clip-path="url(#p559bfe593a)" style="fill: none; stroke: #b0b0b0; stroke-opacity: 0.25; stroke-width: 0.8; stroke-linecap: square"/>
     </g>
     <g id="line2d_6">
      <g>
       <use xlink:href="#mb4aff252cc" x="292.938964" y="221.272" style="stroke: #000000; stroke-width: 0.8"/>
      </g>
     </g>
     <g id="text_3">
      <!-- 4 -->
      <g transform="translate(289.757714 235.870437) scale(0.1 -0.1)">
       <defs>
        <path id="DejaVuSans-34" d="M 2419 4116 
L 825 1625 
L 2419 1625 
L 2419 4116 
z
M 2253 4666 
L 3047 4666 
L 3047 1625 
L 3713 1625 
L 3713 1100 
L 3047 1100 
L 3047 0 
L 2419 0 
L 2419 1100 
L 313 1100 
L 313 1709 
L 2253 4666 
z
" transform="scale(0.015625)"/>
       </defs>
       <use xlink:href="#DejaVuSans-34"/>
      </g>
     </g>
    </g>
    <g id="xtick_4">
     <g id="line2d_7">
      <path d="M 396.131875 221.272 
L 396.131875 41.856 
" clip-path="url(#p559bfe593a)" style="fill: none; stroke: #b0b0b0; stroke-opacity: 0.25; stroke-width: 0.8; stroke-linecap: square"/>
     </g>
     <g id="line2d_8">
      <g>
       <use xlink:href="#mb4aff252cc" x="396.131875" y="221.272" style="stroke: #000000; stroke-width: 0.8"/>
      </g>
     </g>
     <g id="text_4">
      <!-- 6 -->
      <g transform="translate(392.950625 235.870437) scale(0.1 -0.1)">
       <defs>
        <path id="DejaVuSans-36" d="M 2113 2584 
Q 1688 2584 1439 2293 
Q 1191 2003 1191 1497 
Q 1191 994 1439 701 
Q 1688 409 2113 409 
Q 2538 409 2786 701 
Q 3034 994 3034 1497 
Q 3034 2003 2786 2293 
Q 2538 2584 2113 2584 
z
M 3366 4563 
L 3366 3988 
Q 3128 4100 2886 4159 
Q 2644 4219 2406 4219 
Q 1781 4219 1451 3797 
Q 1122 3375 1075 2522 
Q 1259 2794 1537 2939 
Q 1816 3084 2150 3084 
Q 2853 3084 3261 2657 
Q 3669 2231 3669 1497 
Q 3669 778 3244 343 
Q 2819 -91 2113 -91 
Q 1303 -91 875 529 
Q 447 1150 447 2328 
Q 447 3434 972 4092 
Q 1497 4750 2381 4750 
Q 2619 4750 2861 4703 
Q 3103 4656 3366 4563 
z
" transform="scale(0.015625)"/>
       </defs>
       <use xlink:href="#DejaVuSans-36"/>
      </g>
     </g>
    </g>
    <g id="xtick_5">
     <g id="line2d_9">
      <path d="M 499.324786 221.272 
L 499.324786 41.856 
" clip-path="url(#p559bfe593a)" style="fill: none; stroke: #b0b0b0; stroke-opacity: 0.25; stroke-width: 0.8; stroke-linecap: square"/>
     </g>
     <g id="line2d_10">
      <g>
       <use xlink:href="#mb4aff252cc" x="499.324786" y="221.272" style="stroke: #000000; stroke-width: 0.8"/>
      </g>
     </g>
     <g id="text_5">
      <!-- 8 -->
      <g transform="translate(496.143536 235.870437) scale(0.1 -0.1)">
       <defs>
        <path id="DejaVuSans-38" d="M 2034 2216 
Q 1584 2216 1326 1975 
Q 1069 1734 1069 1313 
Q 1069 891 1326 650 
Q 1584 409 2034 409 
Q 2484 409 2743 651 
Q 3003 894 3003 1313 
Q 3003 1734 2745 1975 
Q 2488 2216 2034 2216 
z
M 1403 2484 
Q 997 2584 770 2862 
Q 544 3141 544 3541 
Q 544 4100 942 4425 
Q 1341 4750 2034 4750 
Q 2731 4750 3128 4425 
Q 3525 4100 3525 3541 
Q 3525 3141 3298 2862 
Q 3072 2584 2669 2484 
Q 3125 2378 3379 2068 
Q 3634 1759 3634 1313 
Q 3634 634 3220 271 
Q 2806 -91 2034 -91 
Q 1263 -91 848 271 
Q 434 634 434 1313 
Q 434 1759 690 2068 
Q 947 2378 1403 2484 
z
M 1172 3481 
Q 1172 3119 1398 2916 
Q 1625 2713 2034 2713 
Q 2441 2713 2670 2916 
Q 2900 3119 2900 3481 
Q 2900 3844 2670 4047 
Q 2441 4250 2034 4250 
Q 1625 4250 1398 4047 
Q 1172 3844 1172 3481 
z
" transform="scale(0.015625)"/>
       </defs>
       <use xlink:href="#DejaVuSans-38"/>
      </g>
     </g>
    </g>
    <g id="xtick_6">
     <g id="line2d_11">
      <path d="M 602.517696 221.272 
L 602.517696 41.856 
" clip-path="url(#p559bfe593a)" style="fill: none; stroke: #b0b0b0; stroke-opacity: 0.25; stroke-width: 0.8; stroke-linecap: square"/>
     </g>
     <g id="line2d_12">
      <g>
       <use xlink:href="#mb4aff252cc" x="602.517696" y="221.272" style="stroke: #000000; stroke-width: 0.8"/>
      </g>
     </g>
     <g id="text_6">
      <!-- 10 -->
      <g transform="translate(596.155196 235.870437) scale(0.1 -0.1)">
       <defs>
        <path id="DejaVuSans-31" d="M 794 531 
L 1825 531 
L 1825 4091 
L 703 3866 
L 703 4441 
L 1819 4666 
L 2450 4666 
L 2450 531 
L 3481 531 
L 3481 0 
L 794 0 
L 794 531 
z
" transform="scale(0.015625)"/>
       </defs>
       <use xlink:href="#DejaVuSans-31"/>
       <use xlink:href="#DejaVuSans-30" transform="translate(63.623047 0)"/>
      </g>
     </g>
    </g>
    <g id="text_7">
     <!-- t [arb.] -->
     <g transform="translate(327.138842 249.548563) scale(0.1 -0.1)">
      <defs>
       <path id="DejaVuSans-74" d="M 1172 4494 
L 1172 3500 
L 2356 3500 
L 2356 3053 
L 1172 3053 
L 1172 1153 
Q 1172 725 1289 603 
Q 1406 481 1766 481 
L 2356 481 
L 2356 0 
L 1766 0 
Q 1100 0 847 248 
Q 594 497 594 1153 
L 594 3053 
L 172 3053 
L 172 3500 
L 594 3500 
L 594 4494 
L 1172 4494 
z
" transform="scale(0.015625)"/>
       <path id="DejaVuSans-20" transform="scale(0.015625)"/>
       <path id="DejaVuSans-5b" d="M 550 4863 
L 1875 4863 
L 1875 4416 
L 1125 4416 
L 1125 -397 
L 1875 -397 
L 1875 -844 
L 550 -844 
L 550 4863 
z
" transform="scale(0.015625)"/>
       <path id="DejaVuSans-61" d="M 2194 1759 
Q 1497 1759 1228 1600 
Q 959 1441 959 1056 
Q 959 750 1161 570 
Q 1363 391 1709 391 
Q 2188 391 2477 730 
Q 2766 1069 2766 1631 
L 2766 1759 
L 2194 1759 
z
M 3341 1997 
L 3341 0 
L 2766 0 
L 2766 531 
Q 2569 213 2275 61 
Q 1981 -91 1556 -91 
Q 1019 -91 701 211 
Q 384 513 384 1019 
Q 384 1609 779 1909 
Q 1175 2209 1959 2209 
L 2766 2209 
L 2766 2266 
Q 2766 2663 2505 2880 
Q 2244 3097 1772 3097 
Q 1472 3097 1187 3025 
Q 903 2953 641 2809 
L 641 3341 
Q 956 3463 1253 3523 
Q 1550 3584 1831 3584 
Q 2591 3584 2966 3190 
Q 3341 2797 3341 1997 
z
" transform="scale(0.015625)"/>
       <path id="DejaVuSans-72" d="M 2631 2963 
Q 2534 3019 2420 3045 
Q 2306 3072 2169 3072 
Q 1681 3072 1420 2755 
Q 1159 2438 1159 1844 
L 1159 0 
L 581 0 
L 581 3500 
L 1159 3500 
L 1159 2956 
Q 1341 3275 1631 3429 
Q 1922 3584 2338 3584 
Q 2397 3584 2469 3576 
Q 2541 3569 2628 3553 
L 2631 2963 
z
" transform="scale(0.015625)"/>
       <path id="DejaVuSans-62" d="M 3116 1747 
Q 3116 2381 2855 2742 
Q 2594 3103 2138 3103 
Q 1681 3103 1420 2742 
Q 1159 2381 1159 1747 
Q 1159 1113 1420 752 
Q 1681 391 2138 391 
Q 2594 391 2855 752 
Q 3116 1113 3116 1747 
z
M 1159 2969 
Q 1341 3281 1617 3432 
Q 1894 3584 2278 3584 
Q 2916 3584 3314 3078 
Q 3713 2572 3713 1747 
Q 3713 922 3314 415 
Q 2916 -91 2278 -91 
Q 1894 -91 1617 61 
Q 1341 213 1159 525 
L 1159 0 
L 581 0 
L 581 4863 
L 1159 4863 
L 1159 2969 
z
" transform="scale(0.015625)"/>
       <path id="DejaVuSans-2e" d="M 684 794 
L 1344 794 
L 1344 0 
L 684 0 
L 684 794 
z
" transform="scale(0.015625)"/>
       <path id="DejaVuSans-5d" d="M 1947 4863 
L 1947 -844 
L 622 -844 
L 622 -397 
L 1369 -397 
L 1369 4416 
L 622 4416 
L 622 4863 
L 1947 4863 
z
" transform="scale(0.015625)"/>
      </defs>
      <use xlink:href="#DejaVuSans-74"/>
      <use xlink:href="#DejaVuSans-20" transform="translate(39.208984 0)"/>
      <use xlink:href="#DejaVuSans-5b" transform="translate(70.996094 0)"/>
      <use xlink:href="#DejaVuSans-61" transform="translate(110.009766 0)"/>
      <use xlink:href="#DejaVuSans-72" transform="translate(171.289062 0)"/>
      <use xlink:href="#DejaVuSans-62" transform="translate(212.402344 0)"/>
      <use xlink:href="#DejaVuSans-2e" transform="translate(275.878906 0)"/>
      <use xlink:href="#DejaVuSans-5d" transform="translate(307.666016 0)"/>
     </g>
    </g>
   </g>
   <g id="matplotlib.axis_2">
    <g id="ytick_1">
     <g id="line2d_13">
      <path d="M 60.761214 213.116727 
L 628.183658 213.116727 
" clip-path="url(#p559bfe593a)" style="fill: none; stroke: #b0b0b0; stroke-opacity: 0.25; stroke-width: 0.8; stroke-linecap: square"/>
     </g>
     <g id="line2d_14">
      <defs>
       <path id="m2765ea57d7" d="M 0 0 
L -3.5 0 
" style="stroke: #000000; stroke-width: 0.8"/>
      </defs>
      <g>
       <use xlink:href="#m2765ea57d7" x="60.761214" y="213.116727" style="stroke: #000000; stroke-width: 0.8"/>
      </g>
     </g>
     <g id="text_8">
      <!-- 0.0 -->
      <g transform="translate(37.858089 216.915946) scale(0.1 -0.1)">
       <use xlink:href="#DejaVuSans-30"/>
       <use xlink:href="#DejaVuSans-2e" transform="translate(63.623047 0)"/>
       <use xlink:href="#DejaVuSans-30" transform="translate(95.410156 0)"/>
      </g>
     </g>
    </g>
    <g id="ytick_2">
     <g id="line2d_15">
      <path d="M 60.761214 180.549645 
L 628.183658 180.549645 
" clip-path="url(#p559bfe593a)" style="fill: none; stroke: #b0b0b0; stroke-opacity: 0.25; stroke-width: 0.8; stroke-linecap: square"/>
     </g>
     <g id="line2d_16">
      <g>
       <use xlink:href="#m2765ea57d7" x="60.761214" y="180.549645" style="stroke: #000000; stroke-width: 0.8"/>
      </g>
     </g>
     <g id="text_9">
      <!-- 0.2 -->
      <g transform="translate(37.858089 184.348864) scale(0.1 -0.1)">
       <use xlink:href="#DejaVuSans-30"/>
       <use xlink:href="#DejaVuSans-2e" transform="translate(63.623047 0)"/>
       <use xlink:href="#DejaVuSans-32" transform="translate(95.410156 0)"/>
      </g>
     </g>
    </g>
    <g id="ytick_3">
     <g id="line2d_17">
      <path d="M 60.761214 147.982563 
L 628.183658 147.982563 
" clip-path="url(#p559bfe593a)" style="fill: none; stroke: #b0b0b0; stroke-opacity: 0.25; stroke-width: 0.8; stroke-linecap: square"/>
     </g>
     <g id="line2d_18">
      <g>
       <use xlink:href="#m2765ea57d7" x="60.761214" y="147.982563" style="stroke: #000000; stroke-width: 0.8"/>
      </g>
     </g>
     <g id="text_10">
      <!-- 0.4 -->
      <g transform="translate(37.858089 151.781782) scale(0.1 -0.1)">
       <use xlink:href="#DejaVuSans-30"/>
       <use xlink:href="#DejaVuSans-2e" transform="translate(63.623047 0)"/>
       <use xlink:href="#DejaVuSans-34" transform="translate(95.410156 0)"/>
      </g>
     </g>
    </g>
    <g id="ytick_4">
     <g id="line2d_19">
      <path d="M 60.761214 115.415481 
L 628.183658 115.415481 
" clip-path="url(#p559bfe593a)" style="fill: none; stroke: #b0b0b0; stroke-opacity: 0.25; stroke-width: 0.8; stroke-linecap: square"/>
     </g>
     <g id="line2d_20">
      <g>
       <use xlink:href="#m2765ea57d7" x="60.761214" y="115.415481" style="stroke: #000000; stroke-width: 0.8"/>
      </g>
     </g>
     <g id="text_11">
      <!-- 0.6 -->
      <g transform="translate(37.858089 119.2147) scale(0.1 -0.1)">
       <use xlink:href="#DejaVuSans-30"/>
       <use xlink:href="#DejaVuSans-2e" transform="translate(63.623047 0)"/>
       <use xlink:href="#DejaVuSans-36" transform="translate(95.410156 0)"/>
      </g>
     </g>
    </g>
    <g id="ytick_5">
     <g id="line2d_21">
      <path d="M 60.761214 82.848399 
L 628.183658 82.848399 
" clip-path="url(#p559bfe593a)" style="fill: none; stroke: #b0b0b0; stroke-opacity: 0.25; stroke-width: 0.8; stroke-linecap: square"/>
     </g>
     <g id="line2d_22">
      <g>
       <use xlink:href="#m2765ea57d7" x="60.761214" y="82.848399" style="stroke: #000000; stroke-width: 0.8"/>
      </g>
     </g>
     <g id="text_12">
      <!-- 0.8 -->
      <g transform="translate(37.858089 86.647618) scale(0.1 -0.1)">
       <use xlink:href="#DejaVuSans-30"/>
       <use xlink:href="#DejaVuSans-2e" transform="translate(63.623047 0)"/>
       <use xlink:href="#DejaVuSans-38" transform="translate(95.410156 0)"/>
      </g>
     </g>
    </g>
    <g id="ytick_6">
     <g id="line2d_23">
      <path d="M 60.761214 50.281317 
L 628.183658 50.281317 
" clip-path="url(#p559bfe593a)" style="fill: none; stroke: #b0b0b0; stroke-opacity: 0.25; stroke-width: 0.8; stroke-linecap: square"/>
     </g>
     <g id="line2d_24">
      <g>
       <use xlink:href="#m2765ea57d7" x="60.761214" y="50.281317" style="stroke: #000000; stroke-width: 0.8"/>
      </g>
     </g>
     <g id="text_13">
      <!-- 1.0 -->
      <g transform="translate(37.858089 54.080536) scale(0.1 -0.1)">
       <use xlink:href="#DejaVuSans-31"/>
       <use xlink:href="#DejaVuSans-2e" transform="translate(63.623047 0)"/>
       <use xlink:href="#DejaVuSans-30" transform="translate(95.410156 0)"/>
      </g>
     </g>
    </g>
    <g id="text_14">
     <!-- [arb.] -->
     <g transform="translate(31.778401 145.348375) rotate(-90) scale(0.1 -0.1)">
      <use xlink:href="#DejaVuSans-5b"/>
      <use xlink:href="#DejaVuSans-61" transform="translate(39.013672 0)"/>
      <use xlink:href="#DejaVuSans-72" transform="translate(100.292969 0)"/>
      <use xlink:href="#DejaVuSans-62" transform="translate(141.40625 0)"/>
      <use xlink:href="#DejaVuSans-2e" transform="translate(204.882812 0)"/>
      <use xlink:href="#DejaVuSans-5d" transform="translate(236.669922 0)"/>
     </g>
    </g>
   </g>
   <g id="line2d_25">
    <path d="M 86.553143 213.116727 
L 602.391728 50.011273 
L 602.391728 50.011273 
" clip-path="url(#p559bfe593a)" style="fill: none; stroke: #1f77b4; stroke-width: 1.5; stroke-linecap: square"/>
   </g>
   <g id="line2d_26">
    <path d="M 86.553143 213.116727 
L 90.96202 213.000985 
L 95.7488 212.64901 
L 101.039452 212.032536 
L 106.959944 211.112217 
L 113.636243 209.842431 
L 121.320286 208.146422 
L 130.264007 205.93794 
L 141.097247 203.025167 
L 154.701781 199.126087 
L 172.967128 193.644838 
L 200.302164 185.188256 
L 253.208686 168.54575 
L 515.599839 85.591777 
L 602.391728 58.148638 
L 602.391728 58.148638 
" clip-path="url(#p559bfe593a)" style="fill: none; stroke: #ff7f0e; stroke-width: 1.5; stroke-linecap: square"/>
   </g>
   <g id="patch_3">
    <path d="M 60.761214 221.272 
L 60.761214 41.856 
" style="fill: none; stroke: #000000; stroke-width: 0.8; stroke-linejoin: miter; stroke-linecap: square"/>
   </g>
   <g id="patch_4">
    <path d="M 628.183658 221.272 
L 628.183658 41.856 
" style="fill: none; stroke: #000000; stroke-width: 0.8; stroke-linejoin: miter; stroke-linecap: square"/>
   </g>
   <g id="patch_5">
    <path d="M 60.761214 221.272 
L 628.183658 221.272 
" style="fill: none; stroke: #000000; stroke-width: 0.8; stroke-linejoin: miter; stroke-linecap: square"/>
   </g>
   <g id="patch_6">
    <path d="M 60.761214 41.856 
L 628.183658 41.856 
" style="fill: none; stroke: #000000; stroke-width: 0.8; stroke-linejoin: miter; stroke-linecap: square"/>
   </g>
   <g id="text_15">
    <!-- Daily Useless RL (2026-03-12) | verdict: calm -->
    <g transform="translate(208.705561 22.021875) scale(0.12 -0.12)">
     <defs>
      <path id="DejaVuSans-44" d="M 1259 4147 
L 1259 519 
L 2022 519 
Q 2988 519 3436 956 
Q 3884 1394 3884 2338 
Q 3884 3275 3436 3711 
Q 2988 4147 2022 4147 
L 1259 4147 
z
M 628 4666 
L 1925 4666 
Q 3281 4666 3915 4102 
Q 4550 3538 4550 2338 
Q 4550 1131 3912 565 
Q 3275 0 1925 0 
L 628 0 
L 628 4666 
z
" transform="scale(0.015625)"/>
      <path id="DejaVuSans-69" d="M 603 3500 
L 1178 3500 
L 1178 0 
L 603 0 
L 603 3500 
z
M 603 4863 
L 1178 4863 
L 1178 4134 
L 603 4134 
L 603 4863 
z
" transform="scale(0.015625)"/>
      <path id="DejaVuSans-6c" d="M 603 4863 
L 1178 4863 
L 1178 0 
L 603 0 
L 603 4863 
z
" transform="scale(0.015625)"/>
      <path id="DejaVuSans-79" d="M 2059 -325 
Q 1816 -950 1584 -1140 
Q 1353 -1331 966 -1331 
L 506 -1331 
L 506 -850 
L 844 -850 
Q 1081 -850 1212 -737 
Q 1344 -625 1503 -206 
L 1606 56 
L 191 3500 
L 800 3500 
L 1894 763 
L 2988 3500 
L 3597 3500 
L 2059 -325 
z
" transform="scale(0.015625)"/>
      <path id="DejaVuSans-55" d="M 556 4666 
L 1191 4666 
L 1191 1831 
Q 1191 1081 1462 751 
Q 1734 422 2344 422 
Q 2950 422 3222 751 
Q 3494 1081 3494 1831 
L 3494 4666 
L 4128 4666 
L 4128 1753 
Q 4128 841 3676 375 
Q 3225 -91 2344 -91 
Q 1459 -91 1007 375 
Q 556 841 556 1753 
L 556 4666 
z
" transform="scale(0.015625)"/>
      <path id="DejaVuSans-73" d="M 2834 3397 
L 2834 2853 
Q 2591 2978 2328 3040 
Q 2066 3103 1784 3103 
Q 1356 3103 1142 2972 
Q 928 2841 928 2578 
Q 928 2378 1081 2264 
Q 1234 2150 1697 2047 
L 1894 2003 
Q 2506 1872 2764 1633 
Q 3022 1394 3022 966 
Q 3022 478 2636 193 
Q 2250 -91 1575 -91 
Q 1294 -91 989 -36 
Q 684 19 347 128 
L 347 722 
Q 666 556 975 473 
Q 1284 391 1588 391 
Q 1994 391 2212 530 
Q 2431 669 2431 922 
Q 2431 1156 2273 1281 
Q 2116 1406 1581 1522 
L 1381 1569 
Q 847 1681 609 1914 
Q 372 2147 372 2553 
Q 372 3047 722 3315 
Q 1072 3584 1716 3584 
Q 2034 3584 2315 3537 
Q 2597 3491 2834 3397 
z
" transform="scale(0.015625)"/>
      <path id="DejaVuSans-65" d="M 3597 1894 
L 3597 1613 
L 953 1613 
Q 991 1019 1311 708 
Q 1631 397 2203 397 
Q 2534 397 2845 478 
Q 3156 559 3463 722 
L 3463 178 
Q 3153 47 2828 -22 
Q 2503 -91 2169 -91 
Q 1331 -91 842 396 
Q 353 884 353 1716 
Q 353 2575 817 3079 
Q 1281 3584 2069 3584 
Q 2775 3584 3186 3129 
Q 3597 2675 3597 1894 
z
M 3022 2063 
Q 3016 2534 2758 2815 
Q 2500 3097 2075 3097 
Q 1594 3097 1305 2825 
Q 1016 2553 972 2059 
L 3022 2063 
z
" transform="scale(0.015625)"/>
      <path id="DejaVuSans-52" d="M 2841 2188 
Q 3044 2119 3236 1894 
Q 3428 1669 3622 1275 
L 4263 0 
L 3584 0 
L 2988 1197 
Q 2756 1666 2539 1819 
Q 2322 1972 1947 1972 
L 1259 1972 
L 1259 0 
L 628 0 
L 628 4666 
L 2053 4666 
Q 2853 4666 3247 4331 
Q 3641 3997 3641 3322 
Q 3641 2881 3436 2590 
Q 3231 2300 2841 2188 
z
M 1259 4147 
L 1259 2491 
L 2053 2491 
Q 2509 2491 2742 2702 
Q 2975 2913 2975 3322 
Q 2975 3731 2742 3939 
Q 2509 4147 2053 4147 
L 1259 4147 
z
" transform="scale(0.015625)"/>
      <path id="DejaVuSans-4c" d="M 628 4666 
L 1259 4666 
L 1259 531 
L 3531 531 
L 3531 0 
L 628 0 
L 628 4666 
z
" transform="scale(0.015625)"/>
      <path id="DejaVuSans-28" d="M 1984 4856 
Q 1566 4138 1362 3434 
Q 1159 2731 1159 2009 
Q 1159 1288 1364 580 
Q 1569 -128 1984 -844 
L 1484 -844 
Q 1016 -109 783 600 
Q 550 1309 550 2009 
Q 550 2706 781 3412 
Q 1013 4119 1484 4856 
L 1984 4856 
z
" transform="scale(0.015625)"/>
      <path id="DejaVuSans-2d" d="M 313 2009 
L 1997 2009 
L 1997 1497 
L 313 1497 
L 313 2009 
z
" transform="scale(0.015625)"/>
      <path id="DejaVuSans-33" d="M 2597 2516 
Q 3050 2419 3304 2112 
Q 3559 1806 3559 1356 
Q 3559 666 3084 287 
Q 2609 -91 1734 -91 
Q 1441 -91 1130 -33 
Q 819 25 488 141 
L 488 750 
Q 750 597 1062 519 
Q 1375 441 1716 441 
Q 2309 441 2620 675 
Q 2931 909 2931 1356 
Q 2931 1769 2642 2001 
Q 2353 2234 1838 2234 
L 1294 2234 
L 1294 2753 
L 1863 2753 
Q 2328 2753 2575 2939 
Q 2822 3125 2822 3475 
Q 2822 3834 2567 4026 
Q 2313 4219 1838 4219 
Q 1578 4219 1281 4162 
Q 984 4106 628 3988 
L 628 4550 
Q 988 4650 1302 4700 
Q 1616 4750 1894 4750 
Q 2613 4750 3031 4423 
Q 3450 4097 3450 3541 
Q 3450 3153 3228 2886 
Q 3006 2619 2597 2516 
z
" transform="scale(0.015625)"/>
      <path id="DejaVuSans-29" d="M 513 4856 
L 1013 4856 
Q 1481 4119 1714 3412 
Q 1947 2706 1947 2009 
Q 1947 1309 1714 600 
Q 1481 -109 1013 -844 
L 513 -844 
Q 928 -128 1133 580 
Q 1338 1288 1338 2009 
Q 1338 2731 1133 3434 
Q 928 4138 513 4856 
z
" transform="scale(0.015625)"/>
      <path id="DejaVuSans-7c" d="M 1344 4891 
L 1344 -1509 
L 813 -1509 
L 813 4891 
L 1344 4891 
z
" transform="scale(0.015625)"/>
      <path id="DejaVuSans-76" d="M 191 3500 
L 800 3500 
L 1894 563 
L 2988 3500 
L 3597 3500 
L 2284 0 
L 1503 0 
L 191 3500 
z
" transform="scale(0.015625)"/>
      <path id="DejaVuSans-64" d="M 2906 2969 
L 2906 4863 
L 3481 4863 
L 3481 0 
L 2906 0 
L 2906 525 
Q 2725 213 2448 61 
Q 2172 -91 1784 -91 
Q 1150 -91 751 415 
Q 353 922 353 1747 
Q 353 2572 751 3078 
Q 1150 3584 1784 3584 
Q 2172 3584 2448 3432 
Q 2725 3281 2906 2969 
z
M 947 1747 
Q 947 1113 1208 752 
Q 1469 391 1925 391 
Q 2381 391 2643 752 
Q 2906 1113 2906 1747 
Q 2906 2381 2643 2742 
Q 2381 3103 1925 3103 
Q 1469 3103 1208 2742 
Q 947 2381 947 1747 
z
" transform="scale(0.015625)"/>
      <path id="DejaVuSans-63" d="M 3122 3366 
L 3122 2828 
Q 2878 2963 2633 3030 
Q 2388 3097 2138 3097 
Q 1578 3097 1268 2742 
Q 959 2388 959 1747 
Q 959 1106 1268 751 
Q 1578 397 2138 397 
Q 2388 397 2633 464 
Q 2878 531 3122 666 
L 3122 134 
Q 2881 22 2623 -34 
Q 2366 -91 2075 -91 
Q 1284 -91 818 406 
Q 353 903 353 1747 
Q 353 2603 823 3093 
Q 1294 3584 2113 3584 
Q 2378 3584 2631 3529 
Q 2884 3475 3122 3366 
z
" transform="scale(0.015625)"/>
      <path id="DejaVuSans-3a" d="M 750 794 
L 1409 794 
L 1409 0 
L 750 0 
L 750 794 
z
M 750 3309 
L 1409 3309 
L 1409 2516 
L 750 2516 
L 750 3309 
z
" transform="scale(0.015625)"/>
      <path id="DejaVuSans-6d" d="M 3328 2828 
Q 3544 3216 3844 3400 
Q 4144 3584 4550 3584 
Q 5097 3584 5394 3201 
Q 5691 2819 5691 2113 
L 5691 0 
L 5113 0 
L 5113 2094 
Q 5113 2597 4934 2840 
Q 4756 3084 4391 3084 
Q 3944 3084 3684 2787 
Q 3425 2491 3425 1978 
L 3425 0 
L 2847 0 
L 2847 2094 
Q 2847 2600 2669 2842 
Q 2491 3084 2119 3084 
Q 1678 3084 1418 2786 
Q 1159 2488 1159 1978 
L 1159 0 
L 581 0 
L 581 3500 
L 1159 3500 
L 1159 2956 
Q 1356 3278 1631 3431 
Q 1906 3584 2284 3584 
Q 2666 3584 2933 3390 
Q 3200 3197 3328 2828 
z
" transform="scale(0.015625)"/>
     </defs>
     <use xlink:href="#DejaVuSans-44"/>
     <use xlink:href="#DejaVuSans-61" transform="translate(77.001953 0)"/>
     <use xlink:href="#DejaVuSans-69" transform="translate(138.28125 0)"/>
     <use xlink:href="#DejaVuSans-6c" transform="translate(166.064453 0)"/>
     <use xlink:href="#DejaVuSans-79" transform="translate(193.847656 0)"/>
     <use xlink:href="#DejaVuSans-20" transform="translate(253.027344 0)"/>
     <use xlink:href="#DejaVuSans-55" transform="translate(284.814453 0)"/>
     <use xlink:href="#DejaVuSans-73" transform="translate(358.007812 0)"/>
     <use xlink:href="#DejaVuSans-65" transform="translate(410.107422 0)"/>
     <use xlink:href="#DejaVuSans-6c" transform="translate(471.630859 0)"/>
     <use xlink:href="#DejaVuSans-65" transform="translate(499.414062 0)"/>
     <use xlink:href="#DejaVuSans-73" transform="translate(560.9375 0)"/>
     <use xlink:href="#DejaVuSans-73" transform="translate(613.037109 0)"/>
     <use xlink:href="#DejaVuSans-20" transform="translate(665.136719 0)"/>
     <use xlink:href="#DejaVuSans-52" transform="translate(696.923828 0)"/>
     <use xlink:href="#DejaVuSans-4c" transform="translate(766.40625 0)"/>
     <use xlink:href="#DejaVuSans-20" transform="translate(822.119141 0)"/>
     <use xlink:href="#DejaVuSans-28" transform="translate(853.90625 0)"/>
     <use xlink:href="#DejaVuSans-32" transform="translate(892.919922 0)"/>
     <use xlink:href="#DejaVuSans-30" transform="translate(956.542969 0)"/>
     <use xlink:href="#DejaVuSans-32" transform="translate(1020.166016 0)"/>
     <use xlink:href="#DejaVuSans-36" transform="translate(1083.789062 0)"/>
     <use xlink:href="#DejaVuSans-2d" transform="translate(1147.412109 0)"/>
     <use xlink:href="#DejaVuSans-30" transform="translate(1183.496094 0)"/>
     <use xlink:href="#DejaVuSans-33" transform="translate(1247.119141 0)"/>
     <use xlink:href="#DejaVuSans-2d" transform="translate(1310.742188 0)"/>
     <use xlink:href="#DejaVuSans-31" transform="translate(1346.826172 0)"/>
     <use xlink:href="#DejaVuSans-32" transform="translate(1410.449219 0)"/>
     <use xlink:href="#DejaVuSans-29" transform="translate(1474.072266 0)"/>
     <use xlink:href="#DejaVuSans-20" transform="translate(1513.085938 0)"/>
     <use xlink:href="#DejaVuSans-7c" transform="translate(1544.873047 0)"/>
     <use xlink:href="#DejaVuSans-20" transform="translate(1578.564453 0)"/>
     <use xlink:href="#DejaVuSans-76" transform="translate(1610.351562 0)"/>
     <use xlink:href="#DejaVuSans-65" transform="translate(1669.53125 0)"/>
     <use xlink:href="#DejaVuSans-72" transform="translate(1731.054688 0)"/>
     <use xlink:href="#DejaVuSans-64" transform="translate(1770.417969 0)"/>
     <use xlink:href="#DejaVuSans-69" transform="translate(1833.894531 0)"/>
     <use xlink:href="#DejaVuSans-63" transform="translate(1861.677734 0)"/>
     <use xlink:href="#DejaVuSans-74" transform="translate(1916.658203 0)"/>
     <use xlink:href="#DejaVuSans-3a" transform="translate(1955.867188 0)"/>
     <use xlink:href="#DejaVuSans-20" transform="translate(1989.558594 0)"/>
     <use xlink:href="#DejaVuSans-63" transform="translate(2021.345703 0)"/>
     <use xlink:href="#DejaVuSans-61" transform="translate(2076.326172 0)"/>
     <use xlink:href="#DejaVuSans-6c" transform="translate(2137.605469 0)"/>
     <use xlink:href="#DejaVuSans-6d" transform="translate(2165.388672 0)"/>
    </g>
    <!-- Filter: low | Input: ramp, ramp (A=1.00) | R=2.00, L=1.00, τ=0.50 -->
    <g transform="translate(146.008373 35.856) scale(0.12 -0.12)">
     <defs>
      <path id="DejaVuSans-46" d="M 628 4666 
L 3309 4666 
L 3309 4134 
L 1259 4134 
L 1259 2759 
L 3109 2759 
L 3109 2228 
L 1259 2228 
L 1259 0 
L 628 0 
L 628 4666 
z
" transform="scale(0.015625)"/>
      <path id="DejaVuSans-6f" d="M 1959 3097 
Q 1497 3097 1228 2736 
Q 959 2375 959 1747 
Q 959 1119 1226 758 
Q 1494 397 1959 397 
Q 2419 397 2687 759 
Q 2956 1122 2956 1747 
Q 2956 2369 2687 2733 
Q 2419 3097 1959 3097 
z
M 1959 3584 
Q 2709 3584 3137 3096 
Q 3566 2609 3566 1747 
Q 3566 888 3137 398 
Q 2709 -91 1959 -91 
Q 1206 -91 779 398 
Q 353 888 353 1747 
Q 353 2609 779 3096 
Q 1206 3584 1959 3584 
z
" transform="scale(0.015625)"/>
      <path id="DejaVuSans-77" d="M 269 3500 
L 844 3500 
L 1563 769 
L 2278 3500 
L 2956 3500 
L 3675 769 
L 4391 3500 
L 4966 3500 
L 4050 0 
L 3372 0 
L 2619 2869 
L 1863 0 
L 1184 0 
L 269 3500 
z
" transform="scale(0.015625)"/>
      <path id="DejaVuSans-49" d="M 628 4666 
L 1259 4666 
L 1259 0 
L 628 0 
L 628 4666 
z
" transform="scale(0.015625)"/>
      <path id="DejaVuSans-6e" d="M 3513 2113 
L 3513 0 
L 2938 0 
L 2938 2094 
Q 2938 2591 2744 2837 
Q 2550 3084 2163 3084 
Q 1697 3084 1428 2787 
Q 1159 2491 1159 1978 
L 1159 0 
L 581 0 
L 581 3500 
L 1159 3500 
L 1159 2956 
Q 1366 3272 1645 3428 
Q 1925 3584 2291 3584 
Q 2894 3584 3203 3211 
Q 3513 2838 3513 2113 
z
" transform="scale(0.015625)"/>
      <path id="DejaVuSans-70" d="M 1159 525 
L 1159 -1331 
L 581 -1331 
L 581 3500 
L 1159 3500 
L 1159 2969 
Q 1341 3281 1617 3432 
Q 1894 3584 2278 3584 
Q 2916 3584 3314 3078 
Q 3713 2572 3713 1747 
Q 3713 922 3314 415 
Q 2916 -91 2278 -91 
Q 1894 -91 1617 61 
Q 1341 213 1159 525 
z
M 3116 1747 
Q 3116 2381 2855 2742 
Q 2594 3103 2138 3103 
Q 1681 3103 1420 2742 
Q 1159 2381 1159 1747 
Q 1159 1113 1420 752 
Q 1681 391 2138 391 
Q 2594 391 2855 752 
Q 3116 1113 3116 1747 
z
" transform="scale(0.015625)"/>
      <path id="DejaVuSans-75" d="M 544 1381 
L 544 3500 
L 1119 3500 
L 1119 1403 
Q 1119 906 1312 657 
Q 1506 409 1894 409 
Q 2359 409 2629 706 
Q 2900 1003 2900 1516 
L 2900 3500 
L 3475 3500 
L 3475 0 
L 2900 0 
L 2900 538 
Q 2691 219 2414 64 
Q 2138 -91 1772 -91 
Q 1169 -91 856 284 
Q 544 659 544 1381 
z
M 1991 3584 
L 1991 3584 
z
" transform="scale(0.015625)"/>
      <path id="DejaVuSans-2c" d="M 750 794 
L 1409 794 
L 1409 256 
L 897 -744 
L 494 -744 
L 750 256 
L 750 794 
z
" transform="scale(0.015625)"/>
      <path id="DejaVuSans-41" d="M 2188 4044 
L 1331 1722 
L 3047 1722 
L 2188 4044 
z
M 1831 4666 
L 2547 4666 
L 4325 0 
L 3669 0 
L 3244 1197 
L 1141 1197 
L 716 0 
L 50 0 
L 1831 4666 
z
" transform="scale(0.015625)"/>
      <path id="DejaVuSans-3d" d="M 678 2906 
L 4684 2906 
L 4684 2381 
L 678 2381 
L 678 2906 
z
M 678 1631 
L 4684 1631 
L 4684 1100 
L 678 1100 
L 678 1631 
z
" transform="scale(0.015625)"/>
      <path id="DejaVuSans-3c4" d="M 2319 638 
Q 2431 488 2769 488 
L 3047 488 
L 3047 0 
L 2700 0 
Q 2138 0 1881 300 
Q 1625 606 1625 1269 
L 1625 2925 
L 313 2925 
L 313 3500 
L 3541 3500 
L 3541 2925 
L 2213 2925 
L 2213 1234 
Q 2213 781 2319 638 
z
" transform="scale(0.015625)"/>
      <path id="DejaVuSans-35" d="M 691 4666 
L 3169 4666 
L 3169 4134 
L 1269 4134 
L 1269 2991 
Q 1406 3038 1543 3061 
Q 1681 3084 1819 3084 
Q 2600 3084 3056 2656 
Q 3513 2228 3513 1497 
Q 3513 744 3044 326 
Q 2575 -91 1722 -91 
Q 1428 -91 1123 -41 
Q 819 9 494 109 
L 494 744 
Q 775 591 1075 516 
Q 1375 441 1709 441 
Q 2250 441 2565 725 
Q 2881 1009 2881 1497 
Q 2881 1984 2565 2268 
Q 2250 2553 1709 2553 
Q 1456 2553 1204 2497 
Q 953 2441 691 2322 
L 691 4666 
z
" transform="scale(0.015625)"/>
     </defs>
     <use xlink:href="#DejaVuSans-46"/>
     <use xlink:href="#DejaVuSans-69" transform="translate(50.269531 0)"/>
     <use xlink:href="#DejaVuSans-6c" transform="translate(78.052734 0)"/>
     <use xlink:href="#DejaVuSans-74" transform="translate(105.835938 0)"/>
     <use xlink:href="#DejaVuSans-65" transform="translate(145.044922 0)"/>
     <use xlink:href="#DejaVuSans-72" transform="translate(206.568359 0)"/>
     <use xlink:href="#DejaVuSans-3a" transform="translate(245.931641 0)"/>
     <use xlink:href="#DejaVuSans-20" transform="translate(279.623047 0)"/>
     <use xlink:href="#DejaVuSans-6c" transform="translate(311.410156 0)"/>
     <use xlink:href="#DejaVuSans-6f" transform="translate(339.193359 0)"/>
     <use xlink:href="#DejaVuSans-77" transform="translate(400.375 0)"/>
     <use xlink:href="#DejaVuSans-20" transform="translate(482.162109 0)"/>
     <use xlink:href="#DejaVuSans-7c" transform="translate(513.949219 0)"/>
     <use xlink:href="#DejaVuSans-20" transform="translate(547.640625 0)"/>
     <use xlink:href="#DejaVuSans-49" transform="translate(579.427734 0)"/>
     <use xlink:href="#DejaVuSans-6e" transform="translate(608.919922 0)"/>
     <use xlink:href="#DejaVuSans-70" transform="translate(672.298828 0)"/>
     <use xlink:href="#DejaVuSans-75" transform="translate(735.775391 0)"/>
     <use xlink:href="#DejaVuSans-74" transform="translate(799.154297 0)"/>
     <use xlink:href="#DejaVuSans-3a" transform="translate(838.363281 0)"/>
     <use xlink:href="#DejaVuSans-20" transform="translate(872.054688 0)"/>
     <use xlink:href="#DejaVuSans-72" transform="translate(903.841797 0)"/>
     <use xlink:href="#DejaVuSans-61" transform="translate(944.955078 0)"/>
     <use xlink:href="#DejaVuSans-6d" transform="translate(1006.234375 0)"/>
     <use xlink:href="#DejaVuSans-70" transform="translate(1103.646484 0)"/>
     <use xlink:href="#DejaVuSans-2c" transform="translate(1167.123047 0)"/>
     <use xlink:href="#DejaVuSans-20" transform="translate(1198.910156 0)"/>
     <use xlink:href="#DejaVuSans-72" transform="translate(1230.697266 0)"/>
     <use xlink:href="#DejaVuSans-61" transform="translate(1271.810547 0)"/>
     <use xlink:href="#DejaVuSans-6d" transform="translate(1333.089844 0)"/>
     <use xlink:href="#DejaVuSans-70" transform="translate(1430.501953 0)"/>
     <use xlink:href="#DejaVuSans-20" transform="translate(1493.978516 0)"/>
     <use xlink:href="#DejaVuSans-28" transform="translate(1525.765625 0)"/>
     <use xlink:href="#DejaVuSans-41" transform="translate(1564.779297 0)"/>
     <use xlink:href="#DejaVuSans-3d" transform="translate(1633.1875 0)"/>
     <use xlink:href="#DejaVuSans-31" transform="translate(1716.976562 0)"/>
     <use xlink:href="#DejaVuSans-2e" transform="translate(1780.599609 0)"/>
     <use xlink:href="#DejaVuSans-30" transform="translate(1812.386719 0)"/>
     <use xlink:href="#DejaVuSans-30" transform="translate(1876.009766 0)"/>
     <use xlink:href="#DejaVuSans-29" transform="translate(1939.632812 0)"/>
     <use xlink:href="#DejaVuSans-20" transform="translate(1978.646484 0)"/>
     <use xlink:href="#DejaVuSans-7c" transform="translate(2010.433594 0)"/>
     <use xlink:href="#DejaVuSans-20" transform="translate(2044.125 0)"/>
     <use xlink:href="#DejaVuSans-52" transform="translate(2075.912109 0)"/>
     <use xlink:href="#DejaVuSans-3d" transform="translate(2145.394531 0)"/>
     <use xlink:href="#DejaVuSans-32" transform="translate(2229.183594 0)"/>
     <use xlink:href="#DejaVuSans-2e" transform="translate(2292.806641 0)"/>
     <use xlink:href="#DejaVuSans-30" transform="translate(2324.59375 0)"/>
     <use xlink:href="#DejaVuSans-30" transform="translate(2388.216797 0)"/>
     <use xlink:href="#DejaVuSans-2c" transform="translate(2451.839844 0)"/>
     <use xlink:href="#DejaVuSans-20" transform="translate(2483.626953 0)"/>
     <use xlink:href="#DejaVuSans-4c" transform="translate(2515.414062 0)"/>
     <use xlink:href="#DejaVuSans-3d" transform="translate(2571.126953 0)"/>
     <use xlink:href="#DejaVuSans-31" transform="translate(2654.916016 0)"/>
     <use xlink:href="#DejaVuSans-2e" transform="translate(2718.539062 0)"/>
     <use xlink:href="#DejaVuSans-30" transform="translate(2750.326172 0)"/>
     <use xlink:href="#DejaVuSans-30" transform="translate(2813.949219 0)"/>
     <use xlink:href="#DejaVuSans-2c" transform="translate(2877.572266 0)"/>
     <use xlink:href="#DejaVuSans-20" transform="translate(2909.359375 0)"/>
     <use xlink:href="#DejaVuSans-3c4" transform="translate(2941.146484 0)"/>
     <use xlink:href="#DejaVuSans-3d" transform="translate(3001.351562 0)"/>
     <use xlink:href="#DejaVuSans-30" transform="translate(3085.140625 0)"/>
     <use xlink:href="#DejaVuSans-2e" transform="translate(3148.763672 0)"/>
     <use xlink:href="#DejaVuSans-35" transform="translate(3180.550781 0)"/>
     <use xlink:href="#DejaVuSans-30" transform="translate(3244.173828 0)"/>
    </g>
   </g>
   <g id="legend_1">
    <g id="patch_7">
     <path d="M 67.761214 79.21225 
L 132.744026 79.21225 
Q 134.744026 79.21225 134.744026 77.21225 
L 134.744026 48.856 
Q 134.744026 46.856 132.744026 46.856 
L 67.761214 46.856 
Q 65.761214 46.856 65.761214 48.856 
L 65.761214 77.21225 
Q 65.761214 79.21225 67.761214 79.21225 
z
" style="fill: #ffffff; opacity: 0.8; stroke: #cccccc; stroke-linejoin: miter"/>
    </g>
    <g id="line2d_27">
     <path d="M 69.761214 54.954437 
L 79.761214 54.954437 
L 89.761214 54.954437 
" style="fill: none; stroke: #1f77b4; stroke-width: 1.5; stroke-linecap: square"/>
    </g>
    <g id="text_16">
     <!-- input -->
     <g transform="translate(97.761214 58.454437) scale(0.1 -0.1)">
      <use xlink:href="#DejaVuSans-69"/>
      <use xlink:href="#DejaVuSans-6e" transform="translate(27.783203 0)"/>
      <use xlink:href="#DejaVuSans-70" transform="translate(91.162109 0)"/>
      <use xlink:href="#DejaVuSans-75" transform="translate(154.638672 0)"/>
      <use xlink:href="#DejaVuSans-74" transform="translate(218.017578 0)"/>
     </g>
    </g>
    <g id="line2d_28">
     <path d="M 69.761214 69.632562 
L 79.761214 69.632562 
L 89.761214 69.632562 
" style="fill: none; stroke: #ff7f0e; stroke-width: 1.5; stroke-linecap: square"/>
    </g>
    <g id="text_17">
     <!-- output -->
     <g transform="translate(97.761214 73.132562) scale(0.1 -0.1)">
      <use xlink:href="#DejaVuSans-6f"/>
      <use xlink:href="#DejaVuSans-75" transform="translate(61.181641 0)"/>
      <use xlink:href="#DejaVuSans-74" transform="translate(124.560547 0)"/>
      <use xlink:href="#DejaVuSans-70" transform="translate(163.769531 0)"/>
      <use xlink:href="#DejaVuSans-75" transform="translate(227.246094 0)"/>
      <use xlink:href="#DejaVuSans-74" transform="translate(290.625 0)"/>
     </g>
    </g>
   </g>
  </g>
  <g id="axes_2">
   <g id="patch_8">
    <path d="M 60.761214 458.728 
L 628.183658 458.728 
L 628.183658 279.312 
L 60.761214 279.312 
z
" style="fill: #ffffff"/>
   </g>
   <g id="matplotlib.axis_3">
    <g id="xtick_7">
     <g id="line2d_29">
      <path d="M 60.761214 458.728 
L 60.761214 279.312 
" clip-path="url(#p16e3606656)" style="fill: none; stroke: #b0b0b0; stroke-opacity: 0.25; stroke-width: 0.8; stroke-linecap: square"/>
     </g>
     <g id="line2d_30">
      <g>
       <use xlink:href="#mb4aff252cc" x="60.761214" y="458.728" style="stroke: #000000; stroke-width: 0.8"/>
      </g>
     </g>
     <g id="text_18">
      <!-- $\mathdefault{10^{-1}}$ -->
      <g transform="translate(49.011214 473.326438) scale(0.1 -0.1)">
       <defs>
        <path id="DejaVuSans-2212" d="M 678 2272 
L 4684 2272 
L 4684 1741 
L 678 1741 
L 678 2272 
z
" transform="scale(0.015625)"/>
       </defs>
       <use xlink:href="#DejaVuSans-31" transform="translate(0 0.684375)"/>
       <use xlink:href="#DejaVuSans-30" transform="translate(63.623047 0.684375)"/>
       <use xlink:href="#DejaVuSans-2212" transform="translate(128.203125 38.965625) scale(0.7)"/>
       <use xlink:href="#DejaVuSans-31" transform="translate(186.855469 38.965625) scale(0.7)"/>
      </g>
     </g>
    </g>
    <g id="xtick_8">
     <g id="line2d_31">
      <path d="M 344.472436 458.728 
L 344.472436 279.312 
" clip-path="url(#p16e3606656)" style="fill: none; stroke: #b0b0b0; stroke-opacity: 0.25; stroke-width: 0.8; stroke-linecap: square"/>
     </g>
     <g id="line2d_32">
      <g>
       <use xlink:href="#mb4aff252cc" x="344.472436" y="458.728" style="stroke: #000000; stroke-width: 0.8"/>
      </g>
     </g>
     <g id="text_19">
      <!-- $\mathdefault{10^{0}}$ -->
      <g transform="translate(335.672436 473.326438) scale(0.1 -0.1)">
       <use xlink:href="#DejaVuSans-31" transform="translate(0 0.765625)"/>
       <use xlink:href="#DejaVuSans-30" transform="translate(63.623047 0.765625)"/>
       <use xlink:href="#DejaVuSans-30" transform="translate(128.203125 39.046875) scale(0.7)"/>
      </g>
     </g>
    </g>
    <g id="xtick_9">
     <g id="line2d_33">
      <path d="M 628.183658 458.728 
L 628.183658 279.312 
" clip-path="url(#p16e3606656)" style="fill: none; stroke: #b0b0b0; stroke-opacity: 0.25; stroke-width: 0.8; stroke-linecap: square"/>
     </g>
     <g id="line2d_34">
      <g>
       <use xlink:href="#mb4aff252cc" x="628.183658" y="458.728" style="stroke: #000000; stroke-width: 0.8"/>
      </g>
     </g>
     <g id="text_20">
      <!-- $\mathdefault{10^{1}}$ -->
      <g transform="translate(619.383658 473.326438) scale(0.1 -0.1)">
       <use xlink:href="#DejaVuSans-31" transform="translate(0 0.684375)"/>
       <use xlink:href="#DejaVuSans-30" transform="translate(63.623047 0.684375)"/>
       <use xlink:href="#DejaVuSans-31" transform="translate(128.203125 38.965625) scale(0.7)"/>
      </g>
     </g>
    </g>
    <g id="xtick_10">
     <g id="line2d_35">
      <defs>
       <path id="m6185526d3c" d="M 0 0 
L 0 2 
" style="stroke: #000000; stroke-width: 0.6"/>
      </defs>
      <g>
       <use xlink:href="#m6185526d3c" x="146.166802" y="458.728" style="stroke: #000000; stroke-width: 0.6"/>
      </g>
     </g>
    </g>
    <g id="xtick_11">
     <g id="line2d_36">
      <g>
       <use xlink:href="#m6185526d3c" x="196.125868" y="458.728" style="stroke: #000000; stroke-width: 0.6"/>
      </g>
     </g>
    </g>
    <g id="xtick_12">
     <g id="line2d_37">
      <g>
       <use xlink:href="#m6185526d3c" x="231.572389" y="458.728" style="stroke: #000000; stroke-width: 0.6"/>
      </g>
     </g>
    </g>
    <g id="xtick_13">
     <g id="line2d_38">
      <g>
       <use xlink:href="#m6185526d3c" x="259.066848" y="458.728" style="stroke: #000000; stroke-width: 0.6"/>
      </g>
     </g>
    </g>
    <g id="xtick_14">
     <g id="line2d_39">
      <g>
       <use xlink:href="#m6185526d3c" x="281.531456" y="458.728" style="stroke: #000000; stroke-width: 0.6"/>
      </g>
     </g>
    </g>
    <g id="xtick_15">
     <g id="line2d_40">
      <g>
       <use xlink:href="#m6185526d3c" x="300.525011" y="458.728" style="stroke: #000000; stroke-width: 0.6"/>
      </g>
     </g>
    </g>
    <g id="xtick_16">
     <g id="line2d_41">
      <g>
       <use xlink:href="#m6185526d3c" x="316.977977" y="458.728" style="stroke: #000000; stroke-width: 0.6"/>
      </g>
     </g>
    </g>
    <g id="xtick_17">
     <g id="line2d_42">
      <g>
       <use xlink:href="#m6185526d3c" x="331.490522" y="458.728" style="stroke: #000000; stroke-width: 0.6"/>
      </g>
     </g>
    </g>
    <g id="xtick_18">
     <g id="line2d_43">
      <g>
       <use xlink:href="#m6185526d3c" x="429.878024" y="458.728" style="stroke: #000000; stroke-width: 0.6"/>
      </g>
     </g>
    </g>
    <g id="xtick_19">
     <g id="line2d_44">
      <g>
       <use xlink:href="#m6185526d3c" x="479.83709" y="458.728" style="stroke: #000000; stroke-width: 0.6"/>
      </g>
     </g>
    </g>
    <g id="xtick_20">
     <g id="line2d_45">
      <g>
       <use xlink:href="#m6185526d3c" x="515.283611" y="458.728" style="stroke: #000000; stroke-width: 0.6"/>
      </g>
     </g>
    </g>
    <g id="xtick_21">
     <g id="line2d_46">
      <g>
       <use xlink:href="#m6185526d3c" x="542.77807" y="458.728" style="stroke: #000000; stroke-width: 0.6"/>
      </g>
     </g>
    </g>
    <g id="xtick_22">
     <g id="line2d_47">
      <g>
       <use xlink:href="#m6185526d3c" x="565.242678" y="458.728" style="stroke: #000000; stroke-width: 0.6"/>
      </g>
     </g>
    </g>
    <g id="xtick_23">
     <g id="line2d_48">
      <g>
       <use xlink:href="#m6185526d3c" x="584.236233" y="458.728" style="stroke: #000000; stroke-width: 0.6"/>
      </g>
     </g>
    </g>
    <g id="xtick_24">
     <g id="line2d_49">
      <g>
       <use xlink:href="#m6185526d3c" x="600.689199" y="458.728" style="stroke: #000000; stroke-width: 0.6"/>
      </g>
     </g>
    </g>
    <g id="xtick_25">
     <g id="line2d_50">
      <g>
       <use xlink:href="#m6185526d3c" x="615.201744" y="458.728" style="stroke: #000000; stroke-width: 0.6"/>
      </g>
     </g>
    </g>
    <g id="text_21">
     <!-- frequency [arb.] -->
     <g transform="translate(304.022436 487.004563) scale(0.1 -0.1)">
      <defs>
       <path id="DejaVuSans-66" d="M 2375 4863 
L 2375 4384 
L 1825 4384 
Q 1516 4384 1395 4259 
Q 1275 4134 1275 3809 
L 1275 3500 
L 2222 3500 
L 2222 3053 
L 1275 3053 
L 1275 0 
L 697 0 
L 697 3053 
L 147 3053 
L 147 3500 
L 697 3500 
L 697 3744 
Q 697 4328 969 4595 
Q 1241 4863 1831 4863 
L 2375 4863 
z
" transform="scale(0.015625)"/>
       <path id="DejaVuSans-71" d="M 947 1747 
Q 947 1113 1208 752 
Q 1469 391 1925 391 
Q 2381 391 2643 752 
Q 2906 1113 2906 1747 
Q 2906 2381 2643 2742 
Q 2381 3103 1925 3103 
Q 1469 3103 1208 2742 
Q 947 2381 947 1747 
z
M 2906 525 
Q 2725 213 2448 61 
Q 2172 -91 1784 -91 
Q 1150 -91 751 415 
Q 353 922 353 1747 
Q 353 2572 751 3078 
Q 1150 3584 1784 3584 
Q 2172 3584 2448 3432 
Q 2725 3281 2906 2969 
L 2906 3500 
L 3481 3500 
L 3481 -1331 
L 2906 -1331 
L 2906 525 
z
" transform="scale(0.015625)"/>
      </defs>
      <use xlink:href="#DejaVuSans-66"/>
      <use xlink:href="#DejaVuSans-72" transform="translate(35.205078 0)"/>
      <use xlink:href="#DejaVuSans-65" transform="translate(74.068359 0)"/>
      <use xlink:href="#DejaVuSans-71" transform="translate(135.591797 0)"/>
      <use xlink:href="#DejaVuSans-75" transform="translate(199.068359 0)"/>
      <use xlink:href="#DejaVuSans-65" transform="translate(262.447266 0)"/>
      <use xlink:href="#DejaVuSans-6e" transform="translate(323.970703 0)"/>
      <use xlink:href="#DejaVuSans-63" transform="translate(387.349609 0)"/>
      <use xlink:href="#DejaVuSans-79" transform="translate(442.330078 0)"/>
      <use xlink:href="#DejaVuSans-20" transform="translate(501.509766 0)"/>
      <use xlink:href="#DejaVuSans-5b" transform="translate(533.296875 0)"/>
      <use xlink:href="#DejaVuSans-61" transform="translate(572.310547 0)"/>
      <use xlink:href="#DejaVuSans-72" transform="translate(633.589844 0)"/>
      <use xlink:href="#DejaVuSans-62" transform="translate(674.703125 0)"/>
      <use xlink:href="#DejaVuSans-2e" transform="translate(738.179688 0)"/>
      <use xlink:href="#DejaVuSans-5d" transform="translate(769.966797 0)"/>
     </g>
    </g>
   </g>
   <g id="matplotlib.axis_4">
    <g id="ytick_7">
     <g id="line2d_51">
      <path d="M 60.761214 441.335461 
L 628.183658 441.335461 
" clip-path="url(#p16e3606656)" style="fill: none; stroke: #b0b0b0; stroke-opacity: 0.25; stroke-width: 0.8; stroke-linecap: square"/>
     </g>
     <g id="line2d_52">
      <g>
       <use xlink:href="#m2765ea57d7" x="60.761214" y="441.335461" style="stroke: #000000; stroke-width: 0.8"/>
      </g>
     </g>
     <g id="text_22">
      <!-- $\mathdefault{10^{-10}}$ -->
      <g transform="translate(25.861214 445.134679) scale(0.1 -0.1)">
       <use xlink:href="#DejaVuSans-31" transform="translate(0 0.765625)"/>
       <use xlink:href="#DejaVuSans-30" transform="translate(63.623047 0.765625)"/>
       <use xlink:href="#DejaVuSans-2212" transform="translate(128.203125 39.046875) scale(0.7)"/>
       <use xlink:href="#DejaVuSans-31" transform="translate(186.855469 39.046875) scale(0.7)"/>
       <use xlink:href="#DejaVuSans-30" transform="translate(231.391602 39.046875) scale(0.7)"/>
      </g>
     </g>
    </g>
    <g id="ytick_8">
     <g id="line2d_53">
      <path d="M 60.761214 416.495655 
L 628.183658 416.495655 
" clip-path="url(#p16e3606656)" style="fill: none; stroke: #b0b0b0; stroke-opacity: 0.25; stroke-width: 0.8; stroke-linecap: square"/>
     </g>
     <g id="line2d_54">
      <g>
       <use xlink:href="#m2765ea57d7" x="60.761214" y="416.495655" style="stroke: #000000; stroke-width: 0.8"/>
      </g>
     </g>
     <g id="text_23">
      <!-- $\mathdefault{10^{-8}}$ -->
      <g transform="translate(30.261214 420.294873) scale(0.1 -0.1)">
       <use xlink:href="#DejaVuSans-31" transform="translate(0 0.765625)"/>
       <use xlink:href="#DejaVuSans-30" transform="translate(63.623047 0.765625)"/>
       <use xlink:href="#DejaVuSans-2212" transform="translate(128.203125 39.046875) scale(0.7)"/>
       <use xlink:href="#DejaVuSans-38" transform="translate(186.855469 39.046875) scale(0.7)"/>
      </g>
     </g>
    </g>
    <g id="ytick_9">
     <g id="line2d_55">
      <path d="M 60.761214 391.655849 
L 628.183658 391.655849 
" clip-path="url(#p16e3606656)" style="fill: none; stroke: #b0b0b0; stroke-opacity: 0.25; stroke-width: 0.8; stroke-linecap: square"/>
     </g>
     <g id="line2d_56">
      <g>
       <use xlink:href="#m2765ea57d7" x="60.761214" y="391.655849" style="stroke: #000000; stroke-width: 0.8"/>
      </g>
     </g>
     <g id="text_24">
      <!-- $\mathdefault{10^{-6}}$ -->
      <g transform="translate(30.261214 395.455067) scale(0.1 -0.1)">
       <use xlink:href="#DejaVuSans-31" transform="translate(0 0.765625)"/>
       <use xlink:href="#DejaVuSans-30" transform="translate(63.623047 0.765625)"/>
       <use xlink:href="#DejaVuSans-2212" transform="translate(128.203125 39.046875) scale(0.7)"/>
       <use xlink:href="#DejaVuSans-36" transform="translate(186.855469 39.046875) scale(0.7)"/>
      </g>
     </g>
    </g>
    <g id="ytick_10">
     <g id="line2d_57">
      <path d="M 60.761214 366.816043 
L 628.183658 366.816043 
" clip-path="url(#p16e3606656)" style="fill: none; stroke: #b0b0b0; stroke-opacity: 0.25; stroke-width: 0.8; stroke-linecap: square"/>
     </g>
     <g id="line2d_58">
      <g>
       <use xlink:href="#m2765ea57d7" x="60.761214" y="366.816043" style="stroke: #000000; stroke-width: 0.8"/>
      </g>
     </g>
     <g id="text_25">
      <!-- $\mathdefault{10^{-4}}$ -->
      <g transform="translate(30.261214 370.615261) scale(0.1 -0.1)">
       <use xlink:href="#DejaVuSans-31" transform="translate(0 0.684375)"/>
       <use xlink:href="#DejaVuSans-30" transform="translate(63.623047 0.684375)"/>
       <use xlink:href="#DejaVuSans-2212" transform="translate(128.203125 38.965625) scale(0.7)"/>
       <use xlink:href="#DejaVuSans-34" transform="translate(186.855469 38.965625) scale(0.7)"/>
      </g>
     </g>
    </g>
    <g id="ytick_11">
     <g id="line2d_59">
      <path d="M 60.761214 341.976237 
L 628.183658 341.976237 
" clip-path="url(#p16e3606656)" style="fill: none; stroke: #b0b0b0; stroke-opacity: 0.25; stroke-width: 0.8; stroke-linecap: square"/>
     </g>
     <g id="line2d_60">
      <g>
       <use xlink:href="#m2765ea57d7" x="60.761214" y="341.976237" style="stroke: #000000; stroke-width: 0.8"/>
      </g>
     </g>
     <g id="text_26">
      <!-- $\mathdefault{10^{-2}}$ -->
      <g transform="translate(30.261214 345.775455) scale(0.1 -0.1)">
       <use xlink:href="#DejaVuSans-31" transform="translate(0 0.765625)"/>
       <use xlink:href="#DejaVuSans-30" transform="translate(63.623047 0.765625)"/>
       <use xlink:href="#DejaVuSans-2212" transform="translate(128.203125 39.046875) scale(0.7)"/>
       <use xlink:href="#DejaVuSans-32" transform="translate(186.855469 39.046875) scale(0.7)"/>
      </g>
     </g>
    </g>
    <g id="ytick_12">
     <g id="line2d_61">
      <path d="M 60.761214 317.136431 
L 628.183658 317.136431 
" clip-path="url(#p16e3606656)" style="fill: none; stroke: #b0b0b0; stroke-opacity: 0.25; stroke-width: 0.8; stroke-linecap: square"/>
     </g>
     <g id="line2d_62">
      <g>
       <use xlink:href="#m2765ea57d7" x="60.761214" y="317.136431" style="stroke: #000000; stroke-width: 0.8"/>
      </g>
     </g>
     <g id="text_27">
      <!-- $\mathdefault{10^{0}}$ -->
      <g transform="translate(36.161214 320.93565) scale(0.1 -0.1)">
       <use xlink:href="#DejaVuSans-31" transform="translate(0 0.765625)"/>
       <use xlink:href="#DejaVuSans-30" transform="translate(63.623047 0.765625)"/>
       <use xlink:href="#DejaVuSans-30" transform="translate(128.203125 39.046875) scale(0.7)"/>
      </g>
     </g>
    </g>
    <g id="ytick_13">
     <g id="line2d_63">
      <path d="M 60.761214 292.296625 
L 628.183658 292.296625 
" clip-path="url(#p16e3606656)" style="fill: none; stroke: #b0b0b0; stroke-opacity: 0.25; stroke-width: 0.8; stroke-linecap: square"/>
     </g>
     <g id="line2d_64">
      <g>
       <use xlink:href="#m2765ea57d7" x="60.761214" y="292.296625" style="stroke: #000000; stroke-width: 0.8"/>
      </g>
     </g>
     <g id="text_28">
      <!-- $\mathdefault{10^{2}}$ -->
      <g transform="translate(36.161214 296.095844) scale(0.1 -0.1)">
       <use xlink:href="#DejaVuSans-31" transform="translate(0 0.765625)"/>
       <use xlink:href="#DejaVuSans-30" transform="translate(63.623047 0.765625)"/>
       <use xlink:href="#DejaVuSans-32" transform="translate(128.203125 39.046875) scale(0.7)"/>
      </g>
     </g>
    </g>
    <g id="text_29">
     <!-- |FFT(.)| -->
     <g transform="translate(19.503401 386.597344) rotate(-90) scale(0.1 -0.1)">
      <defs>
       <path id="DejaVuSans-54" d="M -19 4666 
L 3928 4666 
L 3928 4134 
L 2272 4134 
L 2272 0 
L 1638 0 
L 1638 4134 
L -19 4134 
L -19 4666 
z
" transform="scale(0.015625)"/>
      </defs>
      <use xlink:href="#DejaVuSans-7c"/>
      <use xlink:href="#DejaVuSans-46" transform="translate(33.691406 0)"/>
      <use xlink:href="#DejaVuSans-46" transform="translate(91.210938 0)"/>
      <use xlink:href="#DejaVuSans-54" transform="translate(146.980469 0)"/>
      <use xlink:href="#DejaVuSans-28" transform="translate(208.064453 0)"/>
      <use xlink:href="#DejaVuSans-2e" transform="translate(247.078125 0)"/>
      <use xlink:href="#DejaVuSans-29" transform="translate(278.865234 0)"/>
      <use xlink:href="#DejaVuSans-7c" transform="translate(317.878906 0)"/>
     </g>
    </g>
   </g>
   <g id="line2d_65">
    <path d="M 60.761214 287.467273 
L 146.166802 295.570642 
L 196.125868 303.049274 
L 231.572389 307.991969 
L 259.066848 311.730878 
L 281.531456 314.749474 
L 300.525011 317.284685 
L 316.977977 319.471772 
L 331.490522 321.395684 
L 344.472436 323.113432 
L 356.216005 324.665202 
L 366.937044 326.080411 
L 376.799443 327.381259 
L 385.930599 328.584919 
L 394.431502 329.704954 
L 402.383565 330.752263 
L 409.853381 331.735741 
L 416.89611 332.662741 
L 423.55796 333.539411 
L 429.878024 334.370947 
L 435.889665 335.161777 
L 441.621593 335.915708 
L 447.098682 336.636034 
L 452.342632 337.32563 
L 457.372482 337.987012 
L 462.205031 338.622403 
L 466.855176 339.233771 
L 471.336187 339.822868 
L 475.659937 340.391262 
L 479.83709 340.940362 
L 483.877262 341.471434 
L 487.789153 341.985628 
L 491.580659 342.483983 
L 495.258969 342.967448 
L 498.830645 343.436888 
L 502.301698 343.893095 
L 505.677641 344.336795 
L 508.963548 344.768656 
L 512.164098 345.189294 
L 515.283611 345.59928 
L 518.326092 345.999139 
L 521.295253 346.389361 
L 524.194545 346.7704 
L 527.027181 347.142679 
L 529.796156 347.506591 
L 532.50427 347.862506 
L 535.15414 348.210768 
L 537.74822 348.551699 
L 540.288809 348.885602 
L 542.77807 349.212763 
L 545.218035 349.533447 
L 547.610619 349.847907 
L 549.957628 350.15638 
L 552.260764 350.45909 
L 554.521639 350.75625 
L 556.741775 351.048059 
L 558.922615 351.334708 
L 561.065525 351.616375 
L 563.171802 351.893231 
L 565.242678 352.165439 
L 567.279323 352.433152 
L 569.28285 352.696516 
L 571.25432 352.955672 
L 573.194741 353.21075 
L 575.105077 353.461879 
L 576.986247 353.709179 
L 578.839127 353.952766 
L 580.664557 354.192748 
L 582.463336 354.429233 
L 584.236233 354.66232 
L 585.983982 354.892106 
L 587.707286 355.118683 
L 589.406819 355.342141 
L 591.083229 355.562564 
L 592.737136 355.780034 
L 594.369136 355.99463 
L 595.979803 356.206425 
L 597.569685 356.415493 
L 599.139315 356.621904 
L 600.689199 356.825724 
L 602.21983 357.027018 
L 603.73168 357.225848 
L 605.225204 357.422274 
L 606.700841 357.616353 
L 608.159015 357.808141 
L 609.600133 357.997691 
L 611.024591 358.185057 
L 612.432769 358.370287 
L 613.825035 358.55343 
L 615.201744 358.734532 
L 616.563241 358.91364 
L 617.909858 359.090796 
L 619.241916 359.266042 
L 620.559728 359.439421 
L 621.863594 359.610971 
L 623.153807 359.78073 
L 624.43065 359.948737 
L 625.694397 360.115026 
L 626.945313 360.279633 
L 628.183658 360.442592 
L 629.40968 360.603936 
" clip-path="url(#p16e3606656)" style="fill: none; stroke: #1f77b4; stroke-opacity: 0.6; stroke-width: 1.5; stroke-linecap: square"/>
   </g>
   <g id="line2d_66">
    <path d="M 60.761214 287.473767 
L 146.166802 295.541362 
L 196.125868 302.988166 
L 231.572389 307.934962 
L 259.066848 311.704947 
L 281.531456 314.763531 
L 300.525011 317.337544 
L 316.977977 319.55857 
L 331.490522 321.510929 
L 344.472436 323.252132 
L 356.216005 324.823162 
L 366.937044 326.254221 
L 376.799443 327.568179 
L 385.930599 328.782754 
L 394.431502 329.911942 
L 402.383565 330.966982 
L 409.853381 331.957037 
L 416.89611 332.889669 
L 423.55796 333.771194 
L 429.878024 334.606941 
L 435.889665 335.401443 
L 441.621593 336.158594 
L 447.098682 336.881758 
L 452.342632 337.573866 
L 457.372482 338.237483 
L 462.205031 338.87487 
L 466.855176 339.488026 
L 471.336187 340.078733 
L 475.659937 340.64858 
L 479.83709 341.198995 
L 483.877262 341.731263 
L 487.789153 342.246545 
L 491.580659 342.745896 
L 495.258969 343.230272 
L 498.830645 343.700548 
L 502.301698 344.157524 
L 505.677641 344.601933 
L 508.963548 345.03445 
L 512.164098 345.455696 
L 515.283611 345.866245 
L 518.326092 346.266627 
L 521.295253 346.657336 
L 524.194545 347.038829 
L 527.027181 347.411532 
L 529.796156 347.775841 
L 532.50427 348.132127 
L 535.15414 348.480737 
L 537.74822 348.821996 
L 540.288809 349.156207 
L 542.77807 349.483656 
L 545.218035 349.804613 
L 547.610619 350.119331 
L 549.957628 350.428047 
L 552.260764 350.730988 
L 554.521639 351.028365 
L 556.741775 351.320381 
L 558.922615 351.607225 
L 561.065525 351.889077 
L 563.171802 352.16611 
L 565.242678 352.438486 
L 567.279323 352.706358 
L 569.28285 352.969874 
L 571.25432 353.229174 
L 573.194741 353.484391 
L 575.105077 353.735652 
L 576.986247 353.983078 
L 578.839127 354.226784 
L 580.664557 354.466882 
L 582.463336 354.703476 
L 584.236233 354.936669 
L 585.983982 355.166556 
L 587.707286 355.393231 
L 589.406819 355.616781 
L 591.083229 355.837294 
L 592.737136 356.054849 
L 594.369136 356.269527 
L 595.979803 356.481401 
L 597.569685 356.690546 
L 599.139315 356.89703 
L 600.689199 357.10092 
L 602.21983 357.302282 
L 603.73168 357.501177 
L 605.225204 357.697665 
L 606.700841 357.891805 
L 608.159015 358.083652 
L 609.600133 358.273259 
L 611.024591 358.460679 
L 612.432769 358.645962 
L 613.825035 358.829156 
L 615.201744 359.010307 
L 616.563241 359.189462 
L 617.909858 359.366664 
L 619.241916 359.541956 
L 620.559728 359.715377 
L 621.863594 359.886969 
L 623.153807 360.056769 
L 624.43065 360.224814 
L 625.694397 360.391142 
L 626.945313 360.555786 
L 628.183658 360.71878 
L 629.40968 360.880158 
" clip-path="url(#p16e3606656)" style="fill: none; stroke: #ff7f0e; stroke-width: 1.5; stroke-linecap: square"/>
   </g>
   <g id="patch_9">
    <path d="M 60.761214 458.728 
L 60.761214 279.312 
" style="fill: none; stroke: #000000; stroke-width: 0.8; stroke-linejoin: miter; stroke-linecap: square"/>
   </g>
   <g id="patch_10">
    <path d="M 628.183658 458.728 
L 628.183658 279.312 
" style="fill: none; stroke: #000000; stroke-width: 0.8; stroke-linejoin: miter; stroke-linecap: square"/>
   </g>
   <g id="patch_11">
    <path d="M 60.761214 458.728 
L 628.183658 458.728 
" style="fill: none; stroke: #000000; stroke-width: 0.8; stroke-linejoin: miter; stroke-linecap: square"/>
   </g>
   <g id="patch_12">
    <path d="M 60.761214 279.312 
L 628.183658 279.312 
" style="fill: none; stroke: #000000; stroke-width: 0.8; stroke-linejoin: miter; stroke-linecap: square"/>
   </g>
   <g id="text_30">
    <!-- Output FFT peak ≈ 0.100 (arb.), magnitude ≈ 2.445e+02 | band/flat-ish -->
    <g transform="translate(128.073061 273.312) scale(0.12 -0.12)">
     <defs>
      <path id="DejaVuSans-4f" d="M 2522 4238 
Q 1834 4238 1429 3725 
Q 1025 3213 1025 2328 
Q 1025 1447 1429 934 
Q 1834 422 2522 422 
Q 3209 422 3611 934 
Q 4013 1447 4013 2328 
Q 4013 3213 3611 3725 
Q 3209 4238 2522 4238 
z
M 2522 4750 
Q 3503 4750 4090 4092 
Q 4678 3434 4678 2328 
Q 4678 1225 4090 567 
Q 3503 -91 2522 -91 
Q 1538 -91 948 565 
Q 359 1222 359 2328 
Q 359 3434 948 4092 
Q 1538 4750 2522 4750 
z
" transform="scale(0.015625)"/>
      <path id="DejaVuSans-6b" d="M 581 4863 
L 1159 4863 
L 1159 1991 
L 2875 3500 
L 3609 3500 
L 1753 1863 
L 3688 0 
L 2938 0 
L 1159 1709 
L 1159 0 
L 581 0 
L 581 4863 
z
" transform="scale(0.015625)"/>
      <path id="DejaVuSans-2248" d="M 4684 1947 
L 4684 1388 
Q 4356 1144 4076 1036 
Q 3797 928 3494 928 
Q 3150 928 2694 1113 
Q 2663 1125 2641 1134 
Q 2622 1141 2575 1159 
Q 2091 1350 1797 1350 
Q 1522 1350 1253 1231 
Q 984 1113 678 850 
L 678 1409 
Q 1006 1653 1286 1761 
Q 1566 1869 1869 1869 
Q 2213 1869 2672 1684 
Q 2706 1669 2722 1663 
Q 2741 1656 2788 1638 
Q 3272 1447 3566 1447 
Q 3834 1447 4098 1564 
Q 4363 1681 4684 1947 
z
M 4684 3163 
L 4684 2606 
Q 4356 2359 4076 2251 
Q 3797 2144 3494 2144 
Q 3150 2144 2694 2328 
Q 2663 2341 2641 2350 
Q 2622 2356 2575 2375 
Q 2091 2566 1797 2566 
Q 1522 2566 1253 2447 
Q 984 2328 678 2069 
L 678 2625 
Q 1006 2869 1286 2976 
Q 1566 3084 1869 3084 
Q 2213 3084 2672 2900 
Q 2703 2888 2719 2881 
Q 2741 2872 2788 2853 
Q 3272 2663 3566 2663 
Q 3834 2663 4098 2780 
Q 4363 2897 4684 3163 
z
" transform="scale(0.015625)"/>
      <path id="DejaVuSans-67" d="M 2906 1791 
Q 2906 2416 2648 2759 
Q 2391 3103 1925 3103 
Q 1463 3103 1205 2759 
Q 947 2416 947 1791 
Q 947 1169 1205 825 
Q 1463 481 1925 481 
Q 2391 481 2648 825 
Q 2906 1169 2906 1791 
z
M 3481 434 
Q 3481 -459 3084 -895 
Q 2688 -1331 1869 -1331 
Q 1566 -1331 1297 -1286 
Q 1028 -1241 775 -1147 
L 775 -588 
Q 1028 -725 1275 -790 
Q 1522 -856 1778 -856 
Q 2344 -856 2625 -561 
Q 2906 -266 2906 331 
L 2906 616 
Q 2728 306 2450 153 
Q 2172 0 1784 0 
Q 1141 0 747 490 
Q 353 981 353 1791 
Q 353 2603 747 3093 
Q 1141 3584 1784 3584 
Q 2172 3584 2450 3431 
Q 2728 3278 2906 2969 
L 2906 3500 
L 3481 3500 
L 3481 434 
z
" transform="scale(0.015625)"/>
      <path id="DejaVuSans-2b" d="M 2944 4013 
L 2944 2272 
L 4684 2272 
L 4684 1741 
L 2944 1741 
L 2944 0 
L 2419 0 
L 2419 1741 
L 678 1741 
L 678 2272 
L 2419 2272 
L 2419 4013 
L 2944 4013 
z
" transform="scale(0.015625)"/>
      <path id="DejaVuSans-2f" d="M 1625 4666 
L 2156 4666 
L 531 -594 
L 0 -594 
L 1625 4666 
z
" transform="scale(0.015625)"/>
      <path id="DejaVuSans-68" d="M 3513 2113 
L 3513 0 
L 2938 0 
L 2938 2094 
Q 2938 2591 2744 2837 
Q 2550 3084 2163 3084 
Q 1697 3084 1428 2787 
Q 1159 2491 1159 1978 
L 1159 0 
L 581 0 
L 581 4863 
L 1159 4863 
L 1159 2956 
Q 1366 3272 1645 3428 
Q 1925 3584 2291 3584 
Q 2894 3584 3203 3211 
Q 3513 2838 3513 2113 
z
" transform="scale(0.015625)"/>
     </defs>
     <use xlink:href="#DejaVuSans-4f"/>
     <use xlink:href="#DejaVuSans-75" transform="translate(78.710938 0)"/>
     <use xlink:href="#DejaVuSans-74" transform="translate(142.089844 0)"/>
     <use xlink:href="#DejaVuSans-70" transform="translate(181.298828 0)"/>
     <use xlink:href="#DejaVuSans-75" transform="translate(244.775391 0)"/>
     <use xlink:href="#DejaVuSans-74" transform="translate(308.154297 0)"/>
     <use xlink:href="#DejaVuSans-20" transform="translate(347.363281 0)"/>
     <use xlink:href="#DejaVuSans-46" transform="translate(379.150391 0)"/>
     <use xlink:href="#DejaVuSans-46" transform="translate(436.669922 0)"/>
     <use xlink:href="#DejaVuSans-54" transform="translate(492.439453 0)"/>
     <use xlink:href="#DejaVuSans-20" transform="translate(553.523438 0)"/>
     <use xlink:href="#DejaVuSans-70" transform="translate(585.310547 0)"/>
     <use xlink:href="#DejaVuSans-65" transform="translate(648.787109 0)"/>
     <use xlink:href="#DejaVuSans-61" transform="translate(710.310547 0)"/>
     <use xlink:href="#DejaVuSans-6b" transform="translate(771.589844 0)"/>
     <use xlink:href="#DejaVuSans-20" transform="translate(829.5 0)"/>
     <use xlink:href="#DejaVuSans-2248" transform="translate(861.287109 0)"/>
     <use xlink:href="#DejaVuSans-20" transform="translate(945.076172 0)"/>
     <use xlink:href="#DejaVuSans-30" transform="translate(976.863281 0)"/>
     <use xlink:href="#DejaVuSans-2e" transform="translate(1040.486328 0)"/>
     <use xlink:href="#DejaVuSans-31" transform="translate(1072.273438 0)"/>
     <use xlink:href="#DejaVuSans-30" transform="translate(1135.896484 0)"/>
     <use xlink:href="#DejaVuSans-30" transform="translate(1199.519531 0)"/>
     <use xlink:href="#DejaVuSans-20" transform="translate(1263.142578 0)"/>
     <use xlink:href="#DejaVuSans-28" transform="translate(1294.929688 0)"/>
     <use xlink:href="#DejaVuSans-61" transform="translate(1333.943359 0)"/>
     <use xlink:href="#DejaVuSans-72" transform="translate(1395.222656 0)"/>
     <use xlink:href="#DejaVuSans-62" transform="translate(1436.335938 0)"/>
     <use xlink:href="#DejaVuSans-2e" transform="translate(1499.8125 0)"/>
     <use xlink:href="#DejaVuSans-29" transform="translate(1531.599609 0)"/>
     <use xlink:href="#DejaVuSans-2c" transform="translate(1570.613281 0)"/>
     <use xlink:href="#DejaVuSans-20" transform="translate(1602.400391 0)"/>
     <use xlink:href="#DejaVuSans-6d" transform="translate(1634.1875 0)"/>
     <use xlink:href="#DejaVuSans-61" transform="translate(1731.599609 0)"/>
     <use xlink:href="#DejaVuSans-67" transform="translate(1792.878906 0)"/>
     <use xlink:href="#DejaVuSans-6e" transform="translate(1856.355469 0)"/>
     <use xlink:href="#DejaVuSans-69" transform="translate(1919.734375 0)"/>
     <use xlink:href="#DejaVuSans-74" transform="translate(1947.517578 0)"/>
     <use xlink:href="#DejaVuSans-75" transform="translate(1986.726562 0)"/>
     <use xlink:href="#DejaVuSans-64" transform="translate(2050.105469 0)"/>
     <use xlink:href="#DejaVuSans-65" transform="translate(2113.582031 0)"/>
     <use xlink:href="#DejaVuSans-20" transform="translate(2175.105469 0)"/>
     <use xlink:href="#DejaVuSans-2248" transform="translate(2206.892578 0)"/>
     <use xlink:href="#DejaVuSans-20" transform="translate(2290.681641 0)"/>
     <use xlink:href="#DejaVuSans-32" transform="translate(2322.46875 0)"/>
     <use xlink:href="#DejaVuSans-2e" transform="translate(2386.091797 0)"/>
     <use xlink:href="#DejaVuSans-34" transform="translate(2417.878906 0)"/>
     <use xlink:href="#DejaVuSans-34" transform="translate(2481.501953 0)"/>
     <use xlink:href="#DejaVuSans-35" transform="translate(2545.125 0)"/>
     <use xlink:href="#DejaVuSans-65" transform="translate(2608.748047 0)"/>
     <use xlink:href="#DejaVuSans-2b" transform="translate(2670.271484 0)"/>
     <use xlink:href="#DejaVuSans-30" transform="translate(2754.060547 0)"/>
     <use xlink:href="#DejaVuSans-32" transform="translate(2817.683594 0)"/>
     <use xlink:href="#DejaVuSans-20" transform="translate(2881.306641 0)"/>
     <use xlink:href="#DejaVuSans-7c" transform="translate(2913.09375 0)"/>
     <use xlink:href="#DejaVuSans-20" transform="translate(2946.785156 0)"/>
     <use xlink:href="#DejaVuSans-62" transform="translate(2978.572266 0)"/>
     <use xlink:href="#DejaVuSans-61" transform="translate(3042.048828 0)"/>
     <use xlink:href="#DejaVuSans-6e" transform="translate(3103.328125 0)"/>
     <use xlink:href="#DejaVuSans-64" transform="translate(3166.707031 0)"/>
     <use xlink:href="#DejaVuSans-2f" transform="translate(3230.183594 0)"/>
     <use xlink:href="#DejaVuSans-66" transform="translate(3263.875 0)"/>
     <use xlink:href="#DejaVuSans-6c" transform="translate(3299.080078 0)"/>
     <use xlink:href="#DejaVuSans-61" transform="translate(3326.863281 0)"/>
     <use xlink:href="#DejaVuSans-74" transform="translate(3388.142578 0)"/>
     <use xlink:href="#DejaVuSans-2d" transform="translate(3427.351562 0)"/>
     <use xlink:href="#DejaVuSans-69" transform="translate(3463.435547 0)"/>
     <use xlink:href="#DejaVuSans-73" transform="translate(3491.21875 0)"/>
     <use xlink:href="#DejaVuSans-68" transform="translate(3543.318359 0)"/>
    </g>
   </g>
   <g id="legend_2">
    <g id="patch_13">
     <path d="M 535.586783 316.66825 
L 621.183658 316.66825 
Q 623.183658 316.66825 623.183658 314.66825 
L 623.183658 286.312 
Q 623.183658 284.312 621.183658 284.312 
L 535.586783 284.312 
Q 533.586783 284.312 533.586783 286.312 
L 533.586783 314.66825 
Q 533.586783 316.66825 535.586783 316.66825 
z
" style="fill: #ffffff; opacity: 0.8; stroke: #cccccc; stroke-linejoin: miter"/>
    </g>
    <g id="line2d_67">
     <path d="M 537.586783 292.410438 
L 547.586783 292.410438 
L 557.586783 292.410438 
" style="fill: none; stroke: #1f77b4; stroke-opacity: 0.6; stroke-width: 1.5; stroke-linecap: square"/>
    </g>
    <g id="text_31">
     <!-- input FFT -->
     <g transform="translate(565.586783 295.910438) scale(0.1 -0.1)">
      <use xlink:href="#DejaVuSans-69"/>
      <use xlink:href="#DejaVuSans-6e" transform="translate(27.783203 0)"/>
      <use xlink:href="#DejaVuSans-70" transform="translate(91.162109 0)"/>
      <use xlink:href="#DejaVuSans-75" transform="translate(154.638672 0)"/>
      <use xlink:href="#DejaVuSans-74" transform="translate(218.017578 0)"/>
      <use xlink:href="#DejaVuSans-20" transform="translate(257.226562 0)"/>
      <use xlink:href="#DejaVuSans-46" transform="translate(289.013672 0)"/>
      <use xlink:href="#DejaVuSans-46" transform="translate(346.533203 0)"/>
      <use xlink:href="#DejaVuSans-54" transform="translate(402.302734 0)"/>
     </g>
    </g>
    <g id="line2d_68">
     <path d="M 537.586783 307.088562 
L 547.586783 307.088562 
L 557.586783 307.088562 
" style="fill: none; stroke: #ff7f0e; stroke-width: 1.5; stroke-linecap: square"/>
    </g>
    <g id="text_32">
     <!-- output FFT -->
     <g transform="translate(565.586783 310.588562) scale(0.1 -0.1)">
      <use xlink:href="#DejaVuSans-6f"/>
      <use xlink:href="#DejaVuSans-75" transform="translate(61.181641 0)"/>
      <use xlink:href="#DejaVuSans-74" transform="translate(124.560547 0)"/>
      <use xlink:href="#DejaVuSans-70" transform="translate(163.769531 0)"/>
      <use xlink:href="#DejaVuSans-75" transform="translate(227.246094 0)"/>
      <use xlink:href="#DejaVuSans-74" transform="translate(290.625 0)"/>
      <use xlink:href="#DejaVuSans-20" transform="translate(329.833984 0)"/>
      <use xlink:href="#DejaVuSans-46" transform="translate(361.621094 0)"/>
      <use xlink:href="#DejaVuSans-46" transform="translate(419.140625 0)"/>
      <use xlink:href="#DejaVuSans-54" transform="translate(474.910156 0)"/>
     </g>
    </g>
   </g>
  </g>
 </g>
 <defs>
  <clipPath id="p559bfe593a">
   <rect x="60.761214" y="41.856" width="567.422444" height="179.416"/>
  </clipPath>
  <clipPath id="p16e3606656">
   <rect x="60.761214" y="279.312" width="567.422444" height="179.416"/>
  </clipPath>
 </defs>
</svg>
