<?xml version="1.0" encoding="utf-8" standalone="no"?>
<!DOCTYPE svg PUBLIC "-//W3C//DTD SVG 1.1//EN"
  "http://www.w3.org/Graphics/SVG/1.1/DTD/svg11.dtd">
<svg xmlns:xlink="http://www.w3.org/1999/xlink" width="648pt" height="504pt" viewBox="0 0 648 504" xmlns="http://www.w3.org/2000/svg" version="1.1">
 <metadata>
  <rdf:RDF xmlns:dc="http://purl.org/dc/elements/1.1/" xmlns:cc="http://creativecommons.org/ns#" xmlns:rdf="http://www.w3.org/1999/02/22-rdf-syntax-ns#">
   <cc:Work>
    <dc:type rdf:resource="http://purl.org/dc/dcmitype/StillImage"/>
    <dc:date>2026-05-21T04:23:21.651969</dc:date>
    <dc:format>image/svg+xml</dc:format>
    <dc:creator>
     <cc:Agent>
      <dc:title>Matplotlib v3.10.9, https://matplotlib.org/</dc:title>
     </cc:Agent>
    </dc:creator>
   </cc:Work>
  </rdf:RDF>
 </metadata>
 <defs>
  <style type="text/css">*{stroke-linejoin: round; stroke-linecap: butt}</style>
 </defs>
 <g id="figure_1">
  <g id="patch_1">
   <path d="M 0 504 
L 648 504 
L 648 0 
L 0 0 
z
" style="fill: #ffffff"/>
  </g>
  <g id="axes_1">
   <g id="patch_2">
    <path d="M 56.312054 221.272 
L 628.183658 221.272 
L 628.183658 41.856 
L 56.312054 41.856 
z
" style="fill: #ffffff"/>
   </g>
   <g id="matplotlib.axis_1">
    <g id="xtick_1">
     <g id="line2d_1">
      <path d="M 82.306218 221.272 
L 82.306218 41.856 
" clip-path="url(#pc7d6504e22)" style="fill: none; stroke: #b0b0b0; stroke-opacity: 0.25; stroke-width: 0.8; stroke-linecap: square"/>
     </g>
     <g id="line2d_2">
      <defs>
       <path id="me93c79ba3f" d="M 0 0 
L 0 3.5 
" style="stroke: #000000; stroke-width: 0.8"/>
      </defs>
      <g>
       <use xlink:href="#me93c79ba3f" x="82.306218" y="221.272" style="stroke: #000000; stroke-width: 0.8"/>
      </g>
     </g>
     <g id="text_1">
      <!-- 0 -->
      <g transform="translate(79.124968 235.870437) scale(0.1 -0.1)">
       <defs>
        <path id="DejaVuSans-30" d="M 2034 4250 
Q 1547 4250 1301 3770 
Q 1056 3291 1056 2328 
Q 1056 1369 1301 889 
Q 1547 409 2034 409 
Q 2525 409 2770 889 
Q 3016 1369 3016 2328 
Q 3016 3291 2770 3770 
Q 2525 4250 2034 4250 
z
M 2034 4750 
Q 2819 4750 3233 4129 
Q 3647 3509 3647 2328 
Q 3647 1150 3233 529 
Q 2819 -91 2034 -91 
Q 1250 -91 836 529 
Q 422 1150 422 2328 
Q 422 3509 836 4129 
Q 1250 4750 2034 4750 
z
" transform="scale(0.015625)"/>
       </defs>
       <use xlink:href="#DejaVuSans-30"/>
      </g>
     </g>
    </g>
    <g id="xtick_2">
     <g id="line2d_3">
      <path d="M 186.308264 221.272 
L 186.308264 41.856 
" clip-path="url(#pc7d6504e22)" style="fill: none; stroke: #b0b0b0; stroke-opacity: 0.25; stroke-width: 0.8; stroke-linecap: square"/>
     </g>
     <g id="line2d_4">
      <g>
       <use xlink:href="#me93c79ba3f" x="186.308264" y="221.272" style="stroke: #000000; stroke-width: 0.8"/>
      </g>
     </g>
     <g id="text_2">
      <!-- 2 -->
      <g transform="translate(183.127014 235.870437) scale(0.1 -0.1)">
       <defs>
        <path id="DejaVuSans-32" d="M 1228 531 
L 3431 531 
L 3431 0 
L 469 0 
L 469 531 
Q 828 903 1448 1529 
Q 2069 2156 2228 2338 
Q 2531 2678 2651 2914 
Q 2772 3150 2772 3378 
Q 2772 3750 2511 3984 
Q 2250 4219 1831 4219 
Q 1534 4219 1204 4116 
Q 875 4013 500 3803 
L 500 4441 
Q 881 4594 1212 4672 
Q 1544 4750 1819 4750 
Q 2544 4750 2975 4387 
Q 3406 4025 3406 3419 
Q 3406 3131 3298 2873 
Q 3191 2616 2906 2266 
Q 2828 2175 2409 1742 
Q 1991 1309 1228 531 
z
" transform="scale(0.015625)"/>
       </defs>
       <use xlink:href="#DejaVuSans-32"/>
      </g>
     </g>
    </g>
    <g id="xtick_3">
     <g id="line2d_5">
      <path d="M 290.31031 221.272 
L 290.31031 41.856 
" clip-path="url(#pc7d6504e22)" style="fill: none; stroke: #b0b0b0; stroke-opacity: 0.25; stroke-width: 0.8; stroke-linecap: square"/>
     </g>
     <g id="line2d_6">
      <g>
       <use xlink:href="#me93c79ba3f" x="290.31031" y="221.272" style="stroke: #000000; stroke-width: 0.8"/>
      </g>
     </g>
     <g id="text_3">
      <!-- 4 -->
      <g transform="translate(287.12906 235.870437) scale(0.1 -0.1)">
       <defs>
        <path id="DejaVuSans-34" d="M 2419 4116 
L 825 1625 
L 2419 1625 
L 2419 4116 
z
M 2253 4666 
L 3047 4666 
L 3047 1625 
L 3713 1625 
L 3713 1100 
L 3047 1100 
L 3047 0 
L 2419 0 
L 2419 1100 
L 313 1100 
L 313 1709 
L 2253 4666 
z
" transform="scale(0.015625)"/>
       </defs>
       <use xlink:href="#DejaVuSans-34"/>
      </g>
     </g>
    </g>
    <g id="xtick_4">
     <g id="line2d_7">
      <path d="M 394.312357 221.272 
L 394.312357 41.856 
" clip-path="url(#pc7d6504e22)" style="fill: none; stroke: #b0b0b0; stroke-opacity: 0.25; stroke-width: 0.8; stroke-linecap: square"/>
     </g>
     <g id="line2d_8">
      <g>
       <use xlink:href="#me93c79ba3f" x="394.312357" y="221.272" style="stroke: #000000; stroke-width: 0.8"/>
      </g>
     </g>
     <g id="text_4">
      <!-- 6 -->
      <g transform="translate(391.131107 235.870437) scale(0.1 -0.1)">
       <defs>
        <path id="DejaVuSans-36" d="M 2113 2584 
Q 1688 2584 1439 2293 
Q 1191 2003 1191 1497 
Q 1191 994 1439 701 
Q 1688 409 2113 409 
Q 2538 409 2786 701 
Q 3034 994 3034 1497 
Q 3034 2003 2786 2293 
Q 2538 2584 2113 2584 
z
M 3366 4563 
L 3366 3988 
Q 3128 4100 2886 4159 
Q 2644 4219 2406 4219 
Q 1781 4219 1451 3797 
Q 1122 3375 1075 2522 
Q 1259 2794 1537 2939 
Q 1816 3084 2150 3084 
Q 2853 3084 3261 2657 
Q 3669 2231 3669 1497 
Q 3669 778 3244 343 
Q 2819 -91 2113 -91 
Q 1303 -91 875 529 
Q 447 1150 447 2328 
Q 447 3434 972 4092 
Q 1497 4750 2381 4750 
Q 2619 4750 2861 4703 
Q 3103 4656 3366 4563 
z
" transform="scale(0.015625)"/>
       </defs>
       <use xlink:href="#DejaVuSans-36"/>
      </g>
     </g>
    </g>
    <g id="xtick_5">
     <g id="line2d_9">
      <path d="M 498.314403 221.272 
L 498.314403 41.856 
" clip-path="url(#pc7d6504e22)" style="fill: none; stroke: #b0b0b0; stroke-opacity: 0.25; stroke-width: 0.8; stroke-linecap: square"/>
     </g>
     <g id="line2d_10">
      <g>
       <use xlink:href="#me93c79ba3f" x="498.314403" y="221.272" style="stroke: #000000; stroke-width: 0.8"/>
      </g>
     </g>
     <g id="text_5">
      <!-- 8 -->
      <g transform="translate(495.133153 235.870437) scale(0.1 -0.1)">
       <defs>
        <path id="DejaVuSans-38" d="M 2034 2216 
Q 1584 2216 1326 1975 
Q 1069 1734 1069 1313 
Q 1069 891 1326 650 
Q 1584 409 2034 409 
Q 2484 409 2743 651 
Q 3003 894 3003 1313 
Q 3003 1734 2745 1975 
Q 2488 2216 2034 2216 
z
M 1403 2484 
Q 997 2584 770 2862 
Q 544 3141 544 3541 
Q 544 4100 942 4425 
Q 1341 4750 2034 4750 
Q 2731 4750 3128 4425 
Q 3525 4100 3525 3541 
Q 3525 3141 3298 2862 
Q 3072 2584 2669 2484 
Q 3125 2378 3379 2068 
Q 3634 1759 3634 1313 
Q 3634 634 3220 271 
Q 2806 -91 2034 -91 
Q 1263 -91 848 271 
Q 434 634 434 1313 
Q 434 1759 690 2068 
Q 947 2378 1403 2484 
z
M 1172 3481 
Q 1172 3119 1398 2916 
Q 1625 2713 2034 2713 
Q 2441 2713 2670 2916 
Q 2900 3119 2900 3481 
Q 2900 3844 2670 4047 
Q 2441 4250 2034 4250 
Q 1625 4250 1398 4047 
Q 1172 3844 1172 3481 
z
" transform="scale(0.015625)"/>
       </defs>
       <use xlink:href="#DejaVuSans-38"/>
      </g>
     </g>
    </g>
    <g id="xtick_6">
     <g id="line2d_11">
      <path d="M 602.316449 221.272 
L 602.316449 41.856 
" clip-path="url(#pc7d6504e22)" style="fill: none; stroke: #b0b0b0; stroke-opacity: 0.25; stroke-width: 0.8; stroke-linecap: square"/>
     </g>
     <g id="line2d_12">
      <g>
       <use xlink:href="#me93c79ba3f" x="602.316449" y="221.272" style="stroke: #000000; stroke-width: 0.8"/>
      </g>
     </g>
     <g id="text_6">
      <!-- 10 -->
      <g transform="translate(595.953949 235.870437) scale(0.1 -0.1)">
       <defs>
        <path id="DejaVuSans-31" d="M 794 531 
L 1825 531 
L 1825 4091 
L 703 3866 
L 703 4441 
L 1819 4666 
L 2450 4666 
L 2450 531 
L 3481 531 
L 3481 0 
L 794 0 
L 794 531 
z
" transform="scale(0.015625)"/>
       </defs>
       <use xlink:href="#DejaVuSans-31"/>
       <use xlink:href="#DejaVuSans-30" transform="translate(63.623047 0)"/>
      </g>
     </g>
    </g>
    <g id="text_7">
     <!-- t [arb.] -->
     <g transform="translate(324.914262 249.548563) scale(0.1 -0.1)">
      <defs>
       <path id="DejaVuSans-74" d="M 1172 4494 
L 1172 3500 
L 2356 3500 
L 2356 3053 
L 1172 3053 
L 1172 1153 
Q 1172 725 1289 603 
Q 1406 481 1766 481 
L 2356 481 
L 2356 0 
L 1766 0 
Q 1100 0 847 248 
Q 594 497 594 1153 
L 594 3053 
L 172 3053 
L 172 3500 
L 594 3500 
L 594 4494 
L 1172 4494 
z
" transform="scale(0.015625)"/>
       <path id="DejaVuSans-20" transform="scale(0.015625)"/>
       <path id="DejaVuSans-5b" d="M 550 4863 
L 1875 4863 
L 1875 4416 
L 1125 4416 
L 1125 -397 
L 1875 -397 
L 1875 -844 
L 550 -844 
L 550 4863 
z
" transform="scale(0.015625)"/>
       <path id="DejaVuSans-61" d="M 2194 1759 
Q 1497 1759 1228 1600 
Q 959 1441 959 1056 
Q 959 750 1161 570 
Q 1363 391 1709 391 
Q 2188 391 2477 730 
Q 2766 1069 2766 1631 
L 2766 1759 
L 2194 1759 
z
M 3341 1997 
L 3341 0 
L 2766 0 
L 2766 531 
Q 2569 213 2275 61 
Q 1981 -91 1556 -91 
Q 1019 -91 701 211 
Q 384 513 384 1019 
Q 384 1609 779 1909 
Q 1175 2209 1959 2209 
L 2766 2209 
L 2766 2266 
Q 2766 2663 2505 2880 
Q 2244 3097 1772 3097 
Q 1472 3097 1187 3025 
Q 903 2953 641 2809 
L 641 3341 
Q 956 3463 1253 3523 
Q 1550 3584 1831 3584 
Q 2591 3584 2966 3190 
Q 3341 2797 3341 1997 
z
" transform="scale(0.015625)"/>
       <path id="DejaVuSans-72" d="M 2631 2963 
Q 2534 3019 2420 3045 
Q 2306 3072 2169 3072 
Q 1681 3072 1420 2755 
Q 1159 2438 1159 1844 
L 1159 0 
L 581 0 
L 581 3500 
L 1159 3500 
L 1159 2956 
Q 1341 3275 1631 3429 
Q 1922 3584 2338 3584 
Q 2397 3584 2469 3576 
Q 2541 3569 2628 3553 
L 2631 2963 
z
" transform="scale(0.015625)"/>
       <path id="DejaVuSans-62" d="M 3116 1747 
Q 3116 2381 2855 2742 
Q 2594 3103 2138 3103 
Q 1681 3103 1420 2742 
Q 1159 2381 1159 1747 
Q 1159 1113 1420 752 
Q 1681 391 2138 391 
Q 2594 391 2855 752 
Q 3116 1113 3116 1747 
z
M 1159 2969 
Q 1341 3281 1617 3432 
Q 1894 3584 2278 3584 
Q 2916 3584 3314 3078 
Q 3713 2572 3713 1747 
Q 3713 922 3314 415 
Q 2916 -91 2278 -91 
Q 1894 -91 1617 61 
Q 1341 213 1159 525 
L 1159 0 
L 581 0 
L 581 4863 
L 1159 4863 
L 1159 2969 
z
" transform="scale(0.015625)"/>
       <path id="DejaVuSans-2e" d="M 684 794 
L 1344 794 
L 1344 0 
L 684 0 
L 684 794 
z
" transform="scale(0.015625)"/>
       <path id="DejaVuSans-5d" d="M 1947 4863 
L 1947 -844 
L 622 -844 
L 622 -397 
L 1369 -397 
L 1369 4416 
L 622 4416 
L 622 4863 
L 1947 4863 
z
" transform="scale(0.015625)"/>
      </defs>
      <use xlink:href="#DejaVuSans-74"/>
      <use xlink:href="#DejaVuSans-20" transform="translate(39.208984 0)"/>
      <use xlink:href="#DejaVuSans-5b" transform="translate(70.996094 0)"/>
      <use xlink:href="#DejaVuSans-61" transform="translate(110.009766 0)"/>
      <use xlink:href="#DejaVuSans-72" transform="translate(171.289062 0)"/>
      <use xlink:href="#DejaVuSans-62" transform="translate(212.402344 0)"/>
      <use xlink:href="#DejaVuSans-2e" transform="translate(275.878906 0)"/>
      <use xlink:href="#DejaVuSans-5d" transform="translate(307.666016 0)"/>
     </g>
    </g>
   </g>
   <g id="matplotlib.axis_2">
    <g id="ytick_1">
     <g id="line2d_13">
      <path d="M 56.312054 215.228929 
L 628.183658 215.228929 
" clip-path="url(#pc7d6504e22)" style="fill: none; stroke: #b0b0b0; stroke-opacity: 0.25; stroke-width: 0.8; stroke-linecap: square"/>
     </g>
     <g id="line2d_14">
      <defs>
       <path id="md190fa8762" d="M 0 0 
L -3.5 0 
" style="stroke: #000000; stroke-width: 0.8"/>
      </defs>
      <g>
       <use xlink:href="#md190fa8762" x="56.312054" y="215.228929" style="stroke: #000000; stroke-width: 0.8"/>
      </g>
     </g>
     <g id="text_8">
      <!-- −1.0 -->
      <g transform="translate(25.029241 219.028148) scale(0.1 -0.1)">
       <defs>
        <path id="DejaVuSans-2212" d="M 678 2272 
L 4684 2272 
L 4684 1741 
L 678 1741 
L 678 2272 
z
" transform="scale(0.015625)"/>
       </defs>
       <use xlink:href="#DejaVuSans-2212"/>
       <use xlink:href="#DejaVuSans-31" transform="translate(83.789062 0)"/>
       <use xlink:href="#DejaVuSans-2e" transform="translate(147.412109 0)"/>
       <use xlink:href="#DejaVuSans-30" transform="translate(179.199219 0)"/>
      </g>
     </g>
    </g>
    <g id="ytick_2">
     <g id="line2d_15">
      <path d="M 56.312054 173.396469 
L 628.183658 173.396469 
" clip-path="url(#pc7d6504e22)" style="fill: none; stroke: #b0b0b0; stroke-opacity: 0.25; stroke-width: 0.8; stroke-linecap: square"/>
     </g>
     <g id="line2d_16">
      <g>
       <use xlink:href="#md190fa8762" x="56.312054" y="173.396469" style="stroke: #000000; stroke-width: 0.8"/>
      </g>
     </g>
     <g id="text_9">
      <!-- −0.5 -->
      <g transform="translate(25.029241 177.195687) scale(0.1 -0.1)">
       <defs>
        <path id="DejaVuSans-35" d="M 691 4666 
L 3169 4666 
L 3169 4134 
L 1269 4134 
L 1269 2991 
Q 1406 3038 1543 3061 
Q 1681 3084 1819 3084 
Q 2600 3084 3056 2656 
Q 3513 2228 3513 1497 
Q 3513 744 3044 326 
Q 2575 -91 1722 -91 
Q 1428 -91 1123 -41 
Q 819 9 494 109 
L 494 744 
Q 775 591 1075 516 
Q 1375 441 1709 441 
Q 2250 441 2565 725 
Q 2881 1009 2881 1497 
Q 2881 1984 2565 2268 
Q 2250 2553 1709 2553 
Q 1456 2553 1204 2497 
Q 953 2441 691 2322 
L 691 4666 
z
" transform="scale(0.015625)"/>
       </defs>
       <use xlink:href="#DejaVuSans-2212"/>
       <use xlink:href="#DejaVuSans-30" transform="translate(83.789062 0)"/>
       <use xlink:href="#DejaVuSans-2e" transform="translate(147.412109 0)"/>
       <use xlink:href="#DejaVuSans-35" transform="translate(179.199219 0)"/>
      </g>
     </g>
    </g>
    <g id="ytick_3">
     <g id="line2d_17">
      <path d="M 56.312054 131.564008 
L 628.183658 131.564008 
" clip-path="url(#pc7d6504e22)" style="fill: none; stroke: #b0b0b0; stroke-opacity: 0.25; stroke-width: 0.8; stroke-linecap: square"/>
     </g>
     <g id="line2d_18">
      <g>
       <use xlink:href="#md190fa8762" x="56.312054" y="131.564008" style="stroke: #000000; stroke-width: 0.8"/>
      </g>
     </g>
     <g id="text_10">
      <!-- 0.0 -->
      <g transform="translate(33.408929 135.363227) scale(0.1 -0.1)">
       <use xlink:href="#DejaVuSans-30"/>
       <use xlink:href="#DejaVuSans-2e" transform="translate(63.623047 0)"/>
       <use xlink:href="#DejaVuSans-30" transform="translate(95.410156 0)"/>
      </g>
     </g>
    </g>
    <g id="ytick_4">
     <g id="line2d_19">
      <path d="M 56.312054 89.731548 
L 628.183658 89.731548 
" clip-path="url(#pc7d6504e22)" style="fill: none; stroke: #b0b0b0; stroke-opacity: 0.25; stroke-width: 0.8; stroke-linecap: square"/>
     </g>
     <g id="line2d_20">
      <g>
       <use xlink:href="#md190fa8762" x="56.312054" y="89.731548" style="stroke: #000000; stroke-width: 0.8"/>
      </g>
     </g>
     <g id="text_11">
      <!-- 0.5 -->
      <g transform="translate(33.408929 93.530766) scale(0.1 -0.1)">
       <use xlink:href="#DejaVuSans-30"/>
       <use xlink:href="#DejaVuSans-2e" transform="translate(63.623047 0)"/>
       <use xlink:href="#DejaVuSans-35" transform="translate(95.410156 0)"/>
      </g>
     </g>
    </g>
    <g id="ytick_5">
     <g id="line2d_21">
      <path d="M 56.312054 47.899087 
L 628.183658 47.899087 
" clip-path="url(#pc7d6504e22)" style="fill: none; stroke: #b0b0b0; stroke-opacity: 0.25; stroke-width: 0.8; stroke-linecap: square"/>
     </g>
     <g id="line2d_22">
      <g>
       <use xlink:href="#md190fa8762" x="56.312054" y="47.899087" style="stroke: #000000; stroke-width: 0.8"/>
      </g>
     </g>
     <g id="text_12">
      <!-- 1.0 -->
      <g transform="translate(33.408929 51.698306) scale(0.1 -0.1)">
       <use xlink:href="#DejaVuSans-31"/>
       <use xlink:href="#DejaVuSans-2e" transform="translate(63.623047 0)"/>
       <use xlink:href="#DejaVuSans-30" transform="translate(95.410156 0)"/>
      </g>
     </g>
    </g>
    <g id="text_13">
     <!-- [arb.] -->
     <g transform="translate(18.949554 145.348375) rotate(-90) scale(0.1 -0.1)">
      <use xlink:href="#DejaVuSans-5b"/>
      <use xlink:href="#DejaVuSans-61" transform="translate(39.013672 0)"/>
      <use xlink:href="#DejaVuSans-72" transform="translate(100.292969 0)"/>
      <use xlink:href="#DejaVuSans-62" transform="translate(141.40625 0)"/>
      <use xlink:href="#DejaVuSans-2e" transform="translate(204.882812 0)"/>
      <use xlink:href="#DejaVuSans-5d" transform="translate(236.669922 0)"/>
     </g>
    </g>
   </g>
   <g id="line2d_23">
    <path d="M 82.306218 131.564008 
L 85.73402 97.634339 
L 87.511398 82.106566 
L 89.034866 70.711685 
L 90.304422 62.886224 
L 91.320067 57.86408 
L 92.208756 54.443322 
L 92.97049 52.268818 
L 93.605268 51.00642 
L 94.113091 50.362264 
L 94.620913 50.046137 
L 95.00178 50.02513 
L 95.382647 50.189434 
L 95.890469 50.696059 
L 96.398292 51.529366 
L 97.03307 53.025142 
L 97.794804 55.473273 
L 98.683493 59.201265 
L 99.699138 64.554079 
L 100.841739 71.863974 
L 102.238251 82.436986 
L 103.888674 96.834926 
L 106.046919 117.788449 
L 111.379055 170.501164 
L 113.029478 184.372407 
L 114.42599 194.376362 
L 115.568591 201.149221 
L 116.584236 205.980148 
L 117.472925 209.223998 
L 118.234659 211.241474 
L 118.869437 212.370301 
L 119.37726 212.906429 
L 119.885082 213.113959 
L 120.265949 213.05341 
L 120.773771 212.684676 
L 121.281594 211.98824 
L 121.916372 210.661275 
L 122.678106 208.410974 
L 123.566795 204.904977 
L 124.58244 199.79091 
L 125.725041 192.725942 
L 126.994597 183.418123 
L 128.518064 170.546666 
L 130.549354 151.274367 
L 137.151047 86.714732 
L 138.674514 74.616737 
L 139.944071 66.095941 
L 141.086671 59.83271 
L 142.102316 55.491925 
L 142.991005 52.69916 
L 143.625784 51.299729 
L 144.260562 50.406831 
L 144.768384 50.061112 
L 145.149251 50.017864 
L 145.530118 50.159943 
L 146.03794 50.637049 
L 146.545763 51.441075 
L 147.180541 52.900765 
L 147.942275 55.306649 
L 148.830964 58.987292 
L 149.846609 64.289264 
L 150.98921 71.547111 
L 152.258766 81.041657 
L 153.909189 95.248359 
L 156.067435 116.054517 
L 161.780438 172.355384 
L 163.430861 185.974047 
L 164.827373 195.710556 
L 165.969973 202.233938 
L 166.985618 206.82434 
L 167.874308 209.846413 
L 168.636041 211.667564 
L 169.270819 212.629752 
L 169.778642 213.031339 
L 170.159509 213.116595 
L 170.540376 213.01651 
L 171.048198 212.595207 
L 171.556021 211.846564 
L 172.190799 210.455169 
L 172.952533 208.129304 
L 173.841222 204.53843 
L 174.856867 199.332968 
L 175.999467 192.174087 
L 177.269024 182.775215 
L 178.792491 169.816055 
L 180.823781 150.468442 
L 187.298518 87.105128 
L 188.821985 74.951632 
L 190.091542 66.37521 
L 191.234142 60.055854 
L 192.249787 55.661316 
L 193.138477 52.819243 
L 193.90021 51.157014 
L 194.534988 50.32943 
L 195.042811 50.036333 
L 195.423678 50.032629 
L 195.804545 50.214218 
L 196.312367 50.743797 
L 196.82019 51.599865 
L 197.454968 53.123681 
L 198.216701 55.604624 
L 199.105391 59.369368 
L 200.121036 64.761613 
L 201.263636 72.111835 
L 202.660148 82.727186 
L 204.310571 97.163673 
L 206.595773 119.426369 
L 211.673998 169.678754 
L 213.451376 184.648471 
L 214.847888 194.607234 
L 215.990489 201.337813 
L 217.006134 206.127897 
L 217.894823 209.334028 
L 218.656557 211.318073 
L 219.291335 212.418496 
L 219.799157 212.931673 
L 220.30698 213.116151 
L 220.687847 213.038301 
L 221.195669 212.64656 
L 221.703492 211.927271 
L 222.33827 210.572097 
L 223.100004 208.288703 
L 223.988693 204.745522 
L 225.004338 199.591399 
L 226.146939 192.485248 
L 227.416495 183.137469 
L 228.939962 170.227472 
L 230.971252 150.921973 
L 237.572945 86.412032 
L 239.096412 74.357488 
L 240.365968 65.88016 
L 241.508569 59.660735 
L 242.524214 55.361866 
L 243.412903 52.607524 
L 244.047681 51.23626 
L 244.68246 50.37193 
L 245.190282 50.049232 
L 245.571149 50.023287 
L 245.952016 50.182656 
L 246.459838 50.682728 
L 246.967661 51.509536 
L 247.602439 52.997304 
L 248.364173 55.436062 
L 249.252862 59.153551 
L 250.268507 64.495091 
L 251.411108 71.793451 
L 252.807619 82.35434 
L 254.458042 96.741226 
L 256.616288 117.686358 
L 261.948424 170.410112 
L 263.598847 184.293425 
L 264.995359 194.310242 
L 266.13796 201.095143 
L 267.153605 205.93771 
L 268.042294 209.192313 
L 268.804028 211.219323 
L 269.438806 212.356252 
L 269.946628 212.898929 
L 270.454451 213.113037 
L 270.835318 213.057426 
L 271.216185 212.816607 
L 271.724007 212.208423 
L 272.358785 210.99048 
L 272.993563 209.271291 
L 273.755297 206.562114 
L 274.643987 202.542276 
L 275.659632 196.877085 
L 276.802232 189.24874 
L 278.198744 178.342994 
L 279.849167 163.64476 
L 282.261324 139.895956 
L 286.704771 95.806278 
L 288.482149 80.514205 
L 289.878661 70.230817 
L 291.148218 62.497476 
L 292.163862 57.556203 
L 293.052552 54.21033 
L 293.814286 52.102341 
L 294.449064 50.896555 
L 294.956886 50.298205 
L 295.464709 50.028143 
L 295.845576 50.041742 
L 296.226442 50.240614 
L 296.734265 50.793136 
L 297.242087 51.671948 
L 297.876866 53.223774 
L 298.638599 55.737479 
L 299.527289 59.5389 
L 300.542934 64.97047 
L 301.685534 72.360873 
L 303.082046 83.018353 
L 304.732469 97.493102 
L 307.01767 119.785406 
L 311.96894 168.851355 
L 313.746318 183.936653 
L 315.14283 194.011196 
L 316.285431 200.850197 
L 317.301076 205.745089 
L 318.189765 209.048057 
L 318.951499 211.117966 
L 319.586277 212.291364 
L 320.0941 212.863522 
L 320.601922 213.107255 
L 320.982789 213.073883 
L 321.363656 212.855268 
L 321.871478 212.276542 
L 322.506256 211.095021 
L 323.141035 209.411594 
L 323.902768 206.744143 
L 324.791458 202.77087 
L 325.807103 197.155403 
L 326.949703 189.577591 
L 328.346215 178.724393 
L 329.996638 164.073169 
L 332.281839 141.647263 
L 336.979197 95.062618 
L 338.756576 79.869967 
L 340.153088 69.687281 
L 341.422644 62.059954 
L 342.438289 57.21157 
L 343.326979 53.951593 
L 344.088712 51.919817 
L 344.72349 50.778838 
L 345.231313 50.232887 
L 345.739135 50.015489 
L 346.120002 50.068632 
L 346.500869 50.306986 
L 347.008692 50.911901 
L 347.64347 52.125802 
L 348.278248 53.841024 
L 349.039982 56.545573 
L 349.928671 60.560248 
L 350.944316 66.219928 
L 352.086917 73.842675 
L 353.483428 84.742605 
L 355.133851 99.435643 
L 357.546008 123.180538 
L 361.989455 167.27518 
L 363.766834 182.573409 
L 365.163346 192.863049 
L 366.432902 200.602984 
L 367.448547 205.550041 
L 368.337236 208.901265 
L 369.09897 211.014005 
L 369.733748 212.223834 
L 370.241571 212.825454 
L 370.749393 213.098804 
L 371.13026 213.087673 
L 371.511127 212.891268 
L 372.018949 212.342019 
L 372.526772 211.466452 
L 373.16155 209.918621 
L 373.923284 207.409588 
L 374.811973 203.613396 
L 375.827618 198.187431 
L 376.970219 190.802753 
L 378.36673 180.151272 
L 380.017154 165.681965 
L 382.302355 143.393859 
L 387.253624 94.322733 
L 389.031003 79.231077 
L 390.427515 69.150145 
L 391.570115 62.305152 
L 392.58576 57.404461 
L 393.47445 54.096131 
L 394.236183 52.021463 
L 394.870961 50.844019 
L 395.378784 50.268589 
L 395.886606 50.021568 
L 396.267473 50.05247 
L 396.64834 50.268621 
L 397.156163 50.844075 
L 397.790941 52.02155 
L 398.425719 53.701004 
L 399.187453 56.363817 
L 400.076142 60.331912 
L 401.091787 65.941847 
L 402.234388 73.514034 
L 403.630899 84.361377 
L 405.281323 99.007352 
L 407.566524 121.429358 
L 412.263882 168.019074 
L 414.041261 183.217979 
L 415.437772 193.406984 
L 416.707329 201.040953 
L 417.722974 205.895152 
L 418.611663 209.160502 
L 419.373397 211.197044 
L 420.008175 212.342073 
L 420.515997 212.891297 
L 421.02382 213.111984 
L 421.404687 213.06131 
L 421.785554 212.825421 
L 422.293376 212.223776 
L 422.928154 211.013916 
L 423.562932 209.302663 
L 424.324666 206.602743 
L 425.213355 202.593233 
L 426.229 196.939066 
L 427.371601 189.321919 
L 428.768113 178.42781 
L 430.418536 163.739973 
L 432.830693 139.998997 
L 437.27414 95.899408 
L 439.051518 80.59503 
L 440.44803 70.299141 
L 441.717586 62.552617 
L 442.733231 57.599779 
L 443.621921 54.243203 
L 444.383654 52.125713 
L 445.018433 50.911842 
L 445.526255 50.306952 
L 446.034078 50.030316 
L 446.414944 50.038977 
L 446.795811 50.232916 
L 447.303634 50.778892 
L 447.811456 51.651214 
L 448.446234 53.195049 
L 449.207968 55.699409 
L 450.096657 59.490369 
L 451.112302 64.910727 
L 452.254903 72.289677 
L 453.651415 82.935155 
L 455.301838 97.399013 
L 457.587039 119.682912 
L 462.665264 169.907861 
L 464.315687 183.857205 
L 465.712199 193.944521 
L 466.8548 200.795503 
L 467.870445 205.701991 
L 468.759134 209.015683 
L 469.520868 211.095108 
L 470.155646 212.276598 
L 470.663468 212.855299 
L 471.171291 213.105609 
L 471.552158 213.077176 
L 471.933025 212.863491 
L 472.440847 212.291308 
L 473.075625 211.117879 
L 473.710403 209.4424 
L 474.472137 206.784226 
L 475.360826 202.82131 
L 476.376471 197.216909 
L 477.519072 189.65035 
L 478.915584 178.808867 
L 480.566007 164.168147 
L 482.851208 141.75005 
L 487.548566 95.155282 
L 489.325945 79.950129 
L 490.722457 69.754809 
L 491.992013 62.1142 
L 493.007658 57.254189 
L 493.896347 53.983466 
L 494.658081 51.942161 
L 495.292859 50.793082 
L 495.800682 50.240584 
L 496.308504 50.016609 
L 496.689371 50.064813 
L 497.070238 50.298238 
L 497.57806 50.896613 
L 498.212839 52.10243 
L 498.847617 53.809715 
L 499.60935 56.505005 
L 500.49804 60.509348 
L 501.513685 66.157999 
L 502.656285 73.769542 
L 504.052797 84.657827 
L 505.70322 99.340457 
L 508.115377 123.077504 
L 512.558824 167.182021 
L 514.336203 182.492543 
L 515.732715 192.794676 
L 517.002271 200.547787 
L 518.017916 205.506404 
L 518.906605 208.868329 
L 519.668339 210.99057 
L 520.303117 212.208482 
L 520.810939 212.816641 
L 521.318762 213.096565 
L 521.699629 213.090373 
L 522.080496 212.8989 
L 522.588318 212.356198 
L 523.096141 211.487121 
L 523.730919 209.947283 
L 524.492653 207.447597 
L 525.381342 203.661869 
L 526.396987 198.247121 
L 527.539588 190.873901 
L 528.936099 180.234431 
L 530.586522 165.776027 
L 532.871724 143.496344 
L 537.949949 93.265876 
L 539.600372 79.310567 
L 540.996884 69.216871 
L 542.139484 62.359902 
L 543.155129 57.447619 
L 544.043818 54.128567 
L 544.805552 52.044385 
L 545.44033 50.85885 
L 545.948153 50.276877 
L 546.455975 50.02328 
L 546.836842 50.049244 
L 547.217709 50.260463 
L 547.725532 50.829374 
L 548.233354 51.724428 
L 548.868132 53.296251 
L 549.629866 55.833338 
L 550.518555 59.660922 
L 551.5342 65.120527 
L 552.676801 72.539554 
L 554.073313 83.22701 
L 555.723736 97.728925 
L 558.008937 120.042117 
L 562.960206 169.081838 
L 564.737585 184.135207 
L 566.134097 194.177698 
L 567.276697 200.986651 
L 568.292342 205.852474 
L 569.181032 209.128567 
L 569.942766 211.174635 
L 570.577544 212.327764 
L 571.085366 212.883534 
L 571.593189 213.110799 
L 571.974056 213.065063 
L 572.354922 212.834103 
L 572.862745 212.238998 
L 573.497523 211.037224 
L 574.132301 209.333909 
L 574.894035 206.64325 
L 575.782724 202.644075 
L 576.798369 197.000941 
L 577.94097 189.395006 
L 579.337482 178.51255 
L 580.987905 163.835133 
L 583.400062 140.102025 
L 587.843508 95.992596 
L 589.620887 80.675938 
L 591.017399 70.367564 
L 592.286955 62.607869 
L 593.3026 57.643475 
L 594.19129 54.276202 
L 594.953023 52.149213 
L 595.587801 50.927259 
L 596.095624 50.315831 
L 596.603446 50.03262 
L 596.984313 50.036342 
L 597.36518 50.22535 
L 597.873003 50.764777 
L 598.380825 51.630609 
L 599.015603 53.16645 
L 599.777337 55.661461 
L 600.666026 59.441955 
L 601.681671 64.851091 
L 602.189494 67.965655 
L 602.189494 67.965655 
" clip-path="url(#pc7d6504e22)" style="fill: none; stroke: #1f77b4; stroke-width: 1.5; stroke-linecap: square"/>
   </g>
   <g id="line2d_24">
    <path d="M 82.306218 131.564008 
L 83.829685 131.441633 
L 85.353153 131.100001 
L 87.003576 130.500795 
L 88.90791 129.551687 
L 91.066156 128.215663 
L 94.367002 125.874727 
L 98.302626 123.144765 
L 100.460872 121.916461 
L 102.238251 121.140443 
L 103.888674 120.651114 
L 105.412141 120.418972 
L 106.935609 120.409168 
L 108.459076 120.624703 
L 109.982544 121.060365 
L 111.632967 121.76521 
L 113.410345 122.764774 
L 115.568591 124.248884 
L 118.48857 126.555129 
L 123.43984 130.484113 
L 125.598085 131.902875 
L 127.502419 132.888186 
L 129.152843 133.497502 
L 130.67631 133.836687 
L 132.199778 133.950896 
L 133.723245 133.83806 
L 135.246712 133.504314 
L 136.897136 132.91002 
L 138.674514 132.030823 
L 140.83276 130.696236 
L 143.879695 128.505727 
L 148.450097 125.217331 
L 150.608343 123.941287 
L 152.385722 123.1252 
L 154.036145 122.598325 
L 155.559612 122.331479 
L 157.08308 122.287165 
L 158.606547 122.468622 
L 160.130015 122.870879 
L 161.780438 123.54056 
L 163.557816 124.503743 
L 165.716062 125.946145 
L 168.636041 128.200876 
L 173.714266 132.145326 
L 175.872512 133.520585 
L 177.649891 134.411412 
L 179.300314 135.003121 
L 180.823781 135.326846 
L 182.347249 135.426105 
L 183.870716 135.298578 
L 185.394184 134.950151 
L 187.044607 134.339687 
L 188.821985 133.442463 
L 190.980231 132.084719 
L 193.90021 129.954854 
L 198.724524 126.425005 
L 200.88277 125.133387 
L 202.660148 124.307362 
L 204.310571 123.773087 
L 205.834039 123.500525 
L 207.357506 123.451126 
L 208.880974 123.62769 
L 210.404441 124.024805 
L 212.054864 124.688148 
L 213.832243 125.643065 
L 215.990489 127.072693 
L 218.910468 129.304231 
L 223.861737 133.103095 
L 226.019983 134.46398 
L 227.797362 135.344662 
L 229.447785 135.928032 
L 230.971252 136.244729 
L 232.49472 136.337354 
L 234.018187 136.203339 
L 235.541655 135.848322 
L 237.192078 135.230331 
L 238.969456 134.32424 
L 241.127702 132.954265 
L 244.047681 130.804666 
L 248.871995 127.233358 
L 251.030241 125.919929 
L 252.807619 125.074793 
L 254.458042 124.522122 
L 255.98151 124.232269 
L 257.504977 124.165526 
L 259.028445 124.324934 
L 260.551912 124.705326 
L 262.202335 125.351308 
L 263.979714 126.288711 
L 266.13796 127.699119 
L 269.057939 129.908843 
L 274.009208 133.682552 
L 276.167454 135.036785 
L 277.944833 135.913573 
L 279.595256 136.494319 
L 281.118723 136.80919 
L 282.642191 136.900316 
L 284.165658 136.76488 
L 285.689126 136.408273 
L 287.339549 135.788096 
L 289.116928 134.878808 
L 291.275173 133.503364 
L 294.195152 131.342972 
L 299.146422 127.659112 
L 301.304667 126.346232 
L 303.082046 125.504177 
L 304.732469 124.955986 
L 306.255937 124.671208 
L 307.779404 124.610005 
L 309.302872 124.77498 
L 310.826339 125.160527 
L 312.476762 125.811148 
L 314.254141 126.751901 
L 316.412386 128.163363 
L 319.332366 130.368134 
L 324.156679 134.028386 
L 326.314925 135.38072 
L 328.219259 136.310551 
L 329.869683 136.873773 
L 331.39315 137.171722 
L 332.916617 137.245645 
L 334.440085 137.09316 
L 335.963552 136.720094 
L 337.613976 136.083231 
L 339.391354 135.157843 
L 341.5496 133.76617 
L 344.596535 131.492352 
L 349.293893 127.98605 
L 351.452138 126.66121 
L 353.229517 125.80801 
L 354.87994 125.248706 
L 356.403408 124.953263 
L 357.926875 124.881251 
L 359.450343 125.035515 
L 360.97381 125.410697 
L 362.624233 126.050747 
L 364.401612 126.981183 
L 366.559858 128.38201 
L 369.479837 130.576312 
L 374.431106 134.316701 
L 376.589352 135.653829 
L 378.36673 136.515643 
L 380.017154 137.081986 
L 381.540621 137.383326 
L 383.064089 137.460884 
L 384.587556 137.312033 
L 386.111024 136.942353 
L 387.761447 136.308608 
L 389.538825 135.385633 
L 391.697071 133.995169 
L 394.61705 131.817725 
L 399.56832 128.114164 
L 401.726565 126.796049 
L 403.503944 125.950912 
L 405.154367 125.400627 
L 406.677834 125.114377 
L 408.201302 125.051952 
L 409.724769 125.215762 
L 411.248237 125.60001 
L 412.89866 126.248859 
L 414.676039 127.187043 
L 416.834284 128.594149 
L 419.881219 130.889642 
L 424.578577 134.429228 
L 426.736823 135.769286 
L 428.514202 136.634948 
L 430.164625 137.205739 
L 431.688092 137.511687 
L 433.21156 137.594086 
L 434.735027 137.450064 
L 436.258495 137.084955 
L 437.908918 136.455598 
L 439.686296 135.536392 
L 441.844542 134.148763 
L 444.764521 131.971491 
L 449.715791 128.257746 
L 451.874036 126.931403 
L 453.651415 126.078141 
L 455.301838 125.519506 
L 456.825306 125.22511 
L 458.348773 125.154362 
L 459.87224 125.309919 
L 461.395708 125.686228 
L 463.046131 126.327101 
L 464.82351 127.257725 
L 466.981755 128.657486 
L 469.901735 130.847603 
L 474.853004 134.573018 
L 477.01125 135.900775 
L 478.788628 136.753868 
L 480.439051 137.311522 
L 481.962519 137.604532 
L 483.485986 137.673651 
L 485.009454 137.516444 
L 486.532921 137.138681 
L 488.183344 136.496695 
L 489.960723 135.565683 
L 492.118969 134.166937 
L 495.038948 131.981343 
L 499.863262 128.358319 
L 502.021507 127.024675 
L 503.798886 126.164031 
L 505.449309 125.597719 
L 506.972777 125.29578 
L 508.496244 125.217298 
L 510.019712 125.365174 
L 511.543179 125.7341 
L 513.193602 126.367583 
L 514.970981 127.291258 
L 517.129226 128.684395 
L 520.049206 130.869335 
L 525.000475 134.596761 
L 527.158721 135.929305 
L 528.936099 136.787743 
L 530.586522 137.351208 
L 532.10999 137.650057 
L 533.633457 137.725226 
L 535.156925 137.574033 
L 536.680392 137.202003 
L 538.330815 136.565641 
L 540.108194 135.639698 
L 542.26644 134.24533 
L 545.186419 132.061936 
L 550.137688 128.346337 
L 552.295934 127.022278 
L 554.073313 126.172009 
L 555.723736 125.616832 
L 557.247203 125.326013 
L 558.770671 125.25902 
L 560.294138 125.418317 
L 561.817606 125.798161 
L 563.468029 126.442422 
L 565.245408 127.375945 
L 567.403653 128.777866 
L 570.323632 130.968051 
L 575.147946 134.599497 
L 577.306192 135.937215 
L 579.210526 136.853487 
L 580.860949 137.404623 
L 582.384417 137.691279 
L 583.907884 137.753912 
L 585.431352 137.590277 
L 586.954819 137.206334 
L 588.605242 136.558146 
L 590.382621 135.621258 
L 592.540866 134.216812 
L 595.587801 131.927548 
L 600.285159 128.403742 
L 602.189494 127.214692 
L 602.189494 127.214692 
" clip-path="url(#pc7d6504e22)" style="fill: none; stroke: #ff7f0e; stroke-width: 1.5; stroke-linecap: square"/>
   </g>
   <g id="patch_3">
    <path d="M 56.312054 221.272 
L 56.312054 41.856 
" style="fill: none; stroke: #000000; stroke-width: 0.8; stroke-linejoin: miter; stroke-linecap: square"/>
   </g>
   <g id="patch_4">
    <path d="M 628.183658 221.272 
L 628.183658 41.856 
" style="fill: none; stroke: #000000; stroke-width: 0.8; stroke-linejoin: miter; stroke-linecap: square"/>
   </g>
   <g id="patch_5">
    <path d="M 56.312054 221.272 
L 628.183658 221.272 
" style="fill: none; stroke: #000000; stroke-width: 0.8; stroke-linejoin: miter; stroke-linecap: square"/>
   </g>
   <g id="patch_6">
    <path d="M 56.312054 41.856 
L 628.183658 41.856 
" style="fill: none; stroke: #000000; stroke-width: 0.8; stroke-linejoin: miter; stroke-linecap: square"/>
   </g>
   <g id="text_14">
    <!-- Daily Useless RC (2026-05-21) | verdict: feral -->
    <g transform="translate(206.807231 22.021875) scale(0.12 -0.12)">
     <defs>
      <path id="DejaVuSans-44" d="M 1259 4147 
L 1259 519 
L 2022 519 
Q 2988 519 3436 956 
Q 3884 1394 3884 2338 
Q 3884 3275 3436 3711 
Q 2988 4147 2022 4147 
L 1259 4147 
z
M 628 4666 
L 1925 4666 
Q 3281 4666 3915 4102 
Q 4550 3538 4550 2338 
Q 4550 1131 3912 565 
Q 3275 0 1925 0 
L 628 0 
L 628 4666 
z
" transform="scale(0.015625)"/>
      <path id="DejaVuSans-69" d="M 603 3500 
L 1178 3500 
L 1178 0 
L 603 0 
L 603 3500 
z
M 603 4863 
L 1178 4863 
L 1178 4134 
L 603 4134 
L 603 4863 
z
" transform="scale(0.015625)"/>
      <path id="DejaVuSans-6c" d="M 603 4863 
L 1178 4863 
L 1178 0 
L 603 0 
L 603 4863 
z
" transform="scale(0.015625)"/>
      <path id="DejaVuSans-79" d="M 2059 -325 
Q 1816 -950 1584 -1140 
Q 1353 -1331 966 -1331 
L 506 -1331 
L 506 -850 
L 844 -850 
Q 1081 -850 1212 -737 
Q 1344 -625 1503 -206 
L 1606 56 
L 191 3500 
L 800 3500 
L 1894 763 
L 2988 3500 
L 3597 3500 
L 2059 -325 
z
" transform="scale(0.015625)"/>
      <path id="DejaVuSans-55" d="M 556 4666 
L 1191 4666 
L 1191 1831 
Q 1191 1081 1462 751 
Q 1734 422 2344 422 
Q 2950 422 3222 751 
Q 3494 1081 3494 1831 
L 3494 4666 
L 4128 4666 
L 4128 1753 
Q 4128 841 3676 375 
Q 3225 -91 2344 -91 
Q 1459 -91 1007 375 
Q 556 841 556 1753 
L 556 4666 
z
" transform="scale(0.015625)"/>
      <path id="DejaVuSans-73" d="M 2834 3397 
L 2834 2853 
Q 2591 2978 2328 3040 
Q 2066 3103 1784 3103 
Q 1356 3103 1142 2972 
Q 928 2841 928 2578 
Q 928 2378 1081 2264 
Q 1234 2150 1697 2047 
L 1894 2003 
Q 2506 1872 2764 1633 
Q 3022 1394 3022 966 
Q 3022 478 2636 193 
Q 2250 -91 1575 -91 
Q 1294 -91 989 -36 
Q 684 19 347 128 
L 347 722 
Q 666 556 975 473 
Q 1284 391 1588 391 
Q 1994 391 2212 530 
Q 2431 669 2431 922 
Q 2431 1156 2273 1281 
Q 2116 1406 1581 1522 
L 1381 1569 
Q 847 1681 609 1914 
Q 372 2147 372 2553 
Q 372 3047 722 3315 
Q 1072 3584 1716 3584 
Q 2034 3584 2315 3537 
Q 2597 3491 2834 3397 
z
" transform="scale(0.015625)"/>
      <path id="DejaVuSans-65" d="M 3597 1894 
L 3597 1613 
L 953 1613 
Q 991 1019 1311 708 
Q 1631 397 2203 397 
Q 2534 397 2845 478 
Q 3156 559 3463 722 
L 3463 178 
Q 3153 47 2828 -22 
Q 2503 -91 2169 -91 
Q 1331 -91 842 396 
Q 353 884 353 1716 
Q 353 2575 817 3079 
Q 1281 3584 2069 3584 
Q 2775 3584 3186 3129 
Q 3597 2675 3597 1894 
z
M 3022 2063 
Q 3016 2534 2758 2815 
Q 2500 3097 2075 3097 
Q 1594 3097 1305 2825 
Q 1016 2553 972 2059 
L 3022 2063 
z
" transform="scale(0.015625)"/>
      <path id="DejaVuSans-52" d="M 2841 2188 
Q 3044 2119 3236 1894 
Q 3428 1669 3622 1275 
L 4263 0 
L 3584 0 
L 2988 1197 
Q 2756 1666 2539 1819 
Q 2322 1972 1947 1972 
L 1259 1972 
L 1259 0 
L 628 0 
L 628 4666 
L 2053 4666 
Q 2853 4666 3247 4331 
Q 3641 3997 3641 3322 
Q 3641 2881 3436 2590 
Q 3231 2300 2841 2188 
z
M 1259 4147 
L 1259 2491 
L 2053 2491 
Q 2509 2491 2742 2702 
Q 2975 2913 2975 3322 
Q 2975 3731 2742 3939 
Q 2509 4147 2053 4147 
L 1259 4147 
z
" transform="scale(0.015625)"/>
      <path id="DejaVuSans-43" d="M 4122 4306 
L 4122 3641 
Q 3803 3938 3442 4084 
Q 3081 4231 2675 4231 
Q 1875 4231 1450 3742 
Q 1025 3253 1025 2328 
Q 1025 1406 1450 917 
Q 1875 428 2675 428 
Q 3081 428 3442 575 
Q 3803 722 4122 1019 
L 4122 359 
Q 3791 134 3420 21 
Q 3050 -91 2638 -91 
Q 1578 -91 968 557 
Q 359 1206 359 2328 
Q 359 3453 968 4101 
Q 1578 4750 2638 4750 
Q 3056 4750 3426 4639 
Q 3797 4528 4122 4306 
z
" transform="scale(0.015625)"/>
      <path id="DejaVuSans-28" d="M 1984 4856 
Q 1566 4138 1362 3434 
Q 1159 2731 1159 2009 
Q 1159 1288 1364 580 
Q 1569 -128 1984 -844 
L 1484 -844 
Q 1016 -109 783 600 
Q 550 1309 550 2009 
Q 550 2706 781 3412 
Q 1013 4119 1484 4856 
L 1984 4856 
z
" transform="scale(0.015625)"/>
      <path id="DejaVuSans-2d" d="M 313 2009 
L 1997 2009 
L 1997 1497 
L 313 1497 
L 313 2009 
z
" transform="scale(0.015625)"/>
      <path id="DejaVuSans-29" d="M 513 4856 
L 1013 4856 
Q 1481 4119 1714 3412 
Q 1947 2706 1947 2009 
Q 1947 1309 1714 600 
Q 1481 -109 1013 -844 
L 513 -844 
Q 928 -128 1133 580 
Q 1338 1288 1338 2009 
Q 1338 2731 1133 3434 
Q 928 4138 513 4856 
z
" transform="scale(0.015625)"/>
      <path id="DejaVuSans-7c" d="M 1344 4891 
L 1344 -1509 
L 813 -1509 
L 813 4891 
L 1344 4891 
z
" transform="scale(0.015625)"/>
      <path id="DejaVuSans-76" d="M 191 3500 
L 800 3500 
L 1894 563 
L 2988 3500 
L 3597 3500 
L 2284 0 
L 1503 0 
L 191 3500 
z
" transform="scale(0.015625)"/>
      <path id="DejaVuSans-64" d="M 2906 2969 
L 2906 4863 
L 3481 4863 
L 3481 0 
L 2906 0 
L 2906 525 
Q 2725 213 2448 61 
Q 2172 -91 1784 -91 
Q 1150 -91 751 415 
Q 353 922 353 1747 
Q 353 2572 751 3078 
Q 1150 3584 1784 3584 
Q 2172 3584 2448 3432 
Q 2725 3281 2906 2969 
z
M 947 1747 
Q 947 1113 1208 752 
Q 1469 391 1925 391 
Q 2381 391 2643 752 
Q 2906 1113 2906 1747 
Q 2906 2381 2643 2742 
Q 2381 3103 1925 3103 
Q 1469 3103 1208 2742 
Q 947 2381 947 1747 
z
" transform="scale(0.015625)"/>
      <path id="DejaVuSans-63" d="M 3122 3366 
L 3122 2828 
Q 2878 2963 2633 3030 
Q 2388 3097 2138 3097 
Q 1578 3097 1268 2742 
Q 959 2388 959 1747 
Q 959 1106 1268 751 
Q 1578 397 2138 397 
Q 2388 397 2633 464 
Q 2878 531 3122 666 
L 3122 134 
Q 2881 22 2623 -34 
Q 2366 -91 2075 -91 
Q 1284 -91 818 406 
Q 353 903 353 1747 
Q 353 2603 823 3093 
Q 1294 3584 2113 3584 
Q 2378 3584 2631 3529 
Q 2884 3475 3122 3366 
z
" transform="scale(0.015625)"/>
      <path id="DejaVuSans-3a" d="M 750 794 
L 1409 794 
L 1409 0 
L 750 0 
L 750 794 
z
M 750 3309 
L 1409 3309 
L 1409 2516 
L 750 2516 
L 750 3309 
z
" transform="scale(0.015625)"/>
      <path id="DejaVuSans-66" d="M 2375 4863 
L 2375 4384 
L 1825 4384 
Q 1516 4384 1395 4259 
Q 1275 4134 1275 3809 
L 1275 3500 
L 2222 3500 
L 2222 3053 
L 1275 3053 
L 1275 0 
L 697 0 
L 697 3053 
L 147 3053 
L 147 3500 
L 697 3500 
L 697 3744 
Q 697 4328 969 4595 
Q 1241 4863 1831 4863 
L 2375 4863 
z
" transform="scale(0.015625)"/>
     </defs>
     <use xlink:href="#DejaVuSans-44"/>
     <use xlink:href="#DejaVuSans-61" transform="translate(77.001953 0)"/>
     <use xlink:href="#DejaVuSans-69" transform="translate(138.28125 0)"/>
     <use xlink:href="#DejaVuSans-6c" transform="translate(166.064453 0)"/>
     <use xlink:href="#DejaVuSans-79" transform="translate(193.847656 0)"/>
     <use xlink:href="#DejaVuSans-20" transform="translate(253.027344 0)"/>
     <use xlink:href="#DejaVuSans-55" transform="translate(284.814453 0)"/>
     <use xlink:href="#DejaVuSans-73" transform="translate(358.007812 0)"/>
     <use xlink:href="#DejaVuSans-65" transform="translate(410.107422 0)"/>
     <use xlink:href="#DejaVuSans-6c" transform="translate(471.630859 0)"/>
     <use xlink:href="#DejaVuSans-65" transform="translate(499.414062 0)"/>
     <use xlink:href="#DejaVuSans-73" transform="translate(560.9375 0)"/>
     <use xlink:href="#DejaVuSans-73" transform="translate(613.037109 0)"/>
     <use xlink:href="#DejaVuSans-20" transform="translate(665.136719 0)"/>
     <use xlink:href="#DejaVuSans-52" transform="translate(696.923828 0)"/>
     <use xlink:href="#DejaVuSans-43" transform="translate(761.40625 0)"/>
     <use xlink:href="#DejaVuSans-20" transform="translate(831.230469 0)"/>
     <use xlink:href="#DejaVuSans-28" transform="translate(863.017578 0)"/>
     <use xlink:href="#DejaVuSans-32" transform="translate(902.03125 0)"/>
     <use xlink:href="#DejaVuSans-30" transform="translate(965.654297 0)"/>
     <use xlink:href="#DejaVuSans-32" transform="translate(1029.277344 0)"/>
     <use xlink:href="#DejaVuSans-36" transform="translate(1092.900391 0)"/>
     <use xlink:href="#DejaVuSans-2d" transform="translate(1156.523438 0)"/>
     <use xlink:href="#DejaVuSans-30" transform="translate(1192.607422 0)"/>
     <use xlink:href="#DejaVuSans-35" transform="translate(1256.230469 0)"/>
     <use xlink:href="#DejaVuSans-2d" transform="translate(1319.853516 0)"/>
     <use xlink:href="#DejaVuSans-32" transform="translate(1355.9375 0)"/>
     <use xlink:href="#DejaVuSans-31" transform="translate(1419.560547 0)"/>
     <use xlink:href="#DejaVuSans-29" transform="translate(1483.183594 0)"/>
     <use xlink:href="#DejaVuSans-20" transform="translate(1522.197266 0)"/>
     <use xlink:href="#DejaVuSans-7c" transform="translate(1553.984375 0)"/>
     <use xlink:href="#DejaVuSans-20" transform="translate(1587.675781 0)"/>
     <use xlink:href="#DejaVuSans-76" transform="translate(1619.462891 0)"/>
     <use xlink:href="#DejaVuSans-65" transform="translate(1678.642578 0)"/>
     <use xlink:href="#DejaVuSans-72" transform="translate(1740.166016 0)"/>
     <use xlink:href="#DejaVuSans-64" transform="translate(1779.529297 0)"/>
     <use xlink:href="#DejaVuSans-69" transform="translate(1843.005859 0)"/>
     <use xlink:href="#DejaVuSans-63" transform="translate(1870.789062 0)"/>
     <use xlink:href="#DejaVuSans-74" transform="translate(1925.769531 0)"/>
     <use xlink:href="#DejaVuSans-3a" transform="translate(1964.978516 0)"/>
     <use xlink:href="#DejaVuSans-20" transform="translate(1998.669922 0)"/>
     <use xlink:href="#DejaVuSans-66" transform="translate(2030.457031 0)"/>
     <use xlink:href="#DejaVuSans-65" transform="translate(2065.662109 0)"/>
     <use xlink:href="#DejaVuSans-72" transform="translate(2127.185547 0)"/>
     <use xlink:href="#DejaVuSans-61" transform="translate(2168.298828 0)"/>
     <use xlink:href="#DejaVuSans-6c" transform="translate(2229.578125 0)"/>
    </g>
    <!-- Filter: low | Input: sine, sine (A=0.97, f=1.04 Hz) | R=2.00, C=1.00, τ=2.00 -->
    <g transform="translate(116.075981 35.856) scale(0.12 -0.12)">
     <defs>
      <path id="DejaVuSans-46" d="M 628 4666 
L 3309 4666 
L 3309 4134 
L 1259 4134 
L 1259 2759 
L 3109 2759 
L 3109 2228 
L 1259 2228 
L 1259 0 
L 628 0 
L 628 4666 
z
" transform="scale(0.015625)"/>
      <path id="DejaVuSans-6f" d="M 1959 3097 
Q 1497 3097 1228 2736 
Q 959 2375 959 1747 
Q 959 1119 1226 758 
Q 1494 397 1959 397 
Q 2419 397 2687 759 
Q 2956 1122 2956 1747 
Q 2956 2369 2687 2733 
Q 2419 3097 1959 3097 
z
M 1959 3584 
Q 2709 3584 3137 3096 
Q 3566 2609 3566 1747 
Q 3566 888 3137 398 
Q 2709 -91 1959 -91 
Q 1206 -91 779 398 
Q 353 888 353 1747 
Q 353 2609 779 3096 
Q 1206 3584 1959 3584 
z
" transform="scale(0.015625)"/>
      <path id="DejaVuSans-77" d="M 269 3500 
L 844 3500 
L 1563 769 
L 2278 3500 
L 2956 3500 
L 3675 769 
L 4391 3500 
L 4966 3500 
L 4050 0 
L 3372 0 
L 2619 2869 
L 1863 0 
L 1184 0 
L 269 3500 
z
" transform="scale(0.015625)"/>
      <path id="DejaVuSans-49" d="M 628 4666 
L 1259 4666 
L 1259 0 
L 628 0 
L 628 4666 
z
" transform="scale(0.015625)"/>
      <path id="DejaVuSans-6e" d="M 3513 2113 
L 3513 0 
L 2938 0 
L 2938 2094 
Q 2938 2591 2744 2837 
Q 2550 3084 2163 3084 
Q 1697 3084 1428 2787 
Q 1159 2491 1159 1978 
L 1159 0 
L 581 0 
L 581 3500 
L 1159 3500 
L 1159 2956 
Q 1366 3272 1645 3428 
Q 1925 3584 2291 3584 
Q 2894 3584 3203 3211 
Q 3513 2838 3513 2113 
z
" transform="scale(0.015625)"/>
      <path id="DejaVuSans-70" d="M 1159 525 
L 1159 -1331 
L 581 -1331 
L 581 3500 
L 1159 3500 
L 1159 2969 
Q 1341 3281 1617 3432 
Q 1894 3584 2278 3584 
Q 2916 3584 3314 3078 
Q 3713 2572 3713 1747 
Q 3713 922 3314 415 
Q 2916 -91 2278 -91 
Q 1894 -91 1617 61 
Q 1341 213 1159 525 
z
M 3116 1747 
Q 3116 2381 2855 2742 
Q 2594 3103 2138 3103 
Q 1681 3103 1420 2742 
Q 1159 2381 1159 1747 
Q 1159 1113 1420 752 
Q 1681 391 2138 391 
Q 2594 391 2855 752 
Q 3116 1113 3116 1747 
z
" transform="scale(0.015625)"/>
      <path id="DejaVuSans-75" d="M 544 1381 
L 544 3500 
L 1119 3500 
L 1119 1403 
Q 1119 906 1312 657 
Q 1506 409 1894 409 
Q 2359 409 2629 706 
Q 2900 1003 2900 1516 
L 2900 3500 
L 3475 3500 
L 3475 0 
L 2900 0 
L 2900 538 
Q 2691 219 2414 64 
Q 2138 -91 1772 -91 
Q 1169 -91 856 284 
Q 544 659 544 1381 
z
M 1991 3584 
L 1991 3584 
z
" transform="scale(0.015625)"/>
      <path id="DejaVuSans-2c" d="M 750 794 
L 1409 794 
L 1409 256 
L 897 -744 
L 494 -744 
L 750 256 
L 750 794 
z
" transform="scale(0.015625)"/>
      <path id="DejaVuSans-41" d="M 2188 4044 
L 1331 1722 
L 3047 1722 
L 2188 4044 
z
M 1831 4666 
L 2547 4666 
L 4325 0 
L 3669 0 
L 3244 1197 
L 1141 1197 
L 716 0 
L 50 0 
L 1831 4666 
z
" transform="scale(0.015625)"/>
      <path id="DejaVuSans-3d" d="M 678 2906 
L 4684 2906 
L 4684 2381 
L 678 2381 
L 678 2906 
z
M 678 1631 
L 4684 1631 
L 4684 1100 
L 678 1100 
L 678 1631 
z
" transform="scale(0.015625)"/>
      <path id="DejaVuSans-39" d="M 703 97 
L 703 672 
Q 941 559 1184 500 
Q 1428 441 1663 441 
Q 2288 441 2617 861 
Q 2947 1281 2994 2138 
Q 2813 1869 2534 1725 
Q 2256 1581 1919 1581 
Q 1219 1581 811 2004 
Q 403 2428 403 3163 
Q 403 3881 828 4315 
Q 1253 4750 1959 4750 
Q 2769 4750 3195 4129 
Q 3622 3509 3622 2328 
Q 3622 1225 3098 567 
Q 2575 -91 1691 -91 
Q 1453 -91 1209 -44 
Q 966 3 703 97 
z
M 1959 2075 
Q 2384 2075 2632 2365 
Q 2881 2656 2881 3163 
Q 2881 3666 2632 3958 
Q 2384 4250 1959 4250 
Q 1534 4250 1286 3958 
Q 1038 3666 1038 3163 
Q 1038 2656 1286 2365 
Q 1534 2075 1959 2075 
z
" transform="scale(0.015625)"/>
      <path id="DejaVuSans-37" d="M 525 4666 
L 3525 4666 
L 3525 4397 
L 1831 0 
L 1172 0 
L 2766 4134 
L 525 4134 
L 525 4666 
z
" transform="scale(0.015625)"/>
      <path id="DejaVuSans-48" d="M 628 4666 
L 1259 4666 
L 1259 2753 
L 3553 2753 
L 3553 4666 
L 4184 4666 
L 4184 0 
L 3553 0 
L 3553 2222 
L 1259 2222 
L 1259 0 
L 628 0 
L 628 4666 
z
" transform="scale(0.015625)"/>
      <path id="DejaVuSans-7a" d="M 353 3500 
L 3084 3500 
L 3084 2975 
L 922 459 
L 3084 459 
L 3084 0 
L 275 0 
L 275 525 
L 2438 3041 
L 353 3041 
L 353 3500 
z
" transform="scale(0.015625)"/>
      <path id="DejaVuSans-3c4" d="M 2319 638 
Q 2431 488 2769 488 
L 3047 488 
L 3047 0 
L 2700 0 
Q 2138 0 1881 300 
Q 1625 606 1625 1269 
L 1625 2925 
L 313 2925 
L 313 3500 
L 3541 3500 
L 3541 2925 
L 2213 2925 
L 2213 1234 
Q 2213 781 2319 638 
z
" transform="scale(0.015625)"/>
     </defs>
     <use xlink:href="#DejaVuSans-46"/>
     <use xlink:href="#DejaVuSans-69" transform="translate(50.269531 0)"/>
     <use xlink:href="#DejaVuSans-6c" transform="translate(78.052734 0)"/>
     <use xlink:href="#DejaVuSans-74" transform="translate(105.835938 0)"/>
     <use xlink:href="#DejaVuSans-65" transform="translate(145.044922 0)"/>
     <use xlink:href="#DejaVuSans-72" transform="translate(206.568359 0)"/>
     <use xlink:href="#DejaVuSans-3a" transform="translate(245.931641 0)"/>
     <use xlink:href="#DejaVuSans-20" transform="translate(279.623047 0)"/>
     <use xlink:href="#DejaVuSans-6c" transform="translate(311.410156 0)"/>
     <use xlink:href="#DejaVuSans-6f" transform="translate(339.193359 0)"/>
     <use xlink:href="#DejaVuSans-77" transform="translate(400.375 0)"/>
     <use xlink:href="#DejaVuSans-20" transform="translate(482.162109 0)"/>
     <use xlink:href="#DejaVuSans-7c" transform="translate(513.949219 0)"/>
     <use xlink:href="#DejaVuSans-20" transform="translate(547.640625 0)"/>
     <use xlink:href="#DejaVuSans-49" transform="translate(579.427734 0)"/>
     <use xlink:href="#DejaVuSans-6e" transform="translate(608.919922 0)"/>
     <use xlink:href="#DejaVuSans-70" transform="translate(672.298828 0)"/>
     <use xlink:href="#DejaVuSans-75" transform="translate(735.775391 0)"/>
     <use xlink:href="#DejaVuSans-74" transform="translate(799.154297 0)"/>
     <use xlink:href="#DejaVuSans-3a" transform="translate(838.363281 0)"/>
     <use xlink:href="#DejaVuSans-20" transform="translate(872.054688 0)"/>
     <use xlink:href="#DejaVuSans-73" transform="translate(903.841797 0)"/>
     <use xlink:href="#DejaVuSans-69" transform="translate(955.941406 0)"/>
     <use xlink:href="#DejaVuSans-6e" transform="translate(983.724609 0)"/>
     <use xlink:href="#DejaVuSans-65" transform="translate(1047.103516 0)"/>
     <use xlink:href="#DejaVuSans-2c" transform="translate(1108.626953 0)"/>
     <use xlink:href="#DejaVuSans-20" transform="translate(1140.414062 0)"/>
     <use xlink:href="#DejaVuSans-73" transform="translate(1172.201172 0)"/>
     <use xlink:href="#DejaVuSans-69" transform="translate(1224.300781 0)"/>
     <use xlink:href="#DejaVuSans-6e" transform="translate(1252.083984 0)"/>
     <use xlink:href="#DejaVuSans-65" transform="translate(1315.462891 0)"/>
     <use xlink:href="#DejaVuSans-20" transform="translate(1376.986328 0)"/>
     <use xlink:href="#DejaVuSans-28" transform="translate(1408.773438 0)"/>
     <use xlink:href="#DejaVuSans-41" transform="translate(1447.787109 0)"/>
     <use xlink:href="#DejaVuSans-3d" transform="translate(1516.195312 0)"/>
     <use xlink:href="#DejaVuSans-30" transform="translate(1599.984375 0)"/>
     <use xlink:href="#DejaVuSans-2e" transform="translate(1663.607422 0)"/>
     <use xlink:href="#DejaVuSans-39" transform="translate(1695.394531 0)"/>
     <use xlink:href="#DejaVuSans-37" transform="translate(1759.017578 0)"/>
     <use xlink:href="#DejaVuSans-2c" transform="translate(1822.640625 0)"/>
     <use xlink:href="#DejaVuSans-20" transform="translate(1854.427734 0)"/>
     <use xlink:href="#DejaVuSans-66" transform="translate(1886.214844 0)"/>
     <use xlink:href="#DejaVuSans-3d" transform="translate(1921.419922 0)"/>
     <use xlink:href="#DejaVuSans-31" transform="translate(2005.208984 0)"/>
     <use xlink:href="#DejaVuSans-2e" transform="translate(2068.832031 0)"/>
     <use xlink:href="#DejaVuSans-30" transform="translate(2100.619141 0)"/>
     <use xlink:href="#DejaVuSans-34" transform="translate(2164.242188 0)"/>
     <use xlink:href="#DejaVuSans-20" transform="translate(2227.865234 0)"/>
     <use xlink:href="#DejaVuSans-48" transform="translate(2259.652344 0)"/>
     <use xlink:href="#DejaVuSans-7a" transform="translate(2334.847656 0)"/>
     <use xlink:href="#DejaVuSans-29" transform="translate(2387.337891 0)"/>
     <use xlink:href="#DejaVuSans-20" transform="translate(2426.351562 0)"/>
     <use xlink:href="#DejaVuSans-7c" transform="translate(2458.138672 0)"/>
     <use xlink:href="#DejaVuSans-20" transform="translate(2491.830078 0)"/>
     <use xlink:href="#DejaVuSans-52" transform="translate(2523.617188 0)"/>
     <use xlink:href="#DejaVuSans-3d" transform="translate(2593.099609 0)"/>
     <use xlink:href="#DejaVuSans-32" transform="translate(2676.888672 0)"/>
     <use xlink:href="#DejaVuSans-2e" transform="translate(2740.511719 0)"/>
     <use xlink:href="#DejaVuSans-30" transform="translate(2772.298828 0)"/>
     <use xlink:href="#DejaVuSans-30" transform="translate(2835.921875 0)"/>
     <use xlink:href="#DejaVuSans-2c" transform="translate(2899.544922 0)"/>
     <use xlink:href="#DejaVuSans-20" transform="translate(2931.332031 0)"/>
     <use xlink:href="#DejaVuSans-43" transform="translate(2963.119141 0)"/>
     <use xlink:href="#DejaVuSans-3d" transform="translate(3032.943359 0)"/>
     <use xlink:href="#DejaVuSans-31" transform="translate(3116.732422 0)"/>
     <use xlink:href="#DejaVuSans-2e" transform="translate(3180.355469 0)"/>
     <use xlink:href="#DejaVuSans-30" transform="translate(3212.142578 0)"/>
     <use xlink:href="#DejaVuSans-30" transform="translate(3275.765625 0)"/>
     <use xlink:href="#DejaVuSans-2c" transform="translate(3339.388672 0)"/>
     <use xlink:href="#DejaVuSans-20" transform="translate(3371.175781 0)"/>
     <use xlink:href="#DejaVuSans-3c4" transform="translate(3402.962891 0)"/>
     <use xlink:href="#DejaVuSans-3d" transform="translate(3463.167969 0)"/>
     <use xlink:href="#DejaVuSans-32" transform="translate(3546.957031 0)"/>
     <use xlink:href="#DejaVuSans-2e" transform="translate(3610.580078 0)"/>
     <use xlink:href="#DejaVuSans-30" transform="translate(3642.367188 0)"/>
     <use xlink:href="#DejaVuSans-30" transform="translate(3705.990234 0)"/>
    </g>
   </g>
   <g id="legend_1">
    <g id="patch_7">
     <path d="M 556.200845 79.21225 
L 621.183658 79.21225 
Q 623.183658 79.21225 623.183658 77.21225 
L 623.183658 48.856 
Q 623.183658 46.856 621.183658 46.856 
L 556.200845 46.856 
Q 554.200845 46.856 554.200845 48.856 
L 554.200845 77.21225 
Q 554.200845 79.21225 556.200845 79.21225 
z
" style="fill: #ffffff; opacity: 0.8; stroke: #cccccc; stroke-linejoin: miter"/>
    </g>
    <g id="line2d_25">
     <path d="M 558.200845 54.954437 
L 568.200845 54.954437 
L 578.200845 54.954437 
" style="fill: none; stroke: #1f77b4; stroke-width: 1.5; stroke-linecap: square"/>
    </g>
    <g id="text_15">
     <!-- input -->
     <g transform="translate(586.200845 58.454437) scale(0.1 -0.1)">
      <use xlink:href="#DejaVuSans-69"/>
      <use xlink:href="#DejaVuSans-6e" transform="translate(27.783203 0)"/>
      <use xlink:href="#DejaVuSans-70" transform="translate(91.162109 0)"/>
      <use xlink:href="#DejaVuSans-75" transform="translate(154.638672 0)"/>
      <use xlink:href="#DejaVuSans-74" transform="translate(218.017578 0)"/>
     </g>
    </g>
    <g id="line2d_26">
     <path d="M 558.200845 69.632562 
L 568.200845 69.632562 
L 578.200845 69.632562 
" style="fill: none; stroke: #ff7f0e; stroke-width: 1.5; stroke-linecap: square"/>
    </g>
    <g id="text_16">
     <!-- output -->
     <g transform="translate(586.200845 73.132562) scale(0.1 -0.1)">
      <use xlink:href="#DejaVuSans-6f"/>
      <use xlink:href="#DejaVuSans-75" transform="translate(61.181641 0)"/>
      <use xlink:href="#DejaVuSans-74" transform="translate(124.560547 0)"/>
      <use xlink:href="#DejaVuSans-70" transform="translate(163.769531 0)"/>
      <use xlink:href="#DejaVuSans-75" transform="translate(227.246094 0)"/>
      <use xlink:href="#DejaVuSans-74" transform="translate(290.625 0)"/>
     </g>
    </g>
   </g>
  </g>
  <g id="axes_2">
   <g id="patch_8">
    <path d="M 56.312054 458.728 
L 628.183658 458.728 
L 628.183658 279.312 
L 56.312054 279.312 
z
" style="fill: #ffffff"/>
   </g>
   <g id="matplotlib.axis_3">
    <g id="xtick_7">
     <g id="line2d_27">
      <path d="M 56.312054 458.728 
L 56.312054 279.312 
" clip-path="url(#pffabca4332)" style="fill: none; stroke: #b0b0b0; stroke-opacity: 0.25; stroke-width: 0.8; stroke-linecap: square"/>
     </g>
     <g id="line2d_28">
      <g>
       <use xlink:href="#me93c79ba3f" x="56.312054" y="458.728" style="stroke: #000000; stroke-width: 0.8"/>
      </g>
     </g>
     <g id="text_17">
      <!-- $\mathdefault{10^{-1}}$ -->
      <g transform="translate(44.562054 473.326438) scale(0.1 -0.1)">
       <use xlink:href="#DejaVuSans-31" transform="translate(0 0.684375)"/>
       <use xlink:href="#DejaVuSans-30" transform="translate(63.623047 0.684375)"/>
       <use xlink:href="#DejaVuSans-2212" transform="translate(128.203125 38.965625) scale(0.7)"/>
       <use xlink:href="#DejaVuSans-31" transform="translate(186.855469 38.965625) scale(0.7)"/>
      </g>
     </g>
    </g>
    <g id="xtick_8">
     <g id="line2d_29">
      <path d="M 342.247856 458.728 
L 342.247856 279.312 
" clip-path="url(#pffabca4332)" style="fill: none; stroke: #b0b0b0; stroke-opacity: 0.25; stroke-width: 0.8; stroke-linecap: square"/>
     </g>
     <g id="line2d_30">
      <g>
       <use xlink:href="#me93c79ba3f" x="342.247856" y="458.728" style="stroke: #000000; stroke-width: 0.8"/>
      </g>
     </g>
     <g id="text_18">
      <!-- $\mathdefault{10^{0}}$ -->
      <g transform="translate(333.447856 473.326438) scale(0.1 -0.1)">
       <use xlink:href="#DejaVuSans-31" transform="translate(0 0.765625)"/>
       <use xlink:href="#DejaVuSans-30" transform="translate(63.623047 0.765625)"/>
       <use xlink:href="#DejaVuSans-30" transform="translate(128.203125 39.046875) scale(0.7)"/>
      </g>
     </g>
    </g>
    <g id="xtick_9">
     <g id="line2d_31">
      <path d="M 628.183658 458.728 
L 628.183658 279.312 
" clip-path="url(#pffabca4332)" style="fill: none; stroke: #b0b0b0; stroke-opacity: 0.25; stroke-width: 0.8; stroke-linecap: square"/>
     </g>
     <g id="line2d_32">
      <g>
       <use xlink:href="#me93c79ba3f" x="628.183658" y="458.728" style="stroke: #000000; stroke-width: 0.8"/>
      </g>
     </g>
     <g id="text_19">
      <!-- $\mathdefault{10^{1}}$ -->
      <g transform="translate(619.383658 473.326438) scale(0.1 -0.1)">
       <use xlink:href="#DejaVuSans-31" transform="translate(0 0.684375)"/>
       <use xlink:href="#DejaVuSans-30" transform="translate(63.623047 0.684375)"/>
       <use xlink:href="#DejaVuSans-31" transform="translate(128.203125 38.965625) scale(0.7)"/>
      </g>
     </g>
    </g>
    <g id="xtick_10">
     <g id="line2d_33">
      <defs>
       <path id="m9f9092c3f8" d="M 0 0 
L 0 2 
" style="stroke: #000000; stroke-width: 0.6"/>
      </defs>
      <g>
       <use xlink:href="#m9f9092c3f8" x="142.387307" y="458.728" style="stroke: #000000; stroke-width: 0.6"/>
      </g>
     </g>
    </g>
    <g id="xtick_11">
     <g id="line2d_34">
      <g>
       <use xlink:href="#m9f9092c3f8" x="192.738102" y="458.728" style="stroke: #000000; stroke-width: 0.6"/>
      </g>
     </g>
    </g>
    <g id="xtick_12">
     <g id="line2d_35">
      <g>
       <use xlink:href="#m9f9092c3f8" x="228.46256" y="458.728" style="stroke: #000000; stroke-width: 0.6"/>
      </g>
     </g>
    </g>
    <g id="xtick_13">
     <g id="line2d_36">
      <g>
       <use xlink:href="#m9f9092c3f8" x="256.172603" y="458.728" style="stroke: #000000; stroke-width: 0.6"/>
      </g>
     </g>
    </g>
    <g id="xtick_14">
     <g id="line2d_37">
      <g>
       <use xlink:href="#m9f9092c3f8" x="278.813356" y="458.728" style="stroke: #000000; stroke-width: 0.6"/>
      </g>
     </g>
    </g>
    <g id="xtick_15">
     <g id="line2d_38">
      <g>
       <use xlink:href="#m9f9092c3f8" x="297.95584" y="458.728" style="stroke: #000000; stroke-width: 0.6"/>
      </g>
     </g>
    </g>
    <g id="xtick_16">
     <g id="line2d_39">
      <g>
       <use xlink:href="#m9f9092c3f8" x="314.537813" y="458.728" style="stroke: #000000; stroke-width: 0.6"/>
      </g>
     </g>
    </g>
    <g id="xtick_17">
     <g id="line2d_40">
      <g>
       <use xlink:href="#m9f9092c3f8" x="329.164151" y="458.728" style="stroke: #000000; stroke-width: 0.6"/>
      </g>
     </g>
    </g>
    <g id="xtick_18">
     <g id="line2d_41">
      <g>
       <use xlink:href="#m9f9092c3f8" x="428.323109" y="458.728" style="stroke: #000000; stroke-width: 0.6"/>
      </g>
     </g>
    </g>
    <g id="xtick_19">
     <g id="line2d_42">
      <g>
       <use xlink:href="#m9f9092c3f8" x="478.673904" y="458.728" style="stroke: #000000; stroke-width: 0.6"/>
      </g>
     </g>
    </g>
    <g id="xtick_20">
     <g id="line2d_43">
      <g>
       <use xlink:href="#m9f9092c3f8" x="514.398362" y="458.728" style="stroke: #000000; stroke-width: 0.6"/>
      </g>
     </g>
    </g>
    <g id="xtick_21">
     <g id="line2d_44">
      <g>
       <use xlink:href="#m9f9092c3f8" x="542.108404" y="458.728" style="stroke: #000000; stroke-width: 0.6"/>
      </g>
     </g>
    </g>
    <g id="xtick_22">
     <g id="line2d_45">
      <g>
       <use xlink:href="#m9f9092c3f8" x="564.749158" y="458.728" style="stroke: #000000; stroke-width: 0.6"/>
      </g>
     </g>
    </g>
    <g id="xtick_23">
     <g id="line2d_46">
      <g>
       <use xlink:href="#m9f9092c3f8" x="583.891641" y="458.728" style="stroke: #000000; stroke-width: 0.6"/>
      </g>
     </g>
    </g>
    <g id="xtick_24">
     <g id="line2d_47">
      <g>
       <use xlink:href="#m9f9092c3f8" x="600.473615" y="458.728" style="stroke: #000000; stroke-width: 0.6"/>
      </g>
     </g>
    </g>
    <g id="xtick_25">
     <g id="line2d_48">
      <g>
       <use xlink:href="#m9f9092c3f8" x="615.099953" y="458.728" style="stroke: #000000; stroke-width: 0.6"/>
      </g>
     </g>
    </g>
    <g id="text_20">
     <!-- frequency [arb.] -->
     <g transform="translate(301.797856 487.004563) scale(0.1 -0.1)">
      <defs>
       <path id="DejaVuSans-71" d="M 947 1747 
Q 947 1113 1208 752 
Q 1469 391 1925 391 
Q 2381 391 2643 752 
Q 2906 1113 2906 1747 
Q 2906 2381 2643 2742 
Q 2381 3103 1925 3103 
Q 1469 3103 1208 2742 
Q 947 2381 947 1747 
z
M 2906 525 
Q 2725 213 2448 61 
Q 2172 -91 1784 -91 
Q 1150 -91 751 415 
Q 353 922 353 1747 
Q 353 2572 751 3078 
Q 1150 3584 1784 3584 
Q 2172 3584 2448 3432 
Q 2725 3281 2906 2969 
L 2906 3500 
L 3481 3500 
L 3481 -1331 
L 2906 -1331 
L 2906 525 
z
" transform="scale(0.015625)"/>
      </defs>
      <use xlink:href="#DejaVuSans-66"/>
      <use xlink:href="#DejaVuSans-72" transform="translate(35.205078 0)"/>
      <use xlink:href="#DejaVuSans-65" transform="translate(74.068359 0)"/>
      <use xlink:href="#DejaVuSans-71" transform="translate(135.591797 0)"/>
      <use xlink:href="#DejaVuSans-75" transform="translate(199.068359 0)"/>
      <use xlink:href="#DejaVuSans-65" transform="translate(262.447266 0)"/>
      <use xlink:href="#DejaVuSans-6e" transform="translate(323.970703 0)"/>
      <use xlink:href="#DejaVuSans-63" transform="translate(387.349609 0)"/>
      <use xlink:href="#DejaVuSans-79" transform="translate(442.330078 0)"/>
      <use xlink:href="#DejaVuSans-20" transform="translate(501.509766 0)"/>
      <use xlink:href="#DejaVuSans-5b" transform="translate(533.296875 0)"/>
      <use xlink:href="#DejaVuSans-61" transform="translate(572.310547 0)"/>
      <use xlink:href="#DejaVuSans-72" transform="translate(633.589844 0)"/>
      <use xlink:href="#DejaVuSans-62" transform="translate(674.703125 0)"/>
      <use xlink:href="#DejaVuSans-2e" transform="translate(738.179688 0)"/>
      <use xlink:href="#DejaVuSans-5d" transform="translate(769.966797 0)"/>
     </g>
    </g>
   </g>
   <g id="matplotlib.axis_4">
    <g id="ytick_6">
     <g id="line2d_49">
      <path d="M 56.312054 435.761917 
L 628.183658 435.761917 
" clip-path="url(#pffabca4332)" style="fill: none; stroke: #b0b0b0; stroke-opacity: 0.25; stroke-width: 0.8; stroke-linecap: square"/>
     </g>
     <g id="line2d_50">
      <g>
       <use xlink:href="#md190fa8762" x="56.312054" y="435.761917" style="stroke: #000000; stroke-width: 0.8"/>
      </g>
     </g>
     <g id="text_21">
      <!-- $\mathdefault{10^{-9}}$ -->
      <g transform="translate(25.812054 439.561136) scale(0.1 -0.1)">
       <use xlink:href="#DejaVuSans-31" transform="translate(0 0.765625)"/>
       <use xlink:href="#DejaVuSans-30" transform="translate(63.623047 0.765625)"/>
       <use xlink:href="#DejaVuSans-2212" transform="translate(128.203125 39.046875) scale(0.7)"/>
       <use xlink:href="#DejaVuSans-39" transform="translate(186.855469 39.046875) scale(0.7)"/>
      </g>
     </g>
    </g>
    <g id="ytick_7">
     <g id="line2d_51">
      <path d="M 56.312054 410.96857 
L 628.183658 410.96857 
" clip-path="url(#pffabca4332)" style="fill: none; stroke: #b0b0b0; stroke-opacity: 0.25; stroke-width: 0.8; stroke-linecap: square"/>
     </g>
     <g id="line2d_52">
      <g>
       <use xlink:href="#md190fa8762" x="56.312054" y="410.96857" style="stroke: #000000; stroke-width: 0.8"/>
      </g>
     </g>
     <g id="text_22">
      <!-- $\mathdefault{10^{-7}}$ -->
      <g transform="translate(25.812054 414.767789) scale(0.1 -0.1)">
       <use xlink:href="#DejaVuSans-31" transform="translate(0 0.684375)"/>
       <use xlink:href="#DejaVuSans-30" transform="translate(63.623047 0.684375)"/>
       <use xlink:href="#DejaVuSans-2212" transform="translate(128.203125 38.965625) scale(0.7)"/>
       <use xlink:href="#DejaVuSans-37" transform="translate(186.855469 38.965625) scale(0.7)"/>
      </g>
     </g>
    </g>
    <g id="ytick_8">
     <g id="line2d_53">
      <path d="M 56.312054 386.175223 
L 628.183658 386.175223 
" clip-path="url(#pffabca4332)" style="fill: none; stroke: #b0b0b0; stroke-opacity: 0.25; stroke-width: 0.8; stroke-linecap: square"/>
     </g>
     <g id="line2d_54">
      <g>
       <use xlink:href="#md190fa8762" x="56.312054" y="386.175223" style="stroke: #000000; stroke-width: 0.8"/>
      </g>
     </g>
     <g id="text_23">
      <!-- $\mathdefault{10^{-5}}$ -->
      <g transform="translate(25.812054 389.974442) scale(0.1 -0.1)">
       <use xlink:href="#DejaVuSans-31" transform="translate(0 0.684375)"/>
       <use xlink:href="#DejaVuSans-30" transform="translate(63.623047 0.684375)"/>
       <use xlink:href="#DejaVuSans-2212" transform="translate(128.203125 38.965625) scale(0.7)"/>
       <use xlink:href="#DejaVuSans-35" transform="translate(186.855469 38.965625) scale(0.7)"/>
      </g>
     </g>
    </g>
    <g id="ytick_9">
     <g id="line2d_55">
      <path d="M 56.312054 361.381876 
L 628.183658 361.381876 
" clip-path="url(#pffabca4332)" style="fill: none; stroke: #b0b0b0; stroke-opacity: 0.25; stroke-width: 0.8; stroke-linecap: square"/>
     </g>
     <g id="line2d_56">
      <g>
       <use xlink:href="#md190fa8762" x="56.312054" y="361.381876" style="stroke: #000000; stroke-width: 0.8"/>
      </g>
     </g>
     <g id="text_24">
      <!-- $\mathdefault{10^{-3}}$ -->
      <g transform="translate(25.812054 365.181095) scale(0.1 -0.1)">
       <defs>
        <path id="DejaVuSans-33" d="M 2597 2516 
Q 3050 2419 3304 2112 
Q 3559 1806 3559 1356 
Q 3559 666 3084 287 
Q 2609 -91 1734 -91 
Q 1441 -91 1130 -33 
Q 819 25 488 141 
L 488 750 
Q 750 597 1062 519 
Q 1375 441 1716 441 
Q 2309 441 2620 675 
Q 2931 909 2931 1356 
Q 2931 1769 2642 2001 
Q 2353 2234 1838 2234 
L 1294 2234 
L 1294 2753 
L 1863 2753 
Q 2328 2753 2575 2939 
Q 2822 3125 2822 3475 
Q 2822 3834 2567 4026 
Q 2313 4219 1838 4219 
Q 1578 4219 1281 4162 
Q 984 4106 628 3988 
L 628 4550 
Q 988 4650 1302 4700 
Q 1616 4750 1894 4750 
Q 2613 4750 3031 4423 
Q 3450 4097 3450 3541 
Q 3450 3153 3228 2886 
Q 3006 2619 2597 2516 
z
" transform="scale(0.015625)"/>
       </defs>
       <use xlink:href="#DejaVuSans-31" transform="translate(0 0.765625)"/>
       <use xlink:href="#DejaVuSans-30" transform="translate(63.623047 0.765625)"/>
       <use xlink:href="#DejaVuSans-2212" transform="translate(128.203125 39.046875) scale(0.7)"/>
       <use xlink:href="#DejaVuSans-33" transform="translate(186.855469 39.046875) scale(0.7)"/>
      </g>
     </g>
    </g>
    <g id="ytick_10">
     <g id="line2d_57">
      <path d="M 56.312054 336.588529 
L 628.183658 336.588529 
" clip-path="url(#pffabca4332)" style="fill: none; stroke: #b0b0b0; stroke-opacity: 0.25; stroke-width: 0.8; stroke-linecap: square"/>
     </g>
     <g id="line2d_58">
      <g>
       <use xlink:href="#md190fa8762" x="56.312054" y="336.588529" style="stroke: #000000; stroke-width: 0.8"/>
      </g>
     </g>
     <g id="text_25">
      <!-- $\mathdefault{10^{-1}}$ -->
      <g transform="translate(25.812054 340.387748) scale(0.1 -0.1)">
       <use xlink:href="#DejaVuSans-31" transform="translate(0 0.684375)"/>
       <use xlink:href="#DejaVuSans-30" transform="translate(63.623047 0.684375)"/>
       <use xlink:href="#DejaVuSans-2212" transform="translate(128.203125 38.965625) scale(0.7)"/>
       <use xlink:href="#DejaVuSans-31" transform="translate(186.855469 38.965625) scale(0.7)"/>
      </g>
     </g>
    </g>
    <g id="ytick_11">
     <g id="line2d_59">
      <path d="M 56.312054 311.795182 
L 628.183658 311.795182 
" clip-path="url(#pffabca4332)" style="fill: none; stroke: #b0b0b0; stroke-opacity: 0.25; stroke-width: 0.8; stroke-linecap: square"/>
     </g>
     <g id="line2d_60">
      <g>
       <use xlink:href="#md190fa8762" x="56.312054" y="311.795182" style="stroke: #000000; stroke-width: 0.8"/>
      </g>
     </g>
     <g id="text_26">
      <!-- $\mathdefault{10^{1}}$ -->
      <g transform="translate(31.712054 315.594401) scale(0.1 -0.1)">
       <use xlink:href="#DejaVuSans-31" transform="translate(0 0.684375)"/>
       <use xlink:href="#DejaVuSans-30" transform="translate(63.623047 0.684375)"/>
       <use xlink:href="#DejaVuSans-31" transform="translate(128.203125 38.965625) scale(0.7)"/>
      </g>
     </g>
    </g>
    <g id="ytick_12">
     <g id="line2d_61">
      <path d="M 56.312054 287.001835 
L 628.183658 287.001835 
" clip-path="url(#pffabca4332)" style="fill: none; stroke: #b0b0b0; stroke-opacity: 0.25; stroke-width: 0.8; stroke-linecap: square"/>
     </g>
     <g id="line2d_62">
      <g>
       <use xlink:href="#md190fa8762" x="56.312054" y="287.001835" style="stroke: #000000; stroke-width: 0.8"/>
      </g>
     </g>
     <g id="text_27">
      <!-- $\mathdefault{10^{3}}$ -->
      <g transform="translate(31.712054 290.801054) scale(0.1 -0.1)">
       <use xlink:href="#DejaVuSans-31" transform="translate(0 0.765625)"/>
       <use xlink:href="#DejaVuSans-30" transform="translate(63.623047 0.765625)"/>
       <use xlink:href="#DejaVuSans-33" transform="translate(128.203125 39.046875) scale(0.7)"/>
      </g>
     </g>
    </g>
    <g id="text_28">
     <!-- |FFT(.)| -->
     <g transform="translate(19.454241 386.597344) rotate(-90) scale(0.1 -0.1)">
      <defs>
       <path id="DejaVuSans-54" d="M -19 4666 
L 3928 4666 
L 3928 4134 
L 2272 4134 
L 2272 0 
L 1638 0 
L 1638 4134 
L -19 4134 
L -19 4666 
z
" transform="scale(0.015625)"/>
      </defs>
      <use xlink:href="#DejaVuSans-7c"/>
      <use xlink:href="#DejaVuSans-46" transform="translate(33.691406 0)"/>
      <use xlink:href="#DejaVuSans-46" transform="translate(91.210938 0)"/>
      <use xlink:href="#DejaVuSans-54" transform="translate(146.980469 0)"/>
      <use xlink:href="#DejaVuSans-28" transform="translate(208.064453 0)"/>
      <use xlink:href="#DejaVuSans-2e" transform="translate(247.078125 0)"/>
      <use xlink:href="#DejaVuSans-29" transform="translate(278.865234 0)"/>
      <use xlink:href="#DejaVuSans-7c" transform="translate(317.878906 0)"/>
     </g>
    </g>
   </g>
   <g id="line2d_63">
    <path d="M 56.312054 306.963474 
L 142.387307 326.858821 
L 192.738102 325.288861 
L 228.46256 323.175085 
L 256.172603 320.506594 
L 278.813356 317.148789 
L 297.95584 312.769235 
L 314.537813 306.511896 
L 329.164151 294.489941 
L 342.247856 287.467273 
L 354.083506 288.473123 
L 364.888609 299.189966 
L 374.82834 308.552223 
L 384.031093 314.156351 
L 392.598651 318.250799 
L 400.613067 321.497565 
L 408.141453 324.195482 
L 415.239404 326.507336 
L 421.95349 328.532204 
L 428.323109 330.335067 
L 434.381888 331.960908 
L 440.15876 333.442185 
L 445.678795 334.803095 
L 450.963862 336.062166 
L 456.033151 337.233899 
L 460.903593 338.329862 
L 465.5902 339.359433 
L 470.106346 340.330317 
L 474.463998 341.24893 
L 478.673904 342.120667 
L 482.745756 342.950112 
L 486.68832 343.741195 
L 490.509555 344.497307 
L 494.216706 345.221401 
L 497.816388 345.916061 
L 501.314657 346.583565 
L 504.717071 347.225928 
L 508.028743 347.844948 
L 511.254388 348.442228 
L 514.398362 349.019212 
L 517.464699 349.577201 
L 520.457141 350.117371 
L 523.379167 350.640794 
L 526.234013 351.148444 
L 529.0247 351.641211 
L 531.754048 352.119914 
L 534.424696 352.585304 
L 537.039115 353.038072 
L 539.599625 353.478858 
L 542.108404 353.908254 
L 544.567501 354.326808 
L 546.978846 354.735033 
L 549.344257 355.133402 
L 551.665453 355.522359 
L 553.944055 355.90232 
L 556.181599 356.273672 
L 558.379539 356.636778 
L 560.539251 356.99198 
L 562.662044 357.3396 
L 564.749158 357.679939 
L 566.801772 358.013283 
L 568.821009 358.339899 
L 570.807937 358.660043 
L 572.763573 358.973954 
L 574.688888 359.281859 
L 576.584808 359.583974 
L 578.452217 359.880504 
L 580.291959 360.171641 
L 582.104843 360.457572 
L 583.891641 360.73847 
L 585.653094 361.014503 
L 587.389911 361.28583 
L 589.10277 361.552603 
L 590.792325 361.814966 
L 592.4592 362.073056 
L 594.103997 362.327007 
L 595.727292 362.576943 
L 597.329641 362.822987 
L 598.911578 363.065252 
L 600.473615 363.303849 
L 602.016248 363.538885 
L 603.539952 363.770461 
L 605.045187 363.998674 
L 606.532395 364.223617 
L 608.002002 364.445382 
L 609.45442 364.664053 
L 610.890047 364.879713 
L 612.309266 365.092443 
L 613.712449 365.30232 
L 615.099953 365.509416 
L 616.472125 365.713803 
L 617.829301 365.915549 
L 619.171804 366.114722 
L 620.499949 366.311383 
L 621.814039 366.505595 
L 623.114368 366.697416 
L 624.401223 366.886905 
L 625.674879 367.074116 
L 626.935603 367.259102 
L 628.183658 367.441915 
L 629.419293 367.622605 
" clip-path="url(#pffabca4332)" style="fill: none; stroke: #1f77b4; stroke-opacity: 0.6; stroke-width: 1.5; stroke-linecap: square"/>
   </g>
   <g id="line2d_64">
    <path d="M 56.312054 310.355575 
L 142.387307 318.621873 
L 192.738102 324.76741 
L 228.46256 328.808973 
L 256.172603 330.576391 
L 278.813356 329.622571 
L 297.95584 326.202996 
L 314.537813 320.259702 
L 329.164151 308.316366 
L 342.247856 301.301354 
L 354.083506 302.304832 
L 364.888609 313.028987 
L 374.82834 322.412222 
L 384.031093 328.049495 
L 392.598651 332.186275 
L 400.613067 335.481568 
L 408.141453 338.231685 
L 415.239404 340.597434 
L 421.95349 342.676414 
L 428.323109 344.532535 
L 434.381888 346.210033 
L 440.15876 347.740863 
L 445.678795 349.148904 
L 450.963862 350.452499 
L 456.033151 351.666069 
L 460.903593 352.80117 
L 465.5902 353.86722 
L 470.106346 354.872 
L 474.463998 355.822024 
L 478.673904 356.722801 
L 482.745756 357.579039 
L 486.68832 358.394792 
L 490.509555 359.173579 
L 494.216706 359.91848 
L 497.816388 360.632199 
L 501.314657 361.317132 
L 504.717071 361.975408 
L 508.028743 362.608928 
L 511.254388 363.219399 
L 514.398362 363.808358 
L 517.464699 364.377196 
L 520.457141 364.927173 
L 523.379167 365.459437 
L 526.234013 365.975036 
L 529.0247 366.474928 
L 531.754048 366.959994 
L 534.424696 367.431044 
L 537.039115 367.888824 
L 539.599625 368.334024 
L 542.108404 368.767283 
L 544.567501 369.189194 
L 546.978846 369.600307 
L 549.344257 370.001135 
L 551.665453 370.392156 
L 553.944055 370.773817 
L 556.181599 371.146536 
L 558.379539 371.510704 
L 560.539251 371.866688 
L 562.662044 372.214832 
L 564.749158 372.555461 
L 566.801772 372.88888 
L 568.821009 373.215375 
L 570.807937 373.535219 
L 572.763573 373.848667 
L 574.688888 374.155962 
L 576.584808 374.457333 
L 578.452217 374.752996 
L 580.291959 375.043157 
L 582.104843 375.328013 
L 583.891641 375.607747 
L 585.653094 375.882536 
L 587.389911 376.152548 
L 589.10277 376.417941 
L 590.792325 376.678869 
L 592.4592 376.935475 
L 594.103997 377.187898 
L 595.727292 377.436269 
L 597.329641 377.680714 
L 598.911578 377.921354 
L 600.473615 378.158304 
L 602.016248 378.391672 
L 603.539952 378.621566 
L 605.045187 378.848085 
L 606.532395 379.071326 
L 608.002002 379.291382 
L 609.45442 379.508342 
L 610.890047 379.722292 
L 612.309266 379.933312 
L 613.712449 380.141483 
L 615.099953 380.346879 
L 616.472125 380.549574 
L 617.829301 380.749638 
L 619.171804 380.947137 
L 620.499949 381.142138 
L 621.814039 381.334701 
L 623.114368 381.524889 
L 624.401223 381.712759 
L 625.674879 381.898366 
L 626.935603 382.081766 
L 628.183658 382.263009 
L 629.419293 382.442148 
" clip-path="url(#pffabca4332)" style="fill: none; stroke: #ff7f0e; stroke-width: 1.5; stroke-linecap: square"/>
   </g>
   <g id="patch_9">
    <path d="M 56.312054 458.728 
L 56.312054 279.312 
" style="fill: none; stroke: #000000; stroke-width: 0.8; stroke-linejoin: miter; stroke-linecap: square"/>
   </g>
   <g id="patch_10">
    <path d="M 628.183658 458.728 
L 628.183658 279.312 
" style="fill: none; stroke: #000000; stroke-width: 0.8; stroke-linejoin: miter; stroke-linecap: square"/>
   </g>
   <g id="patch_11">
    <path d="M 56.312054 458.728 
L 628.183658 458.728 
" style="fill: none; stroke: #000000; stroke-width: 0.8; stroke-linejoin: miter; stroke-linecap: square"/>
   </g>
   <g id="patch_12">
    <path d="M 56.312054 279.312 
L 628.183658 279.312 
" style="fill: none; stroke: #000000; stroke-width: 0.8; stroke-linejoin: miter; stroke-linecap: square"/>
   </g>
   <g id="text_29">
    <!-- Output FFT peak ≈ 1.000 (arb.), magnitude ≈ 7.023e+01 | low-ish -->
    <g transform="translate(142.530356 273.312) scale(0.12 -0.12)">
     <defs>
      <path id="DejaVuSans-4f" d="M 2522 4238 
Q 1834 4238 1429 3725 
Q 1025 3213 1025 2328 
Q 1025 1447 1429 934 
Q 1834 422 2522 422 
Q 3209 422 3611 934 
Q 4013 1447 4013 2328 
Q 4013 3213 3611 3725 
Q 3209 4238 2522 4238 
z
M 2522 4750 
Q 3503 4750 4090 4092 
Q 4678 3434 4678 2328 
Q 4678 1225 4090 567 
Q 3503 -91 2522 -91 
Q 1538 -91 948 565 
Q 359 1222 359 2328 
Q 359 3434 948 4092 
Q 1538 4750 2522 4750 
z
" transform="scale(0.015625)"/>
      <path id="DejaVuSans-6b" d="M 581 4863 
L 1159 4863 
L 1159 1991 
L 2875 3500 
L 3609 3500 
L 1753 1863 
L 3688 0 
L 2938 0 
L 1159 1709 
L 1159 0 
L 581 0 
L 581 4863 
z
" transform="scale(0.015625)"/>
      <path id="DejaVuSans-2248" d="M 4684 1947 
L 4684 1388 
Q 4356 1144 4076 1036 
Q 3797 928 3494 928 
Q 3150 928 2694 1113 
Q 2663 1125 2641 1134 
Q 2622 1141 2575 1159 
Q 2091 1350 1797 1350 
Q 1522 1350 1253 1231 
Q 984 1113 678 850 
L 678 1409 
Q 1006 1653 1286 1761 
Q 1566 1869 1869 1869 
Q 2213 1869 2672 1684 
Q 2706 1669 2722 1663 
Q 2741 1656 2788 1638 
Q 3272 1447 3566 1447 
Q 3834 1447 4098 1564 
Q 4363 1681 4684 1947 
z
M 4684 3163 
L 4684 2606 
Q 4356 2359 4076 2251 
Q 3797 2144 3494 2144 
Q 3150 2144 2694 2328 
Q 2663 2341 2641 2350 
Q 2622 2356 2575 2375 
Q 2091 2566 1797 2566 
Q 1522 2566 1253 2447 
Q 984 2328 678 2069 
L 678 2625 
Q 1006 2869 1286 2976 
Q 1566 3084 1869 3084 
Q 2213 3084 2672 2900 
Q 2703 2888 2719 2881 
Q 2741 2872 2788 2853 
Q 3272 2663 3566 2663 
Q 3834 2663 4098 2780 
Q 4363 2897 4684 3163 
z
" transform="scale(0.015625)"/>
      <path id="DejaVuSans-6d" d="M 3328 2828 
Q 3544 3216 3844 3400 
Q 4144 3584 4550 3584 
Q 5097 3584 5394 3201 
Q 5691 2819 5691 2113 
L 5691 0 
L 5113 0 
L 5113 2094 
Q 5113 2597 4934 2840 
Q 4756 3084 4391 3084 
Q 3944 3084 3684 2787 
Q 3425 2491 3425 1978 
L 3425 0 
L 2847 0 
L 2847 2094 
Q 2847 2600 2669 2842 
Q 2491 3084 2119 3084 
Q 1678 3084 1418 2786 
Q 1159 2488 1159 1978 
L 1159 0 
L 581 0 
L 581 3500 
L 1159 3500 
L 1159 2956 
Q 1356 3278 1631 3431 
Q 1906 3584 2284 3584 
Q 2666 3584 2933 3390 
Q 3200 3197 3328 2828 
z
" transform="scale(0.015625)"/>
      <path id="DejaVuSans-67" d="M 2906 1791 
Q 2906 2416 2648 2759 
Q 2391 3103 1925 3103 
Q 1463 3103 1205 2759 
Q 947 2416 947 1791 
Q 947 1169 1205 825 
Q 1463 481 1925 481 
Q 2391 481 2648 825 
Q 2906 1169 2906 1791 
z
M 3481 434 
Q 3481 -459 3084 -895 
Q 2688 -1331 1869 -1331 
Q 1566 -1331 1297 -1286 
Q 1028 -1241 775 -1147 
L 775 -588 
Q 1028 -725 1275 -790 
Q 1522 -856 1778 -856 
Q 2344 -856 2625 -561 
Q 2906 -266 2906 331 
L 2906 616 
Q 2728 306 2450 153 
Q 2172 0 1784 0 
Q 1141 0 747 490 
Q 353 981 353 1791 
Q 353 2603 747 3093 
Q 1141 3584 1784 3584 
Q 2172 3584 2450 3431 
Q 2728 3278 2906 2969 
L 2906 3500 
L 3481 3500 
L 3481 434 
z
" transform="scale(0.015625)"/>
      <path id="DejaVuSans-2b" d="M 2944 4013 
L 2944 2272 
L 4684 2272 
L 4684 1741 
L 2944 1741 
L 2944 0 
L 2419 0 
L 2419 1741 
L 678 1741 
L 678 2272 
L 2419 2272 
L 2419 4013 
L 2944 4013 
z
" transform="scale(0.015625)"/>
      <path id="DejaVuSans-68" d="M 3513 2113 
L 3513 0 
L 2938 0 
L 2938 2094 
Q 2938 2591 2744 2837 
Q 2550 3084 2163 3084 
Q 1697 3084 1428 2787 
Q 1159 2491 1159 1978 
L 1159 0 
L 581 0 
L 581 4863 
L 1159 4863 
L 1159 2956 
Q 1366 3272 1645 3428 
Q 1925 3584 2291 3584 
Q 2894 3584 3203 3211 
Q 3513 2838 3513 2113 
z
" transform="scale(0.015625)"/>
     </defs>
     <use xlink:href="#DejaVuSans-4f"/>
     <use xlink:href="#DejaVuSans-75" transform="translate(78.710938 0)"/>
     <use xlink:href="#DejaVuSans-74" transform="translate(142.089844 0)"/>
     <use xlink:href="#DejaVuSans-70" transform="translate(181.298828 0)"/>
     <use xlink:href="#DejaVuSans-75" transform="translate(244.775391 0)"/>
     <use xlink:href="#DejaVuSans-74" transform="translate(308.154297 0)"/>
     <use xlink:href="#DejaVuSans-20" transform="translate(347.363281 0)"/>
     <use xlink:href="#DejaVuSans-46" transform="translate(379.150391 0)"/>
     <use xlink:href="#DejaVuSans-46" transform="translate(436.669922 0)"/>
     <use xlink:href="#DejaVuSans-54" transform="translate(492.439453 0)"/>
     <use xlink:href="#DejaVuSans-20" transform="translate(553.523438 0)"/>
     <use xlink:href="#DejaVuSans-70" transform="translate(585.310547 0)"/>
     <use xlink:href="#DejaVuSans-65" transform="translate(648.787109 0)"/>
     <use xlink:href="#DejaVuSans-61" transform="translate(710.310547 0)"/>
     <use xlink:href="#DejaVuSans-6b" transform="translate(771.589844 0)"/>
     <use xlink:href="#DejaVuSans-20" transform="translate(829.5 0)"/>
     <use xlink:href="#DejaVuSans-2248" transform="translate(861.287109 0)"/>
     <use xlink:href="#DejaVuSans-20" transform="translate(945.076172 0)"/>
     <use xlink:href="#DejaVuSans-31" transform="translate(976.863281 0)"/>
     <use xlink:href="#DejaVuSans-2e" transform="translate(1040.486328 0)"/>
     <use xlink:href="#DejaVuSans-30" transform="translate(1072.273438 0)"/>
     <use xlink:href="#DejaVuSans-30" transform="translate(1135.896484 0)"/>
     <use xlink:href="#DejaVuSans-30" transform="translate(1199.519531 0)"/>
     <use xlink:href="#DejaVuSans-20" transform="translate(1263.142578 0)"/>
     <use xlink:href="#DejaVuSans-28" transform="translate(1294.929688 0)"/>
     <use xlink:href="#DejaVuSans-61" transform="translate(1333.943359 0)"/>
     <use xlink:href="#DejaVuSans-72" transform="translate(1395.222656 0)"/>
     <use xlink:href="#DejaVuSans-62" transform="translate(1436.335938 0)"/>
     <use xlink:href="#DejaVuSans-2e" transform="translate(1499.8125 0)"/>
     <use xlink:href="#DejaVuSans-29" transform="translate(1531.599609 0)"/>
     <use xlink:href="#DejaVuSans-2c" transform="translate(1570.613281 0)"/>
     <use xlink:href="#DejaVuSans-20" transform="translate(1602.400391 0)"/>
     <use xlink:href="#DejaVuSans-6d" transform="translate(1634.1875 0)"/>
     <use xlink:href="#DejaVuSans-61" transform="translate(1731.599609 0)"/>
     <use xlink:href="#DejaVuSans-67" transform="translate(1792.878906 0)"/>
     <use xlink:href="#DejaVuSans-6e" transform="translate(1856.355469 0)"/>
     <use xlink:href="#DejaVuSans-69" transform="translate(1919.734375 0)"/>
     <use xlink:href="#DejaVuSans-74" transform="translate(1947.517578 0)"/>
     <use xlink:href="#DejaVuSans-75" transform="translate(1986.726562 0)"/>
     <use xlink:href="#DejaVuSans-64" transform="translate(2050.105469 0)"/>
     <use xlink:href="#DejaVuSans-65" transform="translate(2113.582031 0)"/>
     <use xlink:href="#DejaVuSans-20" transform="translate(2175.105469 0)"/>
     <use xlink:href="#DejaVuSans-2248" transform="translate(2206.892578 0)"/>
     <use xlink:href="#DejaVuSans-20" transform="translate(2290.681641 0)"/>
     <use xlink:href="#DejaVuSans-37" transform="translate(2322.46875 0)"/>
     <use xlink:href="#DejaVuSans-2e" transform="translate(2386.091797 0)"/>
     <use xlink:href="#DejaVuSans-30" transform="translate(2417.878906 0)"/>
     <use xlink:href="#DejaVuSans-32" transform="translate(2481.501953 0)"/>
     <use xlink:href="#DejaVuSans-33" transform="translate(2545.125 0)"/>
     <use xlink:href="#DejaVuSans-65" transform="translate(2608.748047 0)"/>
     <use xlink:href="#DejaVuSans-2b" transform="translate(2670.271484 0)"/>
     <use xlink:href="#DejaVuSans-30" transform="translate(2754.060547 0)"/>
     <use xlink:href="#DejaVuSans-31" transform="translate(2817.683594 0)"/>
     <use xlink:href="#DejaVuSans-20" transform="translate(2881.306641 0)"/>
     <use xlink:href="#DejaVuSans-7c" transform="translate(2913.09375 0)"/>
     <use xlink:href="#DejaVuSans-20" transform="translate(2946.785156 0)"/>
     <use xlink:href="#DejaVuSans-6c" transform="translate(2978.572266 0)"/>
     <use xlink:href="#DejaVuSans-6f" transform="translate(3006.355469 0)"/>
     <use xlink:href="#DejaVuSans-77" transform="translate(3067.537109 0)"/>
     <use xlink:href="#DejaVuSans-2d" transform="translate(3149.324219 0)"/>
     <use xlink:href="#DejaVuSans-69" transform="translate(3185.408203 0)"/>
     <use xlink:href="#DejaVuSans-73" transform="translate(3213.191406 0)"/>
     <use xlink:href="#DejaVuSans-68" transform="translate(3265.291016 0)"/>
    </g>
   </g>
   <g id="legend_2">
    <g id="patch_13">
     <path d="M 535.586783 316.66825 
L 621.183658 316.66825 
Q 623.183658 316.66825 623.183658 314.66825 
L 623.183658 286.312 
Q 623.183658 284.312 621.183658 284.312 
L 535.586783 284.312 
Q 533.586783 284.312 533.586783 286.312 
L 533.586783 314.66825 
Q 533.586783 316.66825 535.586783 316.66825 
z
" style="fill: #ffffff; opacity: 0.8; stroke: #cccccc; stroke-linejoin: miter"/>
    </g>
    <g id="line2d_65">
     <path d="M 537.586783 292.410438 
L 547.586783 292.410438 
L 557.586783 292.410438 
" style="fill: none; stroke: #1f77b4; stroke-opacity: 0.6; stroke-width: 1.5; stroke-linecap: square"/>
    </g>
    <g id="text_30">
     <!-- input FFT -->
     <g transform="translate(565.586783 295.910438) scale(0.1 -0.1)">
      <use xlink:href="#DejaVuSans-69"/>
      <use xlink:href="#DejaVuSans-6e" transform="translate(27.783203 0)"/>
      <use xlink:href="#DejaVuSans-70" transform="translate(91.162109 0)"/>
      <use xlink:href="#DejaVuSans-75" transform="translate(154.638672 0)"/>
      <use xlink:href="#DejaVuSans-74" transform="translate(218.017578 0)"/>
      <use xlink:href="#DejaVuSans-20" transform="translate(257.226562 0)"/>
      <use xlink:href="#DejaVuSans-46" transform="translate(289.013672 0)"/>
      <use xlink:href="#DejaVuSans-46" transform="translate(346.533203 0)"/>
      <use xlink:href="#DejaVuSans-54" transform="translate(402.302734 0)"/>
     </g>
    </g>
    <g id="line2d_66">
     <path d="M 537.586783 307.088562 
L 547.586783 307.088562 
L 557.586783 307.088562 
" style="fill: none; stroke: #ff7f0e; stroke-width: 1.5; stroke-linecap: square"/>
    </g>
    <g id="text_31">
     <!-- output FFT -->
     <g transform="translate(565.586783 310.588562) scale(0.1 -0.1)">
      <use xlink:href="#DejaVuSans-6f"/>
      <use xlink:href="#DejaVuSans-75" transform="translate(61.181641 0)"/>
      <use xlink:href="#DejaVuSans-74" transform="translate(124.560547 0)"/>
      <use xlink:href="#DejaVuSans-70" transform="translate(163.769531 0)"/>
      <use xlink:href="#DejaVuSans-75" transform="translate(227.246094 0)"/>
      <use xlink:href="#DejaVuSans-74" transform="translate(290.625 0)"/>
      <use xlink:href="#DejaVuSans-20" transform="translate(329.833984 0)"/>
      <use xlink:href="#DejaVuSans-46" transform="translate(361.621094 0)"/>
      <use xlink:href="#DejaVuSans-46" transform="translate(419.140625 0)"/>
      <use xlink:href="#DejaVuSans-54" transform="translate(474.910156 0)"/>
     </g>
    </g>
   </g>
  </g>
 </g>
 <defs>
  <clipPath id="pc7d6504e22">
   <rect x="56.312054" y="41.856" width="571.871604" height="179.416"/>
  </clipPath>
  <clipPath id="pffabca4332">
   <rect x="56.312054" y="279.312" width="571.871604" height="179.416"/>
  </clipPath>
 </defs>
</svg>
