<?xml version="1.0" encoding="utf-8" standalone="no"?>
<!DOCTYPE svg PUBLIC "-//W3C//DTD SVG 1.1//EN"
  "http://www.w3.org/Graphics/SVG/1.1/DTD/svg11.dtd">
<svg xmlns:xlink="http://www.w3.org/1999/xlink" width="648pt" height="504pt" viewBox="0 0 648 504" xmlns="http://www.w3.org/2000/svg" version="1.1">
 <metadata>
  <rdf:RDF xmlns:dc="http://purl.org/dc/elements/1.1/" xmlns:cc="http://creativecommons.org/ns#" xmlns:rdf="http://www.w3.org/1999/02/22-rdf-syntax-ns#">
   <cc:Work>
    <dc:type rdf:resource="http://purl.org/dc/dcmitype/StillImage"/>
    <dc:date>2026-06-13T04:27:02.176867</dc:date>
    <dc:format>image/svg+xml</dc:format>
    <dc:creator>
     <cc:Agent>
      <dc:title>Matplotlib v3.11.0, https://matplotlib.org/</dc:title>
     </cc:Agent>
    </dc:creator>
   </cc:Work>
  </rdf:RDF>
 </metadata>
 <defs>
  <style type="text/css">*{stroke-linejoin: round; stroke-linecap: butt}</style>
 </defs>
 <g id="figure_1">
  <g id="patch_1">
   <path d="M 0 504 
L 648 504 
L 648 0 
L 0 0 
z
" style="fill: #ffffff"/>
  </g>
  <g id="axes_1">
   <g id="patch_2">
    <path d="M 60.202344 222.319648 
L 628.2 222.319648 
L 628.2 42.006328 
L 60.202344 42.006328 
z
" style="fill: #ffffff"/>
   </g>
   <g id="matplotlib.axis_1">
    <g id="xtick_1">
     <g id="line2d_1">
      <path d="M 86.020419 222.319648 
L 86.020419 42.006328 
" clip-path="url(#p4a1663ac4a)" style="fill: none; stroke: #b0b0b0; stroke-opacity: 0.25; stroke-width: 0.8; stroke-linecap: square"/>
     </g>
     <g id="line2d_2">
      <defs>
       <path id="m8a4fe9aeb6" d="M 0 0 
L 0 3.5 
" style="stroke: #000000; stroke-width: 0.8"/>
      </defs>
      <g>
       <use xlink:href="#m8a4fe9aeb6" x="86.020419" y="222.319648" style="stroke: #000000; stroke-width: 0.8"/>
      </g>
     </g>
     <g id="text_1">
      <!-- 0 -->
      <g transform="translate(82.839169 236.917305) scale(0.1 -0.1)">
       <defs>
        <path id="DejaVuSans-13" d="M 2034 4250 
Q 1547 4250 1301 3770 
Q 1056 3291 1056 2328 
Q 1056 1369 1301 889 
Q 1547 409 2034 409 
Q 2525 409 2770 889 
Q 3016 1369 3016 2328 
Q 3016 3291 2770 3770 
Q 2525 4250 2034 4250 
z
M 2034 4750 
Q 2819 4750 3233 4129 
Q 3647 3509 3647 2328 
Q 3647 1150 3233 529 
Q 2819 -91 2034 -91 
Q 1250 -91 836 529 
Q 422 1150 422 2328 
Q 422 3509 836 4129 
Q 1250 4750 2034 4750 
z
" transform="scale(0.015625)"/>
       </defs>
       <use xlink:href="#DejaVuSans-13"/>
      </g>
     </g>
    </g>
    <g id="xtick_2">
     <g id="line2d_3">
      <path d="M 189.317939 222.319648 
L 189.317939 42.006328 
" clip-path="url(#p4a1663ac4a)" style="fill: none; stroke: #b0b0b0; stroke-opacity: 0.25; stroke-width: 0.8; stroke-linecap: square"/>
     </g>
     <g id="line2d_4">
      <g>
       <use xlink:href="#m8a4fe9aeb6" x="189.317939" y="222.319648" style="stroke: #000000; stroke-width: 0.8"/>
      </g>
     </g>
     <g id="text_2">
      <!-- 2 -->
      <g transform="translate(186.136689 236.917305) scale(0.1 -0.1)">
       <defs>
        <path id="DejaVuSans-15" d="M 1228 531 
L 3431 531 
L 3431 0 
L 469 0 
L 469 531 
Q 828 903 1448 1529 
Q 2069 2156 2228 2338 
Q 2531 2678 2651 2914 
Q 2772 3150 2772 3378 
Q 2772 3750 2511 3984 
Q 2250 4219 1831 4219 
Q 1534 4219 1204 4116 
Q 875 4013 500 3803 
L 500 4441 
Q 881 4594 1212 4672 
Q 1544 4750 1819 4750 
Q 2544 4750 2975 4387 
Q 3406 4025 3406 3419 
Q 3406 3131 3298 2873 
Q 3191 2616 2906 2266 
Q 2828 2175 2409 1742 
Q 1991 1309 1228 531 
z
" transform="scale(0.015625)"/>
       </defs>
       <use xlink:href="#DejaVuSans-15"/>
      </g>
     </g>
    </g>
    <g id="xtick_3">
     <g id="line2d_5">
      <path d="M 292.61546 222.319648 
L 292.61546 42.006328 
" clip-path="url(#p4a1663ac4a)" style="fill: none; stroke: #b0b0b0; stroke-opacity: 0.25; stroke-width: 0.8; stroke-linecap: square"/>
     </g>
     <g id="line2d_6">
      <g>
       <use xlink:href="#m8a4fe9aeb6" x="292.61546" y="222.319648" style="stroke: #000000; stroke-width: 0.8"/>
      </g>
     </g>
     <g id="text_3">
      <!-- 4 -->
      <g transform="translate(289.43421 236.917305) scale(0.1 -0.1)">
       <defs>
        <path id="DejaVuSans-17" d="M 2419 4116 
L 825 1625 
L 2419 1625 
L 2419 4116 
z
M 2253 4666 
L 3047 4666 
L 3047 1625 
L 3713 1625 
L 3713 1100 
L 3047 1100 
L 3047 0 
L 2419 0 
L 2419 1100 
L 313 1100 
L 313 1709 
L 2253 4666 
z
" transform="scale(0.015625)"/>
       </defs>
       <use xlink:href="#DejaVuSans-17"/>
      </g>
     </g>
    </g>
    <g id="xtick_4">
     <g id="line2d_7">
      <path d="M 395.91298 222.319648 
L 395.91298 42.006328 
" clip-path="url(#p4a1663ac4a)" style="fill: none; stroke: #b0b0b0; stroke-opacity: 0.25; stroke-width: 0.8; stroke-linecap: square"/>
     </g>
     <g id="line2d_8">
      <g>
       <use xlink:href="#m8a4fe9aeb6" x="395.91298" y="222.319648" style="stroke: #000000; stroke-width: 0.8"/>
      </g>
     </g>
     <g id="text_4">
      <!-- 6 -->
      <g transform="translate(392.73173 236.917305) scale(0.1 -0.1)">
       <defs>
        <path id="DejaVuSans-19" d="M 2113 2584 
Q 1688 2584 1439 2293 
Q 1191 2003 1191 1497 
Q 1191 994 1439 701 
Q 1688 409 2113 409 
Q 2538 409 2786 701 
Q 3034 994 3034 1497 
Q 3034 2003 2786 2293 
Q 2538 2584 2113 2584 
z
M 3366 4563 
L 3366 3988 
Q 3128 4100 2886 4159 
Q 2644 4219 2406 4219 
Q 1781 4219 1451 3797 
Q 1122 3375 1075 2522 
Q 1259 2794 1537 2939 
Q 1816 3084 2150 3084 
Q 2853 3084 3261 2657 
Q 3669 2231 3669 1497 
Q 3669 778 3244 343 
Q 2819 -91 2113 -91 
Q 1303 -91 875 529 
Q 447 1150 447 2328 
Q 447 3434 972 4092 
Q 1497 4750 2381 4750 
Q 2619 4750 2861 4703 
Q 3103 4656 3366 4563 
z
" transform="scale(0.015625)"/>
       </defs>
       <use xlink:href="#DejaVuSans-19"/>
      </g>
     </g>
    </g>
    <g id="xtick_5">
     <g id="line2d_9">
      <path d="M 499.2105 222.319648 
L 499.2105 42.006328 
" clip-path="url(#p4a1663ac4a)" style="fill: none; stroke: #b0b0b0; stroke-opacity: 0.25; stroke-width: 0.8; stroke-linecap: square"/>
     </g>
     <g id="line2d_10">
      <g>
       <use xlink:href="#m8a4fe9aeb6" x="499.2105" y="222.319648" style="stroke: #000000; stroke-width: 0.8"/>
      </g>
     </g>
     <g id="text_5">
      <!-- 8 -->
      <g transform="translate(496.02925 236.917305) scale(0.1 -0.1)">
       <defs>
        <path id="DejaVuSans-1b" d="M 2034 2216 
Q 1584 2216 1326 1975 
Q 1069 1734 1069 1313 
Q 1069 891 1326 650 
Q 1584 409 2034 409 
Q 2484 409 2743 651 
Q 3003 894 3003 1313 
Q 3003 1734 2745 1975 
Q 2488 2216 2034 2216 
z
M 1403 2484 
Q 997 2584 770 2862 
Q 544 3141 544 3541 
Q 544 4100 942 4425 
Q 1341 4750 2034 4750 
Q 2731 4750 3128 4425 
Q 3525 4100 3525 3541 
Q 3525 3141 3298 2862 
Q 3072 2584 2669 2484 
Q 3125 2378 3379 2068 
Q 3634 1759 3634 1313 
Q 3634 634 3220 271 
Q 2806 -91 2034 -91 
Q 1263 -91 848 271 
Q 434 634 434 1313 
Q 434 1759 690 2068 
Q 947 2378 1403 2484 
z
M 1172 3481 
Q 1172 3119 1398 2916 
Q 1625 2713 2034 2713 
Q 2441 2713 2670 2916 
Q 2900 3119 2900 3481 
Q 2900 3844 2670 4047 
Q 2441 4250 2034 4250 
Q 1625 4250 1398 4047 
Q 1172 3844 1172 3481 
z
" transform="scale(0.015625)"/>
       </defs>
       <use xlink:href="#DejaVuSans-1b"/>
      </g>
     </g>
    </g>
    <g id="xtick_6">
     <g id="line2d_11">
      <path d="M 602.50802 222.319648 
L 602.50802 42.006328 
" clip-path="url(#p4a1663ac4a)" style="fill: none; stroke: #b0b0b0; stroke-opacity: 0.25; stroke-width: 0.8; stroke-linecap: square"/>
     </g>
     <g id="line2d_12">
      <g>
       <use xlink:href="#m8a4fe9aeb6" x="602.50802" y="222.319648" style="stroke: #000000; stroke-width: 0.8"/>
      </g>
     </g>
     <g id="text_6">
      <!-- 10 -->
      <g transform="translate(596.14552 236.917305) scale(0.1 -0.1)">
       <defs>
        <path id="DejaVuSans-14" d="M 794 531 
L 1825 531 
L 1825 4091 
L 703 3866 
L 703 4441 
L 1819 4666 
L 2450 4666 
L 2450 531 
L 3481 531 
L 3481 0 
L 794 0 
L 794 531 
z
" transform="scale(0.015625)"/>
       </defs>
       <use xlink:href="#DejaVuSans-14"/>
       <use xlink:href="#DejaVuSans-13" transform="translate(63.625 0)"/>
      </g>
     </g>
    </g>
    <g id="text_7">
     <!-- t [arb.] -->
     <g transform="translate(326.867578 250.918086) scale(0.1 -0.1)">
      <defs>
       <path id="DejaVuSans-57" d="M 1172 4494 
L 1172 3500 
L 2356 3500 
L 2356 3053 
L 1172 3053 
L 1172 1153 
Q 1172 725 1289 603 
Q 1406 481 1766 481 
L 2356 481 
L 2356 0 
L 1766 0 
Q 1100 0 847 248 
Q 594 497 594 1153 
L 594 3053 
L 172 3053 
L 172 3500 
L 594 3500 
L 594 4494 
L 1172 4494 
z
" transform="scale(0.015625)"/>
       <path id="DejaVuSans-3" transform="scale(0.015625)"/>
       <path id="DejaVuSans-3e" d="M 550 4863 
L 1875 4863 
L 1875 4416 
L 1125 4416 
L 1125 -397 
L 1875 -397 
L 1875 -844 
L 550 -844 
L 550 4863 
z
" transform="scale(0.015625)"/>
       <path id="DejaVuSans-44" d="M 2194 1759 
Q 1497 1759 1228 1600 
Q 959 1441 959 1056 
Q 959 750 1161 570 
Q 1363 391 1709 391 
Q 2188 391 2477 730 
Q 2766 1069 2766 1631 
L 2766 1759 
L 2194 1759 
z
M 3341 1997 
L 3341 0 
L 2766 0 
L 2766 531 
Q 2569 213 2275 61 
Q 1981 -91 1556 -91 
Q 1019 -91 701 211 
Q 384 513 384 1019 
Q 384 1609 779 1909 
Q 1175 2209 1959 2209 
L 2766 2209 
L 2766 2266 
Q 2766 2663 2505 2880 
Q 2244 3097 1772 3097 
Q 1472 3097 1187 3025 
Q 903 2953 641 2809 
L 641 3341 
Q 956 3463 1253 3523 
Q 1550 3584 1831 3584 
Q 2591 3584 2966 3190 
Q 3341 2797 3341 1997 
z
" transform="scale(0.015625)"/>
       <path id="DejaVuSans-55" d="M 2631 2963 
Q 2534 3019 2420 3045 
Q 2306 3072 2169 3072 
Q 1681 3072 1420 2755 
Q 1159 2438 1159 1844 
L 1159 0 
L 581 0 
L 581 3500 
L 1159 3500 
L 1159 2956 
Q 1341 3275 1631 3429 
Q 1922 3584 2338 3584 
Q 2397 3584 2469 3576 
Q 2541 3569 2628 3553 
L 2631 2963 
z
" transform="scale(0.015625)"/>
       <path id="DejaVuSans-45" d="M 3116 1747 
Q 3116 2381 2855 2742 
Q 2594 3103 2138 3103 
Q 1681 3103 1420 2742 
Q 1159 2381 1159 1747 
Q 1159 1113 1420 752 
Q 1681 391 2138 391 
Q 2594 391 2855 752 
Q 3116 1113 3116 1747 
z
M 1159 2969 
Q 1341 3281 1617 3432 
Q 1894 3584 2278 3584 
Q 2916 3584 3314 3078 
Q 3713 2572 3713 1747 
Q 3713 922 3314 415 
Q 2916 -91 2278 -91 
Q 1894 -91 1617 61 
Q 1341 213 1159 525 
L 1159 0 
L 581 0 
L 581 4863 
L 1159 4863 
L 1159 2969 
z
" transform="scale(0.015625)"/>
       <path id="DejaVuSans-11" d="M 684 794 
L 1344 794 
L 1344 0 
L 684 0 
L 684 794 
z
" transform="scale(0.015625)"/>
       <path id="DejaVuSans-40" d="M 1947 4863 
L 1947 -844 
L 622 -844 
L 622 -397 
L 1369 -397 
L 1369 4416 
L 622 4416 
L 622 4863 
L 1947 4863 
z
" transform="scale(0.015625)"/>
      </defs>
      <use xlink:href="#DejaVuSans-57"/>
      <use xlink:href="#DejaVuSans-3" transform="translate(39.203125 0)"/>
      <use xlink:href="#DejaVuSans-3e" transform="translate(70.984375 0)"/>
      <use xlink:href="#DejaVuSans-44" transform="translate(110 0)"/>
      <use xlink:href="#DejaVuSans-55" transform="translate(171.28125 0)"/>
      <use xlink:href="#DejaVuSans-45" transform="translate(212.390625 0)"/>
      <use xlink:href="#DejaVuSans-11" transform="translate(275.875 0)"/>
      <use xlink:href="#DejaVuSans-40" transform="translate(307.65625 0)"/>
     </g>
    </g>
   </g>
   <g id="matplotlib.axis_2">
    <g id="ytick_1">
     <g id="line2d_13">
      <path d="M 60.202344 216.99922 
L 628.2 216.99922 
" clip-path="url(#p4a1663ac4a)" style="fill: none; stroke: #b0b0b0; stroke-opacity: 0.25; stroke-width: 0.8; stroke-linecap: square"/>
     </g>
     <g id="line2d_14">
      <defs>
       <path id="m8c601f985a" d="M 0 0 
L -3.5 0 
" style="stroke: #000000; stroke-width: 0.8"/>
      </defs>
      <g>
       <use xlink:href="#m8c601f985a" x="60.202344" y="216.99922" style="stroke: #000000; stroke-width: 0.8"/>
      </g>
     </g>
     <g id="text_8">
      <!-- −1.5 -->
      <g transform="translate(28.919531 220.798049) scale(0.1 -0.1)">
       <defs>
        <path id="DejaVuSans-c9c" d="M 678 2272 
L 4684 2272 
L 4684 1741 
L 678 1741 
L 678 2272 
z
" transform="scale(0.015625)"/>
        <path id="DejaVuSans-18" d="M 691 4666 
L 3169 4666 
L 3169 4134 
L 1269 4134 
L 1269 2991 
Q 1406 3038 1543 3061 
Q 1681 3084 1819 3084 
Q 2600 3084 3056 2656 
Q 3513 2228 3513 1497 
Q 3513 744 3044 326 
Q 2575 -91 1722 -91 
Q 1428 -91 1123 -41 
Q 819 9 494 109 
L 494 744 
Q 775 591 1075 516 
Q 1375 441 1709 441 
Q 2250 441 2565 725 
Q 2881 1009 2881 1497 
Q 2881 1984 2565 2268 
Q 2250 2553 1709 2553 
Q 1456 2553 1204 2497 
Q 953 2441 691 2322 
L 691 4666 
z
" transform="scale(0.015625)"/>
       </defs>
       <use xlink:href="#DejaVuSans-c9c"/>
       <use xlink:href="#DejaVuSans-14" transform="translate(83.796875 0)"/>
       <use xlink:href="#DejaVuSans-11" transform="translate(147.421875 0)"/>
       <use xlink:href="#DejaVuSans-18" transform="translate(179.203125 0)"/>
      </g>
     </g>
    </g>
    <g id="ytick_2">
     <g id="line2d_15">
      <path d="M 60.202344 188.720476 
L 628.2 188.720476 
" clip-path="url(#p4a1663ac4a)" style="fill: none; stroke: #b0b0b0; stroke-opacity: 0.25; stroke-width: 0.8; stroke-linecap: square"/>
     </g>
     <g id="line2d_16">
      <g>
       <use xlink:href="#m8c601f985a" x="60.202344" y="188.720476" style="stroke: #000000; stroke-width: 0.8"/>
      </g>
     </g>
     <g id="text_9">
      <!-- −1.0 -->
      <g transform="translate(28.919531 192.519304) scale(0.1 -0.1)">
       <use xlink:href="#DejaVuSans-c9c"/>
       <use xlink:href="#DejaVuSans-14" transform="translate(83.796875 0)"/>
       <use xlink:href="#DejaVuSans-11" transform="translate(147.421875 0)"/>
       <use xlink:href="#DejaVuSans-13" transform="translate(179.203125 0)"/>
      </g>
     </g>
    </g>
    <g id="ytick_3">
     <g id="line2d_17">
      <path d="M 60.202344 160.441732 
L 628.2 160.441732 
" clip-path="url(#p4a1663ac4a)" style="fill: none; stroke: #b0b0b0; stroke-opacity: 0.25; stroke-width: 0.8; stroke-linecap: square"/>
     </g>
     <g id="line2d_18">
      <g>
       <use xlink:href="#m8c601f985a" x="60.202344" y="160.441732" style="stroke: #000000; stroke-width: 0.8"/>
      </g>
     </g>
     <g id="text_10">
      <!-- −0.5 -->
      <g transform="translate(28.919531 164.24056) scale(0.1 -0.1)">
       <use xlink:href="#DejaVuSans-c9c"/>
       <use xlink:href="#DejaVuSans-13" transform="translate(83.796875 0)"/>
       <use xlink:href="#DejaVuSans-11" transform="translate(147.421875 0)"/>
       <use xlink:href="#DejaVuSans-18" transform="translate(179.203125 0)"/>
      </g>
     </g>
    </g>
    <g id="ytick_4">
     <g id="line2d_19">
      <path d="M 60.202344 132.162988 
L 628.2 132.162988 
" clip-path="url(#p4a1663ac4a)" style="fill: none; stroke: #b0b0b0; stroke-opacity: 0.25; stroke-width: 0.8; stroke-linecap: square"/>
     </g>
     <g id="line2d_20">
      <g>
       <use xlink:href="#m8c601f985a" x="60.202344" y="132.162988" style="stroke: #000000; stroke-width: 0.8"/>
      </g>
     </g>
     <g id="text_11">
      <!-- 0.0 -->
      <g transform="translate(37.299219 135.961816) scale(0.1 -0.1)">
       <use xlink:href="#DejaVuSans-13"/>
       <use xlink:href="#DejaVuSans-11" transform="translate(63.625 0)"/>
       <use xlink:href="#DejaVuSans-13" transform="translate(95.40625 0)"/>
      </g>
     </g>
    </g>
    <g id="ytick_5">
     <g id="line2d_21">
      <path d="M 60.202344 103.884243 
L 628.2 103.884243 
" clip-path="url(#p4a1663ac4a)" style="fill: none; stroke: #b0b0b0; stroke-opacity: 0.25; stroke-width: 0.8; stroke-linecap: square"/>
     </g>
     <g id="line2d_22">
      <g>
       <use xlink:href="#m8c601f985a" x="60.202344" y="103.884243" style="stroke: #000000; stroke-width: 0.8"/>
      </g>
     </g>
     <g id="text_12">
      <!-- 0.5 -->
      <g transform="translate(37.299219 107.683072) scale(0.1 -0.1)">
       <use xlink:href="#DejaVuSans-13"/>
       <use xlink:href="#DejaVuSans-11" transform="translate(63.625 0)"/>
       <use xlink:href="#DejaVuSans-18" transform="translate(95.40625 0)"/>
      </g>
     </g>
    </g>
    <g id="ytick_6">
     <g id="line2d_23">
      <path d="M 60.202344 75.605499 
L 628.2 75.605499 
" clip-path="url(#p4a1663ac4a)" style="fill: none; stroke: #b0b0b0; stroke-opacity: 0.25; stroke-width: 0.8; stroke-linecap: square"/>
     </g>
     <g id="line2d_24">
      <g>
       <use xlink:href="#m8c601f985a" x="60.202344" y="75.605499" style="stroke: #000000; stroke-width: 0.8"/>
      </g>
     </g>
     <g id="text_13">
      <!-- 1.0 -->
      <g transform="translate(37.299219 79.404327) scale(0.1 -0.1)">
       <use xlink:href="#DejaVuSans-14"/>
       <use xlink:href="#DejaVuSans-11" transform="translate(63.625 0)"/>
       <use xlink:href="#DejaVuSans-13" transform="translate(95.40625 0)"/>
      </g>
     </g>
    </g>
    <g id="ytick_7">
     <g id="line2d_25">
      <path d="M 60.202344 47.326755 
L 628.2 47.326755 
" clip-path="url(#p4a1663ac4a)" style="fill: none; stroke: #b0b0b0; stroke-opacity: 0.25; stroke-width: 0.8; stroke-linecap: square"/>
     </g>
     <g id="line2d_26">
      <g>
       <use xlink:href="#m8c601f985a" x="60.202344" y="47.326755" style="stroke: #000000; stroke-width: 0.8"/>
      </g>
     </g>
     <g id="text_14">
      <!-- 1.5 -->
      <g transform="translate(37.299219 51.125583) scale(0.1 -0.1)">
       <use xlink:href="#DejaVuSans-14"/>
       <use xlink:href="#DejaVuSans-11" transform="translate(63.625 0)"/>
       <use xlink:href="#DejaVuSans-18" transform="translate(95.40625 0)"/>
      </g>
     </g>
    </g>
    <g id="text_15">
     <!-- [arb.] -->
     <g transform="translate(22.517188 145.947363) rotate(-90) scale(0.1 -0.1)">
      <use xlink:href="#DejaVuSans-3e"/>
      <use xlink:href="#DejaVuSans-44" transform="translate(39.015625 0)"/>
      <use xlink:href="#DejaVuSans-55" transform="translate(100.296875 0)"/>
      <use xlink:href="#DejaVuSans-45" transform="translate(141.40625 0)"/>
      <use xlink:href="#DejaVuSans-11" transform="translate(204.890625 0)"/>
      <use xlink:href="#DejaVuSans-40" transform="translate(236.671875 0)"/>
     </g>
    </g>
   </g>
   <g id="line2d_27">
    <path d="M 86.020419 132.162988 
L 90.433765 101.769415 
L 92.829582 86.826668 
L 94.721016 76.358224 
L 96.360259 68.470559 
L 97.74731 62.779702 
L 99.008266 58.461643 
L 100.143127 55.315849 
L 101.151892 53.133992 
L 102.034561 51.712938 
L 102.791135 50.864136 
L 103.547708 50.360037 
L 104.178186 50.204856 
L 104.808664 50.291019 
L 105.439142 50.618273 
L 106.06962 51.185655 
L 106.826194 52.181078 
L 107.708863 53.770639 
L 108.717628 56.140521 
L 109.726393 59.083279 
L 110.861253 63.050875 
L 112.248305 68.790819 
L 113.761452 76.07854 
L 115.526791 85.77221 
L 117.54432 98.145729 
L 120.192328 115.87602 
L 128.388543 171.851114 
L 130.406072 183.645575 
L 132.171411 192.706192 
L 133.684558 199.368885 
L 135.07161 204.47855 
L 136.20647 207.896109 
L 137.215235 210.328536 
L 138.097904 211.974242 
L 138.980573 213.159412 
L 139.737147 213.803466 
L 140.367625 214.075829 
L 140.998103 214.10698 
L 141.628581 213.896828 
L 142.259059 213.445992 
L 143.015633 212.589205 
L 143.772206 211.391415 
L 144.654876 209.569856 
L 145.663641 206.941875 
L 146.798501 203.312983 
L 148.059457 198.486875 
L 149.446509 192.278973 
L 151.085752 183.846443 
L 152.977186 172.851716 
L 155.246907 158.265097 
L 158.651488 134.707256 
L 163.443121 101.654083 
L 165.838937 86.723231 
L 167.730372 76.267306 
L 169.369614 68.39245 
L 170.756666 62.713655 
L 172.017622 58.407383 
L 173.152483 55.272746 
L 174.161247 53.101156 
L 175.043917 51.689291 
L 175.80049 50.848475 
L 176.557064 50.35243 
L 177.187542 50.203986 
L 177.81802 50.296889 
L 178.448498 50.630865 
L 179.078976 51.204932 
L 179.83555 52.208302 
L 180.718219 53.806984 
L 181.726984 56.187031 
L 182.861844 59.547869 
L 184.1228 64.092631 
L 185.509852 70.014916 
L 187.022999 77.481593 
L 188.788338 87.35381 
L 190.931963 100.706178 
L 193.706066 119.500557 
L 200.76742 168.014466 
L 202.911046 180.928924 
L 204.676384 190.338834 
L 206.189531 197.344688 
L 207.576583 202.799196 
L 208.837539 206.886816 
L 209.9724 209.814846 
L 210.981164 211.796626 
L 211.863834 213.038823 
L 212.620407 213.732324 
L 213.250885 214.046131 
L 213.881363 214.118815 
L 214.511841 213.95016 
L 215.142319 213.540665 
L 215.898893 212.733107 
L 216.655467 211.583936 
L 217.538136 209.818055 
L 218.546901 207.251932 
L 219.681761 203.689816 
L 220.942717 198.933663 
L 222.329769 192.796606 
L 223.969012 184.438228 
L 225.860446 173.514361 
L 228.130167 158.989505 
L 231.408653 136.36087 
L 236.452477 101.538821 
L 238.848293 86.619899 
L 240.739727 76.176517 
L 242.37897 68.314488 
L 243.766022 62.647767 
L 245.026978 58.353291 
L 246.161838 55.22982 
L 247.170603 53.068501 
L 248.053272 51.665828 
L 248.809846 50.833002 
L 249.56642 50.34501 
L 250.196898 50.203304 
L 250.827376 50.302946 
L 251.457854 50.643645 
L 252.088332 51.224396 
L 252.844905 52.235708 
L 253.727575 53.843509 
L 254.73634 56.233715 
L 255.8712 59.605559 
L 257.132156 64.161899 
L 258.519208 70.095974 
L 260.032355 77.574191 
L 261.797693 87.457877 
L 263.941319 100.820924 
L 266.841518 120.503186 
L 273.65068 167.324614 
L 275.794306 180.311623 
L 277.559644 189.79715 
L 279.198887 197.419923 
L 280.585939 202.862121 
L 281.846895 206.937767 
L 282.981755 209.854504 
L 283.99052 211.825925 
L 284.873189 213.058874 
L 285.629763 213.744354 
L 286.260241 214.051437 
L 286.890719 214.11738 
L 287.521197 213.941989 
L 288.151675 213.525782 
L 288.908249 212.71023 
L 289.664822 211.553161 
L 290.547492 209.778233 
L 291.556256 207.202055 
L 292.691117 203.62908 
L 293.952073 198.861545 
L 295.339125 192.712954 
L 296.978368 184.342491 
L 298.869802 173.407059 
L 301.139523 158.872093 
L 304.418008 136.236804 
L 309.461832 101.423629 
L 311.857649 86.516671 
L 313.749083 76.085856 
L 315.388326 68.236672 
L 316.775378 62.582039 
L 318.036334 58.29937 
L 319.171194 55.187071 
L 320.179959 53.036028 
L 321.062628 51.642551 
L 321.819202 50.817715 
L 322.44968 50.393712 
L 323.080158 50.210499 
L 323.710636 50.268613 
L 324.341114 50.567883 
L 324.971592 51.10743 
L 325.728166 52.069763 
L 326.610835 53.621324 
L 327.493504 55.626095 
L 328.502269 58.457255 
L 329.637129 62.304983 
L 330.898085 67.359705 
L 332.411233 74.426326 
L 334.050476 83.181501 
L 336.068005 95.273653 
L 338.589917 111.903579 
L 343.633742 147.191217 
L 346.660036 167.436785 
L 348.803661 180.412097 
L 350.569 189.885407 
L 352.208243 197.495008 
L 353.595295 202.924883 
L 354.856251 206.988547 
L 355.991111 209.893984 
L 356.999876 211.855041 
L 357.882545 213.078739 
L 358.639119 213.756197 
L 359.269597 214.056554 
L 359.900075 214.115757 
L 360.530553 213.933631 
L 361.161031 213.510712 
L 361.917604 212.687167 
L 362.674178 211.522203 
L 363.556847 209.738232 
L 364.565612 207.152005 
L 365.700473 203.56818 
L 366.961429 198.789274 
L 368.34848 192.629162 
L 369.987723 184.246634 
L 371.879157 173.299662 
L 374.148878 158.754619 
L 377.427364 136.112729 
L 382.471188 101.308508 
L 384.867005 86.413548 
L 386.758439 75.995324 
L 388.397682 68.159003 
L 389.784733 62.516471 
L 391.045689 58.245618 
L 392.18055 55.144498 
L 393.189315 53.003737 
L 394.071984 51.619458 
L 394.828558 50.802615 
L 395.459036 50.385323 
L 396.089514 50.208845 
L 396.719992 50.273699 
L 397.35047 50.579696 
L 397.980948 51.125933 
L 398.737521 52.096221 
L 399.620191 53.656919 
L 400.50286 55.670621 
L 401.511625 58.511671 
L 402.646485 62.370032 
L 403.907441 67.435835 
L 405.420588 74.514561 
L 407.059831 83.281157 
L 409.077361 95.384626 
L 411.599273 112.023972 
L 416.895289 149.058216 
L 419.795488 168.349222 
L 421.939113 181.227948 
L 423.704451 190.600742 
L 425.217599 197.569942 
L 426.60465 202.987483 
L 427.865606 207.039155 
L 429.000467 209.933285 
L 430.009232 211.883974 
L 430.891901 213.098419 
L 431.648474 213.767852 
L 432.278953 214.061483 
L 432.909431 214.113945 
L 433.539909 213.925084 
L 434.170387 213.495455 
L 434.92696 212.663919 
L 435.683534 211.491063 
L 436.566203 209.698054 
L 437.574968 207.101784 
L 438.709828 203.507115 
L 439.970784 198.71685 
L 441.357836 192.545232 
L 442.997079 184.150658 
L 444.888513 173.192171 
L 447.158234 158.637084 
L 450.43672 135.988644 
L 455.480544 101.193458 
L 457.87636 86.31053 
L 459.767795 75.904921 
L 461.407037 68.081481 
L 462.794089 62.451063 
L 464.055045 58.192035 
L 465.189906 55.102102 
L 466.19867 52.971628 
L 467.08134 51.596551 
L 467.837913 50.787702 
L 468.468391 50.377122 
L 469.098869 50.20738 
L 469.729347 50.278974 
L 470.359825 50.591695 
L 470.990303 51.144622 
L 471.746877 52.122863 
L 472.629546 53.692694 
L 473.512216 55.715323 
L 474.52098 58.566257 
L 475.655841 62.435241 
L 476.916797 67.512115 
L 478.429944 74.602929 
L 480.069187 83.380926 
L 482.086717 95.495683 
L 484.608629 112.144411 
L 494.065799 176.207714 
L 495.957233 186.829435 
L 497.596476 194.874461 
L 499.109624 201.197432 
L 500.37058 205.577115 
L 501.50544 208.781283 
L 502.514205 211.016878 
L 503.396874 212.486049 
L 504.153448 213.376688 
L 504.910021 213.922985 
L 505.540499 214.113478 
L 506.170978 214.062649 
L 506.801456 213.770647 
L 507.431934 213.238333 
L 508.188507 212.284601 
L 509.071176 210.742918 
L 509.953846 208.747805 
L 510.962611 205.927341 
L 512.097471 202.091114 
L 513.358427 197.048382 
L 514.871574 189.994862 
L 516.510817 181.252053 
L 518.528347 169.172161 
L 521.050259 152.552459 
L 525.967988 118.142436 
L 529.120378 97.010424 
L 531.264003 84.022471 
L 533.155437 73.906761 
L 534.668584 66.912123 
L 536.055636 61.46893 
L 537.316592 57.392316 
L 538.451453 54.474667 
L 539.460217 52.502409 
L 540.342887 51.268714 
L 541.09946 50.582586 
L 541.729938 50.27496 
L 542.360416 50.208473 
L 542.990894 50.383319 
L 543.621372 50.798985 
L 544.377946 51.613891 
L 545.13452 52.770322 
L 546.017189 54.54452 
L 547.025954 57.119886 
L 548.160814 60.691985 
L 549.42177 65.458601 
L 550.808822 71.606261 
L 552.448065 79.975749 
L 554.339499 90.910247 
L 556.60922 105.444398 
L 559.887706 128.079152 
L 564.93153 162.893046 
L 567.327346 177.800972 
L 569.21878 188.232802 
L 570.858023 196.083025 
L 572.245075 201.738634 
L 573.506031 206.022257 
L 574.640891 209.135459 
L 575.649656 211.287331 
L 576.532326 212.681552 
L 577.288899 213.507033 
L 577.919377 213.931577 
L 578.549855 214.115335 
L 579.180333 214.057765 
L 579.810811 213.759038 
L 580.441289 213.220032 
L 581.197863 212.258341 
L 582.080532 210.707518 
L 582.963201 208.703469 
L 583.971966 205.873107 
L 585.106827 202.026239 
L 586.367783 196.972412 
L 587.88093 189.90677 
L 589.520173 181.152518 
L 591.537703 169.06128 
L 594.059615 152.432117 
L 599.103439 117.14462 
L 602.129734 96.898246 
L 602.381925 95.300532 
L 602.381925 95.300532 
" clip-path="url(#p4a1663ac4a)" style="fill: none; stroke: #1f77b4; stroke-width: 1.5; stroke-linecap: square"/>
   </g>
   <g id="line2d_28">
    <path d="M 86.020419 132.162988 
L 89.046714 132.047582 
L 92.199104 131.693177 
L 95.603685 131.078388 
L 99.76484 130.089585 
L 111.113445 127.26167 
L 114.39193 126.747526 
L 117.418225 126.499172 
L 120.192328 126.490589 
L 122.966432 126.704658 
L 125.740535 127.141645 
L 128.640734 127.823661 
L 131.793124 128.794103 
L 135.575992 130.20155 
L 142.132964 132.936463 
L 147.176788 134.93015 
L 150.707465 136.091146 
L 153.733759 136.860026 
L 156.633958 137.364988 
L 159.408062 137.618642 
L 162.182165 137.644703 
L 164.956268 137.452356 
L 167.982563 137.018331 
L 171.387144 136.301381 
L 175.926586 135.099671 
L 184.753278 132.720938 
L 188.283955 132.028672 
L 191.436345 131.632233 
L 194.46264 131.480088 
L 197.362839 131.555545 
L 200.389133 131.860147 
L 203.667619 132.425024 
L 207.450487 133.317997 
L 213.250885 134.957562 
L 219.051283 136.528836 
L 222.58196 137.261769 
L 225.73435 137.688355 
L 228.634549 137.851833 
L 231.408653 137.783488 
L 234.182756 137.489947 
L 237.082955 136.950119 
L 240.109249 136.156804 
L 243.639926 134.988166 
L 248.305464 133.184469 
L 256.627774 129.938602 
L 260.158451 128.822798 
L 263.184745 128.087343 
L 266.084944 127.609793 
L 268.859047 127.378157 
L 271.633151 127.370065 
L 274.53335 127.590593 
L 277.559644 128.04427 
L 281.090321 128.806224 
L 285.881954 130.089717 
L 293.699882 132.18633 
L 297.356654 132.91279 
L 300.509044 133.314758 
L 303.409243 133.46911 
L 306.309442 133.40388 
L 309.209641 133.121156 
L 312.362031 132.586735 
L 315.892708 131.755221 
L 320.558246 130.410298 
L 328.880556 127.986229 
L 332.411233 127.214011 
L 335.437527 126.770639 
L 338.337726 126.571979 
L 341.11183 126.607469 
L 343.885933 126.868258 
L 346.786132 127.373235 
L 349.812426 128.128768 
L 353.343103 129.250649 
L 358.134736 131.036146 
L 366.078759 134.014159 
L 369.609436 135.086687 
L 372.761827 135.813354 
L 375.662026 136.252687 
L 378.436129 136.450541 
L 381.210232 136.428093 
L 384.110431 136.179639 
L 387.262821 135.677533 
L 390.919594 134.855244 
L 396.215609 133.403198 
L 402.772581 131.644859 
L 406.429353 130.900047 
L 409.581743 130.480424 
L 412.481942 130.310325 
L 415.382141 130.362236 
L 418.28234 130.636011 
L 421.308635 131.142249 
L 424.713216 131.94053 
L 429.000467 133.188055 
L 439.340306 136.293773 
L 442.744888 137.023313 
L 445.771182 137.445295 
L 448.545286 137.614533 
L 451.319389 137.561158 
L 454.093492 137.283547 
L 456.993691 136.765298 
L 460.146081 135.967879 
L 463.802854 134.802552 
L 469.351061 132.763358 
L 475.529745 130.55233 
L 479.186518 129.487195 
L 482.338908 128.802404 
L 485.239107 128.400034 
L 488.01321 128.235564 
L 490.787314 128.288935 
L 493.687513 128.566536 
L 496.839903 129.09604 
L 500.496675 129.943809 
L 506.044882 131.492255 
L 512.223567 133.15542 
L 515.880339 133.902533 
L 519.032729 134.320859 
L 521.932928 134.48696 
L 524.833127 134.428251 
L 527.733326 134.144787 
L 530.759621 133.625276 
L 534.164202 132.808154 
L 538.451453 131.531045 
L 549.043483 128.264454 
L 552.448065 127.514641 
L 555.474359 127.076261 
L 558.248463 126.892596 
L 561.022566 126.931361 
L 563.796669 127.193412 
L 566.696868 127.69357 
L 569.849258 128.468328 
L 573.506031 129.602469 
L 579.306429 131.6749 
L 585.106827 133.673684 
L 588.763599 134.693812 
L 591.915989 135.340047 
L 594.816188 135.707791 
L 597.590292 135.840464 
L 600.364395 135.757123 
L 602.381925 135.566428 
L 602.381925 135.566428 
" clip-path="url(#p4a1663ac4a)" style="fill: none; stroke: #ff7f0e; stroke-width: 1.5; stroke-linecap: square"/>
   </g>
   <g id="patch_3">
    <path d="M 60.202344 222.319648 
L 60.202344 42.006328 
" style="fill: none; stroke: #000000; stroke-width: 0.8; stroke-linejoin: miter; stroke-linecap: square"/>
   </g>
   <g id="patch_4">
    <path d="M 628.2 222.319648 
L 628.2 42.006328 
" style="fill: none; stroke: #000000; stroke-width: 0.8; stroke-linejoin: miter; stroke-linecap: square"/>
   </g>
   <g id="patch_5">
    <path d="M 60.202344 222.319648 
L 628.2 222.319648 
" style="fill: none; stroke: #000000; stroke-width: 0.8; stroke-linejoin: miter; stroke-linecap: square"/>
   </g>
   <g id="patch_6">
    <path d="M 60.202344 42.006328 
L 628.2 42.006328 
" style="fill: none; stroke: #000000; stroke-width: 0.8; stroke-linejoin: miter; stroke-linecap: square"/>
   </g>
   <g id="text_16">
    <!-- Daily Useless RLC (2026-06-13) | verdict: feral -->
    <g transform="translate(205.117422 21.550547) scale(0.12 -0.12)">
     <defs>
      <path id="DejaVuSans-27" d="M 1259 4147 
L 1259 519 
L 2022 519 
Q 2988 519 3436 956 
Q 3884 1394 3884 2338 
Q 3884 3275 3436 3711 
Q 2988 4147 2022 4147 
L 1259 4147 
z
M 628 4666 
L 1925 4666 
Q 3281 4666 3915 4102 
Q 4550 3538 4550 2338 
Q 4550 1131 3912 565 
Q 3275 0 1925 0 
L 628 0 
L 628 4666 
z
" transform="scale(0.015625)"/>
      <path id="DejaVuSans-4c" d="M 603 3500 
L 1178 3500 
L 1178 0 
L 603 0 
L 603 3500 
z
M 603 4863 
L 1178 4863 
L 1178 4134 
L 603 4134 
L 603 4863 
z
" transform="scale(0.015625)"/>
      <path id="DejaVuSans-4f" d="M 603 4863 
L 1178 4863 
L 1178 0 
L 603 0 
L 603 4863 
z
" transform="scale(0.015625)"/>
      <path id="DejaVuSans-5c" d="M 2059 -325 
Q 1816 -950 1584 -1140 
Q 1353 -1331 966 -1331 
L 506 -1331 
L 506 -850 
L 844 -850 
Q 1081 -850 1212 -737 
Q 1344 -625 1503 -206 
L 1606 56 
L 191 3500 
L 800 3500 
L 1894 763 
L 2988 3500 
L 3597 3500 
L 2059 -325 
z
" transform="scale(0.015625)"/>
      <path id="DejaVuSans-38" d="M 556 4666 
L 1191 4666 
L 1191 1831 
Q 1191 1081 1462 751 
Q 1734 422 2344 422 
Q 2950 422 3222 751 
Q 3494 1081 3494 1831 
L 3494 4666 
L 4128 4666 
L 4128 1753 
Q 4128 841 3676 375 
Q 3225 -91 2344 -91 
Q 1459 -91 1007 375 
Q 556 841 556 1753 
L 556 4666 
z
" transform="scale(0.015625)"/>
      <path id="DejaVuSans-56" d="M 2834 3397 
L 2834 2853 
Q 2591 2978 2328 3040 
Q 2066 3103 1784 3103 
Q 1356 3103 1142 2972 
Q 928 2841 928 2578 
Q 928 2378 1081 2264 
Q 1234 2150 1697 2047 
L 1894 2003 
Q 2506 1872 2764 1633 
Q 3022 1394 3022 966 
Q 3022 478 2636 193 
Q 2250 -91 1575 -91 
Q 1294 -91 989 -36 
Q 684 19 347 128 
L 347 722 
Q 666 556 975 473 
Q 1284 391 1588 391 
Q 1994 391 2212 530 
Q 2431 669 2431 922 
Q 2431 1156 2273 1281 
Q 2116 1406 1581 1522 
L 1381 1569 
Q 847 1681 609 1914 
Q 372 2147 372 2553 
Q 372 3047 722 3315 
Q 1072 3584 1716 3584 
Q 2034 3584 2315 3537 
Q 2597 3491 2834 3397 
z
" transform="scale(0.015625)"/>
      <path id="DejaVuSans-48" d="M 3597 1894 
L 3597 1613 
L 953 1613 
Q 991 1019 1311 708 
Q 1631 397 2203 397 
Q 2534 397 2845 478 
Q 3156 559 3463 722 
L 3463 178 
Q 3153 47 2828 -22 
Q 2503 -91 2169 -91 
Q 1331 -91 842 396 
Q 353 884 353 1716 
Q 353 2575 817 3079 
Q 1281 3584 2069 3584 
Q 2775 3584 3186 3129 
Q 3597 2675 3597 1894 
z
M 3022 2063 
Q 3016 2534 2758 2815 
Q 2500 3097 2075 3097 
Q 1594 3097 1305 2825 
Q 1016 2553 972 2059 
L 3022 2063 
z
" transform="scale(0.015625)"/>
      <path id="DejaVuSans-35" d="M 2841 2188 
Q 3044 2119 3236 1894 
Q 3428 1669 3622 1275 
L 4263 0 
L 3584 0 
L 2988 1197 
Q 2756 1666 2539 1819 
Q 2322 1972 1947 1972 
L 1259 1972 
L 1259 0 
L 628 0 
L 628 4666 
L 2053 4666 
Q 2853 4666 3247 4331 
Q 3641 3997 3641 3322 
Q 3641 2881 3436 2590 
Q 3231 2300 2841 2188 
z
M 1259 4147 
L 1259 2491 
L 2053 2491 
Q 2509 2491 2742 2702 
Q 2975 2913 2975 3322 
Q 2975 3731 2742 3939 
Q 2509 4147 2053 4147 
L 1259 4147 
z
" transform="scale(0.015625)"/>
      <path id="DejaVuSans-2f" d="M 628 4666 
L 1259 4666 
L 1259 531 
L 3531 531 
L 3531 0 
L 628 0 
L 628 4666 
z
" transform="scale(0.015625)"/>
      <path id="DejaVuSans-26" d="M 4122 4306 
L 4122 3641 
Q 3803 3938 3442 4084 
Q 3081 4231 2675 4231 
Q 1875 4231 1450 3742 
Q 1025 3253 1025 2328 
Q 1025 1406 1450 917 
Q 1875 428 2675 428 
Q 3081 428 3442 575 
Q 3803 722 4122 1019 
L 4122 359 
Q 3791 134 3420 21 
Q 3050 -91 2638 -91 
Q 1578 -91 968 557 
Q 359 1206 359 2328 
Q 359 3453 968 4101 
Q 1578 4750 2638 4750 
Q 3056 4750 3426 4639 
Q 3797 4528 4122 4306 
z
" transform="scale(0.015625)"/>
      <path id="DejaVuSans-b" d="M 1984 4856 
Q 1566 4138 1362 3434 
Q 1159 2731 1159 2009 
Q 1159 1288 1364 580 
Q 1569 -128 1984 -844 
L 1484 -844 
Q 1016 -109 783 600 
Q 550 1309 550 2009 
Q 550 2706 781 3412 
Q 1013 4119 1484 4856 
L 1984 4856 
z
" transform="scale(0.015625)"/>
      <path id="DejaVuSans-10" d="M 313 2009 
L 1997 2009 
L 1997 1497 
L 313 1497 
L 313 2009 
z
" transform="scale(0.015625)"/>
      <path id="DejaVuSans-16" d="M 2597 2516 
Q 3050 2419 3304 2112 
Q 3559 1806 3559 1356 
Q 3559 666 3084 287 
Q 2609 -91 1734 -91 
Q 1441 -91 1130 -33 
Q 819 25 488 141 
L 488 750 
Q 750 597 1062 519 
Q 1375 441 1716 441 
Q 2309 441 2620 675 
Q 2931 909 2931 1356 
Q 2931 1769 2642 2001 
Q 2353 2234 1838 2234 
L 1294 2234 
L 1294 2753 
L 1863 2753 
Q 2328 2753 2575 2939 
Q 2822 3125 2822 3475 
Q 2822 3834 2567 4026 
Q 2313 4219 1838 4219 
Q 1578 4219 1281 4162 
Q 984 4106 628 3988 
L 628 4550 
Q 988 4650 1302 4700 
Q 1616 4750 1894 4750 
Q 2613 4750 3031 4423 
Q 3450 4097 3450 3541 
Q 3450 3153 3228 2886 
Q 3006 2619 2597 2516 
z
" transform="scale(0.015625)"/>
      <path id="DejaVuSans-c" d="M 513 4856 
L 1013 4856 
Q 1481 4119 1714 3412 
Q 1947 2706 1947 2009 
Q 1947 1309 1714 600 
Q 1481 -109 1013 -844 
L 513 -844 
Q 928 -128 1133 580 
Q 1338 1288 1338 2009 
Q 1338 2731 1133 3434 
Q 928 4138 513 4856 
z
" transform="scale(0.015625)"/>
      <path id="DejaVuSans-5f" d="M 1344 4891 
L 1344 -1509 
L 813 -1509 
L 813 4891 
L 1344 4891 
z
" transform="scale(0.015625)"/>
      <path id="DejaVuSans-59" d="M 191 3500 
L 800 3500 
L 1894 563 
L 2988 3500 
L 3597 3500 
L 2284 0 
L 1503 0 
L 191 3500 
z
" transform="scale(0.015625)"/>
      <path id="DejaVuSans-47" d="M 2906 2969 
L 2906 4863 
L 3481 4863 
L 3481 0 
L 2906 0 
L 2906 525 
Q 2725 213 2448 61 
Q 2172 -91 1784 -91 
Q 1150 -91 751 415 
Q 353 922 353 1747 
Q 353 2572 751 3078 
Q 1150 3584 1784 3584 
Q 2172 3584 2448 3432 
Q 2725 3281 2906 2969 
z
M 947 1747 
Q 947 1113 1208 752 
Q 1469 391 1925 391 
Q 2381 391 2643 752 
Q 2906 1113 2906 1747 
Q 2906 2381 2643 2742 
Q 2381 3103 1925 3103 
Q 1469 3103 1208 2742 
Q 947 2381 947 1747 
z
" transform="scale(0.015625)"/>
      <path id="DejaVuSans-46" d="M 3122 3366 
L 3122 2828 
Q 2878 2963 2633 3030 
Q 2388 3097 2138 3097 
Q 1578 3097 1268 2742 
Q 959 2388 959 1747 
Q 959 1106 1268 751 
Q 1578 397 2138 397 
Q 2388 397 2633 464 
Q 2878 531 3122 666 
L 3122 134 
Q 2881 22 2623 -34 
Q 2366 -91 2075 -91 
Q 1284 -91 818 406 
Q 353 903 353 1747 
Q 353 2603 823 3093 
Q 1294 3584 2113 3584 
Q 2378 3584 2631 3529 
Q 2884 3475 3122 3366 
z
" transform="scale(0.015625)"/>
      <path id="DejaVuSans-1d" d="M 750 794 
L 1409 794 
L 1409 0 
L 750 0 
L 750 794 
z
M 750 3309 
L 1409 3309 
L 1409 2516 
L 750 2516 
L 750 3309 
z
" transform="scale(0.015625)"/>
      <path id="DejaVuSans-49" d="M 2375 4863 
L 2375 4384 
L 1825 4384 
Q 1516 4384 1395 4259 
Q 1275 4134 1275 3809 
L 1275 3500 
L 2222 3500 
L 2222 3053 
L 1275 3053 
L 1275 0 
L 697 0 
L 697 3053 
L 147 3053 
L 147 3500 
L 697 3500 
L 697 3744 
Q 697 4328 969 4595 
Q 1241 4863 1831 4863 
L 2375 4863 
z
" transform="scale(0.015625)"/>
     </defs>
     <use xlink:href="#DejaVuSans-27"/>
     <use xlink:href="#DejaVuSans-44" transform="translate(77 0)"/>
     <use xlink:href="#DejaVuSans-4c" transform="translate(138.28125 0)"/>
     <use xlink:href="#DejaVuSans-4f" transform="translate(166.0625 0)"/>
     <use xlink:href="#DejaVuSans-5c" transform="translate(193.84375 0)"/>
     <use xlink:href="#DejaVuSans-3" transform="translate(253.03125 0)"/>
     <use xlink:href="#DejaVuSans-38" transform="translate(284.8125 0)"/>
     <use xlink:href="#DejaVuSans-56" transform="translate(358 0)"/>
     <use xlink:href="#DejaVuSans-48" transform="translate(410.09375 0)"/>
     <use xlink:href="#DejaVuSans-4f" transform="translate(471.625 0)"/>
     <use xlink:href="#DejaVuSans-48" transform="translate(499.40625 0)"/>
     <use xlink:href="#DejaVuSans-56" transform="translate(560.9375 0)"/>
     <use xlink:href="#DejaVuSans-56" transform="translate(613.03125 0)"/>
     <use xlink:href="#DejaVuSans-3" transform="translate(665.125 0)"/>
     <use xlink:href="#DejaVuSans-35" transform="translate(696.90625 0)"/>
     <use xlink:href="#DejaVuSans-2f" transform="translate(766.390625 0)"/>
     <use xlink:href="#DejaVuSans-26" transform="translate(822.109375 0)"/>
     <use xlink:href="#DejaVuSans-3" transform="translate(891.9375 0)"/>
     <use xlink:href="#DejaVuSans-b" transform="translate(923.71875 0)"/>
     <use xlink:href="#DejaVuSans-15" transform="translate(962.734375 0)"/>
     <use xlink:href="#DejaVuSans-13" transform="translate(1026.359375 0)"/>
     <use xlink:href="#DejaVuSans-15" transform="translate(1089.984375 0)"/>
     <use xlink:href="#DejaVuSans-19" transform="translate(1153.609375 0)"/>
     <use xlink:href="#DejaVuSans-10" transform="translate(1217.234375 0)"/>
     <use xlink:href="#DejaVuSans-13" transform="translate(1253.3125 0)"/>
     <use xlink:href="#DejaVuSans-19" transform="translate(1316.9375 0)"/>
     <use xlink:href="#DejaVuSans-10" transform="translate(1380.5625 0)"/>
     <use xlink:href="#DejaVuSans-14" transform="translate(1416.640625 0)"/>
     <use xlink:href="#DejaVuSans-16" transform="translate(1480.265625 0)"/>
     <use xlink:href="#DejaVuSans-c" transform="translate(1543.890625 0)"/>
     <use xlink:href="#DejaVuSans-3" transform="translate(1582.90625 0)"/>
     <use xlink:href="#DejaVuSans-5f" transform="translate(1614.6875 0)"/>
     <use xlink:href="#DejaVuSans-3" transform="translate(1648.375 0)"/>
     <use xlink:href="#DejaVuSans-59" transform="translate(1680.15625 0)"/>
     <use xlink:href="#DejaVuSans-48" transform="translate(1739.34375 0)"/>
     <use xlink:href="#DejaVuSans-55" transform="translate(1800.875 0)"/>
     <use xlink:href="#DejaVuSans-47" transform="translate(1840.234375 0)"/>
     <use xlink:href="#DejaVuSans-4c" transform="translate(1903.71875 0)"/>
     <use xlink:href="#DejaVuSans-46" transform="translate(1931.5 0)"/>
     <use xlink:href="#DejaVuSans-57" transform="translate(1986.484375 0)"/>
     <use xlink:href="#DejaVuSans-1d" transform="translate(2025.6875 0)"/>
     <use xlink:href="#DejaVuSans-3" transform="translate(2059.375 0)"/>
     <use xlink:href="#DejaVuSans-49" transform="translate(2091.15625 0)"/>
     <use xlink:href="#DejaVuSans-48" transform="translate(2126.359375 0)"/>
     <use xlink:href="#DejaVuSans-55" transform="translate(2187.890625 0)"/>
     <use xlink:href="#DejaVuSans-44" transform="translate(2229 0)"/>
     <use xlink:href="#DejaVuSans-4f" transform="translate(2290.28125 0)"/>
    </g>
    <!-- Filter: band | Input: sine, sine (A=1.45, f=0.71 Hz) | R=0.186, L=1.00, C=0.50, ωn=1.41, ζ=0.066, Q=7.59 -->
    <g transform="translate(22.396797 36.006328) scale(0.12 -0.12)">
     <defs>
      <path id="DejaVuSans-29" d="M 628 4666 
L 3309 4666 
L 3309 4134 
L 1259 4134 
L 1259 2759 
L 3109 2759 
L 3109 2228 
L 1259 2228 
L 1259 0 
L 628 0 
L 628 4666 
z
" transform="scale(0.015625)"/>
      <path id="DejaVuSans-51" d="M 3513 2113 
L 3513 0 
L 2938 0 
L 2938 2094 
Q 2938 2591 2744 2837 
Q 2550 3084 2163 3084 
Q 1697 3084 1428 2787 
Q 1159 2491 1159 1978 
L 1159 0 
L 581 0 
L 581 3500 
L 1159 3500 
L 1159 2956 
Q 1366 3272 1645 3428 
Q 1925 3584 2291 3584 
Q 2894 3584 3203 3211 
Q 3513 2838 3513 2113 
z
" transform="scale(0.015625)"/>
      <path id="DejaVuSans-2c" d="M 628 4666 
L 1259 4666 
L 1259 0 
L 628 0 
L 628 4666 
z
" transform="scale(0.015625)"/>
      <path id="DejaVuSans-53" d="M 1159 525 
L 1159 -1331 
L 581 -1331 
L 581 3500 
L 1159 3500 
L 1159 2969 
Q 1341 3281 1617 3432 
Q 1894 3584 2278 3584 
Q 2916 3584 3314 3078 
Q 3713 2572 3713 1747 
Q 3713 922 3314 415 
Q 2916 -91 2278 -91 
Q 1894 -91 1617 61 
Q 1341 213 1159 525 
z
M 3116 1747 
Q 3116 2381 2855 2742 
Q 2594 3103 2138 3103 
Q 1681 3103 1420 2742 
Q 1159 2381 1159 1747 
Q 1159 1113 1420 752 
Q 1681 391 2138 391 
Q 2594 391 2855 752 
Q 3116 1113 3116 1747 
z
" transform="scale(0.015625)"/>
      <path id="DejaVuSans-58" d="M 544 1381 
L 544 3500 
L 1119 3500 
L 1119 1403 
Q 1119 906 1312 657 
Q 1506 409 1894 409 
Q 2359 409 2629 706 
Q 2900 1003 2900 1516 
L 2900 3500 
L 3475 3500 
L 3475 0 
L 2900 0 
L 2900 538 
Q 2691 219 2414 64 
Q 2138 -91 1772 -91 
Q 1169 -91 856 284 
Q 544 659 544 1381 
z
M 1991 3584 
L 1991 3584 
z
" transform="scale(0.015625)"/>
      <path id="DejaVuSans-f" d="M 750 794 
L 1409 794 
L 1409 256 
L 897 -744 
L 494 -744 
L 750 256 
L 750 794 
z
" transform="scale(0.015625)"/>
      <path id="DejaVuSans-24" d="M 2188 4044 
L 1331 1722 
L 3047 1722 
L 2188 4044 
z
M 1831 4666 
L 2547 4666 
L 4325 0 
L 3669 0 
L 3244 1197 
L 1141 1197 
L 716 0 
L 50 0 
L 1831 4666 
z
" transform="scale(0.015625)"/>
      <path id="DejaVuSans-20" d="M 678 2906 
L 4684 2906 
L 4684 2381 
L 678 2381 
L 678 2906 
z
M 678 1631 
L 4684 1631 
L 4684 1100 
L 678 1100 
L 678 1631 
z
" transform="scale(0.015625)"/>
      <path id="DejaVuSans-1a" d="M 525 4666 
L 3525 4666 
L 3525 4397 
L 1831 0 
L 1172 0 
L 2766 4134 
L 525 4134 
L 525 4666 
z
" transform="scale(0.015625)"/>
      <path id="DejaVuSans-2b" d="M 628 4666 
L 1259 4666 
L 1259 2753 
L 3553 2753 
L 3553 4666 
L 4184 4666 
L 4184 0 
L 3553 0 
L 3553 2222 
L 1259 2222 
L 1259 0 
L 628 0 
L 628 4666 
z
" transform="scale(0.015625)"/>
      <path id="DejaVuSans-5d" d="M 353 3500 
L 3084 3500 
L 3084 2975 
L 922 459 
L 3084 459 
L 3084 0 
L 275 0 
L 275 525 
L 2438 3041 
L 353 3041 
L 353 3500 
z
" transform="scale(0.015625)"/>
      <path id="DejaVuSans-35d" d="M 1719 -91 
Q 422 -91 422 1766 
Q 422 2500 906 3500 
L 1525 3500 
Q 1078 2500 1078 1750 
Q 1078 397 1772 397 
Q 2406 397 2406 2078 
L 2938 2078 
Q 2938 397 3572 397 
Q 4266 397 4266 1750 
Q 4266 2500 3819 3500 
L 4438 3500 
Q 4922 2500 4922 1766 
Q 4922 -91 3625 -91 
Q 2775 -91 2672 844 
Q 2544 -91 1719 -91 
z
" transform="scale(0.015625)"/>
      <path id="DejaVuSans-34a" d="M 2231 397 
Q 2644 394 2891 159 
Q 3153 -88 3153 -463 
Q 3153 -822 2922 -1072 
Q 2672 -1344 2163 -1344 
Q 2163 -1109 2163 -872 
Q 2378 -888 2509 -750 
Q 2609 -641 2609 -525 
Q 2609 -359 2509 -222 
Q 2413 -91 2231 -91 
Q 338 -91 334 1669 
Q 334 3206 2119 4284 
L 456 4284 
L 456 4863 
L 3175 4863 
L 3175 4284 
Q 913 3147 913 1669 
Q 913 397 2231 397 
z
" transform="scale(0.015625)"/>
      <path id="DejaVuSans-34" d="M 2522 4238 
Q 1834 4238 1429 3725 
Q 1025 3213 1025 2328 
Q 1025 1447 1429 934 
Q 1834 422 2522 422 
Q 3209 422 3611 934 
Q 4013 1447 4013 2328 
Q 4013 3213 3611 3725 
Q 3209 4238 2522 4238 
z
M 3406 84 
L 4238 -825 
L 3475 -825 
L 2784 -78 
Q 2681 -84 2626 -87 
Q 2572 -91 2522 -91 
Q 1538 -91 948 567 
Q 359 1225 359 2328 
Q 359 3434 948 4092 
Q 1538 4750 2522 4750 
Q 3503 4750 4090 4092 
Q 4678 3434 4678 2328 
Q 4678 1516 4351 937 
Q 4025 359 3406 84 
z
" transform="scale(0.015625)"/>
      <path id="DejaVuSans-1c" d="M 703 97 
L 703 672 
Q 941 559 1184 500 
Q 1428 441 1663 441 
Q 2288 441 2617 861 
Q 2947 1281 2994 2138 
Q 2813 1869 2534 1725 
Q 2256 1581 1919 1581 
Q 1219 1581 811 2004 
Q 403 2428 403 3163 
Q 403 3881 828 4315 
Q 1253 4750 1959 4750 
Q 2769 4750 3195 4129 
Q 3622 3509 3622 2328 
Q 3622 1225 3098 567 
Q 2575 -91 1691 -91 
Q 1453 -91 1209 -44 
Q 966 3 703 97 
z
M 1959 2075 
Q 2384 2075 2632 2365 
Q 2881 2656 2881 3163 
Q 2881 3666 2632 3958 
Q 2384 4250 1959 4250 
Q 1534 4250 1286 3958 
Q 1038 3666 1038 3163 
Q 1038 2656 1286 2365 
Q 1534 2075 1959 2075 
z
" transform="scale(0.015625)"/>
     </defs>
     <use xlink:href="#DejaVuSans-29"/>
     <use xlink:href="#DejaVuSans-4c" transform="translate(50.234375 0)"/>
     <use xlink:href="#DejaVuSans-4f" transform="translate(78.015625 0)"/>
     <use xlink:href="#DejaVuSans-57" transform="translate(105.796875 0)"/>
     <use xlink:href="#DejaVuSans-48" transform="translate(145 0)"/>
     <use xlink:href="#DejaVuSans-55" transform="translate(206.53125 0)"/>
     <use xlink:href="#DejaVuSans-1d" transform="translate(245.890625 0)"/>
     <use xlink:href="#DejaVuSans-3" transform="translate(279.578125 0)"/>
     <use xlink:href="#DejaVuSans-45" transform="translate(311.359375 0)"/>
     <use xlink:href="#DejaVuSans-44" transform="translate(374.84375 0)"/>
     <use xlink:href="#DejaVuSans-51" transform="translate(436.125 0)"/>
     <use xlink:href="#DejaVuSans-47" transform="translate(499.5 0)"/>
     <use xlink:href="#DejaVuSans-3" transform="translate(562.984375 0)"/>
     <use xlink:href="#DejaVuSans-5f" transform="translate(594.765625 0)"/>
     <use xlink:href="#DejaVuSans-3" transform="translate(628.453125 0)"/>
     <use xlink:href="#DejaVuSans-2c" transform="translate(660.234375 0)"/>
     <use xlink:href="#DejaVuSans-51" transform="translate(689.734375 0)"/>
     <use xlink:href="#DejaVuSans-53" transform="translate(753.109375 0)"/>
     <use xlink:href="#DejaVuSans-58" transform="translate(816.59375 0)"/>
     <use xlink:href="#DejaVuSans-57" transform="translate(879.96875 0)"/>
     <use xlink:href="#DejaVuSans-1d" transform="translate(919.171875 0)"/>
     <use xlink:href="#DejaVuSans-3" transform="translate(952.859375 0)"/>
     <use xlink:href="#DejaVuSans-56" transform="translate(984.640625 0)"/>
     <use xlink:href="#DejaVuSans-4c" transform="translate(1036.734375 0)"/>
     <use xlink:href="#DejaVuSans-51" transform="translate(1064.515625 0)"/>
     <use xlink:href="#DejaVuSans-48" transform="translate(1127.890625 0)"/>
     <use xlink:href="#DejaVuSans-f" transform="translate(1189.421875 0)"/>
     <use xlink:href="#DejaVuSans-3" transform="translate(1221.203125 0)"/>
     <use xlink:href="#DejaVuSans-56" transform="translate(1252.984375 0)"/>
     <use xlink:href="#DejaVuSans-4c" transform="translate(1305.078125 0)"/>
     <use xlink:href="#DejaVuSans-51" transform="translate(1332.859375 0)"/>
     <use xlink:href="#DejaVuSans-48" transform="translate(1396.234375 0)"/>
     <use xlink:href="#DejaVuSans-3" transform="translate(1457.765625 0)"/>
     <use xlink:href="#DejaVuSans-b" transform="translate(1489.546875 0)"/>
     <use xlink:href="#DejaVuSans-24" transform="translate(1528.5625 0)"/>
     <use xlink:href="#DejaVuSans-20" transform="translate(1596.96875 0)"/>
     <use xlink:href="#DejaVuSans-14" transform="translate(1680.765625 0)"/>
     <use xlink:href="#DejaVuSans-11" transform="translate(1744.390625 0)"/>
     <use xlink:href="#DejaVuSans-17" transform="translate(1776.171875 0)"/>
     <use xlink:href="#DejaVuSans-18" transform="translate(1839.796875 0)"/>
     <use xlink:href="#DejaVuSans-f" transform="translate(1903.421875 0)"/>
     <use xlink:href="#DejaVuSans-3" transform="translate(1935.203125 0)"/>
     <use xlink:href="#DejaVuSans-49" transform="translate(1966.984375 0)"/>
     <use xlink:href="#DejaVuSans-20" transform="translate(2002.1875 0)"/>
     <use xlink:href="#DejaVuSans-13" transform="translate(2085.984375 0)"/>
     <use xlink:href="#DejaVuSans-11" transform="translate(2149.609375 0)"/>
     <use xlink:href="#DejaVuSans-1a" transform="translate(2181.390625 0)"/>
     <use xlink:href="#DejaVuSans-14" transform="translate(2245.015625 0)"/>
     <use xlink:href="#DejaVuSans-3" transform="translate(2308.640625 0)"/>
     <use xlink:href="#DejaVuSans-2b" transform="translate(2340.421875 0)"/>
     <use xlink:href="#DejaVuSans-5d" transform="translate(2415.625 0)"/>
     <use xlink:href="#DejaVuSans-c" transform="translate(2468.109375 0)"/>
     <use xlink:href="#DejaVuSans-3" transform="translate(2507.125 0)"/>
     <use xlink:href="#DejaVuSans-5f" transform="translate(2538.90625 0)"/>
     <use xlink:href="#DejaVuSans-3" transform="translate(2572.59375 0)"/>
     <use xlink:href="#DejaVuSans-35" transform="translate(2604.375 0)"/>
     <use xlink:href="#DejaVuSans-20" transform="translate(2673.859375 0)"/>
     <use xlink:href="#DejaVuSans-13" transform="translate(2757.65625 0)"/>
     <use xlink:href="#DejaVuSans-11" transform="translate(2821.28125 0)"/>
     <use xlink:href="#DejaVuSans-14" transform="translate(2853.0625 0)"/>
     <use xlink:href="#DejaVuSans-1b" transform="translate(2916.6875 0)"/>
     <use xlink:href="#DejaVuSans-19" transform="translate(2980.3125 0)"/>
     <use xlink:href="#DejaVuSans-f" transform="translate(3043.9375 0)"/>
     <use xlink:href="#DejaVuSans-3" transform="translate(3075.71875 0)"/>
     <use xlink:href="#DejaVuSans-2f" transform="translate(3107.5 0)"/>
     <use xlink:href="#DejaVuSans-20" transform="translate(3163.21875 0)"/>
     <use xlink:href="#DejaVuSans-14" transform="translate(3247.015625 0)"/>
     <use xlink:href="#DejaVuSans-11" transform="translate(3310.640625 0)"/>
     <use xlink:href="#DejaVuSans-13" transform="translate(3342.421875 0)"/>
     <use xlink:href="#DejaVuSans-13" transform="translate(3406.046875 0)"/>
     <use xlink:href="#DejaVuSans-f" transform="translate(3469.671875 0)"/>
     <use xlink:href="#DejaVuSans-3" transform="translate(3501.453125 0)"/>
     <use xlink:href="#DejaVuSans-26" transform="translate(3533.234375 0)"/>
     <use xlink:href="#DejaVuSans-20" transform="translate(3603.0625 0)"/>
     <use xlink:href="#DejaVuSans-13" transform="translate(3686.859375 0)"/>
     <use xlink:href="#DejaVuSans-11" transform="translate(3750.484375 0)"/>
     <use xlink:href="#DejaVuSans-18" transform="translate(3782.265625 0)"/>
     <use xlink:href="#DejaVuSans-13" transform="translate(3845.890625 0)"/>
     <use xlink:href="#DejaVuSans-f" transform="translate(3909.515625 0)"/>
     <use xlink:href="#DejaVuSans-3" transform="translate(3941.296875 0)"/>
     <use xlink:href="#DejaVuSans-35d" transform="translate(3973.078125 0)"/>
     <use xlink:href="#DejaVuSans-51" transform="translate(4056.8125 0)"/>
     <use xlink:href="#DejaVuSans-20" transform="translate(4120.1875 0)"/>
     <use xlink:href="#DejaVuSans-14" transform="translate(4203.984375 0)"/>
     <use xlink:href="#DejaVuSans-11" transform="translate(4267.609375 0)"/>
     <use xlink:href="#DejaVuSans-17" transform="translate(4299.390625 0)"/>
     <use xlink:href="#DejaVuSans-14" transform="translate(4363.015625 0)"/>
     <use xlink:href="#DejaVuSans-f" transform="translate(4426.640625 0)"/>
     <use xlink:href="#DejaVuSans-3" transform="translate(4458.421875 0)"/>
     <use xlink:href="#DejaVuSans-34a" transform="translate(4490.203125 0)"/>
     <use xlink:href="#DejaVuSans-20" transform="translate(4544.59375 0)"/>
     <use xlink:href="#DejaVuSans-13" transform="translate(4628.390625 0)"/>
     <use xlink:href="#DejaVuSans-11" transform="translate(4692.015625 0)"/>
     <use xlink:href="#DejaVuSans-13" transform="translate(4723.796875 0)"/>
     <use xlink:href="#DejaVuSans-19" transform="translate(4787.421875 0)"/>
     <use xlink:href="#DejaVuSans-19" transform="translate(4851.046875 0)"/>
     <use xlink:href="#DejaVuSans-f" transform="translate(4914.671875 0)"/>
     <use xlink:href="#DejaVuSans-3" transform="translate(4946.453125 0)"/>
     <use xlink:href="#DejaVuSans-34" transform="translate(4978.234375 0)"/>
     <use xlink:href="#DejaVuSans-20" transform="translate(5056.953125 0)"/>
     <use xlink:href="#DejaVuSans-1a" transform="translate(5140.75 0)"/>
     <use xlink:href="#DejaVuSans-11" transform="translate(5204.375 0)"/>
     <use xlink:href="#DejaVuSans-18" transform="translate(5236.15625 0)"/>
     <use xlink:href="#DejaVuSans-1c" transform="translate(5299.78125 0)"/>
    </g>
   </g>
   <g id="legend_1">
    <g id="patch_7">
     <path d="M 556.217188 80.007891 
L 621.2 80.007891 
Q 623.2 80.007891 623.2 78.007891 
L 623.2 49.006328 
Q 623.2 47.006328 621.2 47.006328 
L 556.217188 47.006328 
Q 554.217188 47.006328 554.217188 49.006328 
L 554.217188 78.007891 
Q 554.217188 80.007891 556.217188 80.007891 
z
" style="fill: #ffffff; opacity: 0.8; stroke: #cccccc; stroke-linejoin: miter"/>
    </g>
    <g id="line2d_29">
     <path d="M 558.217188 55.104766 
L 568.217188 55.104766 
L 578.217188 55.104766 
" style="fill: none; stroke: #1f77b4; stroke-width: 1.5; stroke-linecap: square"/>
    </g>
    <g id="text_17">
     <!-- input -->
     <g transform="translate(586.217188 58.604766) scale(0.1 -0.1)">
      <use xlink:href="#DejaVuSans-4c"/>
      <use xlink:href="#DejaVuSans-51" transform="translate(27.78125 0)"/>
      <use xlink:href="#DejaVuSans-53" transform="translate(91.15625 0)"/>
      <use xlink:href="#DejaVuSans-58" transform="translate(154.640625 0)"/>
      <use xlink:href="#DejaVuSans-57" transform="translate(218.015625 0)"/>
     </g>
    </g>
    <g id="line2d_30">
     <path d="M 558.217188 70.105547 
L 568.217188 70.105547 
L 578.217188 70.105547 
" style="fill: none; stroke: #ff7f0e; stroke-width: 1.5; stroke-linecap: square"/>
    </g>
    <g id="text_18">
     <!-- output -->
     <g transform="translate(586.217188 73.605547) scale(0.1 -0.1)">
      <defs>
       <path id="DejaVuSans-52" d="M 1959 3097 
Q 1497 3097 1228 2736 
Q 959 2375 959 1747 
Q 959 1119 1226 758 
Q 1494 397 1959 397 
Q 2419 397 2687 759 
Q 2956 1122 2956 1747 
Q 2956 2369 2687 2733 
Q 2419 3097 1959 3097 
z
M 1959 3584 
Q 2709 3584 3137 3096 
Q 3566 2609 3566 1747 
Q 3566 888 3137 398 
Q 2709 -91 1959 -91 
Q 1206 -91 779 398 
Q 353 888 353 1747 
Q 353 2609 779 3096 
Q 1206 3584 1959 3584 
z
" transform="scale(0.015625)"/>
      </defs>
      <use xlink:href="#DejaVuSans-52"/>
      <use xlink:href="#DejaVuSans-58" transform="translate(61.1875 0)"/>
      <use xlink:href="#DejaVuSans-57" transform="translate(124.5625 0)"/>
      <use xlink:href="#DejaVuSans-53" transform="translate(163.765625 0)"/>
      <use xlink:href="#DejaVuSans-58" transform="translate(227.25 0)"/>
      <use xlink:href="#DejaVuSans-57" transform="translate(290.625 0)"/>
     </g>
    </g>
   </g>
  </g>
  <g id="axes_2">
   <g id="patch_8">
    <path d="M 60.202344 460.115313 
L 628.2 460.115313 
L 628.2 279.801992 
L 60.202344 279.801992 
z
" style="fill: #ffffff"/>
   </g>
   <g id="matplotlib.axis_3">
    <g id="xtick_7">
     <g id="line2d_31">
      <path d="M 60.202344 460.115313 
L 60.202344 279.801992 
" clip-path="url(#p7dfa6bea79)" style="fill: none; stroke: #b0b0b0; stroke-opacity: 0.25; stroke-width: 0.8; stroke-linecap: square"/>
     </g>
     <g id="line2d_32">
      <g>
       <use xlink:href="#m8a4fe9aeb6" x="60.202344" y="460.115313" style="stroke: #000000; stroke-width: 0.8"/>
      </g>
     </g>
     <g id="text_19">
      <!-- $\mathdefault{10^{-1}}$ -->
      <g transform="translate(48.452344 476.415313) scale(0.1 -0.1)">
       <use xlink:href="#DejaVuSans-14" transform="translate(0 0.665625)"/>
       <use xlink:href="#DejaVuSans-13" transform="translate(63.623047 0.665625)"/>
       <use xlink:href="#DejaVuSans-c9c" transform="translate(128.203125 41.965625) scale(0.7)"/>
       <use xlink:href="#DejaVuSans-14" transform="translate(186.855469 41.965625) scale(0.7)"/>
      </g>
     </g>
    </g>
    <g id="xtick_8">
     <g id="line2d_33">
      <path d="M 344.201172 460.115313 
L 344.201172 279.801992 
" clip-path="url(#p7dfa6bea79)" style="fill: none; stroke: #b0b0b0; stroke-opacity: 0.25; stroke-width: 0.8; stroke-linecap: square"/>
     </g>
     <g id="line2d_34">
      <g>
       <use xlink:href="#m8a4fe9aeb6" x="344.201172" y="460.115313" style="stroke: #000000; stroke-width: 0.8"/>
      </g>
     </g>
     <g id="text_20">
      <!-- $\mathdefault{10^{0}}$ -->
      <g transform="translate(335.401172 476.515313) scale(0.1 -0.1)">
       <use xlink:href="#DejaVuSans-14" transform="translate(0 0.746875)"/>
       <use xlink:href="#DejaVuSans-13" transform="translate(63.623047 0.746875)"/>
       <use xlink:href="#DejaVuSans-13" transform="translate(128.203125 42.046875) scale(0.7)"/>
      </g>
     </g>
    </g>
    <g id="xtick_9">
     <g id="line2d_35">
      <path d="M 628.2 460.115313 
L 628.2 279.801992 
" clip-path="url(#p7dfa6bea79)" style="fill: none; stroke: #b0b0b0; stroke-opacity: 0.25; stroke-width: 0.8; stroke-linecap: square"/>
     </g>
     <g id="line2d_36">
      <g>
       <use xlink:href="#m8a4fe9aeb6" x="628.2" y="460.115313" style="stroke: #000000; stroke-width: 0.8"/>
      </g>
     </g>
     <g id="text_21">
      <!-- $\mathdefault{10^{1}}$ -->
      <g transform="translate(619.4 476.415313) scale(0.1 -0.1)">
       <use xlink:href="#DejaVuSans-14" transform="translate(0 0.665625)"/>
       <use xlink:href="#DejaVuSans-13" transform="translate(63.623047 0.665625)"/>
       <use xlink:href="#DejaVuSans-14" transform="translate(128.203125 41.965625) scale(0.7)"/>
      </g>
     </g>
    </g>
    <g id="xtick_10">
     <g id="line2d_37">
      <defs>
       <path id="m8d094e1c0a" d="M 0 0 
L 0 2 
" style="stroke: #000000; stroke-width: 0.6"/>
      </defs>
      <g>
       <use xlink:href="#m8d094e1c0a" x="145.69451" y="460.115313" style="stroke: #000000; stroke-width: 0.6"/>
      </g>
     </g>
    </g>
    <g id="xtick_11">
     <g id="line2d_38">
      <g>
       <use xlink:href="#m8d094e1c0a" x="195.704221" y="460.115313" style="stroke: #000000; stroke-width: 0.6"/>
      </g>
     </g>
    </g>
    <g id="xtick_12">
     <g id="line2d_39">
      <g>
       <use xlink:href="#m8d094e1c0a" x="231.186676" y="460.115313" style="stroke: #000000; stroke-width: 0.6"/>
      </g>
     </g>
    </g>
    <g id="xtick_13">
     <g id="line2d_40">
      <g>
       <use xlink:href="#m8d094e1c0a" x="258.709006" y="460.115313" style="stroke: #000000; stroke-width: 0.6"/>
      </g>
     </g>
    </g>
    <g id="xtick_14">
     <g id="line2d_41">
      <g>
       <use xlink:href="#m8d094e1c0a" x="281.196387" y="460.115313" style="stroke: #000000; stroke-width: 0.6"/>
      </g>
     </g>
    </g>
    <g id="xtick_15">
     <g id="line2d_42">
      <g>
       <use xlink:href="#m8d094e1c0a" x="300.209197" y="460.115313" style="stroke: #000000; stroke-width: 0.6"/>
      </g>
     </g>
    </g>
    <g id="xtick_16">
     <g id="line2d_43">
      <g>
       <use xlink:href="#m8d094e1c0a" x="316.678842" y="460.115313" style="stroke: #000000; stroke-width: 0.6"/>
      </g>
     </g>
    </g>
    <g id="xtick_17">
     <g id="line2d_44">
      <g>
       <use xlink:href="#m8d094e1c0a" x="331.206098" y="460.115313" style="stroke: #000000; stroke-width: 0.6"/>
      </g>
     </g>
    </g>
    <g id="xtick_18">
     <g id="line2d_45">
      <g>
       <use xlink:href="#m8d094e1c0a" x="429.693338" y="460.115313" style="stroke: #000000; stroke-width: 0.6"/>
      </g>
     </g>
    </g>
    <g id="xtick_19">
     <g id="line2d_46">
      <g>
       <use xlink:href="#m8d094e1c0a" x="479.703049" y="460.115313" style="stroke: #000000; stroke-width: 0.6"/>
      </g>
     </g>
    </g>
    <g id="xtick_20">
     <g id="line2d_47">
      <g>
       <use xlink:href="#m8d094e1c0a" x="515.185504" y="460.115313" style="stroke: #000000; stroke-width: 0.6"/>
      </g>
     </g>
    </g>
    <g id="xtick_21">
     <g id="line2d_48">
      <g>
       <use xlink:href="#m8d094e1c0a" x="542.707834" y="460.115313" style="stroke: #000000; stroke-width: 0.6"/>
      </g>
     </g>
    </g>
    <g id="xtick_22">
     <g id="line2d_49">
      <g>
       <use xlink:href="#m8d094e1c0a" x="565.195215" y="460.115313" style="stroke: #000000; stroke-width: 0.6"/>
      </g>
     </g>
    </g>
    <g id="xtick_23">
     <g id="line2d_50">
      <g>
       <use xlink:href="#m8d094e1c0a" x="584.208025" y="460.115313" style="stroke: #000000; stroke-width: 0.6"/>
      </g>
     </g>
    </g>
    <g id="xtick_24">
     <g id="line2d_51">
      <g>
       <use xlink:href="#m8d094e1c0a" x="600.67767" y="460.115313" style="stroke: #000000; stroke-width: 0.6"/>
      </g>
     </g>
    </g>
    <g id="xtick_25">
     <g id="line2d_52">
      <g>
       <use xlink:href="#m8d094e1c0a" x="615.204926" y="460.115313" style="stroke: #000000; stroke-width: 0.6"/>
      </g>
     </g>
    </g>
    <g id="text_22">
     <!-- frequency [arb.] -->
     <g transform="translate(303.748828 490.516094) scale(0.1 -0.1)">
      <defs>
       <path id="DejaVuSans-54" d="M 947 1747 
Q 947 1113 1208 752 
Q 1469 391 1925 391 
Q 2381 391 2643 752 
Q 2906 1113 2906 1747 
Q 2906 2381 2643 2742 
Q 2381 3103 1925 3103 
Q 1469 3103 1208 2742 
Q 947 2381 947 1747 
z
M 2906 525 
Q 2725 213 2448 61 
Q 2172 -91 1784 -91 
Q 1150 -91 751 415 
Q 353 922 353 1747 
Q 353 2572 751 3078 
Q 1150 3584 1784 3584 
Q 2172 3584 2448 3432 
Q 2725 3281 2906 2969 
L 2906 3500 
L 3481 3500 
L 3481 -1331 
L 2906 -1331 
L 2906 525 
z
" transform="scale(0.015625)"/>
      </defs>
      <use xlink:href="#DejaVuSans-49"/>
      <use xlink:href="#DejaVuSans-55" transform="translate(35.203125 0)"/>
      <use xlink:href="#DejaVuSans-48" transform="translate(74.109375 0)"/>
      <use xlink:href="#DejaVuSans-54" transform="translate(135.640625 0)"/>
      <use xlink:href="#DejaVuSans-58" transform="translate(199.125 0)"/>
      <use xlink:href="#DejaVuSans-48" transform="translate(262.5 0)"/>
      <use xlink:href="#DejaVuSans-51" transform="translate(324.03125 0)"/>
      <use xlink:href="#DejaVuSans-46" transform="translate(387.40625 0)"/>
      <use xlink:href="#DejaVuSans-5c" transform="translate(442.390625 0)"/>
      <use xlink:href="#DejaVuSans-3" transform="translate(501.578125 0)"/>
      <use xlink:href="#DejaVuSans-3e" transform="translate(533.359375 0)"/>
      <use xlink:href="#DejaVuSans-44" transform="translate(572.375 0)"/>
      <use xlink:href="#DejaVuSans-55" transform="translate(633.65625 0)"/>
      <use xlink:href="#DejaVuSans-45" transform="translate(674.765625 0)"/>
      <use xlink:href="#DejaVuSans-11" transform="translate(738.25 0)"/>
      <use xlink:href="#DejaVuSans-40" transform="translate(770.03125 0)"/>
     </g>
    </g>
   </g>
   <g id="matplotlib.axis_4">
    <g id="ytick_8">
     <g id="line2d_53">
      <path d="M 60.202344 455.407505 
L 628.2 455.407505 
" clip-path="url(#p7dfa6bea79)" style="fill: none; stroke: #b0b0b0; stroke-opacity: 0.25; stroke-width: 0.8; stroke-linecap: square"/>
     </g>
     <g id="line2d_54">
      <g>
       <use xlink:href="#m8c601f985a" x="60.202344" y="455.407505" style="stroke: #000000; stroke-width: 0.8"/>
      </g>
     </g>
     <g id="text_23">
      <!-- $\mathdefault{10^{-11}}$ -->
      <g transform="translate(25.302344 460.057505) scale(0.1 -0.1)">
       <use xlink:href="#DejaVuSans-14" transform="translate(0 0.665625)"/>
       <use xlink:href="#DejaVuSans-13" transform="translate(63.623047 0.665625)"/>
       <use xlink:href="#DejaVuSans-c9c" transform="translate(128.203125 41.965625) scale(0.7)"/>
       <use xlink:href="#DejaVuSans-14" transform="translate(186.855469 41.965625) scale(0.7)"/>
       <use xlink:href="#DejaVuSans-14" transform="translate(231.391602 41.965625) scale(0.7)"/>
      </g>
     </g>
    </g>
    <g id="ytick_9">
     <g id="line2d_55">
      <path d="M 60.202344 431.778293 
L 628.2 431.778293 
" clip-path="url(#p7dfa6bea79)" style="fill: none; stroke: #b0b0b0; stroke-opacity: 0.25; stroke-width: 0.8; stroke-linecap: square"/>
     </g>
     <g id="line2d_56">
      <g>
       <use xlink:href="#m8c601f985a" x="60.202344" y="431.778293" style="stroke: #000000; stroke-width: 0.8"/>
      </g>
     </g>
     <g id="text_24">
      <!-- $\mathdefault{10^{-9}}$ -->
      <g transform="translate(29.702344 436.478293) scale(0.1 -0.1)">
       <use xlink:href="#DejaVuSans-14" transform="translate(0 0.746875)"/>
       <use xlink:href="#DejaVuSans-13" transform="translate(63.623047 0.746875)"/>
       <use xlink:href="#DejaVuSans-c9c" transform="translate(128.203125 42.046875) scale(0.7)"/>
       <use xlink:href="#DejaVuSans-1c" transform="translate(186.855469 42.046875) scale(0.7)"/>
      </g>
     </g>
    </g>
    <g id="ytick_10">
     <g id="line2d_57">
      <path d="M 60.202344 408.149081 
L 628.2 408.149081 
" clip-path="url(#p7dfa6bea79)" style="fill: none; stroke: #b0b0b0; stroke-opacity: 0.25; stroke-width: 0.8; stroke-linecap: square"/>
     </g>
     <g id="line2d_58">
      <g>
       <use xlink:href="#m8c601f985a" x="60.202344" y="408.149081" style="stroke: #000000; stroke-width: 0.8"/>
      </g>
     </g>
     <g id="text_25">
      <!-- $\mathdefault{10^{-7}}$ -->
      <g transform="translate(29.702344 412.799081) scale(0.1 -0.1)">
       <use xlink:href="#DejaVuSans-14" transform="translate(0 0.665625)"/>
       <use xlink:href="#DejaVuSans-13" transform="translate(63.623047 0.665625)"/>
       <use xlink:href="#DejaVuSans-c9c" transform="translate(128.203125 41.965625) scale(0.7)"/>
       <use xlink:href="#DejaVuSans-1a" transform="translate(186.855469 41.965625) scale(0.7)"/>
      </g>
     </g>
    </g>
    <g id="ytick_11">
     <g id="line2d_59">
      <path d="M 60.202344 384.519869 
L 628.2 384.519869 
" clip-path="url(#p7dfa6bea79)" style="fill: none; stroke: #b0b0b0; stroke-opacity: 0.25; stroke-width: 0.8; stroke-linecap: square"/>
     </g>
     <g id="line2d_60">
      <g>
       <use xlink:href="#m8c601f985a" x="60.202344" y="384.519869" style="stroke: #000000; stroke-width: 0.8"/>
      </g>
     </g>
     <g id="text_26">
      <!-- $\mathdefault{10^{-5}}$ -->
      <g transform="translate(29.702344 389.169869) scale(0.1 -0.1)">
       <use xlink:href="#DejaVuSans-14" transform="translate(0 0.665625)"/>
       <use xlink:href="#DejaVuSans-13" transform="translate(63.623047 0.665625)"/>
       <use xlink:href="#DejaVuSans-c9c" transform="translate(128.203125 41.965625) scale(0.7)"/>
       <use xlink:href="#DejaVuSans-18" transform="translate(186.855469 41.965625) scale(0.7)"/>
      </g>
     </g>
    </g>
    <g id="ytick_12">
     <g id="line2d_61">
      <path d="M 60.202344 360.890657 
L 628.2 360.890657 
" clip-path="url(#p7dfa6bea79)" style="fill: none; stroke: #b0b0b0; stroke-opacity: 0.25; stroke-width: 0.8; stroke-linecap: square"/>
     </g>
     <g id="line2d_62">
      <g>
       <use xlink:href="#m8c601f985a" x="60.202344" y="360.890657" style="stroke: #000000; stroke-width: 0.8"/>
      </g>
     </g>
     <g id="text_27">
      <!-- $\mathdefault{10^{-3}}$ -->
      <g transform="translate(29.702344 365.590657) scale(0.1 -0.1)">
       <use xlink:href="#DejaVuSans-14" transform="translate(0 0.746875)"/>
       <use xlink:href="#DejaVuSans-13" transform="translate(63.623047 0.746875)"/>
       <use xlink:href="#DejaVuSans-c9c" transform="translate(128.203125 42.046875) scale(0.7)"/>
       <use xlink:href="#DejaVuSans-16" transform="translate(186.855469 42.046875) scale(0.7)"/>
      </g>
     </g>
    </g>
    <g id="ytick_13">
     <g id="line2d_63">
      <path d="M 60.202344 337.261445 
L 628.2 337.261445 
" clip-path="url(#p7dfa6bea79)" style="fill: none; stroke: #b0b0b0; stroke-opacity: 0.25; stroke-width: 0.8; stroke-linecap: square"/>
     </g>
     <g id="line2d_64">
      <g>
       <use xlink:href="#m8c601f985a" x="60.202344" y="337.261445" style="stroke: #000000; stroke-width: 0.8"/>
      </g>
     </g>
     <g id="text_28">
      <!-- $\mathdefault{10^{-1}}$ -->
      <g transform="translate(29.702344 341.911445) scale(0.1 -0.1)">
       <use xlink:href="#DejaVuSans-14" transform="translate(0 0.665625)"/>
       <use xlink:href="#DejaVuSans-13" transform="translate(63.623047 0.665625)"/>
       <use xlink:href="#DejaVuSans-c9c" transform="translate(128.203125 41.965625) scale(0.7)"/>
       <use xlink:href="#DejaVuSans-14" transform="translate(186.855469 41.965625) scale(0.7)"/>
      </g>
     </g>
    </g>
    <g id="ytick_14">
     <g id="line2d_65">
      <path d="M 60.202344 313.632233 
L 628.2 313.632233 
" clip-path="url(#p7dfa6bea79)" style="fill: none; stroke: #b0b0b0; stroke-opacity: 0.25; stroke-width: 0.8; stroke-linecap: square"/>
     </g>
     <g id="line2d_66">
      <g>
       <use xlink:href="#m8c601f985a" x="60.202344" y="313.632233" style="stroke: #000000; stroke-width: 0.8"/>
      </g>
     </g>
     <g id="text_29">
      <!-- $\mathdefault{10^{1}}$ -->
      <g transform="translate(35.602344 318.282233) scale(0.1 -0.1)">
       <use xlink:href="#DejaVuSans-14" transform="translate(0 0.665625)"/>
       <use xlink:href="#DejaVuSans-13" transform="translate(63.623047 0.665625)"/>
       <use xlink:href="#DejaVuSans-14" transform="translate(128.203125 41.965625) scale(0.7)"/>
      </g>
     </g>
    </g>
    <g id="ytick_15">
     <g id="line2d_67">
      <path d="M 60.202344 290.003021 
L 628.2 290.003021 
" clip-path="url(#p7dfa6bea79)" style="fill: none; stroke: #b0b0b0; stroke-opacity: 0.25; stroke-width: 0.8; stroke-linecap: square"/>
     </g>
     <g id="line2d_68">
      <g>
       <use xlink:href="#m8c601f985a" x="60.202344" y="290.003021" style="stroke: #000000; stroke-width: 0.8"/>
      </g>
     </g>
     <g id="text_30">
      <!-- $\mathdefault{10^{3}}$ -->
      <g transform="translate(35.602344 294.703021) scale(0.1 -0.1)">
       <use xlink:href="#DejaVuSans-14" transform="translate(0 0.746875)"/>
       <use xlink:href="#DejaVuSans-13" transform="translate(63.623047 0.746875)"/>
       <use xlink:href="#DejaVuSans-16" transform="translate(128.203125 42.046875) scale(0.7)"/>
      </g>
     </g>
    </g>
    <g id="text_31">
     <!-- |FFT(.)| -->
     <g transform="translate(18.9 387.535996) rotate(-90) scale(0.1 -0.1)">
      <defs>
       <path id="DejaVuSans-37" d="M -19 4666 
L 3928 4666 
L 3928 4134 
L 2272 4134 
L 2272 0 
L 1638 0 
L 1638 4134 
L -19 4134 
L -19 4666 
z
" transform="scale(0.015625)"/>
      </defs>
      <use xlink:href="#DejaVuSans-5f"/>
      <use xlink:href="#DejaVuSans-29" transform="translate(33.6875 0)"/>
      <use xlink:href="#DejaVuSans-29" transform="translate(91.203125 0)"/>
      <use xlink:href="#DejaVuSans-37" transform="translate(146.96875 0)"/>
      <use xlink:href="#DejaVuSans-b" transform="translate(208.046875 0)"/>
      <use xlink:href="#DejaVuSans-11" transform="translate(247.0625 0)"/>
      <use xlink:href="#DejaVuSans-c" transform="translate(278.84375 0)"/>
      <use xlink:href="#DejaVuSans-5f" transform="translate(317.859375 0)"/>
     </g>
    </g>
   </g>
   <g id="line2d_69">
    <path d="M 60.202344 319.025917 
L 145.69451 326.947447 
L 195.704221 322.91343 
L 231.186676 318.108005 
L 258.709006 311.187999 
L 281.196387 292.149544 
L 300.209197 287.998052 
L 316.678842 290.978916 
L 331.206098 309.669167 
L 344.201172 317.060193 
L 355.956646 321.844264 
L 366.688553 325.422245 
L 376.56095 328.285331 
L 385.701363 330.671217 
L 394.210883 332.714842 
L 402.171008 334.500752 
L 409.648395 336.08562 
L 416.698264 337.509371 
L 423.366868 338.801211 
L 429.693338 339.983158 
L 435.711074 341.072219 
L 441.448812 342.081796 
L 446.931453 343.022636 
L 452.180719 343.903478 
L 457.215668 344.731523 
L 462.053116 345.512771 
L 466.707975 346.252267 
L 471.193529 346.954297 
L 475.521661 347.622524 
L 479.703049 348.260108 
L 483.747317 348.869788 
L 487.663174 349.453956 
L 491.458523 350.01471 
L 495.140561 350.5539 
L 498.715859 351.073169 
L 502.19043 351.573976 
L 505.569796 352.057627 
L 508.859034 352.525293 
L 512.062828 352.978032 
L 515.185504 353.416795 
L 518.231069 353.842448 
L 521.20324 354.255778 
L 524.105471 354.657501 
L 526.940978 355.048274 
L 529.71276 355.428698 
L 532.423619 355.799324 
L 535.076176 356.160663 
L 537.672885 356.513185 
L 540.21605 356.857322 
L 542.707834 357.19348 
L 545.150273 357.522031 
L 547.545282 357.843325 
L 549.89467 358.157684 
L 552.200141 358.465412 
L 554.463308 358.766792 
L 556.685695 359.062089 
L 558.868745 359.351552 
L 561.013827 359.635413 
L 563.12224 359.913893 
L 565.195215 360.187197 
L 567.233925 360.455521 
L 569.239483 360.719047 
L 571.212951 360.977951 
L 573.15534 361.232395 
L 575.067613 361.482535 
L 576.950689 361.728519 
L 578.805448 361.970486 
L 580.632727 362.208569 
L 582.433331 362.442894 
L 584.208025 362.67358 
L 585.957545 362.900743 
L 587.682596 363.124491 
L 589.383852 363.344927 
L 591.061962 363.562152 
L 592.717545 363.776258 
L 594.3512 363.987337 
L 595.963499 364.195476 
L 597.554994 364.400756 
L 599.126214 364.603257 
L 600.67767 364.803056 
L 602.209853 365.000224 
L 603.723235 365.194832 
L 605.218273 365.386947 
L 606.695406 365.576634 
L 608.155058 365.763953 
L 609.597637 365.948965 
L 611.023539 366.131728 
L 612.433144 366.312296 
L 613.826821 366.490722 
L 615.204926 366.667057 
L 616.567803 366.841352 
L 617.915785 367.013653 
L 619.249194 367.184007 
L 620.568342 367.352457 
L 621.87353 367.519047 
L 623.165051 367.683818 
L 624.443188 367.84681 
L 625.708216 368.008062 
L 626.9604 368.167611 
L 628.2 368.325493 
L 629.427265 368.481743 
" clip-path="url(#p7dfa6bea79)" style="fill: none; stroke: #1f77b4; stroke-opacity: 0.6; stroke-width: 1.5; stroke-linecap: square"/>
   </g>
   <g id="line2d_70">
    <path d="M 60.202344 312.117915 
L 145.69451 306.206801 
L 195.704221 307.974492 
L 231.186676 319.396701 
L 258.709006 324.583866 
L 281.196387 307.866495 
L 300.209197 303.73732 
L 316.678842 306.709686 
L 331.206098 325.50743 
L 344.201172 333.072689 
L 355.956646 338.031664 
L 366.688553 341.734889 
L 376.56095 344.646145 
L 385.701363 346.99847 
L 394.210883 348.938857 
L 402.171008 350.571651 
L 409.648395 351.97356 
L 416.698264 353.200778 
L 423.366868 354.294032 
L 429.693338 355.282695 
L 435.711074 356.188015 
L 441.448812 357.025527 
L 446.931453 357.806758 
L 452.180719 358.540416 
L 457.215668 359.233207 
L 462.053116 359.890391 
L 466.707975 360.516171 
L 471.193529 361.113964 
L 475.521661 361.686589 
L 479.703049 362.236408 
L 483.747317 362.765423 
L 487.663174 363.275352 
L 491.458523 363.767682 
L 495.140561 364.243714 
L 498.715859 364.704594 
L 502.19043 365.151338 
L 505.569796 365.584856 
L 508.859034 366.005961 
L 512.062828 366.415391 
L 515.185504 366.813814 
L 518.231069 367.201836 
L 521.20324 367.580013 
L 524.105471 367.948855 
L 526.940978 368.308831 
L 529.71276 368.660373 
L 532.423619 369.00388 
L 535.076176 369.339725 
L 537.672885 369.66825 
L 540.21605 369.989778 
L 542.707834 370.304609 
L 545.150273 370.613021 
L 547.545282 370.915278 
L 549.89467 371.211626 
L 552.200141 371.502296 
L 554.463308 371.787505 
L 556.685695 372.067459 
L 558.868745 372.34235 
L 561.013827 372.612363 
L 563.12224 372.877668 
L 565.195215 373.138431 
L 567.233925 373.394805 
L 569.239483 373.646939 
L 571.212951 373.894971 
L 573.15534 374.139035 
L 575.067613 374.379257 
L 576.950689 374.615757 
L 578.805448 374.84865 
L 580.632727 375.078045 
L 582.433331 375.304047 
L 584.208025 375.526756 
L 585.957545 375.746267 
L 587.682596 375.962671 
L 589.383852 376.176055 
L 591.061962 376.386504 
L 592.717545 376.594098 
L 594.3512 376.798913 
L 595.963499 377.001024 
L 597.554994 377.2005 
L 599.126214 377.397412 
L 600.67767 377.591823 
L 602.209853 377.783798 
L 603.723235 377.973396 
L 605.218273 378.160676 
L 606.695406 378.345695 
L 608.155058 378.528506 
L 609.597637 378.709162 
L 611.023539 378.887714 
L 612.433144 379.06421 
L 613.826821 379.238696 
L 615.204926 379.41122 
L 616.567803 379.581823 
L 617.915785 379.750549 
L 619.249194 379.917439 
L 620.568342 380.082533 
L 621.87353 380.245868 
L 623.165051 380.407482 
L 624.443188 380.567411 
L 625.708216 380.72569 
L 626.9604 380.882353 
L 628.2 381.037433 
L 629.427265 381.19096 
" clip-path="url(#p7dfa6bea79)" style="fill: none; stroke: #ff7f0e; stroke-width: 1.5; stroke-linecap: square"/>
   </g>
   <g id="patch_9">
    <path d="M 60.202344 460.115313 
L 60.202344 279.801992 
" style="fill: none; stroke: #000000; stroke-width: 0.8; stroke-linejoin: miter; stroke-linecap: square"/>
   </g>
   <g id="patch_10">
    <path d="M 628.2 460.115313 
L 628.2 279.801992 
" style="fill: none; stroke: #000000; stroke-width: 0.8; stroke-linejoin: miter; stroke-linecap: square"/>
   </g>
   <g id="patch_11">
    <path d="M 60.202344 460.115313 
L 628.2 460.115313 
" style="fill: none; stroke: #000000; stroke-width: 0.8; stroke-linejoin: miter; stroke-linecap: square"/>
   </g>
   <g id="patch_12">
    <path d="M 60.202344 279.801992 
L 628.2 279.801992 
" style="fill: none; stroke: #000000; stroke-width: 0.8; stroke-linejoin: miter; stroke-linecap: square"/>
   </g>
   <g id="text_32">
    <!-- Output FFT peak ≈ 0.700 (arb.), magnitude ≈ 6.879e+01 | band/flat-ish -->
    <g transform="translate(127.801797 273.801992) scale(0.12 -0.12)">
     <defs>
      <path id="DejaVuSans-32" d="M 2522 4238 
Q 1834 4238 1429 3725 
Q 1025 3213 1025 2328 
Q 1025 1447 1429 934 
Q 1834 422 2522 422 
Q 3209 422 3611 934 
Q 4013 1447 4013 2328 
Q 4013 3213 3611 3725 
Q 3209 4238 2522 4238 
z
M 2522 4750 
Q 3503 4750 4090 4092 
Q 4678 3434 4678 2328 
Q 4678 1225 4090 567 
Q 3503 -91 2522 -91 
Q 1538 -91 948 565 
Q 359 1222 359 2328 
Q 359 3434 948 4092 
Q 1538 4750 2522 4750 
z
" transform="scale(0.015625)"/>
      <path id="DejaVuSans-4e" d="M 581 4863 
L 1159 4863 
L 1159 1991 
L 2875 3500 
L 3609 3500 
L 1753 1863 
L 3688 0 
L 2938 0 
L 1159 1709 
L 1159 0 
L 581 0 
L 581 4863 
z
" transform="scale(0.015625)"/>
      <path id="DejaVuSans-cd2" d="M 4684 1947 
L 4684 1388 
Q 4356 1144 4076 1036 
Q 3797 928 3494 928 
Q 3150 928 2694 1113 
Q 2663 1125 2641 1134 
Q 2622 1141 2575 1159 
Q 2091 1350 1797 1350 
Q 1522 1350 1253 1231 
Q 984 1113 678 850 
L 678 1409 
Q 1006 1653 1286 1761 
Q 1566 1869 1869 1869 
Q 2213 1869 2672 1684 
Q 2706 1669 2722 1663 
Q 2741 1656 2788 1638 
Q 3272 1447 3566 1447 
Q 3834 1447 4098 1564 
Q 4363 1681 4684 1947 
z
M 4684 3163 
L 4684 2606 
Q 4356 2359 4076 2251 
Q 3797 2144 3494 2144 
Q 3150 2144 2694 2328 
Q 2663 2341 2641 2350 
Q 2622 2356 2575 2375 
Q 2091 2566 1797 2566 
Q 1522 2566 1253 2447 
Q 984 2328 678 2069 
L 678 2625 
Q 1006 2869 1286 2976 
Q 1566 3084 1869 3084 
Q 2213 3084 2672 2900 
Q 2703 2888 2719 2881 
Q 2741 2872 2788 2853 
Q 3272 2663 3566 2663 
Q 3834 2663 4098 2780 
Q 4363 2897 4684 3163 
z
" transform="scale(0.015625)"/>
      <path id="DejaVuSans-50" d="M 3328 2828 
Q 3544 3216 3844 3400 
Q 4144 3584 4550 3584 
Q 5097 3584 5394 3201 
Q 5691 2819 5691 2113 
L 5691 0 
L 5113 0 
L 5113 2094 
Q 5113 2597 4934 2840 
Q 4756 3084 4391 3084 
Q 3944 3084 3684 2787 
Q 3425 2491 3425 1978 
L 3425 0 
L 2847 0 
L 2847 2094 
Q 2847 2600 2669 2842 
Q 2491 3084 2119 3084 
Q 1678 3084 1418 2786 
Q 1159 2488 1159 1978 
L 1159 0 
L 581 0 
L 581 3500 
L 1159 3500 
L 1159 2956 
Q 1356 3278 1631 3431 
Q 1906 3584 2284 3584 
Q 2666 3584 2933 3390 
Q 3200 3197 3328 2828 
z
" transform="scale(0.015625)"/>
      <path id="DejaVuSans-4a" d="M 2906 1791 
Q 2906 2416 2648 2759 
Q 2391 3103 1925 3103 
Q 1463 3103 1205 2759 
Q 947 2416 947 1791 
Q 947 1169 1205 825 
Q 1463 481 1925 481 
Q 2391 481 2648 825 
Q 2906 1169 2906 1791 
z
M 3481 434 
Q 3481 -459 3084 -895 
Q 2688 -1331 1869 -1331 
Q 1566 -1331 1297 -1286 
Q 1028 -1241 775 -1147 
L 775 -588 
Q 1028 -725 1275 -790 
Q 1522 -856 1778 -856 
Q 2344 -856 2625 -561 
Q 2906 -266 2906 331 
L 2906 616 
Q 2728 306 2450 153 
Q 2172 0 1784 0 
Q 1141 0 747 490 
Q 353 981 353 1791 
Q 353 2603 747 3093 
Q 1141 3584 1784 3584 
Q 2172 3584 2450 3431 
Q 2728 3278 2906 2969 
L 2906 3500 
L 3481 3500 
L 3481 434 
z
" transform="scale(0.015625)"/>
      <path id="DejaVuSans-e" d="M 2944 4013 
L 2944 2272 
L 4684 2272 
L 4684 1741 
L 2944 1741 
L 2944 0 
L 2419 0 
L 2419 1741 
L 678 1741 
L 678 2272 
L 2419 2272 
L 2419 4013 
L 2944 4013 
z
" transform="scale(0.015625)"/>
      <path id="DejaVuSans-12" d="M 1625 4666 
L 2156 4666 
L 531 -594 
L 0 -594 
L 1625 4666 
z
" transform="scale(0.015625)"/>
      <path id="DejaVuSans-13b0" d="M 1831 4863 
L 3431 4863 
L 3431 0 
L 2853 0 
L 2853 4384 
L 1825 4384 
Q 1516 4384 1395 4259 
Q 1275 4134 1275 3809 
L 1275 3500 
L 2222 3500 
L 2222 3053 
L 1275 3053 
L 1275 0 
L 697 0 
L 697 3053 
L 147 3053 
L 147 3500 
L 697 3500 
L 697 3744 
Q 697 4328 969 4595 
Q 1241 4863 1831 4863 
z
" transform="scale(0.015625)"/>
      <path id="DejaVuSans-4b" d="M 3513 2113 
L 3513 0 
L 2938 0 
L 2938 2094 
Q 2938 2591 2744 2837 
Q 2550 3084 2163 3084 
Q 1697 3084 1428 2787 
Q 1159 2491 1159 1978 
L 1159 0 
L 581 0 
L 581 4863 
L 1159 4863 
L 1159 2956 
Q 1366 3272 1645 3428 
Q 1925 3584 2291 3584 
Q 2894 3584 3203 3211 
Q 3513 2838 3513 2113 
z
" transform="scale(0.015625)"/>
     </defs>
     <use xlink:href="#DejaVuSans-32"/>
     <use xlink:href="#DejaVuSans-58" transform="translate(78.71875 0)"/>
     <use xlink:href="#DejaVuSans-57" transform="translate(142.09375 0)"/>
     <use xlink:href="#DejaVuSans-53" transform="translate(181.296875 0)"/>
     <use xlink:href="#DejaVuSans-58" transform="translate(244.78125 0)"/>
     <use xlink:href="#DejaVuSans-57" transform="translate(308.15625 0)"/>
     <use xlink:href="#DejaVuSans-3" transform="translate(347.359375 0)"/>
     <use xlink:href="#DejaVuSans-29" transform="translate(379.140625 0)"/>
     <use xlink:href="#DejaVuSans-29" transform="translate(436.65625 0)"/>
     <use xlink:href="#DejaVuSans-37" transform="translate(492.421875 0)"/>
     <use xlink:href="#DejaVuSans-3" transform="translate(553.5 0)"/>
     <use xlink:href="#DejaVuSans-53" transform="translate(585.28125 0)"/>
     <use xlink:href="#DejaVuSans-48" transform="translate(648.765625 0)"/>
     <use xlink:href="#DejaVuSans-44" transform="translate(710.296875 0)"/>
     <use xlink:href="#DejaVuSans-4e" transform="translate(771.578125 0)"/>
     <use xlink:href="#DejaVuSans-3" transform="translate(829.484375 0)"/>
     <use xlink:href="#DejaVuSans-cd2" transform="translate(861.265625 0)"/>
     <use xlink:href="#DejaVuSans-3" transform="translate(945.0625 0)"/>
     <use xlink:href="#DejaVuSans-13" transform="translate(976.84375 0)"/>
     <use xlink:href="#DejaVuSans-11" transform="translate(1040.46875 0)"/>
     <use xlink:href="#DejaVuSans-1a" transform="translate(1072.25 0)"/>
     <use xlink:href="#DejaVuSans-13" transform="translate(1135.875 0)"/>
     <use xlink:href="#DejaVuSans-13" transform="translate(1199.5 0)"/>
     <use xlink:href="#DejaVuSans-3" transform="translate(1263.125 0)"/>
     <use xlink:href="#DejaVuSans-b" transform="translate(1294.90625 0)"/>
     <use xlink:href="#DejaVuSans-44" transform="translate(1333.921875 0)"/>
     <use xlink:href="#DejaVuSans-55" transform="translate(1395.203125 0)"/>
     <use xlink:href="#DejaVuSans-45" transform="translate(1436.3125 0)"/>
     <use xlink:href="#DejaVuSans-11" transform="translate(1499.796875 0)"/>
     <use xlink:href="#DejaVuSans-c" transform="translate(1531.578125 0)"/>
     <use xlink:href="#DejaVuSans-f" transform="translate(1570.59375 0)"/>
     <use xlink:href="#DejaVuSans-3" transform="translate(1602.375 0)"/>
     <use xlink:href="#DejaVuSans-50" transform="translate(1634.15625 0)"/>
     <use xlink:href="#DejaVuSans-44" transform="translate(1731.5625 0)"/>
     <use xlink:href="#DejaVuSans-4a" transform="translate(1792.84375 0)"/>
     <use xlink:href="#DejaVuSans-51" transform="translate(1856.328125 0)"/>
     <use xlink:href="#DejaVuSans-4c" transform="translate(1919.703125 0)"/>
     <use xlink:href="#DejaVuSans-57" transform="translate(1947.484375 0)"/>
     <use xlink:href="#DejaVuSans-58" transform="translate(1986.6875 0)"/>
     <use xlink:href="#DejaVuSans-47" transform="translate(2050.0625 0)"/>
     <use xlink:href="#DejaVuSans-48" transform="translate(2113.546875 0)"/>
     <use xlink:href="#DejaVuSans-3" transform="translate(2175.078125 0)"/>
     <use xlink:href="#DejaVuSans-cd2" transform="translate(2206.859375 0)"/>
     <use xlink:href="#DejaVuSans-3" transform="translate(2290.65625 0)"/>
     <use xlink:href="#DejaVuSans-19" transform="translate(2322.4375 0)"/>
     <use xlink:href="#DejaVuSans-11" transform="translate(2386.0625 0)"/>
     <use xlink:href="#DejaVuSans-1b" transform="translate(2417.84375 0)"/>
     <use xlink:href="#DejaVuSans-1a" transform="translate(2481.46875 0)"/>
     <use xlink:href="#DejaVuSans-1c" transform="translate(2545.09375 0)"/>
     <use xlink:href="#DejaVuSans-48" transform="translate(2608.71875 0)"/>
     <use xlink:href="#DejaVuSans-e" transform="translate(2670.25 0)"/>
     <use xlink:href="#DejaVuSans-13" transform="translate(2754.046875 0)"/>
     <use xlink:href="#DejaVuSans-14" transform="translate(2817.671875 0)"/>
     <use xlink:href="#DejaVuSans-3" transform="translate(2881.296875 0)"/>
     <use xlink:href="#DejaVuSans-5f" transform="translate(2913.078125 0)"/>
     <use xlink:href="#DejaVuSans-3" transform="translate(2946.765625 0)"/>
     <use xlink:href="#DejaVuSans-45" transform="translate(2978.546875 0)"/>
     <use xlink:href="#DejaVuSans-44" transform="translate(3042.03125 0)"/>
     <use xlink:href="#DejaVuSans-51" transform="translate(3103.3125 0)"/>
     <use xlink:href="#DejaVuSans-47" transform="translate(3166.6875 0)"/>
     <use xlink:href="#DejaVuSans-12" transform="translate(3230.171875 0)"/>
     <use xlink:href="#DejaVuSans-13b0" transform="translate(3263.859375 0)"/>
     <use xlink:href="#DejaVuSans-44" transform="translate(3326.84375 0)"/>
     <use xlink:href="#DejaVuSans-57" transform="translate(3388.125 0)"/>
     <use xlink:href="#DejaVuSans-10" transform="translate(3427.328125 0)"/>
     <use xlink:href="#DejaVuSans-4c" transform="translate(3463.40625 0)"/>
     <use xlink:href="#DejaVuSans-56" transform="translate(3491.1875 0)"/>
     <use xlink:href="#DejaVuSans-4b" transform="translate(3543.28125 0)"/>
    </g>
   </g>
   <g id="legend_2">
    <g id="patch_13">
     <path d="M 535.603125 317.803555 
L 621.2 317.803555 
Q 623.2 317.803555 623.2 315.803555 
L 623.2 286.801992 
Q 623.2 284.801992 621.2 284.801992 
L 535.603125 284.801992 
Q 533.603125 284.801992 533.603125 286.801992 
L 533.603125 315.803555 
Q 533.603125 317.803555 535.603125 317.803555 
z
" style="fill: #ffffff; opacity: 0.8; stroke: #cccccc; stroke-linejoin: miter"/>
    </g>
    <g id="line2d_71">
     <path d="M 537.603125 292.90043 
L 547.603125 292.90043 
L 557.603125 292.90043 
" style="fill: none; stroke: #1f77b4; stroke-opacity: 0.6; stroke-width: 1.5; stroke-linecap: square"/>
    </g>
    <g id="text_33">
     <!-- input FFT -->
     <g transform="translate(565.603125 296.40043) scale(0.1 -0.1)">
      <use xlink:href="#DejaVuSans-4c"/>
      <use xlink:href="#DejaVuSans-51" transform="translate(27.78125 0)"/>
      <use xlink:href="#DejaVuSans-53" transform="translate(91.15625 0)"/>
      <use xlink:href="#DejaVuSans-58" transform="translate(154.640625 0)"/>
      <use xlink:href="#DejaVuSans-57" transform="translate(218.015625 0)"/>
      <use xlink:href="#DejaVuSans-3" transform="translate(257.21875 0)"/>
      <use xlink:href="#DejaVuSans-29" transform="translate(289 0)"/>
      <use xlink:href="#DejaVuSans-29" transform="translate(346.515625 0)"/>
      <use xlink:href="#DejaVuSans-37" transform="translate(402.28125 0)"/>
     </g>
    </g>
    <g id="line2d_72">
     <path d="M 537.603125 307.901211 
L 547.603125 307.901211 
L 557.603125 307.901211 
" style="fill: none; stroke: #ff7f0e; stroke-width: 1.5; stroke-linecap: square"/>
    </g>
    <g id="text_34">
     <!-- output FFT -->
     <g transform="translate(565.603125 311.401211) scale(0.1 -0.1)">
      <use xlink:href="#DejaVuSans-52"/>
      <use xlink:href="#DejaVuSans-58" transform="translate(61.1875 0)"/>
      <use xlink:href="#DejaVuSans-57" transform="translate(124.5625 0)"/>
      <use xlink:href="#DejaVuSans-53" transform="translate(163.765625 0)"/>
      <use xlink:href="#DejaVuSans-58" transform="translate(227.25 0)"/>
      <use xlink:href="#DejaVuSans-57" transform="translate(290.625 0)"/>
      <use xlink:href="#DejaVuSans-3" transform="translate(329.828125 0)"/>
      <use xlink:href="#DejaVuSans-29" transform="translate(361.609375 0)"/>
      <use xlink:href="#DejaVuSans-29" transform="translate(419.125 0)"/>
      <use xlink:href="#DejaVuSans-37" transform="translate(474.890625 0)"/>
     </g>
    </g>
   </g>
  </g>
 </g>
 <defs>
  <clipPath id="p4a1663ac4a">
   <rect x="60.202344" y="42.006328" width="567.997656" height="180.31332"/>
  </clipPath>
  <clipPath id="p7dfa6bea79">
   <rect x="60.202344" y="279.801992" width="567.997656" height="180.31332"/>
  </clipPath>
 </defs>
</svg>
