<?xml version="1.0" encoding="utf-8" standalone="no"?>
<!DOCTYPE svg PUBLIC "-//W3C//DTD SVG 1.1//EN"
  "http://www.w3.org/Graphics/SVG/1.1/DTD/svg11.dtd">
<svg xmlns:xlink="http://www.w3.org/1999/xlink" width="648pt" height="504pt" viewBox="0 0 648 504" xmlns="http://www.w3.org/2000/svg" version="1.1">
 <metadata>
  <rdf:RDF xmlns:dc="http://purl.org/dc/elements/1.1/" xmlns:cc="http://creativecommons.org/ns#" xmlns:rdf="http://www.w3.org/1999/02/22-rdf-syntax-ns#">
   <cc:Work>
    <dc:type rdf:resource="http://purl.org/dc/dcmitype/StillImage"/>
    <dc:date>2026-01-19T02:26:09.765865</dc:date>
    <dc:format>image/svg+xml</dc:format>
    <dc:creator>
     <cc:Agent>
      <dc:title>Matplotlib v3.10.8, https://matplotlib.org/</dc:title>
     </cc:Agent>
    </dc:creator>
   </cc:Work>
  </rdf:RDF>
 </metadata>
 <defs>
  <style type="text/css">*{stroke-linejoin: round; stroke-linecap: butt}</style>
 </defs>
 <g id="figure_1">
  <g id="patch_1">
   <path d="M 0 504 
L 648 504 
L 648 0 
L 0 0 
z
" style="fill: #ffffff"/>
  </g>
  <g id="axes_1">
   <g id="patch_2">
    <path d="M 56.255804 221.272 
L 628.183658 221.272 
L 628.183658 41.856 
L 56.255804 41.856 
z
" style="fill: #ffffff"/>
   </g>
   <g id="matplotlib.axis_1">
    <g id="xtick_1">
     <g id="line2d_1">
      <path d="M 82.252525 221.272 
L 82.252525 41.856 
" clip-path="url(#p9333174d02)" style="fill: none; stroke: #b0b0b0; stroke-opacity: 0.25; stroke-width: 0.8; stroke-linecap: square"/>
     </g>
     <g id="line2d_2">
      <defs>
       <path id="m1335e0e1e2" d="M 0 0 
L 0 3.5 
" style="stroke: #000000; stroke-width: 0.8"/>
      </defs>
      <g>
       <use xlink:href="#m1335e0e1e2" x="82.252525" y="221.272" style="stroke: #000000; stroke-width: 0.8"/>
      </g>
     </g>
     <g id="text_1">
      <!-- 0 -->
      <g transform="translate(79.071275 235.870437) scale(0.1 -0.1)">
       <defs>
        <path id="DejaVuSans-30" d="M 2034 4250 
Q 1547 4250 1301 3770 
Q 1056 3291 1056 2328 
Q 1056 1369 1301 889 
Q 1547 409 2034 409 
Q 2525 409 2770 889 
Q 3016 1369 3016 2328 
Q 3016 3291 2770 3770 
Q 2525 4250 2034 4250 
z
M 2034 4750 
Q 2819 4750 3233 4129 
Q 3647 3509 3647 2328 
Q 3647 1150 3233 529 
Q 2819 -91 2034 -91 
Q 1250 -91 836 529 
Q 422 1150 422 2328 
Q 422 3509 836 4129 
Q 1250 4750 2034 4750 
z
" transform="scale(0.015625)"/>
       </defs>
       <use xlink:href="#DejaVuSans-30"/>
      </g>
     </g>
    </g>
    <g id="xtick_2">
     <g id="line2d_3">
      <path d="M 186.264801 221.272 
L 186.264801 41.856 
" clip-path="url(#p9333174d02)" style="fill: none; stroke: #b0b0b0; stroke-opacity: 0.25; stroke-width: 0.8; stroke-linecap: square"/>
     </g>
     <g id="line2d_4">
      <g>
       <use xlink:href="#m1335e0e1e2" x="186.264801" y="221.272" style="stroke: #000000; stroke-width: 0.8"/>
      </g>
     </g>
     <g id="text_2">
      <!-- 2 -->
      <g transform="translate(183.083551 235.870437) scale(0.1 -0.1)">
       <defs>
        <path id="DejaVuSans-32" d="M 1228 531 
L 3431 531 
L 3431 0 
L 469 0 
L 469 531 
Q 828 903 1448 1529 
Q 2069 2156 2228 2338 
Q 2531 2678 2651 2914 
Q 2772 3150 2772 3378 
Q 2772 3750 2511 3984 
Q 2250 4219 1831 4219 
Q 1534 4219 1204 4116 
Q 875 4013 500 3803 
L 500 4441 
Q 881 4594 1212 4672 
Q 1544 4750 1819 4750 
Q 2544 4750 2975 4387 
Q 3406 4025 3406 3419 
Q 3406 3131 3298 2873 
Q 3191 2616 2906 2266 
Q 2828 2175 2409 1742 
Q 1991 1309 1228 531 
z
" transform="scale(0.015625)"/>
       </defs>
       <use xlink:href="#DejaVuSans-32"/>
      </g>
     </g>
    </g>
    <g id="xtick_3">
     <g id="line2d_5">
      <path d="M 290.277077 221.272 
L 290.277077 41.856 
" clip-path="url(#p9333174d02)" style="fill: none; stroke: #b0b0b0; stroke-opacity: 0.25; stroke-width: 0.8; stroke-linecap: square"/>
     </g>
     <g id="line2d_6">
      <g>
       <use xlink:href="#m1335e0e1e2" x="290.277077" y="221.272" style="stroke: #000000; stroke-width: 0.8"/>
      </g>
     </g>
     <g id="text_3">
      <!-- 4 -->
      <g transform="translate(287.095827 235.870437) scale(0.1 -0.1)">
       <defs>
        <path id="DejaVuSans-34" d="M 2419 4116 
L 825 1625 
L 2419 1625 
L 2419 4116 
z
M 2253 4666 
L 3047 4666 
L 3047 1625 
L 3713 1625 
L 3713 1100 
L 3047 1100 
L 3047 0 
L 2419 0 
L 2419 1100 
L 313 1100 
L 313 1709 
L 2253 4666 
z
" transform="scale(0.015625)"/>
       </defs>
       <use xlink:href="#DejaVuSans-34"/>
      </g>
     </g>
    </g>
    <g id="xtick_4">
     <g id="line2d_7">
      <path d="M 394.289353 221.272 
L 394.289353 41.856 
" clip-path="url(#p9333174d02)" style="fill: none; stroke: #b0b0b0; stroke-opacity: 0.25; stroke-width: 0.8; stroke-linecap: square"/>
     </g>
     <g id="line2d_8">
      <g>
       <use xlink:href="#m1335e0e1e2" x="394.289353" y="221.272" style="stroke: #000000; stroke-width: 0.8"/>
      </g>
     </g>
     <g id="text_4">
      <!-- 6 -->
      <g transform="translate(391.108103 235.870437) scale(0.1 -0.1)">
       <defs>
        <path id="DejaVuSans-36" d="M 2113 2584 
Q 1688 2584 1439 2293 
Q 1191 2003 1191 1497 
Q 1191 994 1439 701 
Q 1688 409 2113 409 
Q 2538 409 2786 701 
Q 3034 994 3034 1497 
Q 3034 2003 2786 2293 
Q 2538 2584 2113 2584 
z
M 3366 4563 
L 3366 3988 
Q 3128 4100 2886 4159 
Q 2644 4219 2406 4219 
Q 1781 4219 1451 3797 
Q 1122 3375 1075 2522 
Q 1259 2794 1537 2939 
Q 1816 3084 2150 3084 
Q 2853 3084 3261 2657 
Q 3669 2231 3669 1497 
Q 3669 778 3244 343 
Q 2819 -91 2113 -91 
Q 1303 -91 875 529 
Q 447 1150 447 2328 
Q 447 3434 972 4092 
Q 1497 4750 2381 4750 
Q 2619 4750 2861 4703 
Q 3103 4656 3366 4563 
z
" transform="scale(0.015625)"/>
       </defs>
       <use xlink:href="#DejaVuSans-36"/>
      </g>
     </g>
    </g>
    <g id="xtick_5">
     <g id="line2d_9">
      <path d="M 498.301629 221.272 
L 498.301629 41.856 
" clip-path="url(#p9333174d02)" style="fill: none; stroke: #b0b0b0; stroke-opacity: 0.25; stroke-width: 0.8; stroke-linecap: square"/>
     </g>
     <g id="line2d_10">
      <g>
       <use xlink:href="#m1335e0e1e2" x="498.301629" y="221.272" style="stroke: #000000; stroke-width: 0.8"/>
      </g>
     </g>
     <g id="text_5">
      <!-- 8 -->
      <g transform="translate(495.120379 235.870437) scale(0.1 -0.1)">
       <defs>
        <path id="DejaVuSans-38" d="M 2034 2216 
Q 1584 2216 1326 1975 
Q 1069 1734 1069 1313 
Q 1069 891 1326 650 
Q 1584 409 2034 409 
Q 2484 409 2743 651 
Q 3003 894 3003 1313 
Q 3003 1734 2745 1975 
Q 2488 2216 2034 2216 
z
M 1403 2484 
Q 997 2584 770 2862 
Q 544 3141 544 3541 
Q 544 4100 942 4425 
Q 1341 4750 2034 4750 
Q 2731 4750 3128 4425 
Q 3525 4100 3525 3541 
Q 3525 3141 3298 2862 
Q 3072 2584 2669 2484 
Q 3125 2378 3379 2068 
Q 3634 1759 3634 1313 
Q 3634 634 3220 271 
Q 2806 -91 2034 -91 
Q 1263 -91 848 271 
Q 434 634 434 1313 
Q 434 1759 690 2068 
Q 947 2378 1403 2484 
z
M 1172 3481 
Q 1172 3119 1398 2916 
Q 1625 2713 2034 2713 
Q 2441 2713 2670 2916 
Q 2900 3119 2900 3481 
Q 2900 3844 2670 4047 
Q 2441 4250 2034 4250 
Q 1625 4250 1398 4047 
Q 1172 3844 1172 3481 
z
" transform="scale(0.015625)"/>
       </defs>
       <use xlink:href="#DejaVuSans-38"/>
      </g>
     </g>
    </g>
    <g id="xtick_6">
     <g id="line2d_11">
      <path d="M 602.313905 221.272 
L 602.313905 41.856 
" clip-path="url(#p9333174d02)" style="fill: none; stroke: #b0b0b0; stroke-opacity: 0.25; stroke-width: 0.8; stroke-linecap: square"/>
     </g>
     <g id="line2d_12">
      <g>
       <use xlink:href="#m1335e0e1e2" x="602.313905" y="221.272" style="stroke: #000000; stroke-width: 0.8"/>
      </g>
     </g>
     <g id="text_6">
      <!-- 10 -->
      <g transform="translate(595.951405 235.870437) scale(0.1 -0.1)">
       <defs>
        <path id="DejaVuSans-31" d="M 794 531 
L 1825 531 
L 1825 4091 
L 703 3866 
L 703 4441 
L 1819 4666 
L 2450 4666 
L 2450 531 
L 3481 531 
L 3481 0 
L 794 0 
L 794 531 
z
" transform="scale(0.015625)"/>
       </defs>
       <use xlink:href="#DejaVuSans-31"/>
       <use xlink:href="#DejaVuSans-30" transform="translate(63.623047 0)"/>
      </g>
     </g>
    </g>
    <g id="text_7">
     <!-- t [arb.] -->
     <g transform="translate(324.886137 249.548563) scale(0.1 -0.1)">
      <defs>
       <path id="DejaVuSans-74" d="M 1172 4494 
L 1172 3500 
L 2356 3500 
L 2356 3053 
L 1172 3053 
L 1172 1153 
Q 1172 725 1289 603 
Q 1406 481 1766 481 
L 2356 481 
L 2356 0 
L 1766 0 
Q 1100 0 847 248 
Q 594 497 594 1153 
L 594 3053 
L 172 3053 
L 172 3500 
L 594 3500 
L 594 4494 
L 1172 4494 
z
" transform="scale(0.015625)"/>
       <path id="DejaVuSans-20" transform="scale(0.015625)"/>
       <path id="DejaVuSans-5b" d="M 550 4863 
L 1875 4863 
L 1875 4416 
L 1125 4416 
L 1125 -397 
L 1875 -397 
L 1875 -844 
L 550 -844 
L 550 4863 
z
" transform="scale(0.015625)"/>
       <path id="DejaVuSans-61" d="M 2194 1759 
Q 1497 1759 1228 1600 
Q 959 1441 959 1056 
Q 959 750 1161 570 
Q 1363 391 1709 391 
Q 2188 391 2477 730 
Q 2766 1069 2766 1631 
L 2766 1759 
L 2194 1759 
z
M 3341 1997 
L 3341 0 
L 2766 0 
L 2766 531 
Q 2569 213 2275 61 
Q 1981 -91 1556 -91 
Q 1019 -91 701 211 
Q 384 513 384 1019 
Q 384 1609 779 1909 
Q 1175 2209 1959 2209 
L 2766 2209 
L 2766 2266 
Q 2766 2663 2505 2880 
Q 2244 3097 1772 3097 
Q 1472 3097 1187 3025 
Q 903 2953 641 2809 
L 641 3341 
Q 956 3463 1253 3523 
Q 1550 3584 1831 3584 
Q 2591 3584 2966 3190 
Q 3341 2797 3341 1997 
z
" transform="scale(0.015625)"/>
       <path id="DejaVuSans-72" d="M 2631 2963 
Q 2534 3019 2420 3045 
Q 2306 3072 2169 3072 
Q 1681 3072 1420 2755 
Q 1159 2438 1159 1844 
L 1159 0 
L 581 0 
L 581 3500 
L 1159 3500 
L 1159 2956 
Q 1341 3275 1631 3429 
Q 1922 3584 2338 3584 
Q 2397 3584 2469 3576 
Q 2541 3569 2628 3553 
L 2631 2963 
z
" transform="scale(0.015625)"/>
       <path id="DejaVuSans-62" d="M 3116 1747 
Q 3116 2381 2855 2742 
Q 2594 3103 2138 3103 
Q 1681 3103 1420 2742 
Q 1159 2381 1159 1747 
Q 1159 1113 1420 752 
Q 1681 391 2138 391 
Q 2594 391 2855 752 
Q 3116 1113 3116 1747 
z
M 1159 2969 
Q 1341 3281 1617 3432 
Q 1894 3584 2278 3584 
Q 2916 3584 3314 3078 
Q 3713 2572 3713 1747 
Q 3713 922 3314 415 
Q 2916 -91 2278 -91 
Q 1894 -91 1617 61 
Q 1341 213 1159 525 
L 1159 0 
L 581 0 
L 581 4863 
L 1159 4863 
L 1159 2969 
z
" transform="scale(0.015625)"/>
       <path id="DejaVuSans-2e" d="M 684 794 
L 1344 794 
L 1344 0 
L 684 0 
L 684 794 
z
" transform="scale(0.015625)"/>
       <path id="DejaVuSans-5d" d="M 1947 4863 
L 1947 -844 
L 622 -844 
L 622 -397 
L 1369 -397 
L 1369 4416 
L 622 4416 
L 622 4863 
L 1947 4863 
z
" transform="scale(0.015625)"/>
      </defs>
      <use xlink:href="#DejaVuSans-74"/>
      <use xlink:href="#DejaVuSans-20" transform="translate(39.208984 0)"/>
      <use xlink:href="#DejaVuSans-5b" transform="translate(70.996094 0)"/>
      <use xlink:href="#DejaVuSans-61" transform="translate(110.009766 0)"/>
      <use xlink:href="#DejaVuSans-72" transform="translate(171.289062 0)"/>
      <use xlink:href="#DejaVuSans-62" transform="translate(212.402344 0)"/>
      <use xlink:href="#DejaVuSans-2e" transform="translate(275.878906 0)"/>
      <use xlink:href="#DejaVuSans-5d" transform="translate(307.666016 0)"/>
     </g>
    </g>
   </g>
   <g id="matplotlib.axis_2">
    <g id="ytick_1">
     <g id="line2d_13">
      <path d="M 56.255804 198.879586 
L 628.183658 198.879586 
" clip-path="url(#p9333174d02)" style="fill: none; stroke: #b0b0b0; stroke-opacity: 0.25; stroke-width: 0.8; stroke-linecap: square"/>
     </g>
     <g id="line2d_14">
      <defs>
       <path id="m586c9af9eb" d="M 0 0 
L -3.5 0 
" style="stroke: #000000; stroke-width: 0.8"/>
      </defs>
      <g>
       <use xlink:href="#m586c9af9eb" x="56.255804" y="198.879586" style="stroke: #000000; stroke-width: 0.8"/>
      </g>
     </g>
     <g id="text_8">
      <!-- 0.0 -->
      <g transform="translate(33.352679 202.678804) scale(0.1 -0.1)">
       <use xlink:href="#DejaVuSans-30"/>
       <use xlink:href="#DejaVuSans-2e" transform="translate(63.623047 0)"/>
       <use xlink:href="#DejaVuSans-30" transform="translate(95.410156 0)"/>
      </g>
     </g>
    </g>
    <g id="ytick_2">
     <g id="line2d_15">
      <path d="M 56.255804 171.397084 
L 628.183658 171.397084 
" clip-path="url(#p9333174d02)" style="fill: none; stroke: #b0b0b0; stroke-opacity: 0.25; stroke-width: 0.8; stroke-linecap: square"/>
     </g>
     <g id="line2d_16">
      <g>
       <use xlink:href="#m586c9af9eb" x="56.255804" y="171.397084" style="stroke: #000000; stroke-width: 0.8"/>
      </g>
     </g>
     <g id="text_9">
      <!-- 0.2 -->
      <g transform="translate(33.352679 175.196303) scale(0.1 -0.1)">
       <use xlink:href="#DejaVuSans-30"/>
       <use xlink:href="#DejaVuSans-2e" transform="translate(63.623047 0)"/>
       <use xlink:href="#DejaVuSans-32" transform="translate(95.410156 0)"/>
      </g>
     </g>
    </g>
    <g id="ytick_3">
     <g id="line2d_17">
      <path d="M 56.255804 143.914583 
L 628.183658 143.914583 
" clip-path="url(#p9333174d02)" style="fill: none; stroke: #b0b0b0; stroke-opacity: 0.25; stroke-width: 0.8; stroke-linecap: square"/>
     </g>
     <g id="line2d_18">
      <g>
       <use xlink:href="#m586c9af9eb" x="56.255804" y="143.914583" style="stroke: #000000; stroke-width: 0.8"/>
      </g>
     </g>
     <g id="text_10">
      <!-- 0.4 -->
      <g transform="translate(33.352679 147.713802) scale(0.1 -0.1)">
       <use xlink:href="#DejaVuSans-30"/>
       <use xlink:href="#DejaVuSans-2e" transform="translate(63.623047 0)"/>
       <use xlink:href="#DejaVuSans-34" transform="translate(95.410156 0)"/>
      </g>
     </g>
    </g>
    <g id="ytick_4">
     <g id="line2d_19">
      <path d="M 56.255804 116.432082 
L 628.183658 116.432082 
" clip-path="url(#p9333174d02)" style="fill: none; stroke: #b0b0b0; stroke-opacity: 0.25; stroke-width: 0.8; stroke-linecap: square"/>
     </g>
     <g id="line2d_20">
      <g>
       <use xlink:href="#m586c9af9eb" x="56.255804" y="116.432082" style="stroke: #000000; stroke-width: 0.8"/>
      </g>
     </g>
     <g id="text_11">
      <!-- 0.6 -->
      <g transform="translate(33.352679 120.231301) scale(0.1 -0.1)">
       <use xlink:href="#DejaVuSans-30"/>
       <use xlink:href="#DejaVuSans-2e" transform="translate(63.623047 0)"/>
       <use xlink:href="#DejaVuSans-36" transform="translate(95.410156 0)"/>
      </g>
     </g>
    </g>
    <g id="ytick_5">
     <g id="line2d_21">
      <path d="M 56.255804 88.949581 
L 628.183658 88.949581 
" clip-path="url(#p9333174d02)" style="fill: none; stroke: #b0b0b0; stroke-opacity: 0.25; stroke-width: 0.8; stroke-linecap: square"/>
     </g>
     <g id="line2d_22">
      <g>
       <use xlink:href="#m586c9af9eb" x="56.255804" y="88.949581" style="stroke: #000000; stroke-width: 0.8"/>
      </g>
     </g>
     <g id="text_12">
      <!-- 0.8 -->
      <g transform="translate(33.352679 92.748799) scale(0.1 -0.1)">
       <use xlink:href="#DejaVuSans-30"/>
       <use xlink:href="#DejaVuSans-2e" transform="translate(63.623047 0)"/>
       <use xlink:href="#DejaVuSans-38" transform="translate(95.410156 0)"/>
      </g>
     </g>
    </g>
    <g id="ytick_6">
     <g id="line2d_23">
      <path d="M 56.255804 61.467079 
L 628.183658 61.467079 
" clip-path="url(#p9333174d02)" style="fill: none; stroke: #b0b0b0; stroke-opacity: 0.25; stroke-width: 0.8; stroke-linecap: square"/>
     </g>
     <g id="line2d_24">
      <g>
       <use xlink:href="#m586c9af9eb" x="56.255804" y="61.467079" style="stroke: #000000; stroke-width: 0.8"/>
      </g>
     </g>
     <g id="text_13">
      <!-- 1.0 -->
      <g transform="translate(33.352679 65.266298) scale(0.1 -0.1)">
       <use xlink:href="#DejaVuSans-31"/>
       <use xlink:href="#DejaVuSans-2e" transform="translate(63.623047 0)"/>
       <use xlink:href="#DejaVuSans-30" transform="translate(95.410156 0)"/>
      </g>
     </g>
    </g>
    <g id="text_14">
     <!-- [arb.] -->
     <g transform="translate(27.272991 145.348375) rotate(-90) scale(0.1 -0.1)">
      <use xlink:href="#DejaVuSans-5b"/>
      <use xlink:href="#DejaVuSans-61" transform="translate(39.013672 0)"/>
      <use xlink:href="#DejaVuSans-72" transform="translate(100.292969 0)"/>
      <use xlink:href="#DejaVuSans-62" transform="translate(141.40625 0)"/>
      <use xlink:href="#DejaVuSans-2e" transform="translate(204.882812 0)"/>
      <use xlink:href="#DejaVuSans-5d" transform="translate(236.669922 0)"/>
     </g>
    </g>
   </g>
   <g id="line2d_25">
    <path d="M 82.252525 198.879586 
L 134.182482 198.879586 
L 134.30945 50.011273 
L 602.186937 50.011273 
L 602.186937 50.011273 
" clip-path="url(#p9333174d02)" style="fill: none; stroke: #1f77b4; stroke-width: 1.5; stroke-linecap: square"/>
   </g>
   <g id="line2d_26">
    <path d="M 82.252525 198.879586 
L 134.436418 198.809162 
L 147.006261 194.28047 
L 156.020997 191.266754 
L 163.766051 188.908108 
L 170.876266 186.97383 
L 177.478607 185.404652 
L 183.827013 184.122545 
L 189.921482 183.115441 
L 195.888983 182.351879 
L 201.729517 181.82435 
L 207.57005 181.517748 
L 213.410583 181.432728 
L 219.251116 181.567159 
L 225.218617 181.92612 
L 231.313086 182.515637 
L 237.661492 183.356989 
L 244.263834 184.460911 
L 251.24708 185.858961 
L 258.738198 187.589462 
L 267.118093 189.760009 
L 277.021606 192.564007 
L 292.003843 197.069522 
L 309.65241 202.325425 
L 319.682891 205.075102 
L 328.189755 207.179687 
L 335.934809 208.868016 
L 343.171992 210.219177 
L 350.02827 211.276879 
L 356.757579 212.090241 
L 363.359921 212.662312 
L 369.835295 213.000634 
L 376.310668 213.116668 
L 382.786042 213.012179 
L 389.388384 212.683917 
L 396.117694 212.128142 
L 403.10094 211.329083 
L 410.46509 210.261028 
L 418.337113 208.891799 
L 426.970945 207.161279 
L 437.001425 204.917782 
L 450.587013 201.631892 
L 475.726699 195.524662 
L 486.138084 193.252002 
L 495.15282 191.507611 
L 503.405747 190.135076 
L 511.150802 189.069725 
L 518.64192 188.263093 
L 525.879103 187.704745 
L 533.116285 187.370473 
L 540.226499 187.262634 
L 547.463681 187.375472 
L 554.827832 187.714441 
L 562.445918 188.291515 
L 570.317941 189.112241 
L 578.697837 190.210885 
L 587.839541 191.635817 
L 598.377894 193.509308 
L 602.186937 194.232412 
L 602.186937 194.232412 
" clip-path="url(#p9333174d02)" style="fill: none; stroke: #ff7f0e; stroke-width: 1.5; stroke-linecap: square"/>
   </g>
   <g id="patch_3">
    <path d="M 56.255804 221.272 
L 56.255804 41.856 
" style="fill: none; stroke: #000000; stroke-width: 0.8; stroke-linejoin: miter; stroke-linecap: square"/>
   </g>
   <g id="patch_4">
    <path d="M 628.183658 221.272 
L 628.183658 41.856 
" style="fill: none; stroke: #000000; stroke-width: 0.8; stroke-linejoin: miter; stroke-linecap: square"/>
   </g>
   <g id="patch_5">
    <path d="M 56.255804 221.272 
L 628.183658 221.272 
" style="fill: none; stroke: #000000; stroke-width: 0.8; stroke-linejoin: miter; stroke-linecap: square"/>
   </g>
   <g id="patch_6">
    <path d="M 56.255804 41.856 
L 628.183658 41.856 
" style="fill: none; stroke: #000000; stroke-width: 0.8; stroke-linejoin: miter; stroke-linecap: square"/>
   </g>
   <g id="text_15">
    <!-- Daily Useless RLC (2026-01-19) | verdict: restless -->
    <g transform="translate(193.639106 22.021875) scale(0.12 -0.12)">
     <defs>
      <path id="DejaVuSans-44" d="M 1259 4147 
L 1259 519 
L 2022 519 
Q 2988 519 3436 956 
Q 3884 1394 3884 2338 
Q 3884 3275 3436 3711 
Q 2988 4147 2022 4147 
L 1259 4147 
z
M 628 4666 
L 1925 4666 
Q 3281 4666 3915 4102 
Q 4550 3538 4550 2338 
Q 4550 1131 3912 565 
Q 3275 0 1925 0 
L 628 0 
L 628 4666 
z
" transform="scale(0.015625)"/>
      <path id="DejaVuSans-69" d="M 603 3500 
L 1178 3500 
L 1178 0 
L 603 0 
L 603 3500 
z
M 603 4863 
L 1178 4863 
L 1178 4134 
L 603 4134 
L 603 4863 
z
" transform="scale(0.015625)"/>
      <path id="DejaVuSans-6c" d="M 603 4863 
L 1178 4863 
L 1178 0 
L 603 0 
L 603 4863 
z
" transform="scale(0.015625)"/>
      <path id="DejaVuSans-79" d="M 2059 -325 
Q 1816 -950 1584 -1140 
Q 1353 -1331 966 -1331 
L 506 -1331 
L 506 -850 
L 844 -850 
Q 1081 -850 1212 -737 
Q 1344 -625 1503 -206 
L 1606 56 
L 191 3500 
L 800 3500 
L 1894 763 
L 2988 3500 
L 3597 3500 
L 2059 -325 
z
" transform="scale(0.015625)"/>
      <path id="DejaVuSans-55" d="M 556 4666 
L 1191 4666 
L 1191 1831 
Q 1191 1081 1462 751 
Q 1734 422 2344 422 
Q 2950 422 3222 751 
Q 3494 1081 3494 1831 
L 3494 4666 
L 4128 4666 
L 4128 1753 
Q 4128 841 3676 375 
Q 3225 -91 2344 -91 
Q 1459 -91 1007 375 
Q 556 841 556 1753 
L 556 4666 
z
" transform="scale(0.015625)"/>
      <path id="DejaVuSans-73" d="M 2834 3397 
L 2834 2853 
Q 2591 2978 2328 3040 
Q 2066 3103 1784 3103 
Q 1356 3103 1142 2972 
Q 928 2841 928 2578 
Q 928 2378 1081 2264 
Q 1234 2150 1697 2047 
L 1894 2003 
Q 2506 1872 2764 1633 
Q 3022 1394 3022 966 
Q 3022 478 2636 193 
Q 2250 -91 1575 -91 
Q 1294 -91 989 -36 
Q 684 19 347 128 
L 347 722 
Q 666 556 975 473 
Q 1284 391 1588 391 
Q 1994 391 2212 530 
Q 2431 669 2431 922 
Q 2431 1156 2273 1281 
Q 2116 1406 1581 1522 
L 1381 1569 
Q 847 1681 609 1914 
Q 372 2147 372 2553 
Q 372 3047 722 3315 
Q 1072 3584 1716 3584 
Q 2034 3584 2315 3537 
Q 2597 3491 2834 3397 
z
" transform="scale(0.015625)"/>
      <path id="DejaVuSans-65" d="M 3597 1894 
L 3597 1613 
L 953 1613 
Q 991 1019 1311 708 
Q 1631 397 2203 397 
Q 2534 397 2845 478 
Q 3156 559 3463 722 
L 3463 178 
Q 3153 47 2828 -22 
Q 2503 -91 2169 -91 
Q 1331 -91 842 396 
Q 353 884 353 1716 
Q 353 2575 817 3079 
Q 1281 3584 2069 3584 
Q 2775 3584 3186 3129 
Q 3597 2675 3597 1894 
z
M 3022 2063 
Q 3016 2534 2758 2815 
Q 2500 3097 2075 3097 
Q 1594 3097 1305 2825 
Q 1016 2553 972 2059 
L 3022 2063 
z
" transform="scale(0.015625)"/>
      <path id="DejaVuSans-52" d="M 2841 2188 
Q 3044 2119 3236 1894 
Q 3428 1669 3622 1275 
L 4263 0 
L 3584 0 
L 2988 1197 
Q 2756 1666 2539 1819 
Q 2322 1972 1947 1972 
L 1259 1972 
L 1259 0 
L 628 0 
L 628 4666 
L 2053 4666 
Q 2853 4666 3247 4331 
Q 3641 3997 3641 3322 
Q 3641 2881 3436 2590 
Q 3231 2300 2841 2188 
z
M 1259 4147 
L 1259 2491 
L 2053 2491 
Q 2509 2491 2742 2702 
Q 2975 2913 2975 3322 
Q 2975 3731 2742 3939 
Q 2509 4147 2053 4147 
L 1259 4147 
z
" transform="scale(0.015625)"/>
      <path id="DejaVuSans-4c" d="M 628 4666 
L 1259 4666 
L 1259 531 
L 3531 531 
L 3531 0 
L 628 0 
L 628 4666 
z
" transform="scale(0.015625)"/>
      <path id="DejaVuSans-43" d="M 4122 4306 
L 4122 3641 
Q 3803 3938 3442 4084 
Q 3081 4231 2675 4231 
Q 1875 4231 1450 3742 
Q 1025 3253 1025 2328 
Q 1025 1406 1450 917 
Q 1875 428 2675 428 
Q 3081 428 3442 575 
Q 3803 722 4122 1019 
L 4122 359 
Q 3791 134 3420 21 
Q 3050 -91 2638 -91 
Q 1578 -91 968 557 
Q 359 1206 359 2328 
Q 359 3453 968 4101 
Q 1578 4750 2638 4750 
Q 3056 4750 3426 4639 
Q 3797 4528 4122 4306 
z
" transform="scale(0.015625)"/>
      <path id="DejaVuSans-28" d="M 1984 4856 
Q 1566 4138 1362 3434 
Q 1159 2731 1159 2009 
Q 1159 1288 1364 580 
Q 1569 -128 1984 -844 
L 1484 -844 
Q 1016 -109 783 600 
Q 550 1309 550 2009 
Q 550 2706 781 3412 
Q 1013 4119 1484 4856 
L 1984 4856 
z
" transform="scale(0.015625)"/>
      <path id="DejaVuSans-2d" d="M 313 2009 
L 1997 2009 
L 1997 1497 
L 313 1497 
L 313 2009 
z
" transform="scale(0.015625)"/>
      <path id="DejaVuSans-39" d="M 703 97 
L 703 672 
Q 941 559 1184 500 
Q 1428 441 1663 441 
Q 2288 441 2617 861 
Q 2947 1281 2994 2138 
Q 2813 1869 2534 1725 
Q 2256 1581 1919 1581 
Q 1219 1581 811 2004 
Q 403 2428 403 3163 
Q 403 3881 828 4315 
Q 1253 4750 1959 4750 
Q 2769 4750 3195 4129 
Q 3622 3509 3622 2328 
Q 3622 1225 3098 567 
Q 2575 -91 1691 -91 
Q 1453 -91 1209 -44 
Q 966 3 703 97 
z
M 1959 2075 
Q 2384 2075 2632 2365 
Q 2881 2656 2881 3163 
Q 2881 3666 2632 3958 
Q 2384 4250 1959 4250 
Q 1534 4250 1286 3958 
Q 1038 3666 1038 3163 
Q 1038 2656 1286 2365 
Q 1534 2075 1959 2075 
z
" transform="scale(0.015625)"/>
      <path id="DejaVuSans-29" d="M 513 4856 
L 1013 4856 
Q 1481 4119 1714 3412 
Q 1947 2706 1947 2009 
Q 1947 1309 1714 600 
Q 1481 -109 1013 -844 
L 513 -844 
Q 928 -128 1133 580 
Q 1338 1288 1338 2009 
Q 1338 2731 1133 3434 
Q 928 4138 513 4856 
z
" transform="scale(0.015625)"/>
      <path id="DejaVuSans-7c" d="M 1344 4891 
L 1344 -1509 
L 813 -1509 
L 813 4891 
L 1344 4891 
z
" transform="scale(0.015625)"/>
      <path id="DejaVuSans-76" d="M 191 3500 
L 800 3500 
L 1894 563 
L 2988 3500 
L 3597 3500 
L 2284 0 
L 1503 0 
L 191 3500 
z
" transform="scale(0.015625)"/>
      <path id="DejaVuSans-64" d="M 2906 2969 
L 2906 4863 
L 3481 4863 
L 3481 0 
L 2906 0 
L 2906 525 
Q 2725 213 2448 61 
Q 2172 -91 1784 -91 
Q 1150 -91 751 415 
Q 353 922 353 1747 
Q 353 2572 751 3078 
Q 1150 3584 1784 3584 
Q 2172 3584 2448 3432 
Q 2725 3281 2906 2969 
z
M 947 1747 
Q 947 1113 1208 752 
Q 1469 391 1925 391 
Q 2381 391 2643 752 
Q 2906 1113 2906 1747 
Q 2906 2381 2643 2742 
Q 2381 3103 1925 3103 
Q 1469 3103 1208 2742 
Q 947 2381 947 1747 
z
" transform="scale(0.015625)"/>
      <path id="DejaVuSans-63" d="M 3122 3366 
L 3122 2828 
Q 2878 2963 2633 3030 
Q 2388 3097 2138 3097 
Q 1578 3097 1268 2742 
Q 959 2388 959 1747 
Q 959 1106 1268 751 
Q 1578 397 2138 397 
Q 2388 397 2633 464 
Q 2878 531 3122 666 
L 3122 134 
Q 2881 22 2623 -34 
Q 2366 -91 2075 -91 
Q 1284 -91 818 406 
Q 353 903 353 1747 
Q 353 2603 823 3093 
Q 1294 3584 2113 3584 
Q 2378 3584 2631 3529 
Q 2884 3475 3122 3366 
z
" transform="scale(0.015625)"/>
      <path id="DejaVuSans-3a" d="M 750 794 
L 1409 794 
L 1409 0 
L 750 0 
L 750 794 
z
M 750 3309 
L 1409 3309 
L 1409 2516 
L 750 2516 
L 750 3309 
z
" transform="scale(0.015625)"/>
     </defs>
     <use xlink:href="#DejaVuSans-44"/>
     <use xlink:href="#DejaVuSans-61" transform="translate(77.001953 0)"/>
     <use xlink:href="#DejaVuSans-69" transform="translate(138.28125 0)"/>
     <use xlink:href="#DejaVuSans-6c" transform="translate(166.064453 0)"/>
     <use xlink:href="#DejaVuSans-79" transform="translate(193.847656 0)"/>
     <use xlink:href="#DejaVuSans-20" transform="translate(253.027344 0)"/>
     <use xlink:href="#DejaVuSans-55" transform="translate(284.814453 0)"/>
     <use xlink:href="#DejaVuSans-73" transform="translate(358.007812 0)"/>
     <use xlink:href="#DejaVuSans-65" transform="translate(410.107422 0)"/>
     <use xlink:href="#DejaVuSans-6c" transform="translate(471.630859 0)"/>
     <use xlink:href="#DejaVuSans-65" transform="translate(499.414062 0)"/>
     <use xlink:href="#DejaVuSans-73" transform="translate(560.9375 0)"/>
     <use xlink:href="#DejaVuSans-73" transform="translate(613.037109 0)"/>
     <use xlink:href="#DejaVuSans-20" transform="translate(665.136719 0)"/>
     <use xlink:href="#DejaVuSans-52" transform="translate(696.923828 0)"/>
     <use xlink:href="#DejaVuSans-4c" transform="translate(766.40625 0)"/>
     <use xlink:href="#DejaVuSans-43" transform="translate(822.119141 0)"/>
     <use xlink:href="#DejaVuSans-20" transform="translate(891.943359 0)"/>
     <use xlink:href="#DejaVuSans-28" transform="translate(923.730469 0)"/>
     <use xlink:href="#DejaVuSans-32" transform="translate(962.744141 0)"/>
     <use xlink:href="#DejaVuSans-30" transform="translate(1026.367188 0)"/>
     <use xlink:href="#DejaVuSans-32" transform="translate(1089.990234 0)"/>
     <use xlink:href="#DejaVuSans-36" transform="translate(1153.613281 0)"/>
     <use xlink:href="#DejaVuSans-2d" transform="translate(1217.236328 0)"/>
     <use xlink:href="#DejaVuSans-30" transform="translate(1253.320312 0)"/>
     <use xlink:href="#DejaVuSans-31" transform="translate(1316.943359 0)"/>
     <use xlink:href="#DejaVuSans-2d" transform="translate(1380.566406 0)"/>
     <use xlink:href="#DejaVuSans-31" transform="translate(1416.650391 0)"/>
     <use xlink:href="#DejaVuSans-39" transform="translate(1480.273438 0)"/>
     <use xlink:href="#DejaVuSans-29" transform="translate(1543.896484 0)"/>
     <use xlink:href="#DejaVuSans-20" transform="translate(1582.910156 0)"/>
     <use xlink:href="#DejaVuSans-7c" transform="translate(1614.697266 0)"/>
     <use xlink:href="#DejaVuSans-20" transform="translate(1648.388672 0)"/>
     <use xlink:href="#DejaVuSans-76" transform="translate(1680.175781 0)"/>
     <use xlink:href="#DejaVuSans-65" transform="translate(1739.355469 0)"/>
     <use xlink:href="#DejaVuSans-72" transform="translate(1800.878906 0)"/>
     <use xlink:href="#DejaVuSans-64" transform="translate(1840.242188 0)"/>
     <use xlink:href="#DejaVuSans-69" transform="translate(1903.71875 0)"/>
     <use xlink:href="#DejaVuSans-63" transform="translate(1931.501953 0)"/>
     <use xlink:href="#DejaVuSans-74" transform="translate(1986.482422 0)"/>
     <use xlink:href="#DejaVuSans-3a" transform="translate(2025.691406 0)"/>
     <use xlink:href="#DejaVuSans-20" transform="translate(2059.382812 0)"/>
     <use xlink:href="#DejaVuSans-72" transform="translate(2091.169922 0)"/>
     <use xlink:href="#DejaVuSans-65" transform="translate(2130.033203 0)"/>
     <use xlink:href="#DejaVuSans-73" transform="translate(2191.556641 0)"/>
     <use xlink:href="#DejaVuSans-74" transform="translate(2243.65625 0)"/>
     <use xlink:href="#DejaVuSans-6c" transform="translate(2282.865234 0)"/>
     <use xlink:href="#DejaVuSans-65" transform="translate(2310.648438 0)"/>
     <use xlink:href="#DejaVuSans-73" transform="translate(2372.171875 0)"/>
     <use xlink:href="#DejaVuSans-73" transform="translate(2424.271484 0)"/>
    </g>
    <!-- Filter: band | Input: step, step (A=1.08) | R=1.292, L=10.00, C=0.10, ωn=1.00, ζ=0.065, Q=7.74 -->
    <g transform="translate(49.093481 35.856) scale(0.12 -0.12)">
     <defs>
      <path id="DejaVuSans-46" d="M 628 4666 
L 3309 4666 
L 3309 4134 
L 1259 4134 
L 1259 2759 
L 3109 2759 
L 3109 2228 
L 1259 2228 
L 1259 0 
L 628 0 
L 628 4666 
z
" transform="scale(0.015625)"/>
      <path id="DejaVuSans-6e" d="M 3513 2113 
L 3513 0 
L 2938 0 
L 2938 2094 
Q 2938 2591 2744 2837 
Q 2550 3084 2163 3084 
Q 1697 3084 1428 2787 
Q 1159 2491 1159 1978 
L 1159 0 
L 581 0 
L 581 3500 
L 1159 3500 
L 1159 2956 
Q 1366 3272 1645 3428 
Q 1925 3584 2291 3584 
Q 2894 3584 3203 3211 
Q 3513 2838 3513 2113 
z
" transform="scale(0.015625)"/>
      <path id="DejaVuSans-49" d="M 628 4666 
L 1259 4666 
L 1259 0 
L 628 0 
L 628 4666 
z
" transform="scale(0.015625)"/>
      <path id="DejaVuSans-70" d="M 1159 525 
L 1159 -1331 
L 581 -1331 
L 581 3500 
L 1159 3500 
L 1159 2969 
Q 1341 3281 1617 3432 
Q 1894 3584 2278 3584 
Q 2916 3584 3314 3078 
Q 3713 2572 3713 1747 
Q 3713 922 3314 415 
Q 2916 -91 2278 -91 
Q 1894 -91 1617 61 
Q 1341 213 1159 525 
z
M 3116 1747 
Q 3116 2381 2855 2742 
Q 2594 3103 2138 3103 
Q 1681 3103 1420 2742 
Q 1159 2381 1159 1747 
Q 1159 1113 1420 752 
Q 1681 391 2138 391 
Q 2594 391 2855 752 
Q 3116 1113 3116 1747 
z
" transform="scale(0.015625)"/>
      <path id="DejaVuSans-75" d="M 544 1381 
L 544 3500 
L 1119 3500 
L 1119 1403 
Q 1119 906 1312 657 
Q 1506 409 1894 409 
Q 2359 409 2629 706 
Q 2900 1003 2900 1516 
L 2900 3500 
L 3475 3500 
L 3475 0 
L 2900 0 
L 2900 538 
Q 2691 219 2414 64 
Q 2138 -91 1772 -91 
Q 1169 -91 856 284 
Q 544 659 544 1381 
z
M 1991 3584 
L 1991 3584 
z
" transform="scale(0.015625)"/>
      <path id="DejaVuSans-2c" d="M 750 794 
L 1409 794 
L 1409 256 
L 897 -744 
L 494 -744 
L 750 256 
L 750 794 
z
" transform="scale(0.015625)"/>
      <path id="DejaVuSans-41" d="M 2188 4044 
L 1331 1722 
L 3047 1722 
L 2188 4044 
z
M 1831 4666 
L 2547 4666 
L 4325 0 
L 3669 0 
L 3244 1197 
L 1141 1197 
L 716 0 
L 50 0 
L 1831 4666 
z
" transform="scale(0.015625)"/>
      <path id="DejaVuSans-3d" d="M 678 2906 
L 4684 2906 
L 4684 2381 
L 678 2381 
L 678 2906 
z
M 678 1631 
L 4684 1631 
L 4684 1100 
L 678 1100 
L 678 1631 
z
" transform="scale(0.015625)"/>
      <path id="DejaVuSans-3c9" d="M 1719 -91 
Q 422 -91 422 1766 
Q 422 2500 906 3500 
L 1525 3500 
Q 1078 2500 1078 1750 
Q 1078 397 1772 397 
Q 2406 397 2406 2078 
L 2938 2078 
Q 2938 397 3572 397 
Q 4266 397 4266 1750 
Q 4266 2500 3819 3500 
L 4438 3500 
Q 4922 2500 4922 1766 
Q 4922 -91 3625 -91 
Q 2775 -91 2672 844 
Q 2544 -91 1719 -91 
z
" transform="scale(0.015625)"/>
      <path id="DejaVuSans-3b6" d="M 2231 397 
Q 2644 394 2891 159 
Q 3153 -88 3153 -463 
Q 3153 -822 2922 -1072 
Q 2672 -1344 2163 -1344 
Q 2163 -1109 2163 -872 
Q 2378 -888 2509 -750 
Q 2609 -641 2609 -525 
Q 2609 -359 2509 -222 
Q 2413 -91 2231 -91 
Q 338 -91 334 1669 
Q 334 3206 2119 4284 
L 456 4284 
L 456 4863 
L 3175 4863 
L 3175 4284 
Q 913 3147 913 1669 
Q 913 397 2231 397 
z
" transform="scale(0.015625)"/>
      <path id="DejaVuSans-35" d="M 691 4666 
L 3169 4666 
L 3169 4134 
L 1269 4134 
L 1269 2991 
Q 1406 3038 1543 3061 
Q 1681 3084 1819 3084 
Q 2600 3084 3056 2656 
Q 3513 2228 3513 1497 
Q 3513 744 3044 326 
Q 2575 -91 1722 -91 
Q 1428 -91 1123 -41 
Q 819 9 494 109 
L 494 744 
Q 775 591 1075 516 
Q 1375 441 1709 441 
Q 2250 441 2565 725 
Q 2881 1009 2881 1497 
Q 2881 1984 2565 2268 
Q 2250 2553 1709 2553 
Q 1456 2553 1204 2497 
Q 953 2441 691 2322 
L 691 4666 
z
" transform="scale(0.015625)"/>
      <path id="DejaVuSans-51" d="M 2522 4238 
Q 1834 4238 1429 3725 
Q 1025 3213 1025 2328 
Q 1025 1447 1429 934 
Q 1834 422 2522 422 
Q 3209 422 3611 934 
Q 4013 1447 4013 2328 
Q 4013 3213 3611 3725 
Q 3209 4238 2522 4238 
z
M 3406 84 
L 4238 -825 
L 3475 -825 
L 2784 -78 
Q 2681 -84 2626 -87 
Q 2572 -91 2522 -91 
Q 1538 -91 948 567 
Q 359 1225 359 2328 
Q 359 3434 948 4092 
Q 1538 4750 2522 4750 
Q 3503 4750 4090 4092 
Q 4678 3434 4678 2328 
Q 4678 1516 4351 937 
Q 4025 359 3406 84 
z
" transform="scale(0.015625)"/>
      <path id="DejaVuSans-37" d="M 525 4666 
L 3525 4666 
L 3525 4397 
L 1831 0 
L 1172 0 
L 2766 4134 
L 525 4134 
L 525 4666 
z
" transform="scale(0.015625)"/>
     </defs>
     <use xlink:href="#DejaVuSans-46"/>
     <use xlink:href="#DejaVuSans-69" transform="translate(50.269531 0)"/>
     <use xlink:href="#DejaVuSans-6c" transform="translate(78.052734 0)"/>
     <use xlink:href="#DejaVuSans-74" transform="translate(105.835938 0)"/>
     <use xlink:href="#DejaVuSans-65" transform="translate(145.044922 0)"/>
     <use xlink:href="#DejaVuSans-72" transform="translate(206.568359 0)"/>
     <use xlink:href="#DejaVuSans-3a" transform="translate(245.931641 0)"/>
     <use xlink:href="#DejaVuSans-20" transform="translate(279.623047 0)"/>
     <use xlink:href="#DejaVuSans-62" transform="translate(311.410156 0)"/>
     <use xlink:href="#DejaVuSans-61" transform="translate(374.886719 0)"/>
     <use xlink:href="#DejaVuSans-6e" transform="translate(436.166016 0)"/>
     <use xlink:href="#DejaVuSans-64" transform="translate(499.544922 0)"/>
     <use xlink:href="#DejaVuSans-20" transform="translate(563.021484 0)"/>
     <use xlink:href="#DejaVuSans-7c" transform="translate(594.808594 0)"/>
     <use xlink:href="#DejaVuSans-20" transform="translate(628.5 0)"/>
     <use xlink:href="#DejaVuSans-49" transform="translate(660.287109 0)"/>
     <use xlink:href="#DejaVuSans-6e" transform="translate(689.779297 0)"/>
     <use xlink:href="#DejaVuSans-70" transform="translate(753.158203 0)"/>
     <use xlink:href="#DejaVuSans-75" transform="translate(816.634766 0)"/>
     <use xlink:href="#DejaVuSans-74" transform="translate(880.013672 0)"/>
     <use xlink:href="#DejaVuSans-3a" transform="translate(919.222656 0)"/>
     <use xlink:href="#DejaVuSans-20" transform="translate(952.914062 0)"/>
     <use xlink:href="#DejaVuSans-73" transform="translate(984.701172 0)"/>
     <use xlink:href="#DejaVuSans-74" transform="translate(1036.800781 0)"/>
     <use xlink:href="#DejaVuSans-65" transform="translate(1076.009766 0)"/>
     <use xlink:href="#DejaVuSans-70" transform="translate(1137.533203 0)"/>
     <use xlink:href="#DejaVuSans-2c" transform="translate(1201.009766 0)"/>
     <use xlink:href="#DejaVuSans-20" transform="translate(1232.796875 0)"/>
     <use xlink:href="#DejaVuSans-73" transform="translate(1264.583984 0)"/>
     <use xlink:href="#DejaVuSans-74" transform="translate(1316.683594 0)"/>
     <use xlink:href="#DejaVuSans-65" transform="translate(1355.892578 0)"/>
     <use xlink:href="#DejaVuSans-70" transform="translate(1417.416016 0)"/>
     <use xlink:href="#DejaVuSans-20" transform="translate(1480.892578 0)"/>
     <use xlink:href="#DejaVuSans-28" transform="translate(1512.679688 0)"/>
     <use xlink:href="#DejaVuSans-41" transform="translate(1551.693359 0)"/>
     <use xlink:href="#DejaVuSans-3d" transform="translate(1620.101562 0)"/>
     <use xlink:href="#DejaVuSans-31" transform="translate(1703.890625 0)"/>
     <use xlink:href="#DejaVuSans-2e" transform="translate(1767.513672 0)"/>
     <use xlink:href="#DejaVuSans-30" transform="translate(1799.300781 0)"/>
     <use xlink:href="#DejaVuSans-38" transform="translate(1862.923828 0)"/>
     <use xlink:href="#DejaVuSans-29" transform="translate(1926.546875 0)"/>
     <use xlink:href="#DejaVuSans-20" transform="translate(1965.560547 0)"/>
     <use xlink:href="#DejaVuSans-7c" transform="translate(1997.347656 0)"/>
     <use xlink:href="#DejaVuSans-20" transform="translate(2031.039062 0)"/>
     <use xlink:href="#DejaVuSans-52" transform="translate(2062.826172 0)"/>
     <use xlink:href="#DejaVuSans-3d" transform="translate(2132.308594 0)"/>
     <use xlink:href="#DejaVuSans-31" transform="translate(2216.097656 0)"/>
     <use xlink:href="#DejaVuSans-2e" transform="translate(2279.720703 0)"/>
     <use xlink:href="#DejaVuSans-32" transform="translate(2311.507812 0)"/>
     <use xlink:href="#DejaVuSans-39" transform="translate(2375.130859 0)"/>
     <use xlink:href="#DejaVuSans-32" transform="translate(2438.753906 0)"/>
     <use xlink:href="#DejaVuSans-2c" transform="translate(2502.376953 0)"/>
     <use xlink:href="#DejaVuSans-20" transform="translate(2534.164062 0)"/>
     <use xlink:href="#DejaVuSans-4c" transform="translate(2565.951172 0)"/>
     <use xlink:href="#DejaVuSans-3d" transform="translate(2621.664062 0)"/>
     <use xlink:href="#DejaVuSans-31" transform="translate(2705.453125 0)"/>
     <use xlink:href="#DejaVuSans-30" transform="translate(2769.076172 0)"/>
     <use xlink:href="#DejaVuSans-2e" transform="translate(2832.699219 0)"/>
     <use xlink:href="#DejaVuSans-30" transform="translate(2864.486328 0)"/>
     <use xlink:href="#DejaVuSans-30" transform="translate(2928.109375 0)"/>
     <use xlink:href="#DejaVuSans-2c" transform="translate(2991.732422 0)"/>
     <use xlink:href="#DejaVuSans-20" transform="translate(3023.519531 0)"/>
     <use xlink:href="#DejaVuSans-43" transform="translate(3055.306641 0)"/>
     <use xlink:href="#DejaVuSans-3d" transform="translate(3125.130859 0)"/>
     <use xlink:href="#DejaVuSans-30" transform="translate(3208.919922 0)"/>
     <use xlink:href="#DejaVuSans-2e" transform="translate(3272.542969 0)"/>
     <use xlink:href="#DejaVuSans-31" transform="translate(3304.330078 0)"/>
     <use xlink:href="#DejaVuSans-30" transform="translate(3367.953125 0)"/>
     <use xlink:href="#DejaVuSans-2c" transform="translate(3431.576172 0)"/>
     <use xlink:href="#DejaVuSans-20" transform="translate(3463.363281 0)"/>
     <use xlink:href="#DejaVuSans-3c9" transform="translate(3495.150391 0)"/>
     <use xlink:href="#DejaVuSans-6e" transform="translate(3578.890625 0)"/>
     <use xlink:href="#DejaVuSans-3d" transform="translate(3642.269531 0)"/>
     <use xlink:href="#DejaVuSans-31" transform="translate(3726.058594 0)"/>
     <use xlink:href="#DejaVuSans-2e" transform="translate(3789.681641 0)"/>
     <use xlink:href="#DejaVuSans-30" transform="translate(3821.46875 0)"/>
     <use xlink:href="#DejaVuSans-30" transform="translate(3885.091797 0)"/>
     <use xlink:href="#DejaVuSans-2c" transform="translate(3948.714844 0)"/>
     <use xlink:href="#DejaVuSans-20" transform="translate(3980.501953 0)"/>
     <use xlink:href="#DejaVuSans-3b6" transform="translate(4012.289062 0)"/>
     <use xlink:href="#DejaVuSans-3d" transform="translate(4066.683594 0)"/>
     <use xlink:href="#DejaVuSans-30" transform="translate(4150.472656 0)"/>
     <use xlink:href="#DejaVuSans-2e" transform="translate(4214.095703 0)"/>
     <use xlink:href="#DejaVuSans-30" transform="translate(4245.882812 0)"/>
     <use xlink:href="#DejaVuSans-36" transform="translate(4309.505859 0)"/>
     <use xlink:href="#DejaVuSans-35" transform="translate(4373.128906 0)"/>
     <use xlink:href="#DejaVuSans-2c" transform="translate(4436.751953 0)"/>
     <use xlink:href="#DejaVuSans-20" transform="translate(4468.539062 0)"/>
     <use xlink:href="#DejaVuSans-51" transform="translate(4500.326172 0)"/>
     <use xlink:href="#DejaVuSans-3d" transform="translate(4579.037109 0)"/>
     <use xlink:href="#DejaVuSans-37" transform="translate(4662.826172 0)"/>
     <use xlink:href="#DejaVuSans-2e" transform="translate(4726.449219 0)"/>
     <use xlink:href="#DejaVuSans-37" transform="translate(4758.236328 0)"/>
     <use xlink:href="#DejaVuSans-34" transform="translate(4821.859375 0)"/>
    </g>
   </g>
   <g id="legend_1">
    <g id="patch_7">
     <path d="M 63.255804 79.21225 
L 128.238616 79.21225 
Q 130.238616 79.21225 130.238616 77.21225 
L 130.238616 48.856 
Q 130.238616 46.856 128.238616 46.856 
L 63.255804 46.856 
Q 61.255804 46.856 61.255804 48.856 
L 61.255804 77.21225 
Q 61.255804 79.21225 63.255804 79.21225 
z
" style="fill: #ffffff; opacity: 0.8; stroke: #cccccc; stroke-linejoin: miter"/>
    </g>
    <g id="line2d_27">
     <path d="M 65.255804 54.954437 
L 75.255804 54.954437 
L 85.255804 54.954437 
" style="fill: none; stroke: #1f77b4; stroke-width: 1.5; stroke-linecap: square"/>
    </g>
    <g id="text_16">
     <!-- input -->
     <g transform="translate(93.255804 58.454437) scale(0.1 -0.1)">
      <use xlink:href="#DejaVuSans-69"/>
      <use xlink:href="#DejaVuSans-6e" transform="translate(27.783203 0)"/>
      <use xlink:href="#DejaVuSans-70" transform="translate(91.162109 0)"/>
      <use xlink:href="#DejaVuSans-75" transform="translate(154.638672 0)"/>
      <use xlink:href="#DejaVuSans-74" transform="translate(218.017578 0)"/>
     </g>
    </g>
    <g id="line2d_28">
     <path d="M 65.255804 69.632562 
L 75.255804 69.632562 
L 85.255804 69.632562 
" style="fill: none; stroke: #ff7f0e; stroke-width: 1.5; stroke-linecap: square"/>
    </g>
    <g id="text_17">
     <!-- output -->
     <g transform="translate(93.255804 73.132562) scale(0.1 -0.1)">
      <defs>
       <path id="DejaVuSans-6f" d="M 1959 3097 
Q 1497 3097 1228 2736 
Q 959 2375 959 1747 
Q 959 1119 1226 758 
Q 1494 397 1959 397 
Q 2419 397 2687 759 
Q 2956 1122 2956 1747 
Q 2956 2369 2687 2733 
Q 2419 3097 1959 3097 
z
M 1959 3584 
Q 2709 3584 3137 3096 
Q 3566 2609 3566 1747 
Q 3566 888 3137 398 
Q 2709 -91 1959 -91 
Q 1206 -91 779 398 
Q 353 888 353 1747 
Q 353 2609 779 3096 
Q 1206 3584 1959 3584 
z
" transform="scale(0.015625)"/>
      </defs>
      <use xlink:href="#DejaVuSans-6f"/>
      <use xlink:href="#DejaVuSans-75" transform="translate(61.181641 0)"/>
      <use xlink:href="#DejaVuSans-74" transform="translate(124.560547 0)"/>
      <use xlink:href="#DejaVuSans-70" transform="translate(163.769531 0)"/>
      <use xlink:href="#DejaVuSans-75" transform="translate(227.246094 0)"/>
      <use xlink:href="#DejaVuSans-74" transform="translate(290.625 0)"/>
     </g>
    </g>
   </g>
  </g>
  <g id="axes_2">
   <g id="patch_8">
    <path d="M 56.255804 458.728 
L 628.183658 458.728 
L 628.183658 279.312 
L 56.255804 279.312 
z
" style="fill: #ffffff"/>
   </g>
   <g id="matplotlib.axis_3">
    <g id="xtick_7">
     <g id="line2d_29">
      <path d="M 56.255804 458.728 
L 56.255804 279.312 
" clip-path="url(#p87845d6f93)" style="fill: none; stroke: #b0b0b0; stroke-opacity: 0.25; stroke-width: 0.8; stroke-linecap: square"/>
     </g>
     <g id="line2d_30">
      <g>
       <use xlink:href="#m1335e0e1e2" x="56.255804" y="458.728" style="stroke: #000000; stroke-width: 0.8"/>
      </g>
     </g>
     <g id="text_18">
      <!-- $\mathdefault{10^{-1}}$ -->
      <g transform="translate(44.505804 473.326438) scale(0.1 -0.1)">
       <defs>
        <path id="DejaVuSans-2212" d="M 678 2272 
L 4684 2272 
L 4684 1741 
L 678 1741 
L 678 2272 
z
" transform="scale(0.015625)"/>
       </defs>
       <use xlink:href="#DejaVuSans-31" transform="translate(0 0.684375)"/>
       <use xlink:href="#DejaVuSans-30" transform="translate(63.623047 0.684375)"/>
       <use xlink:href="#DejaVuSans-2212" transform="translate(128.203125 38.965625) scale(0.7)"/>
       <use xlink:href="#DejaVuSans-31" transform="translate(186.855469 38.965625) scale(0.7)"/>
      </g>
     </g>
    </g>
    <g id="xtick_8">
     <g id="line2d_31">
      <path d="M 342.219731 458.728 
L 342.219731 279.312 
" clip-path="url(#p87845d6f93)" style="fill: none; stroke: #b0b0b0; stroke-opacity: 0.25; stroke-width: 0.8; stroke-linecap: square"/>
     </g>
     <g id="line2d_32">
      <g>
       <use xlink:href="#m1335e0e1e2" x="342.219731" y="458.728" style="stroke: #000000; stroke-width: 0.8"/>
      </g>
     </g>
     <g id="text_19">
      <!-- $\mathdefault{10^{0}}$ -->
      <g transform="translate(333.419731 473.326438) scale(0.1 -0.1)">
       <use xlink:href="#DejaVuSans-31" transform="translate(0 0.765625)"/>
       <use xlink:href="#DejaVuSans-30" transform="translate(63.623047 0.765625)"/>
       <use xlink:href="#DejaVuSans-30" transform="translate(128.203125 39.046875) scale(0.7)"/>
      </g>
     </g>
    </g>
    <g id="xtick_9">
     <g id="line2d_33">
      <path d="M 628.183658 458.728 
L 628.183658 279.312 
" clip-path="url(#p87845d6f93)" style="fill: none; stroke: #b0b0b0; stroke-opacity: 0.25; stroke-width: 0.8; stroke-linecap: square"/>
     </g>
     <g id="line2d_34">
      <g>
       <use xlink:href="#m1335e0e1e2" x="628.183658" y="458.728" style="stroke: #000000; stroke-width: 0.8"/>
      </g>
     </g>
     <g id="text_20">
      <!-- $\mathdefault{10^{1}}$ -->
      <g transform="translate(619.383658 473.326438) scale(0.1 -0.1)">
       <use xlink:href="#DejaVuSans-31" transform="translate(0 0.684375)"/>
       <use xlink:href="#DejaVuSans-30" transform="translate(63.623047 0.684375)"/>
       <use xlink:href="#DejaVuSans-31" transform="translate(128.203125 38.965625) scale(0.7)"/>
      </g>
     </g>
    </g>
    <g id="xtick_10">
     <g id="line2d_35">
      <defs>
       <path id="m37f83c1530" d="M 0 0 
L 0 2 
" style="stroke: #000000; stroke-width: 0.6"/>
      </defs>
      <g>
       <use xlink:href="#m37f83c1530" x="142.339524" y="458.728" style="stroke: #000000; stroke-width: 0.6"/>
      </g>
     </g>
    </g>
    <g id="xtick_11">
     <g id="line2d_36">
      <g>
       <use xlink:href="#m37f83c1530" x="192.695271" y="458.728" style="stroke: #000000; stroke-width: 0.6"/>
      </g>
     </g>
    </g>
    <g id="xtick_12">
     <g id="line2d_37">
      <g>
       <use xlink:href="#m37f83c1530" x="228.423243" y="458.728" style="stroke: #000000; stroke-width: 0.6"/>
      </g>
     </g>
    </g>
    <g id="xtick_13">
     <g id="line2d_38">
      <g>
       <use xlink:href="#m37f83c1530" x="256.136011" y="458.728" style="stroke: #000000; stroke-width: 0.6"/>
      </g>
     </g>
    </g>
    <g id="xtick_14">
     <g id="line2d_39">
      <g>
       <use xlink:href="#m37f83c1530" x="278.778991" y="458.728" style="stroke: #000000; stroke-width: 0.6"/>
      </g>
     </g>
    </g>
    <g id="xtick_15">
     <g id="line2d_40">
      <g>
       <use xlink:href="#m37f83c1530" x="297.923358" y="458.728" style="stroke: #000000; stroke-width: 0.6"/>
      </g>
     </g>
    </g>
    <g id="xtick_16">
     <g id="line2d_41">
      <g>
       <use xlink:href="#m37f83c1530" x="314.506963" y="458.728" style="stroke: #000000; stroke-width: 0.6"/>
      </g>
     </g>
    </g>
    <g id="xtick_17">
     <g id="line2d_42">
      <g>
       <use xlink:href="#m37f83c1530" x="329.134739" y="458.728" style="stroke: #000000; stroke-width: 0.6"/>
      </g>
     </g>
    </g>
    <g id="xtick_18">
     <g id="line2d_43">
      <g>
       <use xlink:href="#m37f83c1530" x="428.30345" y="458.728" style="stroke: #000000; stroke-width: 0.6"/>
      </g>
     </g>
    </g>
    <g id="xtick_19">
     <g id="line2d_44">
      <g>
       <use xlink:href="#m37f83c1530" x="478.659198" y="458.728" style="stroke: #000000; stroke-width: 0.6"/>
      </g>
     </g>
    </g>
    <g id="xtick_20">
     <g id="line2d_45">
      <g>
       <use xlink:href="#m37f83c1530" x="514.38717" y="458.728" style="stroke: #000000; stroke-width: 0.6"/>
      </g>
     </g>
    </g>
    <g id="xtick_21">
     <g id="line2d_46">
      <g>
       <use xlink:href="#m37f83c1530" x="542.099938" y="458.728" style="stroke: #000000; stroke-width: 0.6"/>
      </g>
     </g>
    </g>
    <g id="xtick_22">
     <g id="line2d_47">
      <g>
       <use xlink:href="#m37f83c1530" x="564.742918" y="458.728" style="stroke: #000000; stroke-width: 0.6"/>
      </g>
     </g>
    </g>
    <g id="xtick_23">
     <g id="line2d_48">
      <g>
       <use xlink:href="#m37f83c1530" x="583.887285" y="458.728" style="stroke: #000000; stroke-width: 0.6"/>
      </g>
     </g>
    </g>
    <g id="xtick_24">
     <g id="line2d_49">
      <g>
       <use xlink:href="#m37f83c1530" x="600.47089" y="458.728" style="stroke: #000000; stroke-width: 0.6"/>
      </g>
     </g>
    </g>
    <g id="xtick_25">
     <g id="line2d_50">
      <g>
       <use xlink:href="#m37f83c1530" x="615.098666" y="458.728" style="stroke: #000000; stroke-width: 0.6"/>
      </g>
     </g>
    </g>
    <g id="text_21">
     <!-- frequency [arb.] -->
     <g transform="translate(301.769731 487.004563) scale(0.1 -0.1)">
      <defs>
       <path id="DejaVuSans-66" d="M 2375 4863 
L 2375 4384 
L 1825 4384 
Q 1516 4384 1395 4259 
Q 1275 4134 1275 3809 
L 1275 3500 
L 2222 3500 
L 2222 3053 
L 1275 3053 
L 1275 0 
L 697 0 
L 697 3053 
L 147 3053 
L 147 3500 
L 697 3500 
L 697 3744 
Q 697 4328 969 4595 
Q 1241 4863 1831 4863 
L 2375 4863 
z
" transform="scale(0.015625)"/>
       <path id="DejaVuSans-71" d="M 947 1747 
Q 947 1113 1208 752 
Q 1469 391 1925 391 
Q 2381 391 2643 752 
Q 2906 1113 2906 1747 
Q 2906 2381 2643 2742 
Q 2381 3103 1925 3103 
Q 1469 3103 1208 2742 
Q 947 2381 947 1747 
z
M 2906 525 
Q 2725 213 2448 61 
Q 2172 -91 1784 -91 
Q 1150 -91 751 415 
Q 353 922 353 1747 
Q 353 2572 751 3078 
Q 1150 3584 1784 3584 
Q 2172 3584 2448 3432 
Q 2725 3281 2906 2969 
L 2906 3500 
L 3481 3500 
L 3481 -1331 
L 2906 -1331 
L 2906 525 
z
" transform="scale(0.015625)"/>
      </defs>
      <use xlink:href="#DejaVuSans-66"/>
      <use xlink:href="#DejaVuSans-72" transform="translate(35.205078 0)"/>
      <use xlink:href="#DejaVuSans-65" transform="translate(74.068359 0)"/>
      <use xlink:href="#DejaVuSans-71" transform="translate(135.591797 0)"/>
      <use xlink:href="#DejaVuSans-75" transform="translate(199.068359 0)"/>
      <use xlink:href="#DejaVuSans-65" transform="translate(262.447266 0)"/>
      <use xlink:href="#DejaVuSans-6e" transform="translate(323.970703 0)"/>
      <use xlink:href="#DejaVuSans-63" transform="translate(387.349609 0)"/>
      <use xlink:href="#DejaVuSans-79" transform="translate(442.330078 0)"/>
      <use xlink:href="#DejaVuSans-20" transform="translate(501.509766 0)"/>
      <use xlink:href="#DejaVuSans-5b" transform="translate(533.296875 0)"/>
      <use xlink:href="#DejaVuSans-61" transform="translate(572.310547 0)"/>
      <use xlink:href="#DejaVuSans-72" transform="translate(633.589844 0)"/>
      <use xlink:href="#DejaVuSans-62" transform="translate(674.703125 0)"/>
      <use xlink:href="#DejaVuSans-2e" transform="translate(738.179688 0)"/>
      <use xlink:href="#DejaVuSans-5d" transform="translate(769.966797 0)"/>
     </g>
    </g>
   </g>
   <g id="matplotlib.axis_4">
    <g id="ytick_7">
     <g id="line2d_51">
      <path d="M 56.255804 438.682942 
L 628.183658 438.682942 
" clip-path="url(#p87845d6f93)" style="fill: none; stroke: #b0b0b0; stroke-opacity: 0.25; stroke-width: 0.8; stroke-linecap: square"/>
     </g>
     <g id="line2d_52">
      <g>
       <use xlink:href="#m586c9af9eb" x="56.255804" y="438.682942" style="stroke: #000000; stroke-width: 0.8"/>
      </g>
     </g>
     <g id="text_22">
      <!-- $\mathdefault{10^{-7}}$ -->
      <g transform="translate(25.755804 442.482161) scale(0.1 -0.1)">
       <use xlink:href="#DejaVuSans-31" transform="translate(0 0.684375)"/>
       <use xlink:href="#DejaVuSans-30" transform="translate(63.623047 0.684375)"/>
       <use xlink:href="#DejaVuSans-2212" transform="translate(128.203125 38.965625) scale(0.7)"/>
       <use xlink:href="#DejaVuSans-37" transform="translate(186.855469 38.965625) scale(0.7)"/>
      </g>
     </g>
    </g>
    <g id="ytick_8">
     <g id="line2d_53">
      <path d="M 56.255804 405.423188 
L 628.183658 405.423188 
" clip-path="url(#p87845d6f93)" style="fill: none; stroke: #b0b0b0; stroke-opacity: 0.25; stroke-width: 0.8; stroke-linecap: square"/>
     </g>
     <g id="line2d_54">
      <g>
       <use xlink:href="#m586c9af9eb" x="56.255804" y="405.423188" style="stroke: #000000; stroke-width: 0.8"/>
      </g>
     </g>
     <g id="text_23">
      <!-- $\mathdefault{10^{-5}}$ -->
      <g transform="translate(25.755804 409.222406) scale(0.1 -0.1)">
       <use xlink:href="#DejaVuSans-31" transform="translate(0 0.684375)"/>
       <use xlink:href="#DejaVuSans-30" transform="translate(63.623047 0.684375)"/>
       <use xlink:href="#DejaVuSans-2212" transform="translate(128.203125 38.965625) scale(0.7)"/>
       <use xlink:href="#DejaVuSans-35" transform="translate(186.855469 38.965625) scale(0.7)"/>
      </g>
     </g>
    </g>
    <g id="ytick_9">
     <g id="line2d_55">
      <path d="M 56.255804 372.163433 
L 628.183658 372.163433 
" clip-path="url(#p87845d6f93)" style="fill: none; stroke: #b0b0b0; stroke-opacity: 0.25; stroke-width: 0.8; stroke-linecap: square"/>
     </g>
     <g id="line2d_56">
      <g>
       <use xlink:href="#m586c9af9eb" x="56.255804" y="372.163433" style="stroke: #000000; stroke-width: 0.8"/>
      </g>
     </g>
     <g id="text_24">
      <!-- $\mathdefault{10^{-3}}$ -->
      <g transform="translate(25.755804 375.962652) scale(0.1 -0.1)">
       <defs>
        <path id="DejaVuSans-33" d="M 2597 2516 
Q 3050 2419 3304 2112 
Q 3559 1806 3559 1356 
Q 3559 666 3084 287 
Q 2609 -91 1734 -91 
Q 1441 -91 1130 -33 
Q 819 25 488 141 
L 488 750 
Q 750 597 1062 519 
Q 1375 441 1716 441 
Q 2309 441 2620 675 
Q 2931 909 2931 1356 
Q 2931 1769 2642 2001 
Q 2353 2234 1838 2234 
L 1294 2234 
L 1294 2753 
L 1863 2753 
Q 2328 2753 2575 2939 
Q 2822 3125 2822 3475 
Q 2822 3834 2567 4026 
Q 2313 4219 1838 4219 
Q 1578 4219 1281 4162 
Q 984 4106 628 3988 
L 628 4550 
Q 988 4650 1302 4700 
Q 1616 4750 1894 4750 
Q 2613 4750 3031 4423 
Q 3450 4097 3450 3541 
Q 3450 3153 3228 2886 
Q 3006 2619 2597 2516 
z
" transform="scale(0.015625)"/>
       </defs>
       <use xlink:href="#DejaVuSans-31" transform="translate(0 0.765625)"/>
       <use xlink:href="#DejaVuSans-30" transform="translate(63.623047 0.765625)"/>
       <use xlink:href="#DejaVuSans-2212" transform="translate(128.203125 39.046875) scale(0.7)"/>
       <use xlink:href="#DejaVuSans-33" transform="translate(186.855469 39.046875) scale(0.7)"/>
      </g>
     </g>
    </g>
    <g id="ytick_10">
     <g id="line2d_57">
      <path d="M 56.255804 338.903679 
L 628.183658 338.903679 
" clip-path="url(#p87845d6f93)" style="fill: none; stroke: #b0b0b0; stroke-opacity: 0.25; stroke-width: 0.8; stroke-linecap: square"/>
     </g>
     <g id="line2d_58">
      <g>
       <use xlink:href="#m586c9af9eb" x="56.255804" y="338.903679" style="stroke: #000000; stroke-width: 0.8"/>
      </g>
     </g>
     <g id="text_25">
      <!-- $\mathdefault{10^{-1}}$ -->
      <g transform="translate(25.755804 342.702897) scale(0.1 -0.1)">
       <use xlink:href="#DejaVuSans-31" transform="translate(0 0.684375)"/>
       <use xlink:href="#DejaVuSans-30" transform="translate(63.623047 0.684375)"/>
       <use xlink:href="#DejaVuSans-2212" transform="translate(128.203125 38.965625) scale(0.7)"/>
       <use xlink:href="#DejaVuSans-31" transform="translate(186.855469 38.965625) scale(0.7)"/>
      </g>
     </g>
    </g>
    <g id="ytick_11">
     <g id="line2d_59">
      <path d="M 56.255804 305.643924 
L 628.183658 305.643924 
" clip-path="url(#p87845d6f93)" style="fill: none; stroke: #b0b0b0; stroke-opacity: 0.25; stroke-width: 0.8; stroke-linecap: square"/>
     </g>
     <g id="line2d_60">
      <g>
       <use xlink:href="#m586c9af9eb" x="56.255804" y="305.643924" style="stroke: #000000; stroke-width: 0.8"/>
      </g>
     </g>
     <g id="text_26">
      <!-- $\mathdefault{10^{1}}$ -->
      <g transform="translate(31.655804 309.443143) scale(0.1 -0.1)">
       <use xlink:href="#DejaVuSans-31" transform="translate(0 0.684375)"/>
       <use xlink:href="#DejaVuSans-30" transform="translate(63.623047 0.684375)"/>
       <use xlink:href="#DejaVuSans-31" transform="translate(128.203125 38.965625) scale(0.7)"/>
      </g>
     </g>
    </g>
    <g id="text_27">
     <!-- |FFT(.)| -->
     <g transform="translate(19.397991 386.597344) rotate(-90) scale(0.1 -0.1)">
      <defs>
       <path id="DejaVuSans-54" d="M -19 4666 
L 3928 4666 
L 3928 4134 
L 2272 4134 
L 2272 0 
L 1638 0 
L 1638 4134 
L -19 4134 
L -19 4666 
z
" transform="scale(0.015625)"/>
      </defs>
      <use xlink:href="#DejaVuSans-7c"/>
      <use xlink:href="#DejaVuSans-46" transform="translate(33.691406 0)"/>
      <use xlink:href="#DejaVuSans-46" transform="translate(91.210938 0)"/>
      <use xlink:href="#DejaVuSans-54" transform="translate(146.980469 0)"/>
      <use xlink:href="#DejaVuSans-28" transform="translate(208.064453 0)"/>
      <use xlink:href="#DejaVuSans-2e" transform="translate(247.078125 0)"/>
      <use xlink:href="#DejaVuSans-29" transform="translate(278.865234 0)"/>
      <use xlink:href="#DejaVuSans-7c" transform="translate(317.878906 0)"/>
     </g>
    </g>
   </g>
   <g id="line2d_61">
    <path d="M 56.255804 287.467273 
L 142.339524 303.276161 
L 192.695271 303.539415 
L 228.423243 303.912758 
L 256.136011 304.391608 
L 278.778991 304.971964 
L 297.923358 305.647175 
L 314.506963 306.405825 
L 329.134739 307.229293 
L 342.219731 308.089314 
L 354.056546 308.947084 
L 364.862711 309.756675 
L 374.803419 310.47518 
L 384.007078 311.077355 
L 392.575479 311.565818 
L 400.590683 311.968235 
L 408.119809 312.323454 
L 415.218459 312.666598 
L 421.933205 313.020239 
L 428.30345 313.392132 
L 434.362826 313.777099 
L 440.140265 314.161254 
L 445.660843 314.527699 
L 450.94643 314.862701 
L 456.016218 315.160532 
L 460.887139 315.424974 
L 465.574207 315.66696 
L 470.090797 315.89983 
L 474.448878 316.134604 
L 478.659198 316.37694 
L 482.73145 316.626304 
L 486.674402 316.877122 
L 490.496013 317.121327 
L 494.203529 317.351522 
L 497.803565 317.563697 
L 501.302178 317.758512 
L 504.704927 317.940699 
L 508.016925 318.116995 
L 511.242887 318.2936 
L 514.38717 318.474176 
L 517.453809 318.658948 
L 520.446545 318.845047 
L 523.368858 319.027849 
L 526.223985 319.20282 
L 529.014946 319.367222 
L 531.744563 319.521044 
L 534.415473 319.66684 
L 537.03015 319.808622 
L 539.590912 319.95032 
L 542.099938 320.094429 
L 544.559277 320.241295 
L 546.970859 320.389204 
L 549.336503 320.535179 
L 551.657926 320.676177 
L 553.936753 320.810246 
L 556.174517 320.937206 
L 558.372673 321.05863 
L 560.532598 321.177167 
L 562.655599 321.295517 
L 564.742918 321.415477 
L 566.795734 321.537378 
L 568.81517 321.660091 
L 570.802293 321.781546 
L 572.758122 321.899568 
L 574.683626 322.012701 
L 576.579733 322.120733 
L 578.447325 322.224722 
L 580.287249 322.326542 
L 582.100311 322.428159 
L 583.887285 322.530922 
L 585.648911 322.635123 
L 587.385898 322.739964 
L 589.098926 322.843929 
L 590.788647 322.945385 
L 592.455686 323.043209 
L 594.100644 323.137197 
L 595.7241 323.228105 
L 597.326606 323.317326 
L 598.908699 323.406355 
L 600.47089 323.496239 
L 602.013674 323.587228 
L 603.537528 323.678734 
L 605.042911 323.769596 
L 606.530265 323.858545 
L 608.000016 323.944692 
L 609.452578 324.02785 
L 610.888346 324.108583 
L 612.307705 324.187969 
L 613.711025 324.26718 
L 615.098666 324.347053 
L 616.470973 324.427801 
L 617.828283 324.508973 
L 619.170918 324.589653 
L 620.499193 324.668828 
L 621.813412 324.745774 
L 623.11387 324.820327 
L 624.400851 324.892922 
L 625.674632 324.964417 
L 626.935481 325.035755 
L 628.183658 325.10762 
L 629.419415 325.180195 
" clip-path="url(#p87845d6f93)" style="fill: none; stroke: #1f77b4; stroke-opacity: 0.6; stroke-width: 1.5; stroke-linecap: square"/>
   </g>
   <g id="line2d_62">
    <path d="M 56.255804 288.629952 
L 142.339524 289.043197 
L 192.695271 299.022831 
L 228.423243 313.487141 
L 256.136011 320.807863 
L 278.778991 325.731045 
L 297.923358 329.470208 
L 314.506963 332.454587 
L 329.134739 334.82251 
L 342.219731 336.633695 
L 354.056546 337.987653 
L 364.862711 339.037922 
L 374.803419 339.938125 
L 384.007078 340.800671 
L 392.575479 341.691034 
L 400.590683 342.637197 
L 408.119809 343.638068 
L 415.218459 344.667451 
L 421.933205 345.67718 
L 428.30345 346.606699 
L 434.362826 347.404509 
L 440.140265 348.054204 
L 445.660843 348.584364 
L 450.94643 349.052331 
L 456.016218 349.517115 
L 460.887139 350.020484 
L 465.574207 350.580167 
L 470.090797 351.189933 
L 474.448878 351.822746 
L 478.659198 352.437635 
L 482.73145 352.992657 
L 486.674402 353.462164 
L 490.496013 353.849067 
L 494.203529 354.182588 
L 497.803565 354.503398 
L 501.302178 354.847123 
L 504.704927 355.234051 
L 508.016925 355.665556 
L 511.242887 356.125135 
L 514.38717 356.583357 
L 517.453809 357.00736 
L 520.446545 357.37365 
L 523.368858 357.678564 
L 526.223985 357.939508 
L 529.014946 358.186139 
L 531.744563 358.447712 
L 534.415473 358.743251 
L 537.03015 359.076836 
L 539.590912 359.437387 
L 542.099938 359.802303 
L 544.559277 360.144945 
L 546.970859 360.444808 
L 549.336503 360.696311 
L 551.657926 360.911019 
L 553.936753 361.111869 
L 556.174517 361.323275 
L 558.372673 361.562393 
L 560.532598 361.834237 
L 562.655599 362.130822 
L 564.742918 362.433928 
L 566.795734 362.721267 
L 568.81517 362.974923 
L 570.802293 363.188853 
L 572.758122 363.37135 
L 574.683626 363.540962 
L 576.579733 363.718498 
L 578.447325 363.919346 
L 580.287249 364.148757 
L 582.100311 364.400658 
L 583.887285 364.659839 
L 585.648911 364.907183 
L 587.385898 365.12688 
L 589.098926 365.312945 
L 590.788647 365.471664 
L 592.455686 365.618541 
L 594.100644 365.771649 
L 595.7241 365.944845 
L 597.326606 366.143316 
L 598.908699 366.362255 
L 600.47089 366.588628 
L 602.013674 366.805716 
L 603.537528 366.999419 
L 605.042911 367.164001 
L 606.530265 367.30443 
L 608.000016 367.433995 
L 609.452578 367.568642 
L 610.888346 367.720925 
L 612.307705 367.895847 
L 613.711025 368.089476 
L 615.098666 368.290417 
L 616.470973 368.483825 
L 617.828283 368.656998 
L 619.170918 368.804514 
L 620.499193 368.93043 
L 621.813412 369.046362 
L 623.11387 369.166562 
L 624.400851 369.302479 
L 625.674632 369.458881 
L 626.935481 369.632468 
L 628.183658 369.81312 
L 629.419415 369.987493 
" clip-path="url(#p87845d6f93)" style="fill: none; stroke: #ff7f0e; stroke-width: 1.5; stroke-linecap: square"/>
   </g>
   <g id="patch_9">
    <path d="M 56.255804 458.728 
L 56.255804 279.312 
" style="fill: none; stroke: #000000; stroke-width: 0.8; stroke-linejoin: miter; stroke-linecap: square"/>
   </g>
   <g id="patch_10">
    <path d="M 628.183658 458.728 
L 628.183658 279.312 
" style="fill: none; stroke: #000000; stroke-width: 0.8; stroke-linejoin: miter; stroke-linecap: square"/>
   </g>
   <g id="patch_11">
    <path d="M 56.255804 458.728 
L 628.183658 458.728 
" style="fill: none; stroke: #000000; stroke-width: 0.8; stroke-linejoin: miter; stroke-linecap: square"/>
   </g>
   <g id="patch_12">
    <path d="M 56.255804 279.312 
L 628.183658 279.312 
" style="fill: none; stroke: #000000; stroke-width: 0.8; stroke-linejoin: miter; stroke-linecap: square"/>
   </g>
   <g id="text_28">
    <!-- Output FFT peak ≈ 0.100 (arb.), magnitude ≈ 1.055e+02 | low-ish -->
    <g transform="translate(142.502231 273.312) scale(0.12 -0.12)">
     <defs>
      <path id="DejaVuSans-4f" d="M 2522 4238 
Q 1834 4238 1429 3725 
Q 1025 3213 1025 2328 
Q 1025 1447 1429 934 
Q 1834 422 2522 422 
Q 3209 422 3611 934 
Q 4013 1447 4013 2328 
Q 4013 3213 3611 3725 
Q 3209 4238 2522 4238 
z
M 2522 4750 
Q 3503 4750 4090 4092 
Q 4678 3434 4678 2328 
Q 4678 1225 4090 567 
Q 3503 -91 2522 -91 
Q 1538 -91 948 565 
Q 359 1222 359 2328 
Q 359 3434 948 4092 
Q 1538 4750 2522 4750 
z
" transform="scale(0.015625)"/>
      <path id="DejaVuSans-6b" d="M 581 4863 
L 1159 4863 
L 1159 1991 
L 2875 3500 
L 3609 3500 
L 1753 1863 
L 3688 0 
L 2938 0 
L 1159 1709 
L 1159 0 
L 581 0 
L 581 4863 
z
" transform="scale(0.015625)"/>
      <path id="DejaVuSans-2248" d="M 4684 1947 
L 4684 1388 
Q 4356 1144 4076 1036 
Q 3797 928 3494 928 
Q 3150 928 2694 1113 
Q 2663 1125 2641 1134 
Q 2622 1141 2575 1159 
Q 2091 1350 1797 1350 
Q 1522 1350 1253 1231 
Q 984 1113 678 850 
L 678 1409 
Q 1006 1653 1286 1761 
Q 1566 1869 1869 1869 
Q 2213 1869 2672 1684 
Q 2706 1669 2722 1663 
Q 2741 1656 2788 1638 
Q 3272 1447 3566 1447 
Q 3834 1447 4098 1564 
Q 4363 1681 4684 1947 
z
M 4684 3163 
L 4684 2606 
Q 4356 2359 4076 2251 
Q 3797 2144 3494 2144 
Q 3150 2144 2694 2328 
Q 2663 2341 2641 2350 
Q 2622 2356 2575 2375 
Q 2091 2566 1797 2566 
Q 1522 2566 1253 2447 
Q 984 2328 678 2069 
L 678 2625 
Q 1006 2869 1286 2976 
Q 1566 3084 1869 3084 
Q 2213 3084 2672 2900 
Q 2703 2888 2719 2881 
Q 2741 2872 2788 2853 
Q 3272 2663 3566 2663 
Q 3834 2663 4098 2780 
Q 4363 2897 4684 3163 
z
" transform="scale(0.015625)"/>
      <path id="DejaVuSans-6d" d="M 3328 2828 
Q 3544 3216 3844 3400 
Q 4144 3584 4550 3584 
Q 5097 3584 5394 3201 
Q 5691 2819 5691 2113 
L 5691 0 
L 5113 0 
L 5113 2094 
Q 5113 2597 4934 2840 
Q 4756 3084 4391 3084 
Q 3944 3084 3684 2787 
Q 3425 2491 3425 1978 
L 3425 0 
L 2847 0 
L 2847 2094 
Q 2847 2600 2669 2842 
Q 2491 3084 2119 3084 
Q 1678 3084 1418 2786 
Q 1159 2488 1159 1978 
L 1159 0 
L 581 0 
L 581 3500 
L 1159 3500 
L 1159 2956 
Q 1356 3278 1631 3431 
Q 1906 3584 2284 3584 
Q 2666 3584 2933 3390 
Q 3200 3197 3328 2828 
z
" transform="scale(0.015625)"/>
      <path id="DejaVuSans-67" d="M 2906 1791 
Q 2906 2416 2648 2759 
Q 2391 3103 1925 3103 
Q 1463 3103 1205 2759 
Q 947 2416 947 1791 
Q 947 1169 1205 825 
Q 1463 481 1925 481 
Q 2391 481 2648 825 
Q 2906 1169 2906 1791 
z
M 3481 434 
Q 3481 -459 3084 -895 
Q 2688 -1331 1869 -1331 
Q 1566 -1331 1297 -1286 
Q 1028 -1241 775 -1147 
L 775 -588 
Q 1028 -725 1275 -790 
Q 1522 -856 1778 -856 
Q 2344 -856 2625 -561 
Q 2906 -266 2906 331 
L 2906 616 
Q 2728 306 2450 153 
Q 2172 0 1784 0 
Q 1141 0 747 490 
Q 353 981 353 1791 
Q 353 2603 747 3093 
Q 1141 3584 1784 3584 
Q 2172 3584 2450 3431 
Q 2728 3278 2906 2969 
L 2906 3500 
L 3481 3500 
L 3481 434 
z
" transform="scale(0.015625)"/>
      <path id="DejaVuSans-2b" d="M 2944 4013 
L 2944 2272 
L 4684 2272 
L 4684 1741 
L 2944 1741 
L 2944 0 
L 2419 0 
L 2419 1741 
L 678 1741 
L 678 2272 
L 2419 2272 
L 2419 4013 
L 2944 4013 
z
" transform="scale(0.015625)"/>
      <path id="DejaVuSans-77" d="M 269 3500 
L 844 3500 
L 1563 769 
L 2278 3500 
L 2956 3500 
L 3675 769 
L 4391 3500 
L 4966 3500 
L 4050 0 
L 3372 0 
L 2619 2869 
L 1863 0 
L 1184 0 
L 269 3500 
z
" transform="scale(0.015625)"/>
      <path id="DejaVuSans-68" d="M 3513 2113 
L 3513 0 
L 2938 0 
L 2938 2094 
Q 2938 2591 2744 2837 
Q 2550 3084 2163 3084 
Q 1697 3084 1428 2787 
Q 1159 2491 1159 1978 
L 1159 0 
L 581 0 
L 581 4863 
L 1159 4863 
L 1159 2956 
Q 1366 3272 1645 3428 
Q 1925 3584 2291 3584 
Q 2894 3584 3203 3211 
Q 3513 2838 3513 2113 
z
" transform="scale(0.015625)"/>
     </defs>
     <use xlink:href="#DejaVuSans-4f"/>
     <use xlink:href="#DejaVuSans-75" transform="translate(78.710938 0)"/>
     <use xlink:href="#DejaVuSans-74" transform="translate(142.089844 0)"/>
     <use xlink:href="#DejaVuSans-70" transform="translate(181.298828 0)"/>
     <use xlink:href="#DejaVuSans-75" transform="translate(244.775391 0)"/>
     <use xlink:href="#DejaVuSans-74" transform="translate(308.154297 0)"/>
     <use xlink:href="#DejaVuSans-20" transform="translate(347.363281 0)"/>
     <use xlink:href="#DejaVuSans-46" transform="translate(379.150391 0)"/>
     <use xlink:href="#DejaVuSans-46" transform="translate(436.669922 0)"/>
     <use xlink:href="#DejaVuSans-54" transform="translate(492.439453 0)"/>
     <use xlink:href="#DejaVuSans-20" transform="translate(553.523438 0)"/>
     <use xlink:href="#DejaVuSans-70" transform="translate(585.310547 0)"/>
     <use xlink:href="#DejaVuSans-65" transform="translate(648.787109 0)"/>
     <use xlink:href="#DejaVuSans-61" transform="translate(710.310547 0)"/>
     <use xlink:href="#DejaVuSans-6b" transform="translate(771.589844 0)"/>
     <use xlink:href="#DejaVuSans-20" transform="translate(829.5 0)"/>
     <use xlink:href="#DejaVuSans-2248" transform="translate(861.287109 0)"/>
     <use xlink:href="#DejaVuSans-20" transform="translate(945.076172 0)"/>
     <use xlink:href="#DejaVuSans-30" transform="translate(976.863281 0)"/>
     <use xlink:href="#DejaVuSans-2e" transform="translate(1040.486328 0)"/>
     <use xlink:href="#DejaVuSans-31" transform="translate(1072.273438 0)"/>
     <use xlink:href="#DejaVuSans-30" transform="translate(1135.896484 0)"/>
     <use xlink:href="#DejaVuSans-30" transform="translate(1199.519531 0)"/>
     <use xlink:href="#DejaVuSans-20" transform="translate(1263.142578 0)"/>
     <use xlink:href="#DejaVuSans-28" transform="translate(1294.929688 0)"/>
     <use xlink:href="#DejaVuSans-61" transform="translate(1333.943359 0)"/>
     <use xlink:href="#DejaVuSans-72" transform="translate(1395.222656 0)"/>
     <use xlink:href="#DejaVuSans-62" transform="translate(1436.335938 0)"/>
     <use xlink:href="#DejaVuSans-2e" transform="translate(1499.8125 0)"/>
     <use xlink:href="#DejaVuSans-29" transform="translate(1531.599609 0)"/>
     <use xlink:href="#DejaVuSans-2c" transform="translate(1570.613281 0)"/>
     <use xlink:href="#DejaVuSans-20" transform="translate(1602.400391 0)"/>
     <use xlink:href="#DejaVuSans-6d" transform="translate(1634.1875 0)"/>
     <use xlink:href="#DejaVuSans-61" transform="translate(1731.599609 0)"/>
     <use xlink:href="#DejaVuSans-67" transform="translate(1792.878906 0)"/>
     <use xlink:href="#DejaVuSans-6e" transform="translate(1856.355469 0)"/>
     <use xlink:href="#DejaVuSans-69" transform="translate(1919.734375 0)"/>
     <use xlink:href="#DejaVuSans-74" transform="translate(1947.517578 0)"/>
     <use xlink:href="#DejaVuSans-75" transform="translate(1986.726562 0)"/>
     <use xlink:href="#DejaVuSans-64" transform="translate(2050.105469 0)"/>
     <use xlink:href="#DejaVuSans-65" transform="translate(2113.582031 0)"/>
     <use xlink:href="#DejaVuSans-20" transform="translate(2175.105469 0)"/>
     <use xlink:href="#DejaVuSans-2248" transform="translate(2206.892578 0)"/>
     <use xlink:href="#DejaVuSans-20" transform="translate(2290.681641 0)"/>
     <use xlink:href="#DejaVuSans-31" transform="translate(2322.46875 0)"/>
     <use xlink:href="#DejaVuSans-2e" transform="translate(2386.091797 0)"/>
     <use xlink:href="#DejaVuSans-30" transform="translate(2417.878906 0)"/>
     <use xlink:href="#DejaVuSans-35" transform="translate(2481.501953 0)"/>
     <use xlink:href="#DejaVuSans-35" transform="translate(2545.125 0)"/>
     <use xlink:href="#DejaVuSans-65" transform="translate(2608.748047 0)"/>
     <use xlink:href="#DejaVuSans-2b" transform="translate(2670.271484 0)"/>
     <use xlink:href="#DejaVuSans-30" transform="translate(2754.060547 0)"/>
     <use xlink:href="#DejaVuSans-32" transform="translate(2817.683594 0)"/>
     <use xlink:href="#DejaVuSans-20" transform="translate(2881.306641 0)"/>
     <use xlink:href="#DejaVuSans-7c" transform="translate(2913.09375 0)"/>
     <use xlink:href="#DejaVuSans-20" transform="translate(2946.785156 0)"/>
     <use xlink:href="#DejaVuSans-6c" transform="translate(2978.572266 0)"/>
     <use xlink:href="#DejaVuSans-6f" transform="translate(3006.355469 0)"/>
     <use xlink:href="#DejaVuSans-77" transform="translate(3067.537109 0)"/>
     <use xlink:href="#DejaVuSans-2d" transform="translate(3149.324219 0)"/>
     <use xlink:href="#DejaVuSans-69" transform="translate(3185.408203 0)"/>
     <use xlink:href="#DejaVuSans-73" transform="translate(3213.191406 0)"/>
     <use xlink:href="#DejaVuSans-68" transform="translate(3265.291016 0)"/>
    </g>
   </g>
   <g id="legend_2">
    <g id="patch_13">
     <path d="M 535.586783 316.66825 
L 621.183658 316.66825 
Q 623.183658 316.66825 623.183658 314.66825 
L 623.183658 286.312 
Q 623.183658 284.312 621.183658 284.312 
L 535.586783 284.312 
Q 533.586783 284.312 533.586783 286.312 
L 533.586783 314.66825 
Q 533.586783 316.66825 535.586783 316.66825 
z
" style="fill: #ffffff; opacity: 0.8; stroke: #cccccc; stroke-linejoin: miter"/>
    </g>
    <g id="line2d_63">
     <path d="M 537.586783 292.410438 
L 547.586783 292.410438 
L 557.586783 292.410438 
" style="fill: none; stroke: #1f77b4; stroke-opacity: 0.6; stroke-width: 1.5; stroke-linecap: square"/>
    </g>
    <g id="text_29">
     <!-- input FFT -->
     <g transform="translate(565.586783 295.910438) scale(0.1 -0.1)">
      <use xlink:href="#DejaVuSans-69"/>
      <use xlink:href="#DejaVuSans-6e" transform="translate(27.783203 0)"/>
      <use xlink:href="#DejaVuSans-70" transform="translate(91.162109 0)"/>
      <use xlink:href="#DejaVuSans-75" transform="translate(154.638672 0)"/>
      <use xlink:href="#DejaVuSans-74" transform="translate(218.017578 0)"/>
      <use xlink:href="#DejaVuSans-20" transform="translate(257.226562 0)"/>
      <use xlink:href="#DejaVuSans-46" transform="translate(289.013672 0)"/>
      <use xlink:href="#DejaVuSans-46" transform="translate(346.533203 0)"/>
      <use xlink:href="#DejaVuSans-54" transform="translate(402.302734 0)"/>
     </g>
    </g>
    <g id="line2d_64">
     <path d="M 537.586783 307.088562 
L 547.586783 307.088562 
L 557.586783 307.088562 
" style="fill: none; stroke: #ff7f0e; stroke-width: 1.5; stroke-linecap: square"/>
    </g>
    <g id="text_30">
     <!-- output FFT -->
     <g transform="translate(565.586783 310.588562) scale(0.1 -0.1)">
      <use xlink:href="#DejaVuSans-6f"/>
      <use xlink:href="#DejaVuSans-75" transform="translate(61.181641 0)"/>
      <use xlink:href="#DejaVuSans-74" transform="translate(124.560547 0)"/>
      <use xlink:href="#DejaVuSans-70" transform="translate(163.769531 0)"/>
      <use xlink:href="#DejaVuSans-75" transform="translate(227.246094 0)"/>
      <use xlink:href="#DejaVuSans-74" transform="translate(290.625 0)"/>
      <use xlink:href="#DejaVuSans-20" transform="translate(329.833984 0)"/>
      <use xlink:href="#DejaVuSans-46" transform="translate(361.621094 0)"/>
      <use xlink:href="#DejaVuSans-46" transform="translate(419.140625 0)"/>
      <use xlink:href="#DejaVuSans-54" transform="translate(474.910156 0)"/>
     </g>
    </g>
   </g>
  </g>
 </g>
 <defs>
  <clipPath id="p9333174d02">
   <rect x="56.255804" y="41.856" width="571.927854" height="179.416"/>
  </clipPath>
  <clipPath id="p87845d6f93">
   <rect x="56.255804" y="279.312" width="571.927854" height="179.416"/>
  </clipPath>
 </defs>
</svg>
