<?xml version="1.0" encoding="utf-8" standalone="no"?>
<!DOCTYPE svg PUBLIC "-//W3C//DTD SVG 1.1//EN"
  "http://www.w3.org/Graphics/SVG/1.1/DTD/svg11.dtd">
<svg xmlns:xlink="http://www.w3.org/1999/xlink" width="648pt" height="504pt" viewBox="0 0 648 504" xmlns="http://www.w3.org/2000/svg" version="1.1">
 <metadata>
  <rdf:RDF xmlns:dc="http://purl.org/dc/elements/1.1/" xmlns:cc="http://creativecommons.org/ns#" xmlns:rdf="http://www.w3.org/1999/02/22-rdf-syntax-ns#">
   <cc:Work>
    <dc:type rdf:resource="http://purl.org/dc/dcmitype/StillImage"/>
    <dc:date>2026-02-02T02:51:16.050789</dc:date>
    <dc:format>image/svg+xml</dc:format>
    <dc:creator>
     <cc:Agent>
      <dc:title>Matplotlib v3.10.8, https://matplotlib.org/</dc:title>
     </cc:Agent>
    </dc:creator>
   </cc:Work>
  </rdf:RDF>
 </metadata>
 <defs>
  <style type="text/css">*{stroke-linejoin: round; stroke-linecap: butt}</style>
 </defs>
 <g id="figure_1">
  <g id="patch_1">
   <path d="M 0 504 
L 648 504 
L 648 0 
L 0 0 
z
" style="fill: #ffffff"/>
  </g>
  <g id="axes_1">
   <g id="patch_2">
    <path d="M 62.3 221.272 
L 628.183658 221.272 
L 628.183658 41.856 
L 62.3 41.856 
z
" style="fill: #ffffff"/>
   </g>
   <g id="matplotlib.axis_1">
    <g id="xtick_1">
     <g id="line2d_1">
      <path d="M 88.021984 221.272 
L 88.021984 41.856 
" clip-path="url(#p83a91cd60a)" style="fill: none; stroke: #b0b0b0; stroke-opacity: 0.25; stroke-width: 0.8; stroke-linecap: square"/>
     </g>
     <g id="line2d_2">
      <defs>
       <path id="me98930d365" d="M 0 0 
L 0 3.5 
" style="stroke: #000000; stroke-width: 0.8"/>
      </defs>
      <g>
       <use xlink:href="#me98930d365" x="88.021984" y="221.272" style="stroke: #000000; stroke-width: 0.8"/>
      </g>
     </g>
     <g id="text_1">
      <!-- 0 -->
      <g transform="translate(84.840734 235.870437) scale(0.1 -0.1)">
       <defs>
        <path id="DejaVuSans-30" d="M 2034 4250 
Q 1547 4250 1301 3770 
Q 1056 3291 1056 2328 
Q 1056 1369 1301 889 
Q 1547 409 2034 409 
Q 2525 409 2770 889 
Q 3016 1369 3016 2328 
Q 3016 3291 2770 3770 
Q 2525 4250 2034 4250 
z
M 2034 4750 
Q 2819 4750 3233 4129 
Q 3647 3509 3647 2328 
Q 3647 1150 3233 529 
Q 2819 -91 2034 -91 
Q 1250 -91 836 529 
Q 422 1150 422 2328 
Q 422 3509 836 4129 
Q 1250 4750 2034 4750 
z
" transform="scale(0.015625)"/>
       </defs>
       <use xlink:href="#DejaVuSans-30"/>
      </g>
     </g>
    </g>
    <g id="xtick_2">
     <g id="line2d_3">
      <path d="M 190.935047 221.272 
L 190.935047 41.856 
" clip-path="url(#p83a91cd60a)" style="fill: none; stroke: #b0b0b0; stroke-opacity: 0.25; stroke-width: 0.8; stroke-linecap: square"/>
     </g>
     <g id="line2d_4">
      <g>
       <use xlink:href="#me98930d365" x="190.935047" y="221.272" style="stroke: #000000; stroke-width: 0.8"/>
      </g>
     </g>
     <g id="text_2">
      <!-- 2 -->
      <g transform="translate(187.753797 235.870437) scale(0.1 -0.1)">
       <defs>
        <path id="DejaVuSans-32" d="M 1228 531 
L 3431 531 
L 3431 0 
L 469 0 
L 469 531 
Q 828 903 1448 1529 
Q 2069 2156 2228 2338 
Q 2531 2678 2651 2914 
Q 2772 3150 2772 3378 
Q 2772 3750 2511 3984 
Q 2250 4219 1831 4219 
Q 1534 4219 1204 4116 
Q 875 4013 500 3803 
L 500 4441 
Q 881 4594 1212 4672 
Q 1544 4750 1819 4750 
Q 2544 4750 2975 4387 
Q 3406 4025 3406 3419 
Q 3406 3131 3298 2873 
Q 3191 2616 2906 2266 
Q 2828 2175 2409 1742 
Q 1991 1309 1228 531 
z
" transform="scale(0.015625)"/>
       </defs>
       <use xlink:href="#DejaVuSans-32"/>
      </g>
     </g>
    </g>
    <g id="xtick_3">
     <g id="line2d_5">
      <path d="M 293.84811 221.272 
L 293.84811 41.856 
" clip-path="url(#p83a91cd60a)" style="fill: none; stroke: #b0b0b0; stroke-opacity: 0.25; stroke-width: 0.8; stroke-linecap: square"/>
     </g>
     <g id="line2d_6">
      <g>
       <use xlink:href="#me98930d365" x="293.84811" y="221.272" style="stroke: #000000; stroke-width: 0.8"/>
      </g>
     </g>
     <g id="text_3">
      <!-- 4 -->
      <g transform="translate(290.66686 235.870437) scale(0.1 -0.1)">
       <defs>
        <path id="DejaVuSans-34" d="M 2419 4116 
L 825 1625 
L 2419 1625 
L 2419 4116 
z
M 2253 4666 
L 3047 4666 
L 3047 1625 
L 3713 1625 
L 3713 1100 
L 3047 1100 
L 3047 0 
L 2419 0 
L 2419 1100 
L 313 1100 
L 313 1709 
L 2253 4666 
z
" transform="scale(0.015625)"/>
       </defs>
       <use xlink:href="#DejaVuSans-34"/>
      </g>
     </g>
    </g>
    <g id="xtick_4">
     <g id="line2d_7">
      <path d="M 396.761173 221.272 
L 396.761173 41.856 
" clip-path="url(#p83a91cd60a)" style="fill: none; stroke: #b0b0b0; stroke-opacity: 0.25; stroke-width: 0.8; stroke-linecap: square"/>
     </g>
     <g id="line2d_8">
      <g>
       <use xlink:href="#me98930d365" x="396.761173" y="221.272" style="stroke: #000000; stroke-width: 0.8"/>
      </g>
     </g>
     <g id="text_4">
      <!-- 6 -->
      <g transform="translate(393.579923 235.870437) scale(0.1 -0.1)">
       <defs>
        <path id="DejaVuSans-36" d="M 2113 2584 
Q 1688 2584 1439 2293 
Q 1191 2003 1191 1497 
Q 1191 994 1439 701 
Q 1688 409 2113 409 
Q 2538 409 2786 701 
Q 3034 994 3034 1497 
Q 3034 2003 2786 2293 
Q 2538 2584 2113 2584 
z
M 3366 4563 
L 3366 3988 
Q 3128 4100 2886 4159 
Q 2644 4219 2406 4219 
Q 1781 4219 1451 3797 
Q 1122 3375 1075 2522 
Q 1259 2794 1537 2939 
Q 1816 3084 2150 3084 
Q 2853 3084 3261 2657 
Q 3669 2231 3669 1497 
Q 3669 778 3244 343 
Q 2819 -91 2113 -91 
Q 1303 -91 875 529 
Q 447 1150 447 2328 
Q 447 3434 972 4092 
Q 1497 4750 2381 4750 
Q 2619 4750 2861 4703 
Q 3103 4656 3366 4563 
z
" transform="scale(0.015625)"/>
       </defs>
       <use xlink:href="#DejaVuSans-36"/>
      </g>
     </g>
    </g>
    <g id="xtick_5">
     <g id="line2d_9">
      <path d="M 499.674236 221.272 
L 499.674236 41.856 
" clip-path="url(#p83a91cd60a)" style="fill: none; stroke: #b0b0b0; stroke-opacity: 0.25; stroke-width: 0.8; stroke-linecap: square"/>
     </g>
     <g id="line2d_10">
      <g>
       <use xlink:href="#me98930d365" x="499.674236" y="221.272" style="stroke: #000000; stroke-width: 0.8"/>
      </g>
     </g>
     <g id="text_5">
      <!-- 8 -->
      <g transform="translate(496.492986 235.870437) scale(0.1 -0.1)">
       <defs>
        <path id="DejaVuSans-38" d="M 2034 2216 
Q 1584 2216 1326 1975 
Q 1069 1734 1069 1313 
Q 1069 891 1326 650 
Q 1584 409 2034 409 
Q 2484 409 2743 651 
Q 3003 894 3003 1313 
Q 3003 1734 2745 1975 
Q 2488 2216 2034 2216 
z
M 1403 2484 
Q 997 2584 770 2862 
Q 544 3141 544 3541 
Q 544 4100 942 4425 
Q 1341 4750 2034 4750 
Q 2731 4750 3128 4425 
Q 3525 4100 3525 3541 
Q 3525 3141 3298 2862 
Q 3072 2584 2669 2484 
Q 3125 2378 3379 2068 
Q 3634 1759 3634 1313 
Q 3634 634 3220 271 
Q 2806 -91 2034 -91 
Q 1263 -91 848 271 
Q 434 634 434 1313 
Q 434 1759 690 2068 
Q 947 2378 1403 2484 
z
M 1172 3481 
Q 1172 3119 1398 2916 
Q 1625 2713 2034 2713 
Q 2441 2713 2670 2916 
Q 2900 3119 2900 3481 
Q 2900 3844 2670 4047 
Q 2441 4250 2034 4250 
Q 1625 4250 1398 4047 
Q 1172 3844 1172 3481 
z
" transform="scale(0.015625)"/>
       </defs>
       <use xlink:href="#DejaVuSans-38"/>
      </g>
     </g>
    </g>
    <g id="xtick_6">
     <g id="line2d_11">
      <path d="M 602.587299 221.272 
L 602.587299 41.856 
" clip-path="url(#p83a91cd60a)" style="fill: none; stroke: #b0b0b0; stroke-opacity: 0.25; stroke-width: 0.8; stroke-linecap: square"/>
     </g>
     <g id="line2d_12">
      <g>
       <use xlink:href="#me98930d365" x="602.587299" y="221.272" style="stroke: #000000; stroke-width: 0.8"/>
      </g>
     </g>
     <g id="text_6">
      <!-- 10 -->
      <g transform="translate(596.224799 235.870437) scale(0.1 -0.1)">
       <defs>
        <path id="DejaVuSans-31" d="M 794 531 
L 1825 531 
L 1825 4091 
L 703 3866 
L 703 4441 
L 1819 4666 
L 2450 4666 
L 2450 531 
L 3481 531 
L 3481 0 
L 794 0 
L 794 531 
z
" transform="scale(0.015625)"/>
       </defs>
       <use xlink:href="#DejaVuSans-31"/>
       <use xlink:href="#DejaVuSans-30" transform="translate(63.623047 0)"/>
      </g>
     </g>
    </g>
    <g id="text_7">
     <!-- t [arb.] -->
     <g transform="translate(327.908235 249.548563) scale(0.1 -0.1)">
      <defs>
       <path id="DejaVuSans-74" d="M 1172 4494 
L 1172 3500 
L 2356 3500 
L 2356 3053 
L 1172 3053 
L 1172 1153 
Q 1172 725 1289 603 
Q 1406 481 1766 481 
L 2356 481 
L 2356 0 
L 1766 0 
Q 1100 0 847 248 
Q 594 497 594 1153 
L 594 3053 
L 172 3053 
L 172 3500 
L 594 3500 
L 594 4494 
L 1172 4494 
z
" transform="scale(0.015625)"/>
       <path id="DejaVuSans-20" transform="scale(0.015625)"/>
       <path id="DejaVuSans-5b" d="M 550 4863 
L 1875 4863 
L 1875 4416 
L 1125 4416 
L 1125 -397 
L 1875 -397 
L 1875 -844 
L 550 -844 
L 550 4863 
z
" transform="scale(0.015625)"/>
       <path id="DejaVuSans-61" d="M 2194 1759 
Q 1497 1759 1228 1600 
Q 959 1441 959 1056 
Q 959 750 1161 570 
Q 1363 391 1709 391 
Q 2188 391 2477 730 
Q 2766 1069 2766 1631 
L 2766 1759 
L 2194 1759 
z
M 3341 1997 
L 3341 0 
L 2766 0 
L 2766 531 
Q 2569 213 2275 61 
Q 1981 -91 1556 -91 
Q 1019 -91 701 211 
Q 384 513 384 1019 
Q 384 1609 779 1909 
Q 1175 2209 1959 2209 
L 2766 2209 
L 2766 2266 
Q 2766 2663 2505 2880 
Q 2244 3097 1772 3097 
Q 1472 3097 1187 3025 
Q 903 2953 641 2809 
L 641 3341 
Q 956 3463 1253 3523 
Q 1550 3584 1831 3584 
Q 2591 3584 2966 3190 
Q 3341 2797 3341 1997 
z
" transform="scale(0.015625)"/>
       <path id="DejaVuSans-72" d="M 2631 2963 
Q 2534 3019 2420 3045 
Q 2306 3072 2169 3072 
Q 1681 3072 1420 2755 
Q 1159 2438 1159 1844 
L 1159 0 
L 581 0 
L 581 3500 
L 1159 3500 
L 1159 2956 
Q 1341 3275 1631 3429 
Q 1922 3584 2338 3584 
Q 2397 3584 2469 3576 
Q 2541 3569 2628 3553 
L 2631 2963 
z
" transform="scale(0.015625)"/>
       <path id="DejaVuSans-62" d="M 3116 1747 
Q 3116 2381 2855 2742 
Q 2594 3103 2138 3103 
Q 1681 3103 1420 2742 
Q 1159 2381 1159 1747 
Q 1159 1113 1420 752 
Q 1681 391 2138 391 
Q 2594 391 2855 752 
Q 3116 1113 3116 1747 
z
M 1159 2969 
Q 1341 3281 1617 3432 
Q 1894 3584 2278 3584 
Q 2916 3584 3314 3078 
Q 3713 2572 3713 1747 
Q 3713 922 3314 415 
Q 2916 -91 2278 -91 
Q 1894 -91 1617 61 
Q 1341 213 1159 525 
L 1159 0 
L 581 0 
L 581 4863 
L 1159 4863 
L 1159 2969 
z
" transform="scale(0.015625)"/>
       <path id="DejaVuSans-2e" d="M 684 794 
L 1344 794 
L 1344 0 
L 684 0 
L 684 794 
z
" transform="scale(0.015625)"/>
       <path id="DejaVuSans-5d" d="M 1947 4863 
L 1947 -844 
L 622 -844 
L 622 -397 
L 1369 -397 
L 1369 4416 
L 622 4416 
L 622 4863 
L 1947 4863 
z
" transform="scale(0.015625)"/>
      </defs>
      <use xlink:href="#DejaVuSans-74"/>
      <use xlink:href="#DejaVuSans-20" transform="translate(39.208984 0)"/>
      <use xlink:href="#DejaVuSans-5b" transform="translate(70.996094 0)"/>
      <use xlink:href="#DejaVuSans-61" transform="translate(110.009766 0)"/>
      <use xlink:href="#DejaVuSans-72" transform="translate(171.289062 0)"/>
      <use xlink:href="#DejaVuSans-62" transform="translate(212.402344 0)"/>
      <use xlink:href="#DejaVuSans-2e" transform="translate(275.878906 0)"/>
      <use xlink:href="#DejaVuSans-5d" transform="translate(307.666016 0)"/>
     </g>
    </g>
   </g>
   <g id="matplotlib.axis_2">
    <g id="ytick_1">
     <g id="line2d_13">
      <path d="M 62.3 201.898947 
L 628.183658 201.898947 
" clip-path="url(#p83a91cd60a)" style="fill: none; stroke: #b0b0b0; stroke-opacity: 0.25; stroke-width: 0.8; stroke-linecap: square"/>
     </g>
     <g id="line2d_14">
      <defs>
       <path id="m48826657b5" d="M 0 0 
L -3.5 0 
" style="stroke: #000000; stroke-width: 0.8"/>
      </defs>
      <g>
       <use xlink:href="#m48826657b5" x="62.3" y="201.898947" style="stroke: #000000; stroke-width: 0.8"/>
      </g>
     </g>
     <g id="text_8">
      <!-- −0.75 -->
      <g transform="translate(24.654688 205.698165) scale(0.1 -0.1)">
       <defs>
        <path id="DejaVuSans-2212" d="M 678 2272 
L 4684 2272 
L 4684 1741 
L 678 1741 
L 678 2272 
z
" transform="scale(0.015625)"/>
        <path id="DejaVuSans-37" d="M 525 4666 
L 3525 4666 
L 3525 4397 
L 1831 0 
L 1172 0 
L 2766 4134 
L 525 4134 
L 525 4666 
z
" transform="scale(0.015625)"/>
        <path id="DejaVuSans-35" d="M 691 4666 
L 3169 4666 
L 3169 4134 
L 1269 4134 
L 1269 2991 
Q 1406 3038 1543 3061 
Q 1681 3084 1819 3084 
Q 2600 3084 3056 2656 
Q 3513 2228 3513 1497 
Q 3513 744 3044 326 
Q 2575 -91 1722 -91 
Q 1428 -91 1123 -41 
Q 819 9 494 109 
L 494 744 
Q 775 591 1075 516 
Q 1375 441 1709 441 
Q 2250 441 2565 725 
Q 2881 1009 2881 1497 
Q 2881 1984 2565 2268 
Q 2250 2553 1709 2553 
Q 1456 2553 1204 2497 
Q 953 2441 691 2322 
L 691 4666 
z
" transform="scale(0.015625)"/>
       </defs>
       <use xlink:href="#DejaVuSans-2212"/>
       <use xlink:href="#DejaVuSans-30" transform="translate(83.789062 0)"/>
       <use xlink:href="#DejaVuSans-2e" transform="translate(147.412109 0)"/>
       <use xlink:href="#DejaVuSans-37" transform="translate(179.199219 0)"/>
       <use xlink:href="#DejaVuSans-35" transform="translate(242.822266 0)"/>
      </g>
     </g>
    </g>
    <g id="ytick_2">
     <g id="line2d_15">
      <path d="M 62.3 178.45396 
L 628.183658 178.45396 
" clip-path="url(#p83a91cd60a)" style="fill: none; stroke: #b0b0b0; stroke-opacity: 0.25; stroke-width: 0.8; stroke-linecap: square"/>
     </g>
     <g id="line2d_16">
      <g>
       <use xlink:href="#m48826657b5" x="62.3" y="178.45396" style="stroke: #000000; stroke-width: 0.8"/>
      </g>
     </g>
     <g id="text_9">
      <!-- −0.50 -->
      <g transform="translate(24.654688 182.253179) scale(0.1 -0.1)">
       <use xlink:href="#DejaVuSans-2212"/>
       <use xlink:href="#DejaVuSans-30" transform="translate(83.789062 0)"/>
       <use xlink:href="#DejaVuSans-2e" transform="translate(147.412109 0)"/>
       <use xlink:href="#DejaVuSans-35" transform="translate(179.199219 0)"/>
       <use xlink:href="#DejaVuSans-30" transform="translate(242.822266 0)"/>
      </g>
     </g>
    </g>
    <g id="ytick_3">
     <g id="line2d_17">
      <path d="M 62.3 155.008974 
L 628.183658 155.008974 
" clip-path="url(#p83a91cd60a)" style="fill: none; stroke: #b0b0b0; stroke-opacity: 0.25; stroke-width: 0.8; stroke-linecap: square"/>
     </g>
     <g id="line2d_18">
      <g>
       <use xlink:href="#m48826657b5" x="62.3" y="155.008974" style="stroke: #000000; stroke-width: 0.8"/>
      </g>
     </g>
     <g id="text_10">
      <!-- −0.25 -->
      <g transform="translate(24.654688 158.808193) scale(0.1 -0.1)">
       <use xlink:href="#DejaVuSans-2212"/>
       <use xlink:href="#DejaVuSans-30" transform="translate(83.789062 0)"/>
       <use xlink:href="#DejaVuSans-2e" transform="translate(147.412109 0)"/>
       <use xlink:href="#DejaVuSans-32" transform="translate(179.199219 0)"/>
       <use xlink:href="#DejaVuSans-35" transform="translate(242.822266 0)"/>
      </g>
     </g>
    </g>
    <g id="ytick_4">
     <g id="line2d_19">
      <path d="M 62.3 131.563988 
L 628.183658 131.563988 
" clip-path="url(#p83a91cd60a)" style="fill: none; stroke: #b0b0b0; stroke-opacity: 0.25; stroke-width: 0.8; stroke-linecap: square"/>
     </g>
     <g id="line2d_20">
      <g>
       <use xlink:href="#m48826657b5" x="62.3" y="131.563988" style="stroke: #000000; stroke-width: 0.8"/>
      </g>
     </g>
     <g id="text_11">
      <!-- 0.00 -->
      <g transform="translate(33.034375 135.363207) scale(0.1 -0.1)">
       <use xlink:href="#DejaVuSans-30"/>
       <use xlink:href="#DejaVuSans-2e" transform="translate(63.623047 0)"/>
       <use xlink:href="#DejaVuSans-30" transform="translate(95.410156 0)"/>
       <use xlink:href="#DejaVuSans-30" transform="translate(159.033203 0)"/>
      </g>
     </g>
    </g>
    <g id="ytick_5">
     <g id="line2d_21">
      <path d="M 62.3 108.119002 
L 628.183658 108.119002 
" clip-path="url(#p83a91cd60a)" style="fill: none; stroke: #b0b0b0; stroke-opacity: 0.25; stroke-width: 0.8; stroke-linecap: square"/>
     </g>
     <g id="line2d_22">
      <g>
       <use xlink:href="#m48826657b5" x="62.3" y="108.119002" style="stroke: #000000; stroke-width: 0.8"/>
      </g>
     </g>
     <g id="text_12">
      <!-- 0.25 -->
      <g transform="translate(33.034375 111.918221) scale(0.1 -0.1)">
       <use xlink:href="#DejaVuSans-30"/>
       <use xlink:href="#DejaVuSans-2e" transform="translate(63.623047 0)"/>
       <use xlink:href="#DejaVuSans-32" transform="translate(95.410156 0)"/>
       <use xlink:href="#DejaVuSans-35" transform="translate(159.033203 0)"/>
      </g>
     </g>
    </g>
    <g id="ytick_6">
     <g id="line2d_23">
      <path d="M 62.3 84.674016 
L 628.183658 84.674016 
" clip-path="url(#p83a91cd60a)" style="fill: none; stroke: #b0b0b0; stroke-opacity: 0.25; stroke-width: 0.8; stroke-linecap: square"/>
     </g>
     <g id="line2d_24">
      <g>
       <use xlink:href="#m48826657b5" x="62.3" y="84.674016" style="stroke: #000000; stroke-width: 0.8"/>
      </g>
     </g>
     <g id="text_13">
      <!-- 0.50 -->
      <g transform="translate(33.034375 88.473235) scale(0.1 -0.1)">
       <use xlink:href="#DejaVuSans-30"/>
       <use xlink:href="#DejaVuSans-2e" transform="translate(63.623047 0)"/>
       <use xlink:href="#DejaVuSans-35" transform="translate(95.410156 0)"/>
       <use xlink:href="#DejaVuSans-30" transform="translate(159.033203 0)"/>
      </g>
     </g>
    </g>
    <g id="ytick_7">
     <g id="line2d_25">
      <path d="M 62.3 61.22903 
L 628.183658 61.22903 
" clip-path="url(#p83a91cd60a)" style="fill: none; stroke: #b0b0b0; stroke-opacity: 0.25; stroke-width: 0.8; stroke-linecap: square"/>
     </g>
     <g id="line2d_26">
      <g>
       <use xlink:href="#m48826657b5" x="62.3" y="61.22903" style="stroke: #000000; stroke-width: 0.8"/>
      </g>
     </g>
     <g id="text_14">
      <!-- 0.75 -->
      <g transform="translate(33.034375 65.028249) scale(0.1 -0.1)">
       <use xlink:href="#DejaVuSans-30"/>
       <use xlink:href="#DejaVuSans-2e" transform="translate(63.623047 0)"/>
       <use xlink:href="#DejaVuSans-37" transform="translate(95.410156 0)"/>
       <use xlink:href="#DejaVuSans-35" transform="translate(159.033203 0)"/>
      </g>
     </g>
    </g>
    <g id="text_15">
     <!-- [arb.] -->
     <g transform="translate(18.575 145.348375) rotate(-90) scale(0.1 -0.1)">
      <use xlink:href="#DejaVuSans-5b"/>
      <use xlink:href="#DejaVuSans-61" transform="translate(39.013672 0)"/>
      <use xlink:href="#DejaVuSans-72" transform="translate(100.292969 0)"/>
      <use xlink:href="#DejaVuSans-62" transform="translate(141.40625 0)"/>
      <use xlink:href="#DejaVuSans-2e" transform="translate(204.882812 0)"/>
      <use xlink:href="#DejaVuSans-5d" transform="translate(236.669922 0)"/>
     </g>
    </g>
   </g>
   <g id="line2d_27">
    <path d="M 88.021984 131.563988 
L 90.408884 90.506879 
L 91.665147 72.76408 
L 92.670157 61.758751 
L 93.423915 55.732529 
L 94.052047 52.309464 
L 94.554552 50.666989 
L 94.931431 50.088734 
L 95.182683 50.017058 
L 95.433936 50.196816 
L 95.810815 50.936465 
L 96.187694 52.235281 
L 96.690199 54.820732 
L 97.31833 59.377667 
L 98.072088 66.670108 
L 98.951472 77.432261 
L 100.082109 94.199078 
L 101.715251 122.209391 
L 104.730282 174.291719 
L 105.860919 190.143625 
L 106.865929 201.204666 
L 107.619687 207.278145 
L 108.247818 210.74313 
L 108.750324 212.420226 
L 109.127202 213.0248 
L 109.378455 213.114089 
L 109.629708 212.951934 
L 110.006587 212.238552 
L 110.383465 210.965677 
L 110.885971 208.413998 
L 111.514102 203.897378 
L 112.26786 196.649516 
L 113.147244 185.932585 
L 114.277881 169.210601 
L 115.911023 141.233663 
L 118.926054 89.106795 
L 120.05669 73.205509 
L 121.061701 62.088924 
L 121.815458 55.96828 
L 122.44359 52.461427 
L 122.946095 50.749736 
L 123.322974 50.118852 
L 123.574227 50.011951 
L 123.825479 50.1565 
L 124.076732 50.552052 
L 124.453611 51.613133 
L 124.956116 53.888595 
L 125.584247 58.074635 
L 126.338005 64.955696 
L 127.217389 75.298641 
L 128.348026 91.64642 
L 129.855542 117.102162 
L 133.247452 175.671476 
L 134.378088 191.265897 
L 135.257472 200.872388 
L 136.01123 207.040104 
L 136.639362 210.588772 
L 137.141867 212.335033 
L 137.518746 212.992217 
L 137.769998 213.116727 
L 138.021251 212.989786 
L 138.272503 212.611785 
L 138.649382 211.576807 
L 139.151888 209.335449 
L 139.780019 205.190328 
L 140.533777 198.354822 
L 141.413161 188.058554 
L 142.543798 171.757896 
L 144.051313 146.337919 
L 147.443223 87.723673 
L 148.57386 72.078648 
L 149.453244 62.423302 
L 150.207002 56.208608 
L 150.835133 52.618178 
L 151.337638 50.837374 
L 151.714517 50.153899 
L 151.96577 50.011781 
L 152.217023 50.121113 
L 152.468275 50.481556 
L 152.845154 51.490416 
L 153.347659 53.697636 
L 153.975791 57.801777 
L 154.729548 64.591624 
L 155.608933 74.841058 
L 156.739569 91.09435 
L 158.247085 116.478176 
L 161.764621 177.033614 
L 162.895258 192.364319 
L 163.774642 201.717518 
L 164.5284 207.642397 
L 165.156531 210.975659 
L 165.659036 212.54403 
L 166.035915 213.065985 
L 166.287168 213.1 
L 166.53842 212.882616 
L 166.915299 212.086842 
L 167.292178 210.732628 
L 167.794683 208.075106 
L 168.422815 203.432205 
L 169.176573 196.044824 
L 170.055957 185.186532 
L 171.186593 168.32471 
L 172.819735 140.244463 
L 175.70914 90.195332 
L 176.965403 72.51448 
L 177.844787 62.761866 
L 178.598545 56.453496 
L 179.226677 52.779707 
L 179.729182 50.929898 
L 180.106061 50.193874 
L 180.357313 50.016547 
L 180.608566 50.090654 
L 180.859818 50.415968 
L 181.236697 51.372545 
L 181.739202 53.511389 
L 182.367334 57.533384 
L 183.121092 64.231605 
L 184.000476 74.386907 
L 185.131112 90.544729 
L 186.638628 115.855104 
L 190.156164 176.505529 
L 191.286801 191.93962 
L 192.166185 201.391862 
L 192.919943 207.411553 
L 193.548074 210.828825 
L 194.05058 212.466519 
L 194.427459 213.04114 
L 194.678711 213.110384 
L 194.929964 212.928196 
L 195.306843 212.184921 
L 195.683721 210.882525 
L 196.186227 208.292415 
L 196.814358 203.729919 
L 197.568116 196.431332 
L 198.4475 185.662949 
L 199.578137 168.889962 
L 201.211279 140.875074 
L 204.22631 88.798957 
L 205.356946 72.953888 
L 206.361957 61.900528 
L 207.115715 55.833568 
L 207.743846 52.374368 
L 208.246351 50.70205 
L 208.62323 50.101109 
L 208.874483 50.014252 
L 209.125735 50.178837 
L 209.502614 50.895846 
L 209.879493 52.172304 
L 210.381998 54.728648 
L 211.01013 59.250838 
L 211.763888 66.504861 
L 212.643272 77.228045 
L 213.773908 93.956234 
L 215.40705 121.937805 
L 218.422081 174.05857 
L 219.552718 189.953053 
L 220.557728 201.06198 
L 221.311486 207.176118 
L 221.939618 210.677194 
L 222.442123 212.38411 
L 222.819002 213.011362 
L 223.070254 213.115831 
L 223.321507 212.968851 
L 223.57276 212.570877 
L 223.949638 211.506193 
L 224.452144 209.226025 
L 225.080275 205.034342 
L 225.834033 198.146999 
L 226.713417 187.797621 
L 227.844054 171.443357 
L 229.351569 145.982708 
L 232.743479 87.419666 
L 233.874116 71.832251 
L 234.7535 62.232516 
L 235.507258 56.071294 
L 236.135389 52.528395 
L 236.637895 50.786905 
L 237.014773 50.133352 
L 237.266026 50.011273 
L 237.517279 50.140645 
L 237.768531 50.521069 
L 238.14541 51.559652 
L 238.647915 53.805721 
L 239.276047 57.956495 
L 240.029805 64.798297 
L 240.909189 75.101018 
L 242.039825 91.408197 
L 243.547341 116.833134 
L 246.939251 175.44123 
L 248.069888 191.079282 
L 248.949272 200.727891 
L 249.703029 206.936106 
L 250.331161 210.520773 
L 250.833666 212.29681 
L 251.210545 212.976655 
L 251.461798 213.116342 
L 251.71305 213.004579 
L 251.964303 212.641711 
L 252.341182 211.629245 
L 252.843687 209.41731 
L 253.471818 205.307507 
L 254.225576 198.51135 
L 255.10496 188.255441 
L 256.235597 171.995595 
L 257.743113 146.606755 
L 261.260649 86.05801 
L 262.391286 70.734475 
L 263.27067 61.388135 
L 264.024427 55.469814 
L 264.652559 52.142358 
L 265.155064 50.578776 
L 265.531943 50.060458 
L 265.783196 50.028875 
L 266.034448 50.248689 
L 266.411327 51.048084 
L 266.788206 52.405873 
L 267.290711 55.068042 
L 267.918843 59.716484 
L 268.6726 67.109978 
L 269.551984 77.974453 
L 270.682621 94.842369 
L 272.315763 122.927066 
L 275.205168 172.970385 
L 276.461431 190.643697 
L 277.340815 200.389616 
L 278.094573 206.691532 
L 278.722704 210.359574 
L 279.225209 212.204623 
L 279.602088 212.93702 
L 279.853341 213.111917 
L 280.104593 213.035378 
L 280.355846 212.707638 
L 280.732725 211.74745 
L 281.23523 209.603883 
L 281.863362 205.576209 
L 282.617119 198.871649 
L 283.496504 188.709829 
L 284.62714 172.545386 
L 286.134656 147.229891 
L 289.652192 86.585906 
L 290.782829 71.158922 
L 291.662213 61.713498 
L 292.415971 55.700341 
L 293.044102 52.288861 
L 293.546607 50.65595 
L 293.923486 50.084963 
L 294.174739 50.018151 
L 294.425991 50.202769 
L 294.80287 50.949669 
L 295.179749 52.255645 
L 295.682254 54.850414 
L 296.310386 59.418469 
L 297.064144 66.723199 
L 297.943528 77.49781 
L 299.074164 94.276963 
L 300.707306 122.296416 
L 303.596711 172.422516 
L 304.852974 190.204536 
L 305.857985 201.25021 
L 306.611742 207.31065 
L 307.239874 210.764065 
L 307.742379 212.431603 
L 308.119258 213.028911 
L 308.37051 213.113337 
L 308.621763 212.946321 
L 308.998642 212.225685 
L 309.375521 210.945645 
L 309.878026 208.384637 
L 310.506158 203.856878 
L 311.259915 196.596696 
L 312.139299 185.867262 
L 313.269936 169.132873 
L 314.903078 141.146677 
L 317.918109 89.032029 
L 319.048746 73.144354 
L 320.053756 62.043089 
L 320.807514 55.935459 
L 321.435645 52.440162 
L 321.938151 50.73802 
L 322.315029 50.1144 
L 322.566282 50.012363 
L 322.817535 50.161773 
L 323.068787 50.562171 
L 323.445666 51.630456 
L 323.948171 53.91533 
L 324.576303 58.112656 
L 325.330061 65.006278 
L 326.209445 75.362085 
L 327.340081 91.722831 
L 328.847597 117.18838 
L 332.239507 175.745132 
L 333.370144 191.325538 
L 334.249528 200.918513 
L 335.003286 207.07324 
L 335.631417 210.610368 
L 336.133922 212.347086 
L 336.510801 212.997009 
L 336.762054 213.116657 
L 337.013306 212.984853 
L 337.264559 212.602006 
L 337.641438 211.559818 
L 338.143943 209.30904 
L 338.772074 205.152614 
L 339.525832 198.304519 
L 340.405216 187.995346 
L 341.535853 171.681652 
L 343.043369 146.251762 
L 346.435279 87.649833 
L 347.565915 72.018758 
L 348.445299 62.376888 
L 349.199057 56.175156 
L 349.827189 52.596252 
L 350.329694 50.824983 
L 350.706573 50.148767 
L 350.957825 50.011511 
L 351.209078 50.125705 
L 351.460331 50.490997 
L 351.837209 51.50707 
L 352.339715 53.72372 
L 352.967846 57.839183 
L 353.721604 64.641648 
L 354.600988 74.904029 
L 355.731625 91.170425 
L 357.23914 116.564272 
L 360.756677 177.106307 
L 361.887313 192.422666 
L 362.766697 201.762146 
L 363.520455 207.673906 
L 364.148587 210.995554 
L 364.651092 212.554347 
L 365.027971 213.069028 
L 365.279223 213.098179 
L 365.530476 212.875936 
L 365.907355 212.072919 
L 366.284234 210.711557 
L 366.786739 208.04474 
L 367.41487 203.39076 
L 368.168628 195.991155 
L 369.048012 185.120501 
L 370.178649 168.246494 
L 371.811791 140.157357 
L 374.701196 90.119864 
L 375.957459 72.454095 
L 376.836843 62.714875 
L 377.5906 56.419415 
L 378.218732 52.757122 
L 378.721237 50.916833 
L 379.098116 50.188062 
L 379.349369 50.015595 
L 379.600621 50.094566 
L 379.851874 50.424731 
L 380.228753 51.38853 
L 380.731258 53.536822 
L 381.359389 57.570173 
L 382.113147 64.281068 
L 382.992531 74.449403 
L 384.123168 90.620464 
L 385.630683 115.941071 
L 389.14822 176.5786 
L 390.278857 191.998473 
L 391.158241 201.437075 
L 391.911998 207.443697 
L 392.54013 210.849383 
L 393.042635 212.477512 
L 393.419514 213.044864 
L 393.670767 213.109244 
L 393.922019 212.922196 
L 394.298898 212.17167 
L 394.675777 210.862115 
L 395.178282 208.262689 
L 395.806414 203.689075 
L 396.560171 196.378203 
L 397.439555 185.597368 
L 398.570192 168.812055 
L 400.203334 140.788043 
L 403.092739 90.66756 
L 404.349002 72.89301 
L 405.354012 61.855024 
L 406.10777 55.801107 
L 406.735901 52.353479 
L 407.238407 50.690719 
L 407.615286 50.097045 
L 407.866538 50.015051 
L 408.117791 50.184497 
L 408.49467 50.90876 
L 408.871549 52.192382 
L 409.374054 54.758054 
L 410.002185 59.29138 
L 410.755943 66.557719 
L 411.635327 77.2934 
L 412.765964 94.033984 
L 414.399106 122.024797 
L 417.414137 174.133313 
L 418.544773 190.014175 
L 419.549784 201.107775 
L 420.303542 207.208895 
L 420.931673 210.698413 
L 421.434178 212.395779 
L 421.811057 213.015767 
L 422.06231 213.115373 
L 422.313562 212.963532 
L 422.564815 212.560712 
L 422.941694 211.488824 
L 423.444199 209.199246 
L 424.072331 204.996278 
L 424.826088 198.096379 
L 425.705472 187.734146 
L 426.836109 171.366923 
L 428.343625 145.896481 
L 431.735535 87.346036 
L 432.866171 71.772644 
L 433.745555 62.186431 
L 434.499313 56.038201 
L 435.127445 52.506845 
L 435.62995 50.774899 
L 436.006829 50.128607 
L 436.258081 50.01139 
L 436.509334 50.145625 
L 436.760587 50.530896 
L 437.137466 51.576687 
L 437.639971 53.832175 
L 438.268102 57.994252 
L 439.02186 64.848638 
L 439.901244 75.164258 
L 441.031881 91.484463 
L 442.539396 116.9193 
L 445.931306 175.515044 
L 447.061943 191.139138 
L 447.941327 200.774266 
L 448.695085 206.969514 
L 449.323216 210.542654 
L 449.825722 212.309153 
L 450.2026 212.98174 
L 450.453853 213.116565 
L 450.705106 212.99994 
L 450.956358 212.632224 
L 451.333237 211.612544 
L 451.835742 209.391181 
L 452.463874 205.270058 
L 453.217632 198.461288 
L 454.097016 188.192437 
L 455.227652 171.919497 
L 456.735168 146.520651 
L 460.252704 85.985343 
L 461.383341 70.676164 
L 462.262725 61.343547 
L 463.016483 55.438349 
L 463.644614 52.122509 
L 464.14712 50.568507 
L 464.523998 50.057462 
L 464.775251 50.030743 
L 465.026504 50.255415 
L 465.403382 51.062055 
L 465.780261 52.42699 
L 466.282767 55.098453 
L 466.910898 59.757971 
L 467.664656 67.163684 
L 468.54404 78.040515 
L 469.674677 94.920606 
L 471.307818 123.014177 
L 474.197223 173.045829 
L 475.453486 190.704049 
L 476.33287 200.436567 
L 477.086628 206.725569 
L 477.71476 210.382113 
L 478.217265 212.217641 
L 478.594144 212.942785 
L 478.845396 213.112822 
L 479.096649 213.031419 
L 479.347902 212.698829 
L 479.72478 211.731419 
L 480.227286 209.578405 
L 480.855417 205.539378 
L 481.609175 198.822147 
L 482.488559 188.647301 
L 483.619196 172.469628 
L 485.126711 147.143915 
L 488.644248 86.51286 
L 489.774884 71.100103 
L 490.654268 61.668325 
L 491.408026 55.66824 
L 492.036158 52.268349 
L 492.538663 50.645004 
L 492.915542 50.081286 
L 493.166794 50.019338 
L 493.418047 50.208815 
L 493.794926 50.962967 
L 494.171805 52.276101 
L 494.67431 54.880184 
L 495.302441 59.459354 
L 496.056199 66.776366 
L 496.935583 77.563423 
L 498.06622 94.354891 
L 499.699362 122.383453 
L 502.588767 172.498304 
L 503.84503 190.265379 
L 504.85004 201.295675 
L 505.603798 207.343067 
L 506.231929 210.784908 
L 506.734434 212.442888 
L 507.111313 213.032928 
L 507.362566 213.11249 
L 507.613818 212.940614 
L 507.990697 212.212725 
L 508.367576 210.925521 
L 508.870081 208.355187 
L 509.498213 203.816294 
L 510.251971 196.543801 
L 511.131355 185.801876 
L 512.261991 169.055101 
L 513.895133 141.059679 
L 516.910165 88.957311 
L 518.040801 73.083266 
L 519.045812 61.997334 
L 519.799569 55.902726 
L 520.427701 52.418987 
L 520.930206 50.726398 
L 521.307085 50.110043 
L 521.558338 50.012868 
L 521.80959 50.16714 
L 522.186469 50.868757 
L 522.563348 52.13001 
L 523.065853 54.666557 
L 523.693985 59.165103 
L 524.447742 66.392969 
L 525.327126 77.0896 
L 526.457763 93.791427 
L 528.090905 121.753285 
L 531.105936 173.899839 
L 532.236573 189.823157 
L 533.241583 200.964558 
L 533.995341 207.10629 
L 534.623472 210.631873 
L 535.125978 212.359046 
L 535.502857 213.001707 
L 535.754109 213.116492 
L 536.005362 212.979827 
L 536.256614 212.592132 
L 536.633493 211.542737 
L 537.135998 209.282541 
L 537.76413 205.114815 
L 538.517888 198.254138 
L 539.397272 187.932073 
L 540.527908 171.605362 
L 542.035424 146.165587 
L 545.427334 87.576044 
L 546.557971 71.958936 
L 547.437355 62.330553 
L 548.191113 56.141791 
L 548.819244 52.574417 
L 549.321749 50.812686 
L 549.698628 50.143729 
L 549.949881 50.011335 
L 550.201133 50.130391 
L 550.452386 50.500532 
L 550.829265 51.523817 
L 551.33177 53.749894 
L 551.959902 57.876674 
L 552.713659 64.691749 
L 553.593043 74.967066 
L 554.72368 91.246547 
L 556.231196 116.650384 
L 559.748732 177.178948 
L 560.879369 192.480942 
L 561.758753 201.806692 
L 562.512511 207.705328 
L 563.140642 211.015357 
L 563.643147 212.56457 
L 564.020026 213.071977 
L 564.271279 213.096264 
L 564.522531 212.869163 
L 564.89941 212.058902 
L 565.276289 210.690393 
L 565.778794 208.014285 
L 566.406926 203.349232 
L 567.160684 195.937411 
L 568.040068 185.054408 
L 569.170704 168.168236 
L 570.803846 140.070241 
L 573.693251 90.044444 
L 574.949514 72.393778 
L 575.828898 62.667963 
L 576.582656 56.385421 
L 577.210787 52.734627 
L 577.713293 50.903862 
L 578.090171 50.182344 
L 578.341424 50.014738 
L 578.592677 50.098572 
L 578.843929 50.433588 
L 579.220808 51.404608 
L 579.723313 53.562344 
L 580.351445 57.607047 
L 581.105203 64.330609 
L 581.984587 74.511965 
L 583.115223 90.696246 
L 584.622739 116.027056 
L 588.140275 176.651619 
L 589.270912 192.057256 
L 590.150296 201.482207 
L 590.904054 207.475754 
L 591.532185 210.86985 
L 592.03469 212.488411 
L 592.411569 213.048493 
L 592.662822 213.10801 
L 592.914075 212.916102 
L 593.290953 212.158326 
L 593.667832 210.841614 
L 594.170338 208.232874 
L 594.798469 203.648148 
L 595.552227 196.324999 
L 596.431611 185.531724 
L 597.562248 168.734106 
L 599.195389 140.701001 
L 602.084794 90.591796 
L 602.461673 84.866772 
L 602.461673 84.866772 
" clip-path="url(#p83a91cd60a)" style="fill: none; stroke: #1f77b4; stroke-width: 1.5; stroke-linecap: square"/>
   </g>
   <g id="line2d_28">
    <path d="M 88.021984 131.563988 
L 88.775742 131.448812 
L 89.655126 131.072188 
L 90.53451 130.452805 
L 91.539521 129.483661 
L 92.795784 127.961224 
L 94.805805 125.119654 
L 97.192704 121.836817 
L 98.448967 120.46379 
L 99.453978 119.650474 
L 100.333362 119.186707 
L 101.212746 118.976768 
L 101.966503 119.007836 
L 102.720261 119.235378 
L 103.599645 119.743391 
L 104.604656 120.623755 
L 105.735292 121.949562 
L 107.117182 123.943843 
L 109.629708 128.068856 
L 111.639728 131.162097 
L 112.895991 132.719338 
L 113.901002 133.662093 
L 114.780386 134.228903 
L 115.65977 134.535005 
L 116.413528 134.582925 
L 117.167285 134.433024 
L 118.04667 134.016168 
L 118.926054 133.356478 
L 120.05669 132.196523 
L 121.43858 130.410465 
L 124.076732 126.500973 
L 125.8355 124.090086 
L 127.091763 122.718125 
L 128.096773 121.919288 
L 128.976157 121.475528 
L 129.855542 121.290027 
L 130.609299 121.343711 
L 131.488683 121.654183 
L 132.368067 122.221984 
L 133.373078 123.160665 
L 134.503715 124.533363 
L 136.01123 126.746168 
L 140.533777 133.673659 
L 141.664414 134.920788 
L 142.669424 135.72438 
L 143.548808 136.160871 
L 144.428192 136.332563 
L 145.18195 136.264972 
L 146.061334 135.939545 
L 146.940718 135.362024 
L 147.945728 134.423515 
L 149.201991 132.905189 
L 150.96076 130.357362 
L 154.101417 125.741777 
L 155.35768 124.288389 
L 156.36269 123.415728 
L 157.242074 122.902962 
L 158.121459 122.646128 
L 158.875216 122.63819 
L 159.628974 122.827387 
L 160.508358 123.290954 
L 161.513369 124.120145 
L 162.644005 125.386892 
L 164.025894 127.30544 
L 166.664047 131.477675 
L 168.548441 134.238004 
L 169.804704 135.706247 
L 170.809715 136.575978 
L 171.689099 137.078215 
L 172.568483 137.319724 
L 173.322241 137.312725 
L 174.075998 137.108734 
L 174.955382 136.630335 
L 175.960393 135.790505 
L 177.091029 134.523918 
L 178.598545 132.44285 
L 183.246718 125.690023 
L 184.377355 124.544278 
L 185.382365 123.832778 
L 186.261749 123.477515 
L 187.015507 123.38332 
L 187.769265 123.486705 
L 188.648649 123.853481 
L 189.528033 124.472486 
L 190.533043 125.45929 
L 191.789306 127.040376 
L 193.548074 129.682442 
L 196.814358 134.657038 
L 198.070621 136.157661 
L 199.075632 137.062675 
L 199.955016 137.600669 
L 200.8344 137.880682 
L 201.588157 137.907489 
L 202.341915 137.736807 
L 203.221299 137.295103 
L 204.100683 136.608809 
L 205.23132 135.410379 
L 206.613209 133.568259 
L 209.000109 129.904873 
L 211.01013 126.985169 
L 212.266393 125.51585 
L 213.271403 124.634228 
L 214.150787 124.115715 
L 215.030171 123.854466 
L 215.783929 123.843329 
L 216.537687 124.029439 
L 217.417071 124.48901 
L 218.422081 125.312372 
L 219.552718 126.569971 
L 220.934607 128.472258 
L 223.824012 132.981528 
L 225.58278 135.462183 
L 226.839043 136.850814 
L 227.844054 137.64748 
L 228.723438 138.081194 
L 229.602822 138.251949 
L 230.35658 138.184092 
L 231.235964 137.857899 
L 232.115348 137.27799 
L 233.120358 136.333353 
L 234.376621 134.800176 
L 236.009763 132.409189 
L 239.527299 127.143716 
L 240.783562 125.694099 
L 241.788573 124.833549 
L 242.667957 124.336257 
L 243.547341 124.097815 
L 244.301099 124.106711 
L 245.054856 124.312604 
L 245.934241 124.794077 
L 246.939251 125.639713 
L 248.069888 126.917282 
L 249.451777 128.8345 
L 254.602455 136.37248 
L 255.733092 137.460542 
L 256.738102 138.107383 
L 257.617486 138.399392 
L 258.371244 138.43698 
L 259.125002 138.276999 
L 260.004386 137.847 
L 260.88377 137.170838 
L 261.88878 136.129923 
L 263.145043 134.503542 
L 265.029438 131.651983 
L 267.66759 127.68185 
L 269.049479 126.013636 
L 270.05449 125.103572 
L 270.933874 124.558131 
L 271.813258 124.268828 
L 272.567016 124.23335 
L 273.320773 124.395383 
L 274.200158 124.827875 
L 275.079542 125.506822 
L 276.084552 126.551506 
L 277.340815 128.18381 
L 279.225209 131.047427 
L 281.988988 135.211078 
L 283.245251 136.725155 
L 284.375888 137.741897 
L 285.255272 138.262944 
L 286.134656 138.525863 
L 286.888414 138.538068 
L 287.642171 138.352985 
L 288.521555 137.89492 
L 289.526566 137.074191 
L 290.657202 135.82138 
L 292.039092 133.928482 
L 297.315396 126.274711 
L 298.446033 125.218258 
L 299.325417 124.661446 
L 300.204801 124.36015 
L 300.958559 124.314198 
L 301.712317 124.465848 
L 302.591701 124.886679 
L 303.471085 125.554818 
L 304.476095 126.588651 
L 305.732358 128.210296 
L 307.616753 131.065264 
L 310.380531 135.23346 
L 311.636794 136.755743 
L 312.767431 137.78237 
L 313.646815 138.31228 
L 314.526199 138.584678 
L 315.279957 138.605199 
L 316.033715 138.428335 
L 316.913099 137.9794 
L 317.792483 137.285698 
L 318.923119 136.077233 
L 320.305009 134.221701 
L 322.691908 130.531289 
L 324.701929 127.584794 
L 325.958192 126.097129 
L 326.963203 125.200189 
L 327.842587 124.667984 
L 328.721971 124.392939 
L 329.475728 124.370023 
L 330.229486 124.544508 
L 331.10887 124.99086 
L 331.988254 125.682369 
L 333.118891 126.888869 
L 334.50078 128.743725 
L 336.88768 132.438448 
L 338.897701 135.394203 
L 340.153964 136.889946 
L 341.158974 137.794325 
L 342.038358 138.333541 
L 342.917742 138.615872 
L 343.6715 138.645102 
L 344.425258 138.476858 
L 345.304642 138.037529 
L 346.184026 137.352581 
L 347.314663 136.15356 
L 348.696552 134.305962 
L 350.957825 130.81487 
L 353.093472 127.661735 
L 354.349735 126.163269 
L 355.354746 125.255638 
L 356.23413 124.713003 
L 357.113514 124.426916 
L 357.867272 124.394346 
L 358.62103 124.559276 
L 359.500414 124.994939 
L 360.379798 125.676623 
L 361.510434 126.872318 
L 362.892324 128.717604 
L 365.153597 132.209994 
L 367.289244 135.370445 
L 368.545507 136.875659 
L 369.676144 137.883096 
L 370.555528 138.3963 
L 371.434912 138.651079 
L 372.18867 138.656242 
L 372.942427 138.46421 
L 373.821812 137.998347 
L 374.826822 137.169379 
L 375.957459 135.908503 
L 377.339348 134.007955 
L 382.615652 126.351416 
L 383.746289 125.299169 
L 384.625673 124.746346 
L 385.505057 124.449437 
L 386.258815 124.407389 
L 387.012573 124.562924 
L 387.891957 124.988069 
L 388.771341 125.660077 
L 389.776351 126.697527 
L 391.032614 128.322113 
L 392.917009 131.17746 
L 395.680787 135.336702 
L 396.93705 136.851531 
L 398.067687 137.870081 
L 398.947071 138.393076 
L 399.826455 138.658238 
L 400.580213 138.672472 
L 401.333971 138.489397 
L 402.213355 138.033503 
L 403.218365 137.214828 
L 404.349002 135.963517 
L 405.730891 134.070921 
L 411.007196 126.399595 
L 412.137832 125.335995 
L 413.017216 124.773137 
L 413.8966 124.465543 
L 414.650358 124.414119 
L 415.404116 124.560347 
L 416.2835 124.97506 
L 417.162884 125.637463 
L 418.167895 126.665403 
L 419.424158 128.280962 
L 421.308552 131.130021 
L 424.072331 135.297114 
L 425.328594 136.821601 
L 426.45923 137.851322 
L 427.338614 138.384166 
L 428.217998 138.659785 
L 428.971756 138.683163 
L 429.725514 138.50913 
L 430.604898 138.063319 
L 431.484282 137.372387 
L 432.614919 136.166727 
L 433.996808 134.313101 
L 436.383708 130.621178 
L 438.393728 127.668481 
L 439.649991 126.17493 
L 440.655002 125.272422 
L 441.534386 124.734898 
L 442.41377 124.454286 
L 443.167528 124.426529 
L 443.921286 124.596228 
L 444.80067 125.037207 
L 445.680054 125.72373 
L 446.81069 126.924629 
L 448.19258 128.774237 
L 450.453853 132.26782 
L 452.5895 135.42236 
L 453.845763 136.921271 
L 454.850773 137.829093 
L 455.730158 138.371807 
L 456.609542 138.657917 
L 457.363299 138.690482 
L 458.117057 138.525545 
L 458.996441 138.089891 
L 459.875825 137.408264 
L 461.006462 136.212749 
L 462.388351 134.367906 
L 464.649625 130.876898 
L 466.785272 127.718546 
L 468.041535 126.214883 
L 469.046545 125.302218 
L 469.925929 124.754716 
L 470.805313 124.463498 
L 471.559071 124.426452 
L 472.312829 124.586948 
L 473.192213 125.017638 
L 474.071597 125.694721 
L 475.076607 126.737137 
L 476.33287 128.366305 
L 478.217265 131.224409 
L 480.855417 135.208926 
L 482.237306 136.886864 
L 483.367943 137.89863 
L 484.247327 138.4157 
L 485.126711 138.674604 
L 485.880469 138.68338 
L 486.634227 138.494914 
L 487.513611 138.033009 
L 488.518621 137.208094 
L 489.649258 135.950916 
L 491.031147 134.053287 
L 496.307452 126.388547 
L 497.438088 125.331043 
L 498.317472 124.773618 
L 499.196857 124.471835 
L 499.950614 124.42552 
L 500.704372 124.576823 
L 501.583756 124.99722 
L 502.46314 125.664842 
L 503.468151 126.69792 
L 504.724414 128.318284 
L 506.608808 131.170441 
L 509.372587 135.332395 
L 510.62885 136.851091 
L 511.759486 137.874193 
L 512.63887 138.401231 
L 513.518254 138.670699 
L 514.272012 138.688703 
L 515.02577 138.509355 
L 515.905154 138.05761 
L 516.784538 137.36124 
L 517.915175 136.149635 
L 519.297064 134.290818 
L 521.683964 130.596438 
L 523.693985 127.648338 
L 524.950248 126.160383 
L 525.955258 125.263523 
L 526.834642 124.731558 
L 527.714026 124.456858 
L 528.467784 124.434277 
L 529.221542 124.609098 
L 530.100926 125.055795 
L 530.98031 125.747548 
L 532.110947 126.954136 
L 533.492836 128.808636 
L 535.879735 132.501266 
L 537.889756 135.453736 
L 539.146019 136.946807 
L 540.15103 137.848786 
L 541.030414 138.385769 
L 541.909798 138.665795 
L 542.663556 138.693035 
L 543.417313 138.522823 
L 544.296697 138.081275 
L 545.176081 137.394239 
L 546.306718 136.192804 
L 547.688607 134.342785 
L 549.949881 130.849238 
L 552.085528 127.695577 
L 553.341791 126.197524 
L 554.346801 125.290527 
L 555.226185 124.748608 
L 556.105569 124.463335 
L 556.859327 124.4315 
L 557.613085 124.59716 
L 558.492469 125.033624 
L 559.371853 125.716001 
L 560.50249 126.912354 
L 561.884379 128.757967 
L 564.145652 132.249507 
L 566.281299 135.407494 
L 567.537562 136.910592 
L 568.542573 137.82266 
L 569.421957 138.369562 
L 570.301341 138.660134 
L 571.055099 138.696612 
L 571.808857 138.535552 
L 572.688241 138.104232 
L 573.567625 137.426577 
L 574.572635 136.383608 
L 575.828898 134.753945 
L 577.713293 131.895595 
L 580.351445 127.911819 
L 581.733334 126.234727 
L 582.863971 125.223832 
L 583.743355 124.707516 
L 584.622739 124.449406 
L 585.376497 124.441321 
L 586.130254 124.630469 
L 587.009639 125.093136 
L 588.014649 125.918843 
L 589.145286 127.176772 
L 590.527175 129.075058 
L 595.803479 136.739162 
L 596.934116 137.795959 
L 597.8135 138.35275 
L 598.692884 138.653854 
L 599.446642 138.699571 
L 600.2004 138.547675 
L 601.079784 138.126614 
L 601.959168 137.458383 
L 602.461673 136.97489 
L 602.461673 136.97489 
" clip-path="url(#p83a91cd60a)" style="fill: none; stroke: #ff7f0e; stroke-width: 1.5; stroke-linecap: square"/>
   </g>
   <g id="patch_3">
    <path d="M 62.3 221.272 
L 62.3 41.856 
" style="fill: none; stroke: #000000; stroke-width: 0.8; stroke-linejoin: miter; stroke-linecap: square"/>
   </g>
   <g id="patch_4">
    <path d="M 628.183658 221.272 
L 628.183658 41.856 
" style="fill: none; stroke: #000000; stroke-width: 0.8; stroke-linejoin: miter; stroke-linecap: square"/>
   </g>
   <g id="patch_5">
    <path d="M 62.3 221.272 
L 628.183658 221.272 
" style="fill: none; stroke: #000000; stroke-width: 0.8; stroke-linejoin: miter; stroke-linecap: square"/>
   </g>
   <g id="patch_6">
    <path d="M 62.3 41.856 
L 628.183658 41.856 
" style="fill: none; stroke: #000000; stroke-width: 0.8; stroke-linejoin: miter; stroke-linecap: square"/>
   </g>
   <g id="text_16">
    <!-- Daily Useless RL (2026-02-02) | verdict: feral -->
    <g transform="translate(210.347766 22.021875) scale(0.12 -0.12)">
     <defs>
      <path id="DejaVuSans-44" d="M 1259 4147 
L 1259 519 
L 2022 519 
Q 2988 519 3436 956 
Q 3884 1394 3884 2338 
Q 3884 3275 3436 3711 
Q 2988 4147 2022 4147 
L 1259 4147 
z
M 628 4666 
L 1925 4666 
Q 3281 4666 3915 4102 
Q 4550 3538 4550 2338 
Q 4550 1131 3912 565 
Q 3275 0 1925 0 
L 628 0 
L 628 4666 
z
" transform="scale(0.015625)"/>
      <path id="DejaVuSans-69" d="M 603 3500 
L 1178 3500 
L 1178 0 
L 603 0 
L 603 3500 
z
M 603 4863 
L 1178 4863 
L 1178 4134 
L 603 4134 
L 603 4863 
z
" transform="scale(0.015625)"/>
      <path id="DejaVuSans-6c" d="M 603 4863 
L 1178 4863 
L 1178 0 
L 603 0 
L 603 4863 
z
" transform="scale(0.015625)"/>
      <path id="DejaVuSans-79" d="M 2059 -325 
Q 1816 -950 1584 -1140 
Q 1353 -1331 966 -1331 
L 506 -1331 
L 506 -850 
L 844 -850 
Q 1081 -850 1212 -737 
Q 1344 -625 1503 -206 
L 1606 56 
L 191 3500 
L 800 3500 
L 1894 763 
L 2988 3500 
L 3597 3500 
L 2059 -325 
z
" transform="scale(0.015625)"/>
      <path id="DejaVuSans-55" d="M 556 4666 
L 1191 4666 
L 1191 1831 
Q 1191 1081 1462 751 
Q 1734 422 2344 422 
Q 2950 422 3222 751 
Q 3494 1081 3494 1831 
L 3494 4666 
L 4128 4666 
L 4128 1753 
Q 4128 841 3676 375 
Q 3225 -91 2344 -91 
Q 1459 -91 1007 375 
Q 556 841 556 1753 
L 556 4666 
z
" transform="scale(0.015625)"/>
      <path id="DejaVuSans-73" d="M 2834 3397 
L 2834 2853 
Q 2591 2978 2328 3040 
Q 2066 3103 1784 3103 
Q 1356 3103 1142 2972 
Q 928 2841 928 2578 
Q 928 2378 1081 2264 
Q 1234 2150 1697 2047 
L 1894 2003 
Q 2506 1872 2764 1633 
Q 3022 1394 3022 966 
Q 3022 478 2636 193 
Q 2250 -91 1575 -91 
Q 1294 -91 989 -36 
Q 684 19 347 128 
L 347 722 
Q 666 556 975 473 
Q 1284 391 1588 391 
Q 1994 391 2212 530 
Q 2431 669 2431 922 
Q 2431 1156 2273 1281 
Q 2116 1406 1581 1522 
L 1381 1569 
Q 847 1681 609 1914 
Q 372 2147 372 2553 
Q 372 3047 722 3315 
Q 1072 3584 1716 3584 
Q 2034 3584 2315 3537 
Q 2597 3491 2834 3397 
z
" transform="scale(0.015625)"/>
      <path id="DejaVuSans-65" d="M 3597 1894 
L 3597 1613 
L 953 1613 
Q 991 1019 1311 708 
Q 1631 397 2203 397 
Q 2534 397 2845 478 
Q 3156 559 3463 722 
L 3463 178 
Q 3153 47 2828 -22 
Q 2503 -91 2169 -91 
Q 1331 -91 842 396 
Q 353 884 353 1716 
Q 353 2575 817 3079 
Q 1281 3584 2069 3584 
Q 2775 3584 3186 3129 
Q 3597 2675 3597 1894 
z
M 3022 2063 
Q 3016 2534 2758 2815 
Q 2500 3097 2075 3097 
Q 1594 3097 1305 2825 
Q 1016 2553 972 2059 
L 3022 2063 
z
" transform="scale(0.015625)"/>
      <path id="DejaVuSans-52" d="M 2841 2188 
Q 3044 2119 3236 1894 
Q 3428 1669 3622 1275 
L 4263 0 
L 3584 0 
L 2988 1197 
Q 2756 1666 2539 1819 
Q 2322 1972 1947 1972 
L 1259 1972 
L 1259 0 
L 628 0 
L 628 4666 
L 2053 4666 
Q 2853 4666 3247 4331 
Q 3641 3997 3641 3322 
Q 3641 2881 3436 2590 
Q 3231 2300 2841 2188 
z
M 1259 4147 
L 1259 2491 
L 2053 2491 
Q 2509 2491 2742 2702 
Q 2975 2913 2975 3322 
Q 2975 3731 2742 3939 
Q 2509 4147 2053 4147 
L 1259 4147 
z
" transform="scale(0.015625)"/>
      <path id="DejaVuSans-4c" d="M 628 4666 
L 1259 4666 
L 1259 531 
L 3531 531 
L 3531 0 
L 628 0 
L 628 4666 
z
" transform="scale(0.015625)"/>
      <path id="DejaVuSans-28" d="M 1984 4856 
Q 1566 4138 1362 3434 
Q 1159 2731 1159 2009 
Q 1159 1288 1364 580 
Q 1569 -128 1984 -844 
L 1484 -844 
Q 1016 -109 783 600 
Q 550 1309 550 2009 
Q 550 2706 781 3412 
Q 1013 4119 1484 4856 
L 1984 4856 
z
" transform="scale(0.015625)"/>
      <path id="DejaVuSans-2d" d="M 313 2009 
L 1997 2009 
L 1997 1497 
L 313 1497 
L 313 2009 
z
" transform="scale(0.015625)"/>
      <path id="DejaVuSans-29" d="M 513 4856 
L 1013 4856 
Q 1481 4119 1714 3412 
Q 1947 2706 1947 2009 
Q 1947 1309 1714 600 
Q 1481 -109 1013 -844 
L 513 -844 
Q 928 -128 1133 580 
Q 1338 1288 1338 2009 
Q 1338 2731 1133 3434 
Q 928 4138 513 4856 
z
" transform="scale(0.015625)"/>
      <path id="DejaVuSans-7c" d="M 1344 4891 
L 1344 -1509 
L 813 -1509 
L 813 4891 
L 1344 4891 
z
" transform="scale(0.015625)"/>
      <path id="DejaVuSans-76" d="M 191 3500 
L 800 3500 
L 1894 563 
L 2988 3500 
L 3597 3500 
L 2284 0 
L 1503 0 
L 191 3500 
z
" transform="scale(0.015625)"/>
      <path id="DejaVuSans-64" d="M 2906 2969 
L 2906 4863 
L 3481 4863 
L 3481 0 
L 2906 0 
L 2906 525 
Q 2725 213 2448 61 
Q 2172 -91 1784 -91 
Q 1150 -91 751 415 
Q 353 922 353 1747 
Q 353 2572 751 3078 
Q 1150 3584 1784 3584 
Q 2172 3584 2448 3432 
Q 2725 3281 2906 2969 
z
M 947 1747 
Q 947 1113 1208 752 
Q 1469 391 1925 391 
Q 2381 391 2643 752 
Q 2906 1113 2906 1747 
Q 2906 2381 2643 2742 
Q 2381 3103 1925 3103 
Q 1469 3103 1208 2742 
Q 947 2381 947 1747 
z
" transform="scale(0.015625)"/>
      <path id="DejaVuSans-63" d="M 3122 3366 
L 3122 2828 
Q 2878 2963 2633 3030 
Q 2388 3097 2138 3097 
Q 1578 3097 1268 2742 
Q 959 2388 959 1747 
Q 959 1106 1268 751 
Q 1578 397 2138 397 
Q 2388 397 2633 464 
Q 2878 531 3122 666 
L 3122 134 
Q 2881 22 2623 -34 
Q 2366 -91 2075 -91 
Q 1284 -91 818 406 
Q 353 903 353 1747 
Q 353 2603 823 3093 
Q 1294 3584 2113 3584 
Q 2378 3584 2631 3529 
Q 2884 3475 3122 3366 
z
" transform="scale(0.015625)"/>
      <path id="DejaVuSans-3a" d="M 750 794 
L 1409 794 
L 1409 0 
L 750 0 
L 750 794 
z
M 750 3309 
L 1409 3309 
L 1409 2516 
L 750 2516 
L 750 3309 
z
" transform="scale(0.015625)"/>
      <path id="DejaVuSans-66" d="M 2375 4863 
L 2375 4384 
L 1825 4384 
Q 1516 4384 1395 4259 
Q 1275 4134 1275 3809 
L 1275 3500 
L 2222 3500 
L 2222 3053 
L 1275 3053 
L 1275 0 
L 697 0 
L 697 3053 
L 147 3053 
L 147 3500 
L 697 3500 
L 697 3744 
Q 697 4328 969 4595 
Q 1241 4863 1831 4863 
L 2375 4863 
z
" transform="scale(0.015625)"/>
     </defs>
     <use xlink:href="#DejaVuSans-44"/>
     <use xlink:href="#DejaVuSans-61" transform="translate(77.001953 0)"/>
     <use xlink:href="#DejaVuSans-69" transform="translate(138.28125 0)"/>
     <use xlink:href="#DejaVuSans-6c" transform="translate(166.064453 0)"/>
     <use xlink:href="#DejaVuSans-79" transform="translate(193.847656 0)"/>
     <use xlink:href="#DejaVuSans-20" transform="translate(253.027344 0)"/>
     <use xlink:href="#DejaVuSans-55" transform="translate(284.814453 0)"/>
     <use xlink:href="#DejaVuSans-73" transform="translate(358.007812 0)"/>
     <use xlink:href="#DejaVuSans-65" transform="translate(410.107422 0)"/>
     <use xlink:href="#DejaVuSans-6c" transform="translate(471.630859 0)"/>
     <use xlink:href="#DejaVuSans-65" transform="translate(499.414062 0)"/>
     <use xlink:href="#DejaVuSans-73" transform="translate(560.9375 0)"/>
     <use xlink:href="#DejaVuSans-73" transform="translate(613.037109 0)"/>
     <use xlink:href="#DejaVuSans-20" transform="translate(665.136719 0)"/>
     <use xlink:href="#DejaVuSans-52" transform="translate(696.923828 0)"/>
     <use xlink:href="#DejaVuSans-4c" transform="translate(766.40625 0)"/>
     <use xlink:href="#DejaVuSans-20" transform="translate(822.119141 0)"/>
     <use xlink:href="#DejaVuSans-28" transform="translate(853.90625 0)"/>
     <use xlink:href="#DejaVuSans-32" transform="translate(892.919922 0)"/>
     <use xlink:href="#DejaVuSans-30" transform="translate(956.542969 0)"/>
     <use xlink:href="#DejaVuSans-32" transform="translate(1020.166016 0)"/>
     <use xlink:href="#DejaVuSans-36" transform="translate(1083.789062 0)"/>
     <use xlink:href="#DejaVuSans-2d" transform="translate(1147.412109 0)"/>
     <use xlink:href="#DejaVuSans-30" transform="translate(1183.496094 0)"/>
     <use xlink:href="#DejaVuSans-32" transform="translate(1247.119141 0)"/>
     <use xlink:href="#DejaVuSans-2d" transform="translate(1310.742188 0)"/>
     <use xlink:href="#DejaVuSans-30" transform="translate(1346.826172 0)"/>
     <use xlink:href="#DejaVuSans-32" transform="translate(1410.449219 0)"/>
     <use xlink:href="#DejaVuSans-29" transform="translate(1474.072266 0)"/>
     <use xlink:href="#DejaVuSans-20" transform="translate(1513.085938 0)"/>
     <use xlink:href="#DejaVuSans-7c" transform="translate(1544.873047 0)"/>
     <use xlink:href="#DejaVuSans-20" transform="translate(1578.564453 0)"/>
     <use xlink:href="#DejaVuSans-76" transform="translate(1610.351562 0)"/>
     <use xlink:href="#DejaVuSans-65" transform="translate(1669.53125 0)"/>
     <use xlink:href="#DejaVuSans-72" transform="translate(1731.054688 0)"/>
     <use xlink:href="#DejaVuSans-64" transform="translate(1770.417969 0)"/>
     <use xlink:href="#DejaVuSans-69" transform="translate(1833.894531 0)"/>
     <use xlink:href="#DejaVuSans-63" transform="translate(1861.677734 0)"/>
     <use xlink:href="#DejaVuSans-74" transform="translate(1916.658203 0)"/>
     <use xlink:href="#DejaVuSans-3a" transform="translate(1955.867188 0)"/>
     <use xlink:href="#DejaVuSans-20" transform="translate(1989.558594 0)"/>
     <use xlink:href="#DejaVuSans-66" transform="translate(2021.345703 0)"/>
     <use xlink:href="#DejaVuSans-65" transform="translate(2056.550781 0)"/>
     <use xlink:href="#DejaVuSans-72" transform="translate(2118.074219 0)"/>
     <use xlink:href="#DejaVuSans-61" transform="translate(2159.1875 0)"/>
     <use xlink:href="#DejaVuSans-6c" transform="translate(2220.466797 0)"/>
    </g>
    <!-- Filter: low | Input: sine, sine (A=0.87, f=1.81 Hz) | R=5.00, L=5.00, τ=1.00 -->
    <g transform="translate(119.916516 35.856) scale(0.12 -0.12)">
     <defs>
      <path id="DejaVuSans-46" d="M 628 4666 
L 3309 4666 
L 3309 4134 
L 1259 4134 
L 1259 2759 
L 3109 2759 
L 3109 2228 
L 1259 2228 
L 1259 0 
L 628 0 
L 628 4666 
z
" transform="scale(0.015625)"/>
      <path id="DejaVuSans-6f" d="M 1959 3097 
Q 1497 3097 1228 2736 
Q 959 2375 959 1747 
Q 959 1119 1226 758 
Q 1494 397 1959 397 
Q 2419 397 2687 759 
Q 2956 1122 2956 1747 
Q 2956 2369 2687 2733 
Q 2419 3097 1959 3097 
z
M 1959 3584 
Q 2709 3584 3137 3096 
Q 3566 2609 3566 1747 
Q 3566 888 3137 398 
Q 2709 -91 1959 -91 
Q 1206 -91 779 398 
Q 353 888 353 1747 
Q 353 2609 779 3096 
Q 1206 3584 1959 3584 
z
" transform="scale(0.015625)"/>
      <path id="DejaVuSans-77" d="M 269 3500 
L 844 3500 
L 1563 769 
L 2278 3500 
L 2956 3500 
L 3675 769 
L 4391 3500 
L 4966 3500 
L 4050 0 
L 3372 0 
L 2619 2869 
L 1863 0 
L 1184 0 
L 269 3500 
z
" transform="scale(0.015625)"/>
      <path id="DejaVuSans-49" d="M 628 4666 
L 1259 4666 
L 1259 0 
L 628 0 
L 628 4666 
z
" transform="scale(0.015625)"/>
      <path id="DejaVuSans-6e" d="M 3513 2113 
L 3513 0 
L 2938 0 
L 2938 2094 
Q 2938 2591 2744 2837 
Q 2550 3084 2163 3084 
Q 1697 3084 1428 2787 
Q 1159 2491 1159 1978 
L 1159 0 
L 581 0 
L 581 3500 
L 1159 3500 
L 1159 2956 
Q 1366 3272 1645 3428 
Q 1925 3584 2291 3584 
Q 2894 3584 3203 3211 
Q 3513 2838 3513 2113 
z
" transform="scale(0.015625)"/>
      <path id="DejaVuSans-70" d="M 1159 525 
L 1159 -1331 
L 581 -1331 
L 581 3500 
L 1159 3500 
L 1159 2969 
Q 1341 3281 1617 3432 
Q 1894 3584 2278 3584 
Q 2916 3584 3314 3078 
Q 3713 2572 3713 1747 
Q 3713 922 3314 415 
Q 2916 -91 2278 -91 
Q 1894 -91 1617 61 
Q 1341 213 1159 525 
z
M 3116 1747 
Q 3116 2381 2855 2742 
Q 2594 3103 2138 3103 
Q 1681 3103 1420 2742 
Q 1159 2381 1159 1747 
Q 1159 1113 1420 752 
Q 1681 391 2138 391 
Q 2594 391 2855 752 
Q 3116 1113 3116 1747 
z
" transform="scale(0.015625)"/>
      <path id="DejaVuSans-75" d="M 544 1381 
L 544 3500 
L 1119 3500 
L 1119 1403 
Q 1119 906 1312 657 
Q 1506 409 1894 409 
Q 2359 409 2629 706 
Q 2900 1003 2900 1516 
L 2900 3500 
L 3475 3500 
L 3475 0 
L 2900 0 
L 2900 538 
Q 2691 219 2414 64 
Q 2138 -91 1772 -91 
Q 1169 -91 856 284 
Q 544 659 544 1381 
z
M 1991 3584 
L 1991 3584 
z
" transform="scale(0.015625)"/>
      <path id="DejaVuSans-2c" d="M 750 794 
L 1409 794 
L 1409 256 
L 897 -744 
L 494 -744 
L 750 256 
L 750 794 
z
" transform="scale(0.015625)"/>
      <path id="DejaVuSans-41" d="M 2188 4044 
L 1331 1722 
L 3047 1722 
L 2188 4044 
z
M 1831 4666 
L 2547 4666 
L 4325 0 
L 3669 0 
L 3244 1197 
L 1141 1197 
L 716 0 
L 50 0 
L 1831 4666 
z
" transform="scale(0.015625)"/>
      <path id="DejaVuSans-3d" d="M 678 2906 
L 4684 2906 
L 4684 2381 
L 678 2381 
L 678 2906 
z
M 678 1631 
L 4684 1631 
L 4684 1100 
L 678 1100 
L 678 1631 
z
" transform="scale(0.015625)"/>
      <path id="DejaVuSans-48" d="M 628 4666 
L 1259 4666 
L 1259 2753 
L 3553 2753 
L 3553 4666 
L 4184 4666 
L 4184 0 
L 3553 0 
L 3553 2222 
L 1259 2222 
L 1259 0 
L 628 0 
L 628 4666 
z
" transform="scale(0.015625)"/>
      <path id="DejaVuSans-7a" d="M 353 3500 
L 3084 3500 
L 3084 2975 
L 922 459 
L 3084 459 
L 3084 0 
L 275 0 
L 275 525 
L 2438 3041 
L 353 3041 
L 353 3500 
z
" transform="scale(0.015625)"/>
      <path id="DejaVuSans-3c4" d="M 2319 638 
Q 2431 488 2769 488 
L 3047 488 
L 3047 0 
L 2700 0 
Q 2138 0 1881 300 
Q 1625 606 1625 1269 
L 1625 2925 
L 313 2925 
L 313 3500 
L 3541 3500 
L 3541 2925 
L 2213 2925 
L 2213 1234 
Q 2213 781 2319 638 
z
" transform="scale(0.015625)"/>
     </defs>
     <use xlink:href="#DejaVuSans-46"/>
     <use xlink:href="#DejaVuSans-69" transform="translate(50.269531 0)"/>
     <use xlink:href="#DejaVuSans-6c" transform="translate(78.052734 0)"/>
     <use xlink:href="#DejaVuSans-74" transform="translate(105.835938 0)"/>
     <use xlink:href="#DejaVuSans-65" transform="translate(145.044922 0)"/>
     <use xlink:href="#DejaVuSans-72" transform="translate(206.568359 0)"/>
     <use xlink:href="#DejaVuSans-3a" transform="translate(245.931641 0)"/>
     <use xlink:href="#DejaVuSans-20" transform="translate(279.623047 0)"/>
     <use xlink:href="#DejaVuSans-6c" transform="translate(311.410156 0)"/>
     <use xlink:href="#DejaVuSans-6f" transform="translate(339.193359 0)"/>
     <use xlink:href="#DejaVuSans-77" transform="translate(400.375 0)"/>
     <use xlink:href="#DejaVuSans-20" transform="translate(482.162109 0)"/>
     <use xlink:href="#DejaVuSans-7c" transform="translate(513.949219 0)"/>
     <use xlink:href="#DejaVuSans-20" transform="translate(547.640625 0)"/>
     <use xlink:href="#DejaVuSans-49" transform="translate(579.427734 0)"/>
     <use xlink:href="#DejaVuSans-6e" transform="translate(608.919922 0)"/>
     <use xlink:href="#DejaVuSans-70" transform="translate(672.298828 0)"/>
     <use xlink:href="#DejaVuSans-75" transform="translate(735.775391 0)"/>
     <use xlink:href="#DejaVuSans-74" transform="translate(799.154297 0)"/>
     <use xlink:href="#DejaVuSans-3a" transform="translate(838.363281 0)"/>
     <use xlink:href="#DejaVuSans-20" transform="translate(872.054688 0)"/>
     <use xlink:href="#DejaVuSans-73" transform="translate(903.841797 0)"/>
     <use xlink:href="#DejaVuSans-69" transform="translate(955.941406 0)"/>
     <use xlink:href="#DejaVuSans-6e" transform="translate(983.724609 0)"/>
     <use xlink:href="#DejaVuSans-65" transform="translate(1047.103516 0)"/>
     <use xlink:href="#DejaVuSans-2c" transform="translate(1108.626953 0)"/>
     <use xlink:href="#DejaVuSans-20" transform="translate(1140.414062 0)"/>
     <use xlink:href="#DejaVuSans-73" transform="translate(1172.201172 0)"/>
     <use xlink:href="#DejaVuSans-69" transform="translate(1224.300781 0)"/>
     <use xlink:href="#DejaVuSans-6e" transform="translate(1252.083984 0)"/>
     <use xlink:href="#DejaVuSans-65" transform="translate(1315.462891 0)"/>
     <use xlink:href="#DejaVuSans-20" transform="translate(1376.986328 0)"/>
     <use xlink:href="#DejaVuSans-28" transform="translate(1408.773438 0)"/>
     <use xlink:href="#DejaVuSans-41" transform="translate(1447.787109 0)"/>
     <use xlink:href="#DejaVuSans-3d" transform="translate(1516.195312 0)"/>
     <use xlink:href="#DejaVuSans-30" transform="translate(1599.984375 0)"/>
     <use xlink:href="#DejaVuSans-2e" transform="translate(1663.607422 0)"/>
     <use xlink:href="#DejaVuSans-38" transform="translate(1695.394531 0)"/>
     <use xlink:href="#DejaVuSans-37" transform="translate(1759.017578 0)"/>
     <use xlink:href="#DejaVuSans-2c" transform="translate(1822.640625 0)"/>
     <use xlink:href="#DejaVuSans-20" transform="translate(1854.427734 0)"/>
     <use xlink:href="#DejaVuSans-66" transform="translate(1886.214844 0)"/>
     <use xlink:href="#DejaVuSans-3d" transform="translate(1921.419922 0)"/>
     <use xlink:href="#DejaVuSans-31" transform="translate(2005.208984 0)"/>
     <use xlink:href="#DejaVuSans-2e" transform="translate(2068.832031 0)"/>
     <use xlink:href="#DejaVuSans-38" transform="translate(2100.619141 0)"/>
     <use xlink:href="#DejaVuSans-31" transform="translate(2164.242188 0)"/>
     <use xlink:href="#DejaVuSans-20" transform="translate(2227.865234 0)"/>
     <use xlink:href="#DejaVuSans-48" transform="translate(2259.652344 0)"/>
     <use xlink:href="#DejaVuSans-7a" transform="translate(2334.847656 0)"/>
     <use xlink:href="#DejaVuSans-29" transform="translate(2387.337891 0)"/>
     <use xlink:href="#DejaVuSans-20" transform="translate(2426.351562 0)"/>
     <use xlink:href="#DejaVuSans-7c" transform="translate(2458.138672 0)"/>
     <use xlink:href="#DejaVuSans-20" transform="translate(2491.830078 0)"/>
     <use xlink:href="#DejaVuSans-52" transform="translate(2523.617188 0)"/>
     <use xlink:href="#DejaVuSans-3d" transform="translate(2593.099609 0)"/>
     <use xlink:href="#DejaVuSans-35" transform="translate(2676.888672 0)"/>
     <use xlink:href="#DejaVuSans-2e" transform="translate(2740.511719 0)"/>
     <use xlink:href="#DejaVuSans-30" transform="translate(2772.298828 0)"/>
     <use xlink:href="#DejaVuSans-30" transform="translate(2835.921875 0)"/>
     <use xlink:href="#DejaVuSans-2c" transform="translate(2899.544922 0)"/>
     <use xlink:href="#DejaVuSans-20" transform="translate(2931.332031 0)"/>
     <use xlink:href="#DejaVuSans-4c" transform="translate(2963.119141 0)"/>
     <use xlink:href="#DejaVuSans-3d" transform="translate(3018.832031 0)"/>
     <use xlink:href="#DejaVuSans-35" transform="translate(3102.621094 0)"/>
     <use xlink:href="#DejaVuSans-2e" transform="translate(3166.244141 0)"/>
     <use xlink:href="#DejaVuSans-30" transform="translate(3198.03125 0)"/>
     <use xlink:href="#DejaVuSans-30" transform="translate(3261.654297 0)"/>
     <use xlink:href="#DejaVuSans-2c" transform="translate(3325.277344 0)"/>
     <use xlink:href="#DejaVuSans-20" transform="translate(3357.064453 0)"/>
     <use xlink:href="#DejaVuSans-3c4" transform="translate(3388.851562 0)"/>
     <use xlink:href="#DejaVuSans-3d" transform="translate(3449.056641 0)"/>
     <use xlink:href="#DejaVuSans-31" transform="translate(3532.845703 0)"/>
     <use xlink:href="#DejaVuSans-2e" transform="translate(3596.46875 0)"/>
     <use xlink:href="#DejaVuSans-30" transform="translate(3628.255859 0)"/>
     <use xlink:href="#DejaVuSans-30" transform="translate(3691.878906 0)"/>
    </g>
   </g>
   <g id="legend_1">
    <g id="patch_7">
     <path d="M 556.200845 79.21225 
L 621.183658 79.21225 
Q 623.183658 79.21225 623.183658 77.21225 
L 623.183658 48.856 
Q 623.183658 46.856 621.183658 46.856 
L 556.200845 46.856 
Q 554.200845 46.856 554.200845 48.856 
L 554.200845 77.21225 
Q 554.200845 79.21225 556.200845 79.21225 
z
" style="fill: #ffffff; opacity: 0.8; stroke: #cccccc; stroke-linejoin: miter"/>
    </g>
    <g id="line2d_29">
     <path d="M 558.200845 54.954437 
L 568.200845 54.954437 
L 578.200845 54.954437 
" style="fill: none; stroke: #1f77b4; stroke-width: 1.5; stroke-linecap: square"/>
    </g>
    <g id="text_17">
     <!-- input -->
     <g transform="translate(586.200845 58.454437) scale(0.1 -0.1)">
      <use xlink:href="#DejaVuSans-69"/>
      <use xlink:href="#DejaVuSans-6e" transform="translate(27.783203 0)"/>
      <use xlink:href="#DejaVuSans-70" transform="translate(91.162109 0)"/>
      <use xlink:href="#DejaVuSans-75" transform="translate(154.638672 0)"/>
      <use xlink:href="#DejaVuSans-74" transform="translate(218.017578 0)"/>
     </g>
    </g>
    <g id="line2d_30">
     <path d="M 558.200845 69.632562 
L 568.200845 69.632562 
L 578.200845 69.632562 
" style="fill: none; stroke: #ff7f0e; stroke-width: 1.5; stroke-linecap: square"/>
    </g>
    <g id="text_18">
     <!-- output -->
     <g transform="translate(586.200845 73.132562) scale(0.1 -0.1)">
      <use xlink:href="#DejaVuSans-6f"/>
      <use xlink:href="#DejaVuSans-75" transform="translate(61.181641 0)"/>
      <use xlink:href="#DejaVuSans-74" transform="translate(124.560547 0)"/>
      <use xlink:href="#DejaVuSans-70" transform="translate(163.769531 0)"/>
      <use xlink:href="#DejaVuSans-75" transform="translate(227.246094 0)"/>
      <use xlink:href="#DejaVuSans-74" transform="translate(290.625 0)"/>
     </g>
    </g>
   </g>
  </g>
  <g id="axes_2">
   <g id="patch_8">
    <path d="M 62.3 458.728 
L 628.183658 458.728 
L 628.183658 279.312 
L 62.3 279.312 
z
" style="fill: #ffffff"/>
   </g>
   <g id="matplotlib.axis_3">
    <g id="xtick_7">
     <g id="line2d_31">
      <path d="M 62.3 458.728 
L 62.3 279.312 
" clip-path="url(#p6ddf275f02)" style="fill: none; stroke: #b0b0b0; stroke-opacity: 0.25; stroke-width: 0.8; stroke-linecap: square"/>
     </g>
     <g id="line2d_32">
      <g>
       <use xlink:href="#me98930d365" x="62.3" y="458.728" style="stroke: #000000; stroke-width: 0.8"/>
      </g>
     </g>
     <g id="text_19">
      <!-- $\mathdefault{10^{-1}}$ -->
      <g transform="translate(50.55 473.326438) scale(0.1 -0.1)">
       <use xlink:href="#DejaVuSans-31" transform="translate(0 0.684375)"/>
       <use xlink:href="#DejaVuSans-30" transform="translate(63.623047 0.684375)"/>
       <use xlink:href="#DejaVuSans-2212" transform="translate(128.203125 38.965625) scale(0.7)"/>
       <use xlink:href="#DejaVuSans-31" transform="translate(186.855469 38.965625) scale(0.7)"/>
      </g>
     </g>
    </g>
    <g id="xtick_8">
     <g id="line2d_33">
      <path d="M 345.241829 458.728 
L 345.241829 279.312 
" clip-path="url(#p6ddf275f02)" style="fill: none; stroke: #b0b0b0; stroke-opacity: 0.25; stroke-width: 0.8; stroke-linecap: square"/>
     </g>
     <g id="line2d_34">
      <g>
       <use xlink:href="#me98930d365" x="345.241829" y="458.728" style="stroke: #000000; stroke-width: 0.8"/>
      </g>
     </g>
     <g id="text_20">
      <!-- $\mathdefault{10^{0}}$ -->
      <g transform="translate(336.441829 473.326438) scale(0.1 -0.1)">
       <use xlink:href="#DejaVuSans-31" transform="translate(0 0.765625)"/>
       <use xlink:href="#DejaVuSans-30" transform="translate(63.623047 0.765625)"/>
       <use xlink:href="#DejaVuSans-30" transform="translate(128.203125 39.046875) scale(0.7)"/>
      </g>
     </g>
    </g>
    <g id="xtick_9">
     <g id="line2d_35">
      <path d="M 628.183658 458.728 
L 628.183658 279.312 
" clip-path="url(#p6ddf275f02)" style="fill: none; stroke: #b0b0b0; stroke-opacity: 0.25; stroke-width: 0.8; stroke-linecap: square"/>
     </g>
     <g id="line2d_36">
      <g>
       <use xlink:href="#me98930d365" x="628.183658" y="458.728" style="stroke: #000000; stroke-width: 0.8"/>
      </g>
     </g>
     <g id="text_21">
      <!-- $\mathdefault{10^{1}}$ -->
      <g transform="translate(619.383658 473.326438) scale(0.1 -0.1)">
       <use xlink:href="#DejaVuSans-31" transform="translate(0 0.684375)"/>
       <use xlink:href="#DejaVuSans-30" transform="translate(63.623047 0.684375)"/>
       <use xlink:href="#DejaVuSans-31" transform="translate(128.203125 38.965625) scale(0.7)"/>
      </g>
     </g>
    </g>
    <g id="xtick_10">
     <g id="line2d_37">
      <defs>
       <path id="mabf445d4b2" d="M 0 0 
L 0 2 
" style="stroke: #000000; stroke-width: 0.6"/>
      </defs>
      <g>
       <use xlink:href="#mabf445d4b2" x="147.473977" y="458.728" style="stroke: #000000; stroke-width: 0.6"/>
      </g>
     </g>
    </g>
    <g id="xtick_11">
     <g id="line2d_38">
      <g>
       <use xlink:href="#mabf445d4b2" x="197.29756" y="458.728" style="stroke: #000000; stroke-width: 0.6"/>
      </g>
     </g>
    </g>
    <g id="xtick_12">
     <g id="line2d_39">
      <g>
       <use xlink:href="#mabf445d4b2" x="232.647955" y="458.728" style="stroke: #000000; stroke-width: 0.6"/>
      </g>
     </g>
    </g>
    <g id="xtick_13">
     <g id="line2d_40">
      <g>
       <use xlink:href="#mabf445d4b2" x="260.067851" y="458.728" style="stroke: #000000; stroke-width: 0.6"/>
      </g>
     </g>
    </g>
    <g id="xtick_14">
     <g id="line2d_41">
      <g>
       <use xlink:href="#mabf445d4b2" x="282.471538" y="458.728" style="stroke: #000000; stroke-width: 0.6"/>
      </g>
     </g>
    </g>
    <g id="xtick_15">
     <g id="line2d_42">
      <g>
       <use xlink:href="#mabf445d4b2" x="301.413585" y="458.728" style="stroke: #000000; stroke-width: 0.6"/>
      </g>
     </g>
    </g>
    <g id="xtick_16">
     <g id="line2d_43">
      <g>
       <use xlink:href="#mabf445d4b2" x="317.821932" y="458.728" style="stroke: #000000; stroke-width: 0.6"/>
      </g>
     </g>
    </g>
    <g id="xtick_17">
     <g id="line2d_44">
      <g>
       <use xlink:href="#mabf445d4b2" x="332.295121" y="458.728" style="stroke: #000000; stroke-width: 0.6"/>
      </g>
     </g>
    </g>
    <g id="xtick_18">
     <g id="line2d_45">
      <g>
       <use xlink:href="#mabf445d4b2" x="430.415806" y="458.728" style="stroke: #000000; stroke-width: 0.6"/>
      </g>
     </g>
    </g>
    <g id="xtick_19">
     <g id="line2d_46">
      <g>
       <use xlink:href="#mabf445d4b2" x="480.239389" y="458.728" style="stroke: #000000; stroke-width: 0.6"/>
      </g>
     </g>
    </g>
    <g id="xtick_20">
     <g id="line2d_47">
      <g>
       <use xlink:href="#mabf445d4b2" x="515.589784" y="458.728" style="stroke: #000000; stroke-width: 0.6"/>
      </g>
     </g>
    </g>
    <g id="xtick_21">
     <g id="line2d_48">
      <g>
       <use xlink:href="#mabf445d4b2" x="543.00968" y="458.728" style="stroke: #000000; stroke-width: 0.6"/>
      </g>
     </g>
    </g>
    <g id="xtick_22">
     <g id="line2d_49">
      <g>
       <use xlink:href="#mabf445d4b2" x="565.413367" y="458.728" style="stroke: #000000; stroke-width: 0.6"/>
      </g>
     </g>
    </g>
    <g id="xtick_23">
     <g id="line2d_50">
      <g>
       <use xlink:href="#mabf445d4b2" x="584.355414" y="458.728" style="stroke: #000000; stroke-width: 0.6"/>
      </g>
     </g>
    </g>
    <g id="xtick_24">
     <g id="line2d_51">
      <g>
       <use xlink:href="#mabf445d4b2" x="600.763761" y="458.728" style="stroke: #000000; stroke-width: 0.6"/>
      </g>
     </g>
    </g>
    <g id="xtick_25">
     <g id="line2d_52">
      <g>
       <use xlink:href="#mabf445d4b2" x="615.23695" y="458.728" style="stroke: #000000; stroke-width: 0.6"/>
      </g>
     </g>
    </g>
    <g id="text_22">
     <!-- frequency [arb.] -->
     <g transform="translate(304.791829 487.004563) scale(0.1 -0.1)">
      <defs>
       <path id="DejaVuSans-71" d="M 947 1747 
Q 947 1113 1208 752 
Q 1469 391 1925 391 
Q 2381 391 2643 752 
Q 2906 1113 2906 1747 
Q 2906 2381 2643 2742 
Q 2381 3103 1925 3103 
Q 1469 3103 1208 2742 
Q 947 2381 947 1747 
z
M 2906 525 
Q 2725 213 2448 61 
Q 2172 -91 1784 -91 
Q 1150 -91 751 415 
Q 353 922 353 1747 
Q 353 2572 751 3078 
Q 1150 3584 1784 3584 
Q 2172 3584 2448 3432 
Q 2725 3281 2906 2969 
L 2906 3500 
L 3481 3500 
L 3481 -1331 
L 2906 -1331 
L 2906 525 
z
" transform="scale(0.015625)"/>
      </defs>
      <use xlink:href="#DejaVuSans-66"/>
      <use xlink:href="#DejaVuSans-72" transform="translate(35.205078 0)"/>
      <use xlink:href="#DejaVuSans-65" transform="translate(74.068359 0)"/>
      <use xlink:href="#DejaVuSans-71" transform="translate(135.591797 0)"/>
      <use xlink:href="#DejaVuSans-75" transform="translate(199.068359 0)"/>
      <use xlink:href="#DejaVuSans-65" transform="translate(262.447266 0)"/>
      <use xlink:href="#DejaVuSans-6e" transform="translate(323.970703 0)"/>
      <use xlink:href="#DejaVuSans-63" transform="translate(387.349609 0)"/>
      <use xlink:href="#DejaVuSans-79" transform="translate(442.330078 0)"/>
      <use xlink:href="#DejaVuSans-20" transform="translate(501.509766 0)"/>
      <use xlink:href="#DejaVuSans-5b" transform="translate(533.296875 0)"/>
      <use xlink:href="#DejaVuSans-61" transform="translate(572.310547 0)"/>
      <use xlink:href="#DejaVuSans-72" transform="translate(633.589844 0)"/>
      <use xlink:href="#DejaVuSans-62" transform="translate(674.703125 0)"/>
      <use xlink:href="#DejaVuSans-2e" transform="translate(738.179688 0)"/>
      <use xlink:href="#DejaVuSans-5d" transform="translate(769.966797 0)"/>
     </g>
    </g>
   </g>
   <g id="matplotlib.axis_4">
    <g id="ytick_8">
     <g id="line2d_53">
      <path d="M 62.3 438.161572 
L 628.183658 438.161572 
" clip-path="url(#p6ddf275f02)" style="fill: none; stroke: #b0b0b0; stroke-opacity: 0.25; stroke-width: 0.8; stroke-linecap: square"/>
     </g>
     <g id="line2d_54">
      <g>
       <use xlink:href="#m48826657b5" x="62.3" y="438.161572" style="stroke: #000000; stroke-width: 0.8"/>
      </g>
     </g>
     <g id="text_23">
      <!-- $\mathdefault{10^{-9}}$ -->
      <g transform="translate(31.8 441.960791) scale(0.1 -0.1)">
       <defs>
        <path id="DejaVuSans-39" d="M 703 97 
L 703 672 
Q 941 559 1184 500 
Q 1428 441 1663 441 
Q 2288 441 2617 861 
Q 2947 1281 2994 2138 
Q 2813 1869 2534 1725 
Q 2256 1581 1919 1581 
Q 1219 1581 811 2004 
Q 403 2428 403 3163 
Q 403 3881 828 4315 
Q 1253 4750 1959 4750 
Q 2769 4750 3195 4129 
Q 3622 3509 3622 2328 
Q 3622 1225 3098 567 
Q 2575 -91 1691 -91 
Q 1453 -91 1209 -44 
Q 966 3 703 97 
z
M 1959 2075 
Q 2384 2075 2632 2365 
Q 2881 2656 2881 3163 
Q 2881 3666 2632 3958 
Q 2384 4250 1959 4250 
Q 1534 4250 1286 3958 
Q 1038 3666 1038 3163 
Q 1038 2656 1286 2365 
Q 1534 2075 1959 2075 
z
" transform="scale(0.015625)"/>
       </defs>
       <use xlink:href="#DejaVuSans-31" transform="translate(0 0.765625)"/>
       <use xlink:href="#DejaVuSans-30" transform="translate(63.623047 0.765625)"/>
       <use xlink:href="#DejaVuSans-2212" transform="translate(128.203125 39.046875) scale(0.7)"/>
       <use xlink:href="#DejaVuSans-39" transform="translate(186.855469 39.046875) scale(0.7)"/>
      </g>
     </g>
    </g>
    <g id="ytick_9">
     <g id="line2d_55">
      <path d="M 62.3 412.933675 
L 628.183658 412.933675 
" clip-path="url(#p6ddf275f02)" style="fill: none; stroke: #b0b0b0; stroke-opacity: 0.25; stroke-width: 0.8; stroke-linecap: square"/>
     </g>
     <g id="line2d_56">
      <g>
       <use xlink:href="#m48826657b5" x="62.3" y="412.933675" style="stroke: #000000; stroke-width: 0.8"/>
      </g>
     </g>
     <g id="text_24">
      <!-- $\mathdefault{10^{-7}}$ -->
      <g transform="translate(31.8 416.732894) scale(0.1 -0.1)">
       <use xlink:href="#DejaVuSans-31" transform="translate(0 0.684375)"/>
       <use xlink:href="#DejaVuSans-30" transform="translate(63.623047 0.684375)"/>
       <use xlink:href="#DejaVuSans-2212" transform="translate(128.203125 38.965625) scale(0.7)"/>
       <use xlink:href="#DejaVuSans-37" transform="translate(186.855469 38.965625) scale(0.7)"/>
      </g>
     </g>
    </g>
    <g id="ytick_10">
     <g id="line2d_57">
      <path d="M 62.3 387.705778 
L 628.183658 387.705778 
" clip-path="url(#p6ddf275f02)" style="fill: none; stroke: #b0b0b0; stroke-opacity: 0.25; stroke-width: 0.8; stroke-linecap: square"/>
     </g>
     <g id="line2d_58">
      <g>
       <use xlink:href="#m48826657b5" x="62.3" y="387.705778" style="stroke: #000000; stroke-width: 0.8"/>
      </g>
     </g>
     <g id="text_25">
      <!-- $\mathdefault{10^{-5}}$ -->
      <g transform="translate(31.8 391.504997) scale(0.1 -0.1)">
       <use xlink:href="#DejaVuSans-31" transform="translate(0 0.684375)"/>
       <use xlink:href="#DejaVuSans-30" transform="translate(63.623047 0.684375)"/>
       <use xlink:href="#DejaVuSans-2212" transform="translate(128.203125 38.965625) scale(0.7)"/>
       <use xlink:href="#DejaVuSans-35" transform="translate(186.855469 38.965625) scale(0.7)"/>
      </g>
     </g>
    </g>
    <g id="ytick_11">
     <g id="line2d_59">
      <path d="M 62.3 362.477881 
L 628.183658 362.477881 
" clip-path="url(#p6ddf275f02)" style="fill: none; stroke: #b0b0b0; stroke-opacity: 0.25; stroke-width: 0.8; stroke-linecap: square"/>
     </g>
     <g id="line2d_60">
      <g>
       <use xlink:href="#m48826657b5" x="62.3" y="362.477881" style="stroke: #000000; stroke-width: 0.8"/>
      </g>
     </g>
     <g id="text_26">
      <!-- $\mathdefault{10^{-3}}$ -->
      <g transform="translate(31.8 366.2771) scale(0.1 -0.1)">
       <defs>
        <path id="DejaVuSans-33" d="M 2597 2516 
Q 3050 2419 3304 2112 
Q 3559 1806 3559 1356 
Q 3559 666 3084 287 
Q 2609 -91 1734 -91 
Q 1441 -91 1130 -33 
Q 819 25 488 141 
L 488 750 
Q 750 597 1062 519 
Q 1375 441 1716 441 
Q 2309 441 2620 675 
Q 2931 909 2931 1356 
Q 2931 1769 2642 2001 
Q 2353 2234 1838 2234 
L 1294 2234 
L 1294 2753 
L 1863 2753 
Q 2328 2753 2575 2939 
Q 2822 3125 2822 3475 
Q 2822 3834 2567 4026 
Q 2313 4219 1838 4219 
Q 1578 4219 1281 4162 
Q 984 4106 628 3988 
L 628 4550 
Q 988 4650 1302 4700 
Q 1616 4750 1894 4750 
Q 2613 4750 3031 4423 
Q 3450 4097 3450 3541 
Q 3450 3153 3228 2886 
Q 3006 2619 2597 2516 
z
" transform="scale(0.015625)"/>
       </defs>
       <use xlink:href="#DejaVuSans-31" transform="translate(0 0.765625)"/>
       <use xlink:href="#DejaVuSans-30" transform="translate(63.623047 0.765625)"/>
       <use xlink:href="#DejaVuSans-2212" transform="translate(128.203125 39.046875) scale(0.7)"/>
       <use xlink:href="#DejaVuSans-33" transform="translate(186.855469 39.046875) scale(0.7)"/>
      </g>
     </g>
    </g>
    <g id="ytick_12">
     <g id="line2d_61">
      <path d="M 62.3 337.249985 
L 628.183658 337.249985 
" clip-path="url(#p6ddf275f02)" style="fill: none; stroke: #b0b0b0; stroke-opacity: 0.25; stroke-width: 0.8; stroke-linecap: square"/>
     </g>
     <g id="line2d_62">
      <g>
       <use xlink:href="#m48826657b5" x="62.3" y="337.249985" style="stroke: #000000; stroke-width: 0.8"/>
      </g>
     </g>
     <g id="text_27">
      <!-- $\mathdefault{10^{-1}}$ -->
      <g transform="translate(31.8 341.049203) scale(0.1 -0.1)">
       <use xlink:href="#DejaVuSans-31" transform="translate(0 0.684375)"/>
       <use xlink:href="#DejaVuSans-30" transform="translate(63.623047 0.684375)"/>
       <use xlink:href="#DejaVuSans-2212" transform="translate(128.203125 38.965625) scale(0.7)"/>
       <use xlink:href="#DejaVuSans-31" transform="translate(186.855469 38.965625) scale(0.7)"/>
      </g>
     </g>
    </g>
    <g id="ytick_13">
     <g id="line2d_63">
      <path d="M 62.3 312.022088 
L 628.183658 312.022088 
" clip-path="url(#p6ddf275f02)" style="fill: none; stroke: #b0b0b0; stroke-opacity: 0.25; stroke-width: 0.8; stroke-linecap: square"/>
     </g>
     <g id="line2d_64">
      <g>
       <use xlink:href="#m48826657b5" x="62.3" y="312.022088" style="stroke: #000000; stroke-width: 0.8"/>
      </g>
     </g>
     <g id="text_28">
      <!-- $\mathdefault{10^{1}}$ -->
      <g transform="translate(37.7 315.821306) scale(0.1 -0.1)">
       <use xlink:href="#DejaVuSans-31" transform="translate(0 0.684375)"/>
       <use xlink:href="#DejaVuSans-30" transform="translate(63.623047 0.684375)"/>
       <use xlink:href="#DejaVuSans-31" transform="translate(128.203125 38.965625) scale(0.7)"/>
      </g>
     </g>
    </g>
    <g id="ytick_14">
     <g id="line2d_65">
      <path d="M 62.3 286.794191 
L 628.183658 286.794191 
" clip-path="url(#p6ddf275f02)" style="fill: none; stroke: #b0b0b0; stroke-opacity: 0.25; stroke-width: 0.8; stroke-linecap: square"/>
     </g>
     <g id="line2d_66">
      <g>
       <use xlink:href="#m48826657b5" x="62.3" y="286.794191" style="stroke: #000000; stroke-width: 0.8"/>
      </g>
     </g>
     <g id="text_29">
      <!-- $\mathdefault{10^{3}}$ -->
      <g transform="translate(37.7 290.59341) scale(0.1 -0.1)">
       <use xlink:href="#DejaVuSans-31" transform="translate(0 0.765625)"/>
       <use xlink:href="#DejaVuSans-30" transform="translate(63.623047 0.765625)"/>
       <use xlink:href="#DejaVuSans-33" transform="translate(128.203125 39.046875) scale(0.7)"/>
      </g>
     </g>
    </g>
    <g id="text_30">
     <!-- |FFT(.)| -->
     <g transform="translate(25.442188 386.597344) rotate(-90) scale(0.1 -0.1)">
      <defs>
       <path id="DejaVuSans-54" d="M -19 4666 
L 3928 4666 
L 3928 4134 
L 2272 4134 
L 2272 0 
L 1638 0 
L 1638 4134 
L -19 4134 
L -19 4666 
z
" transform="scale(0.015625)"/>
      </defs>
      <use xlink:href="#DejaVuSans-7c"/>
      <use xlink:href="#DejaVuSans-46" transform="translate(33.691406 0)"/>
      <use xlink:href="#DejaVuSans-46" transform="translate(91.210938 0)"/>
      <use xlink:href="#DejaVuSans-54" transform="translate(146.980469 0)"/>
      <use xlink:href="#DejaVuSans-28" transform="translate(208.064453 0)"/>
      <use xlink:href="#DejaVuSans-2e" transform="translate(247.078125 0)"/>
      <use xlink:href="#DejaVuSans-29" transform="translate(278.865234 0)"/>
      <use xlink:href="#DejaVuSans-7c" transform="translate(317.878906 0)"/>
     </g>
    </g>
   </g>
   <g id="line2d_67">
    <path d="M 62.3 322.547349 
L 147.473977 348.189078 
L 197.29756 346.521563 
L 232.647955 344.883515 
L 260.067851 343.294126 
L 282.471538 341.711827 
L 301.413585 340.091519 
L 317.821932 338.389833 
L 332.295121 336.562259 
L 345.241829 334.558181 
L 356.953551 332.313797 
L 367.645515 329.740644 
L 377.481169 326.703916 
L 386.587562 322.974455 
L 395.065412 318.097735 
L 402.99591 310.879905 
L 410.445468 292.119062 
L 417.469098 287.467273 
L 424.112882 290.448389 
L 430.415806 308.78531 
L 436.411145 316.811877 
L 442.127528 321.989899 
L 447.589764 325.86655 
L 452.819493 328.976302 
L 457.835703 331.575658 
L 462.655147 333.809306 
L 467.292681 335.767422 
L 471.76154 337.510197 
L 476.073564 339.079899 
L 480.239389 340.507389 
L 484.268605 341.81591 
L 488.169887 343.023421 
L 491.951111 344.144089 
L 495.619446 345.189297 
L 499.181436 346.168331 
L 502.643076 347.088866 
L 506.009864 347.957322 
L 509.28686 348.779121 
L 512.47873 349.558891 
L 515.589784 350.300608 
L 518.624014 351.007714 
L 521.585123 351.683212 
L 524.476552 352.329736 
L 527.301506 352.949607 
L 530.062972 353.544884 
L 532.763742 354.117399 
L 535.406426 354.668792 
L 537.99347 355.200532 
L 540.52717 355.713947 
L 543.00968 356.210235 
L 545.443028 356.690483 
L 547.829124 357.155679 
L 550.169768 357.606727 
L 552.466659 358.044452 
L 554.721402 358.469609 
L 556.935517 358.882895 
L 559.110443 359.284949 
L 561.247541 359.676364 
L 563.348107 360.057684 
L 565.413367 360.429417 
L 567.444489 360.792033 
L 569.442583 361.145969 
L 571.408706 361.491631 
L 573.343865 361.829399 
L 575.249021 362.159627 
L 577.125089 362.482648 
L 578.972944 362.798771 
L 580.793423 363.108287 
L 582.587325 363.411471 
L 584.355414 363.70858 
L 586.098423 363.999855 
L 587.817053 364.285524 
L 589.511978 364.565802 
L 591.183841 364.840893 
L 592.833263 365.110989 
L 594.460837 365.376271 
L 596.067136 365.636911 
L 597.652707 365.893072 
L 599.21808 366.14491 
L 600.763761 366.39257 
L 602.290241 366.636192 
L 603.797991 366.87591 
L 605.287465 367.111849 
L 606.7591 367.34413 
L 608.213319 367.572868 
L 609.65053 367.798172 
L 611.071124 368.020146 
L 612.475483 368.238891 
L 613.863974 368.454501 
L 615.23695 368.667069 
L 616.594754 368.87668 
L 617.937719 369.083419 
L 619.266165 369.287366 
L 620.580403 369.488598 
L 621.880734 369.687188 
L 623.167448 369.883208 
L 624.440828 370.076724 
L 625.701147 370.267802 
L 626.948672 370.456505 
L 628.183658 370.642894 
L 629.406355 370.827025 
" clip-path="url(#p6ddf275f02)" style="fill: none; stroke: #1f77b4; stroke-opacity: 0.6; stroke-width: 1.5; stroke-linecap: square"/>
   </g>
   <g id="line2d_68">
    <path d="M 62.3 312.994362 
L 147.473977 322.366645 
L 197.29756 326.920526 
L 232.647955 330.88168 
L 260.067851 334.213725 
L 282.471538 337.04821 
L 301.413585 339.495103 
L 317.821932 341.607834 
L 332.295121 343.332653 
L 345.241829 344.380089 
L 356.953551 344.202172 
L 367.645515 342.585878 
L 377.481169 339.877286 
L 386.587562 336.254418 
L 395.065412 331.416995 
L 402.99591 324.214771 
L 410.445468 305.45881 
L 417.469098 300.807235 
L 424.112882 303.788192 
L 430.415806 322.127778 
L 436.411145 330.161932 
L 442.127528 335.353541 
L 447.589764 339.25004 
L 452.819493 342.38557 
L 457.835703 345.015921 
L 462.655147 347.284847 
L 467.292681 349.281488 
L 471.76154 351.064988 
L 476.073564 352.676604 
L 480.239389 354.146263 
L 484.268605 355.49637 
L 488.169887 356.744153 
L 491.951111 357.903166 
L 495.619446 358.984284 
L 499.181436 359.996396 
L 502.643076 360.946879 
L 506.009864 361.841949 
L 509.28686 362.686907 
L 512.47873 363.486329 
L 515.589784 364.244206 
L 518.624014 364.964047 
L 521.585123 365.648962 
L 524.476552 366.301729 
L 527.301506 366.924837 
L 530.062972 367.520532 
L 532.763742 368.090845 
L 535.406426 368.637621 
L 537.99347 369.16254 
L 540.52717 369.667131 
L 543.00968 370.152794 
L 545.443028 370.62081 
L 547.829124 371.072352 
L 550.169768 371.508496 
L 552.466659 371.930232 
L 554.721402 372.338466 
L 556.935517 372.734034 
L 559.110443 373.117706 
L 561.247541 373.490191 
L 563.348107 373.852142 
L 565.413367 374.204163 
L 567.444489 374.54681 
L 569.442583 374.880599 
L 571.408706 375.206007 
L 573.343865 375.523475 
L 575.249021 375.833413 
L 577.125089 376.136201 
L 578.972944 376.432193 
L 580.793423 376.721717 
L 582.587325 377.005078 
L 584.355414 377.282562 
L 586.098423 377.554434 
L 587.817053 377.820943 
L 589.511978 378.082321 
L 591.183841 378.338786 
L 592.833263 378.59054 
L 594.460837 378.837776 
L 596.067136 379.080672 
L 597.652707 379.319397 
L 599.21808 379.55411 
L 600.763761 379.784961 
L 602.290241 380.012089 
L 603.797991 380.235629 
L 605.287465 380.455705 
L 606.7591 380.672437 
L 608.213319 380.885938 
L 609.65053 381.096313 
L 611.071124 381.303665 
L 612.475483 381.508088 
L 613.863974 381.709675 
L 615.23695 381.908512 
L 616.594754 382.104681 
L 617.937719 382.298262 
L 619.266165 382.489329 
L 620.580403 382.677954 
L 621.880734 382.864205 
L 623.167448 383.048147 
L 624.440828 383.229843 
L 625.701147 383.409353 
L 626.948672 383.586733 
L 628.183658 383.76204 
L 629.406355 383.935324 
" clip-path="url(#p6ddf275f02)" style="fill: none; stroke: #ff7f0e; stroke-width: 1.5; stroke-linecap: square"/>
   </g>
   <g id="patch_9">
    <path d="M 62.3 458.728 
L 62.3 279.312 
" style="fill: none; stroke: #000000; stroke-width: 0.8; stroke-linejoin: miter; stroke-linecap: square"/>
   </g>
   <g id="patch_10">
    <path d="M 628.183658 458.728 
L 628.183658 279.312 
" style="fill: none; stroke: #000000; stroke-width: 0.8; stroke-linejoin: miter; stroke-linecap: square"/>
   </g>
   <g id="patch_11">
    <path d="M 62.3 458.728 
L 628.183658 458.728 
" style="fill: none; stroke: #000000; stroke-width: 0.8; stroke-linejoin: miter; stroke-linecap: square"/>
   </g>
   <g id="patch_12">
    <path d="M 62.3 279.312 
L 628.183658 279.312 
" style="fill: none; stroke: #000000; stroke-width: 0.8; stroke-linejoin: miter; stroke-linecap: square"/>
   </g>
   <g id="text_31">
    <!-- Output FFT peak ≈ 1.800 (arb.), magnitude ≈ 7.746e+01 | high-ish -->
    <g transform="translate(142.688391 273.312) scale(0.12 -0.12)">
     <defs>
      <path id="DejaVuSans-4f" d="M 2522 4238 
Q 1834 4238 1429 3725 
Q 1025 3213 1025 2328 
Q 1025 1447 1429 934 
Q 1834 422 2522 422 
Q 3209 422 3611 934 
Q 4013 1447 4013 2328 
Q 4013 3213 3611 3725 
Q 3209 4238 2522 4238 
z
M 2522 4750 
Q 3503 4750 4090 4092 
Q 4678 3434 4678 2328 
Q 4678 1225 4090 567 
Q 3503 -91 2522 -91 
Q 1538 -91 948 565 
Q 359 1222 359 2328 
Q 359 3434 948 4092 
Q 1538 4750 2522 4750 
z
" transform="scale(0.015625)"/>
      <path id="DejaVuSans-6b" d="M 581 4863 
L 1159 4863 
L 1159 1991 
L 2875 3500 
L 3609 3500 
L 1753 1863 
L 3688 0 
L 2938 0 
L 1159 1709 
L 1159 0 
L 581 0 
L 581 4863 
z
" transform="scale(0.015625)"/>
      <path id="DejaVuSans-2248" d="M 4684 1947 
L 4684 1388 
Q 4356 1144 4076 1036 
Q 3797 928 3494 928 
Q 3150 928 2694 1113 
Q 2663 1125 2641 1134 
Q 2622 1141 2575 1159 
Q 2091 1350 1797 1350 
Q 1522 1350 1253 1231 
Q 984 1113 678 850 
L 678 1409 
Q 1006 1653 1286 1761 
Q 1566 1869 1869 1869 
Q 2213 1869 2672 1684 
Q 2706 1669 2722 1663 
Q 2741 1656 2788 1638 
Q 3272 1447 3566 1447 
Q 3834 1447 4098 1564 
Q 4363 1681 4684 1947 
z
M 4684 3163 
L 4684 2606 
Q 4356 2359 4076 2251 
Q 3797 2144 3494 2144 
Q 3150 2144 2694 2328 
Q 2663 2341 2641 2350 
Q 2622 2356 2575 2375 
Q 2091 2566 1797 2566 
Q 1522 2566 1253 2447 
Q 984 2328 678 2069 
L 678 2625 
Q 1006 2869 1286 2976 
Q 1566 3084 1869 3084 
Q 2213 3084 2672 2900 
Q 2703 2888 2719 2881 
Q 2741 2872 2788 2853 
Q 3272 2663 3566 2663 
Q 3834 2663 4098 2780 
Q 4363 2897 4684 3163 
z
" transform="scale(0.015625)"/>
      <path id="DejaVuSans-6d" d="M 3328 2828 
Q 3544 3216 3844 3400 
Q 4144 3584 4550 3584 
Q 5097 3584 5394 3201 
Q 5691 2819 5691 2113 
L 5691 0 
L 5113 0 
L 5113 2094 
Q 5113 2597 4934 2840 
Q 4756 3084 4391 3084 
Q 3944 3084 3684 2787 
Q 3425 2491 3425 1978 
L 3425 0 
L 2847 0 
L 2847 2094 
Q 2847 2600 2669 2842 
Q 2491 3084 2119 3084 
Q 1678 3084 1418 2786 
Q 1159 2488 1159 1978 
L 1159 0 
L 581 0 
L 581 3500 
L 1159 3500 
L 1159 2956 
Q 1356 3278 1631 3431 
Q 1906 3584 2284 3584 
Q 2666 3584 2933 3390 
Q 3200 3197 3328 2828 
z
" transform="scale(0.015625)"/>
      <path id="DejaVuSans-67" d="M 2906 1791 
Q 2906 2416 2648 2759 
Q 2391 3103 1925 3103 
Q 1463 3103 1205 2759 
Q 947 2416 947 1791 
Q 947 1169 1205 825 
Q 1463 481 1925 481 
Q 2391 481 2648 825 
Q 2906 1169 2906 1791 
z
M 3481 434 
Q 3481 -459 3084 -895 
Q 2688 -1331 1869 -1331 
Q 1566 -1331 1297 -1286 
Q 1028 -1241 775 -1147 
L 775 -588 
Q 1028 -725 1275 -790 
Q 1522 -856 1778 -856 
Q 2344 -856 2625 -561 
Q 2906 -266 2906 331 
L 2906 616 
Q 2728 306 2450 153 
Q 2172 0 1784 0 
Q 1141 0 747 490 
Q 353 981 353 1791 
Q 353 2603 747 3093 
Q 1141 3584 1784 3584 
Q 2172 3584 2450 3431 
Q 2728 3278 2906 2969 
L 2906 3500 
L 3481 3500 
L 3481 434 
z
" transform="scale(0.015625)"/>
      <path id="DejaVuSans-2b" d="M 2944 4013 
L 2944 2272 
L 4684 2272 
L 4684 1741 
L 2944 1741 
L 2944 0 
L 2419 0 
L 2419 1741 
L 678 1741 
L 678 2272 
L 2419 2272 
L 2419 4013 
L 2944 4013 
z
" transform="scale(0.015625)"/>
      <path id="DejaVuSans-68" d="M 3513 2113 
L 3513 0 
L 2938 0 
L 2938 2094 
Q 2938 2591 2744 2837 
Q 2550 3084 2163 3084 
Q 1697 3084 1428 2787 
Q 1159 2491 1159 1978 
L 1159 0 
L 581 0 
L 581 4863 
L 1159 4863 
L 1159 2956 
Q 1366 3272 1645 3428 
Q 1925 3584 2291 3584 
Q 2894 3584 3203 3211 
Q 3513 2838 3513 2113 
z
" transform="scale(0.015625)"/>
     </defs>
     <use xlink:href="#DejaVuSans-4f"/>
     <use xlink:href="#DejaVuSans-75" transform="translate(78.710938 0)"/>
     <use xlink:href="#DejaVuSans-74" transform="translate(142.089844 0)"/>
     <use xlink:href="#DejaVuSans-70" transform="translate(181.298828 0)"/>
     <use xlink:href="#DejaVuSans-75" transform="translate(244.775391 0)"/>
     <use xlink:href="#DejaVuSans-74" transform="translate(308.154297 0)"/>
     <use xlink:href="#DejaVuSans-20" transform="translate(347.363281 0)"/>
     <use xlink:href="#DejaVuSans-46" transform="translate(379.150391 0)"/>
     <use xlink:href="#DejaVuSans-46" transform="translate(436.669922 0)"/>
     <use xlink:href="#DejaVuSans-54" transform="translate(492.439453 0)"/>
     <use xlink:href="#DejaVuSans-20" transform="translate(553.523438 0)"/>
     <use xlink:href="#DejaVuSans-70" transform="translate(585.310547 0)"/>
     <use xlink:href="#DejaVuSans-65" transform="translate(648.787109 0)"/>
     <use xlink:href="#DejaVuSans-61" transform="translate(710.310547 0)"/>
     <use xlink:href="#DejaVuSans-6b" transform="translate(771.589844 0)"/>
     <use xlink:href="#DejaVuSans-20" transform="translate(829.5 0)"/>
     <use xlink:href="#DejaVuSans-2248" transform="translate(861.287109 0)"/>
     <use xlink:href="#DejaVuSans-20" transform="translate(945.076172 0)"/>
     <use xlink:href="#DejaVuSans-31" transform="translate(976.863281 0)"/>
     <use xlink:href="#DejaVuSans-2e" transform="translate(1040.486328 0)"/>
     <use xlink:href="#DejaVuSans-38" transform="translate(1072.273438 0)"/>
     <use xlink:href="#DejaVuSans-30" transform="translate(1135.896484 0)"/>
     <use xlink:href="#DejaVuSans-30" transform="translate(1199.519531 0)"/>
     <use xlink:href="#DejaVuSans-20" transform="translate(1263.142578 0)"/>
     <use xlink:href="#DejaVuSans-28" transform="translate(1294.929688 0)"/>
     <use xlink:href="#DejaVuSans-61" transform="translate(1333.943359 0)"/>
     <use xlink:href="#DejaVuSans-72" transform="translate(1395.222656 0)"/>
     <use xlink:href="#DejaVuSans-62" transform="translate(1436.335938 0)"/>
     <use xlink:href="#DejaVuSans-2e" transform="translate(1499.8125 0)"/>
     <use xlink:href="#DejaVuSans-29" transform="translate(1531.599609 0)"/>
     <use xlink:href="#DejaVuSans-2c" transform="translate(1570.613281 0)"/>
     <use xlink:href="#DejaVuSans-20" transform="translate(1602.400391 0)"/>
     <use xlink:href="#DejaVuSans-6d" transform="translate(1634.1875 0)"/>
     <use xlink:href="#DejaVuSans-61" transform="translate(1731.599609 0)"/>
     <use xlink:href="#DejaVuSans-67" transform="translate(1792.878906 0)"/>
     <use xlink:href="#DejaVuSans-6e" transform="translate(1856.355469 0)"/>
     <use xlink:href="#DejaVuSans-69" transform="translate(1919.734375 0)"/>
     <use xlink:href="#DejaVuSans-74" transform="translate(1947.517578 0)"/>
     <use xlink:href="#DejaVuSans-75" transform="translate(1986.726562 0)"/>
     <use xlink:href="#DejaVuSans-64" transform="translate(2050.105469 0)"/>
     <use xlink:href="#DejaVuSans-65" transform="translate(2113.582031 0)"/>
     <use xlink:href="#DejaVuSans-20" transform="translate(2175.105469 0)"/>
     <use xlink:href="#DejaVuSans-2248" transform="translate(2206.892578 0)"/>
     <use xlink:href="#DejaVuSans-20" transform="translate(2290.681641 0)"/>
     <use xlink:href="#DejaVuSans-37" transform="translate(2322.46875 0)"/>
     <use xlink:href="#DejaVuSans-2e" transform="translate(2386.091797 0)"/>
     <use xlink:href="#DejaVuSans-37" transform="translate(2417.878906 0)"/>
     <use xlink:href="#DejaVuSans-34" transform="translate(2481.501953 0)"/>
     <use xlink:href="#DejaVuSans-36" transform="translate(2545.125 0)"/>
     <use xlink:href="#DejaVuSans-65" transform="translate(2608.748047 0)"/>
     <use xlink:href="#DejaVuSans-2b" transform="translate(2670.271484 0)"/>
     <use xlink:href="#DejaVuSans-30" transform="translate(2754.060547 0)"/>
     <use xlink:href="#DejaVuSans-31" transform="translate(2817.683594 0)"/>
     <use xlink:href="#DejaVuSans-20" transform="translate(2881.306641 0)"/>
     <use xlink:href="#DejaVuSans-7c" transform="translate(2913.09375 0)"/>
     <use xlink:href="#DejaVuSans-20" transform="translate(2946.785156 0)"/>
     <use xlink:href="#DejaVuSans-68" transform="translate(2978.572266 0)"/>
     <use xlink:href="#DejaVuSans-69" transform="translate(3041.951172 0)"/>
     <use xlink:href="#DejaVuSans-67" transform="translate(3069.734375 0)"/>
     <use xlink:href="#DejaVuSans-68" transform="translate(3133.210938 0)"/>
     <use xlink:href="#DejaVuSans-2d" transform="translate(3196.589844 0)"/>
     <use xlink:href="#DejaVuSans-69" transform="translate(3232.673828 0)"/>
     <use xlink:href="#DejaVuSans-73" transform="translate(3260.457031 0)"/>
     <use xlink:href="#DejaVuSans-68" transform="translate(3312.556641 0)"/>
    </g>
   </g>
   <g id="legend_2">
    <g id="patch_13">
     <path d="M 535.586783 316.66825 
L 621.183658 316.66825 
Q 623.183658 316.66825 623.183658 314.66825 
L 623.183658 286.312 
Q 623.183658 284.312 621.183658 284.312 
L 535.586783 284.312 
Q 533.586783 284.312 533.586783 286.312 
L 533.586783 314.66825 
Q 533.586783 316.66825 535.586783 316.66825 
z
" style="fill: #ffffff; opacity: 0.8; stroke: #cccccc; stroke-linejoin: miter"/>
    </g>
    <g id="line2d_69">
     <path d="M 537.586783 292.410438 
L 547.586783 292.410438 
L 557.586783 292.410438 
" style="fill: none; stroke: #1f77b4; stroke-opacity: 0.6; stroke-width: 1.5; stroke-linecap: square"/>
    </g>
    <g id="text_32">
     <!-- input FFT -->
     <g transform="translate(565.586783 295.910438) scale(0.1 -0.1)">
      <use xlink:href="#DejaVuSans-69"/>
      <use xlink:href="#DejaVuSans-6e" transform="translate(27.783203 0)"/>
      <use xlink:href="#DejaVuSans-70" transform="translate(91.162109 0)"/>
      <use xlink:href="#DejaVuSans-75" transform="translate(154.638672 0)"/>
      <use xlink:href="#DejaVuSans-74" transform="translate(218.017578 0)"/>
      <use xlink:href="#DejaVuSans-20" transform="translate(257.226562 0)"/>
      <use xlink:href="#DejaVuSans-46" transform="translate(289.013672 0)"/>
      <use xlink:href="#DejaVuSans-46" transform="translate(346.533203 0)"/>
      <use xlink:href="#DejaVuSans-54" transform="translate(402.302734 0)"/>
     </g>
    </g>
    <g id="line2d_70">
     <path d="M 537.586783 307.088562 
L 547.586783 307.088562 
L 557.586783 307.088562 
" style="fill: none; stroke: #ff7f0e; stroke-width: 1.5; stroke-linecap: square"/>
    </g>
    <g id="text_33">
     <!-- output FFT -->
     <g transform="translate(565.586783 310.588562) scale(0.1 -0.1)">
      <use xlink:href="#DejaVuSans-6f"/>
      <use xlink:href="#DejaVuSans-75" transform="translate(61.181641 0)"/>
      <use xlink:href="#DejaVuSans-74" transform="translate(124.560547 0)"/>
      <use xlink:href="#DejaVuSans-70" transform="translate(163.769531 0)"/>
      <use xlink:href="#DejaVuSans-75" transform="translate(227.246094 0)"/>
      <use xlink:href="#DejaVuSans-74" transform="translate(290.625 0)"/>
      <use xlink:href="#DejaVuSans-20" transform="translate(329.833984 0)"/>
      <use xlink:href="#DejaVuSans-46" transform="translate(361.621094 0)"/>
      <use xlink:href="#DejaVuSans-46" transform="translate(419.140625 0)"/>
      <use xlink:href="#DejaVuSans-54" transform="translate(474.910156 0)"/>
     </g>
    </g>
   </g>
  </g>
 </g>
 <defs>
  <clipPath id="p83a91cd60a">
   <rect x="62.3" y="41.856" width="565.883658" height="179.416"/>
  </clipPath>
  <clipPath id="p6ddf275f02">
   <rect x="62.3" y="279.312" width="565.883658" height="179.416"/>
  </clipPath>
 </defs>
</svg>
