<?xml version="1.0" encoding="utf-8" standalone="no"?>
<!DOCTYPE svg PUBLIC "-//W3C//DTD SVG 1.1//EN"
  "http://www.w3.org/Graphics/SVG/1.1/DTD/svg11.dtd">
<svg xmlns:xlink="http://www.w3.org/1999/xlink" width="648pt" height="504pt" viewBox="0 0 648 504" xmlns="http://www.w3.org/2000/svg" version="1.1">
 <metadata>
  <rdf:RDF xmlns:dc="http://purl.org/dc/elements/1.1/" xmlns:cc="http://creativecommons.org/ns#" xmlns:rdf="http://www.w3.org/1999/02/22-rdf-syntax-ns#">
   <cc:Work>
    <dc:type rdf:resource="http://purl.org/dc/dcmitype/StillImage"/>
    <dc:date>2026-01-20T02:21:13.003963</dc:date>
    <dc:format>image/svg+xml</dc:format>
    <dc:creator>
     <cc:Agent>
      <dc:title>Matplotlib v3.10.8, https://matplotlib.org/</dc:title>
     </cc:Agent>
    </dc:creator>
   </cc:Work>
  </rdf:RDF>
 </metadata>
 <defs>
  <style type="text/css">*{stroke-linejoin: round; stroke-linecap: butt}</style>
 </defs>
 <g id="figure_1">
  <g id="patch_1">
   <path d="M 0 504 
L 648 504 
L 648 0 
L 0 0 
z
" style="fill: #ffffff"/>
  </g>
  <g id="axes_1">
   <g id="patch_2">
    <path d="M 56.357054 221.272 
L 628.183658 221.272 
L 628.183658 41.856 
L 56.357054 41.856 
z
" style="fill: #ffffff"/>
   </g>
   <g id="matplotlib.axis_1">
    <g id="xtick_1">
     <g id="line2d_1">
      <path d="M 82.349172 221.272 
L 82.349172 41.856 
" clip-path="url(#p48f83ddf01)" style="fill: none; stroke: #b0b0b0; stroke-opacity: 0.25; stroke-width: 0.8; stroke-linecap: square"/>
     </g>
     <g id="line2d_2">
      <defs>
       <path id="m8509507884" d="M 0 0 
L 0 3.5 
" style="stroke: #000000; stroke-width: 0.8"/>
      </defs>
      <g>
       <use xlink:href="#m8509507884" x="82.349172" y="221.272" style="stroke: #000000; stroke-width: 0.8"/>
      </g>
     </g>
     <g id="text_1">
      <!-- 0 -->
      <g transform="translate(79.167922 235.870437) scale(0.1 -0.1)">
       <defs>
        <path id="DejaVuSans-30" d="M 2034 4250 
Q 1547 4250 1301 3770 
Q 1056 3291 1056 2328 
Q 1056 1369 1301 889 
Q 1547 409 2034 409 
Q 2525 409 2770 889 
Q 3016 1369 3016 2328 
Q 3016 3291 2770 3770 
Q 2525 4250 2034 4250 
z
M 2034 4750 
Q 2819 4750 3233 4129 
Q 3647 3509 3647 2328 
Q 3647 1150 3233 529 
Q 2819 -91 2034 -91 
Q 1250 -91 836 529 
Q 422 1150 422 2328 
Q 422 3509 836 4129 
Q 1250 4750 2034 4750 
z
" transform="scale(0.015625)"/>
       </defs>
       <use xlink:href="#DejaVuSans-30"/>
      </g>
     </g>
    </g>
    <g id="xtick_2">
     <g id="line2d_3">
      <path d="M 186.343035 221.272 
L 186.343035 41.856 
" clip-path="url(#p48f83ddf01)" style="fill: none; stroke: #b0b0b0; stroke-opacity: 0.25; stroke-width: 0.8; stroke-linecap: square"/>
     </g>
     <g id="line2d_4">
      <g>
       <use xlink:href="#m8509507884" x="186.343035" y="221.272" style="stroke: #000000; stroke-width: 0.8"/>
      </g>
     </g>
     <g id="text_2">
      <!-- 2 -->
      <g transform="translate(183.161785 235.870437) scale(0.1 -0.1)">
       <defs>
        <path id="DejaVuSans-32" d="M 1228 531 
L 3431 531 
L 3431 0 
L 469 0 
L 469 531 
Q 828 903 1448 1529 
Q 2069 2156 2228 2338 
Q 2531 2678 2651 2914 
Q 2772 3150 2772 3378 
Q 2772 3750 2511 3984 
Q 2250 4219 1831 4219 
Q 1534 4219 1204 4116 
Q 875 4013 500 3803 
L 500 4441 
Q 881 4594 1212 4672 
Q 1544 4750 1819 4750 
Q 2544 4750 2975 4387 
Q 3406 4025 3406 3419 
Q 3406 3131 3298 2873 
Q 3191 2616 2906 2266 
Q 2828 2175 2409 1742 
Q 1991 1309 1228 531 
z
" transform="scale(0.015625)"/>
       </defs>
       <use xlink:href="#DejaVuSans-32"/>
      </g>
     </g>
    </g>
    <g id="xtick_3">
     <g id="line2d_5">
      <path d="M 290.336897 221.272 
L 290.336897 41.856 
" clip-path="url(#p48f83ddf01)" style="fill: none; stroke: #b0b0b0; stroke-opacity: 0.25; stroke-width: 0.8; stroke-linecap: square"/>
     </g>
     <g id="line2d_6">
      <g>
       <use xlink:href="#m8509507884" x="290.336897" y="221.272" style="stroke: #000000; stroke-width: 0.8"/>
      </g>
     </g>
     <g id="text_3">
      <!-- 4 -->
      <g transform="translate(287.155647 235.870437) scale(0.1 -0.1)">
       <defs>
        <path id="DejaVuSans-34" d="M 2419 4116 
L 825 1625 
L 2419 1625 
L 2419 4116 
z
M 2253 4666 
L 3047 4666 
L 3047 1625 
L 3713 1625 
L 3713 1100 
L 3047 1100 
L 3047 0 
L 2419 0 
L 2419 1100 
L 313 1100 
L 313 1709 
L 2253 4666 
z
" transform="scale(0.015625)"/>
       </defs>
       <use xlink:href="#DejaVuSans-34"/>
      </g>
     </g>
    </g>
    <g id="xtick_4">
     <g id="line2d_7">
      <path d="M 394.33076 221.272 
L 394.33076 41.856 
" clip-path="url(#p48f83ddf01)" style="fill: none; stroke: #b0b0b0; stroke-opacity: 0.25; stroke-width: 0.8; stroke-linecap: square"/>
     </g>
     <g id="line2d_8">
      <g>
       <use xlink:href="#m8509507884" x="394.33076" y="221.272" style="stroke: #000000; stroke-width: 0.8"/>
      </g>
     </g>
     <g id="text_4">
      <!-- 6 -->
      <g transform="translate(391.14951 235.870437) scale(0.1 -0.1)">
       <defs>
        <path id="DejaVuSans-36" d="M 2113 2584 
Q 1688 2584 1439 2293 
Q 1191 2003 1191 1497 
Q 1191 994 1439 701 
Q 1688 409 2113 409 
Q 2538 409 2786 701 
Q 3034 994 3034 1497 
Q 3034 2003 2786 2293 
Q 2538 2584 2113 2584 
z
M 3366 4563 
L 3366 3988 
Q 3128 4100 2886 4159 
Q 2644 4219 2406 4219 
Q 1781 4219 1451 3797 
Q 1122 3375 1075 2522 
Q 1259 2794 1537 2939 
Q 1816 3084 2150 3084 
Q 2853 3084 3261 2657 
Q 3669 2231 3669 1497 
Q 3669 778 3244 343 
Q 2819 -91 2113 -91 
Q 1303 -91 875 529 
Q 447 1150 447 2328 
Q 447 3434 972 4092 
Q 1497 4750 2381 4750 
Q 2619 4750 2861 4703 
Q 3103 4656 3366 4563 
z
" transform="scale(0.015625)"/>
       </defs>
       <use xlink:href="#DejaVuSans-36"/>
      </g>
     </g>
    </g>
    <g id="xtick_5">
     <g id="line2d_9">
      <path d="M 498.324622 221.272 
L 498.324622 41.856 
" clip-path="url(#p48f83ddf01)" style="fill: none; stroke: #b0b0b0; stroke-opacity: 0.25; stroke-width: 0.8; stroke-linecap: square"/>
     </g>
     <g id="line2d_10">
      <g>
       <use xlink:href="#m8509507884" x="498.324622" y="221.272" style="stroke: #000000; stroke-width: 0.8"/>
      </g>
     </g>
     <g id="text_5">
      <!-- 8 -->
      <g transform="translate(495.143372 235.870437) scale(0.1 -0.1)">
       <defs>
        <path id="DejaVuSans-38" d="M 2034 2216 
Q 1584 2216 1326 1975 
Q 1069 1734 1069 1313 
Q 1069 891 1326 650 
Q 1584 409 2034 409 
Q 2484 409 2743 651 
Q 3003 894 3003 1313 
Q 3003 1734 2745 1975 
Q 2488 2216 2034 2216 
z
M 1403 2484 
Q 997 2584 770 2862 
Q 544 3141 544 3541 
Q 544 4100 942 4425 
Q 1341 4750 2034 4750 
Q 2731 4750 3128 4425 
Q 3525 4100 3525 3541 
Q 3525 3141 3298 2862 
Q 3072 2584 2669 2484 
Q 3125 2378 3379 2068 
Q 3634 1759 3634 1313 
Q 3634 634 3220 271 
Q 2806 -91 2034 -91 
Q 1263 -91 848 271 
Q 434 634 434 1313 
Q 434 1759 690 2068 
Q 947 2378 1403 2484 
z
M 1172 3481 
Q 1172 3119 1398 2916 
Q 1625 2713 2034 2713 
Q 2441 2713 2670 2916 
Q 2900 3119 2900 3481 
Q 2900 3844 2670 4047 
Q 2441 4250 2034 4250 
Q 1625 4250 1398 4047 
Q 1172 3844 1172 3481 
z
" transform="scale(0.015625)"/>
       </defs>
       <use xlink:href="#DejaVuSans-38"/>
      </g>
     </g>
    </g>
    <g id="xtick_6">
     <g id="line2d_11">
      <path d="M 602.318485 221.272 
L 602.318485 41.856 
" clip-path="url(#p48f83ddf01)" style="fill: none; stroke: #b0b0b0; stroke-opacity: 0.25; stroke-width: 0.8; stroke-linecap: square"/>
     </g>
     <g id="line2d_12">
      <g>
       <use xlink:href="#m8509507884" x="602.318485" y="221.272" style="stroke: #000000; stroke-width: 0.8"/>
      </g>
     </g>
     <g id="text_6">
      <!-- 10 -->
      <g transform="translate(595.955985 235.870437) scale(0.1 -0.1)">
       <defs>
        <path id="DejaVuSans-31" d="M 794 531 
L 1825 531 
L 1825 4091 
L 703 3866 
L 703 4441 
L 1819 4666 
L 2450 4666 
L 2450 531 
L 3481 531 
L 3481 0 
L 794 0 
L 794 531 
z
" transform="scale(0.015625)"/>
       </defs>
       <use xlink:href="#DejaVuSans-31"/>
       <use xlink:href="#DejaVuSans-30" transform="translate(63.623047 0)"/>
      </g>
     </g>
    </g>
    <g id="text_7">
     <!-- t [arb.] -->
     <g transform="translate(324.936762 249.548563) scale(0.1 -0.1)">
      <defs>
       <path id="DejaVuSans-74" d="M 1172 4494 
L 1172 3500 
L 2356 3500 
L 2356 3053 
L 1172 3053 
L 1172 1153 
Q 1172 725 1289 603 
Q 1406 481 1766 481 
L 2356 481 
L 2356 0 
L 1766 0 
Q 1100 0 847 248 
Q 594 497 594 1153 
L 594 3053 
L 172 3053 
L 172 3500 
L 594 3500 
L 594 4494 
L 1172 4494 
z
" transform="scale(0.015625)"/>
       <path id="DejaVuSans-20" transform="scale(0.015625)"/>
       <path id="DejaVuSans-5b" d="M 550 4863 
L 1875 4863 
L 1875 4416 
L 1125 4416 
L 1125 -397 
L 1875 -397 
L 1875 -844 
L 550 -844 
L 550 4863 
z
" transform="scale(0.015625)"/>
       <path id="DejaVuSans-61" d="M 2194 1759 
Q 1497 1759 1228 1600 
Q 959 1441 959 1056 
Q 959 750 1161 570 
Q 1363 391 1709 391 
Q 2188 391 2477 730 
Q 2766 1069 2766 1631 
L 2766 1759 
L 2194 1759 
z
M 3341 1997 
L 3341 0 
L 2766 0 
L 2766 531 
Q 2569 213 2275 61 
Q 1981 -91 1556 -91 
Q 1019 -91 701 211 
Q 384 513 384 1019 
Q 384 1609 779 1909 
Q 1175 2209 1959 2209 
L 2766 2209 
L 2766 2266 
Q 2766 2663 2505 2880 
Q 2244 3097 1772 3097 
Q 1472 3097 1187 3025 
Q 903 2953 641 2809 
L 641 3341 
Q 956 3463 1253 3523 
Q 1550 3584 1831 3584 
Q 2591 3584 2966 3190 
Q 3341 2797 3341 1997 
z
" transform="scale(0.015625)"/>
       <path id="DejaVuSans-72" d="M 2631 2963 
Q 2534 3019 2420 3045 
Q 2306 3072 2169 3072 
Q 1681 3072 1420 2755 
Q 1159 2438 1159 1844 
L 1159 0 
L 581 0 
L 581 3500 
L 1159 3500 
L 1159 2956 
Q 1341 3275 1631 3429 
Q 1922 3584 2338 3584 
Q 2397 3584 2469 3576 
Q 2541 3569 2628 3553 
L 2631 2963 
z
" transform="scale(0.015625)"/>
       <path id="DejaVuSans-62" d="M 3116 1747 
Q 3116 2381 2855 2742 
Q 2594 3103 2138 3103 
Q 1681 3103 1420 2742 
Q 1159 2381 1159 1747 
Q 1159 1113 1420 752 
Q 1681 391 2138 391 
Q 2594 391 2855 752 
Q 3116 1113 3116 1747 
z
M 1159 2969 
Q 1341 3281 1617 3432 
Q 1894 3584 2278 3584 
Q 2916 3584 3314 3078 
Q 3713 2572 3713 1747 
Q 3713 922 3314 415 
Q 2916 -91 2278 -91 
Q 1894 -91 1617 61 
Q 1341 213 1159 525 
L 1159 0 
L 581 0 
L 581 4863 
L 1159 4863 
L 1159 2969 
z
" transform="scale(0.015625)"/>
       <path id="DejaVuSans-2e" d="M 684 794 
L 1344 794 
L 1344 0 
L 684 0 
L 684 794 
z
" transform="scale(0.015625)"/>
       <path id="DejaVuSans-5d" d="M 1947 4863 
L 1947 -844 
L 622 -844 
L 622 -397 
L 1369 -397 
L 1369 4416 
L 622 4416 
L 622 4863 
L 1947 4863 
z
" transform="scale(0.015625)"/>
      </defs>
      <use xlink:href="#DejaVuSans-74"/>
      <use xlink:href="#DejaVuSans-20" transform="translate(39.208984 0)"/>
      <use xlink:href="#DejaVuSans-5b" transform="translate(70.996094 0)"/>
      <use xlink:href="#DejaVuSans-61" transform="translate(110.009766 0)"/>
      <use xlink:href="#DejaVuSans-72" transform="translate(171.289062 0)"/>
      <use xlink:href="#DejaVuSans-62" transform="translate(212.402344 0)"/>
      <use xlink:href="#DejaVuSans-2e" transform="translate(275.878906 0)"/>
      <use xlink:href="#DejaVuSans-5d" transform="translate(307.666016 0)"/>
     </g>
    </g>
   </g>
   <g id="matplotlib.axis_2">
    <g id="ytick_1">
     <g id="line2d_13">
      <path d="M 56.357054 193.272164 
L 628.183658 193.272164 
" clip-path="url(#p48f83ddf01)" style="fill: none; stroke: #b0b0b0; stroke-opacity: 0.25; stroke-width: 0.8; stroke-linecap: square"/>
     </g>
     <g id="line2d_14">
      <defs>
       <path id="m7dfc76afff" d="M 0 0 
L -3.5 0 
" style="stroke: #000000; stroke-width: 0.8"/>
      </defs>
      <g>
       <use xlink:href="#m7dfc76afff" x="56.357054" y="193.272164" style="stroke: #000000; stroke-width: 0.8"/>
      </g>
     </g>
     <g id="text_8">
      <!-- −1.0 -->
      <g transform="translate(25.074241 197.071383) scale(0.1 -0.1)">
       <defs>
        <path id="DejaVuSans-2212" d="M 678 2272 
L 4684 2272 
L 4684 1741 
L 678 1741 
L 678 2272 
z
" transform="scale(0.015625)"/>
       </defs>
       <use xlink:href="#DejaVuSans-2212"/>
       <use xlink:href="#DejaVuSans-31" transform="translate(83.789062 0)"/>
       <use xlink:href="#DejaVuSans-2e" transform="translate(147.412109 0)"/>
       <use xlink:href="#DejaVuSans-30" transform="translate(179.199219 0)"/>
      </g>
     </g>
    </g>
    <g id="ytick_2">
     <g id="line2d_15">
      <path d="M 56.357054 162.418965 
L 628.183658 162.418965 
" clip-path="url(#p48f83ddf01)" style="fill: none; stroke: #b0b0b0; stroke-opacity: 0.25; stroke-width: 0.8; stroke-linecap: square"/>
     </g>
     <g id="line2d_16">
      <g>
       <use xlink:href="#m7dfc76afff" x="56.357054" y="162.418965" style="stroke: #000000; stroke-width: 0.8"/>
      </g>
     </g>
     <g id="text_9">
      <!-- −0.5 -->
      <g transform="translate(25.074241 166.218184) scale(0.1 -0.1)">
       <defs>
        <path id="DejaVuSans-35" d="M 691 4666 
L 3169 4666 
L 3169 4134 
L 1269 4134 
L 1269 2991 
Q 1406 3038 1543 3061 
Q 1681 3084 1819 3084 
Q 2600 3084 3056 2656 
Q 3513 2228 3513 1497 
Q 3513 744 3044 326 
Q 2575 -91 1722 -91 
Q 1428 -91 1123 -41 
Q 819 9 494 109 
L 494 744 
Q 775 591 1075 516 
Q 1375 441 1709 441 
Q 2250 441 2565 725 
Q 2881 1009 2881 1497 
Q 2881 1984 2565 2268 
Q 2250 2553 1709 2553 
Q 1456 2553 1204 2497 
Q 953 2441 691 2322 
L 691 4666 
z
" transform="scale(0.015625)"/>
       </defs>
       <use xlink:href="#DejaVuSans-2212"/>
       <use xlink:href="#DejaVuSans-30" transform="translate(83.789062 0)"/>
       <use xlink:href="#DejaVuSans-2e" transform="translate(147.412109 0)"/>
       <use xlink:href="#DejaVuSans-35" transform="translate(179.199219 0)"/>
      </g>
     </g>
    </g>
    <g id="ytick_3">
     <g id="line2d_17">
      <path d="M 56.357054 131.565766 
L 628.183658 131.565766 
" clip-path="url(#p48f83ddf01)" style="fill: none; stroke: #b0b0b0; stroke-opacity: 0.25; stroke-width: 0.8; stroke-linecap: square"/>
     </g>
     <g id="line2d_18">
      <g>
       <use xlink:href="#m7dfc76afff" x="56.357054" y="131.565766" style="stroke: #000000; stroke-width: 0.8"/>
      </g>
     </g>
     <g id="text_10">
      <!-- 0.0 -->
      <g transform="translate(33.453929 135.364985) scale(0.1 -0.1)">
       <use xlink:href="#DejaVuSans-30"/>
       <use xlink:href="#DejaVuSans-2e" transform="translate(63.623047 0)"/>
       <use xlink:href="#DejaVuSans-30" transform="translate(95.410156 0)"/>
      </g>
     </g>
    </g>
    <g id="ytick_4">
     <g id="line2d_19">
      <path d="M 56.357054 100.712567 
L 628.183658 100.712567 
" clip-path="url(#p48f83ddf01)" style="fill: none; stroke: #b0b0b0; stroke-opacity: 0.25; stroke-width: 0.8; stroke-linecap: square"/>
     </g>
     <g id="line2d_20">
      <g>
       <use xlink:href="#m7dfc76afff" x="56.357054" y="100.712567" style="stroke: #000000; stroke-width: 0.8"/>
      </g>
     </g>
     <g id="text_11">
      <!-- 0.5 -->
      <g transform="translate(33.453929 104.511786) scale(0.1 -0.1)">
       <use xlink:href="#DejaVuSans-30"/>
       <use xlink:href="#DejaVuSans-2e" transform="translate(63.623047 0)"/>
       <use xlink:href="#DejaVuSans-35" transform="translate(95.410156 0)"/>
      </g>
     </g>
    </g>
    <g id="ytick_5">
     <g id="line2d_21">
      <path d="M 56.357054 69.859368 
L 628.183658 69.859368 
" clip-path="url(#p48f83ddf01)" style="fill: none; stroke: #b0b0b0; stroke-opacity: 0.25; stroke-width: 0.8; stroke-linecap: square"/>
     </g>
     <g id="line2d_22">
      <g>
       <use xlink:href="#m7dfc76afff" x="56.357054" y="69.859368" style="stroke: #000000; stroke-width: 0.8"/>
      </g>
     </g>
     <g id="text_12">
      <!-- 1.0 -->
      <g transform="translate(33.453929 73.658587) scale(0.1 -0.1)">
       <use xlink:href="#DejaVuSans-31"/>
       <use xlink:href="#DejaVuSans-2e" transform="translate(63.623047 0)"/>
       <use xlink:href="#DejaVuSans-30" transform="translate(95.410156 0)"/>
      </g>
     </g>
    </g>
    <g id="text_13">
     <!-- [arb.] -->
     <g transform="translate(18.994554 145.348375) rotate(-90) scale(0.1 -0.1)">
      <use xlink:href="#DejaVuSans-5b"/>
      <use xlink:href="#DejaVuSans-61" transform="translate(39.013672 0)"/>
      <use xlink:href="#DejaVuSans-72" transform="translate(100.292969 0)"/>
      <use xlink:href="#DejaVuSans-62" transform="translate(141.40625 0)"/>
      <use xlink:href="#DejaVuSans-2e" transform="translate(204.882812 0)"/>
      <use xlink:href="#DejaVuSans-5d" transform="translate(236.669922 0)"/>
     </g>
    </g>
   </g>
   <g id="line2d_23">
    <path d="M 82.349172 131.565766 
L 86.411433 100.6598 
L 88.569508 85.861774 
L 90.346747 75.124275 
L 91.870095 67.220861 
L 93.139551 61.682731 
L 94.282062 57.586938 
L 95.297627 54.694908 
L 96.186246 52.765394 
L 96.94792 51.569452 
L 97.582648 50.900781 
L 98.217376 50.532964 
L 98.725159 50.456286 
L 99.232941 50.573237 
L 99.86767 50.991249 
L 100.502398 51.709777 
L 101.264072 52.964841 
L 102.152691 54.961955 
L 103.04131 57.518888 
L 104.056875 61.102438 
L 105.199386 65.93577 
L 106.595788 72.912797 
L 108.119136 81.725325 
L 109.896375 93.343287 
L 112.181396 109.868085 
L 116.370602 142.267536 
L 119.544243 165.947218 
L 121.575373 179.560251 
L 123.352612 189.988446 
L 124.875959 197.580342 
L 126.145416 202.831206 
L 127.287926 206.650714 
L 128.303491 209.285836 
L 129.192111 210.983822 
L 129.953785 211.977654 
L 130.588513 212.476149 
L 131.223241 212.672873 
L 131.731023 212.612448 
L 132.238806 212.358543 
L 132.873534 211.770048 
L 133.508262 210.882417 
L 134.269936 209.42714 
L 135.158556 207.201538 
L 136.174121 203.982298 
L 137.316631 199.536366 
L 138.586088 193.636451 
L 139.98249 186.0818 
L 141.632783 175.898101 
L 143.663913 161.86221 
L 146.456717 140.796119 
L 152.16927 97.335049 
L 154.200401 83.705481 
L 155.977639 73.2586 
L 157.500987 65.647981 
L 158.770443 60.379909 
L 159.912954 56.543894 
L 160.928519 53.893451 
L 161.817138 52.181682 
L 162.578812 51.175833 
L 163.21354 50.667233 
L 163.848269 50.460358 
L 164.356051 50.512656 
L 164.863834 50.75845 
L 165.498562 51.336856 
L 166.13329 52.214491 
L 166.894964 53.657946 
L 167.783583 55.870075 
L 168.799148 59.07446 
L 169.941659 63.50454 
L 171.211115 69.388132 
L 172.607517 76.926677 
L 174.257811 87.094224 
L 176.288941 101.11508 
L 179.081745 122.170167 
L 184.794298 165.645605 
L 186.825428 179.29165 
L 188.602667 189.757174 
L 190.126015 197.386484 
L 191.395471 202.67174 
L 192.537982 206.524248 
L 193.553547 209.189999 
L 194.442166 210.915546 
L 195.20384 211.933406 
L 195.838568 212.452111 
L 196.473296 212.669135 
L 196.981079 212.624964 
L 197.488861 212.387282 
L 198.12359 211.818967 
L 198.758318 210.951332 
L 199.519991 209.519705 
L 200.408611 207.321058 
L 201.424176 204.131542 
L 202.566687 199.717334 
L 203.836143 193.850089 
L 205.232545 186.32768 
L 206.882838 176.176329 
L 208.913968 162.170567 
L 211.706772 141.126572 
L 217.419326 97.636949 
L 219.450456 83.974485 
L 221.227695 73.490362 
L 222.751042 65.842393 
L 224.020499 60.539974 
L 225.163009 56.67099 
L 226.178574 53.989941 
L 227.067194 52.250626 
L 227.828868 51.220758 
L 228.463596 50.691951 
L 229.098324 50.464778 
L 229.606107 50.500822 
L 230.113889 50.73039 
L 230.748617 51.288613 
L 231.383345 52.146243 
L 232.145019 53.566037 
L 233.033639 55.751192 
L 234.049204 58.925826 
L 235.191714 63.324144 
L 236.461171 69.175017 
L 237.857573 76.681257 
L 239.507866 86.816371 
L 241.538996 100.80698 
L 244.204854 120.856838 
L 250.171299 166.241725 
L 252.202429 179.822241 
L 253.852722 189.524923 
L 255.37607 197.191519 
L 256.645526 202.511078 
L 257.788037 206.396521 
L 258.803602 209.092856 
L 259.692222 210.845934 
L 260.453895 211.887805 
L 261.088623 212.426712 
L 261.723352 212.664033 
L 262.231134 212.636116 
L 262.738917 212.414663 
L 263.373645 211.866535 
L 264.008373 211.018912 
L 264.770047 209.610959 
L 265.658666 207.439303 
L 266.674231 204.279565 
L 267.816742 199.897155 
L 269.086198 194.062679 
L 270.4826 186.572639 
L 272.132894 176.453806 
L 274.164024 162.478409 
L 276.829882 142.439561 
L 282.796327 97.040258 
L 284.827457 83.443096 
L 286.47775 73.723101 
L 288.001098 66.037911 
L 289.270554 60.701233 
L 290.413065 56.799347 
L 291.42863 54.087737 
L 292.317249 52.320904 
L 293.078923 51.267034 
L 293.713651 50.71803 
L 294.348379 50.470562 
L 294.856162 50.490352 
L 295.363944 50.70369 
L 295.998673 51.241719 
L 296.633401 52.079332 
L 297.395075 53.475439 
L 298.283694 55.633585 
L 299.299259 58.778414 
L 300.44177 63.144897 
L 301.711226 68.962952 
L 303.107628 76.436761 
L 304.757921 86.53927 
L 306.789051 100.499397 
L 309.45491 120.52715 
L 315.5483 166.835562 
L 317.57943 180.349655 
L 319.229723 189.983437 
L 320.753071 197.576146 
L 322.022527 202.827758 
L 323.165038 206.647982 
L 324.180603 209.28377 
L 325.069222 210.982354 
L 325.830896 211.976708 
L 326.465624 212.475641 
L 327.100353 212.672806 
L 327.608135 212.612734 
L 328.115918 212.359181 
L 328.750646 211.771124 
L 329.385374 210.883927 
L 330.147048 209.429163 
L 331.035667 207.204146 
L 332.051232 203.98555 
L 333.193743 199.540306 
L 334.463199 193.641099 
L 335.859601 186.087147 
L 337.509895 175.904148 
L 339.541025 161.868908 
L 342.333829 140.803293 
L 348.046382 97.341596 
L 350.077512 83.711312 
L 351.854751 73.26362 
L 353.378099 65.652189 
L 354.647555 60.383371 
L 355.790066 56.546639 
L 356.805631 53.895532 
L 357.69425 52.183164 
L 358.455924 51.176794 
L 359.090652 50.667755 
L 359.72538 50.460439 
L 360.233163 50.512385 
L 360.740945 50.757827 
L 361.375674 51.335795 
L 362.010402 52.212995 
L 362.772075 53.655937 
L 363.660695 55.867481 
L 364.67626 59.071221 
L 365.818771 63.500612 
L 367.088227 69.383495 
L 368.484629 76.921341 
L 370.134922 87.088185 
L 372.166052 101.108387 
L 374.958856 122.162995 
L 380.67141 165.639052 
L 382.70254 179.285811 
L 384.479779 189.752143 
L 386.003126 197.382264 
L 387.272583 202.668266 
L 388.415093 206.521489 
L 389.430658 209.187905 
L 390.319278 210.914049 
L 391.080952 211.932431 
L 391.71568 212.451574 
L 392.350408 212.669039 
L 392.858191 212.62522 
L 393.365973 212.387891 
L 394.000701 211.820014 
L 394.635429 210.952813 
L 395.397103 209.5217 
L 396.285723 207.323638 
L 397.301288 204.134768 
L 398.443798 199.721249 
L 399.713255 193.854715 
L 401.109657 186.333007 
L 402.75995 176.18236 
L 404.79108 162.177254 
L 407.583884 141.133742 
L 413.296437 97.643509 
L 415.327568 83.980332 
L 417.104806 73.495403 
L 418.628154 65.846625 
L 419.89761 60.543461 
L 421.040121 56.673763 
L 422.055686 53.99205 
L 422.944306 52.252137 
L 423.705979 51.221748 
L 424.340707 50.692503 
L 424.975436 50.464889 
L 425.483218 50.500581 
L 425.991001 50.729796 
L 426.625729 51.28758 
L 427.260457 52.144777 
L 428.022131 53.564056 
L 428.91075 55.748626 
L 429.926315 58.922613 
L 431.068826 63.320242 
L 432.338282 69.170403 
L 433.734684 76.675941 
L 435.384978 86.810348 
L 437.416108 100.800298 
L 440.081966 120.849681 
L 446.048411 166.235197 
L 448.079541 179.816437 
L 449.729834 189.519871 
L 451.253182 197.187275 
L 452.522638 202.507578 
L 453.665149 206.393735 
L 454.680714 209.090733 
L 455.569333 210.844408 
L 456.331007 211.886801 
L 456.965735 212.426145 
L 457.600463 212.663907 
L 458.108246 212.636343 
L 458.616028 212.415242 
L 459.250757 211.867553 
L 459.885485 211.020364 
L 460.647159 209.612925 
L 461.535778 207.441856 
L 462.551343 204.282765 
L 463.693854 199.901046 
L 464.96331 194.067282 
L 466.359712 186.577946 
L 468.010005 176.459821 
L 470.041135 162.485085 
L 472.706994 142.446717 
L 478.673438 97.046793 
L 480.704569 83.448909 
L 482.354862 73.728164 
L 483.878209 66.042167 
L 485.147666 60.704747 
L 486.290176 56.802146 
L 487.305741 54.089874 
L 488.194361 52.322445 
L 488.956035 51.268053 
L 489.590763 50.718611 
L 490.225491 50.470703 
L 490.733274 50.49014 
L 491.241056 50.703125 
L 491.875784 51.240717 
L 492.510512 52.077894 
L 493.272186 53.473487 
L 494.160806 55.631047 
L 495.176371 58.775228 
L 496.318881 63.14102 
L 497.588338 68.958361 
L 498.98474 76.431464 
L 500.635033 86.533264 
L 502.666163 100.492727 
L 505.332021 120.519996 
L 511.425412 166.829059 
L 513.456542 180.343886 
L 515.106835 189.978427 
L 516.630183 197.57195 
L 517.899639 202.824309 
L 519.04215 206.64525 
L 520.057715 209.281703 
L 520.946334 210.980886 
L 521.708008 211.975762 
L 522.342736 212.475133 
L 522.977464 212.672739 
L 523.485247 212.613019 
L 523.993029 212.359818 
L 524.627758 211.7722 
L 525.262486 210.885437 
L 526.024159 209.431185 
L 526.912779 207.206753 
L 527.928344 203.988802 
L 529.070855 199.544245 
L 530.340311 193.645747 
L 531.736713 186.092493 
L 533.387006 175.910194 
L 535.418136 161.875607 
L 538.21094 140.810467 
L 543.923494 97.348142 
L 545.954624 83.717142 
L 547.731863 73.26864 
L 549.25521 65.656397 
L 550.524667 60.386833 
L 551.667177 56.549385 
L 552.682742 53.897613 
L 553.571362 52.184647 
L 554.333036 51.177755 
L 554.967764 50.668278 
L 555.602492 50.460521 
L 556.110274 50.512114 
L 556.618057 50.757204 
L 557.252785 51.334734 
L 557.887513 52.2115 
L 558.649187 53.653929 
L 559.537807 55.864888 
L 560.553372 59.067983 
L 561.695882 63.496685 
L 562.965339 69.378858 
L 564.361741 76.916004 
L 566.012034 87.082147 
L 568.043164 101.101695 
L 570.835968 122.155822 
L 576.548521 165.632499 
L 578.579652 179.279971 
L 580.35689 189.747112 
L 581.880238 197.378043 
L 583.149694 202.664791 
L 584.292205 206.51873 
L 585.30777 209.18581 
L 586.19639 210.912551 
L 586.958063 211.931454 
L 587.592791 212.451036 
L 588.22752 212.668942 
L 588.735302 212.625476 
L 589.243085 212.388499 
L 589.877813 211.82106 
L 590.512541 210.954294 
L 591.274215 209.523694 
L 592.162834 207.326218 
L 593.178399 204.137993 
L 594.32091 199.725164 
L 595.590366 193.85934 
L 596.986768 186.338333 
L 598.637062 176.18839 
L 600.668192 162.183941 
L 602.191539 150.884372 
L 602.191539 150.884372 
" clip-path="url(#p48f83ddf01)" style="fill: none; stroke: #1f77b4; stroke-width: 1.5; stroke-linecap: square"/>
   </g>
   <g id="line2d_24">
    <path d="M 82.349172 131.565766 
L 86.411433 100.697128 
L 88.569508 85.947756 
L 90.346747 75.263568 
L 91.870095 67.414103 
L 93.139551 61.925862 
L 94.282062 57.878138 
L 95.297627 55.030861 
L 96.186246 53.141716 
L 96.94792 51.981034 
L 97.582648 51.342066 
L 98.217376 51.004121 
L 98.725159 50.951386 
L 99.232941 51.092257 
L 99.86767 51.540048 
L 100.502398 52.288117 
L 101.264072 53.578156 
L 102.152691 55.615177 
L 103.168256 58.62611 
L 104.310767 62.849249 
L 105.580223 68.519091 
L 106.976625 75.845827 
L 108.626918 85.799536 
L 110.531103 98.713207 
L 113.070015 117.586781 
L 119.92508 169.521289 
L 121.95621 182.772654 
L 123.606503 192.137257 
L 125.002905 198.887768 
L 126.272361 203.981124 
L 127.414872 207.649864 
L 128.430437 210.145307 
L 129.319056 211.717778 
L 130.08073 212.602296 
L 130.715458 213.008918 
L 131.223241 213.116727 
L 131.731023 213.030901 
L 132.238806 212.751642 
L 132.873534 212.131608 
L 133.635208 210.993354 
L 134.396882 209.430906 
L 135.285501 207.08322 
L 136.301066 203.729417 
L 137.443577 199.139936 
L 138.713033 193.092242 
L 140.236381 184.641745 
L 142.01362 173.369336 
L 144.171696 158.092303 
L 147.345336 133.787042 
L 151.661488 100.901821 
L 153.819564 86.114832 
L 155.596802 75.390773 
L 157.12015 67.501586 
L 158.389606 61.976921 
L 159.532117 57.894278 
L 160.547682 55.01459 
L 161.436302 53.096263 
L 162.197975 51.910116 
L 162.832704 51.249706 
L 163.467432 50.890198 
L 163.975214 50.820177 
L 164.482997 50.943773 
L 165.117725 51.370042 
L 165.752453 52.096741 
L 166.514127 53.361442 
L 167.402746 55.369485 
L 168.291366 57.936917 
L 169.306931 61.531815 
L 170.449442 66.376921 
L 171.845844 73.366649 
L 173.369191 82.190583 
L 175.14643 93.818173 
L 177.431451 110.348867 
L 181.620657 142.738503 
L 184.794298 166.392784 
L 186.825428 179.982023 
L 188.475721 189.695376 
L 189.999069 197.374299 
L 191.268525 202.705668 
L 192.411036 206.602723 
L 193.426601 209.310003 
L 194.315221 211.073026 
L 195.076894 212.12362 
L 195.711622 212.669888 
L 196.346351 212.914616 
L 196.854133 212.892634 
L 197.361916 212.677103 
L 197.996644 212.136333 
L 198.631372 211.295984 
L 199.393046 209.896598 
L 200.281665 207.73464 
L 201.29723 204.585476 
L 202.439741 200.214149 
L 203.709197 194.390765 
L 205.105599 186.911169 
L 206.755893 176.801935 
L 208.787023 162.833724 
L 211.452881 142.79571 
L 217.546271 96.465332 
L 219.577401 82.94432 
L 221.227695 73.305028 
L 222.751042 65.7073 
L 224.020499 60.451541 
L 225.163009 56.6276 
L 226.178574 53.988513 
L 227.067194 52.287041 
L 227.828868 51.290207 
L 228.463596 50.789202 
L 229.098324 50.589958 
L 229.606107 50.648362 
L 230.113889 50.900239 
L 230.748617 51.486192 
L 231.383345 52.371272 
L 232.145019 53.823478 
L 233.033639 56.04548 
L 234.049204 59.260589 
L 235.191714 63.701849 
L 236.461171 69.596544 
L 237.857573 77.145422 
L 239.507866 87.32226 
L 241.538996 101.349657 
L 244.3318 122.404 
L 250.044353 165.840935 
L 252.075484 179.461932 
L 253.852722 189.901336 
L 255.37607 197.505569 
L 256.645526 202.768338 
L 257.788037 206.599599 
L 258.803602 209.24583 
L 259.692222 210.953927 
L 260.453895 211.956638 
L 261.088623 212.462631 
L 261.723352 212.666904 
L 262.231134 212.61253 
L 262.738917 212.364664 
L 263.373645 211.783674 
L 264.008373 210.903464 
L 264.770047 209.456926 
L 265.658666 207.241214 
L 266.674231 204.032751 
L 267.816742 199.598106 
L 269.086198 193.709467 
L 270.4826 186.165401 
L 272.132894 175.991371 
L 274.164024 161.962591 
L 276.956828 140.896696 
L 282.669381 97.399383 
L 284.700511 83.745605 
L 286.47775 73.273323 
L 288.001098 65.638223 
L 289.270554 60.348141 
L 290.413065 56.491289 
L 291.42863 53.821675 
L 292.317249 52.092747 
L 293.078923 51.071987 
L 293.713651 50.550865 
L 294.348379 50.331422 
L 294.856162 50.373658 
L 295.363944 50.609404 
L 295.998673 51.175299 
L 296.633401 52.040512 
L 297.395075 53.469233 
L 298.283694 55.664488 
L 299.299259 58.850127 
L 300.44177 63.259974 
L 301.711226 69.122374 
L 303.107628 76.639457 
L 304.757921 86.784523 
L 306.789051 100.782571 
L 309.581855 121.816019 
L 315.294409 165.284413 
L 317.325539 178.939487 
L 319.102778 189.417226 
L 320.626125 197.059793 
L 321.895582 202.357761 
L 323.038092 206.222782 
L 324.053657 208.900343 
L 324.942277 210.636634 
L 325.703951 211.663931 
L 326.338679 212.190611 
L 326.973407 212.41567 
L 327.48119 212.377945 
L 327.988972 212.146705 
L 328.6237 211.586405 
L 329.258428 210.726711 
L 330.020102 209.304461 
L 330.908722 207.116465 
L 331.924287 203.938619 
L 333.066797 199.536729 
L 334.336254 193.681943 
L 335.732656 186.17146 
L 337.382949 176.031416 
L 339.414079 162.034859 
L 342.206883 140.994067 
L 347.919436 97.474759 
L 350.077512 82.990198 
L 351.727805 73.283186 
L 353.251153 65.612634 
L 354.520609 60.289804 
L 355.66312 56.401438 
L 356.678685 53.702521 
L 357.567305 51.947195 
L 358.328978 50.903404 
L 358.963706 50.362905 
L 359.598435 50.123995 
L 360.106217 50.150646 
L 360.614 50.370835 
L 361.248728 50.917388 
L 361.883456 51.763442 
L 362.64513 53.169518 
L 363.533749 55.338994 
L 364.549314 58.496255 
L 365.691825 62.875895 
L 366.961281 68.707317 
L 368.357683 76.194028 
L 370.007977 86.30897 
L 372.039107 100.279651 
L 374.704965 120.312448 
L 380.67141 165.698912 
L 382.70254 179.291968 
L 384.352833 189.008739 
L 385.876181 196.69105 
L 387.145637 202.0254 
L 388.288148 205.92525 
L 389.303713 208.635097 
L 390.192332 210.400425 
L 390.954006 211.453033 
L 391.588734 212.001006 
L 392.223462 212.24746 
L 392.731245 212.226873 
L 393.239027 212.01275 
L 393.873756 211.473755 
L 394.508484 210.635196 
L 395.270158 209.237976 
L 396.158777 207.078567 
L 397.174342 203.932338 
L 398.316853 199.564336 
L 399.586309 193.744662 
L 400.982711 186.269155 
L 402.633004 176.164746 
L 404.664134 162.202436 
L 407.329993 142.172065 
L 413.423383 95.858595 
L 415.454513 82.343065 
L 417.104806 72.708195 
L 418.628154 65.114539 
L 419.89761 59.862178 
L 421.040121 56.04131 
L 422.055686 53.404972 
L 422.944306 51.705924 
L 423.705979 50.711185 
L 424.340707 50.211939 
L 424.975436 50.014469 
L 425.483218 50.074303 
L 425.991001 50.327623 
L 426.625729 50.915395 
L 427.260457 51.802314 
L 428.022131 53.256756 
L 428.91075 55.48141 
L 429.926315 58.699611 
L 431.068826 63.144435 
L 432.338282 69.043206 
L 433.734684 76.596719 
L 435.384978 86.779255 
L 437.416108 100.814015 
L 440.208912 121.879151 
L 445.921465 165.340624 
L 447.952595 178.97111 
L 449.729834 189.419114 
L 451.253182 197.030916 
L 452.522638 202.300121 
L 453.665149 206.137262 
L 454.680714 208.788783 
L 455.569333 210.501551 
L 456.331007 211.508293 
L 456.965735 212.017663 
L 457.600463 212.225328 
L 458.108246 212.173675 
L 458.616028 211.928539 
L 459.250757 211.350969 
L 459.885485 210.474186 
L 460.647159 209.03177 
L 461.535778 206.820873 
L 462.551343 203.617918 
L 463.693854 199.189465 
L 464.96331 193.307694 
L 466.359712 185.771153 
L 468.010005 175.605958 
L 470.041135 161.587939 
L 472.833939 140.536591 
L 478.546493 97.068008 
L 480.577623 83.424129 
L 482.354862 72.960396 
L 483.878209 65.332557 
L 485.147666 60.048492 
L 486.290176 56.197037 
L 487.305741 53.532212 
L 488.194361 51.807474 
L 488.956035 50.790307 
L 489.590763 50.272184 
L 490.225491 50.055744 
L 490.733274 50.100388 
L 491.241056 50.338546 
L 491.875784 50.907465 
L 492.510512 51.775712 
L 493.272186 53.208091 
L 494.160806 55.407638 
L 495.176371 58.598221 
L 496.318881 63.013685 
L 497.588338 68.882405 
L 498.98474 76.406546 
L 500.635033 86.560113 
L 502.666163 100.568881 
L 505.458967 121.617568 
L 511.17152 165.118987 
L 513.202651 178.786366 
L 514.979889 189.275084 
L 516.503237 196.927194 
L 517.772693 202.233198 
L 518.915204 206.105502 
L 519.930769 208.789572 
L 520.819389 210.531579 
L 521.581062 211.563786 
L 522.21579 212.094564 
L 522.850519 212.323725 
L 523.358301 212.289283 
L 523.866084 212.061326 
L 524.500812 211.505129 
L 525.13554 210.649535 
L 525.897214 209.232198 
L 526.785833 207.049923 
L 527.801398 203.878593 
L 528.943909 199.484 
L 530.213365 193.637265 
L 531.609767 186.13556 
L 533.260061 176.005764 
L 535.291191 162.021606 
L 537.957049 141.980001 
L 543.923494 96.61247 
L 545.954624 83.037491 
L 547.604917 73.33918 
L 549.128265 65.676529 
L 550.397721 60.3602 
L 551.540232 56.477628 
L 552.555797 53.783823 
L 553.444416 52.032945 
L 554.20609 50.992953 
L 554.840818 50.455609 
L 555.475546 50.21985 
L 555.983329 50.249017 
L 556.491111 50.471721 
L 557.12584 51.021415 
L 557.760568 51.870609 
L 558.522242 53.280456 
L 559.410861 55.454335 
L 560.426426 58.616639 
L 561.568937 63.001975 
L 562.838393 68.83976 
L 564.234795 76.333526 
L 565.885088 86.456895 
L 567.916218 100.438102 
L 570.582077 120.485006 
L 576.548521 165.904301 
L 578.579652 179.508895 
L 580.229945 189.235146 
L 581.753292 196.926272 
L 583.022749 202.268002 
L 584.165259 206.174509 
L 585.180824 208.89028 
L 586.069444 210.660788 
L 586.831118 211.717832 
L 587.465846 212.269495 
L 588.100574 212.519633 
L 588.608357 212.501986 
L 589.116139 212.290797 
L 589.750867 211.755459 
L 590.385595 210.920544 
L 591.147269 209.527677 
L 592.035889 207.373314 
L 593.051454 204.232806 
L 594.193964 199.871173 
L 595.463421 194.058481 
L 596.859823 186.590527 
L 598.510116 176.494854 
L 600.541246 162.542988 
L 602.191539 150.309724 
L 602.191539 150.309724 
" clip-path="url(#p48f83ddf01)" style="fill: none; stroke: #ff7f0e; stroke-width: 1.5; stroke-linecap: square"/>
   </g>
   <g id="patch_3">
    <path d="M 56.357054 221.272 
L 56.357054 41.856 
" style="fill: none; stroke: #000000; stroke-width: 0.8; stroke-linejoin: miter; stroke-linecap: square"/>
   </g>
   <g id="patch_4">
    <path d="M 628.183658 221.272 
L 628.183658 41.856 
" style="fill: none; stroke: #000000; stroke-width: 0.8; stroke-linejoin: miter; stroke-linecap: square"/>
   </g>
   <g id="patch_5">
    <path d="M 56.357054 221.272 
L 628.183658 221.272 
" style="fill: none; stroke: #000000; stroke-width: 0.8; stroke-linejoin: miter; stroke-linecap: square"/>
   </g>
   <g id="patch_6">
    <path d="M 56.357054 41.856 
L 628.183658 41.856 
" style="fill: none; stroke: #000000; stroke-width: 0.8; stroke-linejoin: miter; stroke-linecap: square"/>
   </g>
   <g id="text_14">
    <!-- Daily Useless RLC (2026-01-20) | verdict: feral -->
    <g transform="translate(203.186606 22.021875) scale(0.12 -0.12)">
     <defs>
      <path id="DejaVuSans-44" d="M 1259 4147 
L 1259 519 
L 2022 519 
Q 2988 519 3436 956 
Q 3884 1394 3884 2338 
Q 3884 3275 3436 3711 
Q 2988 4147 2022 4147 
L 1259 4147 
z
M 628 4666 
L 1925 4666 
Q 3281 4666 3915 4102 
Q 4550 3538 4550 2338 
Q 4550 1131 3912 565 
Q 3275 0 1925 0 
L 628 0 
L 628 4666 
z
" transform="scale(0.015625)"/>
      <path id="DejaVuSans-69" d="M 603 3500 
L 1178 3500 
L 1178 0 
L 603 0 
L 603 3500 
z
M 603 4863 
L 1178 4863 
L 1178 4134 
L 603 4134 
L 603 4863 
z
" transform="scale(0.015625)"/>
      <path id="DejaVuSans-6c" d="M 603 4863 
L 1178 4863 
L 1178 0 
L 603 0 
L 603 4863 
z
" transform="scale(0.015625)"/>
      <path id="DejaVuSans-79" d="M 2059 -325 
Q 1816 -950 1584 -1140 
Q 1353 -1331 966 -1331 
L 506 -1331 
L 506 -850 
L 844 -850 
Q 1081 -850 1212 -737 
Q 1344 -625 1503 -206 
L 1606 56 
L 191 3500 
L 800 3500 
L 1894 763 
L 2988 3500 
L 3597 3500 
L 2059 -325 
z
" transform="scale(0.015625)"/>
      <path id="DejaVuSans-55" d="M 556 4666 
L 1191 4666 
L 1191 1831 
Q 1191 1081 1462 751 
Q 1734 422 2344 422 
Q 2950 422 3222 751 
Q 3494 1081 3494 1831 
L 3494 4666 
L 4128 4666 
L 4128 1753 
Q 4128 841 3676 375 
Q 3225 -91 2344 -91 
Q 1459 -91 1007 375 
Q 556 841 556 1753 
L 556 4666 
z
" transform="scale(0.015625)"/>
      <path id="DejaVuSans-73" d="M 2834 3397 
L 2834 2853 
Q 2591 2978 2328 3040 
Q 2066 3103 1784 3103 
Q 1356 3103 1142 2972 
Q 928 2841 928 2578 
Q 928 2378 1081 2264 
Q 1234 2150 1697 2047 
L 1894 2003 
Q 2506 1872 2764 1633 
Q 3022 1394 3022 966 
Q 3022 478 2636 193 
Q 2250 -91 1575 -91 
Q 1294 -91 989 -36 
Q 684 19 347 128 
L 347 722 
Q 666 556 975 473 
Q 1284 391 1588 391 
Q 1994 391 2212 530 
Q 2431 669 2431 922 
Q 2431 1156 2273 1281 
Q 2116 1406 1581 1522 
L 1381 1569 
Q 847 1681 609 1914 
Q 372 2147 372 2553 
Q 372 3047 722 3315 
Q 1072 3584 1716 3584 
Q 2034 3584 2315 3537 
Q 2597 3491 2834 3397 
z
" transform="scale(0.015625)"/>
      <path id="DejaVuSans-65" d="M 3597 1894 
L 3597 1613 
L 953 1613 
Q 991 1019 1311 708 
Q 1631 397 2203 397 
Q 2534 397 2845 478 
Q 3156 559 3463 722 
L 3463 178 
Q 3153 47 2828 -22 
Q 2503 -91 2169 -91 
Q 1331 -91 842 396 
Q 353 884 353 1716 
Q 353 2575 817 3079 
Q 1281 3584 2069 3584 
Q 2775 3584 3186 3129 
Q 3597 2675 3597 1894 
z
M 3022 2063 
Q 3016 2534 2758 2815 
Q 2500 3097 2075 3097 
Q 1594 3097 1305 2825 
Q 1016 2553 972 2059 
L 3022 2063 
z
" transform="scale(0.015625)"/>
      <path id="DejaVuSans-52" d="M 2841 2188 
Q 3044 2119 3236 1894 
Q 3428 1669 3622 1275 
L 4263 0 
L 3584 0 
L 2988 1197 
Q 2756 1666 2539 1819 
Q 2322 1972 1947 1972 
L 1259 1972 
L 1259 0 
L 628 0 
L 628 4666 
L 2053 4666 
Q 2853 4666 3247 4331 
Q 3641 3997 3641 3322 
Q 3641 2881 3436 2590 
Q 3231 2300 2841 2188 
z
M 1259 4147 
L 1259 2491 
L 2053 2491 
Q 2509 2491 2742 2702 
Q 2975 2913 2975 3322 
Q 2975 3731 2742 3939 
Q 2509 4147 2053 4147 
L 1259 4147 
z
" transform="scale(0.015625)"/>
      <path id="DejaVuSans-4c" d="M 628 4666 
L 1259 4666 
L 1259 531 
L 3531 531 
L 3531 0 
L 628 0 
L 628 4666 
z
" transform="scale(0.015625)"/>
      <path id="DejaVuSans-43" d="M 4122 4306 
L 4122 3641 
Q 3803 3938 3442 4084 
Q 3081 4231 2675 4231 
Q 1875 4231 1450 3742 
Q 1025 3253 1025 2328 
Q 1025 1406 1450 917 
Q 1875 428 2675 428 
Q 3081 428 3442 575 
Q 3803 722 4122 1019 
L 4122 359 
Q 3791 134 3420 21 
Q 3050 -91 2638 -91 
Q 1578 -91 968 557 
Q 359 1206 359 2328 
Q 359 3453 968 4101 
Q 1578 4750 2638 4750 
Q 3056 4750 3426 4639 
Q 3797 4528 4122 4306 
z
" transform="scale(0.015625)"/>
      <path id="DejaVuSans-28" d="M 1984 4856 
Q 1566 4138 1362 3434 
Q 1159 2731 1159 2009 
Q 1159 1288 1364 580 
Q 1569 -128 1984 -844 
L 1484 -844 
Q 1016 -109 783 600 
Q 550 1309 550 2009 
Q 550 2706 781 3412 
Q 1013 4119 1484 4856 
L 1984 4856 
z
" transform="scale(0.015625)"/>
      <path id="DejaVuSans-2d" d="M 313 2009 
L 1997 2009 
L 1997 1497 
L 313 1497 
L 313 2009 
z
" transform="scale(0.015625)"/>
      <path id="DejaVuSans-29" d="M 513 4856 
L 1013 4856 
Q 1481 4119 1714 3412 
Q 1947 2706 1947 2009 
Q 1947 1309 1714 600 
Q 1481 -109 1013 -844 
L 513 -844 
Q 928 -128 1133 580 
Q 1338 1288 1338 2009 
Q 1338 2731 1133 3434 
Q 928 4138 513 4856 
z
" transform="scale(0.015625)"/>
      <path id="DejaVuSans-7c" d="M 1344 4891 
L 1344 -1509 
L 813 -1509 
L 813 4891 
L 1344 4891 
z
" transform="scale(0.015625)"/>
      <path id="DejaVuSans-76" d="M 191 3500 
L 800 3500 
L 1894 563 
L 2988 3500 
L 3597 3500 
L 2284 0 
L 1503 0 
L 191 3500 
z
" transform="scale(0.015625)"/>
      <path id="DejaVuSans-64" d="M 2906 2969 
L 2906 4863 
L 3481 4863 
L 3481 0 
L 2906 0 
L 2906 525 
Q 2725 213 2448 61 
Q 2172 -91 1784 -91 
Q 1150 -91 751 415 
Q 353 922 353 1747 
Q 353 2572 751 3078 
Q 1150 3584 1784 3584 
Q 2172 3584 2448 3432 
Q 2725 3281 2906 2969 
z
M 947 1747 
Q 947 1113 1208 752 
Q 1469 391 1925 391 
Q 2381 391 2643 752 
Q 2906 1113 2906 1747 
Q 2906 2381 2643 2742 
Q 2381 3103 1925 3103 
Q 1469 3103 1208 2742 
Q 947 2381 947 1747 
z
" transform="scale(0.015625)"/>
      <path id="DejaVuSans-63" d="M 3122 3366 
L 3122 2828 
Q 2878 2963 2633 3030 
Q 2388 3097 2138 3097 
Q 1578 3097 1268 2742 
Q 959 2388 959 1747 
Q 959 1106 1268 751 
Q 1578 397 2138 397 
Q 2388 397 2633 464 
Q 2878 531 3122 666 
L 3122 134 
Q 2881 22 2623 -34 
Q 2366 -91 2075 -91 
Q 1284 -91 818 406 
Q 353 903 353 1747 
Q 353 2603 823 3093 
Q 1294 3584 2113 3584 
Q 2378 3584 2631 3529 
Q 2884 3475 3122 3366 
z
" transform="scale(0.015625)"/>
      <path id="DejaVuSans-3a" d="M 750 794 
L 1409 794 
L 1409 0 
L 750 0 
L 750 794 
z
M 750 3309 
L 1409 3309 
L 1409 2516 
L 750 2516 
L 750 3309 
z
" transform="scale(0.015625)"/>
      <path id="DejaVuSans-66" d="M 2375 4863 
L 2375 4384 
L 1825 4384 
Q 1516 4384 1395 4259 
Q 1275 4134 1275 3809 
L 1275 3500 
L 2222 3500 
L 2222 3053 
L 1275 3053 
L 1275 0 
L 697 0 
L 697 3053 
L 147 3053 
L 147 3500 
L 697 3500 
L 697 3744 
Q 697 4328 969 4595 
Q 1241 4863 1831 4863 
L 2375 4863 
z
" transform="scale(0.015625)"/>
     </defs>
     <use xlink:href="#DejaVuSans-44"/>
     <use xlink:href="#DejaVuSans-61" transform="translate(77.001953 0)"/>
     <use xlink:href="#DejaVuSans-69" transform="translate(138.28125 0)"/>
     <use xlink:href="#DejaVuSans-6c" transform="translate(166.064453 0)"/>
     <use xlink:href="#DejaVuSans-79" transform="translate(193.847656 0)"/>
     <use xlink:href="#DejaVuSans-20" transform="translate(253.027344 0)"/>
     <use xlink:href="#DejaVuSans-55" transform="translate(284.814453 0)"/>
     <use xlink:href="#DejaVuSans-73" transform="translate(358.007812 0)"/>
     <use xlink:href="#DejaVuSans-65" transform="translate(410.107422 0)"/>
     <use xlink:href="#DejaVuSans-6c" transform="translate(471.630859 0)"/>
     <use xlink:href="#DejaVuSans-65" transform="translate(499.414062 0)"/>
     <use xlink:href="#DejaVuSans-73" transform="translate(560.9375 0)"/>
     <use xlink:href="#DejaVuSans-73" transform="translate(613.037109 0)"/>
     <use xlink:href="#DejaVuSans-20" transform="translate(665.136719 0)"/>
     <use xlink:href="#DejaVuSans-52" transform="translate(696.923828 0)"/>
     <use xlink:href="#DejaVuSans-4c" transform="translate(766.40625 0)"/>
     <use xlink:href="#DejaVuSans-43" transform="translate(822.119141 0)"/>
     <use xlink:href="#DejaVuSans-20" transform="translate(891.943359 0)"/>
     <use xlink:href="#DejaVuSans-28" transform="translate(923.730469 0)"/>
     <use xlink:href="#DejaVuSans-32" transform="translate(962.744141 0)"/>
     <use xlink:href="#DejaVuSans-30" transform="translate(1026.367188 0)"/>
     <use xlink:href="#DejaVuSans-32" transform="translate(1089.990234 0)"/>
     <use xlink:href="#DejaVuSans-36" transform="translate(1153.613281 0)"/>
     <use xlink:href="#DejaVuSans-2d" transform="translate(1217.236328 0)"/>
     <use xlink:href="#DejaVuSans-30" transform="translate(1253.320312 0)"/>
     <use xlink:href="#DejaVuSans-31" transform="translate(1316.943359 0)"/>
     <use xlink:href="#DejaVuSans-2d" transform="translate(1380.566406 0)"/>
     <use xlink:href="#DejaVuSans-32" transform="translate(1416.650391 0)"/>
     <use xlink:href="#DejaVuSans-30" transform="translate(1480.273438 0)"/>
     <use xlink:href="#DejaVuSans-29" transform="translate(1543.896484 0)"/>
     <use xlink:href="#DejaVuSans-20" transform="translate(1582.910156 0)"/>
     <use xlink:href="#DejaVuSans-7c" transform="translate(1614.697266 0)"/>
     <use xlink:href="#DejaVuSans-20" transform="translate(1648.388672 0)"/>
     <use xlink:href="#DejaVuSans-76" transform="translate(1680.175781 0)"/>
     <use xlink:href="#DejaVuSans-65" transform="translate(1739.355469 0)"/>
     <use xlink:href="#DejaVuSans-72" transform="translate(1800.878906 0)"/>
     <use xlink:href="#DejaVuSans-64" transform="translate(1840.242188 0)"/>
     <use xlink:href="#DejaVuSans-69" transform="translate(1903.71875 0)"/>
     <use xlink:href="#DejaVuSans-63" transform="translate(1931.501953 0)"/>
     <use xlink:href="#DejaVuSans-74" transform="translate(1986.482422 0)"/>
     <use xlink:href="#DejaVuSans-3a" transform="translate(2025.691406 0)"/>
     <use xlink:href="#DejaVuSans-20" transform="translate(2059.382812 0)"/>
     <use xlink:href="#DejaVuSans-66" transform="translate(2091.169922 0)"/>
     <use xlink:href="#DejaVuSans-65" transform="translate(2126.375 0)"/>
     <use xlink:href="#DejaVuSans-72" transform="translate(2187.898438 0)"/>
     <use xlink:href="#DejaVuSans-61" transform="translate(2229.011719 0)"/>
     <use xlink:href="#DejaVuSans-6c" transform="translate(2290.291016 0)"/>
    </g>
    <!-- Filter: notch | Input: sine, sine (A=1.31, f=0.80 Hz) | R=0.153, L=5.00, C=1.00, ωn=0.45, ζ=0.034, Q=14.64 -->
    <g transform="translate(14.816606 35.856) scale(0.12 -0.12)">
     <defs>
      <path id="DejaVuSans-46" d="M 628 4666 
L 3309 4666 
L 3309 4134 
L 1259 4134 
L 1259 2759 
L 3109 2759 
L 3109 2228 
L 1259 2228 
L 1259 0 
L 628 0 
L 628 4666 
z
" transform="scale(0.015625)"/>
      <path id="DejaVuSans-6e" d="M 3513 2113 
L 3513 0 
L 2938 0 
L 2938 2094 
Q 2938 2591 2744 2837 
Q 2550 3084 2163 3084 
Q 1697 3084 1428 2787 
Q 1159 2491 1159 1978 
L 1159 0 
L 581 0 
L 581 3500 
L 1159 3500 
L 1159 2956 
Q 1366 3272 1645 3428 
Q 1925 3584 2291 3584 
Q 2894 3584 3203 3211 
Q 3513 2838 3513 2113 
z
" transform="scale(0.015625)"/>
      <path id="DejaVuSans-6f" d="M 1959 3097 
Q 1497 3097 1228 2736 
Q 959 2375 959 1747 
Q 959 1119 1226 758 
Q 1494 397 1959 397 
Q 2419 397 2687 759 
Q 2956 1122 2956 1747 
Q 2956 2369 2687 2733 
Q 2419 3097 1959 3097 
z
M 1959 3584 
Q 2709 3584 3137 3096 
Q 3566 2609 3566 1747 
Q 3566 888 3137 398 
Q 2709 -91 1959 -91 
Q 1206 -91 779 398 
Q 353 888 353 1747 
Q 353 2609 779 3096 
Q 1206 3584 1959 3584 
z
" transform="scale(0.015625)"/>
      <path id="DejaVuSans-68" d="M 3513 2113 
L 3513 0 
L 2938 0 
L 2938 2094 
Q 2938 2591 2744 2837 
Q 2550 3084 2163 3084 
Q 1697 3084 1428 2787 
Q 1159 2491 1159 1978 
L 1159 0 
L 581 0 
L 581 4863 
L 1159 4863 
L 1159 2956 
Q 1366 3272 1645 3428 
Q 1925 3584 2291 3584 
Q 2894 3584 3203 3211 
Q 3513 2838 3513 2113 
z
" transform="scale(0.015625)"/>
      <path id="DejaVuSans-49" d="M 628 4666 
L 1259 4666 
L 1259 0 
L 628 0 
L 628 4666 
z
" transform="scale(0.015625)"/>
      <path id="DejaVuSans-70" d="M 1159 525 
L 1159 -1331 
L 581 -1331 
L 581 3500 
L 1159 3500 
L 1159 2969 
Q 1341 3281 1617 3432 
Q 1894 3584 2278 3584 
Q 2916 3584 3314 3078 
Q 3713 2572 3713 1747 
Q 3713 922 3314 415 
Q 2916 -91 2278 -91 
Q 1894 -91 1617 61 
Q 1341 213 1159 525 
z
M 3116 1747 
Q 3116 2381 2855 2742 
Q 2594 3103 2138 3103 
Q 1681 3103 1420 2742 
Q 1159 2381 1159 1747 
Q 1159 1113 1420 752 
Q 1681 391 2138 391 
Q 2594 391 2855 752 
Q 3116 1113 3116 1747 
z
" transform="scale(0.015625)"/>
      <path id="DejaVuSans-75" d="M 544 1381 
L 544 3500 
L 1119 3500 
L 1119 1403 
Q 1119 906 1312 657 
Q 1506 409 1894 409 
Q 2359 409 2629 706 
Q 2900 1003 2900 1516 
L 2900 3500 
L 3475 3500 
L 3475 0 
L 2900 0 
L 2900 538 
Q 2691 219 2414 64 
Q 2138 -91 1772 -91 
Q 1169 -91 856 284 
Q 544 659 544 1381 
z
M 1991 3584 
L 1991 3584 
z
" transform="scale(0.015625)"/>
      <path id="DejaVuSans-2c" d="M 750 794 
L 1409 794 
L 1409 256 
L 897 -744 
L 494 -744 
L 750 256 
L 750 794 
z
" transform="scale(0.015625)"/>
      <path id="DejaVuSans-41" d="M 2188 4044 
L 1331 1722 
L 3047 1722 
L 2188 4044 
z
M 1831 4666 
L 2547 4666 
L 4325 0 
L 3669 0 
L 3244 1197 
L 1141 1197 
L 716 0 
L 50 0 
L 1831 4666 
z
" transform="scale(0.015625)"/>
      <path id="DejaVuSans-3d" d="M 678 2906 
L 4684 2906 
L 4684 2381 
L 678 2381 
L 678 2906 
z
M 678 1631 
L 4684 1631 
L 4684 1100 
L 678 1100 
L 678 1631 
z
" transform="scale(0.015625)"/>
      <path id="DejaVuSans-33" d="M 2597 2516 
Q 3050 2419 3304 2112 
Q 3559 1806 3559 1356 
Q 3559 666 3084 287 
Q 2609 -91 1734 -91 
Q 1441 -91 1130 -33 
Q 819 25 488 141 
L 488 750 
Q 750 597 1062 519 
Q 1375 441 1716 441 
Q 2309 441 2620 675 
Q 2931 909 2931 1356 
Q 2931 1769 2642 2001 
Q 2353 2234 1838 2234 
L 1294 2234 
L 1294 2753 
L 1863 2753 
Q 2328 2753 2575 2939 
Q 2822 3125 2822 3475 
Q 2822 3834 2567 4026 
Q 2313 4219 1838 4219 
Q 1578 4219 1281 4162 
Q 984 4106 628 3988 
L 628 4550 
Q 988 4650 1302 4700 
Q 1616 4750 1894 4750 
Q 2613 4750 3031 4423 
Q 3450 4097 3450 3541 
Q 3450 3153 3228 2886 
Q 3006 2619 2597 2516 
z
" transform="scale(0.015625)"/>
      <path id="DejaVuSans-48" d="M 628 4666 
L 1259 4666 
L 1259 2753 
L 3553 2753 
L 3553 4666 
L 4184 4666 
L 4184 0 
L 3553 0 
L 3553 2222 
L 1259 2222 
L 1259 0 
L 628 0 
L 628 4666 
z
" transform="scale(0.015625)"/>
      <path id="DejaVuSans-7a" d="M 353 3500 
L 3084 3500 
L 3084 2975 
L 922 459 
L 3084 459 
L 3084 0 
L 275 0 
L 275 525 
L 2438 3041 
L 353 3041 
L 353 3500 
z
" transform="scale(0.015625)"/>
      <path id="DejaVuSans-3c9" d="M 1719 -91 
Q 422 -91 422 1766 
Q 422 2500 906 3500 
L 1525 3500 
Q 1078 2500 1078 1750 
Q 1078 397 1772 397 
Q 2406 397 2406 2078 
L 2938 2078 
Q 2938 397 3572 397 
Q 4266 397 4266 1750 
Q 4266 2500 3819 3500 
L 4438 3500 
Q 4922 2500 4922 1766 
Q 4922 -91 3625 -91 
Q 2775 -91 2672 844 
Q 2544 -91 1719 -91 
z
" transform="scale(0.015625)"/>
      <path id="DejaVuSans-3b6" d="M 2231 397 
Q 2644 394 2891 159 
Q 3153 -88 3153 -463 
Q 3153 -822 2922 -1072 
Q 2672 -1344 2163 -1344 
Q 2163 -1109 2163 -872 
Q 2378 -888 2509 -750 
Q 2609 -641 2609 -525 
Q 2609 -359 2509 -222 
Q 2413 -91 2231 -91 
Q 338 -91 334 1669 
Q 334 3206 2119 4284 
L 456 4284 
L 456 4863 
L 3175 4863 
L 3175 4284 
Q 913 3147 913 1669 
Q 913 397 2231 397 
z
" transform="scale(0.015625)"/>
      <path id="DejaVuSans-51" d="M 2522 4238 
Q 1834 4238 1429 3725 
Q 1025 3213 1025 2328 
Q 1025 1447 1429 934 
Q 1834 422 2522 422 
Q 3209 422 3611 934 
Q 4013 1447 4013 2328 
Q 4013 3213 3611 3725 
Q 3209 4238 2522 4238 
z
M 3406 84 
L 4238 -825 
L 3475 -825 
L 2784 -78 
Q 2681 -84 2626 -87 
Q 2572 -91 2522 -91 
Q 1538 -91 948 567 
Q 359 1225 359 2328 
Q 359 3434 948 4092 
Q 1538 4750 2522 4750 
Q 3503 4750 4090 4092 
Q 4678 3434 4678 2328 
Q 4678 1516 4351 937 
Q 4025 359 3406 84 
z
" transform="scale(0.015625)"/>
     </defs>
     <use xlink:href="#DejaVuSans-46"/>
     <use xlink:href="#DejaVuSans-69" transform="translate(50.269531 0)"/>
     <use xlink:href="#DejaVuSans-6c" transform="translate(78.052734 0)"/>
     <use xlink:href="#DejaVuSans-74" transform="translate(105.835938 0)"/>
     <use xlink:href="#DejaVuSans-65" transform="translate(145.044922 0)"/>
     <use xlink:href="#DejaVuSans-72" transform="translate(206.568359 0)"/>
     <use xlink:href="#DejaVuSans-3a" transform="translate(245.931641 0)"/>
     <use xlink:href="#DejaVuSans-20" transform="translate(279.623047 0)"/>
     <use xlink:href="#DejaVuSans-6e" transform="translate(311.410156 0)"/>
     <use xlink:href="#DejaVuSans-6f" transform="translate(374.789062 0)"/>
     <use xlink:href="#DejaVuSans-74" transform="translate(435.970703 0)"/>
     <use xlink:href="#DejaVuSans-63" transform="translate(475.179688 0)"/>
     <use xlink:href="#DejaVuSans-68" transform="translate(530.160156 0)"/>
     <use xlink:href="#DejaVuSans-20" transform="translate(593.539062 0)"/>
     <use xlink:href="#DejaVuSans-7c" transform="translate(625.326172 0)"/>
     <use xlink:href="#DejaVuSans-20" transform="translate(659.017578 0)"/>
     <use xlink:href="#DejaVuSans-49" transform="translate(690.804688 0)"/>
     <use xlink:href="#DejaVuSans-6e" transform="translate(720.296875 0)"/>
     <use xlink:href="#DejaVuSans-70" transform="translate(783.675781 0)"/>
     <use xlink:href="#DejaVuSans-75" transform="translate(847.152344 0)"/>
     <use xlink:href="#DejaVuSans-74" transform="translate(910.53125 0)"/>
     <use xlink:href="#DejaVuSans-3a" transform="translate(949.740234 0)"/>
     <use xlink:href="#DejaVuSans-20" transform="translate(983.431641 0)"/>
     <use xlink:href="#DejaVuSans-73" transform="translate(1015.21875 0)"/>
     <use xlink:href="#DejaVuSans-69" transform="translate(1067.318359 0)"/>
     <use xlink:href="#DejaVuSans-6e" transform="translate(1095.101562 0)"/>
     <use xlink:href="#DejaVuSans-65" transform="translate(1158.480469 0)"/>
     <use xlink:href="#DejaVuSans-2c" transform="translate(1220.003906 0)"/>
     <use xlink:href="#DejaVuSans-20" transform="translate(1251.791016 0)"/>
     <use xlink:href="#DejaVuSans-73" transform="translate(1283.578125 0)"/>
     <use xlink:href="#DejaVuSans-69" transform="translate(1335.677734 0)"/>
     <use xlink:href="#DejaVuSans-6e" transform="translate(1363.460938 0)"/>
     <use xlink:href="#DejaVuSans-65" transform="translate(1426.839844 0)"/>
     <use xlink:href="#DejaVuSans-20" transform="translate(1488.363281 0)"/>
     <use xlink:href="#DejaVuSans-28" transform="translate(1520.150391 0)"/>
     <use xlink:href="#DejaVuSans-41" transform="translate(1559.164062 0)"/>
     <use xlink:href="#DejaVuSans-3d" transform="translate(1627.572266 0)"/>
     <use xlink:href="#DejaVuSans-31" transform="translate(1711.361328 0)"/>
     <use xlink:href="#DejaVuSans-2e" transform="translate(1774.984375 0)"/>
     <use xlink:href="#DejaVuSans-33" transform="translate(1806.771484 0)"/>
     <use xlink:href="#DejaVuSans-31" transform="translate(1870.394531 0)"/>
     <use xlink:href="#DejaVuSans-2c" transform="translate(1934.017578 0)"/>
     <use xlink:href="#DejaVuSans-20" transform="translate(1965.804688 0)"/>
     <use xlink:href="#DejaVuSans-66" transform="translate(1997.591797 0)"/>
     <use xlink:href="#DejaVuSans-3d" transform="translate(2032.796875 0)"/>
     <use xlink:href="#DejaVuSans-30" transform="translate(2116.585938 0)"/>
     <use xlink:href="#DejaVuSans-2e" transform="translate(2180.208984 0)"/>
     <use xlink:href="#DejaVuSans-38" transform="translate(2211.996094 0)"/>
     <use xlink:href="#DejaVuSans-30" transform="translate(2275.619141 0)"/>
     <use xlink:href="#DejaVuSans-20" transform="translate(2339.242188 0)"/>
     <use xlink:href="#DejaVuSans-48" transform="translate(2371.029297 0)"/>
     <use xlink:href="#DejaVuSans-7a" transform="translate(2446.224609 0)"/>
     <use xlink:href="#DejaVuSans-29" transform="translate(2498.714844 0)"/>
     <use xlink:href="#DejaVuSans-20" transform="translate(2537.728516 0)"/>
     <use xlink:href="#DejaVuSans-7c" transform="translate(2569.515625 0)"/>
     <use xlink:href="#DejaVuSans-20" transform="translate(2603.207031 0)"/>
     <use xlink:href="#DejaVuSans-52" transform="translate(2634.994141 0)"/>
     <use xlink:href="#DejaVuSans-3d" transform="translate(2704.476562 0)"/>
     <use xlink:href="#DejaVuSans-30" transform="translate(2788.265625 0)"/>
     <use xlink:href="#DejaVuSans-2e" transform="translate(2851.888672 0)"/>
     <use xlink:href="#DejaVuSans-31" transform="translate(2883.675781 0)"/>
     <use xlink:href="#DejaVuSans-35" transform="translate(2947.298828 0)"/>
     <use xlink:href="#DejaVuSans-33" transform="translate(3010.921875 0)"/>
     <use xlink:href="#DejaVuSans-2c" transform="translate(3074.544922 0)"/>
     <use xlink:href="#DejaVuSans-20" transform="translate(3106.332031 0)"/>
     <use xlink:href="#DejaVuSans-4c" transform="translate(3138.119141 0)"/>
     <use xlink:href="#DejaVuSans-3d" transform="translate(3193.832031 0)"/>
     <use xlink:href="#DejaVuSans-35" transform="translate(3277.621094 0)"/>
     <use xlink:href="#DejaVuSans-2e" transform="translate(3341.244141 0)"/>
     <use xlink:href="#DejaVuSans-30" transform="translate(3373.03125 0)"/>
     <use xlink:href="#DejaVuSans-30" transform="translate(3436.654297 0)"/>
     <use xlink:href="#DejaVuSans-2c" transform="translate(3500.277344 0)"/>
     <use xlink:href="#DejaVuSans-20" transform="translate(3532.064453 0)"/>
     <use xlink:href="#DejaVuSans-43" transform="translate(3563.851562 0)"/>
     <use xlink:href="#DejaVuSans-3d" transform="translate(3633.675781 0)"/>
     <use xlink:href="#DejaVuSans-31" transform="translate(3717.464844 0)"/>
     <use xlink:href="#DejaVuSans-2e" transform="translate(3781.087891 0)"/>
     <use xlink:href="#DejaVuSans-30" transform="translate(3812.875 0)"/>
     <use xlink:href="#DejaVuSans-30" transform="translate(3876.498047 0)"/>
     <use xlink:href="#DejaVuSans-2c" transform="translate(3940.121094 0)"/>
     <use xlink:href="#DejaVuSans-20" transform="translate(3971.908203 0)"/>
     <use xlink:href="#DejaVuSans-3c9" transform="translate(4003.695312 0)"/>
     <use xlink:href="#DejaVuSans-6e" transform="translate(4087.435547 0)"/>
     <use xlink:href="#DejaVuSans-3d" transform="translate(4150.814453 0)"/>
     <use xlink:href="#DejaVuSans-30" transform="translate(4234.603516 0)"/>
     <use xlink:href="#DejaVuSans-2e" transform="translate(4298.226562 0)"/>
     <use xlink:href="#DejaVuSans-34" transform="translate(4330.013672 0)"/>
     <use xlink:href="#DejaVuSans-35" transform="translate(4393.636719 0)"/>
     <use xlink:href="#DejaVuSans-2c" transform="translate(4457.259766 0)"/>
     <use xlink:href="#DejaVuSans-20" transform="translate(4489.046875 0)"/>
     <use xlink:href="#DejaVuSans-3b6" transform="translate(4520.833984 0)"/>
     <use xlink:href="#DejaVuSans-3d" transform="translate(4575.228516 0)"/>
     <use xlink:href="#DejaVuSans-30" transform="translate(4659.017578 0)"/>
     <use xlink:href="#DejaVuSans-2e" transform="translate(4722.640625 0)"/>
     <use xlink:href="#DejaVuSans-30" transform="translate(4754.427734 0)"/>
     <use xlink:href="#DejaVuSans-33" transform="translate(4818.050781 0)"/>
     <use xlink:href="#DejaVuSans-34" transform="translate(4881.673828 0)"/>
     <use xlink:href="#DejaVuSans-2c" transform="translate(4945.296875 0)"/>
     <use xlink:href="#DejaVuSans-20" transform="translate(4977.083984 0)"/>
     <use xlink:href="#DejaVuSans-51" transform="translate(5008.871094 0)"/>
     <use xlink:href="#DejaVuSans-3d" transform="translate(5087.582031 0)"/>
     <use xlink:href="#DejaVuSans-31" transform="translate(5171.371094 0)"/>
     <use xlink:href="#DejaVuSans-34" transform="translate(5234.994141 0)"/>
     <use xlink:href="#DejaVuSans-2e" transform="translate(5298.617188 0)"/>
     <use xlink:href="#DejaVuSans-36" transform="translate(5330.404297 0)"/>
     <use xlink:href="#DejaVuSans-34" transform="translate(5394.027344 0)"/>
    </g>
   </g>
   <g id="legend_1">
    <g id="patch_7">
     <path d="M 556.200845 147.742125 
L 621.183658 147.742125 
Q 623.183658 147.742125 623.183658 145.742125 
L 623.183658 117.385875 
Q 623.183658 115.385875 621.183658 115.385875 
L 556.200845 115.385875 
Q 554.200845 115.385875 554.200845 117.385875 
L 554.200845 145.742125 
Q 554.200845 147.742125 556.200845 147.742125 
z
" style="fill: #ffffff; opacity: 0.8; stroke: #cccccc; stroke-linejoin: miter"/>
    </g>
    <g id="line2d_25">
     <path d="M 558.200845 123.484312 
L 568.200845 123.484312 
L 578.200845 123.484312 
" style="fill: none; stroke: #1f77b4; stroke-width: 1.5; stroke-linecap: square"/>
    </g>
    <g id="text_15">
     <!-- input -->
     <g transform="translate(586.200845 126.984312) scale(0.1 -0.1)">
      <use xlink:href="#DejaVuSans-69"/>
      <use xlink:href="#DejaVuSans-6e" transform="translate(27.783203 0)"/>
      <use xlink:href="#DejaVuSans-70" transform="translate(91.162109 0)"/>
      <use xlink:href="#DejaVuSans-75" transform="translate(154.638672 0)"/>
      <use xlink:href="#DejaVuSans-74" transform="translate(218.017578 0)"/>
     </g>
    </g>
    <g id="line2d_26">
     <path d="M 558.200845 138.162438 
L 568.200845 138.162438 
L 578.200845 138.162438 
" style="fill: none; stroke: #ff7f0e; stroke-width: 1.5; stroke-linecap: square"/>
    </g>
    <g id="text_16">
     <!-- output -->
     <g transform="translate(586.200845 141.662438) scale(0.1 -0.1)">
      <use xlink:href="#DejaVuSans-6f"/>
      <use xlink:href="#DejaVuSans-75" transform="translate(61.181641 0)"/>
      <use xlink:href="#DejaVuSans-74" transform="translate(124.560547 0)"/>
      <use xlink:href="#DejaVuSans-70" transform="translate(163.769531 0)"/>
      <use xlink:href="#DejaVuSans-75" transform="translate(227.246094 0)"/>
      <use xlink:href="#DejaVuSans-74" transform="translate(290.625 0)"/>
     </g>
    </g>
   </g>
  </g>
  <g id="axes_2">
   <g id="patch_8">
    <path d="M 56.357054 458.728 
L 628.183658 458.728 
L 628.183658 279.312 
L 56.357054 279.312 
z
" style="fill: #ffffff"/>
   </g>
   <g id="matplotlib.axis_3">
    <g id="xtick_7">
     <g id="line2d_27">
      <path d="M 56.357054 458.728 
L 56.357054 279.312 
" clip-path="url(#p27babf2cb1)" style="fill: none; stroke: #b0b0b0; stroke-opacity: 0.25; stroke-width: 0.8; stroke-linecap: square"/>
     </g>
     <g id="line2d_28">
      <g>
       <use xlink:href="#m8509507884" x="56.357054" y="458.728" style="stroke: #000000; stroke-width: 0.8"/>
      </g>
     </g>
     <g id="text_17">
      <!-- $\mathdefault{10^{-1}}$ -->
      <g transform="translate(44.607054 473.326438) scale(0.1 -0.1)">
       <use xlink:href="#DejaVuSans-31" transform="translate(0 0.684375)"/>
       <use xlink:href="#DejaVuSans-30" transform="translate(63.623047 0.684375)"/>
       <use xlink:href="#DejaVuSans-2212" transform="translate(128.203125 38.965625) scale(0.7)"/>
       <use xlink:href="#DejaVuSans-31" transform="translate(186.855469 38.965625) scale(0.7)"/>
      </g>
     </g>
    </g>
    <g id="xtick_8">
     <g id="line2d_29">
      <path d="M 342.270356 458.728 
L 342.270356 279.312 
" clip-path="url(#p27babf2cb1)" style="fill: none; stroke: #b0b0b0; stroke-opacity: 0.25; stroke-width: 0.8; stroke-linecap: square"/>
     </g>
     <g id="line2d_30">
      <g>
       <use xlink:href="#m8509507884" x="342.270356" y="458.728" style="stroke: #000000; stroke-width: 0.8"/>
      </g>
     </g>
     <g id="text_18">
      <!-- $\mathdefault{10^{0}}$ -->
      <g transform="translate(333.470356 473.326438) scale(0.1 -0.1)">
       <use xlink:href="#DejaVuSans-31" transform="translate(0 0.765625)"/>
       <use xlink:href="#DejaVuSans-30" transform="translate(63.623047 0.765625)"/>
       <use xlink:href="#DejaVuSans-30" transform="translate(128.203125 39.046875) scale(0.7)"/>
      </g>
     </g>
    </g>
    <g id="xtick_9">
     <g id="line2d_31">
      <path d="M 628.183658 458.728 
L 628.183658 279.312 
" clip-path="url(#p27babf2cb1)" style="fill: none; stroke: #b0b0b0; stroke-opacity: 0.25; stroke-width: 0.8; stroke-linecap: square"/>
     </g>
     <g id="line2d_32">
      <g>
       <use xlink:href="#m8509507884" x="628.183658" y="458.728" style="stroke: #000000; stroke-width: 0.8"/>
      </g>
     </g>
     <g id="text_19">
      <!-- $\mathdefault{10^{1}}$ -->
      <g transform="translate(619.383658 473.326438) scale(0.1 -0.1)">
       <use xlink:href="#DejaVuSans-31" transform="translate(0 0.684375)"/>
       <use xlink:href="#DejaVuSans-30" transform="translate(63.623047 0.684375)"/>
       <use xlink:href="#DejaVuSans-31" transform="translate(128.203125 38.965625) scale(0.7)"/>
      </g>
     </g>
    </g>
    <g id="xtick_10">
     <g id="line2d_33">
      <defs>
       <path id="madb495c06e" d="M 0 0 
L 0 2 
" style="stroke: #000000; stroke-width: 0.6"/>
      </defs>
      <g>
       <use xlink:href="#madb495c06e" x="142.425534" y="458.728" style="stroke: #000000; stroke-width: 0.6"/>
      </g>
     </g>
    </g>
    <g id="xtick_11">
     <g id="line2d_34">
      <g>
       <use xlink:href="#madb495c06e" x="192.772367" y="458.728" style="stroke: #000000; stroke-width: 0.6"/>
      </g>
     </g>
    </g>
    <g id="xtick_12">
     <g id="line2d_35">
      <g>
       <use xlink:href="#madb495c06e" x="228.494014" y="458.728" style="stroke: #000000; stroke-width: 0.6"/>
      </g>
     </g>
    </g>
    <g id="xtick_13">
     <g id="line2d_36">
      <g>
       <use xlink:href="#madb495c06e" x="256.201876" y="458.728" style="stroke: #000000; stroke-width: 0.6"/>
      </g>
     </g>
    </g>
    <g id="xtick_14">
     <g id="line2d_37">
      <g>
       <use xlink:href="#madb495c06e" x="278.840847" y="458.728" style="stroke: #000000; stroke-width: 0.6"/>
      </g>
     </g>
    </g>
    <g id="xtick_15">
     <g id="line2d_38">
      <g>
       <use xlink:href="#madb495c06e" x="297.981825" y="458.728" style="stroke: #000000; stroke-width: 0.6"/>
      </g>
     </g>
    </g>
    <g id="xtick_16">
     <g id="line2d_39">
      <g>
       <use xlink:href="#madb495c06e" x="314.562494" y="458.728" style="stroke: #000000; stroke-width: 0.6"/>
      </g>
     </g>
    </g>
    <g id="xtick_17">
     <g id="line2d_40">
      <g>
       <use xlink:href="#madb495c06e" x="329.187681" y="458.728" style="stroke: #000000; stroke-width: 0.6"/>
      </g>
     </g>
    </g>
    <g id="xtick_18">
     <g id="line2d_41">
      <g>
       <use xlink:href="#madb495c06e" x="428.338836" y="458.728" style="stroke: #000000; stroke-width: 0.6"/>
      </g>
     </g>
    </g>
    <g id="xtick_19">
     <g id="line2d_42">
      <g>
       <use xlink:href="#madb495c06e" x="478.685669" y="458.728" style="stroke: #000000; stroke-width: 0.6"/>
      </g>
     </g>
    </g>
    <g id="xtick_20">
     <g id="line2d_43">
      <g>
       <use xlink:href="#madb495c06e" x="514.407316" y="458.728" style="stroke: #000000; stroke-width: 0.6"/>
      </g>
     </g>
    </g>
    <g id="xtick_21">
     <g id="line2d_44">
      <g>
       <use xlink:href="#madb495c06e" x="542.115178" y="458.728" style="stroke: #000000; stroke-width: 0.6"/>
      </g>
     </g>
    </g>
    <g id="xtick_22">
     <g id="line2d_45">
      <g>
       <use xlink:href="#madb495c06e" x="564.754149" y="458.728" style="stroke: #000000; stroke-width: 0.6"/>
      </g>
     </g>
    </g>
    <g id="xtick_23">
     <g id="line2d_46">
      <g>
       <use xlink:href="#madb495c06e" x="583.895127" y="458.728" style="stroke: #000000; stroke-width: 0.6"/>
      </g>
     </g>
    </g>
    <g id="xtick_24">
     <g id="line2d_47">
      <g>
       <use xlink:href="#madb495c06e" x="600.475796" y="458.728" style="stroke: #000000; stroke-width: 0.6"/>
      </g>
     </g>
    </g>
    <g id="xtick_25">
     <g id="line2d_48">
      <g>
       <use xlink:href="#madb495c06e" x="615.100982" y="458.728" style="stroke: #000000; stroke-width: 0.6"/>
      </g>
     </g>
    </g>
    <g id="text_20">
     <!-- frequency [arb.] -->
     <g transform="translate(301.820356 487.004563) scale(0.1 -0.1)">
      <defs>
       <path id="DejaVuSans-71" d="M 947 1747 
Q 947 1113 1208 752 
Q 1469 391 1925 391 
Q 2381 391 2643 752 
Q 2906 1113 2906 1747 
Q 2906 2381 2643 2742 
Q 2381 3103 1925 3103 
Q 1469 3103 1208 2742 
Q 947 2381 947 1747 
z
M 2906 525 
Q 2725 213 2448 61 
Q 2172 -91 1784 -91 
Q 1150 -91 751 415 
Q 353 922 353 1747 
Q 353 2572 751 3078 
Q 1150 3584 1784 3584 
Q 2172 3584 2448 3432 
Q 2725 3281 2906 2969 
L 2906 3500 
L 3481 3500 
L 3481 -1331 
L 2906 -1331 
L 2906 525 
z
" transform="scale(0.015625)"/>
      </defs>
      <use xlink:href="#DejaVuSans-66"/>
      <use xlink:href="#DejaVuSans-72" transform="translate(35.205078 0)"/>
      <use xlink:href="#DejaVuSans-65" transform="translate(74.068359 0)"/>
      <use xlink:href="#DejaVuSans-71" transform="translate(135.591797 0)"/>
      <use xlink:href="#DejaVuSans-75" transform="translate(199.068359 0)"/>
      <use xlink:href="#DejaVuSans-65" transform="translate(262.447266 0)"/>
      <use xlink:href="#DejaVuSans-6e" transform="translate(323.970703 0)"/>
      <use xlink:href="#DejaVuSans-63" transform="translate(387.349609 0)"/>
      <use xlink:href="#DejaVuSans-79" transform="translate(442.330078 0)"/>
      <use xlink:href="#DejaVuSans-20" transform="translate(501.509766 0)"/>
      <use xlink:href="#DejaVuSans-5b" transform="translate(533.296875 0)"/>
      <use xlink:href="#DejaVuSans-61" transform="translate(572.310547 0)"/>
      <use xlink:href="#DejaVuSans-72" transform="translate(633.589844 0)"/>
      <use xlink:href="#DejaVuSans-62" transform="translate(674.703125 0)"/>
      <use xlink:href="#DejaVuSans-2e" transform="translate(738.179688 0)"/>
      <use xlink:href="#DejaVuSans-5d" transform="translate(769.966797 0)"/>
     </g>
    </g>
   </g>
   <g id="matplotlib.axis_4">
    <g id="ytick_6">
     <g id="line2d_49">
      <path d="M 56.357054 441.796341 
L 628.183658 441.796341 
" clip-path="url(#p27babf2cb1)" style="fill: none; stroke: #b0b0b0; stroke-opacity: 0.25; stroke-width: 0.8; stroke-linecap: square"/>
     </g>
     <g id="line2d_50">
      <g>
       <use xlink:href="#m7dfc76afff" x="56.357054" y="441.796341" style="stroke: #000000; stroke-width: 0.8"/>
      </g>
     </g>
     <g id="text_21">
      <!-- $\mathdefault{10^{-8}}$ -->
      <g transform="translate(25.857054 445.59556) scale(0.1 -0.1)">
       <use xlink:href="#DejaVuSans-31" transform="translate(0 0.765625)"/>
       <use xlink:href="#DejaVuSans-30" transform="translate(63.623047 0.765625)"/>
       <use xlink:href="#DejaVuSans-2212" transform="translate(128.203125 39.046875) scale(0.7)"/>
       <use xlink:href="#DejaVuSans-38" transform="translate(186.855469 39.046875) scale(0.7)"/>
      </g>
     </g>
    </g>
    <g id="ytick_7">
     <g id="line2d_51">
      <path d="M 56.357054 414.060683 
L 628.183658 414.060683 
" clip-path="url(#p27babf2cb1)" style="fill: none; stroke: #b0b0b0; stroke-opacity: 0.25; stroke-width: 0.8; stroke-linecap: square"/>
     </g>
     <g id="line2d_52">
      <g>
       <use xlink:href="#m7dfc76afff" x="56.357054" y="414.060683" style="stroke: #000000; stroke-width: 0.8"/>
      </g>
     </g>
     <g id="text_22">
      <!-- $\mathdefault{10^{-6}}$ -->
      <g transform="translate(25.857054 417.859902) scale(0.1 -0.1)">
       <use xlink:href="#DejaVuSans-31" transform="translate(0 0.765625)"/>
       <use xlink:href="#DejaVuSans-30" transform="translate(63.623047 0.765625)"/>
       <use xlink:href="#DejaVuSans-2212" transform="translate(128.203125 39.046875) scale(0.7)"/>
       <use xlink:href="#DejaVuSans-36" transform="translate(186.855469 39.046875) scale(0.7)"/>
      </g>
     </g>
    </g>
    <g id="ytick_8">
     <g id="line2d_53">
      <path d="M 56.357054 386.325025 
L 628.183658 386.325025 
" clip-path="url(#p27babf2cb1)" style="fill: none; stroke: #b0b0b0; stroke-opacity: 0.25; stroke-width: 0.8; stroke-linecap: square"/>
     </g>
     <g id="line2d_54">
      <g>
       <use xlink:href="#m7dfc76afff" x="56.357054" y="386.325025" style="stroke: #000000; stroke-width: 0.8"/>
      </g>
     </g>
     <g id="text_23">
      <!-- $\mathdefault{10^{-4}}$ -->
      <g transform="translate(25.857054 390.124243) scale(0.1 -0.1)">
       <use xlink:href="#DejaVuSans-31" transform="translate(0 0.684375)"/>
       <use xlink:href="#DejaVuSans-30" transform="translate(63.623047 0.684375)"/>
       <use xlink:href="#DejaVuSans-2212" transform="translate(128.203125 38.965625) scale(0.7)"/>
       <use xlink:href="#DejaVuSans-34" transform="translate(186.855469 38.965625) scale(0.7)"/>
      </g>
     </g>
    </g>
    <g id="ytick_9">
     <g id="line2d_55">
      <path d="M 56.357054 358.589366 
L 628.183658 358.589366 
" clip-path="url(#p27babf2cb1)" style="fill: none; stroke: #b0b0b0; stroke-opacity: 0.25; stroke-width: 0.8; stroke-linecap: square"/>
     </g>
     <g id="line2d_56">
      <g>
       <use xlink:href="#m7dfc76afff" x="56.357054" y="358.589366" style="stroke: #000000; stroke-width: 0.8"/>
      </g>
     </g>
     <g id="text_24">
      <!-- $\mathdefault{10^{-2}}$ -->
      <g transform="translate(25.857054 362.388585) scale(0.1 -0.1)">
       <use xlink:href="#DejaVuSans-31" transform="translate(0 0.765625)"/>
       <use xlink:href="#DejaVuSans-30" transform="translate(63.623047 0.765625)"/>
       <use xlink:href="#DejaVuSans-2212" transform="translate(128.203125 39.046875) scale(0.7)"/>
       <use xlink:href="#DejaVuSans-32" transform="translate(186.855469 39.046875) scale(0.7)"/>
      </g>
     </g>
    </g>
    <g id="ytick_10">
     <g id="line2d_57">
      <path d="M 56.357054 330.853708 
L 628.183658 330.853708 
" clip-path="url(#p27babf2cb1)" style="fill: none; stroke: #b0b0b0; stroke-opacity: 0.25; stroke-width: 0.8; stroke-linecap: square"/>
     </g>
     <g id="line2d_58">
      <g>
       <use xlink:href="#m7dfc76afff" x="56.357054" y="330.853708" style="stroke: #000000; stroke-width: 0.8"/>
      </g>
     </g>
     <g id="text_25">
      <!-- $\mathdefault{10^{0}}$ -->
      <g transform="translate(31.757054 334.652927) scale(0.1 -0.1)">
       <use xlink:href="#DejaVuSans-31" transform="translate(0 0.765625)"/>
       <use xlink:href="#DejaVuSans-30" transform="translate(63.623047 0.765625)"/>
       <use xlink:href="#DejaVuSans-30" transform="translate(128.203125 39.046875) scale(0.7)"/>
      </g>
     </g>
    </g>
    <g id="ytick_11">
     <g id="line2d_59">
      <path d="M 56.357054 303.11805 
L 628.183658 303.11805 
" clip-path="url(#p27babf2cb1)" style="fill: none; stroke: #b0b0b0; stroke-opacity: 0.25; stroke-width: 0.8; stroke-linecap: square"/>
     </g>
     <g id="line2d_60">
      <g>
       <use xlink:href="#m7dfc76afff" x="56.357054" y="303.11805" style="stroke: #000000; stroke-width: 0.8"/>
      </g>
     </g>
     <g id="text_26">
      <!-- $\mathdefault{10^{2}}$ -->
      <g transform="translate(31.757054 306.917269) scale(0.1 -0.1)">
       <use xlink:href="#DejaVuSans-31" transform="translate(0 0.765625)"/>
       <use xlink:href="#DejaVuSans-30" transform="translate(63.623047 0.765625)"/>
       <use xlink:href="#DejaVuSans-32" transform="translate(128.203125 39.046875) scale(0.7)"/>
      </g>
     </g>
    </g>
    <g id="text_27">
     <!-- |FFT(.)| -->
     <g transform="translate(19.499241 386.597344) rotate(-90) scale(0.1 -0.1)">
      <defs>
       <path id="DejaVuSans-54" d="M -19 4666 
L 3928 4666 
L 3928 4134 
L 2272 4134 
L 2272 0 
L 1638 0 
L 1638 4134 
L -19 4134 
L -19 4666 
z
" transform="scale(0.015625)"/>
      </defs>
      <use xlink:href="#DejaVuSans-7c"/>
      <use xlink:href="#DejaVuSans-46" transform="translate(33.691406 0)"/>
      <use xlink:href="#DejaVuSans-46" transform="translate(91.210938 0)"/>
      <use xlink:href="#DejaVuSans-54" transform="translate(146.980469 0)"/>
      <use xlink:href="#DejaVuSans-28" transform="translate(208.064453 0)"/>
      <use xlink:href="#DejaVuSans-2e" transform="translate(247.078125 0)"/>
      <use xlink:href="#DejaVuSans-29" transform="translate(278.865234 0)"/>
      <use xlink:href="#DejaVuSans-7c" transform="translate(317.878906 0)"/>
     </g>
    </g>
   </g>
   <g id="line2d_61">
    <path d="M 56.357054 332.895634 
L 142.425534 340.697426 
L 192.772367 336.508035 
L 228.494014 331.980243 
L 256.201876 326.286558 
L 278.840847 317.7547 
L 297.981825 291.314357 
L 314.562494 287.467273 
L 329.187681 291.970652 
L 342.270356 318.698114 
L 354.105075 326.911207 
L 364.909327 332.37827 
L 374.848276 336.519709 
L 384.050305 339.860339 
L 392.617189 342.659899 
L 400.630974 345.067836 
L 408.158768 347.178679 
L 415.256161 349.056282 
L 421.969718 350.745919 
L 428.338836 352.280914 
L 434.397138 353.686528 
L 440.173555 354.982375 
L 445.693156 356.18399 
L 450.977807 357.303885 
L 456.046698 358.352284 
L 460.916756 359.337642 
L 465.602994 360.267029 
L 470.118785 361.146415 
L 474.476094 361.980881 
L 478.685669 362.774788 
L 482.7572 363.531904 
L 486.699454 364.255502 
L 490.520388 364.948448 
L 494.227248 365.613259 
L 497.826647 366.25216 
L 501.324641 366.867124 
L 504.726787 367.459911 
L 508.038198 368.032095 
L 511.263589 368.58509 
L 514.407316 369.12017 
L 517.473412 369.638487 
L 520.465618 370.141086 
L 523.387414 370.628916 
L 526.242035 371.102846 
L 529.032502 371.563667 
L 531.761636 372.012106 
L 534.432073 372.448832 
L 537.046287 372.874458 
L 539.606596 373.289553 
L 542.115178 373.694641 
L 544.574081 374.090209 
L 546.985236 374.476709 
L 549.350461 374.854559 
L 551.671474 375.224151 
L 553.949897 375.58585 
L 556.187265 375.939997 
L 558.385032 376.286912 
L 560.544574 376.626892 
L 562.6672 376.960218 
L 564.754149 377.287155 
L 566.806602 377.607951 
L 568.82568 377.922839 
L 570.812452 378.232039 
L 572.767934 378.535761 
L 574.693098 378.8342 
L 576.588868 379.127543 
L 578.45613 379.415966 
L 580.295728 379.699637 
L 582.108469 379.978714 
L 583.895127 380.253349 
L 585.656441 380.523683 
L 587.393121 380.789855 
L 589.105845 381.051993 
L 590.795267 381.310222 
L 592.462011 381.564659 
L 594.106678 381.815418 
L 595.729846 382.062606 
L 597.332069 382.306326 
L 598.913881 382.546676 
L 600.475796 382.783752 
L 602.018307 383.017642 
L 603.541892 383.248435 
L 605.047008 383.476212 
L 606.534098 383.701054 
L 608.00359 383.923037 
L 609.455894 384.142234 
L 610.891407 384.358716 
L 612.310515 384.572552 
L 613.713587 384.783806 
L 615.100982 384.992542 
L 616.473047 385.19882 
L 617.830116 385.402698 
L 619.172513 385.604233 
L 620.500554 385.80348 
L 621.81454 386.000491 
L 623.114767 386.195316 
L 624.40152 386.388004 
L 625.675076 386.578603 
L 626.935702 386.767159 
L 628.183658 386.953715 
L 629.419196 387.138314 
" clip-path="url(#p27babf2cb1)" style="fill: none; stroke: #1f77b4; stroke-opacity: 0.6; stroke-width: 1.5; stroke-linecap: square"/>
   </g>
   <g id="line2d_62">
    <path d="M 56.357054 320.357593 
L 142.425534 325.532742 
L 192.772367 334.154839 
L 228.494014 331.560254 
L 256.201876 326.20849 
L 278.840847 317.744276 
L 297.981825 291.314551 
L 314.562494 287.467359 
L 329.187681 291.970807 
L 342.270356 318.700729 
L 354.105075 326.918626 
L 364.909327 332.392275 
L 374.848276 336.541492 
L 384.050305 339.890602 
L 392.617189 342.698974 
L 400.630974 345.115786 
L 408.158768 347.235377 
L 415.256161 349.121474 
L 421.969718 350.819271 
L 428.338836 352.362041 
L 434.397138 353.775021 
L 440.173555 355.077817 
L 445.693156 356.285966 
L 450.977807 357.411992 
L 456.046698 358.466134 
L 460.916756 359.456865 
L 465.602994 360.391277 
L 470.118785 361.27536 
L 474.476094 362.114217 
L 478.685669 362.912229 
L 482.7572 363.673183 
L 486.699454 364.400373 
L 490.520388 365.09668 
L 494.227248 365.764639 
L 497.826647 366.40649 
L 501.324641 367.024222 
L 504.726787 367.619606 
L 508.038198 368.19423 
L 511.263589 368.749518 
L 514.407316 369.286755 
L 517.473412 369.807104 
L 520.465618 370.311617 
L 523.387414 370.801253 
L 526.242035 371.276887 
L 529.032502 371.739318 
L 531.761636 372.189279 
L 534.432073 372.627444 
L 537.046287 373.054434 
L 539.606596 373.47082 
L 542.115178 373.877134 
L 544.574081 374.273864 
L 546.985236 374.661467 
L 549.350461 375.040366 
L 551.671474 375.410956 
L 553.949897 375.773605 
L 556.187265 376.128655 
L 558.385032 376.476431 
L 560.544574 376.817231 
L 562.6672 377.151341 
L 564.754149 377.479026 
L 566.806602 377.800535 
L 568.82568 378.116105 
L 570.812452 378.425958 
L 572.767934 378.730304 
L 574.693098 379.02934 
L 576.588868 379.323255 
L 578.45613 379.612227 
L 580.295728 379.896423 
L 582.108469 380.176004 
L 583.895127 380.451122 
L 585.656441 380.72192 
L 587.393121 380.988537 
L 589.105845 381.251104 
L 590.795267 381.509744 
L 592.462011 381.764577 
L 594.106678 382.015716 
L 595.729846 382.26327 
L 597.332069 382.507342 
L 598.913881 382.748032 
L 600.475796 382.985434 
L 602.018307 383.21964 
L 603.541892 383.450736 
L 605.047008 383.678806 
L 606.534098 383.90393 
L 608.00359 384.126185 
L 609.455894 384.345645 
L 610.891407 384.562381 
L 612.310515 384.776462 
L 613.713587 384.987953 
L 615.100982 385.196917 
L 616.473047 385.403416 
L 617.830116 385.607508 
L 619.172513 385.809249 
L 620.500554 386.008696 
L 621.81454 386.205899 
L 623.114767 386.400911 
L 624.40152 386.59378 
L 625.675076 386.784554 
L 626.935702 386.973279 
L 628.183658 387.159998 
L 629.419196 387.344756 
" clip-path="url(#p27babf2cb1)" style="fill: none; stroke: #ff7f0e; stroke-width: 1.5; stroke-linecap: square"/>
   </g>
   <g id="patch_9">
    <path d="M 56.357054 458.728 
L 56.357054 279.312 
" style="fill: none; stroke: #000000; stroke-width: 0.8; stroke-linejoin: miter; stroke-linecap: square"/>
   </g>
   <g id="patch_10">
    <path d="M 628.183658 458.728 
L 628.183658 279.312 
" style="fill: none; stroke: #000000; stroke-width: 0.8; stroke-linejoin: miter; stroke-linecap: square"/>
   </g>
   <g id="patch_11">
    <path d="M 56.357054 458.728 
L 628.183658 458.728 
" style="fill: none; stroke: #000000; stroke-width: 0.8; stroke-linejoin: miter; stroke-linecap: square"/>
   </g>
   <g id="patch_12">
    <path d="M 56.357054 279.312 
L 628.183658 279.312 
" style="fill: none; stroke: #000000; stroke-width: 0.8; stroke-linejoin: miter; stroke-linecap: square"/>
   </g>
   <g id="text_28">
    <!-- Output FFT peak ≈ 0.800 (arb.), magnitude ≈ 1.345e+03 | band/flat-ish -->
    <g transform="translate(125.870981 273.312) scale(0.12 -0.12)">
     <defs>
      <path id="DejaVuSans-4f" d="M 2522 4238 
Q 1834 4238 1429 3725 
Q 1025 3213 1025 2328 
Q 1025 1447 1429 934 
Q 1834 422 2522 422 
Q 3209 422 3611 934 
Q 4013 1447 4013 2328 
Q 4013 3213 3611 3725 
Q 3209 4238 2522 4238 
z
M 2522 4750 
Q 3503 4750 4090 4092 
Q 4678 3434 4678 2328 
Q 4678 1225 4090 567 
Q 3503 -91 2522 -91 
Q 1538 -91 948 565 
Q 359 1222 359 2328 
Q 359 3434 948 4092 
Q 1538 4750 2522 4750 
z
" transform="scale(0.015625)"/>
      <path id="DejaVuSans-6b" d="M 581 4863 
L 1159 4863 
L 1159 1991 
L 2875 3500 
L 3609 3500 
L 1753 1863 
L 3688 0 
L 2938 0 
L 1159 1709 
L 1159 0 
L 581 0 
L 581 4863 
z
" transform="scale(0.015625)"/>
      <path id="DejaVuSans-2248" d="M 4684 1947 
L 4684 1388 
Q 4356 1144 4076 1036 
Q 3797 928 3494 928 
Q 3150 928 2694 1113 
Q 2663 1125 2641 1134 
Q 2622 1141 2575 1159 
Q 2091 1350 1797 1350 
Q 1522 1350 1253 1231 
Q 984 1113 678 850 
L 678 1409 
Q 1006 1653 1286 1761 
Q 1566 1869 1869 1869 
Q 2213 1869 2672 1684 
Q 2706 1669 2722 1663 
Q 2741 1656 2788 1638 
Q 3272 1447 3566 1447 
Q 3834 1447 4098 1564 
Q 4363 1681 4684 1947 
z
M 4684 3163 
L 4684 2606 
Q 4356 2359 4076 2251 
Q 3797 2144 3494 2144 
Q 3150 2144 2694 2328 
Q 2663 2341 2641 2350 
Q 2622 2356 2575 2375 
Q 2091 2566 1797 2566 
Q 1522 2566 1253 2447 
Q 984 2328 678 2069 
L 678 2625 
Q 1006 2869 1286 2976 
Q 1566 3084 1869 3084 
Q 2213 3084 2672 2900 
Q 2703 2888 2719 2881 
Q 2741 2872 2788 2853 
Q 3272 2663 3566 2663 
Q 3834 2663 4098 2780 
Q 4363 2897 4684 3163 
z
" transform="scale(0.015625)"/>
      <path id="DejaVuSans-6d" d="M 3328 2828 
Q 3544 3216 3844 3400 
Q 4144 3584 4550 3584 
Q 5097 3584 5394 3201 
Q 5691 2819 5691 2113 
L 5691 0 
L 5113 0 
L 5113 2094 
Q 5113 2597 4934 2840 
Q 4756 3084 4391 3084 
Q 3944 3084 3684 2787 
Q 3425 2491 3425 1978 
L 3425 0 
L 2847 0 
L 2847 2094 
Q 2847 2600 2669 2842 
Q 2491 3084 2119 3084 
Q 1678 3084 1418 2786 
Q 1159 2488 1159 1978 
L 1159 0 
L 581 0 
L 581 3500 
L 1159 3500 
L 1159 2956 
Q 1356 3278 1631 3431 
Q 1906 3584 2284 3584 
Q 2666 3584 2933 3390 
Q 3200 3197 3328 2828 
z
" transform="scale(0.015625)"/>
      <path id="DejaVuSans-67" d="M 2906 1791 
Q 2906 2416 2648 2759 
Q 2391 3103 1925 3103 
Q 1463 3103 1205 2759 
Q 947 2416 947 1791 
Q 947 1169 1205 825 
Q 1463 481 1925 481 
Q 2391 481 2648 825 
Q 2906 1169 2906 1791 
z
M 3481 434 
Q 3481 -459 3084 -895 
Q 2688 -1331 1869 -1331 
Q 1566 -1331 1297 -1286 
Q 1028 -1241 775 -1147 
L 775 -588 
Q 1028 -725 1275 -790 
Q 1522 -856 1778 -856 
Q 2344 -856 2625 -561 
Q 2906 -266 2906 331 
L 2906 616 
Q 2728 306 2450 153 
Q 2172 0 1784 0 
Q 1141 0 747 490 
Q 353 981 353 1791 
Q 353 2603 747 3093 
Q 1141 3584 1784 3584 
Q 2172 3584 2450 3431 
Q 2728 3278 2906 2969 
L 2906 3500 
L 3481 3500 
L 3481 434 
z
" transform="scale(0.015625)"/>
      <path id="DejaVuSans-2b" d="M 2944 4013 
L 2944 2272 
L 4684 2272 
L 4684 1741 
L 2944 1741 
L 2944 0 
L 2419 0 
L 2419 1741 
L 678 1741 
L 678 2272 
L 2419 2272 
L 2419 4013 
L 2944 4013 
z
" transform="scale(0.015625)"/>
      <path id="DejaVuSans-2f" d="M 1625 4666 
L 2156 4666 
L 531 -594 
L 0 -594 
L 1625 4666 
z
" transform="scale(0.015625)"/>
     </defs>
     <use xlink:href="#DejaVuSans-4f"/>
     <use xlink:href="#DejaVuSans-75" transform="translate(78.710938 0)"/>
     <use xlink:href="#DejaVuSans-74" transform="translate(142.089844 0)"/>
     <use xlink:href="#DejaVuSans-70" transform="translate(181.298828 0)"/>
     <use xlink:href="#DejaVuSans-75" transform="translate(244.775391 0)"/>
     <use xlink:href="#DejaVuSans-74" transform="translate(308.154297 0)"/>
     <use xlink:href="#DejaVuSans-20" transform="translate(347.363281 0)"/>
     <use xlink:href="#DejaVuSans-46" transform="translate(379.150391 0)"/>
     <use xlink:href="#DejaVuSans-46" transform="translate(436.669922 0)"/>
     <use xlink:href="#DejaVuSans-54" transform="translate(492.439453 0)"/>
     <use xlink:href="#DejaVuSans-20" transform="translate(553.523438 0)"/>
     <use xlink:href="#DejaVuSans-70" transform="translate(585.310547 0)"/>
     <use xlink:href="#DejaVuSans-65" transform="translate(648.787109 0)"/>
     <use xlink:href="#DejaVuSans-61" transform="translate(710.310547 0)"/>
     <use xlink:href="#DejaVuSans-6b" transform="translate(771.589844 0)"/>
     <use xlink:href="#DejaVuSans-20" transform="translate(829.5 0)"/>
     <use xlink:href="#DejaVuSans-2248" transform="translate(861.287109 0)"/>
     <use xlink:href="#DejaVuSans-20" transform="translate(945.076172 0)"/>
     <use xlink:href="#DejaVuSans-30" transform="translate(976.863281 0)"/>
     <use xlink:href="#DejaVuSans-2e" transform="translate(1040.486328 0)"/>
     <use xlink:href="#DejaVuSans-38" transform="translate(1072.273438 0)"/>
     <use xlink:href="#DejaVuSans-30" transform="translate(1135.896484 0)"/>
     <use xlink:href="#DejaVuSans-30" transform="translate(1199.519531 0)"/>
     <use xlink:href="#DejaVuSans-20" transform="translate(1263.142578 0)"/>
     <use xlink:href="#DejaVuSans-28" transform="translate(1294.929688 0)"/>
     <use xlink:href="#DejaVuSans-61" transform="translate(1333.943359 0)"/>
     <use xlink:href="#DejaVuSans-72" transform="translate(1395.222656 0)"/>
     <use xlink:href="#DejaVuSans-62" transform="translate(1436.335938 0)"/>
     <use xlink:href="#DejaVuSans-2e" transform="translate(1499.8125 0)"/>
     <use xlink:href="#DejaVuSans-29" transform="translate(1531.599609 0)"/>
     <use xlink:href="#DejaVuSans-2c" transform="translate(1570.613281 0)"/>
     <use xlink:href="#DejaVuSans-20" transform="translate(1602.400391 0)"/>
     <use xlink:href="#DejaVuSans-6d" transform="translate(1634.1875 0)"/>
     <use xlink:href="#DejaVuSans-61" transform="translate(1731.599609 0)"/>
     <use xlink:href="#DejaVuSans-67" transform="translate(1792.878906 0)"/>
     <use xlink:href="#DejaVuSans-6e" transform="translate(1856.355469 0)"/>
     <use xlink:href="#DejaVuSans-69" transform="translate(1919.734375 0)"/>
     <use xlink:href="#DejaVuSans-74" transform="translate(1947.517578 0)"/>
     <use xlink:href="#DejaVuSans-75" transform="translate(1986.726562 0)"/>
     <use xlink:href="#DejaVuSans-64" transform="translate(2050.105469 0)"/>
     <use xlink:href="#DejaVuSans-65" transform="translate(2113.582031 0)"/>
     <use xlink:href="#DejaVuSans-20" transform="translate(2175.105469 0)"/>
     <use xlink:href="#DejaVuSans-2248" transform="translate(2206.892578 0)"/>
     <use xlink:href="#DejaVuSans-20" transform="translate(2290.681641 0)"/>
     <use xlink:href="#DejaVuSans-31" transform="translate(2322.46875 0)"/>
     <use xlink:href="#DejaVuSans-2e" transform="translate(2386.091797 0)"/>
     <use xlink:href="#DejaVuSans-33" transform="translate(2417.878906 0)"/>
     <use xlink:href="#DejaVuSans-34" transform="translate(2481.501953 0)"/>
     <use xlink:href="#DejaVuSans-35" transform="translate(2545.125 0)"/>
     <use xlink:href="#DejaVuSans-65" transform="translate(2608.748047 0)"/>
     <use xlink:href="#DejaVuSans-2b" transform="translate(2670.271484 0)"/>
     <use xlink:href="#DejaVuSans-30" transform="translate(2754.060547 0)"/>
     <use xlink:href="#DejaVuSans-33" transform="translate(2817.683594 0)"/>
     <use xlink:href="#DejaVuSans-20" transform="translate(2881.306641 0)"/>
     <use xlink:href="#DejaVuSans-7c" transform="translate(2913.09375 0)"/>
     <use xlink:href="#DejaVuSans-20" transform="translate(2946.785156 0)"/>
     <use xlink:href="#DejaVuSans-62" transform="translate(2978.572266 0)"/>
     <use xlink:href="#DejaVuSans-61" transform="translate(3042.048828 0)"/>
     <use xlink:href="#DejaVuSans-6e" transform="translate(3103.328125 0)"/>
     <use xlink:href="#DejaVuSans-64" transform="translate(3166.707031 0)"/>
     <use xlink:href="#DejaVuSans-2f" transform="translate(3230.183594 0)"/>
     <use xlink:href="#DejaVuSans-66" transform="translate(3263.875 0)"/>
     <use xlink:href="#DejaVuSans-6c" transform="translate(3299.080078 0)"/>
     <use xlink:href="#DejaVuSans-61" transform="translate(3326.863281 0)"/>
     <use xlink:href="#DejaVuSans-74" transform="translate(3388.142578 0)"/>
     <use xlink:href="#DejaVuSans-2d" transform="translate(3427.351562 0)"/>
     <use xlink:href="#DejaVuSans-69" transform="translate(3463.435547 0)"/>
     <use xlink:href="#DejaVuSans-73" transform="translate(3491.21875 0)"/>
     <use xlink:href="#DejaVuSans-68" transform="translate(3543.318359 0)"/>
    </g>
   </g>
   <g id="legend_2">
    <g id="patch_13">
     <path d="M 535.586783 316.66825 
L 621.183658 316.66825 
Q 623.183658 316.66825 623.183658 314.66825 
L 623.183658 286.312 
Q 623.183658 284.312 621.183658 284.312 
L 535.586783 284.312 
Q 533.586783 284.312 533.586783 286.312 
L 533.586783 314.66825 
Q 533.586783 316.66825 535.586783 316.66825 
z
" style="fill: #ffffff; opacity: 0.8; stroke: #cccccc; stroke-linejoin: miter"/>
    </g>
    <g id="line2d_63">
     <path d="M 537.586783 292.410438 
L 547.586783 292.410438 
L 557.586783 292.410438 
" style="fill: none; stroke: #1f77b4; stroke-opacity: 0.6; stroke-width: 1.5; stroke-linecap: square"/>
    </g>
    <g id="text_29">
     <!-- input FFT -->
     <g transform="translate(565.586783 295.910438) scale(0.1 -0.1)">
      <use xlink:href="#DejaVuSans-69"/>
      <use xlink:href="#DejaVuSans-6e" transform="translate(27.783203 0)"/>
      <use xlink:href="#DejaVuSans-70" transform="translate(91.162109 0)"/>
      <use xlink:href="#DejaVuSans-75" transform="translate(154.638672 0)"/>
      <use xlink:href="#DejaVuSans-74" transform="translate(218.017578 0)"/>
      <use xlink:href="#DejaVuSans-20" transform="translate(257.226562 0)"/>
      <use xlink:href="#DejaVuSans-46" transform="translate(289.013672 0)"/>
      <use xlink:href="#DejaVuSans-46" transform="translate(346.533203 0)"/>
      <use xlink:href="#DejaVuSans-54" transform="translate(402.302734 0)"/>
     </g>
    </g>
    <g id="line2d_64">
     <path d="M 537.586783 307.088562 
L 547.586783 307.088562 
L 557.586783 307.088562 
" style="fill: none; stroke: #ff7f0e; stroke-width: 1.5; stroke-linecap: square"/>
    </g>
    <g id="text_30">
     <!-- output FFT -->
     <g transform="translate(565.586783 310.588562) scale(0.1 -0.1)">
      <use xlink:href="#DejaVuSans-6f"/>
      <use xlink:href="#DejaVuSans-75" transform="translate(61.181641 0)"/>
      <use xlink:href="#DejaVuSans-74" transform="translate(124.560547 0)"/>
      <use xlink:href="#DejaVuSans-70" transform="translate(163.769531 0)"/>
      <use xlink:href="#DejaVuSans-75" transform="translate(227.246094 0)"/>
      <use xlink:href="#DejaVuSans-74" transform="translate(290.625 0)"/>
      <use xlink:href="#DejaVuSans-20" transform="translate(329.833984 0)"/>
      <use xlink:href="#DejaVuSans-46" transform="translate(361.621094 0)"/>
      <use xlink:href="#DejaVuSans-46" transform="translate(419.140625 0)"/>
      <use xlink:href="#DejaVuSans-54" transform="translate(474.910156 0)"/>
     </g>
    </g>
   </g>
  </g>
 </g>
 <defs>
  <clipPath id="p48f83ddf01">
   <rect x="56.357054" y="41.856" width="571.826604" height="179.416"/>
  </clipPath>
  <clipPath id="p27babf2cb1">
   <rect x="56.357054" y="279.312" width="571.826604" height="179.416"/>
  </clipPath>
 </defs>
</svg>
