<?xml version="1.0" encoding="utf-8" standalone="no"?>
<!DOCTYPE svg PUBLIC "-//W3C//DTD SVG 1.1//EN"
  "http://www.w3.org/Graphics/SVG/1.1/DTD/svg11.dtd">
<svg xmlns:xlink="http://www.w3.org/1999/xlink" width="648pt" height="504pt" viewBox="0 0 648 504" xmlns="http://www.w3.org/2000/svg" version="1.1">
 <metadata>
  <rdf:RDF xmlns:dc="http://purl.org/dc/elements/1.1/" xmlns:cc="http://creativecommons.org/ns#" xmlns:rdf="http://www.w3.org/1999/02/22-rdf-syntax-ns#">
   <cc:Work>
    <dc:type rdf:resource="http://purl.org/dc/dcmitype/StillImage"/>
    <dc:date>2026-09-12T04:14:33.434662</dc:date>
    <dc:format>image/svg+xml</dc:format>
    <dc:creator>
     <cc:Agent>
      <dc:title>Matplotlib v3.11.2, https://matplotlib.org/</dc:title>
     </cc:Agent>
    </dc:creator>
   </cc:Work>
  </rdf:RDF>
 </metadata>
 <defs>
  <style type="text/css">*{stroke-linejoin: round; stroke-linecap: butt}</style>
 </defs>
 <g id="figure_1">
  <g id="patch_1">
   <path d="M 0 504 
L 648 504 
L 648 0 
L 0 0 
z
" style="fill: #ffffff"/>
  </g>
  <g id="axes_1">
   <g id="patch_2">
    <path d="M 56.602344 222.319648 
L 628.2 222.319648 
L 628.2 42.006328 
L 56.602344 42.006328 
z
" style="fill: #ffffff"/>
   </g>
   <g id="matplotlib.axis_1">
    <g id="xtick_1">
     <g id="line2d_1">
      <path d="M 82.584055 222.319648 
L 82.584055 42.006328 
" clip-path="url(#p2a12dacf96)" style="fill: none; stroke: #b0b0b0; stroke-opacity: 0.25; stroke-width: 0.8; stroke-linecap: square"/>
     </g>
     <g id="line2d_2">
      <defs>
       <path id="m70c8b8179d" d="M 0 0 
L 0 3.5 
" style="stroke: #000000; stroke-width: 0.8"/>
      </defs>
      <g>
       <use xlink:href="#m70c8b8179d" x="82.584055" y="222.319648" style="stroke: #000000; stroke-width: 0.8"/>
      </g>
     </g>
     <g id="text_1">
      <!-- 0 -->
      <g transform="translate(79.402805 236.917305) scale(0.1 -0.1)">
       <defs>
        <path id="DejaVuSans-13" d="M 2034 4250 
Q 1547 4250 1301 3770 
Q 1056 3291 1056 2328 
Q 1056 1369 1301 889 
Q 1547 409 2034 409 
Q 2525 409 2770 889 
Q 3016 1369 3016 2328 
Q 3016 3291 2770 3770 
Q 2525 4250 2034 4250 
z
M 2034 4750 
Q 2819 4750 3233 4129 
Q 3647 3509 3647 2328 
Q 3647 1150 3233 529 
Q 2819 -91 2034 -91 
Q 1250 -91 836 529 
Q 422 1150 422 2328 
Q 422 3509 836 4129 
Q 1250 4750 2034 4750 
z
" transform="scale(0.015625)"/>
       </defs>
       <use xlink:href="#DejaVuSans-13"/>
      </g>
     </g>
    </g>
    <g id="xtick_2">
     <g id="line2d_3">
      <path d="M 186.536281 222.319648 
L 186.536281 42.006328 
" clip-path="url(#p2a12dacf96)" style="fill: none; stroke: #b0b0b0; stroke-opacity: 0.25; stroke-width: 0.8; stroke-linecap: square"/>
     </g>
     <g id="line2d_4">
      <g>
       <use xlink:href="#m70c8b8179d" x="186.536281" y="222.319648" style="stroke: #000000; stroke-width: 0.8"/>
      </g>
     </g>
     <g id="text_2">
      <!-- 2 -->
      <g transform="translate(183.355031 236.917305) scale(0.1 -0.1)">
       <defs>
        <path id="DejaVuSans-15" d="M 1228 531 
L 3431 531 
L 3431 0 
L 469 0 
L 469 531 
Q 828 903 1448 1529 
Q 2069 2156 2228 2338 
Q 2531 2678 2651 2914 
Q 2772 3150 2772 3378 
Q 2772 3750 2511 3984 
Q 2250 4219 1831 4219 
Q 1534 4219 1204 4116 
Q 875 4013 500 3803 
L 500 4441 
Q 881 4594 1212 4672 
Q 1544 4750 1819 4750 
Q 2544 4750 2975 4387 
Q 3406 4025 3406 3419 
Q 3406 3131 3298 2873 
Q 3191 2616 2906 2266 
Q 2828 2175 2409 1742 
Q 1991 1309 1228 531 
z
" transform="scale(0.015625)"/>
       </defs>
       <use xlink:href="#DejaVuSans-15"/>
      </g>
     </g>
    </g>
    <g id="xtick_3">
     <g id="line2d_5">
      <path d="M 290.488507 222.319648 
L 290.488507 42.006328 
" clip-path="url(#p2a12dacf96)" style="fill: none; stroke: #b0b0b0; stroke-opacity: 0.25; stroke-width: 0.8; stroke-linecap: square"/>
     </g>
     <g id="line2d_6">
      <g>
       <use xlink:href="#m70c8b8179d" x="290.488507" y="222.319648" style="stroke: #000000; stroke-width: 0.8"/>
      </g>
     </g>
     <g id="text_3">
      <!-- 4 -->
      <g transform="translate(287.307257 236.917305) scale(0.1 -0.1)">
       <defs>
        <path id="DejaVuSans-17" d="M 2419 4116 
L 825 1625 
L 2419 1625 
L 2419 4116 
z
M 2253 4666 
L 3047 4666 
L 3047 1625 
L 3713 1625 
L 3713 1100 
L 3047 1100 
L 3047 0 
L 2419 0 
L 2419 1100 
L 313 1100 
L 313 1709 
L 2253 4666 
z
" transform="scale(0.015625)"/>
       </defs>
       <use xlink:href="#DejaVuSans-17"/>
      </g>
     </g>
    </g>
    <g id="xtick_4">
     <g id="line2d_7">
      <path d="M 394.440732 222.319648 
L 394.440732 42.006328 
" clip-path="url(#p2a12dacf96)" style="fill: none; stroke: #b0b0b0; stroke-opacity: 0.25; stroke-width: 0.8; stroke-linecap: square"/>
     </g>
     <g id="line2d_8">
      <g>
       <use xlink:href="#m70c8b8179d" x="394.440732" y="222.319648" style="stroke: #000000; stroke-width: 0.8"/>
      </g>
     </g>
     <g id="text_4">
      <!-- 6 -->
      <g transform="translate(391.259482 236.917305) scale(0.1 -0.1)">
       <defs>
        <path id="DejaVuSans-19" d="M 2113 2584 
Q 1688 2584 1439 2293 
Q 1191 2003 1191 1497 
Q 1191 994 1439 701 
Q 1688 409 2113 409 
Q 2538 409 2786 701 
Q 3034 994 3034 1497 
Q 3034 2003 2786 2293 
Q 2538 2584 2113 2584 
z
M 3366 4563 
L 3366 3988 
Q 3128 4100 2886 4159 
Q 2644 4219 2406 4219 
Q 1781 4219 1451 3797 
Q 1122 3375 1075 2522 
Q 1259 2794 1537 2939 
Q 1816 3084 2150 3084 
Q 2853 3084 3261 2657 
Q 3669 2231 3669 1497 
Q 3669 778 3244 343 
Q 2819 -91 2113 -91 
Q 1303 -91 875 529 
Q 447 1150 447 2328 
Q 447 3434 972 4092 
Q 1497 4750 2381 4750 
Q 2619 4750 2861 4703 
Q 3103 4656 3366 4563 
z
" transform="scale(0.015625)"/>
       </defs>
       <use xlink:href="#DejaVuSans-19"/>
      </g>
     </g>
    </g>
    <g id="xtick_5">
     <g id="line2d_9">
      <path d="M 498.392958 222.319648 
L 498.392958 42.006328 
" clip-path="url(#p2a12dacf96)" style="fill: none; stroke: #b0b0b0; stroke-opacity: 0.25; stroke-width: 0.8; stroke-linecap: square"/>
     </g>
     <g id="line2d_10">
      <g>
       <use xlink:href="#m70c8b8179d" x="498.392958" y="222.319648" style="stroke: #000000; stroke-width: 0.8"/>
      </g>
     </g>
     <g id="text_5">
      <!-- 8 -->
      <g transform="translate(495.211708 236.917305) scale(0.1 -0.1)">
       <defs>
        <path id="DejaVuSans-1b" d="M 2034 2216 
Q 1584 2216 1326 1975 
Q 1069 1734 1069 1313 
Q 1069 891 1326 650 
Q 1584 409 2034 409 
Q 2484 409 2743 651 
Q 3003 894 3003 1313 
Q 3003 1734 2745 1975 
Q 2488 2216 2034 2216 
z
M 1403 2484 
Q 997 2584 770 2862 
Q 544 3141 544 3541 
Q 544 4100 942 4425 
Q 1341 4750 2034 4750 
Q 2731 4750 3128 4425 
Q 3525 4100 3525 3541 
Q 3525 3141 3298 2862 
Q 3072 2584 2669 2484 
Q 3125 2378 3379 2068 
Q 3634 1759 3634 1313 
Q 3634 634 3220 271 
Q 2806 -91 2034 -91 
Q 1263 -91 848 271 
Q 434 634 434 1313 
Q 434 1759 690 2068 
Q 947 2378 1403 2484 
z
M 1172 3481 
Q 1172 3119 1398 2916 
Q 1625 2713 2034 2713 
Q 2441 2713 2670 2916 
Q 2900 3119 2900 3481 
Q 2900 3844 2670 4047 
Q 2441 4250 2034 4250 
Q 1625 4250 1398 4047 
Q 1172 3844 1172 3481 
z
" transform="scale(0.015625)"/>
       </defs>
       <use xlink:href="#DejaVuSans-1b"/>
      </g>
     </g>
    </g>
    <g id="xtick_6">
     <g id="line2d_11">
      <path d="M 602.345183 222.319648 
L 602.345183 42.006328 
" clip-path="url(#p2a12dacf96)" style="fill: none; stroke: #b0b0b0; stroke-opacity: 0.25; stroke-width: 0.8; stroke-linecap: square"/>
     </g>
     <g id="line2d_12">
      <g>
       <use xlink:href="#m70c8b8179d" x="602.345183" y="222.319648" style="stroke: #000000; stroke-width: 0.8"/>
      </g>
     </g>
     <g id="text_6">
      <!-- 10 -->
      <g transform="translate(595.982683 236.917305) scale(0.1 -0.1)">
       <defs>
        <path id="DejaVuSans-14" d="M 794 531 
L 1825 531 
L 1825 4091 
L 703 3866 
L 703 4441 
L 1819 4666 
L 2450 4666 
L 2450 531 
L 3481 531 
L 3481 0 
L 794 0 
L 794 531 
z
" transform="scale(0.015625)"/>
       </defs>
       <use xlink:href="#DejaVuSans-14"/>
       <use xlink:href="#DejaVuSans-13" transform="translate(63.625 0)"/>
      </g>
     </g>
    </g>
    <g id="text_7">
     <!-- t [arb.] -->
     <g transform="translate(325.067578 250.918086) scale(0.1 -0.1)">
      <defs>
       <path id="DejaVuSans-57" d="M 1172 4494 
L 1172 3500 
L 2356 3500 
L 2356 3053 
L 1172 3053 
L 1172 1153 
Q 1172 725 1289 603 
Q 1406 481 1766 481 
L 2356 481 
L 2356 0 
L 1766 0 
Q 1100 0 847 248 
Q 594 497 594 1153 
L 594 3053 
L 172 3053 
L 172 3500 
L 594 3500 
L 594 4494 
L 1172 4494 
z
" transform="scale(0.015625)"/>
       <path id="DejaVuSans-3" transform="scale(0.015625)"/>
       <path id="DejaVuSans-3e" d="M 550 4863 
L 1875 4863 
L 1875 4416 
L 1125 4416 
L 1125 -397 
L 1875 -397 
L 1875 -844 
L 550 -844 
L 550 4863 
z
" transform="scale(0.015625)"/>
       <path id="DejaVuSans-44" d="M 2194 1759 
Q 1497 1759 1228 1600 
Q 959 1441 959 1056 
Q 959 750 1161 570 
Q 1363 391 1709 391 
Q 2188 391 2477 730 
Q 2766 1069 2766 1631 
L 2766 1759 
L 2194 1759 
z
M 3341 1997 
L 3341 0 
L 2766 0 
L 2766 531 
Q 2569 213 2275 61 
Q 1981 -91 1556 -91 
Q 1019 -91 701 211 
Q 384 513 384 1019 
Q 384 1609 779 1909 
Q 1175 2209 1959 2209 
L 2766 2209 
L 2766 2266 
Q 2766 2663 2505 2880 
Q 2244 3097 1772 3097 
Q 1472 3097 1187 3025 
Q 903 2953 641 2809 
L 641 3341 
Q 956 3463 1253 3523 
Q 1550 3584 1831 3584 
Q 2591 3584 2966 3190 
Q 3341 2797 3341 1997 
z
" transform="scale(0.015625)"/>
       <path id="DejaVuSans-55" d="M 2631 2963 
Q 2534 3019 2420 3045 
Q 2306 3072 2169 3072 
Q 1681 3072 1420 2755 
Q 1159 2438 1159 1844 
L 1159 0 
L 581 0 
L 581 3500 
L 1159 3500 
L 1159 2956 
Q 1341 3275 1631 3429 
Q 1922 3584 2338 3584 
Q 2397 3584 2469 3576 
Q 2541 3569 2628 3553 
L 2631 2963 
z
" transform="scale(0.015625)"/>
       <path id="DejaVuSans-45" d="M 3116 1747 
Q 3116 2381 2855 2742 
Q 2594 3103 2138 3103 
Q 1681 3103 1420 2742 
Q 1159 2381 1159 1747 
Q 1159 1113 1420 752 
Q 1681 391 2138 391 
Q 2594 391 2855 752 
Q 3116 1113 3116 1747 
z
M 1159 2969 
Q 1341 3281 1617 3432 
Q 1894 3584 2278 3584 
Q 2916 3584 3314 3078 
Q 3713 2572 3713 1747 
Q 3713 922 3314 415 
Q 2916 -91 2278 -91 
Q 1894 -91 1617 61 
Q 1341 213 1159 525 
L 1159 0 
L 581 0 
L 581 4863 
L 1159 4863 
L 1159 2969 
z
" transform="scale(0.015625)"/>
       <path id="DejaVuSans-11" d="M 684 794 
L 1344 794 
L 1344 0 
L 684 0 
L 684 794 
z
" transform="scale(0.015625)"/>
       <path id="DejaVuSans-40" d="M 1947 4863 
L 1947 -844 
L 622 -844 
L 622 -397 
L 1369 -397 
L 1369 4416 
L 622 4416 
L 622 4863 
L 1947 4863 
z
" transform="scale(0.015625)"/>
      </defs>
      <use xlink:href="#DejaVuSans-57"/>
      <use xlink:href="#DejaVuSans-3" transform="translate(39.203125 0)"/>
      <use xlink:href="#DejaVuSans-3e" transform="translate(70.984375 0)"/>
      <use xlink:href="#DejaVuSans-44" transform="translate(110 0)"/>
      <use xlink:href="#DejaVuSans-55" transform="translate(171.28125 0)"/>
      <use xlink:href="#DejaVuSans-45" transform="translate(212.390625 0)"/>
      <use xlink:href="#DejaVuSans-11" transform="translate(275.875 0)"/>
      <use xlink:href="#DejaVuSans-40" transform="translate(307.65625 0)"/>
     </g>
    </g>
   </g>
   <g id="matplotlib.axis_2">
    <g id="ytick_1">
     <g id="line2d_13">
      <path d="M 56.602344 197.754422 
L 628.2 197.754422 
" clip-path="url(#p2a12dacf96)" style="fill: none; stroke: #b0b0b0; stroke-opacity: 0.25; stroke-width: 0.8; stroke-linecap: square"/>
     </g>
     <g id="line2d_14">
      <defs>
       <path id="m8e42770503" d="M 0 0 
L -3.5 0 
" style="stroke: #000000; stroke-width: 0.8"/>
      </defs>
      <g>
       <use xlink:href="#m8e42770503" x="56.602344" y="197.754422" style="stroke: #000000; stroke-width: 0.8"/>
      </g>
     </g>
     <g id="text_8">
      <!-- −1.0 -->
      <g transform="translate(25.319531 201.55325) scale(0.1 -0.1)">
       <defs>
        <path id="DejaVuSans-c9c" d="M 678 2272 
L 4684 2272 
L 4684 1741 
L 678 1741 
L 678 2272 
z
" transform="scale(0.015625)"/>
       </defs>
       <use xlink:href="#DejaVuSans-c9c"/>
       <use xlink:href="#DejaVuSans-14" transform="translate(83.796875 0)"/>
       <use xlink:href="#DejaVuSans-11" transform="translate(147.421875 0)"/>
       <use xlink:href="#DejaVuSans-13" transform="translate(179.203125 0)"/>
      </g>
     </g>
    </g>
    <g id="ytick_2">
     <g id="line2d_15">
      <path d="M 56.602344 164.001283 
L 628.2 164.001283 
" clip-path="url(#p2a12dacf96)" style="fill: none; stroke: #b0b0b0; stroke-opacity: 0.25; stroke-width: 0.8; stroke-linecap: square"/>
     </g>
     <g id="line2d_16">
      <g>
       <use xlink:href="#m8e42770503" x="56.602344" y="164.001283" style="stroke: #000000; stroke-width: 0.8"/>
      </g>
     </g>
     <g id="text_9">
      <!-- −0.5 -->
      <g transform="translate(25.319531 167.800111) scale(0.1 -0.1)">
       <defs>
        <path id="DejaVuSans-18" d="M 691 4666 
L 3169 4666 
L 3169 4134 
L 1269 4134 
L 1269 2991 
Q 1406 3038 1543 3061 
Q 1681 3084 1819 3084 
Q 2600 3084 3056 2656 
Q 3513 2228 3513 1497 
Q 3513 744 3044 326 
Q 2575 -91 1722 -91 
Q 1428 -91 1123 -41 
Q 819 9 494 109 
L 494 744 
Q 775 591 1075 516 
Q 1375 441 1709 441 
Q 2250 441 2565 725 
Q 2881 1009 2881 1497 
Q 2881 1984 2565 2268 
Q 2250 2553 1709 2553 
Q 1456 2553 1204 2497 
Q 953 2441 691 2322 
L 691 4666 
z
" transform="scale(0.015625)"/>
       </defs>
       <use xlink:href="#DejaVuSans-c9c"/>
       <use xlink:href="#DejaVuSans-13" transform="translate(83.796875 0)"/>
       <use xlink:href="#DejaVuSans-11" transform="translate(147.421875 0)"/>
       <use xlink:href="#DejaVuSans-18" transform="translate(179.203125 0)"/>
      </g>
     </g>
    </g>
    <g id="ytick_3">
     <g id="line2d_17">
      <path d="M 56.602344 130.248143 
L 628.2 130.248143 
" clip-path="url(#p2a12dacf96)" style="fill: none; stroke: #b0b0b0; stroke-opacity: 0.25; stroke-width: 0.8; stroke-linecap: square"/>
     </g>
     <g id="line2d_18">
      <g>
       <use xlink:href="#m8e42770503" x="56.602344" y="130.248143" style="stroke: #000000; stroke-width: 0.8"/>
      </g>
     </g>
     <g id="text_10">
      <!-- 0.0 -->
      <g transform="translate(33.699219 134.046972) scale(0.1 -0.1)">
       <use xlink:href="#DejaVuSans-13"/>
       <use xlink:href="#DejaVuSans-11" transform="translate(63.625 0)"/>
       <use xlink:href="#DejaVuSans-13" transform="translate(95.40625 0)"/>
      </g>
     </g>
    </g>
    <g id="ytick_4">
     <g id="line2d_19">
      <path d="M 56.602344 96.495004 
L 628.2 96.495004 
" clip-path="url(#p2a12dacf96)" style="fill: none; stroke: #b0b0b0; stroke-opacity: 0.25; stroke-width: 0.8; stroke-linecap: square"/>
     </g>
     <g id="line2d_20">
      <g>
       <use xlink:href="#m8e42770503" x="56.602344" y="96.495004" style="stroke: #000000; stroke-width: 0.8"/>
      </g>
     </g>
     <g id="text_11">
      <!-- 0.5 -->
      <g transform="translate(33.699219 100.293832) scale(0.1 -0.1)">
       <use xlink:href="#DejaVuSans-13"/>
       <use xlink:href="#DejaVuSans-11" transform="translate(63.625 0)"/>
       <use xlink:href="#DejaVuSans-18" transform="translate(95.40625 0)"/>
      </g>
     </g>
    </g>
    <g id="ytick_5">
     <g id="line2d_21">
      <path d="M 56.602344 62.741865 
L 628.2 62.741865 
" clip-path="url(#p2a12dacf96)" style="fill: none; stroke: #b0b0b0; stroke-opacity: 0.25; stroke-width: 0.8; stroke-linecap: square"/>
     </g>
     <g id="line2d_22">
      <g>
       <use xlink:href="#m8e42770503" x="56.602344" y="62.741865" style="stroke: #000000; stroke-width: 0.8"/>
      </g>
     </g>
     <g id="text_12">
      <!-- 1.0 -->
      <g transform="translate(33.699219 66.540693) scale(0.1 -0.1)">
       <use xlink:href="#DejaVuSans-14"/>
       <use xlink:href="#DejaVuSans-11" transform="translate(63.625 0)"/>
       <use xlink:href="#DejaVuSans-13" transform="translate(95.40625 0)"/>
      </g>
     </g>
    </g>
    <g id="text_13">
     <!-- [arb.] -->
     <g transform="translate(18.917188 145.947363) rotate(-90) scale(0.1 -0.1)">
      <use xlink:href="#DejaVuSans-3e"/>
      <use xlink:href="#DejaVuSans-44" transform="translate(39.015625 0)"/>
      <use xlink:href="#DejaVuSans-55" transform="translate(100.296875 0)"/>
      <use xlink:href="#DejaVuSans-45" transform="translate(141.40625 0)"/>
      <use xlink:href="#DejaVuSans-11" transform="translate(204.890625 0)"/>
      <use xlink:href="#DejaVuSans-40" transform="translate(236.671875 0)"/>
     </g>
    </g>
   </g>
   <g id="line2d_23">
    <path d="M 82.584055 130.248143 
L 85.502636 93.954926 
L 87.025374 77.702032 
L 88.294322 66.529407 
L 89.30948 59.486345 
L 90.197744 54.87014 
L 90.959113 52.139179 
L 91.466692 50.969858 
L 91.974271 50.331236 
L 92.354956 50.203247 
L 92.73564 50.376737 
L 93.116324 50.851052 
L 93.623904 51.948171 
L 94.258378 54.055461 
L 94.892852 56.959445 
L 95.65422 61.452537 
L 96.542484 67.997563 
L 97.684537 78.26384 
L 99.08038 93.158619 
L 100.983802 116.321423 
L 105.425121 171.486959 
L 106.820963 185.757311 
L 107.963017 195.378732 
L 108.978175 202.090826 
L 109.739544 205.872503 
L 110.374018 208.156313 
L 111.008492 209.625493 
L 111.516071 210.203689 
L 111.896756 210.286166 
L 112.27744 210.067191 
L 112.658125 209.547587 
L 113.165704 208.390684 
L 113.800178 206.210193 
L 114.561547 202.547747 
L 115.44981 196.904316 
L 116.464969 188.791379 
L 117.607022 177.80618 
L 119.12976 160.730145 
L 121.413866 132.039969 
L 124.459342 94.092458 
L 125.982079 77.818475 
L 127.251027 66.622874 
L 128.266186 59.558572 
L 129.154449 54.922176 
L 129.915818 52.173046 
L 130.423397 50.991311 
L 130.930977 50.340132 
L 131.311661 50.202681 
L 131.692346 50.366711 
L 132.07303 50.831604 
L 132.580609 51.916282 
L 133.215083 54.008329 
L 133.849557 56.897562 
L 134.610926 61.373821 
L 135.49919 67.900722 
L 136.641243 78.146658 
L 138.037086 93.022015 
L 139.813613 114.560416 
L 144.508721 172.751291 
L 145.904564 186.816572 
L 147.046617 196.229912 
L 148.061776 202.732642 
L 148.823144 206.345712 
L 149.457618 208.483464 
L 149.965198 209.605456 
L 150.472777 210.19622 
L 150.853461 210.288161 
L 151.234146 210.078642 
L 151.61483 209.568452 
L 152.122409 208.423971 
L 152.756883 206.258685 
L 153.518252 202.613801 
L 154.406516 196.989587 
L 155.421674 188.89645 
L 156.563728 177.930148 
L 158.086465 160.872697 
L 160.370572 132.194155 
L 163.416047 94.230124 
L 164.938785 77.935112 
L 166.207733 66.716576 
L 167.222891 59.63106 
L 168.111155 54.974493 
L 168.872524 52.207202 
L 169.380103 51.013058 
L 169.887682 50.349324 
L 170.268367 50.202412 
L 170.649051 50.356982 
L 171.029736 50.812452 
L 171.537315 51.884683 
L 172.171789 53.961479 
L 172.806263 56.835951 
L 173.567632 61.295361 
L 174.455895 67.804113 
L 175.597949 78.02967 
L 176.993791 92.885549 
L 178.770319 114.409207 
L 183.465427 172.620522 
L 184.86127 186.707349 
L 186.003323 196.142473 
L 187.018481 202.667074 
L 187.77985 206.297731 
L 188.414324 208.450703 
L 188.921903 209.585125 
L 189.429483 210.188455 
L 189.810167 210.289859 
L 190.190851 210.089797 
L 190.571536 209.589021 
L 191.079115 208.456967 
L 191.713589 206.306894 
L 192.474958 202.679587 
L 193.363222 197.074609 
L 194.37838 189.001305 
L 195.520433 178.053939 
L 197.043171 161.015135 
L 199.200383 133.984963 
L 202.372753 94.367924 
L 203.89549 78.051944 
L 205.164439 66.810515 
L 206.179597 59.703811 
L 207.067861 55.027088 
L 207.829229 52.241649 
L 208.336809 51.0351 
L 208.844388 50.358813 
L 209.225072 50.202441 
L 209.605757 50.34755 
L 209.986441 50.793594 
L 210.49402 51.853375 
L 211.0016 53.43794 
L 211.636074 56.140137 
L 212.397443 60.402574 
L 213.285706 66.698705 
L 214.300865 75.478967 
L 215.569813 88.481815 
L 217.219445 107.899794 
L 223.056606 179.212302 
L 224.325554 191.056824 
L 225.340713 198.726334 
L 226.228976 203.941373 
L 226.990345 207.213563 
L 227.624819 209.057048 
L 228.132399 209.939157 
L 228.513083 210.250843 
L 228.893767 210.26121 
L 229.274452 209.970218 
L 229.655136 209.378964 
L 230.162715 208.12756 
L 230.797189 205.831493 
L 231.558558 202.035686 
L 232.446822 196.246544 
L 233.46198 187.983733 
L 234.730928 175.514764 
L 236.253666 158.110989 
L 238.791562 125.953882 
L 241.456353 93.048031 
L 242.979091 76.936243 
L 244.121144 66.904689 
L 245.136303 59.776824 
L 246.024566 55.079963 
L 246.785935 52.276384 
L 247.420409 50.835287 
L 247.801094 50.368599 
L 248.181778 50.202766 
L 248.562462 50.338414 
L 248.943147 50.775032 
L 249.450726 51.822358 
L 249.958305 53.394677 
L 250.592779 56.081982 
L 251.354148 60.327365 
L 252.242412 66.605048 
L 253.25757 75.366594 
L 254.526518 88.350323 
L 256.176151 107.75174 
L 262.013312 179.090203 
L 263.28226 190.956416 
L 264.297418 198.646344 
L 265.185682 203.881023 
L 265.947051 207.171047 
L 266.581525 209.029894 
L 267.089104 209.924505 
L 267.469789 210.245637 
L 267.850473 210.265469 
L 268.231157 209.983926 
L 268.611842 209.402069 
L 269.119421 208.163053 
L 269.753895 205.882128 
L 270.515264 202.103779 
L 271.403528 196.333691 
L 272.418686 188.090451 
L 273.687634 175.641878 
L 275.210372 158.25552 
L 277.748268 126.107896 
L 280.413059 93.184661 
L 281.935797 77.051386 
L 283.07785 66.999098 
L 284.093008 59.850098 
L 284.981272 55.133117 
L 285.742641 52.31141 
L 286.377115 50.85479 
L 286.884694 50.28677 
L 287.265378 50.211953 
L 287.646063 50.438583 
L 288.026747 50.965804 
L 288.534326 52.13276 
L 289.168801 54.325553 
L 289.930169 58.002206 
L 290.818433 63.661176 
L 291.833591 71.790121 
L 292.975645 82.790585 
L 294.498382 99.881616 
L 296.782489 128.581133 
L 299.827964 166.515168 
L 301.350702 182.772085 
L 302.61965 193.94909 
L 303.634808 200.996201 
L 304.523072 205.616254 
L 305.284441 208.350678 
L 305.79202 209.522364 
L 306.299599 210.163379 
L 306.680284 210.29317 
L 307.060968 210.121483 
L 307.441653 209.648963 
L 307.949232 208.554214 
L 308.583706 206.449827 
L 309.21818 203.548653 
L 309.979549 199.058766 
L 310.867812 192.517193 
L 312.009866 182.254788 
L 313.405709 167.363705 
L 315.309131 144.203799 
L 319.750449 89.034515 
L 321.146292 74.760151 
L 322.288345 65.134641 
L 323.303503 58.418423 
L 324.064872 54.63342 
L 324.699346 52.346724 
L 325.33382 50.874588 
L 325.8414 50.293998 
L 326.222084 50.209718 
L 326.602768 50.426892 
L 326.983453 50.944702 
L 327.491032 52.099238 
L 328.125506 54.276833 
L 328.886875 57.935935 
L 329.775139 63.575705 
L 330.790297 71.684873 
L 331.93235 82.666474 
L 333.455088 99.738973 
L 335.739195 128.426942 
L 338.78467 166.37761 
L 340.307408 182.655605 
L 341.576356 193.855579 
L 342.591514 200.923925 
L 343.479778 205.564164 
L 344.241147 208.316756 
L 344.748726 209.500855 
L 345.256305 210.154427 
L 345.636989 210.29368 
L 346.017674 210.131452 
L 346.398358 209.668354 
L 346.905938 208.586048 
L 347.540412 206.496906 
L 348.174886 203.610485 
L 348.936254 199.137434 
L 349.824518 192.613989 
L 350.966571 182.371933 
L 352.362414 167.500283 
L 354.138941 145.964685 
L 358.834049 87.769898 
L 360.229892 73.700508 
L 361.371945 64.283015 
L 362.387104 57.776116 
L 363.148473 54.159695 
L 363.782947 52.019042 
L 364.290526 50.894681 
L 364.798105 50.301523 
L 365.17879 50.207779 
L 365.559474 50.415497 
L 365.940158 50.923893 
L 366.447738 52.066007 
L 367.082212 54.228395 
L 367.843581 57.869931 
L 368.731844 63.490482 
L 369.747003 71.579842 
L 370.889056 82.54254 
L 372.411794 99.596443 
L 374.6959 128.272756 
L 377.741376 166.239919 
L 379.264113 182.53893 
L 380.533061 193.761831 
L 381.54822 200.851386 
L 382.436483 205.511795 
L 383.197852 208.282544 
L 383.705431 209.479052 
L 384.213011 210.145178 
L 384.593695 210.293892 
L 384.974379 210.141125 
L 385.355064 209.687451 
L 385.862643 208.617592 
L 386.497117 206.543702 
L 387.131591 203.672043 
L 387.89296 199.215845 
L 388.781224 192.710554 
L 389.923277 182.488884 
L 391.31912 167.636723 
L 393.095647 146.115882 
L 397.790755 87.900697 
L 399.186598 73.809772 
L 400.328651 64.370501 
L 401.34381 57.841736 
L 402.105178 54.20773 
L 402.739652 52.051859 
L 403.247232 50.915069 
L 403.754811 50.309345 
L 404.135495 50.206138 
L 404.51618 50.404398 
L 404.896864 50.90338 
L 405.404443 52.033066 
L 406.038917 54.18024 
L 406.800286 57.804197 
L 407.68855 63.405507 
L 408.703708 71.47503 
L 409.845762 82.418783 
L 411.368499 99.454027 
L 413.525711 126.481972 
L 416.698081 166.102094 
L 418.220819 182.422062 
L 419.489767 193.667848 
L 420.504925 200.778585 
L 421.393189 205.459146 
L 422.154558 208.248043 
L 422.662137 209.456955 
L 423.169716 210.135632 
L 423.550401 210.293807 
L 423.931085 210.1505 
L 424.31177 209.706252 
L 424.819349 208.648844 
L 425.326928 207.066611 
L 425.961402 204.367251 
L 426.722771 200.108062 
L 427.611034 193.815444 
L 428.626193 185.038745 
L 429.895141 172.039536 
L 431.544773 152.624707 
L 437.381935 81.307233 
L 438.650883 69.458576 
L 439.666041 61.785173 
L 440.554305 56.566391 
L 441.315674 53.290802 
L 441.950148 51.44439 
L 442.457727 50.559899 
L 442.838411 50.246413 
L 443.219096 50.234243 
L 443.59978 50.523434 
L 443.980465 51.112899 
L 444.488044 52.361942 
L 445.122518 54.655125 
L 445.883887 58.447607 
L 446.77215 64.233121 
L 447.787309 72.492205 
L 449.056257 84.957292 
L 450.578994 102.357754 
L 453.116891 134.513063 
L 455.781682 167.422235 
L 457.304419 183.538122 
L 458.446472 193.573629 
L 459.461631 200.705523 
L 460.349895 205.406218 
L 461.111263 208.213252 
L 461.745737 209.657307 
L 462.126422 210.12579 
L 462.507106 210.293425 
L 462.887791 210.15958 
L 463.268475 209.724759 
L 463.776054 208.679805 
L 464.283634 207.109821 
L 464.918108 204.425354 
L 465.679476 200.183222 
L 466.56774 193.909056 
L 467.582899 185.15108 
L 468.851847 172.170998 
L 470.501479 152.772745 
L 476.33864 81.429367 
L 477.607588 69.559027 
L 478.622747 61.865212 
L 479.51101 56.626793 
L 480.272379 53.333373 
L 480.906853 51.4716 
L 481.414432 50.574607 
L 481.795117 50.251676 
L 482.175801 50.230041 
L 482.556486 50.509783 
L 482.93717 51.089849 
L 483.444749 52.326504 
L 484.079223 54.604543 
L 484.840592 58.379565 
L 485.728856 64.14602 
L 486.744014 72.385528 
L 487.886068 83.49122 
L 489.408805 100.685202 
L 491.692912 129.447629 
L 494.611492 165.826044 
L 496.13423 182.187744 
L 497.403178 193.479175 
L 498.418337 200.632199 
L 499.3066 205.353011 
L 500.067969 208.178171 
L 500.702443 209.637747 
L 501.210022 210.208163 
L 501.590707 210.284782 
L 501.971391 210.059954 
L 502.352076 209.534526 
L 502.859655 208.369936 
L 503.494129 206.180038 
L 504.255498 202.506728 
L 505.143761 196.851414 
L 506.15892 188.726235 
L 507.300973 177.729362 
L 508.823711 160.641856 
L 511.107817 131.944531 
L 514.153293 94.007317 
L 515.67603 77.74638 
L 516.944978 66.564995 
L 517.960137 59.513836 
L 518.8484 54.889935 
L 519.609769 52.15205 
L 520.117348 50.977998 
L 520.624928 50.334591 
L 521.005612 50.202997 
L 521.386297 50.372882 
L 521.766981 50.843606 
L 522.27456 51.935985 
L 522.909034 54.037468 
L 523.543508 56.935832 
L 524.304877 61.422513 
L 525.193141 67.960634 
L 526.335194 78.219165 
L 527.731037 93.10655 
L 529.634459 116.263554 
L 534.075777 171.436579 
L 535.47162 185.714954 
L 536.613673 195.34455 
L 537.628832 202.064891 
L 538.390201 205.853221 
L 539.024675 208.142802 
L 539.659149 209.617893 
L 540.166728 210.200878 
L 540.547412 210.286961 
L 540.928097 210.071589 
L 541.308781 209.555572 
L 541.81636 208.403402 
L 542.450834 206.228704 
L 543.212203 202.572948 
L 544.100467 196.936838 
L 545.115625 188.831442 
L 546.257679 177.853439 
L 547.780416 160.784478 
L 550.064523 132.098722 
L 553.109998 94.1449 
L 554.632736 77.862896 
L 555.901684 66.658551 
L 556.916842 59.586162 
L 557.805106 54.942079 
L 558.566475 52.186027 
L 559.074054 50.999563 
L 559.581633 50.3436 
L 559.962318 50.202544 
L 560.343002 50.362969 
L 560.723687 50.824271 
L 561.231266 51.904207 
L 561.86574 53.990443 
L 562.500214 56.874053 
L 563.261583 61.343894 
L 564.149846 67.863882 
L 565.2919 78.102057 
L 566.687743 92.969998 
L 568.46427 114.502791 
L 573.159378 172.70148 
L 574.555221 186.774977 
L 575.697274 196.196623 
L 576.712432 202.707689 
L 577.473801 206.327462 
L 578.108275 208.471015 
L 578.615854 209.597744 
L 579.123434 210.193296 
L 579.504118 210.288843 
L 579.884802 210.082927 
L 580.265487 209.576324 
L 580.773066 208.436578 
L 581.40754 206.277088 
L 582.168909 202.6389 
L 583.057173 197.022014 
L 584.072331 188.936431 
L 585.214384 177.977339 
L 586.737122 160.926986 
L 589.021228 132.252906 
L 592.066704 94.282617 
L 593.589442 77.979608 
L 594.85839 66.752344 
L 595.873548 59.658751 
L 596.761812 54.994501 
L 597.523181 52.220294 
L 598.03076 51.021422 
L 598.538339 50.352905 
L 598.919023 50.202388 
L 599.299708 50.353353 
L 599.680392 50.805231 
L 600.187971 51.872719 
L 600.822445 53.943701 
L 601.45692 56.812546 
L 602.218288 61.265531 
L 602.218288 61.265531 
" clip-path="url(#p2a12dacf96)" style="fill: none; stroke: #1f77b4; stroke-width: 1.5; stroke-linecap: square"/>
   </g>
   <g id="line2d_24">
    <path d="M 82.584055 130.248143 
L 84.614372 105.558552 
L 86.010215 91.059112 
L 87.152268 81.266274 
L 88.167427 74.397754 
L 89.055691 69.945121 
L 89.690165 67.703469 
L 90.324639 66.267392 
L 90.832218 65.706463 
L 91.212902 65.630273 
L 91.593587 65.848951 
L 91.974271 66.360926 
L 92.48185 67.495033 
L 93.116324 69.62456 
L 93.877693 73.18931 
L 94.765957 78.663345 
L 95.781115 86.503597 
L 97.050063 98.349685 
L 98.572801 114.872051 
L 101.237592 146.820914 
L 103.648593 174.75199 
L 105.171331 189.867109 
L 106.313384 199.215966 
L 107.328543 205.794112 
L 108.216806 210.059764 
L 108.85128 212.199353 
L 109.35886 213.347151 
L 109.866439 213.984202 
L 110.247123 214.123588 
L 110.627808 213.971824 
L 111.008492 213.529121 
L 111.516071 212.488705 
L 112.150545 210.473975 
L 112.785019 207.684255 
L 113.546388 203.353063 
L 114.434652 197.02471 
L 115.576705 187.067959 
L 116.972548 172.573436 
L 118.749075 151.513662 
L 123.697973 91.37936 
L 125.093816 77.762205 
L 126.235869 68.703105 
L 127.124133 63.16605 
L 127.885501 59.565861 
L 128.519975 57.414972 
L 129.027555 56.266323 
L 129.535134 55.634278 
L 129.915818 55.501692 
L 130.296503 55.662244 
L 130.677187 56.115158 
L 131.184766 57.170436 
L 131.81924 59.203908 
L 132.453714 62.010205 
L 133.215083 66.35501 
L 134.103347 72.685541 
L 135.2454 82.614426 
L 136.641243 97.013373 
L 138.544665 119.384534 
L 142.859089 171.154205 
L 144.254931 185.046882 
L 145.396985 194.452146 
L 146.412143 201.04657 
L 147.173512 204.786982 
L 147.934881 207.429381 
L 148.44246 208.560291 
L 148.950039 209.177089 
L 149.330724 209.299568 
L 149.711408 209.129814 
L 150.092092 208.668384 
L 150.599672 207.602452 
L 151.234146 205.55609 
L 151.86862 202.736482 
L 152.629989 198.373851 
L 153.518252 192.018051 
L 154.660306 182.046195 
L 156.056148 167.573156 
L 157.832676 146.618506 
L 162.527784 89.969989 
L 163.923626 76.257142 
L 165.06568 67.067493 
L 166.080838 60.706947 
L 166.842207 57.162529 
L 167.476681 55.055961 
L 167.98426 53.941493 
L 168.491839 53.342603 
L 168.872524 53.23427 
L 169.253208 53.418593 
L 169.633893 53.894841 
L 170.141472 54.980621 
L 170.775946 57.051374 
L 171.537315 60.552905 
L 172.425578 65.971059 
L 173.440737 73.782228 
L 174.58279 84.380436 
L 176.105528 100.882978 
L 178.26274 127.070975 
L 181.43511 165.460235 
L 182.957847 181.269672 
L 184.226795 192.160087 
L 185.241954 199.042705 
L 186.130218 203.569612 
L 186.891586 206.263295 
L 187.399166 207.428149 
L 187.906745 208.07861 
L 188.287429 208.226109 
L 188.668114 208.081144 
L 189.048798 207.644242 
L 189.556377 206.610553 
L 190.190851 204.603652 
L 190.825325 201.822439 
L 191.586694 197.504282 
L 192.474958 191.197885 
L 193.617011 181.285124 
L 195.012854 166.876765 
L 196.789381 145.991254 
L 201.484489 89.451038 
L 202.880332 75.751119 
L 204.022385 66.566689 
L 205.037544 60.207391 
L 205.798913 56.662189 
L 206.433387 54.554058 
L 206.940966 53.437862 
L 207.448545 52.83691 
L 207.829229 52.726862 
L 208.209914 52.909367 
L 208.590598 53.38373 
L 209.098178 54.466953 
L 209.732652 56.53456 
L 210.49402 60.032602 
L 211.382284 65.447417 
L 212.397443 73.256223 
L 213.539496 83.854266 
L 215.062233 100.36177 
L 217.219445 126.568899 
L 220.391815 165.014314 
L 221.914553 180.861796 
L 223.183501 191.788408 
L 224.19866 198.702296 
L 225.086923 203.257801 
L 225.848292 205.976605 
L 226.482766 207.373697 
L 226.990345 207.911713 
L 227.37103 207.974437 
L 227.751714 207.744689 
L 228.132399 207.223329 
L 228.639978 206.07811 
L 229.274452 203.934622 
L 230.035821 200.348865 
L 230.924084 194.837869 
L 231.939243 186.929483 
L 233.081296 176.235512 
L 234.604034 159.631462 
L 236.88814 131.768903 
L 239.933616 94.971506 
L 241.456353 79.214606 
L 242.725301 68.389062 
L 243.74046 61.569613 
L 244.628723 57.104404 
L 245.263197 54.828313 
L 245.897671 53.341214 
L 246.405251 52.730335 
L 246.785935 52.612774 
L 247.16662 52.787745 
L 247.547304 53.254588 
L 248.054883 54.327869 
L 248.689357 56.383295 
L 249.323831 59.211408 
L 250.0852 63.58289 
L 250.973464 69.94624 
L 252.115517 79.921793 
L 253.51136 94.387539 
L 255.414782 116.8723 
L 259.8561 170.381551 
L 261.251943 184.211372 
L 262.393996 193.530217 
L 263.409155 200.02609 
L 264.170524 203.68188 
L 264.804998 205.886108 
L 265.439472 207.299623 
L 265.947051 207.850905 
L 266.327735 207.923598 
L 266.70842 207.703799 
L 267.089104 207.192333 
L 267.596683 206.06016 
L 268.231157 203.932637 
L 268.992526 200.365328 
L 269.88079 194.874557 
L 270.895948 186.987113 
L 272.038002 176.313328 
L 273.560739 159.729635 
L 275.844846 131.881577 
L 278.890321 95.071993 
L 280.413059 79.296455 
L 281.682007 68.450062 
L 282.697165 61.611115 
L 283.585429 57.127256 
L 284.346798 54.473162 
L 284.854377 53.335687 
L 285.361956 52.713127 
L 285.742641 52.586757 
L 286.123325 52.752917 
L 286.50401 53.210981 
L 287.011589 54.272666 
L 287.646063 56.313888 
L 288.280537 59.128262 
L 289.041906 63.484084 
L 289.930169 69.830613 
L 291.072223 79.787382 
L 292.468065 94.235398 
L 294.371488 116.706807 
L 298.812806 170.238064 
L 300.208649 184.089138 
L 301.350702 193.429439 
L 302.36586 199.946854 
L 303.127229 203.619975 
L 303.761703 205.839212 
L 304.396177 207.268088 
L 304.903757 207.831804 
L 305.284441 207.913856 
L 305.665125 207.703404 
L 306.04581 207.201241 
L 306.553389 206.081342 
L 307.187863 203.96884 
L 307.949232 200.418881 
L 308.837496 194.947101 
L 309.852654 187.079246 
L 310.994707 176.424194 
L 312.517445 159.859029 
L 314.801551 132.022939 
L 317.847027 95.198131 
L 319.369764 79.402562 
L 320.638713 68.534214 
L 321.653871 61.674915 
L 322.542135 57.171683 
L 323.303503 54.500137 
L 323.811083 53.350733 
L 324.318662 52.716102 
L 324.699346 52.580635 
L 325.080031 52.737698 
L 325.460715 53.186701 
L 325.968294 54.236418 
L 326.602768 56.262976 
L 327.237242 59.063162 
L 327.998611 63.402795 
L 328.886875 69.7319 
L 330.028928 79.669128 
L 331.424771 94.098527 
L 333.201298 114.994182 
L 337.896406 171.461772 
L 339.292249 185.114154 
L 340.434302 194.252766 
L 341.449461 200.567202 
L 342.21083 204.076837 
L 342.845304 206.154439 
L 343.352883 207.245831 
L 343.860462 207.821795 
L 344.241147 207.913069 
L 344.621831 207.711831 
L 345.002515 207.21884 
L 345.510095 206.111046 
L 346.144569 204.013359 
L 346.905938 200.480517 
L 347.794201 195.027467 
L 348.80936 187.178921 
L 349.951413 176.542309 
L 351.474151 159.995312 
L 353.758257 132.170703 
L 356.803732 95.330101 
L 358.32647 79.514233 
L 359.595418 68.623714 
L 360.610577 61.743893 
L 361.49884 57.221139 
L 362.260209 54.532015 
L 362.767788 53.370596 
L 363.275368 52.723809 
L 363.656052 52.579179 
L 364.036736 52.727082 
L 364.417421 53.166958 
L 364.925 54.204621 
L 365.559474 56.216409 
L 366.193948 59.002298 
L 366.955317 63.325611 
L 367.843581 69.637138 
L 368.985634 79.55463 
L 370.381477 93.965171 
L 372.158004 114.846567 
L 376.853112 171.334093 
L 378.248955 185.007409 
L 379.391008 194.167181 
L 380.406166 200.50286 
L 381.167535 204.029576 
L 381.802009 206.121961 
L 382.309589 207.225424 
L 382.817168 207.813592 
L 383.197852 207.914058 
L 383.578537 207.722005 
L 383.959221 207.238158 
L 384.4668 206.142433 
L 385.101274 204.059524 
L 385.862643 200.543755 
L 386.750907 195.109393 
L 387.766065 187.280116 
L 388.908118 176.661909 
L 390.430856 160.133046 
L 392.588068 133.907907 
L 395.760438 95.463473 
L 397.283176 79.627293 
L 398.552124 68.714587 
L 399.567282 61.814225 
L 400.455546 57.271928 
L 401.216915 54.565205 
L 401.724494 53.391756 
L 402.232073 52.732795 
L 402.612758 52.578991 
L 402.993442 52.717717 
L 403.374126 53.148452 
L 403.881706 54.174039 
L 404.389285 55.708876 
L 405.023759 58.327584 
L 405.785128 62.459738 
L 406.673391 68.564904 
L 407.68855 77.080393 
L 408.957498 89.693019 
L 410.60713 108.530883 
L 416.444292 177.731941 
L 417.71324 189.229574 
L 418.728398 196.675865 
L 419.616662 201.740382 
L 420.378031 204.919335 
L 421.012505 206.711456 
L 421.520084 207.570117 
L 421.900768 207.874619 
L 422.281453 207.886752 
L 422.662137 207.60647 
L 423.042821 207.034828 
L 423.550401 205.82329 
L 424.184875 203.598706 
L 424.946244 199.919414 
L 425.834507 194.306316 
L 426.849666 186.2931 
L 428.118614 174.198778 
L 429.641351 157.315502 
L 432.179248 126.115151 
L 434.844038 94.182397 
L 436.366776 78.544225 
L 437.508829 68.805943 
L 438.523988 61.885057 
L 439.412252 57.323226 
L 440.17362 54.598906 
L 440.808094 53.19719 
L 441.315674 52.655476 
L 441.696358 52.589989 
L 442.077042 52.816992 
L 442.457727 53.335629 
L 442.965306 54.477265 
L 443.59978 56.616368 
L 444.361149 60.197042 
L 445.249413 65.702413 
L 446.264571 73.604857 
L 447.406624 84.292877 
L 448.929362 100.890382 
L 451.213469 128.746461 
L 454.258944 165.541707 
L 455.781682 181.30011 
L 457.05063 192.128008 
L 458.065788 198.949934 
L 458.954052 203.417651 
L 459.715421 206.05724 
L 460.223 207.184814 
L 460.730579 207.797364 
L 461.111263 207.916195 
L 461.491948 207.7425 
L 461.872632 207.276932 
L 462.380211 206.20534 
L 463.014686 204.151983 
L 463.64916 201.325866 
L 464.410528 196.956641 
L 465.298792 190.595674 
L 466.440845 180.622683 
L 467.836688 166.159131 
L 469.74011 143.675397 
L 474.181429 90.158816 
L 475.577271 76.324065 
L 476.719325 67.000447 
L 477.734483 60.499886 
L 478.495852 56.840371 
L 479.130326 54.632941 
L 479.7648 53.216164 
L 480.272379 52.662252 
L 480.653064 52.587583 
L 481.033748 52.805412 
L 481.414432 53.314918 
L 481.922012 54.444507 
L 482.556486 56.56887 
L 483.317855 60.132524 
L 484.206118 65.619282 
L 485.221277 73.502559 
L 486.36333 84.172307 
L 487.886068 100.751878 
L 490.170174 128.596832 
L 493.215649 165.408326 
L 494.738387 181.187227 
L 496.007335 192.037443 
L 497.022494 198.879993 
L 497.910757 203.36731 
L 498.672126 206.024536 
L 499.179705 207.164158 
L 499.687285 207.788894 
L 500.067969 207.916906 
L 500.448653 207.752389 
L 500.829338 207.295962 
L 501.336917 206.236441 
L 501.971391 204.197871 
L 502.605865 201.38606 
L 503.367234 197.033159 
L 504.255498 190.689765 
L 505.397551 180.73649 
L 506.793394 166.291753 
L 508.696816 143.822764 
L 513.138134 90.287061 
L 514.533977 76.431866 
L 515.67603 67.08742 
L 516.691189 60.565852 
L 517.452558 56.889393 
L 518.087032 54.667267 
L 518.721506 53.235436 
L 519.229085 52.669328 
L 519.609769 52.585476 
L 519.990454 52.794129 
L 520.371138 53.294504 
L 520.878717 54.412042 
L 521.513191 56.521655 
L 522.27456 60.068275 
L 523.162824 65.5364 
L 524.177982 73.400481 
L 525.320036 84.051917 
L 526.842773 100.613492 
L 529.12688 128.447217 
L 532.172355 165.274821 
L 533.695093 181.07416 
L 534.964041 191.946654 
L 535.979199 198.809803 
L 536.867463 203.316704 
L 537.628832 205.991556 
L 538.136411 207.143221 
L 538.64399 207.780141 
L 539.024675 207.917334 
L 539.405359 207.761996 
L 539.786044 207.314712 
L 540.293623 206.267265 
L 540.928097 204.243488 
L 541.562571 201.445995 
L 542.32394 197.109434 
L 543.212203 190.783635 
L 544.354257 180.850114 
L 545.750099 166.424245 
L 547.526627 145.53123 
L 552.221735 89.05966 
L 553.617577 75.403243 
L 554.759631 66.260563 
L 555.774789 59.942049 
L 556.536158 56.429138 
L 557.170632 54.348701 
L 557.678211 53.254996 
L 558.18579 52.676694 
L 558.566475 52.583659 
L 558.947159 52.783137 
L 559.327844 53.274377 
L 559.835423 54.37986 
L 560.469897 56.474717 
L 561.231266 60.00429 
L 562.119529 65.453761 
L 563.134688 73.298616 
L 564.276741 83.931701 
L 565.799479 100.475218 
L 568.083585 128.297611 
L 571.129061 165.141187 
L 572.651798 180.960907 
L 573.920746 191.855638 
L 574.935905 198.73936 
L 575.824169 203.265828 
L 576.585537 205.958296 
L 577.093117 207.122001 
L 577.600696 207.771102 
L 577.98138 207.917474 
L 578.362065 207.771316 
L 578.742749 207.333176 
L 579.250328 206.297808 
L 579.884802 204.288833 
L 580.519276 201.505666 
L 581.280645 197.185461 
L 582.168909 190.877282 
L 583.310962 180.96355 
L 584.706805 166.556603 
L 586.483332 145.677925 
L 591.17844 89.186611 
L 592.574283 75.509308 
L 593.716336 66.345505 
L 594.731495 60.005779 
L 595.492864 56.475808 
L 596.127338 54.380607 
L 596.634917 53.274843 
L 597.142496 52.684348 
L 597.523181 52.582131 
L 597.903865 52.772433 
L 598.284549 53.254537 
L 598.792129 54.34796 
L 599.426603 56.428052 
L 600.187971 59.940565 
L 601.076235 65.371362 
L 602.091394 73.196963 
L 602.218288 74.287154 
L 602.218288 74.287154 
" clip-path="url(#p2a12dacf96)" style="fill: none; stroke: #ff7f0e; stroke-width: 1.5; stroke-linecap: square"/>
   </g>
   <g id="patch_3">
    <path d="M 56.602344 222.319648 
L 56.602344 42.006328 
" style="fill: none; stroke: #000000; stroke-width: 0.8; stroke-linejoin: miter; stroke-linecap: square"/>
   </g>
   <g id="patch_4">
    <path d="M 628.2 222.319648 
L 628.2 42.006328 
" style="fill: none; stroke: #000000; stroke-width: 0.8; stroke-linejoin: miter; stroke-linecap: square"/>
   </g>
   <g id="patch_5">
    <path d="M 56.602344 222.319648 
L 628.2 222.319648 
" style="fill: none; stroke: #000000; stroke-width: 0.8; stroke-linejoin: miter; stroke-linecap: square"/>
   </g>
   <g id="patch_6">
    <path d="M 56.602344 42.006328 
L 628.2 42.006328 
" style="fill: none; stroke: #000000; stroke-width: 0.8; stroke-linejoin: miter; stroke-linecap: square"/>
   </g>
   <g id="text_14">
    <!-- Daily Useless RC (2026-09-12) | verdict: feral -->
    <g transform="translate(206.959609 21.550547) scale(0.12 -0.12)">
     <defs>
      <path id="DejaVuSans-27" d="M 1259 4147 
L 1259 519 
L 2022 519 
Q 2988 519 3436 956 
Q 3884 1394 3884 2338 
Q 3884 3275 3436 3711 
Q 2988 4147 2022 4147 
L 1259 4147 
z
M 628 4666 
L 1925 4666 
Q 3281 4666 3915 4102 
Q 4550 3538 4550 2338 
Q 4550 1131 3912 565 
Q 3275 0 1925 0 
L 628 0 
L 628 4666 
z
" transform="scale(0.015625)"/>
      <path id="DejaVuSans-4c" d="M 603 3500 
L 1178 3500 
L 1178 0 
L 603 0 
L 603 3500 
z
M 603 4863 
L 1178 4863 
L 1178 4134 
L 603 4134 
L 603 4863 
z
" transform="scale(0.015625)"/>
      <path id="DejaVuSans-4f" d="M 603 4863 
L 1178 4863 
L 1178 0 
L 603 0 
L 603 4863 
z
" transform="scale(0.015625)"/>
      <path id="DejaVuSans-5c" d="M 2059 -325 
Q 1816 -950 1584 -1140 
Q 1353 -1331 966 -1331 
L 506 -1331 
L 506 -850 
L 844 -850 
Q 1081 -850 1212 -737 
Q 1344 -625 1503 -206 
L 1606 56 
L 191 3500 
L 800 3500 
L 1894 763 
L 2988 3500 
L 3597 3500 
L 2059 -325 
z
" transform="scale(0.015625)"/>
      <path id="DejaVuSans-38" d="M 556 4666 
L 1191 4666 
L 1191 1831 
Q 1191 1081 1462 751 
Q 1734 422 2344 422 
Q 2950 422 3222 751 
Q 3494 1081 3494 1831 
L 3494 4666 
L 4128 4666 
L 4128 1753 
Q 4128 841 3676 375 
Q 3225 -91 2344 -91 
Q 1459 -91 1007 375 
Q 556 841 556 1753 
L 556 4666 
z
" transform="scale(0.015625)"/>
      <path id="DejaVuSans-56" d="M 2834 3397 
L 2834 2853 
Q 2591 2978 2328 3040 
Q 2066 3103 1784 3103 
Q 1356 3103 1142 2972 
Q 928 2841 928 2578 
Q 928 2378 1081 2264 
Q 1234 2150 1697 2047 
L 1894 2003 
Q 2506 1872 2764 1633 
Q 3022 1394 3022 966 
Q 3022 478 2636 193 
Q 2250 -91 1575 -91 
Q 1294 -91 989 -36 
Q 684 19 347 128 
L 347 722 
Q 666 556 975 473 
Q 1284 391 1588 391 
Q 1994 391 2212 530 
Q 2431 669 2431 922 
Q 2431 1156 2273 1281 
Q 2116 1406 1581 1522 
L 1381 1569 
Q 847 1681 609 1914 
Q 372 2147 372 2553 
Q 372 3047 722 3315 
Q 1072 3584 1716 3584 
Q 2034 3584 2315 3537 
Q 2597 3491 2834 3397 
z
" transform="scale(0.015625)"/>
      <path id="DejaVuSans-48" d="M 3597 1894 
L 3597 1613 
L 953 1613 
Q 991 1019 1311 708 
Q 1631 397 2203 397 
Q 2534 397 2845 478 
Q 3156 559 3463 722 
L 3463 178 
Q 3153 47 2828 -22 
Q 2503 -91 2169 -91 
Q 1331 -91 842 396 
Q 353 884 353 1716 
Q 353 2575 817 3079 
Q 1281 3584 2069 3584 
Q 2775 3584 3186 3129 
Q 3597 2675 3597 1894 
z
M 3022 2063 
Q 3016 2534 2758 2815 
Q 2500 3097 2075 3097 
Q 1594 3097 1305 2825 
Q 1016 2553 972 2059 
L 3022 2063 
z
" transform="scale(0.015625)"/>
      <path id="DejaVuSans-35" d="M 2841 2188 
Q 3044 2119 3236 1894 
Q 3428 1669 3622 1275 
L 4263 0 
L 3584 0 
L 2988 1197 
Q 2756 1666 2539 1819 
Q 2322 1972 1947 1972 
L 1259 1972 
L 1259 0 
L 628 0 
L 628 4666 
L 2053 4666 
Q 2853 4666 3247 4331 
Q 3641 3997 3641 3322 
Q 3641 2881 3436 2590 
Q 3231 2300 2841 2188 
z
M 1259 4147 
L 1259 2491 
L 2053 2491 
Q 2509 2491 2742 2702 
Q 2975 2913 2975 3322 
Q 2975 3731 2742 3939 
Q 2509 4147 2053 4147 
L 1259 4147 
z
" transform="scale(0.015625)"/>
      <path id="DejaVuSans-26" d="M 4122 4306 
L 4122 3641 
Q 3803 3938 3442 4084 
Q 3081 4231 2675 4231 
Q 1875 4231 1450 3742 
Q 1025 3253 1025 2328 
Q 1025 1406 1450 917 
Q 1875 428 2675 428 
Q 3081 428 3442 575 
Q 3803 722 4122 1019 
L 4122 359 
Q 3791 134 3420 21 
Q 3050 -91 2638 -91 
Q 1578 -91 968 557 
Q 359 1206 359 2328 
Q 359 3453 968 4101 
Q 1578 4750 2638 4750 
Q 3056 4750 3426 4639 
Q 3797 4528 4122 4306 
z
" transform="scale(0.015625)"/>
      <path id="DejaVuSans-b" d="M 1984 4856 
Q 1566 4138 1362 3434 
Q 1159 2731 1159 2009 
Q 1159 1288 1364 580 
Q 1569 -128 1984 -844 
L 1484 -844 
Q 1016 -109 783 600 
Q 550 1309 550 2009 
Q 550 2706 781 3412 
Q 1013 4119 1484 4856 
L 1984 4856 
z
" transform="scale(0.015625)"/>
      <path id="DejaVuSans-10" d="M 313 2009 
L 1997 2009 
L 1997 1497 
L 313 1497 
L 313 2009 
z
" transform="scale(0.015625)"/>
      <path id="DejaVuSans-1c" d="M 703 97 
L 703 672 
Q 941 559 1184 500 
Q 1428 441 1663 441 
Q 2288 441 2617 861 
Q 2947 1281 2994 2138 
Q 2813 1869 2534 1725 
Q 2256 1581 1919 1581 
Q 1219 1581 811 2004 
Q 403 2428 403 3163 
Q 403 3881 828 4315 
Q 1253 4750 1959 4750 
Q 2769 4750 3195 4129 
Q 3622 3509 3622 2328 
Q 3622 1225 3098 567 
Q 2575 -91 1691 -91 
Q 1453 -91 1209 -44 
Q 966 3 703 97 
z
M 1959 2075 
Q 2384 2075 2632 2365 
Q 2881 2656 2881 3163 
Q 2881 3666 2632 3958 
Q 2384 4250 1959 4250 
Q 1534 4250 1286 3958 
Q 1038 3666 1038 3163 
Q 1038 2656 1286 2365 
Q 1534 2075 1959 2075 
z
" transform="scale(0.015625)"/>
      <path id="DejaVuSans-c" d="M 513 4856 
L 1013 4856 
Q 1481 4119 1714 3412 
Q 1947 2706 1947 2009 
Q 1947 1309 1714 600 
Q 1481 -109 1013 -844 
L 513 -844 
Q 928 -128 1133 580 
Q 1338 1288 1338 2009 
Q 1338 2731 1133 3434 
Q 928 4138 513 4856 
z
" transform="scale(0.015625)"/>
      <path id="DejaVuSans-5f" d="M 1344 4891 
L 1344 -1509 
L 813 -1509 
L 813 4891 
L 1344 4891 
z
" transform="scale(0.015625)"/>
      <path id="DejaVuSans-59" d="M 191 3500 
L 800 3500 
L 1894 563 
L 2988 3500 
L 3597 3500 
L 2284 0 
L 1503 0 
L 191 3500 
z
" transform="scale(0.015625)"/>
      <path id="DejaVuSans-47" d="M 2906 2969 
L 2906 4863 
L 3481 4863 
L 3481 0 
L 2906 0 
L 2906 525 
Q 2725 213 2448 61 
Q 2172 -91 1784 -91 
Q 1150 -91 751 415 
Q 353 922 353 1747 
Q 353 2572 751 3078 
Q 1150 3584 1784 3584 
Q 2172 3584 2448 3432 
Q 2725 3281 2906 2969 
z
M 947 1747 
Q 947 1113 1208 752 
Q 1469 391 1925 391 
Q 2381 391 2643 752 
Q 2906 1113 2906 1747 
Q 2906 2381 2643 2742 
Q 2381 3103 1925 3103 
Q 1469 3103 1208 2742 
Q 947 2381 947 1747 
z
" transform="scale(0.015625)"/>
      <path id="DejaVuSans-46" d="M 3122 3366 
L 3122 2828 
Q 2878 2963 2633 3030 
Q 2388 3097 2138 3097 
Q 1578 3097 1268 2742 
Q 959 2388 959 1747 
Q 959 1106 1268 751 
Q 1578 397 2138 397 
Q 2388 397 2633 464 
Q 2878 531 3122 666 
L 3122 134 
Q 2881 22 2623 -34 
Q 2366 -91 2075 -91 
Q 1284 -91 818 406 
Q 353 903 353 1747 
Q 353 2603 823 3093 
Q 1294 3584 2113 3584 
Q 2378 3584 2631 3529 
Q 2884 3475 3122 3366 
z
" transform="scale(0.015625)"/>
      <path id="DejaVuSans-1d" d="M 750 794 
L 1409 794 
L 1409 0 
L 750 0 
L 750 794 
z
M 750 3309 
L 1409 3309 
L 1409 2516 
L 750 2516 
L 750 3309 
z
" transform="scale(0.015625)"/>
      <path id="DejaVuSans-49" d="M 2375 4863 
L 2375 4384 
L 1825 4384 
Q 1516 4384 1395 4259 
Q 1275 4134 1275 3809 
L 1275 3500 
L 2222 3500 
L 2222 3053 
L 1275 3053 
L 1275 0 
L 697 0 
L 697 3053 
L 147 3053 
L 147 3500 
L 697 3500 
L 697 3744 
Q 697 4328 969 4595 
Q 1241 4863 1831 4863 
L 2375 4863 
z
" transform="scale(0.015625)"/>
     </defs>
     <use xlink:href="#DejaVuSans-27"/>
     <use xlink:href="#DejaVuSans-44" transform="translate(77 0)"/>
     <use xlink:href="#DejaVuSans-4c" transform="translate(138.28125 0)"/>
     <use xlink:href="#DejaVuSans-4f" transform="translate(166.0625 0)"/>
     <use xlink:href="#DejaVuSans-5c" transform="translate(193.84375 0)"/>
     <use xlink:href="#DejaVuSans-3" transform="translate(253.03125 0)"/>
     <use xlink:href="#DejaVuSans-38" transform="translate(284.8125 0)"/>
     <use xlink:href="#DejaVuSans-56" transform="translate(358 0)"/>
     <use xlink:href="#DejaVuSans-48" transform="translate(410.09375 0)"/>
     <use xlink:href="#DejaVuSans-4f" transform="translate(471.625 0)"/>
     <use xlink:href="#DejaVuSans-48" transform="translate(499.40625 0)"/>
     <use xlink:href="#DejaVuSans-56" transform="translate(560.9375 0)"/>
     <use xlink:href="#DejaVuSans-56" transform="translate(613.03125 0)"/>
     <use xlink:href="#DejaVuSans-3" transform="translate(665.125 0)"/>
     <use xlink:href="#DejaVuSans-35" transform="translate(696.90625 0)"/>
     <use xlink:href="#DejaVuSans-26" transform="translate(761.40625 0)"/>
     <use xlink:href="#DejaVuSans-3" transform="translate(831.234375 0)"/>
     <use xlink:href="#DejaVuSans-b" transform="translate(863.015625 0)"/>
     <use xlink:href="#DejaVuSans-15" transform="translate(902.03125 0)"/>
     <use xlink:href="#DejaVuSans-13" transform="translate(965.65625 0)"/>
     <use xlink:href="#DejaVuSans-15" transform="translate(1029.28125 0)"/>
     <use xlink:href="#DejaVuSans-19" transform="translate(1092.90625 0)"/>
     <use xlink:href="#DejaVuSans-10" transform="translate(1156.53125 0)"/>
     <use xlink:href="#DejaVuSans-13" transform="translate(1192.609375 0)"/>
     <use xlink:href="#DejaVuSans-1c" transform="translate(1256.234375 0)"/>
     <use xlink:href="#DejaVuSans-10" transform="translate(1319.859375 0)"/>
     <use xlink:href="#DejaVuSans-14" transform="translate(1355.9375 0)"/>
     <use xlink:href="#DejaVuSans-15" transform="translate(1419.5625 0)"/>
     <use xlink:href="#DejaVuSans-c" transform="translate(1483.1875 0)"/>
     <use xlink:href="#DejaVuSans-3" transform="translate(1522.203125 0)"/>
     <use xlink:href="#DejaVuSans-5f" transform="translate(1553.984375 0)"/>
     <use xlink:href="#DejaVuSans-3" transform="translate(1587.671875 0)"/>
     <use xlink:href="#DejaVuSans-59" transform="translate(1619.453125 0)"/>
     <use xlink:href="#DejaVuSans-48" transform="translate(1678.640625 0)"/>
     <use xlink:href="#DejaVuSans-55" transform="translate(1740.171875 0)"/>
     <use xlink:href="#DejaVuSans-47" transform="translate(1779.53125 0)"/>
     <use xlink:href="#DejaVuSans-4c" transform="translate(1843.015625 0)"/>
     <use xlink:href="#DejaVuSans-46" transform="translate(1870.796875 0)"/>
     <use xlink:href="#DejaVuSans-57" transform="translate(1925.78125 0)"/>
     <use xlink:href="#DejaVuSans-1d" transform="translate(1964.984375 0)"/>
     <use xlink:href="#DejaVuSans-3" transform="translate(1998.671875 0)"/>
     <use xlink:href="#DejaVuSans-49" transform="translate(2030.453125 0)"/>
     <use xlink:href="#DejaVuSans-48" transform="translate(2065.65625 0)"/>
     <use xlink:href="#DejaVuSans-55" transform="translate(2127.1875 0)"/>
     <use xlink:href="#DejaVuSans-44" transform="translate(2168.296875 0)"/>
     <use xlink:href="#DejaVuSans-4f" transform="translate(2229.578125 0)"/>
    </g>
    <!-- Filter: high | Input: sine, sine (A=1.19, f=1.33 Hz) | R=5.00, C=0.10, τ=0.50 -->
    <g transform="translate(113.395234 36.006328) scale(0.12 -0.12)">
     <defs>
      <path id="DejaVuSans-29" d="M 628 4666 
L 3309 4666 
L 3309 4134 
L 1259 4134 
L 1259 2759 
L 3109 2759 
L 3109 2228 
L 1259 2228 
L 1259 0 
L 628 0 
L 628 4666 
z
" transform="scale(0.015625)"/>
      <path id="DejaVuSans-4b" d="M 3513 2113 
L 3513 0 
L 2938 0 
L 2938 2094 
Q 2938 2591 2744 2837 
Q 2550 3084 2163 3084 
Q 1697 3084 1428 2787 
Q 1159 2491 1159 1978 
L 1159 0 
L 581 0 
L 581 4863 
L 1159 4863 
L 1159 2956 
Q 1366 3272 1645 3428 
Q 1925 3584 2291 3584 
Q 2894 3584 3203 3211 
Q 3513 2838 3513 2113 
z
" transform="scale(0.015625)"/>
      <path id="DejaVuSans-4a" d="M 2906 1791 
Q 2906 2416 2648 2759 
Q 2391 3103 1925 3103 
Q 1463 3103 1205 2759 
Q 947 2416 947 1791 
Q 947 1169 1205 825 
Q 1463 481 1925 481 
Q 2391 481 2648 825 
Q 2906 1169 2906 1791 
z
M 3481 434 
Q 3481 -459 3084 -895 
Q 2688 -1331 1869 -1331 
Q 1566 -1331 1297 -1286 
Q 1028 -1241 775 -1147 
L 775 -588 
Q 1028 -725 1275 -790 
Q 1522 -856 1778 -856 
Q 2344 -856 2625 -561 
Q 2906 -266 2906 331 
L 2906 616 
Q 2728 306 2450 153 
Q 2172 0 1784 0 
Q 1141 0 747 490 
Q 353 981 353 1791 
Q 353 2603 747 3093 
Q 1141 3584 1784 3584 
Q 2172 3584 2450 3431 
Q 2728 3278 2906 2969 
L 2906 3500 
L 3481 3500 
L 3481 434 
z
" transform="scale(0.015625)"/>
      <path id="DejaVuSans-2c" d="M 628 4666 
L 1259 4666 
L 1259 0 
L 628 0 
L 628 4666 
z
" transform="scale(0.015625)"/>
      <path id="DejaVuSans-51" d="M 3513 2113 
L 3513 0 
L 2938 0 
L 2938 2094 
Q 2938 2591 2744 2837 
Q 2550 3084 2163 3084 
Q 1697 3084 1428 2787 
Q 1159 2491 1159 1978 
L 1159 0 
L 581 0 
L 581 3500 
L 1159 3500 
L 1159 2956 
Q 1366 3272 1645 3428 
Q 1925 3584 2291 3584 
Q 2894 3584 3203 3211 
Q 3513 2838 3513 2113 
z
" transform="scale(0.015625)"/>
      <path id="DejaVuSans-53" d="M 1159 525 
L 1159 -1331 
L 581 -1331 
L 581 3500 
L 1159 3500 
L 1159 2969 
Q 1341 3281 1617 3432 
Q 1894 3584 2278 3584 
Q 2916 3584 3314 3078 
Q 3713 2572 3713 1747 
Q 3713 922 3314 415 
Q 2916 -91 2278 -91 
Q 1894 -91 1617 61 
Q 1341 213 1159 525 
z
M 3116 1747 
Q 3116 2381 2855 2742 
Q 2594 3103 2138 3103 
Q 1681 3103 1420 2742 
Q 1159 2381 1159 1747 
Q 1159 1113 1420 752 
Q 1681 391 2138 391 
Q 2594 391 2855 752 
Q 3116 1113 3116 1747 
z
" transform="scale(0.015625)"/>
      <path id="DejaVuSans-58" d="M 544 1381 
L 544 3500 
L 1119 3500 
L 1119 1403 
Q 1119 906 1312 657 
Q 1506 409 1894 409 
Q 2359 409 2629 706 
Q 2900 1003 2900 1516 
L 2900 3500 
L 3475 3500 
L 3475 0 
L 2900 0 
L 2900 538 
Q 2691 219 2414 64 
Q 2138 -91 1772 -91 
Q 1169 -91 856 284 
Q 544 659 544 1381 
z
M 1991 3584 
L 1991 3584 
z
" transform="scale(0.015625)"/>
      <path id="DejaVuSans-f" d="M 750 794 
L 1409 794 
L 1409 256 
L 897 -744 
L 494 -744 
L 750 256 
L 750 794 
z
" transform="scale(0.015625)"/>
      <path id="DejaVuSans-24" d="M 2188 4044 
L 1331 1722 
L 3047 1722 
L 2188 4044 
z
M 1831 4666 
L 2547 4666 
L 4325 0 
L 3669 0 
L 3244 1197 
L 1141 1197 
L 716 0 
L 50 0 
L 1831 4666 
z
" transform="scale(0.015625)"/>
      <path id="DejaVuSans-20" d="M 678 2906 
L 4684 2906 
L 4684 2381 
L 678 2381 
L 678 2906 
z
M 678 1631 
L 4684 1631 
L 4684 1100 
L 678 1100 
L 678 1631 
z
" transform="scale(0.015625)"/>
      <path id="DejaVuSans-16" d="M 2597 2516 
Q 3050 2419 3304 2112 
Q 3559 1806 3559 1356 
Q 3559 666 3084 287 
Q 2609 -91 1734 -91 
Q 1441 -91 1130 -33 
Q 819 25 488 141 
L 488 750 
Q 750 597 1062 519 
Q 1375 441 1716 441 
Q 2309 441 2620 675 
Q 2931 909 2931 1356 
Q 2931 1769 2642 2001 
Q 2353 2234 1838 2234 
L 1294 2234 
L 1294 2753 
L 1863 2753 
Q 2328 2753 2575 2939 
Q 2822 3125 2822 3475 
Q 2822 3834 2567 4026 
Q 2313 4219 1838 4219 
Q 1578 4219 1281 4162 
Q 984 4106 628 3988 
L 628 4550 
Q 988 4650 1302 4700 
Q 1616 4750 1894 4750 
Q 2613 4750 3031 4423 
Q 3450 4097 3450 3541 
Q 3450 3153 3228 2886 
Q 3006 2619 2597 2516 
z
" transform="scale(0.015625)"/>
      <path id="DejaVuSans-2b" d="M 628 4666 
L 1259 4666 
L 1259 2753 
L 3553 2753 
L 3553 4666 
L 4184 4666 
L 4184 0 
L 3553 0 
L 3553 2222 
L 1259 2222 
L 1259 0 
L 628 0 
L 628 4666 
z
" transform="scale(0.015625)"/>
      <path id="DejaVuSans-5d" d="M 353 3500 
L 3084 3500 
L 3084 2975 
L 922 459 
L 3084 459 
L 3084 0 
L 275 0 
L 275 525 
L 2438 3041 
L 353 3041 
L 353 3500 
z
" transform="scale(0.015625)"/>
      <path id="DejaVuSans-358" d="M 2319 638 
Q 2431 488 2769 488 
L 3047 488 
L 3047 0 
L 2700 0 
Q 2138 0 1881 300 
Q 1625 606 1625 1269 
L 1625 2925 
L 313 2925 
L 313 3500 
L 3541 3500 
L 3541 2925 
L 2213 2925 
L 2213 1234 
Q 2213 781 2319 638 
z
" transform="scale(0.015625)"/>
     </defs>
     <use xlink:href="#DejaVuSans-29"/>
     <use xlink:href="#DejaVuSans-4c" transform="translate(50.234375 0)"/>
     <use xlink:href="#DejaVuSans-4f" transform="translate(78.015625 0)"/>
     <use xlink:href="#DejaVuSans-57" transform="translate(105.796875 0)"/>
     <use xlink:href="#DejaVuSans-48" transform="translate(145 0)"/>
     <use xlink:href="#DejaVuSans-55" transform="translate(206.53125 0)"/>
     <use xlink:href="#DejaVuSans-1d" transform="translate(245.890625 0)"/>
     <use xlink:href="#DejaVuSans-3" transform="translate(279.578125 0)"/>
     <use xlink:href="#DejaVuSans-4b" transform="translate(311.359375 0)"/>
     <use xlink:href="#DejaVuSans-4c" transform="translate(374.734375 0)"/>
     <use xlink:href="#DejaVuSans-4a" transform="translate(402.515625 0)"/>
     <use xlink:href="#DejaVuSans-4b" transform="translate(466 0)"/>
     <use xlink:href="#DejaVuSans-3" transform="translate(529.375 0)"/>
     <use xlink:href="#DejaVuSans-5f" transform="translate(561.15625 0)"/>
     <use xlink:href="#DejaVuSans-3" transform="translate(594.84375 0)"/>
     <use xlink:href="#DejaVuSans-2c" transform="translate(626.625 0)"/>
     <use xlink:href="#DejaVuSans-51" transform="translate(656.125 0)"/>
     <use xlink:href="#DejaVuSans-53" transform="translate(719.5 0)"/>
     <use xlink:href="#DejaVuSans-58" transform="translate(782.984375 0)"/>
     <use xlink:href="#DejaVuSans-57" transform="translate(846.359375 0)"/>
     <use xlink:href="#DejaVuSans-1d" transform="translate(885.5625 0)"/>
     <use xlink:href="#DejaVuSans-3" transform="translate(919.25 0)"/>
     <use xlink:href="#DejaVuSans-56" transform="translate(951.03125 0)"/>
     <use xlink:href="#DejaVuSans-4c" transform="translate(1003.125 0)"/>
     <use xlink:href="#DejaVuSans-51" transform="translate(1030.90625 0)"/>
     <use xlink:href="#DejaVuSans-48" transform="translate(1094.28125 0)"/>
     <use xlink:href="#DejaVuSans-f" transform="translate(1155.8125 0)"/>
     <use xlink:href="#DejaVuSans-3" transform="translate(1187.59375 0)"/>
     <use xlink:href="#DejaVuSans-56" transform="translate(1219.375 0)"/>
     <use xlink:href="#DejaVuSans-4c" transform="translate(1271.46875 0)"/>
     <use xlink:href="#DejaVuSans-51" transform="translate(1299.25 0)"/>
     <use xlink:href="#DejaVuSans-48" transform="translate(1362.625 0)"/>
     <use xlink:href="#DejaVuSans-3" transform="translate(1424.15625 0)"/>
     <use xlink:href="#DejaVuSans-b" transform="translate(1455.9375 0)"/>
     <use xlink:href="#DejaVuSans-24" transform="translate(1494.953125 0)"/>
     <use xlink:href="#DejaVuSans-20" transform="translate(1563.359375 0)"/>
     <use xlink:href="#DejaVuSans-14" transform="translate(1647.15625 0)"/>
     <use xlink:href="#DejaVuSans-11" transform="translate(1710.78125 0)"/>
     <use xlink:href="#DejaVuSans-14" transform="translate(1742.5625 0)"/>
     <use xlink:href="#DejaVuSans-1c" transform="translate(1806.1875 0)"/>
     <use xlink:href="#DejaVuSans-f" transform="translate(1869.8125 0)"/>
     <use xlink:href="#DejaVuSans-3" transform="translate(1901.59375 0)"/>
     <use xlink:href="#DejaVuSans-49" transform="translate(1933.375 0)"/>
     <use xlink:href="#DejaVuSans-20" transform="translate(1968.578125 0)"/>
     <use xlink:href="#DejaVuSans-14" transform="translate(2052.375 0)"/>
     <use xlink:href="#DejaVuSans-11" transform="translate(2116 0)"/>
     <use xlink:href="#DejaVuSans-16" transform="translate(2147.78125 0)"/>
     <use xlink:href="#DejaVuSans-16" transform="translate(2211.40625 0)"/>
     <use xlink:href="#DejaVuSans-3" transform="translate(2275.03125 0)"/>
     <use xlink:href="#DejaVuSans-2b" transform="translate(2306.8125 0)"/>
     <use xlink:href="#DejaVuSans-5d" transform="translate(2382.015625 0)"/>
     <use xlink:href="#DejaVuSans-c" transform="translate(2434.5 0)"/>
     <use xlink:href="#DejaVuSans-3" transform="translate(2473.515625 0)"/>
     <use xlink:href="#DejaVuSans-5f" transform="translate(2505.296875 0)"/>
     <use xlink:href="#DejaVuSans-3" transform="translate(2538.984375 0)"/>
     <use xlink:href="#DejaVuSans-35" transform="translate(2570.765625 0)"/>
     <use xlink:href="#DejaVuSans-20" transform="translate(2640.25 0)"/>
     <use xlink:href="#DejaVuSans-18" transform="translate(2724.046875 0)"/>
     <use xlink:href="#DejaVuSans-11" transform="translate(2787.671875 0)"/>
     <use xlink:href="#DejaVuSans-13" transform="translate(2819.453125 0)"/>
     <use xlink:href="#DejaVuSans-13" transform="translate(2883.078125 0)"/>
     <use xlink:href="#DejaVuSans-f" transform="translate(2946.703125 0)"/>
     <use xlink:href="#DejaVuSans-3" transform="translate(2978.484375 0)"/>
     <use xlink:href="#DejaVuSans-26" transform="translate(3010.265625 0)"/>
     <use xlink:href="#DejaVuSans-20" transform="translate(3080.09375 0)"/>
     <use xlink:href="#DejaVuSans-13" transform="translate(3163.890625 0)"/>
     <use xlink:href="#DejaVuSans-11" transform="translate(3227.515625 0)"/>
     <use xlink:href="#DejaVuSans-14" transform="translate(3259.296875 0)"/>
     <use xlink:href="#DejaVuSans-13" transform="translate(3322.921875 0)"/>
     <use xlink:href="#DejaVuSans-f" transform="translate(3386.546875 0)"/>
     <use xlink:href="#DejaVuSans-3" transform="translate(3418.328125 0)"/>
     <use xlink:href="#DejaVuSans-358" transform="translate(3450.109375 0)"/>
     <use xlink:href="#DejaVuSans-20" transform="translate(3510.3125 0)"/>
     <use xlink:href="#DejaVuSans-13" transform="translate(3594.109375 0)"/>
     <use xlink:href="#DejaVuSans-11" transform="translate(3657.734375 0)"/>
     <use xlink:href="#DejaVuSans-18" transform="translate(3689.515625 0)"/>
     <use xlink:href="#DejaVuSans-13" transform="translate(3753.140625 0)"/>
    </g>
   </g>
   <g id="legend_1">
    <g id="patch_7">
     <path d="M 556.217187 148.66377 
L 621.2 148.66377 
Q 623.2 148.66377 623.2 146.66377 
L 623.2 117.662207 
Q 623.2 115.662207 621.2 115.662207 
L 556.217187 115.662207 
Q 554.217187 115.662207 554.217187 117.662207 
L 554.217187 146.66377 
Q 554.217187 148.66377 556.217187 148.66377 
z
" style="fill: #ffffff; opacity: 0.8; stroke: #cccccc; stroke-linejoin: miter"/>
    </g>
    <g id="line2d_25">
     <path d="M 558.217187 123.760645 
L 568.217187 123.760645 
L 578.217187 123.760645 
" style="fill: none; stroke: #1f77b4; stroke-width: 1.5; stroke-linecap: square"/>
    </g>
    <g id="text_15">
     <!-- input -->
     <g transform="translate(586.217187 127.260645) scale(0.1 -0.1)">
      <use xlink:href="#DejaVuSans-4c"/>
      <use xlink:href="#DejaVuSans-51" transform="translate(27.78125 0)"/>
      <use xlink:href="#DejaVuSans-53" transform="translate(91.15625 0)"/>
      <use xlink:href="#DejaVuSans-58" transform="translate(154.640625 0)"/>
      <use xlink:href="#DejaVuSans-57" transform="translate(218.015625 0)"/>
     </g>
    </g>
    <g id="line2d_26">
     <path d="M 558.217187 138.761426 
L 568.217187 138.761426 
L 578.217187 138.761426 
" style="fill: none; stroke: #ff7f0e; stroke-width: 1.5; stroke-linecap: square"/>
    </g>
    <g id="text_16">
     <!-- output -->
     <g transform="translate(586.217187 142.261426) scale(0.1 -0.1)">
      <defs>
       <path id="DejaVuSans-52" d="M 1959 3097 
Q 1497 3097 1228 2736 
Q 959 2375 959 1747 
Q 959 1119 1226 758 
Q 1494 397 1959 397 
Q 2419 397 2687 759 
Q 2956 1122 2956 1747 
Q 2956 2369 2687 2733 
Q 2419 3097 1959 3097 
z
M 1959 3584 
Q 2709 3584 3137 3096 
Q 3566 2609 3566 1747 
Q 3566 888 3137 398 
Q 2709 -91 1959 -91 
Q 1206 -91 779 398 
Q 353 888 353 1747 
Q 353 2609 779 3096 
Q 1206 3584 1959 3584 
z
" transform="scale(0.015625)"/>
      </defs>
      <use xlink:href="#DejaVuSans-52"/>
      <use xlink:href="#DejaVuSans-58" transform="translate(61.1875 0)"/>
      <use xlink:href="#DejaVuSans-57" transform="translate(124.5625 0)"/>
      <use xlink:href="#DejaVuSans-53" transform="translate(163.765625 0)"/>
      <use xlink:href="#DejaVuSans-58" transform="translate(227.25 0)"/>
      <use xlink:href="#DejaVuSans-57" transform="translate(290.625 0)"/>
     </g>
    </g>
   </g>
  </g>
  <g id="axes_2">
   <g id="patch_8">
    <path d="M 56.602344 460.115313 
L 628.2 460.115313 
L 628.2 279.801992 
L 56.602344 279.801992 
z
" style="fill: #ffffff"/>
   </g>
   <g id="matplotlib.axis_3">
    <g id="xtick_7">
     <g id="line2d_27">
      <path d="M 56.602344 460.115313 
L 56.602344 279.801992 
" clip-path="url(#p364605ce1d)" style="fill: none; stroke: #b0b0b0; stroke-opacity: 0.25; stroke-width: 0.8; stroke-linecap: square"/>
     </g>
     <g id="line2d_28">
      <g>
       <use xlink:href="#m70c8b8179d" x="56.602344" y="460.115313" style="stroke: #000000; stroke-width: 0.8"/>
      </g>
     </g>
     <g id="text_17">
      <!-- $\mathdefault{10^{-1}}$ -->
      <g transform="translate(44.852344 476.415313) scale(0.1 -0.1)">
       <use xlink:href="#DejaVuSans-14" transform="translate(0 0.665625)"/>
       <use xlink:href="#DejaVuSans-13" transform="translate(63.623047 0.665625)"/>
       <use xlink:href="#DejaVuSans-c9c" transform="translate(128.203125 41.965625) scale(0.7)"/>
       <use xlink:href="#DejaVuSans-14" transform="translate(186.855469 41.965625) scale(0.7)"/>
      </g>
     </g>
    </g>
    <g id="xtick_8">
     <g id="line2d_29">
      <path d="M 342.401172 460.115313 
L 342.401172 279.801992 
" clip-path="url(#p364605ce1d)" style="fill: none; stroke: #b0b0b0; stroke-opacity: 0.25; stroke-width: 0.8; stroke-linecap: square"/>
     </g>
     <g id="line2d_30">
      <g>
       <use xlink:href="#m70c8b8179d" x="342.401172" y="460.115313" style="stroke: #000000; stroke-width: 0.8"/>
      </g>
     </g>
     <g id="text_18">
      <!-- $\mathdefault{10^{0}}$ -->
      <g transform="translate(333.601172 476.515313) scale(0.1 -0.1)">
       <use xlink:href="#DejaVuSans-14" transform="translate(0 0.746875)"/>
       <use xlink:href="#DejaVuSans-13" transform="translate(63.623047 0.746875)"/>
       <use xlink:href="#DejaVuSans-13" transform="translate(128.203125 42.046875) scale(0.7)"/>
      </g>
     </g>
    </g>
    <g id="xtick_9">
     <g id="line2d_31">
      <path d="M 628.2 460.115313 
L 628.2 279.801992 
" clip-path="url(#p364605ce1d)" style="fill: none; stroke: #b0b0b0; stroke-opacity: 0.25; stroke-width: 0.8; stroke-linecap: square"/>
     </g>
     <g id="line2d_32">
      <g>
       <use xlink:href="#m70c8b8179d" x="628.2" y="460.115313" style="stroke: #000000; stroke-width: 0.8"/>
      </g>
     </g>
     <g id="text_19">
      <!-- $\mathdefault{10^{1}}$ -->
      <g transform="translate(619.4 476.415313) scale(0.1 -0.1)">
       <use xlink:href="#DejaVuSans-14" transform="translate(0 0.665625)"/>
       <use xlink:href="#DejaVuSans-13" transform="translate(63.623047 0.665625)"/>
       <use xlink:href="#DejaVuSans-14" transform="translate(128.203125 41.965625) scale(0.7)"/>
      </g>
     </g>
    </g>
    <g id="xtick_10">
     <g id="line2d_33">
      <defs>
       <path id="m2b87815b8c" d="M 0 0 
L 0 2 
" style="stroke: #000000; stroke-width: 0.6"/>
      </defs>
      <g>
       <use xlink:href="#m2b87815b8c" x="142.636364" y="460.115313" style="stroke: #000000; stroke-width: 0.6"/>
      </g>
     </g>
    </g>
    <g id="xtick_11">
     <g id="line2d_34">
      <g>
       <use xlink:href="#m2b87815b8c" x="192.963039" y="460.115313" style="stroke: #000000; stroke-width: 0.6"/>
      </g>
     </g>
    </g>
    <g id="xtick_12">
     <g id="line2d_35">
      <g>
       <use xlink:href="#m2b87815b8c" x="228.670384" y="460.115313" style="stroke: #000000; stroke-width: 0.6"/>
      </g>
     </g>
    </g>
    <g id="xtick_13">
     <g id="line2d_36">
      <g>
       <use xlink:href="#m2b87815b8c" x="256.367152" y="460.115313" style="stroke: #000000; stroke-width: 0.6"/>
      </g>
     </g>
    </g>
    <g id="xtick_14">
     <g id="line2d_37">
      <g>
       <use xlink:href="#m2b87815b8c" x="278.997059" y="460.115313" style="stroke: #000000; stroke-width: 0.6"/>
      </g>
     </g>
    </g>
    <g id="xtick_15">
     <g id="line2d_38">
      <g>
       <use xlink:href="#m2b87815b8c" x="298.130373" y="460.115313" style="stroke: #000000; stroke-width: 0.6"/>
      </g>
     </g>
    </g>
    <g id="xtick_16">
     <g id="line2d_39">
      <g>
       <use xlink:href="#m2b87815b8c" x="314.704404" y="460.115313" style="stroke: #000000; stroke-width: 0.6"/>
      </g>
     </g>
    </g>
    <g id="xtick_17">
     <g id="line2d_40">
      <g>
       <use xlink:href="#m2b87815b8c" x="329.323735" y="460.115313" style="stroke: #000000; stroke-width: 0.6"/>
      </g>
     </g>
    </g>
    <g id="xtick_18">
     <g id="line2d_41">
      <g>
       <use xlink:href="#m2b87815b8c" x="428.435192" y="460.115313" style="stroke: #000000; stroke-width: 0.6"/>
      </g>
     </g>
    </g>
    <g id="xtick_19">
     <g id="line2d_42">
      <g>
       <use xlink:href="#m2b87815b8c" x="478.761867" y="460.115313" style="stroke: #000000; stroke-width: 0.6"/>
      </g>
     </g>
    </g>
    <g id="xtick_20">
     <g id="line2d_43">
      <g>
       <use xlink:href="#m2b87815b8c" x="514.469212" y="460.115313" style="stroke: #000000; stroke-width: 0.6"/>
      </g>
     </g>
    </g>
    <g id="xtick_21">
     <g id="line2d_44">
      <g>
       <use xlink:href="#m2b87815b8c" x="542.16598" y="460.115313" style="stroke: #000000; stroke-width: 0.6"/>
      </g>
     </g>
    </g>
    <g id="xtick_22">
     <g id="line2d_45">
      <g>
       <use xlink:href="#m2b87815b8c" x="564.795887" y="460.115313" style="stroke: #000000; stroke-width: 0.6"/>
      </g>
     </g>
    </g>
    <g id="xtick_23">
     <g id="line2d_46">
      <g>
       <use xlink:href="#m2b87815b8c" x="583.929201" y="460.115313" style="stroke: #000000; stroke-width: 0.6"/>
      </g>
     </g>
    </g>
    <g id="xtick_24">
     <g id="line2d_47">
      <g>
       <use xlink:href="#m2b87815b8c" x="600.503232" y="460.115313" style="stroke: #000000; stroke-width: 0.6"/>
      </g>
     </g>
    </g>
    <g id="xtick_25">
     <g id="line2d_48">
      <g>
       <use xlink:href="#m2b87815b8c" x="615.122563" y="460.115313" style="stroke: #000000; stroke-width: 0.6"/>
      </g>
     </g>
    </g>
    <g id="text_20">
     <!-- frequency [arb.] -->
     <g transform="translate(301.948828 490.516094) scale(0.1 -0.1)">
      <defs>
       <path id="DejaVuSans-54" d="M 947 1747 
Q 947 1113 1208 752 
Q 1469 391 1925 391 
Q 2381 391 2643 752 
Q 2906 1113 2906 1747 
Q 2906 2381 2643 2742 
Q 2381 3103 1925 3103 
Q 1469 3103 1208 2742 
Q 947 2381 947 1747 
z
M 2906 525 
Q 2725 213 2448 61 
Q 2172 -91 1784 -91 
Q 1150 -91 751 415 
Q 353 922 353 1747 
Q 353 2572 751 3078 
Q 1150 3584 1784 3584 
Q 2172 3584 2448 3432 
Q 2725 3281 2906 2969 
L 2906 3500 
L 3481 3500 
L 3481 -1331 
L 2906 -1331 
L 2906 525 
z
" transform="scale(0.015625)"/>
      </defs>
      <use xlink:href="#DejaVuSans-49"/>
      <use xlink:href="#DejaVuSans-55" transform="translate(35.203125 0)"/>
      <use xlink:href="#DejaVuSans-48" transform="translate(74.109375 0)"/>
      <use xlink:href="#DejaVuSans-54" transform="translate(135.640625 0)"/>
      <use xlink:href="#DejaVuSans-58" transform="translate(199.125 0)"/>
      <use xlink:href="#DejaVuSans-48" transform="translate(262.5 0)"/>
      <use xlink:href="#DejaVuSans-51" transform="translate(324.03125 0)"/>
      <use xlink:href="#DejaVuSans-46" transform="translate(387.40625 0)"/>
      <use xlink:href="#DejaVuSans-5c" transform="translate(442.390625 0)"/>
      <use xlink:href="#DejaVuSans-3" transform="translate(501.578125 0)"/>
      <use xlink:href="#DejaVuSans-3e" transform="translate(533.359375 0)"/>
      <use xlink:href="#DejaVuSans-44" transform="translate(572.375 0)"/>
      <use xlink:href="#DejaVuSans-55" transform="translate(633.65625 0)"/>
      <use xlink:href="#DejaVuSans-45" transform="translate(674.765625 0)"/>
      <use xlink:href="#DejaVuSans-11" transform="translate(738.25 0)"/>
      <use xlink:href="#DejaVuSans-40" transform="translate(770.03125 0)"/>
     </g>
    </g>
   </g>
   <g id="matplotlib.axis_4">
    <g id="ytick_6">
     <g id="line2d_49">
      <path d="M 56.602344 448.759638 
L 628.2 448.759638 
" clip-path="url(#p364605ce1d)" style="fill: none; stroke: #b0b0b0; stroke-opacity: 0.25; stroke-width: 0.8; stroke-linecap: square"/>
     </g>
     <g id="line2d_50">
      <g>
       <use xlink:href="#m8e42770503" x="56.602344" y="448.759638" style="stroke: #000000; stroke-width: 0.8"/>
      </g>
     </g>
     <g id="text_21">
      <!-- $\mathdefault{10^{-9}}$ -->
      <g transform="translate(26.102344 453.459638) scale(0.1 -0.1)">
       <use xlink:href="#DejaVuSans-14" transform="translate(0 0.746875)"/>
       <use xlink:href="#DejaVuSans-13" transform="translate(63.623047 0.746875)"/>
       <use xlink:href="#DejaVuSans-c9c" transform="translate(128.203125 42.046875) scale(0.7)"/>
       <use xlink:href="#DejaVuSans-1c" transform="translate(186.855469 42.046875) scale(0.7)"/>
      </g>
     </g>
    </g>
    <g id="ytick_7">
     <g id="line2d_51">
      <path d="M 56.602344 422.081597 
L 628.2 422.081597 
" clip-path="url(#p364605ce1d)" style="fill: none; stroke: #b0b0b0; stroke-opacity: 0.25; stroke-width: 0.8; stroke-linecap: square"/>
     </g>
     <g id="line2d_52">
      <g>
       <use xlink:href="#m8e42770503" x="56.602344" y="422.081597" style="stroke: #000000; stroke-width: 0.8"/>
      </g>
     </g>
     <g id="text_22">
      <!-- $\mathdefault{10^{-7}}$ -->
      <g transform="translate(26.102344 426.731597) scale(0.1 -0.1)">
       <defs>
        <path id="DejaVuSans-1a" d="M 525 4666 
L 3525 4666 
L 3525 4397 
L 1831 0 
L 1172 0 
L 2766 4134 
L 525 4134 
L 525 4666 
z
" transform="scale(0.015625)"/>
       </defs>
       <use xlink:href="#DejaVuSans-14" transform="translate(0 0.665625)"/>
       <use xlink:href="#DejaVuSans-13" transform="translate(63.623047 0.665625)"/>
       <use xlink:href="#DejaVuSans-c9c" transform="translate(128.203125 41.965625) scale(0.7)"/>
       <use xlink:href="#DejaVuSans-1a" transform="translate(186.855469 41.965625) scale(0.7)"/>
      </g>
     </g>
    </g>
    <g id="ytick_8">
     <g id="line2d_53">
      <path d="M 56.602344 395.403556 
L 628.2 395.403556 
" clip-path="url(#p364605ce1d)" style="fill: none; stroke: #b0b0b0; stroke-opacity: 0.25; stroke-width: 0.8; stroke-linecap: square"/>
     </g>
     <g id="line2d_54">
      <g>
       <use xlink:href="#m8e42770503" x="56.602344" y="395.403556" style="stroke: #000000; stroke-width: 0.8"/>
      </g>
     </g>
     <g id="text_23">
      <!-- $\mathdefault{10^{-5}}$ -->
      <g transform="translate(26.102344 400.053556) scale(0.1 -0.1)">
       <use xlink:href="#DejaVuSans-14" transform="translate(0 0.665625)"/>
       <use xlink:href="#DejaVuSans-13" transform="translate(63.623047 0.665625)"/>
       <use xlink:href="#DejaVuSans-c9c" transform="translate(128.203125 41.965625) scale(0.7)"/>
       <use xlink:href="#DejaVuSans-18" transform="translate(186.855469 41.965625) scale(0.7)"/>
      </g>
     </g>
    </g>
    <g id="ytick_9">
     <g id="line2d_55">
      <path d="M 56.602344 368.725515 
L 628.2 368.725515 
" clip-path="url(#p364605ce1d)" style="fill: none; stroke: #b0b0b0; stroke-opacity: 0.25; stroke-width: 0.8; stroke-linecap: square"/>
     </g>
     <g id="line2d_56">
      <g>
       <use xlink:href="#m8e42770503" x="56.602344" y="368.725515" style="stroke: #000000; stroke-width: 0.8"/>
      </g>
     </g>
     <g id="text_24">
      <!-- $\mathdefault{10^{-3}}$ -->
      <g transform="translate(26.102344 373.425515) scale(0.1 -0.1)">
       <use xlink:href="#DejaVuSans-14" transform="translate(0 0.746875)"/>
       <use xlink:href="#DejaVuSans-13" transform="translate(63.623047 0.746875)"/>
       <use xlink:href="#DejaVuSans-c9c" transform="translate(128.203125 42.046875) scale(0.7)"/>
       <use xlink:href="#DejaVuSans-16" transform="translate(186.855469 42.046875) scale(0.7)"/>
      </g>
     </g>
    </g>
    <g id="ytick_10">
     <g id="line2d_57">
      <path d="M 56.602344 342.047473 
L 628.2 342.047473 
" clip-path="url(#p364605ce1d)" style="fill: none; stroke: #b0b0b0; stroke-opacity: 0.25; stroke-width: 0.8; stroke-linecap: square"/>
     </g>
     <g id="line2d_58">
      <g>
       <use xlink:href="#m8e42770503" x="56.602344" y="342.047473" style="stroke: #000000; stroke-width: 0.8"/>
      </g>
     </g>
     <g id="text_25">
      <!-- $\mathdefault{10^{-1}}$ -->
      <g transform="translate(26.102344 346.697473) scale(0.1 -0.1)">
       <use xlink:href="#DejaVuSans-14" transform="translate(0 0.665625)"/>
       <use xlink:href="#DejaVuSans-13" transform="translate(63.623047 0.665625)"/>
       <use xlink:href="#DejaVuSans-c9c" transform="translate(128.203125 41.965625) scale(0.7)"/>
       <use xlink:href="#DejaVuSans-14" transform="translate(186.855469 41.965625) scale(0.7)"/>
      </g>
     </g>
    </g>
    <g id="ytick_11">
     <g id="line2d_59">
      <path d="M 56.602344 315.369432 
L 628.2 315.369432 
" clip-path="url(#p364605ce1d)" style="fill: none; stroke: #b0b0b0; stroke-opacity: 0.25; stroke-width: 0.8; stroke-linecap: square"/>
     </g>
     <g id="line2d_60">
      <g>
       <use xlink:href="#m8e42770503" x="56.602344" y="315.369432" style="stroke: #000000; stroke-width: 0.8"/>
      </g>
     </g>
     <g id="text_26">
      <!-- $\mathdefault{10^{1}}$ -->
      <g transform="translate(32.002344 320.019432) scale(0.1 -0.1)">
       <use xlink:href="#DejaVuSans-14" transform="translate(0 0.665625)"/>
       <use xlink:href="#DejaVuSans-13" transform="translate(63.623047 0.665625)"/>
       <use xlink:href="#DejaVuSans-14" transform="translate(128.203125 41.965625) scale(0.7)"/>
      </g>
     </g>
    </g>
    <g id="ytick_12">
     <g id="line2d_61">
      <path d="M 56.602344 288.691391 
L 628.2 288.691391 
" clip-path="url(#p364605ce1d)" style="fill: none; stroke: #b0b0b0; stroke-opacity: 0.25; stroke-width: 0.8; stroke-linecap: square"/>
     </g>
     <g id="line2d_62">
      <g>
       <use xlink:href="#m8e42770503" x="56.602344" y="288.691391" style="stroke: #000000; stroke-width: 0.8"/>
      </g>
     </g>
     <g id="text_27">
      <!-- $\mathdefault{10^{3}}$ -->
      <g transform="translate(32.002344 293.391391) scale(0.1 -0.1)">
       <use xlink:href="#DejaVuSans-14" transform="translate(0 0.746875)"/>
       <use xlink:href="#DejaVuSans-13" transform="translate(63.623047 0.746875)"/>
       <use xlink:href="#DejaVuSans-16" transform="translate(128.203125 42.046875) scale(0.7)"/>
      </g>
     </g>
    </g>
    <g id="text_28">
     <!-- |FFT(.)| -->
     <g transform="translate(19.7 387.535996) rotate(-90) scale(0.1 -0.1)">
      <defs>
       <path id="DejaVuSans-37" d="M -19 4666 
L 3928 4666 
L 3928 4134 
L 2272 4134 
L 2272 0 
L 1638 0 
L 1638 4134 
L -19 4134 
L -19 4666 
z
" transform="scale(0.015625)"/>
      </defs>
      <use xlink:href="#DejaVuSans-5f"/>
      <use xlink:href="#DejaVuSans-29" transform="translate(33.6875 0)"/>
      <use xlink:href="#DejaVuSans-29" transform="translate(91.203125 0)"/>
      <use xlink:href="#DejaVuSans-37" transform="translate(146.96875 0)"/>
      <use xlink:href="#DejaVuSans-b" transform="translate(208.046875 0)"/>
      <use xlink:href="#DejaVuSans-11" transform="translate(247.0625 0)"/>
      <use xlink:href="#DejaVuSans-c" transform="translate(278.84375 0)"/>
      <use xlink:href="#DejaVuSans-5f" transform="translate(317.859375 0)"/>
     </g>
    </g>
   </g>
   <g id="line2d_63">
    <path d="M 56.602344 310.87812 
L 142.636364 335.790328 
L 192.963039 334.726827 
L 228.670384 333.275486 
L 256.367152 331.490141 
L 278.997059 329.366158 
L 298.130373 326.854335 
L 314.704404 323.850149 
L 329.323735 320.157452 
L 342.401172 315.384883 
L 354.231153 308.573512 
L 365.031079 295.302319 
L 374.966048 287.998052 
L 384.164393 289.254076 
L 392.727847 301.202424 
L 400.738424 311.111104 
L 408.263204 317.086679 
L 415.357755 321.460637 
L 422.068624 324.930758 
L 428.435192 327.813946 
L 434.491069 330.283469 
L 440.265173 332.445078 
L 445.782564 334.368283 
L 451.065099 336.1013 
L 456.13196 337.678976 
L 461.000068 339.127326 
L 465.68443 340.466294 
L 470.198413 341.711505 
L 474.553978 342.875435 
L 478.761867 343.968197 
L 482.831768 344.998112 
L 486.772444 345.972101 
L 490.591848 346.895989 
L 494.297224 347.774722 
L 497.895181 348.612539 
L 501.391775 349.413096 
L 504.792559 350.179575 
L 508.102644 350.914758 
L 511.326744 351.621095 
L 514.469212 352.300753 
L 517.53408 352.95566 
L 520.525089 353.587539 
L 523.445714 354.197934 
L 526.299193 354.788239 
L 529.088543 355.359711 
L 531.816584 355.913494 
L 534.485952 356.450628 
L 537.099119 356.972062 
L 539.658403 357.478666 
L 542.16598 357.971237 
L 544.623899 358.450513 
L 547.034088 358.917169 
L 549.398367 359.371835 
L 551.71845 359.81509 
L 553.995961 360.247476 
L 556.232433 360.669494 
L 558.42932 361.081612 
L 560.587998 361.484269 
L 562.709773 361.877873 
L 564.795887 362.262807 
L 566.847518 362.63943 
L 568.865788 363.00808 
L 570.851764 363.369076 
L 572.806464 363.722715 
L 574.730857 364.069281 
L 576.625868 364.40904 
L 578.492382 364.742244 
L 580.331244 365.06913 
L 582.143259 365.389926 
L 583.929201 365.704845 
L 585.68981 366.01409 
L 587.425795 366.317855 
L 589.137834 366.616323 
L 590.826579 366.909669 
L 592.492655 367.198059 
L 594.136664 367.481652 
L 595.759182 367.760599 
L 597.360764 368.035045 
L 598.941943 368.305127 
L 600.503232 368.570978 
L 602.045126 368.832724 
L 603.5681 369.090485 
L 605.072614 369.344377 
L 606.559109 369.594512 
L 608.028012 369.840994 
L 609.479734 370.083927 
L 610.914673 370.323408 
L 612.333213 370.559531 
L 613.735723 370.792386 
L 615.122563 371.02206 
L 616.494078 371.248638 
L 617.850603 371.472198 
L 619.192464 371.692819 
L 620.519972 371.910575 
L 621.833432 372.125537 
L 623.133139 372.337776 
L 624.419377 372.547357 
L 625.692423 372.754346 
L 626.952544 372.958804 
L 628.2 373.160791 
L 629.435044 373.360366 
" clip-path="url(#p364605ce1d)" style="fill: none; stroke: #1f77b4; stroke-opacity: 0.6; stroke-width: 1.5; stroke-linecap: square"/>
   </g>
   <g id="line2d_64">
    <path d="M 56.602344 316.422998 
L 142.636364 325.84813 
L 192.963039 329.138283 
L 228.670384 333.710855 
L 256.367152 336.141091 
L 278.997059 331.622219 
L 298.130373 327.872363 
L 314.704404 324.356788 
L 329.323735 320.452794 
L 342.401172 315.596943 
L 354.231153 308.756455 
L 365.031079 295.477531 
L 374.966048 288.172512 
L 384.164393 289.42879 
L 392.727847 301.376275 
L 400.738424 311.282537 
L 408.263204 317.254369 
L 415.357755 321.623699 
L 422.068624 325.08875 
L 428.435192 327.966807 
L 434.491069 330.431431 
L 440.265173 332.588585 
L 445.782564 334.507926 
L 451.065099 336.237761 
L 456.13196 337.812989 
L 461.000068 339.259647 
L 465.68443 340.59768 
L 470.198413 341.842699 
L 474.553978 343.007152 
L 478.761867 344.101125 
L 482.831768 345.132901 
L 486.772444 346.109365 
L 490.591848 347.036303 
L 494.297224 347.918624 
L 497.895181 348.760527 
L 501.391775 349.565634 
L 504.792559 350.33709 
L 508.102644 351.077646 
L 511.326744 351.789719 
L 514.469212 352.475446 
L 517.53408 353.136727 
L 520.525089 353.775258 
L 523.445714 354.392558 
L 526.299193 354.989996 
L 529.088543 355.56881 
L 531.816584 356.130121 
L 534.485952 356.674948 
L 537.099119 357.204224 
L 539.658403 357.718802 
L 542.16598 358.219462 
L 544.623899 358.706926 
L 547.034088 359.181857 
L 549.398367 359.64487 
L 551.71845 360.096534 
L 553.995961 360.537377 
L 556.232433 360.967891 
L 558.42932 361.388534 
L 560.587998 361.799733 
L 562.709773 362.20189 
L 564.795887 362.595379 
L 566.847518 362.980552 
L 568.865788 363.35774 
L 570.851764 363.727253 
L 572.806464 364.089386 
L 574.730857 364.444414 
L 576.625868 364.792599 
L 578.492382 365.134188 
L 580.331244 365.469415 
L 582.143259 365.798502 
L 583.929201 366.121658 
L 585.68981 366.439085 
L 587.425795 366.750972 
L 589.137834 367.057499 
L 590.826579 367.358838 
L 592.492655 367.655155 
L 594.136664 367.946604 
L 595.759182 368.233337 
L 597.360764 368.515494 
L 598.941943 368.793213 
L 600.503232 369.066625 
L 602.045126 369.335853 
L 603.5681 369.601019 
L 605.072614 369.862236 
L 606.559109 370.119615 
L 608.028012 370.373262 
L 609.479734 370.623277 
L 610.914673 370.869759 
L 612.333213 371.1128 
L 613.735723 371.352492 
L 615.122563 371.588921 
L 616.494078 371.822171 
L 617.850603 372.052321 
L 619.192464 372.27945 
L 620.519972 372.503632 
L 621.833432 372.724939 
L 623.133139 372.943441 
L 624.419377 373.159204 
L 625.692423 373.372295 
L 626.952544 373.582775 
L 628.2 373.790705 
L 629.435044 373.996144 
" clip-path="url(#p364605ce1d)" style="fill: none; stroke: #ff7f0e; stroke-width: 1.5; stroke-linecap: square"/>
   </g>
   <g id="patch_9">
    <path d="M 56.602344 460.115313 
L 56.602344 279.801992 
" style="fill: none; stroke: #000000; stroke-width: 0.8; stroke-linejoin: miter; stroke-linecap: square"/>
   </g>
   <g id="patch_10">
    <path d="M 628.2 460.115313 
L 628.2 279.801992 
" style="fill: none; stroke: #000000; stroke-width: 0.8; stroke-linejoin: miter; stroke-linecap: square"/>
   </g>
   <g id="patch_11">
    <path d="M 56.602344 460.115313 
L 628.2 460.115313 
" style="fill: none; stroke: #000000; stroke-width: 0.8; stroke-linejoin: miter; stroke-linecap: square"/>
   </g>
   <g id="patch_12">
    <path d="M 56.602344 279.801992 
L 628.2 279.801992 
" style="fill: none; stroke: #000000; stroke-width: 0.8; stroke-linejoin: miter; stroke-linecap: square"/>
   </g>
   <g id="text_29">
    <!-- Output FFT peak ≈ 1.300 (arb.), magnitude ≈ 1.094e+03 | band/flat-ish -->
    <g transform="translate(126.001797 273.801992) scale(0.12 -0.12)">
     <defs>
      <path id="DejaVuSans-32" d="M 2522 4238 
Q 1834 4238 1429 3725 
Q 1025 3213 1025 2328 
Q 1025 1447 1429 934 
Q 1834 422 2522 422 
Q 3209 422 3611 934 
Q 4013 1447 4013 2328 
Q 4013 3213 3611 3725 
Q 3209 4238 2522 4238 
z
M 2522 4750 
Q 3503 4750 4090 4092 
Q 4678 3434 4678 2328 
Q 4678 1225 4090 567 
Q 3503 -91 2522 -91 
Q 1538 -91 948 565 
Q 359 1222 359 2328 
Q 359 3434 948 4092 
Q 1538 4750 2522 4750 
z
" transform="scale(0.015625)"/>
      <path id="DejaVuSans-4e" d="M 581 4863 
L 1159 4863 
L 1159 1991 
L 2875 3500 
L 3609 3500 
L 1753 1863 
L 3688 0 
L 2938 0 
L 1159 1709 
L 1159 0 
L 581 0 
L 581 4863 
z
" transform="scale(0.015625)"/>
      <path id="DejaVuSans-cd2" d="M 4684 1947 
L 4684 1388 
Q 4356 1144 4076 1036 
Q 3797 928 3494 928 
Q 3150 928 2694 1113 
Q 2663 1125 2641 1134 
Q 2622 1141 2575 1159 
Q 2091 1350 1797 1350 
Q 1522 1350 1253 1231 
Q 984 1113 678 850 
L 678 1409 
Q 1006 1653 1286 1761 
Q 1566 1869 1869 1869 
Q 2213 1869 2672 1684 
Q 2706 1669 2722 1663 
Q 2741 1656 2788 1638 
Q 3272 1447 3566 1447 
Q 3834 1447 4098 1564 
Q 4363 1681 4684 1947 
z
M 4684 3163 
L 4684 2606 
Q 4356 2359 4076 2251 
Q 3797 2144 3494 2144 
Q 3150 2144 2694 2328 
Q 2663 2341 2641 2350 
Q 2622 2356 2575 2375 
Q 2091 2566 1797 2566 
Q 1522 2566 1253 2447 
Q 984 2328 678 2069 
L 678 2625 
Q 1006 2869 1286 2976 
Q 1566 3084 1869 3084 
Q 2213 3084 2672 2900 
Q 2703 2888 2719 2881 
Q 2741 2872 2788 2853 
Q 3272 2663 3566 2663 
Q 3834 2663 4098 2780 
Q 4363 2897 4684 3163 
z
" transform="scale(0.015625)"/>
      <path id="DejaVuSans-50" d="M 3328 2828 
Q 3544 3216 3844 3400 
Q 4144 3584 4550 3584 
Q 5097 3584 5394 3201 
Q 5691 2819 5691 2113 
L 5691 0 
L 5113 0 
L 5113 2094 
Q 5113 2597 4934 2840 
Q 4756 3084 4391 3084 
Q 3944 3084 3684 2787 
Q 3425 2491 3425 1978 
L 3425 0 
L 2847 0 
L 2847 2094 
Q 2847 2600 2669 2842 
Q 2491 3084 2119 3084 
Q 1678 3084 1418 2786 
Q 1159 2488 1159 1978 
L 1159 0 
L 581 0 
L 581 3500 
L 1159 3500 
L 1159 2956 
Q 1356 3278 1631 3431 
Q 1906 3584 2284 3584 
Q 2666 3584 2933 3390 
Q 3200 3197 3328 2828 
z
" transform="scale(0.015625)"/>
      <path id="DejaVuSans-e" d="M 2944 4013 
L 2944 2272 
L 4684 2272 
L 4684 1741 
L 2944 1741 
L 2944 0 
L 2419 0 
L 2419 1741 
L 678 1741 
L 678 2272 
L 2419 2272 
L 2419 4013 
L 2944 4013 
z
" transform="scale(0.015625)"/>
      <path id="DejaVuSans-12" d="M 1625 4666 
L 2156 4666 
L 531 -594 
L 0 -594 
L 1625 4666 
z
" transform="scale(0.015625)"/>
      <path id="DejaVuSans-13b0" d="M 1831 4863 
L 3431 4863 
L 3431 0 
L 2853 0 
L 2853 4384 
L 1825 4384 
Q 1516 4384 1395 4259 
Q 1275 4134 1275 3809 
L 1275 3500 
L 2222 3500 
L 2222 3053 
L 1275 3053 
L 1275 0 
L 697 0 
L 697 3053 
L 147 3053 
L 147 3500 
L 697 3500 
L 697 3744 
Q 697 4328 969 4595 
Q 1241 4863 1831 4863 
z
" transform="scale(0.015625)"/>
     </defs>
     <use xlink:href="#DejaVuSans-32"/>
     <use xlink:href="#DejaVuSans-58" transform="translate(78.71875 0)"/>
     <use xlink:href="#DejaVuSans-57" transform="translate(142.09375 0)"/>
     <use xlink:href="#DejaVuSans-53" transform="translate(181.296875 0)"/>
     <use xlink:href="#DejaVuSans-58" transform="translate(244.78125 0)"/>
     <use xlink:href="#DejaVuSans-57" transform="translate(308.15625 0)"/>
     <use xlink:href="#DejaVuSans-3" transform="translate(347.359375 0)"/>
     <use xlink:href="#DejaVuSans-29" transform="translate(379.140625 0)"/>
     <use xlink:href="#DejaVuSans-29" transform="translate(436.65625 0)"/>
     <use xlink:href="#DejaVuSans-37" transform="translate(492.421875 0)"/>
     <use xlink:href="#DejaVuSans-3" transform="translate(553.5 0)"/>
     <use xlink:href="#DejaVuSans-53" transform="translate(585.28125 0)"/>
     <use xlink:href="#DejaVuSans-48" transform="translate(648.765625 0)"/>
     <use xlink:href="#DejaVuSans-44" transform="translate(710.296875 0)"/>
     <use xlink:href="#DejaVuSans-4e" transform="translate(771.578125 0)"/>
     <use xlink:href="#DejaVuSans-3" transform="translate(829.484375 0)"/>
     <use xlink:href="#DejaVuSans-cd2" transform="translate(861.265625 0)"/>
     <use xlink:href="#DejaVuSans-3" transform="translate(945.0625 0)"/>
     <use xlink:href="#DejaVuSans-14" transform="translate(976.84375 0)"/>
     <use xlink:href="#DejaVuSans-11" transform="translate(1040.46875 0)"/>
     <use xlink:href="#DejaVuSans-16" transform="translate(1072.25 0)"/>
     <use xlink:href="#DejaVuSans-13" transform="translate(1135.875 0)"/>
     <use xlink:href="#DejaVuSans-13" transform="translate(1199.5 0)"/>
     <use xlink:href="#DejaVuSans-3" transform="translate(1263.125 0)"/>
     <use xlink:href="#DejaVuSans-b" transform="translate(1294.90625 0)"/>
     <use xlink:href="#DejaVuSans-44" transform="translate(1333.921875 0)"/>
     <use xlink:href="#DejaVuSans-55" transform="translate(1395.203125 0)"/>
     <use xlink:href="#DejaVuSans-45" transform="translate(1436.3125 0)"/>
     <use xlink:href="#DejaVuSans-11" transform="translate(1499.796875 0)"/>
     <use xlink:href="#DejaVuSans-c" transform="translate(1531.578125 0)"/>
     <use xlink:href="#DejaVuSans-f" transform="translate(1570.59375 0)"/>
     <use xlink:href="#DejaVuSans-3" transform="translate(1602.375 0)"/>
     <use xlink:href="#DejaVuSans-50" transform="translate(1634.15625 0)"/>
     <use xlink:href="#DejaVuSans-44" transform="translate(1731.5625 0)"/>
     <use xlink:href="#DejaVuSans-4a" transform="translate(1792.84375 0)"/>
     <use xlink:href="#DejaVuSans-51" transform="translate(1856.328125 0)"/>
     <use xlink:href="#DejaVuSans-4c" transform="translate(1919.703125 0)"/>
     <use xlink:href="#DejaVuSans-57" transform="translate(1947.484375 0)"/>
     <use xlink:href="#DejaVuSans-58" transform="translate(1986.6875 0)"/>
     <use xlink:href="#DejaVuSans-47" transform="translate(2050.0625 0)"/>
     <use xlink:href="#DejaVuSans-48" transform="translate(2113.546875 0)"/>
     <use xlink:href="#DejaVuSans-3" transform="translate(2175.078125 0)"/>
     <use xlink:href="#DejaVuSans-cd2" transform="translate(2206.859375 0)"/>
     <use xlink:href="#DejaVuSans-3" transform="translate(2290.65625 0)"/>
     <use xlink:href="#DejaVuSans-14" transform="translate(2322.4375 0)"/>
     <use xlink:href="#DejaVuSans-11" transform="translate(2386.0625 0)"/>
     <use xlink:href="#DejaVuSans-13" transform="translate(2417.84375 0)"/>
     <use xlink:href="#DejaVuSans-1c" transform="translate(2481.46875 0)"/>
     <use xlink:href="#DejaVuSans-17" transform="translate(2545.09375 0)"/>
     <use xlink:href="#DejaVuSans-48" transform="translate(2608.71875 0)"/>
     <use xlink:href="#DejaVuSans-e" transform="translate(2670.25 0)"/>
     <use xlink:href="#DejaVuSans-13" transform="translate(2754.046875 0)"/>
     <use xlink:href="#DejaVuSans-16" transform="translate(2817.671875 0)"/>
     <use xlink:href="#DejaVuSans-3" transform="translate(2881.296875 0)"/>
     <use xlink:href="#DejaVuSans-5f" transform="translate(2913.078125 0)"/>
     <use xlink:href="#DejaVuSans-3" transform="translate(2946.765625 0)"/>
     <use xlink:href="#DejaVuSans-45" transform="translate(2978.546875 0)"/>
     <use xlink:href="#DejaVuSans-44" transform="translate(3042.03125 0)"/>
     <use xlink:href="#DejaVuSans-51" transform="translate(3103.3125 0)"/>
     <use xlink:href="#DejaVuSans-47" transform="translate(3166.6875 0)"/>
     <use xlink:href="#DejaVuSans-12" transform="translate(3230.171875 0)"/>
     <use xlink:href="#DejaVuSans-13b0" transform="translate(3263.859375 0)"/>
     <use xlink:href="#DejaVuSans-44" transform="translate(3326.84375 0)"/>
     <use xlink:href="#DejaVuSans-57" transform="translate(3388.125 0)"/>
     <use xlink:href="#DejaVuSans-10" transform="translate(3427.328125 0)"/>
     <use xlink:href="#DejaVuSans-4c" transform="translate(3463.40625 0)"/>
     <use xlink:href="#DejaVuSans-56" transform="translate(3491.1875 0)"/>
     <use xlink:href="#DejaVuSans-4b" transform="translate(3543.28125 0)"/>
    </g>
   </g>
   <g id="legend_2">
    <g id="patch_13">
     <path d="M 535.603125 317.803555 
L 621.2 317.803555 
Q 623.2 317.803555 623.2 315.803555 
L 623.2 286.801992 
Q 623.2 284.801992 621.2 284.801992 
L 535.603125 284.801992 
Q 533.603125 284.801992 533.603125 286.801992 
L 533.603125 315.803555 
Q 533.603125 317.803555 535.603125 317.803555 
z
" style="fill: #ffffff; opacity: 0.8; stroke: #cccccc; stroke-linejoin: miter"/>
    </g>
    <g id="line2d_65">
     <path d="M 537.603125 292.90043 
L 547.603125 292.90043 
L 557.603125 292.90043 
" style="fill: none; stroke: #1f77b4; stroke-opacity: 0.6; stroke-width: 1.5; stroke-linecap: square"/>
    </g>
    <g id="text_30">
     <!-- input FFT -->
     <g transform="translate(565.603125 296.40043) scale(0.1 -0.1)">
      <use xlink:href="#DejaVuSans-4c"/>
      <use xlink:href="#DejaVuSans-51" transform="translate(27.78125 0)"/>
      <use xlink:href="#DejaVuSans-53" transform="translate(91.15625 0)"/>
      <use xlink:href="#DejaVuSans-58" transform="translate(154.640625 0)"/>
      <use xlink:href="#DejaVuSans-57" transform="translate(218.015625 0)"/>
      <use xlink:href="#DejaVuSans-3" transform="translate(257.21875 0)"/>
      <use xlink:href="#DejaVuSans-29" transform="translate(289 0)"/>
      <use xlink:href="#DejaVuSans-29" transform="translate(346.515625 0)"/>
      <use xlink:href="#DejaVuSans-37" transform="translate(402.28125 0)"/>
     </g>
    </g>
    <g id="line2d_66">
     <path d="M 537.603125 307.901211 
L 547.603125 307.901211 
L 557.603125 307.901211 
" style="fill: none; stroke: #ff7f0e; stroke-width: 1.5; stroke-linecap: square"/>
    </g>
    <g id="text_31">
     <!-- output FFT -->
     <g transform="translate(565.603125 311.401211) scale(0.1 -0.1)">
      <use xlink:href="#DejaVuSans-52"/>
      <use xlink:href="#DejaVuSans-58" transform="translate(61.1875 0)"/>
      <use xlink:href="#DejaVuSans-57" transform="translate(124.5625 0)"/>
      <use xlink:href="#DejaVuSans-53" transform="translate(163.765625 0)"/>
      <use xlink:href="#DejaVuSans-58" transform="translate(227.25 0)"/>
      <use xlink:href="#DejaVuSans-57" transform="translate(290.625 0)"/>
      <use xlink:href="#DejaVuSans-3" transform="translate(329.828125 0)"/>
      <use xlink:href="#DejaVuSans-29" transform="translate(361.609375 0)"/>
      <use xlink:href="#DejaVuSans-29" transform="translate(419.125 0)"/>
      <use xlink:href="#DejaVuSans-37" transform="translate(474.890625 0)"/>
     </g>
    </g>
   </g>
  </g>
 </g>
 <defs>
  <clipPath id="p2a12dacf96">
   <rect x="56.602344" y="42.006328" width="571.597656" height="180.31332"/>
  </clipPath>
  <clipPath id="p364605ce1d">
   <rect x="56.602344" y="279.801992" width="571.597656" height="180.31332"/>
  </clipPath>
 </defs>
</svg>
