<?xml version="1.0" encoding="utf-8" standalone="no"?>
<!DOCTYPE svg PUBLIC "-//W3C//DTD SVG 1.1//EN"
  "http://www.w3.org/Graphics/SVG/1.1/DTD/svg11.dtd">
<svg xmlns:xlink="http://www.w3.org/1999/xlink" width="648pt" height="504pt" viewBox="0 0 648 504" xmlns="http://www.w3.org/2000/svg" version="1.1">
 <metadata>
  <rdf:RDF xmlns:dc="http://purl.org/dc/elements/1.1/" xmlns:cc="http://creativecommons.org/ns#" xmlns:rdf="http://www.w3.org/1999/02/22-rdf-syntax-ns#">
   <cc:Work>
    <dc:type rdf:resource="http://purl.org/dc/dcmitype/StillImage"/>
    <dc:date>2026-06-25T04:12:48.811618</dc:date>
    <dc:format>image/svg+xml</dc:format>
    <dc:creator>
     <cc:Agent>
      <dc:title>Matplotlib v3.11.0, https://matplotlib.org/</dc:title>
     </cc:Agent>
    </dc:creator>
   </cc:Work>
  </rdf:RDF>
 </metadata>
 <defs>
  <style type="text/css">*{stroke-linejoin: round; stroke-linecap: butt}</style>
 </defs>
 <g id="figure_1">
  <g id="patch_1">
   <path d="M 0 504 
L 648 504 
L 648 0 
L 0 0 
z
" style="fill: #ffffff"/>
  </g>
  <g id="axes_1">
   <g id="patch_2">
    <path d="M 60.202344 222.319648 
L 628.2 222.319648 
L 628.2 42.006328 
L 60.202344 42.006328 
z
" style="fill: #ffffff"/>
   </g>
   <g id="matplotlib.axis_1">
    <g id="xtick_1">
     <g id="line2d_1">
      <path d="M 86.020419 222.319648 
L 86.020419 42.006328 
" clip-path="url(#p9e76340f94)" style="fill: none; stroke: #b0b0b0; stroke-opacity: 0.25; stroke-width: 0.8; stroke-linecap: square"/>
     </g>
     <g id="line2d_2">
      <defs>
       <path id="m3aed969612" d="M 0 0 
L 0 3.5 
" style="stroke: #000000; stroke-width: 0.8"/>
      </defs>
      <g>
       <use xlink:href="#m3aed969612" x="86.020419" y="222.319648" style="stroke: #000000; stroke-width: 0.8"/>
      </g>
     </g>
     <g id="text_1">
      <!-- 0 -->
      <g transform="translate(82.839169 236.917305) scale(0.1 -0.1)">
       <defs>
        <path id="DejaVuSans-13" d="M 2034 4250 
Q 1547 4250 1301 3770 
Q 1056 3291 1056 2328 
Q 1056 1369 1301 889 
Q 1547 409 2034 409 
Q 2525 409 2770 889 
Q 3016 1369 3016 2328 
Q 3016 3291 2770 3770 
Q 2525 4250 2034 4250 
z
M 2034 4750 
Q 2819 4750 3233 4129 
Q 3647 3509 3647 2328 
Q 3647 1150 3233 529 
Q 2819 -91 2034 -91 
Q 1250 -91 836 529 
Q 422 1150 422 2328 
Q 422 3509 836 4129 
Q 1250 4750 2034 4750 
z
" transform="scale(0.015625)"/>
       </defs>
       <use xlink:href="#DejaVuSans-13"/>
      </g>
     </g>
    </g>
    <g id="xtick_2">
     <g id="line2d_3">
      <path d="M 189.317939 222.319648 
L 189.317939 42.006328 
" clip-path="url(#p9e76340f94)" style="fill: none; stroke: #b0b0b0; stroke-opacity: 0.25; stroke-width: 0.8; stroke-linecap: square"/>
     </g>
     <g id="line2d_4">
      <g>
       <use xlink:href="#m3aed969612" x="189.317939" y="222.319648" style="stroke: #000000; stroke-width: 0.8"/>
      </g>
     </g>
     <g id="text_2">
      <!-- 2 -->
      <g transform="translate(186.136689 236.917305) scale(0.1 -0.1)">
       <defs>
        <path id="DejaVuSans-15" d="M 1228 531 
L 3431 531 
L 3431 0 
L 469 0 
L 469 531 
Q 828 903 1448 1529 
Q 2069 2156 2228 2338 
Q 2531 2678 2651 2914 
Q 2772 3150 2772 3378 
Q 2772 3750 2511 3984 
Q 2250 4219 1831 4219 
Q 1534 4219 1204 4116 
Q 875 4013 500 3803 
L 500 4441 
Q 881 4594 1212 4672 
Q 1544 4750 1819 4750 
Q 2544 4750 2975 4387 
Q 3406 4025 3406 3419 
Q 3406 3131 3298 2873 
Q 3191 2616 2906 2266 
Q 2828 2175 2409 1742 
Q 1991 1309 1228 531 
z
" transform="scale(0.015625)"/>
       </defs>
       <use xlink:href="#DejaVuSans-15"/>
      </g>
     </g>
    </g>
    <g id="xtick_3">
     <g id="line2d_5">
      <path d="M 292.61546 222.319648 
L 292.61546 42.006328 
" clip-path="url(#p9e76340f94)" style="fill: none; stroke: #b0b0b0; stroke-opacity: 0.25; stroke-width: 0.8; stroke-linecap: square"/>
     </g>
     <g id="line2d_6">
      <g>
       <use xlink:href="#m3aed969612" x="292.61546" y="222.319648" style="stroke: #000000; stroke-width: 0.8"/>
      </g>
     </g>
     <g id="text_3">
      <!-- 4 -->
      <g transform="translate(289.43421 236.917305) scale(0.1 -0.1)">
       <defs>
        <path id="DejaVuSans-17" d="M 2419 4116 
L 825 1625 
L 2419 1625 
L 2419 4116 
z
M 2253 4666 
L 3047 4666 
L 3047 1625 
L 3713 1625 
L 3713 1100 
L 3047 1100 
L 3047 0 
L 2419 0 
L 2419 1100 
L 313 1100 
L 313 1709 
L 2253 4666 
z
" transform="scale(0.015625)"/>
       </defs>
       <use xlink:href="#DejaVuSans-17"/>
      </g>
     </g>
    </g>
    <g id="xtick_4">
     <g id="line2d_7">
      <path d="M 395.91298 222.319648 
L 395.91298 42.006328 
" clip-path="url(#p9e76340f94)" style="fill: none; stroke: #b0b0b0; stroke-opacity: 0.25; stroke-width: 0.8; stroke-linecap: square"/>
     </g>
     <g id="line2d_8">
      <g>
       <use xlink:href="#m3aed969612" x="395.91298" y="222.319648" style="stroke: #000000; stroke-width: 0.8"/>
      </g>
     </g>
     <g id="text_4">
      <!-- 6 -->
      <g transform="translate(392.73173 236.917305) scale(0.1 -0.1)">
       <defs>
        <path id="DejaVuSans-19" d="M 2113 2584 
Q 1688 2584 1439 2293 
Q 1191 2003 1191 1497 
Q 1191 994 1439 701 
Q 1688 409 2113 409 
Q 2538 409 2786 701 
Q 3034 994 3034 1497 
Q 3034 2003 2786 2293 
Q 2538 2584 2113 2584 
z
M 3366 4563 
L 3366 3988 
Q 3128 4100 2886 4159 
Q 2644 4219 2406 4219 
Q 1781 4219 1451 3797 
Q 1122 3375 1075 2522 
Q 1259 2794 1537 2939 
Q 1816 3084 2150 3084 
Q 2853 3084 3261 2657 
Q 3669 2231 3669 1497 
Q 3669 778 3244 343 
Q 2819 -91 2113 -91 
Q 1303 -91 875 529 
Q 447 1150 447 2328 
Q 447 3434 972 4092 
Q 1497 4750 2381 4750 
Q 2619 4750 2861 4703 
Q 3103 4656 3366 4563 
z
" transform="scale(0.015625)"/>
       </defs>
       <use xlink:href="#DejaVuSans-19"/>
      </g>
     </g>
    </g>
    <g id="xtick_5">
     <g id="line2d_9">
      <path d="M 499.2105 222.319648 
L 499.2105 42.006328 
" clip-path="url(#p9e76340f94)" style="fill: none; stroke: #b0b0b0; stroke-opacity: 0.25; stroke-width: 0.8; stroke-linecap: square"/>
     </g>
     <g id="line2d_10">
      <g>
       <use xlink:href="#m3aed969612" x="499.2105" y="222.319648" style="stroke: #000000; stroke-width: 0.8"/>
      </g>
     </g>
     <g id="text_5">
      <!-- 8 -->
      <g transform="translate(496.02925 236.917305) scale(0.1 -0.1)">
       <defs>
        <path id="DejaVuSans-1b" d="M 2034 2216 
Q 1584 2216 1326 1975 
Q 1069 1734 1069 1313 
Q 1069 891 1326 650 
Q 1584 409 2034 409 
Q 2484 409 2743 651 
Q 3003 894 3003 1313 
Q 3003 1734 2745 1975 
Q 2488 2216 2034 2216 
z
M 1403 2484 
Q 997 2584 770 2862 
Q 544 3141 544 3541 
Q 544 4100 942 4425 
Q 1341 4750 2034 4750 
Q 2731 4750 3128 4425 
Q 3525 4100 3525 3541 
Q 3525 3141 3298 2862 
Q 3072 2584 2669 2484 
Q 3125 2378 3379 2068 
Q 3634 1759 3634 1313 
Q 3634 634 3220 271 
Q 2806 -91 2034 -91 
Q 1263 -91 848 271 
Q 434 634 434 1313 
Q 434 1759 690 2068 
Q 947 2378 1403 2484 
z
M 1172 3481 
Q 1172 3119 1398 2916 
Q 1625 2713 2034 2713 
Q 2441 2713 2670 2916 
Q 2900 3119 2900 3481 
Q 2900 3844 2670 4047 
Q 2441 4250 2034 4250 
Q 1625 4250 1398 4047 
Q 1172 3844 1172 3481 
z
" transform="scale(0.015625)"/>
       </defs>
       <use xlink:href="#DejaVuSans-1b"/>
      </g>
     </g>
    </g>
    <g id="xtick_6">
     <g id="line2d_11">
      <path d="M 602.50802 222.319648 
L 602.50802 42.006328 
" clip-path="url(#p9e76340f94)" style="fill: none; stroke: #b0b0b0; stroke-opacity: 0.25; stroke-width: 0.8; stroke-linecap: square"/>
     </g>
     <g id="line2d_12">
      <g>
       <use xlink:href="#m3aed969612" x="602.50802" y="222.319648" style="stroke: #000000; stroke-width: 0.8"/>
      </g>
     </g>
     <g id="text_6">
      <!-- 10 -->
      <g transform="translate(596.14552 236.917305) scale(0.1 -0.1)">
       <defs>
        <path id="DejaVuSans-14" d="M 794 531 
L 1825 531 
L 1825 4091 
L 703 3866 
L 703 4441 
L 1819 4666 
L 2450 4666 
L 2450 531 
L 3481 531 
L 3481 0 
L 794 0 
L 794 531 
z
" transform="scale(0.015625)"/>
       </defs>
       <use xlink:href="#DejaVuSans-14"/>
       <use xlink:href="#DejaVuSans-13" transform="translate(63.625 0)"/>
      </g>
     </g>
    </g>
    <g id="text_7">
     <!-- t [arb.] -->
     <g transform="translate(326.867578 250.918086) scale(0.1 -0.1)">
      <defs>
       <path id="DejaVuSans-57" d="M 1172 4494 
L 1172 3500 
L 2356 3500 
L 2356 3053 
L 1172 3053 
L 1172 1153 
Q 1172 725 1289 603 
Q 1406 481 1766 481 
L 2356 481 
L 2356 0 
L 1766 0 
Q 1100 0 847 248 
Q 594 497 594 1153 
L 594 3053 
L 172 3053 
L 172 3500 
L 594 3500 
L 594 4494 
L 1172 4494 
z
" transform="scale(0.015625)"/>
       <path id="DejaVuSans-3" transform="scale(0.015625)"/>
       <path id="DejaVuSans-3e" d="M 550 4863 
L 1875 4863 
L 1875 4416 
L 1125 4416 
L 1125 -397 
L 1875 -397 
L 1875 -844 
L 550 -844 
L 550 4863 
z
" transform="scale(0.015625)"/>
       <path id="DejaVuSans-44" d="M 2194 1759 
Q 1497 1759 1228 1600 
Q 959 1441 959 1056 
Q 959 750 1161 570 
Q 1363 391 1709 391 
Q 2188 391 2477 730 
Q 2766 1069 2766 1631 
L 2766 1759 
L 2194 1759 
z
M 3341 1997 
L 3341 0 
L 2766 0 
L 2766 531 
Q 2569 213 2275 61 
Q 1981 -91 1556 -91 
Q 1019 -91 701 211 
Q 384 513 384 1019 
Q 384 1609 779 1909 
Q 1175 2209 1959 2209 
L 2766 2209 
L 2766 2266 
Q 2766 2663 2505 2880 
Q 2244 3097 1772 3097 
Q 1472 3097 1187 3025 
Q 903 2953 641 2809 
L 641 3341 
Q 956 3463 1253 3523 
Q 1550 3584 1831 3584 
Q 2591 3584 2966 3190 
Q 3341 2797 3341 1997 
z
" transform="scale(0.015625)"/>
       <path id="DejaVuSans-55" d="M 2631 2963 
Q 2534 3019 2420 3045 
Q 2306 3072 2169 3072 
Q 1681 3072 1420 2755 
Q 1159 2438 1159 1844 
L 1159 0 
L 581 0 
L 581 3500 
L 1159 3500 
L 1159 2956 
Q 1341 3275 1631 3429 
Q 1922 3584 2338 3584 
Q 2397 3584 2469 3576 
Q 2541 3569 2628 3553 
L 2631 2963 
z
" transform="scale(0.015625)"/>
       <path id="DejaVuSans-45" d="M 3116 1747 
Q 3116 2381 2855 2742 
Q 2594 3103 2138 3103 
Q 1681 3103 1420 2742 
Q 1159 2381 1159 1747 
Q 1159 1113 1420 752 
Q 1681 391 2138 391 
Q 2594 391 2855 752 
Q 3116 1113 3116 1747 
z
M 1159 2969 
Q 1341 3281 1617 3432 
Q 1894 3584 2278 3584 
Q 2916 3584 3314 3078 
Q 3713 2572 3713 1747 
Q 3713 922 3314 415 
Q 2916 -91 2278 -91 
Q 1894 -91 1617 61 
Q 1341 213 1159 525 
L 1159 0 
L 581 0 
L 581 4863 
L 1159 4863 
L 1159 2969 
z
" transform="scale(0.015625)"/>
       <path id="DejaVuSans-11" d="M 684 794 
L 1344 794 
L 1344 0 
L 684 0 
L 684 794 
z
" transform="scale(0.015625)"/>
       <path id="DejaVuSans-40" d="M 1947 4863 
L 1947 -844 
L 622 -844 
L 622 -397 
L 1369 -397 
L 1369 4416 
L 622 4416 
L 622 4863 
L 1947 4863 
z
" transform="scale(0.015625)"/>
      </defs>
      <use xlink:href="#DejaVuSans-57"/>
      <use xlink:href="#DejaVuSans-3" transform="translate(39.203125 0)"/>
      <use xlink:href="#DejaVuSans-3e" transform="translate(70.984375 0)"/>
      <use xlink:href="#DejaVuSans-44" transform="translate(110 0)"/>
      <use xlink:href="#DejaVuSans-55" transform="translate(171.28125 0)"/>
      <use xlink:href="#DejaVuSans-45" transform="translate(212.390625 0)"/>
      <use xlink:href="#DejaVuSans-11" transform="translate(275.875 0)"/>
      <use xlink:href="#DejaVuSans-40" transform="translate(307.65625 0)"/>
     </g>
    </g>
   </g>
   <g id="matplotlib.axis_2">
    <g id="ytick_1">
     <g id="line2d_13">
      <path d="M 60.202344 206.6693 
L 628.2 206.6693 
" clip-path="url(#p9e76340f94)" style="fill: none; stroke: #b0b0b0; stroke-opacity: 0.25; stroke-width: 0.8; stroke-linecap: square"/>
     </g>
     <g id="line2d_14">
      <defs>
       <path id="m027c1e5893" d="M 0 0 
L -3.5 0 
" style="stroke: #000000; stroke-width: 0.8"/>
      </defs>
      <g>
       <use xlink:href="#m027c1e5893" x="60.202344" y="206.6693" style="stroke: #000000; stroke-width: 0.8"/>
      </g>
     </g>
     <g id="text_8">
      <!-- −1.0 -->
      <g transform="translate(28.919531 210.468128) scale(0.1 -0.1)">
       <defs>
        <path id="DejaVuSans-c9c" d="M 678 2272 
L 4684 2272 
L 4684 1741 
L 678 1741 
L 678 2272 
z
" transform="scale(0.015625)"/>
       </defs>
       <use xlink:href="#DejaVuSans-c9c"/>
       <use xlink:href="#DejaVuSans-14" transform="translate(83.796875 0)"/>
       <use xlink:href="#DejaVuSans-11" transform="translate(147.421875 0)"/>
       <use xlink:href="#DejaVuSans-13" transform="translate(179.203125 0)"/>
      </g>
     </g>
    </g>
    <g id="ytick_2">
     <g id="line2d_15">
      <path d="M 60.202344 169.416133 
L 628.2 169.416133 
" clip-path="url(#p9e76340f94)" style="fill: none; stroke: #b0b0b0; stroke-opacity: 0.25; stroke-width: 0.8; stroke-linecap: square"/>
     </g>
     <g id="line2d_16">
      <g>
       <use xlink:href="#m027c1e5893" x="60.202344" y="169.416133" style="stroke: #000000; stroke-width: 0.8"/>
      </g>
     </g>
     <g id="text_9">
      <!-- −0.5 -->
      <g transform="translate(28.919531 173.214961) scale(0.1 -0.1)">
       <defs>
        <path id="DejaVuSans-18" d="M 691 4666 
L 3169 4666 
L 3169 4134 
L 1269 4134 
L 1269 2991 
Q 1406 3038 1543 3061 
Q 1681 3084 1819 3084 
Q 2600 3084 3056 2656 
Q 3513 2228 3513 1497 
Q 3513 744 3044 326 
Q 2575 -91 1722 -91 
Q 1428 -91 1123 -41 
Q 819 9 494 109 
L 494 744 
Q 775 591 1075 516 
Q 1375 441 1709 441 
Q 2250 441 2565 725 
Q 2881 1009 2881 1497 
Q 2881 1984 2565 2268 
Q 2250 2553 1709 2553 
Q 1456 2553 1204 2497 
Q 953 2441 691 2322 
L 691 4666 
z
" transform="scale(0.015625)"/>
       </defs>
       <use xlink:href="#DejaVuSans-c9c"/>
       <use xlink:href="#DejaVuSans-13" transform="translate(83.796875 0)"/>
       <use xlink:href="#DejaVuSans-11" transform="translate(147.421875 0)"/>
       <use xlink:href="#DejaVuSans-18" transform="translate(179.203125 0)"/>
      </g>
     </g>
    </g>
    <g id="ytick_3">
     <g id="line2d_17">
      <path d="M 60.202344 132.162966 
L 628.2 132.162966 
" clip-path="url(#p9e76340f94)" style="fill: none; stroke: #b0b0b0; stroke-opacity: 0.25; stroke-width: 0.8; stroke-linecap: square"/>
     </g>
     <g id="line2d_18">
      <g>
       <use xlink:href="#m027c1e5893" x="60.202344" y="132.162966" style="stroke: #000000; stroke-width: 0.8"/>
      </g>
     </g>
     <g id="text_10">
      <!-- 0.0 -->
      <g transform="translate(37.299219 135.961795) scale(0.1 -0.1)">
       <use xlink:href="#DejaVuSans-13"/>
       <use xlink:href="#DejaVuSans-11" transform="translate(63.625 0)"/>
       <use xlink:href="#DejaVuSans-13" transform="translate(95.40625 0)"/>
      </g>
     </g>
    </g>
    <g id="ytick_4">
     <g id="line2d_19">
      <path d="M 60.202344 94.9098 
L 628.2 94.9098 
" clip-path="url(#p9e76340f94)" style="fill: none; stroke: #b0b0b0; stroke-opacity: 0.25; stroke-width: 0.8; stroke-linecap: square"/>
     </g>
     <g id="line2d_20">
      <g>
       <use xlink:href="#m027c1e5893" x="60.202344" y="94.9098" style="stroke: #000000; stroke-width: 0.8"/>
      </g>
     </g>
     <g id="text_11">
      <!-- 0.5 -->
      <g transform="translate(37.299219 98.708628) scale(0.1 -0.1)">
       <use xlink:href="#DejaVuSans-13"/>
       <use xlink:href="#DejaVuSans-11" transform="translate(63.625 0)"/>
       <use xlink:href="#DejaVuSans-18" transform="translate(95.40625 0)"/>
      </g>
     </g>
    </g>
    <g id="ytick_5">
     <g id="line2d_21">
      <path d="M 60.202344 57.656633 
L 628.2 57.656633 
" clip-path="url(#p9e76340f94)" style="fill: none; stroke: #b0b0b0; stroke-opacity: 0.25; stroke-width: 0.8; stroke-linecap: square"/>
     </g>
     <g id="line2d_22">
      <g>
       <use xlink:href="#m027c1e5893" x="60.202344" y="57.656633" style="stroke: #000000; stroke-width: 0.8"/>
      </g>
     </g>
     <g id="text_12">
      <!-- 1.0 -->
      <g transform="translate(37.299219 61.455461) scale(0.1 -0.1)">
       <use xlink:href="#DejaVuSans-14"/>
       <use xlink:href="#DejaVuSans-11" transform="translate(63.625 0)"/>
       <use xlink:href="#DejaVuSans-13" transform="translate(95.40625 0)"/>
      </g>
     </g>
    </g>
    <g id="text_13">
     <!-- [arb.] -->
     <g transform="translate(22.517188 145.947363) rotate(-90) scale(0.1 -0.1)">
      <use xlink:href="#DejaVuSans-3e"/>
      <use xlink:href="#DejaVuSans-44" transform="translate(39.015625 0)"/>
      <use xlink:href="#DejaVuSans-55" transform="translate(100.296875 0)"/>
      <use xlink:href="#DejaVuSans-45" transform="translate(141.40625 0)"/>
      <use xlink:href="#DejaVuSans-11" transform="translate(204.890625 0)"/>
      <use xlink:href="#DejaVuSans-40" transform="translate(236.671875 0)"/>
     </g>
    </g>
   </g>
   <g id="line2d_23">
    <path d="M 86.020419 132.162966 
L 88.29014 89.536786 
L 89.425 72.214373 
L 90.30767 61.76689 
L 91.064243 55.323157 
L 91.694721 51.892444 
L 92.073008 50.718373 
L 92.451295 50.220616 
L 92.703486 50.266781 
L 92.955677 50.615313 
L 93.333964 51.701929 
L 93.838347 54.187728 
L 94.468825 58.90694 
L 95.225398 66.785401 
L 96.108067 78.693441 
L 97.242928 97.45688 
L 99.008266 131.192093 
L 101.277987 173.956917 
L 102.412848 191.445301 
L 103.295517 202.05688 
L 104.052091 208.65959 
L 104.682569 212.231711 
L 105.186951 213.7638 
L 105.439142 214.079068 
L 105.691334 214.091896 
L 105.943525 213.802237 
L 106.321812 212.803228 
L 106.700098 211.134584 
L 107.204481 207.892809 
L 107.834959 202.276479 
L 108.591532 193.418748 
L 109.600297 178.510638 
L 110.861253 156.161892 
L 115.022408 79.014162 
L 116.031173 65.559025 
L 116.787747 58.002822 
L 117.418225 53.575537 
L 117.922607 51.333768 
L 118.300894 50.433941 
L 118.553085 50.210868 
L 118.805277 50.290368 
L 119.057468 50.672147 
L 119.435755 51.808204 
L 119.940137 54.35848 
L 120.570615 59.154638 
L 121.327189 67.117754 
L 122.209858 79.110457 
L 123.344718 97.954692 
L 125.110057 131.740728 
L 127.379778 174.42794 
L 128.514638 191.822834 
L 129.397307 202.341863 
L 130.153881 208.854847 
L 130.784359 212.347119 
L 131.162646 213.559172 
L 131.540933 214.095314 
L 131.793124 214.074805 
L 132.045315 213.751871 
L 132.423602 212.703337 
L 132.927984 210.267235 
L 133.558462 205.607384 
L 134.315036 197.794314 
L 135.197705 185.951793 
L 136.332566 167.251106 
L 138.097904 133.556035 
L 140.367625 90.732788 
L 141.502486 73.172987 
L 142.385155 62.490507 
L 143.141728 55.818946 
L 143.772206 52.185482 
L 144.276589 50.602736 
L 144.52878 50.261867 
L 144.780971 50.223383 
L 145.033163 50.487425 
L 145.411449 51.44829 
L 145.789736 53.079408 
L 146.294119 56.272646 
L 146.924597 61.831716 
L 147.68117 70.627464 
L 148.689935 85.467666 
L 149.950891 107.760628 
L 154.238142 186.869089 
L 155.246907 199.950875 
L 156.00348 207.180009 
L 156.633958 211.312549 
L 157.138341 213.308859 
L 157.516628 214.021325 
L 157.768819 214.118798 
L 158.02101 213.913683 
L 158.273201 213.406739 
L 158.651488 212.084789 
L 159.15587 209.29251 
L 159.786348 204.208259 
L 160.542922 195.929267 
L 161.425591 183.62228 
L 162.560452 164.481099 
L 164.451886 128.02831 
L 166.469416 90.260321 
L 167.604276 72.793409 
L 168.486945 62.203112 
L 169.243519 55.62105 
L 169.873997 52.067313 
L 170.252284 50.817308 
L 170.630571 50.242796 
L 170.882762 50.237649 
L 171.134953 50.534976 
L 171.51324 51.545401 
L 172.017622 53.931741 
L 172.522005 57.472355 
L 173.152483 63.440177 
L 173.909056 72.676741 
L 174.917821 87.996825 
L 176.304873 113.090918 
L 179.961645 181.525298 
L 180.97041 195.822699 
L 181.853079 205.285845 
L 182.483557 210.046572 
L 182.98794 212.56715 
L 183.366227 213.68043 
L 183.618418 214.04689 
L 183.870609 214.111029 
L 184.1228 213.87261 
L 184.501087 212.949915 
L 184.879374 211.356368 
L 185.383756 208.211751 
L 186.014234 202.710089 
L 186.770808 193.976557 
L 187.779573 179.204657 
L 189.040529 156.968071 
L 193.32778 77.771985 
L 194.336544 64.613292 
L 195.093118 57.317003 
L 195.723596 53.124069 
L 196.227978 51.077538 
L 196.606265 50.32678 
L 196.858457 50.203657 
L 197.110648 50.383135 
L 197.362839 50.864549 
L 197.741126 52.148612 
L 198.245508 54.891623 
L 198.875986 59.917315 
L 199.63256 68.13224 
L 200.515229 80.375694 
L 201.65009 99.457235 
L 203.541524 135.875867 
L 205.559053 173.702171 
L 206.693914 191.240639 
L 207.576583 201.901921 
L 208.333157 208.552887 
L 208.963635 212.167996 
L 209.468017 213.73558 
L 209.720208 214.068786 
L 209.9724 214.099589 
L 210.224591 213.827876 
L 210.602878 212.855588 
L 210.981164 211.213231 
L 211.485547 208.005452 
L 212.116025 202.429224 
L 212.872598 193.614894 
L 213.881363 178.75432 
L 215.142319 156.444594 
L 219.303474 79.239703 
L 220.312239 65.731859 
L 221.068813 58.129262 
L 221.699291 53.660043 
L 222.203673 51.383279 
L 222.58196 50.456696 
L 222.834151 50.215668 
L 223.086343 50.277194 
L 223.338534 50.641049 
L 223.716821 51.750455 
L 224.221203 54.26598 
L 224.851681 59.020676 
L 225.608255 66.938191 
L 226.490924 78.885313 
L 227.625784 97.686089 
L 229.391123 131.444909 
L 231.660844 174.174206 
L 232.795704 191.619606 
L 233.678373 202.188595 
L 234.434947 208.749994 
L 235.065425 212.285339 
L 235.443712 213.523984 
L 235.821999 214.087011 
L 236.07419 214.084476 
L 236.326381 213.779482 
L 236.704668 212.757645 
L 237.20905 210.3564 
L 237.713433 206.801438 
L 238.343911 200.816788 
L 239.100484 191.562158 
L 240.109249 176.222565 
L 241.496301 151.112047 
L 245.153074 82.699778 
L 246.161838 68.423687 
L 247.044508 58.983073 
L 247.674986 54.24008 
L 248.179368 51.73436 
L 248.557655 50.632472 
L 248.809846 50.273672 
L 249.062037 50.217214 
L 249.314229 50.463305 
L 249.692515 51.397431 
L 250.070802 53.002231 
L 250.575185 56.161413 
L 251.205663 61.680278 
L 251.962236 70.432461 
L 252.971001 85.224851 
L 254.231957 107.478377 
L 258.519208 186.64845 
L 259.527973 199.784154 
L 260.284546 207.060358 
L 260.915024 211.235222 
L 261.419407 213.266723 
L 261.797693 214.006019 
L 262.049885 214.121462 
L 262.302076 213.934309 
L 262.554267 213.445249 
L 262.932554 212.14984 
L 263.436936 209.392071 
L 264.067414 204.348833 
L 264.823988 196.114704 
L 265.706657 183.852195 
L 266.841518 164.752745 
L 268.732952 128.323785 
L 270.750482 90.514835 
L 271.885342 72.997742 
L 272.768011 62.357682 
L 273.524585 55.727327 
L 274.155063 52.130582 
L 274.659445 50.578163 
L 274.911636 50.252623 
L 275.163828 50.229501 
L 275.416019 50.508883 
L 275.794306 51.492591 
L 276.172593 53.146184 
L 276.676975 56.368495 
L 277.307453 61.961869 
L 278.064027 70.794759 
L 279.072791 85.675671 
L 280.333748 108.002107 
L 284.494903 185.182695 
L 285.503667 198.668037 
L 286.260241 206.25082 
L 286.890719 210.702127 
L 287.395101 212.96394 
L 287.773388 213.879091 
L 288.025579 214.112447 
L 288.277771 214.04324 
L 288.529962 213.671724 
L 288.908249 212.550928 
L 289.412631 210.020549 
L 290.043109 205.248127 
L 290.799683 197.311113 
L 291.682352 185.344494 
L 292.817213 166.525117 
L 294.582551 132.754613 
L 296.852272 90.043232 
L 297.987132 72.619387 
L 298.869802 62.07173 
L 299.626375 55.53101 
L 300.256853 52.014066 
L 300.63514 50.786782 
L 301.013427 50.235243 
L 301.265618 50.245459 
L 301.517809 50.55812 
L 301.896096 51.591367 
L 302.400479 54.007511 
L 302.904861 57.576812 
L 303.535339 63.578276 
L 304.291913 72.85095 
L 305.300677 88.210016 
L 306.687729 113.336898 
L 310.344502 181.726895 
L 311.353267 195.981642 
L 312.235936 205.3997 
L 312.866414 210.124949 
L 313.370796 212.615805 
L 313.749083 213.706298 
L 314.001274 214.057436 
L 314.253466 214.106213 
L 314.505657 213.85245 
L 314.883944 212.906897 
L 315.26223 211.290848 
L 315.766613 208.117108 
L 316.397091 202.581053 
L 317.153664 193.81024 
L 318.162429 178.997395 
L 319.423385 156.726981 
L 323.710636 77.58311 
L 324.719401 64.470426 
L 325.475974 57.214325 
L 326.106452 53.05754 
L 326.610835 51.041075 
L 326.989122 50.313243 
L 327.241313 50.205479 
L 327.493504 50.400308 
L 327.745695 50.897011 
L 328.123982 52.203763 
L 328.628365 54.976284 
L 329.258843 60.037056 
L 330.015416 68.290369 
L 330.898085 80.571905 
L 332.032946 99.689218 
L 333.92438 136.128419 
L 335.94191 173.919925 
L 337.07677 191.415603 
L 337.959439 202.034414 
L 338.716013 208.644143 
L 339.346491 212.222515 
L 339.850873 213.759764 
L 340.103065 214.07764 
L 340.355256 214.093081 
L 340.607447 213.806029 
L 340.985734 212.810903 
L 341.364021 211.146079 
L 341.868403 207.909242 
L 342.498881 202.298736 
L 343.255455 193.447306 
L 344.26422 178.546093 
L 345.525176 156.203 
L 349.686331 79.0469 
L 350.695096 65.584091 
L 351.451669 58.021139 
L 352.082147 53.587755 
L 352.58653 51.340899 
L 352.964816 50.437182 
L 353.217008 50.211499 
L 353.469199 50.288387 
L 353.72139 50.667561 
L 354.099677 51.799745 
L 354.604059 54.344973 
L 355.234537 59.135109 
L 355.991111 67.091603 
L 356.87378 79.077691 
L 358.008641 97.915625 
L 359.773979 131.697732 
L 362.0437 174.391096 
L 363.178561 191.793344 
L 364.06123 202.319643 
L 364.817803 208.839669 
L 365.448281 212.338204 
L 365.826568 213.554124 
L 366.204855 214.094174 
L 366.457046 214.076277 
L 366.709238 213.75595 
L 367.087524 212.711295 
L 367.591907 210.280258 
L 368.096289 206.696626 
L 368.726767 200.678362 
L 369.483341 191.387667 
L 370.492106 176.009165 
L 371.879157 150.865978 
L 375.409834 84.502182 
L 376.418599 69.853961 
L 377.301268 60.017866 
L 377.931746 54.962699 
L 378.436129 52.194894 
L 378.940511 50.606992 
L 379.192702 50.263516 
L 379.444894 50.22242 
L 379.697085 50.483854 
L 380.075372 51.440833 
L 380.453659 53.068126 
L 380.958041 56.256418 
L 381.588519 61.809648 
L 382.345093 70.599072 
L 383.353857 85.432336 
L 384.614814 107.719585 
L 388.902064 186.837065 
L 389.910829 199.926698 
L 390.667403 207.162679 
L 391.297881 211.301374 
L 391.802263 213.3028 
L 392.18055 214.019167 
L 392.432741 214.119251 
L 392.684932 213.916747 
L 392.937124 213.412402 
L 393.31541 212.094309 
L 393.819793 209.307043 
L 394.450271 204.228749 
L 395.206844 195.956271 
L 396.089514 183.655738 
L 397.224374 164.520607 
L 399.115808 128.071252 
L 401.133338 90.297279 
L 402.268198 72.823059 
L 403.150868 62.225521 
L 403.907441 55.636435 
L 404.537919 52.076444 
L 405.042302 50.554368 
L 405.294493 50.244158 
L 405.546684 50.236398 
L 405.798875 50.531118 
L 406.177162 51.53766 
L 406.555449 53.213712 
L 407.059831 56.465066 
L 407.690309 62.092691 
L 408.446883 70.962639 
L 409.455648 85.884119 
L 410.716604 108.243816 
L 414.877759 185.375245 
L 415.886524 198.815487 
L 416.643097 206.35859 
L 417.273575 210.774041 
L 417.777958 213.005935 
L 418.156245 213.898216 
L 418.408436 214.116226 
L 418.660627 214.031658 
L 418.912818 213.644824 
L 419.291105 212.501255 
L 419.795488 209.941186 
L 420.425966 205.133348 
L 421.182539 197.157392 
L 422.065208 185.151863 
L 423.200069 166.295417 
L 424.965407 132.501787 
L 427.235128 89.826543 
L 428.369989 72.445932 
L 429.252658 61.941015 
L 430.009232 55.441699 
L 430.63971 51.961582 
L 431.017996 50.75703 
L 431.396283 50.22847 
L 431.648474 50.254048 
L 431.900666 50.58204 
L 432.278953 51.6381 
L 432.783335 54.084025 
L 433.413813 58.755614 
L 434.170387 66.581619 
L 435.053056 78.437109 
L 436.187916 97.150232 
L 437.953255 130.853305 
L 440.222976 173.6651 
L 441.357836 191.210828 
L 442.240505 201.879323 
L 442.997079 208.537296 
L 443.627557 212.158648 
L 444.131939 213.73139 
L 444.384131 214.067202 
L 444.636322 214.100618 
L 444.888513 213.831514 
L 445.2668 212.863111 
L 445.645087 211.224576 
L 446.149469 208.021742 
L 446.779947 202.451348 
L 447.536521 193.643336 
L 448.545286 178.789687 
L 449.806242 156.485657 
L 453.967397 79.272541 
L 454.976162 65.757051 
L 455.732735 58.147719 
L 456.363213 53.672411 
L 456.867596 51.390563 
L 457.245882 50.460092 
L 457.498074 50.216454 
L 457.750265 50.275368 
L 458.002456 50.636618 
L 458.380743 51.742148 
L 458.885125 54.25262 
L 459.515603 59.001285 
L 460.272177 66.912164 
L 461.154846 78.852647 
L 462.289707 97.647086 
L 464.055045 131.401915 
L 466.324766 174.137282 
L 467.459627 191.590003 
L 468.342296 202.166242 
L 469.098869 208.734671 
L 469.729347 212.276272 
L 470.107634 213.518782 
L 470.485921 214.085715 
L 470.738112 214.085793 
L 470.990303 213.783406 
L 471.36859 212.765451 
L 471.872973 210.369275 
L 472.377355 206.819191 
L 473.007833 200.840264 
L 473.764407 191.591776 
L 474.773172 176.258814 
L 476.160223 151.153876 
L 479.816996 82.734068 
L 480.825761 68.450725 
L 481.70843 59.002445 
L 482.338908 54.253419 
L 482.84329 51.742645 
L 483.221577 50.636883 
L 483.473768 50.275477 
L 483.72596 50.216406 
L 483.978151 50.459888 
L 484.356438 51.390126 
L 484.734725 52.991099 
L 485.239107 56.145329 
L 485.869585 61.658344 
L 486.626159 70.404186 
L 487.634923 85.189611 
L 488.89588 107.437381 
L 493.18313 186.616323 
L 494.191895 199.759849 
L 494.948469 207.042886 
L 495.578947 211.223898 
L 496.083329 213.260511 
L 496.461616 214.003706 
L 496.713807 214.121761 
L 496.965998 213.937218 
L 497.218189 213.450759 
L 497.596476 212.159208 
L 498.100859 209.406458 
L 498.731337 204.369186 
L 499.48791 196.141587 
L 500.37058 183.885555 
L 501.50544 164.792191 
L 503.396874 128.366735 
L 505.414404 90.551872 
L 506.549264 73.027504 
L 507.431934 62.380224 
L 508.188507 55.742856 
L 508.818985 52.139865 
L 509.323368 50.582287 
L 509.575559 50.25414 
L 509.82775 50.228405 
L 510.079941 50.505179 
L 510.458228 51.485003 
L 510.836515 53.134775 
L 511.340897 56.352144 
L 511.971375 61.939688 
L 512.727949 70.766268 
L 513.736714 85.640267 
L 514.99767 107.961025 
L 519.158825 185.149899 
L 520.16759 198.642899 
L 520.924163 206.232423 
L 521.554641 210.689823 
L 522.059024 212.956722 
L 522.437311 213.875761 
L 522.689502 214.111727 
L 522.941693 214.045132 
L 523.193884 213.676222 
L 523.572171 212.5593 
L 524.076554 210.033972 
L 524.707032 205.267578 
L 525.463605 197.337193 
L 526.346274 185.377202 
L 527.481135 166.564147 
L 529.246473 132.797607 
L 531.516194 90.080122 
L 532.651055 72.648941 
L 533.533724 62.094026 
L 534.290298 55.546271 
L 534.920776 52.023067 
L 535.299062 50.791919 
L 535.677349 50.236473 
L 535.92954 50.244076 
L 536.181732 50.554129 
L 536.560018 51.583496 
L 537.064401 53.994573 
L 537.568783 57.558998 
L 538.199261 63.554745 
L 538.955835 72.821284 
L 539.9646 88.173731 
L 541.351652 113.295054 
L 545.008424 181.692645 
L 546.017189 195.954655 
L 546.899858 205.380387 
L 547.530336 210.111673 
L 548.034719 212.607585 
L 548.413005 213.701953 
L 548.665197 214.055697 
L 548.917388 214.107087 
L 549.169579 213.855934 
L 549.547866 212.914267 
L 549.926153 211.302044 
L 550.430535 208.133254 
L 551.061013 202.603044 
L 551.817587 193.838565 
L 552.826352 179.032673 
L 554.087308 156.767997 
L 558.374558 77.615194 
L 559.383323 64.494677 
L 560.139897 57.231736 
L 560.770375 53.068801 
L 561.274757 51.047221 
L 561.653044 50.31549 
L 561.905235 50.205114 
L 562.157426 50.397332 
L 562.409618 50.891436 
L 562.787905 52.19433 
L 563.292287 54.961835 
L 563.922765 60.016645 
L 564.679339 68.263435 
L 565.562008 80.538503 
L 566.696868 99.649746 
L 568.588302 136.085473 
L 570.605832 173.882922 
L 571.740693 191.385888 
L 572.623362 202.011929 
L 573.379935 208.628676 
L 574.010413 212.213297 
L 574.514796 213.755706 
L 574.766987 214.076189 
L 575.019178 214.094242 
L 575.271369 213.809799 
L 575.649656 212.818556 
L 576.027943 211.157552 
L 576.532326 207.925654 
L 577.162804 202.320974 
L 577.919377 193.475848 
L 578.928142 178.581535 
L 580.189098 156.244102 
L 584.350253 79.079652 
L 585.359018 65.609176 
L 586.115592 58.039477 
L 586.74607 53.599996 
L 587.250452 51.348052 
L 587.628739 50.440446 
L 587.88093 50.212153 
L 588.133121 50.286428 
L 588.385312 50.662998 
L 588.763599 51.791309 
L 589.267982 54.331487 
L 589.89846 59.115599 
L 590.655033 67.06547 
L 591.537703 79.04494 
L 592.672563 97.876567 
L 594.437902 131.654737 
L 596.707622 174.35424 
L 597.842483 191.763838 
L 598.725152 202.297404 
L 599.481726 208.824471 
L 600.112204 212.329268 
L 600.490491 213.549053 
L 600.868777 214.09301 
L 601.120969 214.077726 
L 601.37316 213.760007 
L 601.751447 212.719231 
L 602.255829 210.293259 
L 602.381925 209.504866 
L 602.381925 209.504866 
" clip-path="url(#p9e76340f94)" style="fill: none; stroke: #1f77b4; stroke-width: 1.5; stroke-linecap: square"/>
   </g>
   <g id="line2d_24">
    <path d="M 86.020419 132.162966 
L 87.281375 132.030784 
L 88.542331 131.671849 
L 90.055478 130.99267 
L 92.199104 129.746945 
L 95.099303 128.088444 
L 96.61245 127.484492 
L 97.873406 127.205101 
L 99.134362 127.159908 
L 100.395318 127.355192 
L 101.656274 127.775179 
L 103.169421 128.523277 
L 105.439142 129.93807 
L 108.08715 131.544719 
L 109.600297 132.211483 
L 110.861253 132.544421 
L 112.122209 132.643415 
L 113.383165 132.501329 
L 114.644122 132.133097 
L 116.157269 131.444156 
L 118.300894 130.188179 
L 121.201093 128.523263 
L 122.71424 127.918885 
L 123.975196 127.640126 
L 125.236152 127.595982 
L 126.497108 127.792245 
L 127.758065 128.212664 
L 129.271212 128.959967 
L 131.540933 130.369824 
L 134.18894 131.964413 
L 135.702088 132.621699 
L 136.963044 132.945824 
L 138.224 133.035648 
L 139.484956 132.884522 
L 140.745912 132.507858 
L 142.259059 131.810193 
L 144.52878 130.467065 
L 147.176788 128.937516 
L 148.689935 128.312022 
L 149.950891 128.012331 
L 151.211847 127.945914 
L 152.472803 128.120284 
L 153.733759 128.520881 
L 155.246907 129.249228 
L 157.390532 130.562849 
L 160.290731 132.309777 
L 161.803878 132.958422 
L 163.064834 133.274432 
L 164.32579 133.355789 
L 165.586746 133.19633 
L 166.847702 132.811944 
L 168.36085 132.106411 
L 170.630571 130.755401 
L 173.278578 129.223241 
L 174.791726 128.598983 
L 176.052682 128.30132 
L 177.313638 128.23736 
L 178.574594 128.414131 
L 179.83555 128.816593 
L 181.348697 129.545875 
L 183.618418 130.938617 
L 186.392521 132.594401 
L 187.905669 133.235083 
L 189.166625 133.543547 
L 190.427581 133.617012 
L 191.688537 133.449799 
L 192.949493 133.058275 
L 194.46264 132.345577 
L 196.732361 130.987741 
L 199.380369 129.454175 
L 200.893516 128.831823 
L 202.154472 128.536727 
L 203.415428 128.47575 
L 204.676384 128.655431 
L 205.93734 129.060252 
L 207.450487 129.791046 
L 209.720208 131.182282 
L 212.368216 132.765423 
L 213.881363 133.420427 
L 215.142319 133.744213 
L 216.403275 133.834387 
L 217.664231 133.683549 
L 218.925188 133.306373 
L 220.438335 132.606124 
L 222.58196 131.332529 
L 225.482159 129.640362 
L 226.995306 129.020464 
L 228.256262 128.728381 
L 229.517218 128.670815 
L 230.778174 128.853821 
L 232.039131 129.261403 
L 233.552278 129.994172 
L 235.821999 131.384575 
L 238.470006 132.960351 
L 239.983154 133.608512 
L 241.24411 133.925651 
L 242.505066 134.008794 
L 243.766022 133.85103 
L 245.026978 133.467509 
L 246.540125 132.76101 
L 248.809846 131.402806 
L 251.583949 129.790004 
L 253.097097 129.173016 
L 254.358053 128.88431 
L 255.619009 128.830508 
L 256.879965 129.017176 
L 258.140921 129.427841 
L 259.654068 130.162958 
L 261.923789 131.553066 
L 264.571797 133.122094 
L 266.084944 133.763769 
L 267.3459 134.074565 
L 268.606856 134.15099 
L 269.867812 133.986618 
L 271.128768 133.597079 
L 272.641916 132.884728 
L 274.911636 131.521616 
L 277.559644 129.972145 
L 279.072791 129.336697 
L 280.333748 129.029266 
L 281.594704 128.955392 
L 282.85566 129.122365 
L 284.116616 129.515401 
L 285.629763 130.234183 
L 287.773388 131.532887 
L 290.673587 133.256712 
L 292.186734 133.892187 
L 293.447691 134.196886 
L 294.708647 134.266847 
L 295.969603 134.096131 
L 297.230559 133.700844 
L 298.743706 132.982972 
L 301.013427 131.615455 
L 303.661435 130.067354 
L 305.174582 129.435376 
L 306.435538 129.131809 
L 307.696494 129.062206 
L 308.95745 129.233371 
L 310.218406 129.630041 
L 311.731553 130.351855 
L 314.001274 131.731835 
L 316.649282 133.305548 
L 318.162429 133.956712 
L 319.423385 134.277879 
L 320.684341 134.365704 
L 321.945297 134.212526 
L 323.206254 133.83276 
L 324.719401 133.12875 
L 326.863026 131.848079 
L 329.763225 130.142649 
L 331.276372 129.514402 
L 332.537328 129.214904 
L 333.798284 129.149766 
L 335.05924 129.325304 
L 336.320197 129.725778 
L 337.833344 130.450812 
L 340.103065 131.831807 
L 342.751072 133.40027 
L 344.26422 134.045774 
L 345.525176 134.361264 
L 346.786132 134.443015 
L 348.047088 134.283851 
L 349.308044 133.898665 
L 350.821191 133.189497 
L 352.964816 131.905003 
L 355.865015 130.201688 
L 357.378163 129.577391 
L 358.639119 129.282133 
L 359.900075 129.221618 
L 361.161031 129.401675 
L 362.421987 129.806087 
L 363.935134 130.53449 
L 366.204855 131.916705 
L 368.852863 133.480155 
L 370.36601 134.120142 
L 371.626966 134.430083 
L 372.887922 134.505896 
L 374.148878 134.340892 
L 375.409834 133.950443 
L 376.922982 133.236312 
L 379.192702 131.868551 
L 381.84071 130.310301 
L 383.353857 129.668457 
L 384.614814 129.355208 
L 385.87577 129.275328 
L 387.136726 129.436369 
L 388.397682 129.823805 
L 389.910829 130.536628 
L 392.054454 131.82883 
L 394.954653 133.547904 
L 396.4678 134.182487 
L 397.728757 134.486981 
L 398.989713 134.556968 
L 400.250669 134.386245 
L 401.511625 133.990662 
L 403.024772 133.271734 
L 405.294493 131.900631 
L 407.942501 130.344966 
L 409.455648 129.707282 
L 410.716604 129.39847 
L 411.97756 129.323435 
L 413.238516 129.489241 
L 414.499472 129.880886 
L 416.012619 130.597427 
L 418.156245 131.891437 
L 421.056444 133.605724 
L 422.569591 134.234989 
L 423.830547 134.534118 
L 425.091503 134.598369 
L 426.352459 134.422028 
L 427.613415 134.021421 
L 429.126562 133.297838 
L 431.396283 131.923615 
L 434.044291 130.370791 
L 435.557438 129.737398 
L 436.818394 129.433123 
L 438.07935 129.363021 
L 439.340306 129.53367 
L 440.601262 129.929589 
L 442.11441 130.649915 
L 444.384131 132.025971 
L 447.032138 133.592238 
L 448.545286 134.237966 
L 449.806242 134.554184 
L 451.067198 134.636899 
L 452.328154 134.478672 
L 453.58911 134.09414 
L 455.102257 133.385058 
L 457.245882 132.098859 
L 460.146081 130.389406 
L 461.659229 129.760419 
L 462.920185 129.460764 
L 464.181141 129.395668 
L 465.442097 129.571221 
L 466.703053 129.971463 
L 468.2162 130.695623 
L 470.485921 132.073594 
L 473.133929 133.635641 
L 474.647076 134.276294 
L 475.908032 134.587321 
L 477.168988 134.664448 
L 478.429944 134.500722 
L 479.6909 134.111256 
L 481.204048 133.397599 
L 483.473768 132.028521 
L 486.247872 130.402146 
L 487.761019 129.777661 
L 489.021975 129.482698 
L 490.282931 129.422667 
L 491.543887 129.603172 
L 492.804843 130.007776 
L 494.317991 130.735802 
L 496.587711 132.115723 
L 499.235719 133.673594 
L 500.748866 134.309205 
L 502.009823 134.615079 
L 503.270779 134.686665 
L 504.531735 134.517497 
L 505.792691 134.123167 
L 507.305838 133.405025 
L 509.575559 132.033061 
L 512.223567 130.472955 
L 513.736714 129.831315 
L 514.99767 129.5187 
L 516.258626 129.439657 
L 517.519582 129.601513 
L 518.780538 129.989522 
L 520.293685 130.702438 
L 522.437311 131.993212 
L 525.33751 133.707079 
L 526.850657 134.337671 
L 528.111613 134.638421 
L 529.372569 134.704505 
L 530.633525 134.529944 
L 531.894481 134.130808 
L 533.407628 133.408263 
L 535.677349 132.033545 
L 538.325357 130.476698 
L 539.838504 129.839591 
L 541.09946 129.531717 
L 542.360416 129.457815 
L 543.621372 129.624726 
L 544.882328 130.017224 
L 546.395476 130.734186 
L 548.665197 132.107287 
L 551.4393 133.736901 
L 552.952447 134.362487 
L 554.213403 134.658134 
L 555.474359 134.718748 
L 556.735315 134.538836 
L 557.996271 134.134944 
L 559.509419 133.408069 
L 561.77914 132.030718 
L 564.427147 130.477266 
L 565.940295 129.844759 
L 567.201251 129.541671 
L 568.462207 129.472945 
L 569.723163 129.644932 
L 570.984119 130.041933 
L 572.497266 130.762945 
L 574.766987 132.138288 
L 577.414995 133.700785 
L 578.928142 134.343146 
L 580.189098 134.656124 
L 581.450054 134.735422 
L 582.71101 134.573826 
L 583.971966 134.186193 
L 585.485114 133.474018 
L 587.628739 132.185059 
L 590.528938 130.475255 
L 592.042085 129.847407 
L 593.303041 129.549144 
L 594.563997 129.485621 
L 595.824953 129.662703 
L 597.085909 130.064212 
L 598.599057 130.789272 
L 600.868777 132.166839 
L 602.381925 133.102643 
L 602.381925 133.102643 
" clip-path="url(#p9e76340f94)" style="fill: none; stroke: #ff7f0e; stroke-width: 1.5; stroke-linecap: square"/>
   </g>
   <g id="patch_3">
    <path d="M 60.202344 222.319648 
L 60.202344 42.006328 
" style="fill: none; stroke: #000000; stroke-width: 0.8; stroke-linejoin: miter; stroke-linecap: square"/>
   </g>
   <g id="patch_4">
    <path d="M 628.2 222.319648 
L 628.2 42.006328 
" style="fill: none; stroke: #000000; stroke-width: 0.8; stroke-linejoin: miter; stroke-linecap: square"/>
   </g>
   <g id="patch_5">
    <path d="M 60.202344 222.319648 
L 628.2 222.319648 
" style="fill: none; stroke: #000000; stroke-width: 0.8; stroke-linejoin: miter; stroke-linecap: square"/>
   </g>
   <g id="patch_6">
    <path d="M 60.202344 42.006328 
L 628.2 42.006328 
" style="fill: none; stroke: #000000; stroke-width: 0.8; stroke-linejoin: miter; stroke-linecap: square"/>
   </g>
   <g id="text_14">
    <!-- Daily Useless RC (2026-06-25) | verdict: feral -->
    <g transform="translate(208.759609 21.550547) scale(0.12 -0.12)">
     <defs>
      <path id="DejaVuSans-27" d="M 1259 4147 
L 1259 519 
L 2022 519 
Q 2988 519 3436 956 
Q 3884 1394 3884 2338 
Q 3884 3275 3436 3711 
Q 2988 4147 2022 4147 
L 1259 4147 
z
M 628 4666 
L 1925 4666 
Q 3281 4666 3915 4102 
Q 4550 3538 4550 2338 
Q 4550 1131 3912 565 
Q 3275 0 1925 0 
L 628 0 
L 628 4666 
z
" transform="scale(0.015625)"/>
      <path id="DejaVuSans-4c" d="M 603 3500 
L 1178 3500 
L 1178 0 
L 603 0 
L 603 3500 
z
M 603 4863 
L 1178 4863 
L 1178 4134 
L 603 4134 
L 603 4863 
z
" transform="scale(0.015625)"/>
      <path id="DejaVuSans-4f" d="M 603 4863 
L 1178 4863 
L 1178 0 
L 603 0 
L 603 4863 
z
" transform="scale(0.015625)"/>
      <path id="DejaVuSans-5c" d="M 2059 -325 
Q 1816 -950 1584 -1140 
Q 1353 -1331 966 -1331 
L 506 -1331 
L 506 -850 
L 844 -850 
Q 1081 -850 1212 -737 
Q 1344 -625 1503 -206 
L 1606 56 
L 191 3500 
L 800 3500 
L 1894 763 
L 2988 3500 
L 3597 3500 
L 2059 -325 
z
" transform="scale(0.015625)"/>
      <path id="DejaVuSans-38" d="M 556 4666 
L 1191 4666 
L 1191 1831 
Q 1191 1081 1462 751 
Q 1734 422 2344 422 
Q 2950 422 3222 751 
Q 3494 1081 3494 1831 
L 3494 4666 
L 4128 4666 
L 4128 1753 
Q 4128 841 3676 375 
Q 3225 -91 2344 -91 
Q 1459 -91 1007 375 
Q 556 841 556 1753 
L 556 4666 
z
" transform="scale(0.015625)"/>
      <path id="DejaVuSans-56" d="M 2834 3397 
L 2834 2853 
Q 2591 2978 2328 3040 
Q 2066 3103 1784 3103 
Q 1356 3103 1142 2972 
Q 928 2841 928 2578 
Q 928 2378 1081 2264 
Q 1234 2150 1697 2047 
L 1894 2003 
Q 2506 1872 2764 1633 
Q 3022 1394 3022 966 
Q 3022 478 2636 193 
Q 2250 -91 1575 -91 
Q 1294 -91 989 -36 
Q 684 19 347 128 
L 347 722 
Q 666 556 975 473 
Q 1284 391 1588 391 
Q 1994 391 2212 530 
Q 2431 669 2431 922 
Q 2431 1156 2273 1281 
Q 2116 1406 1581 1522 
L 1381 1569 
Q 847 1681 609 1914 
Q 372 2147 372 2553 
Q 372 3047 722 3315 
Q 1072 3584 1716 3584 
Q 2034 3584 2315 3537 
Q 2597 3491 2834 3397 
z
" transform="scale(0.015625)"/>
      <path id="DejaVuSans-48" d="M 3597 1894 
L 3597 1613 
L 953 1613 
Q 991 1019 1311 708 
Q 1631 397 2203 397 
Q 2534 397 2845 478 
Q 3156 559 3463 722 
L 3463 178 
Q 3153 47 2828 -22 
Q 2503 -91 2169 -91 
Q 1331 -91 842 396 
Q 353 884 353 1716 
Q 353 2575 817 3079 
Q 1281 3584 2069 3584 
Q 2775 3584 3186 3129 
Q 3597 2675 3597 1894 
z
M 3022 2063 
Q 3016 2534 2758 2815 
Q 2500 3097 2075 3097 
Q 1594 3097 1305 2825 
Q 1016 2553 972 2059 
L 3022 2063 
z
" transform="scale(0.015625)"/>
      <path id="DejaVuSans-35" d="M 2841 2188 
Q 3044 2119 3236 1894 
Q 3428 1669 3622 1275 
L 4263 0 
L 3584 0 
L 2988 1197 
Q 2756 1666 2539 1819 
Q 2322 1972 1947 1972 
L 1259 1972 
L 1259 0 
L 628 0 
L 628 4666 
L 2053 4666 
Q 2853 4666 3247 4331 
Q 3641 3997 3641 3322 
Q 3641 2881 3436 2590 
Q 3231 2300 2841 2188 
z
M 1259 4147 
L 1259 2491 
L 2053 2491 
Q 2509 2491 2742 2702 
Q 2975 2913 2975 3322 
Q 2975 3731 2742 3939 
Q 2509 4147 2053 4147 
L 1259 4147 
z
" transform="scale(0.015625)"/>
      <path id="DejaVuSans-26" d="M 4122 4306 
L 4122 3641 
Q 3803 3938 3442 4084 
Q 3081 4231 2675 4231 
Q 1875 4231 1450 3742 
Q 1025 3253 1025 2328 
Q 1025 1406 1450 917 
Q 1875 428 2675 428 
Q 3081 428 3442 575 
Q 3803 722 4122 1019 
L 4122 359 
Q 3791 134 3420 21 
Q 3050 -91 2638 -91 
Q 1578 -91 968 557 
Q 359 1206 359 2328 
Q 359 3453 968 4101 
Q 1578 4750 2638 4750 
Q 3056 4750 3426 4639 
Q 3797 4528 4122 4306 
z
" transform="scale(0.015625)"/>
      <path id="DejaVuSans-b" d="M 1984 4856 
Q 1566 4138 1362 3434 
Q 1159 2731 1159 2009 
Q 1159 1288 1364 580 
Q 1569 -128 1984 -844 
L 1484 -844 
Q 1016 -109 783 600 
Q 550 1309 550 2009 
Q 550 2706 781 3412 
Q 1013 4119 1484 4856 
L 1984 4856 
z
" transform="scale(0.015625)"/>
      <path id="DejaVuSans-10" d="M 313 2009 
L 1997 2009 
L 1997 1497 
L 313 1497 
L 313 2009 
z
" transform="scale(0.015625)"/>
      <path id="DejaVuSans-c" d="M 513 4856 
L 1013 4856 
Q 1481 4119 1714 3412 
Q 1947 2706 1947 2009 
Q 1947 1309 1714 600 
Q 1481 -109 1013 -844 
L 513 -844 
Q 928 -128 1133 580 
Q 1338 1288 1338 2009 
Q 1338 2731 1133 3434 
Q 928 4138 513 4856 
z
" transform="scale(0.015625)"/>
      <path id="DejaVuSans-5f" d="M 1344 4891 
L 1344 -1509 
L 813 -1509 
L 813 4891 
L 1344 4891 
z
" transform="scale(0.015625)"/>
      <path id="DejaVuSans-59" d="M 191 3500 
L 800 3500 
L 1894 563 
L 2988 3500 
L 3597 3500 
L 2284 0 
L 1503 0 
L 191 3500 
z
" transform="scale(0.015625)"/>
      <path id="DejaVuSans-47" d="M 2906 2969 
L 2906 4863 
L 3481 4863 
L 3481 0 
L 2906 0 
L 2906 525 
Q 2725 213 2448 61 
Q 2172 -91 1784 -91 
Q 1150 -91 751 415 
Q 353 922 353 1747 
Q 353 2572 751 3078 
Q 1150 3584 1784 3584 
Q 2172 3584 2448 3432 
Q 2725 3281 2906 2969 
z
M 947 1747 
Q 947 1113 1208 752 
Q 1469 391 1925 391 
Q 2381 391 2643 752 
Q 2906 1113 2906 1747 
Q 2906 2381 2643 2742 
Q 2381 3103 1925 3103 
Q 1469 3103 1208 2742 
Q 947 2381 947 1747 
z
" transform="scale(0.015625)"/>
      <path id="DejaVuSans-46" d="M 3122 3366 
L 3122 2828 
Q 2878 2963 2633 3030 
Q 2388 3097 2138 3097 
Q 1578 3097 1268 2742 
Q 959 2388 959 1747 
Q 959 1106 1268 751 
Q 1578 397 2138 397 
Q 2388 397 2633 464 
Q 2878 531 3122 666 
L 3122 134 
Q 2881 22 2623 -34 
Q 2366 -91 2075 -91 
Q 1284 -91 818 406 
Q 353 903 353 1747 
Q 353 2603 823 3093 
Q 1294 3584 2113 3584 
Q 2378 3584 2631 3529 
Q 2884 3475 3122 3366 
z
" transform="scale(0.015625)"/>
      <path id="DejaVuSans-1d" d="M 750 794 
L 1409 794 
L 1409 0 
L 750 0 
L 750 794 
z
M 750 3309 
L 1409 3309 
L 1409 2516 
L 750 2516 
L 750 3309 
z
" transform="scale(0.015625)"/>
      <path id="DejaVuSans-49" d="M 2375 4863 
L 2375 4384 
L 1825 4384 
Q 1516 4384 1395 4259 
Q 1275 4134 1275 3809 
L 1275 3500 
L 2222 3500 
L 2222 3053 
L 1275 3053 
L 1275 0 
L 697 0 
L 697 3053 
L 147 3053 
L 147 3500 
L 697 3500 
L 697 3744 
Q 697 4328 969 4595 
Q 1241 4863 1831 4863 
L 2375 4863 
z
" transform="scale(0.015625)"/>
     </defs>
     <use xlink:href="#DejaVuSans-27"/>
     <use xlink:href="#DejaVuSans-44" transform="translate(77 0)"/>
     <use xlink:href="#DejaVuSans-4c" transform="translate(138.28125 0)"/>
     <use xlink:href="#DejaVuSans-4f" transform="translate(166.0625 0)"/>
     <use xlink:href="#DejaVuSans-5c" transform="translate(193.84375 0)"/>
     <use xlink:href="#DejaVuSans-3" transform="translate(253.03125 0)"/>
     <use xlink:href="#DejaVuSans-38" transform="translate(284.8125 0)"/>
     <use xlink:href="#DejaVuSans-56" transform="translate(358 0)"/>
     <use xlink:href="#DejaVuSans-48" transform="translate(410.09375 0)"/>
     <use xlink:href="#DejaVuSans-4f" transform="translate(471.625 0)"/>
     <use xlink:href="#DejaVuSans-48" transform="translate(499.40625 0)"/>
     <use xlink:href="#DejaVuSans-56" transform="translate(560.9375 0)"/>
     <use xlink:href="#DejaVuSans-56" transform="translate(613.03125 0)"/>
     <use xlink:href="#DejaVuSans-3" transform="translate(665.125 0)"/>
     <use xlink:href="#DejaVuSans-35" transform="translate(696.90625 0)"/>
     <use xlink:href="#DejaVuSans-26" transform="translate(761.40625 0)"/>
     <use xlink:href="#DejaVuSans-3" transform="translate(831.234375 0)"/>
     <use xlink:href="#DejaVuSans-b" transform="translate(863.015625 0)"/>
     <use xlink:href="#DejaVuSans-15" transform="translate(902.03125 0)"/>
     <use xlink:href="#DejaVuSans-13" transform="translate(965.65625 0)"/>
     <use xlink:href="#DejaVuSans-15" transform="translate(1029.28125 0)"/>
     <use xlink:href="#DejaVuSans-19" transform="translate(1092.90625 0)"/>
     <use xlink:href="#DejaVuSans-10" transform="translate(1156.53125 0)"/>
     <use xlink:href="#DejaVuSans-13" transform="translate(1192.609375 0)"/>
     <use xlink:href="#DejaVuSans-19" transform="translate(1256.234375 0)"/>
     <use xlink:href="#DejaVuSans-10" transform="translate(1319.859375 0)"/>
     <use xlink:href="#DejaVuSans-15" transform="translate(1355.9375 0)"/>
     <use xlink:href="#DejaVuSans-18" transform="translate(1419.5625 0)"/>
     <use xlink:href="#DejaVuSans-c" transform="translate(1483.1875 0)"/>
     <use xlink:href="#DejaVuSans-3" transform="translate(1522.203125 0)"/>
     <use xlink:href="#DejaVuSans-5f" transform="translate(1553.984375 0)"/>
     <use xlink:href="#DejaVuSans-3" transform="translate(1587.671875 0)"/>
     <use xlink:href="#DejaVuSans-59" transform="translate(1619.453125 0)"/>
     <use xlink:href="#DejaVuSans-48" transform="translate(1678.640625 0)"/>
     <use xlink:href="#DejaVuSans-55" transform="translate(1740.171875 0)"/>
     <use xlink:href="#DejaVuSans-47" transform="translate(1779.53125 0)"/>
     <use xlink:href="#DejaVuSans-4c" transform="translate(1843.015625 0)"/>
     <use xlink:href="#DejaVuSans-46" transform="translate(1870.796875 0)"/>
     <use xlink:href="#DejaVuSans-57" transform="translate(1925.78125 0)"/>
     <use xlink:href="#DejaVuSans-1d" transform="translate(1964.984375 0)"/>
     <use xlink:href="#DejaVuSans-3" transform="translate(1998.671875 0)"/>
     <use xlink:href="#DejaVuSans-49" transform="translate(2030.453125 0)"/>
     <use xlink:href="#DejaVuSans-48" transform="translate(2065.65625 0)"/>
     <use xlink:href="#DejaVuSans-55" transform="translate(2127.1875 0)"/>
     <use xlink:href="#DejaVuSans-44" transform="translate(2168.296875 0)"/>
     <use xlink:href="#DejaVuSans-4f" transform="translate(2229.578125 0)"/>
    </g>
    <!-- Filter: low | Input: sine, sine (A=1.10, f=1.98 Hz) | R=0.50, C=5.00, τ=2.50 -->
    <g transform="translate(118.031172 36.006328) scale(0.12 -0.12)">
     <defs>
      <path id="DejaVuSans-29" d="M 628 4666 
L 3309 4666 
L 3309 4134 
L 1259 4134 
L 1259 2759 
L 3109 2759 
L 3109 2228 
L 1259 2228 
L 1259 0 
L 628 0 
L 628 4666 
z
" transform="scale(0.015625)"/>
      <path id="DejaVuSans-52" d="M 1959 3097 
Q 1497 3097 1228 2736 
Q 959 2375 959 1747 
Q 959 1119 1226 758 
Q 1494 397 1959 397 
Q 2419 397 2687 759 
Q 2956 1122 2956 1747 
Q 2956 2369 2687 2733 
Q 2419 3097 1959 3097 
z
M 1959 3584 
Q 2709 3584 3137 3096 
Q 3566 2609 3566 1747 
Q 3566 888 3137 398 
Q 2709 -91 1959 -91 
Q 1206 -91 779 398 
Q 353 888 353 1747 
Q 353 2609 779 3096 
Q 1206 3584 1959 3584 
z
" transform="scale(0.015625)"/>
      <path id="DejaVuSans-5a" d="M 269 3500 
L 844 3500 
L 1563 769 
L 2278 3500 
L 2956 3500 
L 3675 769 
L 4391 3500 
L 4966 3500 
L 4050 0 
L 3372 0 
L 2619 2869 
L 1863 0 
L 1184 0 
L 269 3500 
z
" transform="scale(0.015625)"/>
      <path id="DejaVuSans-2c" d="M 628 4666 
L 1259 4666 
L 1259 0 
L 628 0 
L 628 4666 
z
" transform="scale(0.015625)"/>
      <path id="DejaVuSans-51" d="M 3513 2113 
L 3513 0 
L 2938 0 
L 2938 2094 
Q 2938 2591 2744 2837 
Q 2550 3084 2163 3084 
Q 1697 3084 1428 2787 
Q 1159 2491 1159 1978 
L 1159 0 
L 581 0 
L 581 3500 
L 1159 3500 
L 1159 2956 
Q 1366 3272 1645 3428 
Q 1925 3584 2291 3584 
Q 2894 3584 3203 3211 
Q 3513 2838 3513 2113 
z
" transform="scale(0.015625)"/>
      <path id="DejaVuSans-53" d="M 1159 525 
L 1159 -1331 
L 581 -1331 
L 581 3500 
L 1159 3500 
L 1159 2969 
Q 1341 3281 1617 3432 
Q 1894 3584 2278 3584 
Q 2916 3584 3314 3078 
Q 3713 2572 3713 1747 
Q 3713 922 3314 415 
Q 2916 -91 2278 -91 
Q 1894 -91 1617 61 
Q 1341 213 1159 525 
z
M 3116 1747 
Q 3116 2381 2855 2742 
Q 2594 3103 2138 3103 
Q 1681 3103 1420 2742 
Q 1159 2381 1159 1747 
Q 1159 1113 1420 752 
Q 1681 391 2138 391 
Q 2594 391 2855 752 
Q 3116 1113 3116 1747 
z
" transform="scale(0.015625)"/>
      <path id="DejaVuSans-58" d="M 544 1381 
L 544 3500 
L 1119 3500 
L 1119 1403 
Q 1119 906 1312 657 
Q 1506 409 1894 409 
Q 2359 409 2629 706 
Q 2900 1003 2900 1516 
L 2900 3500 
L 3475 3500 
L 3475 0 
L 2900 0 
L 2900 538 
Q 2691 219 2414 64 
Q 2138 -91 1772 -91 
Q 1169 -91 856 284 
Q 544 659 544 1381 
z
M 1991 3584 
L 1991 3584 
z
" transform="scale(0.015625)"/>
      <path id="DejaVuSans-f" d="M 750 794 
L 1409 794 
L 1409 256 
L 897 -744 
L 494 -744 
L 750 256 
L 750 794 
z
" transform="scale(0.015625)"/>
      <path id="DejaVuSans-24" d="M 2188 4044 
L 1331 1722 
L 3047 1722 
L 2188 4044 
z
M 1831 4666 
L 2547 4666 
L 4325 0 
L 3669 0 
L 3244 1197 
L 1141 1197 
L 716 0 
L 50 0 
L 1831 4666 
z
" transform="scale(0.015625)"/>
      <path id="DejaVuSans-20" d="M 678 2906 
L 4684 2906 
L 4684 2381 
L 678 2381 
L 678 2906 
z
M 678 1631 
L 4684 1631 
L 4684 1100 
L 678 1100 
L 678 1631 
z
" transform="scale(0.015625)"/>
      <path id="DejaVuSans-1c" d="M 703 97 
L 703 672 
Q 941 559 1184 500 
Q 1428 441 1663 441 
Q 2288 441 2617 861 
Q 2947 1281 2994 2138 
Q 2813 1869 2534 1725 
Q 2256 1581 1919 1581 
Q 1219 1581 811 2004 
Q 403 2428 403 3163 
Q 403 3881 828 4315 
Q 1253 4750 1959 4750 
Q 2769 4750 3195 4129 
Q 3622 3509 3622 2328 
Q 3622 1225 3098 567 
Q 2575 -91 1691 -91 
Q 1453 -91 1209 -44 
Q 966 3 703 97 
z
M 1959 2075 
Q 2384 2075 2632 2365 
Q 2881 2656 2881 3163 
Q 2881 3666 2632 3958 
Q 2384 4250 1959 4250 
Q 1534 4250 1286 3958 
Q 1038 3666 1038 3163 
Q 1038 2656 1286 2365 
Q 1534 2075 1959 2075 
z
" transform="scale(0.015625)"/>
      <path id="DejaVuSans-2b" d="M 628 4666 
L 1259 4666 
L 1259 2753 
L 3553 2753 
L 3553 4666 
L 4184 4666 
L 4184 0 
L 3553 0 
L 3553 2222 
L 1259 2222 
L 1259 0 
L 628 0 
L 628 4666 
z
" transform="scale(0.015625)"/>
      <path id="DejaVuSans-5d" d="M 353 3500 
L 3084 3500 
L 3084 2975 
L 922 459 
L 3084 459 
L 3084 0 
L 275 0 
L 275 525 
L 2438 3041 
L 353 3041 
L 353 3500 
z
" transform="scale(0.015625)"/>
      <path id="DejaVuSans-358" d="M 2319 638 
Q 2431 488 2769 488 
L 3047 488 
L 3047 0 
L 2700 0 
Q 2138 0 1881 300 
Q 1625 606 1625 1269 
L 1625 2925 
L 313 2925 
L 313 3500 
L 3541 3500 
L 3541 2925 
L 2213 2925 
L 2213 1234 
Q 2213 781 2319 638 
z
" transform="scale(0.015625)"/>
     </defs>
     <use xlink:href="#DejaVuSans-29"/>
     <use xlink:href="#DejaVuSans-4c" transform="translate(50.234375 0)"/>
     <use xlink:href="#DejaVuSans-4f" transform="translate(78.015625 0)"/>
     <use xlink:href="#DejaVuSans-57" transform="translate(105.796875 0)"/>
     <use xlink:href="#DejaVuSans-48" transform="translate(145 0)"/>
     <use xlink:href="#DejaVuSans-55" transform="translate(206.53125 0)"/>
     <use xlink:href="#DejaVuSans-1d" transform="translate(245.890625 0)"/>
     <use xlink:href="#DejaVuSans-3" transform="translate(279.578125 0)"/>
     <use xlink:href="#DejaVuSans-4f" transform="translate(311.359375 0)"/>
     <use xlink:href="#DejaVuSans-52" transform="translate(339.140625 0)"/>
     <use xlink:href="#DejaVuSans-5a" transform="translate(400.328125 0)"/>
     <use xlink:href="#DejaVuSans-3" transform="translate(482.109375 0)"/>
     <use xlink:href="#DejaVuSans-5f" transform="translate(513.890625 0)"/>
     <use xlink:href="#DejaVuSans-3" transform="translate(547.578125 0)"/>
     <use xlink:href="#DejaVuSans-2c" transform="translate(579.359375 0)"/>
     <use xlink:href="#DejaVuSans-51" transform="translate(608.859375 0)"/>
     <use xlink:href="#DejaVuSans-53" transform="translate(672.234375 0)"/>
     <use xlink:href="#DejaVuSans-58" transform="translate(735.71875 0)"/>
     <use xlink:href="#DejaVuSans-57" transform="translate(799.09375 0)"/>
     <use xlink:href="#DejaVuSans-1d" transform="translate(838.296875 0)"/>
     <use xlink:href="#DejaVuSans-3" transform="translate(871.984375 0)"/>
     <use xlink:href="#DejaVuSans-56" transform="translate(903.765625 0)"/>
     <use xlink:href="#DejaVuSans-4c" transform="translate(955.859375 0)"/>
     <use xlink:href="#DejaVuSans-51" transform="translate(983.640625 0)"/>
     <use xlink:href="#DejaVuSans-48" transform="translate(1047.015625 0)"/>
     <use xlink:href="#DejaVuSans-f" transform="translate(1108.546875 0)"/>
     <use xlink:href="#DejaVuSans-3" transform="translate(1140.328125 0)"/>
     <use xlink:href="#DejaVuSans-56" transform="translate(1172.109375 0)"/>
     <use xlink:href="#DejaVuSans-4c" transform="translate(1224.203125 0)"/>
     <use xlink:href="#DejaVuSans-51" transform="translate(1251.984375 0)"/>
     <use xlink:href="#DejaVuSans-48" transform="translate(1315.359375 0)"/>
     <use xlink:href="#DejaVuSans-3" transform="translate(1376.890625 0)"/>
     <use xlink:href="#DejaVuSans-b" transform="translate(1408.671875 0)"/>
     <use xlink:href="#DejaVuSans-24" transform="translate(1447.6875 0)"/>
     <use xlink:href="#DejaVuSans-20" transform="translate(1516.09375 0)"/>
     <use xlink:href="#DejaVuSans-14" transform="translate(1599.890625 0)"/>
     <use xlink:href="#DejaVuSans-11" transform="translate(1663.515625 0)"/>
     <use xlink:href="#DejaVuSans-14" transform="translate(1695.296875 0)"/>
     <use xlink:href="#DejaVuSans-13" transform="translate(1758.921875 0)"/>
     <use xlink:href="#DejaVuSans-f" transform="translate(1822.546875 0)"/>
     <use xlink:href="#DejaVuSans-3" transform="translate(1854.328125 0)"/>
     <use xlink:href="#DejaVuSans-49" transform="translate(1886.109375 0)"/>
     <use xlink:href="#DejaVuSans-20" transform="translate(1921.3125 0)"/>
     <use xlink:href="#DejaVuSans-14" transform="translate(2005.109375 0)"/>
     <use xlink:href="#DejaVuSans-11" transform="translate(2068.734375 0)"/>
     <use xlink:href="#DejaVuSans-1c" transform="translate(2100.515625 0)"/>
     <use xlink:href="#DejaVuSans-1b" transform="translate(2164.140625 0)"/>
     <use xlink:href="#DejaVuSans-3" transform="translate(2227.765625 0)"/>
     <use xlink:href="#DejaVuSans-2b" transform="translate(2259.546875 0)"/>
     <use xlink:href="#DejaVuSans-5d" transform="translate(2334.75 0)"/>
     <use xlink:href="#DejaVuSans-c" transform="translate(2387.234375 0)"/>
     <use xlink:href="#DejaVuSans-3" transform="translate(2426.25 0)"/>
     <use xlink:href="#DejaVuSans-5f" transform="translate(2458.03125 0)"/>
     <use xlink:href="#DejaVuSans-3" transform="translate(2491.71875 0)"/>
     <use xlink:href="#DejaVuSans-35" transform="translate(2523.5 0)"/>
     <use xlink:href="#DejaVuSans-20" transform="translate(2592.984375 0)"/>
     <use xlink:href="#DejaVuSans-13" transform="translate(2676.78125 0)"/>
     <use xlink:href="#DejaVuSans-11" transform="translate(2740.40625 0)"/>
     <use xlink:href="#DejaVuSans-18" transform="translate(2772.1875 0)"/>
     <use xlink:href="#DejaVuSans-13" transform="translate(2835.8125 0)"/>
     <use xlink:href="#DejaVuSans-f" transform="translate(2899.4375 0)"/>
     <use xlink:href="#DejaVuSans-3" transform="translate(2931.21875 0)"/>
     <use xlink:href="#DejaVuSans-26" transform="translate(2963 0)"/>
     <use xlink:href="#DejaVuSans-20" transform="translate(3032.828125 0)"/>
     <use xlink:href="#DejaVuSans-18" transform="translate(3116.625 0)"/>
     <use xlink:href="#DejaVuSans-11" transform="translate(3180.25 0)"/>
     <use xlink:href="#DejaVuSans-13" transform="translate(3212.03125 0)"/>
     <use xlink:href="#DejaVuSans-13" transform="translate(3275.65625 0)"/>
     <use xlink:href="#DejaVuSans-f" transform="translate(3339.28125 0)"/>
     <use xlink:href="#DejaVuSans-3" transform="translate(3371.0625 0)"/>
     <use xlink:href="#DejaVuSans-358" transform="translate(3402.84375 0)"/>
     <use xlink:href="#DejaVuSans-20" transform="translate(3463.046875 0)"/>
     <use xlink:href="#DejaVuSans-15" transform="translate(3546.84375 0)"/>
     <use xlink:href="#DejaVuSans-11" transform="translate(3610.46875 0)"/>
     <use xlink:href="#DejaVuSans-18" transform="translate(3642.25 0)"/>
     <use xlink:href="#DejaVuSans-13" transform="translate(3705.875 0)"/>
    </g>
   </g>
   <g id="legend_1">
    <g id="patch_7">
     <path d="M 556.217188 217.319648 
L 621.2 217.319648 
Q 623.2 217.319648 623.2 215.319648 
L 623.2 186.318086 
Q 623.2 184.318086 621.2 184.318086 
L 556.217188 184.318086 
Q 554.217188 184.318086 554.217188 186.318086 
L 554.217188 215.319648 
Q 554.217188 217.319648 556.217188 217.319648 
z
" style="fill: #ffffff; opacity: 0.8; stroke: #cccccc; stroke-linejoin: miter"/>
    </g>
    <g id="line2d_25">
     <path d="M 558.217188 192.416523 
L 568.217188 192.416523 
L 578.217188 192.416523 
" style="fill: none; stroke: #1f77b4; stroke-width: 1.5; stroke-linecap: square"/>
    </g>
    <g id="text_15">
     <!-- input -->
     <g transform="translate(586.217188 195.916523) scale(0.1 -0.1)">
      <use xlink:href="#DejaVuSans-4c"/>
      <use xlink:href="#DejaVuSans-51" transform="translate(27.78125 0)"/>
      <use xlink:href="#DejaVuSans-53" transform="translate(91.15625 0)"/>
      <use xlink:href="#DejaVuSans-58" transform="translate(154.640625 0)"/>
      <use xlink:href="#DejaVuSans-57" transform="translate(218.015625 0)"/>
     </g>
    </g>
    <g id="line2d_26">
     <path d="M 558.217188 207.417305 
L 568.217188 207.417305 
L 578.217188 207.417305 
" style="fill: none; stroke: #ff7f0e; stroke-width: 1.5; stroke-linecap: square"/>
    </g>
    <g id="text_16">
     <!-- output -->
     <g transform="translate(586.217188 210.917305) scale(0.1 -0.1)">
      <use xlink:href="#DejaVuSans-52"/>
      <use xlink:href="#DejaVuSans-58" transform="translate(61.1875 0)"/>
      <use xlink:href="#DejaVuSans-57" transform="translate(124.5625 0)"/>
      <use xlink:href="#DejaVuSans-53" transform="translate(163.765625 0)"/>
      <use xlink:href="#DejaVuSans-58" transform="translate(227.25 0)"/>
      <use xlink:href="#DejaVuSans-57" transform="translate(290.625 0)"/>
     </g>
    </g>
   </g>
  </g>
  <g id="axes_2">
   <g id="patch_8">
    <path d="M 60.202344 460.115313 
L 628.2 460.115313 
L 628.2 279.801992 
L 60.202344 279.801992 
z
" style="fill: #ffffff"/>
   </g>
   <g id="matplotlib.axis_3">
    <g id="xtick_7">
     <g id="line2d_27">
      <path d="M 60.202344 460.115313 
L 60.202344 279.801992 
" clip-path="url(#pa809c5f644)" style="fill: none; stroke: #b0b0b0; stroke-opacity: 0.25; stroke-width: 0.8; stroke-linecap: square"/>
     </g>
     <g id="line2d_28">
      <g>
       <use xlink:href="#m3aed969612" x="60.202344" y="460.115313" style="stroke: #000000; stroke-width: 0.8"/>
      </g>
     </g>
     <g id="text_17">
      <!-- $\mathdefault{10^{-1}}$ -->
      <g transform="translate(48.452344 476.415313) scale(0.1 -0.1)">
       <use xlink:href="#DejaVuSans-14" transform="translate(0 0.665625)"/>
       <use xlink:href="#DejaVuSans-13" transform="translate(63.623047 0.665625)"/>
       <use xlink:href="#DejaVuSans-c9c" transform="translate(128.203125 41.965625) scale(0.7)"/>
       <use xlink:href="#DejaVuSans-14" transform="translate(186.855469 41.965625) scale(0.7)"/>
      </g>
     </g>
    </g>
    <g id="xtick_8">
     <g id="line2d_29">
      <path d="M 344.201172 460.115313 
L 344.201172 279.801992 
" clip-path="url(#pa809c5f644)" style="fill: none; stroke: #b0b0b0; stroke-opacity: 0.25; stroke-width: 0.8; stroke-linecap: square"/>
     </g>
     <g id="line2d_30">
      <g>
       <use xlink:href="#m3aed969612" x="344.201172" y="460.115313" style="stroke: #000000; stroke-width: 0.8"/>
      </g>
     </g>
     <g id="text_18">
      <!-- $\mathdefault{10^{0}}$ -->
      <g transform="translate(335.401172 476.515313) scale(0.1 -0.1)">
       <use xlink:href="#DejaVuSans-14" transform="translate(0 0.746875)"/>
       <use xlink:href="#DejaVuSans-13" transform="translate(63.623047 0.746875)"/>
       <use xlink:href="#DejaVuSans-13" transform="translate(128.203125 42.046875) scale(0.7)"/>
      </g>
     </g>
    </g>
    <g id="xtick_9">
     <g id="line2d_31">
      <path d="M 628.2 460.115313 
L 628.2 279.801992 
" clip-path="url(#pa809c5f644)" style="fill: none; stroke: #b0b0b0; stroke-opacity: 0.25; stroke-width: 0.8; stroke-linecap: square"/>
     </g>
     <g id="line2d_32">
      <g>
       <use xlink:href="#m3aed969612" x="628.2" y="460.115313" style="stroke: #000000; stroke-width: 0.8"/>
      </g>
     </g>
     <g id="text_19">
      <!-- $\mathdefault{10^{1}}$ -->
      <g transform="translate(619.4 476.415313) scale(0.1 -0.1)">
       <use xlink:href="#DejaVuSans-14" transform="translate(0 0.665625)"/>
       <use xlink:href="#DejaVuSans-13" transform="translate(63.623047 0.665625)"/>
       <use xlink:href="#DejaVuSans-14" transform="translate(128.203125 41.965625) scale(0.7)"/>
      </g>
     </g>
    </g>
    <g id="xtick_10">
     <g id="line2d_33">
      <defs>
       <path id="mfcadac7a93" d="M 0 0 
L 0 2 
" style="stroke: #000000; stroke-width: 0.6"/>
      </defs>
      <g>
       <use xlink:href="#mfcadac7a93" x="145.69451" y="460.115313" style="stroke: #000000; stroke-width: 0.6"/>
      </g>
     </g>
    </g>
    <g id="xtick_11">
     <g id="line2d_34">
      <g>
       <use xlink:href="#mfcadac7a93" x="195.704221" y="460.115313" style="stroke: #000000; stroke-width: 0.6"/>
      </g>
     </g>
    </g>
    <g id="xtick_12">
     <g id="line2d_35">
      <g>
       <use xlink:href="#mfcadac7a93" x="231.186676" y="460.115313" style="stroke: #000000; stroke-width: 0.6"/>
      </g>
     </g>
    </g>
    <g id="xtick_13">
     <g id="line2d_36">
      <g>
       <use xlink:href="#mfcadac7a93" x="258.709006" y="460.115313" style="stroke: #000000; stroke-width: 0.6"/>
      </g>
     </g>
    </g>
    <g id="xtick_14">
     <g id="line2d_37">
      <g>
       <use xlink:href="#mfcadac7a93" x="281.196387" y="460.115313" style="stroke: #000000; stroke-width: 0.6"/>
      </g>
     </g>
    </g>
    <g id="xtick_15">
     <g id="line2d_38">
      <g>
       <use xlink:href="#mfcadac7a93" x="300.209197" y="460.115313" style="stroke: #000000; stroke-width: 0.6"/>
      </g>
     </g>
    </g>
    <g id="xtick_16">
     <g id="line2d_39">
      <g>
       <use xlink:href="#mfcadac7a93" x="316.678842" y="460.115313" style="stroke: #000000; stroke-width: 0.6"/>
      </g>
     </g>
    </g>
    <g id="xtick_17">
     <g id="line2d_40">
      <g>
       <use xlink:href="#mfcadac7a93" x="331.206098" y="460.115313" style="stroke: #000000; stroke-width: 0.6"/>
      </g>
     </g>
    </g>
    <g id="xtick_18">
     <g id="line2d_41">
      <g>
       <use xlink:href="#mfcadac7a93" x="429.693338" y="460.115313" style="stroke: #000000; stroke-width: 0.6"/>
      </g>
     </g>
    </g>
    <g id="xtick_19">
     <g id="line2d_42">
      <g>
       <use xlink:href="#mfcadac7a93" x="479.703049" y="460.115313" style="stroke: #000000; stroke-width: 0.6"/>
      </g>
     </g>
    </g>
    <g id="xtick_20">
     <g id="line2d_43">
      <g>
       <use xlink:href="#mfcadac7a93" x="515.185504" y="460.115313" style="stroke: #000000; stroke-width: 0.6"/>
      </g>
     </g>
    </g>
    <g id="xtick_21">
     <g id="line2d_44">
      <g>
       <use xlink:href="#mfcadac7a93" x="542.707834" y="460.115313" style="stroke: #000000; stroke-width: 0.6"/>
      </g>
     </g>
    </g>
    <g id="xtick_22">
     <g id="line2d_45">
      <g>
       <use xlink:href="#mfcadac7a93" x="565.195215" y="460.115313" style="stroke: #000000; stroke-width: 0.6"/>
      </g>
     </g>
    </g>
    <g id="xtick_23">
     <g id="line2d_46">
      <g>
       <use xlink:href="#mfcadac7a93" x="584.208025" y="460.115313" style="stroke: #000000; stroke-width: 0.6"/>
      </g>
     </g>
    </g>
    <g id="xtick_24">
     <g id="line2d_47">
      <g>
       <use xlink:href="#mfcadac7a93" x="600.67767" y="460.115313" style="stroke: #000000; stroke-width: 0.6"/>
      </g>
     </g>
    </g>
    <g id="xtick_25">
     <g id="line2d_48">
      <g>
       <use xlink:href="#mfcadac7a93" x="615.204926" y="460.115313" style="stroke: #000000; stroke-width: 0.6"/>
      </g>
     </g>
    </g>
    <g id="text_20">
     <!-- frequency [arb.] -->
     <g transform="translate(303.748828 490.516094) scale(0.1 -0.1)">
      <defs>
       <path id="DejaVuSans-54" d="M 947 1747 
Q 947 1113 1208 752 
Q 1469 391 1925 391 
Q 2381 391 2643 752 
Q 2906 1113 2906 1747 
Q 2906 2381 2643 2742 
Q 2381 3103 1925 3103 
Q 1469 3103 1208 2742 
Q 947 2381 947 1747 
z
M 2906 525 
Q 2725 213 2448 61 
Q 2172 -91 1784 -91 
Q 1150 -91 751 415 
Q 353 922 353 1747 
Q 353 2572 751 3078 
Q 1150 3584 1784 3584 
Q 2172 3584 2448 3432 
Q 2725 3281 2906 2969 
L 2906 3500 
L 3481 3500 
L 3481 -1331 
L 2906 -1331 
L 2906 525 
z
" transform="scale(0.015625)"/>
      </defs>
      <use xlink:href="#DejaVuSans-49"/>
      <use xlink:href="#DejaVuSans-55" transform="translate(35.203125 0)"/>
      <use xlink:href="#DejaVuSans-48" transform="translate(74.109375 0)"/>
      <use xlink:href="#DejaVuSans-54" transform="translate(135.640625 0)"/>
      <use xlink:href="#DejaVuSans-58" transform="translate(199.125 0)"/>
      <use xlink:href="#DejaVuSans-48" transform="translate(262.5 0)"/>
      <use xlink:href="#DejaVuSans-51" transform="translate(324.03125 0)"/>
      <use xlink:href="#DejaVuSans-46" transform="translate(387.40625 0)"/>
      <use xlink:href="#DejaVuSans-5c" transform="translate(442.390625 0)"/>
      <use xlink:href="#DejaVuSans-3" transform="translate(501.578125 0)"/>
      <use xlink:href="#DejaVuSans-3e" transform="translate(533.359375 0)"/>
      <use xlink:href="#DejaVuSans-44" transform="translate(572.375 0)"/>
      <use xlink:href="#DejaVuSans-55" transform="translate(633.65625 0)"/>
      <use xlink:href="#DejaVuSans-45" transform="translate(674.765625 0)"/>
      <use xlink:href="#DejaVuSans-11" transform="translate(738.25 0)"/>
      <use xlink:href="#DejaVuSans-40" transform="translate(770.03125 0)"/>
     </g>
    </g>
   </g>
   <g id="matplotlib.axis_4">
    <g id="ytick_6">
     <g id="line2d_49">
      <path d="M 60.202344 450.152213 
L 628.2 450.152213 
" clip-path="url(#pa809c5f644)" style="fill: none; stroke: #b0b0b0; stroke-opacity: 0.25; stroke-width: 0.8; stroke-linecap: square"/>
     </g>
     <g id="line2d_50">
      <g>
       <use xlink:href="#m027c1e5893" x="60.202344" y="450.152213" style="stroke: #000000; stroke-width: 0.8"/>
      </g>
     </g>
     <g id="text_21">
      <!-- $\mathdefault{10^{-10}}$ -->
      <g transform="translate(25.302344 454.852213) scale(0.1 -0.1)">
       <use xlink:href="#DejaVuSans-14" transform="translate(0 0.746875)"/>
       <use xlink:href="#DejaVuSans-13" transform="translate(63.623047 0.746875)"/>
       <use xlink:href="#DejaVuSans-c9c" transform="translate(128.203125 42.046875) scale(0.7)"/>
       <use xlink:href="#DejaVuSans-14" transform="translate(186.855469 42.046875) scale(0.7)"/>
       <use xlink:href="#DejaVuSans-13" transform="translate(231.391602 42.046875) scale(0.7)"/>
      </g>
     </g>
    </g>
    <g id="ytick_7">
     <g id="line2d_51">
      <path d="M 60.202344 425.284454 
L 628.2 425.284454 
" clip-path="url(#pa809c5f644)" style="fill: none; stroke: #b0b0b0; stroke-opacity: 0.25; stroke-width: 0.8; stroke-linecap: square"/>
     </g>
     <g id="line2d_52">
      <g>
       <use xlink:href="#m027c1e5893" x="60.202344" y="425.284454" style="stroke: #000000; stroke-width: 0.8"/>
      </g>
     </g>
     <g id="text_22">
      <!-- $\mathdefault{10^{-8}}$ -->
      <g transform="translate(29.702344 429.984454) scale(0.1 -0.1)">
       <use xlink:href="#DejaVuSans-14" transform="translate(0 0.746875)"/>
       <use xlink:href="#DejaVuSans-13" transform="translate(63.623047 0.746875)"/>
       <use xlink:href="#DejaVuSans-c9c" transform="translate(128.203125 42.046875) scale(0.7)"/>
       <use xlink:href="#DejaVuSans-1b" transform="translate(186.855469 42.046875) scale(0.7)"/>
      </g>
     </g>
    </g>
    <g id="ytick_8">
     <g id="line2d_53">
      <path d="M 60.202344 400.416696 
L 628.2 400.416696 
" clip-path="url(#pa809c5f644)" style="fill: none; stroke: #b0b0b0; stroke-opacity: 0.25; stroke-width: 0.8; stroke-linecap: square"/>
     </g>
     <g id="line2d_54">
      <g>
       <use xlink:href="#m027c1e5893" x="60.202344" y="400.416696" style="stroke: #000000; stroke-width: 0.8"/>
      </g>
     </g>
     <g id="text_23">
      <!-- $\mathdefault{10^{-6}}$ -->
      <g transform="translate(29.702344 405.116696) scale(0.1 -0.1)">
       <use xlink:href="#DejaVuSans-14" transform="translate(0 0.746875)"/>
       <use xlink:href="#DejaVuSans-13" transform="translate(63.623047 0.746875)"/>
       <use xlink:href="#DejaVuSans-c9c" transform="translate(128.203125 42.046875) scale(0.7)"/>
       <use xlink:href="#DejaVuSans-19" transform="translate(186.855469 42.046875) scale(0.7)"/>
      </g>
     </g>
    </g>
    <g id="ytick_9">
     <g id="line2d_55">
      <path d="M 60.202344 375.548938 
L 628.2 375.548938 
" clip-path="url(#pa809c5f644)" style="fill: none; stroke: #b0b0b0; stroke-opacity: 0.25; stroke-width: 0.8; stroke-linecap: square"/>
     </g>
     <g id="line2d_56">
      <g>
       <use xlink:href="#m027c1e5893" x="60.202344" y="375.548938" style="stroke: #000000; stroke-width: 0.8"/>
      </g>
     </g>
     <g id="text_24">
      <!-- $\mathdefault{10^{-4}}$ -->
      <g transform="translate(29.702344 380.198938) scale(0.1 -0.1)">
       <use xlink:href="#DejaVuSans-14" transform="translate(0 0.665625)"/>
       <use xlink:href="#DejaVuSans-13" transform="translate(63.623047 0.665625)"/>
       <use xlink:href="#DejaVuSans-c9c" transform="translate(128.203125 41.965625) scale(0.7)"/>
       <use xlink:href="#DejaVuSans-17" transform="translate(186.855469 41.965625) scale(0.7)"/>
      </g>
     </g>
    </g>
    <g id="ytick_10">
     <g id="line2d_57">
      <path d="M 60.202344 350.68118 
L 628.2 350.68118 
" clip-path="url(#pa809c5f644)" style="fill: none; stroke: #b0b0b0; stroke-opacity: 0.25; stroke-width: 0.8; stroke-linecap: square"/>
     </g>
     <g id="line2d_58">
      <g>
       <use xlink:href="#m027c1e5893" x="60.202344" y="350.68118" style="stroke: #000000; stroke-width: 0.8"/>
      </g>
     </g>
     <g id="text_25">
      <!-- $\mathdefault{10^{-2}}$ -->
      <g transform="translate(29.702344 355.38118) scale(0.1 -0.1)">
       <use xlink:href="#DejaVuSans-14" transform="translate(0 0.746875)"/>
       <use xlink:href="#DejaVuSans-13" transform="translate(63.623047 0.746875)"/>
       <use xlink:href="#DejaVuSans-c9c" transform="translate(128.203125 42.046875) scale(0.7)"/>
       <use xlink:href="#DejaVuSans-15" transform="translate(186.855469 42.046875) scale(0.7)"/>
      </g>
     </g>
    </g>
    <g id="ytick_11">
     <g id="line2d_59">
      <path d="M 60.202344 325.813422 
L 628.2 325.813422 
" clip-path="url(#pa809c5f644)" style="fill: none; stroke: #b0b0b0; stroke-opacity: 0.25; stroke-width: 0.8; stroke-linecap: square"/>
     </g>
     <g id="line2d_60">
      <g>
       <use xlink:href="#m027c1e5893" x="60.202344" y="325.813422" style="stroke: #000000; stroke-width: 0.8"/>
      </g>
     </g>
     <g id="text_26">
      <!-- $\mathdefault{10^{0}}$ -->
      <g transform="translate(35.602344 330.513422) scale(0.1 -0.1)">
       <use xlink:href="#DejaVuSans-14" transform="translate(0 0.746875)"/>
       <use xlink:href="#DejaVuSans-13" transform="translate(63.623047 0.746875)"/>
       <use xlink:href="#DejaVuSans-13" transform="translate(128.203125 42.046875) scale(0.7)"/>
      </g>
     </g>
    </g>
    <g id="ytick_12">
     <g id="line2d_61">
      <path d="M 60.202344 300.945663 
L 628.2 300.945663 
" clip-path="url(#pa809c5f644)" style="fill: none; stroke: #b0b0b0; stroke-opacity: 0.25; stroke-width: 0.8; stroke-linecap: square"/>
     </g>
     <g id="line2d_62">
      <g>
       <use xlink:href="#m027c1e5893" x="60.202344" y="300.945663" style="stroke: #000000; stroke-width: 0.8"/>
      </g>
     </g>
     <g id="text_27">
      <!-- $\mathdefault{10^{2}}$ -->
      <g transform="translate(35.602344 305.645663) scale(0.1 -0.1)">
       <use xlink:href="#DejaVuSans-14" transform="translate(0 0.746875)"/>
       <use xlink:href="#DejaVuSans-13" transform="translate(63.623047 0.746875)"/>
       <use xlink:href="#DejaVuSans-15" transform="translate(128.203125 42.046875) scale(0.7)"/>
      </g>
     </g>
    </g>
    <g id="text_28">
     <!-- |FFT(.)| -->
     <g transform="translate(18.9 387.535996) rotate(-90) scale(0.1 -0.1)">
      <defs>
       <path id="DejaVuSans-37" d="M -19 4666 
L 3928 4666 
L 3928 4134 
L 2272 4134 
L 2272 0 
L 1638 0 
L 1638 4134 
L -19 4134 
L -19 4666 
z
" transform="scale(0.015625)"/>
      </defs>
      <use xlink:href="#DejaVuSans-5f"/>
      <use xlink:href="#DejaVuSans-29" transform="translate(33.6875 0)"/>
      <use xlink:href="#DejaVuSans-29" transform="translate(91.203125 0)"/>
      <use xlink:href="#DejaVuSans-37" transform="translate(146.96875 0)"/>
      <use xlink:href="#DejaVuSans-b" transform="translate(208.046875 0)"/>
      <use xlink:href="#DejaVuSans-11" transform="translate(247.0625 0)"/>
      <use xlink:href="#DejaVuSans-c" transform="translate(278.84375 0)"/>
      <use xlink:href="#DejaVuSans-5f" transform="translate(317.859375 0)"/>
     </g>
    </g>
   </g>
   <g id="line2d_63">
    <path d="M 60.202344 316.233886 
L 145.69451 343.691652 
L 195.704221 342.974439 
L 231.186676 342.019228 
L 258.709006 340.935303 
L 281.196387 339.756843 
L 300.209197 338.491005 
L 316.678842 337.130862 
L 331.206098 335.660498 
L 344.201172 334.056367 
L 355.956646 332.286275 
L 366.688553 330.306097 
L 376.56095 328.053277 
L 385.701363 325.434324 
L 394.210883 322.298893 
L 402.171008 318.378265 
L 409.648395 313.102214 
L 416.698264 304.738062 
L 423.366868 290.250364 
L 429.693338 287.998052 
L 435.711074 293.379487 
L 441.448812 308.583534 
L 446.931453 315.381906 
L 452.180719 320.044409 
L 457.215668 323.627778 
L 462.053116 326.54731 
L 466.707975 329.014021 
L 471.193529 331.150994 
L 475.521661 333.036663 
L 479.703049 334.724224 
L 483.747317 336.251477 
L 487.663174 337.646277 
L 491.458523 338.929754 
L 495.140561 340.118327 
L 498.715859 341.225014 
L 502.19043 342.260312 
L 505.569796 343.232813 
L 508.859034 344.149637 
L 512.062828 345.016754 
L 515.185504 345.83922 
L 518.231069 346.621352 
L 521.20324 347.366869 
L 524.105471 348.078996 
L 526.940978 348.76055 
L 529.71276 349.414004 
L 532.423619 350.041543 
L 535.076176 350.645105 
L 537.672885 351.22642 
L 540.21605 351.787036 
L 542.707834 352.328345 
L 545.150273 352.851605 
L 547.545282 353.357953 
L 549.89467 353.848424 
L 552.200141 354.323959 
L 554.463308 354.785419 
L 556.685695 355.233595 
L 558.868745 355.669211 
L 561.013827 356.092934 
L 563.12224 356.50538 
L 565.195215 356.907121 
L 567.233925 357.298682 
L 569.239483 357.680556 
L 571.212951 358.053197 
L 573.15534 358.417032 
L 575.067613 358.772456 
L 576.950689 359.11984 
L 578.805448 359.459532 
L 580.632727 359.791857 
L 582.433331 360.117121 
L 584.208025 360.43561 
L 585.957545 360.747594 
L 587.682596 361.05333 
L 589.383852 361.353056 
L 591.061962 361.647 
L 592.717545 361.935376 
L 594.3512 362.218387 
L 595.963499 362.496226 
L 597.554994 362.769075 
L 599.126214 363.037106 
L 600.67767 363.300485 
L 602.209853 363.559368 
L 603.723235 363.813902 
L 605.218273 364.064231 
L 606.695406 364.310488 
L 608.155058 364.552802 
L 609.597637 364.791297 
L 611.023539 365.026089 
L 612.433144 365.25729 
L 613.826821 365.485008 
L 615.204926 365.709344 
L 616.567803 365.930398 
L 617.915785 366.148263 
L 619.249194 366.363029 
L 620.568342 366.574783 
L 621.87353 366.783607 
L 623.165051 366.989582 
L 624.443188 367.192783 
L 625.708216 367.393284 
L 626.9604 367.591156 
L 628.2 367.786466 
L 629.427265 367.979281 
" clip-path="url(#pa809c5f644)" style="fill: none; stroke: #1f77b4; stroke-opacity: 0.6; stroke-width: 1.5; stroke-linecap: square"/>
   </g>
   <g id="line2d_64">
    <path d="M 60.202344 315.202381 
L 145.69451 323.682472 
L 195.704221 330.306185 
L 231.186676 335.011646 
L 258.709006 338.614904 
L 281.196387 341.494642 
L 300.209197 343.828914 
L 316.678842 345.68465 
L 331.206098 347.045234 
L 344.201172 347.822824 
L 355.956646 347.896713 
L 366.688553 347.19327 
L 376.56095 345.731446 
L 385.701363 343.562127 
L 394.210883 340.666427 
L 402.171008 336.865511 
L 409.648395 331.643587 
L 416.698264 323.299673 
L 423.366868 308.816632 
L 429.693338 306.56392 
L 435.711074 311.945837 
L 441.448812 327.154463 
L 446.931453 333.963091 
L 452.180719 338.642138 
L 457.215668 342.248376 
L 462.053116 345.196818 
L 466.707975 347.698024 
L 471.193529 349.87454 
L 475.521661 351.804242 
L 479.703049 353.539775 
L 483.747317 355.118418 
L 487.663174 356.567539 
L 491.458523 357.907826 
L 495.140561 359.155296 
L 498.715859 360.322605 
L 502.19043 361.419928 
L 505.569796 362.455568 
L 508.859034 363.436391 
L 512.062828 364.368142 
L 515.185504 365.255674 
L 518.231069 366.103131 
L 521.20324 366.914075 
L 524.105471 367.691597 
L 526.940978 368.438391 
L 529.71276 369.156827 
L 532.423619 369.848997 
L 535.076176 370.516761 
L 537.672885 371.161777 
L 540.21605 371.785535 
L 542.707834 372.389374 
L 545.150273 372.974507 
L 547.545282 373.542032 
L 549.89467 374.092951 
L 552.200141 374.628179 
L 554.463308 375.148554 
L 556.685695 375.654846 
L 558.868745 376.147765 
L 561.013827 376.627967 
L 563.12224 377.096057 
L 565.195215 377.552601 
L 567.233925 377.99812 
L 569.239483 378.433103 
L 571.212951 378.858005 
L 573.15534 379.273252 
L 575.067613 379.679242 
L 576.950689 380.076352 
L 578.805448 380.46493 
L 580.632727 380.84531 
L 582.433331 381.217802 
L 584.208025 381.582701 
L 585.957545 381.940285 
L 587.682596 382.290817 
L 589.383852 382.634545 
L 591.061962 382.971707 
L 592.717545 383.302525 
L 594.3512 383.627213 
L 595.963499 383.945974 
L 597.554994 384.258999 
L 599.126214 384.566472 
L 600.67767 384.868569 
L 602.209853 385.165456 
L 603.723235 385.457292 
L 605.218273 385.74423 
L 606.695406 386.026416 
L 608.155058 386.303989 
L 609.597637 386.577083 
L 611.023539 386.845825 
L 612.433144 387.110339 
L 613.826821 387.370742 
L 615.204926 387.627146 
L 616.567803 387.879662 
L 617.915785 388.128392 
L 619.249194 388.373438 
L 620.568342 388.614896 
L 621.87353 388.852859 
L 623.165051 389.087416 
L 624.443188 389.318654 
L 625.708216 389.546655 
L 626.9604 389.771501 
L 628.2 389.993268 
L 629.427265 390.212031 
" clip-path="url(#pa809c5f644)" style="fill: none; stroke: #ff7f0e; stroke-width: 1.5; stroke-linecap: square"/>
   </g>
   <g id="patch_9">
    <path d="M 60.202344 460.115313 
L 60.202344 279.801992 
" style="fill: none; stroke: #000000; stroke-width: 0.8; stroke-linejoin: miter; stroke-linecap: square"/>
   </g>
   <g id="patch_10">
    <path d="M 628.2 460.115313 
L 628.2 279.801992 
" style="fill: none; stroke: #000000; stroke-width: 0.8; stroke-linejoin: miter; stroke-linecap: square"/>
   </g>
   <g id="patch_11">
    <path d="M 60.202344 460.115313 
L 628.2 460.115313 
" style="fill: none; stroke: #000000; stroke-width: 0.8; stroke-linejoin: miter; stroke-linecap: square"/>
   </g>
   <g id="patch_12">
    <path d="M 60.202344 279.801992 
L 628.2 279.801992 
" style="fill: none; stroke: #000000; stroke-width: 0.8; stroke-linejoin: miter; stroke-linecap: square"/>
   </g>
   <g id="text_29">
    <!-- Output FFT peak ≈ 2.000 (arb.), magnitude ≈ 3.533e+01 | high-ish -->
    <g transform="translate(141.647734 273.801992) scale(0.12 -0.12)">
     <defs>
      <path id="DejaVuSans-32" d="M 2522 4238 
Q 1834 4238 1429 3725 
Q 1025 3213 1025 2328 
Q 1025 1447 1429 934 
Q 1834 422 2522 422 
Q 3209 422 3611 934 
Q 4013 1447 4013 2328 
Q 4013 3213 3611 3725 
Q 3209 4238 2522 4238 
z
M 2522 4750 
Q 3503 4750 4090 4092 
Q 4678 3434 4678 2328 
Q 4678 1225 4090 567 
Q 3503 -91 2522 -91 
Q 1538 -91 948 565 
Q 359 1222 359 2328 
Q 359 3434 948 4092 
Q 1538 4750 2522 4750 
z
" transform="scale(0.015625)"/>
      <path id="DejaVuSans-4e" d="M 581 4863 
L 1159 4863 
L 1159 1991 
L 2875 3500 
L 3609 3500 
L 1753 1863 
L 3688 0 
L 2938 0 
L 1159 1709 
L 1159 0 
L 581 0 
L 581 4863 
z
" transform="scale(0.015625)"/>
      <path id="DejaVuSans-cd2" d="M 4684 1947 
L 4684 1388 
Q 4356 1144 4076 1036 
Q 3797 928 3494 928 
Q 3150 928 2694 1113 
Q 2663 1125 2641 1134 
Q 2622 1141 2575 1159 
Q 2091 1350 1797 1350 
Q 1522 1350 1253 1231 
Q 984 1113 678 850 
L 678 1409 
Q 1006 1653 1286 1761 
Q 1566 1869 1869 1869 
Q 2213 1869 2672 1684 
Q 2706 1669 2722 1663 
Q 2741 1656 2788 1638 
Q 3272 1447 3566 1447 
Q 3834 1447 4098 1564 
Q 4363 1681 4684 1947 
z
M 4684 3163 
L 4684 2606 
Q 4356 2359 4076 2251 
Q 3797 2144 3494 2144 
Q 3150 2144 2694 2328 
Q 2663 2341 2641 2350 
Q 2622 2356 2575 2375 
Q 2091 2566 1797 2566 
Q 1522 2566 1253 2447 
Q 984 2328 678 2069 
L 678 2625 
Q 1006 2869 1286 2976 
Q 1566 3084 1869 3084 
Q 2213 3084 2672 2900 
Q 2703 2888 2719 2881 
Q 2741 2872 2788 2853 
Q 3272 2663 3566 2663 
Q 3834 2663 4098 2780 
Q 4363 2897 4684 3163 
z
" transform="scale(0.015625)"/>
      <path id="DejaVuSans-50" d="M 3328 2828 
Q 3544 3216 3844 3400 
Q 4144 3584 4550 3584 
Q 5097 3584 5394 3201 
Q 5691 2819 5691 2113 
L 5691 0 
L 5113 0 
L 5113 2094 
Q 5113 2597 4934 2840 
Q 4756 3084 4391 3084 
Q 3944 3084 3684 2787 
Q 3425 2491 3425 1978 
L 3425 0 
L 2847 0 
L 2847 2094 
Q 2847 2600 2669 2842 
Q 2491 3084 2119 3084 
Q 1678 3084 1418 2786 
Q 1159 2488 1159 1978 
L 1159 0 
L 581 0 
L 581 3500 
L 1159 3500 
L 1159 2956 
Q 1356 3278 1631 3431 
Q 1906 3584 2284 3584 
Q 2666 3584 2933 3390 
Q 3200 3197 3328 2828 
z
" transform="scale(0.015625)"/>
      <path id="DejaVuSans-4a" d="M 2906 1791 
Q 2906 2416 2648 2759 
Q 2391 3103 1925 3103 
Q 1463 3103 1205 2759 
Q 947 2416 947 1791 
Q 947 1169 1205 825 
Q 1463 481 1925 481 
Q 2391 481 2648 825 
Q 2906 1169 2906 1791 
z
M 3481 434 
Q 3481 -459 3084 -895 
Q 2688 -1331 1869 -1331 
Q 1566 -1331 1297 -1286 
Q 1028 -1241 775 -1147 
L 775 -588 
Q 1028 -725 1275 -790 
Q 1522 -856 1778 -856 
Q 2344 -856 2625 -561 
Q 2906 -266 2906 331 
L 2906 616 
Q 2728 306 2450 153 
Q 2172 0 1784 0 
Q 1141 0 747 490 
Q 353 981 353 1791 
Q 353 2603 747 3093 
Q 1141 3584 1784 3584 
Q 2172 3584 2450 3431 
Q 2728 3278 2906 2969 
L 2906 3500 
L 3481 3500 
L 3481 434 
z
" transform="scale(0.015625)"/>
      <path id="DejaVuSans-16" d="M 2597 2516 
Q 3050 2419 3304 2112 
Q 3559 1806 3559 1356 
Q 3559 666 3084 287 
Q 2609 -91 1734 -91 
Q 1441 -91 1130 -33 
Q 819 25 488 141 
L 488 750 
Q 750 597 1062 519 
Q 1375 441 1716 441 
Q 2309 441 2620 675 
Q 2931 909 2931 1356 
Q 2931 1769 2642 2001 
Q 2353 2234 1838 2234 
L 1294 2234 
L 1294 2753 
L 1863 2753 
Q 2328 2753 2575 2939 
Q 2822 3125 2822 3475 
Q 2822 3834 2567 4026 
Q 2313 4219 1838 4219 
Q 1578 4219 1281 4162 
Q 984 4106 628 3988 
L 628 4550 
Q 988 4650 1302 4700 
Q 1616 4750 1894 4750 
Q 2613 4750 3031 4423 
Q 3450 4097 3450 3541 
Q 3450 3153 3228 2886 
Q 3006 2619 2597 2516 
z
" transform="scale(0.015625)"/>
      <path id="DejaVuSans-e" d="M 2944 4013 
L 2944 2272 
L 4684 2272 
L 4684 1741 
L 2944 1741 
L 2944 0 
L 2419 0 
L 2419 1741 
L 678 1741 
L 678 2272 
L 2419 2272 
L 2419 4013 
L 2944 4013 
z
" transform="scale(0.015625)"/>
      <path id="DejaVuSans-4b" d="M 3513 2113 
L 3513 0 
L 2938 0 
L 2938 2094 
Q 2938 2591 2744 2837 
Q 2550 3084 2163 3084 
Q 1697 3084 1428 2787 
Q 1159 2491 1159 1978 
L 1159 0 
L 581 0 
L 581 4863 
L 1159 4863 
L 1159 2956 
Q 1366 3272 1645 3428 
Q 1925 3584 2291 3584 
Q 2894 3584 3203 3211 
Q 3513 2838 3513 2113 
z
" transform="scale(0.015625)"/>
     </defs>
     <use xlink:href="#DejaVuSans-32"/>
     <use xlink:href="#DejaVuSans-58" transform="translate(78.71875 0)"/>
     <use xlink:href="#DejaVuSans-57" transform="translate(142.09375 0)"/>
     <use xlink:href="#DejaVuSans-53" transform="translate(181.296875 0)"/>
     <use xlink:href="#DejaVuSans-58" transform="translate(244.78125 0)"/>
     <use xlink:href="#DejaVuSans-57" transform="translate(308.15625 0)"/>
     <use xlink:href="#DejaVuSans-3" transform="translate(347.359375 0)"/>
     <use xlink:href="#DejaVuSans-29" transform="translate(379.140625 0)"/>
     <use xlink:href="#DejaVuSans-29" transform="translate(436.65625 0)"/>
     <use xlink:href="#DejaVuSans-37" transform="translate(492.421875 0)"/>
     <use xlink:href="#DejaVuSans-3" transform="translate(553.5 0)"/>
     <use xlink:href="#DejaVuSans-53" transform="translate(585.28125 0)"/>
     <use xlink:href="#DejaVuSans-48" transform="translate(648.765625 0)"/>
     <use xlink:href="#DejaVuSans-44" transform="translate(710.296875 0)"/>
     <use xlink:href="#DejaVuSans-4e" transform="translate(771.578125 0)"/>
     <use xlink:href="#DejaVuSans-3" transform="translate(829.484375 0)"/>
     <use xlink:href="#DejaVuSans-cd2" transform="translate(861.265625 0)"/>
     <use xlink:href="#DejaVuSans-3" transform="translate(945.0625 0)"/>
     <use xlink:href="#DejaVuSans-15" transform="translate(976.84375 0)"/>
     <use xlink:href="#DejaVuSans-11" transform="translate(1040.46875 0)"/>
     <use xlink:href="#DejaVuSans-13" transform="translate(1072.25 0)"/>
     <use xlink:href="#DejaVuSans-13" transform="translate(1135.875 0)"/>
     <use xlink:href="#DejaVuSans-13" transform="translate(1199.5 0)"/>
     <use xlink:href="#DejaVuSans-3" transform="translate(1263.125 0)"/>
     <use xlink:href="#DejaVuSans-b" transform="translate(1294.90625 0)"/>
     <use xlink:href="#DejaVuSans-44" transform="translate(1333.921875 0)"/>
     <use xlink:href="#DejaVuSans-55" transform="translate(1395.203125 0)"/>
     <use xlink:href="#DejaVuSans-45" transform="translate(1436.3125 0)"/>
     <use xlink:href="#DejaVuSans-11" transform="translate(1499.796875 0)"/>
     <use xlink:href="#DejaVuSans-c" transform="translate(1531.578125 0)"/>
     <use xlink:href="#DejaVuSans-f" transform="translate(1570.59375 0)"/>
     <use xlink:href="#DejaVuSans-3" transform="translate(1602.375 0)"/>
     <use xlink:href="#DejaVuSans-50" transform="translate(1634.15625 0)"/>
     <use xlink:href="#DejaVuSans-44" transform="translate(1731.5625 0)"/>
     <use xlink:href="#DejaVuSans-4a" transform="translate(1792.84375 0)"/>
     <use xlink:href="#DejaVuSans-51" transform="translate(1856.328125 0)"/>
     <use xlink:href="#DejaVuSans-4c" transform="translate(1919.703125 0)"/>
     <use xlink:href="#DejaVuSans-57" transform="translate(1947.484375 0)"/>
     <use xlink:href="#DejaVuSans-58" transform="translate(1986.6875 0)"/>
     <use xlink:href="#DejaVuSans-47" transform="translate(2050.0625 0)"/>
     <use xlink:href="#DejaVuSans-48" transform="translate(2113.546875 0)"/>
     <use xlink:href="#DejaVuSans-3" transform="translate(2175.078125 0)"/>
     <use xlink:href="#DejaVuSans-cd2" transform="translate(2206.859375 0)"/>
     <use xlink:href="#DejaVuSans-3" transform="translate(2290.65625 0)"/>
     <use xlink:href="#DejaVuSans-16" transform="translate(2322.4375 0)"/>
     <use xlink:href="#DejaVuSans-11" transform="translate(2386.0625 0)"/>
     <use xlink:href="#DejaVuSans-18" transform="translate(2417.84375 0)"/>
     <use xlink:href="#DejaVuSans-16" transform="translate(2481.46875 0)"/>
     <use xlink:href="#DejaVuSans-16" transform="translate(2545.09375 0)"/>
     <use xlink:href="#DejaVuSans-48" transform="translate(2608.71875 0)"/>
     <use xlink:href="#DejaVuSans-e" transform="translate(2670.25 0)"/>
     <use xlink:href="#DejaVuSans-13" transform="translate(2754.046875 0)"/>
     <use xlink:href="#DejaVuSans-14" transform="translate(2817.671875 0)"/>
     <use xlink:href="#DejaVuSans-3" transform="translate(2881.296875 0)"/>
     <use xlink:href="#DejaVuSans-5f" transform="translate(2913.078125 0)"/>
     <use xlink:href="#DejaVuSans-3" transform="translate(2946.765625 0)"/>
     <use xlink:href="#DejaVuSans-4b" transform="translate(2978.546875 0)"/>
     <use xlink:href="#DejaVuSans-4c" transform="translate(3041.921875 0)"/>
     <use xlink:href="#DejaVuSans-4a" transform="translate(3069.703125 0)"/>
     <use xlink:href="#DejaVuSans-4b" transform="translate(3133.1875 0)"/>
     <use xlink:href="#DejaVuSans-10" transform="translate(3196.5625 0)"/>
     <use xlink:href="#DejaVuSans-4c" transform="translate(3232.640625 0)"/>
     <use xlink:href="#DejaVuSans-56" transform="translate(3260.421875 0)"/>
     <use xlink:href="#DejaVuSans-4b" transform="translate(3312.515625 0)"/>
    </g>
   </g>
   <g id="legend_2">
    <g id="patch_13">
     <path d="M 535.603125 317.803555 
L 621.2 317.803555 
Q 623.2 317.803555 623.2 315.803555 
L 623.2 286.801992 
Q 623.2 284.801992 621.2 284.801992 
L 535.603125 284.801992 
Q 533.603125 284.801992 533.603125 286.801992 
L 533.603125 315.803555 
Q 533.603125 317.803555 535.603125 317.803555 
z
" style="fill: #ffffff; opacity: 0.8; stroke: #cccccc; stroke-linejoin: miter"/>
    </g>
    <g id="line2d_65">
     <path d="M 537.603125 292.90043 
L 547.603125 292.90043 
L 557.603125 292.90043 
" style="fill: none; stroke: #1f77b4; stroke-opacity: 0.6; stroke-width: 1.5; stroke-linecap: square"/>
    </g>
    <g id="text_30">
     <!-- input FFT -->
     <g transform="translate(565.603125 296.40043) scale(0.1 -0.1)">
      <use xlink:href="#DejaVuSans-4c"/>
      <use xlink:href="#DejaVuSans-51" transform="translate(27.78125 0)"/>
      <use xlink:href="#DejaVuSans-53" transform="translate(91.15625 0)"/>
      <use xlink:href="#DejaVuSans-58" transform="translate(154.640625 0)"/>
      <use xlink:href="#DejaVuSans-57" transform="translate(218.015625 0)"/>
      <use xlink:href="#DejaVuSans-3" transform="translate(257.21875 0)"/>
      <use xlink:href="#DejaVuSans-29" transform="translate(289 0)"/>
      <use xlink:href="#DejaVuSans-29" transform="translate(346.515625 0)"/>
      <use xlink:href="#DejaVuSans-37" transform="translate(402.28125 0)"/>
     </g>
    </g>
    <g id="line2d_66">
     <path d="M 537.603125 307.901211 
L 547.603125 307.901211 
L 557.603125 307.901211 
" style="fill: none; stroke: #ff7f0e; stroke-width: 1.5; stroke-linecap: square"/>
    </g>
    <g id="text_31">
     <!-- output FFT -->
     <g transform="translate(565.603125 311.401211) scale(0.1 -0.1)">
      <use xlink:href="#DejaVuSans-52"/>
      <use xlink:href="#DejaVuSans-58" transform="translate(61.1875 0)"/>
      <use xlink:href="#DejaVuSans-57" transform="translate(124.5625 0)"/>
      <use xlink:href="#DejaVuSans-53" transform="translate(163.765625 0)"/>
      <use xlink:href="#DejaVuSans-58" transform="translate(227.25 0)"/>
      <use xlink:href="#DejaVuSans-57" transform="translate(290.625 0)"/>
      <use xlink:href="#DejaVuSans-3" transform="translate(329.828125 0)"/>
      <use xlink:href="#DejaVuSans-29" transform="translate(361.609375 0)"/>
      <use xlink:href="#DejaVuSans-29" transform="translate(419.125 0)"/>
      <use xlink:href="#DejaVuSans-37" transform="translate(474.890625 0)"/>
     </g>
    </g>
   </g>
  </g>
 </g>
 <defs>
  <clipPath id="p9e76340f94">
   <rect x="60.202344" y="42.006328" width="567.997656" height="180.31332"/>
  </clipPath>
  <clipPath id="pa809c5f644">
   <rect x="60.202344" y="279.801992" width="567.997656" height="180.31332"/>
  </clipPath>
 </defs>
</svg>
