<?xml version="1.0" encoding="utf-8" standalone="no"?>
<!DOCTYPE svg PUBLIC "-//W3C//DTD SVG 1.1//EN"
  "http://www.w3.org/Graphics/SVG/1.1/DTD/svg11.dtd">
<svg xmlns:xlink="http://www.w3.org/1999/xlink" width="648pt" height="504pt" viewBox="0 0 648 504" xmlns="http://www.w3.org/2000/svg" version="1.1">
 <metadata>
  <rdf:RDF xmlns:dc="http://purl.org/dc/elements/1.1/" xmlns:cc="http://creativecommons.org/ns#" xmlns:rdf="http://www.w3.org/1999/02/22-rdf-syntax-ns#">
   <cc:Work>
    <dc:type rdf:resource="http://purl.org/dc/dcmitype/StillImage"/>
    <dc:date>2026-03-18T02:51:49.450284</dc:date>
    <dc:format>image/svg+xml</dc:format>
    <dc:creator>
     <cc:Agent>
      <dc:title>Matplotlib v3.10.8, https://matplotlib.org/</dc:title>
     </cc:Agent>
    </dc:creator>
   </cc:Work>
  </rdf:RDF>
 </metadata>
 <defs>
  <style type="text/css">*{stroke-linejoin: round; stroke-linecap: butt}</style>
 </defs>
 <g id="figure_1">
  <g id="patch_1">
   <path d="M 0 504 
L 648 504 
L 648 0 
L 0 0 
z
" style="fill: #ffffff"/>
  </g>
  <g id="axes_1">
   <g id="patch_2">
    <path d="M 56.357054 221.272 
L 628.183658 221.272 
L 628.183658 41.856 
L 56.357054 41.856 
z
" style="fill: #ffffff"/>
   </g>
   <g id="matplotlib.axis_1">
    <g id="xtick_1">
     <g id="line2d_1">
      <path d="M 82.349172 221.272 
L 82.349172 41.856 
" clip-path="url(#p848cb8e4de)" style="fill: none; stroke: #b0b0b0; stroke-opacity: 0.25; stroke-width: 0.8; stroke-linecap: square"/>
     </g>
     <g id="line2d_2">
      <defs>
       <path id="m7e5ac6fcf7" d="M 0 0 
L 0 3.5 
" style="stroke: #000000; stroke-width: 0.8"/>
      </defs>
      <g>
       <use xlink:href="#m7e5ac6fcf7" x="82.349172" y="221.272" style="stroke: #000000; stroke-width: 0.8"/>
      </g>
     </g>
     <g id="text_1">
      <!-- 0 -->
      <g transform="translate(79.167922 235.870437) scale(0.1 -0.1)">
       <defs>
        <path id="DejaVuSans-30" d="M 2034 4250 
Q 1547 4250 1301 3770 
Q 1056 3291 1056 2328 
Q 1056 1369 1301 889 
Q 1547 409 2034 409 
Q 2525 409 2770 889 
Q 3016 1369 3016 2328 
Q 3016 3291 2770 3770 
Q 2525 4250 2034 4250 
z
M 2034 4750 
Q 2819 4750 3233 4129 
Q 3647 3509 3647 2328 
Q 3647 1150 3233 529 
Q 2819 -91 2034 -91 
Q 1250 -91 836 529 
Q 422 1150 422 2328 
Q 422 3509 836 4129 
Q 1250 4750 2034 4750 
z
" transform="scale(0.015625)"/>
       </defs>
       <use xlink:href="#DejaVuSans-30"/>
      </g>
     </g>
    </g>
    <g id="xtick_2">
     <g id="line2d_3">
      <path d="M 186.343035 221.272 
L 186.343035 41.856 
" clip-path="url(#p848cb8e4de)" style="fill: none; stroke: #b0b0b0; stroke-opacity: 0.25; stroke-width: 0.8; stroke-linecap: square"/>
     </g>
     <g id="line2d_4">
      <g>
       <use xlink:href="#m7e5ac6fcf7" x="186.343035" y="221.272" style="stroke: #000000; stroke-width: 0.8"/>
      </g>
     </g>
     <g id="text_2">
      <!-- 2 -->
      <g transform="translate(183.161785 235.870437) scale(0.1 -0.1)">
       <defs>
        <path id="DejaVuSans-32" d="M 1228 531 
L 3431 531 
L 3431 0 
L 469 0 
L 469 531 
Q 828 903 1448 1529 
Q 2069 2156 2228 2338 
Q 2531 2678 2651 2914 
Q 2772 3150 2772 3378 
Q 2772 3750 2511 3984 
Q 2250 4219 1831 4219 
Q 1534 4219 1204 4116 
Q 875 4013 500 3803 
L 500 4441 
Q 881 4594 1212 4672 
Q 1544 4750 1819 4750 
Q 2544 4750 2975 4387 
Q 3406 4025 3406 3419 
Q 3406 3131 3298 2873 
Q 3191 2616 2906 2266 
Q 2828 2175 2409 1742 
Q 1991 1309 1228 531 
z
" transform="scale(0.015625)"/>
       </defs>
       <use xlink:href="#DejaVuSans-32"/>
      </g>
     </g>
    </g>
    <g id="xtick_3">
     <g id="line2d_5">
      <path d="M 290.336897 221.272 
L 290.336897 41.856 
" clip-path="url(#p848cb8e4de)" style="fill: none; stroke: #b0b0b0; stroke-opacity: 0.25; stroke-width: 0.8; stroke-linecap: square"/>
     </g>
     <g id="line2d_6">
      <g>
       <use xlink:href="#m7e5ac6fcf7" x="290.336897" y="221.272" style="stroke: #000000; stroke-width: 0.8"/>
      </g>
     </g>
     <g id="text_3">
      <!-- 4 -->
      <g transform="translate(287.155647 235.870437) scale(0.1 -0.1)">
       <defs>
        <path id="DejaVuSans-34" d="M 2419 4116 
L 825 1625 
L 2419 1625 
L 2419 4116 
z
M 2253 4666 
L 3047 4666 
L 3047 1625 
L 3713 1625 
L 3713 1100 
L 3047 1100 
L 3047 0 
L 2419 0 
L 2419 1100 
L 313 1100 
L 313 1709 
L 2253 4666 
z
" transform="scale(0.015625)"/>
       </defs>
       <use xlink:href="#DejaVuSans-34"/>
      </g>
     </g>
    </g>
    <g id="xtick_4">
     <g id="line2d_7">
      <path d="M 394.33076 221.272 
L 394.33076 41.856 
" clip-path="url(#p848cb8e4de)" style="fill: none; stroke: #b0b0b0; stroke-opacity: 0.25; stroke-width: 0.8; stroke-linecap: square"/>
     </g>
     <g id="line2d_8">
      <g>
       <use xlink:href="#m7e5ac6fcf7" x="394.33076" y="221.272" style="stroke: #000000; stroke-width: 0.8"/>
      </g>
     </g>
     <g id="text_4">
      <!-- 6 -->
      <g transform="translate(391.14951 235.870437) scale(0.1 -0.1)">
       <defs>
        <path id="DejaVuSans-36" d="M 2113 2584 
Q 1688 2584 1439 2293 
Q 1191 2003 1191 1497 
Q 1191 994 1439 701 
Q 1688 409 2113 409 
Q 2538 409 2786 701 
Q 3034 994 3034 1497 
Q 3034 2003 2786 2293 
Q 2538 2584 2113 2584 
z
M 3366 4563 
L 3366 3988 
Q 3128 4100 2886 4159 
Q 2644 4219 2406 4219 
Q 1781 4219 1451 3797 
Q 1122 3375 1075 2522 
Q 1259 2794 1537 2939 
Q 1816 3084 2150 3084 
Q 2853 3084 3261 2657 
Q 3669 2231 3669 1497 
Q 3669 778 3244 343 
Q 2819 -91 2113 -91 
Q 1303 -91 875 529 
Q 447 1150 447 2328 
Q 447 3434 972 4092 
Q 1497 4750 2381 4750 
Q 2619 4750 2861 4703 
Q 3103 4656 3366 4563 
z
" transform="scale(0.015625)"/>
       </defs>
       <use xlink:href="#DejaVuSans-36"/>
      </g>
     </g>
    </g>
    <g id="xtick_5">
     <g id="line2d_9">
      <path d="M 498.324622 221.272 
L 498.324622 41.856 
" clip-path="url(#p848cb8e4de)" style="fill: none; stroke: #b0b0b0; stroke-opacity: 0.25; stroke-width: 0.8; stroke-linecap: square"/>
     </g>
     <g id="line2d_10">
      <g>
       <use xlink:href="#m7e5ac6fcf7" x="498.324622" y="221.272" style="stroke: #000000; stroke-width: 0.8"/>
      </g>
     </g>
     <g id="text_5">
      <!-- 8 -->
      <g transform="translate(495.143372 235.870437) scale(0.1 -0.1)">
       <defs>
        <path id="DejaVuSans-38" d="M 2034 2216 
Q 1584 2216 1326 1975 
Q 1069 1734 1069 1313 
Q 1069 891 1326 650 
Q 1584 409 2034 409 
Q 2484 409 2743 651 
Q 3003 894 3003 1313 
Q 3003 1734 2745 1975 
Q 2488 2216 2034 2216 
z
M 1403 2484 
Q 997 2584 770 2862 
Q 544 3141 544 3541 
Q 544 4100 942 4425 
Q 1341 4750 2034 4750 
Q 2731 4750 3128 4425 
Q 3525 4100 3525 3541 
Q 3525 3141 3298 2862 
Q 3072 2584 2669 2484 
Q 3125 2378 3379 2068 
Q 3634 1759 3634 1313 
Q 3634 634 3220 271 
Q 2806 -91 2034 -91 
Q 1263 -91 848 271 
Q 434 634 434 1313 
Q 434 1759 690 2068 
Q 947 2378 1403 2484 
z
M 1172 3481 
Q 1172 3119 1398 2916 
Q 1625 2713 2034 2713 
Q 2441 2713 2670 2916 
Q 2900 3119 2900 3481 
Q 2900 3844 2670 4047 
Q 2441 4250 2034 4250 
Q 1625 4250 1398 4047 
Q 1172 3844 1172 3481 
z
" transform="scale(0.015625)"/>
       </defs>
       <use xlink:href="#DejaVuSans-38"/>
      </g>
     </g>
    </g>
    <g id="xtick_6">
     <g id="line2d_11">
      <path d="M 602.318485 221.272 
L 602.318485 41.856 
" clip-path="url(#p848cb8e4de)" style="fill: none; stroke: #b0b0b0; stroke-opacity: 0.25; stroke-width: 0.8; stroke-linecap: square"/>
     </g>
     <g id="line2d_12">
      <g>
       <use xlink:href="#m7e5ac6fcf7" x="602.318485" y="221.272" style="stroke: #000000; stroke-width: 0.8"/>
      </g>
     </g>
     <g id="text_6">
      <!-- 10 -->
      <g transform="translate(595.955985 235.870437) scale(0.1 -0.1)">
       <defs>
        <path id="DejaVuSans-31" d="M 794 531 
L 1825 531 
L 1825 4091 
L 703 3866 
L 703 4441 
L 1819 4666 
L 2450 4666 
L 2450 531 
L 3481 531 
L 3481 0 
L 794 0 
L 794 531 
z
" transform="scale(0.015625)"/>
       </defs>
       <use xlink:href="#DejaVuSans-31"/>
       <use xlink:href="#DejaVuSans-30" transform="translate(63.623047 0)"/>
      </g>
     </g>
    </g>
    <g id="text_7">
     <!-- t [arb.] -->
     <g transform="translate(324.936762 249.548563) scale(0.1 -0.1)">
      <defs>
       <path id="DejaVuSans-74" d="M 1172 4494 
L 1172 3500 
L 2356 3500 
L 2356 3053 
L 1172 3053 
L 1172 1153 
Q 1172 725 1289 603 
Q 1406 481 1766 481 
L 2356 481 
L 2356 0 
L 1766 0 
Q 1100 0 847 248 
Q 594 497 594 1153 
L 594 3053 
L 172 3053 
L 172 3500 
L 594 3500 
L 594 4494 
L 1172 4494 
z
" transform="scale(0.015625)"/>
       <path id="DejaVuSans-20" transform="scale(0.015625)"/>
       <path id="DejaVuSans-5b" d="M 550 4863 
L 1875 4863 
L 1875 4416 
L 1125 4416 
L 1125 -397 
L 1875 -397 
L 1875 -844 
L 550 -844 
L 550 4863 
z
" transform="scale(0.015625)"/>
       <path id="DejaVuSans-61" d="M 2194 1759 
Q 1497 1759 1228 1600 
Q 959 1441 959 1056 
Q 959 750 1161 570 
Q 1363 391 1709 391 
Q 2188 391 2477 730 
Q 2766 1069 2766 1631 
L 2766 1759 
L 2194 1759 
z
M 3341 1997 
L 3341 0 
L 2766 0 
L 2766 531 
Q 2569 213 2275 61 
Q 1981 -91 1556 -91 
Q 1019 -91 701 211 
Q 384 513 384 1019 
Q 384 1609 779 1909 
Q 1175 2209 1959 2209 
L 2766 2209 
L 2766 2266 
Q 2766 2663 2505 2880 
Q 2244 3097 1772 3097 
Q 1472 3097 1187 3025 
Q 903 2953 641 2809 
L 641 3341 
Q 956 3463 1253 3523 
Q 1550 3584 1831 3584 
Q 2591 3584 2966 3190 
Q 3341 2797 3341 1997 
z
" transform="scale(0.015625)"/>
       <path id="DejaVuSans-72" d="M 2631 2963 
Q 2534 3019 2420 3045 
Q 2306 3072 2169 3072 
Q 1681 3072 1420 2755 
Q 1159 2438 1159 1844 
L 1159 0 
L 581 0 
L 581 3500 
L 1159 3500 
L 1159 2956 
Q 1341 3275 1631 3429 
Q 1922 3584 2338 3584 
Q 2397 3584 2469 3576 
Q 2541 3569 2628 3553 
L 2631 2963 
z
" transform="scale(0.015625)"/>
       <path id="DejaVuSans-62" d="M 3116 1747 
Q 3116 2381 2855 2742 
Q 2594 3103 2138 3103 
Q 1681 3103 1420 2742 
Q 1159 2381 1159 1747 
Q 1159 1113 1420 752 
Q 1681 391 2138 391 
Q 2594 391 2855 752 
Q 3116 1113 3116 1747 
z
M 1159 2969 
Q 1341 3281 1617 3432 
Q 1894 3584 2278 3584 
Q 2916 3584 3314 3078 
Q 3713 2572 3713 1747 
Q 3713 922 3314 415 
Q 2916 -91 2278 -91 
Q 1894 -91 1617 61 
Q 1341 213 1159 525 
L 1159 0 
L 581 0 
L 581 4863 
L 1159 4863 
L 1159 2969 
z
" transform="scale(0.015625)"/>
       <path id="DejaVuSans-2e" d="M 684 794 
L 1344 794 
L 1344 0 
L 684 0 
L 684 794 
z
" transform="scale(0.015625)"/>
       <path id="DejaVuSans-5d" d="M 1947 4863 
L 1947 -844 
L 622 -844 
L 622 -397 
L 1369 -397 
L 1369 4416 
L 622 4416 
L 622 4863 
L 1947 4863 
z
" transform="scale(0.015625)"/>
      </defs>
      <use xlink:href="#DejaVuSans-74"/>
      <use xlink:href="#DejaVuSans-20" transform="translate(39.208984 0)"/>
      <use xlink:href="#DejaVuSans-5b" transform="translate(70.996094 0)"/>
      <use xlink:href="#DejaVuSans-61" transform="translate(110.009766 0)"/>
      <use xlink:href="#DejaVuSans-72" transform="translate(171.289062 0)"/>
      <use xlink:href="#DejaVuSans-62" transform="translate(212.402344 0)"/>
      <use xlink:href="#DejaVuSans-2e" transform="translate(275.878906 0)"/>
      <use xlink:href="#DejaVuSans-5d" transform="translate(307.666016 0)"/>
     </g>
    </g>
   </g>
   <g id="matplotlib.axis_2">
    <g id="ytick_1">
     <g id="line2d_13">
      <path d="M 56.357054 196.063844 
L 628.183658 196.063844 
" clip-path="url(#p848cb8e4de)" style="fill: none; stroke: #b0b0b0; stroke-opacity: 0.25; stroke-width: 0.8; stroke-linecap: square"/>
     </g>
     <g id="line2d_14">
      <defs>
       <path id="m9689094c87" d="M 0 0 
L -3.5 0 
" style="stroke: #000000; stroke-width: 0.8"/>
      </defs>
      <g>
       <use xlink:href="#m9689094c87" x="56.357054" y="196.063844" style="stroke: #000000; stroke-width: 0.8"/>
      </g>
     </g>
     <g id="text_8">
      <!-- −1.0 -->
      <g transform="translate(25.074241 199.863062) scale(0.1 -0.1)">
       <defs>
        <path id="DejaVuSans-2212" d="M 678 2272 
L 4684 2272 
L 4684 1741 
L 678 1741 
L 678 2272 
z
" transform="scale(0.015625)"/>
       </defs>
       <use xlink:href="#DejaVuSans-2212"/>
       <use xlink:href="#DejaVuSans-31" transform="translate(83.789062 0)"/>
       <use xlink:href="#DejaVuSans-2e" transform="translate(147.412109 0)"/>
       <use xlink:href="#DejaVuSans-30" transform="translate(179.199219 0)"/>
      </g>
     </g>
    </g>
    <g id="ytick_2">
     <g id="line2d_15">
      <path d="M 56.357054 163.608527 
L 628.183658 163.608527 
" clip-path="url(#p848cb8e4de)" style="fill: none; stroke: #b0b0b0; stroke-opacity: 0.25; stroke-width: 0.8; stroke-linecap: square"/>
     </g>
     <g id="line2d_16">
      <g>
       <use xlink:href="#m9689094c87" x="56.357054" y="163.608527" style="stroke: #000000; stroke-width: 0.8"/>
      </g>
     </g>
     <g id="text_9">
      <!-- −0.5 -->
      <g transform="translate(25.074241 167.407745) scale(0.1 -0.1)">
       <defs>
        <path id="DejaVuSans-35" d="M 691 4666 
L 3169 4666 
L 3169 4134 
L 1269 4134 
L 1269 2991 
Q 1406 3038 1543 3061 
Q 1681 3084 1819 3084 
Q 2600 3084 3056 2656 
Q 3513 2228 3513 1497 
Q 3513 744 3044 326 
Q 2575 -91 1722 -91 
Q 1428 -91 1123 -41 
Q 819 9 494 109 
L 494 744 
Q 775 591 1075 516 
Q 1375 441 1709 441 
Q 2250 441 2565 725 
Q 2881 1009 2881 1497 
Q 2881 1984 2565 2268 
Q 2250 2553 1709 2553 
Q 1456 2553 1204 2497 
Q 953 2441 691 2322 
L 691 4666 
z
" transform="scale(0.015625)"/>
       </defs>
       <use xlink:href="#DejaVuSans-2212"/>
       <use xlink:href="#DejaVuSans-30" transform="translate(83.789062 0)"/>
       <use xlink:href="#DejaVuSans-2e" transform="translate(147.412109 0)"/>
       <use xlink:href="#DejaVuSans-35" transform="translate(179.199219 0)"/>
      </g>
     </g>
    </g>
    <g id="ytick_3">
     <g id="line2d_17">
      <path d="M 56.357054 131.153209 
L 628.183658 131.153209 
" clip-path="url(#p848cb8e4de)" style="fill: none; stroke: #b0b0b0; stroke-opacity: 0.25; stroke-width: 0.8; stroke-linecap: square"/>
     </g>
     <g id="line2d_18">
      <g>
       <use xlink:href="#m9689094c87" x="56.357054" y="131.153209" style="stroke: #000000; stroke-width: 0.8"/>
      </g>
     </g>
     <g id="text_10">
      <!-- 0.0 -->
      <g transform="translate(33.453929 134.952428) scale(0.1 -0.1)">
       <use xlink:href="#DejaVuSans-30"/>
       <use xlink:href="#DejaVuSans-2e" transform="translate(63.623047 0)"/>
       <use xlink:href="#DejaVuSans-30" transform="translate(95.410156 0)"/>
      </g>
     </g>
    </g>
    <g id="ytick_4">
     <g id="line2d_19">
      <path d="M 56.357054 98.697892 
L 628.183658 98.697892 
" clip-path="url(#p848cb8e4de)" style="fill: none; stroke: #b0b0b0; stroke-opacity: 0.25; stroke-width: 0.8; stroke-linecap: square"/>
     </g>
     <g id="line2d_20">
      <g>
       <use xlink:href="#m9689094c87" x="56.357054" y="98.697892" style="stroke: #000000; stroke-width: 0.8"/>
      </g>
     </g>
     <g id="text_11">
      <!-- 0.5 -->
      <g transform="translate(33.453929 102.497111) scale(0.1 -0.1)">
       <use xlink:href="#DejaVuSans-30"/>
       <use xlink:href="#DejaVuSans-2e" transform="translate(63.623047 0)"/>
       <use xlink:href="#DejaVuSans-35" transform="translate(95.410156 0)"/>
      </g>
     </g>
    </g>
    <g id="ytick_5">
     <g id="line2d_21">
      <path d="M 56.357054 66.242575 
L 628.183658 66.242575 
" clip-path="url(#p848cb8e4de)" style="fill: none; stroke: #b0b0b0; stroke-opacity: 0.25; stroke-width: 0.8; stroke-linecap: square"/>
     </g>
     <g id="line2d_22">
      <g>
       <use xlink:href="#m9689094c87" x="56.357054" y="66.242575" style="stroke: #000000; stroke-width: 0.8"/>
      </g>
     </g>
     <g id="text_12">
      <!-- 1.0 -->
      <g transform="translate(33.453929 70.041794) scale(0.1 -0.1)">
       <use xlink:href="#DejaVuSans-31"/>
       <use xlink:href="#DejaVuSans-2e" transform="translate(63.623047 0)"/>
       <use xlink:href="#DejaVuSans-30" transform="translate(95.410156 0)"/>
      </g>
     </g>
    </g>
    <g id="text_13">
     <!-- [arb.] -->
     <g transform="translate(18.994554 145.348375) rotate(-90) scale(0.1 -0.1)">
      <use xlink:href="#DejaVuSans-5b"/>
      <use xlink:href="#DejaVuSans-61" transform="translate(39.013672 0)"/>
      <use xlink:href="#DejaVuSans-72" transform="translate(100.292969 0)"/>
      <use xlink:href="#DejaVuSans-62" transform="translate(141.40625 0)"/>
      <use xlink:href="#DejaVuSans-2e" transform="translate(204.882812 0)"/>
      <use xlink:href="#DejaVuSans-5d" transform="translate(236.669922 0)"/>
     </g>
    </g>
   </g>
   <g id="line2d_23">
    <path d="M 82.349172 131.153209 
L 85.015031 94.221322 
L 86.411433 77.645506 
L 87.553943 66.469793 
L 88.442563 59.585727 
L 89.204236 55.09015 
L 89.838965 52.398635 
L 90.346747 50.961234 
L 90.85453 50.173066 
L 91.235367 50.012038 
L 91.489258 50.110057 
L 91.870095 50.564647 
L 92.250932 51.386345 
L 92.758714 53.046292 
L 93.393442 56.008408 
L 94.155116 60.813087 
L 95.043736 68.029166 
L 96.059301 78.177659 
L 97.328757 93.227021 
L 99.105996 117.319448 
L 103.168256 173.477833 
L 104.564658 189.149136 
L 105.580223 198.372681 
L 106.468843 204.669723 
L 107.230516 208.623142 
L 107.865244 210.842865 
L 108.373027 211.894027 
L 108.753864 212.25369 
L 109.007755 212.288253 
L 109.261646 212.158515 
L 109.642483 211.656511 
L 110.150266 210.417355 
L 110.658048 208.536478 
L 111.292777 205.306643 
L 112.05445 200.197535 
L 112.94307 192.656464 
L 114.08558 180.753786 
L 115.481982 163.508806 
L 117.513113 135.218692 
L 120.559808 92.971135 
L 121.95621 76.593365 
L 123.09872 65.628066 
L 123.98734 58.931936 
L 124.749014 54.610519 
L 125.383742 52.070945 
L 125.891524 50.758175 
L 126.272361 50.200351 
L 126.653198 50.011296 
L 126.907089 50.090624 
L 127.287926 50.517264 
L 127.668763 51.311228 
L 128.176546 52.934749 
L 128.811274 55.852636 
L 129.572948 60.60689 
L 130.461567 67.768943 
L 131.477132 77.863651 
L 132.746589 92.860227 
L 134.523827 116.910245 
L 138.586088 173.122808 
L 139.98249 188.857804 
L 140.998055 198.139092 
L 141.886674 204.492922 
L 142.648348 208.498557 
L 143.283076 210.763567 
L 143.790859 211.851708 
L 144.171696 212.239348 
L 144.425587 212.292605 
L 144.679478 212.181553 
L 145.060315 211.707479 
L 145.441152 210.866453 
L 145.948934 209.181131 
L 146.583663 206.188219 
L 147.345336 201.34845 
L 148.233956 194.094808 
L 149.249521 183.908966 
L 150.518977 168.823027 
L 152.296216 144.7014 
L 156.231531 90.146694 
L 157.627933 74.241958 
L 158.770443 63.77189 
L 159.659063 57.514546 
L 160.420737 53.5976 
L 161.055465 51.409493 
L 161.563247 50.384134 
L 161.944084 50.043986 
L 162.197975 50.02246 
L 162.451867 50.165227 
L 162.832704 50.686699 
L 163.340486 51.951538 
L 163.848269 53.857592 
L 164.482997 57.117876 
L 165.244671 62.26152 
L 166.13329 69.83933 
L 167.275801 81.78224 
L 168.672203 99.063513 
L 170.703333 127.377113 
L 173.750028 169.590684 
L 175.14643 185.927157 
L 176.288941 196.848819 
L 177.17756 203.506091 
L 177.939234 207.791569 
L 178.573962 210.299833 
L 179.081745 211.586952 
L 179.462581 212.125319 
L 179.843418 212.29483 
L 180.09731 212.202468 
L 180.478147 211.756336 
L 180.858983 210.943029 
L 181.366766 209.294102 
L 182.001494 206.345365 
L 182.763168 201.555934 
L 183.651787 194.356186 
L 184.667352 184.223944 
L 185.936809 169.190516 
L 187.714048 145.110858 
L 191.776308 88.93592 
L 193.17271 73.245297 
L 194.188275 64.00425 
L 195.076894 57.690003 
L 195.838568 53.720769 
L 196.473296 51.487334 
L 196.981079 50.424977 
L 197.361916 50.056845 
L 197.615807 50.016625 
L 197.869698 50.140707 
L 198.250535 50.634259 
L 198.631372 51.494603 
L 199.139155 53.205279 
L 199.773883 56.228949 
L 200.535557 61.103746 
L 201.424176 68.394859 
L 202.439741 78.617919 
L 203.709197 93.740242 
L 205.486436 117.890762 
L 209.421751 172.409467 
L 210.818153 188.27061 
L 211.960664 198.695519 
L 212.849283 204.913085 
L 213.610957 208.793507 
L 214.245685 210.949971 
L 214.753467 211.949513 
L 215.134304 212.270142 
L 215.388196 212.27863 
L 215.642087 212.122837 
L 216.022924 211.581902 
L 216.530706 210.291397 
L 217.038489 208.360191 
L 217.673217 205.069498 
L 218.434891 199.891384 
L 219.32351 192.276931 
L 220.466021 180.293942 
L 221.862423 162.976597 
L 224.020499 132.814971 
L 226.813303 94.075388 
L 228.209705 77.522342 
L 229.352215 66.37092 
L 230.240835 59.508598 
L 231.002508 55.033202 
L 231.637237 52.359312 
L 232.145019 50.936379 
L 232.652802 50.162881 
L 233.033639 50.012916 
L 233.28753 50.118311 
L 233.668367 50.58393 
L 234.049204 51.416569 
L 234.556986 53.09088 
L 235.191714 56.070431 
L 235.953388 60.894978 
L 236.842008 68.132329 
L 237.857573 78.301976 
L 239.127029 93.372064 
L 240.904268 117.481056 
L 244.966528 173.617651 
L 246.36293 189.263702 
L 247.378495 198.46439 
L 248.267115 204.738973 
L 249.028788 208.671755 
L 249.663517 210.873588 
L 250.171299 211.910147 
L 250.552136 212.258765 
L 250.806027 212.285949 
L 251.059918 212.148837 
L 251.440755 211.635814 
L 251.948538 210.38212 
L 252.45632 208.48699 
L 253.091049 205.239916 
L 253.852722 200.111254 
L 254.741342 192.549377 
L 255.883853 180.623909 
L 257.280254 163.358361 
L 259.311385 135.05491 
L 262.35808 92.826522 
L 263.754482 76.4721 
L 264.896992 65.531482 
L 265.785612 58.857335 
L 266.547286 54.556252 
L 267.182014 52.034395 
L 267.689796 50.736141 
L 268.070633 50.189329 
L 268.45147 50.011335 
L 268.705361 50.09804 
L 269.086198 50.535713 
L 269.467035 51.340626 
L 269.974818 52.978529 
L 270.609546 55.913881 
L 271.37122 60.688052 
L 272.259839 67.871451 
L 273.275404 77.987419 
L 274.544861 93.004876 
L 276.322099 117.071707 
L 280.38436 173.263063 
L 281.780762 188.972969 
L 282.796327 198.231496 
L 283.684946 204.562933 
L 284.44662 208.547972 
L 285.081348 210.795114 
L 285.589131 211.868664 
L 285.969968 212.245262 
L 286.223859 212.291141 
L 286.47775 212.172714 
L 286.858587 211.687615 
L 287.239424 210.835654 
L 287.747206 209.135979 
L 288.381935 206.125654 
L 289.143608 201.266052 
L 290.032228 193.991191 
L 291.047793 183.784268 
L 292.317249 168.677713 
L 294.094488 144.539695 
L 298.029803 90.005279 
L 299.426205 74.125191 
L 300.568715 63.680666 
L 301.457335 57.445826 
L 302.219009 53.549546 
L 302.853737 51.379345 
L 303.361519 50.368597 
L 303.742356 50.039495 
L 303.996247 50.025349 
L 304.250139 50.175489 
L 304.630976 50.707978 
L 305.138758 51.987345 
L 305.646541 53.907638 
L 306.281269 57.185138 
L 307.042943 62.348299 
L 307.931562 69.946861 
L 309.074073 81.912474 
L 310.470475 99.21419 
L 312.501605 127.540923 
L 315.421354 168.119138 
L 316.817756 184.68965 
L 317.960267 195.859704 
L 318.848886 202.738702 
L 319.61056 207.229576 
L 320.245288 209.916981 
L 320.753071 211.35101 
L 321.260854 212.135757 
L 321.64169 212.294206 
L 321.895582 212.194467 
L 322.276419 211.737305 
L 322.657255 210.913055 
L 323.165038 209.249759 
L 323.799766 206.283577 
L 324.56144 201.474263 
L 325.450059 194.253221 
L 326.465624 184.099792 
L 327.735081 169.045592 
L 329.51232 144.949294 
L 333.57458 88.795969 
L 334.970982 73.130549 
L 335.986547 63.91233 
L 336.875166 57.620522 
L 337.63684 53.671913 
L 338.271568 51.456362 
L 338.779351 50.408604 
L 339.160188 50.051516 
L 339.414079 50.018674 
L 339.66797 50.150131 
L 340.048807 50.654705 
L 340.55659 51.89725 
L 341.064372 53.781452 
L 341.6991 57.015307 
L 342.460774 62.128976 
L 343.349394 69.674902 
L 344.491904 81.582898 
L 345.888306 98.83268 
L 347.919436 127.125914 
L 350.966132 169.369017 
L 352.362534 185.741349 
L 353.505044 196.700897 
L 354.393664 203.391904 
L 355.155338 207.708582 
L 355.790066 210.244025 
L 356.297848 211.553411 
L 356.678685 212.108667 
L 357.059522 212.295144 
L 357.313413 212.214095 
L 357.69425 211.784883 
L 358.075087 210.988365 
L 358.58287 209.36149 
L 359.217598 206.43953 
L 359.979272 201.68063 
L 360.867891 194.513598 
L 361.883456 184.413929 
L 363.152912 169.412478 
L 364.930151 145.358532 
L 368.992412 89.150892 
L 370.388813 73.421741 
L 371.404379 64.145757 
L 372.292998 57.797146 
L 373.054672 53.796312 
L 373.6894 51.535467 
L 374.197182 50.450728 
L 374.578019 50.065663 
L 374.831911 50.014126 
L 375.085802 50.126897 
L 375.466639 50.603542 
L 375.847476 51.447118 
L 376.355258 53.135787 
L 376.989986 56.132761 
L 377.75166 60.977156 
L 378.64028 68.235749 
L 379.655845 78.426509 
L 380.925301 93.517261 
L 382.70254 117.642719 
L 386.637854 172.192713 
L 388.034256 188.091708 
L 389.176767 198.555824 
L 390.065387 204.807923 
L 390.82706 208.720052 
L 391.461789 210.903985 
L 391.969571 211.925937 
L 392.350408 212.26351 
L 392.604299 212.283315 
L 392.858191 212.138829 
L 393.239027 211.614787 
L 393.74681 210.346561 
L 394.254592 208.437186 
L 394.889321 205.172887 
L 395.650994 200.02469 
L 396.539614 192.442038 
L 397.682125 180.49383 
L 399.078527 163.207785 
L 401.109657 134.891112 
L 404.156352 92.682066 
L 405.552754 76.351059 
L 406.695264 65.435166 
L 407.583884 58.783029 
L 408.345558 54.502298 
L 408.980286 51.998168 
L 409.488068 50.714436 
L 409.868905 50.178637 
L 410.249742 50.011705 
L 410.503633 50.105787 
L 410.88447 50.554491 
L 411.265307 51.37035 
L 411.77309 53.022628 
L 412.407818 55.975434 
L 413.169492 60.769503 
L 414.058111 67.974218 
L 415.073676 78.111404 
L 416.343133 93.149681 
L 418.120371 117.233228 
L 422.182632 173.403146 
L 423.579034 189.087899 
L 424.594599 198.323626 
L 425.483218 204.632643 
L 426.244892 208.59707 
L 426.87962 210.826336 
L 427.387403 211.885289 
L 427.76824 212.250846 
L 428.022131 212.289346 
L 428.276022 212.163544 
L 428.656859 211.667422 
L 429.037696 210.80453 
L 429.545478 209.09051 
L 430.180207 206.062784 
L 430.94188 201.183368 
L 431.8305 193.887317 
L 432.846065 183.659355 
L 434.115521 168.532245 
L 435.89276 144.377935 
L 439.828075 89.864032 
L 441.224477 74.008658 
L 442.366987 63.589718 
L 443.255607 57.377408 
L 444.017281 53.50181 
L 444.652009 51.349523 
L 445.159791 50.35339 
L 445.540628 50.035336 
L 445.794519 50.028569 
L 446.048411 50.186081 
L 446.429248 50.729584 
L 446.93703 52.023475 
L 447.444813 53.957999 
L 448.079541 57.252701 
L 448.841215 62.435359 
L 449.729834 70.054641 
L 450.872345 82.042908 
L 452.268747 99.364997 
L 454.426822 129.529675 
L 457.219626 168.265037 
L 458.616028 184.812764 
L 459.758539 195.958515 
L 460.647159 202.815762 
L 461.408832 207.286451 
L 462.04356 209.95623 
L 462.551343 211.375788 
L 463.059126 212.145865 
L 463.439962 212.293251 
L 463.693854 212.186135 
L 464.074691 211.717945 
L 464.455527 210.882756 
L 464.96331 209.205096 
L 465.598038 206.221482 
L 466.359712 201.392305 
L 467.248331 194.149999 
L 468.263896 183.975425 
L 469.533353 168.900514 
L 471.310592 144.787674 
L 475.372852 88.656191 
L 476.769254 73.016038 
L 477.784819 63.820685 
L 478.673438 57.551342 
L 479.435112 53.623374 
L 480.06984 51.425715 
L 480.577623 50.392561 
L 480.95846 50.046518 
L 481.212351 50.021054 
L 481.466242 50.159886 
L 481.847079 50.675479 
L 482.354862 51.932561 
L 482.862644 53.831013 
L 483.497372 57.082105 
L 484.259046 62.215324 
L 485.147666 69.782048 
L 486.290176 81.712822 
L 487.686578 98.983156 
L 489.717708 127.2897 
L 492.764404 169.513593 
L 494.160806 185.862562 
L 495.303316 196.797419 
L 496.191936 203.466437 
L 496.95361 207.762775 
L 497.588338 210.2805 
L 498.09612 211.575368 
L 498.476957 212.119613 
L 498.857794 212.295028 
L 499.111685 212.206602 
L 499.492522 211.766357 
L 499.873359 210.958892 
L 500.381142 209.317636 
L 501.01587 206.378213 
L 501.777544 201.599401 
L 502.666163 194.411029 
L 503.681728 184.29011 
L 504.951184 169.267793 
L 506.728423 145.197055 
L 510.790684 89.010677 
L 512.187085 73.30663 
L 513.202651 64.053417 
L 514.09127 57.727205 
L 514.852944 53.746971 
L 515.487672 51.503996 
L 515.995454 50.433849 
L 516.376291 50.059825 
L 516.630183 50.015667 
L 516.884074 50.135813 
L 517.264911 50.623483 
L 517.645748 51.477993 
L 518.15353 53.181013 
L 518.788258 56.195397 
L 519.549932 61.059621 
L 520.438552 68.339425 
L 521.454117 78.551258 
L 522.723573 93.662611 
L 524.500812 117.804437 
L 528.436127 172.334089 
L 529.832528 188.20842 
L 530.975039 198.646984 
L 531.863659 204.876572 
L 532.625332 208.768032 
L 533.260061 210.934056 
L 533.767843 211.941397 
L 534.14868 212.267923 
L 534.402571 212.280349 
L 534.656463 212.12849 
L 535.037299 211.593433 
L 535.545082 210.310679 
L 536.052864 208.387067 
L 536.687593 205.105555 
L 537.449266 199.937845 
L 538.337886 192.33445 
L 539.480397 180.36355 
L 540.876799 163.057077 
L 543.034874 132.902462 
L 545.827678 94.153249 
L 547.22408 77.588043 
L 548.366591 66.423652 
L 549.25521 59.549722 
L 550.016884 55.063554 
L 550.651612 52.380257 
L 551.159395 50.949603 
L 551.667177 50.168275 
L 552.048014 50.012406 
L 552.301906 50.113865 
L 552.682742 50.573598 
L 553.063579 51.400399 
L 553.571362 53.067046 
L 554.20609 56.037293 
L 554.967764 60.85124 
L 555.856383 68.077243 
L 556.871948 78.235606 
L 558.141405 93.294641 
L 559.918643 117.394805 
L 563.980904 173.543057 
L 565.377306 189.202591 
L 566.392871 198.415482 
L 567.28149 204.702054 
L 568.043164 208.645852 
L 568.677892 210.857232 
L 569.185675 211.901585 
L 569.566512 212.256098 
L 569.820403 212.28722 
L 570.074294 212.154043 
L 570.455131 211.6469 
L 570.962914 210.400964 
L 571.470696 208.513439 
L 572.105424 205.275564 
L 572.867098 200.157334 
L 573.755717 192.606557 
L 574.898228 180.693245 
L 576.29463 163.438665 
L 578.32576 135.142316 
L 581.372455 92.903677 
L 582.768857 76.536787 
L 583.911368 65.582992 
L 584.799988 58.89711 
L 585.561661 54.585173 
L 586.19639 52.05386 
L 586.704172 50.747859 
L 587.085009 50.19517 
L 587.465846 50.011273 
L 587.719737 50.094042 
L 588.100574 50.525827 
L 588.481411 51.324897 
L 588.989193 52.955126 
L 589.623922 55.881159 
L 590.385595 60.644703 
L 591.274215 67.816714 
L 592.28978 77.921342 
L 593.559236 92.927663 
L 595.336475 116.985533 
L 599.398735 173.188236 
L 600.795137 188.911539 
L 601.810702 198.182217 
L 602.191539 201.114177 
L 602.191539 201.114177 
" clip-path="url(#p848cb8e4de)" style="fill: none; stroke: #1f77b4; stroke-width: 1.5; stroke-linecap: square"/>
   </g>
   <g id="line2d_24">
    <path d="M 82.349172 131.153209 
L 85.015031 94.322124 
L 86.411433 77.869963 
L 87.553943 66.82527 
L 88.442563 60.058 
L 89.204236 55.67049 
L 89.838965 53.073127 
L 90.346747 51.712865 
L 90.727584 51.118935 
L 91.108421 50.893534 
L 91.362312 50.94858 
L 91.743149 51.338838 
L 92.123986 52.096615 
L 92.631769 53.672471 
L 93.266497 56.532247 
L 94.02817 61.219872 
L 94.91679 68.309967 
L 95.932355 78.332179 
L 97.201811 93.256044 
L 98.97905 117.243777 
L 103.168256 175.064164 
L 104.437712 189.317044 
L 105.580223 199.691191 
L 106.468843 205.864813 
L 107.230516 209.705332 
L 107.865244 211.827502 
L 108.373027 212.799228 
L 108.753864 213.098918 
L 109.007755 213.09346 
L 109.388592 212.777422 
L 109.769429 212.093365 
L 110.277212 210.614435 
L 110.91194 207.872499 
L 111.673613 203.319423 
L 112.562233 196.373707 
L 113.577798 186.495464 
L 114.847254 171.713143 
L 116.497548 149.625674 
L 121.06759 86.781479 
L 122.337047 72.885222 
L 123.352612 63.884278 
L 124.241231 57.805161 
L 125.002905 54.051436 
L 125.637633 52.004441 
L 126.145416 51.094017 
L 126.526253 50.840648 
L 126.780144 50.87703 
L 127.160981 51.23936 
L 127.541818 51.969403 
L 128.0496 53.5088 
L 128.684328 56.324253 
L 129.446002 60.961262 
L 130.334622 67.997012 
L 131.350187 77.96496 
L 132.619643 92.835293 
L 134.269936 114.990241 
L 138.713033 176.196778 
L 139.98249 190.250502 
L 140.998055 199.405964 
L 141.886674 205.636806 
L 142.648348 209.52983 
L 143.283076 211.697468 
L 143.790859 212.706278 
L 144.171696 213.033999 
L 144.425587 213.047261 
L 144.679478 212.896267 
L 145.060315 212.362556 
L 145.568097 211.081674 
L 146.07588 209.160002 
L 146.710608 205.880979 
L 147.472282 200.71629 
L 148.360901 193.116372 
L 149.503412 181.149684 
L 150.899814 163.84764 
L 152.930944 135.522138 
L 155.850694 94.948171 
L 157.247096 78.38015 
L 158.389606 67.212091 
L 159.278226 60.334513 
L 160.0399 55.844709 
L 160.674628 53.15806 
L 161.18241 51.724533 
L 161.690193 50.940184 
L 162.07103 50.781961 
L 162.324921 50.881814 
L 162.705758 51.339088 
L 163.086595 52.163378 
L 163.594377 53.826613 
L 164.229106 56.792522 
L 164.990779 61.601213 
L 165.879399 68.821109 
L 166.894964 78.972674 
L 168.16442 94.023733 
L 169.941659 118.11425 
L 174.003919 174.250155 
L 175.400321 189.909051 
L 176.415886 199.122617 
L 177.304506 205.41051 
L 178.06618 209.355932 
L 178.700908 211.568977 
L 179.20869 212.614841 
L 179.589527 212.970581 
L 179.843418 213.00256 
L 180.09731 212.870271 
L 180.478147 212.364507 
L 180.985929 211.120489 
L 181.493712 209.234951 
L 182.12844 205.999624 
L 182.890114 200.88449 
L 183.778733 193.33728 
L 184.921244 181.428303 
L 186.317646 164.178308 
L 188.348776 135.886476 
L 191.395471 93.648119 
L 192.791873 77.278417 
L 193.934384 66.320963 
L 194.823003 59.631444 
L 195.584677 55.315889 
L 196.219405 52.781242 
L 196.727188 51.472387 
L 197.108024 50.91746 
L 197.488861 50.731251 
L 197.742753 50.812441 
L 198.12359 51.241808 
L 198.504426 52.038407 
L 199.012209 53.665277 
L 199.646937 56.587035 
L 200.408611 61.345397 
L 201.29723 68.511383 
L 202.312795 78.609301 
L 203.582252 93.60775 
L 205.359491 117.656108 
L 209.421751 173.846739 
L 210.818153 189.569495 
L 211.833718 198.840917 
L 212.722337 205.18569 
L 213.484011 209.183401 
L 214.118739 211.441791 
L 214.626522 212.524678 
L 215.007359 212.908425 
L 215.26125 212.95912 
L 215.515141 212.845536 
L 215.895978 212.367731 
L 216.276815 211.523067 
L 216.784598 209.833066 
L 217.419326 206.834625 
L 218.181 201.988767 
L 219.069619 194.728891 
L 220.085184 184.537224 
L 221.35464 169.446156 
L 223.131879 145.321652 
L 227.067194 90.777836 
L 228.463596 74.881601 
L 229.606107 64.419651 
L 230.494726 58.169076 
L 231.2564 54.258087 
L 231.891128 52.074957 
L 232.39891 51.053536 
L 232.779747 50.716291 
L 233.033639 50.696668 
L 233.28753 50.841306 
L 233.668367 51.365518 
L 234.176149 52.633858 
L 234.683932 54.543212 
L 235.31866 57.807287 
L 236.080334 62.954916 
L 236.968953 70.536486 
L 238.111464 82.482638 
L 239.507866 99.765194 
L 241.538996 128.0751 
L 244.585691 170.271406 
L 245.982093 186.596141 
L 247.124604 197.506971 
L 248.013223 204.155316 
L 248.774897 208.432955 
L 249.409625 210.93465 
L 249.917408 212.216542 
L 250.298245 212.75103 
L 250.679082 212.916716 
L 250.932973 212.821839 
L 251.31381 212.372002 
L 251.694647 211.555084 
L 252.202429 209.90151 
L 252.837157 206.94728 
L 253.598831 202.151802 
L 254.487451 194.945865 
L 255.503016 184.807842 
L 256.772472 169.769338 
L 258.549711 145.686871 
L 262.611971 89.523695 
L 264.008373 73.84182 
L 265.023938 64.608099 
L 265.912558 58.300687 
L 266.674231 54.337471 
L 267.308959 52.109068 
L 267.816742 51.050694 
L 268.197579 50.685501 
L 268.45147 50.647208 
L 268.705361 50.773187 
L 269.086198 51.269516 
L 269.467035 52.132543 
L 269.974818 53.846627 
L 270.609546 56.874236 
L 271.37122 61.753215 
L 272.259839 69.048336 
L 273.275404 79.274682 
L 274.544861 94.39896 
L 276.322099 118.547927 
L 280.257414 173.045998 
L 281.653816 188.895213 
L 282.796327 199.309214 
L 283.684946 205.51785 
L 284.44662 209.390469 
L 285.081348 211.540423 
L 285.589131 212.534804 
L 285.969968 212.851614 
L 286.223859 212.85759 
L 286.47775 212.699316 
L 286.858587 212.154729 
L 287.36637 210.859508 
L 287.874152 208.92379 
L 288.50888 205.627795 
L 289.270554 200.443886 
L 290.159173 192.82357 
L 291.301684 180.834642 
L 292.698086 163.512728 
L 294.856162 133.350189 
L 297.648966 94.619931 
L 299.045368 78.075185 
L 300.187878 66.931827 
L 301.076498 60.076308 
L 301.838172 55.606951 
L 302.4729 52.938147 
L 302.980682 51.519264 
L 303.488465 50.74976 
L 303.869302 50.60273 
L 304.123193 50.710045 
L 304.50403 51.178477 
L 304.884867 52.013837 
L 305.392649 53.691607 
L 306.027378 56.675164 
L 306.789051 61.503976 
L 307.677671 68.745437 
L 308.693236 78.918489 
L 309.962692 93.990686 
L 311.739931 118.098344 
L 315.802191 174.213776 
L 317.198593 189.847877 
L 318.214158 199.038922 
L 319.102778 205.304652 
L 319.864452 209.229692 
L 320.49918 211.42506 
L 321.006962 212.456493 
L 321.387799 212.801317 
L 321.64169 212.826004 
L 321.895582 212.686427 
L 322.276419 212.169774 
L 322.784201 210.911391 
L 323.291984 209.011775 
L 323.926712 205.759428 
L 324.688386 200.625003 
L 325.577005 193.057296 
L 326.719516 181.125928 
L 328.115918 163.855852 
L 330.147048 135.551391 
L 333.193743 93.333253 
L 334.590145 76.987372 
L 335.732656 66.05498 
L 336.621275 59.387737 
L 337.382949 55.092766 
L 338.017677 52.576041 
L 338.52546 51.281866 
L 338.906296 50.738073 
L 339.287133 50.563047 
L 339.541025 50.651695 
L 339.921862 51.092215 
L 340.302698 51.899884 
L 340.810481 53.541294 
L 341.445209 56.480716 
L 342.206883 61.259231 
L 343.095502 68.446836 
L 344.111067 78.566324 
L 345.380524 93.586039 
L 347.157763 117.651746 
L 351.220023 173.822393 
L 352.616425 189.520487 
L 353.63199 198.76946 
L 354.520609 205.092115 
L 355.282283 209.069469 
L 355.917011 211.310191 
L 356.424794 212.378646 
L 356.805631 212.751474 
L 357.059522 212.79487 
L 357.313413 212.673992 
L 357.69425 212.185283 
L 358.075087 211.329807 
L 358.58287 209.625617 
L 359.217598 206.609967 
L 359.979272 201.744523 
L 360.867891 194.463717 
L 361.883456 184.2513 
L 363.152912 169.140031 
L 364.930151 144.999717 
L 368.865466 90.477463 
L 370.261868 74.606318 
L 371.404379 64.170267 
L 372.292998 57.942471 
L 373.054672 54.05238 
L 373.6894 51.887348 
L 374.197182 50.88069 
L 374.578019 50.554605 
L 374.831911 50.542437 
L 375.085802 50.694523 
L 375.466639 51.229864 
L 375.974421 52.512881 
L 376.482204 54.436622 
L 377.116932 57.718098 
L 377.878606 62.885464 
L 378.767225 70.488038 
L 379.909736 82.457217 
L 381.306138 99.760609 
L 383.464214 129.90861 
L 386.257018 168.64695 
L 387.65342 185.2063 
L 388.79593 196.36595 
L 389.68455 203.236328 
L 390.446223 207.719603 
L 391.080952 210.400625 
L 391.588734 211.829565 
L 392.096517 212.609282 
L 392.477354 212.764018 
L 392.731245 212.661841 
L 393.112082 212.201088 
L 393.492919 211.37334 
L 394.000701 209.705549 
L 394.635429 206.734067 
L 395.397103 201.918937 
L 396.285723 194.691976 
L 397.301288 184.533078 
L 398.570744 169.474191 
L 400.347983 145.375629 
L 404.410243 89.235296 
L 405.806645 73.579036 
L 406.82221 64.36844 
L 407.71083 58.083723 
L 408.472503 54.14135 
L 409.107232 51.931009 
L 409.615014 50.887377 
L 409.995851 50.533334 
L 410.249742 50.502489 
L 410.503633 50.635913 
L 410.88447 51.143369 
L 411.392253 52.389609 
L 411.900035 54.277302 
L 412.534764 57.515191 
L 413.296437 62.633138 
L 414.185057 70.183165 
L 415.327568 82.094846 
L 416.723969 99.346456 
L 418.7551 127.636786 
L 421.801795 169.863791 
L 423.198197 186.224909 
L 424.340707 197.174045 
L 425.229327 203.856449 
L 425.991001 208.16556 
L 426.625729 210.694659 
L 427.133511 211.998997 
L 427.514348 212.550507 
L 427.895185 212.733289 
L 428.149076 212.649814 
L 428.529913 212.217028 
L 428.91075 211.417029 
L 429.418533 209.785678 
L 430.053261 206.858439 
L 430.814935 202.093746 
L 431.703554 194.920817 
L 432.719119 184.815698 
L 433.988576 169.809582 
L 435.765814 145.753396 
L 439.828075 89.558829 
L 441.224477 73.838884 
L 442.240042 64.570565 
L 443.128661 58.229089 
L 443.890335 54.234532 
L 444.525063 51.978938 
L 445.032846 50.898357 
L 445.413683 50.516364 
L 445.667574 50.466843 
L 445.921465 50.5816 
L 446.302302 51.061156 
L 446.683139 51.90755 
L 447.190921 53.599807 
L 447.82565 56.600947 
L 448.587323 61.449797 
L 449.475943 68.71272 
L 450.491508 78.907135 
L 451.760964 94.000306 
L 453.538203 118.124859 
L 457.473518 172.655637 
L 458.86992 188.543193 
L 460.01243 198.996794 
L 460.90105 205.240264 
L 461.662724 209.144844 
L 462.297452 211.322476 
L 462.805234 212.339433 
L 463.186071 212.67331 
L 463.439962 212.690684 
L 463.693854 212.5438 
L 464.074691 212.016228 
L 464.582473 210.743446 
L 465.090256 208.82972 
L 465.724984 205.560315 
L 466.486658 200.406559 
L 467.375277 192.818316 
L 468.517788 180.864514 
L 469.91419 163.574318 
L 471.94532 135.257183 
L 474.992015 93.059197 
L 476.388417 76.737095 
L 477.530928 65.82972 
L 478.419547 59.184713 
L 479.181221 54.910283 
L 479.815949 52.411442 
L 480.323732 51.131914 
L 480.704569 50.599227 
L 481.085405 50.435354 
L 481.339297 50.53144 
L 481.720134 50.983083 
L 482.10097 51.801788 
L 482.608753 53.457694 
L 483.243481 56.414719 
L 484.005155 61.213308 
L 484.893774 68.422435 
L 485.909339 78.563373 
L 487.178796 93.604195 
L 488.956035 117.687017 
L 493.018295 173.837145 
L 494.414697 189.510406 
L 495.430262 198.736816 
L 496.318881 205.037261 
L 497.080555 208.994183 
L 497.715283 211.217181 
L 498.223066 212.271163 
L 498.603903 212.63304 
L 498.857794 212.66912 
L 499.111685 212.540929 
L 499.492522 212.04129 
L 500.000305 210.805357 
L 500.508087 208.927751 
L 501.142815 205.702033 
L 501.904489 200.597826 
L 502.793109 193.062292 
L 503.935619 181.166216 
L 505.332021 163.928101 
L 507.363151 135.644703 
L 510.409847 93.398083 
L 511.806249 77.016818 
L 512.948759 66.046922 
L 513.837379 59.346237 
L 514.599053 55.020312 
L 515.233781 52.476611 
L 515.741563 51.160328 
L 516.1224 50.599764 
L 516.503237 50.40789 
L 516.757128 50.485302 
L 517.137965 50.909018 
L 517.518802 51.700011 
L 518.026585 53.31952 
L 518.661313 56.23235 
L 519.422987 60.980551 
L 520.311606 68.135689 
L 521.327171 78.22288 
L 522.596627 93.210955 
L 524.373866 117.251408 
L 528.436127 173.455776 
L 529.832528 189.192751 
L 530.848094 198.476923 
L 531.736713 204.834175 
L 532.498387 208.843332 
L 533.133115 211.111635 
L 533.640897 212.202613 
L 534.021734 212.592479 
L 534.275626 212.647263 
L 534.529517 212.537767 
L 534.910354 212.066074 
L 535.291191 211.227474 
L 535.798973 209.545437 
L 536.433701 206.556671 
L 537.195375 201.721855 
L 538.083995 194.473839 
L 539.09956 184.294036 
L 540.369016 169.21474 
L 542.146255 145.100059 
L 546.081569 90.547794 
L 547.477971 74.639243 
L 548.620482 64.164343 
L 549.509102 57.902286 
L 550.270775 53.980719 
L 550.905504 51.788407 
L 551.413286 50.759487 
L 551.794123 50.416569 
L 552.048014 50.393157 
L 552.301906 50.534008 
L 552.682742 51.052562 
L 553.190525 52.313443 
L 553.698307 54.215492 
L 554.333036 57.470746 
L 555.094709 62.608396 
L 555.983329 70.179398 
L 557.12584 82.114082 
L 558.522242 99.386515 
L 560.553372 127.690548 
L 563.600067 169.898939 
L 564.996469 186.23697 
L 566.13898 197.161646 
L 567.027599 203.822242 
L 567.789273 208.111172 
L 568.424001 210.622685 
L 568.931783 211.912611 
L 569.31262 212.45319 
L 569.693457 212.624992 
L 569.947348 212.534194 
L 570.328185 212.090457 
L 570.709022 211.279591 
L 571.216805 209.633971 
L 571.851533 206.689407 
L 572.613207 201.904968 
L 573.501826 194.710896 
L 574.517391 184.584753 
L 575.786848 169.558053 
L 577.564086 145.485474 
L 581.626347 89.313061 
L 583.022749 73.618519 
L 584.038314 64.373184 
L 584.926933 58.05429 
L 585.688607 54.080488 
L 586.323335 51.842891 
L 586.831118 50.777004 
L 587.211955 50.406126 
L 587.465846 50.364033 
L 587.719737 50.486215 
L 588.100574 50.97687 
L 588.481411 51.834271 
L 588.989193 53.540976 
L 589.623922 56.559646 
L 590.385595 61.428468 
L 591.274215 68.712768 
L 592.28978 78.92844 
L 593.559236 94.042443 
L 595.336475 118.183684 
L 599.27179 172.694832 
L 600.668192 188.557983 
L 601.810702 198.986246 
L 602.191539 201.867094 
L 602.191539 201.867094 
" clip-path="url(#p848cb8e4de)" style="fill: none; stroke: #ff7f0e; stroke-width: 1.5; stroke-linecap: square"/>
   </g>
   <g id="patch_3">
    <path d="M 56.357054 221.272 
L 56.357054 41.856 
" style="fill: none; stroke: #000000; stroke-width: 0.8; stroke-linejoin: miter; stroke-linecap: square"/>
   </g>
   <g id="patch_4">
    <path d="M 628.183658 221.272 
L 628.183658 41.856 
" style="fill: none; stroke: #000000; stroke-width: 0.8; stroke-linejoin: miter; stroke-linecap: square"/>
   </g>
   <g id="patch_5">
    <path d="M 56.357054 221.272 
L 628.183658 221.272 
" style="fill: none; stroke: #000000; stroke-width: 0.8; stroke-linejoin: miter; stroke-linecap: square"/>
   </g>
   <g id="patch_6">
    <path d="M 56.357054 41.856 
L 628.183658 41.856 
" style="fill: none; stroke: #000000; stroke-width: 0.8; stroke-linejoin: miter; stroke-linecap: square"/>
   </g>
   <g id="text_14">
    <!-- Daily Useless RC (2026-03-18) | verdict: feral -->
    <g transform="translate(206.829731 22.021875) scale(0.12 -0.12)">
     <defs>
      <path id="DejaVuSans-44" d="M 1259 4147 
L 1259 519 
L 2022 519 
Q 2988 519 3436 956 
Q 3884 1394 3884 2338 
Q 3884 3275 3436 3711 
Q 2988 4147 2022 4147 
L 1259 4147 
z
M 628 4666 
L 1925 4666 
Q 3281 4666 3915 4102 
Q 4550 3538 4550 2338 
Q 4550 1131 3912 565 
Q 3275 0 1925 0 
L 628 0 
L 628 4666 
z
" transform="scale(0.015625)"/>
      <path id="DejaVuSans-69" d="M 603 3500 
L 1178 3500 
L 1178 0 
L 603 0 
L 603 3500 
z
M 603 4863 
L 1178 4863 
L 1178 4134 
L 603 4134 
L 603 4863 
z
" transform="scale(0.015625)"/>
      <path id="DejaVuSans-6c" d="M 603 4863 
L 1178 4863 
L 1178 0 
L 603 0 
L 603 4863 
z
" transform="scale(0.015625)"/>
      <path id="DejaVuSans-79" d="M 2059 -325 
Q 1816 -950 1584 -1140 
Q 1353 -1331 966 -1331 
L 506 -1331 
L 506 -850 
L 844 -850 
Q 1081 -850 1212 -737 
Q 1344 -625 1503 -206 
L 1606 56 
L 191 3500 
L 800 3500 
L 1894 763 
L 2988 3500 
L 3597 3500 
L 2059 -325 
z
" transform="scale(0.015625)"/>
      <path id="DejaVuSans-55" d="M 556 4666 
L 1191 4666 
L 1191 1831 
Q 1191 1081 1462 751 
Q 1734 422 2344 422 
Q 2950 422 3222 751 
Q 3494 1081 3494 1831 
L 3494 4666 
L 4128 4666 
L 4128 1753 
Q 4128 841 3676 375 
Q 3225 -91 2344 -91 
Q 1459 -91 1007 375 
Q 556 841 556 1753 
L 556 4666 
z
" transform="scale(0.015625)"/>
      <path id="DejaVuSans-73" d="M 2834 3397 
L 2834 2853 
Q 2591 2978 2328 3040 
Q 2066 3103 1784 3103 
Q 1356 3103 1142 2972 
Q 928 2841 928 2578 
Q 928 2378 1081 2264 
Q 1234 2150 1697 2047 
L 1894 2003 
Q 2506 1872 2764 1633 
Q 3022 1394 3022 966 
Q 3022 478 2636 193 
Q 2250 -91 1575 -91 
Q 1294 -91 989 -36 
Q 684 19 347 128 
L 347 722 
Q 666 556 975 473 
Q 1284 391 1588 391 
Q 1994 391 2212 530 
Q 2431 669 2431 922 
Q 2431 1156 2273 1281 
Q 2116 1406 1581 1522 
L 1381 1569 
Q 847 1681 609 1914 
Q 372 2147 372 2553 
Q 372 3047 722 3315 
Q 1072 3584 1716 3584 
Q 2034 3584 2315 3537 
Q 2597 3491 2834 3397 
z
" transform="scale(0.015625)"/>
      <path id="DejaVuSans-65" d="M 3597 1894 
L 3597 1613 
L 953 1613 
Q 991 1019 1311 708 
Q 1631 397 2203 397 
Q 2534 397 2845 478 
Q 3156 559 3463 722 
L 3463 178 
Q 3153 47 2828 -22 
Q 2503 -91 2169 -91 
Q 1331 -91 842 396 
Q 353 884 353 1716 
Q 353 2575 817 3079 
Q 1281 3584 2069 3584 
Q 2775 3584 3186 3129 
Q 3597 2675 3597 1894 
z
M 3022 2063 
Q 3016 2534 2758 2815 
Q 2500 3097 2075 3097 
Q 1594 3097 1305 2825 
Q 1016 2553 972 2059 
L 3022 2063 
z
" transform="scale(0.015625)"/>
      <path id="DejaVuSans-52" d="M 2841 2188 
Q 3044 2119 3236 1894 
Q 3428 1669 3622 1275 
L 4263 0 
L 3584 0 
L 2988 1197 
Q 2756 1666 2539 1819 
Q 2322 1972 1947 1972 
L 1259 1972 
L 1259 0 
L 628 0 
L 628 4666 
L 2053 4666 
Q 2853 4666 3247 4331 
Q 3641 3997 3641 3322 
Q 3641 2881 3436 2590 
Q 3231 2300 2841 2188 
z
M 1259 4147 
L 1259 2491 
L 2053 2491 
Q 2509 2491 2742 2702 
Q 2975 2913 2975 3322 
Q 2975 3731 2742 3939 
Q 2509 4147 2053 4147 
L 1259 4147 
z
" transform="scale(0.015625)"/>
      <path id="DejaVuSans-43" d="M 4122 4306 
L 4122 3641 
Q 3803 3938 3442 4084 
Q 3081 4231 2675 4231 
Q 1875 4231 1450 3742 
Q 1025 3253 1025 2328 
Q 1025 1406 1450 917 
Q 1875 428 2675 428 
Q 3081 428 3442 575 
Q 3803 722 4122 1019 
L 4122 359 
Q 3791 134 3420 21 
Q 3050 -91 2638 -91 
Q 1578 -91 968 557 
Q 359 1206 359 2328 
Q 359 3453 968 4101 
Q 1578 4750 2638 4750 
Q 3056 4750 3426 4639 
Q 3797 4528 4122 4306 
z
" transform="scale(0.015625)"/>
      <path id="DejaVuSans-28" d="M 1984 4856 
Q 1566 4138 1362 3434 
Q 1159 2731 1159 2009 
Q 1159 1288 1364 580 
Q 1569 -128 1984 -844 
L 1484 -844 
Q 1016 -109 783 600 
Q 550 1309 550 2009 
Q 550 2706 781 3412 
Q 1013 4119 1484 4856 
L 1984 4856 
z
" transform="scale(0.015625)"/>
      <path id="DejaVuSans-2d" d="M 313 2009 
L 1997 2009 
L 1997 1497 
L 313 1497 
L 313 2009 
z
" transform="scale(0.015625)"/>
      <path id="DejaVuSans-33" d="M 2597 2516 
Q 3050 2419 3304 2112 
Q 3559 1806 3559 1356 
Q 3559 666 3084 287 
Q 2609 -91 1734 -91 
Q 1441 -91 1130 -33 
Q 819 25 488 141 
L 488 750 
Q 750 597 1062 519 
Q 1375 441 1716 441 
Q 2309 441 2620 675 
Q 2931 909 2931 1356 
Q 2931 1769 2642 2001 
Q 2353 2234 1838 2234 
L 1294 2234 
L 1294 2753 
L 1863 2753 
Q 2328 2753 2575 2939 
Q 2822 3125 2822 3475 
Q 2822 3834 2567 4026 
Q 2313 4219 1838 4219 
Q 1578 4219 1281 4162 
Q 984 4106 628 3988 
L 628 4550 
Q 988 4650 1302 4700 
Q 1616 4750 1894 4750 
Q 2613 4750 3031 4423 
Q 3450 4097 3450 3541 
Q 3450 3153 3228 2886 
Q 3006 2619 2597 2516 
z
" transform="scale(0.015625)"/>
      <path id="DejaVuSans-29" d="M 513 4856 
L 1013 4856 
Q 1481 4119 1714 3412 
Q 1947 2706 1947 2009 
Q 1947 1309 1714 600 
Q 1481 -109 1013 -844 
L 513 -844 
Q 928 -128 1133 580 
Q 1338 1288 1338 2009 
Q 1338 2731 1133 3434 
Q 928 4138 513 4856 
z
" transform="scale(0.015625)"/>
      <path id="DejaVuSans-7c" d="M 1344 4891 
L 1344 -1509 
L 813 -1509 
L 813 4891 
L 1344 4891 
z
" transform="scale(0.015625)"/>
      <path id="DejaVuSans-76" d="M 191 3500 
L 800 3500 
L 1894 563 
L 2988 3500 
L 3597 3500 
L 2284 0 
L 1503 0 
L 191 3500 
z
" transform="scale(0.015625)"/>
      <path id="DejaVuSans-64" d="M 2906 2969 
L 2906 4863 
L 3481 4863 
L 3481 0 
L 2906 0 
L 2906 525 
Q 2725 213 2448 61 
Q 2172 -91 1784 -91 
Q 1150 -91 751 415 
Q 353 922 353 1747 
Q 353 2572 751 3078 
Q 1150 3584 1784 3584 
Q 2172 3584 2448 3432 
Q 2725 3281 2906 2969 
z
M 947 1747 
Q 947 1113 1208 752 
Q 1469 391 1925 391 
Q 2381 391 2643 752 
Q 2906 1113 2906 1747 
Q 2906 2381 2643 2742 
Q 2381 3103 1925 3103 
Q 1469 3103 1208 2742 
Q 947 2381 947 1747 
z
" transform="scale(0.015625)"/>
      <path id="DejaVuSans-63" d="M 3122 3366 
L 3122 2828 
Q 2878 2963 2633 3030 
Q 2388 3097 2138 3097 
Q 1578 3097 1268 2742 
Q 959 2388 959 1747 
Q 959 1106 1268 751 
Q 1578 397 2138 397 
Q 2388 397 2633 464 
Q 2878 531 3122 666 
L 3122 134 
Q 2881 22 2623 -34 
Q 2366 -91 2075 -91 
Q 1284 -91 818 406 
Q 353 903 353 1747 
Q 353 2603 823 3093 
Q 1294 3584 2113 3584 
Q 2378 3584 2631 3529 
Q 2884 3475 3122 3366 
z
" transform="scale(0.015625)"/>
      <path id="DejaVuSans-3a" d="M 750 794 
L 1409 794 
L 1409 0 
L 750 0 
L 750 794 
z
M 750 3309 
L 1409 3309 
L 1409 2516 
L 750 2516 
L 750 3309 
z
" transform="scale(0.015625)"/>
      <path id="DejaVuSans-66" d="M 2375 4863 
L 2375 4384 
L 1825 4384 
Q 1516 4384 1395 4259 
Q 1275 4134 1275 3809 
L 1275 3500 
L 2222 3500 
L 2222 3053 
L 1275 3053 
L 1275 0 
L 697 0 
L 697 3053 
L 147 3053 
L 147 3500 
L 697 3500 
L 697 3744 
Q 697 4328 969 4595 
Q 1241 4863 1831 4863 
L 2375 4863 
z
" transform="scale(0.015625)"/>
     </defs>
     <use xlink:href="#DejaVuSans-44"/>
     <use xlink:href="#DejaVuSans-61" transform="translate(77.001953 0)"/>
     <use xlink:href="#DejaVuSans-69" transform="translate(138.28125 0)"/>
     <use xlink:href="#DejaVuSans-6c" transform="translate(166.064453 0)"/>
     <use xlink:href="#DejaVuSans-79" transform="translate(193.847656 0)"/>
     <use xlink:href="#DejaVuSans-20" transform="translate(253.027344 0)"/>
     <use xlink:href="#DejaVuSans-55" transform="translate(284.814453 0)"/>
     <use xlink:href="#DejaVuSans-73" transform="translate(358.007812 0)"/>
     <use xlink:href="#DejaVuSans-65" transform="translate(410.107422 0)"/>
     <use xlink:href="#DejaVuSans-6c" transform="translate(471.630859 0)"/>
     <use xlink:href="#DejaVuSans-65" transform="translate(499.414062 0)"/>
     <use xlink:href="#DejaVuSans-73" transform="translate(560.9375 0)"/>
     <use xlink:href="#DejaVuSans-73" transform="translate(613.037109 0)"/>
     <use xlink:href="#DejaVuSans-20" transform="translate(665.136719 0)"/>
     <use xlink:href="#DejaVuSans-52" transform="translate(696.923828 0)"/>
     <use xlink:href="#DejaVuSans-43" transform="translate(761.40625 0)"/>
     <use xlink:href="#DejaVuSans-20" transform="translate(831.230469 0)"/>
     <use xlink:href="#DejaVuSans-28" transform="translate(863.017578 0)"/>
     <use xlink:href="#DejaVuSans-32" transform="translate(902.03125 0)"/>
     <use xlink:href="#DejaVuSans-30" transform="translate(965.654297 0)"/>
     <use xlink:href="#DejaVuSans-32" transform="translate(1029.277344 0)"/>
     <use xlink:href="#DejaVuSans-36" transform="translate(1092.900391 0)"/>
     <use xlink:href="#DejaVuSans-2d" transform="translate(1156.523438 0)"/>
     <use xlink:href="#DejaVuSans-30" transform="translate(1192.607422 0)"/>
     <use xlink:href="#DejaVuSans-33" transform="translate(1256.230469 0)"/>
     <use xlink:href="#DejaVuSans-2d" transform="translate(1319.853516 0)"/>
     <use xlink:href="#DejaVuSans-31" transform="translate(1355.9375 0)"/>
     <use xlink:href="#DejaVuSans-38" transform="translate(1419.560547 0)"/>
     <use xlink:href="#DejaVuSans-29" transform="translate(1483.183594 0)"/>
     <use xlink:href="#DejaVuSans-20" transform="translate(1522.197266 0)"/>
     <use xlink:href="#DejaVuSans-7c" transform="translate(1553.984375 0)"/>
     <use xlink:href="#DejaVuSans-20" transform="translate(1587.675781 0)"/>
     <use xlink:href="#DejaVuSans-76" transform="translate(1619.462891 0)"/>
     <use xlink:href="#DejaVuSans-65" transform="translate(1678.642578 0)"/>
     <use xlink:href="#DejaVuSans-72" transform="translate(1740.166016 0)"/>
     <use xlink:href="#DejaVuSans-64" transform="translate(1779.529297 0)"/>
     <use xlink:href="#DejaVuSans-69" transform="translate(1843.005859 0)"/>
     <use xlink:href="#DejaVuSans-63" transform="translate(1870.789062 0)"/>
     <use xlink:href="#DejaVuSans-74" transform="translate(1925.769531 0)"/>
     <use xlink:href="#DejaVuSans-3a" transform="translate(1964.978516 0)"/>
     <use xlink:href="#DejaVuSans-20" transform="translate(1998.669922 0)"/>
     <use xlink:href="#DejaVuSans-66" transform="translate(2030.457031 0)"/>
     <use xlink:href="#DejaVuSans-65" transform="translate(2065.662109 0)"/>
     <use xlink:href="#DejaVuSans-72" transform="translate(2127.185547 0)"/>
     <use xlink:href="#DejaVuSans-61" transform="translate(2168.298828 0)"/>
     <use xlink:href="#DejaVuSans-6c" transform="translate(2229.578125 0)"/>
    </g>
    <!-- Filter: high | Input: sine, sine (A=1.25, f=1.47 Hz) | R=2.00, C=5.00, τ=10.00 -->
    <g transform="translate(109.445043 35.856) scale(0.12 -0.12)">
     <defs>
      <path id="DejaVuSans-46" d="M 628 4666 
L 3309 4666 
L 3309 4134 
L 1259 4134 
L 1259 2759 
L 3109 2759 
L 3109 2228 
L 1259 2228 
L 1259 0 
L 628 0 
L 628 4666 
z
" transform="scale(0.015625)"/>
      <path id="DejaVuSans-68" d="M 3513 2113 
L 3513 0 
L 2938 0 
L 2938 2094 
Q 2938 2591 2744 2837 
Q 2550 3084 2163 3084 
Q 1697 3084 1428 2787 
Q 1159 2491 1159 1978 
L 1159 0 
L 581 0 
L 581 4863 
L 1159 4863 
L 1159 2956 
Q 1366 3272 1645 3428 
Q 1925 3584 2291 3584 
Q 2894 3584 3203 3211 
Q 3513 2838 3513 2113 
z
" transform="scale(0.015625)"/>
      <path id="DejaVuSans-67" d="M 2906 1791 
Q 2906 2416 2648 2759 
Q 2391 3103 1925 3103 
Q 1463 3103 1205 2759 
Q 947 2416 947 1791 
Q 947 1169 1205 825 
Q 1463 481 1925 481 
Q 2391 481 2648 825 
Q 2906 1169 2906 1791 
z
M 3481 434 
Q 3481 -459 3084 -895 
Q 2688 -1331 1869 -1331 
Q 1566 -1331 1297 -1286 
Q 1028 -1241 775 -1147 
L 775 -588 
Q 1028 -725 1275 -790 
Q 1522 -856 1778 -856 
Q 2344 -856 2625 -561 
Q 2906 -266 2906 331 
L 2906 616 
Q 2728 306 2450 153 
Q 2172 0 1784 0 
Q 1141 0 747 490 
Q 353 981 353 1791 
Q 353 2603 747 3093 
Q 1141 3584 1784 3584 
Q 2172 3584 2450 3431 
Q 2728 3278 2906 2969 
L 2906 3500 
L 3481 3500 
L 3481 434 
z
" transform="scale(0.015625)"/>
      <path id="DejaVuSans-49" d="M 628 4666 
L 1259 4666 
L 1259 0 
L 628 0 
L 628 4666 
z
" transform="scale(0.015625)"/>
      <path id="DejaVuSans-6e" d="M 3513 2113 
L 3513 0 
L 2938 0 
L 2938 2094 
Q 2938 2591 2744 2837 
Q 2550 3084 2163 3084 
Q 1697 3084 1428 2787 
Q 1159 2491 1159 1978 
L 1159 0 
L 581 0 
L 581 3500 
L 1159 3500 
L 1159 2956 
Q 1366 3272 1645 3428 
Q 1925 3584 2291 3584 
Q 2894 3584 3203 3211 
Q 3513 2838 3513 2113 
z
" transform="scale(0.015625)"/>
      <path id="DejaVuSans-70" d="M 1159 525 
L 1159 -1331 
L 581 -1331 
L 581 3500 
L 1159 3500 
L 1159 2969 
Q 1341 3281 1617 3432 
Q 1894 3584 2278 3584 
Q 2916 3584 3314 3078 
Q 3713 2572 3713 1747 
Q 3713 922 3314 415 
Q 2916 -91 2278 -91 
Q 1894 -91 1617 61 
Q 1341 213 1159 525 
z
M 3116 1747 
Q 3116 2381 2855 2742 
Q 2594 3103 2138 3103 
Q 1681 3103 1420 2742 
Q 1159 2381 1159 1747 
Q 1159 1113 1420 752 
Q 1681 391 2138 391 
Q 2594 391 2855 752 
Q 3116 1113 3116 1747 
z
" transform="scale(0.015625)"/>
      <path id="DejaVuSans-75" d="M 544 1381 
L 544 3500 
L 1119 3500 
L 1119 1403 
Q 1119 906 1312 657 
Q 1506 409 1894 409 
Q 2359 409 2629 706 
Q 2900 1003 2900 1516 
L 2900 3500 
L 3475 3500 
L 3475 0 
L 2900 0 
L 2900 538 
Q 2691 219 2414 64 
Q 2138 -91 1772 -91 
Q 1169 -91 856 284 
Q 544 659 544 1381 
z
M 1991 3584 
L 1991 3584 
z
" transform="scale(0.015625)"/>
      <path id="DejaVuSans-2c" d="M 750 794 
L 1409 794 
L 1409 256 
L 897 -744 
L 494 -744 
L 750 256 
L 750 794 
z
" transform="scale(0.015625)"/>
      <path id="DejaVuSans-41" d="M 2188 4044 
L 1331 1722 
L 3047 1722 
L 2188 4044 
z
M 1831 4666 
L 2547 4666 
L 4325 0 
L 3669 0 
L 3244 1197 
L 1141 1197 
L 716 0 
L 50 0 
L 1831 4666 
z
" transform="scale(0.015625)"/>
      <path id="DejaVuSans-3d" d="M 678 2906 
L 4684 2906 
L 4684 2381 
L 678 2381 
L 678 2906 
z
M 678 1631 
L 4684 1631 
L 4684 1100 
L 678 1100 
L 678 1631 
z
" transform="scale(0.015625)"/>
      <path id="DejaVuSans-37" d="M 525 4666 
L 3525 4666 
L 3525 4397 
L 1831 0 
L 1172 0 
L 2766 4134 
L 525 4134 
L 525 4666 
z
" transform="scale(0.015625)"/>
      <path id="DejaVuSans-48" d="M 628 4666 
L 1259 4666 
L 1259 2753 
L 3553 2753 
L 3553 4666 
L 4184 4666 
L 4184 0 
L 3553 0 
L 3553 2222 
L 1259 2222 
L 1259 0 
L 628 0 
L 628 4666 
z
" transform="scale(0.015625)"/>
      <path id="DejaVuSans-7a" d="M 353 3500 
L 3084 3500 
L 3084 2975 
L 922 459 
L 3084 459 
L 3084 0 
L 275 0 
L 275 525 
L 2438 3041 
L 353 3041 
L 353 3500 
z
" transform="scale(0.015625)"/>
      <path id="DejaVuSans-3c4" d="M 2319 638 
Q 2431 488 2769 488 
L 3047 488 
L 3047 0 
L 2700 0 
Q 2138 0 1881 300 
Q 1625 606 1625 1269 
L 1625 2925 
L 313 2925 
L 313 3500 
L 3541 3500 
L 3541 2925 
L 2213 2925 
L 2213 1234 
Q 2213 781 2319 638 
z
" transform="scale(0.015625)"/>
     </defs>
     <use xlink:href="#DejaVuSans-46"/>
     <use xlink:href="#DejaVuSans-69" transform="translate(50.269531 0)"/>
     <use xlink:href="#DejaVuSans-6c" transform="translate(78.052734 0)"/>
     <use xlink:href="#DejaVuSans-74" transform="translate(105.835938 0)"/>
     <use xlink:href="#DejaVuSans-65" transform="translate(145.044922 0)"/>
     <use xlink:href="#DejaVuSans-72" transform="translate(206.568359 0)"/>
     <use xlink:href="#DejaVuSans-3a" transform="translate(245.931641 0)"/>
     <use xlink:href="#DejaVuSans-20" transform="translate(279.623047 0)"/>
     <use xlink:href="#DejaVuSans-68" transform="translate(311.410156 0)"/>
     <use xlink:href="#DejaVuSans-69" transform="translate(374.789062 0)"/>
     <use xlink:href="#DejaVuSans-67" transform="translate(402.572266 0)"/>
     <use xlink:href="#DejaVuSans-68" transform="translate(466.048828 0)"/>
     <use xlink:href="#DejaVuSans-20" transform="translate(529.427734 0)"/>
     <use xlink:href="#DejaVuSans-7c" transform="translate(561.214844 0)"/>
     <use xlink:href="#DejaVuSans-20" transform="translate(594.90625 0)"/>
     <use xlink:href="#DejaVuSans-49" transform="translate(626.693359 0)"/>
     <use xlink:href="#DejaVuSans-6e" transform="translate(656.185547 0)"/>
     <use xlink:href="#DejaVuSans-70" transform="translate(719.564453 0)"/>
     <use xlink:href="#DejaVuSans-75" transform="translate(783.041016 0)"/>
     <use xlink:href="#DejaVuSans-74" transform="translate(846.419922 0)"/>
     <use xlink:href="#DejaVuSans-3a" transform="translate(885.628906 0)"/>
     <use xlink:href="#DejaVuSans-20" transform="translate(919.320312 0)"/>
     <use xlink:href="#DejaVuSans-73" transform="translate(951.107422 0)"/>
     <use xlink:href="#DejaVuSans-69" transform="translate(1003.207031 0)"/>
     <use xlink:href="#DejaVuSans-6e" transform="translate(1030.990234 0)"/>
     <use xlink:href="#DejaVuSans-65" transform="translate(1094.369141 0)"/>
     <use xlink:href="#DejaVuSans-2c" transform="translate(1155.892578 0)"/>
     <use xlink:href="#DejaVuSans-20" transform="translate(1187.679688 0)"/>
     <use xlink:href="#DejaVuSans-73" transform="translate(1219.466797 0)"/>
     <use xlink:href="#DejaVuSans-69" transform="translate(1271.566406 0)"/>
     <use xlink:href="#DejaVuSans-6e" transform="translate(1299.349609 0)"/>
     <use xlink:href="#DejaVuSans-65" transform="translate(1362.728516 0)"/>
     <use xlink:href="#DejaVuSans-20" transform="translate(1424.251953 0)"/>
     <use xlink:href="#DejaVuSans-28" transform="translate(1456.039062 0)"/>
     <use xlink:href="#DejaVuSans-41" transform="translate(1495.052734 0)"/>
     <use xlink:href="#DejaVuSans-3d" transform="translate(1563.460938 0)"/>
     <use xlink:href="#DejaVuSans-31" transform="translate(1647.25 0)"/>
     <use xlink:href="#DejaVuSans-2e" transform="translate(1710.873047 0)"/>
     <use xlink:href="#DejaVuSans-32" transform="translate(1742.660156 0)"/>
     <use xlink:href="#DejaVuSans-35" transform="translate(1806.283203 0)"/>
     <use xlink:href="#DejaVuSans-2c" transform="translate(1869.90625 0)"/>
     <use xlink:href="#DejaVuSans-20" transform="translate(1901.693359 0)"/>
     <use xlink:href="#DejaVuSans-66" transform="translate(1933.480469 0)"/>
     <use xlink:href="#DejaVuSans-3d" transform="translate(1968.685547 0)"/>
     <use xlink:href="#DejaVuSans-31" transform="translate(2052.474609 0)"/>
     <use xlink:href="#DejaVuSans-2e" transform="translate(2116.097656 0)"/>
     <use xlink:href="#DejaVuSans-34" transform="translate(2147.884766 0)"/>
     <use xlink:href="#DejaVuSans-37" transform="translate(2211.507812 0)"/>
     <use xlink:href="#DejaVuSans-20" transform="translate(2275.130859 0)"/>
     <use xlink:href="#DejaVuSans-48" transform="translate(2306.917969 0)"/>
     <use xlink:href="#DejaVuSans-7a" transform="translate(2382.113281 0)"/>
     <use xlink:href="#DejaVuSans-29" transform="translate(2434.603516 0)"/>
     <use xlink:href="#DejaVuSans-20" transform="translate(2473.617188 0)"/>
     <use xlink:href="#DejaVuSans-7c" transform="translate(2505.404297 0)"/>
     <use xlink:href="#DejaVuSans-20" transform="translate(2539.095703 0)"/>
     <use xlink:href="#DejaVuSans-52" transform="translate(2570.882812 0)"/>
     <use xlink:href="#DejaVuSans-3d" transform="translate(2640.365234 0)"/>
     <use xlink:href="#DejaVuSans-32" transform="translate(2724.154297 0)"/>
     <use xlink:href="#DejaVuSans-2e" transform="translate(2787.777344 0)"/>
     <use xlink:href="#DejaVuSans-30" transform="translate(2819.564453 0)"/>
     <use xlink:href="#DejaVuSans-30" transform="translate(2883.1875 0)"/>
     <use xlink:href="#DejaVuSans-2c" transform="translate(2946.810547 0)"/>
     <use xlink:href="#DejaVuSans-20" transform="translate(2978.597656 0)"/>
     <use xlink:href="#DejaVuSans-43" transform="translate(3010.384766 0)"/>
     <use xlink:href="#DejaVuSans-3d" transform="translate(3080.208984 0)"/>
     <use xlink:href="#DejaVuSans-35" transform="translate(3163.998047 0)"/>
     <use xlink:href="#DejaVuSans-2e" transform="translate(3227.621094 0)"/>
     <use xlink:href="#DejaVuSans-30" transform="translate(3259.408203 0)"/>
     <use xlink:href="#DejaVuSans-30" transform="translate(3323.03125 0)"/>
     <use xlink:href="#DejaVuSans-2c" transform="translate(3386.654297 0)"/>
     <use xlink:href="#DejaVuSans-20" transform="translate(3418.441406 0)"/>
     <use xlink:href="#DejaVuSans-3c4" transform="translate(3450.228516 0)"/>
     <use xlink:href="#DejaVuSans-3d" transform="translate(3510.433594 0)"/>
     <use xlink:href="#DejaVuSans-31" transform="translate(3594.222656 0)"/>
     <use xlink:href="#DejaVuSans-30" transform="translate(3657.845703 0)"/>
     <use xlink:href="#DejaVuSans-2e" transform="translate(3721.46875 0)"/>
     <use xlink:href="#DejaVuSans-30" transform="translate(3753.255859 0)"/>
     <use xlink:href="#DejaVuSans-30" transform="translate(3816.878906 0)"/>
    </g>
   </g>
   <g id="legend_1">
    <g id="patch_7">
     <path d="M 63.357054 147.742125 
L 128.339866 147.742125 
Q 130.339866 147.742125 130.339866 145.742125 
L 130.339866 117.385875 
Q 130.339866 115.385875 128.339866 115.385875 
L 63.357054 115.385875 
Q 61.357054 115.385875 61.357054 117.385875 
L 61.357054 145.742125 
Q 61.357054 147.742125 63.357054 147.742125 
z
" style="fill: #ffffff; opacity: 0.8; stroke: #cccccc; stroke-linejoin: miter"/>
    </g>
    <g id="line2d_25">
     <path d="M 65.357054 123.484312 
L 75.357054 123.484312 
L 85.357054 123.484312 
" style="fill: none; stroke: #1f77b4; stroke-width: 1.5; stroke-linecap: square"/>
    </g>
    <g id="text_15">
     <!-- input -->
     <g transform="translate(93.357054 126.984312) scale(0.1 -0.1)">
      <use xlink:href="#DejaVuSans-69"/>
      <use xlink:href="#DejaVuSans-6e" transform="translate(27.783203 0)"/>
      <use xlink:href="#DejaVuSans-70" transform="translate(91.162109 0)"/>
      <use xlink:href="#DejaVuSans-75" transform="translate(154.638672 0)"/>
      <use xlink:href="#DejaVuSans-74" transform="translate(218.017578 0)"/>
     </g>
    </g>
    <g id="line2d_26">
     <path d="M 65.357054 138.162438 
L 75.357054 138.162438 
L 85.357054 138.162438 
" style="fill: none; stroke: #ff7f0e; stroke-width: 1.5; stroke-linecap: square"/>
    </g>
    <g id="text_16">
     <!-- output -->
     <g transform="translate(93.357054 141.662438) scale(0.1 -0.1)">
      <defs>
       <path id="DejaVuSans-6f" d="M 1959 3097 
Q 1497 3097 1228 2736 
Q 959 2375 959 1747 
Q 959 1119 1226 758 
Q 1494 397 1959 397 
Q 2419 397 2687 759 
Q 2956 1122 2956 1747 
Q 2956 2369 2687 2733 
Q 2419 3097 1959 3097 
z
M 1959 3584 
Q 2709 3584 3137 3096 
Q 3566 2609 3566 1747 
Q 3566 888 3137 398 
Q 2709 -91 1959 -91 
Q 1206 -91 779 398 
Q 353 888 353 1747 
Q 353 2609 779 3096 
Q 1206 3584 1959 3584 
z
" transform="scale(0.015625)"/>
      </defs>
      <use xlink:href="#DejaVuSans-6f"/>
      <use xlink:href="#DejaVuSans-75" transform="translate(61.181641 0)"/>
      <use xlink:href="#DejaVuSans-74" transform="translate(124.560547 0)"/>
      <use xlink:href="#DejaVuSans-70" transform="translate(163.769531 0)"/>
      <use xlink:href="#DejaVuSans-75" transform="translate(227.246094 0)"/>
      <use xlink:href="#DejaVuSans-74" transform="translate(290.625 0)"/>
     </g>
    </g>
   </g>
  </g>
  <g id="axes_2">
   <g id="patch_8">
    <path d="M 56.357054 458.728 
L 628.183658 458.728 
L 628.183658 279.312 
L 56.357054 279.312 
z
" style="fill: #ffffff"/>
   </g>
   <g id="matplotlib.axis_3">
    <g id="xtick_7">
     <g id="line2d_27">
      <path d="M 56.357054 458.728 
L 56.357054 279.312 
" clip-path="url(#p398f260307)" style="fill: none; stroke: #b0b0b0; stroke-opacity: 0.25; stroke-width: 0.8; stroke-linecap: square"/>
     </g>
     <g id="line2d_28">
      <g>
       <use xlink:href="#m7e5ac6fcf7" x="56.357054" y="458.728" style="stroke: #000000; stroke-width: 0.8"/>
      </g>
     </g>
     <g id="text_17">
      <!-- $\mathdefault{10^{-1}}$ -->
      <g transform="translate(44.607054 473.326438) scale(0.1 -0.1)">
       <use xlink:href="#DejaVuSans-31" transform="translate(0 0.684375)"/>
       <use xlink:href="#DejaVuSans-30" transform="translate(63.623047 0.684375)"/>
       <use xlink:href="#DejaVuSans-2212" transform="translate(128.203125 38.965625) scale(0.7)"/>
       <use xlink:href="#DejaVuSans-31" transform="translate(186.855469 38.965625) scale(0.7)"/>
      </g>
     </g>
    </g>
    <g id="xtick_8">
     <g id="line2d_29">
      <path d="M 342.270356 458.728 
L 342.270356 279.312 
" clip-path="url(#p398f260307)" style="fill: none; stroke: #b0b0b0; stroke-opacity: 0.25; stroke-width: 0.8; stroke-linecap: square"/>
     </g>
     <g id="line2d_30">
      <g>
       <use xlink:href="#m7e5ac6fcf7" x="342.270356" y="458.728" style="stroke: #000000; stroke-width: 0.8"/>
      </g>
     </g>
     <g id="text_18">
      <!-- $\mathdefault{10^{0}}$ -->
      <g transform="translate(333.470356 473.326438) scale(0.1 -0.1)">
       <use xlink:href="#DejaVuSans-31" transform="translate(0 0.765625)"/>
       <use xlink:href="#DejaVuSans-30" transform="translate(63.623047 0.765625)"/>
       <use xlink:href="#DejaVuSans-30" transform="translate(128.203125 39.046875) scale(0.7)"/>
      </g>
     </g>
    </g>
    <g id="xtick_9">
     <g id="line2d_31">
      <path d="M 628.183658 458.728 
L 628.183658 279.312 
" clip-path="url(#p398f260307)" style="fill: none; stroke: #b0b0b0; stroke-opacity: 0.25; stroke-width: 0.8; stroke-linecap: square"/>
     </g>
     <g id="line2d_32">
      <g>
       <use xlink:href="#m7e5ac6fcf7" x="628.183658" y="458.728" style="stroke: #000000; stroke-width: 0.8"/>
      </g>
     </g>
     <g id="text_19">
      <!-- $\mathdefault{10^{1}}$ -->
      <g transform="translate(619.383658 473.326438) scale(0.1 -0.1)">
       <use xlink:href="#DejaVuSans-31" transform="translate(0 0.684375)"/>
       <use xlink:href="#DejaVuSans-30" transform="translate(63.623047 0.684375)"/>
       <use xlink:href="#DejaVuSans-31" transform="translate(128.203125 38.965625) scale(0.7)"/>
      </g>
     </g>
    </g>
    <g id="xtick_10">
     <g id="line2d_33">
      <defs>
       <path id="mc988f38485" d="M 0 0 
L 0 2 
" style="stroke: #000000; stroke-width: 0.6"/>
      </defs>
      <g>
       <use xlink:href="#mc988f38485" x="142.425534" y="458.728" style="stroke: #000000; stroke-width: 0.6"/>
      </g>
     </g>
    </g>
    <g id="xtick_11">
     <g id="line2d_34">
      <g>
       <use xlink:href="#mc988f38485" x="192.772367" y="458.728" style="stroke: #000000; stroke-width: 0.6"/>
      </g>
     </g>
    </g>
    <g id="xtick_12">
     <g id="line2d_35">
      <g>
       <use xlink:href="#mc988f38485" x="228.494014" y="458.728" style="stroke: #000000; stroke-width: 0.6"/>
      </g>
     </g>
    </g>
    <g id="xtick_13">
     <g id="line2d_36">
      <g>
       <use xlink:href="#mc988f38485" x="256.201876" y="458.728" style="stroke: #000000; stroke-width: 0.6"/>
      </g>
     </g>
    </g>
    <g id="xtick_14">
     <g id="line2d_37">
      <g>
       <use xlink:href="#mc988f38485" x="278.840847" y="458.728" style="stroke: #000000; stroke-width: 0.6"/>
      </g>
     </g>
    </g>
    <g id="xtick_15">
     <g id="line2d_38">
      <g>
       <use xlink:href="#mc988f38485" x="297.981825" y="458.728" style="stroke: #000000; stroke-width: 0.6"/>
      </g>
     </g>
    </g>
    <g id="xtick_16">
     <g id="line2d_39">
      <g>
       <use xlink:href="#mc988f38485" x="314.562494" y="458.728" style="stroke: #000000; stroke-width: 0.6"/>
      </g>
     </g>
    </g>
    <g id="xtick_17">
     <g id="line2d_40">
      <g>
       <use xlink:href="#mc988f38485" x="329.187681" y="458.728" style="stroke: #000000; stroke-width: 0.6"/>
      </g>
     </g>
    </g>
    <g id="xtick_18">
     <g id="line2d_41">
      <g>
       <use xlink:href="#mc988f38485" x="428.338836" y="458.728" style="stroke: #000000; stroke-width: 0.6"/>
      </g>
     </g>
    </g>
    <g id="xtick_19">
     <g id="line2d_42">
      <g>
       <use xlink:href="#mc988f38485" x="478.685669" y="458.728" style="stroke: #000000; stroke-width: 0.6"/>
      </g>
     </g>
    </g>
    <g id="xtick_20">
     <g id="line2d_43">
      <g>
       <use xlink:href="#mc988f38485" x="514.407316" y="458.728" style="stroke: #000000; stroke-width: 0.6"/>
      </g>
     </g>
    </g>
    <g id="xtick_21">
     <g id="line2d_44">
      <g>
       <use xlink:href="#mc988f38485" x="542.115178" y="458.728" style="stroke: #000000; stroke-width: 0.6"/>
      </g>
     </g>
    </g>
    <g id="xtick_22">
     <g id="line2d_45">
      <g>
       <use xlink:href="#mc988f38485" x="564.754149" y="458.728" style="stroke: #000000; stroke-width: 0.6"/>
      </g>
     </g>
    </g>
    <g id="xtick_23">
     <g id="line2d_46">
      <g>
       <use xlink:href="#mc988f38485" x="583.895127" y="458.728" style="stroke: #000000; stroke-width: 0.6"/>
      </g>
     </g>
    </g>
    <g id="xtick_24">
     <g id="line2d_47">
      <g>
       <use xlink:href="#mc988f38485" x="600.475796" y="458.728" style="stroke: #000000; stroke-width: 0.6"/>
      </g>
     </g>
    </g>
    <g id="xtick_25">
     <g id="line2d_48">
      <g>
       <use xlink:href="#mc988f38485" x="615.100982" y="458.728" style="stroke: #000000; stroke-width: 0.6"/>
      </g>
     </g>
    </g>
    <g id="text_20">
     <!-- frequency [arb.] -->
     <g transform="translate(301.820356 487.004563) scale(0.1 -0.1)">
      <defs>
       <path id="DejaVuSans-71" d="M 947 1747 
Q 947 1113 1208 752 
Q 1469 391 1925 391 
Q 2381 391 2643 752 
Q 2906 1113 2906 1747 
Q 2906 2381 2643 2742 
Q 2381 3103 1925 3103 
Q 1469 3103 1208 2742 
Q 947 2381 947 1747 
z
M 2906 525 
Q 2725 213 2448 61 
Q 2172 -91 1784 -91 
Q 1150 -91 751 415 
Q 353 922 353 1747 
Q 353 2572 751 3078 
Q 1150 3584 1784 3584 
Q 2172 3584 2448 3432 
Q 2725 3281 2906 2969 
L 2906 3500 
L 3481 3500 
L 3481 -1331 
L 2906 -1331 
L 2906 525 
z
" transform="scale(0.015625)"/>
      </defs>
      <use xlink:href="#DejaVuSans-66"/>
      <use xlink:href="#DejaVuSans-72" transform="translate(35.205078 0)"/>
      <use xlink:href="#DejaVuSans-65" transform="translate(74.068359 0)"/>
      <use xlink:href="#DejaVuSans-71" transform="translate(135.591797 0)"/>
      <use xlink:href="#DejaVuSans-75" transform="translate(199.068359 0)"/>
      <use xlink:href="#DejaVuSans-65" transform="translate(262.447266 0)"/>
      <use xlink:href="#DejaVuSans-6e" transform="translate(323.970703 0)"/>
      <use xlink:href="#DejaVuSans-63" transform="translate(387.349609 0)"/>
      <use xlink:href="#DejaVuSans-79" transform="translate(442.330078 0)"/>
      <use xlink:href="#DejaVuSans-20" transform="translate(501.509766 0)"/>
      <use xlink:href="#DejaVuSans-5b" transform="translate(533.296875 0)"/>
      <use xlink:href="#DejaVuSans-61" transform="translate(572.310547 0)"/>
      <use xlink:href="#DejaVuSans-72" transform="translate(633.589844 0)"/>
      <use xlink:href="#DejaVuSans-62" transform="translate(674.703125 0)"/>
      <use xlink:href="#DejaVuSans-2e" transform="translate(738.179688 0)"/>
      <use xlink:href="#DejaVuSans-5d" transform="translate(769.966797 0)"/>
     </g>
    </g>
   </g>
   <g id="matplotlib.axis_4">
    <g id="ytick_6">
     <g id="line2d_49">
      <path d="M 56.357054 437.179927 
L 628.183658 437.179927 
" clip-path="url(#p398f260307)" style="fill: none; stroke: #b0b0b0; stroke-opacity: 0.25; stroke-width: 0.8; stroke-linecap: square"/>
     </g>
     <g id="line2d_50">
      <g>
       <use xlink:href="#m9689094c87" x="56.357054" y="437.179927" style="stroke: #000000; stroke-width: 0.8"/>
      </g>
     </g>
     <g id="text_21">
      <!-- $\mathdefault{10^{-8}}$ -->
      <g transform="translate(25.857054 440.979146) scale(0.1 -0.1)">
       <use xlink:href="#DejaVuSans-31" transform="translate(0 0.765625)"/>
       <use xlink:href="#DejaVuSans-30" transform="translate(63.623047 0.765625)"/>
       <use xlink:href="#DejaVuSans-2212" transform="translate(128.203125 39.046875) scale(0.7)"/>
       <use xlink:href="#DejaVuSans-38" transform="translate(186.855469 39.046875) scale(0.7)"/>
      </g>
     </g>
    </g>
    <g id="ytick_7">
     <g id="line2d_51">
      <path d="M 56.357054 410.146817 
L 628.183658 410.146817 
" clip-path="url(#p398f260307)" style="fill: none; stroke: #b0b0b0; stroke-opacity: 0.25; stroke-width: 0.8; stroke-linecap: square"/>
     </g>
     <g id="line2d_52">
      <g>
       <use xlink:href="#m9689094c87" x="56.357054" y="410.146817" style="stroke: #000000; stroke-width: 0.8"/>
      </g>
     </g>
     <g id="text_22">
      <!-- $\mathdefault{10^{-6}}$ -->
      <g transform="translate(25.857054 413.946036) scale(0.1 -0.1)">
       <use xlink:href="#DejaVuSans-31" transform="translate(0 0.765625)"/>
       <use xlink:href="#DejaVuSans-30" transform="translate(63.623047 0.765625)"/>
       <use xlink:href="#DejaVuSans-2212" transform="translate(128.203125 39.046875) scale(0.7)"/>
       <use xlink:href="#DejaVuSans-36" transform="translate(186.855469 39.046875) scale(0.7)"/>
      </g>
     </g>
    </g>
    <g id="ytick_8">
     <g id="line2d_53">
      <path d="M 56.357054 383.113707 
L 628.183658 383.113707 
" clip-path="url(#p398f260307)" style="fill: none; stroke: #b0b0b0; stroke-opacity: 0.25; stroke-width: 0.8; stroke-linecap: square"/>
     </g>
     <g id="line2d_54">
      <g>
       <use xlink:href="#m9689094c87" x="56.357054" y="383.113707" style="stroke: #000000; stroke-width: 0.8"/>
      </g>
     </g>
     <g id="text_23">
      <!-- $\mathdefault{10^{-4}}$ -->
      <g transform="translate(25.857054 386.912926) scale(0.1 -0.1)">
       <use xlink:href="#DejaVuSans-31" transform="translate(0 0.684375)"/>
       <use xlink:href="#DejaVuSans-30" transform="translate(63.623047 0.684375)"/>
       <use xlink:href="#DejaVuSans-2212" transform="translate(128.203125 38.965625) scale(0.7)"/>
       <use xlink:href="#DejaVuSans-34" transform="translate(186.855469 38.965625) scale(0.7)"/>
      </g>
     </g>
    </g>
    <g id="ytick_9">
     <g id="line2d_55">
      <path d="M 56.357054 356.080598 
L 628.183658 356.080598 
" clip-path="url(#p398f260307)" style="fill: none; stroke: #b0b0b0; stroke-opacity: 0.25; stroke-width: 0.8; stroke-linecap: square"/>
     </g>
     <g id="line2d_56">
      <g>
       <use xlink:href="#m9689094c87" x="56.357054" y="356.080598" style="stroke: #000000; stroke-width: 0.8"/>
      </g>
     </g>
     <g id="text_24">
      <!-- $\mathdefault{10^{-2}}$ -->
      <g transform="translate(25.857054 359.879817) scale(0.1 -0.1)">
       <use xlink:href="#DejaVuSans-31" transform="translate(0 0.765625)"/>
       <use xlink:href="#DejaVuSans-30" transform="translate(63.623047 0.765625)"/>
       <use xlink:href="#DejaVuSans-2212" transform="translate(128.203125 39.046875) scale(0.7)"/>
       <use xlink:href="#DejaVuSans-32" transform="translate(186.855469 39.046875) scale(0.7)"/>
      </g>
     </g>
    </g>
    <g id="ytick_10">
     <g id="line2d_57">
      <path d="M 56.357054 329.047488 
L 628.183658 329.047488 
" clip-path="url(#p398f260307)" style="fill: none; stroke: #b0b0b0; stroke-opacity: 0.25; stroke-width: 0.8; stroke-linecap: square"/>
     </g>
     <g id="line2d_58">
      <g>
       <use xlink:href="#m9689094c87" x="56.357054" y="329.047488" style="stroke: #000000; stroke-width: 0.8"/>
      </g>
     </g>
     <g id="text_25">
      <!-- $\mathdefault{10^{0}}$ -->
      <g transform="translate(31.757054 332.846707) scale(0.1 -0.1)">
       <use xlink:href="#DejaVuSans-31" transform="translate(0 0.765625)"/>
       <use xlink:href="#DejaVuSans-30" transform="translate(63.623047 0.765625)"/>
       <use xlink:href="#DejaVuSans-30" transform="translate(128.203125 39.046875) scale(0.7)"/>
      </g>
     </g>
    </g>
    <g id="ytick_11">
     <g id="line2d_59">
      <path d="M 56.357054 302.014379 
L 628.183658 302.014379 
" clip-path="url(#p398f260307)" style="fill: none; stroke: #b0b0b0; stroke-opacity: 0.25; stroke-width: 0.8; stroke-linecap: square"/>
     </g>
     <g id="line2d_60">
      <g>
       <use xlink:href="#m9689094c87" x="56.357054" y="302.014379" style="stroke: #000000; stroke-width: 0.8"/>
      </g>
     </g>
     <g id="text_26">
      <!-- $\mathdefault{10^{2}}$ -->
      <g transform="translate(31.757054 305.813597) scale(0.1 -0.1)">
       <use xlink:href="#DejaVuSans-31" transform="translate(0 0.765625)"/>
       <use xlink:href="#DejaVuSans-30" transform="translate(63.623047 0.765625)"/>
       <use xlink:href="#DejaVuSans-32" transform="translate(128.203125 39.046875) scale(0.7)"/>
      </g>
     </g>
    </g>
    <g id="text_27">
     <!-- |FFT(.)| -->
     <g transform="translate(19.499241 386.597344) rotate(-90) scale(0.1 -0.1)">
      <defs>
       <path id="DejaVuSans-54" d="M -19 4666 
L 3928 4666 
L 3928 4134 
L 2272 4134 
L 2272 0 
L 1638 0 
L 1638 4134 
L -19 4134 
L -19 4666 
z
" transform="scale(0.015625)"/>
      </defs>
      <use xlink:href="#DejaVuSans-7c"/>
      <use xlink:href="#DejaVuSans-46" transform="translate(33.691406 0)"/>
      <use xlink:href="#DejaVuSans-46" transform="translate(91.210938 0)"/>
      <use xlink:href="#DejaVuSans-54" transform="translate(146.980469 0)"/>
      <use xlink:href="#DejaVuSans-28" transform="translate(208.064453 0)"/>
      <use xlink:href="#DejaVuSans-2e" transform="translate(247.078125 0)"/>
      <use xlink:href="#DejaVuSans-29" transform="translate(278.865234 0)"/>
      <use xlink:href="#DejaVuSans-7c" transform="translate(317.878906 0)"/>
     </g>
    </g>
   </g>
   <g id="line2d_61">
    <path d="M 56.357054 311.291544 
L 142.425534 337.748922 
L 192.772367 336.869512 
L 228.494014 335.642606 
L 256.201876 334.129415 
L 278.840847 332.340431 
L 297.981825 330.255681 
L 314.562494 327.823372 
L 329.187681 324.948637 
L 342.270356 321.464425 
L 354.105075 317.056403 
L 364.909327 311.025711 
L 374.848276 301.0393 
L 384.050305 288.795379 
L 392.617189 287.467273 
L 400.630974 294.79022 
L 408.158768 308.351139 
L 415.256161 315.282243 
L 421.969718 320.144321 
L 428.338836 323.92135 
L 434.397138 327.019527 
L 440.173555 329.650194 
L 445.693156 331.938386 
L 450.977807 333.964534 
L 456.046698 335.783547 
L 460.916756 337.434624 
L 465.602994 338.946744 
L 470.118785 340.341945 
L 474.476094 341.637377 
L 478.685669 342.846652 
L 482.7572 343.980755 
L 486.699454 345.048678 
L 490.520388 346.057875 
L 494.227248 347.014595 
L 497.826647 347.924129 
L 501.324641 348.790993 
L 504.726787 349.619076 
L 508.038198 350.411751 
L 511.263589 351.17196 
L 514.407316 351.902287 
L 517.473412 352.605015 
L 520.465618 353.282168 
L 523.387414 353.93555 
L 526.242035 354.566779 
L 529.032502 355.177308 
L 531.761636 355.768448 
L 534.432073 356.341388 
L 537.046287 356.897207 
L 539.606596 357.43689 
L 542.115178 357.961337 
L 544.574081 358.471373 
L 546.985236 358.967756 
L 549.350461 359.451185 
L 551.671474 359.922305 
L 553.949897 360.381715 
L 556.187265 360.829968 
L 558.385032 361.267579 
L 560.544574 361.695029 
L 562.6672 362.112763 
L 564.754149 362.521202 
L 566.806602 362.920736 
L 568.82568 363.311732 
L 570.812452 363.694534 
L 572.767934 364.069466 
L 574.693098 364.436834 
L 576.588868 364.796924 
L 578.45613 365.150008 
L 580.295728 365.496342 
L 582.108469 365.836169 
L 583.895127 366.169718 
L 585.656441 366.497208 
L 587.393121 366.818844 
L 589.105845 367.134823 
L 590.795267 367.445332 
L 592.462011 367.750548 
L 594.106678 368.05064 
L 595.729846 368.345771 
L 597.332069 368.636093 
L 598.913881 368.921753 
L 600.475796 369.202893 
L 602.018307 369.479645 
L 603.541892 369.75214 
L 605.047008 370.020498 
L 606.534098 370.28484 
L 608.00359 370.545276 
L 609.455894 370.801916 
L 610.891407 371.054864 
L 612.310515 371.30422 
L 613.713587 371.550079 
L 615.100982 371.792534 
L 616.473047 372.031673 
L 617.830116 372.267583 
L 619.172513 372.500345 
L 620.500554 372.730038 
L 621.81454 372.95674 
L 623.114767 373.180523 
L 624.40152 373.401458 
L 625.675076 373.619614 
L 626.935702 373.835058 
L 628.183658 374.047853 
L 629.419196 374.258061 
" clip-path="url(#p398f260307)" style="fill: none; stroke: #1f77b4; stroke-opacity: 0.6; stroke-width: 1.5; stroke-linecap: square"/>
   </g>
   <g id="line2d_62">
    <path d="M 56.357054 311.409956 
L 142.425534 333.15145 
L 192.772367 336.082587 
L 228.494014 335.397658 
L 256.201876 334.028219 
L 278.840847 332.296023 
L 297.981825 330.23646 
L 314.562494 327.815618 
L 329.187681 324.94606 
L 342.270356 321.464109 
L 354.105075 317.057014 
L 364.909327 311.02666 
L 374.848276 301.040348 
L 384.050305 288.796443 
L 392.617189 287.468334 
L 400.630974 294.791283 
L 408.158768 308.352212 
L 415.256161 315.283327 
L 421.969718 320.145412 
L 428.338836 323.922437 
L 434.397138 327.020591 
L 440.173555 329.651212 
L 445.693156 331.939333 
L 450.977807 333.965383 
L 456.046698 335.784269 
L 460.916756 337.43519 
L 465.602994 338.947126 
L 470.118785 340.342113 
L 474.476094 341.637304 
L 478.685669 342.846312 
L 482.7572 343.980122 
L 486.699454 345.047728 
L 490.520388 346.056585 
L 494.227248 347.012944 
L 497.826647 347.922095 
L 501.324641 348.788558 
L 504.726787 349.616223 
L 508.038198 350.408462 
L 511.263589 351.16822 
L 514.407316 351.898082 
L 517.473412 352.600332 
L 520.465618 353.276993 
L 523.387414 353.929873 
L 526.242035 354.56059 
L 529.032502 355.170596 
L 531.761636 355.761206 
L 534.432073 356.333607 
L 537.046287 356.888881 
L 539.606596 357.428013 
L 542.115178 357.951903 
L 544.574081 358.461377 
L 546.985236 358.957194 
L 549.350461 359.440053 
L 551.671474 359.910601 
L 553.949897 360.369435 
L 556.187265 360.817111 
L 558.385032 361.254144 
L 560.544574 361.681013 
L 562.6672 362.098168 
L 564.754149 362.506026 
L 566.806602 362.90498 
L 568.82568 363.295396 
L 570.812452 363.677619 
L 572.767934 364.051975 
L 574.693098 364.418767 
L 576.588868 364.778283 
L 578.45613 365.130796 
L 580.295728 365.476561 
L 582.108469 365.815821 
L 583.895127 366.148807 
L 585.656441 366.475736 
L 587.393121 366.796815 
L 589.105845 367.112241 
L 590.795267 367.4222 
L 592.462011 367.72687 
L 594.106678 368.026421 
L 595.729846 368.321013 
L 597.332069 368.610802 
L 598.913881 368.895933 
L 600.475796 369.176548 
L 602.018307 369.452781 
L 603.541892 369.72476 
L 605.047008 369.992608 
L 606.534098 370.256444 
L 608.00359 370.51638 
L 609.455894 370.772524 
L 610.891407 371.024982 
L 612.310515 371.273851 
L 613.713587 371.51923 
L 615.100982 371.761209 
L 616.473047 371.999879 
L 617.830116 372.235323 
L 619.172513 372.467625 
L 620.500554 372.696864 
L 621.81454 372.923116 
L 623.114767 373.146454 
L 624.40152 373.366951 
L 625.675076 373.584673 
L 626.935702 373.799689 
L 628.183658 374.01206 
L 629.419196 374.22185 
" clip-path="url(#p398f260307)" style="fill: none; stroke: #ff7f0e; stroke-width: 1.5; stroke-linecap: square"/>
   </g>
   <g id="patch_9">
    <path d="M 56.357054 458.728 
L 56.357054 279.312 
" style="fill: none; stroke: #000000; stroke-width: 0.8; stroke-linejoin: miter; stroke-linecap: square"/>
   </g>
   <g id="patch_10">
    <path d="M 628.183658 458.728 
L 628.183658 279.312 
" style="fill: none; stroke: #000000; stroke-width: 0.8; stroke-linejoin: miter; stroke-linecap: square"/>
   </g>
   <g id="patch_11">
    <path d="M 56.357054 458.728 
L 628.183658 458.728 
" style="fill: none; stroke: #000000; stroke-width: 0.8; stroke-linejoin: miter; stroke-linecap: square"/>
   </g>
   <g id="patch_12">
    <path d="M 56.357054 279.312 
L 628.183658 279.312 
" style="fill: none; stroke: #000000; stroke-width: 0.8; stroke-linejoin: miter; stroke-linecap: square"/>
   </g>
   <g id="text_28">
    <!-- Output FFT peak ≈ 1.500 (arb.), magnitude ≈ 1.192e+03 | band/flat-ish -->
    <g transform="translate(125.870981 273.312) scale(0.12 -0.12)">
     <defs>
      <path id="DejaVuSans-4f" d="M 2522 4238 
Q 1834 4238 1429 3725 
Q 1025 3213 1025 2328 
Q 1025 1447 1429 934 
Q 1834 422 2522 422 
Q 3209 422 3611 934 
Q 4013 1447 4013 2328 
Q 4013 3213 3611 3725 
Q 3209 4238 2522 4238 
z
M 2522 4750 
Q 3503 4750 4090 4092 
Q 4678 3434 4678 2328 
Q 4678 1225 4090 567 
Q 3503 -91 2522 -91 
Q 1538 -91 948 565 
Q 359 1222 359 2328 
Q 359 3434 948 4092 
Q 1538 4750 2522 4750 
z
" transform="scale(0.015625)"/>
      <path id="DejaVuSans-6b" d="M 581 4863 
L 1159 4863 
L 1159 1991 
L 2875 3500 
L 3609 3500 
L 1753 1863 
L 3688 0 
L 2938 0 
L 1159 1709 
L 1159 0 
L 581 0 
L 581 4863 
z
" transform="scale(0.015625)"/>
      <path id="DejaVuSans-2248" d="M 4684 1947 
L 4684 1388 
Q 4356 1144 4076 1036 
Q 3797 928 3494 928 
Q 3150 928 2694 1113 
Q 2663 1125 2641 1134 
Q 2622 1141 2575 1159 
Q 2091 1350 1797 1350 
Q 1522 1350 1253 1231 
Q 984 1113 678 850 
L 678 1409 
Q 1006 1653 1286 1761 
Q 1566 1869 1869 1869 
Q 2213 1869 2672 1684 
Q 2706 1669 2722 1663 
Q 2741 1656 2788 1638 
Q 3272 1447 3566 1447 
Q 3834 1447 4098 1564 
Q 4363 1681 4684 1947 
z
M 4684 3163 
L 4684 2606 
Q 4356 2359 4076 2251 
Q 3797 2144 3494 2144 
Q 3150 2144 2694 2328 
Q 2663 2341 2641 2350 
Q 2622 2356 2575 2375 
Q 2091 2566 1797 2566 
Q 1522 2566 1253 2447 
Q 984 2328 678 2069 
L 678 2625 
Q 1006 2869 1286 2976 
Q 1566 3084 1869 3084 
Q 2213 3084 2672 2900 
Q 2703 2888 2719 2881 
Q 2741 2872 2788 2853 
Q 3272 2663 3566 2663 
Q 3834 2663 4098 2780 
Q 4363 2897 4684 3163 
z
" transform="scale(0.015625)"/>
      <path id="DejaVuSans-6d" d="M 3328 2828 
Q 3544 3216 3844 3400 
Q 4144 3584 4550 3584 
Q 5097 3584 5394 3201 
Q 5691 2819 5691 2113 
L 5691 0 
L 5113 0 
L 5113 2094 
Q 5113 2597 4934 2840 
Q 4756 3084 4391 3084 
Q 3944 3084 3684 2787 
Q 3425 2491 3425 1978 
L 3425 0 
L 2847 0 
L 2847 2094 
Q 2847 2600 2669 2842 
Q 2491 3084 2119 3084 
Q 1678 3084 1418 2786 
Q 1159 2488 1159 1978 
L 1159 0 
L 581 0 
L 581 3500 
L 1159 3500 
L 1159 2956 
Q 1356 3278 1631 3431 
Q 1906 3584 2284 3584 
Q 2666 3584 2933 3390 
Q 3200 3197 3328 2828 
z
" transform="scale(0.015625)"/>
      <path id="DejaVuSans-39" d="M 703 97 
L 703 672 
Q 941 559 1184 500 
Q 1428 441 1663 441 
Q 2288 441 2617 861 
Q 2947 1281 2994 2138 
Q 2813 1869 2534 1725 
Q 2256 1581 1919 1581 
Q 1219 1581 811 2004 
Q 403 2428 403 3163 
Q 403 3881 828 4315 
Q 1253 4750 1959 4750 
Q 2769 4750 3195 4129 
Q 3622 3509 3622 2328 
Q 3622 1225 3098 567 
Q 2575 -91 1691 -91 
Q 1453 -91 1209 -44 
Q 966 3 703 97 
z
M 1959 2075 
Q 2384 2075 2632 2365 
Q 2881 2656 2881 3163 
Q 2881 3666 2632 3958 
Q 2384 4250 1959 4250 
Q 1534 4250 1286 3958 
Q 1038 3666 1038 3163 
Q 1038 2656 1286 2365 
Q 1534 2075 1959 2075 
z
" transform="scale(0.015625)"/>
      <path id="DejaVuSans-2b" d="M 2944 4013 
L 2944 2272 
L 4684 2272 
L 4684 1741 
L 2944 1741 
L 2944 0 
L 2419 0 
L 2419 1741 
L 678 1741 
L 678 2272 
L 2419 2272 
L 2419 4013 
L 2944 4013 
z
" transform="scale(0.015625)"/>
      <path id="DejaVuSans-2f" d="M 1625 4666 
L 2156 4666 
L 531 -594 
L 0 -594 
L 1625 4666 
z
" transform="scale(0.015625)"/>
     </defs>
     <use xlink:href="#DejaVuSans-4f"/>
     <use xlink:href="#DejaVuSans-75" transform="translate(78.710938 0)"/>
     <use xlink:href="#DejaVuSans-74" transform="translate(142.089844 0)"/>
     <use xlink:href="#DejaVuSans-70" transform="translate(181.298828 0)"/>
     <use xlink:href="#DejaVuSans-75" transform="translate(244.775391 0)"/>
     <use xlink:href="#DejaVuSans-74" transform="translate(308.154297 0)"/>
     <use xlink:href="#DejaVuSans-20" transform="translate(347.363281 0)"/>
     <use xlink:href="#DejaVuSans-46" transform="translate(379.150391 0)"/>
     <use xlink:href="#DejaVuSans-46" transform="translate(436.669922 0)"/>
     <use xlink:href="#DejaVuSans-54" transform="translate(492.439453 0)"/>
     <use xlink:href="#DejaVuSans-20" transform="translate(553.523438 0)"/>
     <use xlink:href="#DejaVuSans-70" transform="translate(585.310547 0)"/>
     <use xlink:href="#DejaVuSans-65" transform="translate(648.787109 0)"/>
     <use xlink:href="#DejaVuSans-61" transform="translate(710.310547 0)"/>
     <use xlink:href="#DejaVuSans-6b" transform="translate(771.589844 0)"/>
     <use xlink:href="#DejaVuSans-20" transform="translate(829.5 0)"/>
     <use xlink:href="#DejaVuSans-2248" transform="translate(861.287109 0)"/>
     <use xlink:href="#DejaVuSans-20" transform="translate(945.076172 0)"/>
     <use xlink:href="#DejaVuSans-31" transform="translate(976.863281 0)"/>
     <use xlink:href="#DejaVuSans-2e" transform="translate(1040.486328 0)"/>
     <use xlink:href="#DejaVuSans-35" transform="translate(1072.273438 0)"/>
     <use xlink:href="#DejaVuSans-30" transform="translate(1135.896484 0)"/>
     <use xlink:href="#DejaVuSans-30" transform="translate(1199.519531 0)"/>
     <use xlink:href="#DejaVuSans-20" transform="translate(1263.142578 0)"/>
     <use xlink:href="#DejaVuSans-28" transform="translate(1294.929688 0)"/>
     <use xlink:href="#DejaVuSans-61" transform="translate(1333.943359 0)"/>
     <use xlink:href="#DejaVuSans-72" transform="translate(1395.222656 0)"/>
     <use xlink:href="#DejaVuSans-62" transform="translate(1436.335938 0)"/>
     <use xlink:href="#DejaVuSans-2e" transform="translate(1499.8125 0)"/>
     <use xlink:href="#DejaVuSans-29" transform="translate(1531.599609 0)"/>
     <use xlink:href="#DejaVuSans-2c" transform="translate(1570.613281 0)"/>
     <use xlink:href="#DejaVuSans-20" transform="translate(1602.400391 0)"/>
     <use xlink:href="#DejaVuSans-6d" transform="translate(1634.1875 0)"/>
     <use xlink:href="#DejaVuSans-61" transform="translate(1731.599609 0)"/>
     <use xlink:href="#DejaVuSans-67" transform="translate(1792.878906 0)"/>
     <use xlink:href="#DejaVuSans-6e" transform="translate(1856.355469 0)"/>
     <use xlink:href="#DejaVuSans-69" transform="translate(1919.734375 0)"/>
     <use xlink:href="#DejaVuSans-74" transform="translate(1947.517578 0)"/>
     <use xlink:href="#DejaVuSans-75" transform="translate(1986.726562 0)"/>
     <use xlink:href="#DejaVuSans-64" transform="translate(2050.105469 0)"/>
     <use xlink:href="#DejaVuSans-65" transform="translate(2113.582031 0)"/>
     <use xlink:href="#DejaVuSans-20" transform="translate(2175.105469 0)"/>
     <use xlink:href="#DejaVuSans-2248" transform="translate(2206.892578 0)"/>
     <use xlink:href="#DejaVuSans-20" transform="translate(2290.681641 0)"/>
     <use xlink:href="#DejaVuSans-31" transform="translate(2322.46875 0)"/>
     <use xlink:href="#DejaVuSans-2e" transform="translate(2386.091797 0)"/>
     <use xlink:href="#DejaVuSans-31" transform="translate(2417.878906 0)"/>
     <use xlink:href="#DejaVuSans-39" transform="translate(2481.501953 0)"/>
     <use xlink:href="#DejaVuSans-32" transform="translate(2545.125 0)"/>
     <use xlink:href="#DejaVuSans-65" transform="translate(2608.748047 0)"/>
     <use xlink:href="#DejaVuSans-2b" transform="translate(2670.271484 0)"/>
     <use xlink:href="#DejaVuSans-30" transform="translate(2754.060547 0)"/>
     <use xlink:href="#DejaVuSans-33" transform="translate(2817.683594 0)"/>
     <use xlink:href="#DejaVuSans-20" transform="translate(2881.306641 0)"/>
     <use xlink:href="#DejaVuSans-7c" transform="translate(2913.09375 0)"/>
     <use xlink:href="#DejaVuSans-20" transform="translate(2946.785156 0)"/>
     <use xlink:href="#DejaVuSans-62" transform="translate(2978.572266 0)"/>
     <use xlink:href="#DejaVuSans-61" transform="translate(3042.048828 0)"/>
     <use xlink:href="#DejaVuSans-6e" transform="translate(3103.328125 0)"/>
     <use xlink:href="#DejaVuSans-64" transform="translate(3166.707031 0)"/>
     <use xlink:href="#DejaVuSans-2f" transform="translate(3230.183594 0)"/>
     <use xlink:href="#DejaVuSans-66" transform="translate(3263.875 0)"/>
     <use xlink:href="#DejaVuSans-6c" transform="translate(3299.080078 0)"/>
     <use xlink:href="#DejaVuSans-61" transform="translate(3326.863281 0)"/>
     <use xlink:href="#DejaVuSans-74" transform="translate(3388.142578 0)"/>
     <use xlink:href="#DejaVuSans-2d" transform="translate(3427.351562 0)"/>
     <use xlink:href="#DejaVuSans-69" transform="translate(3463.435547 0)"/>
     <use xlink:href="#DejaVuSans-73" transform="translate(3491.21875 0)"/>
     <use xlink:href="#DejaVuSans-68" transform="translate(3543.318359 0)"/>
    </g>
   </g>
   <g id="legend_2">
    <g id="patch_13">
     <path d="M 535.586783 316.66825 
L 621.183658 316.66825 
Q 623.183658 316.66825 623.183658 314.66825 
L 623.183658 286.312 
Q 623.183658 284.312 621.183658 284.312 
L 535.586783 284.312 
Q 533.586783 284.312 533.586783 286.312 
L 533.586783 314.66825 
Q 533.586783 316.66825 535.586783 316.66825 
z
" style="fill: #ffffff; opacity: 0.8; stroke: #cccccc; stroke-linejoin: miter"/>
    </g>
    <g id="line2d_63">
     <path d="M 537.586783 292.410438 
L 547.586783 292.410438 
L 557.586783 292.410438 
" style="fill: none; stroke: #1f77b4; stroke-opacity: 0.6; stroke-width: 1.5; stroke-linecap: square"/>
    </g>
    <g id="text_29">
     <!-- input FFT -->
     <g transform="translate(565.586783 295.910438) scale(0.1 -0.1)">
      <use xlink:href="#DejaVuSans-69"/>
      <use xlink:href="#DejaVuSans-6e" transform="translate(27.783203 0)"/>
      <use xlink:href="#DejaVuSans-70" transform="translate(91.162109 0)"/>
      <use xlink:href="#DejaVuSans-75" transform="translate(154.638672 0)"/>
      <use xlink:href="#DejaVuSans-74" transform="translate(218.017578 0)"/>
      <use xlink:href="#DejaVuSans-20" transform="translate(257.226562 0)"/>
      <use xlink:href="#DejaVuSans-46" transform="translate(289.013672 0)"/>
      <use xlink:href="#DejaVuSans-46" transform="translate(346.533203 0)"/>
      <use xlink:href="#DejaVuSans-54" transform="translate(402.302734 0)"/>
     </g>
    </g>
    <g id="line2d_64">
     <path d="M 537.586783 307.088562 
L 547.586783 307.088562 
L 557.586783 307.088562 
" style="fill: none; stroke: #ff7f0e; stroke-width: 1.5; stroke-linecap: square"/>
    </g>
    <g id="text_30">
     <!-- output FFT -->
     <g transform="translate(565.586783 310.588562) scale(0.1 -0.1)">
      <use xlink:href="#DejaVuSans-6f"/>
      <use xlink:href="#DejaVuSans-75" transform="translate(61.181641 0)"/>
      <use xlink:href="#DejaVuSans-74" transform="translate(124.560547 0)"/>
      <use xlink:href="#DejaVuSans-70" transform="translate(163.769531 0)"/>
      <use xlink:href="#DejaVuSans-75" transform="translate(227.246094 0)"/>
      <use xlink:href="#DejaVuSans-74" transform="translate(290.625 0)"/>
      <use xlink:href="#DejaVuSans-20" transform="translate(329.833984 0)"/>
      <use xlink:href="#DejaVuSans-46" transform="translate(361.621094 0)"/>
      <use xlink:href="#DejaVuSans-46" transform="translate(419.140625 0)"/>
      <use xlink:href="#DejaVuSans-54" transform="translate(474.910156 0)"/>
     </g>
    </g>
   </g>
  </g>
 </g>
 <defs>
  <clipPath id="p848cb8e4de">
   <rect x="56.357054" y="41.856" width="571.826604" height="179.416"/>
  </clipPath>
  <clipPath id="p398f260307">
   <rect x="56.357054" y="279.312" width="571.826604" height="179.416"/>
  </clipPath>
 </defs>
</svg>
